<?xml version="1.0" standalone="no"?>
<!DOCTYPE svg PUBLIC "-//W3C//DTD SVG 20010904//EN"
 "http://www.w3.org/TR/2001/REC-SVG-20010904/DTD/svg10.dtd">
<svg version="1.0" xmlns="http://www.w3.org/2000/svg"
 width="700.000000pt" height="700.000000pt" viewBox="0 0 700.000000 700.000000"
 preserveAspectRatio="xMidYMid meet">
<metadata>
Created by potrace 1.11, written by Peter Selinger 2001-2013
</metadata>
<g transform="translate(0.000000,700.000000) scale(0.100000,-0.100000)"
fill="#000000" stroke="none">
<path d="M3547 6389 c-291 -25 -603 -135 -844 -295 -296 -197 -551 -486 -715
-809 l-53 -105 -70 6 c-152 13 -459 -30 -640 -90 -745 -249 -1184 -1002 -1188
-2036 -1 -187 -1 -182 67 -683 17 -123 48 -179 121 -219 49 -27 54 -28 216
-28 l167 0 6 54 c9 72 55 164 101 205 56 48 115 72 330 133 l190 53 -352 3
-352 2 -5 33 c-35 213 -41 276 -40 447 1 841 330 1436 890 1613 192 61 432 82
606 53 53 -9 111 -13 130 -9 88 16 152 75 187 173 72 198 219 434 368 590 399
420 920 566 1437 403 332 -105 624 -354 771 -658 82 -169 118 -315 134 -535 9
-133 19 -165 67 -214 60 -59 87 -66 272 -66 194 0 300 -15 424 -60 445 -161
714 -617 744 -1260 6 -123 4 -151 -25 -317 -17 -100 -31 -184 -31 -187 0 -3
-183 -6 -407 -6 -234 0 -423 -4 -443 -10 -73 -20 -139 -98 -153 -180 -4 -20 8
-143 27 -280 18 -135 33 -246 32 -246 0 -1 -214 153 -475 342 -261 189 -492
350 -513 359 -33 13 -138 15 -808 15 l-770 0 -5 -22 c-19 -81 -95 -420 -95
-424 0 -2 343 -4 763 -4 l762 0 660 -451 c363 -249 680 -461 705 -472 32 -15
67 -21 122 -21 68 -1 79 2 103 24 45 41 65 96 65 178 0 57 -62 520 -95 710
l-6 32 386 0 c420 0 428 1 488 58 53 50 64 87 106 367 57 381 62 446 51 614
-21 313 -85 575 -201 821 -146 310 -397 573 -682 717 -150 75 -361 132 -554
149 -73 6 -83 9 -83 26 0 39 -41 218 -70 308 -223 683 -815 1143 -1543 1200
-136 11 -154 11 -280 -1z"/>
<path d="M3440 5063 c-19 -8 -1139 -659 -1237 -719 -40 -25 -81 -59 -92 -77
-46 -76 -34 -168 30 -229 l39 -37 0 -317 0 -316 -44 -39 c-73 -65 -85 -149
-32 -230 14 -21 26 -47 26 -56 0 -32 -48 -121 -88 -165 -38 -42 -67 -86 -60
-93 2 -2 94 22 206 53 231 63 214 48 187 175 -14 67 -14 70 7 98 47 63 21 179
-50 224 l-31 20 2 310 2 309 480 166 c412 143 481 170 495 192 19 32 31 31 51
-7 36 -67 160 -101 282 -75 67 13 113 48 125 93 l8 32 14 -25 c21 -39 18 -104
-5 -130 -68 -76 -293 -93 -419 -30 l-39 19 -436 -150 c-240 -83 -440 -155
-445 -159 -10 -10 1056 -546 1105 -555 21 -4 51 -1 75 8 67 23 1286 736 1321
772 57 60 64 140 20 221 -21 37 -50 53 -702 381 -626 315 -684 342 -730 342
-27 0 -57 -3 -65 -6z"/>
<path d="M3981 3455 c-371 -217 -386 -225 -438 -225 -49 0 -83 15 -473 210
l-420 210 0 -214 0 -214 65 -61 c135 -126 343 -245 516 -295 298 -86 655 -36
908 128 82 53 169 131 212 190 l29 39 0 229 c0 125 -3 228 -7 228 -5 0 -181
-102 -392 -225z"/>
<path d="M2215 2511 c-55 -16 -289 -81 -520 -145 -271 -76 -433 -126 -457
-141 -42 -28 -83 -93 -93 -147 -10 -52 17 -137 55 -173 16 -16 30 -32 30 -36
0 -4 -163 -178 -361 -386 -199 -208 -368 -392 -375 -410 -22 -51 -18 -132 9
-174 31 -50 409 -409 459 -436 48 -27 102 -29 156 -8 29 12 131 113 407 401
l367 386 47 -45 c76 -74 140 -96 220 -77 57 13 114 58 140 108 25 50 254 1045
253 1105 0 68 -36 135 -93 170 -66 41 -123 43 -244 8z"/>
</g>
</svg>
