<svg id="Capa_1" enable-background="new 0 0 512 512" height="512" viewBox="0 0 512 512" width="512" xmlns="http://www.w3.org/2000/svg"><g><g><g><g><g><g><g><circle cx="256" cy="256" fill="#a3d4ff" r="256"/></g></g></g></g></g></g><g fill="#65b1fc"><path d="m129.654 377.404-.017-.017c-.136.062-.128.067.017.017z"/><path d="m264.123 511.874c137.626-4.291 247.877-117.207 247.877-255.874 0-14.267-1.167-28.26-3.411-41.892l-97.854-97.854-281.098 261.133.039.01c-.007.002-.015.005-.021.007z"/></g><g><g><g><g><g><g><ellipse cx="256" cy="256" fill="#ffce00" rx="175.223" ry="175.223" transform="matrix(.707 -.707 .707 .707 -106.039 256)"/></g></g></g></g></g></g><g><g><g><g><g><g><path d="m80.777 256c0 96.773 78.45 175.223 175.223 175.223s175.223-78.45 175.223-175.223c0-.005 0 .005 0 0z" fill="#fdba12"/></g></g></g></g></g></g><g><path d="m376.754 382.971c33.553-31.92 54.469-77.003 54.469-126.971s-20.916-95.05-54.469-126.971l-126.971 126.971z" fill="#ff6c52"/></g><g><path d="m249.797 256h-.014l126.971 126.971c33.553-31.92 54.469-77.003 54.469-126.971 0-.005 0 .005 0 0z" fill="#ff432e"/></g><path d="m431.223 256c0-7.23-.439-14.358-1.29-21.359l-90.147 90.151-23.973-23.974 104.853-104.858c-3.672-10.069-8.241-19.706-13.611-28.815l-112.455 112.459-23.604-23.604 139.738-139.746-21.213-21.213-160.951 160.959 160.955 160.958 21.213-21.213-49.739-49.74 68.975-68.978c.825-6.894 1.249-13.911 1.249-21.027z" fill="#555a66"/><path d="m228.57 256 160.955 160.958 21.213-21.213-49.739-49.74 68.975-68.978c.824-6.894 1.249-13.911 1.249-21.027 0-.005 0 .005 0 0h-22.647l-68.789 68.792-23.973-23.974 44.815-44.818h-42.411l-23.618 23.604-23.604-23.604z" fill="#333940"/></g></svg>