<?xml version="1.0" encoding="UTF-8" standalone="no"?>
<svg
   xmlns:dc="http://purl.org/dc/elements/1.1/"
   xmlns:cc="http://creativecommons.org/ns#"
   xmlns:rdf="http://www.w3.org/1999/02/22-rdf-syntax-ns#"
   xmlns:svg="http://www.w3.org/2000/svg"
   xmlns="http://www.w3.org/2000/svg"
   xmlns:sodipodi="http://sodipodi.sourceforge.net/DTD/sodipodi-0.dtd"
   xmlns:inkscape="http://www.inkscape.org/namespaces/inkscape"
   version="1.1"
   id="Capa_1"
   x="0px"
   y="0px"
   viewBox="0 0 512 512"
   style="enable-background:new 0 0 512 512;"
   xml:space="preserve"
   sodipodi:docname="001-printer.svg"
   inkscape:version="1.0.1 (3bc2e813f5, 2020-09-07)"><metadata
   id="metadata73"><rdf:RDF><cc:Work
       rdf:about=""><dc:format>image/svg+xml</dc:format><dc:type
         rdf:resource="http://purl.org/dc/dcmitype/StillImage" /></cc:Work></rdf:RDF></metadata><defs
   id="defs71" /><sodipodi:namedview
   pagecolor="#ffffff"
   bordercolor="#666666"
   borderopacity="1"
   objecttolerance="10"
   gridtolerance="10"
   guidetolerance="10"
   inkscape:pageopacity="0"
   inkscape:pageshadow="2"
   inkscape:window-width="1920"
   inkscape:window-height="1015"
   id="namedview69"
   showgrid="false"
   inkscape:zoom="0.82519531"
   inkscape:cx="305.5868"
   inkscape:cy="314.22099"
   inkscape:window-x="0"
   inkscape:window-y="0"
   inkscape:window-maximized="1"
   inkscape:current-layer="Capa_1" />
<path
   style="fill:#57555c;stroke-width:0.864186"
   d="m 123.62083,216.81409 h -52.601 c -7.268581,0 -13.15025,-5.71517 -13.15025,-12.77801 v -51.11206 c 0,-21.13825 17.696729,-38.33405 39.450747,-38.33405 h 26.300503 c 7.26857,0 13.15024,5.71519 13.15024,12.77802 v 76.66809 c 0,7.06284 -5.88167,12.77801 -13.15024,12.77801 z"
   id="path2" />
<path
   style="fill:#3c3a41;stroke-width:0.864186"
   d="m 454.13042,204.03608 c 0,7.06284 -5.88167,12.77801 -13.15025,12.77801 h -52.601 c -7.26857,0 -13.15025,-5.71517 -13.15025,-12.77801 l -26.30049,-76.66809 c 0,-7.06283 5.88167,-12.77802 13.15025,-12.77802 h 52.60099 c 21.75402,0 39.45075,17.1958 39.45075,38.33405 z"
   id="path4" />
<path
   style="fill:#e5e5e5;stroke-width:0.864186"
   d="m 401.52942,140.146 v 63.89008 c 0,7.15483 -5.78522,12.77801 -13.15025,12.77801 H 123.62083 c -7.36503,0 -13.15025,-5.62318 -13.15025,-12.77801 V 50.699907 c 0,-7.15654 5.78522,-12.778014 13.15025,-12.778014 h 172.7066 l 26.3005,76.668077 z"
   id="path6" />
<path
   style="fill:#d9d9d9;stroke-width:0.864186"
   d="M 388.37917,216.81409 H 256 V 37.921893 h 40.32743 l 26.3005,76.668077 78.90149,25.55603 v 63.89008 c 0,7.15483 -5.78522,12.77801 -13.15025,12.77801 z"
   id="path8" />
<path
   style="fill:#1ba9ef;stroke-width:0.864186"
   d="M 440.98017,191.25806 H 71.01983 c -21.83029,0 -39.450747,17.12169 -39.450747,38.33405 v 155.0399 c 0,21.21065 17.620457,38.33404 39.450747,38.33404 h 369.96034 c 21.83029,0 39.45075,-17.12339 39.45075,-38.33404 v -155.0399 c 0,-21.21236 -17.62046,-38.33405 -39.45075,-38.33405 z"
   id="path10" />
<path
   style="fill:#fe9923;stroke-width:0.864186"
   d="m 296.32743,127.36799 c 0,7.15484 5.78523,12.77801 13.15025,12.77801 h 92.05174 L 296.32743,37.921893 Z"
   id="path12" />
<path
   style="fill:#1689fc;stroke-width:0.864186"
   d="m 480.43092,229.59211 v 155.0399 c 0,21.21065 -17.62046,38.33404 -39.45075,38.33404 H 256 V 191.25806 h 184.98017 c 21.83029,0 39.45075,17.12169 39.45075,38.33405 z"
   id="path14" />
<path
   style="fill:#e1e4fb;stroke-width:0.864186"
   d="M 123.62083,267.92614 H 97.320327 c -7.268577,0 -13.150248,-5.71518 -13.150248,-12.77801 0,-7.06283 5.881671,-12.77801 13.150248,-12.77801 h 26.300503 c 7.26857,0 13.15024,5.71518 13.15024,12.77801 0,7.06283 -5.88167,12.77801 -13.15024,12.77801 z"
   id="path16" />
<path
   style="fill:#e5e5e5;stroke-width:0.864186"
   d="m 401.52942,310.51868 v 150.78141 c 0,7.15484 -5.78522,12.77802 -13.15025,12.77802 H 123.62083 c -7.36503,0 -13.15025,-5.62318 -13.15025,-12.77802 V 310.51868 Z"
   id="path18" />
<path
   style="fill:#d9d9d9;stroke-width:0.864186"
   d="m 401.52942,310.51868 v 150.78141 c 0,7.15484 -5.78522,12.77802 -13.15025,12.77802 H 256 V 310.51868 Z"
   id="path20" />
<g
   id="g26"
   transform="matrix(0.87668327,0,0,0.85186761,31.569083,37.921893)">
	<path
   style="fill:#aeadb3"
   d="m 362,377 c 0,8.399 -6.599,15 -15,15 H 165 c -8.401,0 -15,-6.601 -15,-15 0,-8.401 6.599,-15 15,-15 h 182 c 8.401,0 15,6.599 15,15 z"
   id="path22" />
	<path
   style="fill:#aeadb3"
   d="m 362,437 c 0,8.399 -6.599,15 -15,15 H 165 c -8.401,0 -15,-6.601 -15,-15 0,-8.401 6.599,-15 15,-15 h 182 c 8.401,0 15,6.599 15,15 z"
   id="path24" />
</g>
<g
   id="g32"
   transform="matrix(0.87668327,0,0,0.85186761,31.569083,37.921893)">
	<path
   style="fill:#8b8892"
   d="m 362,437 c 0,8.399 -6.599,15 -15,15 h -91 v -30 h 91 c 8.401,0 15,6.599 15,15 z"
   id="path28" />
	<path
   style="fill:#8b8892"
   d="m 362,377 c 0,8.399 -6.599,15 -15,15 h -91 v -30 h 91 c 8.401,0 15,6.599 15,15 z"
   id="path30" />
</g>
<path
   style="fill:#57555c;stroke-width:0.864186"
   d="m 427.82992,307.96392 c 0,7.15484 -5.78524,12.77802 -13.15025,12.77802 H 97.320327 c -7.36501,0 -13.150248,-5.62318 -13.150248,-12.77802 0,-7.15654 5.785238,-12.77801 13.150248,-12.77801 H 414.67967 c 7.36501,0 13.15025,5.62147 13.15025,12.77801 z"
   id="path34" />
<path
   style="fill:#3c3a41;stroke-width:0.864186"
   d="m 427.82992,307.96392 c 0,7.15484 -5.78524,12.77802 -13.15025,12.77802 H 256 v -25.55603 h 158.67967 c 7.36501,0 13.15025,5.62147 13.15025,12.77801 z"
   id="path36" />
<g
   id="g38"
   transform="matrix(0.87668327,0,0,0.85186761,31.569083,37.921893)">
</g>
<g
   id="g40"
   transform="matrix(0.87668327,0,0,0.85186761,31.569083,37.921893)">
</g>
<g
   id="g42"
   transform="matrix(0.87668327,0,0,0.85186761,31.569083,37.921893)">
</g>
<g
   id="g44"
   transform="matrix(0.87668327,0,0,0.85186761,31.569083,37.921893)">
</g>
<g
   id="g46"
   transform="matrix(0.87668327,0,0,0.85186761,31.569083,37.921893)">
</g>
<g
   id="g48"
   transform="matrix(0.87668327,0,0,0.85186761,31.569083,37.921893)">
</g>
<g
   id="g50"
   transform="matrix(0.87668327,0,0,0.85186761,31.569083,37.921893)">
</g>
<g
   id="g52"
   transform="matrix(0.87668327,0,0,0.85186761,31.569083,37.921893)">
</g>
<g
   id="g54"
   transform="matrix(0.87668327,0,0,0.85186761,31.569083,37.921893)">
</g>
<g
   id="g56"
   transform="matrix(0.87668327,0,0,0.85186761,31.569083,37.921893)">
</g>
<g
   id="g58"
   transform="matrix(0.87668327,0,0,0.85186761,31.569083,37.921893)">
</g>
<g
   id="g60"
   transform="matrix(0.87668327,0,0,0.85186761,31.569083,37.921893)">
</g>
<g
   id="g62"
   transform="matrix(0.87668327,0,0,0.85186761,31.569083,37.921893)">
</g>
<g
   id="g64"
   transform="matrix(0.87668327,0,0,0.85186761,31.569083,37.921893)">
</g>
<g
   id="g66"
   transform="matrix(0.87668327,0,0,0.85186761,31.569083,37.921893)">
</g>
</svg>
