<svg id="Capa_1" enable-background="new 0 0 512.002 512.002" height="512" viewBox="0 0 512.002 512.002" width="512" xmlns="http://www.w3.org/2000/svg"><g><g><path d="m512.001 256c0 141.387-114.613 256-256 256s-256-114.613-256-256 114.613-256 256-256 256 114.613 256 256zm0 0" fill="#8bfff4"/><path d="m512.001 256c0 26.051-3.891 51.191-11.129 74.871-5.031 16.469-11.672 32.231-19.75 47.109-8.25 15.2-147.391 33.367-225.121 33.367s-216.871-18.167-225.109-33.367c-3.289-6.031-6.332-12.21-9.121-18.531-14-31.629-21.77-66.629-21.77-103.449 0-46.219 12.25-89.57 33.68-127 44.121 77.07 127.16 129 222.32 129s178.211-51.93 222.32-129c21.43 37.43 33.68 80.781 33.68 127zm0 0" fill="#2dceea"/><path d="m481.263 377.699c-7.16 13.223-15.434 25.742-24.723 37.43-8.437 10.633-17.719 20.57-27.719 29.723-45.539 41.699-106.211 67.148-172.82 67.148s-127.281-25.449-172.82-67.148c-10-9.153-19.282-19.09-27.719-29.723-9.289-11.688-17.563-24.207-24.723-37.43zm0 0" fill="#429dea"/></g><g><path d="m256.001 120.002-45.938 68.906 173.031-22.968v-45.938z" fill="#576ceb"/><path d="m256.001 120.002h-127.094v45.938l127.094 22.968z" fill="#6db5f2"/><path d="m256.001 120.002h-63.547v45.938l63.547 22.968z" fill="#429dea"/><path d="m256.001 211.877h127.093v-45.937h-127.093l-45.938 22.968z" fill="#4d34b0"/><path d="m128.907 165.94h127.094v45.938h-127.094z" fill="#8a64ed"/><path d="m192.454 165.94h63.547v45.938h-63.547z" fill="#6c3beb"/><path d="m383.094 384.908-47.097-33.136 9.872-56.732-56.733 9.871-33.135-47.096-44.453 127.093 44.453 127.094 33.135-47.097 56.733 9.872-9.872-56.733z" fill="#ff7040"/><path d="m222.865 304.911-56.733-9.871 9.872 56.732-47.097 33.136 47.097 33.136-9.872 56.733 56.733-9.872 33.136 47.097v-254.187z" fill="#ffa35e"/><path d="m237.655 326.555-31.41-7.201 5.465 41.383-26.075 24.171 26.075 24.171-5.465 41.384 31.41-7.201 18.346 68.738v-254z" fill="#ff903d"/><path d="m256.001 211.877-11.484 22.969 11.484 22.969c12.685 0 22.969-10.283 22.969-22.969-.001-12.685-10.284-22.969-22.969-22.969z" fill="#ff903d"/><path d="m233.032 234.846c0 12.685 10.283 22.969 22.969 22.969v-45.938c-12.686 0-22.969 10.284-22.969 22.969z" fill="#ffb03b"/></g><g fill="#fff"><path d="m395.871 256.276h-1.524c-6.754 0-12.226-5.477-12.226-12.227v-1.523h-8.715v1.523c0 6.75-5.477 12.227-12.227 12.227h-1.527v8.715h1.527c6.75 0 12.227 5.472 12.227 12.226v1.528h8.715v-1.528c0-6.754 5.472-12.226 12.226-12.226h1.524zm0 0"/><path d="m453.055 316.141h-1.524c-6.754 0-12.226-5.477-12.226-12.227v-1.523h-8.715v1.523c0 6.75-5.477 12.227-12.227 12.227h-1.527v8.715h1.527c6.75 0 12.227 5.472 12.227 12.226v1.528h8.715v-1.528c0-6.754 5.472-12.226 12.226-12.226h1.524zm0 0"/><path d="m127.981 290.682h-1.524c-6.754 0-12.226-5.477-12.226-12.227v-1.523h-8.715v1.523c0 6.75-5.477 12.227-12.227 12.227h-1.527v8.715h1.527c6.75 0 12.227 5.472 12.227 12.226v1.528h8.715v-1.528c0-6.754 5.472-12.226 12.226-12.226h1.524zm0 0"/></g></g></svg>