<svg id="Capa_1" enable-background="new 0 0 512 512" height="512" viewBox="0 0 512 512" width="512" xmlns="http://www.w3.org/2000/svg"><g><g><path d="m512 256c0 141.387-114.613 256-256 256s-256-114.613-256-256 114.613-256 256-256 256 114.613 256 256zm0 0" fill="#afe8fd"/><path d="m512 256c0 26.051-3.891 51.191-11.129 74.871-5.031 16.469-11.672 32.231-19.75 47.109-8.25 15.2-18 29.461-29.051 42.61-.582.691-1.16 1.379-1.75 2.058-46.941 54.704-116.59 89.352-194.32 89.352s-147.379-34.648-194.309-89.352c-.589-.687-1.179-1.378-1.75-2.07-11.062-13.137-20.812-27.398-29.05-42.598-3.289-6.031-6.332-12.21-9.121-18.531-14-31.629-21.77-66.629-21.77-103.449 0-46.219 12.25-89.57 33.68-127 44.121 77.07 127.16 129 222.32 129s178.211-51.93 222.32-129c21.43 37.43 33.68 80.781 33.68 127zm0 0" fill="#64b0fb"/><path d="m481.262 377.699c-7.16 13.223-15.434 25.742-24.723 37.43-8.437 10.633-17.719 20.57-27.719 29.723-45.539 41.699-106.211 67.148-172.82 67.148s-127.281-25.449-172.82-67.148c-10-9.153-19.282-19.09-27.719-29.723-9.289-11.688-17.563-24.207-24.723-37.43zm0 0" fill="#1394fb"/></g><g><path d="m100.416 378.995h61.32v49.401h-61.32z" fill="#2d3e53" transform="matrix(.707 -.707 .707 .707 -247.065 210.925)"/><path d="m146.086 376.193-10.795-11.644-43.36 43.36 10.795 11.644z" fill="#42628a"/><path d="m123.704 407.772h61.32v38.423h-61.32z" fill="#16202d" transform="matrix(.707 -.707 .707 .707 -256.71 234.212)"/><path d="m240.085 376.193-120.319-58.219v62.101l27.169 27.169z" fill="#cb2e81"/><path d="m146.086 344.295-26.32-26.321v62.101l11.31 11.311z" fill="#e04496"/><path d="m146.935 407.244 27.169 27.169h62.1l-27.169-89.27z" fill="#9f165b"/><path d="m385.138 169.04-58.22-58.219-38.813 38.813 58.22 120.32z" fill="#bfebff"/><path d="m354.088 137.809-27.17-26.988-38.813 38.813 2.336 56.59z" fill="#e6f7ff"/><path d="m313.164 303.115-120.32-58.22-73.078 73.079 58.219 58.219z" fill="#dc4180"/><path d="m220.987 273.038-28.143-28.143-73.078 73.079 26.32 26.321z" fill="#ff69a8"/><path d="m385.138 169.04-69.863 69.864 89.269 27.169 38.813-38.813z" fill="#a6cfe7"/><path d="m177.985 376.193 58.219 58.22 73.079-73.079-27.169-89.27z" fill="#cb2e81"/><path d="m111.337 442.841 42.694 42.694 15.525-15.525-42.694-42.694-23.287-7.763z" fill="#2d3e53"/><path d="m86.775 383.542h21.956v60.379h-21.956z" fill="#435d7a" transform="matrix(.707 -.707 .707 .707 -263.921 190.301)"/><path d="m76.101 387.963h21.956v30.189h-21.956z" fill="#597594" transform="matrix(.707 -.707 .707 .707 -259.5 179.627)"/><path d="m251.064 303.115 58.219 58.219 95.261-95.261-58.219-58.22-78.681 16.581z" fill="#bfebff"/><path d="m202.225 185.207h134.72v82.335h-134.72z" fill="#dff5ff" transform="matrix(.707 -.707 .707 .707 -81.111 256.929)"/><path d="m316.589 178.117-28.484-28.483-95.261 95.261 28.143 28.143z" fill="#fff"/></g><g fill="#fff"><path d="m297.962 69.935h-1.524c-6.754 0-12.226-5.477-12.226-12.227v-1.523h-8.715v1.523c0 6.75-5.477 12.227-12.227 12.227h-1.527v8.715h1.527c6.75 0 12.227 5.472 12.227 12.226v1.528h8.715v-1.528c0-6.754 5.472-12.226 12.226-12.226h1.524zm0 0"/><path d="m187.666 88.044h-1.524c-6.754 0-12.226-5.477-12.226-12.227v-1.523h-8.715v1.523c0 6.75-5.477 12.227-12.227 12.227h-1.527v8.715h1.527c6.75 0 12.227 5.472 12.227 12.226v1.528h8.715v-1.528c0-6.754 5.472-12.226 12.226-12.226h1.524zm0 0"/><path d="m165.044 195.088h-1.524c-6.754 0-12.226-5.477-12.226-12.227v-1.523h-8.715v1.523c0 6.75-5.477 12.227-12.227 12.227h-1.527v8.715h1.527c6.75 0 12.227 5.472 12.227 12.226v1.528h8.715v-1.528c0-6.754 5.472-12.226 12.226-12.226h1.524zm0 0"/><path d="m82.071 251.218h-1.524c-6.754 0-12.226-5.477-12.226-12.227v-1.523h-8.715v1.523c0 6.75-5.477 12.227-12.227 12.227h-1.527v8.715h1.527c6.75 0 12.227 5.472 12.227 12.226v1.528h8.715v-1.528c0-6.754 5.472-12.226 12.226-12.226h1.524zm0 0"/></g></g></svg>