<svg id="Capa_1" enable-background="new 0 0 512 512" height="512" viewBox="0 0 512 512" width="512" xmlns="http://www.w3.org/2000/svg"><path d="m512 256c0 97.333-54.319 181.978-134.297 225.276-36.198 19.597-203.363 20.604-238.342 2.669-82.74-42.422-139.361-128.571-139.361-227.945 0-141.385 114.615-256 256-256s256 114.615 256 256z" fill="#22d7ff"/><path d="m512 256c0 87.11-43.52 164.07-110 210.31-8.907 6.195-18.227 11.839-27.91 16.882-35.331 18.402-199.75 18.685-234.728.751-10.204-5.232-20.01-11.129-29.363-17.633-66.479-46.24-109.999-123.2-109.999-210.31 0-46.22 12.25-89.57 33.68-127 44.12 77.07 127.16 129 222.32 129s178.21-51.93 222.32-129c21.43 37.43 33.68 80.78 33.68 127z" fill="#24c6ff"/><path d="m462.2 314.81c0 6.06-.26 12.07-.78 18-4.43 51.29-27.64 97.2-62.72 130.84-6.59 6.32-13.61 12.21-21 17.62-36.2 19.6-77.64 30.73-121.7 30.73-11.18 0-22.19-.72-32.98-2.11-31.77-4.09-61.72-14-88.74-28.64-7.38-5.4-14.39-11.28-20.98-17.6-35.08-33.64-58.29-79.55-62.72-130.84-.52-5.93-.78-11.94-.78-18s.26-12.07.78-18c4.43-51.29 27.64-97.2 62.72-130.84 8.72-8.36 18.18-15.97 28.27-22.71 28.05-18.76 60.95-30.81 96.43-33.87 5.93-.52 11.94-.78 18-.78s12.07.26 18 .78c35.48 3.06 68.38 15.11 96.43 33.87 10.09 6.74 19.55 14.35 28.27 22.71 35.08 33.64 58.29 79.55 62.72 130.84.52 5.93.78 11.94.78 18z" fill="#ffc300"/><path d="m462.2 314.81c0 68.34-33.24 128.91-84.44 166.43-36.21 19.62-77.68 30.76-121.76 30.76-11.18 0-22.19-.72-32.98-2.11-39.89-27.8-68.56-104.64-68.56-195.08 0-113.88 45.46-206.2 101.54-206.2 113.88 0 206.2 92.32 206.2 206.2z" fill="#ff9f00"/><path d="m462.2 314.81c0 68.34-33.24 128.91-84.44 166.43-36.21 19.62-77.68 30.76-121.76 30.76v-403.39c113.88 0 206.2 92.32 206.2 206.2z" fill="#ec781b"/><path d="m283.04 332.81h178.38c.52-5.93.78-11.94.78-18s-.26-12.07-.78-18h-178.38c-4.99 0-9.04-4.05-9.04-9.04v-36.53c0-4.45 3.25-8.25 7.65-8.92 49.1-7.5 91.33-36.16 117.05-76.35-8.72-8.36-18.18-15.97-28.27-22.71-18.53 30.93-49.24 53.76-85.45 61.82-5.64 1.25-10.98-3.07-10.98-8.84v-86.85c-5.93-.52-11.94-.78-18-.78s-12.07.26-18 .78v86.85c0 5.77-5.34 10.09-10.98 8.84-36.21-8.06-66.92-30.89-85.45-61.82-10.09 6.74-19.55 14.35-28.27 22.71 25.73 40.2 67.97 68.87 117.08 76.35 4.39.67 7.62 4.48 7.62 8.92v36.53c0 4.99-4.05 9.04-9.04 9.04h-178.38c-.52 5.93-.78 11.94-.78 18s.26 12.07.78 18h178.38c4.99 0 9.04 4.05 9.04 9.04v36.52c0 4.46-3.25 8.26-7.65 8.93-49.1 7.5-91.33 36.16-117.05 76.35 6.58 6.3 13.57 12.18 20.94 17.58.01.01.03.01.04.02 2.61 1.41 5.24 2.78 7.91 4.1 18.57-30.42 49.02-52.84 84.83-60.81 5.64-1.26 10.98 3.06 10.98 8.84v77.99c5.94.42 11.95.63 18 .63s12.06-.21 18-.63v-77.99c0-5.78 5.34-10.1 10.98-8.84 35.82 7.97 66.27 30.4 84.83 60.82 2.66-1.31 5.29-2.68 7.89-4.09 7.39-5.41 14.41-11.3 21-17.62-25.73-40.2-67.97-68.87-117.08-76.35-4.39-.67-7.62-4.48-7.62-8.93v-36.52c0-4.99 4.05-9.04 9.04-9.04z" fill="#a63917"/><path d="m274 341.85v36.52c0 4.45 3.23 8.26 7.62 8.93 49.11 7.48 91.35 36.15 117.08 76.35-6.59 6.32-13.61 12.21-21 17.62-2.6 1.41-5.23 2.78-7.89 4.09-18.56-30.42-49.01-52.85-84.83-60.82-5.64-1.26-10.98 3.06-10.98 8.84v77.99c-5.94.42-11.95.63-18 .63v-403.39c6.06 0 12.07.26 18 .78v86.85c0 5.77 5.34 10.09 10.98 8.84 36.21-8.06 66.92-30.89 85.45-61.82 10.09 6.74 19.55 14.35 28.27 22.71-25.72 40.19-67.95 68.85-117.05 76.35-4.4.67-7.65 4.47-7.65 8.92v36.53c0 4.99 4.05 9.04 9.04 9.04h178.38c.52 5.93.78 11.94.78 18s-.26 12.07-.78 18h-178.38c-4.99 0-9.04 4.05-9.04 9.04z" fill="#83250d"/></svg>