<svg id="Layer_1" enable-background="new 0 0 510.851 510.851" height="512" viewBox="0 0 510.851 510.851" width="512" xmlns="http://www.w3.org/2000/svg"><g><g><g><path d="m480.834 250.9c0 136.769-96.423 222.744-233.192 222.744s-234.914-87.921-234.914-224.69c0-44.823-.82-85.926 20.006-122.195 42.719-74.399 122.962-124.508 214.908-124.508 79.842 0 150.858 37.784 196.144 96.447 32.289 41.827 37.048 95.275 37.048 152.202z" fill="#6ee1ff"/></g></g><path d="m495.283 249.893c0-46.668-12.917-90.315-35.359-127.577-15.955-8.173-33.945-12.915-52.996-13.23v-18.942h-44.588v237.508c0 18.508-15.763 33.17-34.212 31.688-26.958-2.165-49.863-7.089-69.185-13.44-34.299-11.273-26.139-61.958 9.965-61.958 11.96 0 21.655-9.696 21.655-21.656v-196.142c0-11.926-14.419-17.899-22.853-9.466l-107.054 107.055c-21.252 21.252-57.549 8.518-61.043-21.334-.064-.547-.126-1.094-.187-1.641-3.791-34.356-49.47-43.966-66.685-13.994-21.139 36.806-33.094 79.557-32.733 125.131 1.08 136.56 113.623 247.002 250.181 245.626 112.22-1.131 206.563-76.905 235.757-180.044-.009.006-.019.012-.028.019 6.087-21.491 9.365-44.162 9.365-67.603zm-250.671-105.13v93.228h-93.23zm162.316 36.048c0-14.219 14.594-23.95 27.609-18.224 25.979 11.431 44.165 37.407 44.165 67.564 0 40.014-32.016 72.668-71.773 73.749v-123.089z" fill="#05cdff"/><g><g><g><g><path d="m283.219 264.417h-250.117l250.117-250.116zm-139.181-45.951h93.23v-93.228z" fill="#2d56a1"/></g></g></g><g><g><g><path d="m64.661 250.9h4.345v13.518h-4.345z" fill="#5ab4ff"/></g></g><g><g><path d="m88.551 250.9h4.345v13.518h-4.345z" fill="#5ab4ff"/></g></g><g><g><path d="m112.44 250.9h4.345v13.518h-4.345z" fill="#5ab4ff"/></g></g><g><g><path d="m136.33 250.9h4.345v13.518h-4.345z" fill="#5ab4ff"/></g></g><g><g><path d="m160.219 250.9h4.345v13.518h-4.345z" fill="#5ab4ff"/></g></g><g><g><path d="m184.109 250.9h4.345v13.518h-4.345z" fill="#5ab4ff"/></g></g><g><g><path d="m207.998 250.9h4.345v13.518h-4.345z" fill="#5ab4ff"/></g></g><g><g><path d="m231.889 250.9h4.345v13.518h-4.345z" fill="#5ab4ff"/></g></g><g><g><path d="m255.777 250.9h4.345v13.518h-4.345z" fill="#5ab4ff"/></g></g></g><g><g><g><path d="m269.592 239.538h13.518v4.345h-13.518z" fill="#5ab4ff"/></g></g><g><g><path d="m269.592 215.649h13.518v4.345h-13.518z" fill="#5ab4ff"/></g></g><g><g><path d="m269.592 191.759h13.518v4.345h-13.518z" fill="#5ab4ff"/></g></g><g><g><path d="m269.592 167.87h13.518v4.345h-13.518z" fill="#5ab4ff"/></g></g><g><g><path d="m269.592 143.98h13.518v4.345h-13.518z" fill="#5ab4ff"/></g></g><g><g><path d="m269.592 120.091h13.518v4.345h-13.518z" fill="#5ab4ff"/></g></g><g><g><path d="m269.592 96.2h13.518v4.345h-13.518z" fill="#5ab4ff"/></g></g><g><g><path d="m269.592 72.312h13.518v4.345h-13.518z" fill="#5ab4ff"/></g></g><g><g><path d="m269.592 48.421h13.518v4.345h-13.518z" fill="#5ab4ff"/></g></g></g></g><g><g><path d="m66.833 286.887-13.597 1.869-20.884 58.537 452.145 161.307 20.884-58.537-67.1-34.84zm411.564 186.292c-8.803-3.14-3.916-16.793 4.873-13.658 8.803 3.141 3.915 16.793-4.873 13.658z" fill="#f8e000"/></g><g><path d="m42.015 353.602h480.057v16.281h-480.057z" fill="#ffc305" transform="matrix(.942 .336 -.336 .942 137.95 -73.738)"/></g><g><g><path d="m55.296 293.676h33.197v4.148h-33.197z" fill="#faf58c" transform="matrix(.336 -.942 .942 .336 -230.82 264.114)"/></g><g><path d="m82.514 296.71h23.784v4.148h-23.784z" fill="#faf58c" transform="matrix(.336 -.942 .942 .336 -218.729 287.332)"/></g><g><path d="m97.157 308.61h33.197v4.148h-33.197z" fill="#faf58c" transform="matrix(.336 -.942 .942 .336 -217.088 313.459)"/></g><g><path d="m124.375 311.645h23.784v4.148h-23.784z" fill="#faf58c" transform="matrix(.336 -.942 .942 .336 -204.997 336.677)"/></g><g><path d="m139.017 323.544h33.197v4.148h-33.197z" fill="#faf58c" transform="matrix(.336 -.942 .942 .336 -203.356 362.804)"/></g><g><path d="m166.235 326.579h23.784v4.148h-23.784z" fill="#faf58c" transform="matrix(.336 -.942 .942 .336 -191.265 386.023)"/></g><g><path d="m180.878 338.478h33.197v4.148h-33.197z" fill="#faf58c" transform="matrix(.336 -.942 .942 .336 -189.624 412.149)"/></g><g><path d="m208.096 341.513h23.784v4.148h-23.784z" fill="#faf58c" transform="matrix(.336 -.942 .942 .336 -177.533 435.368)"/></g><g><path d="m222.738 353.413h33.197v4.148h-33.197z" fill="#faf58c" transform="matrix(.336 -.942 .942 .336 -175.892 461.494)"/></g><g><path d="m249.957 356.447h23.784v4.148h-23.784z" fill="#faf58c" transform="matrix(.336 -.942 .942 .336 -163.801 484.713)"/></g><g><path d="m264.599 368.347h33.197v4.148h-33.197z" fill="#faf58c" transform="matrix(.336 -.942 .942 .336 -162.16 510.839)"/></g><g><path d="m291.817 371.381h23.784v4.148h-23.784z" fill="#faf58c" transform="matrix(.336 -.942 .942 .336 -150.069 534.058)"/></g><g><path d="m306.46 383.281h33.197v4.148h-33.197z" fill="#faf58c" transform="matrix(.336 -.942 .942 .336 -148.428 560.184)"/></g><g><path d="m333.677 386.315h23.784v4.148h-23.784z" fill="#faf58c" transform="matrix(.336 -.942 .942 .336 -136.337 583.403)"/></g><g><path d="m348.32 398.215h33.197v4.148h-33.197z" fill="#faf58c" transform="matrix(.336 -.942 .942 .336 -134.696 609.529)"/></g><g><path d="m375.538 401.249h23.784v4.148h-23.784z" fill="#faf58c" transform="matrix(.336 -.942 .942 .336 -122.605 632.748)"/></g><g><path d="m390.18 413.149h33.197v4.148h-33.197z" fill="#faf58c" transform="matrix(.336 -.942 .942 .336 -120.965 658.874)"/></g><g><path d="m417.398 416.183h23.784v4.148h-23.784z" fill="#faf58c" transform="matrix(.336 -.942 .942 .336 -108.873 682.093)"/></g><g><path d="m432.041 428.083h33.197v4.148h-33.197z" fill="#faf58c" transform="matrix(.336 -.942 .942 .336 -107.232 708.219)"/></g><g><path d="m459.259 431.117h23.784v4.148h-23.784z" fill="#faf58c" transform="matrix(.336 -.942 .942 .336 -95.141 731.438)"/></g></g></g><g><path d="m443.773 98.709c-14.249-5.906-29.857-9.173-46.215-9.173v47.291c40.693 0 73.8 33.107 73.8 73.8s-33.107 73.8-73.8 73.8v47.291c38.572 0 72.99-18.129 95.18-46.313 1.666-11.599 2.545-23.451 2.545-35.511 0-56.928-19.221-109.359-51.51-151.185z" fill="#ff5551"/><g><g><path d="m362.34 70.619h37.244v280.015h-37.244z" fill="#ff5551"/></g></g><g><g><path d="m354.996 70.619h12.806v280.015h-12.806z" fill="#e20a62"/></g></g><g><g><path d="m354.996 81.745h20.115v4.053h-20.115z" fill="#e20a62"/></g><g><path d="m354.996 97.602h20.115v4.053h-20.115z" fill="#e20a62"/></g><g><path d="m354.996 113.459h20.115v4.053h-20.115z" fill="#e20a62"/></g><g><path d="m354.996 129.316h20.115v4.053h-20.115z" fill="#e20a62"/></g><g><path d="m354.996 145.172h20.115v4.053h-20.115z" fill="#e20a62"/></g><g><path d="m354.996 161.029h20.115v4.053h-20.115z" fill="#e20a62"/></g><g><path d="m354.996 176.886h20.115v4.053h-20.115z" fill="#e20a62"/></g><g><path d="m354.996 192.743h20.115v4.053h-20.115z" fill="#e20a62"/></g><g><path d="m354.996 208.599h20.115v4.053h-20.115z" fill="#e20a62"/></g><g><path d="m354.996 224.456h20.115v4.053h-20.115z" fill="#e20a62"/></g><g><path d="m354.996 240.313h20.115v4.053h-20.115z" fill="#e20a62"/></g><g><path d="m354.996 256.17h20.115v4.053h-20.115z" fill="#e20a62"/></g><g><path d="m354.996 272.027h20.115v4.053h-20.115z" fill="#e20a62"/></g><g><path d="m354.996 287.884h20.115v4.053h-20.115z" fill="#e20a62"/></g><g><path d="m354.996 303.74h20.115v4.053h-20.115z" fill="#e20a62"/></g><g><path d="m354.996 319.597h20.115v4.053h-20.115z" fill="#e20a62"/></g><g><path d="m354.996 335.454h20.115v4.053h-20.115z" fill="#e20a62"/></g></g></g></g></svg>