<svg id="Capa_1" enable-background="new 0 0 512 512" height="512" viewBox="0 0 512 512" width="512" xmlns="http://www.w3.org/2000/svg"><g><g><path d="m256 298.19c-141.387 0-244.868-127.715-225.264-163.918 43.302-79.965 127.94-134.272 225.264-134.272 97.204 0 181.752 54.173 225.103 133.974 19.704 36.274-83.716 164.216-225.103 164.216z" fill="#e38031"/><path d="m512 256c0 26.051-3.891 51.191-11.129 74.871-5.031 16.469-11.672 32.231-19.75 47.109-8.25 15.2-147.391 48.933-225.121 48.933s-216.871-33.733-225.109-48.933c-3.289-6.031-6.332-12.21-9.121-18.531-14-31.629-21.77-66.629-21.77-103.449 0-46.219 12.25-89.57 33.68-127 44.121 77.07 127.16 129 222.32 129s178.211-51.93 222.32-129c21.43 37.43 33.68 80.781 33.68 127zm0 0" fill="#d85819"/><path d="m481.262 377.699c-7.16 13.223-15.434 25.742-24.723 37.43-8.437 10.633-17.719 20.57-27.719 29.723-45.539 41.699-300.101 41.699-345.64 0-10-9.153-19.282-19.09-27.719-29.723-9.289-11.688-17.563-24.207-24.723-37.43zm0 0" fill="#bd4911"/></g><g><path d="m407.836 462.115-197.774-41.637 45.76 91.519c.06 0 .118.002.178.002 56.846.001 109.355-18.538 151.836-49.884z" fill="#7ed7ff"/><path d="m103.012 461.275c42.681 31.86 95.63 50.725 152.988 50.725v-91.522z" fill="#bfebff"/><path d="m169.867 497.132v-76.653l-70.815 37.768c21.198 16.473 45.053 29.681 70.815 38.885z" fill="#d9f3ff"/><path d="m401.822 466.416c9.276-6.441 18.116-13.466 26.444-21.046v-128.251l-149.297 149.297z" fill="#dff5ff"/><path d="m303.331 341.481v114.844l114.844-114.844z" fill="#64b0fb"/><path d="m256 166.291-107.188 150.062 107.188 150.063h22.969c9.514 0 18.127-3.856 24.362-10.091s10.091-14.848 10.091-24.362v-80.391h80.391c9.514 0 18.127-3.856 24.362-10.091s10.091-14.848 10.091-24.362v-150.828z" fill="#bfebff"/><path d="m110.178 466.416h145.822v-300.125h-172.266v279.079c8.328 7.58 17.168 14.605 26.444 21.046z" fill="#dff5ff"/><path d="m83.734 445.37c8.328 7.58 17.168 14.605 26.444 21.046h59.689v-300.125h-86.133z" fill="#f7fdff"/><path d="m164.125 223.713c-12.685 0-22.969-10.284-22.969-22.969v-57.422c0-12.685 10.283-22.969 22.969-22.969s22.969 10.283 22.969 22.969v57.422c0 12.685-10.284 22.969-22.969 22.969z" fill="#8db3cf"/><path d="m163.296 120.374c-12.3.437-22.139 10.541-22.139 22.948v57.422c0 12.407 9.839 22.51 22.139 22.948z" fill="#9dc5e3"/><path d="m256 120.354-15.312 51.68 15.312 51.679c12.685 0 22.969-10.284 22.969-22.969v-57.422c0-12.685-10.284-22.968-22.969-22.968z" fill="#7397b8"/><path d="m233.031 143.322v57.422c0 12.685 10.283 22.969 22.969 22.969v-103.359c-12.685 0-22.969 10.283-22.969 22.968z" fill="#8db3cf"/><path d="m347.875 223.713c-12.685 0-22.969-10.284-22.969-22.969v-57.422c0-12.685 10.283-22.969 22.969-22.969s22.969 10.283 22.969 22.969v57.422c0 12.685-10.284 22.969-22.969 22.969z" fill="#7397b8"/></g></g></svg>