<svg id="Capa_1" enable-background="new 0 0 512 512" height="512" viewBox="0 0 512 512" width="512" xmlns="http://www.w3.org/2000/svg"><circle cx="256" cy="256" fill="#4e679b" r="256"/><path d="m512 256c0 87.11-43.52 164.07-110 210.31-41.41 28.8-91.73 45.69-146 45.69s-104.59-16.89-146-45.69c-66.48-46.24-110-123.2-110-210.31 0-46.22 12.25-89.57 33.68-127 44.12 77.07 127.16 129 222.32 129s178.21-51.93 222.32-129c21.43 37.43 33.68 80.78 33.68 127z" fill="#364d7f"/><path d="m362.388 224.796-23.138-53.835c34.055-13.55 62.311-38.847 79.573-71.062 5.065-9.452 19.167-6.948 20.884 3.637 1.128 6.952 1.587 14.118 1.31 21.425-1.809 48.008-34.728 87.505-78.629 99.835z" fill="#dd1265"/><path d="m149.612 224.796 23.138-53.835c-34.055-13.55-62.311-38.847-79.573-71.062-5.065-9.452-19.167-6.948-20.884 3.637-1.128 6.952-1.587 14.118-1.31 21.425 1.809 48.008 34.728 87.505 78.629 99.835z" fill="#ff1d56"/><path d="m452 316c0 105.34-83.12 191.28-187.34 195.81-.31.02-.62.03-.93.04-.87.03-1.74.06-2.6.08-1.73.05-3.44.07-5.13.07-108.24 0-196-87.76-196-196s87.76-196 196-196h.28c108.11.15 195.72 87.85 195.72 196z" fill="#ffe853"/><path d="m452 316c0 105.34-83.12 191.28-187.34 195.81-.31.02-.62.03-.93.04-.87.03-1.74.06-2.6.08-1.73.05-3.44.07-5.13.07-58.54-45.3-103.35-116.25-103.35-196s44.81-150.7 103.35-196h.28c108.11.15 195.72 87.85 195.72 196z" fill="#fed110"/><path d="m452 316c0 108.244-87.756 196-196 196v-392c108.244 0 196 87.756 196 196z" fill="#ff9f01"/><path d="m368.85 359.73c-6.2 32.77-26.3 60.6-53.95 77.14-17.21 10.32-37.36 16.25-58.9 16.25s-41.69-5.93-58.9-16.25c-27.65-16.54-47.75-44.37-53.95-77.14-2.12-11.14 6.42-21.47 17.76-21.47h10.42l15.45 15.45h139.95l13.94-15.45h10.42c11.34 0 19.88 10.33 17.76 21.47z" fill="#313b5a"/><path d="m368.85 359.73c-6.2 32.77-26.3 60.6-53.95 77.14-17.21 10.32-37.36 16.25-58.9 16.25v-99.41h70.73l13.94-15.45h10.42c11.34 0 19.88 10.33 17.76 21.47z" fill="#29334c"/><path d="m314.905 436.873c-17.217 10.315-37.366 16.244-58.905 16.244s-41.687-5.929-58.905-16.244c9.101-23.672 32.039-40.462 58.905-40.462s49.804 16.791 58.905 40.462z" fill="#ff1d56"/><path d="m314.905 436.873c-17.217 10.315-37.366 16.244-58.905 16.244v-56.706c26.865 0 49.804 16.791 58.905 40.462z" fill="#dd1265"/><path d="m340.67 338.26v2.4c0 18.76-15.22 33.98-33.98 33.98h-101.38c-18.76 0-33.98-15.22-33.98-33.98v-2.4z" fill="#fff"/><path d="m340.67 338.26v2.4c0 18.76-15.22 33.98-33.98 33.98h-50.69v-36.38z" fill="#d1f6ff"/><path d="m369.985 253.855c-1.191-4.264-2.945-8.219-5.159-11.808-10.511-17.045-85.189 3.825-85.34 23.851-.032 4.216.519 8.506 1.71 12.769 6.852 24.521 32.285 38.844 56.796 31.995 24.521-6.853 38.845-32.287 31.993-56.807z" fill="#fff"/><ellipse cx="325.59" cy="266.264" fill="#29334c" rx="25.616" ry="25.616" transform="matrix(.963 -.269 .269 .963 -59.646 97.449)"/><path d="m364.816 242.056c-10.511-17.046-31.379-25.844-51.634-20.184-20.248 5.658-33.53 23.999-33.682 44.025z" fill="#ed771b"/><path d="m142.015 253.855c1.191-4.263 2.944-8.217 5.157-11.806 10.511-17.047 85.191 3.822 85.342 23.848.032 4.216-.519 8.506-1.71 12.769-6.852 24.521-32.285 38.844-56.796 31.995-24.522-6.852-38.845-32.286-31.993-56.806z" fill="#fff"/><ellipse cx="186.41" cy="266.264" fill="#29334c" rx="25.616" ry="25.616" transform="matrix(.269 -.963 .963 .269 -120.199 374.137)"/><path d="m147.184 242.056c10.511-17.046 31.379-25.844 51.634-20.184 20.248 5.658 33.53 23.999 33.682 44.025z" fill="#ed771b"/></svg>