<svg id="Capa_1" enable-background="new 0 0 512 512" height="512" viewBox="0 0 512 512" width="512" xmlns="http://www.w3.org/2000/svg"><g><g><path d="m0 256c0 43.79 11 85.02 30.39 121.07l225.61 49.67 225.61-49.67c19.39-36.05 30.39-77.28 30.39-121.07 0-46.63-12.47-90.34-34.26-128-41.698 72.091-399.22 76.52-443.48 0-21.79 37.66-34.26 81.37-34.26 128z" fill="#78cd8a"/><path d="m34.26 128c44.26 76.52 126.99 128 221.74 128s177.48-51.48 221.74-128c-.01-.02-.03-.05-.04-.07-44.27-76.48-126.98-127.93-221.7-127.93s-177.43 51.45-221.7 127.93c-.01.02-.03.05-.04.07z" fill="#a8ea58"/><path d="m481.61 377.07c-1.57 2.92-3.2 5.82-4.89 8.67-11.91 20.24-39.44 24.84-56.27 41-4.04 3.89-4.24 9.4-8.53 13.02-4.32 3.63-9.4 1.42-13.95 4.78-8.24 6.07-7.3 29.45-16.26 34.51-15.22 8.6-31.39 15.68-48.34 21.04-24.4 7.74-55.106-29.04-82.076-29.04-24.94 0-14.603 6.66-37.383 0-24.02-7.01-44.504-13.225-65.034-26.515-7.65-4.96-9.445-4.207-16.495-9.927-7.74-6.27-30.418-10.941-37.378-18.061-14.56-14.9-49.403-13.197-60.013-31.287-1.58-2.7-3.11-5.43-4.6-8.19z" fill="#599d89"/></g><g><path d="m476.72 178.45v207.29c-11.91 20.24-26.53 38.69-43.36 54.85-4.04 3.89-8.22 7.64-12.51 11.26h-271.45c-5.47-2.51-10.83-5.21-16.08-8.09v-395.41h213.29z" fill="#e7eaf5"/><path d="m476.72 178.45v207.29c-14.77 25.1-33.71 47.45-55.87 66.11h-115.83v-403.5h41.59z" fill="#d9dced"/><path d="m346.61 178.449v-130.1l130.11 130.1z" fill="#c8cde3"/></g><g><path d="m333.37 190.1v309.99c-24.4 7.74-50.4 11.91-77.37 11.91-24.94 0-49.04-3.56-71.82-10.22-23.749-6.926-46.069-17.202-66.416-30.282-9.303-5.98-6.77-16.178-15.196-23.278-6.343-5.345-23.846-7.361-29.64-13.289-14.567-14.903-27.331-31.578-37.939-49.671v-195.16c0-14.36 11.64-26.01 26.01-26.01h246.36c14.371 0 26.011 11.65 26.011 26.01z" fill="#464651"/><path d="m333.37 190.1v309.99c-24.4 7.74-50.4 11.91-77.37 11.91-24.94 0-49.04-3.56-71.82-10.22v-337.69h123.18c14.37 0 26.01 11.65 26.01 26.01z" fill="#2d3041"/><path d="m148.51 126.454h71.345v222.506h-71.345z" fill="#848898" transform="matrix(0 1 -1 0 421.89 53.524)"/><path d="m204.137 182.08h71.345v111.253h-71.345z" fill="#616679" transform="matrix(0 1 -1 0 477.516 -2.103)"/><path d="m72.935 308.287h44.137v45.105h-44.137z" fill="#c8cde3"/><path d="m95.003 308.287h22.069v45.105h-22.069z" fill="#b1b7cb"/><path d="m132.382 308.287h44.146v45.105h-44.146z" fill="#c8cde3"/><path d="m191.838 308.287h44.146v45.105h-44.146z" fill="#b1b7cb"/><path d="m251.294 308.287h44.137v45.105h-44.137z" fill="#b1b7cb"/><path d="m72.935 371.443h44.137v45.105h-44.137z" fill="#c8cde3"/><path d="m132.382 371.443h44.146v45.105h-44.146z" fill="#c8cde3"/><path d="m191.838 371.443h44.146v45.105h-44.146z" fill="#b1b7cb"/><path d="m117.07 434.61v36.44c-7.65-4.96-15.02-10.3-22.07-16.02-7.74-6.27-15.11-12.98-22.07-20.1v-.32z" fill="#c8cde3"/><path d="m132.382 434.608h44.146v45.105h-44.146z" fill="#c8cde3"/><g fill="#b1b7cb"><path d="m191.838 434.608h44.146v45.105h-44.146z"/><path d="m251.294 371.443h44.137v108.27h-44.137z"/><path d="m95.003 371.443h22.069v45.105h-22.069z"/><path d="m117.07 434.61v36.44c-7.65-4.96-15.02-10.3-22.07-16.02v-20.42z"/><path d="m154.46 308.287h22.069v45.105h-22.069z"/><path d="m154.46 371.443h22.069v45.105h-22.069z"/><path d="m154.46 434.608h22.069v45.105h-22.069z"/></g><path d="m213.916 308.287h22.069v45.105h-22.069z" fill="#848898"/><path d="m213.916 371.443h22.069v45.105h-22.069z" fill="#848898"/><path d="m213.916 434.608h22.069v45.105h-22.069z" fill="#848898"/><path d="m273.363 308.287h22.069v45.105h-22.069z" fill="#848898"/><path d="m273.363 371.443h22.069v108.27h-22.069z" fill="#848898"/></g><g><path d="m433.362 299.474-9.98-17.806-15.845-5.341-15.845 5.341-9.98 17.806 25.825 16.402z" fill="#edd7c5"/><path d="m433.36 299.47v141.12c-4.04 3.89-8.22 7.64-12.51 11.26-12.14 10.23-25.23 19.35-39.14 27.2v-179.58z" fill="#8898e5"/><path d="m423.382 281.668-15.845-28.286-15.845 28.286z" fill="#616679"/><path d="m433.362 299.474-9.98-17.806-15.845-5.341v39.549z" fill="#deba9f"/><path d="m433.36 299.47v141.12c-4.04 3.89-8.22 7.64-12.51 11.26-4.32 3.63-8.76 7.13-13.31 10.48v-162.86z" fill="#546bd9"/><path d="m423.382 281.668-15.845-28.286v28.286z" fill="#464651"/></g></g></svg>