<svg id="Capa_1" enable-background="new 0 0 512 512" height="512" viewBox="0 0 512 512" width="512" xmlns="http://www.w3.org/2000/svg"><g><g><path d="m256 303.325c-141.387 0-243.897-136.39-222.704-173.666 44.022-77.433 127.263-129.659 222.704-129.659 95.17 0 178.208 51.929 222.328 128.999 21.425 37.427-80.941 174.326-222.328 174.326z" fill="#e36565"/><path d="m512 256c0 26.051-3.891 51.191-11.129 74.871-5.031 16.469-11.672 32.231-19.75 47.109-8.25 15.2-147.391 48.145-225.121 48.145s-216.871-32.945-225.109-48.145c-3.289-6.031-6.332-12.21-9.121-18.531-14-31.629-21.77-66.629-21.77-103.449 0-46.219 12.25-89.57 33.68-127 44.121 77.07 127.16 129 222.32 129s178.211-51.93 222.32-129c21.43 37.43 33.68 80.781 33.68 127zm0 0" fill="#da3f3e"/><path d="m481.262 377.699c-7.16 13.223-15.434 25.742-24.723 37.43-8.437 10.633-17.719 20.57-27.719 29.723-4.136 3.787-8.397 7.441-12.776 10.953-43.833 35.159-166.904 56.127-170.309 55.993-62.567-2.468-119.367-27.399-162.555-66.946-10-9.153-19.282-19.09-27.719-29.723-9.289-11.688-17.563-24.207-24.723-37.43zm0 0" fill="#a52020"/></g><g><path d="m379.203 385.902v-86.168h-66.797v86.168l-66.679 125.875c3.409.134 6.83.223 10.273.223 60.626 0 116.317-21.087 160.172-56.308z" fill="#fbf5eb"/><path d="m416.172 455.692-36.969-69.79v-86.168h-33.398v196.054c25.666-9.616 49.372-23.234 70.367-40.096z" fill="#dce0ef"/><path d="m267.875 288.602h133.594v22.266h-133.594z" fill="#dce0ef"/><path d="m345.805 288.602h55.664v22.266h-55.664z" fill="#cad0e7"/><path d="m178.07 310.867h-112.07v66.797c0 30.594 58.45 44.531 112.07 44.531s112.07-13.938 112.07-44.531v-66.797z" fill="#dce0ef"/><path d="m290.141 377.664v-66.797h-112.071v111.328c53.62 0 112.071-13.937 112.071-44.531z" fill="#cad0e7"/><path d="m178.07 244.07h-112.07v66.797c0 30.594 58.45 44.531 112.07 44.531s112.07-13.938 112.07-44.531v-66.797z" fill="#fbf5eb"/><path d="m290.141 310.867v-66.797h-112.071v111.328c53.62 0 112.071-13.937 112.071-44.531z" fill="#dce0ef"/><path d="m178.07 176.531h-112.07v67.539c0 30.593 58.45 44.531 112.07 44.531s112.07-13.938 112.07-44.531v-67.539z" fill="#dce0ef"/><path d="m290.141 244.07v-67.539h-112.071v112.07c53.62.001 112.071-13.937 112.071-44.531z" fill="#cad0e7"/><ellipse cx="178.07" cy="176.531" fill="#fbf5eb" rx="112.07" ry="44.531"/><path d="m290.141 176.531c0-30.593-58.45-44.531-112.07-44.531v89.062c53.619 0 112.07-13.937 112.07-44.531z" fill="#dce0ef"/><path d="m373.191 422.195h-54.773l-35.626 67.539h77.766c13.073-5.857 25.562-12.781 37.362-20.657z" fill="#a8eb58"/><path d="m373.191 422.195h-27.386v67.539h14.754c13.073-5.857 25.562-12.781 37.362-20.657z" fill="#80cf8c"/></g><g fill="#fff"><path d="m237.125 70.641h-1.524c-6.754 0-12.226-5.477-12.226-12.227v-1.524h-8.715v1.523c0 6.75-5.477 12.227-12.227 12.227h-1.527v8.715h1.527c6.75 0 12.227 5.472 12.227 12.226v1.528h8.715v-1.528c0-6.754 5.472-12.226 12.226-12.226h1.524zm0 0"/><path d="m374.055 97.722h-1.524c-6.754 0-12.226-5.477-12.226-12.227v-1.523h-8.715v1.523c0 6.75-5.477 12.227-12.227 12.227h-1.527v8.715h1.527c6.75 0 12.227 5.472 12.227 12.226v1.528h8.715v-1.528c0-6.754 5.472-12.226 12.226-12.226h1.524zm0 0"/><path d="m417.23 207.09h-1.524c-6.754 0-12.226-5.477-12.226-12.227v-1.523h-8.715v1.523c0 6.75-5.477 12.227-12.227 12.227h-1.527v8.715h1.527c6.75 0 12.227 5.472 12.227 12.226v1.528h8.715v-1.528c0-6.754 5.472-12.226 12.226-12.226h1.524zm0 0"/></g></g></svg>