<svg id="Capa_1" enable-background="new 0 0 512 512" height="512" viewBox="0 0 512 512" width="512" xmlns="http://www.w3.org/2000/svg"><g><g><path d="m0 256c0 43.79 11 85.02 30.39 121.07l225.61 49.67 225.61-49.67c19.39-36.05 30.39-77.28 30.39-121.07 0-46.63-12.47-90.34-34.26-128-41.698 72.091-399.22 76.52-443.48 0-21.79 37.66-34.26 81.37-34.26 128z" fill="#bf2e70"/><path d="m34.26 128c44.26 76.52 126.99 128 221.74 128s177.48-51.48 221.74-128c-.01-.02-.03-.05-.04-.07-44.27-76.48-126.98-127.93-221.7-127.93s-177.43 51.45-221.7 127.93c-.01.02-.03.05-.04.07z" fill="#d75e91"/><path d="m30.39 377.07c43.19 80.32 128.02 134.93 225.61 134.93s182.42-54.61 225.61-134.93z" fill="#871155"/></g><path d="m206.571 131.756h98.857v123.079h-98.857z" fill="#9feafd"/><path d="m256 131.756h49.429v123.079h-49.429z" fill="#70c5e8"/><circle cx="256" cy="349.683" fill="#d6f3ff" r="140.048"/><path d="m396.048 349.683c0 71.415-53.461 130.352-122.549 138.966-5.963-.747-11.796-1.861-17.499-3.333-60.409-15.54-105.039-70.376-105.039-135.633s44.63-120.093 105.039-135.633c5.703-1.472 11.536-2.586 17.499-3.333 69.088 8.614 122.549 67.551 122.549 138.966z" fill="#c3f3ff"/><path d="m338.194 133.447c0 16.991-13.777 30.767-30.778 30.767h-102.832c-8.495 0-16.201-3.441-21.763-9.015-5.573-5.562-9.015-13.257-9.015-21.752 0-16.991 13.777-30.767 30.778-30.767h102.831c8.495 0 16.201 3.441 21.763 9.015 5.574 5.562 9.016 13.257 9.016 21.752z" fill="#c3f3ff"/><path d="m396.048 349.683c0 77.345-62.703 140.048-140.048 140.048v-280.097c77.345 0 140.048 62.703 140.048 140.049z" fill="#9feafd"/><path d="m338.194 133.447c0 16.991-13.777 30.767-30.778 30.767h-51.416v-61.534h51.416c8.495 0 16.201 3.441 21.763 9.015 5.573 5.562 9.015 13.257 9.015 21.752z" fill="#9feafd"/><path d="m359.697 349.683c0 57.27-46.427 103.697-103.697 103.697s-103.697-46.427-103.697-103.697z" fill="#b895e4"/><path d="m359.697 349.683c0 57.27-46.427 103.697-103.697 103.697v-103.697z" fill="#9865d8"/><circle cx="198.623" cy="314.936" fill="#9feafd" r="23.17"/><path d="m273.499 279.934c0 9.664-7.835 17.499-17.499 17.499s-17.499-7.835-17.499-17.499 7.835-17.51 17.499-17.51 17.499 7.846 17.499 17.51z" fill="#9feafd"/><circle cx="323.021" cy="310.314" fill="#70c5e8" r="15.173"/><circle cx="297.848" cy="385.602" fill="#b895e4" r="19.762"/><circle cx="214.846" cy="394.137" fill="#9865d8" r="15.173"/><path d="m273.499 279.934c0 9.664-7.835 17.499-17.499 17.499v-35.009c9.664 0 17.499 7.846 17.499 17.51z" fill="#70c5e8"/><g fill="#bf2e70"><circle cx="224.742" cy="73.37" r="14.896"/><circle cx="282.149" cy="52.043" r="20.537"/></g></g></svg>