<svg id="Capa_1" enable-background="new 0 0 512 512" height="512" viewBox="0 0 512 512" width="512" xmlns="http://www.w3.org/2000/svg"><circle cx="256" cy="256" fill="#65b2fe" r="256"/><path d="m512 256c0 87.11-43.52 164.07-110 210.31-41.41 28.8-91.73 45.69-146 45.69s-104.59-16.89-146-45.69c-66.48-46.24-110-123.2-110-210.31 0-46.22 12.25-89.57 33.68-127 44.12 77.07 127.16 129 222.32 129s178.21-51.93 222.32-129c21.43 37.43 33.68 80.78 33.68 127z" fill="#0e9ce7"/><path d="m452 316c0 105.34-83.12 191.28-187.34 195.81-.31.02-.62.03-.93.04-.87.03-1.74.06-2.6.08-1.73.05-3.44.07-5.13.07-108.24 0-196-87.76-196-196s87.76-196 196-196h.28c108.11.15 195.72 87.85 195.72 196z" fill="#ffe853"/><path d="m452 316c0 105.34-83.12 191.28-187.34 195.81-.31.02-.62.03-.93.04-.87.03-1.74.06-2.6.08-1.73.05-3.44.07-5.13.07-58.54-45.3-103.35-116.25-103.35-196s44.81-150.7 103.35-196h.28c108.11.15 195.72 87.85 195.72 196z" fill="#fed110"/><path d="m452 316c0 108.244-87.756 196-196 196v-392c108.244 0 196 87.756 196 196z" fill="#ff9f01"/><path d="m233.76 295.26c0 25.46-20.64 46.1-46.09 46.1-25.46 0-46.1-20.64-46.1-46.1 0-25.45 92.19-25.45 92.19 0z" fill="#fff"/><circle cx="208.147" cy="295.264" fill="#29334c" r="25.616"/><path d="m370.43 295.26c0 25.46-20.64 46.1-46.1 46.1-25.45 0-46.09-20.64-46.09-46.1 0-25.45 20.64-46.09 46.09-46.09 25.46 0 46.1 20.64 46.1 46.09z" fill="#fff"/><circle cx="344.814" cy="295.264" fill="#29334c" r="25.616"/><path d="m233.76 295.26h-92.19c0-25.45 20.64-46.09 46.1-46.09 25.45 0 46.09 20.64 46.09 46.09z" fill="#ed771b"/><path d="m370.43 295.26h-92.19c0-25.45 20.64-46.09 46.09-46.09 25.46 0 46.1 20.64 46.1 46.09z" fill="#ed771b"/><path d="m372.437 422.108h-102.531c-7.986 0-13.039-8.483-9.319-15.548 3.684-6.992 8.555-13.281 14.348-18.577 2.508-2.302 5.199-4.423 8.034-6.326h76.416c.691.46 1.369.945 2.048 1.43 2.084 1.515 4.072 3.151 5.974 4.896 5.78 5.296 10.652 11.585 14.348 18.577 3.721 7.065-1.344 15.548-9.318 15.548z" fill="#313b5a"/><path d="m372.437 422.108h-51.271v-40.45h38.22c.691.46 1.369.945 2.048 1.43 2.084 1.515 4.072 3.151 5.974 4.896 5.78 5.296 10.652 11.585 14.348 18.577 3.72 7.064-1.345 15.547-9.319 15.547z" fill="#29334c"/><path d="m361.434 383.087c-3.587 8.761-12.118 14.493-21.594 14.493h-34.73c-9.743 0-18.468-6.059-21.861-15.184l-.279-.739c10.906-7.367 24.042-11.657 38.196-11.657 15.05 0 28.962 4.847 40.268 13.087z" fill="#fff"/><path d="m361.434 383.087c-3.587 8.761-12.118 14.493-21.594 14.493h-18.674v-27.58c15.05 0 28.962 4.847 40.268 13.087z" fill="#d1f6ff"/></svg>