<svg id="Capa_1" enable-background="new 0 0 512 512" height="512" viewBox="0 0 512 512" width="512" xmlns="http://www.w3.org/2000/svg"><g><g><path d="m512 256c0 141.387-114.613 256-256 256s-256-114.613-256-256 114.613-256 256-256 256 114.613 256 256zm0 0" fill="#ff0f47"/><path d="m512 256c0 26.051-3.891 51.191-11.129 74.871-5.031 16.469-11.672 32.231-19.75 47.109-8.25 15.2-147.391 51.186-225.121 51.186s-216.871-35.986-225.109-51.186c-3.289-6.031-6.332-12.21-9.121-18.531-14-31.629-21.77-66.629-21.77-103.449 0-46.219 12.25-89.57 33.68-127 44.121 77.07 127.16 129 222.32 129s178.211-51.93 222.32-129c21.43 37.43 33.68 80.781 33.68 127zm0 0" fill="#ba1956"/><path d="m481.262 377.699c-7.16 13.223-15.434 25.742-24.723 37.43-8.437 10.633-17.719 20.57-27.719 29.723-45.539 41.699-106.211 67.148-172.82 67.148s-127.281-25.449-172.82-67.148c-10-9.153-19.282-19.09-27.719-29.723-9.289-11.688-17.563-24.207-24.723-37.43zm0 0" fill="#742466"/></g><g><path d="m434.264 333.489 28.236-28.234-28.236-28.234 18.127-35.577-35.576-18.128 6.246-39.438-39.438-6.246-6.247-39.438-39.438 6.246-18.128-35.577-35.577 18.127-28.234-28.235-48.398 206.5 48.398 206.501 28.234-28.236 35.577 18.128 18.128-35.577 39.438 6.246 6.247-39.438 39.438-6.246-6.246-39.438 35.576-18.128z" fill="#ffb03b"/><path d="m227.765 126.99-35.578-18.127-18.128 35.577-39.437-6.246-6.246 39.438-39.438 6.246 6.246 39.438-35.578 18.128 18.128 35.577-28.235 28.234 28.235 28.234-18.128 35.578 35.578 18.128-6.246 39.438 39.438 6.246 6.246 39.438 39.437-6.246 18.128 35.577 35.578-18.128 28.234 28.236v-413.001z" fill="#ffc46c"/><path d="m255.999 178.613-63.321 126.642 63.321 126.642c69.943 0 126.642-56.7 126.642-126.642s-56.699-126.642-126.642-126.642z" fill="#ff4f42"/><path d="m129.357 305.255c0 69.943 56.7 126.642 126.642 126.642v-253.284c-69.943 0-126.642 56.7-126.642 126.642z" fill="#ff7040"/><path d="m129.357 305.255c0 69.943 56.7 126.642 126.642 126.642-91.297 0-91.297-253.285 0-253.285-69.943.001-126.642 56.701-126.642 126.643z" fill="#ff8b63"/><path d="m334.383 279.787-54.162-7.87-24.222-49.078-24.199 61.812 24.199 61.813 48.444 25.468-9.252-53.942z" fill="#ffb03b"/><path d="m231.778 271.917-54.163 7.87 39.192 38.203-9.252 53.942 48.444-25.468v-123.625z" fill="#ffc46c"/></g></g></svg>