<?xml version="1.0" encoding="iso-8859-1"?>
<!-- Generator: Adobe Illustrator 19.0.0, SVG Export Plug-In . SVG Version: 6.00 Build 0)  -->
<svg version="1.1" id="Capa_1" xmlns="http://www.w3.org/2000/svg" xmlns:xlink="http://www.w3.org/1999/xlink" x="0px" y="0px"
	 viewBox="0 0 512 512" style="enable-background:new 0 0 512 512;" xml:space="preserve">
<path style="fill:#2B6C7E;" d="M4.633,234.333c-1.993,0-3.57-1.714-3.375-3.697C13.995,101.16,123.176,0,256,0
	c132.794,0,241.956,101.115,254.733,230.548c0.2,2.03-1.415,3.785-3.455,3.785H314.771c-26.294,0-48.88,15.835-58.771,38.484
	c-9.891-22.649-32.477-38.484-58.771-38.484L4.633,234.333L4.633,234.333z"/>
<path style="fill:#D9E7EC;" d="M490,130v10c0,27.57-22.43,50-50,50H214c-14.838,0-27.187,10.831-29.575,25H190
	c5.523,0,10,4.477,10,10v30c0,5.523-4.477,10-10,10h-7.349c-1.73,2.986-4.952,5-8.651,5s-6.921-2.014-8.651-5H160
	c-5.523,0-10-4.477-10-10v-30c0-5.523,4.477-10,10-10h4.25c2.517-25.231,23.867-45,49.75-45h226c16.542,0,30-13.458,30-30v-10
	c0-16.542-13.458-30-30-30h-61.006c-4.646,22.795-24.848,40-48.994,40H50c-5.523,0-10-4.478-10-10s4.477-10,10-10h280
	c16.542,0,30-13.458,30-30s-13.458-30-30-30H130c-5.523,0-10-4.478-10-10s4.477-10,10-10h200c24.146,0,44.348,17.205,48.994,40H440
	C467.57,80,490,102.43,490,130z"/>
<path style="fill:#9FACBA;" d="M100,130c0,8.284-6.716,15-15,15H69.499C67.183,156.411,57.095,165,45,165c-13.807,0-25-11.193-25-25
	l0,0c0-13.807,11.193-25,25-25h20h5h15C93.284,115,100,121.716,100,130z"/>
<path style="fill:#B6C4CF;" d="M170,51c0,8.284-6.716,15-15,15h-15h-5h-20c-13.807,0-25-11.193-25-25s11.193-25,25-25
	c12.095,0,22.183,8.589,24.499,20H155C163.284,36,170,42.716,170,51z M85,115H70h-5H45c-10.267,0-19.084,6.191-22.933,15.042
	c3.849,8.851,12.666,15.042,22.933,15.042c12.095,0,22.183-8.589,24.499-20H85c4.458,0,8.449-1.955,11.196-5.042
	C93.449,116.955,89.458,115,85,115z"/>
<path style="fill:#9FACBA;" d="M167.673,43c1.466,2.317,2.327,5.055,2.327,8c0,8.284-6.716,15-15,15h-15h-5h-20
	c-13.807,0-25-11.193-25-25c0-2.799,0.467-5.487,1.315-8c3.337,9.882,12.677,17,23.685,17h20h5h15
	C160.339,50,165.015,47.202,167.673,43z"/>
<path style="fill:#FFF2B4;" d="M261,511.937L261,511.937c-1.664,0.032-3.328,0.063-5,0.063s-3.336-0.031-5-0.063l0,0
	C111.925,509.271,0,395.713,0,256c0-8.777,0.444-17.45,1.306-26H201c24.607,0,45.743,14.819,55,36.015
	C265.257,244.819,286.393,230,311,230h199.694c0.862,8.55,1.306,17.223,1.306,26C512,395.713,400.075,509.271,261,511.937z"/>
<path style="fill:#FFDF8E;" d="M350,230c-33.137,0-60,26.863-60,60v219.748c-11.125,1.477-22.471,2.252-34,2.252
	c1.672,0,3.336-0.031,5-0.063V290c0-8.53-1.791-16.638-5-23.985C265.257,244.819,286.393,230,311,230H350z M312,297
	c-1.104,0-2,0.896-2,2v11c0,1.104,0.896,2,2,2h193.84c1.104-4.948,2.064-9.949,2.877-15H312z M310,504.333v1.942
	c5.368-1.153,10.68-2.458,15.917-3.942H312C310.896,502.333,310,503.229,310,504.333z M458,385H312c-1.104,0-2,0.896-2,2v11
	c0,1.104,0.896,2,2,2h146c1.104,0,2-0.896,2-2v-11C460,385.896,459.104,385,458,385z M310,475v11c0,1.104,0.896,2,2,2h52.321
	c9.51-4.448,18.7-9.461,27.529-15H312C310.896,473,310,473.896,310,475z M310,445.667v11c0,1.105,0.896,2,2,2h100.397
	c6.126-4.734,12.03-9.741,17.696-15H312C310.896,443.667,310,444.562,310,445.667z M310,416.333v11c0,1.105,0.896,2,2,2h132.375
	c4.451-4.834,8.725-9.833,12.797-15H312C310.896,414.333,310,415.229,310,416.333z M310,357.667v11c0,1.105,0.896,2,2,2h172.927
	c2.467-4.915,4.794-9.911,6.947-15H312C310.896,355.667,310,356.562,310,357.667z M310,328.333v11c0,1.105,0.896,2,2,2h185.413
	c1.744-4.935,3.356-9.932,4.801-15H312C310.896,326.333,310,327.229,310,328.333z M228,385H82c-1.104,0-2,0.896-2,2v11
	c0,1.104,0.896,2,2,2h146c1.104,0,2-0.896,2-2v-11C230,385.896,229.104,385,228,385z M228,473H120.15
	c8.829,5.539,18.019,10.552,27.529,15H228c1.104,0,2-0.896,2-2v-11C230,473.896,229.104,473,228,473z M228,443.667H81.906
	c5.667,5.259,11.57,10.266,17.696,15H228c1.104,0,2-0.895,2-2v-11C230,444.562,229.104,443.667,228,443.667z M228,297H3.283
	c0.813,5.051,1.773,10.052,2.877,15H228c1.104,0,2-0.896,2-2v-11C230,297.896,229.104,297,228,297z M228,502.333h-41.917
	c14.177,4.016,28.854,6.841,43.917,8.361v-6.361C230,503.229,229.104,502.333,228,502.333z M228,326.333H9.786
	c1.445,5.068,3.057,10.065,4.801,15H228c1.104,0,2-0.895,2-2v-11C230,327.229,229.104,326.333,228,326.333z M228,414.333H54.829
	c4.072,5.167,8.346,10.166,12.797,15H228c1.104,0,2-0.895,2-2v-11C230,415.229,229.104,414.333,228,414.333z M228,355.667H20.126
	c2.153,5.089,4.48,10.085,6.947,15H228c1.104,0,2-0.895,2-2v-11C230,356.562,229.104,355.667,228,355.667z"/>
<g>
</g>
<g>
</g>
<g>
</g>
<g>
</g>
<g>
</g>
<g>
</g>
<g>
</g>
<g>
</g>
<g>
</g>
<g>
</g>
<g>
</g>
<g>
</g>
<g>
</g>
<g>
</g>
<g>
</g>
</svg>
