<svg id="Icons" enable-background="new 0 0 512 512" height="512" viewBox="0 0 512 512" width="512" xmlns="http://www.w3.org/2000/svg"><g><circle cx="256" cy="256" fill="#f39e22" r="256"/><g><g id="Landscape_1_"><g><path d="m65.604 122.576h225.822v266.078h-225.822z" fill="#22bce0"/></g><g><g><g><path d="m271.919 191.49c0 9.565-1.838 18.468-5.005 25.931-18.961 41.896-57.547 17.567-57.037-25.932 1.533-62.394 59.946-64.088 62.042.001z" fill="#50755c"/></g><g><path d="m271.919 191.49c0 9.565-1.838 18.468-5.005 25.931-20.698 4.239-35.607-18.801-35.959-47.01 0-9.559 1.838-18.463 4.999-25.92 20.704-4.257 35.613 18.787 35.965 46.999z" fill="#528f66"/></g></g><g><g><path d="m245.999 195.693v81.359c-.195 6.707-9.982 6.765-10.197 0v-81.359c.206-6.734 9.994-6.74 10.197 0z" fill="#bf5e39"/></g><g><path d="m245.999 195.693v80.587c-2.949.255-5.529-2.119-5.514-5.081v-80.587c2.946-.253 5.533 2.118 5.514 5.081z" fill="#ea792e"/></g><g><path d="m244.506 192.087c.925.925 1.493 2.195 1.493 3.606v45.032c-2.949.255-5.529-2.119-5.514-5.081v-45.032c1.514-.134 3.016.463 4.021 1.475z" fill="#f39e22"/></g></g></g><g><g><g><path d="m194.507 209.463c0 9.565-1.838 18.468-5.005 25.931-18.961 41.896-57.547 17.567-57.037-25.932 1.533-62.395 59.947-64.089 62.042.001z" fill="#50755c"/></g><g><path d="m194.507 209.463c0 9.565-1.838 18.468-5.005 25.931-20.698 4.239-35.607-18.801-35.959-47.01 0-9.559 1.838-18.463 4.999-25.92 20.705-4.257 35.614 18.786 35.965 46.999z" fill="#528f66"/></g></g><g><g><path d="m168.588 213.666v81.359c-.195 6.707-9.982 6.765-10.197 0v-81.359c.206-6.734 9.994-6.74 10.197 0z" fill="#bf5e39"/></g><g><path d="m168.588 213.666v80.587c-2.949.255-5.529-2.119-5.514-5.081v-80.587c2.946-.253 5.532 2.117 5.514 5.081z" fill="#ea792e"/></g><g><path d="m167.095 210.06c.925.925 1.493 2.195 1.493 3.606v45.032c-2.949.255-5.529-2.119-5.514-5.081v-45.032c1.514-.135 3.016.462 4.021 1.475z" fill="#f39e22"/></g></g></g><g><g><path d="m176.891 305.003c.077 30.373-24.685 55.664-55.638 55.644-33.392.267-59.828-30.08-55.146-63.096 11.098-67.976 108.688-61.897 110.784 7.452z" fill="#53b976"/></g><g><path d="m168.123 328.301c0 2.529-.17 5.022-.498 7.463-9.969 14.997-27.014 24.883-46.372 24.883-33.392.267-59.828-30.08-55.146-63.096 30.255-45.308 101.612-24.561 102.016 30.75z" fill="#50755c"/></g></g><g><g><path d="m268.167 314.896c0 9.348-2.804 18.047-7.621 25.293-26.941 39.841-89.37 16.967-83.472-31.423 9.121-55.891 89.372-50.887 91.093 6.13z" fill="#53b976"/></g><g><path d="m260.955 334.049c0 2.084-.141 4.133-.41 6.14-8.195 12.328-22.214 20.458-38.13 20.458-27.452.219-49.193-24.737-45.342-51.881 24.88-37.254 83.551-20.188 83.882 25.283z" fill="#50755c"/></g></g><g><g><path d="m291.426 310.214v78.44h-225.822v-79.636h215.525c3.548 0 6.989.412 10.297 1.196z" fill="#53b976"/></g><g><g><path d="m203.361 336.543h-28.943c-2.684-.043-2.7-4.051 0-4.098h28.943c2.684.043 2.7 4.051 0 4.098z" fill="#9acdae"/></g><g><path d="m194.888 320.638h-28.943c-2.684-.043-2.7-4.051 0-4.098h28.943c2.684.044 2.7 4.052 0 4.098z" fill="#9acdae"/></g><g><path d="m147.606 330.329h-28.943c-2.684-.043-2.7-4.051 0-4.098h28.943c2.684.044 2.7 4.052 0 4.098z" fill="#9acdae"/></g><g><path d="m179.891 348.986h-28.942c-2.684-.043-2.7-4.051 0-4.098h28.942c2.684.044 2.7 4.052 0 4.098z" fill="#9acdae"/></g><g><path d="m93.403 356.418h-28.943c-2.684-.043-2.7-4.051 0-4.098h28.943c2.684.043 2.7 4.051 0 4.098z" fill="#9acdae"/></g><g><path d="m154.651 392.757h-28.943c-2.684-.043-2.7-4.051 0-4.098h28.943c2.684.044 2.7 4.052 0 4.098z" fill="#9acdae"/></g><g><path d="m132.465 342.114h-28.942c-2.684-.043-2.7-4.051 0-4.098h28.942c2.684.043 2.7 4.052 0 4.098z" fill="#9acdae"/></g><g><path d="m114.817 318.704h-28.943c-2.684-.043-2.7-4.051 0-4.098h28.943c2.684.043 2.7 4.051 0 4.098z" fill="#9acdae"/></g><g><path d="m123.588 372.948h-28.942c-2.684-.043-2.7-4.051 0-4.098h28.943c2.683.043 2.699 4.051-.001 4.098z" fill="#9acdae"/></g><g><path d="m188.889 374.996h-28.943c-2.684-.043-2.7-4.051 0-4.098h28.943c2.684.044 2.7 4.052 0 4.098z" fill="#9acdae"/></g><g><path d="m225.529 357.719h-28.943c-2.684-.043-2.7-4.051 0-4.098h28.943c2.684.044 2.7 4.052 0 4.098z" fill="#9acdae"/></g><g><path d="m289.38 350.085h-28.943c-2.684-.043-2.7-4.051 0-4.098h28.943c2.684.044 2.7 4.052 0 4.098z" fill="#9acdae"/></g><g><path d="m258.569 370.899h-28.942c-2.684-.043-2.7-4.051 0-4.098h28.942c2.684.043 2.7 4.052 0 4.098z" fill="#9acdae"/></g><g><path d="m263.665 336.543h-28.942c-2.684-.043-2.7-4.051 0-4.098h28.942c2.685.043 2.701 4.051 0 4.098z" fill="#9acdae"/></g><g><path d="m148.877 361.984h-28.943c-2.684-.043-2.7-4.051 0-4.098h28.943c2.684.043 2.7 4.052 0 4.098z" fill="#9acdae"/></g><g><path d="m247.146 320.638h-28.942c-2.684-.043-2.7-4.051 0-4.098h28.942c2.684.044 2.7 4.052 0 4.098z" fill="#9acdae"/></g></g></g></g><g><path d="m292.01 113.382h-226.406c-5.5 0-9.964 4.464-9.964 9.964v265.308c0 5.514 4.464 9.964 9.964 9.964h226.406c5.5 0 9.964-4.451 9.964-9.964v-265.308c.001-5.5-4.463-9.964-9.964-9.964zm-9.964 265.307h-206.478v-245.378h206.477v245.378z" fill="#a26d5a"/><path d="m284.716 122.576h-211.818c-5.142 0-9.313 4.172-9.313 9.327v248.209c0 5.155 4.172 9.327 9.313 9.327h211.818c5.142 0 9.313-4.172 9.313-9.327v-248.21c.001-5.155-4.171-9.326-9.313-9.326zm-2.67 256.113h-206.478v-245.378h206.477v245.378z" fill="#d48d77"/><g fill="#eea47d"><path d="m245.051 133.311h-91.637c-2.964 0-5.368-2.403-5.368-5.368s2.403-5.368 5.368-5.368h91.637c7.067.208 7.117 10.511 0 10.736z"/><path d="m196.244 389.424h-91.637c-2.964 0-5.368-2.403-5.368-5.367s2.403-5.368 5.368-5.368h91.637c7.068.208 7.118 10.511 0 10.735z"/><path d="m282.046 274.044v-102.299c0-3.309 2.683-5.992 5.992-5.992s5.992 2.683 5.992 5.992v102.298c-.26 7.903-11.703 7.958-11.984.001z"/><path d="m63.584 341.354v-102.298c0-3.309 2.683-5.992 5.992-5.992s5.992 2.683 5.992 5.992v102.298c-.26 7.902-11.702 7.957-11.984 0z"/></g></g></g><g id="Pencil_2_"><g><path d="m325.234 210.738h32.803v125.049h-32.803z" fill="#528f66"/><path d="m334.774 220.278v105.969c0 5.265-4.275 9.54-9.54 9.54v-125.049c5.266 0 9.54 4.267 9.54 9.54z" fill="#50755c"/><path d="m358.038 210.738v125.049c-5.273 0-9.548-4.275-9.548-9.54v-105.969c0-5.273 4.275-9.54 9.548-9.54z" fill="#53b976"/></g><g><path d="m366.713 343.384c0 4.191-3.398 7.597-7.589 7.597h-34.975c-4.183.028-7.626-3.486-7.589-7.597 0-4.199 3.398-7.597 7.589-7.597h34.975c4.193.003 7.592 3.405 7.589 7.597z" fill="#ebd9ea"/><path d="m366.713 343.384h-22.082c-4.191.001-7.596-3.395-7.597-7.597h22.09c4.193.003 7.592 3.405 7.589 7.597z" fill="#fff"/><path d="m357.447 350.981h-33.299c-3.128-.006-5.829-1.883-7.003-4.663h33.299c3.132.008 5.823 1.878 7.003 4.663z" fill="#c1b7d3"/></g><g><path d="m358.034 350.981v11.239c.011 9.091-7.415 16.417-16.398 16.398-9.001.018-16.425-7.335-16.405-16.398v-11.239z" fill="#ee6781"/><path d="m358.034 350.981v11.239c0 4.983-2.217 9.441-5.723 12.443-3.535-3.046-5.704-7.46-5.715-12.443v-11.239z" fill="#f0a6b3"/><path d="m335.251 350.981v11.239c0 4.633-1.913 8.816-5.006 11.788-3.113-2.971-5.006-7.159-5.014-11.788v-11.239z" fill="#d65171"/></g><path d="m358.034 210.738h-32.804l13.716-34.221h5.38c1.93 4.818 12.018 30.006 13.708 34.221z" fill="#f5b890"/><path d="m355.436 204.254h-16.604c-2.819 0-4.74-2.85-3.696-5.463l8.923-22.273h.267z" fill="#fbd9a3"/><g><path d="m345.118 161.781v16.177c.067 3.047-3.867 4.631-5.944 2.461-.632-.632-1.021-1.501-1.021-2.461v-16.177c.127-4.601 6.854-4.584 6.965 0z" fill="#50755c"/><path d="m345.118 161.781v9.898c-2.09.36-4.059-1.319-4.038-3.437v-9.898c2.087-.357 4.058 1.31 4.038 3.437z" fill="#528f66"/></g></g><g id="Pencil_3_"><g><path d="m380.981 210.738h32.803v125.049h-32.803z" fill="#22bce0"/><path d="m390.521 220.278v105.969c0 5.265-4.275 9.54-9.54 9.54v-125.049c5.266 0 9.54 4.267 9.54 9.54z" fill="#22a8b9"/><path d="m413.785 210.738v125.049c-5.273 0-9.548-4.275-9.548-9.54v-105.969c0-5.273 4.275-9.54 9.548-9.54z" fill="#4fcae8"/></g><g><path d="m422.46 343.384c0 4.191-3.398 7.597-7.589 7.597h-34.975c-4.183.028-7.626-3.486-7.589-7.597 0-4.199 3.398-7.597 7.589-7.597h34.975c4.193.003 7.592 3.405 7.589 7.597z" fill="#ebd9ea"/><path d="m422.46 343.384h-22.082c-4.191.001-7.596-3.395-7.597-7.597h22.09c4.193.003 7.592 3.405 7.589 7.597z" fill="#fff"/><path d="m413.194 350.981h-33.299c-3.128-.006-5.829-1.883-7.003-4.663h33.299c3.132.008 5.823 1.878 7.003 4.663z" fill="#c1b7d3"/></g><g><path d="m413.781 350.981v11.239c.011 9.091-7.415 16.417-16.398 16.398-9.001.018-16.425-7.335-16.405-16.398v-11.239z" fill="#ee6781"/><path d="m413.781 350.981v11.239c0 4.983-2.217 9.441-5.723 12.443-3.535-3.046-5.704-7.46-5.715-12.443v-11.239z" fill="#f0a6b3"/><path d="m390.998 350.981v11.239c0 4.633-1.913 8.816-5.006 11.788-3.113-2.971-5.006-7.159-5.014-11.788v-11.239z" fill="#d65171"/></g><path d="m413.781 210.738h-32.803l13.716-34.221h5.38c1.929 4.818 12.017 30.006 13.707 34.221z" fill="#f5b890"/><path d="m411.183 204.254h-16.604c-2.819 0-4.74-2.85-3.696-5.463l8.923-22.273h.267z" fill="#fbd9a3"/><g><path d="m400.865 161.781v16.177c.067 3.047-3.867 4.631-5.944 2.461-.632-.632-1.021-1.501-1.021-2.461v-16.177c.127-4.601 6.854-4.584 6.965 0z" fill="#22a8b9"/><path d="m400.865 161.781v9.898c-2.09.36-4.059-1.319-4.038-3.437v-9.898c2.087-.357 4.058 1.31 4.038 3.437z" fill="#22bce0"/></g></g><g id="Pencil_4_"><g><path d="m436.728 210.738h32.803v125.049h-32.803z" fill="#dd5e26"/><path d="m446.268 220.278v105.969c0 5.265-4.275 9.54-9.54 9.54v-125.049c5.266 0 9.54 4.267 9.54 9.54z" fill="#bf5e39"/><path d="m469.532 210.738v125.049c-5.273 0-9.548-4.275-9.548-9.54v-105.969c0-5.273 4.275-9.54 9.548-9.54z" fill="#ea792e"/></g><g><path d="m478.207 343.384c0 4.191-3.398 7.597-7.589 7.597h-34.975c-4.183.028-7.626-3.486-7.589-7.597 0-4.199 3.398-7.597 7.589-7.597h34.975c4.193.003 7.592 3.405 7.589 7.597z" fill="#ebd9ea"/><path d="m478.207 343.384h-22.082c-4.191.001-7.596-3.395-7.597-7.597h22.09c4.193.003 7.592 3.405 7.589 7.597z" fill="#fff"/><path d="m468.941 350.981h-33.299c-3.128-.006-5.829-1.883-7.003-4.663h33.299c3.132.008 5.823 1.878 7.003 4.663z" fill="#c1b7d3"/></g><g><path d="m469.528 350.981v11.239c.011 9.091-7.415 16.417-16.398 16.398-9.001.018-16.425-7.335-16.405-16.398v-11.239z" fill="#ee6781"/><path d="m469.528 350.981v11.239c0 4.983-2.217 9.441-5.723 12.443-3.535-3.046-5.704-7.46-5.715-12.443v-11.239z" fill="#f0a6b3"/><path d="m446.745 350.981v11.239c0 4.633-1.913 8.816-5.006 11.788-3.113-2.971-5.006-7.159-5.014-11.788v-11.239z" fill="#d65171"/></g><path d="m469.528 210.738h-32.803l13.716-34.221h5.38c1.929 4.818 12.017 30.006 13.707 34.221z" fill="#f5b890"/><path d="m466.93 204.254h-16.604c-2.819 0-4.74-2.85-3.696-5.463l8.923-22.273h.267z" fill="#fbd9a3"/><g><path d="m456.612 161.781v16.177c.067 3.047-3.867 4.631-5.944 2.461-.632-.632-1.021-1.501-1.021-2.461v-16.177c.127-4.601 6.854-4.584 6.965 0z" fill="#bf5e39"/><path d="m456.612 161.781v9.898c-2.09.36-4.059-1.319-4.038-3.437v-9.898c2.087-.357 4.058 1.31 4.038 3.437z" fill="#dd5e26"/></g></g></g></svg>