<svg height="512" viewBox="0 0 512 512" width="512" xmlns="http://www.w3.org/2000/svg"><g id="BULINE"><circle cx="256" cy="256" fill="#f6c752" r="256"/></g><g id="Icons"><path d="m36.67 232.77a15 15 0 0 1 -11.1-25l78.44-87a40.9 40.9 0 0 1 70.28 18.48l5.05 22.61a15 15 0 0 1 -29.2 6.52l-5-22.61a11 11 0 0 0 -18.86-5l-78.44 87a15 15 0 0 1 -11.17 5z" fill="#27273d"/><path d="m474.79 232.77a14.92 14.92 0 0 1 -11.11-4.94l-78.45-87a11 11 0 0 0 -18.86 5l-5.05 22.61a15 15 0 0 1 -29.2-6.52l5.05-22.61a40.9 40.9 0 0 1 70.28-18.48l78.45 87a15 15 0 0 1 -11.11 25z" fill="#27273d"/><path d="m487.59 241.94-7.38 48.84-6.87 45.36c-5.33 39.76-52.75 68.34-92.73 65.32-3.45-.26-6.9-.5-10.36-.74l-7-.46c-11.22-.69-23-7.95-33.68-17.34a176.3 176.3 0 0 1 -15.57-15.71 269.23 269.23 0 0 1 -17-21.46 74 74 0 0 1 -8.13-15.2 35.52 35.52 0 0 0 -65.84 0 73.3 73.3 0 0 1 -8.03 15.21c-1.45 2.05-3.12 4.34-5 6.81-14.17 18.75-39.41 47.31-62.2 48.2-4.26.16-8.52.24-12.75.77a82.17 82.17 0 0 1 -25.31-.89 101.15 101.15 0 0 1 -40.88-17.65 86.81 86.81 0 0 1 -16.1-15.19c-7.41-9.15-12.49-19.73-14-31.26l-7.39-48.87-6.92-45.77q30-5 61.25-8.55c35.9-4.16 72.76-7 110-8.41q16.06-.64 32.21-.92 29.19-.56 58.41 0c22.31.43 44.55 1.34 66.6 2.74 31.4 2 62.43 4.95 92.66 8.89q13.81 1.82 27.41 3.88 7.3 1.2 14.6 2.4z" fill="#7cc8fb"/><path d="m286.24 224.1-176.53 176.55a101.15 101.15 0 0 1 -40.85-17.65l159-159q29.14-.49 58.38.1z" fill="#b9e2f9"/><path d="m445.5 235.73-131.5 131.48a269.23 269.23 0 0 1 -17-21.46 74 74 0 0 1 -8.13-15.2 35.51 35.51 0 0 0 -20-19.76l83.95-84c31.42 2.04 62.45 5 92.68 8.94z" fill="#b9e2f9"/><path d="m256 292.21c-30.91 0-48.91 29.29-57 47.06a9.43 9.43 0 0 0 8.62 13.3h2.38c1.87-2.47 3.54-4.76 5-6.81a73.3 73.3 0 0 0 8.11-15.21 35.54 35.54 0 0 1 65.86 0 73.3 73.3 0 0 0 8.03 15.21c1.45 2.05 3.12 4.34 5 6.81h2.34a9.43 9.43 0 0 0 8.62-13.3c-8.05-17.77-26.05-47.06-56.96-47.06z" fill="#41c0e3"/><path d="m492 223.85-4.39 18.09c-149.28-24.06-313.9-24.06-463.18 0l-4.43-18.09a17.87 17.87 0 0 1 14.79-21.85c141.1-21.08 301.32-21.08 442.42 0a17.87 17.87 0 0 1 14.79 21.85z" fill="#3e436d"/></g></svg>