<svg id="Capa_1" enable-background="new 0 0 512 512" height="512" viewBox="0 0 512 512" width="512" xmlns="http://www.w3.org/2000/svg"><circle cx="256" cy="256" fill="#65b2fe" r="256"/><path d="m512 256c0 87.11-43.52 164.07-110 210.31-41.41 28.8-91.73 45.69-146 45.69s-104.59-16.89-146-45.69c-66.48-46.24-110-123.2-110-210.31 0-46.22 12.25-89.57 33.68-127 44.12 77.07 127.16 129 222.32 129s178.21-51.93 222.32-129c21.43 37.43 33.68 80.78 33.68 127z" fill="#0e9ce7"/><path d="m452 316c0 105.34-83.12 191.28-187.34 195.81-.31.02-.62.03-.93.04-.87.03-1.74.06-2.6.08-1.73.05-3.44.07-5.13.07-108.24 0-196-87.76-196-196s87.76-196 196-196h.28c108.11.15 195.72 87.85 195.72 196z" fill="#ffe853"/><path d="m452 316c0 105.34-83.12 191.28-187.34 195.81-.31.02-.62.03-.93.04-.87.03-1.74.06-2.6.08-1.73.05-3.44.07-5.13.07-58.54-45.3-103.35-116.25-103.35-196s44.81-150.7 103.35-196h.28c108.11.15 195.72 87.85 195.72 196z" fill="#fed110"/><path d="m452 316c0 108.244-87.756 196-196 196v-392c108.244 0 196 87.756 196 196z" fill="#ff9f01"/><circle cx="187.667" cy="294.167" fill="#fff" r="46.095"/><g fill="#29334c"><circle cx="187.667" cy="294.167" r="25.616"/><path d="m284.035 320.536c1.387-25.862 21.923-47.141 47.723-49.409 30.245-2.659 55.841 20.412 57.193 49.859.037.71.057 1.436.062 2.146 0 .057.001.114.001.171.014 4.895-6.39 6.829-9.182 2.808-9.54-13.738-25.477-22.693-43.461-22.582-17.981.111-33.804 9.248-43.19 23.094-2.772 4.09-9.187 2.151-9.223-2.79-.008-1.093.018-2.192.077-3.297z"/><path d="m371.356 403.114c-13.412 22.003-32.864 39.907-56.06 51.403-1.65.825-3.325 1.612-5.012 2.36-16.508 7.385-34.742 11.572-53.928 11.801-.558.013-1.129.013-1.688.013-18.183 0-35.542-3.553-51.415-10.024-1.967-.787-3.921-1.637-5.837-2.525-24.68-11.407-45.376-29.971-59.435-53.027-7.245-11.902 1.332-27.154 15.265-27.154h14.922l22.129 22.13h124.846l.152-.114 29.248-22.015h11.56c13.934-.002 22.511 15.25 15.253 27.152z"/></g><path d="m137.971 243.117c16.242-20.451 46.793-29.91 73.514-21.32.021.007.042.013.063.02 2 .645 3.955-1.344 2.802-2.874-4.777-6.339-11.996-11.344-21.15-13.927-21.129-5.962-45.356 3.583-55.048 21.676-2.733 5.102-4.081 10.374-4.188 15.506-.037 1.847 2.76 2.489 4.007.919z" fill="#ed771b"/><path d="m375.68 243.117c-16.242-20.451-46.793-29.91-73.514-21.32-.021.007-.042.013-.063.02-2 .645-3.955-1.344-2.802-2.874 4.777-6.339 11.996-11.344 21.15-13.927 21.129-5.962 45.356 3.583 55.048 21.676 2.733 5.102 4.081 10.374 4.188 15.506.037 1.847-2.761 2.489-4.007.919z" fill="#c55835"/><path d="m315.297 397.975v35.085c0 8.476-1.789 16.534-5.012 23.817-9.149 20.683-29.857 35.123-53.928 35.123-16.267 0-31.012-6.598-41.67-17.27-4.644-4.644-8.54-10.075-11.433-16.064-3.743-7.753-5.837-16.432-5.837-25.606v-34.97h117.728z" fill="#ff1d56"/><path d="m315.297 397.975v35.085c0 8.476-1.789 16.534-5.012 23.817-9.149 20.683-29.857 35.123-53.928 35.123v-93.91h58.788z" fill="#dd1265"/><path d="m344.545 375.96v4.276c0 15.189-12.308 27.497-27.497 27.497h-121.382c-15.189 0-27.497-12.308-27.497-27.497v-4.276z" fill="#fff"/><path d="m344.545 375.96v4.276c0 15.189-12.308 27.497-27.497 27.497h-60.691v-31.773z" fill="#d1f6ff"/></svg>