<?xml version="1.0" encoding="UTF-8" standalone="no"?>
<svg
   xmlns:dc="http://purl.org/dc/elements/1.1/"
   xmlns:cc="http://creativecommons.org/ns#"
   xmlns:rdf="http://www.w3.org/1999/02/22-rdf-syntax-ns#"
   xmlns:svg="http://www.w3.org/2000/svg"
   xmlns="http://www.w3.org/2000/svg"
   xmlns:sodipodi="http://sodipodi.sourceforge.net/DTD/sodipodi-0.dtd"
   xmlns:inkscape="http://www.inkscape.org/namespaces/inkscape"
   id="Capa_1"
   enable-background="new 0 0 512 512"
   height="512"
   viewBox="0 0 512 512"
   width="512"
   version="1.1"
   sodipodi:docname="004-printer-a.svg"
   inkscape:version="0.92.5 (2060ec1f9f, 2020-04-08)">
  <metadata
     id="metadata85">
    <rdf:RDF>
      <cc:Work
         rdf:about="">
        <dc:format>image/svg+xml</dc:format>
        <dc:type
           rdf:resource="http://purl.org/dc/dcmitype/StillImage" />
        <dc:title></dc:title>
      </cc:Work>
    </rdf:RDF>
  </metadata>
  <defs
     id="defs83" />
  <sodipodi:namedview
     pagecolor="#ffffff"
     bordercolor="#666666"
     borderopacity="1"
     objecttolerance="10"
     gridtolerance="10"
     guidetolerance="10"
     inkscape:pageopacity="0"
     inkscape:pageshadow="2"
     inkscape:window-width="640"
     inkscape:window-height="480"
     id="namedview81"
     showgrid="false"
     inkscape:zoom="0.4609375"
     inkscape:cx="256"
     inkscape:cy="256"
     inkscape:window-x="0"
     inkscape:window-y="30"
     inkscape:window-maximized="0"
     inkscape:current-layer="Capa_1" />
  <g
     id="g24">
    <path
       style="fill:#636978"
       inkscape:connector-curvature="0"
       id="path22"
       d="M 409.082,358.414 H 102.918 C 83.91,358.414 68.5,343.005 68.5,323.996 V 199.439 c 0,-19.008 15.409,-34.418 34.418,-34.418 h 306.164 c 19.008,0 34.418,15.409 34.418,34.418 v 124.557 c 0,19.008 -15.409,34.418 -34.418,34.418 z" />
  </g>
  <g
     id="g28">
    <path
       style="fill:#414952"
       inkscape:connector-curvature="0"
       id="path26"
       d="M 409.082,165.021 H 256.12 v 193.393 h 152.962 c 19.009,0 34.418,-15.409 34.418,-34.417 V 199.439 c 0,-19.009 -15.409,-34.418 -34.418,-34.418 z" />
  </g>
  <g
     id="g32">
    <path
       style="fill:#414952"
       inkscape:connector-curvature="0"
       id="path30"
       d="m 135.783,312.151 h 240.434 v 46.262 H 135.783 Z" />
  </g>
  <g
     id="g36">
    <path
       style="fill:#23272b"
       inkscape:connector-curvature="0"
       id="path34"
       d="m 256.12,312.151 h 120.097 v 46.262 H 256.12 Z" />
  </g>
  <g
     id="g40">
    <path
       style="fill:#414952"
       inkscape:connector-curvature="0"
       id="path38"
       d="M 135.783,72.369 H 376.217 V 208.55 H 135.783 Z" />
  </g>
  <g
     id="g44">
    <path
       style="fill:#23272b"
       inkscape:connector-curvature="0"
       id="path42"
       d="M 256.12,72.369 H 376.217 V 208.55 H 256.12 Z" />
  </g>
  <g
     id="g48">
    <path
       style="fill:#555a66"
       inkscape:connector-curvature="0"
       id="path46"
       d="M 320.032,137.179 H 191.968 c -11.748,0 -21.272,-9.524 -21.272,-21.272 V 72.369 h 170.608 v 43.538 c 0,11.748 -9.524,21.272 -21.272,21.272 z" />
  </g>
  <g
     id="g52">
    <path
       style="fill:#333940"
       inkscape:connector-curvature="0"
       id="path50"
       d="m 256.12,72.369 v 64.81 h 63.911 c 11.748,0 21.272,-9.524 21.272,-21.272 V 72.369 Z" />
  </g>
  <g
     id="g56">
    <path
       style="fill:#555a66"
       inkscape:connector-curvature="0"
       id="path54"
       d="m 101.249,274.56 h 309.502 v 25.663 H 101.249 Z" />
  </g>
  <g
     id="g60">
    <path
       style="fill:#333940"
       inkscape:connector-curvature="0"
       id="path58"
       d="m 256.12,274.56 h 154.63 v 25.663 H 256.12 Z" />
  </g>
  <g
     id="g64">
    <circle
       style="fill:#64e1dc"
       id="circle62"
       r="14.952"
       cy="245.004"
       cx="116.201" />
  </g>
  <g
     id="g68">
    <circle
       style="fill:#64e1dc"
       id="circle66"
       r="14.952"
       cy="245.004"
       cx="155.744" />
  </g>
  <g
     id="g72">
    <path
       style="fill:#ffffff"
       inkscape:connector-curvature="0"
       id="path70"
       d="m 157.235,312.151 h 197.53 v 127.71 h -197.53 z" />
  </g>
  <g
     id="g76">
    <path
       style="fill:#e9edf5"
       inkscape:connector-curvature="0"
       id="path74"
       d="m 256.12,312.151 h 98.645 v 127.71 H 256.12 Z" />
  </g>
</svg>
