<svg id="Capa_1" enable-background="new 0 0 512 512" height="512" viewBox="0 0 512 512" width="512" xmlns="http://www.w3.org/2000/svg"><circle cx="256" cy="256" fill="#fd4fb9" r="256"/><path d="m512 256c0 87.11-43.52 164.07-110 210.31-41.41 28.8-91.73 45.69-146 45.69s-104.59-16.89-146-45.69c-66.48-46.24-110-123.2-110-210.31 0-46.22 12.25-89.57 33.68-127 44.12 77.07 127.16 129 222.32 129s178.21-51.93 222.32-129c21.43 37.43 33.68 80.78 33.68 127z" fill="#ea39ab"/><path d="m125.783 105.793 62.948 62.948-17.584 17.584-62.948-62.948c-4.847-4.847-4.858-12.708-.025-17.563l.021-.021c2.431-2.431 5.614-3.643 8.794-3.643 3.183.004 6.367 1.215 8.794 3.643z" fill="#fff"/><path d="m125.783 105.793 62.948 62.948-8.815 8.815-71.742-71.742.021-.021c2.431-2.431 5.614-3.643 8.794-3.643 3.183.004 6.367 1.215 8.794 3.643z" fill="#b3f4ff"/><path d="m475.01 388.61c-10.41 17.17-22.79 33.01-36.81 47.22-6.96 7.05-14.32 13.69-22.05 19.89-7.83 6.28-16.03 12.11-24.57 17.46l-199.66-199.67c-14.55-14.55-27.09-30.85-37.37-48.48s-18.3-36.57-23.81-56.4c-1.83-6.6.04-13.68 4.88-18.52l16.89-16.89c4.85-4.85 11.92-6.71 18.52-4.88 39.66 11 75.79 32.08 104.89 61.18z" fill="#4e689b"/><path d="m475.01 388.61c-10.41 17.17-22.79 33.01-36.81 47.22-6.96 7.05-14.32 13.69-22.05 19.89l-203.22-203.22c-14.55-14.55-28.03-29.91-40.15-45.7s-22.87-32-31.96-48.25c-3.02-5.4-3.4-10.24-.98-12.66l12.67-12.67c4.85-4.85 11.92-6.71 18.52-4.88 39.66 11 75.79 32.08 104.89 61.18z" fill="#374c81"/><path d="m475.01 388.61c-10.41 17.17-22.79 33.01-36.81 47.22l-294.15-294.15 8.46-8.46c4.85-4.85 11.92-6.71 18.52-4.88 39.66 11 75.79 32.08 104.89 61.18z" fill="#234177"/><path d="m275.92 189.515-83.998 83.998c-14.549-14.549-27.091-30.858-37.376-48.484-10.278-17.626-18.298-36.571-23.802-56.398-1.83-6.6.032-13.676 4.876-18.52l16.895-16.895c4.844-4.844 11.921-6.706 18.52-4.876 39.654 11.002 75.787 32.077 104.885 61.175z" fill="#374c81"/><path d="m275.92 189.515-62.987 62.987c-14.549-14.549-28.035-29.914-40.153-45.707-12.118-15.786-22.869-31.999-31.956-48.244-3.024-5.406-3.399-10.246-.979-12.666l12.67-12.67c4.844-4.844 11.921-6.706 18.52-4.876 39.654 11.003 75.787 32.078 104.885 61.176z" fill="#234177"/><path d="m275.92 189.515-42.022 42.022-89.853-89.853 8.469-8.469c4.844-4.844 11.921-6.706 18.52-4.876 39.655 11.003 75.788 32.078 104.886 61.176z" fill="#16325b"/><path d="m125.783 105.793 8.536 8.536-17.584 17.584-8.536-8.536c-4.847-4.847-4.858-12.708-.025-17.563l.021-.021c2.431-2.431 5.614-3.643 8.794-3.643 3.183.004 6.367 1.215 8.794 3.643z" fill="#234177"/><path d="m125.783 105.793 8.536 8.536-8.815 8.815-17.33-17.33.021-.021c2.431-2.431 5.614-3.643 8.794-3.643 3.183.004 6.367 1.215 8.794 3.643z" fill="#16325b"/></svg>