<svg id="Capa_1" enable-background="new 0 0 512 512" height="512" viewBox="0 0 512 512" width="512" xmlns="http://www.w3.org/2000/svg"><g><g><path d="m0 256c0 43.79 11 85.02 30.39 121.07l225.61 49.67 225.61-49.67c19.39-36.05 30.39-77.28 30.39-121.07 0-46.63-12.47-90.34-34.26-128-41.698 72.091-399.22 76.52-443.48 0-21.79 37.66-34.26 81.37-34.26 128z" fill="#eebf36"/><path d="m34.26 128c44.26 76.52 126.99 128 221.74 128s177.48-51.48 221.74-128c-.01-.02-.03-.05-.04-.07-44.27-76.48-126.98-127.93-221.7-127.93s-177.43 51.45-221.7 127.93c-.01.02-.03.05-.04.07z" fill="#f5dc6e"/><path d="m481.61 377.07c-37.15 69.08-105.1 119.15-185.47 131.8-13.08 2.06-26.48-14.847-40.14-14.847s-27.06 16.907-40.14 14.847c-80.37-12.65-148.32-62.72-185.47-131.8z" fill="#dd8051"/></g><circle cx="256" cy="256" fill="#616679" r="176.21"/><path d="m432.21 256c0 97.32-78.89 176.21-176.21 176.21v-352.42c97.32 0 176.21 78.89 176.21 176.21z" fill="#2d3041"/><path d="m296.14 492.66v16.21c-13.08 2.06-26.48 3.13-40.14 3.13s-27.06-1.07-40.14-3.13v-16.21c0-22.17 17.97-40.14 40.14-40.14 11.08 0 21.12 4.49 28.38 11.76 7.27 7.26 11.76 17.3 11.76 28.38z" fill="#bf2e70"/><path d="m296.14 492.66v16.21c-13.08 2.06-26.48 3.13-40.14 3.13v-59.48c11.08 0 21.12 4.49 28.38 11.76 7.27 7.26 11.76 17.3 11.76 28.38z" fill="#871155"/><circle cx="256" cy="256" fill="#c3f3ff" r="130.18"/><ellipse cx="270.787" cy="256" fill="#9feafd" rx="115.393" ry="129.339"/><path d="m386.18 256c0 71.9-58.28 130.18-130.18 130.18v-260.36c71.9 0 130.18 58.28 130.18 130.18z" fill="#70c5e8"/><path d="m349.7 445.93c0 7.36-2.98 14.03-7.81 18.85s-11.49 7.81-18.85 7.81h-134.08c-14.72 0-26.66-11.94-26.66-26.66 0-7.36 2.98-14.03 7.81-18.85s11.49-7.81 18.85-7.81h134.08c14.72 0 26.66 11.94 26.66 26.66z" fill="#8898e5"/><g><path d="m256.673 265.211-101.435-49.266 6.608-13.605 94.684 45.987 94.713-48 6.837 13.492z" fill="#464651"/><path d="m249.039 256.769h15.126v108.271h-15.126z" fill="#464651"/><g><circle cx="256.602" cy="256.769" fill="#8898e5" r="41.491"/><path d="m298.093 256.769c0 22.917-18.574 41.491-41.491 41.491v-82.982c22.917 0 41.491 18.573 41.491 41.491z" fill="#546bd9"/></g><g><circle cx="174.765" cy="215.278" fill="#e28787" r="26.663"/><path d="m201.428 215.278c0 14.727-11.936 26.663-26.663 26.663v-53.326c14.728-.001 26.663 11.935 26.663 26.663z" fill="#da504f"/></g><g><circle cx="337.235" cy="215.278" fill="#e28787" r="26.663"/><path d="m363.898 215.278c0 14.727-11.936 26.663-26.663 26.663v-53.326c14.727-.001 26.663 11.935 26.663 26.663z" fill="#da504f"/></g><g><circle cx="256.602" cy="346.722" fill="#e28787" r="26.663"/><path d="m283.265 346.722c0 14.727-11.936 26.663-26.663 26.663v-53.326c14.727 0 26.663 11.936 26.663 26.663z" fill="#da504f"/></g></g><path d="m349.7 445.93c0 7.36-2.98 14.03-7.81 18.85s-11.49 7.81-18.85 7.81h-67.04v-53.32h67.04c14.72 0 26.66 11.94 26.66 26.66z" fill="#546bd9"/></g></svg>