<svg id="Capa_1" enable-background="new 0 0 512.016 512.016" height="512" viewBox="0 0 512.016 512.016" width="512" xmlns="http://www.w3.org/2000/svg"><g><g><path d="m512.008 256c0 141.387-114.613 256-256 256s-256-114.613-256-256 114.613-256 256-256 256 114.613 256 256zm0 0" fill="#ffd89d"/><path d="m512.008 256c0 26.051-3.891 51.191-11.129 74.871-5.031 16.469-11.672 32.231-19.75 47.109-8.25 15.2-147.391 24.74-225.121 24.74s-216.871-9.54-225.109-24.74c-3.289-6.031-6.332-12.21-9.121-18.531-14-31.629-21.77-66.629-21.77-103.449 0-46.219 12.25-89.57 33.68-127 44.121 77.07 127.16 129 222.32 129s178.211-51.93 222.32-129c21.43 37.43 33.68 80.781 33.68 127zm0 0" fill="#ffa688"/><path d="m481.27 377.699c-7.16 13.223-15.434 25.742-24.723 37.43-8.437 10.633-17.719 20.57-27.719 29.723-45.539 41.699-106.211 67.148-172.82 67.148s-127.281-25.449-172.82-67.148c-10-9.153-19.282-19.09-27.719-29.723-9.289-11.688-17.563-24.207-24.723-37.43zm0 0" fill="#ff7472"/></g><g><path d="m46.217 275.583 209.791 236.433-49.17-285.602z" fill="#8bfff4"/><path d="m256.008 512.016 209.79-236.433-160.621-49.169z" fill="#2dceea"/><path d="m256.008 512.016 104.895-236.433-154.065-49.169z" fill="#5ab4fc"/><path d="m151.112 275.583 104.896 236.433v-285.602z" fill="#8defe9"/><path d="m46.217 275.583h209.791l-19.668-66.789-85.228-66.788z" fill="#cbeefe"/><path d="m360.903 142.006-85.227 66.788-19.668 66.789h209.79z" fill="#8bfff4"/><path d="m256.008 142.006-32.78 66.788 32.78 66.789 104.895-133.577z" fill="#8defe9"/><path d="m151.112 142.006 104.896 133.577v-133.577z" fill="#8bfff4"/></g><g fill="#fff"><path d="m238.225 69.264h-1.524c-6.754 0-12.226-5.477-12.226-12.227v-1.523h-8.715v1.523c0 6.75-5.477 12.227-12.227 12.227h-1.527v8.715h1.527c6.75 0 12.227 5.472 12.227 12.226v1.528h8.715v-1.528c0-6.754 5.472-12.226 12.226-12.226h1.524zm0 0"/><path d="m122.541 113.995h-1.524c-6.754 0-12.226-5.477-12.226-12.227v-1.523h-8.715v1.523c0 6.75-5.477 12.227-12.227 12.227h-1.527v8.715h1.527c6.75 0 12.227 5.472 12.227 12.226v1.528h8.715v-1.528c0-6.754 5.472-12.226 12.226-12.226h1.524zm0 0"/></g></g></svg>