<svg id="Capa_1" enable-background="new 0 0 512 512" height="512" viewBox="0 0 512 512" width="512" xmlns="http://www.w3.org/2000/svg"><g><g><g><g><g><g><g><circle cx="256" cy="256" fill="#ff6c52" r="256"/></g></g></g></g></g></g><path d="m512 256c0-28.617-4.696-56.137-13.359-81.833l-62.18-62.181-336.967 18.363-23.955 269.664 98.628 98.628c25.695 8.663 53.216 13.359 81.833 13.359 141.385 0 256-114.615 256-256z" fill="#f92814"/><g><g><path d="m90.539 193.435h330.922v30h-330.922z" fill="#fff"/></g><g><path d="m256.121 193.435h165.34v30h-165.34z" fill="#e8e4dc"/></g><g><path d="m90.539 288.565h330.922v30h-330.922z" fill="#fff"/></g><g><path d="m256.121 288.565h165.34v30h-165.34z" fill="#e8e4dc"/></g></g><g><path d="m436.461 400.013h-360.922v-288.026h360.922zm-330.922-30h300.922v-228.026h-300.922z" fill="#ffce00"/></g><g><path d="m436.461 111.987h-180.34v30h150.34v228.026h-150.34v30h180.34z" fill="#fdba12"/></g><g><path d="m143.661 244.298c-11.605 0-21.014-9.408-21.014-21.014v-28.402c0-11.605 9.408-21.013 21.014-21.013 11.605 0 21.014 9.408 21.014 21.013v28.402c0 11.606-9.408 21.014-21.014 21.014z" fill="#555a66"/></g><g><path d="m288.747 244.298c-11.605 0-21.014-9.408-21.014-21.014v-28.402c0-11.605 9.408-21.013 21.013-21.013 11.605 0 21.014 9.408 21.014 21.013v28.402c0 11.606-9.408 21.014-21.013 21.014z" fill="#333940"/></g><g><path d="m372.801 244.298c-11.605 0-21.014-9.408-21.014-21.014v-28.402c0-11.605 9.408-21.013 21.014-21.013 11.605 0 21.014 9.408 21.014 21.013v28.402c0 11.606-9.409 21.014-21.014 21.014z" fill="#333940"/></g><g><path d="m330.774 244.298c-11.605 0-21.013-9.408-21.013-21.014v-28.402c0-11.605 9.408-21.013 21.013-21.013 11.605 0 21.014 9.408 21.014 21.013v28.402c-.001 11.606-9.409 21.014-21.014 21.014z" fill="#555a66"/></g><g><path d="m288.747 338.78c-11.605 0-21.014-9.408-21.014-21.013v-28.402c0-11.605 9.408-21.013 21.013-21.013 11.605 0 21.014 9.408 21.014 21.013v28.402c0 11.605-9.408 21.013-21.013 21.013z" fill="#333940"/></g><g><path d="m372.801 338.78c-11.605 0-21.014-9.408-21.014-21.013v-28.402c0-11.605 9.408-21.013 21.014-21.013 11.605 0 21.014 9.408 21.014 21.013v28.402c0 11.605-9.409 21.013-21.014 21.013z" fill="#333940"/></g><g><path d="m330.774 338.78c-11.605 0-21.013-9.408-21.013-21.013v-28.402c0-11.605 9.408-21.013 21.013-21.013 11.605 0 21.014 9.408 21.014 21.013v28.402c-.001 11.605-9.409 21.013-21.014 21.013z" fill="#555a66"/></g><g><path d="m185.688 338.78c-11.605 0-21.014-9.408-21.014-21.013v-28.402c0-11.605 9.408-21.013 21.014-21.013 11.605 0 21.014 9.408 21.014 21.013v28.402c0 11.605-9.408 21.013-21.014 21.013z" fill="#707789"/></g><g><path d="m185.688 244.298c-11.605 0-21.014-9.408-21.014-21.014v-28.402c0-11.605 9.408-21.013 21.014-21.013 11.605 0 21.014 9.408 21.014 21.013v28.402c0 11.606-9.408 21.014-21.014 21.014z" fill="#555a66"/></g></g></svg>