<svg id="Capa_1" enable-background="new 0 0 512 512" height="512" viewBox="0 0 512 512" width="512" xmlns="http://www.w3.org/2000/svg"><circle cx="256" cy="256" fill="#65b2fe" r="256"/><path d="m512 256c0 87.11-43.52 164.07-110 210.31-41.41 28.8-91.73 45.69-146 45.69s-104.59-16.89-146-45.69c-66.48-46.24-110-123.2-110-210.31 0-46.22 12.25-89.57 33.68-127 44.12 77.07 127.16 129 222.32 129s178.21-51.93 222.32-129c21.43 37.43 33.68 80.78 33.68 127z" fill="#0e9ce7"/><path d="m452 316c0 105.34-83.12 191.28-187.34 195.81-.31.02-.62.03-.93.04-.87.03-1.74.06-2.6.08-1.73.05-3.44.07-5.13.07-108.24 0-196-87.76-196-196s87.76-196 196-196h.28c108.11.15 195.72 87.85 195.72 196z" fill="#ffe853"/><path d="m452 316c0 105.34-83.12 191.28-187.34 195.81-.31.02-.62.03-.93.04-.87.03-1.74.06-2.6.08-1.73.05-3.44.07-5.13.07-58.54-45.3-103.35-116.25-103.35-196s44.81-150.7 103.35-196h.28c108.11.15 195.72 87.85 195.72 196z" fill="#fed110"/><path d="m452 316c0 108.244-87.756 196-196 196v-392c108.244 0 196 87.756 196 196z" fill="#ff9f01"/><circle cx="187.667" cy="266.264" fill="#fff" r="46.095"/><circle cx="187.667" cy="266.264" fill="#29334c" r="25.616"/><circle cx="324.333" cy="266.264" fill="#fff" r="46.095"/><circle cx="324.333" cy="266.264" fill="#29334c" r="25.616"/><path d="m334.81 433.45h-157.62c-9.4 0-16.47-8.56-14.72-17.79 5.14-27.16 21.8-50.22 44.72-63.93 14.26-8.56 30.96-13.47 48.81-13.47s34.55 4.91 48.81 13.47c22.92 13.71 39.58 36.77 44.72 63.93 1.75 9.23-5.32 17.79-14.72 17.79z" fill="#313b5a"/><path d="m334.808 433.453h-78.808v-95.193c17.852 0 34.552 4.915 48.815 13.468 22.916 13.708 39.574 36.773 44.712 63.932 1.757 9.232-5.32 17.793-14.719 17.793z" fill="#29334c"/><path d="m309.26 433.45h-106.52c6.4-23.4 27.82-40.6 53.26-40.6s46.86 17.2 53.26 40.6z" fill="#ff1d56"/><path d="m309.26 433.45h-53.26v-40.6c25.44 0 46.86 17.2 53.26 40.6z" fill="#dd1265"/><g fill="#fff"><path d="m441.912 303.779c-2.549-4.165-8.016-14.556-11.161-20.599-.99-1.902-3.71-1.894-4.688.014-3.109 6.062-8.514 16.485-11.039 20.665-3.837 6.354-2.773 14.833 3.177 20.006 5.873 5.105 14.812 5.079 20.654-.061 5.918-5.208 6.932-13.694 3.057-20.025z"/><path d="m415.912 250.446c-2.549-4.165-8.016-14.556-11.161-20.599-.99-1.902-3.71-1.894-4.688.014-3.109 6.061-8.514 16.485-11.039 20.665-3.837 6.354-2.773 14.833 3.177 20.006 5.873 5.105 14.812 5.079 20.654-.061 5.918-5.209 6.932-13.694 3.057-20.025z"/></g></svg>