<svg id="Capa_1" enable-background="new 0 0 512 512" height="512" viewBox="0 0 512 512" width="512" xmlns="http://www.w3.org/2000/svg"><g><g><path d="m512 256c0 141.387-114.613 256-256 256s-256-114.613-256-256 114.613-256 256-256 256 114.613 256 256zm0 0" fill="#576ceb"/><path d="m512 256c0 26.051-3.891 51.191-11.129 74.871-5.031 16.469-11.672 32.231-19.75 47.109-8.25 15.2-147.391 35.422-225.121 35.422s-216.871-20.222-225.109-35.422c-3.289-6.031-6.332-12.21-9.121-18.531-14-31.629-21.77-66.629-21.77-103.449 0-46.219 12.25-89.57 33.68-127 44.121 77.07 127.16 129 222.32 129s178.211-51.93 222.32-129c21.43 37.43 33.68 80.781 33.68 127zm0 0" fill="#6c3beb"/><path d="m481.262 377.699c-7.16 13.223-15.434 25.742-24.723 37.43-8.437 10.633-17.719 20.57-27.719 29.723-45.539 41.699-106.211 67.148-172.82 67.148s-127.281-25.449-172.82-67.148c-10-9.153-19.282-19.09-27.719-29.723-9.289-11.688-17.563-24.207-24.723-37.43zm0 0" fill="#4d34b0"/></g><g><path d="m256 82.969-107.258 214.515 107.258 214.516 90.499-124.017 124.017-90.499c-.001-118.474-96.043-214.515-214.516-214.515z" fill="#8bfff4"/><path d="m41.484 297.484c0 118.474 96.042 214.516 214.516 214.516v-429.031c-118.474 0-214.516 96.041-214.516 214.515z" fill="#cbeefe"/><path d="m256 133.246-82.12 164.238 82.12 164.239c13.918 0 27.429-1.738 40.335-4.997l118.906-118.906c3.259-12.906 4.997-26.417 4.997-40.335 0-90.707-73.532-164.239-164.238-164.239z" fill="#6c3beb"/><path d="m91.761 297.484c0 90.707 73.532 164.238 164.239 164.238v-328.476c-90.707 0-164.239 73.532-164.239 164.238z" fill="#576ceb"/><path d="m91.761 297.484c0 90.707 73.532 164.238 164.239 164.238-109.492 0-109.492-328.477 0-328.477-90.707.001-164.239 73.533-164.239 164.239z" fill="#7686eb"/><path d="m256 512 214.516-214.516c-118.475 0-214.516 96.042-214.516 214.516z" fill="#5ab4fc"/></g></g></svg>