<svg height="512" viewBox="0 0 512 512" width="512" xmlns="http://www.w3.org/2000/svg"><g id="BULINE"><circle cx="256" cy="256" fill="#3586cb" r="256"/></g><g id="Icons"><circle cx="256" cy="256" fill="#41c0e3" r="228.96"/><circle cx="256" cy="256" fill="#9dd8f9" r="195.8"/><path d="m195.91 442.41a227.62 227.62 0 0 0 96.52 39.65 230.2 230.2 0 0 1 -36.43 2.94c-126.45 0-229-102.55-229-229s102.55-229 229-229a230.2 230.2 0 0 1 36.43 2.89 229 229 0 0 0 -96.52 412.48z" fill="#3ab1cc"/><path d="m195.91 442.41a195.88 195.88 0 0 1 0-372.81 229 229 0 0 0 0 372.81z" fill="#8ac4dd"/><path d="m440.21 101.39a38.24 38.24 0 0 0 -11.85-11.07 45.67 45.67 0 0 1 -18.66-22.32 40.58 40.58 0 0 0 -5.27-9.22 40 40 0 0 0 -64.64 47.1c.75 1.08-1.46 4.87-3.26 6.12a27.84 27.84 0 0 0 1.87 46.89 39.71 39.71 0 0 1 17 20.68 38.53 38.53 0 0 0 55.38 19.92c.63-.36 1.24-.74 1.84-1.14a47.67 47.67 0 0 1 24.47-7.75 27.84 27.84 0 0 0 23.49-41 28.81 28.81 0 0 0 -3.66-5.26 41.73 41.73 0 0 1 -9.92-24.22 38.18 38.18 0 0 0 -6.79-18.73z" fill="#b0d46c"/><path d="m424.15 109.33a26.94 26.94 0 0 0 -8.32-7.77 32.1 32.1 0 0 1 -13.11-15.68 27.88 27.88 0 0 0 -3.72-6.48 28.09 28.09 0 0 0 -45.38 33.08c.52.75-1 3.42-2.29 4.29a19.55 19.55 0 0 0 1.31 32.93 27.83 27.83 0 0 1 11.92 14.51 26.76 26.76 0 0 0 4.11 7.32 27.12 27.12 0 0 0 34.77 6.67c.44-.25.87-.52 1.29-.8a33.47 33.47 0 0 1 17.2-5.4 19.54 19.54 0 0 0 16.5-28.76 20.12 20.12 0 0 0 -2.57-3.7 29.22 29.22 0 0 1 -7-17 26.87 26.87 0 0 0 -4.71-13.21z" fill="#cce595"/><g fill="#9ab758"><circle cx="376.24" cy="85.59" r="21"/><circle cx="358.64" cy="139.92" r="10.5"/><circle cx="442.37" cy="161.4" r="10.5"/><circle cx="413.56" cy="119.99" r="15"/><circle cx="403.16" cy="168.95" r="19.25"/></g><path d="m185.49 288.25-17.23-.93a101.88 101.88 0 0 0 -11.44-31.32l8.29-.91a5 5 0 1 0 -1.09-9.94l-12.94 1.42q-3.2-4.83-7-9.62c-1.1-1.41-2.15-2.83-3.17-4.25l9.18.86h.47a5 5 0 0 0 .46-10l-16.85-1.56q-1.39-2.5-2.59-5a106.08 106.08 0 0 1 -6.58-17.29l16 3a5 5 0 1 0 1.84-9.82l-20-3.76a62.55 62.55 0 0 1 .36-19.93l16.8 4.66a4.82 4.82 0 0 0 1.34.19 5 5 0 0 0 1.34-9.82l-16.74-4.66a57.09 57.09 0 0 1 3.06-6.73 61.42 61.42 0 0 1 4.18-6.74l13 5.43a4.85 4.85 0 0 0 1.92.39 5 5 0 0 0 1.9-9.62l-10.42-4.3a19 19 0 0 0 .27-20.44 18.94 18.94 0 0 0 -5.45-5.73l4.76-12.61a5 5 0 1 0 -9.35-3.53l-4.81 12.81a18.82 18.82 0 0 0 -15.4 6.19c-2.16 2.4-4.36 5.08-6.53 8l-17-7.08a5 5 0 0 0 -3.84 9.23l15.25 6.35c-.32.56-.65 1.11-1 1.68a96.94 96.94 0 0 0 -7.33 16.43l-13.27-3.69a5 5 0 0 0 -2.68 9.63l13.21 3.76a97 97 0 0 0 -2.29 22.92l-9.37-1.76a5 5 0 1 0 -1.84 9.84l11.91 2.23a120.6 120.6 0 0 0 6 25.77l-8.8-.82a5 5 0 0 0 -.93 10l13.81 1.29c.72 1.66 1.47 3.33 2.28 5a139 139 0 0 0 10.33 17.93l-12.41 1.3a5 5 0 0 0 .54 10 5.07 5.07 0 0 0 .55 0l18.13-2c4.89 6.27 10.69 15 14.11 24.52l-12.17-.66a5 5 0 1 0 -.54 10l15.28.83c1.07 7.78 0 15.73-4.89 23.07l-14.21-5.92a5 5 0 0 0 -3.85 9.23l12.43 5.18a18.29 18.29 0 0 0 1.08 16.64 20 20 0 0 0 7 7l-6.39 15.34a5 5 0 1 0 9.23 3.84l6.92-16.6a19 19 0 0 0 14.35-6.71c1.27-1.5 2.44-3 3.57-4.58l15.8 6.59a5 5 0 0 0 3.85-9.23l-14.29-6a68.74 68.74 0 0 0 7.79-35.78l15.55.84h.28a5 5 0 0 0 .26-10z" fill="#3586cb"/><path d="m139.4 345.42a8.4 8.4 0 0 1 -4.09-1.06 8.49 8.49 0 0 1 -3.31-11.54c18-32.71-.61-64.93-9.45-77.27a137.74 137.74 0 0 1 -11.55-18.93c-18.1-36.28-15.64-65.52-10.4-83.66 5.79-20 16.17-31.35 16.6-31.82a8.5 8.5 0 0 1 12.5 11.53c-1.4 1.54-32.93 37.35-3.49 96.36a121.36 121.36 0 0 0 10.15 16.62 113.84 113.84 0 0 1 17.35 36.55c5.42 21 3.12 40.75-6.83 58.82a8.49 8.49 0 0 1 -7.48 4.4z" fill="#56a1d8"/><path d="m388.05 416.45a8.75 8.75 0 0 0 12.38-12.38l-5.4-5.4 3.61-3.61a49.06 49.06 0 0 0 6.27-7.72l6.12 6.13a8.75 8.75 0 0 0 12.38-12.38l-11.48-11.48a48.35 48.35 0 0 0 -.52-19.5l13-13a8.75 8.75 0 1 0 -12.41-12.35l-8.35 8.35a49.19 49.19 0 0 0 -5-5.93 48.16 48.16 0 0 0 -5.93-5l8.35-8.35a8.75 8.75 0 1 0 -12.38-12.37l-13 13a48.17 48.17 0 0 0 -19.5-.51l-11.48-11.48a8.75 8.75 0 0 0 -12.37 12.37l6.13 6.13a47.59 47.59 0 0 0 -7.73 6.27l-3.61 3.61-5.4-5.4a8.75 8.75 0 0 0 -12.37 12.37l5.4 5.4-10.61 10.61-5.4-5.4a8.75 8.75 0 0 0 -12.37 12.37l5.4 5.41-7.12 7.11a47.46 47.46 0 0 0 -3.31 3.67l-5.58-5.58a8.75 8.75 0 0 0 -12.37 12.38l9.33 9.33a48.15 48.15 0 0 0 -.84 25.15l-12.46 12.46a8.75 8.75 0 0 0 12.38 12.27l7.83-7.82a48.21 48.21 0 0 0 5 5.92 49.14 49.14 0 0 0 5.93 5l-7.8 7.9a8.75 8.75 0 0 0 12.38 12.38l12.45-12.46a48.25 48.25 0 0 0 25.15-.85l9.34 9.34a8.75 8.75 0 0 0 12.38-12.41l-5.58-5.58c1.26-1 2.49-2.14 3.67-3.32l7.11-7.11 5.4 5.4a8.75 8.75 0 0 0 12.38-12.38l-5.41-5.4 10.61-10.6z" fill="#fc4581"/><rect fill="#f978a7" height="130.92" rx="33.8" transform="matrix(.707 .707 -.707 .707 371.71 -129.07)" width="67.61" x="307.85" y="318.7"/><circle cx="360.55" cy="346.52" fill="#fc4581" r="9.75"/><circle cx="336.34" cy="384.53" fill="#fc4581" r="9.75"/><circle cx="371.62" cy="380.75" fill="#fc4581" r="6.63"/><circle cx="300.72" cy="401.94" fill="#fc4581" r="6.62"/><circle cx="334.94" cy="417.43" fill="#fc4581" r="6.62"/><path d="m323.63 209.16a50.83 50.83 0 0 0 -14.41-29.37 28.94 28.94 0 1 0 -56.29-10.88 51.15 51.15 0 0 0 -28.48 31.43 28.94 28.94 0 1 0 11.79 50.66 51 51 0 0 0 19.41 12.69 20.19 20.19 0 1 0 34.84 0 51.09 51.09 0 0 0 22.13-15.69 20.17 20.17 0 0 0 11-38.81z" fill="#f6c752"/><path d="m304.44 212.5a31.2 31.2 0 0 0 -8.84-18 17.75 17.75 0 1 0 -34.52-6.67 31.35 31.35 0 0 0 -17.46 19.27 17.75 17.75 0 1 0 7.23 31.08 31.2 31.2 0 0 0 11.9 7.79 12.38 12.38 0 1 0 21.37 0 31.33 31.33 0 0 0 13.56-9.66 12.37 12.37 0 0 0 6.76-23.8z" fill="#f6d372"/><circle cx="281.57" cy="186.72" fill="#e88032" r="7"/><circle cx="278.07" cy="221.38" fill="#e88032" r="7"/><circle cx="240.57" cy="224.8" fill="#e88032" r="10.42"/><path d="m203.33 427.43a10 10 0 0 1 -10-10 13.41 13.41 0 0 0 -13.39-13.43 10 10 0 0 1 0-20 33.44 33.44 0 0 1 33.39 33.4 10 10 0 0 1 -10 10.03z" fill="#e88032"/><path d="m436 378a10 10 0 0 1 0-20 13.4 13.4 0 0 0 13.39-13.39 10 10 0 0 1 20 0 33.43 33.43 0 0 1 -33.39 33.39z" fill="#fa3268"/><path d="m378.25 281.79a10 10 0 0 1 -7.07-2.93 33.44 33.44 0 0 1 0-47.23 10 10 0 1 1 14.14 14.14 13.4 13.4 0 0 0 0 19 10 10 0 0 1 -7.07 17.07z" fill="#934cf5"/><path d="m195.06 130.61a10 10 0 0 1 -10-10 33.44 33.44 0 0 1 33.4-33.4 10 10 0 0 1 0 20 13.41 13.41 0 0 0 -13.4 13.4 10 10 0 0 1 -10 10z" fill="#00b564"/><path d="m52.94 280.91a10 10 0 0 1 -10-10v-31.33a10 10 0 1 1 20 0v31.33a10 10 0 0 1 -10 10z" fill="#9ab758"/><path d="m304.24 66.91h-31.33a10 10 0 0 1 0-20h31.33a10 10 0 0 1 0 20z" fill="#e88032"/><path d="m240.57 326.91h-31.33a10 10 0 0 1 0-20h31.33a10 10 0 0 1 0 20z" fill="#f7bb38"/><circle cx="203.82" cy="168.95" fill="#db1b1b" r="13.6"/><circle cx="278.07" cy="321.29" fill="#db1b1b" r="13.6"/><circle cx="426.95" cy="229.58" fill="#db1b1b" r="13.6"/><circle cx="88.82" cy="306.91" fill="#db1b1b" r="13.6"/></g></svg>