<svg id="Capa_1" enable-background="new 0 0 512 512" height="512" viewBox="0 0 512 512" width="512" xmlns="http://www.w3.org/2000/svg"><g><g><path d="m512 256.123c0 141.387-115.804 240.95-257.191 240.95s-254.809-99.563-254.809-240.95 114.613-256 256-256 256 114.613 256 256zm0 0" fill="#ffeb78"/><path d="m512 256.123c0 26.051-3.891 51.191-11.129 74.871-5.031 16.469-11.672 32.231-19.75 47.109-8.25 15.2-18 29.461-29.051 42.61-.582.691-1.16 1.379-1.75 2.058-46.941 54.704-118.48 77.098-196.21 77.098s-145.489-22.394-192.419-77.098c-.589-.687-1.179-1.378-1.75-2.07-11.062-13.137-20.812-27.398-29.05-42.598-3.289-6.031-6.332-12.21-9.121-18.531-14-31.629-21.77-66.629-21.77-103.449 0-46.219 12.25-89.57 33.68-127 44.121 77.07 127.16 129 222.32 129s178.211-51.93 222.32-129c21.43 37.43 33.68 80.781 33.68 127zm0 0" fill="#f2d332"/><path d="m481.262 377.822c-7.16 13.223-15.434 25.742-24.723 37.43-8.437 10.633-17.719 20.57-27.719 29.723-45.539 41.699-106.703 58.389-173.312 58.389s-126.789-16.69-172.328-58.389c-10-9.153-19.282-19.09-27.719-29.723-9.289-11.688-17.563-24.207-24.723-37.43zm0 0" fill="#e79d25"/></g><g><path d="m256 192.741-84.727 297.955 220.627-17.603c16.269-10.211 31.314-22.19 44.85-35.686v-287.03h-138.387c-23.3 0-42.363 19.064-42.363 42.364z" fill="#bfebff"/><path d="m123.419 475.159 132.581 15.537v-297.955c0-23.3-19.064-42.363-42.363-42.363h-138.387v287.029c14.454 14.411 30.62 27.107 48.169 37.752z" fill="#dff5ff"/><path d="m75.25 437.407c14.454 14.412 30.62 27.107 48.169 37.752l43.603 5.11v-329.892h-91.772z" fill="#f7fdff"/><path d="m256 469.514h-42.363l42.363 42.363 114.849-26.918c24.47-12.305 46.7-28.408 65.901-47.553v-10.256h-138.387c-23.3.001-42.363 19.064-42.363 42.364z" fill="#7ed7ff"/><path d="m141.151 484.96 114.849 26.917v-42.363c0-23.3-19.064-42.363-42.363-42.363h-138.387v10.256c19.201 19.145 41.431 35.248 65.901 47.553z" fill="#bfebff"/><path d="m75.25 437.407c19.201 19.145 41.431 35.248 65.902 47.553l25.87 6.063v-63.872h-91.772z" fill="#d9f3ff"/><path d="m298.363 469.514c-23.3 0-42.363 19.063-42.363 42.363h10.856c48.163-2.01 92.882-17.321 130.588-42.363z" fill="#64b0fb"/><path d="m213.637 469.514h-99.08c37.705 25.042 82.425 40.353 130.588 42.363h10.855c0-23.299-19.064-42.363-42.363-42.363z" fill="#7ed7ff"/><path d="m167.022 496.225v-26.711h-52.466c16.278 10.811 33.859 19.814 52.466 26.711z" fill="#a3e3ff"/><path d="m112.318 192.741h106.614v192.047h-106.614z" fill="#6abb5e"/><path d="m112.318 192.741h52.849v192.047h-52.849z" fill="#9bdb50"/><g fill="#2d3e53"><path d="m293.068 235.457h106.614v21.182h-106.614z"/><path d="m293.068 192.741h106.614v21.182h-106.614z"/><path d="m293.068 278.173h106.614v21.182h-106.614z"/><path d="m293.068 320.89h106.614v21.182h-106.614z"/><path d="m293.068 363.606h106.614v21.182h-106.614z"/></g></g></g></svg>