<?xml version="1.0" encoding="iso-8859-1"?>
<!-- Generator: Adobe Illustrator 19.0.0, SVG Export Plug-In . SVG Version: 6.00 Build 0)  -->
<svg version="1.1" id="Capa_1" xmlns="http://www.w3.org/2000/svg" xmlns:xlink="http://www.w3.org/1999/xlink" x="0px" y="0px"
	 viewBox="0 0 512 512" style="enable-background:new 0 0 512 512;" xml:space="preserve">
<path style="fill:#00876C;" d="M48.266,405.614C17.902,363.53,0,311.859,0,256C0,114.615,114.615,0,256,0s256,114.615,256,256
	c0,55.859-17.902,107.53-48.266,149.614c-1.507-9.7-9.871-17.133-19.994-17.133H68.259
	C58.136,388.481,49.772,395.914,48.266,405.614z"/>
<path style="fill:#F8BB5E;" d="M464,405.25C417.533,469.893,341.688,512,256,512S94.467,469.893,48,405.25V110h416V405.25z"/>
<path style="fill:#DCA050;" d="M271.951,511.504C266.676,511.83,261.358,512,256,512c-85.688,0-161.533-42.107-208-106.75V110h32
	v295.25C123.544,465.827,192.886,506.613,271.951,511.504z M337,340H175c-2.761,0-5,2.239-5,5v20c0,2.761,2.239,5,5,5h162
	c2.761,0,5-2.239,5-5v-20C342,342.239,339.761,340,337,340z M371,290H141c-2.761,0-5,2.239-5,5v20c0,2.761,2.239,5,5,5h230
	c2.761,0,5-2.239,5-5v-20C376,292.239,373.761,290,371,290z"/>
<path style="fill:#FBC56D;" d="M464,160H98c-27.614,0-50-22.386-50-50l0,0c0-27.614,22.386-50,50-50h361c2.761,0,5,2.239,5,5V160z"
	/>
<path style="fill:#FFDF8E;" d="M464,140H98c-16.569,0-30-13.431-30-30l0,0c0-16.569,13.431-30,30-30h366V140z"/>
<path style="fill:#FFF2B4;" d="M464,140H120c-16.569,0-30-13.431-30-30l0,0c0-16.569,13.431-30,30-30h344V140z"/>
<path style="fill:#FFDF8E;" d="M464,92.5v10H115c-2.761,0-5-2.239-5-5s2.239-5,5-5H464z M110,122.5c0,2.761,2.239,5,5,5h349v-10H115
	C112.239,117.5,110,119.739,110,122.5z"/>
<path style="fill:#A82B2B;" d="M100,140v-20c0-16.569,13.431-30,30-30h20c16.569,0,30,13.431,30,30v20H100z"/>
<path style="fill:#EA4444;" d="M270,120v120l-55-30l-55,30V120c0-16.569-13.431-30-30-30h30h80C256.569,90,270,103.431,270,120z"/>
<path style="fill:#FFF5F5;" d="M459.414,441.656l-29.168,29.168c-0.781,0.781-2.047,0.781-2.829,0l-46.877-46.877l-23.126,23.126
	c-1.063,1.064-2.876,0.617-3.324-0.819l-35.406-113.656c-0.479-1.539,0.965-2.984,2.504-2.504L434.845,365.5
	c1.436,0.447,1.883,2.26,0.819,3.324l-23.127,23.126l46.877,46.877C460.195,439.608,460.195,440.875,459.414,441.656z"/>
<g>
</g>
<g>
</g>
<g>
</g>
<g>
</g>
<g>
</g>
<g>
</g>
<g>
</g>
<g>
</g>
<g>
</g>
<g>
</g>
<g>
</g>
<g>
</g>
<g>
</g>
<g>
</g>
<g>
</g>
</svg>
