<svg id="Capa_1" enable-background="new 0 0 512 512" height="512" viewBox="0 0 512 512" width="512" xmlns="http://www.w3.org/2000/svg"><g><g><path d="m256 328.95c-141.387 0-243.753-162.524-222.327-199.951 44.119-77.07 127.157-128.999 222.327-128.999s178.209 51.93 222.328 128.999c21.425 37.428-80.941 199.951-222.328 199.951z" fill="#df7cb3"/><path d="m512 256c0 26.051-3.891 51.191-11.129 74.871-5.031 16.469-11.672 32.231-19.75 47.109-8.25 15.2-147.391 57.306-225.121 57.306s-216.871-42.106-225.109-57.306c-3.289-6.031-6.332-12.21-9.121-18.531-14-31.629-21.77-66.629-21.77-103.449 0-46.219 12.25-89.57 33.68-127 44.121 77.07 127.16 129 222.32 129s178.211-51.93 222.32-129c21.43 37.43 33.68 80.781 33.68 127zm0 0" fill="#d85e91"/><path d="m481.262 377.699c-7.16 13.223-15.434 25.742-24.723 37.43-8.437 10.633-17.719 20.57-27.719 29.723-31.245 28.611-69.615 49.571-112.138 59.911-19.453 4.73-137.516-1.693-170.895-17.642-22.968-10.974-44.045-25.271-62.607-42.268-10-9.153-19.282-19.09-27.719-29.723-9.289-11.688-17.563-24.207-24.723-37.43h450.524zm0 0" fill="#bb1961"/></g><g><path d="m317.23 460.39c0-50.168 12.234-103.302 37.396-162.428 7.69-18.07 11.588-37.253 11.588-57.009 0-80.589-64.987-146.799-146.953-146.953-4.206-.007-8.15.746-12.246 1.076-67.711 5.458-119.643 55.451-131.705 115.812-4.64 23.236-3.947 46.21 2.057 68.382l-30.367 50.826 49.801 35.483v71.312h48.984v50.226c33.381 15.947 70.753 24.883 110.215 24.883 21.107 0 41.609-2.573 61.23-7.389z" fill="#a4e2fd"/><path d="m118.704 210.888c-3.111 23.236-2.646 46.21 1.379 68.382l-29.41 51.978 42.441 34.331v71.312h32.845v58.808c13.201 4.961 26.919 8.86 41.053 11.6v-412.222c-45.4 5.459-80.22 55.452-88.308 115.811z" fill="#8ab8ec"/><path d="m317.23 460.39c0-50.168 12.234-103.302 37.396-162.428 7.69-18.07 11.588-37.253 11.588-57.009 0-80.589-64.987-146.799-146.953-146.953-4.206-.007-8.15.746-12.246 1.076v412.223c15.858 3.073 32.23 4.701 48.985 4.701 21.107 0 41.609-2.573 61.23-7.389z" fill="#728ee4"/><path d="m256 240.953h147.77v24.492h-147.77z" fill="#dce0ef"/><path d="m428.262 289.938c-20.259 0-36.738-16.48-36.738-36.738 0-20.259 16.48-36.738 36.738-36.738s36.738 16.479 36.738 36.737c0 20.259-16.48 36.739-36.738 36.739z" fill="#728ee4"/><path d="m402.287 342.51-28.08-28.08h-167.191v-24.492h177.332l35.255 35.255z" fill="#dce0ef"/><path d="m428.262 387.906c-20.259 0-36.738-16.48-36.738-36.738s16.48-36.738 36.738-36.738 36.738 16.479 36.738 36.738-16.48 36.738-36.738 36.738z" fill="#728ee4"/><path d="m384.348 216.461h-177.332v-24.492h167.191l28.08-28.08 17.316 17.317z" fill="#dce0ef"/><path d="m428.262 191.969c-20.259 0-36.738-16.48-36.738-36.738s16.48-36.738 36.738-36.738 36.738 16.479 36.738 36.737-16.48 36.739-36.738 36.739z" fill="#728ee4"/><ellipse cx="207.016" cy="253.199" fill="#fbf5eb" rx="61.23" ry="61.23" transform="matrix(.707 -.707 .707 .707 -118.405 220.543)"/><path d="m268.246 253.199c0-33.76-27.47-61.23-61.23-61.23v122.461c33.76 0 61.23-27.47 61.23-61.231z" fill="#dce0ef"/><ellipse cx="207.016" cy="253.199" fill="#8ab8ec" rx="36.738" ry="36.738" transform="matrix(.23 -.973 .973 .23 -86.973 396.504)"/><path d="m243.754 253.199c0-20.258-16.48-36.738-36.738-36.738v73.477c20.257 0 36.738-16.481 36.738-36.739z" fill="#728ee4"/><path d="m207.016 240.953h-12.246v24.492h12.246 12.246v-24.492z" fill="#fbf5eb"/><path d="m207.016 240.953h12.246v24.492h-12.246z" fill="#dce0ef"/></g></g></svg>