<svg id="Layer_1" enable-background="new 0 0 511.058 511.058" height="512" viewBox="0 0 511.058 511.058" width="512" xmlns="http://www.w3.org/2000/svg"><g><g><path d="m511.058 255.529c0 47.628-13.08 92.202-35.844 130.324-44.432 74.407-126.822 108.119-219.784 108.119-140.591 0-242.355-99.984-242.355-240.575 0-79.082 24.92-147.61 81.496-194.301 44.003-36.315 100.417-58.13 161.925-58.13 140.59.001 254.562 113.972 254.562 254.563z" fill="#f8e000"/></g><path d="m464.131 374.035c-5.556 2.544-11.878-1.577-11.878-7.688v-163.445-85.769c.05-.016.1-.032.15-.048 7.382-2.385 9.922-11.547 5.162-17.672-3.129-4.027-6.376-7.957-9.737-11.785-2.18-2.483-5.317-3.92-8.622-3.92h-28.773-.58-18.154c-9.071 0-16.91 6.878-17.513 15.93-.544 8.169 4.652 15.212 11.951 17.495v85.769 191.396c0 .147-4.763.523-11.099.933-16.701 1.081-30.841-12.179-30.83-28.915.028-41.446.043-110.676.043-110.676v-138.507c7.299-2.283 12.496-9.326 11.951-17.495-.603-9.051-8.442-15.929-17.513-15.929h-34.126-2.374-18.492c-9.071 0-16.91 6.878-17.513 15.929-.545 8.169 4.652 15.212 11.951 17.495v138.507 21.805c0 44.176-51.711 68.132-85.401 39.558-.393-.334-.782-.664-1.167-.99-11.61-9.855-18.298-24.308-18.298-39.536v-159.412c6.948-2.173 11.99-8.659 11.99-16.323 0-9.445-7.657-17.102-17.102-17.102 0 0-26.105.014-43.17.04-7.411.011-12.74-7.128-10.62-14.229.049-.165.098-.329.148-.493 3.14-10.439-9.11-18.591-17.599-11.753-58.488 47.117-95.709 119.565-94.972 200.689 1.272 140.037 114.51 252.198 254.553 252.197 92.962-.001 174.275-49.837 218.705-124.245 4.215-7.059-3.238-15.411-10.708-11.977-.121.055-.242.111-.363.166z" fill="#ffc305"/><g><g><path d="m192.474 346.147-71.582-71.582-13.839 13.839v57.743z" fill="#fff"/></g><g><path d="m108.07 105.578h45.881v239.425h-45.881z" fill="#fff"/></g><path d="m95.22 345.003h17.245v-239.425h-24.631v202.045l-79.26 79.26c-18.317 18.317-5.344 49.636 20.56 49.636h44.766c-25.904 0-38.877-31.319-20.56-49.636z" fill="#faf58c"/><path d="m148.839 90.886h-38.207c-9.445 0-17.102 7.657-17.102 17.102 0 9.445 7.657 17.102 17.102 17.102h38.207c9.445 0 17.102-7.657 17.102-17.102 0-9.446-7.657-17.102-17.102-17.102z" fill="#fff"/><path d="m95.029 107.987c0-9.445 7.657-17.102 17.102-17.102h-19.185c-9.445 0-17.102 7.657-17.102 17.102 0 9.445 7.657 17.102 17.102 17.102h19.185c-9.445 0-17.102-7.657-17.102-17.102z" fill="#faf58c"/><g><path d="m235.126 425.93c8.734-10.777 9.637-27.495-1.916-39.047l-46.61-46.61h-115.381v85.657z" fill="#6ee1ff"/></g><path d="m105.958 419.326c-25.904 0-38.877-31.319-20.56-49.636l29.417-29.417h-59.631l-46.61 46.61c-18.317 18.317-5.344 49.636 20.56 49.636h183.516c12.624 0 22.162-7.446 26.519-17.193z" fill="#05cdff"/><g fill="#6ee1ff"><circle cx="143.417" cy="348.679" r="22.524"/><circle cx="117.418" cy="287.373" r="12.808"/><circle cx="129.95" cy="210.333" r="9.057"/></g></g><g><g><g><path d="m281.989 105.646c0 .045.007.09.007.135v327.318c3.119.976 6.437 1.502 9.878 1.502 18.258 0 33.058-14.801 33.058-33.058v-295.897z" fill="#fff"/></g><g><path d="m285.044 105.646h-26.228v295.897c0 15.914 11.249 29.19 26.228 32.338z" fill="#6ee1ff"/></g><g><path d="m286.73 262.885v171.316c1.677.262 3.395.401 5.145.401 18.258 0 33.058-14.801 33.058-33.058v-138.659z" fill="#ff8500"/></g><path d="m291.875 399.312v-136.427h-33.058v138.658c0 18.258 14.801 33.058 33.058 33.058 6.835 0 13.186-2.075 18.457-5.629-10.933-5.392-18.457-16.645-18.457-29.66z" fill="#fa690f"/><path d="m319.822 90.953h-36.95c-9.445 0-17.102 7.657-17.102 17.102 0 9.445 7.657 17.102 17.102 17.102h36.95c9.445 0 17.102-7.657 17.102-17.102-.001-9.445-7.657-17.102-17.102-17.102z" fill="#fff"/><path d="m268.143 108.055c0-9.445 7.657-17.102 17.102-17.102h-21.317c-9.445 0-17.102 7.657-17.102 17.102 0 9.445 7.657 17.102 17.102 17.102h21.317c-9.445 0-17.102-7.657-17.102-17.102z" fill="#6ee1ff"/></g><g><g><path d="m388.228 105.646c.045.494.081.99.081 1.487v325.382c3.601 1.346 7.498 2.086 11.568 2.086 18.258 0 33.058-14.801 33.058-33.058v-295.897z" fill="#fff"/></g><g><path d="m392.032 105.646h-25.213v295.897c0 15.554 10.744 28.591 25.213 32.114z" fill="#6ee1ff"/></g><g><path d="m397.098 210.147v224.329c.917.076 1.842.125 2.779.125 18.258 0 33.058-14.801 33.058-33.058v-191.396z" fill="#20b7a1"/></g><path d="m399.877 398.47v-188.323h-33.058v191.396c0 18.258 14.801 33.058 33.058 33.058 7.148 0 13.761-2.276 19.168-6.133-11.316-5.248-19.168-16.703-19.168-29.998z" fill="#269ab1"/><path d="m427.824 90.953h-37.288c-9.445 0-17.102 7.657-17.102 17.102 0 9.445 7.657 17.102 17.102 17.102h37.288c9.445 0 17.102-7.657 17.102-17.102-.001-9.445-7.657-17.102-17.102-17.102z" fill="#fff"/><path d="m374.014 108.055c0-9.445 7.657-17.102 17.102-17.102h-19.186c-9.445 0-17.102 7.657-17.102 17.102 0 9.445 7.657 17.102 17.102 17.102h19.185c-9.445 0-17.101-7.657-17.101-17.102z" fill="#6ee1ff"/></g></g></g></svg>