<svg height="512pt" viewBox="0 -26 512.002 512" width="512pt" xmlns="http://www.w3.org/2000/svg"><path d="m161.085938 453.125h-133.433594v-53.859375c0-17.355469 14.070312-31.425781 31.421875-31.425781h70.589843c17.355469 0 31.421876 14.070312 31.421876 31.425781zm0 0" fill="#9e9797"/><path d="m148.332031 339.589844c6.21875-10.050782 9.710938-21.964844 9.433594-34.714844-.730469-33.691406-28.1875-61.199219-61.878906-61.988281-35.714844-.835938-64.933594 27.867187-64.933594 63.394531 0 12.144531 3.417969 23.488281 9.339844 33.128906 3.730469 6.074219 10.328125 9.792969 17.453125 9.792969h73.246094c7.050781-.003906 13.632812-3.621094 17.339843-9.613281zm0 0" fill="#c47a4a"/><path d="m94.371094 375.507812c-20.375 0-36.894532-16.515624-36.894532-36.890624v-15.488282c0-17.011718 13.792969-30.800781 30.804688-30.800781h16.304688c14.730468 0 26.675781 11.941406 26.675781 26.671875v19.617188c0 20.375-16.515625 36.890624-36.890625 36.890624zm0 0" fill="#fdd1a7"/><path d="m109.945312 280.296875c-5.738281 43.453125-59.027343 35.148437-59.027343 35.148437v-35.148437zm0 0" fill="#c47a4a"/><path d="m322.714844 453.125h-133.429688v-53.859375c0-17.355469 14.066406-31.425781 31.421875-31.425781h70.585938c17.355469 0 31.421875 14.070312 31.421875 31.425781zm0 0" fill="#ff5a96"/><path d="m309.964844 339.589844c6.21875-10.050782 9.707031-21.964844 9.433594-34.714844-.734376-33.691406-28.191407-61.199219-61.882813-61.988281-35.714844-.835938-64.929687 27.867187-64.929687 63.394531 0 12.144531 3.417968 23.488281 9.339843 33.128906 3.726563 6.074219 10.324219 9.792969 17.449219 9.792969h73.246094c7.050781-.003906 13.632812-3.621094 17.34375-9.613281zm0 0" fill="#efe2dd"/><path d="m256 375.507812c-20.375 0-36.890625-16.515624-36.890625-36.890624v-15.488282c0-17.011718 13.789063-30.800781 30.800781-30.800781h16.304688c14.734375 0 26.675781 11.941406 26.675781 26.671875v19.617188c0 20.375-16.515625 36.890624-36.890625 36.890624zm0 0" fill="#fdd1a7"/><path d="m271.574219 280.296875c-5.738281 43.453125-59.027344 35.148437-59.027344 35.148437v-35.148437zm0 0" fill="#efe2dd"/><path d="m484.347656 453.125h-133.433594v-53.859375c0-17.355469 14.070313-31.425781 31.421876-31.425781h70.589843c17.351563 0 31.421875 14.070312 31.421875 31.425781zm0 0" fill="#9e9797"/><path d="m471.59375 339.589844c6.21875-10.050782 9.710938-21.964844 9.433594-34.714844-.730469-33.691406-28.191406-61.199219-61.878906-61.988281-35.714844-.835938-64.933594 27.867187-64.933594 63.394531 0 12.144531 3.417968 23.488281 9.339844 33.128906 3.730468 6.074219 10.324218 9.792969 17.449218 9.792969h73.246094c7.054688-.003906 13.632812-3.621094 17.34375-9.613281zm0 0" fill="#c47a4a"/><path d="m417.628906 375.507812c-20.375 0-36.890625-16.515624-36.890625-36.890624v-15.488282c0-17.011718 13.789063-30.800781 30.800781-30.800781h16.308594c14.730469 0 26.675782 11.941406 26.675782 26.671875v19.617188c0 20.375-16.519532 36.890624-36.894532 36.890624zm0 0" fill="#fdd1a7"/><path d="m433.207031 280.296875c-5.738281 43.453125-59.027343 35.148437-59.027343 35.148437v-35.148437zm0 0" fill="#c47a4a"/><path d="m316.421875 37.824219h178.234375c5.4375 0 9.84375 4.40625 9.84375 9.84375v105.078125c0 5.4375-4.40625 9.84375-9.84375 9.84375h-79.9375v34.390625c0 7.675781-9.28125 11.519531-14.707031 6.089843l-40.480469-40.480468h-43.109375c-5.4375 0-9.84375-4.40625-9.84375-9.84375v-105.078125c0-5.4375 4.410156-9.84375 9.84375-9.84375zm0 0" fill="#ffb54e"/><path d="m504.5 47.671875v105.074219c0 5.441406-4.410156 9.84375-9.839844 9.84375h-20.269531c5.4375 0 9.847656-4.402344 9.847656-9.84375v-105.074219c0-5.441406-4.410156-9.851563-9.847656-9.851563h20.269531c5.429688 0 9.839844 4.410157 9.839844 9.851563zm0 0" fill="#ff9a1b"/><path d="m195.578125 37.824219h-178.234375c-5.4375 0-9.84375 4.40625-9.84375 9.84375v105.078125c0 5.4375 4.40625 9.84375 9.84375 9.84375h79.9375v34.390625c0 7.675781 9.28125 11.519531 14.707031 6.089843l40.480469-40.480468h43.109375c5.4375 0 9.84375-4.40625 9.84375-9.84375v-105.078125c0-5.4375-4.410156-9.84375-9.84375-9.84375zm0 0" fill="#00c2f8"/><path d="m205.425781 47.671875v105.074219c0 5.441406-4.414062 9.84375-9.851562 9.84375h-20.96875c5.4375 0 9.839843-4.402344 9.839843-9.84375v-105.074219c0-5.441406-4.402343-9.851563-9.839843-9.851563h20.96875c5.4375 0 9.851562 4.410157 9.851562 9.851563zm0 0" fill="#00abef"/><path d="m372.683594 7.5h-233.367188c-5.4375 0-9.84375 4.40625-9.84375 9.84375v105.082031c0 5.433594 4.40625 9.84375 9.84375 9.84375h96.480469v34.386719c0 7.675781 9.277344 11.519531 14.707031 6.09375l40.480469-40.480469h81.699219c5.4375 0 9.84375-4.410156 9.84375-9.84375v-105.082031c0-5.4375-4.40625-9.84375-9.84375-9.84375zm0 0" fill="#84d267"/><path d="m382.527344 17.34375v105.082031c0 5.4375-4.410156 9.839844-9.847656 9.839844h-19.523438c5.4375 0 9.839844-4.402344 9.839844-9.839844v-105.082031c0-5.4375-4.402344-9.839844-9.839844-9.839844h19.523438c5.4375 0 9.847656 4.402344 9.847656 9.839844zm0 0" fill="#54c132"/><path d="m132.972656 360.492188c.753906-1.328126 1.445313-2.695313 2.0625-4.101563 8.054688-1.195313 15.363282-5.886719 19.675782-12.855469 7.203124-11.640625 10.851562-25.066406 10.550781-38.824218-.292969-13.59375-4.507813-26.757813-12.183594-38.070313-2.328125-3.425781-6.988281-4.320313-10.417969-1.992187-3.425781 2.324218-4.320312 6.988281-1.992187 10.417968 6.046875 8.910156 9.367187 19.273438 9.597656 29.96875.238281 10.855469-2.636719 21.4375-8.3125 30.605469-.84375 1.363281-1.941406 2.53125-3.207031 3.472656.003906-.164062.015625-.328125.015625-.496093v-19.617188c0-14.476562-9.175781-27.238281-22.433594-32.09375.429687-1.820312.796875-3.683594 1.050781-5.625.542969-4.105469-2.34375-7.875-6.453125-8.417969-4.105469-.539062-7.875 2.347657-8.417969 6.457031-1.753906 13.292969-8.753906 21.875-21.398437 26.230469-10.910156 3.757813-22.632813 3.144531-27.167969 2.703125-4.125-.394531-7.789062 2.621094-8.1875 6.742188-.3125 3.226562 1.472656 6.164062 4.234375 7.484375-.003906.21875-.011719.433593-.011719.648437v15.488282c0 .167968.011719.335937.011719.503906-1.292969-.972656-2.417969-2.195313-3.304687-3.636719-5.382813-8.765625-8.226563-18.863281-8.226563-29.203125 0-15.183594 5.980469-29.386719 16.84375-40 10.859375-10.605469 25.1875-16.265625 40.414063-15.894531 7.472656.171875 14.730468 1.839843 21.578125 4.949219 3.769531 1.714843 8.214843.046874 9.929687-3.722657 1.714844-3.773437.046875-8.21875-3.722656-9.933593-8.699219-3.953126-17.929688-6.066407-27.4375-6.289063-19.257812-.4375-37.472656 6.707031-51.242188 20.164063-13.777343 13.457031-21.363281 31.472656-21.363281 50.726562 0 13.117188 3.613281 25.929688 10.445313 37.054688 4.425781 7.203124 11.644531 11.894531 19.804687 13.070312.617188 1.402344 1.304688 2.765625 2.058594 4.089844-19.917969 1.6875-35.613281 18.425781-35.613281 38.769531v53.863281c0 4.140625 3.359375 7.5 7.5 7.5 4.144531 0 7.5-3.359375 7.5-7.5v-53.863281c0-13.191406 10.734375-23.921875 23.921875-23.921875h10.386719c7.109374 4.835938 15.683593 7.664062 24.910156 7.664062 9.269531 0 17.882812-2.859374 25.011718-7.738281.332032.042969.667969.074219 1.011719.074219h9.269531c13.191407 0 23.921876 10.730469 23.921876 23.921875v53.863281c0 4.140625 3.359374 7.5 7.5 7.5 4.140624 0 7.5-3.359375 7.5-7.5v-53.863281c0-20.347656-15.695313-37.085937-35.613282-38.773437zm-67.996094-21.875v-15.140626c6.230469-.273437 13.699219-1.222656 21.019532-3.746093 10.976562-3.78125 19.273437-10.199219 24.664062-18.90625 7.710938 2.574219 13.101563 9.863281 13.101563 18.175781v19.617188c0 16.207031-13.183594 29.390624-29.390625 29.390624-16.207032 0-29.394532-13.183593-29.394532-29.390624zm0 0"/><path d="m60.871094 406.511719c-4.140625 0-7.5 3.355469-7.5 7.5v39.113281c0 4.144531 3.359375 7.5 7.5 7.5 4.144531 0 7.5-3.355469 7.5-7.5v-39.113281c0-4.144531-3.355469-7.5-7.5-7.5zm0 0"/><path d="m127.867188 406.511719c-4.140626 0-7.5 3.355469-7.5 7.5v39.113281c0 4.144531 3.359374 7.5 7.5 7.5 4.144531 0 7.5-3.355469 7.5-7.5v-39.113281c0-4.144531-3.355469-7.5-7.5-7.5zm0 0"/><path d="m294.601562 360.492188c.757813-1.328126 1.445313-2.695313 2.0625-4.101563 8.054688-1.191406 15.363282-5.886719 19.675782-12.855469 7.203125-11.640625 10.855468-25.066406 10.554687-38.824218-.394531-18.234376-7.773437-35.445313-20.769531-48.46875-13-13.019532-30.199219-20.425782-48.429688-20.855469-19.269531-.449219-37.472656 6.710937-51.246093 20.167969-13.777344 13.457031-21.363281 31.472656-21.363281 50.726562 0 13.117188 3.613281 25.929688 10.449218 37.054688 4.421875 7.203124 11.640625 11.894531 19.804688 13.070312.613281 1.402344 1.300781 2.765625 2.054687 4.085938-19.914062 1.6875-35.609375 18.425781-35.609375 38.773437v53.863281c0 4.140625 3.355469 7.5 7.5 7.5 4.140625 0 7.5-3.359375 7.5-7.5v-53.863281c0-13.191406 10.730469-23.921875 23.921875-23.921875h10.386719c7.105469 4.835938 15.679688 7.664062 24.90625 7.664062 9.222656 0 17.800781-2.828124 24.90625-7.664062h10.386719c13.191406 0 23.921875 10.730469 23.921875 23.921875v53.863281c0 4.140625 3.359375 7.5 7.5 7.5 4.144531 0 7.5-3.359375 7.5-7.5v-53.863281c0-20.347656-15.695313-37.085937-35.613282-38.773437zm-86.285156-25.007813c-5.386718-8.765625-8.230468-18.863281-8.230468-29.203125 0-15.183594 5.984374-29.386719 16.84375-40 10.859374-10.605469 25.230468-16.25 40.414062-15.898438 14.355469.335938 27.90625 6.183594 38.164062 16.457032 10.261719 10.277344 16.082032 23.839844 16.390626 38.195312.234374 10.855469-2.636719 21.4375-8.3125 30.605469-.84375 1.363281-1.941407 2.53125-3.207032 3.472656.003906-.164062.015625-.328125.015625-.496093v-19.617188c0-14.472656-9.179687-27.238281-22.433593-32.09375.429687-1.820312.796874-3.683594 1.050781-5.625.542969-4.105469-2.347657-7.875-6.453125-8.417969-4.101563-.539062-7.875 2.347657-8.417969 6.457031-1.753906 13.292969-8.753906 21.875-21.398437 26.230469-10.910157 3.757813-22.632813 3.144531-27.167969 2.703125-4.128907-.394531-7.789063 2.621094-8.1875 6.742188-.3125 3.226562 1.472656 6.167968 4.234375 7.488281-.003906.214844-.015625.429687-.015625.648437v15.484376c0 .167968.011719.335937.015625.503906-1.292969-.972656-2.421875-2.195313-3.304688-3.636719zm18.292969 3.132813v-15.140626c6.226563-.273437 13.699219-1.222656 21.019531-3.746093 10.972656-3.78125 19.269532-10.199219 24.660156-18.90625 7.710938 2.574219 13.101563 9.867187 13.101563 18.175781v19.617188c0 16.207031-13.183594 29.390624-29.390625 29.390624s-29.390625-13.183593-29.390625-29.390624zm0 0"/><path d="m222.503906 406.511719c-4.144531 0-7.5 3.355469-7.5 7.5v39.113281c0 4.144531 3.355469 7.5 7.5 7.5 4.140625 0 7.5-3.355469 7.5-7.5v-39.113281c0-4.144531-3.359375-7.5-7.5-7.5zm0 0"/><path d="m289.5 406.511719c-4.144531 0-7.5 3.355469-7.5 7.5v39.113281c0 4.144531 3.355469 7.5 7.5 7.5 4.140625 0 7.5-3.355469 7.5-7.5v-39.113281c0-4.144531-3.359375-7.5-7.5-7.5zm0 0"/><path d="m456.234375 360.492188c.753906-1.328126 1.445313-2.695313 2.058594-4.101563 8.058593-1.191406 15.363281-5.886719 19.679687-12.855469 7.203125-11.640625 10.851563-25.066406 10.550782-38.824218-.394532-18.230469-7.769532-35.445313-20.769532-48.46875-13-13.019532-30.199218-20.425782-48.429687-20.851563-19.253907-.445313-37.472657 6.707031-51.246094 20.164063-13.777344 13.457031-21.363281 31.472656-21.363281 50.730468 0 13.113282 3.613281 25.925782 10.449218 37.050782 4.347657 7.082031 11.703126 11.847656 19.796876 13.054687.617187 1.40625 1.308593 2.777344 2.0625 4.105469-19.914063 1.6875-35.609376 18.425781-35.609376 38.769531v53.863281c0 4.140625 3.359376 7.5 7.5 7.5 4.140626 0 7.5-3.359375 7.5-7.5v-53.863281c0-13.191406 10.730469-23.921875 23.921876-23.921875h9.332031c.324219 0 .644531-.027344.957031-.066406 7.128906 4.875 15.738281 7.730468 25.003906 7.730468 9.226563 0 17.800782-2.828124 24.90625-7.664062h10.390625c13.191407 0 23.921875 10.730469 23.921875 23.921875v53.863281c0 4.140625 3.359375 7.5 7.5 7.5s7.5-3.359375 7.5-7.5v-53.863281c0-20.347656-15.695312-37.089844-35.613281-38.773437zm-86.289063-25.007813c-5.382812-8.765625-8.230468-18.863281-8.230468-29.203125 0-15.183594 5.984375-29.386719 16.847656-40 10.855469-10.605469 25.1875-16.257812 40.410156-15.898438 14.355469.335938 27.910156 6.183594 38.167969 16.457032 10.257813 10.277344 16.078125 23.839844 16.390625 38.195312.234375 10.855469-2.640625 21.4375-8.3125 30.605469-.84375 1.363281-1.945312 2.53125-3.210938 3.472656.003907-.164062.015626-.332031.015626-.496093v-19.617188c0-14.457031-9.183594-27.234375-22.433594-32.089844.429687-1.824218.796875-3.6875 1.054687-5.628906.539063-4.105469-2.347656-7.875-6.457031-8.417969-4.101562-.539062-7.871094 2.347657-8.414062 6.457031-1.757813 13.292969-8.757813 21.875-21.402344 26.230469-10.910156 3.757813-22.632813 3.144531-27.167969 2.703125-4.121094-.394531-7.789063 2.621094-8.1875 6.742188-.3125 3.226562 1.472656 6.164062 4.238281 7.484375-.003906.21875-.015625.433593-.015625.648437v15.488282c0 .167968.011719.335937.015625.503906-1.296875-.972656-2.421875-2.195313-3.308594-3.636719zm18.292969 3.132813v-15.140626c6.230469-.273437 13.699219-1.222656 21.019531-3.746093 10.976563-3.78125 19.273438-10.199219 24.664063-18.90625 7.707031 2.574219 13.101563 9.878906 13.101563 18.175781v19.617188c0 16.207031-13.1875 29.390624-29.394532 29.390624-16.207031 0-29.390625-13.183593-29.390625-29.390624zm0 0"/><path d="m384.132812 406.511719c-4.140624 0-7.5 3.355469-7.5 7.5v39.113281c0 4.144531 3.359376 7.5 7.5 7.5 4.140626 0 7.5-3.355469 7.5-7.5v-39.113281c0-4.144531-3.359374-7.5-7.5-7.5zm0 0"/><path d="m451.128906 406.511719c-4.140625 0-7.5 3.355469-7.5 7.5v39.113281c0 4.144531 3.359375 7.5 7.5 7.5s7.5-3.355469 7.5-7.5v-39.113281c0-4.144531-3.359375-7.5-7.5-7.5zm0 0"/><path d="m494.65625 30.324219h-104.628906v-12.980469c0-9.5625-7.78125-17.34375-17.34375-17.34375h-233.367188c-9.5625 0-17.34375 7.78125-17.34375 17.34375v12.980469h-104.628906c-9.5625 0-17.34375 7.78125-17.34375 17.34375v105.082031c0 9.5625 7.78125 17.34375 17.34375 17.34375h72.4375v26.886719c0 6.539062 3.90625 12.386719 9.949219 14.886719 2.007812.832031 4.105469 1.234374 6.183593 1.234374 4.1875 0 8.289063-1.636718 11.378907-4.726562l38.285156-38.285156h40c9.5625 0 17.34375-7.777344 17.34375-17.34375v-12.980469h15.375v26.890625c0 6.542969 3.90625 12.382812 9.949219 14.886719 2.003906.832031 4.101562 1.238281 6.183594 1.238281 4.1875 0 8.289062-1.640625 11.378906-4.730469l38.28125-38.285156h4.992187v12.980469c0 9.5625 7.78125 17.34375 17.34375 17.34375h40l38.28125 38.285156c3.089844 3.089844 7.195313 4.726562 11.378907 4.726562 2.082031 0 4.179687-.402343 6.1875-1.234374 6.042968-2.5 9.949218-8.347657 9.949218-14.886719v-26.886719h72.4375c9.5625 0 17.34375-7.78125 17.34375-17.34375v-105.082031c-.003906-9.5625-7.785156-17.34375-17.347656-17.34375zm2.34375 122.421875c0 1.292968-1.050781 2.34375-2.34375 2.34375h-79.9375c-4.140625 0-7.5 3.359375-7.5 7.5v34.386718c0 .226563 0 .746094-.6875 1.03125-.691406.285157-1.058594-.082031-1.21875-.242187l-40.480469-40.476563c-1.40625-1.40625-3.3125-2.199218-5.300781-2.199218h-43.109375c-1.289063 0-2.34375-1.050782-2.34375-2.34375v-12.980469h58.605469c9.5625 0 17.34375-7.777344 17.34375-17.34375v-32.847656c0-4.140625-3.359375-7.5-7.5-7.5s-7.5 3.359375-7.5 7.5v32.847656c0 1.292969-1.050782 2.34375-2.34375 2.34375h-81.699219c-1.988281 0-3.898437.792969-5.304687 2.199219l-40.480469 40.480468c-.15625.15625-.527344.523438-1.214844.242188-.6875-.289062-.6875-.808594-.6875-1.03125v-34.390625c0-4.140625-3.359375-7.5-7.5-7.5h-45.535156c-4.140625 0-7.5 3.359375-7.5 7.5 0 4.144531 3.359375 7.5 7.5 7.5h7.660156v12.980469c0 1.292968-1.050781 2.34375-2.34375 2.34375h-43.109375c-1.988281 0-3.894531.792968-5.300781 2.199218l-40.480469 40.476563c-.15625.160156-.527344.527344-1.214844.242187-.6875-.285156-.6875-.804687-.6875-1.03125v-34.386718c0-4.140625-3.359375-7.5-7.503906-7.5h-79.9375c-1.292969 0-2.34375-1.050782-2.34375-2.34375v-105.078125c0-1.292969 1.050781-2.34375 2.34375-2.34375h104.628906v77.101562c0 9.5625 7.78125 17.34375 17.34375 17.34375h16.421875c4.140625 0 7.5-3.359375 7.5-7.5 0-4.144531-3.359375-7.5-7.5-7.5h-16.421875c-1.292968 0-2.34375-1.050781-2.34375-2.34375v-105.082031c0-1.289062 1.050782-2.34375 2.34375-2.34375h233.367188c1.292968 0 2.34375 1.050781 2.34375 2.34375v37.710938c0 4.140624 3.355468 7.5 7.5 7.5 4.140625 0 7.5-3.359376 7.5-7.5v-9.730469h104.628906c1.289062 0 2.339844 1.050781 2.339844 2.34375v105.078125zm0 0"/><path d="m461.382812 107.714844h-49.378906c-4.144531 0-7.5 3.355468-7.5 7.5 0 4.140625 3.355469 7.5 7.5 7.5h49.378906c4.140626 0 7.5-3.359375 7.5-7.5 0-4.144532-3.359374-7.5-7.5-7.5zm0 0"/><path d="m461.382812 78.394531h-15.140624c-4.144532 0-7.5 3.355469-7.5 7.5 0 4.140625 3.355468 7.5 7.5 7.5h15.140624c4.140626 0 7.5-3.359375 7.5-7.5 0-4.144531-3.359374-7.5-7.5-7.5zm0 0"/><path d="m99.996094 107.714844h-49.378906c-4.140626 0-7.5 3.355468-7.5 7.5 0 4.140625 3.359374 7.5 7.5 7.5h49.378906c4.144531 0 7.5-3.359375 7.5-7.5 0-4.144532-3.355469-7.5-7.5-7.5zm0 0"/><path d="m50.617188 93.394531h15.144531c4.140625 0 7.5-3.359375 7.5-7.5 0-4.144531-3.359375-7.5-7.5-7.5h-15.144531c-4.140626 0-7.5 3.355469-7.5 7.5 0 4.140625 3.359374 7.5 7.5 7.5zm0 0"/><path d="m221.96875 77.390625h-49.375c-4.144531 0-7.5 3.359375-7.5 7.5s3.355469 7.5 7.5 7.5h49.375c4.144531 0 7.5-3.359375 7.5-7.5s-3.355469-7.5-7.5-7.5zm0 0"/><path d="m172.59375 63.070312h15.136719c4.144531 0 7.5-3.359374 7.5-7.5 0-4.140624-3.355469-7.5-7.5-7.5h-15.136719c-4.144531 0-7.5 3.359376-7.5 7.5 0 4.140626 3.355469 7.5 7.5 7.5zm0 0"/><path d="m339.410156 48.070312h-121.933594c-4.140624 0-7.5 3.359376-7.5 7.5 0 4.140626 3.359376 7.5 7.5 7.5h121.933594c4.140625 0 7.5-3.359374 7.5-7.5 0-4.140624-3.359375-7.5-7.5-7.5zm0 0"/><path d="m339.410156 77.390625h-87.695312c-4.144532 0-7.5 3.359375-7.5 7.5s3.355468 7.5 7.5 7.5h87.695312c4.140625 0 7.5-3.359375 7.5-7.5s-3.359375-7.5-7.5-7.5zm0 0"/></svg>