<svg id="Layer_1" enable-background="new 0 0 512 512" height="512" viewBox="0 0 512 512" width="512" xmlns="http://www.w3.org/2000/svg"><g><path d="m429.382 440.098c44.254-44.326 71.62-105.516 71.62-173.1 0-135.311-109.691-245.002-245.002-245.002-135.312 0-245.002 109.691-245.002 245.002 0 47.105 13.306 91.098 36.346 128.446z" fill="#ffdd40"/><path d="m81.742 83.239v36.973h314.726c17.564 0 31.853 14.289 31.853 31.853v258.713h3.218c18.585 0 33.791-15.206 33.791-33.791v-293.748z" fill="#73c3f9"/><path d="m161.682 85.022 1.267-1.783h-81.208v36.973h79.775c-.129-1.352-.665-2.632-1.545-3.684-11.589-13.865.46-29.894 1.526-31.257.065-.082.126-.165.185-.249z" fill="#4fabf7"/><path d="m431.539 0h-316.007c-18.585 0-33.79 15.206-33.79 33.791v22.246h383.588v-22.246c0-18.585-15.206-33.791-33.791-33.791z" fill="#2a428c"/><path d="m181.174 51.105c-2.466-4.59-.383-8.661 1.138-10.737.815-1.113 1.246-2.453 1.246-3.833v-16.968c0-1.395-.416-2.778-1.276-3.876-4.338-5.543-2.008-10.983-.198-13.77.385-.593.652-1.244.814-1.921h-67.366c-18.584 0-33.791 15.206-33.791 33.791v22.247h100.023c.435-1.627.239-3.391-.59-4.933z" fill="#1c2e7a"/><circle cx="123.325" cy="28.019" fill="#ff4155" r="10.893"/><circle cx="153.441" cy="28.019" fill="#ffdd40" r="10.893"/><circle cx="183.558" cy="28.019" fill="#38c674" r="10.893"/><path d="m192.513 54.236c0 17.088-13.853 30.941-30.941 30.941h303.758v-30.941z" fill="#e9efff"/><path d="m81.742 54.236v30.941h81.768c17.088 0 30.941-13.853 30.941-30.941z" fill="#1e9ef4"/><g><path d="m339.518 35.285h-109.297c-4.013 0-7.266-3.253-7.266-7.266s3.253-7.266 7.266-7.266h109.297c4.013 0 7.266 3.253 7.266 7.266s-3.253 7.266-7.266 7.266z" fill="#3c58a0"/></g><g><path d="m428.304 35.285h-9.471c-4.013 0-7.266-3.253-7.266-7.266s3.253-7.266 7.266-7.266h9.471c4.013 0 7.266 3.253 7.266 7.266s-3.253 7.266-7.266 7.266z" fill="#3c58a0"/></g><g><path d="m395.376 35.285h-9.471c-4.013 0-7.266-3.253-7.266-7.266s3.253-7.266 7.266-7.266h9.471c4.013 0 7.266 3.253 7.266 7.266s-3.253 7.266-7.266 7.266z" fill="#3c58a0"/></g><path d="m46.67 201.514v192.851c8.788 14.413 19.025 27.846 30.504 40.099l102.472 65.397c24.029 7.875 49.693 12.139 76.354 12.139 68.178 0 129.843-27.858 174.258-72.8v-237.686z" fill="#9bd8f9"/><path d="m126.638 203.259 1.24-1.745h-81.208v192.851c8.788 14.413 19.024 27.845 30.504 40.099l51.283 32.728c.973-4.918 3.243-8.773 5.038-11.197 1.071-1.447.612-3.477-.936-4.394-9.713-5.752-9.147-20.109-9.09-21.175.003-.051.004-.094.004-.145v-139.169c0-12.944 6.081-18.655 10.263-21.052 1.643-.942 2-3.105.763-4.538-7.947-9.203-.43-18.436 2.239-21.208.545-.566.857-1.316.857-2.102v-11.26c0-1.195-.713-2.267-1.8-2.76-16.815-7.628-10.389-22.471-9.409-24.508.071-.15.155-.288.252-.425z" fill="#73c3f9"/><path d="m396.467 118.275h-316.006c-18.585 0-33.791 15.206-33.791 33.791v22.247h383.588v-22.247c0-18.586-15.206-33.791-33.791-33.791z" fill="#2a428c"/><path d="m147.065 170.88c-4.346-5.807-.859-11.058.734-12.949.451-.536.688-1.219.688-1.919v-19.422c0-.722-.254-1.427-.732-1.967-5.022-5.673-2.928-11.138-1.038-14.09.446-.696.576-1.506.425-2.258h-66.68c-18.585 0-33.791 15.206-33.791 33.791v22.247h100.521c.673-1.056.629-2.423-.127-3.433z" fill="#1c2e7a"/><path d="m99.146 146.293c0 6.016-4.877 10.893-10.893 10.893s-10.893-4.877-10.893-10.893 4.877-10.893 10.893-10.893 10.893 4.877 10.893 10.893z" fill="#ff4155"/><path d="m129.263 146.293c0 6.016-4.877 10.893-10.893 10.893s-10.893-4.877-10.893-10.893 4.877-10.893 10.893-10.893c6.016.001 10.893 4.877 10.893 10.893z" fill="#ffdd40"/><path d="m159.38 146.293c0 6.016-4.877 10.893-10.893 10.893s-10.893-4.877-10.893-10.893 4.877-10.893 10.893-10.893c6.016.001 10.893 4.877 10.893 10.893z" fill="#38c674"/><path d="m157.442 172.51c0 17.088-13.853 30.941-30.941 30.941h303.757v-30.941z" fill="#e9efff"/><path d="m46.67 172.51v30.941h81.769c17.088 0 30.941-13.853 30.941-30.941z" fill="#4fabf7"/><path d="m391.302 268.46h-305.676c-5.891 0-10.71 4.819-10.71 10.71v152.853c7.482 8.206 15.521 15.894 24.046 23.021h303.051v-175.875c-.001-5.89-4.82-10.709-10.711-10.709z" fill="#e9efff"/><path d="m132.559 451.602c-9.713-5.752-9.147-20.109-9.09-21.175.003-.051.004-.094.004-.145v-139.17c0-12.944 6.081-18.655 10.263-21.052.66-.378 1.101-.956 1.326-1.601h-49.436c-5.89 0-10.71 4.819-10.71 10.71v152.853c7.483 8.206 15.521 15.894 24.046 23.021h34.987c.368-1.283-.159-2.712-1.39-3.441z" fill="#d3dcfb"/><g><path d="m203.963 423.097h-26.507v-32.66c0-7.32 5.934-13.254 13.254-13.254 7.32 0 13.254 5.934 13.254 13.254v32.66z" fill="#ff4155"/></g><g><path d="m256.977 423.097h-26.507v-20.231c0-7.32 5.934-13.254 13.253-13.254 7.32 0 13.254 5.934 13.254 13.254z" fill="#ffdd40"/></g><g><path d="m309.991 423.097h-26.507v-65.303c0-7.32 5.934-13.254 13.254-13.254 7.32 0 13.253 5.934 13.253 13.254z" fill="#73c3f9"/></g><g><path d="m363.006 423.097h-26.507v-90.16c0-7.32 5.934-13.254 13.254-13.254 7.32 0 13.254 5.934 13.254 13.254v90.16z" fill="#38c674"/></g><path d="m190.71 406.45c-7.32 0-13.253-5.934-13.253-13.254v29.901h26.507v-29.901c-.001 7.32-5.935 13.254-13.254 13.254z" fill="#e80054"/><path d="m243.724 406.45c-5.612 0-10.397-3.493-12.331-8.419-.588 1.499-.923 3.126-.923 4.835v20.231h26.507v-20.231c0-1.708-.335-3.335-.923-4.835-1.933 4.926-6.719 8.419-12.33 8.419z" fill="#ffb332"/><path d="m296.738 406.45c-7.32 0-13.253-5.934-13.253-13.253v29.9h26.507v-29.9c-.001 7.319-5.934 13.253-13.254 13.253z" fill="#4fabf7"/><path d="m349.752 406.45c-7.32 0-13.254-5.934-13.254-13.253v29.9h26.507v-29.9c.001 7.319-5.933 13.253-13.253 13.253z" fill="#24b55e"/><g><path d="m143.94 374.656h-40.935c-4.013 0-7.266-3.253-7.266-7.266s3.253-7.266 7.266-7.266h40.935c4.013 0 7.266 3.253 7.266 7.266s-3.253 7.266-7.266 7.266z" fill="#bec8f7"/></g><g><path d="m143.94 346.802h-40.935c-4.013 0-7.266-3.253-7.266-7.266 0-4.014 3.253-7.266 7.266-7.266h40.935c4.013 0 7.266 3.253 7.266 7.266s-3.253 7.266-7.266 7.266z" fill="#bec8f7"/></g><g><path d="m122.481 318.948h-19.476c-4.013 0-7.266-3.253-7.266-7.266s3.253-7.266 7.266-7.266h19.476c4.013 0 7.266 3.253 7.266 7.266s-3.253 7.266-7.266 7.266z" fill="#167cc1"/></g><g><path d="m143.94 402.51h-40.935c-4.013 0-7.266-3.253-7.266-7.266s3.253-7.266 7.266-7.266h40.935c4.013 0 7.266 3.253 7.266 7.266s-3.253 7.266-7.266 7.266z" fill="#bec8f7"/></g><g><path d="m143.94 430.364h-40.935c-4.013 0-7.266-3.253-7.266-7.266 0-4.014 3.253-7.266 7.266-7.266h40.935c4.013 0 7.266 3.253 7.266 7.266s-3.253 7.266-7.266 7.266z" fill="#bec8f7"/></g><g><path d="m243.73 375.577c-.549 0-1.107-.063-1.665-.194l-53.014-12.428c-3.907-.916-6.332-4.825-5.416-8.733s4.826-6.33 8.733-5.416l53.014 12.428c3.907.916 6.332 4.825 5.416 8.733-.785 3.35-3.771 5.61-7.068 5.61z" fill="#ffb332"/></g><g><path d="m243.727 375.575c-2.058 0-4.102-.868-5.539-2.559-2.599-3.058-2.228-7.644.829-10.243l53.014-45.071c3.056-2.6 7.643-2.229 10.242.829s2.228 7.644-.829 10.243l-53.014 45.071c-1.366 1.162-3.039 1.73-4.703 1.73z" fill="#73c3f9"/></g><g><path d="m296.743 330.506c-2.731 0-5.348-1.547-6.584-4.184-1.703-3.633-.14-7.96 3.494-9.664l53.014-24.857c3.635-1.702 7.96-.139 9.664 3.495 1.703 3.633.14 7.96-3.494 9.664l-53.014 24.857c-.997.467-2.047.689-3.08.689z" fill="#38c674"/></g><path d="m182.799 500.873h146.402c26.486-8.281 51.037-20.94 72.811-37.126v-10.641h-305.342c24.885 21.324 54.089 37.749 86.129 47.767z" fill="#ff4155"/><path d="m128.312 476.105c-1.491-9.213 2.412-16.367 5.183-20.11.648-.875.728-1.962.353-2.889h-37.178c9.893 8.477 20.478 16.165 31.642 22.999z" fill="#e80054"/><path d="m289.349 223.48h-88.446v25.466h88.446c7.033 0 12.733-5.701 12.733-12.733s-5.7-12.733-12.733-12.733z" fill="#e9efff"/><path d="m232.895 236.213c0-7.033 5.701-12.733 12.733-12.733h-44.725v25.466h44.725c-7.033 0-12.733-5.7-12.733-12.733z" fill="#d3dcfb"/><path d="m201.872 223.48h-14.292c-7.033 0-12.733 5.701-12.733 12.733 0 7.033 5.701 12.733 12.733 12.733h14.292z" fill="#3c58a0"/><g><path d="m137.594 243.479h-49.34c-4.013 0-7.266-3.253-7.266-7.266 0-4.014 3.253-7.266 7.266-7.266h49.34c4.013 0 7.266 3.253 7.266 7.266 0 4.014-3.253 7.266-7.266 7.266z" fill="#4fabf7"/></g><g><path d="m304.447 153.56h-109.297c-4.013 0-7.266-3.253-7.266-7.266s3.253-7.266 7.266-7.266h109.297c4.013 0 7.266 3.253 7.266 7.266.001 4.013-3.253 7.266-7.266 7.266z" fill="#3c58a0"/></g><g><path d="m393.233 153.56h-9.471c-4.013 0-7.266-3.253-7.266-7.266s3.253-7.266 7.266-7.266h9.471c4.013 0 7.266 3.253 7.266 7.266s-3.253 7.266-7.266 7.266z" fill="#3c58a0"/></g><g><path d="m360.305 153.56h-9.471c-4.013 0-7.266-3.253-7.266-7.266s3.253-7.266 7.266-7.266h9.471c4.013 0 7.266 3.253 7.266 7.266s-3.253 7.266-7.266 7.266z" fill="#3c58a0"/></g><g><path d="m370.638 430.364h-200.839c-4.013 0-7.266-3.253-7.266-7.266 0-4.014 3.253-7.266 7.266-7.266h200.839c4.013 0 7.266 3.253 7.266 7.266s-3.253 7.266-7.266 7.266z" fill="#d3dcfb"/></g><g><path d="m349.195 484.212h-121.25c-4.013 0-7.266-3.253-7.266-7.266s3.253-7.266 7.266-7.266h121.25c4.013 0 7.266 3.253 7.266 7.266 0 4.014-3.253 7.266-7.266 7.266z" fill="#ff7186"/></g><g><path d="m227.944 484.212h-79.599c-4.013 0-7.266-3.253-7.266-7.266s3.253-7.266 7.266-7.266h79.599c4.013 0 7.266 3.253 7.266 7.266 0 4.014-3.253 7.266-7.266 7.266z" fill="#e9efff"/></g><g><path d="m227.945 491.551c-4.013 0-7.266-3.253-7.266-7.266v-14.439c0-4.014 3.253-7.266 7.266-7.266s7.266 3.253 7.266 7.266v14.439c0 4.014-3.253 7.266-7.266 7.266z" fill="#e80054"/></g><g><path d="m190.71 442.829c-4.013 0-7.266-3.253-7.266-7.266v-8.59c0-4.013 3.253-7.266 7.266-7.266s7.266 3.253 7.266 7.266v8.59c0 4.013-3.253 7.266-7.266 7.266z" fill="#bec8f7"/></g><g><path d="m243.724 442.829c-4.013 0-7.266-3.253-7.266-7.266v-8.59c0-4.013 3.253-7.266 7.266-7.266s7.266 3.253 7.266 7.266v8.59c0 4.013-3.253 7.266-7.266 7.266z" fill="#bec8f7"/></g><g><path d="m296.738 442.829c-4.013 0-7.266-3.253-7.266-7.266v-8.59c0-4.013 3.253-7.266 7.266-7.266s7.266 3.253 7.266 7.266v8.59c0 4.013-3.253 7.266-7.266 7.266z" fill="#bec8f7"/></g><g><path d="m349.752 442.829c-4.013 0-7.266-3.253-7.266-7.266v-8.59c0-4.013 3.253-7.266 7.266-7.266s7.266 3.253 7.266 7.266v8.59c0 4.013-3.253 7.266-7.266 7.266z" fill="#bec8f7"/></g></g></svg>