<svg id="Capa_1" enable-background="new 0 0 512 512" height="512" viewBox="0 0 512 512" width="512" xmlns="http://www.w3.org/2000/svg"><path d="m512 256c0 49.95-14.31 96.56-39.04 135.95l-.02.02-80.94 80.95-.01.01c-39.4 24.75-86.02 39.07-135.99 39.07-141.38 0-256-114.62-256-256s114.62-256 256-256 256 114.62 256 256z" fill="#6c82ff"/><path d="m512 256c0 49.96-14.32 96.58-39.07 135.98l-80.94 80.95c-39.4 24.75-86.02 39.07-135.99 39.07-54.27 0-104.59-16.89-146-45.69-66.48-46.24-110-123.2-110-210.31 0-46.22 12.25-89.57 33.68-127 44.12 77.07 127.16 129 222.32 129s178.21-51.93 222.32-129c21.43 37.43 33.68 80.78 33.68 127z" fill="#4d6df4"/><path d="m472.96 391.95c-6.75 10.75-14.28 20.96-22.52 30.55-4.27 5-8.75 9.84-13.4 14.5s-9.49 9.14-14.49 13.41c-9.6 8.23-19.81 15.76-30.56 22.52l-212.64-212.64c-10.17-10.17-19.34-21.27-27.38-33.14-6.18-9.07-11.69-18.6-16.49-28.51l-46.82-96.57c-2.09-4.29-.87-8.7 1.94-11.51s7.21-4.02 11.51-1.94l96.57 46.83c9.9 4.8 19.43 10.31 28.5 16.48 11.87 8.05 22.97 17.21 33.14 27.38z" fill="#ffe400"/><path d="m472.96 391.95c-10.27 16.35-22.34 31.46-35.92 45.05l-346.44-346.44c2.81-2.81 7.21-4.02 11.51-1.94l96.57 46.83c9.9 4.8 19.43 10.31 28.5 16.48 11.87 8.05 22.97 17.21 33.14 27.38z" fill="#ffce00"/><path d="m450.44 422.5c-4.27 5-8.75 9.84-13.4 14.5s-9.49 9.14-14.49 13.41l-256.94-256.94 27.9-27.9z" fill="#ffce00"/><path d="m450.44 422.5c-4.27 5-8.75 9.84-13.4 14.5l-257.48-257.48 13.95-13.95z" fill="#ffb600"/><path d="m227.182 151.931c-.069 4.949-1.992 9.855-5.768 13.631-7.708 7.708-20.209 7.708-27.909.009 7.699 7.699 7.708 20.192 0 27.9s-20.201 7.699-27.9 0c7.699 7.699 7.699 20.201-.009 27.909-3.776 3.776-8.682 5.699-13.631 5.768-6.173-9.07-11.682-18.597-16.485-28.504l-19.132-39.462-27.693-57.11c-2.086-4.294-.871-8.699 1.94-11.51s7.216-4.026 11.51-1.94l57.11 27.693 39.462 19.132c9.908 4.801 19.435 10.311 28.505 16.484z" fill="#f79f63"/><path d="m227.182 151.931c-.069 4.949-1.992 9.855-5.768 13.631-7.708 7.708-20.209 7.708-27.909.009 7.699 7.699 7.708 20.192 0 27.9l-102.908-102.91c2.811-2.811 7.216-4.026 11.51-1.94l57.11 27.693 39.462 19.132c9.906 4.802 19.433 10.312 28.503 16.485z" fill="#f4873d"/><path d="m159.217 116.315-42.867 42.867-27.693-57.11c-2.086-4.294-.871-8.699 1.94-11.51s7.216-4.026 11.51-1.94z" fill="#374c81"/><path d="m159.217 116.315-21.434 21.434-47.186-47.188c2.811-2.811 7.216-4.026 11.51-1.94z" fill="#234177"/></svg>