<svg height="512" viewBox="0 0 512 512" width="512" xmlns="http://www.w3.org/2000/svg"><g id="BULINE"><circle cx="256" cy="256" fill="#b0d46c" r="256"/></g><g id="Icons"><path d="m354.89 398.77a15.57 15.57 0 1 0 31.13 0c0-6.41-8.65-19.51-13-25.77a3.08 3.08 0 0 0 -5 0c-4.48 6.26-13.13 19.36-13.13 25.77z" fill="#e88032"/><path d="m360 403.85a10.5 10.5 0 0 0 21 0c0-4.32-5.83-13.15-8.8-17.37a2.08 2.08 0 0 0 -3.39 0c-3.02 4.22-8.81 13.05-8.81 17.37z" fill="#f7bb38"/><path d="m327.61 403.69a10.65 10.65 0 0 0 21.3 0c0-4.38-5.92-13.34-8.93-17.62a2.1 2.1 0 0 0 -3.44 0c-3.01 4.28-8.93 13.24-8.93 17.62z" fill="#e88032"/><path d="m331.08 407.16a7.18 7.18 0 1 0 14.35 0c0-3-4-9-6-11.88a1.42 1.42 0 0 0 -2.32 0c-2.04 2.89-6.03 8.93-6.03 11.88z" fill="#f7bb38"/><path d="m392.6 403.69a10.65 10.65 0 1 0 21.3 0c0-4.38-5.92-13.34-8.93-17.62a2.1 2.1 0 0 0 -3.44 0c-3.01 4.28-8.93 13.24-8.93 17.62z" fill="#e88032"/><path d="m396.07 407.16a7.18 7.18 0 1 0 14.35 0c0-3-4-9-6-11.88a1.42 1.42 0 0 0 -2.32 0c-2.04 2.89-6.03 8.93-6.03 11.88z" fill="#f7bb38"/><path d="m393.55 188.31v-88.48h2.55a8.82 8.82 0 0 0 8.82-8.83v-10.18a8.82 8.82 0 0 0 -8.82-8.82h-54.05a8.82 8.82 0 0 0 -8.82 8.82v10.18a8.82 8.82 0 0 0 8.82 8.82h2.55v88.48a86.12 86.12 0 1 0 48.95 0z" fill="#c5eaff"/><path d="m362.08 188.31v-57.31a20.08 20.08 0 0 1 20.07-20.07h11.4v-11.1h-34a8.82 8.82 0 0 1 -8.83-8.83v-10.19a8.81 8.81 0 0 1 8.82-8.81h-17.49a8.82 8.82 0 0 0 -8.82 8.82v10.18a8.82 8.82 0 0 0 8.77 8.83h2.56v88.48a86.12 86.12 0 0 0 24.51 168.69 87.18 87.18 0 0 0 8.75-.44 86.13 86.13 0 0 1 -15.74-168.25z" fill="#a4e1fc"/><path d="m437.35 271.23a6.48 6.48 0 0 1 5.37 6.86 73.88 73.88 0 0 1 -147.41-1.78 6.42 6.42 0 0 1 3.59-6.08c8.37-4.15 29.89-13 53.71-9a110.57 110.57 0 0 0 40.82 5.12 86.58 86.58 0 0 1 21.33.94z" fill="#db1b1b"/><g fill="#e55151"><circle cx="407.25" cy="284" r="9.62"/><circle cx="367.07" cy="297.99" r="9.62"/><circle cx="332.54" cy="272.24" r="5.72"/><circle cx="335.56" cy="319.41" r="5.72"/><circle cx="393.55" cy="327.28" r="5.72"/></g><ellipse cx="410.59" cy="213.53" fill="#fff" rx="7.15" ry="11.61" transform="matrix(.716 -.698 .698 .716 -32.4 347.46)"/><ellipse cx="428.14" cy="231.51" fill="#fff" rx="5.79" ry="9.4" transform="matrix(.716 -.698 .698 .716 -39.97 364.84)"/><path d="m457.64 413.74a256 256 0 0 1 -403.28 0z" fill="#a65c3b"/><path d="m457.64 413.74a256.87 256.87 0 0 1 -37.36 38.6h-328.56a256.87 256.87 0 0 1 -37.36-38.6z" fill="#9e4830"/><path d="m180.43 20.57h24a0 0 0 0 1 0 0v254.33a7.17 7.17 0 0 1 -7.17 7.17h-9.67a7.17 7.17 0 0 1 -7.17-7.17v-254.33a0 0 0 0 1 .01 0z" fill="#fff" transform="matrix(0 1 -1 0 343.75 -41.11)"/><rect fill="#32314b" height="115.67" rx="6.58" transform="matrix(0 1 -1 0 312.83 -8.86)" width="36" x="142.84" y="94.15"/><path d="m155.34 63.49h9.66a7.17 7.17 0 0 1 7.17 7.17v341.34a0 0 0 0 1 0 0h-24a0 0 0 0 1 0 0v-341.35a7.17 7.17 0 0 1 7.17-7.16z" fill="#fff"/><path d="m161.35 63.49a7.17 7.17 0 0 0 -7.17 7.17v341.34h-6v-341.34a7.17 7.17 0 0 1 7.17-7.17z" fill="#d8d8d8"/><rect fill="#3e436d" height="115.67" rx="6.58" width="36" x="142.84" y="94.15"/><path d="m85.51 139.32h17.5v24h-17.5z" fill="#d8d8d8"/><path d="m172.55 386.49h-24.74a3.6 3.6 0 0 0 -3.54 2.9l-4.43 26.1h40.67l-4.43-26.1a3.6 3.6 0 0 0 -3.53-2.9z" fill="#32314b"/><path d="m304.68 139.62v24.74a3.59 3.59 0 0 0 2.9 3.53l26.1 4.43v-40.67l-26.1 4.43a3.6 3.6 0 0 0 -2.9 3.54z" fill="#32314b"/><rect fill="#3e436d" height="34.75" rx="17.37" width="328.89" x="100.18" y="411.99"/><path d="m429.06 429.61a17.38 17.38 0 0 1 -17.37 17.39h-294.14a17.39 17.39 0 0 1 -15.78-24.65 17.36 17.36 0 0 0 15.78 10.11h294.14a17.39 17.39 0 0 0 15.78-10.11 17.34 17.34 0 0 1 1.59 7.26z" fill="#32314b"/><rect fill="#3e436d" height="69" rx="16.18" width="82.5" x="327.82" y="114.65"/><ellipse cx="355.58" cy="149.19" fill="#4f4f74" rx="14.87" ry="9.15"/><ellipse cx="387.77" cy="149.19" fill="#4f4f74" rx="12.04" ry="7.41"/></g></svg>