<svg id="Capa_1" enable-background="new 0 0 512 512" height="512" viewBox="0 0 512 512" width="512" xmlns="http://www.w3.org/2000/svg"><g><g><path d="m256 330.335c-141.387 0-244.868-159.86-225.264-196.064 43.302-79.964 127.94-134.271 225.264-134.271 97.204 0 181.752 54.173 225.103 133.974 19.704 36.274-83.716 196.361-225.103 196.361z" fill="#ffeb78"/><path d="m512 256c0 26.051-3.891 51.191-11.129 74.871-5.031 16.469-11.672 32.231-19.75 47.109-8.25 15.2-147.391 43.853-225.121 43.853s-216.871-28.653-225.109-43.853c-3.289-6.031-6.332-12.21-9.121-18.531-14-31.629-21.77-66.629-21.77-103.449 0-46.219 12.25-89.57 33.68-127 44.121 77.07 127.16 129 222.32 129s178.211-51.93 222.32-129c21.43 37.43 33.68 80.781 33.68 127zm0 0" fill="#f2d332"/><path d="m481.262 377.699c-7.16 13.223-15.434 25.742-24.723 37.43-8.437 10.633-17.719 20.57-27.719 29.723-2.676 2.45-5.404 4.844-8.182 7.181-44.507 37.421-285.324 37.203-329.92-.544-2.556-2.163-5.069-4.376-7.537-6.636-10-9.153-19.282-19.09-27.719-29.723-9.289-11.688-17.563-24.207-24.723-37.43h450.523zm0 0" fill="#e79d25"/></g><g><path d="m422.368 257.251v-77.986h-166.368l-38.993 116.978z" fill="#435d7a"/><path d="m256 179.265h-166.368v38.993l146.872 19.496z" fill="#a6cfe7"/><path d="m217.007 218.258h-127.375v38.993l166.368 38.992v-116.978z" fill="#5a7ba0"/><path d="m128.624 384.626 127.374 127.374h.002c35.313 0 68.954-7.153 99.556-20.087 5.678-6.402 21.187-22.005 21.187-22.005s18.966-3.924 26.187-4.259c6.724-4.722 13.211-9.759 19.439-15.089v-193.309h-19.496z" fill="#8db3cf"/><path d="m109.128 257.251h-19.496v193.309c6.227 5.329 12.712 10.365 19.434 15.086 8.137 2.453 29.355 8.96 29.355 8.96s12.731 11.882 17.836 17.227c30.651 12.985 64.357 20.167 99.743 20.167v-235.253z" fill="#a6cfe7"/><path d="m143.551 374.491 112.449 117.239h99.996c16.598-7.049 32.292-15.808 46.876-26.042v-208.437h-146.872z" fill="#dff5ff"/><path d="m156.004 491.73h99.996v-234.479h-146.872v208.437c14.584 10.234 30.278 18.993 46.876 26.042z" fill="#fff"/><path d="m324.887 208.51h19.496v19.496h-19.496z" fill="#6abb5e" transform="matrix(0 1 -1 0 552.893 -116.377)"/><path d="m363.879 208.51h19.496v19.496h-19.496z" fill="#dc4180" transform="matrix(0 1 -1 0 591.886 -155.37)"/><path d="m285.894 208.51h19.496v19.496h-19.496z" fill="#f2d332" transform="matrix(0 1 -1 0 513.9 -77.384)"/><path d="m298.458 276.747-38.992 87.733 123.91-38.992v-48.741z" fill="#2d3e53"/><path d="m298.242 364.48v-87.733h-42.459l-38.992 87.733z" fill="#435d7a"/><path d="m256 364.48v-87.733h-42.458l-38.993 87.733z" fill="#5a7ba0"/><path d="m213.542 276.747h-84.918v48.741l84.918 38.992z" fill="#7397b8"/><path d="m256 325.488-25.995 73.761 25.995 73.761h127.376v-147.522z" fill="#64b0fb"/><path d="m128.624 325.488h127.376v147.522h-127.376z" fill="#7ed7ff"/><path d="m128.624 325.488h63.688v147.522h-63.688z" fill="#ade6ff"/></g><g fill="#fff"><path d="m164.04 106.531h-1.524c-6.754 0-12.226-5.477-12.226-12.227v-1.523h-8.715v1.523c0 6.75-5.477 12.227-12.227 12.227h-1.527v8.715h1.527c6.75 0 12.227 5.472 12.227 12.226v1.528h8.715v-1.528c0-6.754 5.472-12.226 12.226-12.226h1.524zm0 0"/><path d="m274.109 70.312h-1.524c-6.754 0-12.226-5.477-12.226-12.227v-1.523h-8.715v1.523c0 6.75-5.477 12.227-12.227 12.227h-1.527v8.715h1.527c6.75 0 12.227 5.472 12.227 12.226v1.528h8.715v-1.528c0-6.754 5.472-12.226 12.226-12.226h1.524zm0 0"/><path d="m381.989 106.531h-1.524c-6.754 0-12.226-5.477-12.226-12.227v-1.523h-8.715v1.523c0 6.75-5.477 12.227-12.227 12.227h-1.527v8.715h1.527c6.75 0 12.227 5.472 12.227 12.226v1.528h8.715v-1.528c0-6.754 5.472-12.226 12.226-12.226h1.524zm0 0"/></g></g></svg>