<svg id="Icons" enable-background="new 0 0 512 512" height="512" viewBox="0 0 512 512" width="512" xmlns="http://www.w3.org/2000/svg"><g><circle cx="256" cy="256" fill="#f39e22" r="256"/><g id="Microscope"><g><path d="m374.654 433.402c0 5.57-1.824 10.716-4.902 14.869-4.55 6.13-11.853 10.111-20.078 10.111h-181.043c-6.897 0-13.144-2.799-17.667-7.313-.867-.876-1.679-1.806-2.41-2.798-3.079-4.153-4.902-9.299-4.902-14.869 0-6.816 2.726-12.991 7.141-17.487 4.532-4.631 10.851-7.502 17.839-7.502h181.043c6.897 0 13.144 2.799 17.667 7.322.063.063.117.117.171.181 4.415 4.495 7.141 10.67 7.141 17.486z" fill="#57409b"/><path d="m369.752 448.271c-4.55 6.13-11.853 10.111-20.078 10.111h-181.043c-6.897 0-13.144-2.799-17.667-7.313-.867-.876-1.679-1.806-2.41-2.798 4.55-6.148 11.844-10.129 20.078-10.129h181.043c6.897 0 13.144 2.799 17.667 7.322.875.875 1.679 1.813 2.41 2.807z" fill="#2d2667"/><path d="m367.513 415.915c-4.532 4.622-10.851 7.493-17.839 7.493h-181.043c-6.897 0-13.144-2.799-17.667-7.313-.063-.063-.117-.117-.172-.181 4.532-4.631 10.851-7.502 17.839-7.502h181.043c6.897 0 13.144 2.799 17.667 7.322.064.064.118.118.172.181z" fill="#6c53a2"/></g><g><g><path d="m390.723 258.796c0 6.419-.46 12.738-1.354 18.913-5.046 34.901-23.851 65.415-50.709 85.845-22.1 16.819-49.662 26.803-79.508 26.803-44.805 0-86.116-22.479-110.5-60.134-3.385-5.227-1.896-12.215 3.34-15.6 5.227-3.385 12.215-1.896 15.609 3.331 20.204 31.209 54.428 49.833 91.551 49.833 26.352 0 50.556-9.398 69.415-25.016 20.683-17.117 34.956-41.717 38.648-69.604.614-4.704.939-9.506.939-14.372 0-26.74-9.777-52.46-27.535-72.421-4.144-4.658-3.728-11.79.93-15.934s11.79-3.72 15.934.93c21.432 24.096 33.24 55.142 33.24 87.426z" fill="#57409b"/></g><path d="m338.66 363.554c-22.1 16.819-49.662 26.803-79.508 26.803-44.805 0-86.116-22.479-110.5-60.134-3.385-5.227-1.896-12.215 3.34-15.6 5.227-3.385 12.215-1.896 15.609 3.331 20.204 31.209 54.428 49.833 91.551 49.833 26.352 0 50.556-9.398 69.415-25.016 3.927 6.591 7.313 13.543 10.093 20.783z" fill="#2d2667"/><path d="m390.723 258.796c0 6.419-.46 12.738-1.354 18.913-7.61-.867-15.013-2.401-22.154-4.541.614-4.704.939-9.506.939-14.372 0-26.74-9.777-52.46-27.535-72.421-4.144-4.658-3.728-11.79.93-15.934s11.79-3.72 15.934.93c21.432 24.095 33.24 55.141 33.24 87.425z" fill="#6c53a2"/></g><g><path d="m271.167 52.776-93.213 93.213c-4.347 4.347-6.703 9.933-7.086 15.627-.23 3.434.262 6.913 1.5 10.169 1.175 3.179 3.039 6.154 5.586 8.701l29.033 29.033c2.579 2.579 5.592 4.456 8.809 5.63 3.224 1.207 6.665 1.685 10.061 1.455 5.701-.377 11.28-2.739 15.627-7.086l93.213-93.213c6.945-6.945 8.835-17.044 5.63-25.688-1.174-3.217-3.051-6.23-5.63-8.809l-29.033-29.033c-2.547-2.547-5.522-4.411-8.701-5.586-8.669-3.254-18.819-1.39-25.796 5.587z" fill="#c2aacf"/><path d="m314.639 96.249-93.213 93.213c-1.909 1.909-3.434 4.06-4.571 6.345-3.026 6.039-3.383 13.074-1.06 19.342 3.224 1.207 6.665 1.685 10.061 1.455 5.701-.377 11.28-2.739 15.627-7.086l93.213-93.213c6.945-6.945 8.835-17.044 5.63-25.688-8.643-3.203-18.742-1.314-25.687 5.632z" fill="#a583bb"/><path d="m271.167 52.776-93.213 93.213c-4.347 4.347-6.703 9.933-7.086 15.627-.23 3.434.262 6.913 1.5 10.169 6.294 2.362 13.374 2.024 19.444-1.021 2.285-1.136 4.437-2.662 6.345-4.571l93.213-93.213c6.977-6.977 8.841-17.127 5.592-25.79-8.668-3.255-18.818-1.391-25.795 5.586z" fill="#f0dae2"/><g><path d="m144.967 135.443-.003.003c-1.269 1.269-2.249 2.713-2.946 4.254-.74 1.642-1.156 3.389-1.25 5.154-.214 3.937 1.186 7.948 4.196 10.958l86.696 86.696c1.41 1.41 3.037 2.465 4.775 3.167 1.731.7 3.571 1.05 5.408 1.05.256 0 .518-.005.774-.021 3.424-.182 6.794-1.581 9.409-4.196 2.569-2.569 3.966-5.868 4.188-9.225.142-2.155-.195-4.335-1.02-6.367-.654-1.621-1.616-3.149-2.884-4.487-.091-.096-.187-.192-.283-.288l-86.696-86.696c-2.812-2.812-6.498-4.217-10.183-4.217-.32 0-.641.011-.959.035-2.727.179-5.403 1.13-7.689 2.85-.534.4-1.047.844-1.533 1.33z" fill="#57409b"/><path d="m140.769 144.854c-.214 3.937 1.186 7.948 4.196 10.958l86.696 86.696c1.41 1.41 3.037 2.465 4.775 3.167 1.731.7 3.571 1.05 5.408 1.05.256 0 .518-.005.774-.021.158-2.892-.556-5.822-2.137-8.365-.502-.812-1.095-1.586-1.776-2.305-.091-.096-.187-.192-.283-.288l-86.696-86.696c-2.812-2.812-6.498-4.217-10.183-4.217-.256 0-.518.005-.774.021z" fill="#2d2667"/><path d="m154.189 131.263c-.008.061-.011.123-.013.184-.214 3.937 1.186 7.948 4.196 10.958l86.696 86.696c.791.791 1.653 1.472 2.561 2.038 2.324 1.453 4.973 2.179 7.622 2.179.256 0 .518-.005.774-.021.061-.003.126-.008.19-.013.142-2.155-.195-4.335-1.02-6.367-.654-1.621-1.616-3.149-2.884-4.487-.091-.096-.187-.192-.283-.288l-86.696-86.696c-2.812-2.812-6.498-4.217-10.183-4.217-.322-.001-.642.01-.96.034z" fill="#6c53a2"/></g><path d="m176.753 187.598-15.531 15.531c-3.16 3.16-4.149 6.677-3.568 10.195.587 3.626 2.854 7.258 6.116 10.52l.006.006c3.268 3.268 6.92 5.541 10.552 6.122 3.511.575 7.009-.421 10.163-3.575l15.531-15.531z" fill="#ebd9ea"/><path d="m193.434 204.278-15.531 15.531c-3.154 3.154-4.149 6.652-3.575 10.163 3.511.575 7.009-.421 10.163-3.575l15.531-15.531z" fill="#c2aacf"/><path d="m176.753 187.598-15.531 15.531c-3.16 3.16-4.149 6.677-3.568 10.195 3.517.581 7.035-.408 10.195-3.568l15.531-15.531z" fill="#fff"/><path d="m168.082 197.636h32.906v10.896h-32.906z" fill="#c2aacf" transform="matrix(-.707 -.707 .707 -.707 171.419 477.173)"/><path d="m313.541 44.899-7.877 7.877 29.033 29.033 7.877-7.877c2.47-2.47 2.841-6.249 1.104-9.109-.3-.504-.67-.977-1.104-1.411l-18.512-18.512c-.357-.357-.741-.664-1.143-.938 0 0 0 0-.006-.006-2.899-1.917-6.825-1.604-9.372.943z" fill="#57409b"/><path d="m334.575 65.933-7.877 7.877 7.999 7.999 7.877-7.877c2.47-2.47 2.841-6.249 1.104-9.109-2.86-1.724-6.633-1.36-9.103 1.11z" fill="#2d2667"/><path d="m313.541 44.899-7.877 7.877 8.445 8.445 7.877-7.877c2.547-2.547 2.86-6.486.932-9.384 0 0 0 0-.006-.006-2.898-1.915-6.824-1.602-9.371.945z" fill="#6c53a2"/><path d="m214.036 130.111c5.579 5.579 14.625 5.579 20.204 0l36.113-36.113c5.579-5.579 5.579-14.625 0-20.204-5.579-5.579-14.625-5.579-20.204 0l-36.113 36.113c-5.579 5.579-5.579 14.625 0 20.204z" fill="#fff"/></g><g><path d="m288.493 379.073c0 5.2-1.354 10.093-3.737 14.336-5.02 8.955-14.607 15.004-25.603 15.004-16.205 0-29.34-13.135-29.34-29.34 0-11.005 6.058-20.592 15.013-25.612 4.234-2.374 9.118-3.729 14.327-3.729 16.205 0 29.34 13.136 29.34 29.341z" fill="#2d2667"/><path d="m288.493 379.073c0 5.2-1.354 10.093-3.737 14.336-4.243 2.383-9.127 3.737-14.327 3.737-16.205 0-29.34-13.135-29.34-29.34 0-5.209 1.363-10.102 3.738-14.345 4.234-2.374 9.118-3.729 14.327-3.729 16.204 0 29.339 13.136 29.339 29.341z" fill="#57409b"/><circle cx="263.92" cy="369.078" fill="#6c53a2" r="14.111"/></g><g><path d="m342.582 150.356c0 5.2-1.354 10.093-3.737 14.336-5.02 8.955-14.607 15.004-25.603 15.004-16.205 0-29.34-13.135-29.34-29.34 0-11.005 6.058-20.592 15.013-25.612 4.234-2.374 9.118-3.729 14.327-3.729 16.204.001 29.34 13.136 29.34 29.341z" fill="#2d2667"/><path d="m342.582 150.356c0 5.2-1.354 10.093-3.737 14.336-4.243 2.383-9.127 3.737-14.327 3.737-16.205 0-29.34-13.135-29.34-29.34 0-5.209 1.363-10.102 3.738-14.345 4.234-2.374 9.118-3.729 14.327-3.729 16.203.001 29.339 13.136 29.339 29.341z" fill="#57409b"/><circle cx="318.008" cy="140.361" fill="#6c53a2" r="14.111"/></g><g><path d="m203.587 298.41c0 2.428-.849 4.658-2.257 6.41-.235.289-.478.56-.74.822-1.851 1.851-4.406 2.997-7.231 2.997h-88.012c-3.223 0-6.103-1.49-7.981-3.819-1.408-1.751-2.257-3.981-2.257-6.41 0-2.347.795-4.514 2.131-6.238.262-.352.551-.677.867-.993 1.851-1.851 4.414-2.997 7.24-2.997h88.012c3.304 0 6.238 1.562 8.098 3.99 1.335 1.724 2.13 3.89 2.13 6.238z" fill="#57409b"/><path d="m201.33 304.819c-.235.289-.478.56-.74.822-1.851 1.851-4.406 2.997-7.231 2.997h-88.012c-3.223 0-6.103-1.49-7.981-3.819.235-.289.478-.56.74-.821 1.851-1.851 4.414-2.997 7.24-2.997h88.012c3.223-.001 6.103 1.489 7.972 3.818z" fill="#2d2667"/><path d="m201.456 292.171c-.271.343-.56.677-.867.984-1.851 1.851-4.406 2.997-7.231 2.997h-88.012c-3.295 0-6.229-1.562-8.107-3.981.262-.352.551-.677.867-.993 1.851-1.851 4.414-2.997 7.24-2.997h88.012c3.304 0 6.238 1.562 8.098 3.99z" fill="#6c53a2"/></g><g><path d="m193.358 288.181h-88.012c0-3.719 1.499-7.087 3.927-9.533 2.456-2.474 5.85-3.999 9.606-3.999h60.947c3.737 0 7.123 1.517 9.569 3.963l.036.036c2.429 2.446 3.927 5.814 3.927 9.533z" fill="#ebd9ea"/><path d="m189.431 278.648c-2.456 2.474-5.85 3.999-9.605 3.999h-60.947c-3.738 0-7.123-1.517-9.57-3.963l-.036-.036c2.456-2.474 5.85-3.999 9.606-3.999h60.947c3.737 0 7.123 1.517 9.569 3.963z" fill="#fff"/></g></g></g></svg>