<svg id="Capa_1" enable-background="new 0 0 512 512" height="512" viewBox="0 0 512 512" width="512" xmlns="http://www.w3.org/2000/svg"><g><g><path d="m0 256c0 43.79 11 85.02 30.39 121.07l225.61 49.67 225.61-49.67c19.39-36.05 30.39-77.28 30.39-121.07 0-46.63-12.47-90.34-34.26-128-41.698 72.091-399.22 76.52-443.48 0-21.79 37.66-34.26 81.37-34.26 128z" fill="#9965d8"/><path d="m34.26 128c44.26 76.52 126.99 128 221.74 128s177.48-51.48 221.74-128c-.01-.02-.03-.05-.04-.07-44.27-76.48-126.98-127.93-221.7-127.93s-177.43 51.45-221.7 127.93c-.01.02-.03.05-.04.07z" fill="#b895e5"/><path d="m30.39 377.07c43.19 80.32 128.02 134.93 225.61 134.93s182.42-54.61 225.61-134.93z" fill="#5541b6"/></g><path d="m444.97 219.29v172.13h-27.69v54.57l-70.47-54.57h-132.3v-172.13z" fill="#e8ebf7"/><path d="m444.97 219.29v172.13h-27.69v54.57l-70.47-54.57h-17.29v-172.13z" fill="#daddee"/><path d="m337.51 241.65-7.99.01-7.15.01-47.31 124.22 14.02 5.34 11.49-30.17h58.42l11.38 30.16 14.04-5.3zm-31.23 84.41 23.24-61 .4-1.05 23.41 62.05z" fill="#616579"/><path d="m384.41 365.92-14.04 5.3-11.38-30.16h-29.47v-15h23.81l-23.41-62.05-.4 1.05v-23.4l7.99-.01z" fill="#464652"/><path d="m275.676 132.615h-230.46v172.135h27.688v54.571l70.468-54.571h132.304z" fill="#a9eb58"/><path d="m160.226 132.615h115.45v172.135h-115.45z" fill="#79ce8b"/><path d="m211.19 258.14c8.47-10.91 13.53-24.6 13.53-39.46 0-35.56-28.93-64.49-64.49-64.49-35.57 0-64.5 28.93-64.5 64.49 0 35.57 28.93 64.5 64.5 64.5 15.31 0 29.39-5.38 40.46-14.33l16.97 16.98 10.61-10.61zm-10.71-10.71-19.28-19.28-10.61 10.6 19.43 19.43c-8.3 6.27-18.62 10-29.79 10-27.3 0-49.5-22.2-49.5-49.5 0-27.29 22.2-49.49 49.5-49.49 27.29 0 49.49 22.2 49.49 49.49 0 10.72-3.43 20.64-9.24 28.75z" fill="#616579"/><path d="m228.27 275.22-10.61 10.61-16.97-16.98c-11.07 8.95-25.15 14.33-40.46 14.33v-15c11.17 0 21.49-3.73 29.79-10l-19.43-19.43 10.61-10.6 19.28 19.28c5.81-8.11 9.24-18.03 9.24-28.75 0-27.29-22.2-49.49-49.49-49.49v-15c35.56 0 64.49 28.93 64.49 64.49 0 14.86-5.06 28.55-13.53 39.46z" fill="#464652"/></g></svg>