<svg id="Capa_1" enable-background="new 0 0 512 512" height="512" viewBox="0 0 512 512" width="512" xmlns="http://www.w3.org/2000/svg"><circle cx="256" cy="256" fill="#65b2fe" r="256"/><path d="m512 256c0 87.11-43.52 164.07-110 210.31-41.41 28.8-91.73 45.69-146 45.69s-104.59-16.89-146-45.69c-66.48-46.24-110-123.2-110-210.31 0-46.22 12.25-89.57 33.68-127 44.12 77.07 127.16 129 222.32 129s178.21-51.93 222.32-129c21.43 37.43 33.68 80.78 33.68 127z" fill="#0e9ce7"/><path d="m452 316c0 105.34-83.12 191.28-187.34 195.81-.31.02-.62.03-.93.04-.87.03-1.74.06-2.6.08-1.73.05-3.44.07-5.13.07-108.24 0-196-87.76-196-196s87.76-196 196-196h.28c108.11.15 195.72 87.85 195.72 196z" fill="#ffe853"/><path d="m452 316c0 105.34-83.12 191.28-187.34 195.81-.31.02-.62.03-.93.04-.87.03-1.74.06-2.6.08-1.73.05-3.44.07-5.13.07-58.54-45.3-103.35-116.25-103.35-196s44.81-150.7 103.35-196h.28c108.11.15 195.72 87.85 195.72 196z" fill="#fed110"/><path d="m452 316c0 108.244-87.756 196-196 196v-392c108.244 0 196 87.756 196 196z" fill="#ff9f01"/><circle cx="187.667" cy="266.264" fill="#fff" r="46.095"/><circle cx="174" cy="267" fill="#29334c" r="25.616"/><circle cx="324.333" cy="266.264" fill="#fff" r="46.095"/><circle cx="335" cy="250.264" fill="#29334c" r="25.616"/><path d="m371.356 365.792c-13.412 22.003-32.864 39.907-56.06 51.403-1.65.825-3.325 1.612-5.012 2.36-16.508 7.385-34.742 11.572-53.928 11.801-.558.013-1.129.013-1.688.013-18.183 0-35.542-3.553-51.415-10.024-1.967-.787-3.921-1.637-5.837-2.525-24.68-11.407-45.376-29.971-59.435-53.027-7.245-11.902 1.332-27.154 15.265-27.154h14.922l22.129 22.129h124.846l.152-.114 29.248-22.015h11.56c13.934-.002 22.511 15.25 15.253 27.153z" fill="#29334c"/><path d="m315.297 360.653v35.085c0 8.476-1.789 16.534-5.012 23.817-9.149 20.683-29.857 35.123-53.928 35.123-16.267 0-31.012-6.598-41.67-17.27-4.644-4.644-8.54-10.075-11.433-16.064-3.743-7.753-5.837-16.432-5.837-25.606v-34.971h117.728z" fill="#ff1d56"/><path d="m315.297 360.653v35.085c0 8.476-1.789 16.534-5.012 23.817-9.149 20.683-29.857 35.123-53.928 35.123v-93.91h58.788z" fill="#dd1265"/><path d="m344.545 338.637v4.276c0 15.188-12.308 27.497-27.497 27.497h-121.382c-15.189 0-27.497-12.308-27.497-27.497v-4.276z" fill="#fff"/><path d="m344.545 338.637v4.276c0 15.188-12.308 27.497-27.497 27.497h-60.691v-31.773z" fill="#d1f6ff"/></svg>