<?xml version="1.0" encoding="iso-8859-1"?>
<!-- Generator: Adobe Illustrator 19.0.0, SVG Export Plug-In . SVG Version: 6.00 Build 0)  -->
<svg version="1.1" id="Capa_1" xmlns="http://www.w3.org/2000/svg" xmlns:xlink="http://www.w3.org/1999/xlink" x="0px" y="0px"
	 viewBox="0 0 512 512" style="enable-background:new 0 0 512 512;" xml:space="preserve">
<path style="fill:#2B6C7E;" d="M256,0c141.385,0,256,114.615,256,256S397.385,512,256,512S0,397.385,0,256S114.615,0,256,0z"/>
<path style="fill:#00B7A0;" d="M223.112,468.094h-2.79c-13.807,0-25-11.193-25-25V102.449c0-13.807,11.193-25,25-25h2.79
	c13.807,0,25,11.193,25,25v340.645C248.112,456.901,236.919,468.094,223.112,468.094z"/>
<path style="fill:#8BEBDB;" d="M211.159,77.282v390.979c0,24.178-34.508,28.895-40.785,5.545c-0.049-0.181-0.097-0.364-0.143-0.546
	c-6.498,4.08-14.181,6.448-22.42,6.448l0,0c-23.324,0-42.232-18.908-42.232-42.232v-11.888c-3.375,0.869-6.912,1.331-10.558,1.331
	l0,0c-23.324,0-42.232-18.908-42.232-42.232v-11.889c-3.374,0.869-6.912,1.331-10.558,1.331l0,0c-5.193,0-10.164-0.942-14.759-2.656
	c-11.668-23.05-19.947-48.103-24.194-74.506c2.101-5.02,5.169-9.636,9.091-13.558l10.637-10.637l-10.637-10.637
	c-6.288-6.289-10.378-14.358-11.801-23.021c1.166-17.899,4.163-35.298,8.821-52.007c7.742-9.569,19.575-15.692,32.842-15.692l0,0
	c3.646,0,7.183,0.462,10.558,1.331v-11.889c0-23.324,18.908-42.232,42.232-42.232l0,0c3.646,0,7.183,0.462,10.558,1.331v-11.889
	c0-23.324,18.908-42.232,42.232-42.232l0,0c8.239,0,15.922,2.368,22.42,6.448c0.047-0.183,0.094-0.365,0.143-0.546
	C176.652,48.388,211.159,53.104,211.159,77.282z M443.435,232.272v-18.625c0-23.324-18.908-42.232-42.232-42.232l0,0
	c-3.646,0-7.183,0.462-10.558,1.331v-11.889c0-23.324-18.908-42.232-42.232-42.232l0,0c-3.646,0-7.183,0.462-10.558,1.331v-11.889
	c0-23.324-18.908-42.232-42.232-42.232l0,0c-8.239,0-15.922,2.368-22.42,6.448c-0.046-0.183-0.094-0.365-0.143-0.546
	c-6.277-23.35-40.785-18.633-40.785,5.545v390.979c0,24.178,34.508,28.895,40.785,5.545c0.049-0.181,0.097-0.364,0.143-0.546
	c6.498,4.081,14.181,6.448,22.42,6.448l0,0c23.324,0,42.232-18.908,42.232-42.231v-11.889c3.375,0.869,6.912,1.331,10.558,1.331l0,0
	c23.324,0,42.232-18.908,42.232-42.232v-11.889c3.375,0.869,6.912,1.331,10.558,1.331l0,0c23.324,0,42.232-18.908,42.232-42.231
	v-18.625c0-11.201-4.449-21.942-12.369-29.862l-10.637-10.637l10.637-10.637C438.985,254.215,443.435,243.473,443.435,232.272z"/>
<path style="fill:#5EE2C5;" d="M211.159,77.282v7.24c-5.947-2.986-12.746-4.686-19.974-4.686l0,0
	c-23.324,0-42.232,17.628-42.232,39.375v11.084c-3.374-0.81-6.912-1.241-10.558-1.241l0,0c-23.324,0-42.232,17.628-42.232,39.375
	v11.084c-3.375-0.81-6.912-1.241-10.558-1.241l0,0c-23.324,0-42.232,17.629-42.232,39.375v17.365
	c0,10.443,4.449,20.458,12.369,27.842l10.637,9.917l-10.637,9.917c-7.92,7.385-12.369,17.4-12.369,27.842v17.365
	c0,21.746,18.908,39.375,42.232,39.375l0,0c3.646,0,7.183-0.431,10.558-1.241v11.084c0,21.746,18.908,39.375,42.232,39.375l0,0
	c3.646,0,7.183-0.431,10.558-1.24v11.084c0,21.746,18.908,39.375,42.232,39.375l0,0c7.228,0,14.026-1.701,19.974-4.686v7.24
	c0,24.178-34.508,28.895-40.785,5.545c-0.049-0.181-0.097-0.364-0.143-0.546c-6.498,4.08-14.181,6.448-22.42,6.448l0,0
	c-23.324,0-42.232-18.908-42.232-42.232v-11.888c-3.375,0.869-6.912,1.331-10.558,1.331l0,0c-23.324,0-42.232-18.908-42.232-42.232
	v-11.889c-3.374,0.869-6.912,1.331-10.558,1.331l0,0c-5.193,0-10.164-0.942-14.759-2.656c-11.668-23.05-19.947-48.103-24.194-74.506
	c2.101-5.02,5.169-9.636,9.091-13.559l10.637-10.637l-10.637-10.637c-6.288-6.289-10.378-14.358-11.801-23.021
	c1.166-17.899,4.163-35.298,8.821-52.007c7.742-9.569,19.575-15.692,32.842-15.692l0,0c3.646,0,7.183,0.462,10.558,1.331v-11.889
	c0-23.324,18.908-42.232,42.232-42.232l0,0c3.646,0,7.183,0.462,10.558,1.331v-11.889c0-23.324,18.908-42.232,42.232-42.232l0,0
	c8.239,0,15.922,2.368,22.42,6.448c0.047-0.183,0.094-0.365,0.143-0.546C176.652,48.388,211.159,53.104,211.159,77.282z
	 M256.207,468.261V77.282c0-7.934,3.725-13.755,8.939-17.194c-12.261-8.542-32.871-1.496-32.871,17.194v390.979
	c0,18.689,20.61,25.736,32.871,17.194C259.932,482.016,256.207,476.194,256.207,468.261z"/>
<path style="fill:#00D3B4;" d="M472,135c0,5.523-4.477,10-10,10s-10-4.478-10-10c0-20.033-7.801-38.867-21.967-53.033
	C415.868,67.801,397.034,60,377,60c-2.762,0-5.261-1.119-7.071-2.929C368.119,55.261,367,52.761,367,50c0-5.523,4.477-10,10-10
	c25.375,0,49.233,9.882,67.175,27.826C462.119,85.768,472,109.625,472,135z M377,80c-5.523,0-10,4.477-10,10
	c0.001,2.761,1.12,5.262,2.929,7.071c1.81,1.81,4.309,2.929,7.071,2.929c9.348,0,18.138,3.64,24.748,10.251
	c6.61,6.61,10.251,15.4,10.251,24.749c0,5.523,4.477,10,10,10s10-4.478,10-10c0-14.691-5.721-28.503-16.109-38.891
	C405.503,85.721,391.691,80,377,80z M43.374,243.581c13.548,0,24.53-10.983,24.53-24.53c0-13.548-10.982-24.53-24.53-24.53
	s-24.53,10.982-24.53,24.53C18.844,232.598,29.826,243.581,43.374,243.581z M43.374,301.962c-13.548,0-24.53,10.983-24.53,24.53
	c0,13.548,10.982,24.53,24.53,24.53s24.53-10.982,24.53-24.53C67.904,312.945,56.921,301.962,43.374,301.962z M148.619,137.657
	c0.142,0,0.282-0.008,0.423-0.01l13.31,29.63v9.107c0,5.419,4.393,9.812,9.812,9.812l0,0c5.419,0,9.812-4.393,9.812-9.812v-11.209
	c0-1.385-0.294-2.756-0.861-4.021l-14.224-31.666c4.524-5.049,6.99-11.98,6.065-19.477c-1.372-11.133-10.402-20.033-21.552-21.261
	c-14.795-1.629-27.316,9.912-27.316,24.377C124.089,126.675,135.071,137.657,148.619,137.657z M172.164,359.347L172.164,359.347
	c-5.419,0-9.812,4.393-9.812,9.812v9.107l-13.31,29.63c-0.141-0.002-0.281-0.01-0.423-0.01c-13.548,0-24.53,10.982-24.53,24.53
	c0,14.465,12.521,26.006,27.316,24.376c11.15-1.229,20.18-10.128,21.552-21.261c0.924-7.497-1.542-14.428-6.065-19.477
	l14.224-31.665c0.568-1.265,0.861-2.635,0.861-4.021v-11.21C181.976,363.74,177.583,359.347,172.164,359.347z M271.271,186.196
	c5.419,0,9.812-4.393,9.812-9.812v-9.107l13.31-29.63c0.141,0.002,0.281,0.01,0.424,0.01c13.548,0,24.53-10.982,24.53-24.529
	c0-14.465-12.521-26.006-27.316-24.377c-11.15,1.229-20.18,10.128-21.552,21.261c-0.924,7.497,1.542,14.428,6.065,19.477
	l-14.224,31.666c-0.568,1.265-0.861,2.635-0.861,4.021v11.209C261.459,181.803,265.852,186.196,271.271,186.196z M351.001,298.283
	c13.548,0,24.53-10.982,24.53-24.53c0-13.547-10.982-24.53-24.53-24.53c-10.058,0-18.697,6.056-22.483,14.718h-96.242v19.624h96.242
	C332.303,292.227,340.943,298.283,351.001,298.283z M313.785,217.194l28.009-28.009c2.148,0.615,4.414,0.951,6.759,0.951
	c13.548,0,24.53-10.982,24.53-24.53c0-13.547-10.982-24.53-24.53-24.53s-24.53,10.983-24.53,24.53c0,3.954,0.941,7.687,2.603,10.994
	l-23.843,23.844h-70.507v19.624h74.571C309.449,220.067,311.945,219.033,313.785,217.194z M400.061,301.962
	c-13.548,0-24.53,10.983-24.53,24.53c0,13.548,10.982,24.53,24.53,24.53s24.53-10.982,24.53-24.53
	C424.591,312.945,413.608,301.962,400.061,301.962z M348.552,355.407c-2.345,0-4.611,0.336-6.759,0.951l-28.009-28.008
	c-1.84-1.84-4.336-2.874-6.938-2.874h-74.571V345.1h70.507l23.843,23.844c-1.662,3.308-2.603,7.04-2.603,10.994
	c0,13.547,10.983,24.53,24.53,24.53s24.53-10.983,24.53-24.53S362.1,355.407,348.552,355.407z M400.061,194.521
	c-13.548,0-24.53,10.982-24.53,24.53c0,13.547,10.982,24.53,24.53,24.53s24.53-10.983,24.53-24.53
	C424.591,205.503,413.608,194.521,400.061,194.521z M294.816,407.886c-0.142,0-0.282,0.008-0.424,0.01l-13.31-29.63v-9.107
	c0-5.419-4.393-9.812-9.812-9.812s-9.812,4.393-9.812,9.812v11.21c0,1.385,0.294,2.755,0.861,4.021l14.224,31.665
	c-4.524,5.049-6.99,11.98-6.065,19.477c1.372,11.133,10.402,20.033,21.552,21.261c14.795,1.63,27.316-9.912,27.316-24.376
	C319.346,418.868,308.363,407.886,294.816,407.886z M92.434,247.26c-13.548,0-24.53,10.983-24.53,24.53s10.982,24.53,24.53,24.53
	c10.058,0,18.697-6.056,22.483-14.718h96.242v-19.624h-96.242C111.131,253.316,102.492,247.26,92.434,247.26z M116.809,176.6
	c1.662-3.308,2.603-7.04,2.603-10.994c0-13.547-10.982-24.53-24.53-24.53s-24.53,10.983-24.53,24.53
	c0,13.548,10.982,24.53,24.53,24.53c2.345,0,4.611-0.336,6.759-0.951l28.008,28.009c1.84,1.839,4.336,2.874,6.938,2.874h74.571
	v-19.624h-70.507L116.809,176.6z M129.65,328.35l-28.008,28.008c-2.148-0.615-4.414-0.951-6.759-0.951
	c-13.548,0-24.53,10.983-24.53,24.53s10.982,24.53,24.53,24.53s24.53-10.983,24.53-24.53c0-3.954-0.941-7.687-2.603-10.994
	l23.843-23.844h70.507v-19.624h-74.571C133.985,325.476,131.49,326.51,129.65,328.35z"/>
<g>
</g>
<g>
</g>
<g>
</g>
<g>
</g>
<g>
</g>
<g>
</g>
<g>
</g>
<g>
</g>
<g>
</g>
<g>
</g>
<g>
</g>
<g>
</g>
<g>
</g>
<g>
</g>
<g>
</g>
</svg>
