<svg id="Capa_1" enable-background="new 0 0 512 512" height="512" viewBox="0 0 512 512" width="512" xmlns="http://www.w3.org/2000/svg"><g><g><path d="m256 328.602c-141.387 0-244.868-158.076-225.263-194.28 43.302-79.963 127.939-134.27 225.263-134.27 97.204 0 181.752 54.173 225.103 133.974 19.704 36.274-83.716 194.576-225.103 194.576z" fill="#afe8fd"/><path d="m512 256.052c0 26.051-3.891 51.191-11.129 74.871-5.031 16.469-11.672 32.231-19.75 47.109-8.25 15.2-147.391 54.749-225.121 54.749s-216.871-39.549-225.109-54.749c-3.289-6.031-6.332-12.21-9.121-18.531-14-31.629-21.77-66.629-21.77-103.449 0-46.219 12.25-89.57 33.68-127 44.121 77.07 127.16 129 222.32 129s178.211-51.93 222.32-129c21.43 37.43 33.68 80.781 33.68 127zm0 0" fill="#64b0fb"/><path d="m481.262 377.751c-7.16 13.223-15.434 25.742-24.723 37.43-5.864 7.39-12.136 14.444-18.773 21.132-2.913 2.935-115.157 25.688-181.766 25.688s-178.7-22.606-181.542-25.463c-6.72-6.755-13.067-13.884-18.997-21.357-9.289-11.688-17.563-24.207-24.723-37.43zm0 0" fill="#1394fb"/></g><g><path d="m395.527 329.709h-175.121l35.594 182.239h7.144c61.31-1.68 117.236-24.91 160.472-62.394z" fill="#d85819"/><path d="m438.239 147.47h-182.239l-42.712 182.239h182.239z" fill="#d85819"/><path d="m438.239 147.47-182.239 182.239 140.413 140.413c15.137-9.949 29.155-21.455 41.826-34.298z" fill="#bd4911"/><path d="m256 147.47h-182.239l42.712 182.239h139.527z" fill="#e38031"/><path d="m248.856 511.948h7.144v-182.239h-139.527l-28.089 119.845c43.236 37.484 99.162 60.714 160.472 62.394z" fill="#e38031"/><path d="m73.761 147.47v288.354c12.671 12.844 26.689 24.35 41.826 34.298l140.413-140.413z" fill="#d85819"/><path d="m395.527 190.182h-139.527l-96.815 139.527 96.815 139.527h139.527z" fill="#fff0be"/><path d="m116.473 190.182h139.527v279.054h-139.527z" fill="#fff"/><path d="m352.815 232.894h-96.815l-78.306 96.815 78.306 96.814h96.815z" fill="#e79d25"/><path d="m159.185 232.894h96.815v193.629h-96.815z" fill="#f2d332"/><path d="m159.185 232.894h48.407v193.629h-48.407z" fill="#ffe27d"/></g></g></svg>