<svg id="Capa_1" enable-background="new 0 0 512 512" height="512" viewBox="0 0 512 512" width="512" xmlns="http://www.w3.org/2000/svg"><path d="m511.988 258.484c-.831 87.375-45.437 164.287-112.948 209.856l-69.302 21.153c-48.064 14.671-99.412 14.669-147.475-.005l-69.303-21.158v.01c-68.15-46-112.96-123.94-112.96-212.34 0-141.38 114.62-256 255.999-256 141.327 0 257.333 117.163 255.989 258.484z" fill="#ffe400"/><path d="m512 256c0 87.11-43.52 164.07-110 210.31-.99.69-1.99 1.37-2.99 2.04l-69.272 21.144c-48.064 14.67-99.411 14.668-147.474-.005l-69.304-21.159c-.99-.66-1.98-1.34-2.96-2.02-66.48-46.24-110-123.2-110-210.31 0-46.22 12.25-89.57 33.68-127 44.12 77.07 127.16 129 222.32 129s178.21-51.93 222.32-129c21.43 37.43 33.68 80.78 33.68 127z" fill="#ffce00"/><path d="m380.21 137.6v327.85h-248.42v-327.85c0-19.93 16.15-36.08 36.08-36.08h176.26c19.93 0 36.08 16.15 36.08 36.08z" fill="#4e689b"/><path d="m380.21 137.6v327.85h-195.73v-327.85c0-19.93 16.15-36.08 36.08-36.08h123.57c19.93 0 36.08 16.15 36.08 36.08z" fill="#374c81"/><path d="m380.21 137.6v327.85h-124.21v-363.93h88.13c19.93 0 36.08 16.15 36.08 36.08z" fill="#234177"/><path d="m399.04 345.14v123.2c-40.84 27.56-90.06 43.66-143.04 43.66-24.82 0-48.82-3.53-71.52-10.13-25.75-7.47-49.82-18.88-71.52-33.54v-123.19s134.97-30.393 143.04-30.393z" fill="#22d7ff"/><path d="m399.04 345.14v123.2c-40.84 27.56-90.06 43.66-143.04 43.66-24.82 0-48.82-3.53-71.52-10.13v-156.73l71.52-34.366z" fill="#24c6ff"/><path d="m399.04 345.14v123.2c-40.84 27.56-90.06 43.66-143.04 43.66v-166.86l66.359-41.31z" fill="#00b3fe"/><path d="m399.04 256.01v89.13h-286.08v-89.14c0-8.07 6.55-14.61 14.62-14.61h256.84c1.52 0 2.98.23 4.35.66.46.14.9.3 1.34.49.22.09.44.19.65.29.85.41 1.66.9 2.41 1.46 2.06 1.55 3.7 3.63 4.72 6.03.19.44.36.89.49 1.35.43 1.37.66 2.83.66 4.34z" fill="#fff"/><path d="m399.04 256.01v89.13h-214.56v-103.75h199.94c1.52 0 2.98.23 4.35.66.46.14.9.31 1.34.49.22.09.44.19.65.29.85.41 1.66.9 2.41 1.46 2.06 1.55 3.7 3.63 4.72 6.03.19.44.35.89.49 1.35.43 1.37.66 2.83.66 4.34z" fill="#d1f6ff"/><path d="m399.04 256v89.14h-143.04v-103.75h128.42c8.07 0 14.62 6.54 14.62 14.61z" fill="#b3f4ff"/></svg>