<svg id="Capa_1" enable-background="new 0 0 512 512" height="512" viewBox="0 0 512 512" width="512" xmlns="http://www.w3.org/2000/svg"><g><g><path d="m256 317.518c-141.387 0-243.753-151.092-222.327-188.519 44.119-77.07 127.157-128.999 222.327-128.999s178.208 51.929 222.327 128.999c21.426 37.427-80.94 188.519-222.327 188.519z" fill="#e36565"/><path d="m512 256c0 26.051-3.891 51.191-11.129 74.871-5.031 16.469-11.672 32.231-19.75 47.109-8.25 15.2-147.391 45.665-225.121 45.665s-216.871-30.465-225.109-45.665c-3.289-6.031-6.332-12.21-9.121-18.531-14-31.629-21.77-66.629-21.77-103.449 0-46.219 12.25-89.57 33.68-127 44.121 77.07 127.16 129 222.32 129s178.211-51.93 222.32-129c21.43 37.43 33.68 80.781 33.68 127zm0 0" fill="#da3f3e"/><path d="m481.262 377.699c-7.16 13.223-15.434 25.742-24.723 37.43-5.626 7.09-11.627 13.87-17.966 20.315-3.168 3.221-23.947 11.046-27.279 14.096-13.156 12.047-10.049 18.049-25.509 27.161-38.055 22.43-82.419 35.299-129.785 35.299-47.702 0-92.359-13.052-130.593-35.777-15.155-9.007-10.11-14.846-23.037-26.683-3.332-3.05-25.775-10.875-28.943-14.096-6.339-6.445-12.341-13.225-17.966-20.315-9.289-11.688-17.563-24.207-24.723-37.43zm0 0" fill="#a52020"/></g><g><path d="m119.312 153.419h22.236v40.664h-22.236z" fill="#dce0ef" transform="matrix(.707 -.707 .707 .707 -84.658 143.119)"/><path d="m110.098 414.514h40.664v22.236h-40.664z" fill="#dce0ef" transform="matrix(.707 -.707 .707 .707 -262.765 216.893)"/><path d="m361.238 162.633h40.664v22.236h-40.664z" fill="#cad0e7" transform="matrix(.707 -.707 .707 .707 -11.101 320.701)"/><path d="m370.452 405.3h22.236v40.664h-22.236z" fill="#cad0e7" transform="matrix(.707 -.707 .707 .707 -189.208 394.475)"/><path d="m256 132.531c-92.068 0-166.789 74.721-166.789 166.789s74.721 167.531 166.789 167.531 166.789-75.463 166.789-167.531-74.721-166.789-166.789-166.789zm0 312.082c-79.615 0-144.551-65.679-144.551-145.292 0-79.614 64.936-144.551 144.551-144.551s144.551 64.936 144.551 144.551c0 79.613-64.936 145.292-144.551 145.292z" fill="#fbf5eb"/><path d="m422.789 299.321c0 92.068-74.721 167.531-166.789 167.531v-22.239c79.615 0 144.551-65.679 144.551-145.292 0-79.614-64.936-144.551-144.551-144.551v-22.239c92.068 0 166.789 74.722 166.789 166.79z" fill="#dce0ef"/><path d="m100.33 177.008c-18.395 0-34.099-14.963-34.099-33.358s15.704-34.099 34.099-34.099 33.358 15.705 33.358 34.099-14.964 33.358-33.358 33.358z" fill="#8ab8ec"/><path d="m411.67 177.008c-18.395 0-33.358-14.963-33.358-33.358s14.963-34.099 33.358-34.099 34.099 15.705 34.099 34.099-15.704 33.358-34.099 33.358z" fill="#728ee4"/><path d="m100.33 422.374c-10.758 0-20.591 5.124-26.905 13.054 15.678 15.952 33.429 29.854 52.819 41.279 4.65-5.735 7.444-13.033 7.444-20.975 0-18.395-14.964-33.358-33.358-33.358z" fill="#8ab8ec"/><path d="m438.575 435.428c-6.314-7.93-16.146-13.054-26.905-13.054-18.395 0-33.358 14.963-33.358 33.358 0 7.942 2.793 15.24 7.444 20.975 19.39-11.425 37.141-25.328 52.819-41.279z" fill="#728ee4"/><path d="m256 177.008c-67.384 0-122.312 54.929-122.312 122.312 0 67.382 54.929 123.054 122.312 123.054s122.312-55.671 122.312-123.054-54.928-122.312-122.312-122.312z" fill="#abccf1"/><path d="m256 422.374v-245.366c67.384 0 122.312 54.929 122.312 122.312s-54.928 123.054-122.312 123.054z" fill="#8ab8ec"/><path d="m256 199.247c-55.151 0-100.074 44.921-100.074 100.074 0 55.151 44.922 100.815 100.074 100.815s100.074-45.664 100.074-100.815c0-55.153-44.923-100.074-100.074-100.074z" fill="#8ab8ec"/><path d="m356.074 299.321c0 55.151-44.922 100.815-100.074 100.815v-200.889c55.151 0 100.074 44.921 100.074 100.074z" fill="#728ee4"/><path d="m256 177.008c-36.026 0-55.597 62.934-55.597 122.312 0 59.377 19.57 123.054 55.597 123.054s55.596-63.677 55.596-123.054-19.57-122.312-55.596-122.312zm0 223.127c-13.565 0-33.358-39.659-33.358-100.815s19.793-100.073 33.358-100.073 33.358 38.918 33.358 100.074-19.793 100.814-33.358 100.814z" fill="#abccf1"/><path d="m311.596 299.321c0 59.377-19.57 123.054-55.596 123.054v-22.239c13.565 0 33.358-39.659 33.358-100.815s-19.793-100.074-33.358-100.074v-22.239c36.026 0 55.596 62.935 55.596 122.313z" fill="#8ab8ec"/><path d="m256 243.724c-59.377 0-122.312 19.57-122.312 55.596s62.935 55.597 122.312 55.597 122.312-19.57 122.312-55.597-62.935-55.596-122.312-55.596zm0 88.954c-61.156 0-100.074-19.793-100.074-33.358s38.917-33.358 100.074-33.358 100.074 19.793 100.074 33.358c0 13.566-38.918 33.358-100.074 33.358z" fill="#abccf1"/><path d="m378.312 299.321c0 36.026-62.936 55.597-122.312 55.597v-22.239c61.156 0 100.074-19.793 100.074-33.358s-38.917-33.358-100.074-33.358v-22.239c59.377 0 122.312 19.57 122.312 55.597z" fill="#8ab8ec"/></g></g></svg>