<svg id="Capa_1" enable-background="new 0 0 512 512" height="512" viewBox="0 0 512 512" width="512" xmlns="http://www.w3.org/2000/svg"><circle cx="256" cy="256" fill="#65b2fe" r="256"/><path d="m512 256c0 87.11-43.52 164.07-110 210.31-41.41 28.8-91.73 45.69-146 45.69s-104.59-16.89-146-45.69c-66.48-46.24-110-123.2-110-210.31 0-46.22 12.25-89.57 33.68-127 44.12 77.07 127.16 129 222.32 129s178.21-51.93 222.32-129c21.43 37.43 33.68 80.78 33.68 127z" fill="#0e9ce7"/><path d="m452 316c0 105.34-83.12 191.28-187.34 195.81-.31.02-.62.03-.93.04-.87.03-1.74.06-2.6.08-1.73.05-3.44.07-5.13.07-108.24 0-196-87.76-196-196s87.76-196 196-196h.28c108.11.15 195.72 87.85 195.72 196z" fill="#ffe853"/><path d="m452 316c0 105.34-83.12 191.28-187.34 195.81-.31.02-.62.03-.93.04-.87.03-1.74.06-2.6.08-1.73.05-3.44.07-5.13.07-58.54-45.3-103.35-116.25-103.35-196s44.81-150.7 103.35-196h.28c108.11.15 195.72 87.85 195.72 196z" fill="#fed110"/><path d="m452 316c0 108.244-87.756 196-196 196v-392c108.244 0 196 87.756 196 196z" fill="#ff9f01"/><path d="m388.982 260.025h-101.686c-7.551 0-14.022 4.054-17.563 9.981-2.745 4.596-7.662 7.449-13.015 7.449h-1.436c-5.353 0-10.27-2.854-13.015-7.449-3.54-5.927-10.012-9.981-17.563-9.981h-101.686c-21.881 0-38.571 19.573-35.115 41.179l6.814 42.592c4.019 25.118 25.688 43.596 51.126 43.596h46.208c20.889 0 38.684-15.174 41.984-35.801l6.006-37.537c1.173-7.331 7.497-12.724 14.922-12.724h2.074c7.424 0 13.749 5.393 14.922 12.724l4.758 29.742c4.019 25.118 25.688 43.596 51.126 43.596h38.314c25.437 0 47.107-18.478 51.126-43.596l6.814-42.592c3.457-21.606-13.234-41.179-35.115-41.179z" fill="#29334c"/><path d="m185.299 367.894h-40.597c-13.593 0-25.133-9.964-27.114-23.412l-7.637-51.836c-1.019-6.915 4.34-13.121 11.33-13.121h87.44c6.989 0 12.348 6.206 11.33 13.121l-7.637 51.836c-1.983 13.448-13.522 23.412-27.115 23.412z" fill="#20273a"/><path d="m326.701 367.894h40.597c13.593 0 25.133-9.964 27.114-23.412l7.637-51.836c1.019-6.915-4.34-13.121-11.33-13.121h-87.44c-6.989 0-12.348 6.206-11.33 13.121l7.637 51.836c1.983 13.448 13.522 23.412 27.115 23.412z" fill="#20273a"/><path d="m355.14 408.32c-8.59 23.74-28.64 42.79-55.06 48.98-15.21 3.56-30.43 2.37-44.08-2.62-10.05-3.68-19.26-9.41-27-16.81-4.34-4.15-.32-11.38 5.53-10 6.95 1.63 14.12 2.31 21.47 2.25 11.76-.08 23.99-2.05 36.54-4.99 20.38-4.78 38.89-11.48 53.2-23.32 4.63-3.83 11.45.86 9.4 6.51z" fill="#ed771b"/><path d="m355.14 408.32c-8.59 23.74-28.64 42.79-55.06 48.98-15.21 3.56-30.43 2.37-44.08-2.62v-24.56c11.76-.08 23.99-2.05 36.54-4.99 20.38-4.78 38.89-11.48 53.2-23.32 4.63-3.83 11.45.86 9.4 6.51z" fill="#c6601a"/><g fill="#ed771b"><path d="m229.803 244.891c-1.605-4.875-4.438-9.521-8.546-13.599-14.567-14.461-40.527-16.491-58.983-4.601-7.996 5.151-13.432 12.051-16.143 19.511-.654 1.8 1.797 3.13 3.521 1.927.018-.013.036-.025.054-.038 23.033-16.04 55.015-15.945 76.535-1.149 1.653 1.137 4.14-.296 3.562-2.051z"/><path d="m282.197 244.891c1.605-4.875 4.438-9.521 8.546-13.599 14.567-14.461 40.527-16.491 58.983-4.601 7.996 5.151 13.432 12.051 16.142 19.511.654 1.8-1.797 3.13-3.521 1.927-.018-.013-.036-.025-.054-.038-23.033-16.04-55.015-15.945-76.535-1.149-1.652 1.137-4.139-.296-3.561-2.051z"/></g></svg>