<svg height="512" viewBox="0 0 512 512" width="512" xmlns="http://www.w3.org/2000/svg"><g id="BULINE"><circle cx="256" cy="256" fill="#aa60fa" r="256"/></g><g id="Icons"><path d="m161.09 248.85v-87.22h2.51a8.69 8.69 0 0 0 8.69-8.69v-10.06a8.69 8.69 0 0 0 -8.69-8.69h-53.28a8.69 8.69 0 0 0 -8.69 8.69v10.06a8.69 8.69 0 0 0 8.69 8.69h2.51v87.22a84.88 84.88 0 1 0 48.26 0z" fill="#c5eaff"/><path d="m130.06 248.84v-56.51a19.79 19.79 0 0 1 19.79-19.79h11.24v-10.91h-33.53a8.69 8.69 0 0 1 -8.7-8.69v-10.06a8.7 8.7 0 0 1 8.7-8.69h-17.24a8.7 8.7 0 0 0 -8.69 8.7v10.05a8.68 8.68 0 0 0 8.68 8.68h2.52v87.21a84.91 84.91 0 0 0 32.75 165.87 84.9 84.9 0 0 1 -15.52-165.86z" fill="#a4e1fc"/><path d="m204.26 330.59a6.37 6.37 0 0 1 5.29 6.75 72.82 72.82 0 0 1 -145.3-1.75 6.33 6.33 0 0 1 3.54-6c8.25-4.08 29.46-12.85 52.94-8.82a108.91 108.91 0 0 0 40.23 5 85.7 85.7 0 0 1 21 .93z" fill="#db1b1b"/><circle cx="174.59" cy="343.17" fill="#e55151" r="9.48"/><circle cx="134.98" cy="356.96" fill="#e55151" r="9.48"/><circle cx="100.94" cy="331.58" fill="#e55151" r="5.64"/><circle cx="103.92" cy="378.08" fill="#e55151" r="5.64"/><circle cx="161.09" cy="385.83" fill="#e55151" r="5.64"/><ellipse cx="177.88" cy="273.7" fill="#fff" rx="7.04" ry="11.45" transform="matrix(.716 -.698 .698 .716 -140.58 202.05)"/><ellipse cx="195.18" cy="291.43" fill="#fff" rx="5.7" ry="9.27" transform="matrix(.716 -.698 .698 .716 -148.05 219.17)"/><circle cx="160.09" cy="86.91" fill="#db1b1b" r="10.61"/><circle cx="128.83" cy="62.61" fill="#db1b1b" r="10.61"/><circle cx="132.58" cy="119.17" fill="#db1b1b" r="6.87"/><circle cx="135.02" cy="248.96" fill="#db1b1b" r="10.61"/><circle cx="157.65" cy="307.04" fill="#db1b1b" r="6.87"/><circle cx="140.26" cy="183.01" fill="#db1b1b" r="6.87"/><path d="m440.37 375.05-67.2-88a46.67 46.67 0 0 1 -12.17-31.43v-111.45h-50v111.45a46.67 46.67 0 0 1 -12.19 31.44l-67.2 88a24.36 24.36 0 0 0 -6.52 15.63 23.72 23.72 0 0 0 23.71 24.45h174.37a23.72 23.72 0 0 0 23.72-24.45 24.41 24.41 0 0 0 -6.52-15.64z" fill="#c2e9ff"/><path d="m361 144.16v9.84h-8.05a25 25 0 0 0 -25 25v86.5a46.68 46.68 0 0 1 -12.2 31.44l-67.2 88a24.46 24.46 0 0 0 -6.55 15.62 23.52 23.52 0 0 0 4.42 14.44 23.72 23.72 0 0 1 -21.31-24.33 24.36 24.36 0 0 1 6.52-15.63l67.2-88a46.63 46.63 0 0 0 12.17-31.43v-111.45z" fill="#aee4fc"/><rect fill="#86e3fc" height="20.04" rx="10.02" width="71.98" x="299.59" y="124.12"/><path d="m387.78 322a8.34 8.34 0 0 0 -6.6-3.25h-90.36a8.31 8.31 0 0 0 -6.6 3.25l-39.54 51.44a19.31 19.31 0 0 0 -4 11.78 19.33 19.33 0 0 0 19.32 19.33h152a19.33 19.33 0 0 0 19.33-19.34 19.37 19.37 0 0 0 -4-11.78z" fill="#00b564"/><path d="m299.1 318.74-50.54 66.18a25.32 25.32 0 0 0 -5.51 9.58 19.37 19.37 0 0 1 1.63-21.07l39.54-51.43a8.32 8.32 0 0 1 6.6-3.25z" fill="#049e54"/><g fill="#4acc97"><circle cx="372.69" cy="339.06" r="11.71"/><circle cx="330.07" cy="386.62" r="11.71"/><circle cx="306.64" cy="336.52" r="11.71"/><circle cx="336" cy="236.15" r="11.71"/><circle cx="352.86" cy="74.73" r="11.71"/><circle cx="318.36" cy="47.92" r="11.71"/><circle cx="281.85" cy="374.91" r="7.58"/><circle cx="406.85" cy="386.62" r="7.58"/><circle cx="322.49" cy="110.33" r="7.58"/><circle cx="360.98" cy="300.25" r="7.58"/><circle cx="341.79" cy="163.36" r="7.58"/></g><ellipse cx="346.16" cy="188.87" fill="#fff" rx="8.27" ry="13.44"/><ellipse cx="346.16" cy="217.96" fill="#fff" rx="6.7" ry="10.88"/><path d="m456.54 415.13a256 256 0 0 1 -401.08 0z" fill="#4f4f74"/></g></svg>