<svg id="Capa_1" enable-background="new 0 0 512 512" height="512" viewBox="0 0 512 512" width="512" xmlns="http://www.w3.org/2000/svg"><circle cx="256" cy="256" fill="#65b2fe" r="256"/><path d="m512 256c0 87.11-43.52 164.07-110 210.31-41.41 28.8-91.73 45.69-146 45.69s-104.59-16.89-146-45.69c-66.48-46.24-110-123.2-110-210.31 0-46.22 12.25-89.57 33.68-127 44.12 77.07 127.16 129 222.32 129s178.21-51.93 222.32-129c21.43 37.43 33.68 80.78 33.68 127z" fill="#0e9ce7"/><path d="m452 316c0 105.34-83.12 191.28-187.34 195.81-.31.02-.62.03-.93.04-.87.03-1.74.06-2.6.08-1.73.05-3.44.07-5.13.07-108.24 0-196-87.76-196-196s87.76-196 196-196h.28c108.11.15 195.72 87.85 195.72 196z" fill="#ffe853"/><path d="m452 316c0 105.34-83.12 191.28-187.34 195.81-.31.02-.62.03-.93.04-.87.03-1.74.06-2.6.08-1.73.05-3.44.07-5.13.07-58.54-45.3-103.35-116.25-103.35-196s44.81-150.7 103.35-196h.28c108.11.15 195.72 87.85 195.72 196z" fill="#fed110"/><path d="m452 316c0 108.244-87.756 196-196 196v-392c108.244 0 196 87.756 196 196z" fill="#ff9f01"/><path d="m217.862 263.327-11.19-11.19c-2.85-2.85-7.472-2.85-10.322 0l-11.19 11.19c-2.85 2.85-7.472 2.85-10.322 0l-11.19-11.19c-2.85-2.85-7.472-2.85-10.322 0l-11.19 11.19c-2.85 2.85-2.85 7.472 0 10.322l11.19 11.19c2.85 2.85 2.85 7.472 0 10.322l-11.19 11.19c-2.85 2.85-2.85 7.472 0 10.322l11.19 11.19c2.85 2.85 7.472 2.85 10.322 0l11.19-11.19c2.85-2.85 7.472-2.85 10.322 0l11.19 11.19c2.85 2.85 7.472 2.85 10.322 0l11.19-11.19c2.85-2.85 2.85-7.472 0-10.322l-11.19-11.19c-2.85-2.85-2.85-7.472 0-10.322l11.19-11.19c2.851-2.85 2.851-7.471 0-10.322z" fill="#29334c"/><path d="m369.862 263.327-11.19-11.19c-2.85-2.85-7.472-2.85-10.322 0l-11.19 11.19c-2.85 2.85-7.472 2.85-10.322 0l-11.19-11.19c-2.85-2.85-7.472-2.85-10.322 0l-11.19 11.19c-2.85 2.85-2.85 7.472 0 10.322l11.19 11.19c2.85 2.85 2.85 7.472 0 10.322l-11.19 11.19c-2.85 2.85-2.85 7.472 0 10.322l11.19 11.19c2.85 2.85 7.472 2.85 10.322 0l11.19-11.19c2.85-2.85 7.472-2.85 10.322 0l11.19 11.19c2.85 2.85 7.472 2.85 10.322 0l11.19-11.19c2.85-2.85 2.85-7.472 0-10.322l-11.19-11.19c-2.85-2.85-2.85-7.472 0-10.322l11.19-11.19c2.851-2.85 2.851-7.471 0-10.322z" fill="#29334c"/><path d="m334.81 449.45h-157.62c-9.4 0-16.47-8.56-14.72-17.79 4.6-24.31 18.43-45.33 37.71-59.29h111.64c19.28 13.96 33.11 34.98 37.71 59.29 1.75 9.23-5.32 17.79-14.72 17.79z" fill="#313b5a"/><path d="m334.81 449.45h-78.81v-77.08h55.82c19.28 13.96 33.11 34.98 37.71 59.29 1.75 9.23-5.32 17.79-14.72 17.79z" fill="#29334c"/><path d="m309.26 449.45h-106.52c6.4-23.4 27.82-40.6 53.26-40.6s46.86 17.2 53.26 40.6z" fill="#ff1d56"/><path d="m309.26 449.45h-53.26v-40.6c25.44 0 46.86 17.2 53.26 40.6z" fill="#dd1265"/><path d="m311.82 372.37c-3.77 8.18-12.02 13.63-21.32 13.63h-69c-9.3 0-17.55-5.45-21.32-13.63 2.26-1.66 4.6-3.2 7.01-4.64 14.26-8.56 30.96-13.47 48.81-13.47s34.55 4.91 48.81 13.47c2.41 1.44 4.75 2.98 7.01 4.64z" fill="#fff"/><path d="m311.82 372.37c-3.77 8.18-12.02 13.63-21.32 13.63h-34.5v-31.74c17.85 0 34.55 4.91 48.81 13.47 2.41 1.44 4.75 2.98 7.01 4.64z" fill="#d1f6ff"/><path d="m217.362 178.46c-16.242 20.451-46.793 29.91-73.514 21.32-.021-.007-.042-.013-.063-.02-2.001-.645-3.955 1.344-2.802 2.874 4.777 6.339 11.996 11.344 21.15 13.927 21.13 5.963 45.356-3.583 55.048-21.676 2.733-5.102 4.081-10.374 4.188-15.506.037-1.847-2.76-2.488-4.007-.919z" fill="#ed771b"/><path d="m294.638 178.46c16.242 20.451 46.793 29.91 73.514 21.32.021-.007.042-.013.063-.02 2-.645 3.955 1.344 2.802 2.874-4.777 6.339-11.996 11.344-21.15 13.927-21.129 5.963-45.356-3.583-55.048-21.676-2.733-5.102-4.081-10.374-4.188-15.506-.038-1.847 2.76-2.488 4.007-.919z" fill="#c55835"/></svg>