<svg id="Layer_1" enable-background="new 0 0 509.791 509.791" height="512" viewBox="0 0 509.791 509.791" width="512" xmlns="http://www.w3.org/2000/svg"><g><g><g><path d="m509.791 254.896c0 31.334-5.654 61.347-15.997 89.075-36.126 96.848-130.525 150.768-239.966 150.768-140.775 0-239.14-99.068-239.14-239.843 0-78.934 21.191-149.488 77.53-196.243 44.14-36.631 100.837-58.653 162.678-58.653 140.774 0 254.895 114.121 254.895 254.896z" fill="#82cd64"/></g></g><path d="m489.197 341.098c-.035-25.446-.558-102.468-.896-150.094-.155-21.763-17.837-39.317-39.601-39.323l-73.702-.019c-23.409-.006-43.612-16.404-48.429-39.311-2.939-13.976-6.247-29.711-9.246-43.971-4.884-23.227-27.665-38.092-50.891-33.208-47.251 9.936-122.262 25.709-161.825 34.028-3.319.698-6.186-2.388-5.247-5.647l.056-.196c1.223-4.248-3.786-7.516-7.188-4.693-56.349 46.761-92.24 117.32-92.228 196.27.021 140.511 114.686 255.02 255.197 254.857 54.384-.063 104.768-17.168 146.122-46.25h.011c37.647-26.459 68.747-63.634 87.866-108.14 0 0 0-.03 0-.045 1.612-3.754 3.141-7.551 4.578-11.393.505-1.351-1.029-2.55-2.208-1.718-.021.015-.041.029-.062.044-.967.682-2.305-.007-2.307-1.191z" fill="#20b7a1"/><g><g><path d="m294.934 43.858-228.117 47.967 64.175 305.198 228.117-47.967zm-206.96 84.864c-.869-4.134 1.777-8.19 5.911-9.059s8.19 1.777 9.059 5.911-1.777 8.19-5.911 9.059c-4.134.87-8.189-1.777-9.059-5.911zm4.726 22.476c-.869-4.134 1.777-8.19 5.911-9.059s8.19 1.777 9.059 5.911-1.777 8.19-5.911 9.059-8.189-1.778-9.059-5.911zm9.325 44.346c-.869-4.134 1.777-8.19 5.911-9.059s8.19 1.777 9.059 5.911-1.777 8.19-5.911 9.059-8.19-1.777-9.059-5.911zm4.726 22.475c-.869-4.134 1.777-8.19 5.911-9.059s8.19 1.777 9.059 5.911-1.777 8.19-5.911 9.059-8.19-1.777-9.059-5.911zm9.325 44.346c-.869-4.134 1.777-8.19 5.911-9.059s8.19 1.777 9.059 5.911-1.777 8.19-5.911 9.059-8.19-1.777-9.059-5.911zm4.726 22.475c-.869-4.134 1.777-8.19 5.911-9.059s8.19 1.777 9.059 5.911-1.777 8.19-5.911 9.059c-4.134.87-8.19-1.777-9.059-5.911zm9.325 44.346c-.869-4.134 1.777-8.19 5.911-9.059s8.19 1.777 9.059 5.911-1.777 8.19-5.911 9.059c-4.134.87-8.19-1.777-9.059-5.911zm13.785 28.387c-4.134.869-8.19-1.777-9.059-5.911s1.777-8.19 5.911-9.059 8.19 1.777 9.059 5.911c.869 4.133-1.777 8.189-5.911 9.059z" fill="#fff"/></g><g><g><g><path d="m69.184 89.239h233.106v3.445h-233.106z" fill="#6ee1ff" transform="matrix(.979 -.206 .206 .979 -14.739 40.153)"/></g></g><g><g><path d="m93.31 134.489c-1.556-.457-2.93-1.406-3.919-2.696l-13.57 2.853.138.655.571 2.717z" fill="#6ee1ff"/></g><g><path d="m303.938 86.678-201.054 42.277c-.386 1.58-1.261 3.002-2.501 4.047l204.264-42.952z" fill="#6ee1ff"/></g></g><g><g><path d="m308.435 108.064-200.629 42.187c-.114 1.394-.614 2.707-1.406 3.816l202.744-42.632z" fill="#6ee1ff"/></g><g><path d="m96.287 156.194c-1.172-.696-2.158-1.697-2.824-2.927l-13.145 2.764.709 3.372z" fill="#6ee1ff"/></g></g><g><g><path d="m82.675 153.397h233.106v3.445h-233.106z" fill="#6ee1ff" transform="matrix(.979 -.206 .206 .979 -27.648 44.3)"/></g></g><g><g><path d="m103.977 199.24c-.825-.864-1.455-1.928-1.806-3.141l-12.86 2.704.709 3.372z" fill="#6ee1ff"/></g><g><path d="m117.085 192.963c.167 1.251.019 2.479-.388 3.602l201.441-42.358-.329-1.563-.38-1.809z" fill="#6ee1ff"/></g></g><g><g><path d="m321.926 172.223-200.342 42.126c.049.172.1.344.138.522.212 1.007.212 2.009.035 2.963l200.878-42.239z" fill="#6ee1ff"/></g><g><path d="m107.912 220.745c-.545-.801-.949-1.719-1.161-2.726-.037-.178-.06-.356-.084-.533l-12.858 2.704.519 2.471.189.9z" fill="#6ee1ff"/></g></g><g><g><path d="m96.166 217.555h233.107v3.445h-233.107z" fill="#6ee1ff" transform="matrix(.979 -.206 .206 .979 -40.557 48.447)"/></g></g><g><g><path d="m131.046 259.217c.091.434.135.866.151 1.294l200.431-42.145-.709-3.372-200.619 42.185c.335.627.593 1.308.746 2.038z" fill="#6ee1ff"/></g><g><path d="m116.459 263.61c-.158-.399-.291-.812-.383-1.245-.154-.73-.192-1.457-.137-2.166l-13.136 2.762.709 3.372z" fill="#6ee1ff"/></g></g><g><g><path d="m134.379 278.654c.662.873 1.152 1.896 1.393 3.039.013.061.018.122.029.183l200.325-42.123-.273-1.297-.436-2.074z" fill="#6ee1ff"/></g><g><path d="m120.849 285.019c-.014-.06-.034-.118-.047-.179-.24-1.143-.203-2.277.051-3.342l-13.553 2.85.709 3.372z" fill="#6ee1ff"/></g></g><g><g><path d="m109.657 281.713h233.106v3.445h-233.106z" fill="#6ee1ff" transform="matrix(.979 -.206 .206 .979 -53.467 52.594)"/></g></g><g><g><path d="m144.669 324.673 200.449-42.15-.709-3.372-202.028 42.481c.99.79 1.784 1.827 2.288 3.041z" fill="#6ee1ff"/></g><g><path d="m129.968 327.765c-.028-1.315.282-2.584.869-3.703l-14.544 3.058.709 3.372z" fill="#6ee1ff"/></g></g><g><g><path d="m148.87 346.122 200.746-42.212-.709-3.372-203.144 42.716c1.272.639 2.354 1.627 3.107 2.868z" fill="#6ee1ff"/></g><g><path d="m136.45 345.213-15.66 3.293.709 3.372 13.262-2.789c.19-1.439.782-2.78 1.689-3.876z" fill="#6ee1ff"/></g></g><g><g><path d="m123.147 345.871h233.106v3.445h-233.106z" fill="#6ee1ff" transform="matrix(.979 -.206 .206 .979 -66.376 56.741)"/></g></g><g><g><path d="m138.528 79.794h3.445v311.872h-3.445z" fill="#ff5551" transform="matrix(.979 -.206 .206 .979 -45.506 33.905)"/></g></g></g><g><g><path d="m242.595 169.16-.079 311.872 233.106.059.079-311.872zm20.691 275.93c-4.224-.001-7.648-3.426-7.647-7.651.001-4.224 3.426-7.648 7.651-7.647 4.224.001 7.648 3.426 7.647 7.651-.001 4.224-3.427 7.648-7.651 7.647zm.006-22.967c-4.224-.001-7.648-3.426-7.647-7.651.001-4.224 3.426-7.648 7.651-7.647 4.224.001 7.648 3.426 7.647 7.651-.002 4.225-3.427 7.648-7.651 7.647zm.011-45.316c-4.224-.001-7.648-3.426-7.647-7.651.001-4.224 3.426-7.648 7.651-7.647 4.224.001 7.648 3.426 7.647 7.651s-3.426 7.649-7.651 7.647zm.006-22.966c-4.224-.001-7.648-3.426-7.647-7.651.001-4.224 3.427-7.648 7.651-7.647s7.648 3.426 7.647 7.651c-.001 4.224-3.427 7.648-7.651 7.647zm.012-45.316c-4.224-.001-7.648-3.426-7.647-7.651.001-4.224 3.426-7.648 7.651-7.647 4.224.001 7.648 3.426 7.647 7.651-.002 4.224-3.427 7.648-7.651 7.647zm.005-22.967c-4.224-.001-7.648-3.426-7.647-7.651.001-4.224 3.426-7.648 7.651-7.647 4.224.001 7.648 3.426 7.647 7.651s-3.426 7.648-7.651 7.647zm.012-45.316c-4.224-.001-7.648-3.426-7.647-7.651.001-4.224 3.427-7.648 7.651-7.647s7.648 3.426 7.647 7.651-3.427 7.648-7.651 7.647zm.006-22.966c-4.224-.001-7.648-3.426-7.647-7.651.001-4.224 3.426-7.648 7.651-7.647 4.224.001 7.648 3.426 7.647 7.651-.001 4.224-3.427 7.648-7.651 7.647z" fill="#faf58c"/></g><g><g><path d="m242.551 344.161-.001 2.187v1.014l13.212.003c-.059-.384-.099-.775-.099-1.176 0-.702.103-1.38.28-2.026z" fill="#f8e000"/></g><g><path d="m242.545 369.216 13.115.003c0-.021-.003-.042-.003-.063 0-1.12.247-2.18.68-3.139l-13.791-.004v.818 2.385z" fill="#f8e000"/></g><g><path d="m242.533 411.898v1.026l13.269.003c.245-1.193.772-2.281 1.503-3.201l-14.771-.004z" fill="#f8e000"/></g><g><path d="m263.292 422.123c-.607 0-1.195-.079-1.762-.212l-.002 8.093c.567-.134 1.154-.212 1.762-.212.493 0 .973.051 1.44.14l.002-7.949c-.467.09-.947.14-1.44.14z" fill="#f8e000"/></g><g><path d="m242.528 434.777 13.596.003c.466-1.255 1.246-2.356 2.254-3.201l-15.85-.004v.806z" fill="#f8e000"/></g><g><path d="m261.547 353.628-.002 8.093c.567-.134 1.155-.212 1.762-.212.493 0 .973.051 1.44.14l.002-7.949c-.467.089-.947.14-1.44.139-.607.002-1.195-.077-1.762-.211z" fill="#f8e000"/></g><g><path d="m242.578 238.094 15.46.004c-.909-.875-1.603-1.97-1.992-3.202l-13.467-.003v.841 2.36z" fill="#f8e000"/></g><g><path d="m242.583 215.25v.991l16.939.004c-1.292-.748-2.342-1.862-3.013-3.202l-13.925-.004z" fill="#f8e000"/></g><g><path d="m242.561 303.656 13.642.003c-.338-.864-.53-1.801-.53-2.785 0-.141.014-.278.021-.417l-13.133-.003v.829z" fill="#f8e000"/></g><g><path d="m475.695 194.447v-.134-3.068l-233.105-.059v3.202l18.998.005-.002 7.798c.567-.134 1.155-.212 1.762-.212.493 0 .973.051 1.44.14l.002-7.725 18.653.005-.005 18.652-13.257-.003c-.672 1.34-1.722 2.453-3.015 3.201l16.271.004-.005 18.652-12.799-.003c-.39 1.232-1.085 2.326-1.994 3.201l14.792.004-.005 18.652-18.653-.005.004-16.649c-.467.089-.947.14-1.44.139-.607 0-1.195-.079-1.762-.212l-.004 16.721-18.999-.005v3.202l18.998.005-.003 10.52c.566-.134 1.155-.212 1.762-.212.493 0 .973.051 1.44.14l.003-10.447 18.653.005-.005 18.652-12.479-.003c-.105 1.163-.474 2.247-1.042 3.201l13.52.003-.005 18.652-12.465-.003c.007.139.021.276.021.417 0 .984-.193 1.921-.531 2.785l12.974.003-.005 18.652-18.653-.005.004-13.928c-.467.089-.947.14-1.44.14-.607 0-1.195-.079-1.762-.212l-.004 14-18.999-.005v3.202l18.998.005-.003 13.241c.567-.134 1.155-.212 1.762-.212.493 0 .973.051 1.44.14l.003-13.169 18.653.005-.005 18.652-12.724-.003c.177.646.279 1.323.279 2.026 0 .401-.04.792-.1 1.176l12.543.003-.005 18.652-13.123-.003c.432.959.678 2.019.678 3.139 0 .021-.003.042-.003.063l12.447.003-.005 18.652-18.653-.005.003-11.206c-.467.089-.947.14-1.44.14-.607 0-1.195-.078-1.762-.212l-.003 11.278-18.999-.005v3.202l18.998.005-.004 15.963c.566-.134 1.154-.212 1.762-.212.493 0 .973.051 1.44.14l.004-15.89 18.653.005-.005 18.652-14.102-.004c.73.92 1.257 2.009 1.501 3.202l12.6.003-.005 18.652-15.181-.004c1.007.845 1.786 1.947 2.252 3.202l12.928.003-.005 18.652-18.653-.005.002-8.485c-.467.089-.947.14-1.44.14-.607 0-1.195-.078-1.762-.212l-.002 8.557-18.999-.005-.001 3.202 233.106.059v-.18-3.021l-14.221-.004.005-18.652 14.221.004.001-2.907v-.294l-14.221-.004.005-18.652 14.222.004v-1.538-1.664l-14.221-.004.005-18.652 14.222.004v-.168-3.033l-14.221-.004.005-18.652 14.221.004.001-2.896v-.306l-14.221-.004.005-18.652 14.222.004v-1.526-1.675l-14.221-.004.005-18.652 14.222.004v-.157-3.045l-14.221-.004.005-18.652 14.222.004.001-2.884v-.318l-14.221-.004.005-18.652 14.222.004v-1.515-1.687l-14.221-.004.005-18.652 14.222.004v-.145-3.057l-14.221-.004.005-18.652 14.222.004.001-2.873v-.329l-14.221-.004.005-18.652 14.222.004v-1.503-1.699l-14.221-.004.005-18.652zm-170.465 258.998-18.652-.005.005-18.652 18.652.005zm.005-21.853-18.652-.005.005-18.652 18.652.005zm.006-21.854-18.652-.005.005-18.652 18.652.005zm.005-21.854-18.652-.005.005-18.652 18.652.005zm.006-21.854-18.652-.005.005-18.652 18.652.005zm.006-21.853-18.652-.005.005-18.652 18.652.005zm.005-21.854-18.652-.005.005-18.652 18.652.005zm.006-21.853-18.652-.005.005-18.652 18.652.005zm.005-21.854-18.652-.005.005-18.652 18.652.005zm.006-21.854-18.652-.005.005-18.652 18.652.005zm.005-21.853-18.652-.005.005-18.652 18.652.005zm.006-21.854-18.652-.005.005-18.652 18.652.005zm21.792 240.396-18.652-.005.005-18.652 18.652.005zm.006-21.854-18.652-.005.005-18.652 18.652.005zm.005-21.854-18.652-.005.005-18.652 18.652.005zm.006-21.853-18.652-.005.005-18.652 18.652.005zm.005-21.854-18.652-.005.005-18.652 18.652.005zm.006-21.853-18.652-.005.005-18.652 18.652.005zm.006-21.854-18.652-.005.005-18.652 18.652.005zm.005-21.854-18.652-.005.005-18.652 18.652.005zm.006-21.853-18.652-.005.005-18.652 18.652.005zm.005-21.854-18.652-.005.005-18.652 18.652.005zm.006-21.854-18.652-.005.005-18.652 18.652.005zm.005-21.854-18.652-.005.005-18.652 18.652.005zm21.793 240.397-18.652-.005.005-18.652 18.652.005zm.005-21.854-18.652-.005.005-18.652 18.652.005zm.006-21.854-18.652-.005.005-18.652 18.652.005zm.005-21.854-18.652-.005.005-18.652 18.652.005zm.006-21.853-18.652-.005.005-18.652 18.652.005zm.006-21.854-18.652-.005.005-18.652 18.652.005zm.005-21.854-18.652-.005.005-18.652 18.652.005zm.006-21.853-18.652-.005.005-18.652 18.652.005zm.006-21.854-18.652-.005.005-18.652 18.652.005zm.005-21.854-18.653-.005.005-18.652 18.653.005zm.006-21.853-18.652-.005.005-18.652 18.653.005zm.006-21.854-18.653-.005.005-18.652 18.653.005zm21.792 240.396-18.653-.005.005-18.652 18.653.005zm.006-21.854-18.653-.005.005-18.652 18.652.005zm.005-21.854-18.652-.005.005-18.652 18.653.005zm.006-21.853-18.652-.005.005-18.652 18.652.005zm.005-21.854-18.652-.005.005-18.652 18.652.005zm.006-21.853-18.652-.005.005-18.652 18.652.005zm.005-21.854-18.652-.005.005-18.652 18.652.005zm.006-21.854-18.652-.005.005-18.652 18.652.005zm.005-21.853-18.652-.005.005-18.652 18.652.005zm.006-21.854-18.652-.005.005-18.652 18.652.005zm.006-21.854-18.652-.005.005-18.652 18.652.005zm.005-21.854-18.652-.005.005-18.652 18.652.005zm21.792 240.397-18.652-.005.005-18.652 18.652.005zm.006-21.854-18.652-.005.005-18.652 18.652.005zm.005-21.854-18.652-.005.005-18.652 18.652.005zm.006-21.853-18.652-.005.005-18.652 18.652.005zm.006-21.854-18.652-.005.005-18.652 18.652.005zm.005-21.854-18.652-.005.005-18.652 18.652.005zm.006-21.854-18.652-.005.005-18.652 18.652.005zm.005-21.853-18.652-.005.005-18.652 18.652.005zm.006-21.854-18.652-.005.005-18.652 18.652.005zm.005-21.854-18.652-.005.005-18.652 18.652.005zm.006-21.853-18.652-.005.005-18.652 18.652.005zm.005-21.854-18.652-.005.005-18.652 18.652.005zm21.793 240.396-18.652-.005.005-18.652 18.652.005zm.005-21.854-18.652-.005.005-18.652 18.652.005zm.006-21.853-18.652-.005.005-18.652 18.652.005zm.005-21.854-18.652-.005.005-18.652 18.652.005zm.006-21.854-18.652-.005.005-18.652 18.652.005zm.005-21.853-18.652-.005.005-18.652 18.652.005zm.006-21.854-18.652-.005.005-18.652 18.652.005zm.006-21.854-18.652-.005.005-18.652 18.652.005zm.005-21.853-18.652-.005.005-18.652 18.652.005zm.006-21.854-18.652-.005.005-18.652 18.652.005zm.005-21.854-18.652-.005.005-18.652 18.652.005zm.006-21.853-18.652-.005.005-18.652 18.652.005zm21.793 240.396-18.653-.005.005-18.652 18.653.005zm.006-21.854-18.653-.005.005-18.652 18.653.005zm.005-21.854-18.653-.005.005-18.652 18.653.005zm.006-21.853-18.653-.005.005-18.652 18.653.005zm.005-21.854-18.653-.005.005-18.652 18.653.005zm.006-21.854-18.653-.005.005-18.652 18.653.005zm.005-21.853-18.653-.005.005-18.652 18.653.005zm.006-21.854-18.653-.005.005-18.652 18.653.005zm.006-21.854-18.653-.005.005-18.652 18.653.005zm.005-21.854-18.653-.005.005-18.652 18.653.005zm.006-21.853-18.653-.005.005-18.652 18.653.005zm.005-21.854-18.653-.005.005-18.652 18.653.005zm21.793 240.396-18.652-.005.005-18.652 18.652.005zm.005-21.853-18.652-.005.005-18.652 18.652.005zm.006-21.854-18.652-.005.005-18.652 18.652.005zm.005-21.854-18.652-.005.005-18.652 18.652.005zm.006-21.854-18.652-.005.005-18.652 18.652.005zm.005-21.853-18.652-.005.005-18.652 18.652.005zm.006-21.854-18.652-.005.005-18.652 18.652.005zm.005-21.854-18.652-.005.005-18.652 18.652.005zm.006-21.853-18.652-.005.005-18.652 18.652.005zm.005-21.854-18.652-.005.005-18.652 18.652.005zm.006-21.853-18.652-.005.005-18.652 18.652.005zm.006-21.854-18.652-.005.005-18.652 18.652.005z" fill="#f8e000"/></g><g><path d="m263.344 217.276c-.607 0-1.195-.079-1.762-.212l-.002 8.093c.567-.134 1.154-.212 1.762-.212.493 0 .973.051 1.44.14l.002-7.949c-.467.089-.947.14-1.44.14z" fill="#f8e000"/></g><g><path d="m242.567 280.799v1.003l14.188.004c-.567-.954-.935-2.039-1.04-3.202l-13.147-.003z" fill="#f8e000"/></g><g><path d="m261.565 285.346-.002 8.093c.566-.134 1.154-.212 1.762-.212.493 0 .973.051 1.44.14l.002-7.949c-.467.089-.947.14-1.44.139-.608.001-1.196-.077-1.762-.211z" fill="#f8e000"/></g></g><g><g><path d="m283.083 169.171h3.446v311.872h-3.446z" fill="#ff5551"/></g></g></g><g fill="#ff5551"><path d="m168.576 134.492 3.793 17.908c.356 1.681-1.339 3.414-3.97 3.971-2.412.511-4.519-.418-4.874-2.098l-.449-2.12c-1.996 3.554-4.843 7.059-9.888 8.127-5.189 1.099-10.152-1.057-11.561-7.709-1.781-8.406 4.668-12.215 14.755-14.352l2.996-.635-.201-.951c-.666-3.143-3.032-6.383-7.857-5.361-5.628 1.192-6.099 3.659-7.853 4.031-2.12.449-3.758-1.878-4.206-3.997-.635-2.997 5.39-6.64 10.58-7.74 11.404-2.414 17.172 3.543 18.735 10.926zm-8.159 7.99-1.096.232c-4.897 1.038-9.393 2.525-8.526 6.618.573 2.705 2.516 3.591 4.71 3.127 2.996-.635 5.996-4.86 5.237-8.441z"/><path d="m178.495 99.856 4.754 22.439c.931-3.176 3.648-6.576 8.179-7.536 7.163-1.517 14.435 3.968 16.153 12.081l1.269 5.994c1.657 7.821-2.82 16.253-9.617 17.693-4.606.975-9.287-.935-11.383-3.622l.449 2.12c.31 1.462-1.266 3.399-3.605 3.894-2.705.573-4.93-.559-5.24-2.021l-10.388-49.045c-.372-1.755 1.281-3.326 3.985-3.899 2.633-.557 5.073.148 5.444 1.902zm19.658 28.982c-.697-3.289-4.244-5.975-7.826-5.216-3.143.665-5.979 3.863-5.112 7.956l1.548 7.309c.325 1.535 3.997 4.805 7.724 4.016 3.509-.743 5.647-4.709 4.935-8.072z"/><path d="m213.744 131.797-1.239-5.847c-1.781-8.407 1.577-15.99 12.614-18.328 6.871-1.455 12.298.373 12.902 3.224.372 1.754-.487 4.915-2.752 5.395-1.609.341-3.358-1.428-7.67-.514-4.97 1.053-6.564 3.987-5.666 8.226l1.239 5.847c.898 4.239 3.544 6.275 8.587 5.207 4.386-.929 5.018-3.354 6.845-3.741 2.558-.542 4.578 1.779 4.965 3.607.62 2.923-3.92 7.092-10.791 8.547-11.036 2.339-17.222-3.071-19.034-11.623z"/></g><g fill="#ff5551"><path d="m339.096 201.016c8.667 0 16.736 5.678 16.736 15.167 0 16.138-23.685 21.368-23.685 29.139v1.793h20.771c1.645 0 3.064 1.943 3.064 4.184 0 2.242-1.42 4.334-3.064 4.334h-26.598c-1.719 0-4.259-1.195-4.259-3.063v-7.248c0-11.954 24.058-18.305 24.058-28.839 0-3.064-2.018-6.65-6.949-6.65-3.661 0-6.649 1.943-6.649 6.575 0 1.793-1.868 3.586-5.081 3.586-2.54 0-4.408-1.195-4.408-5.23.001-8.519 7.771-13.748 16.064-13.748z"/><path d="m429.64 239.494v-1.42c0-5.529-3.437-7.098-8.219-7.098-2.167 0-2.914-1.868-2.914-3.81 0-1.868.747-3.81 2.914-3.81 3.735 0 6.873-.896 6.873-7.322 0-4.931-2.54-6.575-6.574-6.575-4.857 0-6.65 2.017-6.65 5.006 0 2.242-1.045 3.736-4.632 3.736-4.334 0-5.006-1.046-5.006-4.184 0-5.305 3.735-13 16.362-13 9.04 0 15.765 3.437 15.765 13.374 0 5.903-2.167 10.684-5.827 12.402 4.408 1.719 7.621 5.081 7.621 11.282v1.42c0 12.029-8.069 16.587-17.931 16.587-12.253 0-17.184-7.546-17.184-13.598 0-2.989 1.269-3.81 4.632-3.81 3.96 0 5.006 1.046 5.006 3.437 0 3.362 2.989 5.454 7.771 5.454 5.602-.002 7.993-2.393 7.993-8.071z"/></g><g><path d="m376.262 243.843v-7.994h-7.994c-1.794 0-2.989-1.569-2.989-3.96 0-2.241 1.195-4.034 2.989-4.034h7.994v-7.92c0-1.569 1.794-3.063 4.035-3.063 2.391 0 3.959 1.494 3.959 3.063v7.92h7.92c1.569 0 3.138 1.793 3.138 4.034 0 2.391-1.57 3.96-3.138 3.96h-7.92v7.994c0 1.793-1.569 2.989-3.959 2.989-2.242 0-4.035-1.196-4.035-2.989z" fill="#ff5551"/></g></g></g></svg>