<?xml version="1.0" encoding="iso-8859-1"?>
<!-- Generator: Adobe Illustrator 19.0.0, SVG Export Plug-In . SVG Version: 6.00 Build 0)  -->
<svg version="1.1" id="Capa_1" xmlns="http://www.w3.org/2000/svg" xmlns:xlink="http://www.w3.org/1999/xlink" x="0px" y="0px"
	 viewBox="0 0 512 512" style="enable-background:new 0 0 512 512;" xml:space="preserve">
<path style="fill:#313B57;" d="M512,256c0,35.934-7.408,70.144-20.773,101.177c-5.078,11.797-11.024,23.145-17.753,33.938
	c-1.881,3.041-3.835,6.019-5.831,8.965l-0.01,0.01c-1.421,2.079-2.863,4.127-4.336,6.154c-5.047,6.959-10.439,13.646-16.154,20.041
	c-2.727,3.051-5.517,6.039-8.391,8.965c-10.25,10.459-21.4,20.041-33.322,28.63c-2.341,1.693-4.723,3.344-7.126,4.953
	c-4.326,2.894-8.746,5.663-13.26,8.307c-2.748,1.599-5.517,3.156-8.328,4.66c-12.904,6.917-26.467,12.758-40.573,17.398
	c-2.006,0.658-4.012,1.296-6.04,1.902c-13.04,3.939-26.52,6.865-40.344,8.694c-4.514,0.596-9.07,1.066-13.657,1.421
	C269.479,511.739,262.771,512,256,512c-6.771,0-13.469-0.261-20.104-0.784c-4.368-0.334-8.704-0.784-13.009-1.337
	c-13.887-1.797-27.418-4.702-40.5-8.62c-3.459-1.034-6.886-2.142-10.282-3.323c-11.87-4.117-23.343-9.08-34.346-14.817
	c-4.963-2.591-9.822-5.329-14.576-8.223c-4.974-3.03-9.832-6.217-14.576-9.571c-1.766-1.243-3.521-2.508-5.245-3.803
	c-12.518-9.3-24.158-19.717-34.764-31.117c-3.03-3.25-5.977-6.583-8.829-9.989c-8.944-10.658-17.032-22.047-24.158-34.085
	c-5.778-9.738-10.919-19.895-15.381-30.407C7.21,325.214,0,291.453,0,256C0,114.615,114.615,0,256,0S512,114.615,512,256z"/>
<path style="fill:#535454;" d="M172.105,376.153v121.783c-68.472-23.74-123.737-75.724-151.876-142.012l35.537-13.908h58.169
	l47.585,18.62C167.905,363.133,172.105,369.288,172.105,376.153z"/>
<g>
	<path style="fill:#898989;" d="M59.768,355.997v64.418c-8.944-10.658-17.032-22.047-24.158-34.085l20.156-44.314L59.768,355.997z"
		/>
	<path style="fill:#898989;" d="M138.177,419.673l-14.994,55.223c-4.974-3.03-9.832-6.217-14.576-9.571V355.997l3.992-13.981
		l23.709,52.13l-12.967,10.679L138.177,419.673z"/>
</g>
<path style="fill:#FFFFFF;" d="M121.096,368.478L92.294,210.319c-1.692-9.291-15.012-9.291-16.704,0L46.786,368.478
	c-0.877,4.815,5.07,7.8,8.406,4.219l28.748-30.847l28.748,30.847C116.028,376.277,121.974,373.293,121.096,368.478z"/>
<g>
	<circle style="fill:#E8AA72;" cx="29.508" cy="275.926" r="18.284"/>
	<circle style="fill:#E8AA72;" cx="138.062" cy="275.926" r="18.284"/>
</g>
<path style="fill:#F6CE9F;" d="M83.942,342.228L83.942,342.228c-30.062,0-54.432-24.37-54.432-54.432v-69.873h108.864v69.873
	C138.374,317.858,114.004,342.228,83.942,342.228z"/>
<path style="fill:#E9B787;" d="M91.728,341.671c-2.544,0.368-5.139,0.554-7.784,0.554c-30.064,0-54.435-24.365-54.435-54.429
	v-69.873h15.574v69.873C45.084,315.214,65.356,337.895,91.728,341.671z"/>
<g>
	<path style="fill:#863924;" d="M41.009,229.734l-16.847,8.479v38.581l0,0c9.305,0,16.847-7.543,16.847-16.847V229.734z"/>
	<path style="fill:#863924;" d="M126.874,200.056h16.847v76.738l0,0c-9.305,0-16.847-7.543-16.847-16.847V200.056z"/>
</g>
<path style="fill:#FFFFFF;" d="M108.607,343.406v121.919c-18.16-12.8-34.586-27.909-48.839-44.91v-77.009L108.607,343.406
	L108.607,343.406z"/>
<path style="fill:#92482F;" d="M118.956,238.214H24.162l0,0c0-30.097,24.398-54.497,54.497-54.497h94.794l0,0
	C173.453,213.814,149.055,238.214,118.956,238.214z"/>
<path style="fill:#863924;" d="M104.216,183.717H78.658c-30.097,0-54.497,24.399-54.497,54.497l0,0h25.558l0,0
	C49.719,208.116,74.119,183.717,104.216,183.717z"/>
<g>
	<path style="fill:#666666;" d="M70.687,278.066c0-5.619-4.556-10.175-10.175-10.175s-10.175,4.556-10.175,10.175H70.687z"/>
	<path style="fill:#666666;" d="M117.323,278.066c0-5.619-4.556-10.175-10.175-10.175s-10.175,4.556-10.175,10.175H117.323z"/>
</g>
<g>
	
		<rect x="69.11" y="348.379" transform="matrix(0.7071 -0.7071 0.7071 0.7071 -232.2455 165.7446)" style="fill:#F64C4C;" width="29.678" height="29.678"/>
	<path style="fill:#F64C4C;" d="M104.929,459.954l-1.567,1.567c-12.518-9.3-24.158-19.717-34.764-31.117l15.35-80.374
		L104.929,459.954z"/>
</g>
<g>
	<polyline style="fill:#E9B787;" points="83.942,266.204 75.548,301.815 83.942,301.815 	"/>
	<path style="fill:#E9B787;" d="M83.942,318.096c-5.655,0-11.309-0.845-16.807-2.537c-1.41-0.434-2.201-1.928-1.767-3.337
		c0.434-1.41,1.929-2.202,3.338-1.767c9.967,3.067,20.503,3.067,30.472,0c1.409-0.434,2.905,0.357,3.338,1.767
		c0.434,1.41-0.357,2.904-1.768,3.337C95.251,317.25,89.597,318.096,83.942,318.096z"/>
</g>
<path style="fill:#535454;" d="M491.227,357.177C462.42,424.072,405.901,476.233,336.144,499.2V376.153
	c0-6.865,4.2-13.019,10.585-15.517l47.585-18.62h58.169L491.227,357.177z"/>
<g>
	<path style="fill:#898989;" d="M398.305,355.997v112.839c-4.326,2.894-8.746,5.663-13.26,8.307h-0.711l-15.6-57.469l14.838-14.848
		l-12.967-10.679l23.709-52.13L398.305,355.997z"/>
	<path style="fill:#898989;" d="M473.475,391.116c-1.881,3.041-3.835,6.019-5.831,8.965l-0.01,0.01l-5.757,4.733l1.421,1.421
		c-5.047,6.959-10.439,13.646-16.154,20.041v-70.29l4.002-13.981L473.475,391.116z"/>
</g>
<path style="fill:#FFFFFF;" d="M459.64,368.478L430.838,210.32c-1.692-9.291-15.012-9.291-16.704,0l-28.803,158.158
	c-0.877,4.815,5.07,7.8,8.406,4.219l28.748-30.847l28.748,30.847C454.571,376.277,460.517,373.293,459.64,368.478z"/>
<g>
	<circle style="fill:#E8AA72;" cx="368.055" cy="275.926" r="18.284"/>
	<circle style="fill:#E8AA72;" cx="476.609" cy="275.926" r="18.284"/>
</g>
<path style="fill:#F6CE9F;" d="M422.486,342.228L422.486,342.228c-30.062,0-54.432-24.37-54.432-54.432v-69.873h108.864v69.873
	C476.918,317.858,452.547,342.228,422.486,342.228z"/>
<path style="fill:#E9B787;" d="M430.272,341.671c-2.544,0.368-5.139,0.554-7.785,0.554c-30.064,0-54.435-24.365-54.435-54.429
	v-69.873h15.574v69.873C383.628,315.214,403.9,337.895,430.272,341.671z"/>
<g>
	<path style="fill:#863924;" d="M379.553,229.734l-16.847,8.479v38.581l0,0c9.305,0,16.847-7.543,16.847-16.847V229.734z"/>
	<path style="fill:#863924;" d="M465.417,200.056h16.847v76.738l0,0c-9.305,0-16.847-7.543-16.847-16.847V200.056z"/>
</g>
<path style="fill:#FFFFFF;" d="M447.143,343.406v82.881c-14.388,16.144-30.804,30.459-48.839,42.548v-125.43H447.143z"/>
<path style="fill:#92482F;" d="M457.5,238.214h-94.794l0,0c0-30.097,24.398-54.497,54.497-54.497h94.794l0,0
	C511.997,213.814,487.597,238.214,457.5,238.214z"/>
<path style="fill:#863924;" d="M442.76,183.717h-25.558c-30.097,0-54.497,24.399-54.497,54.497l0,0h25.558l0,0
	C388.263,208.116,412.663,183.717,442.76,183.717z"/>
<g>
	<path style="fill:#666666;" d="M409.231,278.066c0-5.619-4.556-10.175-10.175-10.175c-5.619,0-10.175,4.556-10.175,10.175H409.231z
		"/>
	<path style="fill:#666666;" d="M455.867,278.066c0-5.619-4.556-10.175-10.175-10.175c-5.619,0-10.175,4.556-10.175,10.175H455.867z
		"/>
</g>
<g>
	
		<rect x="407.653" y="348.372" transform="matrix(0.7071 -0.7071 0.7071 0.7071 -133.0835 405.129)" style="fill:#F64C4C;" width="29.678" height="29.678"/>
	<path style="fill:#F64C4C;" d="M438.753,435.252c-10.25,10.459-21.4,20.041-33.322,28.63l-3.929-3.929l20.982-109.923
		L438.753,435.252z"/>
</g>
<g>
	<polyline style="fill:#E9B787;" points="422.486,266.204 414.092,301.815 422.486,301.815 	"/>
	<path style="fill:#E9B787;" d="M422.486,318.096c-5.655,0-11.309-0.845-16.807-2.537c-1.41-0.434-2.201-1.928-1.767-3.337
		c0.434-1.41,1.929-2.202,3.338-1.767c9.967,3.067,20.503,3.067,30.472,0c1.409-0.434,2.905,0.357,3.338,1.767
		c0.434,1.41-0.357,2.904-1.768,3.337C433.795,317.25,428.141,318.096,422.486,318.096z"/>
</g>
<path style="fill:#666666;" d="M376.717,441.668v40.135c-12.904,6.917-26.467,12.758-40.573,17.398
	C310.93,507.507,283.993,512,256,512c-29.383,0-57.616-4.953-83.895-14.064c-11.87-4.117-23.343-9.08-34.346-14.817v-41.451
	c0-9.394,5.757-17.826,14.503-21.253l65.149-25.495h79.653l65.149,25.495C370.96,423.842,376.717,432.274,376.717,441.668z"/>
<g>
	<path style="fill:#898989;" d="M222.887,414.062v95.817c-13.887-1.797-27.418-4.702-40.5-8.62l20.323-20.323l-17.763-14.629
		l32.465-71.387L222.887,414.062z"/>
	<path style="fill:#898989;" d="M330.104,501.102c-13.04,3.939-26.52,6.865-40.344,8.694v-95.734l5.475-19.143l32.465,71.387
		l-17.763,14.629L330.104,501.102z"/>
</g>
<path style="fill:#FFFFFF;" d="M306.871,431.158L267.43,214.588c-2.317-12.723-20.556-12.723-22.874,0l-39.441,216.571
	c-1.201,6.593,6.942,10.68,11.512,5.777l39.367-42.241l39.367,42.241C299.929,441.839,308.071,437.752,306.871,431.158z"/>
<g>
	<circle style="fill:#E8AA72;" cx="181.457" cy="304.421" r="25.036"/>
	<circle style="fill:#E8AA72;" cx="330.115" cy="304.421" r="25.036"/>
</g>
<path style="fill:#F6CE9F;" d="M255.994,395.214L255.994,395.214c-41.165,0-74.536-33.371-74.536-74.535v-95.68h149.07v95.68
	C330.528,361.843,297.157,395.214,255.994,395.214z"/>
<path style="fill:#E9B787;" d="M266.656,394.451c-3.484,0.503-7.036,0.759-10.659,0.759c-41.167,0-74.539-33.364-74.539-74.532
	v-95.679h21.326v95.68C202.784,358.223,230.544,389.281,266.656,394.451z"/>
<g>
	<path style="fill:#863924;" d="M197.205,241.173l-23.069,11.611v52.83l0,0c12.74,0,23.069-10.329,23.069-23.069V241.173z"/>
	<path style="fill:#863924;" d="M314.782,200.535h23.069v105.08l0,0c-12.74,0-23.069-10.329-23.069-23.069V200.535z"/>
</g>
<path style="fill:#FFFFFF;" d="M289.761,396.831v112.964c-4.514,0.596-9.07,1.066-13.657,1.421C269.479,511.739,262.771,512,256,512
	c-6.771,0-13.469-0.261-20.104-0.784c-4.368-0.334-8.704-0.784-13.009-1.337V396.831H289.761z"/>
<path style="fill:#92482F;" d="M303.94,252.784H174.135l0,0c0-41.214,33.41-74.623,74.623-74.623h129.805l0,0
	C378.563,219.374,345.154,252.784,303.94,252.784z"/>
<path style="fill:#863924;" d="M283.756,178.16h-34.997c-41.214,0-74.623,33.411-74.623,74.623l0,0h34.997l0,0
	C209.132,211.571,242.543,178.16,283.756,178.16z"/>
<g>
	<path style="fill:#666666;" d="M237.844,307.356c0-7.695-6.238-13.934-13.934-13.934c-7.695,0-13.934,6.238-13.934,13.934H237.844z
		"/>
	<path style="fill:#666666;" d="M301.704,307.356c0-7.695-6.238-13.934-13.934-13.934c-7.696,0-13.934,6.238-13.934,13.934H301.704z
		"/>
</g>
<g>
	
		<rect x="235.686" y="403.625" transform="matrix(0.7071 -0.7071 0.7071 0.7071 -224.7918 305.193)" style="fill:#F64C4C;" width="40.638" height="40.638"/>
	<path style="fill:#F64C4C;" d="M256,512c-6.771,0-13.469-0.261-20.104-0.784L256,405.891l20.104,105.326
		C269.479,511.739,262.771,512,256,512z"/>
</g>
<g>
	<polyline style="fill:#E9B787;" points="255.993,291.112 244.499,339.874 255.993,339.874 	"/>
	<path style="fill:#E9B787;" d="M255.994,362.169c-7.743,0-15.486-1.158-23.014-3.473c-1.93-0.594-3.013-2.64-2.42-4.57
		c0.593-1.931,2.641-3.015,4.571-2.42c13.65,4.199,28.076,4.199,41.726,0c1.929-0.594,3.978,0.49,4.571,2.42
		c0.594,1.93-0.49,3.977-2.42,4.57C271.479,361.011,263.736,362.169,255.994,362.169z"/>
</g>
<g>
	<path style="fill:#F64C4C;" d="M336.068,113.776H175.925c-11.163,0-20.211-9.049-20.211-20.211V20.213
		c0-11.163,9.049-20.211,20.211-20.211h160.143c11.163,0,20.211,9.049,20.211,20.211v73.352
		C356.28,104.726,347.231,113.776,336.068,113.776z"/>
	
		<rect x="227.635" y="85.416" transform="matrix(-0.7071 -0.7071 0.7071 -0.7071 356.5569 375.2394)" style="fill:#F64C4C;" width="56.717" height="56.717"/>
</g>
<path style="fill:#FDD142;" d="M108.558,69.446H12.677c-6.683,0-12.101,5.418-12.101,12.101v43.917
	c0,6.683,5.418,12.101,12.101,12.101h77.185l30.797,24.013v-24.013V81.547C120.659,74.864,115.241,69.446,108.558,69.446z"/>
<path style="fill:#50B4A3;" d="M404.015,69.446h95.881c6.683,0,12.101,5.418,12.101,12.101v43.917
	c0,6.683-5.418,12.101-12.101,12.101h-77.185l-30.797,24.013v-24.013V81.547C391.913,74.864,397.331,69.446,404.015,69.446z"/>
<g>
	<path style="fill:#FFFFFF;" d="M320.959,34.044H191.035c-3.942,0-7.139-3.196-7.139-7.139s3.196-7.139,7.139-7.139h129.925
		c3.943,0,7.139,3.196,7.139,7.139S324.903,34.044,320.959,34.044z"/>
	<path style="fill:#FFFFFF;" d="M320.959,64.027H191.035c-3.942,0-7.139-3.196-7.139-7.139s3.196-7.139,7.139-7.139h129.925
		c3.943,0,7.139,3.196,7.139,7.139C328.098,60.831,324.903,64.027,320.959,64.027z"/>
	<path style="fill:#FFFFFF;" d="M250.534,94.009h-59.501c-3.942,0-7.139-3.196-7.139-7.139c0-3.942,3.196-7.139,7.139-7.139h59.501
		c3.943,0,7.139,3.196,7.139,7.139C257.673,90.813,254.478,94.009,250.534,94.009z"/>
</g>
<g>
	<path style="fill:#666666;" d="M87.618,100.377H24.42c-3.547,0-6.423-2.876-6.423-6.423s2.876-6.423,6.423-6.423h63.199
		c3.547,0,6.423,2.876,6.423,6.423S91.165,100.377,87.618,100.377z"/>
	<path style="fill:#666666;" d="M66.719,122.128H24.42c-3.547,0-6.423-2.876-6.423-6.423s2.876-6.423,6.423-6.423h42.299
		c3.547,0,6.423,2.876,6.423,6.423S70.266,122.128,66.719,122.128z"/>
	<path style="fill:#666666;" d="M483.788,100.377h-63.199c-3.547,0-6.423-2.876-6.423-6.423s2.876-6.423,6.423-6.423h63.199
		c3.547,0,6.423,2.876,6.423,6.423S487.335,100.377,483.788,100.377z"/>
	<path style="fill:#666666;" d="M462.889,122.128H420.59c-3.547,0-6.423-2.876-6.423-6.423s2.876-6.423,6.423-6.423h42.299
		c3.547,0,6.423,2.876,6.423,6.423S466.436,122.128,462.889,122.128z"/>
</g>
<g>
</g>
<g>
</g>
<g>
</g>
<g>
</g>
<g>
</g>
<g>
</g>
<g>
</g>
<g>
</g>
<g>
</g>
<g>
</g>
<g>
</g>
<g>
</g>
<g>
</g>
<g>
</g>
<g>
</g>
</svg>
