<svg id="Capa_1" enable-background="new 0 0 512 512" height="512" viewBox="0 0 512 512" width="512" xmlns="http://www.w3.org/2000/svg"><circle cx="256" cy="256" fill="#6c82ff" r="256"/><path d="m512 256c0 87.11-43.52 164.07-110 210.31-41.41 28.8-91.73 45.69-146 45.69s-104.59-16.89-146-45.69c-66.48-46.24-110-123.2-110-210.31 0-46.22 12.25-89.57 33.68-127 44.12 77.07 127.16 129 222.32 129s178.21-51.93 222.32-129c21.43 37.43 33.68 80.78 33.68 127z" fill="#4d6df4"/><path d="m406.65 463c-42.27 30.81-94.34 49-150.65 49h-.3c-25.57-.03-50.27-3.81-73.56-10.82-27.9-8.39-53.79-21.42-76.78-38.18z" fill="#374c81"/><path d="m406.65 463c-42.27 30.81-94.34 49-150.65 49h-.3c-25.57-.03-50.27-3.81-73.56-10.82v-38.18z" fill="#234177"/><path d="m406.65 463c-42.27 30.81-94.34 49-150.65 49h-.3v-49z" fill="#16325b"/><path d="m287.92 46.451h51.648v192.67h-51.648z" fill="#234177" transform="matrix(.707 .707 -.707 .707 192.859 -180.03)"/><path d="m308.541 54.992h27.489v192.67h-27.489z" fill="#16325b" transform="matrix(.707 .707 -.707 .707 201.4 -183.568)"/><path d="m237.207 75.804h89.658v192.67h-89.658z" fill="#fff" transform="matrix(.707 .707 -.707 .707 204.327 -149.011)"/><path d="m254.85 83.112h68.988v192.67h-68.988z" fill="#d1f6ff" transform="matrix(.707 .707 -.707 .707 211.635 -152.038)"/><path d="m391.196 366.706-46.325 46.325c-51.896 51.896-136.037 51.896-187.933 0l-26.975-26.975c-26.152-26.152-26.152-68.553 0-94.705l31.7-31.7 32.862 32.862-33.322 33.322c-7.107 7.107-7.107 18.629 0 25.735l26.975 26.975c34.643 34.643 90.811 34.643 125.454 0l48.495-48.495c12.415-12.415 12.415-32.545 0-44.96l-96.52-96.52 32.862-32.862 92.728 92.728c32.659 32.659 32.659 85.61-.001 118.27z" fill="#8fc8f5"/><path d="m391.196 366.706-46.325 46.325c-51.896 51.896-136.037 51.896-187.933 0l-26.975-26.975c-26.152-26.152-26.152-68.553 0-94.705l31.7-31.7 16.431 16.431-31.522 31.522c-17.176 17.176-17.176 45.023 0 62.199l26.975 26.975c42.723 42.723 111.992 42.723 154.715 0l49.043-49.043c22.182-22.182 22.182-58.146 0-80.328l-95.268-95.268 16.431-16.431 92.728 92.728c32.66 32.659 32.66 85.61 0 118.27z" fill="#65b2fe"/><path d="m318.334 353.987-14.631 14.631c-29.16 29.16-76.438 29.16-105.598 0l-26.975-26.975c-1.624-1.624-1.624-4.257 0-5.881l43.249-43.249-52.717-52.717-41.627 41.627c-31.635 31.635-31.635 82.925 0 114.56l26.975 26.975c27.752 27.752 64.647 43.033 103.893 43.036 39.247-.003 76.142-15.285 103.893-43.036l16.254-16.254c5.439-5.439 5.439-14.257 0-19.696l-33.021-33.021c-5.438-5.439-14.257-5.439-19.695 0z" fill="#8fc8f5"/><path d="m371.05 387.008c5.439 5.439 5.439 14.257 0 19.696l-16.254 16.254c-27.752 27.752-64.647 43.033-103.893 43.036-39.247-.003-76.142-15.284-103.893-43.036l-26.975-26.975c-31.635-31.635-31.635-82.925 0-114.56l41.627-41.627 26.358 26.358-41.449 41.449c-17.176 17.176-17.176 45.023 0 62.199l26.975 26.975c42.725 42.725 111.993 42.721 154.714 0l26.28-26.28z" fill="#d1f6ff"/><path d="m158.905 200.497h46.475v143.072h-46.475z" fill="#234177" transform="matrix(.707 -.707 .707 .707 -139.009 208.471)"/><path d="m275.471 91.654h44.829v192.67h-44.829z" fill="#8fc8f5" transform="matrix(.707 .707 -.707 .707 220.177 -155.576)"/><circle cx="313.735" cy="203.838" fill="#374c81" r="43.177"/><path d="m313.735 160.661v86.354c23.846 0 43.177-19.331 43.177-43.177s-19.331-43.177-43.177-43.177z" fill="#234177"/><path d="m331.656 203.837c0 9.9-8.026 17.922-17.922 17.922-9.895 0-17.922-8.022-17.922-17.922 0-9.895 8.027-17.917 17.922-17.917 9.896 0 17.922 8.022 17.922 17.917z" fill="#fff"/><path d="m331.656 203.837c0 9.9-8.026 17.922-17.922 17.922v-35.839c9.896 0 17.922 8.022 17.922 17.917z" fill="#d1f6ff"/><circle cx="255.704" cy="430.911" fill="#374c81" r="43.177"/><path d="m255.704 387.734v86.354c23.846 0 43.177-19.331 43.177-43.177s-19.331-43.177-43.177-43.177z" fill="#234177"/><path d="m273.625 430.91c0 9.9-8.026 17.922-17.922 17.922-9.895 0-17.922-8.022-17.922-17.922 0-9.895 8.027-17.917 17.922-17.917 9.896 0 17.922 8.022 17.922 17.917z" fill="#fff"/><path d="m273.625 430.91c0 9.9-8.026 17.922-17.922 17.922v-35.839c9.896 0 17.922 8.022 17.922 17.917z" fill="#d1f6ff"/><path d="m184.197 261.558h46.475v71.536h-46.475z" fill="#16325b" transform="matrix(.707 -.707 .707 .707 -149.485 233.762)"/></svg>