<svg id="Icons" enable-background="new 0 0 512 512" height="512" viewBox="0 0 512 512" width="512" xmlns="http://www.w3.org/2000/svg"><g><circle cx="256" cy="256" fill="#f39e22" r="256"/><g><g><path d="m347.708 180.816c1.808 1.808 3.299 3.813 4.473 5.947 2.219 3.985 3.325 8.432 3.325 12.888 0 6.821-2.605 13.642-7.807 18.844l-107.202 107.201c-10.403 10.403-27.268 10.403-37.671 0-5.202-5.202-7.807-12.023-7.807-18.844 0-3.719.771-7.421 2.314-10.866 1.285-2.896 3.111-5.596 5.484-7.969l107.203-107.201c10.403-10.404 27.284-10.404 37.688 0z" fill="#a26d5a"/><path d="m347.708 180.816c1.808 1.808 3.299 3.813 4.473 5.947-1.285 2.896-3.111 5.596-5.484 7.97l-107.21 107.21c-10.403 10.403-27.268 10.403-37.671 0-1.808-1.808-3.308-3.822-4.482-5.956 1.285-2.896 3.111-5.596 5.484-7.969l107.202-107.202c10.403-10.404 27.284-10.404 37.688 0z" fill="#c17e62"/><path d="m316.523 207.316-57.802 57.802c-4.557 4.557-11.945 4.557-16.502 0-4.557-4.557-4.557-11.945 0-16.502l57.802-57.802c4.557-4.557 11.945-4.557 16.502 0 4.557 4.557 4.557 11.945 0 16.502z" fill="#d48d77"/><path d="m430.461 354.9-106.328-92.12-11.106-9.615-37.851 37.851 101.736 117.434c14.431 16.659 39.959 17.576 55.538 1.997l.009-.009c8.741-8.741 12.288-20.618 10.763-31.912-1.175-8.835-5.451-17.293-12.761-23.626zm-39.247 39.556c-2.519-2.519-4.139-5.613-4.824-8.869-1.243-5.716.368-11.937 4.816-16.384 6.975-6.975 18.287-6.976 25.262 0 6.975 6.975 6.975 18.287 0 25.262-1.988 1.988-4.336 3.411-6.821 4.268-6.248 2.133-13.446.711-18.433-4.277z" fill="#a26d5a"/><path d="m443.221 378.526c-1.585 3.916-3.976 7.592-7.164 10.78-7.258 7.258-17.01 10.36-26.41 9.426 2.485-.857 4.833-2.279 6.821-4.268 6.975-6.975 6.975-18.287 0-25.262-6.976-6.976-18.287-6.975-25.262 0-4.447 4.447-6.059 10.669-4.816 16.384l-87.578-97.484 25.322-25.322 106.328 92.12c7.309 6.333 11.585 14.791 12.759 23.626z" fill="#c17e62"/><g><path d="m392.098 346.573c-3.408 3.408-8.929 3.571-12.534.295l-49.329-44.823c-3.715-3.375-3.99-9.124-.614-12.839 3.378-3.726 9.124-3.99 12.839-.614l49.329 44.823c3.715 3.375 3.991 9.124.614 12.839-.1.108-.202.215-.305.319z" fill="#d48d77"/></g></g><g><path d="m230.103 55.241c9.143 9.143 11.166 22.7 6.084 33.797-1.448 3.162-3.47 6.127-6.076 8.732l-110.338 110.339c-.283.283-.566.548-.866.814l18.501 18.501c5.69 5.69 5.69 14.911 0 20.601l-13.06 13.06c-6.967 6.967-18.69 5.15-23.231-3.591l-2.545-4.91-6.693-12.897-18.904-36.454c-.3-.591-.548-1.2-.771-1.817-6.35-11.44-4.679-26.136 5.03-35.845l110.339-110.338c5.87-5.87 13.565-8.801 21.26-8.801 7.696 0 15.4 2.939 21.27 8.809z" fill="#d7156f"/><path d="m228.577 70.477c5.116 5.116 7.652 11.851 7.609 18.561-1.448 3.162-3.47 6.127-6.076 8.732l-110.337 110.339c-.283.283-.566.548-.866.814l18.501 18.501c5.69 5.69 5.69 14.911 0 20.601l-.103.103c-6.007 6.007-16.127 4.439-20.035-3.102l-24.294-46.831c-.257-.514-.48-1.028-.668-1.56-5.476-9.88-4.036-22.563 4.345-30.944l95.213-95.213c5.073-5.073 11.714-7.601 18.355-7.61 6.642.008 13.292 2.545 18.356 7.609z" fill="#b82065"/><g fill="#df3d81"><path d="m185.454 96.724-42.18 42.18c-5.436 5.436-14.25 5.436-19.686 0-5.436-5.436-5.436-14.25 0-19.686l42.18-42.18c5.436-5.436 14.25-5.436 19.686 0 5.436 5.437 5.436 14.25 0 19.686z"/><path d="m114.846 231.374c5.262 5.262 5.262 13.797 0 19.058-4.413 4.413-11.123 5.124-16.273 2.151l-6.693-12.897c.274-3.034 1.568-5.99 3.899-8.321 5.262-5.261 13.797-5.261 19.067.009z"/></g></g><g><path d="m243.462 100.924 51.939 62.342 14.619 17.55-107.202 107.201-79.892-66.558c-12.211-10.172-13.051-28.63-1.817-39.864l82.488-82.488c11.235-11.234 29.693-10.394 39.865 1.817z" fill="#334353"/><path d="m243.462 100.924 51.939 62.342c-.257.291-.523.574-.806.857l-11.029 11.029-40.524-40.524c-1.431-1.431-3.308-2.142-5.184-2.151-1.885 0-3.762.711-5.193 2.142-2.871 2.871-2.862 7.524 0 10.386l40.524 40.524-14.962 14.962-64.921-64.921c-1.431-1.431-3.316-2.151-5.193-2.142-1.885 0-3.762.711-5.193 2.142-2.871 2.871-2.862 7.524 0 10.386l64.921 64.921-14.962 14.962-57.02-57.02c-1.431-1.431-3.316-2.151-5.193-2.16-1.877.009-3.753.72-5.193 2.159-2.862 2.862-2.871 7.515 0 10.386l57.02 57.02c-6.033 6.016-14.216 8.646-22.143 7.781l-33.343-33.343c-1.431-1.431-3.308-2.142-5.184-2.151-1.885 0-3.762.711-5.202 2.151-.531.531-.968 1.123-1.294 1.757l-7.387-6.153c-10.438-8.689-16.736-20.403-18.775-32.726l74.433-74.433c11.234-11.234 29.692-10.394 39.864 1.817z" fill="#3e4e60"/><g fill="#334353"><path d="m248.937 241.898-10.383 10.383-73.082-73.082c-2.867-2.867-2.867-7.516 0-10.383 2.867-2.867 7.516-2.867 10.383 0z"/><path d="m274.283 216.552-10.383 10.383-80.978-80.978c-2.867-2.867-2.867-7.516 0-10.383 2.867-2.867 7.516-2.867 10.383 0z"/><path d="m299.629 191.207-10.383 10.383-56.581-56.581c-2.867-2.867-2.867-7.516 0-10.383 2.867-2.867 7.516-2.867 10.383 0z"/><path d="m223.592 267.243-10.383 10.383-56.581-56.581c-2.867-2.867-2.867-7.516 0-10.383 2.867-2.867 7.516-2.867 10.383 0z"/></g><g fill="#2e3140"><path d="m232.879 225.839 16.059 16.059-10.386 10.386-16.059-16.059c.009-.009.009-.009.017-.017z"/><path d="m253.719 202.358h14.688v22.711h-14.688z" transform="matrix(.707 -.707 .707 .707 -74.654 247.195)"/><path d="m279.069 177.014h14.676v22.711h-14.676z" transform="matrix(.707 -.707 .707 .707 -49.311 257.693)"/><path d="m200.35 244.005 23.24 23.24-10.377 10.377-56.583-56.582c-2.331-2.331-2.768-5.853-1.303-8.621l30.541 25.451c4.267 3.547 9.306 5.587 14.482 6.135z"/></g></g><g><path d="m79.997 353.688c0 7.045 2.101 13.6 5.702 19.081 6.223 9.43 16.901 15.653 29.032 15.653 19.175 0 34.734-15.558 34.734-34.734 0-18.37-14.263-63.355-32.317-67.114-.79-.19-1.611-.269-2.417-.269-8.766 0-16.775 10.062-22.871 22.808-.047.095-.095.174-.142.269-4.691 9.888-8.261 21.339-10.156 30.99-.758 3.822-1.264 7.376-1.469 10.409v.016c-.064 1.028-.096 1.991-.096 2.891z" fill="#b82065"/><path d="m79.997 353.688c0 7.045 2.101 13.6 5.702 19.081 4.296 1.927 9.067 2.985 14.089 2.985 19.191 0 34.734-15.558 34.734-34.734 0-12.857-6.981-38.761-17.375-54.446-.79-.19-1.611-.269-2.417-.269-8.766 0-16.775 10.062-22.871 22.808-.047.095-.095.174-.142.269-4.691 9.888-8.261 21.339-10.156 30.99-.758 3.822-1.264 7.376-1.469 10.409v.016c-.063 1.028-.095 1.991-.095 2.891z" fill="#d7156f"/><path d="m91.859 309.114c.49-.095.995-.158 1.516-.19.521-.063 1.042-.079 1.564-.079 10.283 0 18.607 8.324 18.607 18.607s-8.324 18.607-18.607 18.607c-5.26 0-9.998-2.18-13.379-5.686 1.895-9.651 5.465-21.102 10.156-30.99z" fill="#df3d81"/></g></g></g></svg>