<svg id="Capa_1" enable-background="new 0 0 512 512" height="512" viewBox="0 0 512 512" width="512" xmlns="http://www.w3.org/2000/svg"><g><g><path d="m256 342.169c-141.387 0-243.753-175.742-222.328-213.169 44.119-77.07 127.158-129 222.328-129s178.209 51.929 222.328 128.999c21.425 37.427-80.941 213.17-222.328 213.17z" fill="#f3d37a"/><path d="m512 256c0 26.051-3.891 51.191-11.129 74.871-5.031 16.469-11.672 32.231-19.75 47.109-8.25 15.2-147.391 60.333-225.121 60.333s-216.871-45.133-225.109-60.333c-3.289-6.031-6.332-12.21-9.121-18.531-14-31.629-21.77-66.629-21.77-103.449 0-46.219 12.25-89.57 33.68-127 44.121 77.07 127.16 129 222.32 129s178.211-51.93 222.32-129c21.43 37.43 33.68 80.781 33.68 127zm0 0" fill="#efc142"/><path d="m481.262 377.699c-7.16 13.223-15.434 25.742-24.723 37.43-8.437 10.633-17.719 20.57-27.719 29.723-21.507 19.694-46.39 35.763-73.679 47.238-30.493 12.822-167.79 12.822-198.282 0-27.289-11.475-52.172-27.544-73.679-47.238-10-9.153-19.282-19.09-27.719-29.723-9.289-11.688-17.563-24.207-24.723-37.43zm0 0" fill="#e38d22"/></g><g><path d="m200.922 412.125h110.156v88.859h-110.156z" fill="#dce0ef"/><path d="m256 412.125h55.078v88.859h-55.078z" fill="#cad0e7"/><path d="m68 136v287.141h376v-287.141z" fill="#535564"/><path d="m256 136h188v287.141h-188z" fill="#3b3b3b"/><path d="m90.031 158.031h331.938v243.078h-331.938z" fill="#a4e2fd"/><path d="m171.391 158.031h250.578v243.078h-250.578z" fill="#8ab8ec"/><path d="m256 158.031h165.969v243.078h-165.969z" fill="#728ee4"/><path d="m355.141 489.969h-198.282v2.121c30.493 12.82 63.988 19.91 99.141 19.91s68.648-7.09 99.141-19.91z" fill="#fbf5eb"/><path d="m355.141 489.969h-99.141v22.031c35.153 0 68.648-7.09 99.141-19.91z" fill="#dce0ef"/><path d="m189.906 268.922c-18.223 0-33.047-14.824-33.047-33.047v-22.766c0-18.223 14.824-33.047 33.047-33.047s33.047 14.824 33.047 33.047v22.766c0 18.223-14.824 33.047-33.047 33.047zm0-66.828c-6.078 0-11.016 4.938-11.016 11.016v22.766c0 6.078 4.938 11.016 11.016 11.016s11.016-4.938 11.016-11.016v-22.766c0-6.079-4.938-11.016-11.016-11.016z" fill="#f2f2fb"/><path d="m112.797 180.062h22.031v88.859h-22.031z" fill="#f2f2fb"/><path d="m322.094 268.922c-18.223 0-33.047-14.824-33.047-33.047v-22.766c0-18.223 14.824-33.047 33.047-33.047s33.047 14.824 33.047 33.047v22.766c0 18.223-14.824 33.047-33.047 33.047zm0-66.828c-6.078 0-11.016 4.938-11.016 11.016v22.766c0 6.078 4.938 11.016 11.016 11.016s11.016-4.938 11.016-11.016v-22.766c-.001-6.079-4.938-11.016-11.016-11.016z" fill="#fbf5eb"/><path d="m244.984 180.062h22.031v88.859h-22.031z" fill="#f2f2fb"/><path d="m377.172 180.062h22.031v88.859h-22.031z" fill="#fbf5eb"/><path d="m366.156 379.078c-18.223 0-33.047-14.824-33.047-33.047v-22.031c0-18.223 14.824-33.047 33.047-33.047s33.047 14.824 33.047 33.047v22.031c0 18.223-14.824 33.047-33.047 33.047zm0-66.094c-6.078 0-11.016 4.938-11.016 11.016v22.031c0 6.078 4.938 11.016 11.016 11.016s11.016-4.938 11.016-11.016v-22.031c0-6.078-4.938-11.016-11.016-11.016z" fill="#fbf5eb"/><path d="m256 299.546c-5.728-5.289-13.439-8.592-22.031-8.592-18.286 0-33.047 14.761-33.047 33.047v22.031c0 18.285 14.76 33.047 33.047 33.047 8.593 0 16.303-3.305 22.031-8.592 6.83-5.949 11.016-14.76 11.016-24.454v-22.033c0-9.694-4.186-18.507-11.016-24.454zm-11.016 46.485c0 6.168-4.846 11.016-11.016 11.016-6.169 0-11.016-4.848-11.016-11.016v-22.031c0-6.169 4.846-11.016 11.016-11.016 6.169 0 11.016 4.846 11.016 11.016z" fill="#f2f2fb"/><path d="m145.844 379.078c-18.223 0-33.047-14.824-33.047-33.047v-22.031c0-18.223 14.824-33.047 33.047-33.047s33.047 14.824 33.047 33.047v22.031c0 18.223-14.824 33.047-33.047 33.047zm0-66.094c-6.078 0-11.016 4.938-11.016 11.016v22.031c0 6.078 4.938 11.016 11.016 11.016s11.016-4.938 11.016-11.016v-22.031c-.001-6.078-4.938-11.016-11.016-11.016z" fill="#f2f2fb"/><g fill="#fbf5eb"><path d="m289.047 290.953h22.031v88.125h-22.031z"/><path d="m256 180.062h11.016v88.859h-11.016z"/><path d="m256 299.546c6.83 5.948 11.016 14.761 11.016 24.454v22.031c0 9.694-4.186 18.505-11.016 24.454z"/></g></g></g></svg>