<svg id="Capa_1" enable-background="new 0 0 512 512" height="512" viewBox="0 0 512 512" width="512" xmlns="http://www.w3.org/2000/svg"><g><g><path d="m0 256c0 43.79 11 85.02 30.39 121.07l225.61 49.67 225.61-49.67c19.39-36.05 30.39-77.28 30.39-121.07 0-46.63-12.47-90.34-34.26-128-41.698 72.091-399.22 76.52-443.48 0-21.79 37.66-34.26 81.37-34.26 128z" fill="#78cd8a"/><path d="m34.26 128c44.26 76.52 126.99 128 221.74 128s177.48-51.48 221.74-128c-.01-.02-.03-.05-.04-.07-44.27-76.48-126.98-127.93-221.7-127.93s-177.43 51.45-221.7 127.93c-.01.02-.03.05-.04.07z" fill="#a8ea58"/><path d="m481.61 377.07c-32.02 59.55-86.94 104.97-152.97 124.47-23.02 6.81-47.4-1.79-72.64-1.79s-49.62 8.6-72.64 1.79c-66.03-19.5-120.95-64.92-152.97-124.47z" fill="#599d89"/></g><g><path d="m239.402 47.255h33.196v186.958h-33.196z" fill="#e7eaf5"/><path d="m256 47.255h16.598v186.958h-16.598z" fill="#d9dced"/><path d="m222.804 205.326h66.393v85.486h-66.393z" fill="#c8cde3"/><path d="m256 205.326h33.196v85.486h-33.196z" fill="#b1b7cb"/><path d="m234.684 330.805h42.632v170.972h-42.632z" fill="#c8cde3"/><path d="m277.316 501.777-21.316-2.027v-168.945h21.316z" fill="#b1b7cb"/><path d="m322.39 260.976v58.724h-132.78v-58.724l66.39-12.907z" fill="#d75e91"/><path d="m189.61 319.7h132.78v85.48h-132.78z" fill="#d9dced"/><path d="m322.39 260.976v62.104h-66.39v-75.011z" fill="#bf2e70"/><path d="m256 323.08h66.39v82.1h-66.39z" fill="#c8cde3"/><path d="m234.684 319.699h42.632v85.486h-42.632z" fill="#c8cde3"/><path d="m256 319.699h21.316v85.486h-21.316z" fill="#b1b7cb"/><path d="m189.607 234.213h132.785v26.763h-132.785z" fill="#e7eaf5"/><path d="m256 234.213h66.393v26.763h-66.393z" fill="#d9dced"/><path d="m189.607 307.468h132.785v26.763h-132.785z" fill="#e7eaf5"/><path d="m256 307.468h66.393v26.763h-66.393z" fill="#d9dced"/><path d="m151.825 396.869h208.351v38.845h-208.351z" fill="#e7eaf5"/><path d="m256 396.869h104.175v38.845h-104.175z" fill="#d9dced"/><path d="m328.64 487.5v14.04c-23.02 6.81-47.4 10.46-72.64 10.46s-49.62-3.65-72.64-10.46v-14.04z" fill="#e7eaf5"/><path d="m328.64 487.5v14.04c-23.02 6.81-47.4 10.46-72.64 10.46v-24.5z" fill="#d9dced"/></g></g></svg>