<?xml version="1.0" encoding="iso-8859-1"?>
<!-- Generator: Adobe Illustrator 19.0.0, SVG Export Plug-In . SVG Version: 6.00 Build 0)  -->
<svg version="1.1" id="Layer_1" xmlns="http://www.w3.org/2000/svg" xmlns:xlink="http://www.w3.org/1999/xlink" x="0px" y="0px"
	 viewBox="0 0 512 512" style="enable-background:new 0 0 512 512;" xml:space="preserve">
<circle style="fill:#3A4DE3;" cx="255.996" cy="255.996" r="255.996"/>
<path style="fill:#1C2EDE;" d="M512,255.999c0-24.327-3.394-47.861-9.733-70.156l-82.756-82.756l0,0l0,0h-13.708V88.819H249.698
	H93.591v249.406l13.708,13.708v71.248l79.289,79.289c22.074,6.204,45.354,9.529,69.412,9.529C397.385,512,512,397.385,512,255.999z"
	/>
<rect x="107.299" y="103.088" style="fill:#FBC000;" width="312.211" height="320.089"/>
<rect x="249.696" y="103.088" style="fill:#D9A600;" width="169.814" height="320.089"/>
<polygon style="fill:#FFDF47;" points="405.803,88.819 93.591,88.819 93.591,338.225 164.278,408.911 405.803,408.911 "/>
<rect x="249.696" y="88.815" style="fill:#FFD400;" width="156.106" height="320.089"/>
<g>
	<rect x="138.917" y="144.089" style="fill:#EBB300;" width="221.567" height="27.914"/>
	<rect x="138.917" y="213.992" style="fill:#EBB300;" width="221.567" height="27.914"/>
	<rect x="138.917" y="283.905" style="fill:#EBB300;" width="221.567" height="27.914"/>
</g>
<g>
	<rect x="249.696" y="144.089" style="fill:#D9A600;" width="110.778" height="27.914"/>
	<rect x="249.696" y="213.992" style="fill:#D9A600;" width="110.778" height="27.914"/>
	<rect x="249.696" y="283.905" style="fill:#D9A600;" width="110.778" height="27.914"/>
</g>
<polygon style="fill:#FFF5CB;" points="164.278,338.225 93.591,338.225 164.278,408.911 "/>
<rect x="398.572" y="180.944" transform="matrix(-0.7071 -0.7071 0.7071 -0.7071 586.5617 649.3064)" style="fill:#FFFFFF;" width="58.37" height="44.457"/>
<rect x="423.473" y="191.265" transform="matrix(-0.7071 -0.7071 0.7071 -0.7071 596.8615 674.2163)" style="fill:#E1E1E3;" width="29.185" height="44.457"/>
<polygon style="fill:#FF0335;" points="394.505,195.149 254.606,335.049 232.643,398.285 295.88,376.323 435.779,236.424 "/>
<polygon style="fill:#C2001B;" points="435.779,236.424 415.142,215.786 232.643,398.285 295.88,376.323 "/>
<polygon style="fill:#FFC473;" points="232.643,398.285 295.88,376.323 254.606,335.049 "/>
<polygon style="fill:#FFAA20;" points="275.242,355.687 232.643,398.285 295.88,376.323 "/>
<polygon style="fill:#57555C;" points="260.382,388.652 242.277,370.547 232.643,398.285 "/>
<polygon style="fill:#171719;" points="251.33,379.599 232.643,398.285 260.382,388.652 "/>
<g>
</g>
<g>
</g>
<g>
</g>
<g>
</g>
<g>
</g>
<g>
</g>
<g>
</g>
<g>
</g>
<g>
</g>
<g>
</g>
<g>
</g>
<g>
</g>
<g>
</g>
<g>
</g>
<g>
</g>
</svg>
