<svg id="Capa_1" enable-background="new 0 0 512 512" height="512" viewBox="0 0 512 512" width="512" xmlns="http://www.w3.org/2000/svg"><g><g><g><g><g><g><g><circle cx="256" cy="256" fill="#ff6c52" r="256"/></g></g></g></g></g></g><path d="m299.272 114.85-202.923 190.023 204.431 203.223c99.133-17.489 178.588-92.022 203.254-188.485z" fill="#f92814"/><g><path d="m402.087 414.117c-16.814 16.814-44.074 16.814-60.888 0l-108.423-108.424 60.888-60.888 108.424 108.424c16.813 16.814 16.813 44.074-.001 60.888z" fill="#ffce00"/></g><g><path d="m402.087 414.117c16.814-16.814 16.814-44.074 0-60.888l-108.423-108.424-30.519 30.52 138.865 138.866c.025-.026.052-.049.077-.074z" fill="#fdba12"/></g><g><circle cx="197.599" cy="209.628" fill="#fff" r="124.007"/><path d="m285.284 297.314c48.428-48.427 48.428-126.944 0-175.372-48.427-48.428-126.944-48.428-175.372 0-.025.025-.049.051-.075.076l175.37 175.37c.026-.024.052-.049.077-.074z" fill="#e9edf5"/><path d="m197.599 348.635c-37.13 0-72.038-14.459-98.292-40.714-26.255-26.255-40.714-61.163-40.714-98.292 0-37.13 14.459-72.038 40.714-98.293s61.163-40.714 98.292-40.714c37.13 0 72.037 14.459 98.292 40.714 26.255 26.255 40.715 61.162 40.715 98.293 0 37.13-14.46 72.038-40.715 98.292-26.255 26.255-61.162 40.714-98.292 40.714zm0-248.013c-29.117 0-56.491 11.339-77.08 31.928-20.588 20.589-31.927 47.962-31.927 77.079s11.339 56.491 31.927 77.079c20.589 20.589 47.963 31.927 77.08 31.927s56.49-11.339 77.079-31.927 31.928-47.962 31.928-77.079-11.339-56.491-31.928-77.079c-20.589-20.59-47.963-31.928-77.079-31.928z" fill="#555a66"/><path d="m120.519 132.549c20.589-20.589 47.963-31.927 77.08-31.927s56.49 11.339 77.079 31.927c20.589 20.589 31.928 47.962 31.928 77.079s-11.339 56.491-31.928 77.079c-.025.025-.051.049-.076.074l21.213 21.213c.025-.025.051-.049.076-.074 26.255-26.255 40.715-61.163 40.715-98.292 0-37.13-14.46-72.038-40.715-98.292-26.255-26.255-61.162-40.714-98.292-40.714s-72.038 14.459-98.292 40.714c-.025.025-.049.051-.075.076l21.213 21.213c.025-.025.049-.051.074-.076z" fill="#333940"/></g><g><path d="m108.485 245.852v-15.094c32.553-23.542 38.636-28.723 38.636-36.158 0-5.181-4.844-7.885-10.363-7.885-8.335 0-14.643 3.154-20.05 8.223l-10.701-12.841c7.998-8.786 19.938-12.503 30.413-12.503 17.685 0 30.413 9.912 30.413 25.006 0 11.49-8.223 21.289-26.921 34.355h27.484v16.896h-58.911z" fill="#606aea"/><path d="m209.398 218.504v22.303h-11.376v-22.303h-19.6v-10.363h19.6v-21.514h11.376v21.514h19.6v10.363z" fill="#606aea"/><g fill="#4253ce"><path d="m209.398 186.627h-11.377v21.514h-2.061l13.438 13.438v-3.075h19.6v-10.363h-19.6z"/><path d="m259.735 245.852v-50.35l-12.615 12.728-11.039-11.602 26.246-25.907h16.783v75.131z"/></g></g></g></svg>