<svg id="Capa_1" enable-background="new 0 0 512 512" height="512" viewBox="0 0 512 512" width="512" xmlns="http://www.w3.org/2000/svg"><circle cx="256" cy="256" fill="#ffe400" r="256"/><path d="m512 256c0 87.11-43.52 164.07-110 210.31-41.41 28.8-91.73 45.69-146 45.69s-104.59-16.89-146-45.69c-66.48-46.24-110-123.2-110-210.31 0-46.22 12.25-89.57 33.68-127 44.12 77.07 127.16 129 222.32 129s178.21-51.93 222.32-129c21.43 37.43 33.68 80.78 33.68 127z" fill="#ffce00"/><path d="m63.61 193.1h384.78v32.01h-384.78z" fill="#c55732"/><path d="m256 193.1h192.39v32.01h-192.39z" fill="#a63917"/><path d="m435.78 438.25c-1.12 1.11-2.25 2.2-3.39 3.29-44.72 42.52-104.8 69.05-171.06 70.4-1.77.04-3.55.06-5.33.06-70.06 0-133.55-28.15-179.78-73.75z" fill="#ec781b"/><path d="m435.78 438.25c-1.12 1.11-2.25 2.2-3.39 3.29-44.72 42.52-104.8 69.05-171.06 70.4h-5.33v-73.69z" fill="#c55732"/><path d="m79.61 162.57v278.95c-1.14-1.07-2.27-2.17-3.39-3.27-10.46-10.32-20.04-21.54-28.61-33.53v-242.15z" fill="#f79f63"/><path d="m464.39 162.97v241.75c-9.49 13.27-20.21 25.6-32 36.82v-278.57z" fill="#ec781b"/><path d="m180.602 177.838v214.069c0 20.501-16.616 37.122-37.117 37.122s-37.122-16.622-37.122-37.122v-214.069z" fill="#fff"/><path d="m180.602 177.838v214.069c0 20.501-16.616 37.122-37.117 37.122v-251.191z" fill="#d1f6ff"/><path d="m106.362 177.838h74.239v37.703h-74.239z" fill="#d1f6ff"/><path d="m143.484 177.838h37.117v37.703h-37.117z" fill="#b3f4ff"/><path d="m125.661 318.9v73.006c0 9.829 7.995 17.824 17.824 17.824s17.824-7.995 17.824-17.824v-73.006z" fill="#6cdc2d"/><path d="m161.31 318.9v73.01c0 9.83-8 17.82-17.83 17.82v-90.83z" fill="#57b718"/><path d="m192.234 172.91v9.85c0 5.713-4.629 10.343-10.338 10.343h-76.824c-5.708 0-10.338-4.629-10.338-10.343v-9.85c0-5.708 4.629-10.338 10.338-10.338h76.824c5.709 0 10.338 4.63 10.338 10.338z" fill="#fff"/><path d="m153.049 299.767h27.553v-19.133h-27.553c-5.283 0-9.566 4.283-9.566 9.566 0 5.284 4.283 9.567 9.566 9.567z" fill="#8fc8f5"/><path d="m161.31 318.9v19.13h-8.26c-2.64 0-5.03-1.07-6.77-2.8-1.73-1.73-2.8-4.12-2.8-6.76 0-5.29 4.29-9.57 9.57-9.57z" fill="#02a041"/><path d="m161.31 357.17h19.29v19.13h-19.29z" fill="#8fc8f5"/><path d="m161.31 318.9h19.29v19.13h-19.29z" fill="#8fc8f5"/><path d="m161.31 357.17v19.13h-8.26c-2.64 0-5.03-1.07-6.77-2.8-1.73-1.73-2.8-4.12-2.8-6.77 0-5.28 4.29-9.56 9.57-9.56z" fill="#02a041"/><path d="m192.234 172.91v9.85c0 5.713-4.629 10.343-10.338 10.343h-38.412v-30.53h38.412c5.709-.001 10.338 4.629 10.338 10.337z" fill="#d1f6ff"/><path d="m293.117 177.838v214.069c0 20.501-16.616 37.122-37.117 37.122s-37.122-16.622-37.122-37.122v-214.069z" fill="#fff"/><path d="m293.117 177.838v214.069c0 20.501-16.616 37.122-37.117 37.122v-251.191z" fill="#d1f6ff"/><path d="m218.878 177.838h74.239v37.703h-74.239z" fill="#d1f6ff"/><path d="m256 177.838h37.117v37.703h-37.117z" fill="#b3f4ff"/><path d="m238.176 318.9v73.006c0 9.829 7.995 17.824 17.824 17.824s17.824-7.995 17.824-17.824v-73.006z" fill="#22d7ff"/><path d="m273.82 318.9v73.01c0 9.83-7.99 17.82-17.82 17.82v-90.83z" fill="#24c6ff"/><path d="m304.75 172.91v9.85c0 5.713-4.629 10.343-10.338 10.343h-76.824c-5.708 0-10.338-4.629-10.338-10.343v-9.85c0-5.708 4.629-10.338 10.338-10.338h76.824c5.708 0 10.338 4.63 10.338 10.338z" fill="#fff"/><g fill="#8fc8f5"><path d="m265.565 299.767h27.553v-19.133h-27.553c-5.283 0-9.566 4.283-9.566 9.566 0 5.284 4.283 9.567 9.566 9.567z"/><path d="m273.82 357.17h19.3v19.13h-19.3z"/><path d="m273.82 318.9h19.3v19.13h-19.3z"/></g><path d="m273.82 318.9v19.13h-8.25c-2.65 0-5.04-1.07-6.77-2.8s-2.8-4.12-2.8-6.76c0-5.29 4.28-9.57 9.57-9.57z" fill="#00b3fe"/><path d="m273.82 357.17v19.13h-8.25c-2.65 0-5.04-1.07-6.77-2.8s-2.8-4.12-2.8-6.77c0-5.28 4.28-9.56 9.57-9.56z" fill="#00b3fe"/><path d="m304.75 172.91v9.85c0 5.713-4.629 10.343-10.338 10.343h-38.412v-30.53h38.412c5.708-.001 10.338 4.629 10.338 10.337z" fill="#d1f6ff"/><path d="m405.633 177.838v214.069c0 20.501-16.616 37.122-37.117 37.122s-37.122-16.622-37.122-37.122v-214.069z" fill="#fff"/><path d="m405.633 177.838v214.069c0 20.501-16.616 37.122-37.117 37.122v-251.191z" fill="#d1f6ff"/><path d="m331.393 177.838h74.239v37.703h-74.239z" fill="#d1f6ff"/><path d="m368.516 177.838h37.117v37.703h-37.117z" fill="#b3f4ff"/><path d="m350.692 318.9v73.006c0 9.829 7.995 17.824 17.824 17.824s17.824-7.995 17.824-17.824v-73.006z" fill="#ff576b"/><path d="m386.34 318.9v73.01c0 9.83-8 17.82-17.82 17.82v-90.83z" fill="#fe3345"/><path d="m417.265 172.91v9.85c0 5.713-4.629 10.343-10.338 10.343h-76.824c-5.708 0-10.338-4.629-10.338-10.343v-9.85c0-5.708 4.629-10.338 10.338-10.338h76.824c5.709 0 10.338 4.63 10.338 10.338z" fill="#fff"/><path d="m378.081 299.767h27.553v-19.133h-27.553c-5.283 0-9.566 4.283-9.566 9.566-.001 5.284 4.282 9.567 9.566 9.567z" fill="#8fc8f5"/><path d="m386.34 357.17h19.29v19.13h-19.29z" fill="#8fc8f5"/><path d="m386.34 318.9h19.29v19.13h-19.29z" fill="#8fc8f5"/><path d="m386.34 318.9v19.13h-8.26c-2.64 0-5.03-1.07-6.76-2.8-1.63-1.62-2.67-3.82-2.8-6.27-.01-.16-.01-.32-.01-.49s0-.33.01-.49c.26-5.06 4.44-9.08 9.56-9.08z" fill="#de1263"/><path d="m386.34 357.17v19.13h-8.26c-2.64 0-5.03-1.07-6.76-2.8-1.63-1.62-2.67-3.82-2.8-6.28-.01-.16-.01-.32-.01-.49s0-.33.01-.49c.26-5.05 4.44-9.07 9.56-9.07z" fill="#de1263"/><path d="m417.265 172.91v9.85c0 5.713-4.629 10.343-10.338 10.343h-38.412v-30.53h38.412c5.709-.001 10.338 4.629 10.338 10.337z" fill="#d1f6ff"/></svg>