<svg id="Capa_1" enable-background="new 0 0 512 512" height="512" viewBox="0 0 512 512" width="512" xmlns="http://www.w3.org/2000/svg"><g><g><path d="m256 305.118c-141.387 0-243.753-138.692-222.327-176.12 44.119-77.069 127.157-128.998 222.327-128.998s178.208 51.929 222.328 128.999c21.425 37.427-80.941 176.119-222.328 176.119z" fill="#a8eb58"/><path d="m512 256c0 26.051-3.891 51.191-11.129 74.871-5.031 16.469-11.672 32.231-19.75 47.109-8.25 15.2-147.391 46.775-225.121 46.775s-216.871-31.575-225.109-46.775c-3.289-6.031-6.332-12.21-9.121-18.531-14-31.629-21.77-66.629-21.77-103.449 0-46.219 12.25-89.57 33.68-127 44.121 77.07 127.16 129 222.32 129s178.211-51.93 222.32-129c21.43 37.43 33.68 80.781 33.68 127zm0 0" fill="#80cf8c"/><path d="m481.262 377.699c-7.16 13.223-15.434 25.742-24.723 37.43-8.437 10.633-17.719 20.57-27.719 29.723-21.292 19.497-45.892 35.441-72.861 46.893-30.711 13.041-169.208 13.04-199.92-.001-26.968-11.452-51.567-27.396-72.859-46.892-10-9.153-19.282-19.09-27.719-29.723-9.289-11.688-17.563-24.207-24.723-37.43zm0 0" fill="#599d8a"/></g><g><path d="m200.466 411.299h111.067v89.594h-111.067z" fill="#dce0ef"/><path d="m256 411.299h55.534v89.594h-55.534z" fill="#cad0e7"/><path d="m66.445 132.891v289.515h379.109v-289.515z" fill="#535564"/><path d="m256 132.891h189.555v289.515h-189.555z" fill="#3b3b3b"/><path d="m88.659 155.104h334.682v245.088h-334.682z" fill="#a4e2fd"/><path d="m160.131 155.104h263.21v245.088h-263.21z" fill="#8ab8ec"/><path d="m256 155.104h167.341v245.088h-167.341z" fill="#728ee4"/><path d="m355.96 489.787h-199.92v1.959c30.711 13.038 64.492 20.254 99.96 20.254s69.249-7.216 99.96-20.254z" fill="#fbf5eb"/><path d="m355.96 489.787h-99.96v22.213c35.468 0 69.249-7.216 99.96-20.254z" fill="#dce0ef"/><path d="m256 300.232h-77.747v44.427c0 23.016 39.047 33.32 77.747 33.32s77.747-10.304 77.747-33.32v-44.427z" fill="#dce0ef"/><path d="m333.747 344.659v-44.427h-77.747v77.747c38.7 0 77.747-10.304 77.747-33.32z" fill="#cad0e7"/><path d="m256 255.805h-77.747v44.427c0 23.016 39.047 33.32 77.747 33.32s77.747-10.304 77.747-33.32v-44.427z" fill="#fbf5eb"/><path d="m333.747 300.232v-44.427h-77.747v77.747c38.7 0 77.747-10.304 77.747-33.32z" fill="#dce0ef"/><path d="m256 211.378h-77.747v44.427c0 23.016 39.047 33.32 77.747 33.32s77.747-10.304 77.747-33.32v-44.427z" fill="#dce0ef"/><path d="m333.747 255.805v-44.427h-77.747v77.747c38.7 0 77.747-10.304 77.747-33.32z" fill="#cad0e7"/><path d="m256 177.318c-38.7 0-77.747 11.045-77.747 34.061s39.047 33.32 77.747 33.32 77.747-10.304 77.747-33.32c0-23.017-39.047-34.061-77.747-34.061z" fill="#fbf5eb"/><path d="m333.747 211.378c0-23.016-39.047-34.061-77.747-34.061v67.381c38.7 0 77.747-10.304 77.747-33.32z" fill="#dce0ef"/></g></g></svg>