<svg id="Capa_1" enable-background="new 0 0 512 512" height="512" viewBox="0 0 512 512" width="512" xmlns="http://www.w3.org/2000/svg"><g><g><path d="m512 256c0 43.79-11 85.02-30.39 121.07l-225.61 49.67-225.61-49.67c-19.39-36.05-30.39-77.28-30.39-121.07 0-46.63 12.47-90.34 34.26-128 41.698 72.091 399.22 76.52 443.48 0 21.79 37.66 34.26 81.37 34.26 128z" fill="#79ce8b"/><path d="m477.74 128c-44.26 76.52-126.99 128-221.74 128s-177.48-51.48-221.74-128c.01-.02.03-.05.04-.07 44.27-76.48 126.98-127.93 221.7-127.93s177.43 51.45 221.7 127.93c.01.02.03.05.04.07z" fill="#a9eb58"/><path d="m481.61 377.07c-16.16 30.05-38.15 56.5-64.45 77.84-12.42 10.08-25.81-18.005-40-10.375-36.07 19.42-77.33 30.44-121.16 30.44s-85.09-11.02-121.16-30.44c-14.19-7.63-27.58 20.455-40 10.375-26.3-21.34-48.29-47.79-64.45-77.84z" fill="#599d8a"/></g><g><path d="m314.777 135.063c0-28.273 22.92-51.193 51.193-51.193h-58.777c-28.273 0-51.193 22.92-51.193 51.193l-58.777 87.498h117.553v-87.498z" fill="#e8a440"/><path d="m197.223 135.063c0-28.273-22.92-51.193-51.193-51.193h58.777c28.273 0 51.193 22.92 51.193 51.193v87.498h-58.777z" fill="#eec036"/><path d="m358.386 135.063c0-28.273-22.92-51.193-51.193-51.193h58.777c28.273 0 51.193 22.92 51.193 51.193v115.177l-58.777-27.679z" fill="#eec036"/><path d="m153.614 135.063c0-28.273 22.92-51.193 51.193-51.193h-58.777c-28.273 0-51.193 22.92-51.193 51.193v115.177l58.777-27.679z" fill="#f5dd6e"/></g><path d="m417.16 250.24v204.67c-44 35.7-100.08 57.09-161.16 57.09s-117.16-21.39-161.16-57.09v-204.67c0-56.97 46.17-103.14 103.13-103.14h116.06c56.96 0 103.13 46.17 103.13 103.14z" fill="#8999e5"/><path d="m377.16 250.24v231.32c-36.07 19.42-77.33 30.44-121.16 30.44s-85.09-11.02-121.16-30.44v-231.32c0-34.82 28.32-63.14 63.13-63.14h116.06c34.81 0 63.13 28.32 63.13 63.14z" fill="#a4b5ed"/><path d="m417.16 250.24v204.67c-12.42 10.08-25.81 19.02-40 26.65-36.07 19.42-77.33 30.44-121.16 30.44v-364.9h58.03c56.96 0 103.13 46.17 103.13 103.14z" fill="#546ada"/><path d="m377.16 250.24v231.32c-36.07 19.42-77.33 30.44-121.16 30.44v-324.9h58.03c34.81 0 63.13 28.32 63.13 63.14z" fill="#8999e5"/><path d="m220.735 245.227h70.53v70.53h-70.53z" fill="#f5dd6e" transform="matrix(.707 -.707 .707 .707 -123.359 263.212)"/><path d="m305.87 280.49-49.87 49.88v-99.75z" fill="#eec036"/><path d="m173.605 394.028h164.79v72.268h-164.79z" fill="#f5dd6e" transform="matrix(-1 0 0 -1 512 860.325)"/><path d="m256 394.028h82.395v72.268h-82.395z" fill="#eec036" transform="matrix(-1 0 0 -1 594.395 860.325)"/><path d="m162.334 367.022h187.332v37.88h-187.332z" fill="#eec036" transform="matrix(-1 0 0 -1 512 771.925)"/><path d="m256 367.022h93.666v37.88h-93.666z" fill="#e8a440" transform="matrix(-1 0 0 -1 605.666 771.925)"/><path d="m281.597 385.962h25.597v58.573h-25.597z" fill="#464652"/><g><path d="m267.466 172.047h25.597v58.573h-25.597z" fill="#464652"/><path d="m218.937 172.047h25.597v58.573h-25.597z" fill="#616579"/></g></g></svg>