<?xml version="1.0" encoding="iso-8859-1"?>
<!-- Generator: Adobe Illustrator 19.0.0, SVG Export Plug-In . SVG Version: 6.00 Build 0)  -->
<svg version="1.1" id="Capa_1" xmlns="http://www.w3.org/2000/svg" xmlns:xlink="http://www.w3.org/1999/xlink" x="0px" y="0px"
	 viewBox="0 0 512 512" style="enable-background:new 0 0 512 512;" xml:space="preserve">
<path style="fill:#EA4444;" d="M512,256c0,141.385-114.615,256-256,256c-50.7,0-97.956-14.741-137.72-40.167
	c-4.998-22.38-24.622-39.229-48.322-39.995C26.596,385.976,0,324.097,0,256C0,114.615,114.615,0,256,0S512,114.615,512,256z"/>
<path style="fill:#328093;" d="M319.674,42.58V502c0,0.709-0.076,1.4-0.217,2.068C299.165,509.243,277.905,512,256,512
	c-50.705,0-97.96-14.75-137.724-40.183c-5.002-22.369-24.617-39.208-48.307-39.979c-7.122-7.533-13.796-15.493-19.969-23.846V210
	V104.008V42.58c0-5.523,4.477-10,10-10h70.967h178.707c1.035,0,2.034,0.157,2.974,0.45c1.252,0.39,2.399,1.019,3.387,1.834
	c0.494,0.408,0.948,0.862,1.356,1.356c0.204,0.247,0.396,0.504,0.576,0.77C319.044,38.584,319.674,40.509,319.674,42.58z"/>
<path style="fill:#235967;" d="M69.986,431.839c-7.125-7.534-13.81-15.49-19.986-23.846V200v-95.992V44.01
	c0-6.313,5.118-11.431,11.431-11.431h35.336c-6.313,0-11.431,5.118-11.431,11.431v21.194V200v234.716
	C80.51,433.012,75.353,432.015,69.986,431.839z M216.051,48.56h-32.464c-4.826,0-8.738,3.912-8.738,8.738v2.5
	c0,4.826,3.912,8.738,8.738,8.738h32.464c4.826,0,8.738-3.912,8.738-8.738v-2.5C224.789,52.472,220.877,48.56,216.051,48.56z
	 M154.873,48.56c-5.516,0-9.988,4.472-9.988,9.988s4.472,9.988,9.988,9.988s9.988-4.472,9.988-9.988S160.389,48.56,154.873,48.56z"
	/>
<path style="fill:#FFF5F5;" d="M300.697,72.543V300v162.048c0,5.523-4.477,10-10,10H118.626
	c-18.256-11.632-34.93-25.521-49.649-41.263V300V114.896V81.215v-8.672c0-5.523,4.477-10,10-10h9.358h13.332h17.25v9.976
	c0,5.523,4.477,10,10,10h111.841c5.523,0,10-4.477,10-10v-9.976h39.94C296.22,62.543,300.697,67.021,300.697,72.543z"/>
<path style="fill:#FFE7BF;" d="M300.697,72.531V462.06c0,5.516-4.472,9.988-9.988,9.988h-18.977V62.543h18.977
	C296.225,62.543,300.697,67.015,300.697,72.531z"/>
<path style="fill:#5EE2C5;" d="M450,150v30c0,16.569-13.431,30-30,30h-22.193c-4.219,16.445-14.266,30.552-27.807,40
	c-13.541-9.448-23.587-23.555-27.807-40H160c-16.569,0-30-13.431-30-30v-30c0-16.569,13.431-30,30-30h260
	C436.569,120,450,133.431,450,150z"/>
<path style="fill:#00D3B4;" d="M180,210h-20c-16.569,0-30-13.431-30-30v-30c0-16.569,13.431-30,30-30h20c-16.569,0-30,13.431-30,30
	v30C150,196.569,163.431,210,180,210z"/>
<path style="fill:#00B7A0;" d="M372,144.5v11c0,1.104-0.896,2-2,2H162c-1.104,0-2-0.896-2-2v-11c0-1.105,0.896-2,2-2h208
	C371.104,142.5,372,143.395,372,144.5z M278,172.5H162c-1.104,0-2,0.895-2,2v11c0,1.104,0.896,2,2,2h116c1.104,0,2-0.896,2-2v-11
	C280,173.395,279.104,172.5,278,172.5z"/>
<path style="fill:#FFC143;" d="M410,310v30c0,16.569-13.431,30-30,30H237.807c-4.22,16.445-14.266,30.552-27.807,40
	c-13.541-9.448-23.587-23.555-27.807-40H160c-16.569,0-30-13.431-30-30v-30c0-16.569,13.431-30,30-30h220
	C396.569,280,410,293.431,410,310z"/>
<path style="fill:#FF9500;" d="M330,304.5v11c0,1.104-0.896,2-2,2H162c-1.104,0-2-0.896-2-2v-11c0-1.105,0.896-2,2-2h166
	C329.104,302.5,330,303.395,330,304.5z M278,332.5H162c-1.104,0-2,0.896-2,2v11c0,1.104,0.896,2,2,2h116c1.104,0,2-0.896,2-2v-11
	C280,333.396,279.104,332.5,278,332.5z"/>
<path style="fill:#FFB509;" d="M180,370h-20c-16.569,0-30-13.431-30-30v-30c0-16.569,13.431-30,30-30h20c-16.569,0-30,13.431-30,30
	v30C150,356.569,163.431,370,180,370z"/>
<path style="fill:#FBC56D;" d="M220,440c0,5.523-4.477,10-10,10s-10-4.477-10-10s4.477-10,10-10S220,434.477,220,440z M240,430
	c-5.523,0-10,4.477-10,10s4.477,10,10,10s10-4.477,10-10S245.523,430,240,430z M270,430c-5.523,0-10,4.477-10,10s4.477,10,10,10
	s10-4.477,10-10S275.523,430,270,430z"/>
<g>
</g>
<g>
</g>
<g>
</g>
<g>
</g>
<g>
</g>
<g>
</g>
<g>
</g>
<g>
</g>
<g>
</g>
<g>
</g>
<g>
</g>
<g>
</g>
<g>
</g>
<g>
</g>
<g>
</g>
</svg>
