<svg id="Capa_1" enable-background="new 0 0 512 512" height="512" viewBox="0 0 512 512" width="512" xmlns="http://www.w3.org/2000/svg"><g><g><path d="m256 342.836c-141.387 0-244.873-171.846-225.275-208.044 43.298-79.977 127.942-134.293 225.275-134.293 97.204 0 181.752 54.172 225.103 133.974 19.704 36.274-83.716 208.363-225.103 208.363z" fill="#afe8fd"/><path d="m512 256.499c0 26.051-3.891 51.191-11.129 74.871-5.031 16.469-11.672 32.231-19.75 47.109-8.25 15.2-147.391 66.869-225.121 66.869s-216.871-51.669-225.109-66.869c-3.289-6.031-6.332-12.21-9.121-18.531-14-31.629-21.77-66.629-21.77-103.449 0-46.219 12.25-89.57 33.68-127 44.121 77.07 127.16 129 222.32 129s178.211-51.93 222.32-129c21.43 37.43 33.68 80.781 33.68 127zm0 0" fill="#64b0fb"/><path d="m481.262 378.198c-7.16 13.223-15.434 25.742-24.723 37.43-8.437 10.633-17.719 20.57-27.719 29.723-19.64 17.984-42.095 32.945-66.627 44.146-32.35 14.771-177.586 15.321-209.07 1.486-25.826-11.349-49.422-26.841-69.943-45.632-10-9.153-19.282-19.09-27.719-29.723-9.289-11.688-17.563-24.207-24.723-37.43zm0 0" fill="#1394fb"/></g><g><path d="m311.779 456.456v-22.018h-77.796v66.054h99.678c3.753-1.193 7.47-2.465 11.145-3.825v-7.184c-18.212 0-33.027-14.815-33.027-33.027z" fill="#2d3e53"/><path d="m178.339 500.492h77.661v-66.054h-55.779v22.018c0 18.211-14.815 33.027-33.027 33.027v7.184c3.676 1.36 7.393 2.632 11.145 3.825z" fill="#435d7a"/><path d="m256 489.483-14.679 11.009 14.679 11.009h22.528c29.63-2.584 57.815-10.204 83.688-22.018z" fill="#16202d"/><path d="m443.886 401.411-99.081-44.036 44.036 99.081h27.001c9.988-7.994 19.362-16.72 28.044-26.098z" fill="#133fd9"/><path d="m211.964 357.376 44.036 99.08h132.841v-55.045z" fill="#16202d"/><path d="m256 357.376-187.886 44.035v28.947c8.682 9.379 18.056 18.104 28.044 26.098h159.842z" fill="#2d3e53"/><path d="m68.114 430.358c8.682 9.379 18.056 18.104 28.044 26.098h64.153v-99.081l-92.197 44.036z" fill="#425a78"/><path d="m443.886 401.411v-221.647h-187.886l-44.036 110.824 44.036 110.823z" fill="#ffeb78"/><path d="m68.114 179.764h187.886v221.647h-187.886z" fill="#fff0be"/><path d="m68.114 179.764h92.198v221.647h-92.198z" fill="#fff9e6"/><path d="m256 489.483h-106.215c25.873 11.814 54.057 19.434 83.688 22.018h22.527z" fill="#2d3e53"/><path d="m185.729 502.732v-13.249h-35.944c11.548 5.273 23.552 9.719 35.944 13.249z" fill="#425a78"/></g></g></svg>