<svg id="Capa_1" enable-background="new 0 0 512 512" height="512" viewBox="0 0 512 512" width="512" xmlns="http://www.w3.org/2000/svg"><path d="m512 256.001c0 38.62-8.56 75.249-23.88 108.089l-58.458 37.25c-105.935 67.503-241.389 67.503-347.324 0l-58.458-37.25c-15.32-32.84-23.88-69.47-23.88-108.09 0-141.38 114.619-255.999 255.999-256 141.091-.001 256.002 114.91 256.001 256.001z" fill="#22d7ff"/><path d="m512 256c0 38.63-8.56 75.25-23.88 108.09l-58.458 37.25c-105.935 67.503-241.389 67.503-347.324 0l-58.458-37.25c-15.32-32.84-23.88-69.46-23.88-108.09 0-46.22 12.25-89.57 33.68-127 44.12 77.07 127.16 129 222.32 129s178.21-51.93 222.32-129c21.43 37.43 33.68 80.78 33.68 127z" fill="#00b3fe"/><path d="m47.274 315.932h-27.666v-64.446c0-2.966 2.404-5.371 5.371-5.371h22.295z" fill="#ffb600"/><path d="m401.78 231.495h56.36c3.021 0 5.47 2.449 5.47 5.47v23.778z" fill="#ffb600"/><path d="m478.954 261.71v45.41c0 11.41-9.26 20.67-20.68 20.66l-202.274-.16-198.8-.17c-11.41-.01-20.65-9.27-20.65-20.67v-156.44c0-11.79 9.55-21.34 21.33-21.34h336.85c7.58 0 13.73 6.15 13.73 13.73 0 3.79-1.54 7.22-4.02 9.71-2.49 2.48-5.92 4.02-9.71 4.02h-7.86l15.29 75.03 65.544 15.42c4.38 1.22 7.87 4.25 9.74 8.16.98 2.03 1.51 4.29 1.51 6.64z" fill="#ffe400"/><path d="m478.954 261.71v45.41c0 11.41-9.26 20.67-20.68 20.66l-202.274-.16v-198.62h138.73c7.58 0 13.73 6.15 13.73 13.73 0 3.79-1.54 7.22-4.02 9.71-2.49 2.48-5.92 4.02-9.71 4.02h-7.86l15.29 75.03 65.544 15.42c4.38 1.22 7.87 4.25 9.74 8.16.98 2.03 1.51 4.29 1.51 6.64z" fill="#ffc300"/><path d="m332.933 156.457v171.236l-64.953-.058v-171.178z" fill="#ffb600"/><path d="m495.514 306.53v11.93c0 5.14-4.17 9.3-9.31 9.3l-153.174-.07-64.96-.05-12.07-.01-227.09-.15c-5.14-.01-9.3-4.17-9.3-9.31v-20.94h466.604c5.13 0 9.3 4.16 9.3 9.3z" fill="#fefefe"/><path d="m495.514 306.53v11.93c0 5.14-4.17 9.3-9.31 9.3l-153.174-.07-64.96-.05-12.07-.01v-30.4h230.214c5.13 0 9.3 4.16 9.3 9.3z" fill="#d1f6ff"/><path d="m386.483 156.457h-19.201c-.038 0-.074.005-.111.006h-99.19v75.032h99.302 8.941 25.557z" fill="#ffb600"/><circle cx="358.356" cy="327.782" fill="#393845" r="36.308"/><circle cx="358.356" cy="327.782" fill="#6e7aa0" r="17.867"/><path d="m99.107 327.449c0 20.052 16.255 36.308 36.308 36.308 20.052 0 36.308-16.255 36.308-36.308 0-20.052-16.256-36.308-36.308-36.308-20.053 0-36.308 16.255-36.308 36.308z" fill="#393845"/><path d="m117.548 327.449c0 9.867 7.999 17.867 17.866 17.867 9.868 0 17.867-8 17.867-17.867s-7.999-17.867-17.867-17.867c-9.867 0-17.866 7.999-17.866 17.867z" fill="#6e7aa0"/><g fill="#16325b"><path d="m153.498 231.495h-64.949v-66.618c0-4.646 3.767-8.413 8.413-8.413h48.123c4.646 0 8.413 3.767 8.413 8.413z"/><path d="m243.213 231.495h-64.949v-66.618c0-4.646 3.767-8.413 8.413-8.413h48.123c4.646 0 8.413 3.767 8.413 8.413z"/><path d="m332.931 231.495h-64.949v-66.618c0-4.646 3.767-8.413 8.413-8.413h48.123c4.646 0 8.413 3.767 8.413 8.413z"/><path d="m62.921 164.87v66.625h-26.373v-75.038h17.96c4.647 0 8.413 3.767 8.413 8.413z"/><path d="m420.87 156.464h-34.001l-.001-.007-20.247.007h-7.311v.002c-4.645 0-8.41 3.765-8.41 8.41v66.619h51.265l-12.443-61.04h31.149c2.096 0 3.796 1.7 3.796 3.796v5.699h-.229c-3.446 0-6.24 2.794-6.24 6.24v25.57c0 2.571 2.084 4.655 4.655 4.655h5.896c5.262 0 9.553-4.105 9.877-9.285h.031v-.624-26.556-5.699c0-9.824-7.963-17.787-17.787-17.787z"/></g><path d="m478.958 261.715v22.758h-22.35c-8.12 0-14.702-6.582-14.702-14.702 0-8.12 6.582-14.702 14.702-14.702h20.835c.979 2.029 1.515 4.291 1.515 6.646z" fill="#fefefe"/><path d="m36.548 246.115h206.668v14.632h-206.668z" fill="#ffb600"/><path d="m36.548 269.771h206.668v14.62h-206.668z" fill="#ffb600"/><path d="m488.12 364.09c-19.23 41.23-49.12 76.48-86.12 102.22-40.76 28.35-90.16 45.16-143.46 45.68-.59.01-1.18.01-1.77.01h-.77c-1.05 0-2.09-.01-3.14-.02-.65-.01-1.29-.01-1.94-.03-52.33-1.02-100.8-17.74-140.92-45.64-37-25.74-66.89-60.99-86.12-102.22z" fill="#545d7a"/><path d="m488.12 364.09c-19.23 41.23-49.12 76.48-86.12 102.22-40.76 28.35-90.16 45.16-143.46 45.68-.59.01-1.18.01-1.77.01h-.77v-147.91z" fill="#474f6f"/><path d="m440.46 433.5c-46.57 48.39-112 78.5-184.46 78.5s-137.89-30.11-184.46-78.5z" fill="#8fc8f5"/><path d="m440.46 433.5c-46.57 48.39-112 78.5-184.46 78.5v-78.5z" fill="#8fc8f5"/><path d="m440.46 433.5c-46.57 48.39-112 78.5-184.46 78.5v-78.5z" fill="#65b2fe"/></svg>