<svg id="Capa_1" enable-background="new 0 0 512 512" height="512" viewBox="0 0 512 512" width="512" xmlns="http://www.w3.org/2000/svg"><circle cx="256" cy="256" fill="#65b2fe" r="256"/><path d="m512 256c0 87.11-43.52 164.07-110 210.31-41.41 28.8-91.73 45.69-146 45.69s-104.59-16.89-146-45.69c-66.48-46.24-110-123.2-110-210.31 0-46.22 12.25-89.57 33.68-127 44.12 77.07 127.16 129 222.32 129s178.21-51.93 222.32-129c21.43 37.43 33.68 80.78 33.68 127z" fill="#0e9ce7"/><path d="m452 316c0 105.34-83.12 191.28-187.34 195.81-.31.02-.62.03-.93.04-.87.03-1.74.06-2.6.08-1.73.05-3.44.07-5.13.07-108.24 0-196-87.76-196-196s87.76-196 196-196h.28c108.11.15 195.72 87.85 195.72 196z" fill="#ffe853"/><path d="m452 316c0 105.34-83.12 191.28-187.34 195.81-.31.02-.62.03-.93.04-.87.03-1.74.06-2.6.08-1.73.05-3.44.07-5.13.07-58.54-45.3-103.35-116.25-103.35-196s44.81-150.7 103.35-196h.28c108.11.15 195.72 87.85 195.72 196z" fill="#fed110"/><path d="m452 316c0 108.244-87.756 196-196 196v-392c108.244 0 196 87.756 196 196z" fill="#ff9f01"/><path d="m375.68 243.117c-16.242-20.451-46.793-29.91-73.514-21.32-.021.007-.042.013-.063.02-2 .645-3.955-1.344-2.802-2.874 4.777-6.339 11.996-11.344 21.15-13.927 21.129-5.962 45.356 3.583 55.048 21.676 2.733 5.102 4.081 10.374 4.188 15.506.037 1.847-2.761 2.489-4.007.919z" fill="#c55835"/><path d="m281.531 459.583h38.813c6.988 0 10.487-8.449 5.546-13.39l-26.425-26.425c-.909-.909-.909-2.382 0-3.291l26.425-26.425c4.941-4.941 1.442-13.39-5.546-13.39h-38.813-10.965c-2.597 0-2.957 3.754-.407 4.248l26.293 5.089c3.262.631 4.233 4.828 1.581 6.829l-22.255 16.788c-5.651 4.263-5.651 12.75 0 17.013l22.255 16.788c2.652 2.001 1.68 6.198-1.581 6.829l-26.293 5.089c-2.55.493-2.19 4.248.407 4.248z" fill="#c6601a"/><circle cx="187.667" cy="294.167" fill="#fff" r="46.095"/><circle cx="187.667" cy="294.167" fill="#29334c" r="25.616"/><path d="m284.035 320.536c1.387-25.862 21.923-47.141 47.723-49.409 30.245-2.659 55.841 20.412 57.193 49.859.037.71.057 1.436.062 2.146 0 .057.001.114.001.171.014 4.895-6.39 6.829-9.182 2.808-9.54-13.738-25.477-22.693-43.461-22.582-17.981.111-33.804 9.248-43.19 23.094-2.772 4.09-9.187 2.151-9.223-2.79-.008-1.093.018-2.192.077-3.297z" fill="#29334c"/><path d="m151.308 241.786c16.242-20.451 46.793-29.91 73.514-21.32.021.007.042.014.063.02 2.001.645 3.955-1.344 2.802-2.874-4.777-6.339-11.996-11.344-21.15-13.927-21.129-5.963-45.356 3.583-55.048 21.676-2.733 5.102-4.081 10.374-4.188 15.506-.037 1.847 2.761 2.488 4.007.919z" fill="#ed771b"/><path d="m464.73 380.221c0 8.834-3.368 17.668-10.112 24.404l-35.76 35.76c-3.606 3.597-8.323 5.404-13.04 5.404s-9.434-1.807-13.04-5.404l-35.76-35.76c-6.744-6.736-10.112-15.57-10.112-24.404s3.368-17.668 10.112-24.404c13.472-13.472 35.319-13.472 48.799 0 6.736-6.736 15.57-10.104 24.404-10.104s17.659 3.368 24.395 10.104c6.746 6.736 10.114 15.57 10.114 24.404z" fill="#ff1d56"/><path d="m464.73 380.221c0 8.834-3.368 17.668-10.112 24.404l-35.76 35.76c-3.606 3.597-8.323 5.404-13.04 5.404v-89.972c6.736-6.736 15.57-10.104 24.404-10.104s17.659 3.368 24.395 10.104c6.745 6.736 10.113 15.57 10.113 24.404z" fill="#dd1265"/></svg>