<svg id="Capa_1" enable-background="new 0 0 512 512" height="512" viewBox="0 0 512 512" width="512" xmlns="http://www.w3.org/2000/svg"><g><g><path d="m512 256c0 43.79-11 85.02-30.39 121.07l-225.61 49.67-225.61-49.67c-19.39-36.05-30.39-77.28-30.39-121.07 0-46.63 12.47-90.34 34.26-128 41.698 72.091 399.22 76.52 443.48 0 21.79 37.66 34.26 81.37 34.26 128z" fill="#9febff"/><path d="m477.74 128c-44.26 76.52-126.99 128-221.74 128s-177.48-51.48-221.74-128c.01-.02.03-.05.04-.07 44.27-76.48 126.98-127.93 221.7-127.93s177.43 51.45 221.7 127.93c.01.02.03.05.04.07z" fill="#c4f4ff"/><path d="m481.61 377.07c-43.19 80.32-128.02 134.93-225.61 134.93s-182.42-54.61-225.61-134.93z" fill="#70c5e9"/></g><g><path d="m457.306 333.76-263.345-165.544c-8.279-5.206-19.04-4.676-26.771 1.321l-35.359 27.427-19.244-24.81 35.359-27.428c18.112-14.049 43.321-15.293 62.726-3.093l263.345 165.544z" fill="#a8306e"/><path d="m60.647 333.76-16.711-26.583 263.344-165.544c19.409-12.2 44.616-10.956 62.726 3.093l35.359 27.427-19.244 24.81-35.359-27.428c-7.73-5.996-18.49-6.527-26.772-1.32z" fill="#c02e71"/><circle cx="142.223" cy="320.468" fill="#e8ebf7" r="89.932"/><circle cx="375.73" cy="320.47" fill="#e8ebf7" r="89.93"/><path d="m465.66 320.47c0 49.67-40.26 89.93-89.93 89.93v-179.86c49.67 0 89.93 40.26 89.93 89.93z" fill="#daddee"/><path d="m232.155 320.468c0 49.67-40.26 89.93-89.93 89.93v-179.86c49.67 0 89.93 40.26 89.93 89.93z" fill="#daddee"/><path d="m393.611 408.626c-5.777 1.172-11.754 1.779-17.876 1.779-49.673 0-89.937-40.264-89.937-89.937 0-49.663 40.264-89.926 89.937-89.926 6.123 0 12.099.607 17.876 1.779-41.112 8.289-72.06 44.607-72.06 88.147-.001 43.55 30.948 79.868 72.06 88.158z" fill="#fff"/><path d="m160.104 408.626c-5.777 1.172-11.754 1.779-17.876 1.779-49.673 0-89.937-40.264-89.937-89.937 0-49.663 40.264-89.926 89.937-89.926 6.123 0 12.099.607 17.876 1.779-41.112 8.289-72.06 44.607-72.06 88.147 0 43.55 30.949 79.868 72.06 88.158z" fill="#fff"/><path d="m375.732 214.838c-44.722 0-83.04 27.935-98.425 67.267-5.547-2.658-11.764-4.155-18.326-4.155s-12.779 1.497-18.337 4.155c-15.385-39.332-53.703-67.267-98.425-67.267-58.245 0-105.626 47.381-105.626 105.626s47.381 105.636 105.625 105.636c58.256 0 105.636-47.391 105.636-105.636 0-6.133 4.992-11.115 11.126-11.115 6.133 0 11.115 4.982 11.115 11.115 0 58.245 47.391 105.636 105.636 105.636s105.626-47.391 105.626-105.636-47.381-105.626-105.625-105.626zm-233.514 179.863c-40.923 0-74.227-33.304-74.227-74.237 0-40.923 33.304-74.227 74.227-74.227 40.934 0 74.238 33.304 74.238 74.227 0 40.933-33.304 74.237-74.238 74.237zm233.514 0c-40.934 0-74.237-33.304-74.237-74.237 0-40.923 33.304-74.227 74.237-74.227s74.227 33.304 74.227 74.227c-.001 40.933-33.294 74.237-74.227 74.237z" fill="#c02e71"/><path d="m375.732 214.838c-44.722 0-83.04 27.935-98.425 67.267-5.547-2.658-11.764-4.155-18.326-4.155v31.399c6.133 0 11.115 4.982 11.115 11.115 0 58.245 47.391 105.636 105.636 105.636s105.626-47.391 105.626-105.636-47.382-105.626-105.626-105.626zm0 179.863c-40.934 0-74.237-33.304-74.237-74.237 0-40.923 33.304-74.227 74.237-74.227s74.227 33.304 74.227 74.227c-.001 40.933-33.294 74.237-74.227 74.237z" fill="#a8306e"/></g></g></svg>