<svg id="Icons" enable-background="new 0 0 512 512" height="512" viewBox="0 0 512 512" width="512" xmlns="http://www.w3.org/2000/svg"><g><circle cx="256" cy="256" fill="#6c53a2" r="256"/><g><g><g><path d="m374.638 329.152c-4.143 0-7.5-3.358-7.5-7.5s3.357-7.5 7.5-7.5c5.341 0 12.468-11.138 16.452-42.396 3.482-27.317 3.482-60.724 3.482-80.684 0-4.142 3.357-7.5 7.5-7.5s7.5 3.358 7.5 7.5c0 20.316 0 54.318-3.603 82.58-3.036 23.826-9.589 55.5-31.331 55.5z" fill="#9175a7"/></g><g><path d="m137.35 329.152c4.143 0 7.5-3.358 7.5-7.5s-3.357-7.5-7.5-7.5c-5.341 0-12.468-11.138-16.452-42.396-3.482-27.317-3.482-60.724-3.482-80.684 0-4.142-3.357-7.5-7.5-7.5s-7.5 3.358-7.5 7.5c0 20.316 0 54.318 3.603 82.58 3.036 23.826 9.589 55.5 31.331 55.5z" fill="#9175a7"/></g><g><path d="m368.01 241.064-38.989-38.989 36.25-36.25c7.083-7.083 18.566-7.083 25.648 0l13.341 13.341c7.083 7.083 7.083 18.566 0 25.648z" fill="#a583bb"/><path d="m400.499 186.324-16.737-16.737c-2.847-2.847-7.463-2.847-10.31 0-2.847 2.847-2.847 7.463 0 10.31l16.737 16.737c2.847 2.847 7.463 2.847 10.31 0 2.847-2.847 2.847-7.463 0-10.31z" fill="#c2aacf"/></g><g><path d="m182.966 202.075-38.989 38.989-36.25-36.25c-7.083-7.083-7.083-18.566 0-25.648l13.341-13.341c7.083-7.083 18.566-7.083 25.648 0z" fill="#a583bb"/><path d="m128.226 169.587-16.737 16.737c-2.847 2.847-2.847 7.463 0 10.31 2.847 2.847 7.463 2.847 10.31 0l16.737-16.737c2.847-2.847 2.847-7.463 0-10.31-2.847-2.847-7.463-2.847-10.31 0z" fill="#c2aacf"/></g></g><g><path d="m312.81 116.87c0 6.9-5.59 12.5-12.5 12.5-6.9 0-12.5-5.6-12.5-12.5 0-7.85-2.92-13.15-7.11-16.73-7.35-6.29-18.6-7.24-24.7-7.24-2.97 0-7.16.22-11.53 1.18-9.7 2.13-20.28 7.87-20.28 22.79 0 6.9-5.6 12.5-12.5 12.5-6.91 0-12.5-5.6-12.5-12.5 0-20.28 10.94-35.95 28.95-43.67 8-3.44 17.4-5.3 27.86-5.3 20.13 0 36.35 6.91 46.22 18.62 6.79 8.07 10.59 18.41 10.59 30.35z" fill="#a583bb"/><path d="m302.22 86.52c-5.58 6.48-13.03 11.3-21.52 13.62-7.35-6.29-18.6-7.24-24.7-7.24-2.97 0-7.16.22-11.53 1.18-7.4-5.06-13.16-12.34-16.33-20.88 8-3.44 17.4-5.3 27.86-5.3 20.13 0 36.35 6.91 46.22 18.62z" fill="#c2aacf"/></g><path d="m374.61 228.21v152.63c0 11.29-4.49 21.52-11.78 29.02-7.56 7.81-18.17 12.66-29.9 12.66h-153.86c-23.02 0-41.68-18.66-41.68-41.68v-152.63c0-.52 0-1.04.02-1.55.78-61.98 49.1-112.49 110.17-116.76 2.78-.2 5.59-.3 8.42-.3 65.51 0 118.61 53.1 118.61 118.61z" fill="#22bce0"/><path d="m362.83 409.86c-7.56 7.81-18.17 12.66-29.9 12.66h-153.86c-23.02 0-41.68-18.66-41.68-41.68v-152.63c0-.52 0-1.04.02-1.55 9.25-1.33 18.71-2.02 28.33-2.02 104.95 0 190.77 81.86 197.09 185.22z" fill="#22a8b9"/><path d="m256 132.634c-51.957 0-94.076 42.119-94.076 94.076v121.06c0 18.259 14.802 33.061 33.061 33.061h122.03c18.259 0 33.061-14.802 33.061-33.061v-121.06c0-51.957-42.119-94.076-94.076-94.076z" fill="#4fcae8"/><path d="m256 109.6c-2.83 0-5.64.1-8.42.3-3.11 2.66-5.08 6.61-5.08 11.02 0 4.98 2.51 9.37 6.33 11.98.002.001.004.002.006.004 2.365-.178 4.754-.27 7.164-.27 51.956 0 94.076 42.119 94.076 94.076v6.519c.002.004.003.007.004.011 2.29 4.97 7.32 8.42 13.16 8.42 4.61 0 8.72-2.15 11.37-5.51v-7.94c0-65.51-53.1-118.61-118.61-118.61z" fill="#4fcae8"/><path d="m256 132.634c-51.957 0-94.076 42.119-94.076 94.076v22.822c0 18.259 14.802 33.061 33.061 33.061h122.03c18.259 0 33.061-14.802 33.061-33.061v-22.822c0-51.957-42.119-94.076-94.076-94.076z" fill="#2d2667"/><g><path d="m388.63 380.84h-14.02v-84.93h5.69c11.45 0 21.4 7.88 24.01 19.03l8.33 35.63c3.62 15.47-8.12 30.27-24.01 30.27z" fill="#83d5ef"/><path d="m374.61 380.83v-83.33c7.52 2.83 13.39 9.25 15.31 17.44l8.34 35.63c3.59 15.35-7.94 30.05-23.65 30.26z" fill="#4fcae8"/></g><g><path d="m123.371 380.84h14.02v-84.93h-5.69c-11.45 0-21.4 7.88-24.01 19.03l-8.33 35.63c-3.62 15.47 8.12 30.27 24.01 30.27z" fill="#83d5ef"/><path d="m137.391 380.83v-83.33c-7.52 2.83-13.39 9.25-15.31 17.44l-8.34 35.63c-3.59 15.35 7.94 30.05 23.65 30.26z" fill="#4fcae8"/></g><g><g><path d="m292.236 339.165h-72.472c-17.756 0-32.15 14.394-32.15 32.15v19.031c0 17.756 14.394 32.15 32.15 32.15h72.472c17.756 0 32.15-14.394 32.15-32.15v-19.031c0-17.756-14.394-32.15-32.15-32.15z" fill="#83d5ef"/></g><g><path d="m314.21 397.629c-1.381 0-2.5-1.119-2.5-2.5v-12c0-1.381 1.119-2.5 2.5-2.5s2.5 1.119 2.5 2.5v12c0 1.381-1.119 2.5-2.5 2.5zm-116.42-8.093c-1.381 0-2.5-1.119-2.5-2.5v-8.106c0-1.413.1-2.836.297-4.231.194-1.366 1.459-2.321 2.826-2.124 1.367.194 2.318 1.459 2.124 2.826-.165 1.163-.248 2.35-.248 3.528v8.107c.001 1.381-1.119 2.5-2.499 2.5zm111.992-23.039c-.816 0-1.616-.4-2.096-1.135-1.98-3.036-4.655-5.653-7.733-7.567-1.172-.729-1.532-2.271-.803-3.443s2.272-1.53 3.443-.803c3.694 2.297 6.903 5.438 9.28 9.082.755 1.156.429 2.705-.728 3.459-.42.275-.894.407-1.363.407zm-102.213-6.034c-.713 0-1.421-.303-1.916-.892-.888-1.057-.751-2.634.306-3.522 3.341-2.807 7.328-4.879 11.528-5.991 1.336-.354 2.704.442 3.057 1.776.354 1.334-.442 2.703-1.776 3.057-3.494.926-6.811 2.65-9.592 4.986-.468.394-1.039.586-1.607.586zm74.478-6.399h-12c-1.381 0-2.5-1.119-2.5-2.5s1.119-2.5 2.5-2.5h12c1.381 0 2.5 1.119 2.5 2.5s-1.119 2.5-2.5 2.5zm-32 0h-12c-1.381 0-2.5-1.119-2.5-2.5s1.119-2.5 2.5-2.5h12c1.381 0 2.5 1.119 2.5 2.5s-1.119 2.5-2.5 2.5z" fill="#fff"/></g></g><g id="Magnifying-glass_3_"><g><path d="m181.926 126.874h13.847v26.246h-13.847z" fill="#c1b7d3" transform="matrix(.908 -.42 .42 .908 -41.332 92.252)"/><path d="m189.621 125.18 11.022 23.819c-2.601 1.204-5.689.073-6.894-2.532l-6.66-14.392c-1.204-2.602-.069-5.692 2.532-6.895z" fill="#ebd9ea"/><path d="m188.077 154.814-8.897-19.227c2.1-.972 4.592-.059 5.565 2.044l5.376 11.618c.972 2.099.056 4.593-2.044 5.565z" fill="#9f90ae"/><path d="m189.621 125.18 7.449 16.098c-2.601 1.204-5.689.073-6.894-2.532l-3.087-6.671c-1.204-2.602-.069-5.692 2.532-6.895z" fill="#fff"/></g><g><path d="m210.352 154.502 21.384 46.211c3.113 6.727.182 14.707-6.545 17.82-3.2 1.481-6.676 1.595-9.782.582-3.43-1.11-6.404-3.596-8.038-7.127l-21.384-46.211c-1.634-3.531-1.602-7.404-.23-10.74 1.24-3.019 3.577-5.595 6.777-7.076.531-.246 1.074-.456 1.617-.625 2.899-.916 5.933-.789 8.646.204 3.228 1.185 5.998 3.597 7.555 6.962z" fill="#e9465e"/><path d="m193.788 162.167 21.384 46.211c1.632 3.527 1.606 7.402.237 10.737-3.43-1.11-6.404-3.596-8.038-7.127l-21.384-46.211c-1.634-3.531-1.602-7.404-.23-10.74.162.053.32.108.479.167 3.224 1.186 5.995 3.598 7.552 6.963z" fill="#c0405c"/><path d="m210.352 154.502 21.225 45.869c-6.341 2.002-13.335-.973-16.203-7.17l-21.224-45.865c2.899-.916 5.933-.789 8.646.204 3.229 1.185 5.999 3.597 7.556 6.962z" fill="#ee6781"/><path d="m202.798 147.54c3.227 1.185 5.997 3.596 7.555 6.962l11.048 23.875c-6.341 2.002-13.335-.973-16.203-7.17l-11.046-23.872c2.898-.915 5.933-.788 8.646.205z" fill="#ea7589"/></g><g><path d="m182.912 55.978c-21.914-8.049-46.208 3.193-54.259 25.111s3.193 46.208 25.107 54.257c21.918 8.051 46.21-3.187 54.261-25.106 8.051-21.917-3.191-46.211-25.109-54.262zm-24.872 67.718c-15.478-5.685-23.418-22.844-17.732-38.326s22.846-23.422 38.324-17.737c15.482 5.686 23.422 22.846 17.736 38.328-5.687 15.481-22.847 23.422-38.328 17.735z" fill="#f39e22"/><path d="m180.652 62.131c-18.519-6.802-39.047 2.694-45.85 21.217-6.802 18.519 2.698 39.049 21.217 45.85 18.523 6.803 39.052-2.696 45.854-21.215 6.803-18.523-2.698-39.049-21.221-45.852zm-22.612 61.565c-15.478-5.685-23.418-22.844-17.732-38.326s22.846-23.422 38.324-17.737c15.482 5.686 23.422 22.846 17.736 38.328-5.687 15.481-22.847 23.422-38.328 17.735z" fill="#dd8c29"/><g><path d="m186.198 105.981c-1.828-.671-2.765-2.698-2.094-4.525 3.193-8.693-1.282-18.364-9.975-21.557-1.828-.671-2.765-2.698-2.094-4.525.671-1.828 2.698-2.765 4.525-2.094 12.344 4.534 18.697 18.264 14.164 30.608-.672 1.827-2.698 2.765-4.526 2.093z" fill="#fff"/></g><g><path d="m160.115 118.051c-12.344-4.534-18.697-18.264-14.164-30.608.671-1.828 2.698-2.765 4.525-2.094 1.828.671 2.765 2.698 2.094 4.525-3.193 8.693 1.282 18.364 9.976 21.557 1.828.671 2.765 2.698 2.094 4.525-.671 1.829-2.697 2.766-4.525 2.095z" fill="#c2aacf"/></g></g></g><g id="Pencil_5_"><g><path d="m150.115 130.712h29.684v113.156h-29.684z" fill="#f39e22" transform="matrix(.707 -.707 .707 .707 -84.119 171.498)"/><path d="m126.664 157.778 67.805 67.805c1.687 1.687 2.526 3.891 2.526 6.104 0 2.214-.839 4.417-2.526 6.104l-80.013-80.013c3.369-3.369 8.834-3.374 12.208 0z" fill="#c68132"/><path d="m135.445 136.789 80.013 80.013c-3.374 3.374-8.844 3.374-12.213.005l-67.805-67.805c-3.374-3.374-3.369-8.839.005-12.213z" fill="#f9c744"/></g><g><path d="m225.871 216.112c2.682 2.682 2.686 7.036.005 9.717l-22.379 22.379c-1.341 1.341-3.101 2.009-4.856 2.009-.887 0-1.78-.171-2.608-.512-.824-.336-1.589-.839-2.253-1.502-2.686-2.686-2.686-7.035-.005-9.717l22.379-22.379c1.341-1.341 3.101-2.009 4.856-2.009 1.76-.004 3.52.673 4.861 2.014z" fill="#ebd9ea"/><path d="m225.871 216.112-14.13 14.13c-1.341 1.341-3.096 2.014-4.861 2.014-1.755 0-3.515-.668-4.861-2.014l14.134-14.134c1.341-1.341 3.101-2.009 4.856-2.009 1.761-.005 3.521.672 4.862 2.013z" fill="#fff"/><path d="m224.803 226.902-21.306 21.306c-1.341 1.341-3.101 2.009-4.856 2.009-.887 0-1.78-.171-2.608-.512l21.306-21.306c1.341-1.341 3.101-2.009 4.856-2.009.887 0 1.769.171 2.608.512z" fill="#c1b7d3"/></g><g><path d="m225.178 226.526 7.192 7.192c3.189 3.189 4.622 7.46 4.3 11.623-.019.371-.059.731-.117 1.092-.463 3.028-1.853 5.938-4.183 8.269-2.448 2.448-5.539 3.861-8.727 4.242-.497.059-1.004.098-1.511.097-.078.01-.166.01-.254.01-3.798.005-7.596-1.443-10.497-4.344l-7.192-7.191z" fill="#ee6781"/><path d="m225.178 226.526 7.192 7.192c3.189 3.189 4.622 7.46 4.3 11.623-.371.029-.746.044-1.126.044-3.793 0-7.591-1.448-10.492-4.349l-7.192-7.191z" fill="#f0a6b3"/><path d="m210.6 241.104 7.192 7.192c2.964 2.964 4.417 6.865 4.339 10.746-.078.01-.166.01-.254.01-3.798.005-7.596-1.443-10.497-4.344l-7.192-7.191z" fill="#d65171"/></g><path d="m135.443 136.791-20.99 20.989-13.12-30.672 3.442-3.442 24.856 10.638z" fill="#f5b890"/><path d="m129.631 134.304-10.624 10.624c-1.804 1.804-4.856 1.209-5.86-1.131l-8.542-19.961.171-.171z" fill="#fbd9a3"/><g><path d="m95.853 113.729 10.351 10.351c1.229 1.229 1.224 3.223-.005 4.451-.614.614-1.419.921-2.223.926-.809 0-1.614-.307-2.228-.921l-10.351-10.351c-1.112-1.112-1.214-2.843-.327-4.071.097-.137.205-.263.327-.385 1.228-1.228 3.222-1.233 4.456 0z" fill="#2e3140"/><path d="m95.853 113.729 6.333 6.333c-.098.136-.205.263-.327.385-.614.614-1.424.926-2.228.921-.809 0-1.614-.307-2.228-.921l-6.333-6.333c.097-.137.205-.263.327-.385 1.228-1.228 3.222-1.233 4.456 0z" fill="#334353"/></g></g><g><g><path d="m331.311 226.71h-23.799c0-28.449-23.063-51.512-51.512-51.512s-51.512 23.063-51.512 51.512h-23.799c-10.364 0-18.765 8.401-18.765 18.765v32.295c0 18.259 14.802 33.061 33.061 33.061h122.03c18.259 0 33.061-14.802 33.061-33.061v-32.295c0-10.364-8.402-18.765-18.765-18.765z" fill="#83d5ef"/></g><g><path d="m338.644 282.731c-1.381 0-2.5-1.119-2.5-2.5v-12c0-1.381 1.119-2.5 2.5-2.5s2.5 1.119 2.5 2.5v12c0 1.381-1.12 2.5-2.5 2.5zm-165.288 0c-1.381 0-2.5-1.119-2.5-2.5v-10.565c0-1.381 1.119-2.5 2.5-2.5s2.5 1.119 2.5 2.5v10.565c0 1.381-1.119 2.5-2.5 2.5zm.147-30.558c-.109 0-.22-.007-.332-.022-1.369-.182-2.331-1.438-2.15-2.807.612-4.613 2.9-8.833 6.443-11.88 1.046-.902 2.625-.782 3.525.265.9 1.046.782 2.625-.265 3.525-2.611 2.247-4.297 5.353-4.747 8.748-.165 1.257-1.239 2.171-2.474 2.171zm164.744-1.412c-1.146 0-2.179-.792-2.438-1.957-.744-3.341-2.693-6.29-5.49-8.304-1.12-.807-1.375-2.369-.568-3.49.809-1.12 2.37-1.375 3.49-.568 3.793 2.731 6.438 6.735 7.449 11.274.3 1.348-.55 2.684-1.897 2.984-.184.042-.366.061-.546.061zm-25.812-12.886h-12c-1.381 0-2.5-1.119-2.5-2.5s1.119-2.5 2.5-2.5h12c1.381 0 2.5 1.119 2.5 2.5s-1.12 2.5-2.5 2.5zm-102.304 0h-12c-1.381 0-2.5-1.119-2.5-2.5s1.119-2.5 2.5-2.5h12c1.381 0 2.5 1.119 2.5 2.5s-1.119 2.5-2.5 2.5zm9.524-11.334c-.136 0-.274-.011-.414-.035-1.362-.227-2.282-1.515-2.055-2.876.719-4.315 1.851-8.377 3.365-12.072.523-1.278 1.983-1.888 3.262-1.365 1.277.524 1.889 1.984 1.365 3.262-1.373 3.35-2.402 7.05-3.06 10.997-.204 1.222-1.263 2.089-2.463 2.089zm72.439-1.413c-1.176 0-2.224-.834-2.453-2.032-.75-3.93-1.878-7.594-3.352-10.889-.563-1.26.001-2.739 1.262-3.303 1.256-.562 2.738 0 3.303 1.261 1.632 3.648 2.876 7.684 3.699 11.993.259 1.356-.631 2.666-1.987 2.924-.159.032-.317.046-.472.046zm-57.401-25.931c-.763 0-1.517-.348-2.008-1.008-.824-1.107-.594-2.674.514-3.498 3.425-2.548 7.311-4.436 11.548-5.608 1.331-.371 2.708.411 3.076 1.742.369 1.331-.412 2.708-1.742 3.076-3.64 1.008-6.97 2.623-9.898 4.802-.448.334-.971.494-1.49.494zm41.446-.829c-.482 0-.969-.139-1.398-.429-3.007-2.032-6.408-3.501-10.11-4.366-1.345-.314-2.181-1.659-1.866-3.003.314-1.344 1.656-2.178 3.003-1.866 4.299 1.004 8.26 2.718 11.774 5.093 1.144.773 1.444 2.327.671 3.471-.484.714-1.273 1.1-2.074 1.1z" fill="#fff"/></g></g></g></g></svg>