<svg id="Capa_1" enable-background="new 0 0 512 512" height="512" viewBox="0 0 512 512" width="512" xmlns="http://www.w3.org/2000/svg"><g><g><path d="m256 304.68c-141.387 0-243.819-138.019-222.501-175.377 44.075-77.237 127.207-129.303 222.501-129.303 95.295 0 178.427 52.066 222.502 129.303 21.317 37.358-81.115 175.377-222.502 175.377z" fill="#f3d37a"/><path d="m512 256c0 26.051-3.891 51.191-11.129 74.871-5.031 16.469-11.672 32.231-19.75 47.109-8.25 15.2-147.391 37.897-225.121 37.897s-216.871-22.697-225.109-37.897c-3.289-6.031-6.332-12.21-9.121-18.531-14-31.629-21.77-66.629-21.77-103.449 0-46.219 12.25-89.57 33.68-127 44.121 77.07 127.16 129 222.32 129s178.211-51.93 222.32-129c21.43 37.43 33.68 80.781 33.68 127zm0 0" fill="#efc142"/><path d="m481.262 377.699c-7.16 13.223-15.434 25.742-24.723 37.43-4.105 5.174-8.41 10.183-12.901 15.017-4.738 5.101-52.952 44.974-74.967 55.784-.712.35-1.426.696-2.142 1.039-33.46 16.043-187.597 16.043-221.056 0-.716-.343-1.43-.69-2.142-1.039-22.015-10.81-70.292-50.746-75.058-55.882-4.458-4.804-8.733-9.781-12.811-14.92-9.289-11.688-17.563-24.207-24.723-37.43h450.523zm0 0" fill="#e38d22"/></g><g><path d="m68.269 430.026c21.277 22.942 46.703 41.977 75.092 55.91v-225.079h-75.092z" fill="#8ab8ec"/><path d="m105.815 463.319c11.797 8.561 24.351 16.14 37.546 22.616v-225.078h-37.546z" fill="#728ee4"/><path d="m168.392 496.612c2.77 1.009 5.567 1.957 8.381 2.872h66.712v-188.565h-75.092v185.693z" fill="#8ab8ec"/><path d="m205.938 310.919h37.546v188.566h-37.546z" fill="#728ee4"/><path d="m268.515 499.484h66.712c2.813-.915 5.611-1.863 8.381-2.872v-135.632h-75.092v138.504z" fill="#8ab8ec"/><path d="m306.062 499.484h29.165c2.813-.915 5.611-1.863 8.381-2.872v-135.632h-37.546z" fill="#728ee4"/><path d="m368.639 485.935c28.389-13.933 53.815-32.967 75.092-55.91v-18.983h-75.092z" fill="#8ab8ec"/><path d="m406.185 463.319c13.584-9.857 26.159-21.015 37.546-33.293v-18.983h-37.546z" fill="#728ee4"/><path d="m419.36 265.991-22.928 10.046 17.014 38.888-157.446-72.67-155.624-71.829-10.486 22.733 166.11 76.669 146.971 67.835-40.639 12.281 7.236 23.955 85.689-25.898z" fill="#e05352"/><path d="m362.332 349.944 7.236 23.955 85.689-25.898-35.897-82.01-22.928 10.046 17.014 38.888-157.446-72.67v27.573l146.971 67.835z" fill="#cb2d41"/><path d="m256 486.969h-110.531c33.461 16.042 70.945 25.031 110.531 25.031s77.07-8.989 110.531-25.031z" fill="#535564"/><path d="m256 486.969v25.031c39.586 0 77.07-8.989 110.531-25.031z" fill="#3b3b3b"/><path d="m418.7 185.765v-25.031h-26.282c-1.752-8.01-4.756-15.268-9.261-22.027l18.773-18.523-17.772-17.772-18.523 18.773c-6.759-4.505-14.017-7.509-22.027-9.261v-27.117h-25.031v27.116c-8.01 1.752-15.268 4.756-22.027 9.261l-18.522-18.773-17.773 17.772 18.773 18.523c-4.505 6.759-7.509 14.017-9.261 22.027h-26.282v25.031h26.282c1.752 8.01 4.756 15.268 9.261 22.027l-18.773 18.523 17.773 17.771 18.522-18.773c6.759 4.507 14.017 7.51 22.027 9.263v26.282h25.031v-26.282c8.01-1.752 15.268-4.756 22.027-9.263l18.523 18.773 17.772-17.771-18.773-18.523c4.505-6.759 7.509-14.017 9.261-22.027h26.282zm-87.608 12.515c-13.767 0-25.031-11.264-25.031-25.031s11.264-25.031 25.031-25.031 25.031 11.264 25.031 25.031-11.264 25.031-25.031 25.031z" fill="#fbf5eb"/><path d="m392.418 185.765c-1.752 8.01-4.756 15.268-9.261 22.027l18.773 18.523-17.772 17.771-18.523-18.773c-6.759 4.507-14.017 7.51-22.027 9.263v26.282h-12.515v-62.578c13.767 0 25.031-11.264 25.031-25.031s-11.264-25.031-25.031-25.031v-63.411h12.515v27.116c8.01 1.752 15.268 4.756 22.027 9.261l18.523-18.773 17.772 17.772-18.773 18.523c4.505 6.759 7.509 14.017 9.261 22.027h26.282v25.031h-26.282z" fill="#dce0ef"/><path d="m331.092 135.703c-20.776 0-37.546 16.77-37.546 37.546 0 20.774 16.77 37.546 37.546 37.546s37.546-16.772 37.546-37.546c.001-20.776-16.77-37.546-37.546-37.546zm12.516 50.062h-25.031v-25.031h25.031z" fill="#dce0ef"/><path d="m368.639 173.249c0 20.774-16.77 37.546-37.546 37.546v-25.031h12.515v-25.031h-12.515v-25.031c20.775.001 37.546 16.771 37.546 37.547z" fill="#cad0e7"/></g><g fill="#fff"><path d="m250.875 54.06h-1.524c-6.754 0-12.226-5.477-12.226-12.227v-1.523h-8.715v1.523c0 6.75-5.477 12.227-12.227 12.227h-1.527v8.715h1.527c6.75 0 12.227 5.472 12.227 12.226v1.528h8.715v-1.528c0-6.754 5.472-12.226 12.226-12.226h1.524zm0 0"/><path d="m156.577 106.835h-1.524c-6.754 0-12.226-5.477-12.226-12.227v-1.523h-8.715v1.523c0 6.75-5.477 12.227-12.227 12.227h-1.527v8.715h1.527c6.75 0 12.227 5.472 12.227 12.226v1.528h8.715v-1.528c0-6.754 5.472-12.226 12.226-12.226h1.524zm0 0"/></g></g></svg>