<?xml version="1.0" encoding="iso-8859-1"?>
<!-- Generator: Adobe Illustrator 19.0.0, SVG Export Plug-In . SVG Version: 6.00 Build 0)  -->
<svg version="1.1" id="Capa_1" xmlns="http://www.w3.org/2000/svg" xmlns:xlink="http://www.w3.org/1999/xlink" x="0px" y="0px"
	 viewBox="0 0 512 512" style="enable-background:new 0 0 512 512;" xml:space="preserve">
<path style="fill:#90D2E3;" d="M512,256c0,141.385-114.615,256-256,256S0,397.385,0,256S114.615,0,256,0S512,114.615,512,256z"/>
<path style="fill:#FFC143;" d="M467.677,400h-209.87c-4.219,16.445-14.266,30.552-27.807,40c-13.541-9.448-23.587-23.555-27.807-40
	H172c-16.569,0-30-13.431-30-30V200c0-16.569,13.431-30,30-30h310c6.313,0,12.168,1.955,17.001,5.286
	C507.426,200.662,512,227.795,512,256C512,309.398,495.643,358.971,467.677,400z"/>
<path style="fill:#FF9500;" d="M480,317v11c0,1.104-0.896,2-2,2H322c-1.104,0-2-0.896-2-2v-11c0-1.104,0.896-2,2-2h156
	C479.104,315,480,315.896,480,317z M428,345H322c-1.104,0-2,0.896-2,2v11c0,1.104,0.896,2,2,2h106c1.104,0,2-0.896,2-2v-11
	C430,345.896,429.104,345,428,345z M478,285H322c-1.104,0-2,0.896-2,2v11c0,1.104,0.896,2,2,2h156c1.104,0,2-0.896,2-2v-11
	C480,285.896,479.104,285,478,285z M478,255H322c-1.104,0-2,0.896-2,2v11c0,1.104,0.896,2,2,2h156c1.104,0,2-0.896,2-2v-11
	C480,255.896,479.104,255,478,255z M410,240c5.523,0,10-4.477,10-10s-4.477-10-10-10s-10,4.477-10,10S404.477,240,410,240z M440,240
	c5.523,0,10-4.477,10-10s-4.477-10-10-10s-10,4.477-10,10S434.477,240,440,240z M470,240c5.523,0,10-4.477,10-10s-4.477-10-10-10
	s-10,4.477-10,10S464.477,240,470,240z"/>
<path style="fill:#FFB509;" d="M198.667,400H172c-16.569,0-30-13.431-30-30V200c0-16.569,13.431-30,30-30h26.667
	c-16.569,0-30,13.431-30,30v170C168.667,386.569,182.098,400,198.667,400z"/>
<path style="fill:#328093;" d="M370,100v170c0,16.569-13.431,30-30,30h-32.193c-4.219,16.445-14.266,30.552-27.807,40
	c-13.541-9.448-23.587-23.555-27.807-40H30c-16.569,0-30-13.431-30-30V100c0-16.569,13.431-30,30-30h310
	C356.569,70,370,83.431,370,100z"/>
<path style="fill:#2B6C7E;" d="M56.667,300H30c-16.569,0-30-13.431-30-30V100c0-16.569,13.431-30,30-30h26.667
	c-16.569,0-30,13.431-30,30v170C26.667,286.569,40.098,300,56.667,300z"/>
<path style="fill:#235967;" d="M153.083,185c0,35.898-29.102,65-65,65s-65-29.102-65-65s29.102-65,65-65
	S153.083,149.102,153.083,185z M328,192.5H172c-1.104,0-2,0.896-2,2v11c0,1.104,0.896,2,2,2h156c1.104,0,2-0.896,2-2v-11
	C330,193.396,329.104,192.5,328,192.5z M278,222.5H172c-1.104,0-2,0.896-2,2v11c0,1.104,0.896,2,2,2h106c1.104,0,2-0.896,2-2v-11
	C280,223.396,279.104,222.5,278,222.5z M328,162.5H172c-1.104,0-2,0.896-2,2v11c0,1.104,0.896,2,2,2h156c1.104,0,2-0.896,2-2v-11
	C330,163.396,329.104,162.5,328,162.5z M328,132.5H172c-1.104,0-2,0.896-2,2v11c0,1.104,0.896,2,2,2h156c1.104,0,2-0.896,2-2v-11
	C330,133.396,329.104,132.5,328,132.5z"/>
<path style="fill:#FFF5F5;" d="M112.209,187.552c-6.995,5.731-11.006,13.896-11.006,22.4c0,5.523-4.477,10-10,10s-10-4.477-10-10
	c0-14.522,6.681-28.325,18.33-37.87c4.469-3.663,6.88-9.082,6.613-14.867c-0.418-9.066-7.833-16.611-16.881-17.178
	c-5.066-0.321-9.883,1.41-13.559,4.862c-3.68,3.457-5.706,8.139-5.706,13.184c0,5.523-4.477,10-10,10s-10-4.477-10-10
	c0-10.471,4.378-20.59,12.013-27.761c7.743-7.273,17.867-10.912,28.502-10.246c19.087,1.195,34.729,17.104,35.61,36.217
	C126.686,168.452,121.614,179.845,112.209,187.552z M91.292,230.001c-5.523,0-10,4.477-10,10s4.477,10,10,10s10-4.477,10-10
	C101.292,234.478,96.814,230.001,91.292,230.001z"/>
<g>
</g>
<g>
</g>
<g>
</g>
<g>
</g>
<g>
</g>
<g>
</g>
<g>
</g>
<g>
</g>
<g>
</g>
<g>
</g>
<g>
</g>
<g>
</g>
<g>
</g>
<g>
</g>
<g>
</g>
</svg>
