<svg id="Capa_1" enable-background="new 0 0 512 512" height="512" viewBox="0 0 512 512" width="512" xmlns="http://www.w3.org/2000/svg"><g><g><g><g><g><g><circle cx="256" cy="256" fill="#a3d4ff" r="256"/></g></g></g></g></g><path d="m511.992 258.035-122.178-122.178-59.12 16.628-42.522 108.717-155.514-155.514-30 300.625 100.155 100.155c17.158 3.625 34.95 5.532 53.187 5.532 140.706 0 254.898-113.517 255.992-253.965z" fill="#65b1fc"/><path d="m459.302 241h-326.644v-135.312h-30v300.624h30v-135.312h12.103l16.795.846 14.312-.846h283.434z" fill="#555a66"/><g><path d="m459.302 241h-27.109l-14.076-.402-17.02.402h-144.977v30h203.182z" fill="#333940"/></g><g><path d="m407.537 165.291c-5.241-11.702-21.189-47.313-52.945-47.313s-47.704 35.611-52.945 47.313c-10.817 24.154-19.377 56.01-27.655 86.816-7.974 29.675-16.219 60.36-26.062 82.339-6.042 13.492-15.383 29.576-25.565 29.576s-19.521-16.083-25.563-29.575c-7.746-17.297-14.52-40.102-20.933-63.447h-31.107c7.361 27.187 15.154 54.479 24.661 75.708 5.241 11.702 21.189 47.314 52.943 47.314 31.756 0 47.704-35.611 52.945-47.313 10.817-24.154 19.377-56.01 27.655-86.816 7.974-29.675 16.219-60.36 26.062-82.339 6.042-13.492 15.383-29.575 25.565-29.575s19.523 16.083 25.565 29.575c7.756 17.319 14.519 40.07 20.94 63.447h31.096c-7.369-27.218-15.139-54.456-24.657-75.71z" fill="#ff6c52"/></g><g><path d="m407.537 165.291c-5.241-11.702-21.189-47.313-52.945-47.313s-47.704 35.611-52.945 47.313c-10.817 24.154-19.377 56.01-27.655 86.816-5.661 21.068-11.462 42.63-17.872 61.239v64.423c10.189-10.992 16.31-24.632 19.189-31.061 10.817-24.154 19.377-56.01 27.655-86.816 7.974-29.675 16.219-60.36 26.062-82.339 6.042-13.492 15.383-29.575 25.565-29.575s19.523 16.083 25.565 29.575c7.756 17.319 14.519 40.07 20.94 63.447h31.096c-7.367-27.217-15.137-54.455-24.655-75.709z" fill="#ff432e"/></g></g></svg>