<svg id="Layer_1" enable-background="new 0 0 512 512" height="512" viewBox="0 0 512 512" width="512" xmlns="http://www.w3.org/2000/svg"><g><path d="m256 21.995c-135.311 0-245.002 109.691-245.002 245.002 0 31.23 5.855 61.09 16.508 88.557l359.116 118.742c68.726-43.396 114.381-120.01 114.381-207.298-.001-135.311-109.692-245.003-245.003-245.003z" fill="#1c2e7a"/><path d="m378.004 439.075h-214.673v54.768c28.588 11.694 59.871 18.157 92.669 18.157 48.465 0 93.64-14.076 131.668-38.358v-24.902c.001-5.316-4.348-9.665-9.664-9.665z" fill="#ff9100"/><path d="m360.963 441.241c-11.278 5.142-18.896 14.658-18.896 25.497 0 9.552 5.917 18.078 15.04 23.489 1.293-.587 2.576-1.192 3.857-1.801v-47.185z" fill="#bec8f7"/><path d="m357.106 490.227c-9.123-5.411-15.04-13.937-15.04-23.489 0-12.62 10.327-23.449 24.736-27.664h-285.183c23.489 23.801 51.809 42.816 83.377 55.454h182.008c3.405-1.362 6.775-2.791 10.102-4.301z" fill="#e9efff"/><path d="m163.699 439.075h-82.08c19.655 19.917 42.704 36.465 68.197 48.747-14.35-15.388-7.471-42.992 13.883-48.747z" fill="#bec8f7"/><path d="m378.004 6.419h-314.107c-20.254 0-36.826 16.572-36.826 36.826v311.165c12.577 32.918 32.042 62.427 56.643 86.763h294.29c5.315 0 9.664 4.349 9.664 9.664v-191.038c-7.225 1.496-14.706 2.285-22.367 2.285-60.738 0-110.152-49.414-110.152-110.152s49.414-110.152 110.152-110.152c7.662 0 15.142.789 22.367 2.285v-27.981c0-5.316-4.349-9.665-9.664-9.665z" fill="#ffb332"/><path d="m140.665 411.683v-194.375c0-14.382 9.013-26.753 21.667-31.767v-179.122h-98.435c-20.254 0-36.826 16.572-36.826 36.826v311.165c12.577 32.918 32.042 62.427 56.643 86.763h73.948c-10.143-5.939-16.997-16.95-16.997-29.49z" fill="#ff9100"/><path d="m161.755 102.383v49.549h93.393c0-17.811 4.254-34.646 11.793-49.549z" fill="#ffdd40"/><path d="m95.21 6.419h-28.339v416.332c5.299 6.427 10.926 12.57 16.842 18.423h11.497z" fill="#ffb332"/><path d="m158.053 0h-26.088c-3.623 0-6.559 2.937-6.559 6.559v177.424c0 3.707 4.481 5.563 7.102 2.942l6.947-6.947c3.067-3.067 8.04-3.067 11.108 0l6.948 6.948c2.621 2.621 7.102.765 7.102-2.942v-177.424c0-3.623-2.937-6.56-6.56-6.56z" fill="#ff4155"/><path d="m145.01 122.285c-9.013 0-16.67-5.716-19.603-13.713v75.412c0 3.707 4.481 5.563 7.102 2.942l6.947-6.947c3.068-3.067 8.041-3.067 11.108 0l6.948 6.948c2.621 2.621 7.102.765 7.102-2.942v-75.413c-2.934 7.996-10.591 13.713-19.604 13.713z" fill="#e80054"/><ellipse cx="365.301" cy="151.932" fill="#4fabf7" rx="112.152" ry="112.152" transform="matrix(.707 -.707 .707 .707 -.438 302.807)"/><path d="m423.65 235.421c-13.968-.869-15.947-12.675-16.228-16.05-.053-.639-.243-1.253-.551-1.815l-74.598-135.875c-.361-.659-.869-1.235-1.507-1.632-9.286-5.787-6.881-16.404-4.754-21.988.738-1.937.034-4.065-1.639-5.29-1.579-1.155-2.473-2.582-2.94-4.061-4.137 1.764-8.214 3.79-12.208 6.095-53.642 30.97-72.021 99.561-41.05 153.202 30.97 53.641 99.56 72.02 153.202 41.05 2.872-1.658 5.636-3.43 8.303-5.295-.99-1.401-1.43-2.941-1.588-4.318-.257-2.241-2.19-3.883-4.442-4.023z" fill="#1e9ef4"/><path d="m283.956 229.166c1.9-.583 3.766-1.379 5.56-2.415l18.663-10.775-26.779-46.383-18.663 10.775c-1.814 1.047-3.453 2.28-4.92 3.652 2.456 8.201 5.89 16.25 10.357 23.987 4.515 7.819 9.833 14.882 15.782 21.159z" fill="#2a428c"/><path d="m271.819 211.64c-1.154-3.273.157-6.968 3.155-8.716.032-.019.064-.037.096-.056l9.038-5.218c5.316-3.069 12.114-1.248 15.183 4.068l8.395 14.541.493-.285-26.779-46.383-18.663 10.775c-1.815 1.047-3.453 2.28-4.92 3.652 2.456 8.201 5.89 16.25 10.358 23.987 1.742 3.017 3.605 5.918 5.577 8.708-.687-1.68-1.333-3.372-1.933-5.073z" fill="#1c2e7a"/><g><path d="m399.255 165.084c-3.984-3.084-4.713-8.814-1.629-12.797 9.666-12.486-.694-30.443-16.347-28.314-4.991.679-9.589-2.817-10.268-7.809-.677-4.99 2.816-9.591 7.809-10.267 31.799-4.325 52.884 32.171 33.231 57.557-3.092 3.99-8.818 4.709-12.796 1.63z" fill="#73c3f9"/></g><g><path d="m426.362 178.005c-4.311-2.607-5.692-8.214-3.086-12.525 18.888-31.238-4.098-71.056-40.597-70.318-5.036.102-9.202-3.898-9.304-8.935-.101-5.035 3.899-9.201 8.935-9.303 50.847-1.03 82.894 54.471 56.576 97.994-2.614 4.326-8.229 5.684-12.524 3.087z" fill="#73c3f9"/></g><g><path d="m425.127 255.553c-57.137 32.988-130.46 13.341-163.447-43.795-32.988-57.137-13.342-130.46 43.795-163.448s130.459-13.341 163.448 43.796c32.988 57.136 13.341 130.459-43.796 163.447zm-112.152-194.253c-49.974 28.853-67.158 92.984-38.305 142.958s92.983 67.157 142.957 38.305c49.974-28.853 67.158-92.983 38.305-142.957-28.852-49.974-92.983-67.158-142.957-38.306z" fill="#73c3f9"/></g><path d="m428.092 239.445c-.125-1.092-.653-2.038-1.417-2.741-2.884 2.085-5.9 4.042-9.047 5.859-49.974 28.852-114.104 11.669-142.957-38.305s-11.67-114.105 38.304-142.958c4.252-2.455 8.608-4.568 13.035-6.365-.313-.84-.866-1.6-1.637-2.164-3.785-2.77-3.671-7.093-3.032-9.992.158-.717.136-1.441-.039-2.12-5.379 2.131-10.669 4.673-15.827 7.65-57.137 32.988-76.783 106.311-43.795 163.448 32.987 57.137 106.31 76.783 163.447 43.795 3.942-2.276 7.699-4.75 11.279-7.392-.449-.355-.964-.643-1.542-.828-4.974-1.594-6.449-5.08-6.772-7.887z" fill="#4fabf7"/><path d="m296.801 154.321-16.06 9.272c-2.135 1.232-2.866 3.963-1.634 6.098l27.841 48.221c1.233 2.135 3.963 2.866 6.098 1.634l16.059-9.272c2.135-1.233 2.867-3.962 1.634-6.098l-27.84-48.221c-1.233-2.135-3.963-2.867-6.098-1.634z" fill="#3c58a0"/><path d="m301.762 192.32 8.625-4.98c3.626-2.094 8.021-1.626 11.111.83l-18.6-32.215c-1.232-2.135-3.963-2.867-6.098-1.634l-16.06 9.272c-2.135 1.232-2.866 3.963-1.634 6.098l17.721 30.693c.173-3.235 1.919-6.323 4.935-8.064z" fill="#2a428c"/><path d="m330.419 85.182-28.578 58.733c-2.24 3.665-2.298 8.263-.15 11.983 8.901 15.417 19.084 33.054 27.985 48.471 2.148 3.72 6.158 5.969 10.452 5.862l65.662 5.499z" fill="#d3dcfb"/><path d="m321.677 179.445 10.864-21.841c6.484-13.034 21.904-16.914 33.289-11.086l-35.412-61.336-28.578 58.733c-2.24 3.665-2.298 8.263-.15 11.983 5.748 9.956 12.028 20.833 18.155 31.446-.278-2.703.331-5.485 1.832-7.899z" fill="#bec8f7"/><g><path d="m407.376 218.476c-4.363 2.519-9.941 1.025-12.46-3.339l-70.116-121.445c-2.519-4.363-1.024-9.941 3.339-12.46s9.941-1.024 12.46 3.339l70.117 121.446c2.518 4.363 1.023 9.941-3.34 12.459z" fill="#e9efff"/></g><path d="m359.077 134.795c3.355-1.937 7.324-1.824 10.479-.066l-28.958-50.157c-2.519-4.363-8.097-5.857-12.46-3.339-4.362 2.519-5.857 8.097-3.338 12.46l28.98 50.195c.038-3.63 1.927-7.147 5.297-9.093z" fill="#d3dcfb"/></g></svg>