<svg height="512" viewBox="0 0 512 512" width="512" xmlns="http://www.w3.org/2000/svg"><g id="BULINE"><circle cx="256" cy="256" fill="#cd88f8" r="256"/></g><g id="Icons"><path d="m314.35 84.06a21.22 21.22 0 0 0 -19-30.79c-.51 0-1 0-1.49.07a42.49 42.49 0 0 0 -82.77 19 52 52 0 1 0 3.46 101.1 21.26 21.26 0 0 0 11.76 13.31l.13 17.91h57.06v-18.4a5 5 0 0 1 5.12-5 52 52 0 0 0 25.64-97.17z" fill="#4acc97"/><path d="m208.07 174.78a52.67 52.67 0 0 1 -7.15.5 52 52 0 0 1 0-103.95 50.64 50.64 0 0 1 7.11.51 52 52 0 0 0 0 102.94z" fill="#38c487"/><path d="m215.25 71.33c-1.43 0-2.85.07-4.26.18a42.54 42.54 0 0 1 49.08-48.91 42.51 42.51 0 0 0 -35.35 41.9 43.25 43.25 0 0 0 .74 7.85 51.91 51.91 0 0 0 -10.21-1.02z" fill="#38c487"/><path d="m280.85 327.47v-93.41h2.69a9.31 9.31 0 0 0 9.31-9.31v-10.75a9.31 9.31 0 0 0 -9.31-9.31h-57.07a9.31 9.31 0 0 0 -9.31 9.31v10.77a9.31 9.31 0 0 0 9.31 9.31h2.69v93.41a90.92 90.92 0 1 0 51.69 0z" fill="#c5eaff"/><path d="m247.62 327.47v-60.53a21.19 21.19 0 0 1 21.19-21.19h12v-11.69h-35.88a9.31 9.31 0 0 1 -9.31-9.31v-10.75a9.31 9.31 0 0 1 9.31-9.31h-18.45a9.32 9.32 0 0 0 -9.32 9.32v10.76a9.3 9.3 0 0 0 9.31 9.3h2.69v93.41a90.92 90.92 0 0 0 35.07 177.62 90.93 90.93 0 0 1 -16.61-177.63z" fill="#a4e1fc"/><path d="m327.09 415a6.82 6.82 0 0 1 5.66 7.23 78 78 0 0 1 -155.62-1.88 6.78 6.78 0 0 1 3.79-6.42c8.84-4.37 31.56-13.76 56.7-9.45a116.88 116.88 0 0 0 43.1 5.4 91.8 91.8 0 0 1 22.52 1z" fill="#38c487"/><circle cx="295.31" cy="428.5" fill="#00b564" r="10.15"/><circle cx="252.89" cy="443.26" fill="#00b564" r="10.15"/><circle cx="216.43" cy="416.07" fill="#00b564" r="6.04"/><circle cx="219.62" cy="465.88" fill="#00b564" r="6.04"/><circle cx="280.85" cy="474.18" fill="#00b564" r="6.04"/><ellipse cx="298.83" cy="354.09" fill="#fff" rx="7.54" ry="12.26" transform="matrix(.716 -.698 .698 .716 -162.34 309.38)"/><ellipse cx="317.36" cy="373.08" fill="#fff" rx="6.11" ry="9.93" transform="matrix(.716 -.698 .698 .716 -170.34 327.72)"/><g fill="#38c487"><circle cx="279.78" cy="154.03" r="11.37"/><circle cx="246.3" cy="128.01" r="11.37"/><circle cx="250.31" cy="188.58" r="7.36"/><circle cx="252.93" cy="327.59" r="11.37"/><circle cx="277.17" cy="389.8" r="7.36"/><circle cx="258.54" cy="256.95" r="7.36"/></g><path d="m280.85 245.75v-8c14.21.61 27.25 1.74 38.07 3.31 23.45 3.43 32.58 8.13 32.58 16.77s-9.13 13.35-32.58 16.77c-10.82 1.58-23.86 2.71-38.07 3.33-8.29.37-17 .55-25.84.55-2.48 0-4.94 0-7.39-.05-6.31-.07-12.49-.24-18.46-.5-14.21-.62-27.24-1.75-38.06-3.33-23.45-3.42-32.59-8.13-32.59-16.77s9.14-13.34 32.59-16.77c10.82-1.57 23.85-2.7 38.06-3.31v15.35c-20.32.91-35.4 2.81-45 4.73 9.56 1.93 24.64 3.83 45 4.74q8.76.39 18.82.51 3.21 0 6.55 0h.47q3.9 0 7.63-.05 9.71-.1 18.21-.5c20.33-.91 35.41-2.81 45-4.74-9.56-1.92-24.64-3.82-45-4.73" fill="#f6d372"/><path d="m229.16 237.74v15.35l-12.93.76v-15.39z" fill="#dbb75e"/></g></svg>