<?xml version="1.0" encoding="UTF-8" standalone="no"?>
<svg
   xmlns:dc="http://purl.org/dc/elements/1.1/"
   xmlns:cc="http://creativecommons.org/ns#"
   xmlns:rdf="http://www.w3.org/1999/02/22-rdf-syntax-ns#"
   xmlns:svg="http://www.w3.org/2000/svg"
   xmlns="http://www.w3.org/2000/svg"
   xmlns:sodipodi="http://sodipodi.sourceforge.net/DTD/sodipodi-0.dtd"
   xmlns:inkscape="http://www.inkscape.org/namespaces/inkscape"
   id="Capa_1"
   enable-background="new 0 0 512 512"
   height="512"
   viewBox="0 0 512 512"
   width="512"
   version="1.1"
   sodipodi:docname="011-workflow-a.svg"
   inkscape:version="1.0.1 (3bc2e813f5, 2020-09-07)">
  <metadata
     id="metadata45">
    <rdf:RDF>
      <cc:Work
         rdf:about="">
        <dc:format>image/svg+xml</dc:format>
        <dc:type
           rdf:resource="http://purl.org/dc/dcmitype/StillImage" />
        <dc:title></dc:title>
      </cc:Work>
    </rdf:RDF>
  </metadata>
  <defs
     id="defs43" />
  <sodipodi:namedview
     pagecolor="#ffffff"
     bordercolor="#666666"
     borderopacity="1"
     objecttolerance="10"
     gridtolerance="10"
     guidetolerance="10"
     inkscape:pageopacity="0"
     inkscape:pageshadow="2"
     inkscape:window-width="1920"
     inkscape:window-height="1015"
     id="namedview41"
     showgrid="false"
     inkscape:zoom="0.5835012"
     inkscape:cx="418.9678"
     inkscape:cy="305.59301"
     inkscape:window-x="0"
     inkscape:window-y="0"
     inkscape:window-maximized="1"
     inkscape:current-layer="Capa_1" />
  <g
     id="g36">
    <path
       d="m 252.224,125.332 10.869,10.869 H 200.93 v 21.738 h 62.163 l -10.869,10.87 15.37,15.369 37.108,-37.108 -37.108,-37.108 z"
       fill="#728ee4"
       id="path10" />
    <path
       d="m 124.846,229.523 -37.108,37.108 15.369,15.369 10.87,-10.869 v 60.715 h 10.869 10.869 v -60.715 l 10.869,10.869 15.37,-15.369 z"
       fill="#8ab8ec"
       id="path12" />
    <path
       d="m 135.715,271.131 10.869,10.869 15.37,-15.369 -37.108,-37.108 v 102.323 h 10.869 z"
       fill="#728ee4"
       id="path14" />
    <path
       d="m 70.5,353.584 v 78.839 c 10.665,11.21 22.345,21.443 34.877,30.577 h 19.469 54.346 V 353.584 h -54.346 z"
       fill="#dce0ef"
       id="path16" />
    <path
       d="m 124.846,353.584 h 54.346 V 463 h -54.346 z"
       fill="#cad0e7"
       id="path18" />
    <path
       d="M 124.846,92 C 94.881,92 70.5,117.106 70.5,147.07 c 0,29.964 24.381,54.346 54.346,54.346 29.965,0 54.346,-24.381 54.346,-54.346 C 179.192,117.105 154.81,92 124.846,92 Z"
       fill="#efc142"
       id="path20" />
    <path
       d="M 179.191,147.07 C 179.191,117.106 154.81,92 124.845,92 v 109.416 c 29.965,0 54.346,-24.381 54.346,-54.346 z"
       fill="#e38d22"
       id="path22" />
    <path
       d="m 408.893,283.869 -10.87,10.869 v -60.715 h -10.869 -10.869 v 60.715 l -10.869,-10.869 -15.37,15.369 37.108,37.108 37.108,-37.108 z"
       fill="#8ab8ec"
       id="path24" />
    <path
       d="m 408.893,283.869 -10.87,10.869 v -60.715 h -10.869 v 102.323 l 37.108,-37.108 z"
       fill="#728ee4"
       id="path26" />
    <path
       d="m 387.154,353.584 c -29.964,0 -54.346,24.381 -54.346,54.346 0,29.964 24.381,55.07 54.346,55.07 29.964,0 54.346,-25.106 54.346,-55.07 0,-29.965 -24.381,-54.346 -54.346,-54.346 z"
       fill="#e05352"
       id="path28" />
    <path
       d="m 441.5,407.93 c 0,-29.964 -24.381,-54.346 -54.346,-54.346 V 463 c 29.965,0 54.346,-25.106 54.346,-55.07 z"
       fill="#cb2d41"
       id="path30" />
    <path
       d="m 387.154,92 -54.345,55.07 54.345,54.346 54.346,-54.346 z"
       fill="#a8eb58"
       id="path32" />
    <path
       d="M 387.154,92 V 201.416 L 441.5,147.07 Z"
       fill="#80cf8c"
       id="path34" />
  </g>
</svg>
