<svg id="Capa_1" enable-background="new 0 0 512 512" height="512" viewBox="0 0 512 512" width="512" xmlns="http://www.w3.org/2000/svg"><g><g><path d="m256 316.177c-141.387 0-243.753-149.575-222.327-187.003 44.119-77.069 127.157-128.998 222.327-128.998s178.208 51.929 222.328 128.999c21.425 37.427-80.941 187.002-222.328 187.002z" fill="#ffc46c"/><path d="m512 256.176c0 26.051-3.891 51.191-11.129 74.871-5.031 16.469-11.672 32.231-19.75 47.109-8.25 15.2-147.391 39.915-225.121 39.915s-216.871-24.715-225.109-39.915c-3.289-6.031-6.332-12.21-9.121-18.531-14-31.629-21.77-66.629-21.77-103.449 0-46.219 12.25-89.57 33.68-127 44.121 77.07 127.16 129 222.32 129s178.211-51.93 222.32-129c21.43 37.43 33.68 80.781 33.68 127zm0 0" fill="#ffb03b"/><path d="m481.262 377.875c-7.16 13.223-15.434 25.742-24.723 37.43-8.437 10.633-17.719 20.57-27.719 29.723-5.107 4.676-10.404 9.148-15.878 13.402-43.343 33.684-259.441 37.549-300.354 9.826-10.371-7.027-20.199-14.796-29.408-23.228-10-9.153-19.282-19.09-27.719-29.723-9.289-11.688-17.563-24.207-24.723-37.43zm0 0" fill="#ff903d"/></g><g><path d="m368.104 129.176h-112.105l-74.736 191.324 74.736 191.324h13.461c53.936-2.794 103.448-22.288 143.484-53.401v-2.651h-44.842v-326.596z" fill="#6c3beb"/><path d="m99.054 286.121h44.842v180.861h-33.153c37.817 26.108 82.994 42.313 131.796 44.842h13.46v-382.648h-156.945z" fill="#576ceb"/><path d="m99.054 286.121h44.842v180.861h-33.153c23.412 16.163 49.645 28.523 77.815 36.196v-374.002h-89.504z" fill="#7082eb"/><path d="m323.262 174.017h-67.263l-44.841 146.483 44.841 146.483h67.263z" fill="#576ceb"/><path d="m143.895 174.017v67.263h44.842v225.703h67.262v-292.966z" fill="#60b3f7"/><path d="m188.737 174.017v67.263 225.703h67.262v-292.966z" fill="#429dea"/></g><g fill="#fff"><path d="m431.055 187.767h-1.524c-6.754 0-12.226-5.477-12.226-12.227v-1.523h-8.715v1.523c0 6.75-5.477 12.227-12.227 12.227h-1.527v8.715h1.527c6.75 0 12.227 5.472 12.227 12.226v1.528h8.715v-1.528c0-6.754 5.472-12.226 12.226-12.226h1.524zm0 0"/><path d="m467.274 282.555h-1.524c-6.754 0-12.226-5.477-12.226-12.227v-1.523h-8.715v1.523c0 6.75-5.477 12.227-12.227 12.227h-1.527v8.715h1.527c6.75 0 12.227 5.472 12.227 12.226v1.528h8.715v-1.528c0-6.754 5.472-12.226 12.226-12.226h1.524zm0 0"/><path d="m329.41 54.859h-1.524c-6.754 0-12.226-5.477-12.226-12.227v-1.523h-8.715v1.523c0 6.75-5.477 12.227-12.227 12.227h-1.527v8.715h1.527c6.75 0 12.227 5.472 12.227 12.226v1.528h8.715v-1.528c0-6.754 5.472-12.226 12.226-12.226h1.524zm0 0"/><path d="m202.437 76.539h-1.524c-6.754 0-12.226-5.477-12.226-12.227v-1.523h-8.715v1.523c0 6.75-5.477 12.227-12.227 12.227h-1.527v8.715h1.527c6.75 0 12.227 5.472 12.227 12.226v1.528h8.715v-1.528c0-6.754 5.472-12.226 12.226-12.226h1.524zm0 0"/></g></g></svg>