<svg id="Capa_1" enable-background="new 0 0 512 512" height="512" viewBox="0 0 512 512" width="512" xmlns="http://www.w3.org/2000/svg"><g><g><g><g><g><g><g><circle cx="256" cy="256" fill="#7584f2" r="256"/></g></g></g></g></g></g><path d="m512 256c0-26.949-4.164-52.925-11.884-77.321l-101.679-101.679-284.874 366.394 52.279 52.279c28.042 10.554 58.426 16.327 90.158 16.327 141.385 0 256-114.615 256-256z" fill="#4253ce"/><g><path d="m113.563 77h284.873v366.394h-284.873z" fill="#fff"/></g><g><path d="m256.121 77h142.316v366.394h-142.316z" fill="#e9edf5"/></g><g><path d="m150.932 112.015h210.135v81.122h-210.135z" fill="#1dd882"/></g><g><path d="m256.121 112.015h104.947v81.122h-104.947z" fill="#2cc47f"/></g><g><path d="m150.932 219.526h49.397v49.397h-49.397z" fill="#555a66"/></g><g><path d="m150.932 362.672h49.397v49.397h-49.397z" fill="#555a66"/></g><g><path d="m150.932 291.099h49.397v49.397h-49.397z" fill="#555a66"/></g><g><path d="m231.302 219.526h49.397v49.397h-49.397z" fill="#555a66"/></g><g><path d="m256.121 219.526h24.578v49.397h-24.578z" fill="#333940"/></g><g><path d="m231.302 362.672h49.397v49.397h-49.397z" fill="#555a66"/></g><g><path d="m256.121 362.672h24.578v49.397h-24.578z" fill="#333940"/></g><g><path d="m231.302 291.099h49.397v49.397h-49.397z" fill="#555a66"/></g><g><path d="m256.121 291.099h24.578v49.397h-24.578z" fill="#333940"/></g><g><path d="m311.671 219.526h49.397v49.397h-49.397z" fill="#333940"/></g><g><path d="m311.671 291.099h49.397v120.97h-49.397z" fill="#ff6c52"/></g></g></svg>