<?xml version="1.0" encoding="iso-8859-1"?>
<!-- Generator: Adobe Illustrator 21.0.0, SVG Export Plug-In . SVG Version: 6.00 Build 0)  -->
<svg xmlns="http://www.w3.org/2000/svg" xmlns:xlink="http://www.w3.org/1999/xlink" version="1.1" id="Capa_1" x="0px" y="0px" viewBox="0 0 512 512" style="enable-background:new 0 0 512 512;" xml:space="preserve" width="512" height="512">
<g>
	<g>
		<g>
			<circle style="fill:#FFCE00;" cx="256" cy="256" r="256"/>
		</g>
	</g>
	<path style="fill:#FFA300;" d="M512,256c0-8.388-0.417-16.679-1.205-24.86l-94.683-94.683L213.333,107.69L95.888,227.928   l26.315,132.324l151.15,151.15C406.643,502.478,512,391.551,512,256z"/>
	<g>
		<g>
			<path style="fill:#FFFFFF;" d="M256,425.689c-93.567,0-169.689-76.123-169.689-169.689c0-93.567,76.123-169.69,169.689-169.69     S425.689,162.433,425.689,256C425.689,349.567,349.567,425.689,256,425.689z M256,116.31     c-77.025,0-139.689,62.665-139.689,139.69c0,77.025,62.665,139.689,139.689,139.689S395.689,333.025,395.689,256     C395.689,178.975,333.025,116.31,256,116.31z"/>
		</g>
	</g>
	<g>
		<g>
			<path style="fill:#E9EDF5;" d="M256,86.31c-0.135,0-0.27,0.005-0.405,0.005v30c0.135,0,0.269-0.005,0.405-0.005     c77.025,0,139.689,62.665,139.689,139.69c0,77.025-62.665,139.689-139.689,139.689c-0.135,0-0.27-0.005-0.405-0.005v30     c0.135,0,0.269,0.005,0.405,0.005c93.567,0,169.689-76.123,169.689-169.689C425.689,162.433,349.567,86.31,256,86.31z"/>
		</g>
	</g>
	<g>
		<g>
			<circle style="fill:#4A98F7;" cx="256" cy="365.227" r="80.908"/>
		</g>
		<g>
			<path style="fill:#4A7AFF;" d="M256,284.319c-0.136,0-0.269,0.01-0.405,0.01v161.795c0.136,0,0.269,0.01,0.405,0.01     c44.684,0,80.908-36.224,80.908-80.908S300.684,284.319,256,284.319z"/>
		</g>
		<g>
			<g>
				<circle style="fill:#DBEEFF;" cx="256" cy="348.955" r="34.769"/>
			</g>
			<g>
				<path style="fill:#BFE1FF;" d="M256,314.186c-0.136,0-0.269,0.009-0.405,0.01v69.518c0.135,0.002,0.269,0.01,0.405,0.01      c19.203,0,34.77-15.567,34.77-34.769S275.203,314.186,256,314.186z"/>
			</g>
			<g>
				<path style="fill:#DBEEFF;" d="M256,446.134c21.508,0,41.015-8.518,55.374-22.344c-8.751-22.019-30.237-37.594-55.374-37.594      s-46.623,15.575-55.374,37.594C214.985,437.617,234.492,446.134,256,446.134z"/>
			</g>
			<g>
				<path style="fill:#BFE1FF;" d="M311.374,423.79c-8.751-22.02-30.237-37.594-55.374-37.594c-0.136,0-0.269,0.007-0.405,0.008      v59.921c0.136,0.001,0.269,0.01,0.405,0.01C277.508,446.134,297.015,437.616,311.374,423.79z"/>
			</g>
		</g>
	</g>
	<g>
		<g>
			<g>
				<circle style="fill:#4A7AFF;" cx="360.738" cy="195.44" r="80.908"/>
			</g>
			<g>
				<g>
					<circle style="fill:#BFE1FF;" cx="360.738" cy="179.169" r="34.769"/>
				</g>
				<g>
					<path style="fill:#BFE1FF;" d="M360.738,276.348c21.508,0,41.015-8.518,55.374-22.344       c-8.751-22.019-30.237-37.594-55.374-37.594c-25.137,0-46.623,15.575-55.374,37.594       C319.722,267.83,339.229,276.348,360.738,276.348z"/>
				</g>
			</g>
		</g>
		<g>
			<g>
				<circle style="fill:#4A98F7;" cx="151.262" cy="195.44" r="80.908"/>
			</g>
			<g>
				<g>
					<circle style="fill:#DBEEFF;" cx="151.262" cy="179.169" r="34.769"/>
				</g>
				<g>
					<path style="fill:#DBEEFF;" d="M151.262,276.348c21.508,0,41.015-8.518,55.374-22.344       c-8.751-22.019-30.237-37.594-55.374-37.594s-46.623,15.575-55.374,37.594C110.247,267.83,129.754,276.348,151.262,276.348z"/>
				</g>
			</g>
		</g>
	</g>
</g>















</svg>
