<svg id="Capa_1" enable-background="new 0 0 512 512" height="512" viewBox="0 0 512 512" width="512" xmlns="http://www.w3.org/2000/svg"><g><g><path d="m477.74 256c0 43.79-3.761 85.02-23.151 121.07l-91.709 26.14-41.53 9.14-65.35 14.39-225.61-49.67c-19.39-36.05-30.39-77.28-30.39-121.07 0-46.63 12.47-90.34 34.26-128 24.09 41.65 153.61 60.72 267.22 54.63 82.28-4.4 139.95-5.74 159.48-37.49.18-.29-.17.29 0 0 21.79 37.66 16.78 64.23 16.78 110.86z" fill="#79ce8b"/><path d="m477.74 128c-.17.29-.34.59-.52.88-38.17 65.41-104.52 112.35-182.4 124.19-12.66 1.93-25.62 2.93-38.82 2.93-94.75 0-177.48-51.48-221.74-128 .01-.02.03-.05.04-.07 44.27-76.48 126.98-127.93 221.7-127.93 94.64 0 177.29 51.36 221.59 127.74.04.06.07.13.11.19.01.02.03.05.04.07z" fill="#a9eb58"/><path d="m454.589 377.07c-18.65 34.68-44.405 49.546-49.879 87.32-18.58 13.29-39.02 24.16-60.84 32.13-27.4 10.02-56.99 15.48-87.87 15.48-97.59 0-182.42-54.61-225.61-134.93z" fill="#599d8a"/></g><path d="m512 256c0 27.09-4.21 53.21-12.02 77.72-4.81 15.1-10.98 29.6-18.37 43.35-18.65 34.68-45.06 64.56-76.9 87.32l-41.83-61.18-17.87-26.14-54.39-79.56 4.2-44.44 6.66-70.44 4.09-43.32 114.21-10.79 43.99-4.15 13.82 3.37c.04.06.07.13.11.19.01.02.03.05.04.07 21.79 37.66 34.26 81.37 34.26 128z" fill="#e8ebf7"/><path d="m512 256c0 27.09-4.21 53.21-12.02 77.72l-122.78-122.78 42.58-82.42 43.99-4.15 13.82 3.37c.04.06.07.13.11.19.01.02.03.05.04.07 21.79 37.66 34.26 81.37 34.26 128z" fill="#daddee"/><g><path d="m207.258 366.866h98.255v39.874h-98.255z" fill="#daddee"/><path d="m256.386 366.866h49.128v39.874h-49.128z" fill="#c8cde4"/><path d="m173.93 426.97h-40v-164.48c0-62.173 50.581-112.754 112.753-112.754h33.903v40h-33.903c-40.116 0-72.753 32.637-72.753 72.754z" fill="#b2b7cc"/><path d="m280.58 169.74v20h-33.9c-40.12 0-72.75 32.64-72.75 72.75v164.48h-20v-164.48c0-51.22 41.52-92.75 92.75-92.75z" fill="#858899"/><path d="m385.42 122.92-96.24 96.24-48.12-48.12c-26.57-26.57-26.57-69.66 0-96.23 13.29-13.29 30.7-19.93 48.12-19.93s34.83 6.64 48.12 19.93z" fill="#c02e71"/><path d="m385.42 122.92-48.12 48.12-96.24-96.23c13.29-13.29 30.7-19.93 48.12-19.93s34.83 6.64 48.12 19.93z" fill="#a8306e"/><circle cx="358.63" cy="192.37" fill="#eec036" r="68.052"/><path d="m406.75 240.49-96.24-96.24c26.57-26.57 69.66-26.57 96.24 0 26.57 26.58 26.57 69.66 0 96.24z" fill="#e8a440"/><path d="m463.77 124.37-86.57 86.57-86.58 86.57-10.7-10.7c-33.65-33.65-33.65-88.2 0-121.85l25.65-25.65 25.64-25.64c33.65-33.65 88.21-33.65 121.86 0z" fill="#a8306e"/><path d="m463.77 124.37-86.57 86.57-71.63-71.63 25.64-25.64c33.65-33.65 88.21-33.65 121.86 0z" fill="#815"/><path d="m108.788 390.607h225.49v72.017h-225.49z" fill="#c02e71"/><path d="m221.533 390.607h112.745v72.017h-112.745z" fill="#a8306e"/></g></g></svg>