<svg id="Layer_1" enable-background="new 0 0 510 510" height="512" viewBox="0 0 510 510" width="512" xmlns="http://www.w3.org/2000/svg"><g><g><g><path d="m510 255c0 92.66-49.422 173.776-123.343 218.428-38.431 23.214-83.484 16.286-131.657 16.286-140.833 0-232.579-93.882-232.579-234.714 0-94.79 29.299-177.5 106.059-221.449 37.285-21.348 80.477-33.551 126.52-33.551 140.833 0 255 114.167 255 255z" fill="#6ee1ff"/></g></g><g fill="#05cdff"><path d="m457.937 385.221c2.558-2.558 2.557-6.704 0-9.262l-11.627-11.627c-2.404-2.404-3.755-5.665-3.755-9.065 0-3.4 1.351-6.661 3.755-9.065l11.627-11.627c2.558-2.558 2.558-6.704 0-9.262-2.558-2.558-6.704-2.558-9.262 0l-23.405 23.405h-11.603l14.143-14.143c2.558-2.558 2.558-6.704 0-9.262-2.558-2.558-6.704-2.558-9.262 0l-23.405 23.405c-13.246 0-25.254-7.784-30.659-19.877-.913-2.043-1.954-4.017-3.113-5.91-2.399-3.919.313-8.948 4.908-8.948h.034c3.214 0 5.82-2.606 5.82-5.82v-258.063c0-13.811-8.391-26.22-21.187-31.418-.094-.038-.188-.076-.283-.115-4.029-1.631-8.341-2.456-12.688-2.456h-138.012c-28.424 0-56.401 7.73-80.465 22.856-16.595 10.433-31.774 22.631-45.238 36.158v.009c-45.892 46.108-74.26 109.67-74.26 179.865 0 140.138 112.21 253.559 252.341 254.987 49.175.501 95.177-12.921 134.312-36.566 21.767-13.151 12.673-46.784-12.758-46.794-.465 0-.93-.002-1.396-.004-21.03-.122-32.545-24.5-19.44-40.948 2.216-2.781 4.268-5.586 6.112-8.399 6.269-9.564 16.81-15.46 28.245-15.46h7.727l23.405 23.405c2.558 2.558 6.705 2.558 9.262 0 2.558-2.558 2.557-6.704 0-9.262l-14.143-14.143h11.603l23.405 23.405c2.557 2.559 6.704 2.559 9.262.001z"/><path d="m453.578 194.824c-4.264 0-8.322.878-12.005 2.462-6.147 2.644-13.024 2.644-19.171 0-3.683-1.584-7.741-2.462-12.005-2.462-16.904 0-30.429 13.75-30.429 30.429 0 27.358 52.019 56.533 52.019 56.533s52.019-31.705 52.019-56.533c.001-16.806-13.622-30.429-30.428-30.429z"/></g><path d="m432.175 211.519c-8.442 0-16.078 3.442-21.59 8.994-5.512-5.552-13.148-8.994-21.59-8.994-6.486 0-12.498 2.029-17.435 5.487l39.026 81.475s52.019-31.705 52.019-56.533c-.002-16.806-13.625-30.429-30.43-30.429z" fill="#ff5551"/><g><path d="m386.088 226.384c0-.385.007-.768.021-1.15.288-7.718-8.226-12.66-14.552-8.23-7.876 5.516-12.992 14.664-12.992 24.943 0 27.358 52.019 56.533 52.019 56.533s.039-.024.115-.07c11.882-7.324 12.879-24.14 2.06-32.958-13.221-10.775-26.671-25.156-26.671-39.068z" fill="#e20a62"/></g><g><g><path d="m350.728 330.678h-53.346l-168.81-35.233v-216.001h222.156z" fill="#82cd64"/></g><g><g><path d="m140.487 263.542c0-8.063 6.874-14.233 14.922-13.74.558.034 1.119.052 1.683.052 15.432 0 29.041-13.328 29.041-27.918v-12.907c0-15.152-13.609-27.638-29.041-27.638-.062 0-.123 0-.185.001-9.002.056-16.42-6.994-16.42-15.997v-132.588h-87.63v297.871h244.526l53.346-53.346h-196.45c-7.617.001-13.792-6.174-13.792-13.79zm2.296-54.514c0-7.295 6.313-14.59 14.31-14.59 7.856 0 14.31 7.295 14.31 14.59v12.907c0 7.576-6.454 14.871-14.31 14.871-7.996 0-14.31-7.295-14.31-14.871z" fill="#20b7a1"/></g><g><path d="m216.157 247.188c.841 1.964 3.647 2.946 6.734 2.946 2.946 0 5.892-.982 6.734-2.946l23.569-56.819c.28-.702.561-1.543.561-2.385 0-3.507-6.594-6.313-9.68-6.313-2.385 0-3.788.982-4.489 2.946l-16.695 44.052-16.695-44.332c-.701-1.964-2.525-2.665-4.489-2.665-3.928 0-9.68 2.805-9.68 6.313 0 .702.421 1.824.701 2.385z" fill="#20b7a1"/></g><g><path d="m292.337 249.853c14.17 0 23.288-6.453 23.288-10.662 0-2.525-2.245-6.594-5.752-6.594-3.788 0-7.155 5.331-17.116 5.331-10.803 0-18.238-5.892-18.238-15.292v-3.227h29.602c6.313 0 12.766-.421 12.766-12.065 0-15.292-12.907-25.954-27.918-25.954-16.134 0-29.181 12.486-29.181 27.217v13.328c.001 16.695 13.47 27.918 32.549 27.918zm-17.817-44.052c0-7.716 6.594-13.187 14.31-13.187 7.997 0 14.17 6.032 14.17 13.468 0 3.367-1.122 4.208-5.191 4.208h-23.289z" fill="#20b7a1"/></g></g><g><path d="m297.382 330.678v-53.345h53.346z" fill="#fff"/></g><g><g><path d="m114.545 133.551v96.381c0 2.385-3.367 4.91-7.436 4.91-4.349 0-7.295-2.526-7.295-4.91v-96.381c0-2.805 2.946-4.77 7.295-4.77 4.069 0 7.436 1.964 7.436 4.77z" fill="#fff"/></g><g><path d="m186.653 195.14v12.907c0 14.59-13.609 27.918-29.041 27.918-15.572 0-29.04-13.187-29.04-27.918v-12.907c0-14.731 13.047-27.638 29.04-27.638 15.433 0 29.041 12.486 29.041 27.638zm-14.73 0c0-7.295-6.454-14.59-14.31-14.59-7.996 0-14.31 7.295-14.31 14.59v12.907c0 7.576 6.313 14.871 14.31 14.871 7.856 0 14.31-7.295 14.31-14.871z" fill="#fff"/></g><g><path d="m193.248 176.481c-.28-.561-.701-1.684-.701-2.385 0-3.507 5.752-6.313 9.68-6.313 1.964 0 3.788.701 4.489 2.665l16.695 44.332 16.695-44.052c.702-1.964 2.104-2.946 4.489-2.946 3.087 0 9.68 2.805 9.68 6.313 0 .842-.281 1.684-.561 2.385l-23.569 56.819c-.842 1.964-3.788 2.946-6.734 2.946-3.087 0-5.893-.982-6.734-2.946z" fill="#fff"/></g><g><path d="m317.409 193.456c0 11.644-6.454 12.065-12.766 12.065h-29.603v3.227c0 9.4 7.436 15.292 18.238 15.292 9.961 0 13.328-5.331 17.116-5.331 3.507 0 5.752 4.069 5.752 6.594 0 4.209-9.119 10.662-23.288 10.662-19.08 0-32.548-11.223-32.548-27.918v-13.328c0-14.731 13.047-27.217 29.181-27.217 15.011 0 27.918 10.662 27.918 25.954zm-19.08 2.946c4.069 0 5.191-.841 5.191-4.208 0-7.436-6.173-13.468-14.17-13.468-7.716 0-14.31 5.471-14.31 13.187v4.489z" fill="#fff"/></g></g><g><path d="m52.857 32.807h297.871v50.677h-297.871z" fill="#269ab1"/></g></g><g><path d="m121.865 365.413h89.225v13.099h-89.225z" fill="#2d56a1"/></g><path d="m295.588 314.726c-14.43 0-27.481 5.883-36.903 15.373-9.422-9.49-22.474-15.373-36.904-15.373-10.772 0-20.779 3.275-29.079 8.883l65.983 139.758s88.914-54.193 88.914-96.63c0-28.726-23.286-52.011-52.011-52.011z" fill="#ff5551"/><g><path d="m216.814 340.134c0-.658.012-1.313.037-1.965.492-13.192-14.06-21.64-24.873-14.067-13.462 9.429-22.207 25.065-22.207 42.634 0 46.762 88.914 96.63 88.914 96.63s.067-.041.196-.12c20.309-12.518 22.014-41.262 3.521-56.334-22.599-18.418-45.588-42.999-45.588-66.778z" fill="#e20a62"/></g><g><path d="m305.728 365.413h115.424v13.099h-115.424z" fill="#2d56a1"/></g><g><path d="m92.387 371.962 40.434 29.955v-59.909z" fill="#2d56a1"/></g><g><path d="m401.775 406.548-34.586-34.585 34.586-34.586 9.262 9.262-25.323 25.324 25.323 25.323z" fill="#2d56a1"/></g><g><path d="m431.902 406.548-34.586-34.585 34.586-34.586 9.262 9.262-25.323 25.324 25.323 25.323z" fill="#2d56a1"/></g><g><path d="m313.172 397.487c-1.174 0-2.346-.447-3.242-1.343-13.335-13.334-13.335-35.03 0-48.364 1.79-1.791 4.693-1.791 6.483 0 1.791 1.79 1.791 4.693 0 6.483-9.759 9.759-9.759 25.638 0 35.398 1.791 1.79 1.791 4.693 0 6.483-.895.896-2.068 1.343-3.241 1.343z" fill="#e20a62"/></g></g></svg>