<?xml version="1.0" encoding="iso-8859-1"?>
<!-- Generator: Adobe Illustrator 19.0.0, SVG Export Plug-In . SVG Version: 6.00 Build 0)  -->
<svg version="1.1" id="Capa_1" xmlns="http://www.w3.org/2000/svg" xmlns:xlink="http://www.w3.org/1999/xlink" x="0px" y="0px"
	 viewBox="0 0 512 512" style="enable-background:new 0 0 512 512;" xml:space="preserve">
<path style="fill:#90D2E3;" d="M512,256c0,141.385-114.615,256-256,256S0,397.385,0,256S114.615,0,256,0S512,114.615,512,256z"/>
<path style="fill:#EBAE56;" d="M462,429H50V99h412V429z"/>
<path style="fill:#DCA050;" d="M70,429H50V99h20V429z"/>
<path style="fill:#008C80;" d="M427,380H85V140.333h342V380z"/>
<path style="fill:#FFF5F5;" d="M348.468,282.32c0-4.143,3.358-7.5,7.5-7.5H388c4.142,0,7.5,3.357,7.5,7.5s-3.358,7.5-7.5,7.5
	h-32.032C351.826,289.82,348.468,286.463,348.468,282.32z M182.525,251.08c-3.446-2.298-8.104-1.366-10.4,2.08l-20.426,30.64
	l-20.426-30.64c-2.297-3.446-6.955-4.377-10.4-2.08c-3.447,2.298-4.378,6.954-2.08,10.4l23.893,35.84l-23.893,35.84
	c-2.298,3.446-1.367,8.103,2.08,10.4c1.279,0.853,2.724,1.261,4.153,1.261c2.423,0,4.802-1.173,6.247-3.341l20.426-30.64
	l20.426,30.64c1.445,2.168,3.823,3.341,6.247,3.341c1.43,0,2.875-0.408,4.153-1.261c3.447-2.298,4.378-6.954,2.08-10.4
	l-23.893-35.84l23.893-35.84C186.903,258.034,185.972,253.378,182.525,251.08z M117,185.167h173.476c4.142,0,7.5-3.357,7.5-7.5
	s-3.358-7.5-7.5-7.5H117c-4.142,0-7.5,3.357-7.5,7.5S112.858,185.167,117,185.167z M217.281,210c0-4.143-3.358-7.5-7.5-7.5H117
	c-4.142,0-7.5,3.357-7.5,7.5s3.358,7.5,7.5,7.5h92.781C213.923,217.5,217.281,214.143,217.281,210z M388,304.82h-32.032
	c-4.142,0-7.5,3.357-7.5,7.5s3.358,7.5,7.5,7.5H388c4.142,0,7.5-3.357,7.5-7.5S392.142,304.82,388,304.82z M334.636,251.08
	c-3.446-2.298-8.103-1.366-10.4,2.08l-20.427,30.64l-20.427-30.64c-2.297-3.446-6.954-4.377-10.4-2.08
	c-3.447,2.298-4.378,6.954-2.08,10.4l25.407,38.11v37.729c0,4.143,3.358,7.5,7.5,7.5s7.5-3.357,7.5-7.5v-37.73l25.407-38.109
	C339.014,258.034,338.083,253.378,334.636,251.08z M250.335,277.017c-2.929-2.928-7.678-2.928-10.606,0l-9.697,9.697l-9.697-9.697
	c-2.929-2.928-7.678-2.928-10.606,0c-2.929,2.93-2.929,7.678,0,10.607l9.696,9.696l-9.696,9.696c-2.929,2.93-2.929,7.678,0,10.607
	c1.464,1.464,3.384,2.196,5.303,2.196s3.839-0.732,5.303-2.196l9.697-9.697l9.697,9.697c1.464,1.464,3.384,2.196,5.303,2.196
	s3.839-0.732,5.303-2.196c2.929-2.93,2.929-7.678,0-10.607l-9.696-9.696l9.696-9.696
	C253.264,284.694,253.264,279.946,250.335,277.017z"/>
<path style="fill:#008C80;" d="M462,109H50V69c0-5.523,4.477-10,10-10h392c5.523,0,10,4.477,10,10V109z"/>
<path style="fill:#009A8E;" d="M462,109H70V69c0-5.523,4.477-10,10-10h372c5.523,0,10,4.477,10,10V109z"/>
<path style="fill:#007E73;" d="M100,84c0,5.523-4.477,10-10,10s-10-4.477-10-10s4.477-10,10-10S100,78.477,100,84z M120,74
	c-5.523,0-10,4.477-10,10s4.477,10,10,10s10-4.477,10-10S125.523,74,120,74z M150,74c-5.523,0-10,4.477-10,10s4.477,10,10,10
	s10-4.477,10-10S155.523,74,150,74z"/>
<path style="fill:#FFF5F5;" d="M430,413L430,413c0,8.284-6.716,15-15,15h-80c-8.284,0-15-6.716-15-15l0,0c0-8.284,6.716-15,15-15h80
	C423.284,398,430,404.716,430,413z"/>
<path style="fill:#2B6C7E;" d="M472,428v10c0,5.523-4.477,10-10,10H276v63.227c-6.6,0.51-13.269,0.773-20,0.773
	s-13.4-0.263-20-0.773V448H50c-5.523,0-10-4.477-10-10v-10c0-5.523,4.477-10,10-10h412C467.523,418,472,422.477,472,428z"/>
<path style="fill:#174550;" d="M266,511.806c-3.318,0.128-6.651,0.194-10,0.194c-6.731,0-13.4-0.263-20-0.773V448h10
	c5.523,0,10,4.477,10,10v53.227C259.316,511.483,262.65,511.676,266,511.806z M70,418H50c-5.523,0-10,4.477-10,10v10
	c0,5.523,4.477,10,10,10h20c-5.523,0-10-4.477-10-10v-10C60,422.477,64.477,418,70,418z"/>
<g>
</g>
<g>
</g>
<g>
</g>
<g>
</g>
<g>
</g>
<g>
</g>
<g>
</g>
<g>
</g>
<g>
</g>
<g>
</g>
<g>
</g>
<g>
</g>
<g>
</g>
<g>
</g>
<g>
</g>
</svg>
