<svg id="Capa_1" enable-background="new 0 0 512 512" height="512" viewBox="0 0 512 512" width="512" xmlns="http://www.w3.org/2000/svg"><g><g><path d="m512 256c0 141.387-114.613 256-256 256s-256-114.613-256-256 114.613-256 256-256 256 114.613 256 256zm0 0" fill="#f3d37a"/><path d="m512 256c0 26.051-3.891 51.191-11.129 74.871-5.031 16.469-11.672 32.231-19.75 47.109-8.25 15.2-147.391 38.543-225.121 38.543s-216.871-23.343-225.109-38.543c-3.289-6.031-6.332-12.21-9.121-18.531-14-31.629-21.77-66.629-21.77-103.449 0-46.219 12.25-89.57 33.68-127 44.121 77.07 127.16 129 222.32 129s178.211-51.93 222.32-129c21.43 37.43 33.68 80.781 33.68 127zm0 0" fill="#efc142"/><path d="m481.262 377.699c-7.16 13.223-15.434 25.742-24.723 37.43-8.437 10.633-17.719 20.57-27.719 29.723-45.539 41.699-106.211 67.148-172.82 67.148s-127.281-25.449-172.82-67.148c-10-9.153-19.282-19.09-27.719-29.723-9.289-11.688-17.563-24.207-24.723-37.43zm0 0" fill="#e38d22"/></g><g><path d="m444.793 428.885-111.925-111.925-7.954 7.954-7.954 7.954 111.925 111.925c5.532-5.068 10.84-10.376 15.908-15.908z" fill="#535564"/><path d="m332.868 316.96-7.954 7.954 112.106 112.106c2.652-2.652 5.239-5.369 7.773-8.135z" fill="#3b3b3b"/><path d="m221.5 64c-43.424 0-82.799 17.663-111.318 46.182s-46.182 67.895-46.182 111.318c0 86.847 70.653 157.5 157.5 157.5 43.423 0 82.798-17.663 111.318-46.182s46.182-67.895 46.182-111.318c0-86.847-70.653-157.5-157.5-157.5z" fill="#535564"/><path d="m221.5 64c-43.424 0-82.799 17.663-111.318 46.182l222.635 222.635c28.52-28.519 46.183-67.894 46.183-111.317 0-86.847-70.653-157.5-157.5-157.5z" fill="#3b3b3b"/><path d="m221.5 86.5c-37.222 0-70.972 15.139-95.416 39.584-24.445 24.444-39.584 58.194-39.584 95.416 0 74.443 60.557 135 135 135 37.222 0 70.972-15.139 95.416-39.584s39.584-58.195 39.584-95.416c0-74.443-60.557-135-135-135z" fill="#8ab8ec"/><path d="m221.5 86.5c-37.222 0-70.972 15.139-95.416 39.584l190.833 190.833c24.444-24.445 39.584-58.195 39.584-95.416-.001-74.444-60.558-135.001-135.001-135.001z" fill="#728ee4"/><path d="m244 244h-101.25v45c0 23.313 39.551 33.75 78.75 33.75 33.755 0 67.619-7.797 76.417-24.833 1.419-2.748 2.333-5.679 2.333-8.917v-45z" fill="#dce0ef"/><path d="m300.25 244h-56.25l53.917 53.917c1.419-2.748 2.333-5.679 2.333-8.917z" fill="#cad0e7"/><path d="m199 199h-56.25v45c0 23.313 39.551 33.75 78.75 33.75 17.72 0 35.321-2.26 49.499-6.751 17.185-5.444 29.251-14.224 29.251-26.999v-45z" fill="#fbf5eb"/><path d="m300.25 244v-45h-101.25l71.999 71.999c17.185-5.444 29.251-14.225 29.251-26.999z" fill="#dce0ef"/><path d="m154 154h-11.25v45c0 23.313 39.551 33.75 78.75 33.75 3.643 0 7.265-.185 10.882-.368 35.302-1.777 67.868-12.236 67.868-33.382v-45z" fill="#dce0ef"/><path d="m300.25 199v-45h-146.25l78.382 78.382c35.302-1.777 67.868-12.236 67.868-33.382z" fill="#cad0e7"/><path d="m221.5 120.25c-33.756 0-67.62 7.798-76.417 24.833-1.419 2.748-2.333 5.679-2.333 8.917 0 15.616 17.879 25.335 41.379 30.129 11.582 2.363 24.429 3.621 37.371 3.621 39.199 0 78.75-10.437 78.75-33.75s-39.551-33.75-78.75-33.75z" fill="#fbf5eb"/><path d="m300.25 154c0-23.313-39.551-33.75-78.75-33.75-33.756 0-67.62 7.798-76.417 24.833l39.045 39.045c11.582 2.363 24.429 3.621 37.371 3.621 39.2.001 78.751-10.436 78.751-33.749z" fill="#dce0ef"/></g></g></svg>