<svg id="Capa_1" enable-background="new 0 0 512 512" height="512" viewBox="0 0 512 512" width="512" xmlns="http://www.w3.org/2000/svg"><g><path d="m301.999 413.25h-91.999c-8.284 0-15-6.716-15-15s6.716-15 15-15h91.999c8.284 0 15 6.716 15 15s-6.716 15-15 15z" fill="#c2e541"/><path d="m301.999 383.25h-45.999v30h45.999c8.284 0 15-6.716 15-15s-6.716-15-15-15z" fill="#a6d12d"/><path d="m159.428 327.821c-2.698 0-5.429-.728-7.89-2.253-7.04-4.366-9.21-13.612-4.844-20.653l43.344-69.907c4.365-7.041 13.612-9.209 20.653-4.844 7.041 4.366 9.21 13.612 4.844 20.653l-43.344 69.907c-2.839 4.578-7.744 7.097-12.763 7.097z" fill="#c2e541"/><path d="m436.999 176.254h-83.499c-8.284 0-15-6.716-15-15s6.716-15 15-15h83.499c8.284 0 15 6.716 15 15s-6.716 15-15 15z" fill="#a6d12d"/><path d="m158.5 176.254h-113.5c-8.284 0-15-6.716-15-15v-85.005c0-8.284 6.716-15 15-15s15 6.716 15 15v70.005h98.5c8.284 0 15 6.716 15 15s-6.716 15-15 15z" fill="#c2e541"/><circle cx="466.999" cy="161.254" fill="#455da0" r="45"/><circle cx="45" cy="46.249" fill="#ffda2d" r="45"/><path d="m256 48.754c-62.033 0-112.5 50.468-112.5 112.5 0 27.877 10.192 53.419 27.046 73.095l170.909-.002c16.852-19.675 27.044-45.216 27.044-73.093 0-62.032-50.467-112.5-112.499-112.5z" fill="#4bb6ff"/><path d="m256 273.754c34.155 0 64.8-15.304 85.449-39.41-16.607-30.13-48.682-50.59-85.449-50.59s-68.843 20.46-85.45 50.59c20.649 24.106 51.295 39.41 85.45 39.41z" fill="#5f77af"/><path d="m256 48.754v185.594l85.455-.001c16.852-19.675 27.044-45.216 27.044-73.093 0-62.032-50.467-112.5-112.499-112.5z" fill="#398ce9"/><path d="m256 183.754-.001 90h.001c34.155 0 64.8-15.304 85.449-39.41-16.607-30.13-48.681-50.59-85.449-50.59z" fill="#455da0"/><path d="m256 108.754c-28.949 0-52.5 23.552-52.5 52.5s23.551 52.5 52.5 52.5c28.948 0 52.499-23.552 52.499-52.5s-23.551-52.5-52.499-52.5z" fill="#f4e7de"/><path d="m256 108.754v105c28.948 0 52.499-23.552 52.499-52.5s-23.551-52.5-52.499-52.5z" fill="#e8cdbb"/><path d="m112.5 285.751c-62.033 0-112.5 50.468-112.5 112.5 0 27.877 10.192 53.419 27.046 73.095l170.909-.002c16.853-19.675 27.044-45.216 27.044-73.093 0-62.032-50.467-112.5-112.499-112.5z" fill="#4bb6ff"/><path d="m112.5 510.751c34.155 0 64.8-15.304 85.449-39.41-16.607-30.13-48.682-50.59-85.449-50.59s-68.843 20.46-85.45 50.59c20.649 24.106 51.295 39.41 85.45 39.41z" fill="#c2e541"/><path d="m112.5 345.751c-28.949 0-52.5 23.552-52.5 52.5s23.551 52.5 52.5 52.5c28.948 0 52.499-23.552 52.499-52.5s-23.551-52.5-52.499-52.5z" fill="#f4e7de"/><path d="m399.501 285.751c-62.032 0-112.5 50.468-112.5 112.5 0 27.877 10.192 53.419 27.046 73.095l170.909-.002c16.853-19.675 27.044-45.216 27.044-73.093 0-62.032-50.467-112.5-112.499-112.5z" fill="#398ce9"/><path d="m399.501 510.751c34.155 0 64.8-15.304 85.449-39.41-16.607-30.13-48.682-50.59-85.449-50.59s-68.843 20.46-85.45 50.59c20.65 24.106 51.295 39.41 85.45 39.41z" fill="#febf01"/><path d="m399.501 345.751c-28.948 0-52.5 23.552-52.5 52.5s23.552 52.5 52.5 52.5 52.499-23.552 52.499-52.5-23.551-52.5-52.499-52.5z" fill="#e8cdbb"/></g></svg>