<svg id="Capa_1" enable-background="new 0 0 512 512" height="512" viewBox="0 0 512 512" width="512" xmlns="http://www.w3.org/2000/svg"><g><g><path d="m512 256c0 43.79-11 85.02-30.39 121.07l-225.61 49.67-225.61-49.67c-19.39-36.05-30.39-77.28-30.39-121.07 0-46.63 12.47-90.34 34.26-128 41.698 72.091 399.22 76.52 443.48 0 21.79 37.66 34.26 81.37 34.26 128z" fill="#9965d8"/><path d="m477.74 128c-44.26 76.52-126.99 128-221.74 128s-177.48-51.48-221.74-128c.01-.02.03-.05.04-.07 44.27-76.48 126.98-127.93 221.7-127.93s177.43 51.45 221.7 127.93c.01.02.03.05.04.07z" fill="#b895e5"/><path d="m481.61 377.07c-38.38 71.37-109.63 122.44-193.5 132.93-10.52 1.32-21.23-31.33-32.11-31.33s-21.59 32.65-32.11 31.33c-83.87-10.49-155.12-61.56-193.5-132.93z" fill="#5541b6"/></g><g><path d="m288.11 356.69v153.31c-10.52 1.32-21.23 2-32.11 2s-21.59-.68-32.11-2v-153.31z" fill="#db6870"/><path d="m288.11 356.69v153.31c-10.52 1.32-21.23 2-32.11 2v-155.31z" fill="#db504f"/><path d="m199.634 327.434h112.732v58.519h-112.732z" fill="#e8a440"/><path d="m256 327.434h56.366v58.519h-56.366z" fill="#de8051"/><path d="m353.731 133.072c0 22.848-18.525 41.373-41.362 41.373-22.848 0-41.373-18.525-41.373-41.373 0-22.837 18.525-41.362 41.373-41.362 22.837 0 41.362 18.525 41.362 41.362z" fill="#e8a440"/><path d="m365.852 142.168v109.852c0 60.67-49.182 109.852-109.852 109.852s-109.852-49.181-109.852-109.852v-109.852z" fill="#eec036"/><path d="m365.852 142.168v109.852c0 60.67-49.182 109.852-109.852 109.852v-219.704z" fill="#e8a440"/><path d="m353.731 133.072c0 22.848-18.525 41.373-41.362 41.373v-82.735c22.837 0 41.362 18.525 41.362 41.362z" fill="#de8051"/><path d="m396.176 133.072v40.6c0 25.819-20.939 46.758-46.758 46.758h-186.837c-25.819 0-46.758-20.939-46.758-46.758v-40.6z" fill="#f5dd6e"/><path d="m396.176 133.072v40.6c0 25.819-20.939 46.758-46.758 46.758h-93.418v-87.358z" fill="#eec036"/></g><g fill="#e9ecf8"><path d="m246 15.506h20v51.659h-20z"/><g><path d="m185.73 39.95h20v43.6h-20z" transform="matrix(.707 -.707 .707 .707 13.663 156.487)"/><path d="m294.47 51.75h43.6v20h-43.6z" transform="matrix(.707 -.707 .707 .707 48.966 241.718)"/></g></g></g></svg>