<svg id="Capa_1" enable-background="new 0 0 512 512" height="512" viewBox="0 0 512 512" width="512" xmlns="http://www.w3.org/2000/svg"><circle cx="256" cy="256" fill="#65b2fe" r="256"/><path d="m512 256c0 87.11-43.52 164.07-110 210.31-41.41 28.8-91.73 45.69-146 45.69s-104.59-16.89-146-45.69c-66.48-46.24-110-123.2-110-210.31 0-46.22 12.25-89.57 33.68-127 44.12 77.07 127.16 129 222.32 129s178.21-51.93 222.32-129c21.43 37.43 33.68 80.78 33.68 127z" fill="#0e9ce7"/><path d="m452 316c0 105.34-83.12 191.28-187.34 195.81-.31.02-.62.03-.93.04-.87.03-1.74.06-2.6.08-1.73.05-3.44.07-5.13.07-108.24 0-196-87.76-196-196s87.76-196 196-196h.28c108.11.15 195.72 87.85 195.72 196z" fill="#ffe853"/><path d="m452 316c0 105.34-83.12 191.28-187.34 195.81-.31.02-.62.03-.93.04-.87.03-1.74.06-2.6.08-1.73.05-3.44.07-5.13.07-58.54-45.3-103.35-116.25-103.35-196s44.81-150.7 103.35-196h.28c108.11.15 195.72 87.85 195.72 196z" fill="#fed110"/><path d="m452 316c0 108.244-87.756 196-196 196v-392c108.244 0 196 87.756 196 196z" fill="#ff9f01"/><path d="m233.76 295.26c0 25.46-20.64 46.1-46.09 46.1-25.46 0-46.1-20.64-46.1-46.1 0-25.45 92.19-25.45 92.19 0z" fill="#fff"/><circle cx="188.147" cy="295.264" fill="#29334c" r="25.616"/><path d="m370.43 295.26c0 25.46-20.64 46.1-46.1 46.1-25.45 0-46.09-20.64-46.09-46.1 0-25.45 92.19-25.45 92.19 0z" fill="#fff"/><circle cx="325" cy="295.264" fill="#29334c" r="25.616"/><g fill="#ed771b"><path d="m233.76 295.26h-92.19c0-25.45 20.64-46.09 46.1-46.09 25.45 0 46.09 20.64 46.09 46.09z"/><path d="m370.43 295.26h-92.19c0-25.45 20.64-46.09 46.09-46.09 25.46 0 46.1 20.64 46.1 46.09z"/><path d="m373.74 389.35c0 3.93-1.6 7.5-4.17 10.08-2.58 2.57-6.15 4.17-10.08 4.17h-206.98c-7.87 0-14.25-6.38-14.25-14.25 0-3.93 1.6-7.5 4.17-10.08 2.58-2.57 6.15-4.17 10.08-4.17h206.98c7.87 0 14.25 6.38 14.25 14.25z"/></g><path d="m373.74 389.35c0 3.93-1.6 7.5-4.17 10.08-2.58 2.57-6.15 4.17-10.08 4.17h-103.49v-28.5h103.49c7.87 0 14.25 6.38 14.25 14.25z" fill="#c6601a"/></svg>