<svg id="Capa_1" enable-background="new 0 0 512 512" height="512" viewBox="0 0 512 512" width="512" xmlns="http://www.w3.org/2000/svg"><path d="m512 256c0 67.84-26.4 129.53-69.48 175.34l-50.332 21.766c-86.92 37.588-185.492 37.672-272.475.232l-49.643-21.368c-43.43-45.88-70.07-107.81-70.07-175.97 0-142.439 116.344-257.716 259.182-255.981 140.531 1.707 252.818 115.439 252.818 255.981z" fill="#6c82ff"/><path d="m512 256c0 67.84-26.4 129.53-69.48 175.34l-50.332 21.766c-86.92 37.588-185.492 37.672-272.475.232l-49.643-21.368c-43.43-45.87-70.07-107.82-70.07-175.97 0-46.22 12.25-89.57 33.68-127 44.12 77.07 127.16 129 222.32 129s178.21-51.93 222.32-129c21.43 37.43 33.68 80.78 33.68 127z" fill="#4d6df4"/><path d="m116.273 157.23h280.78v311.52h-280.78z" fill="#22d7ff" transform="matrix(.004 -1 1 .004 -57.271 568.497)"/><path d="m412.939 173.175-1.035 280.778-155.904-.574v-280.778z" fill="#24c6ff"/><path d="m-9.664 291.473h233.48v37.87h-233.48z" fill="#d1f6ff" transform="matrix(.004 -1 1 .004 -203.725 416.339)"/><path d="m-.497 300.673h233.48v19.537h-233.48z" fill="#b3f4ff" transform="matrix(.004 -1 1 .004 -194.626 425.539)"/><path d="m82.361 383.838h48.75v37.87h-48.75z" fill="#8fc8f5" transform="matrix(.004 -1 1 .004 -296.428 508.023)"/><path d="m91.526 393.036h48.75v19.54h-48.75z" fill="#65b2fe" transform="matrix(.004 -1 1 .004 -287.33 517.221)"/><path d="m83.042 199.109h48.75v37.87h-48.75z" fill="#8fc8f5" transform="matrix(.004 -1 1 .004 -111.022 324.656)"/><path d="m92.207 208.308h48.75v19.54h-48.75z" fill="#65b2fe" transform="matrix(.004 -1 1 .004 -101.924 333.855)"/><path d="m114.716 168.444-43.68-.161-.146 39.513c-.021 5.593 4.499 10.146 10.092 10.167l33.55.124 18.114.067c5.593.021 10.146-4.499 10.167-10.092l.146-39.513z" fill="#fff"/><path d="m142.05 415.47-.16 41.91-28.24-.1-15.92-.06c-8.96-7.05-17.44-14.7-25.38-22.87-.77-.79-1.53-1.58-2.28-2.38l.06-16.77c.02-5.59 4.57-10.11 10.16-10.09l33.55.12 18.12.07c5.59.02 10.11 4.57 10.09 10.17z" fill="#fff"/><path d="m90.511 291.848h233.48v37.86h-233.48z" fill="#d1f6ff" transform="matrix(.004 -1 1 .004 -104.289 516.881)"/><path d="m99.679 301.043h233.48v19.537h-233.48z" fill="#b3f4ff" transform="matrix(.004 -1 1 .004 -95.189 526.083)"/><path d="m182.535 384.212h48.75v37.86h-48.75z" fill="#8fc8f5" transform="matrix(.004 -1 1 .004 -196.992 608.564)"/><path d="m191.703 393.406h48.75v19.54h-48.75z" fill="#65b2fe" transform="matrix(.004 -1 1 .004 -187.892 617.766)"/><path d="m183.216 199.483h48.75v37.86h-48.75z" fill="#8fc8f5" transform="matrix(.004 -1 1 .004 -11.586 425.198)"/><path d="m192.384 208.677h48.75v19.54h-48.75z" fill="#65b2fe" transform="matrix(.004 -1 1 .004 -2.486 434.399)"/><path d="m214.891 168.814-43.68-.161-.146 39.513c-.021 5.593 4.499 10.146 10.092 10.167l33.55.124 18.114.067c5.593.021 10.146-4.499 10.167-10.092l.146-39.513z" fill="#fff"/><path d="m213.826 457.647-43.68-.161.155-41.914c.021-5.593 4.573-10.112 10.167-10.092l33.551.124 18.114.067c5.593.021 10.113 4.573 10.092 10.167l-.155 41.914z" fill="#fff"/><path d="m190.685 292.212h233.48v37.87h-233.48z" fill="#d1f6ff" transform="matrix(.004 -1 1 .004 -4.853 617.423)"/><path d="m199.85 301.412h233.48v19.537h-233.48z" fill="#b3f4ff" transform="matrix(.004 -1 1 .004 4.244 626.621)"/><path d="m282.709 384.576h48.75v37.87h-48.75z" fill="#8fc8f5" transform="matrix(.004 -1 1 .004 -97.556 709.106)"/><path d="m291.874 393.775h48.75v19.54h-48.75z" fill="#65b2fe" transform="matrix(.004 -1 1 .004 -88.459 718.304)"/><path d="m283.39 199.848h48.75v37.87h-48.75z" fill="#8fc8f5" transform="matrix(.004 -1 1 .004 87.85 525.739)"/><path d="m292.555 209.046h48.75v19.54h-48.75z" fill="#65b2fe" transform="matrix(.004 -1 1 .004 96.947 534.938)"/><path d="m315.065 169.183-43.68-.161-.146 39.513c-.021 5.593 4.499 10.146 10.092 10.167l33.551.124 18.114.067c5.593.021 10.146-4.499 10.167-10.092l.146-39.513z" fill="#fff"/><path d="m314 458.016-43.68-.161.155-41.914c.021-5.593 4.573-10.112 10.167-10.092l33.55.124 18.114.067c5.593.021 10.113 4.573 10.092 10.167l-.155 41.914z" fill="#fff"/><path d="m290.859 292.586h233.48v37.86h-233.48z" fill="#d1f6ff" transform="matrix(.004 -1 1 .004 94.582 717.964)"/><path d="m300.019 301.781h233.48v19.537h-233.48z" fill="#b3f4ff" transform="matrix(.004 -1 1 .004 103.675 727.158)"/><path d="m383.565 200.222h48.75v37.86h-48.75z" fill="#8fc8f5" transform="matrix(.004 -1 1 .004 187.285 626.281)"/><path d="m392.725 209.416h48.75v19.54h-48.75z" fill="#65b2fe" transform="matrix(.004 -1 1 .004 196.378 635.474)"/><path d="m382.884 384.951h48.75v37.86h-48.75z" fill="#24c6ff" transform="matrix(.004 -1 1 .004 1.879 809.648)"/><path d="m392.044 394.144h48.75v19.54h-48.75z" fill="#65b2fe" transform="matrix(.004 -1 1 .004 10.972 818.841)"/><path d="m415.24 169.552-43.68-.161-.146 39.513c-.021 5.593 4.499 10.146 10.092 10.167l33.55.124 18.114.067c5.593.021 10.146-4.499 10.167-10.092l.146-39.513z" fill="#fff"/><path d="m442.57 416.58-.05 14.76c-1.38 1.47-2.78 2.92-4.2 4.36-8 8.11-16.53 15.69-25.54 22.68l-42.28-.16.15-41.91c.02-5.59 4.57-10.11 10.17-10.09l33.55.12 18.11.07c5.59.02 10.11 4.57 10.09 10.17z" fill="#fff"/><path d="m237.941-13.685h38.49v372.569h-38.49z" fill="#d1f6ff" transform="matrix(.004 -1 1 .004 83.64 429.148)"/><path d="m443.54 154.041-.142 38.49-187.398-.687v-38.49z" fill="#b3f4ff"/><path d="m381.503 153.815-248.503-.916 123-72.2z" fill="#fff"/><path d="m381.5 153.811-125.5-.458v-72.657z" fill="#d1f6ff"/><path d="m443.54 154.04-372.578-1.374 185.038-108.245z" fill="#fff"/><path d="m443.54 154.04-187.54-.687v-108.932z" fill="#d1f6ff"/><path d="m255.884 135.289c-17.415-.064-31.475-14.228-31.411-31.643s14.228-31.489 31.643-31.425z" fill="#d1f6ff"/><path d="m255.884 135.289c17.415.064 31.579-13.996 31.643-31.411s-13.996-31.593-31.411-31.657z" fill="#b3f4ff"/><path d="m438.32 435.7c-46.42 47.1-110.96 76.3-182.32 76.3-72.04 0-137.13-29.76-183.65-77.65z" fill="#d1f6ff"/><path d="m438.32 435.7c-46.42 47.1-110.96 76.3-182.32 76.3v-76.97z" fill="#b3f4ff"/><path d="m390.23 474.01c-39.03 24.09-85 37.99-134.23 37.99-49.9 0-96.47-14.28-135.84-38.98z" fill="#fff"/><path d="m390.24 474.01c-39.03 24.09-85.01 37.99-134.24 37.99v-38.48z" fill="#d1f6ff"/></svg>