<?xml version="1.0" encoding="UTF-8" standalone="no"?>
<svg
   xmlns:dc="http://purl.org/dc/elements/1.1/"
   xmlns:cc="http://creativecommons.org/ns#"
   xmlns:rdf="http://www.w3.org/1999/02/22-rdf-syntax-ns#"
   xmlns:svg="http://www.w3.org/2000/svg"
   xmlns="http://www.w3.org/2000/svg"
   xmlns:sodipodi="http://sodipodi.sourceforge.net/DTD/sodipodi-0.dtd"
   xmlns:inkscape="http://www.inkscape.org/namespaces/inkscape"
   id="Layer_1"
   enable-background="new 0 0 512 512"
   height="512"
   viewBox="0 0 512 512"
   width="512"
   version="1.1"
   sodipodi:docname="014-calendar-a.svg"
   inkscape:version="0.92.5 (2060ec1f9f, 2020-04-08)">
  <metadata
     id="metadata74">
    <rdf:RDF>
      <cc:Work
         rdf:about="">
        <dc:format>image/svg+xml</dc:format>
        <dc:type
           rdf:resource="http://purl.org/dc/dcmitype/StillImage" />
        <dc:title></dc:title>
      </cc:Work>
    </rdf:RDF>
  </metadata>
  <defs
     id="defs72" />
  <sodipodi:namedview
     pagecolor="#ffffff"
     bordercolor="#666666"
     borderopacity="1"
     objecttolerance="10"
     gridtolerance="10"
     guidetolerance="10"
     inkscape:pageopacity="0"
     inkscape:pageshadow="2"
     inkscape:window-width="640"
     inkscape:window-height="480"
     id="namedview70"
     showgrid="false"
     inkscape:zoom="0.4609375"
     inkscape:cx="256"
     inkscape:cy="256"
     inkscape:window-x="0"
     inkscape:window-y="30"
     inkscape:window-maximized="0"
     inkscape:current-layer="g67" />
  <g
     id="g67">
    <g
       id="g65">
      <g
         id="g49">
        <path
           d="m89.425 162.96h333.15v252.164h-333.15z"
           fill="#f5f5f7"
           id="path23" />
        <path
           d="m256 162.96h166.57v252.16h-166.57z"
           fill="#e0e3ee"
           id="path25" />
        <path
           d="m89.425 376.527h333.15v50.596h-333.15z"
           fill="#e0e3ee"
           id="path27" />
        <path
           d="m256 376.53h166.57v50.59h-166.57z"
           fill="#c3cadd"
           id="path29" />
        <path
           d="m89.66 93.627h332.68v82.594h-332.68z"
           fill="#fed940"
           id="path31" />
        <path
           d="m256 93.63h166.34v82.59h-166.34z"
           fill="#fdbf2d"
           id="path33" />
        <g
           id="g47">
          <g
             id="g37">
            <path
               d="m315.007 115.97v-44.686c0-10.903 8.839-19.743 19.743-19.743 10.904 0 19.743 8.839 19.743 19.743v44.687c0 10.904-8.839 19.743-19.743 19.743-10.904-.001-19.743-8.84-19.743-19.744z"
               fill="#ef7a06"
               id="path35" />
          </g>
          <g
             id="g45">
            <g
               id="g43">
              <g
                 id="g41">
                <path
                   d="m157.507 115.97v-44.686c0-10.903 8.839-19.743 19.743-19.743 10.904 0 19.743 8.839 19.743 19.743v44.687c0 10.904-8.839 19.743-19.743 19.743-10.904-.001-19.743-8.84-19.743-19.744z"
                   fill="#fd9827"
                   id="path39" />
              </g>
            </g>
          </g>
        </g>
      </g>
      <g
         id="g63">
        <g
           id="g55">
          <g
             id="g53">
            <path
               d="m234.5 325.633h-15v-85.261h-18.224v-15h33.224z"
               fill="#726565"
               id="path51" />
          </g>
        </g>
        <g
           id="g61">
          <g
             id="g59">
            <path
               d="m319.119 325.256-58.617-.18.047-13.315 2.061-2.162c.077-.083 9.108-9.728 29.788-39.275 4.079-5.828 6.709-11.06 7.821-15.56l.304-2.375c-.228-7.697-6.56-13.89-14.311-13.89-6.827 0-12.735 4.851-14.048 11.533l-1.445 7.359-14.719-2.889 1.445-7.359c2.69-13.699 14.788-23.643 28.767-23.643 16.165 0 29.316 13.151 29.316 29.317v.477l-.614 4.515c-1.497 6.456-4.939 13.56-10.228 21.117-10.389 14.844-17.932 24.82-22.999 31.216l37.478.115z"
               fill="#514747"
               id="path57" />
          </g>
        </g>
      </g>
    </g>
  </g>
</svg>
