<svg height="512" viewBox="0 0 512 512" width="512" xmlns="http://www.w3.org/2000/svg"><g id="BULINE"><circle cx="256" cy="256" fill="#cd88f8" r="256"/></g><g id="Icons"><path d="m214.45 83.4a41.55 41.55 0 0 0 83.1 0c0-17.11-23.09-52.08-34.85-68.78a8.19 8.19 0 0 0 -13.4 0c-11.76 16.7-34.85 51.67-34.85 68.78z" fill="#f6d372"/><path d="m228 97a28 28 0 0 0 56 0c0-11.53-15.56-35.11-23.48-46.36a5.53 5.53 0 0 0 -9 0c-7.96 11.2-23.52 34.78-23.52 46.36z" fill="#f7bb38"/><path d="m412.15 377v27.25a35.74 35.74 0 0 1 -35.74 35.75h-240.81a35.75 35.75 0 0 1 -35.75-35.74v-27.26a111.68 111.68 0 0 1 92.07-110 15.21 15.21 0 0 0 12.43-15v-43.94h103.3v43.82a15.22 15.22 0 0 0 12.44 15 111.68 111.68 0 0 1 92.06 110.12z" fill="#f8fcff"/><path d="m240.82 208.06v43.82a15.22 15.22 0 0 1 -12.44 15 111.82 111.82 0 0 0 -92.07 110.12v27.25a35.75 35.75 0 0 0 35.75 35.75h-36.46a35.76 35.76 0 0 1 -35.75-35.74v-27.26a111.82 111.82 0 0 1 92.08-110 15.21 15.21 0 0 0 12.43-15v-43.94z" fill="#e2e2e2"/><path d="m412.15 377v27.25a35.74 35.74 0 0 1 -35.74 35.75h-240.81a35.75 35.75 0 0 1 -35.75-35.74v-27.26a111.51 111.51 0 0 1 6.8-38.48h298.7a111.51 111.51 0 0 1 6.8 38.48z" fill="#7cc8fb"/><path d="m172.05 440h-36.45a35.76 35.76 0 0 1 -35.75-35.74v-27.26c0-2.53.08-5.05.25-7.54a.57.57 0 0 1 0-.13c.22-3.37.6-6.72 1.13-10 .26-1.64 1.24-6.52 1.43-7.33.35-1.6 3.79-12.94 4-13.47h36.47a111.52 111.52 0 0 0 -6.82 38.47v27.25a35.75 35.75 0 0 0 35.74 35.75z" fill="#41c0e3"/><path d="m353.65 432.74a80.84 80.84 0 0 1 -32.36-7.2 92.65 92.65 0 0 0 -34-5.36 39.36 39.36 0 0 1 -40.44-39.39v-126.79a9.11 9.11 0 1 1 18.22 0v126.79a21.14 21.14 0 0 0 21.73 21.21 110.87 110.87 0 0 1 41.11 6.59 7.22 7.22 0 0 1 1 .43c.23.11 25.09 12.13 44.69.33a9.12 9.12 0 0 1 9.4 15.62 56.17 56.17 0 0 1 -29.35 7.77z" fill="#27273d"/><rect fill="#e88032" height="141.37" rx="13.97" width="56.71" x="227.65" y="135.96"/><path d="m257.84 277.33h-16.21a14 14 0 0 1 -14-14v-113.39a14 14 0 0 1 14-14h16.21a14 14 0 0 0 -14 14v113.41a14 14 0 0 0 14 13.98z" fill="#ce6f2e"/><path d="m197.68 192.67h116.66a0 0 0 0 1 0 0v30a12.15 12.15 0 0 1 -12.15 12.15h-92.36a12.15 12.15 0 0 1 -12.15-12.15v-30a0 0 0 0 1 0 0z" fill="#4f4f74"/><rect fill="#3e436d" height="21.87" rx="9.35" width="144.2" x="183.9" y="170.79"/><g fill="#41c0e3"><circle cx="214.64" cy="373.33" r="16.96"/><circle cx="375" cy="365.83" r="16.96"/><circle cx="300.36" cy="382.8" r="10.69"/><circle cx="172.05" cy="417.12" r="10.69"/></g><path d="m197.68 192.67h116.66v10.53h-116.66z" fill="#32314b"/><path d="m434 440a256 256 0 0 1 -356 0z" fill="#db1b1b"/></g></svg>