<svg id="Capa_1" enable-background="new 0 0 512 512" height="512" viewBox="0 0 512 512" width="512" xmlns="http://www.w3.org/2000/svg"><g><g><path d="m512 256c0 43.79-11 85.02-30.39 121.07l-225.61 49.67-225.61-49.67c-19.39-36.05-30.39-77.28-30.39-121.07 0-46.63 12.47-90.34 34.26-128 41.698 72.091 399.22 76.52 443.48 0 21.79 37.66 34.26 81.37 34.26 128z" fill="#c02e71"/><path d="m477.74 128c-44.26 76.52-126.99 128-221.74 128s-177.48-51.48-221.74-128c.01-.02.03-.05.04-.07 44.27-76.48 126.98-127.93 221.7-127.93s177.43 51.45 221.7 127.93c.01.02.03.05.04.07z" fill="#d95f91"/><path d="m481.61 377.07c-43.19 80.32-128.02 134.93-225.61 134.93s-182.42-54.61-225.61-134.93z" fill="#815"/></g><g><path d="m315.825 133.358c-1.18 5.32-2.91 10.57-5.18 15.68l-5.25 11.81-3.76 8.47-8.98 20.21-36.65 82.52-36.66-82.52-8.97-20.21-3.77-8.48-5.24-11.8c-2.27-5.11-4-10.36-5.19-15.68-6.24-27.71 1.94-57.19 22.55-77.8l37.28-37.27 37.27 37.27c20.61 20.61 28.79 50.089 22.55 77.8z" fill="#e8ebf7"/><path d="m315.825 133.358c-1.18 5.32-2.91 10.57-5.18 15.68l-5.25 11.81-3.76 8.47-8.98 20.21-36.65 82.52v-253.76l37.27 37.27c20.61 20.61 28.79 50.089 22.55 77.8z" fill="#daddee"/><path d="m300.345 112.968-44.34-44.34-44.35 44.34c-6.12 6.13-11.31 12.98-15.48 20.39 1.19 5.32 2.92 10.57 5.19 15.68l5.24 11.8c3.23-12.53 9.72-24.26 19.19-33.73l30.21-30.2 30.2 30.2c9.47 9.47 15.96 21.21 19.19 33.74l5.25-11.81c2.27-5.11 4-10.36 5.18-15.68-4.17-7.41-9.35-14.26-15.48-20.39z" fill="#616578"/><path d="m315.825 133.358c-1.18 5.32-2.91 10.57-5.18 15.68l-5.25 11.81c-3.23-12.53-9.72-24.27-19.19-33.74l-30.2-30.2v-28.28l44.34 44.34c6.13 6.13 11.31 12.98 15.48 20.39z" fill="#464652"/><path d="m300.345 168.008-44.34-44.34-44.35 44.34c-.43.43-.86.87-1.28 1.31l8.97 20.21c1.97-2.58 4.12-5.05 6.45-7.38l30.21-30.2 30.2 30.2c2.33 2.33 4.48 4.8 6.45 7.38l8.98-20.21c-.43-.44-.86-.88-1.29-1.31z" fill="#daddee"/><path d="m301.635 169.318-8.98 20.21c-1.97-2.58-4.12-5.05-6.45-7.38l-30.2-30.2v-28.28l44.34 44.34c.43.43.86.87 1.29 1.31z" fill="#c8cde4"/></g><g><path d="m404.215 377.07c0 40.6-32.92 73.52-73.52 73.52h-149.39c-20.3 0-38.68-8.23-51.99-21.54-13.3-13.3-21.53-31.68-21.53-51.98 0-40.6 32.92-73.51 73.52-73.51h13.49v-40.95h122.41v40.95h13.49c20.3 0 38.68 8.23 51.98 21.53 13.31 13.3 21.54 31.68 21.54 51.98z" fill="#c4f4ff"/><path d="m404.215 377.07c0 40.6-32.92 73.52-73.52 73.52h-74.7v-187.98h61.21v40.95h13.49c20.3 0 38.68 8.23 51.98 21.53 13.31 13.3 21.54 31.68 21.54 51.98z" fill="#9febff"/><path d="m379.215 377.07c0 26.75-21.77 48.52-48.52 48.52h-149.39c-26.75 0-48.52-21.77-48.52-48.52z" fill="#9965d8"/><path d="m379.215 377.07c0 26.75-21.77 48.52-48.52 48.52h-74.7v-48.52z" fill="#5541b6"/><path d="m181.895 221.708h148.21v55.902h-148.21z" fill="#9febff"/><path d="m256.842 221.708h73.263v55.902h-73.263z" fill="#70c5e9"/></g><path d="m256.842 337.461-18.292-32.546v-32.545h18.292z" fill="#9febff"/><path d="m275.134 304.915-18.292 32.546v-65.091h18.292z" fill="#70c5e9"/></g></svg>