<svg id="Capa_1" enable-background="new 0 0 512 512" height="512" viewBox="0 0 512 512" width="512" xmlns="http://www.w3.org/2000/svg"><g><g><g><g><g><g><g><ellipse cx="256" cy="256" fill="#a3d4ff" rx="256" ry="256" transform="matrix(.707 -.707 .707 .707 -106.039 256)"/></g></g></g></g></g></g><path d="m512 256c0-20.027-2.3-39.516-6.649-58.218l-74.291-74.291-350.119 62.969 115.745 115.745-103.725 73.982 134.207 134.207c9.464 1.061 19.084 1.606 28.832 1.606 141.385 0 256-114.615 256-256z" fill="#65b1fc"/><path d="m271 399.763v-75.268h-30v75.268c-13.684 5.847-23.297 19.44-23.297 35.237 0 21.117 17.18 38.297 38.297 38.297s38.297-17.18 38.297-38.297c0-15.797-9.613-29.39-23.297-35.237zm-15 43.534c-4.575 0-8.297-3.722-8.297-8.297s3.722-8.297 8.297-8.297 8.297 3.722 8.297 8.297-3.722 8.297-8.297 8.297z" fill="#555a66"/><path d="m271 399.765v-75.27h-14.88v102.214c4.519.065 8.177 3.757 8.177 8.291s-3.658 8.226-8.177 8.291v30.003c21.062-.066 38.177-17.218 38.177-38.294 0-15.796-9.613-29.388-23.297-35.235z" fill="#333940"/><g><path d="m92.961 154.975h326.079v221.212h-326.079z" fill="#fff"/></g><g><path d="m256.121 154.975h162.919v221.212h-162.919z" fill="#e9edf5"/></g><g><g fill="#7584f2"><path d="m141.242 310.578v-50.35l-12.616 12.728-11.039-11.602 26.246-25.907h16.783v75.131z"/><path d="m201.614 277.799v22.303h-11.377v-22.303h-19.6v-10.363h19.6v-21.514h11.377v21.514h19.6v10.363z"/><path d="m248.693 310.578v-50.35l-12.616 12.728-11.039-11.602 26.246-25.907h16.784v75.131z"/></g><path d="m256.121 235.446h11.947v75.131h-11.947z" fill="#606aea"/><path d="m278.088 267.662v-10.363h50.575v10.363zm0 20.951v-10.363h50.575v10.363z" fill="#606aea"/><path d="m336.882 310.578v-15.094c32.553-23.542 38.636-28.724 38.636-36.158 0-5.182-4.844-7.885-10.363-7.885-8.335 0-14.643 3.154-20.05 8.223l-10.7-12.841c7.997-8.786 19.936-12.503 30.412-12.503 17.685 0 30.413 9.913 30.413 25.006 0 11.489-8.223 21.289-26.921 34.355h27.484v16.896h-58.911z" fill="#606aea"/></g><g><path d="m80.941 123.49h350.119v62.97h-350.119z" fill="#555a66"/></g><g><path d="m256.121 123.49h174.939v62.969h-174.939z" fill="#333940"/></g></g></svg>