<svg id="Capa_1" enable-background="new 0 0 512 512" height="512" viewBox="0 0 512 512" width="512" xmlns="http://www.w3.org/2000/svg"><g><g><path d="m256 320.5c-141.387 0-243.753-154.073-222.328-191.501 44.119-77.069 127.158-128.999 222.328-128.999s178.208 51.929 222.328 128.999c21.425 37.427-80.941 191.501-222.328 191.501z" fill="#df7cb3"/><path d="m512 256c0 26.051-3.891 51.191-11.129 74.871-5.031 16.469-11.672 32.231-19.75 47.109-8.25 15.2-147.391 54.36-225.121 54.36s-216.871-39.16-225.109-54.36c-3.289-6.031-6.332-12.21-9.121-18.531-14-31.629-21.77-66.629-21.77-103.449 0-46.219 12.25-89.57 33.68-127 44.121 77.07 127.16 129 222.32 129s178.211-51.93 222.32-129c21.43 37.43 33.68 80.781 33.68 127zm0 0" fill="#d85e91"/><path d="m481.262 377.699c-7.16 13.223-15.434 25.742-24.723 37.43-8.437 10.633-86.598 73.197-122.03 84.604-24.74 7.965-51.123 12.267-78.509 12.267-66.609 0-127.281-25.449-172.82-67.148-10-9.153-19.282-19.09-27.719-29.723-9.289-11.688-17.563-24.207-24.723-37.43zm0 0" fill="#bb1961"/></g><g><path d="m457.315 414.157c-6.674-39.157-40.834-69.075-81.862-69.075-45.796 0-83.064 37.267-83.064 83.064 0 30.351 16.377 57.29 40.749 72.017 49.63-15.665 92.73-46.033 124.177-86.006z" fill="#a8eb58"/><path d="m457.315 414.157c-6.674-39.157-40.834-69.075-81.862-69.075v137.378c31.86-16.84 59.746-40.191 81.862-68.303z" fill="#80cf8c"/><path d="m172.937 297.617h-119.454v71.197c0 32.609 62.301 47.465 119.453 47.465s119.453-14.856 119.453-47.465v-71.197z" fill="#dce0ef"/><path d="m292.39 368.814v-71.197h-119.453v118.662c57.152 0 119.453-14.856 119.453-47.465z" fill="#cad0e7"/><path d="m172.937 226.42h-119.454v71.197c0 32.609 62.301 47.465 119.453 47.465s119.453-14.856 119.453-47.465v-71.197z" fill="#fbf5eb"/><path d="m292.39 297.617v-71.197h-119.453v118.662c57.152 0 119.453-14.856 119.453-47.465z" fill="#dce0ef"/><path d="m172.937 154.432h-119.454v71.988c0 32.609 62.301 47.465 119.453 47.465s119.453-14.856 119.453-47.465v-71.988z" fill="#dce0ef"/><path d="m292.39 226.42v-71.988h-119.453v119.453c57.152 0 119.453-14.856 119.453-47.465z" fill="#cad0e7"/><ellipse cx="172.937" cy="154.432" fill="#fbf5eb" rx="119.453" ry="47.465"/><path d="m292.39 154.432c0-32.609-62.301-47.465-119.453-47.465v94.93c57.152-.001 119.453-14.856 119.453-47.465z" fill="#dce0ef"/><g fill="#fbf5eb"><path d="m402.662 396.023-27.209 27.209-11.866 11.866-15.343-15.342-16.779 16.779 32.122 32.122 11.866-11.866 43.988-43.988z"/><path d="m402.662 396.023-27.209 27.209v33.559l43.988-43.988z"/></g></g><g fill="#fff"><path d="m302.796 67.877h-1.524c-6.754 0-12.226-5.477-12.226-12.227v-1.523h-8.715v1.523c0 6.75-5.477 12.227-12.227 12.227h-1.527v8.715h1.527c6.75 0 12.227 5.472 12.227 12.226v1.528h8.715v-1.528c0-6.754 5.472-12.226 12.226-12.226h1.524zm0 0"/><path d="m424.381 134.031h-1.524c-6.754 0-12.226-5.477-12.226-12.227v-1.523h-8.715v1.523c0 6.75-5.477 12.227-12.227 12.227h-1.527v8.715h1.527c6.75 0 12.227 5.472 12.227 12.226v1.528h8.715v-1.528c0-6.754 5.472-12.226 12.226-12.226h1.524zm0 0"/><path d="m446.929 251.641h-1.524c-6.754 0-12.226-5.477-12.226-12.227v-1.523h-8.715v1.523c0 6.75-5.477 12.227-12.227 12.227h-1.527v8.715h1.527c6.75 0 12.227 5.472 12.227 12.226v1.528h8.715v-1.528c0-6.754 5.472-12.226 12.226-12.226h1.524zm0 0"/></g></g></svg>