<svg id="Icons" enable-background="new 0 0 512 512" height="512" viewBox="0 0 512 512" width="512" xmlns="http://www.w3.org/2000/svg"><g><circle cx="256" cy="256" fill="#f39e22" r="256"/><g><g><path d="m240.15 159.86v172.28c0 8.77-2.34 17.01-6.44 24.1-8.34 14.44-23.95 24.16-41.82 24.16h-79.8c-26.65 0-48.26-21.61-48.26-48.26v-172.28c0-20.97 13.39-38.83 32.08-45.47 5.05-1.81 10.5-2.79 16.18-2.79h79.8c26.65 0 48.26 21.61 48.26 48.26z" fill="#50755c"/><path d="m240.15 159.86v172.28c0 2.59-.21 5.14-.61 7.63-.93 5.92-2.94 11.48-5.83 16.47-5.05 1.81-10.5 2.79-16.18 2.79h-79.8c-26.65 0-48.26-21.61-48.26-48.26v-172.27c0-8.78 2.34-17.02 6.44-24.11 5.05-1.81 10.5-2.79 16.18-2.79h79.8c26.65 0 48.26 21.61 48.26 48.26z" fill="#528f66"/><path d="m240.15 159.86v172.28c0 2.59-.21 5.14-.61 7.63-67.49-13.8-118.26-73.52-118.26-145.09v-83.08h70.61c26.65 0 48.26 21.61 48.26 48.26z" fill="#53b976"/><g><path d="m178.89 373.4h-66.8c-3.314 0-6-2.687-6-6s2.686-6 6-6h66.8c14.675 0 29.791-14.598 37.624-28.161 3.688-6.376 5.636-13.671 5.636-21.099v-132.28c0-11.379-5.099-23.961-13.639-33.658-8.733-9.916-19.894-15.602-30.621-15.602h-65.8c-3.314 0-6-2.687-6-6s2.686-6 6-6h65.8c14.173 0 28.616 7.169 39.626 19.67 10.571 12.002 16.634 27.161 16.634 41.589v132.28c0 9.534-2.505 18.906-7.246 27.104-9.1 15.756-27.135 34.157-48.014 34.157z" fill="#2d2667"/></g><g><g><path d="m118.09 134.1h-6c-1.381 0-2.5-1.119-2.5-2.5s1.119-2.5 2.5-2.5h6c1.381 0 2.5 1.119 2.5 2.5s-1.119 2.5-2.5 2.5z" fill="#ebd9ea"/></g><g><path d="m171.89 362.9h-3.346c-1.381 0-2.5-1.119-2.5-2.5s1.119-2.5 2.5-2.5h3.346c2.624 0 5.253-.224 7.817-.665 1.357-.235 2.653.679 2.888 2.04.234 1.36-.679 2.653-2.04 2.888-2.843.489-5.758.737-8.665.737zm-22.725 0h-11.628c-1.381 0-2.5-1.119-2.5-2.5s1.119-2.5 2.5-2.5h11.628c1.381 0 2.5 1.119 2.5 2.5s-1.119 2.5-2.5 2.5zm48.895-7.705c-.82 0-1.624-.403-2.102-1.143-.75-1.16-.417-2.707.742-3.457 3.084-1.994 5.929-4.361 8.457-7.035.949-1.002 2.531-1.047 3.534-.1 1.003.948 1.048 2.53.1 3.534-2.801 2.964-5.956 5.589-9.375 7.8-.42.271-.891.401-1.356.401zm19.087-23.758c-.289 0-.583-.05-.869-.157-1.294-.48-1.955-1.919-1.474-3.213 1.276-3.44 2.134-7.039 2.55-10.696.156-1.372 1.397-2.363 2.766-2.202 1.372.156 2.358 1.395 2.202 2.766-.461 4.059-1.414 8.052-2.831 11.871-.373 1.008-1.328 1.631-2.344 1.631zm3.003-30.653c-1.381 0-2.5-1.119-2.5-2.5v-11.627c0-1.381 1.119-2.5 2.5-2.5s2.5 1.119 2.5 2.5v11.627c0 1.381-1.119 2.5-2.5 2.5zm0-31.007c-1.381 0-2.5-1.119-2.5-2.5v-11.627c0-1.381 1.119-2.5 2.5-2.5s2.5 1.119 2.5 2.5v11.627c0 1.381-1.119 2.5-2.5 2.5zm0-31.007c-1.381 0-2.5-1.119-2.5-2.5v-11.627c0-1.381 1.119-2.5 2.5-2.5s2.5 1.119 2.5 2.5v11.627c0 1.38-1.119 2.5-2.5 2.5zm0-31.008c-1.381 0-2.5-1.119-2.5-2.5v-11.627c0-1.381 1.119-2.5 2.5-2.5s2.5 1.119 2.5 2.5v11.627c0 1.381-1.119 2.5-2.5 2.5zm-.323-30.993c-1.252 0-2.333-.939-2.48-2.213-.422-3.655-1.286-7.25-2.568-10.687-.482-1.294.175-2.734 1.468-3.216 1.296-.482 2.734.176 3.216 1.468 1.423 3.815 2.382 7.806 2.851 11.862.159 1.372-.825 2.612-2.197 2.77-.098.011-.195.016-.29.016zm-12.903-27.599c-.662 0-1.323-.261-1.815-.78-2.532-2.671-5.381-5.034-8.466-7.023-1.161-.748-1.495-2.295-.747-3.456s2.295-1.496 3.456-.747c3.421 2.205 6.579 4.825 9.386 7.785.95 1.002.908 2.584-.094 3.535-.484.459-1.103.686-1.72.686zm-26.859-14.38c-.14 0-.281-.012-.423-.036-2.543-.434-5.151-.654-7.752-.654h-3.413c-1.381 0-2.5-1.119-2.5-2.5s1.119-2.5 2.5-2.5h3.413c2.881 0 5.772.244 8.593.725 1.361.232 2.276 1.524 2.044 2.885-.208 1.219-1.265 2.08-2.462 2.08zm-30.967-.69h-11.628c-1.381 0-2.5-1.119-2.5-2.5s1.119-2.5 2.5-2.5h11.628c1.381 0 2.5 1.119 2.5 2.5s-1.119 2.5-2.5 2.5z" fill="#ebd9ea"/></g><g><path d="m118.09 362.9h-6c-1.381 0-2.5-1.119-2.5-2.5s1.119-2.5 2.5-2.5h6c1.381 0 2.5 1.119 2.5 2.5s-1.119 2.5-2.5 2.5z" fill="#ebd9ea"/></g></g><path d="m177.772 264.662c-12.332 0-22.329-9.997-22.329-22.329v-65.237c0-12.332 9.997-22.329 22.329-22.329 12.332 0 22.329 9.997 22.329 22.329v65.237c.001 12.332-9.996 22.329-22.329 22.329z" fill="#78c795"/></g><g><path d="m136.28 415.45-4.86-36.87c-.64-4.85-3.03-9.09-6.48-12.11-.91-.81-1.91-1.53-2.96-2.15-1-.59-2.05-1.09-3.15-1.49-2.11-.78-4.38-1.2-6.74-1.2-6.54 0-12.4 3.24-15.95 8.29-1.76 2.5-2.96 5.45-3.38 8.66l-4.86 36.87c-1.05 7.98 2.87 15.36 9.22 19.21 2.93 1.79 6.39 2.83 10.11 2.83h9.72c3.54 0 6.84-.94 9.68-2.57 1.88-1.08 3.56-2.46 4.96-4.07 3.57-4.05 5.46-9.56 4.69-15.4zm-24.19 10.21c-4.58 0-8.59-2.48-10.73-6.18-1.07-1.83-1.68-3.96-1.68-6.23 0-3.43 1.4-6.54 3.66-8.79 2.24-2.23 5.33-3.61 8.75-3.61 3.26 0 6.22 1.26 8.43 3.31 2.45 2.26 3.98 5.5 3.98 9.09 0 2.3-.62 4.44-1.71 6.29-2.16 3.66-6.14 6.12-10.7 6.12z" fill="#a583bb"/><path d="m131.59 430.85c-1.05-.62-2.04-1.34-2.95-2.14-2.73-2.39-4.8-5.55-5.85-9.17 1.09-1.85 1.71-3.99 1.71-6.29 0-3.59-1.53-6.83-3.98-9.09l-3.22-24.43c-.77-5.85 1.12-11.36 4.68-15.41 1.05.62 2.05 1.34 2.96 2.15 2.04 1.79 3.71 4 4.86 6.52.8 1.73 1.36 3.61 1.62 5.59l4.16 31.56.7 5.31c.77 5.84-1.12 11.35-4.69 15.4z" fill="#c2aacf"/><path d="m105.36 389.134-2.02 15.33c-2.26 2.25-3.66 5.36-3.66 8.79 0 2.27.61 4.4 1.68 6.23l-.86 6.52c-.42 3.21-1.61 6.16-3.38 8.66-6.35-3.85-10.27-11.23-9.22-19.21l4.86-36.87c.42-3.21 1.62-6.16 3.38-8.66 6.35 3.85 10.27 11.23 9.22 19.21z" fill="#9175a7"/><path d="m135.58 410.14c-7.42-3.95-12.46-11.76-12.46-20.75 0-6.39 2.55-12.17 6.68-16.4.8 1.73 1.36 3.61 1.62 5.59z" fill="#ebd9ea"/><path d="m112.09 396c-9.53 0-17.26 7.73-17.26 17.26s7.73 17.26 17.26 17.26 17.26-7.73 17.26-17.26-7.73-17.26-17.26-17.26zm10.7 23.54c-2.16 3.66-6.14 6.12-10.7 6.12-4.58 0-8.59-2.48-10.73-6.18-1.07-1.83-1.68-3.96-1.68-6.23 0-3.43 1.4-6.54 3.66-8.79 2.24-2.23 5.33-3.61 8.75-3.61 3.26 0 6.22 1.26 8.43 3.31 2.45 2.26 3.98 5.5 3.98 9.09 0 2.3-.62 4.44-1.71 6.29z" fill="#9175a7"/></g></g><g id="Pencil_7_"><g><path d="m349.773 211.664h33.027v125.9h-33.027z" fill="#dd5e26"/><path d="m359.378 221.269v106.691c0 2.654-1.074 5.048-2.816 6.789-1.741 1.741-4.135 2.815-6.789 2.815v-125.9c5.301 0 9.605 4.296 9.605 9.605z" fill="#bf5e39"/><path d="m382.8 211.664v125.9c-5.309 0-9.613-4.304-9.613-9.605v-106.69c0-5.309 4.304-9.605 9.613-9.605z" fill="#ea792e"/></g><g><path d="m391.534 345.213c0 4.219-3.422 7.649-7.641 7.649h-35.213c-2.11 0-4.02-.859-5.401-2.24-.698-.698-1.266-1.534-1.649-2.455-.384-.913-.591-1.91-.591-2.954 0-4.227 3.422-7.649 7.641-7.649h35.213c2.11 0 4.02.859 5.401 2.24 1.389 1.381 2.24 3.299 2.24 5.409z" fill="#ebd9ea"/><path d="m391.534 345.213h-22.233c-2.11 0-4.02-.852-5.409-2.24-1.381-1.381-2.24-3.291-2.24-5.409h22.24c2.11 0 4.02.859 5.401 2.24 1.39 1.381 2.241 3.299 2.241 5.409z" fill="#fff"/><path d="m382.206 352.862h-33.526c-2.11 0-4.02-.859-5.401-2.24-.698-.698-1.266-1.534-1.649-2.455h33.525c2.11 0 4.02.859 5.401 2.24.698.698 1.258 1.526 1.65 2.455z" fill="#c1b7d3"/></g><g><path d="m382.796 352.862v11.316c0 5.017-2.232 9.505-5.761 12.528-.307.276-.621.529-.951.767-2.746 2.018-6.13 3.214-9.797 3.214-3.851 0-7.395-1.32-10.203-3.529-.437-.345-.867-.713-1.266-1.112-.069-.054-.138-.123-.207-.192-2.992-2.984-4.841-7.112-4.841-11.676v-11.316z" fill="#ee6781"/><path d="m382.796 352.862v11.316c0 5.017-2.232 9.505-5.761 12.528-.315-.268-.621-.552-.921-.852-2.984-2.984-4.833-7.112-4.833-11.676v-11.316z" fill="#f0a6b3"/><path d="m359.858 352.862v11.316c0 4.664-1.926 8.876-5.04 11.868-.069-.054-.138-.123-.207-.192-2.992-2.984-4.841-7.112-4.841-11.676v-11.316z" fill="#d65171"/></g><path d="m382.796 211.664h-33.026l13.809-34.454h5.416l11.185 27.925z" fill="#f5b890"/><path d="m380.18 205.135h-16.717c-2.839 0-4.772-2.869-3.721-5.501l8.984-22.424h.269z" fill="#fbd9a3"/><g><path d="m369.793 162.373v16.287c0 1.933-1.573 3.498-3.506 3.498-.967 0-1.841-.391-2.478-1.02-.637-.637-1.028-1.511-1.028-2.478v-16.287c0-1.749 1.281-3.191 2.946-3.46.184-.031.368-.046.56-.046 1.933 0 3.506 1.565 3.506 3.506z" fill="#2e3140"/><path d="m369.793 162.373v9.966c-.184.031-.368.046-.56.046-.967 0-1.849-.391-2.478-1.028-.637-.637-1.028-1.511-1.028-2.478v-9.966c.184-.031.368-.046.56-.046 1.933 0 3.506 1.565 3.506 3.506z" fill="#334353"/></g></g><g id="Pencil_8_"><g><path d="m412.672 211.664h33.027v125.9h-33.027z" fill="#dd5e26"/><path d="m422.276 221.269v106.691c0 2.654-1.074 5.048-2.816 6.789-1.741 1.741-4.135 2.815-6.789 2.815v-125.9c5.302 0 9.605 4.296 9.605 9.605z" fill="#bf5e39"/><path d="m445.698 211.664v125.9c-5.309 0-9.613-4.304-9.613-9.605v-106.69c.001-5.309 4.304-9.605 9.613-9.605z" fill="#ea792e"/></g><g><path d="m454.433 345.213c0 4.219-3.422 7.649-7.641 7.649h-35.213c-2.11 0-4.02-.859-5.401-2.24-.698-.698-1.266-1.534-1.649-2.455-.384-.913-.591-1.91-.591-2.954 0-4.227 3.422-7.649 7.641-7.649h35.213c2.11 0 4.02.859 5.401 2.24 1.388 1.381 2.24 3.299 2.24 5.409z" fill="#ebd9ea"/><path d="m454.433 345.213h-22.233c-2.11 0-4.02-.852-5.409-2.24-1.381-1.381-2.24-3.291-2.24-5.409h22.24c2.11 0 4.02.859 5.401 2.24 1.389 1.381 2.241 3.299 2.241 5.409z" fill="#fff"/><path d="m445.104 352.862h-33.525c-2.11 0-4.02-.859-5.401-2.24-.698-.698-1.266-1.534-1.649-2.455h33.525c2.11 0 4.02.859 5.401 2.24.697.698 1.257 1.526 1.649 2.455z" fill="#c1b7d3"/></g><g><path d="m445.694 352.862v11.316c0 5.017-2.232 9.505-5.761 12.528-.307.276-.621.529-.951.767-2.746 2.018-6.13 3.214-9.797 3.214-3.851 0-7.396-1.32-10.203-3.529-.437-.345-.867-.713-1.266-1.112-.069-.054-.138-.123-.207-.192-2.992-2.984-4.841-7.112-4.841-11.676v-11.316z" fill="#ee6781"/><path d="m445.694 352.862v11.316c0 5.017-2.232 9.505-5.761 12.528-.315-.268-.621-.552-.921-.852-2.984-2.984-4.833-7.112-4.833-11.676v-11.316z" fill="#f0a6b3"/><path d="m422.756 352.862v11.316c0 4.664-1.926 8.876-5.04 11.868-.069-.054-.138-.123-.207-.192-2.992-2.984-4.841-7.112-4.841-11.676v-11.316z" fill="#d65171"/></g><path d="m445.694 211.664h-33.026l13.809-34.454h5.416l11.185 27.925z" fill="#f5b890"/><path d="m443.078 205.135h-16.717c-2.839 0-4.772-2.869-3.721-5.501l8.984-22.424h.269z" fill="#fbd9a3"/><g><path d="m432.691 162.373v16.287c0 1.933-1.573 3.498-3.506 3.498-.967 0-1.841-.391-2.478-1.02-.637-.637-1.028-1.511-1.028-2.478v-16.287c0-1.749 1.281-3.191 2.946-3.46.184-.031.368-.046.56-.046 1.933 0 3.506 1.565 3.506 3.506z" fill="#2e3140"/><path d="m432.691 162.373v9.966c-.184.031-.368.046-.56.046-.967 0-1.849-.391-2.478-1.028-.637-.637-1.028-1.511-1.028-2.478v-9.966c.184-.031.368-.046.56-.046 1.933 0 3.506 1.565 3.506 3.506z" fill="#334353"/></g></g><g><g><path d="m288.981 211.37v158.14c0 1.495-.301 2.922-.86 4.229-1.642 3.911-5.518 6.661-10.031 6.661-6.008 0-10.882-4.882-10.882-10.89v-158.14z" fill="#334353"/><path d="m288.981 211.37v158.14c0 1.495-.301 2.922-.86 4.229-.645.129-1.315.189-2.003.189-6.008 0-10.89-4.874-10.89-10.891v-151.667z" fill="#3e4e60"/><path d="m282.104 299.101c-3.798 0-6.876-3.079-6.876-6.876v-46.902c0-3.798 3.079-6.876 6.876-6.876 3.798 0 6.876 3.079 6.876 6.876v46.902c.001 3.797-3.078 6.876-6.876 6.876z" fill="#3f5d77"/></g><g><path d="m295.797 151.262v60.168c0 .206-.009.404-.017.61-.318 6.077-5.346 10.908-11.509 10.908h-12.36c-6.361 0-11.518-5.157-11.518-11.518v-60.168c0-6.326 5.097-11.458 11.406-11.518h12.472c6.368 0 11.526 5.157 11.526 11.518z" fill="#2e3140"/><path d="m295.797 151.262v60.168c0 .206-.009.404-.017.61-2.217 1.066-4.702 1.659-7.323 1.659h-1.573c-9.343 0-16.916-7.573-16.916-16.916v-49.381c0-2.759.662-5.355 1.831-7.658h12.472c6.368 0 11.526 5.157 11.526 11.518z" fill="#334353"/><path d="m286.946 199.562c-4.888 0-8.851-3.963-8.851-8.851v-27.662c0-4.888 3.963-8.851 8.851-8.851 4.888 0 8.851 3.963 8.851 8.851v27.662c0 4.888-3.963 8.851-8.851 8.851z" fill="#3e4e60"/></g><g><path d="m311.157 170.092h-15.36v-13.865h15.36c3.829 0 6.932 3.104 6.932 6.932 0 3.829-3.103 6.933-6.932 6.933z" fill="#2e3140"/><g><g><path d="m336.039 235.608c0 2.76-2.24 5-5 5-13.92 0-18.05-11.84-19.94-20.75-.67-3.16-1.2-6.74-1.61-10.8-1.14-11.15-1.4-25.9-1.4-45.43 0-2.76 2.24-5 5-5s5 2.24 5 5c0 9.5.06 17.83.26 25.11.33 12.61 1.05 22.07 2.53 29.04 2.52 11.84 6.4 12.83 10.16 12.83 2.76 0 5 2.24 5 5z" fill="#2e3140"/></g><path d="m336.039 235.608c0 2.76-2.24 5-5 5-7.71 0-12.42-3.63-15.4-8.39-2.41-3.83-3.7-8.38-4.54-12.36-.67-3.16-1.2-6.74-1.61-10.8 1.41-7.5 4.5-14.41 8.86-20.32.33 12.61 1.05 22.07 2.53 29.04.19.89.39 1.72.59 2.49 2.51 9.49 6.09 10.34 9.57 10.34 2.76 0 5 2.24 5 5z" fill="#334353"/><path d="m336.039 235.608c0 2.76-2.24 5-5 5-7.71 0-12.42-3.63-15.4-8.39 1.44-4.25 3.41-8.27 5.83-11.95 2.51 9.49 6.09 10.34 9.57 10.34 2.76 0 5 2.24 5 5z" fill="#3e4e60"/></g></g></g></g></svg>