<svg height="512" viewBox="0 0 512 512" width="512" xmlns="http://www.w3.org/2000/svg"><g id="BULINE"><circle cx="256" cy="256" fill="#b0d46c" r="256"/></g><g id="Icons"><path d="m234.45 139.6h80.34a21.29 21.29 0 0 0 21.27-21.27v-14.76a1.25 1.25 0 0 1 1.26-1.26h29.45a30.37 30.37 0 1 0 0-20h-29.45a21.29 21.29 0 0 0 -21.26 21.26v14.76a1.27 1.27 0 0 1 -1.27 1.27h-22.66v-21a30.36 30.36 0 1 0 -20 0v21h-37.68a10 10 0 0 0 0 20zm161-57.66a10.37 10.37 0 1 1 -10.36 10.37 10.38 10.38 0 0 1 10.34-10.37zm-113.32-22.36a10.37 10.37 0 1 1 -10.36 10.36 10.37 10.37 0 0 1 10.36-10.36z" fill="#fff"/><path d="m443.16 322.94a30.18 30.18 0 0 0 -15.7 4.38l-40.66-40.66a26 26 0 0 0 -18.51-7.66h-133.84a10 10 0 0 0 0 20h133.84a6.21 6.21 0 0 1 4.36 1.81l40.76 40.76a9.67 9.67 0 0 0 1.32 1.09 30.36 30.36 0 1 0 28.43-19.71zm0 40.72a10.36 10.36 0 1 1 10.36-10.36 10.37 10.37 0 0 1 -10.36 10.36z" fill="#fff"/><path d="m395.43 378.49a30.41 30.41 0 0 0 -28.56 20.08h-29.55a1.26 1.26 0 0 1 -1.26-1.26v-14.77a21.29 21.29 0 0 0 -21.27-21.26h-80.34a10 10 0 0 0 0 20h37.68v21.79a30.36 30.36 0 1 0 20 0v-21.79h22.66a1.26 1.26 0 0 1 1.27 1.26v14.77a21.29 21.29 0 0 0 21.26 21.26h29.35a30.36 30.36 0 1 0 28.76-40.08zm-113.3 63.6a10.36 10.36 0 1 1 10.36-10.36 10.37 10.37 0 0 1 -10.36 10.36zm113.3-22.87a10.37 10.37 0 1 1 10.37-10.36 10.37 10.37 0 0 1 -10.37 10.36z" fill="#fff"/><path d="m234.45 232h133.84a26 26 0 0 0 18.51-7.67l36.63-36.63a30.27 30.27 0 1 0 -10.22-18.07l-40.56 40.56a6.21 6.21 0 0 1 -4.36 1.81h-133.84a10 10 0 0 0 0 20zm208.71-77.71a10.37 10.37 0 1 1 -10.36 10.36 10.37 10.37 0 0 1 10.36-10.38z" fill="#fff"/><path d="m194 41.71a47.33 47.33 0 0 1 47.34 47.34 48.9 48.9 0 0 1 -.74 8.34h.74v327.69a47.35 47.35 0 1 1 -93.93-8.36 47.37 47.37 0 0 1 -46-61.28c.29-.94.62-1.88 1-2.81a36.42 36.42 0 0 1 -34.87-36.4 37.49 37.49 0 0 1 .34-4.88 62 62 0 0 1 -3.4-107.55c1.07-.67 2.17-1.3 3.29-1.9a38.07 38.07 0 0 1 -.23-4 36.42 36.42 0 0 1 34.87-36.38c-.35-.94-.68-1.87-1-2.83a47.34 47.34 0 0 1 46-61.27 47.25 47.25 0 0 1 46.59-55.71z" fill="#f58d89"/><path d="m194 41.71a47.33 47.33 0 0 1 47.34 47.34v310.81a47.33 47.33 0 0 1 -66.34-51.37 47.36 47.36 0 0 1 -46-61.27c.29-1 .62-1.88 1-2.82a36.42 36.42 0 0 1 -34.93-36.4 37.53 37.53 0 0 1 .33-4.89 62.11 62.11 0 0 1 -30.94-39.31c1.07-.67 2.17-1.3 3.29-1.9a38.07 38.07 0 0 1 -.23-4 36.42 36.42 0 0 1 34.87-36.38c-.35-.94-.68-1.87-1-2.83a47.34 47.34 0 0 1 46-61.27 47.25 47.25 0 0 1 46.61-55.71z" fill="#fab3a7"/><g fill="#e07070"><path d="m62 270.92a2 2 0 0 1 -3.16 2.24l-.06-.06a34.81 34.81 0 0 1 46.46-51.84l.4.36a2 2 0 0 1 -1.92 3.38 34.82 34.82 0 0 0 -41.72 45.92z"/><path d="m166.6 281.14a2 2 0 0 1 -.8 3.79h-.09a34.81 34.81 0 0 1 -1-69.61h.54a2 2 0 0 1 .87 3.78 34.82 34.82 0 0 0 .47 62z"/><path d="m177.06 115.67a2 2 0 0 1 -3.16 2.24l-.07-.06a34.81 34.81 0 0 1 46.47-51.85l.4.36a2 2 0 0 1 -1.92 3.37 34.82 34.82 0 0 0 -41.72 45.93z"/><path d="m153.17 392.82a1.34 1.34 0 0 1 -1.63 2h-.06a23.45 23.45 0 0 1 20.65-42.11l.33.16a1.35 1.35 0 0 1 -.63 2.54 23.45 23.45 0 0 0 -18.66 37.4z"/><path d="m193.43 265.65a1.34 1.34 0 0 1 -1-2.43h.05a23.45 23.45 0 0 1 26.37 38.78l-.3.21a1.35 1.35 0 0 1 -1.9-1.81 23.45 23.45 0 0 0 -23.22-34.75z"/><path d="m137.64 144.51a1.34 1.34 0 0 1 -.95-2.43h.05a23.45 23.45 0 0 1 26.32 38.81l-.3.21a1.35 1.35 0 0 1 -1.9-1.81 23.46 23.46 0 0 0 -23.22-34.75z"/><path d="m222.92 433.13a1.88 1.88 0 0 1 2.46 2.71v.07a32.9 32.9 0 0 1 -53.86-37.79l.29-.42a1.89 1.89 0 0 1 3.39 1.43 32.9 32.9 0 0 0 47.77 34z"/><path d="m111.32 330.4a1.34 1.34 0 0 1 .52 2.56 23.45 23.45 0 0 1 -19.28-42.75l.33-.15a1.35 1.35 0 0 1 1.56 2.11 23.45 23.45 0 0 0 16.92 38.21z"/></g></g></svg>