<?xml version="1.0" encoding="iso-8859-1"?>
<!-- Generator: Adobe Illustrator 19.0.0, SVG Export Plug-In . SVG Version: 6.00 Build 0)  -->
<svg version="1.1" id="Capa_1" xmlns="http://www.w3.org/2000/svg" xmlns:xlink="http://www.w3.org/1999/xlink" x="0px" y="0px"
	 viewBox="0 0 512 512" style="enable-background:new 0 0 512 512;" xml:space="preserve">
<path style="fill:#FFC143;" d="M512,256c0,141.385-114.615,256-256,256S0,397.385,0,256S114.615,0,256,0S512,114.615,512,256z"/>
<path style="fill:#A82B2B;" d="M360,80v30c0,16.569-13.431,30-30,30h-20c-16.569,0-30-13.431-30-30V80c0-16.569,13.431-30,30-30h20
	C346.569,50,360,63.431,360,80z"/>
<path style="fill:#328093;" d="M427,446.498C381.668,487.217,321.731,512,256,512c-65.732,0-125.668-24.783-171-65.503V90
	c0-5.523,4.477-10,10-10h322c5.523,0,10,4.477,10,10V446.498z"/>
<path style="fill:#174550;" d="M95,80h25c-5.523,0-10,4.477-10,10v376.291c-8.746-6.083-17.096-12.694-25-19.794V90
	C85,84.477,89.477,80,95,80z M266,475h-20c-5.523,0-10,4.477-10,10s4.477,10,10,10h20c5.523,0,10-4.477,10-10S271.523,475,266,475z"
	/>
<path style="fill:#FFF5F5;" d="M110,455V115c0-2.761,2.239-5,5-5h282c2.761,0,5,2.239,5,5v340c0,2.761-2.239,5-5,5H115
	C112.238,460,110,457.761,110,455z"/>
<path style="fill:#FFE7BF;" d="M402,115v340c0,2.761-2.239,5-5,5h-20V110h20C399.761,110,402,112.239,402,115z"/>
<path style="fill:#FFE1A8;" d="M260,139v11c0,1.104-0.896,2-2,2H132c-1.104,0-2-0.896-2-2v-11c0-1.105,0.896-2,2-2h126
	C259.104,137,260,137.895,260,139z M132,180h88.857c1.104,0,2-0.896,2-2v-11c0-1.105-0.896-2-2-2H132c-1.104,0-2,0.895-2,2v11
	C130,179.104,130.896,180,132,180z M238,227H132c-1.104,0-2,0.895-2,2v11c0,1.104,0.896,2,2,2h106c1.104,0,2-0.896,2-2v-11
	C240,227.895,239.104,227,238,227z M378,227H272c-1.104,0-2,0.895-2,2v11c0,1.104,0.896,2,2,2h106c1.104,0,2-0.896,2-2v-11
	C380,227.895,379.104,227,378,227z M238,255H132c-1.104,0-2,0.895-2,2v11c0,1.104,0.896,2,2,2h106c1.104,0,2-0.896,2-2v-11
	C240,255.895,239.104,255,238,255z M378,255H272c-1.104,0-2,0.895-2,2v11c0,1.104,0.896,2,2,2h106c1.104,0,2-0.896,2-2v-11
	C380,255.895,379.104,255,378,255z M238,285H132c-1.104,0-2,0.895-2,2v11c0,1.104,0.896,2,2,2h106c1.104,0,2-0.896,2-2v-11
	C240,285.895,239.104,285,238,285z M272,300h86c1.104,0,2-0.896,2-2v-11c0-1.105-0.896-2-2-2h-86c-1.104,0-2,0.895-2,2v11
	C270,299.104,270.896,300,272,300z M132,330h56c1.104,0,2-0.896,2-2v-11c0-1.105-0.896-2-2-2h-56c-1.104,0-2,0.895-2,2v11
	C130,329.104,130.896,330,132,330z M378,315H272c-1.104,0-2,0.895-2,2v11c0,1.104,0.896,2,2,2h106c1.104,0,2-0.896,2-2v-11
	C380,315.895,379.104,315,378,315z M238,345H132c-1.104,0-2,0.895-2,2v11c0,1.104,0.896,2,2,2h106c1.104,0,2-0.896,2-2v-11
	C240,345.895,239.104,345,238,345z M378,345H272c-1.104,0-2,0.895-2,2v11c0,1.104,0.896,2,2,2h106c1.104,0,2-0.896,2-2v-11
	C380,345.895,379.104,345,378,345z M238,375H132c-1.104,0-2,0.895-2,2v11c0,1.104,0.896,2,2,2h106c1.104,0,2-0.896,2-2v-11
	C240,375.895,239.104,375,238,375z M272,390h86c1.104,0,2-0.896,2-2v-11c0-1.105-0.896-2-2-2h-86c-1.104,0-2,0.895-2,2v11
	C270,389.104,270.896,390,272,390z M238,405H132c-1.104,0-2,0.895-2,2v11c0,1.104,0.896,2,2,2h106c1.104,0,2-0.896,2-2v-11
	C240,405.895,239.104,405,238,405z M378,405H272c-1.104,0-2,0.895-2,2v11c0,1.104,0.896,2,2,2h106c1.104,0,2-0.896,2-2v-11
	C380,405.895,379.104,405,378,405z"/>
<path style="fill:#EA4444;" d="M450,80v120l-55-30l-55,30V80c0-16.569-13.431-30-30-30h30h80C436.569,50,450,63.431,450,80z"/>
<g>
</g>
<g>
</g>
<g>
</g>
<g>
</g>
<g>
</g>
<g>
</g>
<g>
</g>
<g>
</g>
<g>
</g>
<g>
</g>
<g>
</g>
<g>
</g>
<g>
</g>
<g>
</g>
<g>
</g>
</svg>
