<svg id="Capa_1" enable-background="new 0 0 512 512" height="512" viewBox="0 0 512 512" width="512" xmlns="http://www.w3.org/2000/svg"><g><g><path d="m256 317.684c-141.387 0-243.753-151.258-222.327-188.685 44.119-77.07 127.157-128.999 222.327-128.999s178.208 51.929 222.328 128.999c21.425 37.427-80.941 188.685-222.328 188.685z" fill="#b196e7"/><path d="m512 256c0 26.051-3.891 51.191-11.129 74.871-5.031 16.469-11.672 32.231-19.75 47.109-8.25 15.2-147.391 32.555-225.121 32.555s-216.871-17.355-225.109-32.555c-3.289-6.031-6.332-12.21-9.121-18.531-14-31.629-21.77-66.629-21.77-103.449 0-46.219 12.25-89.57 33.68-127 44.121 77.07 127.16 129 222.32 129s178.211-51.93 222.32-129c21.43 37.43 33.68 80.781 33.68 127zm0 0" fill="#8d69db"/><path d="m481.262 377.699c-7.16 13.223-150.681 130.858-212.106 133.969-4.358.22-8.744.332-13.156.332-4.426 0-8.825-.112-13.195-.334-61.409-3.119-204.907-120.744-212.066-133.967zm0 0" fill="#5541b6"/></g><g><path d="m269.212 272.413v-39.638h-13.212-13.212v39.638h-158.551v118.913h26.425v-92.488h145.338 145.338v92.488h26.425v-118.913z" fill="#8ab8ec"/><path d="m401.338 391.326h26.425v-118.913h-158.551v-39.638h-13.212v66.063h145.338z" fill="#728ee4"/><path d="m103 325.263h-72.494v52.021c7.745 14.37 16.827 27.912 27.073 40.466h158.783l26.425-13.212v-52.85h-113.362z" fill="#e38d22"/><path d="m242.788 511.665v-107.127h-195.309c44.029 61.697 114.752 103.031 195.309 107.127z" fill="#f3d37a"/><path d="m136.647 482.513c31.976 16.883 67.949 27.21 106.141 29.152v-107.127h-106.141z" fill="#efc142"/><path d="m481.494 351.688h-114.244l-26.425-26.425h-71.613v79.275l26.425 13.212h158.55l.382-.185c10.185-12.503 19.217-25.981 26.924-40.281v-25.596z" fill="#da5f2a"/><path d="m269.212 511.665c80.556-4.096 151.28-45.429 195.308-107.127h-195.308z" fill="#e38d22"/><path d="m424.395 144.688c-3.058-3.419-75.998-83.675-168.395-83.675-92.41 0-165.337 80.256-168.395 83.675l-7.884 8.813 7.884 8.813c3.058 3.419 75.985 83.675 168.395 83.675 92.397 0 165.337-80.256 168.395-83.675l7.896-8.813z" fill="#f2f2fb"/><path d="m424.395 162.313 7.896-8.813-7.896-8.813c-3.058-3.419-75.998-83.675-168.395-83.675v184.975c92.397.001 165.337-80.255 168.395-83.674z" fill="#fbf5eb"/><circle cx="256" cy="153.5" fill="#8ab8ec" r="66.063"/><path d="m322.063 153.5c0-36.425-29.638-66.063-66.063-66.063v132.125c36.425.001 66.063-29.637 66.063-66.062z" fill="#728ee4"/><path d="m256 140.288h-13.212v26.425h13.212 13.212v-26.425z" fill="#535564"/><path d="m256 140.288h13.212v26.425h-13.212z" fill="#3b3b3b"/></g></g></svg>