<svg id="Capa_1" enable-background="new 0 0 512 512" height="512" viewBox="0 0 512 512" width="512" xmlns="http://www.w3.org/2000/svg"><g><g><g><g><g><g><g><g><circle cx="256" cy="256" fill="#1dd882" r="256"/></g></g></g></g></g></g></g><path d="m512 256c0-23.094-3.058-45.474-8.792-66.757l-95.97-95.97-293.286 45.572-11.167 45.572 104.514 104.514-41.383 136.759 86.282 86.282c1.265.018 2.532.028 3.802.028 141.385 0 256-114.615 256-256z" fill="#28bc75"/><path d="m407.238 93.273h-234.227c-32.11 0-62.298 12.504-85.003 35.209l-20.579 20.579 35.355 35.355 20.579-20.579c12.953-12.953 30.075-20.222 48.34-20.553v176.824c0 18.754-7.303 36.386-20.564 49.647l-20.579 20.579 35.355 35.355 20.579-20.579c22.705-22.705 35.209-52.893 35.209-85.002v-176.835h185.534v-50z" fill="#636978"/><path d="m407.238 143.273v-50h-151.118v50h23.602v211.744c0 35.061 28.523 63.584 63.584 63.584s63.584-28.523 63.584-63.584v-21.436h-50v21.436c0 7.49-6.094 13.584-13.584 13.584s-13.584-6.094-13.584-13.584v-211.744z" fill="#414952"/></g></svg>