<svg id="Layer_1" enable-background="new 0 0 508.23 508.23" height="512" viewBox="0 0 508.23 508.23" width="512" xmlns="http://www.w3.org/2000/svg"><g><g><path d="m508.23 254.115c0 40.473-9.505 78.727-26.404 112.65-41.436 83.177-127.328 121.655-226.565 121.655-139.711 0-239.373-103.284-239.373-242.995 0-28.788-8.787-47.763.071-73.545 34.13-99.342 128.379-170.734 239.302-170.734 139.711 0 252.969 113.258 252.969 252.969z" fill="#2d56a1"/></g><path d="m490.671 238.357-5.211-15.529c-2.753-8.202-4.17-16.794-4.198-25.446-.17-52.621-30.784-98.021-75.108-119.593-8.499-4.136-13.82-12.837-13.82-22.289 0-8.951-4.795-17.233-12.584-21.644-11.037-6.251-22.591-11.694-34.582-16.255-2.67-1.016-5.517-1.488-8.37-1.337-4.591.243-8.962 2.047-12.389 5.112l-12.234 10.946c-5.129 4.589-8.06 11.145-8.06 18.027v21.385c-21.836 7.572-40.808 20.559-55.539 36.945-44.853 49.784-32.026 104.387-34.045 120.771l.004 1.344h.082c-.164 5.501-.014 5.455.234 94.78.019 6.741-8.138 10.127-12.894 5.35l-.115-.115c-1.409-1.416-2.201-3.332-2.201-5.329v-57.604c0-8.333-4.497-15.598-11.183-19.556h1.082v-40.619c0-7.031-5.7-12.731-12.731-12.731h-33.611c-.297 0-.593.01-.887.031-5.908.409-11.242-3.553-12.016-9.424-.082-.618-.161-1.237-.238-1.856-7.718-62.046-93.78-70.972-114.097-11.841-8.848 25.747-13.656 53.373-13.669 82.12-.062 139.76 113.217 253.088 252.977 253.084 55.443-.002 106.718-17.842 148.401-48.093l36.306-57.918 30.601-14.151c4.038-6.531 7.791-13.257 11.232-20.165l-.373-115.386c-.01-3.005 2.161-5.576 5.124-6.077h.001c3.201-.574 5.145-3.855 4.111-6.937zm-160.968-199.391 37.041-.824v27.591c-8.599-1.219-17.566-1.628-26.547-1.128-5.703.317-10.494-4.236-10.494-9.948z" fill="#1a396b"/><g><path d="m318.452 92.32h-25.589v-40.519l25.589-22.894z" fill="#f8e000"/><path d="m355.494 90.359h25.588v-40.519l-25.588-22.894z" fill="#f8e000"/><path d="m470.073 228.734-.062-19.085c-.238-73.684-60.164-133.223-133.848-132.985-19.009.061-37.071 4.104-53.414 11.322v140.749h187.324z" fill="#ff5551"/><path d="m438.643 148.139c-23.571-32.121-58.975-49.1-102.388-49.1-2.861 0-5.682.069-8.462.207-6.26.311-8.274-8.261-2.561-10.839.193-.087.387-.174.58-.26 5.879-2.618 3.55-11.472-2.852-10.818-66.21 6.758-120.01 62.691-119.782 133.182l.101 31.206h43.426l-.101-31.206c-.057-17.709 3.34-34.621 9.556-50.1 13.028-32.441 44.572-53.84 79.531-53.956.188-.001.376-.001.564-.001 92.428-.001 125.477 78.058 125.693 144.903l7.414-.024c-.129-39.725-11.039-76.373-30.719-103.194z" fill="#e20a62"/><g><path d="m203.982 245.835c-.157-48.458 15.172-91.718 42.055-118.688 22.794-22.868 53.148-34.463 90.218-34.463 43.413 0 78.817 16.978 102.388 49.1 19.681 26.821 30.591 63.469 30.719 103.194l-7.414.024c-.216-66.845-33.265-144.904-125.693-144.903-35.028 0-63.615 10.862-84.967 32.283-25.503 25.585-40.043 66.929-39.892 113.43z" fill="#ff8500"/></g><path d="m256.545 437.358h173.065c15.71-14.951 29.512-31.888 40.974-50.431l-.453-140.187c-.238-73.684-60.164-133.223-133.848-132.985-29.938.097-57.541 10.047-79.748 26.77 0 .063.01.125.01.188z" fill="#f8e000"/><path d="m302.188 434.697c-9.587.031-17.384-7.716-17.415-17.303l-.112-34.575c-.031-9.587 7.716-17.384 17.303-17.415l117.151-.379c7.275-.024 13.153-5.94 13.13-13.215l-.058-17.892c-.024-7.275-5.94-13.153-13.215-13.13l-134.51.435-.135-41.656c-.054-16.54 13.34-29.977 29.88-29.977h102.25v-28.395c0-8.802-7.135-15.937-15.937-15.937h-83.032c-17.789 0-29.88-18.122-22.993-34.524.142-.338.285-.675.429-1.011 9.945-23.147-17.273-44.546-37.542-29.818-34.101 25.271-54.222 65.016-54.084 107.7l.629 194.666c.03 9.222 7.462 17.184 17.164 17.291.085.001.167.012.252.012l182.32-.59c10.334-7.499 20.071-15.768 29.142-24.708z" fill="#ffc305"/><path d="m475.311 257.559-3.979.712c-3.203.573-6.167-1.836-6.261-5.089l-1.422-49.553 15.771 46.994c1.035 3.082-.909 6.364-4.109 6.936z" fill="#ff8500"/><path d="m432.214 413.17-.053-87.495c-.024-7.275-5.94-13.154-13.215-13.13l-129.141.418v100.207z" fill="#ff5551"/><path d="m432.211 408.727-124.189.402c-7.275.023-13.192-5.855-13.215-13.13l-.026-42.751c-.005-8.465 6.841-15.338 15.306-15.365l72.127-.234c10.925-.035 19.779 8.854 19.699 19.779l-.11 15.124c-.024 3.254 2.852 5.768 6.074 5.311l4.002-.568c3.218-.457 5.28-3.667 4.357-6.784l-8.999-30.397c-.376-1.271.574-2.547 1.899-2.552 1.098-.004 1.984-.896 1.981-1.994l.006-4.667-97.554.785c-10.375.034-18.806-8.365-18.812-18.74l-36.581.118c-7.275.024-13.154 5.94-13.13 13.216l.058 95.211c.024 7.275 5.94 13.154 13.215 13.13l160.77-.52c7.275-.024 13.154-5.94 13.13-13.215z" fill="#e20a62"/><path d="m405.626 328.321c-.68.237-1.407.426-2.2.539-.474.067-.904.045-1.351.057l-.271 37.28c-.023 3.254 2.852 5.768 6.074 5.311l4.001-.568c3.218-.457 5.28-3.666 4.357-6.784z" fill="#f8e000"/><g><path d="m262.747 325.255h148.366v6.185h-148.366z" fill="#f8e000" transform="matrix(1 -.003 .003 1 -1.063 1.095)"/></g><path d="m292.863 51.801 88.219-1.961-25.588-22.894-37.042 1.961z" fill="#ffc305"/><path d="m400.52 192.546h-110.716v44.332h126.653v-28.395c0-8.802-7.136-15.937-15.937-15.937z" fill="#2d56a1"/><path d="m309.87 192.546h-36.012c-8.802 0-15.937 7.135-15.937 15.937v28.395h36.012v-28.395c0-8.802 7.135-15.937 15.937-15.937z" fill="#1a396b"/></g><g><path d="m188.39 438.366v-158.223c0-12.555-10.178-22.733-22.733-22.733h-27.03v180.957h49.763z" fill="#6ee1ff"/><path d="m188.39 435.242c-25.341 0-45.884-20.543-45.884-45.884v-131.949h-10.658c-12.555 0-22.733 10.178-22.733 22.733v169.408c0 5.3 4.297 9.597 9.597 9.597h60.082c5.3 0 9.597-4.297 9.597-9.597z" fill="#05cdff"/><path d="m165.558 207.236h-30.962v53.351h43.694v-40.619c-.001-7.032-5.701-12.732-12.732-12.732z" fill="#fff"/><path d="m149.953 207.236h-18.006c-7.031 0-12.731 5.7-12.731 12.731v40.619h18.006v-40.619c0-7.031 5.7-12.731 12.731-12.731z" fill="#6ee1ff"/></g><path d="m26.893 303.982h65.861v139.88h-65.861z" fill="#ff8500"/><path d="m25.748 296.931h64.387l-14.328-38.575h-50.059z" fill="#fa690f"/><path d="m29.108 245.425h46.705v12.931h-46.705z" fill="#ff8500"/><path d="m30.755 245.425h-14.868v12.931h59.926v-3.071h-35.197c-5.446 0-9.861-4.415-9.861-9.86z" fill="#fa690f"/><path d="m61.999 282.563h-31.244v-16.091c0-2.245 1.82-4.066 4.066-4.066h23.112c2.245 0 4.066 1.82 4.066 4.066z" fill="#f8e000"/><path d="m89.212 294.445h-56.452c-1.993 0-3.391-1.967-2.736-3.849.405-1.164 1.503-1.944 2.736-1.944h25.488c3.216 0 5.823-2.607 5.823-5.823h-31.342l8.522-24.473h-25.363l-15.888 45.626h92.754z" fill="#e20a62"/><path d="m59.663 275.231v-5.602c0-.742-.602-1.344-1.344-1.344-.742 0-1.344.602-1.344 1.344v5.828c0 1.165-.944 2.109-2.109 2.109-1.165 0-2.109-.944-2.109-2.109v-5.828c0-.742-.602-1.344-1.344-1.344-.742 0-1.344.602-1.344 1.344v5.828c0 1.165-.944 2.109-2.109 2.109-1.165 0-2.109-.944-2.109-2.109v-5.828c0-.742-.602-1.344-1.344-1.344-.742 0-1.344.602-1.344 1.344v7.109c0 .458-.371.829-.829.829-.458 0-.829-.371-.829-.829v-14.332h-6.685c-2.245 0-4.066 1.82-4.066 4.066v16.091h31.243v-4.996c-1.288-.001-2.334-1.046-2.334-2.336z" fill="#ffc305"/><path d="m28.684 279.651h35.387v5.823h-35.387z" fill="#ff8500"/><g fill="#fa690f"><path d="m49.189 436.073c-10.181 0-18.434-8.253-18.434-18.434v-14.782c0-4.221 1.188-8.275 2.14-12.387.023-.101.036-.208.036-.319v-23.418c0-1.796-.978-2.658-2.176-2.92v-59.83h-30.755v155.59h92.754v-23.499h-43.565z"/><path d="m40.125 392.008c1.509 0 3.019-.62 3.019-1.858v-24.618c0-1.277-1.51-1.819-3.019-1.819-1.51 0-3.019.542-3.019 1.819v24.618c0 1.239 1.509 1.858 3.019 1.858z"/><path d="m49.954 392.008h12.232c1.161 0 1.742-1.316 1.742-2.632s-.581-2.632-1.742-2.632h-8.825v-21.211c0-1.277-1.51-1.819-3.019-1.819-1.51 0-3.019.542-3.019 1.819v24.618c-.001 1.238 1.315 1.857 2.631 1.857z"/><path d="m69.382 392.008c1.509 0 3.019-.62 3.019-1.858v-7.006l1.625-2.09 6.619 10.064c.504.812 1.277 1.122 2.09 1.122 1.742 0 3.639-1.51 3.639-3.019 0-.348-.116-.697-.309-1.006l-8.013-12.27 6.348-7.974c.31-.426.388-.852.388-1.161 0-1.51-2.013-3.097-3.561-3.097-.62 0-1.162.232-1.588.852l-7.237 10.257v-9.289c0-1.277-1.51-1.819-3.019-1.819-1.51 0-3.019.542-3.019 1.819v24.618c-.001 1.238 1.508 1.857 3.018 1.857z"/></g><g fill="#fff"><path d="m23.177 376.687c-.503.852-1.277 1.123-2.013 1.123-.696 0-1.432-.232-1.896-1.123l-3.677-6.735v14.902c0 1.238-1.51 1.858-3.019 1.858-1.51 0-3.019-.62-3.019-1.858v-23.418c0-2.206 1.509-3.019 3.019-3.019 2.167 0 3.096.232 4.684 3.019l3.986 6.967 3.987-6.967c1.587-2.787 2.516-3.019 4.684-3.019 1.548 0 3.019.813 3.019 3.019v23.418c0 1.238-1.51 1.858-3.019 1.858-1.51 0-3.019-.62-3.019-1.858v-14.516z"/><path d="m37.106 360.237c0-1.277 1.509-1.819 3.019-1.819 1.509 0 3.019.542 3.019 1.819v24.618c0 1.238-1.51 1.858-3.019 1.858-1.51 0-3.019-.62-3.019-1.858z"/><path d="m49.954 386.712c-1.316 0-2.631-.62-2.631-1.858v-24.618c0-1.277 1.509-1.819 3.019-1.819 1.509 0 3.019.542 3.019 1.819v21.211h8.825c1.161 0 1.742 1.316 1.742 2.632s-.581 2.632-1.742 2.632h-12.232z"/><path d="m66.363 360.237c0-1.277 1.509-1.819 3.019-1.819 1.509 0 3.019.542 3.019 1.819v9.289l7.237-10.257c.426-.62.968-.852 1.588-.852 1.548 0 3.561 1.587 3.561 3.097 0 .309-.078.735-.388 1.161l-6.348 7.974 8.013 12.27c.193.31.309.658.309 1.006 0 1.51-1.897 3.019-3.639 3.019-.813 0-1.587-.31-2.09-1.122l-6.619-10.064-1.625 2.09v7.006c0 1.238-1.51 1.858-3.019 1.858-1.51 0-3.019-.62-3.019-1.858v-24.617z"/></g></g></svg>