<svg id="Capa_1" enable-background="new 0 0 512 512" height="512" viewBox="0 0 512 512" width="512" xmlns="http://www.w3.org/2000/svg"><g><g><path d="m0 256c0 43.79 11 85.02 30.39 121.07l225.61 49.67 225.61-49.67c19.39-36.05 30.39-77.28 30.39-121.07 0-46.63-12.47-90.34-34.26-128-41.698 72.091-399.22 76.52-443.48 0-21.79 37.66-34.26 81.37-34.26 128z" fill="#eec036"/><path d="m34.26 128c44.26 76.52 126.99 128 221.74 128s177.48-51.48 221.74-128c-.01-.02-.03-.05-.04-.07-44.27-76.48-126.98-127.93-221.7-127.93s-177.43 51.45-221.7 127.93c-.01.02-.03.05-.04.07z" fill="#f5dd6e"/><path d="m481.61 377.07c-29.45 54.77-78.27 97.59-137.29 119.28-27.53 10.13-57.28-19.66-88.32-19.66-3.87 0-7.72-.09-11.55-.27-33.48-1.48-65.29 25.91-94.23 12.76-51.17-23.24-93.33-62.84-119.83-112.11z" fill="#de8051"/></g><g><path d="m424.844 303.334-142.519 82.284 18.137 31.414 81.374-23.623 61.145-58.661z" fill="#9febff"/><path d="m424.844 303.334-71.26 41.142 18.137 31.414 37.244 5.182 34.016-46.324z" fill="#70c5e9"/><path d="m254.993 385.119h213.921v46.41h-213.921z" fill="#616578" transform="matrix(.866 -.5 .5 .866 -155.67 235.682)"/><path d="m377.812 352.21h82.284v46.41h-82.284z" fill="#464652" transform="matrix(.866 -.5 .5 .866 -131.578 259.773)"/><path d="m344.32 496.35c-27.53 10.13-57.28 15.65-88.32 15.65-3.87 0-7.72-.09-11.55-.27-33.48-1.48-65.29-9.4-94.23-22.55l32.92-55.38h122.62l17.91 23.42z" fill="#616578"/><path d="m344.32 496.35c-27.53 10.13-57.28 15.65-88.32 15.65-3.87 0-7.72-.09-11.55-.27v-77.93h61.31l17.91 23.42z" fill="#464652"/><path d="m323.67 457.22c-24.93 14.39-52.41 20.51-79.22 19.2-47.56-2.32-93.03-27.98-118.55-72.19-39.92-69.13-16.15-157.85 52.99-197.77l23.2 40.19c-46.97 27.12-63.12 87.4-36 134.38 16.95 29.35 46.85 46.67 78.36 48.91 18.91 1.35 38.39-2.74 56.01-12.91z" fill="#e8ebf7"/><path d="m249.529 261.882h29.729v53.492h-29.729z" fill="#9febff" transform="matrix(-.866 .5 -.5 -.866 637.679 406.391)"/><path d="m263.398 258.166h14.865v53.492h-14.865z" fill="#70c5e9" transform="matrix(-.866 .5 -.5 -.866 647.832 396.238)"/><path d="m290.529 238.21h29.729v53.492h-29.729z" fill="#9febff" transform="matrix(-.866 .5 -.5 -.866 702.351 341.719)"/><path d="m304.398 234.494h14.865v53.492h-14.865z" fill="#70c5e9" transform="matrix(-.866 .5 -.5 -.866 712.504 331.566)"/><path d="m153.879 72.201h47.642v102.16h-47.642z" fill="#daddee" transform="matrix(.866 -.5 .5 .866 -37.833 105.367)"/><path d="m176.105 66.246h23.821v102.16h-23.821z" fill="#c8cde4" transform="matrix(.866 -.5 .5 .866 -33.474 109.726)"/><path d="m173.312 96.925h90.986v195.103h-90.986z" fill="#e8ebf7" transform="matrix(.866 -.5 .5 .866 -67.924 135.458)"/><path d="m215.758 85.552h45.493v195.103h-45.493z" fill="#daddee" transform="matrix(.866 -.5 .5 .866 -59.598 143.783)"/><path d="m183.458 53.757c1.982 3.432 2.392 7.354 1.432 10.909-.959 3.555-3.263 6.75-6.703 8.736l-43.93 25.363c-6.873 3.968-15.672 1.61-19.64-5.263-1.986-3.44-2.392-7.354-1.437-10.917.947-3.558 3.255-6.745 6.695-8.731l43.93-25.363c6.881-3.972 15.68-1.615 19.653 5.266z" fill="#616578"/><path d="m209.946 233.644h136.868v36.274h-136.868z" fill="#616578" transform="matrix(.866 -.5 .5 .866 -88.595 172.922)"/><path d="m252.391 222.271h91.375v36.274h-91.375z" fill="#464652" transform="matrix(.866 -.5 .5 .866 -80.269 181.248)"/><path d="m183.458 53.757c1.982 3.432 2.392 7.354 1.432 10.909-.959 3.555-3.263 6.75-6.703 8.736l-20.635 11.913-14.382-24.91 20.635-11.913c6.881-3.973 15.68-1.616 19.653 5.265z" fill="#464652"/><path d="m216.572 207.905c10.173 17.62 4.136 40.152-13.492 50.329-17.62 10.173-40.152 4.136-50.325-13.484-10.178-17.628-4.141-40.16 13.48-50.333 17.628-10.178 40.159-4.14 50.337 13.488z" fill="#616578"/><path d="m216.572 207.905c10.173 17.62 4.136 40.152-13.492 50.329l-36.845-63.817c17.628-10.178 40.159-4.14 50.337 13.488z" fill="#464652"/><circle cx="184.662" cy="226.324" fill="#2d2f40" r="18.273"/><path d="m323.67 457.22c-24.93 14.39-52.41 20.51-79.22 19.2v-46.48c18.91 1.35 38.39-2.74 56.01-12.91z" fill="#daddee"/></g></g></svg>