<?xml version="1.0" encoding="iso-8859-1"?>
<!-- Generator: Adobe Illustrator 19.0.0, SVG Export Plug-In . SVG Version: 6.00 Build 0)  -->
<svg version="1.1" id="Capa_1" xmlns="http://www.w3.org/2000/svg" xmlns:xlink="http://www.w3.org/1999/xlink" x="0px" y="0px"
	 viewBox="0 0 512 512" style="enable-background:new 0 0 512 512;" xml:space="preserve">
<circle style="fill:#FFDC00;" cx="256" cy="256" r="256"/>
<path style="fill:#FFC000;" d="M512,256c0-6.465-0.245-12.872-0.716-19.216L421,146.5l-5.234,10.516L379.25,120.5l-51.88,171.12
	L156.25,120.5L91,365.5l29.312,29.312L119,396.151l114.887,114.888C241.177,511.663,248.549,512,256,512
	C397.385,512,512,397.385,512,256z"/>
<rect x="91" y="146.5" style="fill:#FFFFFF;" width="330" height="219"/>
<rect x="256" y="146.5" style="fill:#E0E0E0;" width="165" height="219"/>
<rect x="91" y="146.5" style="fill:#F1333F;" width="330" height="49.5"/>
<rect x="256" y="146.5" style="fill:#AE283F;" width="165" height="49.5"/>
<rect x="132.75" y="120.5" style="fill:#0074A3;" width="23.5" height="50.75"/>
<rect x="355.75" y="120.5" style="fill:#005C83;" width="23.5" height="50.75"/>
<g>
	<rect x="119" y="218" style="fill:#E0E0E0;" width="51" height="51"/>
	<rect x="119" y="291.5" style="fill:#E0E0E0;" width="51" height="51"/>
	<rect x="193.33" y="218" style="fill:#E0E0E0;" width="51" height="51"/>
	<rect x="193.33" y="291.5" style="fill:#E0E0E0;" width="51" height="51"/>
</g>
<g>
	<rect x="267.67" y="218" style="fill:#C0C0C0;" width="51" height="51"/>
	<rect x="267.67" y="291.5" style="fill:#C0C0C0;" width="51" height="51"/>
	<rect x="342" y="218" style="fill:#C0C0C0;" width="51" height="51"/>
	<rect x="342" y="291.5" style="fill:#C0C0C0;" width="51" height="51"/>
</g>
<circle style="fill:#175D76;" cx="179.75" cy="338.25" r="83.25"/>
<path style="fill:#00263F;" d="M179.75,255c-0.084,0-0.166,0.006-0.25,0.006v166.487c0.084,0,0.166,0.006,0.25,0.006
	c45.978,0,83.25-37.272,83.25-83.25C263,292.272,225.728,255,179.75,255z"/>
<circle style="fill:#B9EAFF;" cx="179.75" cy="338.25" r="65.13"/>
<path style="fill:#35CCFF;" d="M179.75,273.121c-0.084,0-0.166,0.006-0.25,0.006v130.246c0.084,0,0.166,0.006,0.25,0.006
	c35.97,0,65.129-29.159,65.129-65.129S215.72,273.121,179.75,273.121z"/>
<polygon style="fill:#4D4D4D;" points="169.86,372.029 153.398,360.671 169.75,336.973 169.75,290.191 189.75,290.191 
	189.75,343.204 "/>
<polygon style="fill:#333333;" points="189.75,290.191 179.5,290.191 179.5,358.059 189.75,343.204 "/>
<g>
</g>
<g>
</g>
<g>
</g>
<g>
</g>
<g>
</g>
<g>
</g>
<g>
</g>
<g>
</g>
<g>
</g>
<g>
</g>
<g>
</g>
<g>
</g>
<g>
</g>
<g>
</g>
<g>
</g>
</svg>
