<svg id="Layer_1" enable-background="new 0 0 511.997 511.997" height="512" viewBox="0 0 511.997 511.997" width="512" xmlns="http://www.w3.org/2000/svg"><g><path d="m433.294 424.347c41.534-43.898 67.012-103.145 67.012-168.348 0-135.311-109.691-245.003-245.002-245.003s-245.002 109.691-245.002 245.003c0 64.596 25.011 123.341 65.862 167.113z" fill="#1c2e7a"/><path d="m380.377 384.294c-1.155-.874-2.383-1.65-3.57-2.401-7.626-4.816-8.482-6.917-5.035-16.455 1.43-3.959 2.909-8.052 2.071-12.408-1.476-7.674-8.383-10.783-15.063-13.789-6.97-3.137-9.221-4.317-12.787-8.705-3.705-4.557-7.03-7.306-14.793-7.339-10.227-.043-21.453 5.063-26.372-1.343-2.411-3.142-1.982-7.685-1.527-12.496 1.455-15.431-2.52-24.05-3.489-37.401-1.267-17.471 4.873-35.14 16.361-48.253-18.935-6.794-39.324-10.546-60.588-10.635-15.879-.067-31.288 1.911-45.984 5.677-1.781 3.185-3.335 6.518-4.447 10.028-3.446 10.879-1.803 22.112 4.287 29.315 6.981 8.256 19.47 11.723 21.32 20.71 1.046 5.084-1.764 10.064-4.738 15.338-3.007 5.33-6.116 10.841-5.703 17.163.533 8.161 6.466 13.667 12.203 18.99 13.752 12.763 9.72 14.509 12.253 21.355 2.945 7.954 12.279 10.752 15.272 16.845 6.403 13.04-18.228 40.651-58.966 44.82-6.299.624-12.817 1.119-17.667 5.283-4.993 4.284-3.151 6.532-15.631 10.152-3.089.896-6.283 1.823-9.216 3.46-13.952 7.796-14.048 31.159-.141 39.061 8.635 4.907 20.917 4.869 23.193 12.604.671 2.28.42 3.809.539 6.021 23.1 7.216 47.667 11.108 73.145 11.108 33.3 0 65.043-6.656 93.986-18.69.248-8.181-3.219-15.916-5.04-23.406-1.707-7.022-1.49-16.626 4.74-20.586 3.831-2.437 9.092-2.233 14.26-3.115 11.492-1.962 21.431-9.792 25.323-19.949 4.189-10.937.666-24.247-8.196-30.959z" fill="#73c3f9"/><path d="m269.19 456.55c-26.363-10.022-28.446-29.603-26.018-43.433.825-4.699-.277-9.352-2.805-13.05-10.088 6.464-23.464 11.625-39.286 13.244-6.299.624-12.817 1.119-17.667 5.283-4.992 4.284-3.151 6.532-15.631 10.152-3.09.896-6.284 1.823-9.216 3.46-13.952 7.796-14.048 31.159-.141 39.061 8.635 4.907 20.917 4.869 23.192 12.604.671 2.28.42 3.81.54 6.022 23.1 7.216 47.667 11.108 73.145 11.108 12.605 0 24.985-.957 37.077-2.796-.136-15.428 1.392-32.31-23.19-41.655z" fill="#4fabf7"/><path d="m247.118 350.778c-.824-2.227-.893-4.657-1.472-6.959-3.313-13.174-21.949-19.126-22.833-32.681-.764-11.692 12.757-21.366 10.395-32.842-2.12-10.301-15.067-13.788-21.859-21.819-6.116-7.232-6.674-17.918-3.813-26.947 1.297-4.093 3.196-7.925 5.411-11.6-79.841 18.841-139.42 90.38-139.782 176.025-.041 9.574.676 18.973 2.065 28.152 29.344 31.796 66.999 55.796 109.521 68.563-.007-.064-.021-.127-.027-.191-.233-2.444-.013-4.959-.707-7.314-2.751-9.347-15.884-9.257-24.356-14.071-12.212-6.939-12.136-27.858.126-34.708 6.434-3.594 14.763-3.597 20.217-8.553 1.814-1.648 3.179-3.749 5.038-5.346 4.362-3.744 10.575-4.108 16.293-4.693 21.522-2.202 43.404-10.89 56.447-28.15 4.396-5.817 7.721-13.711 4.508-20.257-3.343-6.808-12.538-9.494-15.172-16.609z" fill="#4fabf7"/><path d="m231.849 393.508c-58.054-20.548-14.25-83.672-47.588-101.628-24.98-13.454-23.217-39.831-19.775-54.773-54.332 31.202-91.037 89.686-91.321 156.85-.041 9.574.676 18.973 2.065 28.152 29.344 31.796 66.999 55.796 109.52 68.563-.007-.064-.021-.127-.027-.191-.233-2.444-.013-4.959-.707-7.314-2.751-9.347-15.884-9.257-24.355-14.071-12.212-6.939-12.136-27.858.126-34.708 6.433-3.594 14.763-3.597 20.217-8.553 1.814-1.648 3.179-3.749 5.038-5.346 4.362-3.744 10.574-4.108 16.293-4.693 14.181-1.451 28.501-5.741 40.363-13.419-1.931-4.025-5.372-7.284-9.849-8.869z" fill="#1e9ef4"/><path d="m313.66 222.813c-11.475 13.532-17.626 31.6-16.34 49.327.828 11.414 4.527 22.643 3.744 34.06-.404 5.89-1.814 12.493 1.782 17.177 8.069 10.509 27.136-3.037 37.662 5.01 2.298 1.757 3.807 4.342 5.864 6.377 7.661 7.58 22.981 8.156 25.017 18.739 1.527 7.938-6.501 16.089-3.306 23.514 1.902 4.42 6.948 6.364 10.784 9.269 8.275 6.266 11.085 18.382 7.372 28.075-3.712 9.693-13.178 16.633-23.409 18.38-5.161.881-10.763.66-15.181 3.469-7.219 4.59-7.848 14.972-5.826 23.285 1.93 7.934 5.536 15.785 4.912 23.86 33.455-13.467 63.248-34.101 87.487-60.005 1.438-9.079 2.208-18.382 2.248-27.859.338-80-51.09-148.138-122.81-172.678z" fill="#4fabf7"/><ellipse cx="377.189" cy="315.108" fill="#ffdd40" rx="26.763" ry="26.762" transform="matrix(.233 -.972 .972 .233 -17.238 608.352)"/><path d="m386.039 340.367c-14.126-6.442-5.581-18.516-5.581-18.516l-4.615-12.676c-13.233-2.684-12.969-12.418-11.94-17.295-8.016 4.594-13.436 13.212-13.477 23.115-.063 14.78 11.869 26.813 26.649 26.875 3.143.013 6.159-.52 8.964-1.503z" fill="#ffb332"/><g><path d="m370.445 318.378c-1.806-3.724-.251-8.207 3.473-10.013l41.987-20.361.23-54.442c.017-4.139 3.387-7.48 7.526-7.463 4.139.018 7.48 3.387 7.463 7.526l-.25 59.115c-.012 2.86-1.651 5.464-4.224 6.712l-46.191 22.4c-3.724 1.805-8.208.251-10.014-3.474z" fill="#e9efff"/></g><ellipse cx="133.124" cy="314.077" fill="#49d88b" rx="26.763" ry="26.763" transform="matrix(.932 -.363 .363 .932 -104.95 69.767)"/><path d="m144.099 338.484c-13.191-5.896-6.591-18.331-6.591-18.331l-1.747-8.603c-13.834-8.5-5.593-24.068-5.593-24.068-13.341 1.467-23.748 12.74-23.806 26.482-.063 14.78 11.869 26.813 26.649 26.875 3.952.017 7.705-.831 11.088-2.355z" fill="#38c674"/><g><path d="m129.797 320.792-46-22.789c-2.563-1.27-4.18-3.887-4.168-6.747l.25-59.115c.018-4.139 3.387-7.48 7.526-7.463 4.139.018 7.48 3.387 7.463 7.526l-.23 54.442 41.813 20.715c3.709 1.838 5.226 6.334 3.389 10.042-1.835 3.702-6.326 5.23-10.043 3.389z" fill="#e9efff"/></g><g><path d="m207.04 167.222-11.769-.05c-4.139-.017-7.48-3.387-7.463-7.526s3.387-7.48 7.526-7.463l11.769.05c4.139.017 7.48 3.387 7.463 7.526s-3.387 7.48-7.526 7.463z" fill="#3c58a0"/></g><g><path d="m243.455 167.376-11.769-.05c-4.139-.018-7.48-3.387-7.463-7.526s3.387-7.48 7.526-7.463l11.769.05c4.139.018 7.48 3.387 7.463 7.526-.018 4.139-3.387 7.48-7.526 7.463z" fill="#3c58a0"/></g><g><path d="m279.87 167.529-11.769-.05c-4.139-.018-7.48-3.386-7.463-7.526s3.387-7.48 7.526-7.463l11.77.05c4.139.018 7.48 3.387 7.463 7.526-.019 4.14-3.388 7.481-7.527 7.463z" fill="#3c58a0"/></g><g><path d="m316.284 167.683-11.77-.05c-4.139-.017-7.48-3.387-7.463-7.526.017-4.14 3.387-7.48 7.526-7.463l11.769.05c4.139.017 7.48 3.387 7.463 7.526-.016 4.14-3.386 7.481-7.525 7.463z" fill="#3c58a0"/></g><ellipse cx="424.316" cy="160.645" fill="#ffc839" rx="80.187" ry="80.187" transform="matrix(.707 -.707 .707 .707 10.686 347.089)"/><path d="m480.561 217.788c-1.928-1.761-2.418-4.212-2.473-6.019-.038-1.24-1.143-2.176-2.378-2.057-15.34 1.487-46.127-5.819-53.597-7.672-.978-.243-1.658-1.122-1.654-2.13l.34-80.512c.003-.632-.276-1.225-.743-1.651-8.505-7.762-5.561-15.417-3.44-18.89.613-1.004.266-2.272-.696-2.949-2.384-1.68-2.084-4.141-1.507-5.777.344-.976-.018-2.066-.905-2.599-2.786-1.676-3.888-3.7-4.105-5.674-37.022 6.966-65.109 39.375-65.274 78.446-.187 44.286 35.562 80.338 79.847 80.525 22.037.095 42.03-8.714 56.585-23.041z" fill="#ffb332"/><path d="m475.256 208.507c-.166-.028.104.021-.554-.084l-.016.009c-5.264-.782-13.357 1.032-21.411-3.708-3.625 5.408-7.878 9.645-11.839 12.694-4.969 3.825-11.09 5.888-17.385 5.862-6.295-.027-12.398-2.141-17.335-6.008-3.933-3.081-8.147-7.35-11.725-12.784-7.844 4.552-15.54 2.791-20.997 3.462-.001-.001-.002-.003-.003-.004-.65.085-.728.082-1.018.129l.048.044c-3.673.64-7.018 2.182-9.862 4.359 14.634 17.25 36.423 28.25 60.817 28.353 24.4.103 46.285-10.717 61.065-27.85-2.822-2.203-6.15-3.776-9.814-4.449z" fill="#e9efff"/><path d="m406.717 217.272c-3.933-3.081-8.147-7.35-11.725-12.784-7.844 4.552-15.54 2.791-20.997 3.462-.001-.001-.002-.003-.003-.004-.65.085-.728.082-1.018.129l.048.044c-3.673.64-7.018 2.182-9.862 4.359 5.162 6.084 11.217 11.386 17.959 15.712 3.515-.667 7.532-1.294 12.133-1.834 7.603-.891 13.38-3.321 17.764-6.324-1.505-.789-2.948-1.702-4.299-2.76z" fill="#bec8f7"/><path d="m394.046 205.008c3.764 6.144 8.38 10.908 12.663 14.263 4.937 3.867 11.04 5.982 17.335 6.008 6.295.027 12.416-2.037 17.385-5.862 4.314-3.321 8.974-8.049 12.791-14.167-2.219-1.169-4.443-2.805-6.612-5.107l.011-.013c-3.673-3.894-4.592-7.013-7.279-11.748-9.979 5.174-22.065 5.269-32.279-.136-2.866 4.952-3.739 7.893-7.377 11.686l.011.013c-2.205 2.298-4.436 3.916-6.649 5.063z" fill="#fcad6d"/><path d="m421.797 192.18c-4.713-.342-9.394-1.636-13.737-3.934-2.866 4.952-3.739 7.893-7.377 11.686l.011.013c-2.203 2.298-4.435 3.917-6.648 5.063 3.764 6.144 8.38 10.908 12.663 14.263.851.667 1.748 1.261 2.663 1.822 12.268-7.396 14.771-19.455 14.771-19.455s-1.014-4.021-2.346-9.458z" fill="#fd995b"/><g><path d="m418.015 96.924c-19.742 2.605-21.664 13.784-21.69 17.888-.005.861-.486 1.656-1.261 2.03-10.284 4.949-4.853 29.035-4.853 29.035 1.03.073 2.572.964 3.375 1.357.202-1.225.529-2.431.988-3.596.35-.888.786-1.784 1.331-2.63.945-1.469 1.38-3.204 1.259-4.941-.348-5.022-.597-14.447 6.042-17.401 5.624-2.502 12.504-1.01 16.889.468 2.848.96 5.937.974 8.793.037 4.397-1.442 11.29-2.875 16.892-.326 6.595 3.001 6.284 12.376 5.898 17.408-.134 1.749.274 3.506 1.214 4.994.555.878.994 1.809 1.342 2.728.432 1.142.738 2.321.925 3.518 1.016-.487 2.937-1.481 4.176-1.301.174-5.261.684-10.931.684-10.931 5.968-28.611-20.747-41.142-42.004-38.337z" fill="#a05838"/></g><path d="m420.095 119.134c.23.078.464.139.697.204-.016-.608-.285-1.177-.736-1.589-8.505-7.762-5.561-15.417-3.44-18.89.338-.553.375-1.184.188-1.754-18.599 2.897-20.454 13.689-20.479 17.707-.005.861-.486 1.656-1.261 2.03-10.284 4.949-4.853 29.035-4.853 29.035 1.03.073 2.573.964 3.375 1.357.202-1.225.529-2.431.988-3.596.35-.888.786-1.784 1.331-2.63.945-1.469 1.38-3.204 1.259-4.941-.348-5.022-.597-14.447 6.042-17.401 5.624-2.503 12.504-1.011 16.889.468z" fill="#823c26"/><path d="m461.083 146.884c-1.531-1.415-4.595-.714-5.922.143.282 1.807.291 3.654.033 5.477l-1.61 11.369c-.004.917-.037 1.817-.094 2.7 3.804 1.165 5.71-2.246 6.039-4.591.141-1.009.37-2.004.685-2.974 1.027-3.16 4.705-8.579.869-12.124z" fill="#fd995b"/><path d="m387.667 146.574c1.543-1.402 4.601-.675 5.921.193-.298 1.804-.322 3.652-.079 5.477l1.514 11.382c-.004.917.021 1.817.071 2.701-3.813 1.133-5.691-2.294-6-4.642-.133-1.011-.353-2.007-.66-2.98-1-3.169-4.632-8.619-.767-12.131z" fill="#fd995b"/><path d="m454.703 143.51c-.348-.919-.787-1.849-1.341-2.728-.94-1.488-1.348-3.245-1.214-4.994.386-5.032.232-14.876-6.363-17.877-5.603-2.549-12.494-1.116-16.892.325-2.856.936-5.946.923-8.794-.037-4.385-1.479-11.264-2.97-16.888-.468-6.639 2.954-6.858 12.845-6.511 17.866.12 1.737-.315 3.472-1.259 4.941-.544.846-.981 1.743-1.331 2.63-1.135 2.879-1.475 6.006-1.068 9.07l1.514 11.385c-.069 16.357 8.616 27.512 16.019 33.312 3.864 3.027 8.642 4.682 13.569 4.703s9.719-1.594 13.608-4.588c7.452-5.736 16.23-16.818 16.299-33.175l1.61-11.369c.429-3.031.127-6.13-.958-8.996z" fill="#f9ba8f"/><g><path d="m426.543 197.002c-5.101-5.789-11.079-16.933-11.01-33.29l-1.03-11.382c-.277-3.064-.038-6.191.749-9.072.242-.888.545-1.785.922-2.632.654-1.47.956-3.206.875-4.943-.22-4.725-.084-13.76 3.754-17.277-.236-.066-.472-.128-.704-.206-4.385-1.479-11.265-2.97-16.888-.468-6.639 2.954-6.858 12.845-6.511 17.866.12 1.737-.314 3.472-1.259 4.941-.545.846-.981 1.743-1.331 2.63-1.135 2.879-1.475 6.006-1.068 9.07l1.514 11.385c-.069 16.357 8.616 27.512 16.019 33.312 3.864 3.027 8.642 4.682 13.569 4.703 2.382.01 4.729-.37 6.961-1.096-1.641-.793-3.187-1.98-4.562-3.541z" fill="#fcad6d"/></g><g><path d="m423.946 248.326c-48.347-.204-87.514-39.704-87.31-88.051s39.704-87.514 88.051-87.31 87.514 39.704 87.31 88.051c-.205 48.347-39.704 87.514-88.051 87.31zm.677-160.373c-40.082-.169-72.83 32.302-72.999 72.385-.169 40.082 32.302 72.83 72.385 72.999 40.082.169 72.829-32.302 72.998-72.385.17-40.082-32.302-72.829-72.384-72.999z" fill="#ffe98d"/></g><path d="m488.442 220.004c-8.768.35-10.255-4.986-10.354-8.235-.018-.605-.294-1.135-.711-1.508-13.345 14.262-32.342 23.164-53.368 23.075-40.082-.169-72.554-32.917-72.385-72.999.155-36.617 27.502-66.866 62.787-71.697-.161-.45-.468-.846-.902-1.107-6.745-4.057-3.634-10.156-1.936-12.646.217-.318.326-.68.358-1.047-42.351 6.015-75.109 42.417-75.295 86.434-.204 48.347 38.963 87.847 87.31 88.051 25.595.108 48.709-10.82 64.827-28.301-.109-.012-.218-.024-.331-.02z" fill="#ffc839"/><ellipse cx="87.681" cy="159.223" fill="#38c674" rx="80.187" ry="80.187" transform="matrix(.707 -.707 .707 .707 -86.907 108.635)"/><path d="m143.926 216.366c-1.928-1.761-2.418-4.212-2.473-6.019-.038-1.24-1.143-2.176-2.378-2.057-15.34 1.487-46.127-5.819-53.598-7.672-.978-.243-1.658-1.122-1.654-2.13l.34-80.511c.003-.632-.276-1.225-.743-1.651-8.505-7.762-5.562-15.417-3.44-18.89.613-1.004.266-2.272-.695-2.949-2.384-1.68-2.084-4.141-1.507-5.777.344-.976-.018-2.066-.905-2.6-2.786-1.676-3.888-3.7-4.105-5.674-37.021 6.969-65.108 39.377-65.273 78.448-.187 44.285 35.562 80.338 79.847 80.525 22.036.093 42.029-8.716 56.584-23.043z" fill="#24b55e"/><path d="m138.621 207.085c-.166-.028.104.021-.554-.084l-.016.009c-5.265-.783-13.357 1.032-21.411-3.708-3.625 5.408-7.878 9.645-11.839 12.694-4.969 3.825-11.09 5.888-17.385 5.862-6.295-.027-12.398-2.142-17.334-6.009-3.933-3.081-8.148-7.35-11.725-12.784-7.844 4.552-15.54 2.791-20.997 3.462-.001-.001-.003-.003-.003-.004-.65.085-.728.082-1.018.129l.048.044c-3.673.64-7.018 2.182-9.862 4.359 14.634 17.25 36.423 28.25 60.817 28.353 24.4.103 46.285-10.717 61.064-27.85-2.822-2.203-6.15-3.776-9.814-4.449z" fill="#e9efff"/><path d="m70.083 215.85c-3.933-3.081-8.148-7.35-11.725-12.784-7.844 4.552-15.54 2.791-20.997 3.462-.001-.001-.003-.003-.003-.004-.65.085-.728.082-1.018.129l.048.044c-3.673.64-7.018 2.182-9.862 4.359 5.162 6.084 11.217 11.386 17.959 15.712 3.515-.667 7.532-1.294 12.133-1.834 7.603-.891 13.38-3.321 17.764-6.324-1.505-.789-2.949-1.702-4.299-2.76z" fill="#bec8f7"/><path d="m57.411 203.586c3.764 6.144 8.38 10.908 12.663 14.263 4.937 3.867 11.04 5.982 17.335 6.009s12.416-2.037 17.385-5.862c4.314-3.321 8.973-8.049 12.791-14.167-2.219-1.169-4.443-2.805-6.612-5.107l.011-.013c-3.673-3.894-4.592-7.013-7.279-11.748-9.979 5.174-22.065 5.269-32.279-.136-2.866 4.952-3.74 7.893-7.377 11.686l.011.013c-2.204 2.296-4.436 3.915-6.649 5.062z" fill="#fcad6d"/><path d="m85.162 190.758c-4.713-.342-9.394-1.636-13.737-3.934-2.866 4.952-3.739 7.893-7.377 11.686l.011.013c-2.203 2.298-4.435 3.917-6.648 5.064 3.764 6.144 8.38 10.908 12.663 14.263.851.667 1.748 1.261 2.663 1.822 12.268-7.396 14.771-19.455 14.771-19.455s-1.014-4.022-2.346-9.459z" fill="#fd995b"/><g><path d="m81.38 95.502c-19.742 2.605-21.664 13.784-21.69 17.888-.006.861-.486 1.656-1.261 2.03-10.284 4.949-4.852 29.035-4.852 29.035 1.03.073 2.572.964 3.375 1.357.202-1.225.529-2.431.988-3.596.35-.888.786-1.784 1.331-2.63.945-1.469 1.38-3.204 1.26-4.941-.348-5.022-.597-14.447 6.042-17.401 5.624-2.502 12.504-1.01 16.889.468 2.848.96 5.937.974 8.793.037 4.397-1.442 11.29-2.875 16.893-.326 6.595 3.001 6.284 12.376 5.898 17.408-.134 1.749.274 3.506 1.214 4.994.555.878.994 1.809 1.342 2.728.432 1.142.738 2.321.925 3.519 1.016-.487 2.937-1.481 4.176-1.301.174-5.261.684-10.931.684-10.931 5.966-28.612-20.75-41.143-42.007-38.338z" fill="#a05838"/></g><path d="m83.461 117.712c.23.078.464.139.697.204-.016-.608-.285-1.177-.736-1.589-8.505-7.762-5.562-15.417-3.44-18.89.338-.553.375-1.184.188-1.754-18.6 2.897-20.454 13.689-20.479 17.707-.006.861-.486 1.656-1.261 2.03-10.284 4.949-4.852 29.035-4.852 29.035 1.03.073 2.572.964 3.375 1.357.202-1.225.529-2.431.988-3.596.35-.888.786-1.784 1.331-2.63.945-1.469 1.38-3.204 1.26-4.941-.348-5.022-.597-14.447 6.042-17.401 5.622-2.503 12.501-1.011 16.887.468z" fill="#823c26"/><path d="m124.448 145.462c-1.531-1.415-4.595-.714-5.922.143.282 1.807.291 3.654.033 5.477l-1.61 11.369c-.004.917-.037 1.816-.094 2.7 3.804 1.165 5.71-2.246 6.039-4.591.141-1.01.37-2.004.685-2.974 1.027-3.16 4.705-8.579.869-12.124z" fill="#fd995b"/><path d="m51.033 145.152c1.543-1.402 4.601-.675 5.921.193-.298 1.804-.322 3.652-.079 5.477l1.514 11.382c-.004.917.021 1.817.071 2.701-3.813 1.133-5.691-2.294-6-4.642-.133-1.011-.353-2.007-.66-2.98-1.001-3.169-4.633-8.619-.767-12.131z" fill="#fd995b"/><path d="m118.068 142.088c-.348-.919-.787-1.849-1.342-2.728-.939-1.488-1.348-3.245-1.214-4.994.386-5.032.232-14.876-6.363-17.877-5.603-2.549-12.494-1.116-16.892.325-2.856.936-5.947.923-8.794-.037-4.385-1.479-11.264-2.97-16.888-.468-6.639 2.953-6.858 12.844-6.511 17.866.12 1.737-.314 3.472-1.259 4.941-.544.846-.981 1.743-1.331 2.63-1.135 2.879-1.475 6.006-1.068 9.07l1.514 11.385c-.069 16.357 8.616 27.512 16.019 33.312 3.864 3.027 8.642 4.682 13.569 4.703 4.928.021 9.719-1.594 13.608-4.588 7.452-5.736 16.231-16.818 16.3-33.175l1.61-11.369c.43-3.031.127-6.13-.958-8.996z" fill="#f9ba8f"/><g><path d="m89.908 195.58c-5.101-5.789-11.079-16.933-11.01-33.29l-1.03-11.382c-.277-3.064-.038-6.191.749-9.072.243-.888.545-1.785.922-2.632.654-1.47.956-3.206.875-4.942-.219-4.725-.084-13.761 3.755-17.278-.236-.066-.472-.128-.705-.206-4.385-1.479-11.264-2.97-16.888-.468-6.639 2.953-6.858 12.844-6.511 17.866.12 1.737-.314 3.472-1.259 4.941-.544.846-.981 1.743-1.331 2.63-1.135 2.879-1.475 6.006-1.068 9.07l1.514 11.385c-.069 16.357 8.616 27.512 16.019 33.312 3.864 3.027 8.642 4.682 13.569 4.703 2.382.01 4.73-.37 6.961-1.096-1.64-.793-3.186-1.98-4.562-3.541z" fill="#fcad6d"/></g><g><path d="m87.311 246.904c-48.347-.204-87.514-39.704-87.31-88.051.204-48.347 39.704-87.515 88.051-87.31 48.347.204 87.514 39.704 87.31 88.051-.205 48.347-39.704 87.514-88.051 87.31zm.677-160.373c-40.082-.169-72.829 32.302-72.999 72.385s32.302 72.83 72.385 72.999c40.082.169 72.829-32.302 72.998-72.385.17-40.082-32.301-72.83-72.384-72.999z" fill="#49d88b"/></g><path d="m151.808 218.582c-8.768.35-10.255-4.986-10.355-8.235-.018-.605-.294-1.135-.711-1.508-13.345 14.261-32.342 23.164-53.368 23.075-40.082-.169-72.554-32.917-72.385-72.999.155-36.616 27.502-66.866 62.787-71.697-.161-.45-.468-.846-.902-1.107-6.745-4.057-3.634-10.156-1.937-12.646.217-.318.326-.68.358-1.047-42.351 6.015-75.109 42.418-75.295 86.434-.204 48.347 38.963 87.847 87.31 88.051 25.595.108 48.709-10.82 64.827-28.301-.108-.012-.217-.024-.329-.02z" fill="#38c674"/></g></svg>