<svg id="Capa_1" enable-background="new 0 0 512 512" height="512" viewBox="0 0 512 512" width="512" xmlns="http://www.w3.org/2000/svg"><circle cx="256" cy="256" fill="#22d7ff" r="256"/><path d="m512 256c0 87.11-43.52 164.07-110 210.31-41.41 28.8-91.73 45.69-146 45.69s-104.59-16.89-146-45.69c-66.48-46.24-110-123.2-110-210.31 0-46.22 12.25-89.57 33.68-127 44.12 77.07 127.16 129 222.32 129s178.21-51.93 222.32-129c21.43 37.43 33.68 80.78 33.68 127z" fill="#00b3fe"/><path d="m196.25 323.92h119.49v34.48h-119.49z" fill="#d1f6ff"/><path d="m256 323.92h59.74v34.48h-59.74z" fill="#b3f4ff"/><path d="m164.2 386.36h183.59v34.48h-183.59z" fill="#d1f6ff"/><path d="m256 386.36h91.79v34.48h-91.79z" fill="#b3f4ff"/><path d="m154.7 448.81h202.6v34.48h-202.6z" fill="#d1f6ff"/><path d="m256 448.81h101.3v34.48h-101.3z" fill="#b3f4ff"/><path d="m154.7 89.65h202.6v34.48h-202.6z" fill="#fff"/><path d="m256 89.65h101.3v34.48h-101.3z" fill="#d1f6ff"/><path d="m164.33 152.09h183.34v34.48h-183.34z" fill="#fff"/><path d="m256 152.09h91.67v34.48h-91.67z" fill="#d1f6ff"/><path d="m196.56 214.54h118.87v34.48h-118.87z" fill="#fff"/><path d="m256 214.54h59.43v34.48h-59.43z" fill="#d1f6ff"/><path d="m374.54 465.65v17.3c-11.04 5.79-22.56 10.78-34.48 14.92v-32.22c0-60.08-28.86-117.24-77.2-152.9l-34.19-25.22c-28.14-20.77-51.35-48.24-67.11-79.46-15.77-31.22-24.1-66.21-24.1-101.18v-46.36h34.48v46.36c0 60.07 28.86 117.23 77.2 152.89l34.19 25.23c28.14 20.76 51.35 48.24 67.11 79.45 15.77 31.22 24.1 66.21 24.1 101.19z" fill="#ffe400"/><path d="m374.54 60.53v46.36c0 34.97-8.33 69.96-24.1 101.18-15.76 31.22-38.97 58.69-67.11 79.46l-34.19 25.22c-48.34 35.66-77.2 92.82-77.2 152.9v32.22c-11.92-4.14-23.44-9.13-34.48-14.92v-17.3c0-34.98 8.33-69.97 24.1-101.19 15.76-31.21 38.97-58.69 67.11-79.45l34.19-25.23c48.34-35.66 77.2-92.82 77.2-152.89v-46.36z" fill="#ffce00"/></svg>