<svg id="Capa_1" enable-background="new 0 0 512 512" height="512" viewBox="0 0 512 512" width="512" xmlns="http://www.w3.org/2000/svg"><g><g><path d="m256 315.831c-141.387 0-244.031-148.413-223.059-185.546 43.929-77.778 127.361-130.285 223.059-130.285 95.701 0 179.135 52.511 223.063 130.292 20.97 37.132-81.676 185.539-223.063 185.539z" fill="#df7cb3"/><path d="m512 256c0 26.051-3.891 51.191-11.129 74.871-5.031 16.469-11.672 32.231-19.75 47.109-8.25 15.2-147.391 51.949-225.121 51.949s-216.871-36.749-225.109-51.949c-3.289-6.031-6.332-12.21-9.121-18.531-14-31.629-21.77-66.629-21.77-103.449 0-46.219 12.25-89.57 33.68-127 44.121 77.07 127.16 129 222.32 129s178.211-51.93 222.32-129c21.43 37.43 33.68 80.781 33.68 127zm0 0" fill="#d85e91"/><path d="m481.262 377.699c-7.16 13.223-15.434 25.742-24.723 37.43-8.437 10.633-17.719 20.57-27.719 29.723-45.539 41.699-106.211 67.148-172.82 67.148s-127.281-25.449-172.82-67.148c-1.481-1.355-2.946-2.728-4.395-4.118-3.186-3.055-3.924-13.838-6.949-17.053-3.972-4.222-10.172-.934-13.849-5.421-.85-1.037-1.692-2.081-2.526-3.132-9.289-11.688-17.563-24.207-24.723-37.43h450.524zm0 0" fill="#bb1961"/></g><g><path d="m371.225 293.5c0-7.564-.988-14.628-2.238-20.804l28.168-16.216-38.396-66.814-28.031 16.316c-10.527-8.914-22.842-15.941-36.32-20.729v-32.583h-38.408-38.408v32.582c-13.478 4.788-25.793 11.815-36.32 20.729l-28.031-16.316-38.396 66.814 28.168 16.216c-1.25 6.176-2.238 13.24-2.238 20.804 0 7.552.988 14.616 2.25 20.804l-28.181 16.216 38.396 66.814 28.031-16.316c10.527 8.914 22.842 15.941 36.32 20.729v32.582h38.409 38.408v-32.582c13.478-4.789 25.793-11.815 36.32-20.729l28.031 16.316 38.396-66.814-28.181-16.216c1.263-6.187 2.251-13.251 2.251-20.803zm-115.225 51.211c-28.283 0-51.211-22.928-51.211-51.211 0-28.284 22.928-51.211 51.211-51.211s51.211 22.927 51.211 51.211c0 28.283-22.928 51.211-51.211 51.211z" fill="#fbf5eb"/><path d="m294.408 401.748c13.478-4.789 25.793-11.815 36.32-20.729l28.031 16.316 38.396-66.814-28.181-16.216c1.263-6.189 2.251-13.253 2.251-20.804 0-7.564-.988-14.628-2.238-20.804l28.168-16.216-38.396-66.814-28.031 16.316c-10.527-8.914-22.842-15.941-36.32-20.729v-32.584h-38.408v89.619c28.283 0 51.211 22.927 51.211 51.211 0 28.283-22.928 51.211-51.211 51.211v89.619h38.408z" fill="#dce0ef"/><g fill="#8ab8ec"><path d="m63.105 293.5c0-105.898 86.997-192.895 192.895-192.895 61.559 0 119.069 29.852 155.235 77.67h-27.207v25.605h61.213l15.216-60.913-24.83-6.201-5.867 23.439c-41.058-52.615-105.25-85.205-173.76-85.205-120.013 0-218.5 98.487-218.5 218.5 0 18.429 3.154 36.733 7.705 54.399l24.805-6.376c-4.013-15.591-6.905-31.744-6.905-48.023z"/><path d="m474.5 293.5c0-18.429-3.154-36.733-7.705-54.399l-24.805 6.376c4.014 15.591 6.905 31.744 6.905 48.023 0 105.897-86.997 192.895-192.895 192.895-61.559 0-119.069-29.852-155.235-77.67h27.207v-25.605h-61.213l-8.776 35.133c6.476 7.894 13.415 15.393 20.775 22.457l3.483-13.915c41.057 52.615 105.249 85.205 173.759 85.205 120.013 0 218.5-98.487 218.5-218.5z"/></g><path d="m474.5 293.5c0-18.429-3.154-36.733-7.705-54.399l-24.805 6.376c4.013 15.591 6.905 31.744 6.905 48.023 0 105.898-86.997 192.895-192.895 192.895v25.605c120.013 0 218.5-98.487 218.5-218.5z" fill="#728ee4"/><path d="m411.235 178.275h-27.207v25.605h61.213l15.216-60.913-24.83-6.201-5.867 23.439c-41.058-52.615-105.25-85.205-173.76-85.205v25.605c61.559 0 119.069 29.852 155.235 77.67z" fill="#728ee4"/><path d="m256 229.486c-35.295 0-64.014 28.719-64.014 64.014s28.719 64.014 64.014 64.014 64.014-28.719 64.014-64.014-28.719-64.014-64.014-64.014zm0 102.422c-21.18 0-38.408-17.229-38.408-38.408s17.228-38.408 38.408-38.408 38.408 17.229 38.408 38.408-17.228 38.408-38.408 38.408z" fill="#dce0ef"/><path d="m320.014 293.5c0-35.295-28.719-64.014-64.014-64.014v25.605c21.18 0 38.408 17.229 38.408 38.408s-17.228 38.409-38.408 38.409v25.605c35.295.001 64.014-28.718 64.014-64.013z" fill="#cad0e7"/></g></g></svg>