<?xml version="1.0" encoding="iso-8859-1"?>
<!-- Generator: Adobe Illustrator 19.0.0, SVG Export Plug-In . SVG Version: 6.00 Build 0)  -->
<svg version="1.1" id="Capa_1" xmlns="http://www.w3.org/2000/svg" xmlns:xlink="http://www.w3.org/1999/xlink" x="0px" y="0px"
	 viewBox="0 0 512 512" style="enable-background:new 0 0 512 512;" xml:space="preserve">
<path style="fill:#5EE2C5;" d="M512,256c0,141.385-114.615,256-256,256S0,397.385,0,256S114.615,0,256,0S512,114.615,512,256z"/>
<path style="fill:#FFF5F5;" d="M53.353,134.5l-5.936-23.925l291.819-72.403c1.072-0.266,2.157,0.387,2.423,1.46l7.73,31.156
	l41.717-6.863c1.09-0.179,2.119,0.559,2.298,1.649l11.339,68.927H53.353V134.5z"/>
<path style="fill:#F8BB5E;" d="M470,115.482V390c0,5.523-4.477,10-10,10H44.323c-5.185-7.608-9.966-15.511-14.323-23.677V170
	v-34.323V100h23.033c11.295-14.674,24.143-28.091,38.303-40h51.456c4.304,0,8.126,2.754,9.487,6.838L160,90h290.87
	C457.756,98.076,464.147,106.586,470,115.482z"/>
<path style="fill:#EBAE56;" d="M55,100v35.677V170v206.323c4.356,8.165,9.137,16.069,14.323,23.677h-25
	c-5.185-7.608-9.966-15.511-14.323-23.677V170v-34.323V100h23.033"/>
<path style="fill:#DCA050;" d="M470,115.482V120H320H39.094H30v-20V70c0-5.523,4.477-10,10-10h51.336h51.456
	c4.304,0,8.126,2.754,9.487,6.838L160,90h160h130.87C457.756,98.076,464.147,106.586,470,115.482z"/>
<path style="fill:#D09247;" d="M54.833,100v20h-15.74H30v-20V70c0-5.523,4.477-10,10-10h24.833c-5.523,0-10,4.477-10,10V100z"/>
<path style="fill:#596C76;" d="M333.682,499.986c-0.545,0.021-1.093-0.042-1.619-0.212l-140.434-45.301
	c-1.933-0.624-3.244-2.423-3.244-4.455V280.225c0-2.585,2.096-4.681,4.681-4.681h280.867c2.585,0,4.681,2.096,4.681,4.681v102.25
	C447.078,437.865,395.468,480.331,333.682,499.986z"/>
<path style="fill:#465A61;" d="M171.461,402.95c3.977,3.926,6.626,10.911,6.626,18.879c0,4.391-0.807,8.48-2.194,11.928
	c-3.76,0.611-7.733,0.945-11.849,0.945s-8.089-0.334-11.849-0.945c-1.387-3.448-2.194-7.537-2.194-11.928
	c0-7.968,2.648-14.953,6.626-18.879c-1.215-1.579-1.945-3.551-1.945-5.697c0-3.463,1.885-6.48,4.681-8.1V284.906h9.362v104.248
	c2.796,1.62,4.681,4.636,4.681,8.1C173.406,399.399,172.676,401.371,171.461,402.95z M422.324,275.544H244.676l-34.758,11.212
	v-11.212h-16.852c-2.585,0-4.681,2.096-4.681,4.681v13.477v19.291v137.025c0,2.032,1.31,3.831,3.244,4.455l18.289,5.9v-121.3
	c0-7.349,7.661-12.188,14.297-9.03l105.859,50.377c2.227,0.718,4.623,0.718,6.85,0l141.69-67.428v-19.291L422.324,275.544z"/>
<path style="fill:#7A8C98;" d="M509.143,294.326L336.925,349.88c-2.227,0.718-4.623,0.718-6.85,0l-172.343-55.595
	c-4.608-1.487-7.732-5.776-7.732-10.618l0,0c0-4.842,3.123-9.131,7.732-10.618l172.343-55.595c2.227-0.718,4.623-0.718,6.85,0
	l172.343,55.595c0.74,0.239,1.437,0.557,2.094,0.931C510.886,280.84,510.148,287.626,509.143,294.326z"/>
<g>
</g>
<g>
</g>
<g>
</g>
<g>
</g>
<g>
</g>
<g>
</g>
<g>
</g>
<g>
</g>
<g>
</g>
<g>
</g>
<g>
</g>
<g>
</g>
<g>
</g>
<g>
</g>
<g>
</g>
</svg>
