<svg id="Capa_1" enable-background="new 0 0 512 512" height="512" viewBox="0 0 512 512" width="512" xmlns="http://www.w3.org/2000/svg"><g><g><g><g><g><g><g><circle cx="256" cy="256" fill="#a3d4ff" r="256"/></g></g></g></g></g></g><path d="m512 256c0-25.473-3.721-50.077-10.648-73.299l-84.102-84.102-82.647 96.825-96.825-96.825-143.028 143.027 122.328 122.328-122.328 56.113 78.14 78.14c26.06 8.94 54.018 13.793 83.11 13.793 141.385 0 256-114.615 256-256z" fill="#65b1fc"/><g><path d="m94.75 98.599h143.027v143.027h-143.027z" fill="#7584f2"/></g><g><path d="m166.265 98.599h71.513v143.027h-71.513z" fill="#606aea"/></g><path d="m214.37 143.219-21.213-21.213-26.893 26.894-26.894-26.894-21.213 21.213 26.894 26.894-26.894 26.893 21.213 21.213 26.894-26.893 26.893 26.893 21.213-21.213-26.893-26.893z" fill="#fff"/><path d="m214.37 143.219-21.213-21.213-26.893 26.893.001 42.428 26.892 26.892 21.213-21.213-26.893-26.893z" fill="#e9edf5"/><g><path d="m274.222 98.599h143.027v143.027h-143.027z" fill="#ff6c52"/></g><g><path d="m345.277 98.599h71.973v143.027h-71.973z" fill="#ff432e"/></g><path d="m395.736 155.113h-35v-35h-30v35h-35v30h35v35h30v-35h35z" fill="#fff"/><path d="m395.736 155.113h-35v-35h-15.459v100h15.459v-35h35z" fill="#e9edf5"/><g><path d="m94.75 277.04h143.027v143.027h-143.027z" fill="#ff6c52"/></g><g><path d="m166.361 277.04h71.417v143.028h-71.417z" fill="#ff432e"/></g><g><path d="m116.264 333.553h100v30h-100z" fill="#fff"/></g><g><path d="m166.361 333.553h49.902v30h-49.902z" fill="#e9edf5"/></g><g><path d="m274.222 277.04h143.027v143.027h-143.027z" fill="#7584f2"/></g><g><path d="m345.277 277.04h71.973v143.028h-71.973z" fill="#606aea"/></g><g><path d="m295.736 333.553h100v30h-100z" fill="#fff"/></g><g><path d="m345.277 333.553h50.459v30h-50.459z" fill="#e9edf5"/></g><g><g><ellipse cx="166.264" cy="305.702" fill="#fff" rx="16.331" ry="16.331" transform="matrix(.23 -.973 .973 .23 -169.46 397.282)"/></g><g><path d="m182.595 305.702c0-8.987-7.26-16.273-16.234-16.326v32.653c8.974-.054 16.234-7.341 16.234-16.327z" fill="#e9edf5"/></g><g><ellipse cx="166.264" cy="391.405" fill="#fff" rx="16.331" ry="16.331" transform="matrix(.23 -.973 .973 .23 -252.87 463.294)"/></g><g><path d="m182.595 391.405c0-8.987-7.26-16.273-16.234-16.326v32.653c8.974-.054 16.234-7.34 16.234-16.327z" fill="#e9edf5"/></g></g></g></svg>