<svg id="Capa_1" enable-background="new 0 0 512 512" height="512" viewBox="0 0 512 512" width="512" xmlns="http://www.w3.org/2000/svg"><g><g><g><g><g><g><g><g><circle cx="256" cy="256" fill="#ffce00" r="256"/></g></g></g></g></g></g></g><path d="m511.892 263.507-184.309-184.697-216.383 307.177 2.653 2.936 122.627 122.344c6.443.486 12.952.733 19.52.733 138.874 0 251.92-110.58 255.892-248.493z" fill="#ffa300"/><g><path d="m164.496 339.516h183.008v30h-183.008z" fill="#636978"/></g><g><path d="m256.121 339.516h91.383v30h-91.383z" fill="#414952"/></g><g><g><path d="m315.378 206.314h30v157.655h-30z" fill="#414952" transform="matrix(.921 -.389 .389 .921 -84.839 150.79)"/></g><g><path d="m102.794 270.141h157.655v30h-157.655z" fill="#636978" transform="matrix(.389 -.921 .921 .389 -151.687 341.688)"/></g></g><g><g><circle cx="152.214" cy="351.421" fill="#ff6c52" r="53.648"/></g><g><circle cx="359.785" cy="351.421" fill="#ff432e" r="53.648"/></g></g><g><g><path d="m177.77 212.957c-14.032-17.302-22.439-39.351-22.439-63.364 0-55.598 45.071-100.669 100.669-100.669s100.669 45.071 100.669 100.669c0 24.013-8.407 46.062-22.439 63.364z" fill="#7584f2"/></g><g><path d="m356.669 149.593c0-55.558-45.006-100.603-100.669-100.668v164.032h78.23c14.032-17.302 22.439-39.351 22.439-63.364z" fill="#606aea"/></g><g><g><path d="m273.477 166.766v-24.908h-34.953v24.908c0 4.158-1.615 8.046-4.348 10.955l21.824 43.96 21.825-43.96c-2.734-2.909-4.348-6.797-4.348-10.955z" fill="#e09380"/></g><g><path d="m273.477 166.766v-24.907h-17.477v79.58l21.825-43.717c-2.734-2.91-4.348-6.798-4.348-10.956z" fill="#d47f6c"/></g><g><path d="m256 197.553-21.825-19.832c-1.553 1.653-3.465 2.992-5.655 3.877l-31.897 12.89c-8.531 3.448-15.278 10.121-18.853 18.468 18.457 22.759 46.645 37.306 78.23 37.306.716 0 1.427-.016 2.139-.031v-54.623z" fill="#a3d4ff"/></g><g><path d="m334.23 212.956c-3.575-8.348-10.322-15.021-18.853-18.468l-31.897-12.89c-2.191-.885-4.102-2.225-5.655-3.877l-21.825 19.832v52.708c31.657-.037 59.797-14.574 78.23-37.305z" fill="#65b1fc"/></g><g><g><g><g><g><path d="m256 171.258c-22.034 0-39.896-17.862-39.896-39.896v-21.002c0-22.034 17.862-39.896 39.895-39.896 22.034 0 39.896 17.862 39.896 39.896v21.003c.001 22.033-17.861 39.895-39.895 39.895z" fill="#faa68e"/></g></g></g></g></g><g><g><g><g><g><path d="m256 70.464c22.034 0 39.896 17.862 39.896 39.896v21.003c0 22.034-17.862 39.896-39.896 39.896z" fill="#e09380"/></g></g></g></g></g><g><path d="m256 197.553-12.206 14.956-21.216-28.51 11.597-6.278z" fill="#dbeeff"/></g><g><path d="m256 197.553 12.206 14.956 21.216-28.51-11.597-6.278z" fill="#a3d4ff"/></g></g></g></g></svg>