<svg id="Icons" enable-background="new 0 0 512 512" height="512" viewBox="0 0 512 512" width="512" xmlns="http://www.w3.org/2000/svg"><g><path d="m512 256c0 101.46-59.04 189.15-144.63 230.56-5.21 2.53-10.52 4.88-15.92 7.05-2.96 1.19-5.96 2.33-8.98 3.41-4.83 1.73-9.73 3.33-14.69 4.78-3.3.96-6.63 1.86-9.99 2.69-7.39 1.83-14.91 3.35-22.54 4.52-6.58 1.01-13.25 1.78-19.99 2.27-6.36.48-12.78.72-19.26.72-2.99 0-5.96-.05-8.92-.15-3.35-.12-6.68-.3-9.99-.54-7.61-.55-15.13-1.44-22.54-2.66-6.75-1.09-13.42-2.45-19.99-4.08-8.95-2.2-17.72-4.88-26.27-8-5.39-1.96-10.7-4.1-15.92-6.42-3.03-1.34-6.02-2.73-8.98-4.19-84.92-41.66-143.39-128.99-143.39-229.96 0-141.38 114.62-256 256-256s256 114.62 256 256z" fill="#78c795"/><g id="Person_5_"><g id="Arm_6_"><path d="m155.484 345.067c-25.621-.738-41.705-22.872-51.939-64.115-2.101-8.868 3.383-17.759 12.25-19.861s17.759 3.383 19.86 12.25c6.722 28.361 16.033 38.325 19.489 38.707.184.025 17.965 1.107 53.257-71.419 3.987-8.193 13.863-11.604 22.056-7.617 8.194 3.987 11.604 13.862 7.617 22.056-20.529 40.423-45.689 88.61-82.59 89.999z" fill="#50755c"/></g><g id="Hand_6_"><path d="m134.781 293.989c-5.226 5.222-13.705 5.237-18.936 0l-25.71-25.71c-5.29-5.261-5.146-13.831 0-18.936 5.236-5.233 13.7-5.233 18.936 0l25.71 25.71c5.148 5.108 5.293 13.667 0 18.936z" fill="#eab39b"/><path d="m134.781 285.504c-5.226 5.222-13.705 5.237-18.936 0l-25.71-25.71c-1.52-1.52-2.595-3.302-3.232-5.211 2.894-9.293 15.374-12.292 22.168-5.239 0 0 25.71 25.71 25.71 25.71 1.52 1.52 2.595 3.316 3.231 5.225-.636 1.909-1.711 3.705-3.231 5.225z" fill="#ffe9d7"/></g><g id="Body_8_"><path d="m277.16 216.23c-22.654-5.879-48.428 1.735-64.21 18.71 0 .01 0 .01-.01.01-7.321 7.736-12.749 17.001-15.76 27.42-1.71 5.88-2.62 12.11-2.62 18.54v223.66c17.147 4.24 34.785 6.663 52.52 7.28v-70.88h28.18v70.31c17.846-1.309 35.423-4.505 52.52-9.48v-220.89c0-31.28-21.56-57.53-50.62-64.68z" fill="#50755c"/><path d="m327.78 280.91v220.89c-10.677 3.103-21.461 5.507-32.53 7.21v-68.04h-48.17v70.88c-10.897-.384-21.863-1.436-32.53-3.2v-227.74c.005-4.657.48-9.323 1.45-13.87 4.862-23.89 23.864-44.025 47.4-50.33 2.559-.693 5.136-1.275 7.77-1.67 2.03.3 4.02.7 5.99 1.19 29.06 7.15 50.62 33.4 50.62 64.68z" fill="#53b976"/><path d="m317.79 280.91v223.58c-7.39 1.83-14.91 3.35-22.54 4.52v-68.04h-58.16v70.34c-7.61-.55-15.13-1.44-22.54-2.66v-227.74c.005-4.657.48-9.323 1.45-13.87 4.832-23.729 23.608-43.768 46.94-50.2 1.066-.31 2.14-.567 3.22-.83 29.425 6.743 51.665 33.24 51.63 64.9z" fill="#528f66"/><path d="m194.56 393.31v111.26c17.147 4.24 34.785 6.663 52.52 7.28v-70.88h28.18v70.31c17.846-1.309 35.423-4.505 52.52-9.48v-108.49z" fill="#22a8b9"/><path d="m327.78 393.31v108.49c-10.677 3.103-21.461 5.507-32.53 7.21v-68.04h-48.17v70.88c-10.897-.384-21.863-1.436-32.53-3.2v-115.34z" fill="#cde6f6"/><path d="m317.79 393.31v111.18c-7.39 1.83-14.91 3.35-22.54 4.52v-68.04h-58.16v70.34c-7.61-.55-15.13-1.44-22.54-2.66v-115.34z" fill="#83d5ef"/></g><g id="HEAD_8_"><g id="Ears_7_"><path d="m225.801 162.058c.734 8.912-6.136 16.832-15.187 16.783h-12.83c-20.305-.496-20.305-31.474 0-31.97h12.83c8.388 0 15.187 6.8 15.187 15.187z" fill="#f9d6bf"/><path d="m339.739 162.058c.734 8.912-6.136 16.832-15.187 16.783h-12.83c-20.305-.496-20.305-31.474 0-31.97h12.83c8.387 0 15.187 6.8 15.187 15.187z" fill="#f9d6bf"/><g fill="#eab39b"><path d="m231.184 162.856c0 3.517-2.851 6.369-6.369 6.369h-23.891c-3.517 0-6.369-2.851-6.369-6.369 0-3.517 2.851-6.369 6.369-6.369h23.891c3.518.001 6.369 2.852 6.369 6.369z"/><path d="m327.78 162.856c0 3.517-2.851 6.369-6.369 6.369h-23.891c-3.517 0-6.369-2.851-6.369-6.369 0-3.517 2.851-6.369 6.369-6.369h23.891c3.517.001 6.369 2.852 6.369 6.369z"/></g></g><g id="Neck_7_"><g><path d="m277.155 203.758v15.9c.047 8.884-7.383 16.056-15.99 15.98-8.83 0-15.98-7.15-15.98-15.98v-15.9c-.152-10.304 10.073-18.155 19.98-15.48 6.982 1.82 11.985 8.081 11.99 15.48z" fill="#eab39b"/></g><g><path d="m277.155 203.758v15.9c0 7.45-5.1 13.7-11.99 15.48-6.89-1.78-11.99-8.03-11.99-15.48v-15.9c0-7.45 5.1-13.7 11.99-15.48 6.982 1.82 11.985 8.081 11.99 15.48z" fill="#f9d6bf"/></g><g><path d="m277.155 203.758v14.64c-3.74.85-7.64 1.3-11.64 1.3-6.31.005-14.247.273-20.33-1.3v-14.64c-.152-10.304 10.073-18.154 19.98-15.48 6.982 1.82 11.985 8.081 11.99 15.48z" fill="#eab39b"/></g><g><path d="m277.155 203.758v15.9c.047 8.884-7.383 16.056-15.99 15.98-8.83 0-15.98-7.15-15.98-15.98v-15.9c-.152-10.304 10.073-18.155 19.98-15.48 6.982 1.82 11.985 8.081 11.99 15.48z" fill="none"/></g></g><g id="Face_7_"><g><path d="m318.135 123.068v36.02c.107 29.116-23.95 52.753-52.62 52.62h-8.69c-29.07 0-52.63-23.56-52.63-52.62v-36.02c0-29.06 23.56-52.62 52.63-52.62h8.69c28.67-.13 52.727 23.502 52.62 52.62z" fill="#f9d6bf"/></g><g><path d="m318.135 123.068v36.02c0 27.66-21.35 50.34-48.47 52.46-27.12-2.11-48.48-24.79-48.48-52.46v-36.02c0-27.67 21.36-50.35 48.48-52.46 27.12 2.12 48.47 24.8 48.47 52.46z" fill="#ffe9d7"/></g></g><path d="m261.168 186.428c-6.594 0-12.557-2.021-15.562-5.275-1.746-1.96 1.118-4.616 2.939-2.714 4.583 5.253 20.665 5.251 25.246 0 1.805-1.9 4.695.751 2.938 2.714-3.005 3.253-8.968 5.275-15.561 5.275z" fill="#eab39b"/><path d="m269.932 168.37h-17.529c-2.624-.043-2.633-3.955 0-4h17.529c2.624.043 2.633 3.955 0 4z" fill="#f3c3aa"/><g id="Eyes_8_"><path d="m247.076 148.657c0-4.32-3.502-7.822-7.822-7.822-10.364.383-10.361 15.261 0 15.643 4.32.001 7.822-3.501 7.822-7.821z" fill="#eab39b"/><path d="m290.903 148.657c0-4.32-3.502-7.822-7.822-7.822-10.364.383-10.361 15.261 0 15.643 4.32.001 7.822-3.501 7.822-7.821z" fill="#eab39b"/><path d="m246.542 151.577c0-4.025-3.263-7.288-7.288-7.288-9.647.333-9.644 14.243 0 14.575 4.025 0 7.288-3.262 7.288-7.287z" fill="#122894"/><path d="m244.352 151.728c3.374-3.549-1.701-8.622-5.249-5.249-3.373 3.549 1.702 8.622 5.249 5.249z" fill="#e8f3fc"/><path d="m290.369 151.577c0-4.025-3.263-7.288-7.288-7.288-9.647.333-9.645 14.243 0 14.575 4.025 0 7.288-3.262 7.288-7.287z" fill="#122894"/><path d="m288.179 151.728c3.374-3.549-1.701-8.622-5.249-5.249-3.373 3.549 1.701 8.622 5.249 5.249z" fill="#e8f3fc"/></g></g><g id="Glasses_5_"><g id="Glasses_6_"><path d="m301.525 138.184c-8.009-3.457-20.699-3.454-28.695 0-1.835.724-3.034 2.485-3.034 4.458v10.746c.915 23.054 33.85 23.051 34.763 0v-10.745c0-1.974-1.198-3.734-3.034-4.459z" fill="#e8f3fc"/><path d="m287.178 172.777c-10.691 0-19.389-8.698-19.389-19.389h4.015c.847 20.401 29.908 20.385 30.748 0h4.015c-.001 10.691-8.698 19.389-19.389 19.389z" fill="#9175a7"/><path d="m306.566 153.388h-4.015v-10.746c0-1.151-.692-2.168-1.763-2.591-7.527-3.273-19.71-3.267-27.221 0-1.071.423-1.764 1.439-1.764 2.591v10.746h-4.015v-10.746c0-2.811 1.69-5.293 4.305-6.325 3.217-1.27 8.445-2.784 15.084-2.784 6.638 0 11.867 1.514 15.084 2.784 2.615 1.032 4.304 3.515 4.304 6.325v10.746z" fill="#57409b"/><path d="m248.877 138.132c-7.944-3.389-20.498-3.385-28.428 0-1.919.748-3.167 2.594-3.167 4.654v10.601c.914 23.053 33.849 23.052 34.763 0v-10.601c-.001-2.059-1.249-3.906-3.168-4.654z" fill="#e8f3fc"/><path d="m234.663 172.777c-10.691 0-19.389-8.698-19.389-19.389h4.015c.847 20.401 29.908 20.385 30.748 0h4.015c0 10.691-8.698 19.389-19.389 19.389z" fill="#9175a7"/><g fill="#57409b"><path d="m254.052 153.388h-4.015v-10.601c0-1.244-.742-2.337-1.889-2.785-7.45-3.206-19.535-3.201-26.97 0-1.148.447-1.889 1.54-1.889 2.784v10.601h-4.015v-10.601c0-2.912 1.745-5.473 4.446-6.525 3.192-1.245 8.377-2.729 14.942-2.729s11.75 1.484 14.943 2.729c2.701 1.052 4.446 3.614 4.446 6.525v10.602z"/><path d="m268.011 149.462c-1.402-1.45-12.703-1.455-14.106-.022.002-.002.238-.244.22-.815l-4.013.126c.328-3.672 5.083-4.332 10.808-4.412 9.47 0 10.884 2.725 10.884 4.349h-4.015c0 .543.22.772.222.774z"/><path d="m318.137 141.608h-13.578c-1.108 0-2.007-.899-2.007-2.007s.899-2.007 2.007-2.007h13.578c2.634.043 2.641 3.969 0 4.014z"/><path d="m217.282 141.608h-13.577c-2.634-.044-2.641-3.969 0-4.015h13.577c2.634.044 2.641 3.97 0 4.015z"/></g></g><path d="m246.768 148.58c0-4.339-3.517-7.856-7.856-7.856-10.409.385-10.406 15.328 0 15.711 4.338.001 7.856-3.516 7.856-7.855z" fill="#98cbef"/><path d="m290.785 148.58c0-4.339-3.517-7.856-7.856-7.856-10.409.385-10.406 15.328 0 15.711 4.339.001 7.856-3.516 7.856-7.855z" fill="#98cbef"/><g><path d="m246.231 151.512c0-4.042-3.277-7.319-7.319-7.319-9.689.335-9.686 14.305 0 14.638 4.042.001 7.319-3.276 7.319-7.319z" fill="#122894"/></g><path d="m244.032 151.664c3.388-3.564-1.708-8.66-5.272-5.272-3.388 3.565 1.709 8.66 5.272 5.272z" fill="#e8f3fc"/><path d="m290.248 151.512c0-4.042-3.277-7.319-7.319-7.319-9.689.335-9.686 14.305 0 14.638 4.042.001 7.319-3.276 7.319-7.319z" fill="#122894"/><path d="m288.049 151.664c3.388-3.564-1.708-8.66-5.272-5.272-3.388 3.565 1.709 8.66 5.272 5.272z" fill="#e8f3fc"/></g></g><g><g><path d="m435.34 353.81c.069 9.123-7.573 16.932-16.86 16.86h-324.96c-9.31 0-16.86-7.55-16.86-16.86-.056-9.288 7.682-16.903 16.86-16.85h324.96c9.31 0 16.86 7.54 16.86 16.85z" fill="#deb36f"/><path d="m435.34 353.81c0 1.95-.33 3.83-.95 5.58-1.968.406-324.959.002-327.115.14-11.388.222-19.856-11.792-15.905-22.43 1.968-.407 324.959-.002 327.114-.14 9.306 0 16.856 7.54 16.856 16.85z" fill="#fbcb74"/><path d="m373.904 359.53h-181.941c-6.233 0-11.285-5.052-11.285-11.285s5.052-11.285 11.285-11.285h181.941c14.923.581 15.018 21.946 0 22.57z" fill="#fbd9a3"/></g><g><path d="m392.75 370.67v47.92c0 13.61-10.71 24.71-24.14 25.35-2.724.073-222.468.047-225.219 0-13.431-.64-24.141-11.74-24.141-25.35v-47.92z" fill="#c68132"/><path d="m371.97 404.78v27.61c0 4.25-1.23 8.22-3.36 11.55-2.724.058-222.468.058-225.22 0-2.13-3.33-3.36-7.3-3.36-11.55v-27.61c0-7.2 5.83-13.03 13.03-13.03h205.88c7.2 0 13.03 5.83 13.03 13.03z" fill="#dd8c29"/><path d="m325.996 417.86h-97.562c-7.21 0-13.055-5.845-13.055-13.055s5.845-13.055 13.055-13.055h97.562c17.296.688 17.342 25.402 0 26.11z" fill="#f39e22"/></g><g><g><path d="m168.29 443.94v52.63c-8.497-3.092-16.801-6.632-24.9-10.61v-42.02z" fill="#a583bb"/><path d="m168.29 456.15v40.42c-5.39-1.96-10.7-4.1-15.92-6.42v-34c.371-10.534 15.557-10.537 15.92 0z" fill="#c2aacf"/><path d="m160.332 485.43c-4.395 0-7.958-3.563-7.958-7.958v-10.068c.389-10.542 15.527-10.545 15.917 0v10.068c-.001 4.395-3.564 7.958-7.959 7.958z" fill="#decee5"/></g><g><path d="m367.37 443.94v42.62c-8.086 3.925-16.415 7.423-24.9 10.46v-53.08z" fill="#a583bb"/><path d="m367.37 456.15v30.41c-5.21 2.53-10.52 4.88-15.92 7.05v-37.46c.371-10.534 15.557-10.538 15.92 0z" fill="#c2aacf"/><path d="m359.412 485.43c-4.395 0-7.958-3.563-7.958-7.958v-10.068c.389-10.542 15.527-10.545 15.917 0v10.068c-.001 4.395-3.564 7.958-7.959 7.958z" fill="#decee5"/></g></g></g><g><g><path d="m267.268 299.191h84.675c9.681.204 9.708 15.066 0 15.278-4.919.004-93.913-.003-95.943 0l3.629-7.639c1.8-3.961 3.42-7.639 7.639-7.639z" fill="#fff"/><path d="m244.732 299.191h-84.675c-9.681.204-9.708 15.066 0 15.278 4.919.004 93.913-.003 95.943 0l-3.629-7.639c-1.8-3.961-3.42-7.639-7.639-7.639z" fill="#ebd9ea"/></g><g><path d="m378.783 325.711c.051 6.059-4.99 11.283-11.237 11.249h-223.093c-6.21-.001-11.24-5.032-11.237-11.249 0-6.205 5.032-11.237 11.237-11.237h223.093c6.204-.002 11.24 5.034 11.237 11.237z" fill="#c0405c"/><path d="m378.783 325.711c0 .992-.133 1.948-.363 2.867h-218.569c-3.895 0-7.052-3.157-7.052-7.052 0-1.948.786-3.713 2.068-4.983 1.27-1.282 3.036-2.068 4.983-2.068h207.695c6.205-.003 11.241 5.033 11.238 11.236z" fill="#e9465e"/></g></g><g id="Pencil_9_"><g><path d="m112.076 213.77h18.256v69.595h-18.256z" fill="#f39e22" transform="matrix(.707 -.707 .707 .707 -140.264 158.508)"/><path d="m139.355 272.119-41.702-41.702c-2.072-2.072-5.437-2.072-7.509 0l49.211 49.211c2.072-2.073 2.075-5.434 0-7.509z" fill="#c68132"/><path d="m152.264 266.718-49.211-49.211c-2.075 2.075-2.075 5.44-.003 7.512l41.702 41.702c2.075 2.075 5.437 2.072 7.512-.003z" fill="#f9c744"/></g><g><path d="m103.477 211.104c-1.649-1.649-4.327-1.652-5.976-.003l-13.764 13.764c-1.657 1.635-1.629 4.373.003 5.976 1.652 1.652 4.327 1.652 5.976.003l13.764-13.764c1.649-1.651 1.648-4.328-.003-5.976z" fill="#ebd9ea"/><path d="m103.477 211.104-8.69 8.69c-1.65 1.649-1.653 4.326 0 5.979l8.693-8.693c1.649-1.651 1.648-4.328-.003-5.976z" fill="#fff"/><path d="m96.841 211.76-13.104 13.104c-1.228 1.233-1.553 3.035-.921 4.591l13.104-13.104c1.23-1.235 1.553-3.03.921-4.591z" fill="#c1b7d3"/></g><g><path d="m97.072 211.529-4.423-4.423c-3.573-3.582-9.379-3.543-12.906 0-3.549 3.535-3.577 9.35-.003 12.909 0 0 4.423 4.423 4.423 4.423z" fill="#ee6781"/><path d="m97.072 211.529-4.423-4.423c-1.961-1.961-4.588-2.843-7.149-2.645-.193 2.59.691 5.181 2.648 7.146 0 0 4.423 4.423 4.423 4.423z" fill="#f0a6b3"/><path d="m88.106 220.495-4.423-4.423c-1.823-1.823-4.222-2.717-6.609-2.669-.056 2.394.847 4.787 2.666 6.612 0 0 4.423 4.423 4.423 4.423z" fill="#d65171"/></g><path d="m152.262 266.72-12.909 12.909 18.865 8.069 2.117-2.117c-1.137-2.655-7.079-16.537-8.073-18.861z" fill="#f5b890"/><path d="m153.792 270.294-6.534 6.534c-1.11 1.11-.744 2.987.696 3.604l12.276 5.254.105-.105z" fill="#fbd9a3"/><g><path d="m166.446 291.069-6.366-6.366c-1.15-1.232-3.36-.284-3.307 1.37 0 .498.189.992.567 1.37l6.366 6.366c1.839 1.77 4.509-.913 2.74-2.74z" fill="#2e3140"/><path d="m166.446 291.069-3.895-3.895c-.964.68-1.078 2.116-.237 2.942 0 0 3.895 3.895 3.895 3.895.962-.681 1.082-2.113.237-2.942z" fill="#334353"/></g></g></g></svg>