<?xml version="1.0" encoding="UTF-8" standalone="no"?>
<svg
   xmlns:dc="http://purl.org/dc/elements/1.1/"
   xmlns:cc="http://creativecommons.org/ns#"
   xmlns:rdf="http://www.w3.org/1999/02/22-rdf-syntax-ns#"
   xmlns:svg="http://www.w3.org/2000/svg"
   xmlns="http://www.w3.org/2000/svg"
   xmlns:sodipodi="http://sodipodi.sourceforge.net/DTD/sodipodi-0.dtd"
   xmlns:inkscape="http://www.inkscape.org/namespaces/inkscape"
   id="Capa_1"
   enable-background="new 0 0 512 512"
   height="512"
   viewBox="0 0 512 512"
   width="512"
   version="1.1"
   sodipodi:docname="016-settings-a.svg"
   inkscape:version="0.92.5 (2060ec1f9f, 2020-04-08)">
  <metadata
     id="metadata37">
    <rdf:RDF>
      <cc:Work
         rdf:about="">
        <dc:format>image/svg+xml</dc:format>
        <dc:type
           rdf:resource="http://purl.org/dc/dcmitype/StillImage" />
        <dc:title></dc:title>
      </cc:Work>
    </rdf:RDF>
  </metadata>
  <defs
     id="defs35" />
  <sodipodi:namedview
     pagecolor="#ffffff"
     bordercolor="#666666"
     borderopacity="1"
     objecttolerance="10"
     gridtolerance="10"
     guidetolerance="10"
     inkscape:pageopacity="0"
     inkscape:pageshadow="2"
     inkscape:window-width="640"
     inkscape:window-height="480"
     id="namedview33"
     showgrid="false"
     inkscape:zoom="0.4609375"
     inkscape:cx="256"
     inkscape:cy="256"
     inkscape:window-x="0"
     inkscape:window-y="30"
     inkscape:window-maximized="0"
     inkscape:current-layer="Capa_1" />
  <path
     d="m 430.46374,263.12712 c 0,-10.82666 -1.45874,-20.93766 -3.30431,-29.77762 l 41.58879,-23.21063 -56.68997,-95.63362 -41.38651,23.35376 C 355.1291,125.10004 336.94656,115.042 317.0469,108.18874 V 61.551356 h -56.70768 -56.70768 v 46.635954 c -19.89966,6.85326 -38.08221,16.9113 -53.62485,29.67027 l -41.38651,-23.35376 -56.689958,95.63362 41.588783,23.21063 c -1.845568,8.83996 -3.304306,18.95095 -3.304306,29.77762 0,10.80949 1.458738,20.92048 3.322024,29.77762 l -41.607977,23.21063 56.689964,95.63362 41.38651,-23.35376 c 15.54264,12.75897 33.72518,22.817 53.62484,29.67027 v 46.63595 h 56.70916 56.70768 v -46.63595 c 19.89966,-6.8547 38.0822,-16.9113 53.62484,-29.67027 l 41.38651,23.35376 56.68997,-95.63362 -41.60798,-23.21063 c 1.86476,-8.85571 3.3235,-18.9667 3.3235,-29.77619 z m -170.12452,73.30041 c -41.75858,0 -75.61074,-32.81779 -75.61074,-73.30041 0,-40.48405 33.85216,-73.30041 75.61074,-73.30041 41.75857,0 75.61073,32.81636 75.61073,73.30041 0,40.48262 -33.85216,73.30041 -75.61073,73.30041 z"
     id="path10"
     inkscape:connector-curvature="0"
     style="fill:#fbf5eb;stroke-width:1.45372307" />
  <path
     d="m 317.0469,418.06693 c 19.89966,-6.85469 38.0822,-16.9113 53.62484,-29.67027 l 41.38651,23.35376 56.68997,-95.63362 -41.60798,-23.21063 c 1.86476,-8.85857 3.3235,-18.96956 3.3235,-29.77762 0,-10.82666 -1.45874,-20.93766 -3.30431,-29.77762 l 41.58879,-23.21063 -56.68997,-95.63362 -41.38651,23.35376 C 355.1291,125.10147 336.94656,115.04344 317.0469,108.19017 V 61.551356 H 260.33922 V 189.82671 c 41.75857,0 75.61073,32.81636 75.61073,73.30041 0,40.48262 -33.85216,73.30041 -75.61073,73.30041 v 128.27535 h 56.70768 z"
     id="path12"
     inkscape:connector-curvature="0"
     style="fill:#dce0ef;stroke-width:1.45372307" />
  <path
     d="m 260.33922,171.50125 c -52.11148,0 -94.51379,41.10669 -94.51379,91.62587 0,50.51918 42.40231,91.62587 94.51379,91.62587 52.11148,0 94.51379,-41.10669 94.51379,-91.62587 0,-50.51918 -42.40231,-91.62587 -94.51379,-91.62587 z m 0,146.60082 c -31.27132,0 -56.70768,-24.66058 -56.70768,-54.97495 0,-30.31437 25.43636,-54.97495 56.70768,-54.97495 31.27131,0 56.70768,24.66058 56.70768,54.97495 0,30.31437 -25.43637,54.97495 -56.70768,54.97495 z"
     id="path24"
     inkscape:connector-curvature="0"
     style="fill:#dce0ef;stroke-width:1.45372307" />
  <path
     d="m 354.85301,263.12712 c 0,-50.51918 -42.40231,-91.62587 -94.51379,-91.62587 v 36.64949 c 31.27131,0 56.70768,24.66058 56.70768,54.97495 0,30.31437 -25.43637,54.97638 -56.70768,54.97638 v 36.64949 c 52.11148,0.001 94.51379,-41.10526 94.51379,-91.62444 z"
     id="path26"
     inkscape:connector-curvature="0"
     style="fill:#cad0e7;stroke-width:1.45372307" />
</svg>
