<svg id="Capa_1" enable-background="new 0 0 512 512" height="512" viewBox="0 0 512 512" width="512" xmlns="http://www.w3.org/2000/svg"><g><g><path d="m256 330.788c-141.387 0-244.868-160.192-225.262-196.396 43.302-79.964 127.939-134.269 225.262-134.269 97.204 0 181.752 54.173 225.103 133.974 19.704 36.273-83.716 196.691-225.103 196.691z" fill="#e38031"/><path d="m512 256.123c0 26.051-3.891 51.191-11.129 74.871-5.031 16.469-11.672 32.231-19.75 47.109-8.25 15.2-147.391 49.183-225.121 49.183s-216.871-33.983-225.109-49.183c-3.289-6.031-6.332-12.21-9.121-18.531-14-31.629-21.77-66.629-21.77-103.449 0-46.219 12.25-89.57 33.68-127 44.121 77.07 127.16 129 222.32 129s178.211-51.93 222.32-129c21.43 37.43 33.68 80.781 33.68 127zm0 0" fill="#d85819"/><path d="m481.262 377.822c-7.16 13.223-15.434 25.742-24.723 37.43-8.437 10.633-17.719 20.57-27.719 29.723-36.758 33.659-83.377 56.73-135.019 64.376-12.336 1.826-63.243 1.828-75.568.005-51.656-7.64-98.287-30.714-135.053-64.381-10-9.153-19.282-19.09-27.719-29.723-9.289-11.688-17.563-24.207-24.723-37.43zm0 0" fill="#bd4911"/></g><g><path d="m233.986 334.294h60.54v55.036h-60.54z" fill="#5a7ba0"/><path d="m217.475 334.294h38.525v55.036h-38.525z" fill="#7397b8"/><path d="m256 511.877h10.856c9.361-.391 18.595-1.27 27.669-2.64v-119.907h-77.051z" fill="#8db3cf"/><path d="m245.144 511.877h10.856v-122.547h-38.525v119.908c9.074 1.369 18.308 2.249 27.669 2.639z" fill="#a6cfe7"/><path d="m217.475 509.237c6.722 1.014 13.533 1.758 20.416 2.239v-122.146h-20.416z" fill="#cce2f0"/><path d="m443.857 136.163h-187.857l-110.073 110.073 110.073 110.072h187.857z" fill="#ffeb78"/><path d="m68.143 136.163h187.857v220.145h-187.857z" fill="#fff0be"/><path d="m68.143 136.163h114.476v220.145h-114.476z" fill="#fff9e8"/><path d="m399.828 180.192h-143.828l-73.382 66.044 73.382 66.043h143.828z" fill="#cb2e81"/><path d="m112.172 180.192h143.828v132.087h-143.828z" fill="#dc4180"/><path d="m112.172 180.192h70.447v132.087h-70.447z" fill="#ff63a4"/><path d="m443.857 378.323h-187.857l-22.014 11.007 22.014 11.007h187.857z" fill="#7397b8"/><path d="m68.143 378.323h187.857v22.014h-187.857z" fill="#8db3cf"/><path d="m68.143 378.323h114.476v22.014h-114.476z" fill="#abc9de"/></g></g></svg>