<svg id="Capa_1" enable-background="new 0 0 512 512" height="512" viewBox="0 0 512 512" width="512" xmlns="http://www.w3.org/2000/svg"><g><g><path d="m0 256c0 43.79 11 85.02 30.39 121.07l225.61 49.67 225.61-49.67c19.39-36.05 30.39-77.28 30.39-121.07 0-46.63-12.47-90.34-34.26-128-41.698 72.091-399.22 76.52-443.48 0-21.79 37.66-34.26 81.37-34.26 128z" fill="#9865d8"/><path d="m34.26 128c44.26 76.52 126.99 128 221.74 128s177.48-51.48 221.74-128c-.01-.02-.03-.05-.04-.07-44.27-76.48-126.98-127.93-221.7-127.93s-177.43 51.45-221.7 127.93c-.01.02-.03.05-.04.07z" fill="#b895e4"/><path d="m30.39 377.07c43.19 80.32 128.02 134.93 225.61 134.93s182.42-54.61 225.61-134.93z" fill="#5541b5"/></g><circle cx="256" cy="256" fill="#464651" r="204.28"/><path d="m460.28 256c0 112.82-91.46 204.28-204.28 204.28v-408.56c112.82 0 204.28 91.46 204.28 204.28z" fill="#2d3041"/><circle cx="256" cy="256" fill="#c3f3ff" r="157.96"/><path d="m413.96 256c0 87.24-70.72 157.96-157.96 157.96v-315.92c87.24 0 157.96 70.72 157.96 157.96z" fill="#9feafd"/><path d="m244.63 218.53c0 28.25-22.9 51.15-51.15 51.15s-51.14-22.9-51.14-51.15c0-28.24 22.89-51.14 51.14-51.14s51.15 22.9 51.15 51.14z" fill="#d9696f"/><path d="m244.63 218.53c0 28.25-22.9 51.15-51.15 51.15v-102.29c28.25 0 51.15 22.9 51.15 51.14z" fill="#da504f"/><path d="m218.03 218.53c0 13.56-10.99 24.55-24.55 24.55s-24.55-10.99-24.55-24.55c0-13.55 10.99-24.54 24.55-24.54s24.55 10.99 24.55 24.54z" fill="#a7306f"/><path d="m218.03 218.53c0 13.56-10.99 24.55-24.55 24.55v-49.09c13.56 0 24.55 10.99 24.55 24.54z" fill="#871155"/><path d="m365.1 259.22v41.79c0 19.7-15.97 35.68-35.68 35.68s-35.68-15.98-35.68-35.68v-41.79c0-19.71 15.97-35.69 35.68-35.69 9.86 0 18.78 3.99 25.23 10.45 6.46 6.46 10.45 15.38 10.45 25.24z" fill="#b895e4"/><path d="m365.1 259.22v41.79c0 19.7-15.97 35.68-35.68 35.68v-113.16c9.86 0 18.78 3.99 25.23 10.45 6.46 6.46 10.45 15.38 10.45 25.24z" fill="#9865d8"/><path d="m345.1 259.22v41.78c0 8.65-7.03 15.69-15.68 15.69s-15.68-7.04-15.68-15.69v-41.78c0-8.65 7.03-15.69 15.68-15.69s15.68 7.04 15.68 15.69z" fill="#9865d8"/><path d="m345.1 259.22v41.78c0 8.65-7.03 15.69-15.68 15.69v-73.16c8.65 0 15.68 7.04 15.68 15.69z" fill="#5541b5"/><path d="m298.114 378.802c-5.017 5.017-13.15 5.017-18.167 0l-20.185-20.185c-5.017-5.017-5.017-13.15 0-18.167 5.017-5.017 13.15-5.017 18.167 0l20.185 20.185c5.017 5.017 5.017 13.151 0 18.167z" fill="#70c5e8"/><path d="m178.935 343.807c-7.095 0-12.846-5.751-12.846-12.846v-28.546c0-7.095 5.751-12.846 12.846-12.846 7.095 0 12.846 5.751 12.846 12.846v28.546c0 7.095-5.752 12.846-12.846 12.846z" fill="#70c5e8"/><path d="m278.627 187.52c-5.017-5.017-5.017-13.15 0-18.167l20.185-20.185c5.017-5.017 13.15-5.017 18.167 0 5.017 5.017 5.017 13.15 0 18.167l-20.185 20.185c-5.017 5.016-13.15 5.016-18.167 0z" fill="#70c5e8"/><g fill="#a7306f"><circle cx="232.014" cy="136.986" r="13.986"/><circle cx="365.104" cy="198.987" r="13.986"/><path d="m246.75 305.68c0 7.73-6.27 13.99-13.99 13.99s-13.99-6.26-13.99-13.99c0-7.72 6.27-13.98 13.99-13.98s13.99 6.26 13.99 13.98z"/></g><path d="m246.75 305.68c0 7.73-6.27 13.99-13.99 13.99v-27.97c7.72 0 13.99 6.26 13.99 13.98z" fill="#871155"/><path d="m379.09 198.987c0 7.73-6.27 13.99-13.99 13.99v-27.97c7.72 0 13.99 6.26 13.99 13.98z" fill="#871155"/><path d="m246 136.986c0 7.73-6.27 13.99-13.99 13.99v-27.97c7.72 0 13.99 6.26 13.99 13.98z" fill="#871155"/></g></svg>