<svg id="Capa_1" enable-background="new 0 0 512 512" height="512" viewBox="0 0 512 512" width="512" xmlns="http://www.w3.org/2000/svg"><g><g><path d="m256 314.74c-141.387 0-243.753-148.314-222.327-185.742 44.119-77.069 127.157-128.998 222.327-128.998s178.208 51.929 222.328 128.999c21.425 37.427-80.941 185.741-222.328 185.741z" fill="#e36565"/><path d="m512 256c0 26.051-3.891 51.191-11.129 74.871-5.031 16.469-11.672 32.231-19.75 47.109-8.25 15.2-147.391 51.734-225.121 51.734s-216.871-36.534-225.109-51.734c-3.289-6.031-6.332-12.21-9.121-18.531-14-31.629-21.77-66.629-21.77-103.449 0-46.219 12.25-89.57 33.68-127 44.121 77.07 127.16 129 222.32 129s178.211-51.93 222.32-129c21.43 37.43 33.68 80.781 33.68 127zm0 0" fill="#da3f3e"/><path d="m481.262 377.699c-7.16 13.223-15.434 25.742-24.723 37.43-8.437 10.633-17.719 20.57-27.719 29.723-45.539 41.699-106.211 67.148-172.82 67.148-12.381 0-24.556-.879-36.468-2.579-52.173-7.443-147.737-75.477-153.04-81.311-3.819-4.201-7.499-8.53-11.031-12.981-9.289-11.688-17.563-24.207-24.723-37.43zm0 0" fill="#a52020"/></g><g><path d="m429.203 199.621h-81.803l44.414-44.414h-29.972v-22.207h83.581l-44.414 44.414h28.194z" fill="#728ee4"/><path d="m385.53 310.656h-83.433l44.414-44.414h-29.083v-22.207h82.692l-44.414 44.414h29.824z" fill="#728ee4"/><path d="m66.489 400.225v27.888c38.936 42.846 92.208 72.419 152.235 81.177 38.766-5.381 71.316-18.904 71.316-41.704v-67.361h-111.776z" fill="#dce0ef"/><path d="m178.264 499.969c13.063 4.159 26.58 7.296 40.46 9.321 38.766-5.381 71.316-18.904 71.316-41.704v-67.361h-111.776z" fill="#cad0e7"/><path d="m178.264 333.603h-111.775v66.621c0 30.513 58.296 44.414 111.775 44.414s111.775-13.901 111.775-44.414v-66.621z" fill="#fbf5eb"/><path d="m290.039 400.225v-66.621h-111.775v111.035c53.479 0 111.775-13.901 111.775-44.414z" fill="#dce0ef"/><path d="m178.264 266.242h-111.775v67.361c0 30.513 58.296 44.414 111.775 44.414s111.775-13.901 111.775-44.414v-67.361z" fill="#dce0ef"/><path d="m290.039 333.603v-67.361h-111.775v111.775c53.479.001 111.775-13.901 111.775-44.414z" fill="#cad0e7"/><ellipse cx="178.264" cy="266.242" fill="#fbf5eb" rx="111.775" ry="44.414"/><path d="m290.039 266.242c0-30.513-58.296-44.414-111.775-44.414v88.828c53.479 0 111.775-13.901 111.775-44.414z" fill="#dce0ef"/></g><g fill="#fff"><path d="m289.574 66.774h-1.524c-6.754 0-12.226-5.477-12.226-12.227v-1.523h-8.715v1.523c0 6.75-5.477 12.227-12.227 12.227h-1.527v8.715h1.527c6.75 0 12.227 5.472 12.227 12.226v1.528h8.715v-1.528c0-6.754 5.472-12.226 12.226-12.226h1.524zm0 0"/><path d="m132.895 124.641h-1.524c-6.754 0-12.226-5.477-12.226-12.227v-1.523h-8.715v1.523c0 6.75-5.477 12.227-12.227 12.227h-1.527v8.715h1.527c6.75 0 12.227 5.472 12.227 12.226v1.528h8.715v-1.528c0-6.754 5.472-12.226 12.226-12.226h1.524zm0 0"/><path d="m258.645 161.951h-1.524c-6.754 0-12.226-5.477-12.226-12.227v-1.523h-8.715v1.523c0 6.75-5.477 12.227-12.227 12.227h-1.527v8.715h1.527c6.75 0 12.227 5.472 12.227 12.226v1.528h8.715v-1.528c0-6.754 5.472-12.226 12.226-12.226h1.524zm0 0"/></g></g></svg>