<svg id="Layer_1" enable-background="new 0 0 511 511" height="512" viewBox="0 0 511 511" width="512" xmlns="http://www.w3.org/2000/svg"><g><g><path d="m511 255.5c0 34.212-6.724 66.854-18.924 96.676-38.116 93.178-129.68 136.824-236.576 136.824-141.109 0-244.414-94.346-244.414-235.455 0-76.781 22.782-143.697 76.395-190.533 44.917-39.239 103.692-63.012 168.019-63.012 141.109 0 255.5 114.391 255.5 255.5z" fill="#6ee1ff"/></g><path d="m484.021 369.86c-.008.004-.015.007-.023.011 2.899-5.782 5.598-11.681 8.061-17.702-3.736-8.835-12.484-15.034-22.68-15.034h-33.545-19.74c-7.25 0-13.127 5.877-13.127 13.127v42.654c-4.025.448-10.295.641-16.138.716-6.313.081-10.133-6.941-6.635-12.198 3.047-4.578-.222-10.707-5.721-10.728l-8.297-.032-6.899-.027c-1.308-.005-2.364-1.069-2.359-2.377.005-1.308-1.051-2.372-2.359-2.377l-12.146-.047c-7.885-.03-14.219-6.508-14.222-14.393-.002-7.903-6.409-14.241-14.222-14.271l-76.779 2.483c-13.834.447-27.241-4.679-37.343-14.141-.169-.158-.337-.316-.506-.475-19.078-17.966-21.672-47.327-6.223-68.494 10.696-14.654 23.003-29.958 32.745-37.034l-.47-1.9 91.056-46.074c61.879-6.206 111.789-16.388 143.267-24.003 5.535-1.339 4.499-9.496-1.195-9.402l-78.611 1.295 69.08-34.954c5.223-2.643 2.263-10.567-3.41-9.125-29.477 7.493-73.88 20.438-126.241 41.04-7.022 2.763-14.497 4.201-22.043 4.184l-84.478-.181c-5.807-.012-11.592-.836-17.138-2.56-18.5-5.753-43.637-18.798-59.507-27.141-9.042-4.754-13.763-14.949-11.645-24.943.058-.273.116-.545.175-.818 4.615-21.43-20.705-36.341-37.215-21.92-53.537 46.766-87.39 115.499-87.488 192.147-.18 141.232 114.278 255.839 255.51 255.834 75.271-.003 142.927-32.564 189.68-84.36h.015c15.217-16.857 28.453-36.115 38.816-56.78zm-229.485-200.34s.658 1.362.43 1.74c0 0-45.098 47.109-112.77 37.233-8.001-1.168-15.235-5.296-17.009-13.184l-.031-.138c7.391-2.954 115.355-34.123 129.38-25.651z" fill="#05cdff"/><g><g><path d="m170.858 162.304 271.667-4.474c5.685-.094 6.74 8.061 1.213 9.398-38.021 9.199-102.931 22.153-183.375 27.309-7.643.49-15.268-1.368-21.824-5.328-6.138-3.708-13.21-5.577-20.378-5.387l-30.057.798z" fill="#faf58c"/><path d="m188.606 186.645 7.95-1.265-6.258-25.304c-25.426-3.67-49.35-13.984-69.857-29.456-12.417-9.368-29.167-12.763-45.347-7.218-22.572 7.735-36.368 31.308-32.11 54.785 5.067 27.937 32.627 45.463 59.768 38.75 3.973-.983 7.711-2.43 11.171-4.269 23.462-12.472 48.442-21.849 74.683-26.023zm-126.74-9.885c-3.978-16.083 5.87-32.402 21.953-36.38s32.402 5.87 36.38 21.953-5.87 32.402-21.953 36.38-32.403-5.87-36.38-21.953z" fill="#fc5954"/><path d="m191.631 246.298 241.363-122.128c5.225-2.644 2.264-10.567-3.412-9.124-38.054 9.673-100.97 28.419-173.788 61.015-6.991 3.129-12.87 8.327-16.824 14.886-3.702 6.141-9.088 11.092-15.518 14.264l-26.964 13.304z" fill="#fff"/><path d="m117.784 228.279c-3.918-.014-7.9.448-11.873 1.43-27.142 6.712-43.356 35.064-34.816 62.142 7.176 22.756 30.369 37.18 53.945 33.503 16.9-2.636 30.136-13.447 36.755-27.523 10.931-23.247 27.29-43.524 48.074-58.622l-6.258-25.304-7.623 2.587c-25.163 8.537-51.633 11.885-78.204 11.787zm-7.366 19.653c16.083-3.978 32.402 5.87 36.38 21.953s-5.87 32.402-21.953 36.38-32.402-5.87-36.38-21.953 5.87-32.402 21.953-36.38z" fill="#e20a62"/><circle cx="272.33" cy="186.865" fill="#f8e000" r="7.349"/></g><g><path d="m348.697 390.356v22.927l7.39.028 15.217-22.868z" fill="#ff8500"/><path d="m350.18 390.362-13.532-.052-.088 22.926 13.62.052z" fill="#fa690f"/><path d="m312.261 429.284c1.354-6.503 7.13-11.378 14.032-11.351l14.514.056.125-32.398-14.514-.056c-7.885-.03-14.252-6.447-14.222-14.332.03-7.885-6.337-14.302-14.222-14.332l-.852-.003v72.417h15.139z" fill="#2d56a1"/><g><path d="m313.082 426.135c-7.651.218-13.945-5.988-13.915-13.642l.214-55.546c-.463-.047-.932-.075-1.407-.076l-12.462-.048-.345 89.506 12.517.048c7.876.03 14.277-6.346 14.277-14.222.008-2.16.51-4.199 1.376-6.031-.036.003-.123.007-.255.011z" fill="#1a396b"/></g><path d="m285.225 431.319.287-74.497-137.347 5.176v69.321z" fill="#ff8500"/><path d="m171.708 423.844c-11.403-.518-20.369-9.936-20.325-21.351l.129-33.529c.01-2.508.476-4.906 1.283-7.141l-28.962 1.091c-11.407.43-20.445 9.779-20.489 21.193l-.129 33.529c-.044 11.415 8.922 20.833 20.325 21.351l161.626 7.34.068-17.327z" fill="#fa690f"/><path d="m285.272 419.104.175-45.364-118.959 3.763v41.601z" fill="#ffc305"/><path d="m180.233 409.024c-4.935-.194-8.83-4.261-8.811-9.2l.087-22.48-19.291.61c-4.936.156-8.863 4.193-8.882 9.132l-.108 27.881c-.019 4.939 3.876 9.006 8.811 9.2l133.192 5.243.063-16.251z" fill="#ff8500"/></g><path d="m476.805 429.284c.77-2.385 1.191-4.928 1.191-7.57v-40.278c0-13.594-11.02-24.614-24.614-24.614h-37.502v72.461h60.925z" fill="#2d56a1"/><path d="m419.838 406.089v-49.267h-32.866v89.506h66.411c12.057 0 22.082-8.671 24.196-20.116h-37.619c-11.113 0-20.122-9.01-20.122-20.123z" fill="#1a396b"/></g></g></svg>