<svg id="Capa_1" enable-background="new 0 0 512 512" height="512" viewBox="0 0 512 512" width="512" xmlns="http://www.w3.org/2000/svg"><circle cx="256" cy="256" fill="#ffe400" r="256"/><path d="m512 256c0 87.11-43.52 164.07-110 210.31-41.41 28.8-91.73 45.69-146 45.69s-104.59-16.89-146-45.69c-66.48-46.24-110-123.2-110-210.31 0-46.22 12.25-89.57 33.68-127 44.12 77.07 127.16 129 222.32 129s178.21-51.93 222.32-129c21.43 37.43 33.68 80.78 33.68 127z" fill="#ffce00"/><path d="m450.34 387.07c-6.99 25.01-18.08 47.56-31.91 66.81l-.01.01-.01.01c-44.19 36.29-100.75 58.1-162.41 58.1-19.12 0-37.75-2.1-55.67-6.08-39.89-8.84-76.27-26.99-106.76-52.05-13.84-19.25-24.92-41.8-31.91-66.8-28.46-101.7 18.98-204.23 112.89-204.23 4.7 0 9.33.25 13.91.75 4.27.47 8.55.89 12.82 1.27 18.21 1.61 36.47 2.42 54.72 2.42 22.54 0 45.08-1.23 67.54-3.69 4.58-.5 9.21-.75 13.91-.75 93.91 0 141.35 102.53 112.89 204.23z" fill="#ff576b"/><path d="m450.34 387.07c-6.99 25.01-18.08 47.56-31.91 66.81l-.01.01c-44.19 36.3-100.76 58.11-162.42 58.11-19.12 0-37.75-2.1-55.67-6.08-1.86-1.8-3.61-3.73-5.23-5.8-18.68-23.77-34.43-63.6-41.74-113.05-6.57-44.43-5.48-89.03 1.96-125.16 9.08-44.07 48.27-75.21 93.27-74.67 2.47.03 4.94.04 7.41.04 22.54 0 45.08-1.23 67.54-3.69 4.58-.5 9.21-.75 13.91-.75 93.91 0 141.35 102.53 112.89 204.23z" fill="#fe3345"/><path d="m450.34 387.07c-6.99 25.01-18.08 47.56-31.91 66.81-44.19 36.31-100.77 58.12-162.43 58.12v-324.72c22.54 0 45.08-1.23 67.54-3.69 4.58-.5 9.21-.75 13.91-.75 93.91 0 141.35 102.53 112.89 204.23z" fill="#de1263"/><ellipse cx="323.022" cy="120.256" fill="#69cc29" rx="94.784" ry="35.907" transform="matrix(.707 -.707 .707 .707 9.578 263.633)"/><path d="m256 187.278c33.643-2.049 66.706-15.926 92.413-41.632 25.706-25.706 39.584-58.77 41.632-92.413z" fill="#57b718"/></svg>