<svg id="Layer_1" enable-background="new 0 0 512 512" height="512" viewBox="0 0 512 512" width="512" xmlns="http://www.w3.org/2000/svg"><g><path d="m256 21.995c-135.311 0-245.002 109.691-245.002 245.002 0 92.938 51.75 173.787 128.004 215.311l30.421 13.936c26.921 10.173 56.095 15.756 86.577 15.756s59.656-5.583 86.577-15.755l30.422-13.936c76.254-41.524 128.003-122.373 128.003-215.311 0-135.311-109.691-245.003-245.002-245.003z" fill="#73c3f9"/><path d="m83.164 343.519h345.672c12.777 0 23.135-10.358 23.135-23.135v-230.499c0-12.777-10.358-23.135-23.135-23.135h-345.672c-12.777 0-23.135 10.358-23.135 23.135v230.498c0 12.778 10.358 23.136 23.135 23.136z" fill="#2a428c"/><path d="m182.6 307.246v-204.223c0-20.033 16.24-36.273 36.273-36.273h-135.709c-12.777 0-23.135 10.358-23.135 23.135v230.499c0 12.777 10.358 23.135 23.135 23.135h135.71c-20.034-.001-36.274-16.24-36.274-36.273z" fill="#1c2e7a"/><path d="m315.321 104.104h-42.271c-5.479 0-10.705 2.311-14.391 6.366l-9.798 10.778c-2.771 3.048-2.451 7.79.706 10.438 2.983 2.503 7.41 2.203 10.03-.678l9.798-10.778c.934-1.027 2.266-1.616 3.655-1.616h41.967c3.973 0 7.437-3.062 7.555-7.033.123-4.109-3.171-7.477-7.251-7.477z" fill="#3c58a0"/><path d="m349.884 370.864h-33.312l26.005 125.381c10.502-3.968 20.665-8.624 30.422-13.936z" fill="#d3dcfb"/><path d="m357.23 406.282-7.346-35.418h-33.313l8.435 40.669c.002-.001 12.665-18.521 32.224-5.251z" fill="#bec8f7"/><path d="m139.002 482.309c9.756 5.313 19.92 9.968 30.422 13.936l26.005-125.381h-33.313z" fill="#bec8f7"/><path d="m162.116 370.864-7.146 34.456s18.062-12.975 32.024 6.212l8.435-40.669h-33.313z" fill="#a2b1ea"/><path d="m385.779 437.79h-259.558c-4.718 0-8.544 3.825-8.544 8.544 0 13.241 10.834 24.075 24.075 24.075h228.496c13.241 0 24.075-10.834 24.075-24.075 0-4.719-3.825-8.544-8.544-8.544z" fill="#e9efff"/><g><path d="m272.309 39.404v-23.095c0-9.007-7.301-16.309-16.308-16.309-9.008 0-16.309 7.302-16.309 16.309v23.095z" fill="#d3dcfb"/></g><path d="m256.001 25.738c-7.827 0-14.358-5.515-15.938-12.869-.239 1.11-.371 2.259-.371 3.44v23.095h32.618v-23.095c0-1.181-.132-2.33-.371-3.44-1.581 7.354-8.113 12.869-15.938 12.869z" fill="#bec8f7"/><g><path d="m350.433 70.088v-8.543c0-13.241-10.833-24.075-24.075-24.075h-140.716c-13.241 0-24.074 10.833-24.074 24.075v8.543z" fill="#e9efff"/></g><path d="m271.71 37.47h-86.068c-13.241 0-24.074 10.833-24.074 24.075v8.544h86.068v-8.544c-.001-13.242 10.833-24.075 24.074-24.075z" fill="#d3dcfb"/><path d="m117.677 340.181v8.544c0 13.241 10.833 24.074 24.075 24.074h228.496c13.241 0 24.075-10.833 24.075-24.074v-8.544z" fill="#e9efff"/><path d="m239.678 348.724v-8.544h-122.001v8.544c0 13.241 10.834 24.074 24.075 24.074h122c-13.24.001-24.074-10.833-24.074-24.074z" fill="#d3dcfb"/><g><path d="m264.832 327.207c-1.857 0-3.713-.708-5.13-2.124-16.621-16.622-3.343-44.333 9.498-71.132 10.659-22.245 21.68-45.247 12.324-54.603-9.355-9.358-32.354 1.666-54.599 12.326-26.798 12.843-54.508 26.122-71.129 9.502-16.62-16.621-3.341-44.331 9.501-71.13 10.66-22.243 21.682-45.244 12.326-54.599-2.833-2.834-2.833-7.427 0-10.261 2.833-2.832 7.427-2.832 10.259 0 16.62 16.62 3.341 44.331-9.501 71.13-10.66 22.243-21.682 45.245-12.326 54.599 9.354 9.357 32.356-1.667 54.599-12.326 26.799-12.842 54.51-26.122 71.129-9.501 16.621 16.62 3.343 44.332-9.498 71.132-10.659 22.244-21.68 45.245-12.324 54.602 2.833 2.834 2.833 7.427 0 10.261-1.416 1.416-3.272 2.124-5.129 2.124z" fill="#73c3f9"/></g><g><path d="m155.428 211.063c-1.857 0-3.713-.708-5.13-2.125-2.833-2.834-2.833-7.426 0-10.26l67.041-67.042c2.833-2.832 7.427-2.832 10.26 0 2.833 2.834 2.833 7.427 0 10.26l-67.042 67.042c-1.415 1.417-3.272 2.125-5.129 2.125z" fill="#4fabf7"/></g><g><path d="m259.301 314.936c-1.857 0-3.713-.708-5.13-2.125-2.833-2.834-2.833-7.427 0-10.26l67.041-67.042c2.833-2.832 7.427-2.832 10.26 0 2.833 2.834 2.833 7.426 0 10.26l-67.041 67.042c-1.417 1.416-3.273 2.125-5.13 2.125z" fill="#4fabf7"/></g><g><path d="m172.291 228.699c-1.857 0-3.713-.708-5.13-2.124-2.833-2.834-2.833-7.427 0-10.261l67.428-67.428c2.833-2.833 7.427-2.831 10.259 0 2.833 2.834 2.833 7.426 0 10.26l-67.428 67.428c-1.416 1.417-3.273 2.125-5.129 2.125z" fill="#f76ebb"/></g><circle cx="328.957" cy="111.358" fill="#73c3f9" r="16.538"/><g><path d="m345.597 159.337h-32.207c-4.007 0-7.255-3.248-7.255-7.255s3.248-7.255 7.255-7.255h32.207c4.007 0 7.255 3.248 7.255 7.255-.001 4.007-3.249 7.255-7.255 7.255z" fill="#4b6bb2"/></g><g><path d="m370.746 184.377h-57.356c-4.007 0-7.255-3.248-7.255-7.255s3.248-7.255 7.255-7.255h57.356c4.007 0 7.255 3.248 7.255 7.255s-3.248 7.255-7.255 7.255z" fill="#3c58a0"/></g><g><path d="m370.746 209.417h-57.356c-4.007 0-7.255-3.247-7.255-7.255 0-4.007 3.248-7.255 7.255-7.255h57.356c4.007 0 7.255 3.247 7.255 7.255 0 4.007-3.248 7.255-7.255 7.255z" fill="#3c58a0"/></g><g><g><path d="m428.837 350.774h-345.673c-16.757 0-30.39-13.633-30.39-30.39v-230.499c0-16.757 13.633-30.39 30.39-30.39h345.673c16.757 0 30.389 13.633 30.389 30.39v230.498c0 16.758-13.633 30.391-30.389 30.391zm-345.673-276.77c-8.757 0-15.881 7.124-15.881 15.881v230.498c0 8.757 7.124 15.881 15.881 15.881h345.673c8.756 0 15.88-7.124 15.88-15.881v-230.498c0-8.757-7.124-15.881-15.88-15.881z" fill="#4b6bb2"/></g></g><g><path d="m227.721 280.904c-7.602 0-14.409-2.213-19.975-7.778-16.62-16.621-3.34-44.331 9.502-71.13 10.66-22.243 21.682-45.244 12.327-54.598-9.357-9.357-32.357 1.667-54.6 12.325-26.798 12.843-54.508 26.122-71.129 9.502-2.833-2.834-2.833-7.427 0-10.26 2.833-2.832 7.427-2.832 10.26 0 9.357 9.357 32.357-1.667 54.6-12.326 26.798-12.841 54.51-26.121 71.129-9.502 16.62 16.62 3.34 44.331-9.502 71.13-10.66 22.243-21.682 45.243-12.327 54.598 9.358 9.358 32.359-1.664 54.602-12.324 26.799-12.841 54.513-26.117 71.133-9.498 2.833 2.834 2.833 7.427 0 10.26-2.833 2.832-7.427 2.832-10.26 0-9.357-9.357-32.358 1.665-54.603 12.323-17.825 8.543-36.056 17.278-51.157 17.278z" fill="#fc90ce"/></g><g><path d="m120.929 176.564c-1.857 0-3.713-.708-5.13-2.125-2.833-2.834-2.833-7.426 0-10.26l67.042-67.042c2.833-2.832 7.427-2.832 10.26 0 2.833 2.834 2.833 7.427 0 10.26l-67.042 67.042c-1.416 1.416-3.273 2.125-5.13 2.125z" fill="#f76ebb"/></g><g><path d="m207.302 262.937c-1.857 0-3.713-.708-5.13-2.124-2.833-2.834-2.833-7.427 0-10.26l67.041-67.042c2.833-2.832 7.426-2.832 10.259 0 2.833 2.834 2.833 7.427 0 10.26l-67.041 67.042c-1.415 1.415-3.272 2.124-5.129 2.124z" fill="#4fabf7"/></g><g><path d="m224.165 280.573c-1.857 0-3.713-.708-5.13-2.124-2.833-2.834-2.833-7.427 0-10.26l67.429-67.429c2.833-2.832 7.427-2.832 10.259 0 2.833 2.834 2.833 7.427 0 10.26l-67.428 67.429c-1.417 1.416-3.274 2.124-5.13 2.124z" fill="#f76ebb"/></g><g><path d="m192.619 343.518c0-3.127 1.749-5.854 4.32-7.254h-113.775c-8.756 0-15.88-7.124-15.88-15.881v-230.498c0-8.757 7.124-15.881 15.88-15.881h113.775c-2.571-1.4-4.319-4.127-4.319-7.255s1.749-5.855 4.32-7.255h-113.776c-16.757 0-30.39 13.633-30.39 30.39v230.498c0 16.757 13.633 30.39 30.39 30.39h113.776c-2.572-1.398-4.321-4.126-4.321-7.254z" fill="#2a428c"/></g><path d="m238.29 454.099c0-7.91 5.474-14.525 12.835-16.309h-124.904c-4.718 0-8.544 3.825-8.544 8.544 0 13.241 10.834 24.074 24.074 24.074h109.374c-7.361-1.784-12.835-8.399-12.835-16.309z" fill="#d3dcfb"/></g></svg>