<?xml version="1.0" encoding="iso-8859-1"?>
<!-- Generator: Adobe Illustrator 19.0.0, SVG Export Plug-In . SVG Version: 6.00 Build 0)  -->
<svg version="1.1" id="Capa_1" xmlns="http://www.w3.org/2000/svg" xmlns:xlink="http://www.w3.org/1999/xlink" x="0px" y="0px"
	 viewBox="0 0 512 512" style="enable-background:new 0 0 512 512;" xml:space="preserve">
<path style="fill:#EA4444;" d="M512,256c0,141.385-114.615,256-256,256c-48.126,0-93.151-13.28-131.609-36.376
	C104.8,463.859,106.225,431.901,90.5,415.5c-15.071-15.719-47.469-15.712-58.165-34.866C11.738,343.751,0,301.246,0,256
	C0,114.615,114.615,0,256,0S512,114.615,512,256z"/>
<path style="fill:#D9E7EC;" d="M487.35,257.403c0.018,0.788,0.03,1.578,0.03,2.371c0,5.069-0.381,10.048-1.11,14.913l-9.615,153.843
	c-1.983,31.729-28.295,56.448-60.086,56.448c-28.068,0-52.412-19.396-58.682-46.755l-21.234-92.656
	c-0.153-0.091-0.307-0.18-0.46-0.272H175.807c-0.151,0.091-0.307,0.176-0.459,0.266l-21.235,92.662
	c-3.793,16.553-14.209,30.181-28.057,38.372c-39.107-23.086-71.535-56.269-93.705-95.969L25.73,274.687
	c-0.729-4.865-1.11-9.845-1.11-14.913c0-0.793,0-2.851,0-2.851h0.043C26.172,203.138,70.244,160,124.394,160
	c18.808,0,36.398,5.207,51.413,14.253h160.387C351.209,165.207,368.799,160,387.606,160c54.15,0,98.221,43.138,99.731,96.923h0.043
	L487.35,257.403z"/>
<path style="fill:#C5D3DD;" d="M124.394,160c6.04,0,11.955,0.537,17.699,1.565c-45.761,8.185-80.708,47.566-82.049,95.358H60
	c0,0,0.381,12.899,1.11,17.764l9.615,153.843c0.097,1.554,0.255,3.091,0.467,4.61c-15.071-15.719-28.145-33.361-38.841-52.515
	L25.73,274.687c-0.729-4.865-1.099-16.496-1.08-17.284l-0.03-0.48h0.043C26.172,203.138,70.244,160,124.394,160z M304.49,314.977
	h-96.98c-8.185,12.299-19.024,22.678-31.703,30.317h160.387C323.514,337.655,312.675,327.276,304.49,314.977z M400.507,438.222
	l-18.06-78.806c-16.675-0.849-32.266-5.798-45.794-13.85l21.234,92.656c6.27,27.359,30.614,46.755,58.682,46.755
	c7.494,0,14.677-1.388,21.315-3.904C419.468,474.099,405.111,458.314,400.507,438.222z"/>
<path style="fill:#FFF5F5;" d="M351.46,83.683c-1.953,1.952-4.513,2.929-7.071,2.929c-2.56,0-5.118-0.976-7.071-2.929
	C315.597,61.962,286.718,50,256,50c-30.717,0-59.597,11.962-81.317,33.683c-3.905,3.905-10.237,3.906-14.142,0
	s-3.905-10.237,0-14.142C186.039,44.042,219.94,30,256,30c36.061,0,69.962,14.042,95.46,39.541
	C355.365,73.446,355.365,79.778,351.46,83.683z M256,70c-25.375,0-49.232,9.882-67.175,27.825c-3.905,3.905-3.905,10.237,0,14.142
	s10.237,3.905,14.142,0C217.133,97.801,235.967,90,256,90s38.867,7.801,53.033,21.967c1.953,1.953,4.512,2.929,7.071,2.929
	s5.118-0.977,7.071-2.929c3.905-3.905,3.905-10.237,0-14.142C305.232,79.882,281.375,70,256,70z M256,110
	c-14.691,0-28.503,5.721-38.891,16.109c-3.905,3.905-3.905,10.237,0,14.143c3.905,3.905,10.237,3.905,14.143,0
	C237.862,133.641,246.651,130,256,130s18.138,3.641,24.748,10.251c1.953,1.953,4.512,2.929,7.071,2.929
	c2.559,0,5.118-0.977,7.071-2.929c3.905-3.905,3.905-10.237,0-14.142C284.503,115.721,270.691,110,256,110z"/>
<path style="fill:#9FACBA;" d="M184.394,259.774L184.394,259.774c0,9.941-8.059,18-18,18h-24v24c0,9.941-8.059,18-18,18l0,0
	c-9.941,0-18-8.059-18-18v-24h-24c-9.941,0-18-8.059-18-18l0,0c0-9.941,8.059-18,18-18h24v-24c0-9.941,8.059-18,18-18l0,0
	c9.941,0,18,8.059,18,18v24h24C176.335,241.774,184.394,249.833,184.394,259.774z"/>
<path style="fill:#B6C4CF;" d="M367.606,259.774c0,10.921-8.853,19.774-19.774,19.774s-19.774-8.853-19.774-19.774
	c0-10.921,8.853-19.774,19.774-19.774C358.753,240,367.606,248.853,367.606,259.774z M427.38,240
	c-10.921,0-19.774,8.853-19.774,19.774s8.853,19.774,19.774,19.774s19.774-8.853,19.774-19.774S438.301,240,427.38,240z
	 M387.606,279.774c-10.921,0-19.774,8.853-19.774,19.774s8.853,19.774,19.774,19.774s19.774-8.853,19.774-19.774
	C407.38,288.627,398.527,279.774,387.606,279.774z M387.606,200.226c-10.921,0-19.774,8.853-19.774,19.774
	s8.853,19.774,19.774,19.774S407.38,230.921,407.38,220C407.38,209.079,398.527,200.226,387.606,200.226z M184.394,259.774
	L184.394,259.774c0,9.941-8.059,18-18,18h-24v24c0,7.532-4.63,13.975-11.197,16.66c-6.566-2.684-11.197-9.128-11.197-16.66v-24H98
	c-9.941,0-18-8.059-18-18l0,0c0-9.941,8.059-18,18-18h22v-24c0-7.532,4.631-13.975,11.197-16.66
	c6.566,2.684,11.197,9.128,11.197,16.66v24h24C176.335,241.774,184.394,249.833,184.394,259.774z"/>
<path style="fill:#9FACBA;" d="M340.905,259.774c0,8.669,5.587,16.017,13.351,18.686c-2.016,0.693-4.171,1.088-6.423,1.088
	c-10.921,0-19.774-8.853-19.774-19.774c0-10.921,8.853-19.774,19.774-19.774c2.252,0,4.407,0.394,6.423,1.088
	C346.492,243.757,340.905,251.105,340.905,259.774z M420.453,259.774c0-8.669,5.587-16.017,13.351-18.686
	c-2.016-0.693-4.171-1.088-6.423-1.088c-10.921,0-19.774,8.853-19.774,19.774c0,10.921,8.853,19.774,19.774,19.774
	c2.252,0,4.407-0.394,6.423-1.088C426.04,275.791,420.453,268.443,420.453,259.774z M394.03,201.314
	c-2.016-0.693-4.172-1.088-6.423-1.088c-10.921,0-19.774,8.853-19.774,19.774s8.853,19.774,19.774,19.774
	c2.251,0,4.407-0.394,6.423-1.088c-7.763-2.669-13.351-10.017-13.351-18.686S386.266,203.983,394.03,201.314z M394.03,280.861
	c-2.016-0.693-4.172-1.088-6.423-1.088c-10.921,0-19.774,8.853-19.774,19.774s8.853,19.774,19.774,19.774
	c2.251,0,4.407-0.394,6.423-1.088c-7.763-2.669-13.351-10.017-13.351-18.686C380.679,290.878,386.266,283.53,394.03,280.861z"/>
<g>
</g>
<g>
</g>
<g>
</g>
<g>
</g>
<g>
</g>
<g>
</g>
<g>
</g>
<g>
</g>
<g>
</g>
<g>
</g>
<g>
</g>
<g>
</g>
<g>
</g>
<g>
</g>
<g>
</g>
</svg>
