<svg height="512" viewBox="0 0 512 512" width="512" xmlns="http://www.w3.org/2000/svg"><g id="BULINE"><circle cx="256" cy="256" fill="#f6c752" r="256"/></g><g id="Icons"><path d="m363.55 39.78h-52.32a7.92 7.92 0 0 0 0 15.83h3.1v181.39a23.06 23.06 0 0 0 23.06 23.07 23.06 23.06 0 0 0 23.06-23.07v-181.39h3.1a7.92 7.92 0 1 0 0-15.83z" fill="#c3e7fc"/><path d="m339.11 65.94a14.45 14.45 0 0 0 -14.45 14.46v167a22.94 22.94 0 0 0 2.42 10.3 23.05 23.05 0 0 1 -12.75-20.7v-181.39h46.12v10.33z" fill="#a4d9f7"/><path d="m339.09 251.27h-3.39a16 16 0 0 1 -16-16v-52.65h35.46v52.62a16 16 0 0 1 -16.07 16.03z" fill="#aa60fa"/><path d="m324.66 182.62v64.24a16 16 0 0 1 -5-11.62v-52.62z" fill="#934cf5"/><ellipse cx="345.65" cy="94.98" fill="#fff" rx="8.26" ry="13.42"/><ellipse cx="345.65" cy="124.03" fill="#fff" rx="6.69" ry="10.87"/><g fill="#934cf5"><circle cx="337.39" cy="237.61" r="6.2"/><circle cx="332.77" cy="198.7" r="6.2"/><circle cx="348.75" cy="189.41" r="3.1"/><circle cx="338.96" cy="217.84" r="3.1"/></g><rect fill="#db1b1b" height="61.44" rx="9.89" width="382.88" x="51.7" y="323.39"/><ellipse cx="406.1" cy="345.51" fill="#e83d3d" rx="18.23" ry="11.22"/><ellipse cx="366.64" cy="345.51" fill="#e83d3d" rx="14.76" ry="9.08"/><path d="m434.58 366.78v8.16a9.88 9.88 0 0 1 -9.89 9.88h-363.1a9.88 9.88 0 0 1 -9.89-9.88v-41.67a9.88 9.88 0 0 1 9.89-9.88h4.13v33.5a9.89 9.89 0 0 0 9.9 9.89z" fill="#bf1b1b"/><path d="m93.31 323.39h27.11v61.44h-27.11z" fill="#e88032"/><path d="m131.64 323.39h13.55v61.44h-13.55z" fill="#e88032"/><path d="m93.31 366.78h27.11v18.04h-27.11z" fill="#d16b26"/><path d="m131.64 366.78h13.56v18.04h-13.56z" fill="#d16b26"/><rect fill="#38c487" height="61.44" rx="9.89" width="382.88" x="115.66" y="261.37"/><ellipse cx="470.06" cy="283.49" fill="#4acc97" rx="18.23" ry="11.22"/><ellipse cx="430.6" cy="283.49" fill="#4acc97" rx="14.76" ry="9.08"/><path d="m498.54 304.76v8.16a9.88 9.88 0 0 1 -9.89 9.88h-363.1a9.88 9.88 0 0 1 -9.89-9.88v-41.67a9.88 9.88 0 0 1 9.89-9.88h4.13v33.5a9.89 9.89 0 0 0 9.9 9.89z" fill="#00b564"/><path d="m157.27 261.37h27.11v61.44h-27.11z" fill="#db1b1b"/><path d="m195.6 261.37h13.55v61.44h-13.55z" fill="#db1b1b"/><path d="m157.27 304.76h27.11v18.04h-27.11z" fill="#bf1b1b"/><path d="m195.6 304.76h13.56v18.04h-13.56z" fill="#bf1b1b"/><path d="m291.17 178.47a80.16 80.16 0 0 1 -2.55 10.61c-8.5 27.9-33.79 74.43-55 71.16a14.71 14.71 0 0 1 -4.5-1.49 22 22 0 0 0 -20.06 0 14.63 14.63 0 0 1 -4.5 1.49c-24.21 3.74-53.78-57.56-57.52-81.77a44.36 44.36 0 0 1 64.96-45.8 15 15 0 0 0 14.23 0 44 44 0 0 1 22.35-5.32 45.12 45.12 0 0 1 5.51.5 44.38 44.38 0 0 1 37.08 50.62z" fill="#db1b1b"/><path d="m291.17 178.47a80.16 80.16 0 0 1 -2.55 10.61c-24.63-1.47-44.11-20.54-44.11-43.85a41.17 41.17 0 0 1 4.07-17.88 45.12 45.12 0 0 1 5.51.5 44.38 44.38 0 0 1 37.08 50.62z" fill="#e53838"/><ellipse cx="201.38" cy="106.06" fill="#b0d46c" rx="13.88" ry="26.84" transform="matrix(.707 -.707 .707 .707 -16.02 173.46)"/><ellipse cx="201.38" cy="106.06" fill="#b0d46c" rx="13.88" ry="26.84" transform="matrix(.707 -.707 .707 .707 -16.02 173.46)"/><path d="m182.4 87.09 37.95 38a32.88 32.88 0 0 1 -37.95-38z" fill="#9ebc5b"/><path d="m211 257.87a20 20 0 0 0 -2 .88 14.54 14.54 0 0 1 -4.5 1.49c-24.21 3.74-53.78-57.56-57.52-81.77a44.39 44.39 0 0 1 52.69-50.26 44.36 44.36 0 0 0 -35.07 50.26c3.26 20.58 25.09 67.94 46.4 79.4z" fill="#bf1919"/><ellipse cx="275.02" cy="179.37" fill="#ea5050" rx="12.31" ry="7.58" transform="matrix(.332 -.943 .943 .332 14.4 379.1)"/><ellipse cx="266.16" cy="204.5" fill="#ea5050" rx="9.97" ry="6.13" transform="matrix(.332 -.943 .943 .332 -15.21 387.52)"/><path d="m207.41 136.46a39.81 39.81 0 0 0 22.5 0 1.42 1.42 0 0 1 1.36 2.41c-5.32 4.76-15.15 10.38-25.3-.1a1.41 1.41 0 0 1 1.44-2.31z" fill="#bf1919"/><path d="m218.65 142.2a3.2 3.2 0 0 1 -3.19-3c-.06-1.11-1.1-27.24 20.23-41.54a3.2 3.2 0 0 1 3.57 5.32c-18.35 12.3-17.42 35.67-17.41 35.9a3.2 3.2 0 0 1 -3 3.36z" fill="#9e4830"/><path d="m477.26 384.82a256.06 256.06 0 0 1 -442.52 0z" fill="#a65c3b"/></g></svg>