<svg id="Capa_1" enable-background="new 0 0 512 512" height="512" viewBox="0 0 512 512" width="512" xmlns="http://www.w3.org/2000/svg"><circle cx="256" cy="256" fill="#65b2fe" r="256"/><path d="m512 256c0 87.11-43.52 164.07-110 210.31-41.41 28.8-91.73 45.69-146 45.69s-104.59-16.89-146-45.69c-66.48-46.24-110-123.2-110-210.31 0-46.22 12.25-89.57 33.68-127 44.12 77.07 127.16 129 222.32 129s178.21-51.93 222.32-129c21.43 37.43 33.68 80.78 33.68 127z" fill="#0e9ce7"/><path d="m452 316c0 105.34-83.12 191.28-187.34 195.81-.31.02-.62.03-.93.04-.87.03-1.74.06-2.6.08-1.73.05-3.44.07-5.13.07-108.24 0-196-87.76-196-196s87.76-196 196-196h.28c108.11.15 195.72 87.85 195.72 196z" fill="#ffe853"/><path d="m452 316c0 105.34-83.12 191.28-187.34 195.81-.31.02-.62.03-.93.04-.87.03-1.74.06-2.6.08-1.73.05-3.44.07-5.13.07-58.54-45.3-103.35-116.25-103.35-196s44.81-150.7 103.35-196h.28c108.11.15 195.72 87.85 195.72 196z" fill="#fed110"/><path d="m452 316c0 108.244-87.756 196-196 196v-392c108.244 0 196 87.756 196 196z" fill="#ff9f01"/><path d="m440.89 250.78c-9.16-25.96-23.63-49.41-42.11-69.05v268.53c14.77-15.69 26.97-33.81 35.94-53.69 11.1-24.58 17.28-51.85 17.28-80.57 0-22.87-3.92-44.82-11.11-65.22z" fill="#29334c"/><circle cx="187.667" cy="278.18" fill="#fff" r="46.095"/><circle cx="187.667" cy="278.18" fill="#29334c" r="25.616"/><circle cx="324.333" cy="278.18" fill="#fff" r="46.095"/><circle cx="324.333" cy="278.18" fill="#29334c" r="25.616"/><path d="m71.11 250.78c-7.19 20.4-11.11 42.35-11.11 65.22 0 28.72 6.18 55.99 17.28 80.57 8.98 19.89 21.18 38.01 35.94 53.7v-268.53c-18.48 19.64-32.95 43.09-42.11 69.04z" fill="#313b5a"/><path d="m434.72 396.57c-29.73 65.84-94.78 112.32-170.99 115.28-.87.03-1.74.06-2.6.08-.13 0-.25.01-.38.01-.56.02-1.12.03-1.68.03-1.03.02-2.05.03-3.07.03-79.52 0-147.99-47.37-178.72-115.43 21.5-18.46 48.22-33.54 78.51-44.02 30.39-10.53 64.36-16.41 100.21-16.41 71.56 0 135.65 23.45 178.72 60.43z" fill="#4e679b"/><path d="m256 336.14c71.56 0 135.65 23.45 178.72 60.43-29.73 65.84-94.78 112.32-170.99 115.28-.87.03-1.74.06-2.6.08-.13 0-.25.01-.38.01-.56.02-1.12.03-1.68.03-1.03.02-2.05.03-3.07.03-49.43-38.25-89.06-94.78-100.21-159.45 30.39-10.53 64.36-16.41 100.21-16.41z" fill="#364d7f"/><path d="m440.89 250.78h-369.78c7.23-20.49 17.77-39.42 30.99-56.15 35.89-45.46 91.5-74.63 153.9-74.63h.28c62.29.09 117.78 29.24 153.62 74.63 13.21 16.72 23.76 35.66 30.99 56.15z" fill="#4e689b"/><path d="m440.89 250.78h-278.18c16.4-52.64 51.32-98.3 93.29-130.78h.28c62.29.09 117.78 29.24 153.62 74.63 13.21 16.72 23.76 35.66 30.99 56.15z" fill="#364d7f"/><path d="m256 336.14c71.56 0 135.65 23.45 178.72 60.43-30.69 67.98-99.04 115.32-178.44 115.43h-.28z" fill="#303c5a"/><path d="m440.89 250.78h-184.89v-130.78h.28c85.25.12 157.76 54.68 184.61 130.78z" fill="#303c5a"/><path d="m440.89 250.78h-369.78c7.23-20.49 17.77-39.42 30.99-56.15h307.8c13.21 16.72 23.76 35.66 30.99 56.15z" fill="#364d7f"/><path d="m440.89 250.78h-278.18c6.17-19.82 14.97-38.65 25.78-56.15h221.41c13.21 16.72 23.76 35.66 30.99 56.15z" fill="#303c5a"/><path d="m440.89 250.78h-184.89v-56.15h153.9c13.21 16.72 23.76 35.66 30.99 56.15z" fill="#20273a"/><path d="m279.42 199.85-22.15-40.5-22.15 40.5-40.5 22.15 40.5 22.15 22.15 40.5 22.15-40.5 40.5-22.15zm-22.15 37.59c-.42.04-.84.06-1.27.06-8.56 0-15.5-6.94-15.5-15.5s6.94-15.5 15.5-15.5c.43 0 .85.02 1.27.06 7.97.64 14.23 7.31 14.23 15.44s-6.26 14.8-14.23 15.44z" fill="#fff"/><path d="m319.92 222-40.5 22.15-22.15 40.5v-47.21c7.97-.64 14.23-7.31 14.23-15.44s-6.26-14.8-14.23-15.44v-47.21l22.15 40.5z" fill="#d1f6ff"/></svg>