<svg id="Capa_1" enable-background="new 0 0 512 512" height="512" viewBox="0 0 512 512" width="512" xmlns="http://www.w3.org/2000/svg"><g><g><g><g><g><g><circle cx="256" cy="256" fill="#ffce00" r="256"/></g></g></g></g></g><path d="m512 256c0-3.021-.052-6.03-.156-9.026l-67.056-67.056-2.135 4.332-84.664-84.664-260.561 254.347 158.066 158.066c.169 0 .337.001.506.001 141.385 0 256-114.615 256-256z" fill="#ffa300"/><g><path d="m238.43 342.341-29.215-6.815c11.277-48.34-24.864-78.45-26.408-79.707l18.771-23.402c2.151 1.716 52.508 42.817 36.852 109.924z" fill="#7584f2"/></g><g fill="#606aea"><path d="m314.33 289.203v-13.743h-35.932v-15.094l28.498-46.295h26.921v44.38h9.124v17.009h-9.124v13.742h-19.487zm0-58.236-17.121 27.484h17.121z"/><path d="m349.808 279.628 10.589-13.517c5.182 4.731 12.277 7.321 19.486 7.321 8.223 0 12.278-4.055 12.278-8.673 0-5.069-3.942-8.673-11.715-8.673-5.97 0-10.701 1.69-14.868 5.632l-13.404-3.267v-44.38h54.518v16.896h-35.143v14.531c3.604-3.492 9.462-5.97 16.107-5.97 12.728 0 24.218 9.349 24.218 24.443 0 16.22-12.278 26.583-31.765 26.583-13.293 0-23.317-4.055-30.301-10.926z"/></g><g><path d="m441.353 353.933h-343.925l-10.607-25.606 249.954-249.954 21.213 21.212-224.347 224.348h307.712z" fill="#636978"/></g><g fill="#414952"><path d="m357.988 99.585-21.213-21.212-80.654 80.654v42.426z"/><path d="m256.121 323.933h185.233v30h-185.233z"/></g><g><path d="m429.515 213.638c-11.208 0-20.326-9.118-20.326-20.326s9.118-20.326 20.326-20.326c11.207 0 20.325 9.118 20.325 20.326s-9.118 20.326-20.325 20.326zm0-28.653c-4.591 0-8.326 3.735-8.326 8.326s3.735 8.326 8.326 8.326 8.325-3.735 8.325-8.326-3.735-8.326-8.325-8.326z" fill="#606aea"/></g></g></svg>