<?xml version="1.0" encoding="iso-8859-1"?>
<!-- Generator: Adobe Illustrator 19.0.0, SVG Export Plug-In . SVG Version: 6.00 Build 0)  -->
<svg version="1.1" id="Capa_1" xmlns="http://www.w3.org/2000/svg" xmlns:xlink="http://www.w3.org/1999/xlink" x="0px" y="0px"
	 viewBox="0 0 512 512" style="enable-background:new 0 0 512 512;" xml:space="preserve">
<circle style="fill:#FFB74F;" cx="256" cy="256" r="256"/>
<path style="fill:#E67500;" d="M511.527,271.38L331.781,91.633c-18.843-20.459-45.839-33.3-75.781-33.3
	c-56.818,0-103.041,46.225-103.041,103.042v63.929h-27.095v143.988c0,16.96,7.04,32.256,18.343,43.164l99.369,99.239
	C247.693,511.892,251.834,512,256,512C392.22,512,503.571,405.602,511.527,271.38z"/>
<path style="fill:#FFFFFF;" d="M359.041,245.173h-43.544v-83.798c0-32.807-26.692-59.497-59.497-59.497s-59.497,26.69-59.497,59.497
	v83.798h-43.544v-83.798c0-56.816,46.223-103.041,103.041-103.041s103.041,46.225,103.041,103.041L359.041,245.173L359.041,245.173z
	"/>
<path style="fill:#FFEC97;" d="M359.051,161.361v83.803h-43.538v-83.803c0-32.801-26.712-59.48-59.513-59.48V58.343
	C312.829,58.343,359.051,104.566,359.051,161.361z"/>
<path style="fill:#96A0F0;" d="M386.137,225.304v143.988c0,33.157-26.869,60.001-60.001,60.001H185.865
	c-33.132,0-60.001-26.844-60.001-60.001V225.304H386.137z"/>
<path style="fill:#4A5BE5;" d="M386.14,225.3v143.99c0,33.16-26.87,60-60,60H256V225.3H386.14z"/>
<path style="fill:#3A4DE3;" d="M288.487,302.627c0-17.942-14.545-32.487-32.487-32.487s-32.486,14.545-32.486,32.487
	c0,12.249,6.785,22.905,16.795,28.44v29.236c0,7.722,6.318,14.04,14.04,14.04h3.303c7.722,0,14.04-6.318,14.04-14.04v-29.236
	C281.702,325.531,288.487,314.875,288.487,302.627z"/>
<path style="fill:#1C2EDE;" d="M288.49,302.63c0,12.25-6.79,22.9-16.8,28.44v29.23c0,7.72-6.32,14.04-14.04,14.04H256v-104.2
	C273.94,270.14,288.49,284.68,288.49,302.63z"/>
<g>
</g>
<g>
</g>
<g>
</g>
<g>
</g>
<g>
</g>
<g>
</g>
<g>
</g>
<g>
</g>
<g>
</g>
<g>
</g>
<g>
</g>
<g>
</g>
<g>
</g>
<g>
</g>
<g>
</g>
</svg>
