<svg id="Capa_1" enable-background="new 0 0 512 512" height="512" viewBox="0 0 512 512" width="512" xmlns="http://www.w3.org/2000/svg"><g><g><g><g><g><g><g><circle cx="256" cy="256" fill="#ffce00" r="256"/></g></g></g></g></g></g><path d="m512 256c0-26.559-4.045-52.173-11.551-76.26l-76.001-76.001-62.892 30 49.707 49.707-4.705 28.444-52.624-52.624-39.174 38.69-38.69-38.69-32.364 37.735-93.262-93.262-42.516 23.201-20.376 279.321 95.066 95.066c23.246 6.943 47.878 10.673 73.382 10.673 141.385 0 256-114.615 256-256z" fill="#ffa300"/><g><g><path d="m150.444 406.261h-62.892v-302.522h62.892v30h-32.892v242.522h32.892z" fill="#555a66"/></g><g><path d="m424.448 406.261h-62.892v-30h32.892v-242.522h-32.892v-30h62.892z" fill="#333940"/></g></g><g><g><g><path d="m158.067 159.266h40.139v40.139h-40.139z" fill="#7584f2"/></g><g><path d="m158.067 310.596h40.139v40.139h-40.139z" fill="#7584f2"/></g><g><path d="m158.067 234.931h40.139v40.139h-40.139z" fill="#7584f2"/></g></g><g><g><path d="m313.795 159.266h40.139v40.139h-40.139z" fill="#606aea"/></g><g><path d="m313.795 310.596h40.139v40.139h-40.139z" fill="#606aea"/></g><g><path d="m313.795 234.931h40.139v40.139h-40.139z" fill="#606aea"/></g></g></g><g><g><path d="m235.931 159.266h40.139v40.139h-40.139z" fill="#7584f2"/></g><g><path d="m256.121 159.266h19.949v40.138h-19.949z" fill="#606aea"/></g><g><path d="m235.931 310.596h40.139v40.139h-40.139z" fill="#7584f2"/></g><g><path d="m256.121 310.596h19.949v40.138h-19.949z" fill="#606aea"/></g><g><path d="m235.931 234.931h40.139v40.139h-40.139z" fill="#7584f2"/></g><g><path d="m256.121 234.931h19.949v40.139h-19.949z" fill="#606aea"/></g></g></g></svg>