<svg id="Capa_1" enable-background="new 0 0 512 512" height="512" viewBox="0 0 512 512" width="512" xmlns="http://www.w3.org/2000/svg"><g><g><path d="m0 256c0 43.79 11 85.02 30.39 121.07l225.61 49.67 225.61-49.67c19.39-36.05 30.39-77.28 30.39-121.07 0-46.63-12.47-90.34-34.26-128-41.698 72.091-399.22 76.52-443.48 0-21.79 37.66-34.26 81.37-34.26 128z" fill="#9865d8"/><path d="m34.26 128c44.26 76.52 126.99 128 221.74 128s177.48-51.48 221.74-128c-.01-.02-.03-.05-.04-.07-44.27-76.48-126.98-127.93-221.7-127.93s-177.43 51.45-221.7 127.93c-.01.02-.03.05-.04.07z" fill="#b895e4"/><path d="m30.39 377.07c43.19 80.32 128.02 134.93 225.61 134.93s182.42-54.61 225.61-134.93z" fill="#5541b5"/></g><g><path d="m194.425 150.422v242.864c0 14.356-5.822 27.363-15.233 36.774s-22.418 15.233-36.774 15.233c-28.719 0-52.006-23.287-52.006-52.006v-242.865z" fill="#9feafd"/><path d="m194.425 158.034v235.251c0 14.356-5.822 27.363-15.233 36.774s-22.418 15.233-36.774 15.233v-287.258z" fill="#70c5e8"/><path d="m167.566 241.952v151.335c0 6.714-2.61 13.03-7.358 17.778-4.759 4.759-11.075 7.369-17.789 7.369-13.868 0-25.147-11.279-25.147-25.148v-151.334z" fill="#d9696f"/><path d="m217.831 160.082c0 15.589-12.64 28.229-28.239 28.229h-94.346c-7.794 0-14.864-3.157-19.968-8.271-5.114-5.104-8.271-12.163-8.271-19.958 0-15.589 12.64-28.229 28.239-28.229h94.347c7.794 0 14.864 3.157 19.967 8.271 5.114 5.104 8.271 12.163 8.271 19.958z" fill="#c3f3ff"/><path d="m217.831 160.082c0 15.589-12.64 28.229-28.239 28.229h-47.173v-56.457h47.173c7.794 0 14.864 3.157 19.967 8.271 5.115 5.103 8.272 12.162 8.272 19.957z" fill="#9feafd"/><path d="m167.566 241.952v151.335c0 6.714-2.61 13.03-7.358 17.778-4.759 4.759-11.075 7.369-17.789 7.369v-176.482z" fill="#da504f"/></g><g><path d="m394.547 444.474h-133.439c-36.083 0-58.631-39.048-40.584-70.297l55.301-95.788v-127.971h104.016v127.971l55.301 95.788c18.035 31.249-4.512 70.297-40.595 70.297z" fill="#9feafd"/><path d="m394.547 444.474h-66.72v-294.056h52.013v127.971l55.301 95.788c18.036 31.249-4.511 70.297-40.594 70.297z" fill="#70c5e8"/><path d="m411.885 407.617c-1.74 3.008-6.907 10.001-17.338 10.001h-133.439c-10.431 0-15.598-6.993-17.338-10.001-1.729-3.008-5.21-10.978.011-20.013l58.899-102.018v-61.155h50.305v61.155l58.899 102.018c5.211 9.035 1.73 17.005.001 20.013z" fill="#f5dc6e"/><path d="m411.885 407.617c-1.74 3.008-6.907 10.001-17.338 10.001h-66.72v-193.187h25.158v61.155l58.899 102.018c5.211 9.035 1.73 17.005.001 20.013z" fill="#eebf36"/><path d="m403.241 160.082c0 15.589-12.64 28.229-28.238 28.229h-94.347c-7.794 0-14.864-3.157-19.967-8.271-5.114-5.104-8.271-12.163-8.271-19.958 0-15.589 12.64-28.229 28.239-28.229h94.347c7.794 0 14.864 3.157 19.967 8.271 5.113 5.104 8.27 12.163 8.27 19.958z" fill="#c3f3ff"/><path d="m403.241 160.082c0 15.589-12.64 28.229-28.238 28.229h-47.173v-56.457h47.173c7.794 0 14.864 3.157 19.967 8.271 5.114 5.103 8.271 12.162 8.271 19.957z" fill="#9feafd"/></g></g></svg>