<?xml version="1.0" encoding="iso-8859-1"?>
<!-- Generator: Adobe Illustrator 19.0.0, SVG Export Plug-In . SVG Version: 6.00 Build 0)  -->
<svg version="1.1" id="Capa_1" xmlns="http://www.w3.org/2000/svg" xmlns:xlink="http://www.w3.org/1999/xlink" x="0px" y="0px"
	 viewBox="0 0 512 512" style="enable-background:new 0 0 512 512;" xml:space="preserve">
<path style="fill:#90D2E3;" d="M512,256c0,141.385-114.615,256-256,256S0,397.385,0,256S114.615,0,256,0S512,114.615,512,256z"/>
<path style="fill:#6BC5DC;" d="M446.299,427.223H149.223c-1.105,0-2-0.895-2-2V66.317c39.406-24.76,86.026-39.094,136-39.094
	c63.763,0,122.076,23.319,166.892,61.885C488.682,133.924,512,192.237,512,256C512,321.839,487.137,381.865,446.299,427.223z"/>
<path style="fill:#D9E7EC;" d="M511.998,254.876c0.231,53.826-16.159,103.808-44.32,145.124H122c-1.105,0-2-0.895-2-2V39.094
	c38.994-24.501,85.051-38.793,134.433-39.089C396.447-0.847,511.387,112.861,511.998,254.876z"/>
<path style="fill:#C5D3DD;" d="M410,107v11c0,1.105-0.896,2-2,2H162c-1.104,0-2-0.895-2-2v-11c0-1.105,0.896-2,2-2h246
	C409.105,105,410,105.895,410,107z M162,60h258.664c-6.31-5.307-12.878-10.313-19.686-15H162c-1.104,0-2,0.895-2,2v11
	C160,59.105,160.896,60,162,60z M162,30h214.323c-10.833-5.779-22.127-10.803-33.818-15h-173.01
	c-3.195,1.147-6.359,2.359-9.495,3.628V28C160,29.105,160.896,30,162,30z M162,90h288.87c-4.416-5.179-9.022-10.19-13.832-15H162
	c-1.104,0-2,0.895-2,2v11C160,89.105,160.896,90,162,90z"/>
<path style="fill:#235967;" d="M512,192.91c0,1.894-1.07,3.625-2.764,4.472L492,206v31.724C492,297.523,443.523,346,383.724,346l0,0
	c-52.93,0-98.101-38.266-106.803-90.476L268.667,206h-25.333l-8.254,49.524C226.378,307.734,181.206,346,128.276,346l0,0
	C68.477,346,20,297.523,20,237.724V206l-17.236-8.618C1.07,196.535,0,194.804,0,192.91V171c0-2.761,2.239-5,5-5h35h20h166.391
	c7.488,0,13.885,4.077,17.316,10h24.586c3.431-5.923,9.828-10,17.316-10H452h20h35c2.761,0,5,2.239,5,5V192.91z"/>
<path style="fill:#174550;" d="M148.245,344.143c-6.489,1.214-13.163,1.857-19.969,1.857l0,0C68.477,346,20,297.523,20,237.724V206
	l-17.236-8.618C1.07,196.535,0,194.804,0,192.91V171c0-2.761,2.239-5,5-5h35h5c-2.761,0-5,2.239-5,5v21.91
	c0,1.894,1.07,3.625,2.764,4.472L60,206v31.724C60,290.678,98.017,334.747,148.245,344.143z"/>
<path style="fill:#8BEBDB;" d="M205.487,250.593C199.171,288.492,166.699,316,128.276,316C85.114,316,50,280.885,50,237.724V196
	h164.587L205.487,250.593z M306.513,250.593C312.829,288.492,345.301,316,383.724,316C426.886,316,462,280.885,462,237.724V196
	H297.413L306.513,250.593z"/>
<path style="fill:#5EE2C5;" d="M214.587,196l-9.1,54.593C199.171,288.492,166.699,316,128.276,316
	c-6.895,0-13.581-0.905-19.954-2.587c29.214-7.665,51.986-31.743,57.165-62.821l9.1-54.593h40V196z M430,196v41.724
	c0,37.683-26.768,69.228-62.288,76.629c5.179,1.069,10.531,1.647,16.011,1.647C426.886,316,462,280.885,462,237.724V196H430z"/>
<g>
</g>
<g>
</g>
<g>
</g>
<g>
</g>
<g>
</g>
<g>
</g>
<g>
</g>
<g>
</g>
<g>
</g>
<g>
</g>
<g>
</g>
<g>
</g>
<g>
</g>
<g>
</g>
<g>
</g>
</svg>
