<svg id="Capa_1" enable-background="new 0 0 512 512" height="512" viewBox="0 0 512 512" width="512" xmlns="http://www.w3.org/2000/svg"><g><g><path d="m512 256c0 141.387-114.613 256-256 256s-256-114.613-256-256 114.613-256 256-256 256 114.613 256 256zm0 0" fill="#aaed58"/><path d="m512 256c0 26.051-3.891 51.191-11.129 74.871-5.031 16.469-11.672 32.231-19.75 47.109-8.25 15.2-18 29.461-29.051 42.61-.582.691-1.16 1.379-1.75 2.058-46.941 54.704-116.59 89.352-194.32 89.352s-147.379-34.648-194.309-89.352c-.589-.687-1.179-1.378-1.75-2.07-11.062-13.137-20.812-27.398-29.05-42.598-3.289-6.031-6.332-12.21-9.121-18.531-14-31.629-21.77-66.629-21.77-103.449 0-46.219 12.25-89.57 33.68-127 44.121 77.07 127.16 129 222.32 129s178.211-51.93 222.32-129c21.43 37.43 33.68 80.781 33.68 127zm0 0" fill="#6abb5e"/><path d="m481.262 377.699c-7.16 13.223-15.434 25.742-24.723 37.43-8.437 10.633-17.719 20.57-27.719 29.723-45.539 41.699-106.211 67.148-172.82 67.148s-127.281-25.449-172.82-67.148c-10-9.153-19.282-19.09-27.719-29.723-9.289-11.688-17.563-24.207-24.723-37.43zm0 0" fill="#303a59"/></g><g><path d="m374.804 390.288-3.047 31.548 56.218 21.622-21.623-56.217z" fill="#64b0fb"/><path d="m383.442 327.672-71.315-.062.062 71.315 59.568 22.911 34.595-34.595z" fill="#ffd19c"/><path d="m137.443 106.897h100.766v192.825h-100.766z" fill="#afe8fd" transform="matrix(.707 -.707 .707 .707 -88.749 192.361)"/><path d="m251.524 252.468h100.766v129.847h-100.766z" fill="#64b0fb" transform="matrix(.707 -.707 .707 .707 -136.003 306.443)"/><path d="m105.647 387.241-21.622 56.217 67.421-38.92z" fill="#dc4180"/><path d="m105.647 387.241-21.622 56.217 29.76-48.08z" fill="#ff69a7"/><path d="m84.025 443.458 56.218-21.622-3.048-31.548z" fill="#cb2e81"/><path d="m208.448 347.536-79.89-19.863-22.911 59.568 17.298 17.297z" fill="#fff0be"/><path d="m146.371 345.486-17.813-17.813-22.911 59.568 8.138 8.137z" fill="#fffae6"/><path d="m194.198 333.285-71.253 71.253 17.298 17.298 59.568-22.911z" fill="#ffd19c"/><path d="m164.185 363.299 35.626 35.626 228.164-228.163-35.627-35.627-142.583 85.581z" fill="#cb2e81"/><path d="m99.117 206.212h322.672v50.383h-322.672z" fill="#dc4180" transform="matrix(.707 -.707 .707 .707 -87.342 251.945)"/><path d="m90.211 209.902h322.672v25.191h-322.672z" fill="#ff69a7" transform="matrix(.707 -.707 .707 .707 -83.653 243.039)"/></g></g></svg>