<svg id="Capa_1" enable-background="new 0 0 512 512" height="512" viewBox="0 0 512 512" width="512" xmlns="http://www.w3.org/2000/svg"><path d="m512 256c0 107.07-65.74 198.79-159.05 237l-75.27 18.09h-.01c-7.14.6-14.37.91-21.67.91-6.92 0-13.78-.27-20.57-.82l-74.99-17.62c-94.05-37.86-160.44-129.96-160.44-237.56 0-141.38 114.62-256 256-256s256 114.62 256 256z" fill="#65b2fe"/><path d="m512 256c0 87.11-43.52 164.07-110 210.31-15.22 10.59-31.66 19.57-49.05 26.69l-75.27 18.09h-.01c-7.14.6-14.37.91-21.67.91-6.93 0-13.79-.27-20.58-.82l-74.98-17.62c-17.9-7.2-34.81-16.38-50.44-27.25-66.48-46.24-110-123.2-110-210.31 0-46.22 12.25-89.57 33.68-127 44.12 77.07 127.16 129 222.32 129s178.21-51.93 222.32-129c21.43 37.43 33.68 80.78 33.68 127z" fill="#0e9ce7"/><path d="m452 316c0 105.34-83.12 191.28-187.34 195.81-.31.02-.62.03-.93.04-.87.03-1.74.06-2.6.08-1.73.05-3.44.07-5.13.07-108.24 0-196-87.76-196-196s87.76-196 196-196h.28c108.11.15 195.72 87.85 195.72 196z" fill="#ffe853"/><path d="m452 316c0 105.34-83.12 191.28-187.34 195.81-.31.02-.62.03-.93.04-.87.03-1.74.06-2.6.08-1.73.05-3.44.07-5.13.07-58.54-45.3-103.35-116.25-103.35-196s44.81-150.7 103.35-196h.28c108.11.15 195.72 87.85 195.72 196z" fill="#fed110"/><path d="m452 316c0 108.244-87.756 196-196 196v-392c108.244 0 196 87.756 196 196z" fill="#ff9f01"/><path d="m228.256 285.543c-1.387 25.862-21.923 47.141-47.722 49.409-30.245 2.659-55.841-20.412-57.193-49.859-.036-.71-.057-1.436-.061-2.146 0-.057-.001-.114-.001-.171-.015-4.895 6.39-6.829 9.182-2.808 9.54 13.738 25.477 22.693 43.461 22.582 17.981-.111 33.804-9.248 43.189-23.094 2.772-4.09 9.187-2.151 9.223 2.79.007 1.092-.018 2.191-.078 3.297z" fill="#29334c"/><path d="m388.643 285.543c-1.387 25.862-21.923 47.141-47.723 49.409-30.246 2.659-55.841-20.412-57.193-49.859-.037-.71-.057-1.436-.062-2.146 0-.057-.001-.114-.001-.171-.014-4.895 6.39-6.829 9.182-2.808 9.539 13.738 25.477 22.693 43.461 22.582 17.981-.111 33.804-9.248 43.19-23.094 2.772-4.09 9.187-2.151 9.223 2.79.008 1.092-.017 2.191-.077 3.297z" fill="#29334c"/><path d="m287.116 264.333 93.333-28.667-1.9-3.166c-5.809-9.682-17.818-13.671-28.265-9.389l-48.98 20.074c-8.583 3.518-14.188 11.873-14.188 21.148z" fill="#c6601a"/><path d="m224.884 264.333-93.333-28.667 1.9-3.166c5.809-9.682 17.818-13.671 28.266-9.389l48.98 20.074c8.582 3.518 14.187 11.873 14.187 21.148z" fill="#ed771b"/><path d="m344.88 426.21c-26.17-15.08-56.52-23.7-88.88-23.7s-62.71 8.62-88.88 23.7c-4.42 2.56-9.36-2.41-6.88-6.87 18.7-33.61 54.57-56.34 95.76-56.34s77.06 22.73 95.76 56.34c2.48 4.46-2.46 9.43-6.88 6.87z" fill="#ed771b"/><path d="m344.88 426.21c-26.17-15.08-56.52-23.7-88.88-23.7v-39.51c41.19 0 77.06 22.73 95.76 56.34 2.48 4.46-2.46 9.43-6.88 6.87z" fill="#c6601a"/><path d="m352.95 493c-23.54 9.64-48.84 15.88-75.28 18.09-2.68-2.42-4.81-5.48-6.14-8.99-2.28-6.02-1.98-12.21.24-17.53-3.52-3.16-6.14-7.4-7.26-12.36-2.88-12.73 5.1-25.39 17.83-28.28 2.86-.64-3.12-73.35-5.71-103.33-.17-2.01 2.64-2.64 3.35-.76 10.58 28.17 36.53 96.35 39.38 95.7 12.74-2.88 25.4 5.1 28.28 17.84 1.13 4.96.59 9.91-1.22 14.27 4.29 3.85 7.23 9.3 7.77 15.72.28 3.32-.17 6.59-1.24 9.63z" fill="#d1f6ff"/><path d="m241.43 484.57c2.21 5.32 2.52 11.51.24 17.53-1.34 3.56-3.52 6.64-6.24 9.08-26.32-2.09-51.52-8.16-74.99-17.62-1.21-3.19-1.74-6.66-1.44-10.19.54-6.42 3.49-11.87 7.78-15.72-1.82-4.36-2.35-9.31-1.23-14.27 2.89-12.74 15.55-20.72 28.28-17.84 2.86.65 28.8-67.53 39.39-95.7.71-1.88 3.52-1.25 3.35.76-2.59 29.98-8.57 102.69-5.72 103.33 12.74 2.89 20.72 15.55 17.84 28.28-1.13 4.96-3.74 9.2-7.26 12.36z" fill="#fff"/></svg>