<svg height="512pt" viewBox="0 0 512 512" width="512pt" xmlns="http://www.w3.org/2000/svg"><path d="m256 0-128 256 128 256c141.386719 0 256-114.613281 256-256s-114.613281-256-256-256zm0 0" fill="#89c1ff"/><path d="m256 0c-141.386719 0-256 114.613281-256 256 0 46.648438 12.484375 90.382812 34.285156 128.046875l-34.285156 127.953125 127.953125-34.285156c37.664063 21.800781 81.398437 34.285156 128.046875 34.285156zm0 0" fill="#bfdcff"/><path d="m449.304688 223.527344-1.921876-11.5-33.113281-2.78125c-3.28125-11.148438-7.730469-21.882813-13.300781-32.09375l21.453125-25.386719-6.773437-9.488281c-12.6875-17.785156-28.140626-33.234375-45.925782-45.925782l-9.488281-6.769531-25.382813 21.449219c-10.214843-5.570312-20.949218-10.019531-32.097656-13.300781l-2.78125-33.113281-11.5-1.921876c-10.695312-1.785156-21.582031-2.679687-32.472656-2.679687l-60 195.9375 60 196.042969c10.855469 0 21.777344-.90625 32.472656-2.691406l11.5-1.921876 2.78125-33.113281c11.144532-3.28125 21.882813-7.730469 32.09375-13.300781l25.386719 21.449219 9.488281-6.769531c17.785156-12.6875 33.234375-28.140626 45.925782-45.925782l6.769531-9.488281-21.449219-25.386719c5.566406-10.210937 10.019531-20.945312 13.300781-32.09375l33.109375-2.78125 1.921875-11.5c3.605469-21.546875 3.605469-43.398437.003907-64.945312zm0 0" fill="#57697d"/><path d="m223.527344 62.695312-11.5 1.921876-2.78125 33.113281c-11.144532 3.28125-21.882813 7.730469-32.09375 13.300781l-25.386719-21.449219-9.488281 6.769531c-17.785156 12.6875-33.234375 28.140626-45.925782 45.925782l-6.769531 9.488281 21.449219 25.386719c-5.566406 10.210937-10.019531 20.945312-13.300781 32.09375l-33.109375 2.78125-1.921875 11.5c-3.601563 21.546875-3.601563 43.398437 0 64.945312l1.921875 11.496094 33.109375 2.785156c3.285156 11.144532 7.734375 21.882813 13.300781 32.09375l-21.449219 25.386719 6.769531 9.488281c12.6875 17.785156 28.140626 33.234375 45.925782 45.925782l9.488281 6.769531 25.386719-21.449219c10.210937 5.566406 20.945312 10.019531 32.09375 13.300781l2.78125 33.109375 11.5 1.921875c10.695312 1.789063 21.621094 2.695313 32.472656 2.695313v-391.980469c-10.890625 0-21.777344.894531-32.472656 2.679687zm0 0" fill="#8c98a7"/><path d="m256 151-52.5 105 52.5 105c57.988281 0 105-47.011719 105-105s-47.011719-105-105-105zm0 0" fill="#3d5168"/><path d="m151 256c0 57.988281 47.011719 105 105 105v-210c-57.988281 0-105 47.011719-105 105zm0 0" fill="#57697d"/><path d="m256 211-22.5 45 22.5 45c24.851562 0 45-20.148438 45-45s-20.148438-45-45-45zm0 0" fill="#89c1ff"/><path d="m211 256c0 24.851562 20.148438 45 45 45v-90c-24.851562 0-45 20.148438-45 45zm0 0" fill="#bfdcff"/></svg>