<?xml version="1.0" encoding="iso-8859-1"?>
<!-- Generator: Adobe Illustrator 19.0.0, SVG Export Plug-In . SVG Version: 6.00 Build 0)  -->
<svg version="1.1" id="Capa_1" xmlns="http://www.w3.org/2000/svg" xmlns:xlink="http://www.w3.org/1999/xlink" x="0px" y="0px"
	 viewBox="0 0 512 512" style="enable-background:new 0 0 512 512;" xml:space="preserve">
<path style="fill:#B2DFEB;" d="M512,256c0,141.385-114.615,256-256,256S0,397.385,0,256S114.615,0,256,0S512,114.615,512,256z"/>
<path style="fill:#4391A6;" d="M487.216,366C446.07,452.333,358.007,512,256,512S65.93,452.333,24.784,366
	C65.93,279.667,153.993,220,256,220S446.07,279.667,487.216,366z"/>
<path style="fill:#328093;" d="M269.25,511.656C264.861,511.88,260.445,512,256,512c-102.007,0-190.07-59.667-231.216-146
	C65.93,279.667,153.993,220,256,220c4.445,0,8.861,0.12,13.25,0.344c-0.963,0.049-1.925,0.104-2.886,0.163
	c-182.877,11.376-182.877,279.609,0,290.985C267.325,511.552,268.287,511.607,269.25,511.656z"/>
<path style="fill:#80BE1C;" d="M172,485c0,4.262-0.764,8.345-2.158,12.122C110.917,476.064,61.974,434.027,32.002,380H67
	c19.33,0,35,15.67,35,35v15c0,11.046,8.954,20,20,20h15C156.33,450,172,465.67,172,485z"/>
<path style="fill:#9BD04C;" d="M372,395c0,8.284,6.716,15,15,15h-9.998C396.331,410.001,412,425.671,412,445
	c0,6.378-1.714,12.351-4.694,17.501c-8.615,6.323-17.639,12.118-27.027,17.341c-1.08,0.1-2.172,0.158-3.279,0.158H257
	c-19.33,0-35-15.67-35-35s15.67-35,35-35h70.001c8.283,0,14.999-6.716,14.999-15s-6.716-15-15-15h-30c-19.33,0-35-15.67-35-35
	s15.67-35,35-35h153.87c14.421,16.913,26.675,35.726,36.341,56.011c-2.262,4.747-4.672,9.409-7.213,13.989H387
	C378.716,380,372,386.716,372,395z M197,280h-50c-8.284,0-15,6.716-15,15s6.716,15,15,15h50c8.284,0,15-6.716,15-15
	S205.284,280,197,280z"/>
<path style="fill:#FFF587;" d="M180,460c0,11.046-8.954,20-20,20s-20-8.954-20-20s8.954-20,20-20S180,448.954,180,460z M250,400
	c-11.046,0-20,8.954-20,20s8.954,20,20,20c11.046,0,20-8.954,20-20S261.046,400,250,400z M430,360c-11.046,0-20,8.954-20,20
	s8.954,20,20,20s20-8.954,20-20S441.046,360,430,360z M290,290c-11.046,0-20,8.954-20,20s8.954,20,20,20s20-8.954,20-20
	S301.046,290,290,290z M100,360c-11.046,0-20,8.954-20,20s8.954,20,20,20s20-8.954,20-20S111.046,360,100,360z"/>
<path style="fill:#596C76;" d="M397.871,267.556l-140.434,45.301c-0.934,0.301-1.94,0.301-2.874,0l-140.434-45.301
	c-1.934-0.624-3.244-2.423-3.244-4.455V93.309c0-2.585,2.096-4.681,4.681-4.681h280.867c2.585,0,4.681,2.096,4.681,4.681v169.793
	C401.115,265.133,399.804,266.933,397.871,267.556z"/>
<path style="fill:#465A61;" d="M93.961,216.034c3.978,3.926,6.626,10.911,6.626,18.879c0,4.391-0.807,8.48-2.194,11.928
	c-3.76,0.611-7.733,0.945-11.849,0.945s-8.089-0.334-11.849-0.945c-1.387-3.447-2.194-7.537-2.194-11.928
	c0-7.968,2.648-14.953,6.626-18.879c-1.215-1.579-1.945-3.551-1.945-5.697c0-3.463,1.885-6.48,4.681-8.099V97.99h9.362v104.247
	c2.796,1.62,4.681,4.636,4.681,8.099C95.906,212.483,95.176,214.454,93.961,216.034z M344.824,88.627H167.176L132.418,99.84V88.627
	h-16.852c-2.585,0-4.681,2.096-4.681,4.681v13.477v19.291v137.025c0,2.032,1.31,3.831,3.244,4.455l18.289,5.9V152.157
	c0-7.349,7.661-12.188,14.297-9.03l105.859,50.377c2.227,0.718,4.623,0.718,6.85,0l141.69-67.428v-19.291L344.824,88.627z"/>
<path style="fill:#7A8C98;" d="M259.425,30.539l172.343,55.595c4.608,1.487,7.732,5.776,7.732,10.618l0,0
	c0,4.842-3.123,9.132-7.732,10.618l-172.343,55.595c-2.227,0.718-4.623,0.718-6.85,0L80.232,107.369
	c-4.608-1.487-7.732-5.776-7.732-10.618l0,0c0-4.842,3.123-9.132,7.732-10.618l172.343-55.595
	C254.802,29.82,257.198,29.82,259.425,30.539z"/>
<g>
</g>
<g>
</g>
<g>
</g>
<g>
</g>
<g>
</g>
<g>
</g>
<g>
</g>
<g>
</g>
<g>
</g>
<g>
</g>
<g>
</g>
<g>
</g>
<g>
</g>
<g>
</g>
<g>
</g>
</svg>
