<svg id="Icons" enable-background="new 0 0 512 512" height="512" viewBox="0 0 512 512" width="512" xmlns="http://www.w3.org/2000/svg"><g><path d="m512 256c0 17.79-1.82 35.15-5.27 51.92-24 116.49-127.14 204.08-250.73 204.08s-226.73-87.59-250.73-204.08c-3.45-16.77-5.27-34.13-5.27-51.92 0-141.38 114.62-256 256-256 62.74 0 120.22 22.58 164.74 60.05 19.4 16.32 36.34 35.48 50.19 56.83 7.1 10.94 13.38 22.45 18.76 34.46 14.34 31.95 22.31 67.37 22.31 104.66z" fill="#22bce0"/><path d="m506.73 307.92c-29.377 143.578-175.476 233.544-316.81 195.47-92.139-23.916-166.053-102.008-184.65-195.47z" fill="#d48d77"/><g fill="#c17e62"><path d="m288.65 423.76v86.18c-4.57.58-9.17 1.04-13.81 1.37v-87.55c.318-9.145 13.491-9.147 13.81 0z"/><path d="m288.65 307.92v21.26c0 3.81-3.09 6.9-6.91 6.9-3.81 0-6.9-3.09-6.9-6.9v-21.26z"/><path d="m239.242 471.872c-3.814 0-6.906-3.092-6.906-6.906v-127.551c0-3.814 3.092-6.906 6.906-6.906s6.906 3.092 6.906 6.906v127.552c0 3.813-3.092 6.905-6.906 6.905z"/><path d="m189.92 307.92v101c0 3.81-3.09 6.9-6.9 6.9-3.82 0-6.91-3.09-6.91-6.9v-101z"/><path d="m189.92 465.94v37.45c-4.66-1.24-9.26-2.61-13.81-4.11v-33.34c.318-9.141 13.489-9.15 13.81 0z"/><path d="m136.71 369.85v112.71c-4.7-2.48-9.31-5.1-13.82-7.86v-104.85c.316-9.127 13.503-9.135 13.82 0z"/><path d="m82.11 307.92v40.79c0 3.81-3.09 6.9-6.91 6.9-3.81 0-6.9-3.09-6.9-6.9v-40.79z"/><path d="m82.11 403.73v40.14c-4.77-4.42-9.38-9.02-13.81-13.8v-26.34c.279-9.121 13.536-9.12 13.81 0z"/><path d="m36.96 307.92v80.65c-5.08-8.38-9.69-17.07-13.81-26.04v-54.61z"/><path d="m313.339 471.872c-3.814 0-6.906-3.092-6.906-6.906v-127.551c0-3.814 3.092-6.906 6.906-6.906s6.906 3.092 6.906 6.906v127.552c0 3.813-3.092 6.905-6.906 6.905z"/><path d="m356.8 307.92v73.53c0 3.81-3.09 6.9-6.9 6.9-3.82 0-6.91-3.09-6.91-6.9v-73.53z"/><path d="m356.8 440.54v50.85c-4.53 1.94-9.14 3.76-13.81 5.44v-56.29c.275-9.128 13.538-9.139 13.81 0z"/><path d="m388.4 459.034c-3.814 0-6.906-3.092-6.906-6.906v-127.551c0-3.814 3.092-6.906 6.906-6.906s6.906 3.092 6.906 6.906v127.552c-.001 3.813-3.092 6.905-6.906 6.905z"/><path d="m435.73 307.92v96.74c0 3.81-3.09 6.9-6.9 6.9-3.82 0-6.91-3.09-6.91-6.9v-96.74z"/><path d="m474.94 347.79v40.94c-4.28 7.04-8.89 13.86-13.81 20.43v-61.37c.275-9.128 13.538-9.139 13.81 0z"/></g><g id="Laptop_1_"><g><g><path d="m276.012 193.13v126.664c0 10.394-8.423 18.816-18.809 18.816h-202.284c-10.394 0-18.817-8.423-18.817-18.816v-126.664c0-1.102.097-2.188.29-3.242 1.52-8.849 9.235-15.575 18.527-15.575h202.284c10.386.001 18.809 8.424 18.809 18.817z" fill="#a583bb"/><path d="m185.654 338.611h-130.735c-10.394 0-18.817-8.423-18.817-18.816v-126.665c0-1.102.097-2.188.29-3.242 79.41 6.163 142.826 69.386 149.262 148.723z" fill="#9175a7"/><path d="m276.012 193.13v97.14c-70.191 17.034-137.59-44.456-126.889-115.956h108.081c10.385 0 18.808 8.423 18.808 18.816z" fill="#c2aacf"/></g><g><g><path d="m356.62 402.84v12.083c.11 2.44-2.407 3.603-7.103 3.668h-209.581c-8.375 0-20.804-4.304-27.762-9.613l-63.473-48.445c-3.218-2.454-4.698-4.69-4.537-6.387v-12.308h14.408v9.083h202.276c8.375 0 20.804 4.304 27.762 9.613l56.916 43.433v-1.126h11.094z" fill="#9175a7"/><path d="m153.451 384.755c0 11.818-1.882 23.185-5.374 33.836h-8.141c-8.375 0-20.804-4.304-27.762-9.613l-63.473-48.445c-3.218-2.454-4.698-4.69-4.537-6.387v-12.308h14.408v9.083h89.505c3.491 10.65 5.374 22.017 5.374 33.834z" fill="#6c53a2"/><path d="m356.62 402.84v12.083c.01.14.005.277 0 .41-.169 1.995-2.582 3.258-7.103 3.258h-119.19c-22.002-15.945-37.786-39.942-43.039-67.672h73.561c8.375 0 20.804 4.304 27.762 9.613l56.916 43.433v-1.126h11.093z" fill="#a583bb"/></g><g><path d="m349.516 406.283h-209.58c-8.375 0-20.804-4.304-27.762-9.613l-63.473-48.445c-6.959-5.309-5.808-9.613 2.566-9.613h209.581c8.375 0 20.804 4.304 27.762 9.613l17.94 13.692 45.533 34.753c6.958 5.309 5.808 9.613-2.567 9.613z" fill="#c2aacf"/><path d="m352.083 396.67c-12.758-9.738-51.389-39.222-63.473-48.445-6.959-5.31-19.388-9.613-27.762-9.613h-75.178c1.923 26.25 13.169 49.901 30.433 67.672h133.413c8.375-.001 9.525-4.305 2.567-9.614z" fill="#decee5"/><path d="m153.451 384.755c0 7.369-.732 14.569-2.132 21.528h-11.383c-8.375 0-20.804-4.304-27.762-9.613l-63.473-48.445c-6.959-5.309-5.808-9.613 2.566-9.613h91.927c6.58 14.005 10.257 29.644 10.257 46.143z" fill="#a583bb"/><path d="m306.55 361.916c-31.735 11.552-105.536 5.066-107.252-23.305h61.55c8.375 0 20.804 4.304 27.762 9.613z" fill="#fff"/></g></g><g><path d="m267.967 199.462v105.957c0 9.444-7.659 17.103-17.103 17.103h-189.614c-9.444 0-17.103-7.659-17.103-17.103v-105.957c0-3.089.821-5.985 2.261-8.487 2.936-5.149 8.487-8.616 14.842-8.616h189.614c9.445 0 17.103 7.658 17.103 17.103z" fill="#78c795"/></g><path d="m163.562 324.933h-15.006c-7.439.228-7.445 11.033 0 11.263h15.006c7.439-.228 7.445-11.033 0-11.263z" fill="#6c53a2"/><g><g><g fill="#3e4e60"><path d="m131.674 351.957h-20.804l-.322-.249-5.269-4.022c-.925-.7-.426-2.172.732-2.172h20.796l.322.249 3.902 2.977h.008l1.368 1.046c.916.699.417 2.171-.733 2.171z"/><path d="m116.115 365.77h-19.942l-.314-.241c-.008 0-.008-.008-.016-.008l-7.546-5.76c-.925-.7-.426-2.172.732-2.172h19.943l.322.249 6.186 4.714 1.368 1.046c.917.708.418 2.172-.733 2.172z"/><path d="m165.325 351.957h-20.796l-.322-.249-5.269-4.022c-.925-.7-.426-2.172.732-2.172h20.796l.322.249 3.902 2.977c.027.023 1.533 1.156 1.488 1.142.756.732.257 2.075-.853 2.075z"/><path d="m232.643 351.957h-20.796l-.322-.249-5.277-4.022c-.917-.7-.418-2.172.732-2.172h20.804l.322.249 3.902 2.977 1.368 1.046c.924.699.425 2.171-.733 2.171z"/><path d="m198.984 351.957h-20.796l-.322-.249-5.277-4.022c-.898-.671-.439-2.176.74-2.172h20.796l.322.249 3.902 2.977 1.368 1.046c.924.699.425 2.171-.733 2.171z"/><path d="m170.015 381.224h-20.796l-.29-.225c-.019.027-9.713-7.43-9.734-7.425-.917-.7-.418-2.172.74-2.172h20.796l.322.249 8.326 6.355h.008c.027.023 1.522 1.156 1.48 1.142.757.74.258 2.076-.852 2.076z"/><path d="m270.992 381.224h-20.796l-.241-.185c-.008 0-.008-.008-.016-.008-.638-.467-9.471-7.238-9.766-7.457-.925-.7-.426-2.172.732-2.172h20.795l.314.241c.008 0 .008.008.016.008l8.326 6.355 1.368 1.046c.925.708.427 2.172-.732 2.172z"/><path d="m203.674 381.224h-20.796l-.29-.225c-.019.027-9.713-7.43-9.734-7.425-.917-.7-.426-2.172.732-2.172h20.796l.314.241c.008 0 .008.008.016.008l8.326 6.355 1.368 1.046c.925.708.426 2.172-.732 2.172z"/><path d="m237.333 381.224h-20.796l-.29-.225c-.019.027-9.713-7.43-9.734-7.425-.917-.7-.426-2.172.732-2.172h20.796l.314.241c.008 0 .008.008.016.008l8.326 6.355 1.368 1.046c.925.708.426 2.172-.732 2.172z"/><path d="m98.015 351.957h-19.782c-.121-.113-.233-.225-.338-.338-.304-.28-.56-.605-.821-.917v-.008c-3.013-3.826 1.152-5.313 4.626-5.181h11.448l.314.241c.008 0 .008.008.016.008l3.902 2.977 1.368 1.046c.916.7.425 2.172-.733 2.172z"/><path d="m136.364 381.224h-7.876c-7.67-.265-15.806-3.141-22.091-7.65-.925-.7-.426-2.172.732-2.172h19.943l.322.249 8.334 6.355 1.368 1.046c.917.708.418 2.172-.732 2.172z"/><path d="m264.13 351.957h-18.623l-.314-.241c-.008 0-.008-.008-.016-.008l-5.269-4.022c-.917-.7-.426-2.172.732-2.172 2.83.058 9.141-.204 11.85.338 4.192.666 8.291 2.006 12.139 3.797 1.182.546.804 2.308-.499 2.308z"/><path d="m300.959 378.649c-.043.631-.423 1.17-.925 1.529 0 0-.008 0-.008.008-1.376.909-3.109 1.008-4.722 1.038h-11.448l-.241-.185c-.008 0-.008-.008-.016-.008-.638-.467-9.471-7.238-9.766-7.457-.925-.7-.426-2.172.732-2.172h19.943c2.328 1.84 6.687 4.593 6.451 7.247z"/><path d="m149.766 365.77h-20.796l-.322-.249-7.554-5.76c-.04-.032-.08-.064-.113-.097-.756-.732-.257-2.075.853-2.075h20.796l.322.249 6.178 4.714h.008c.027.023 1.522 1.156 1.48 1.142.757.74.259 2.076-.852 2.076z"/><path d="m250.744 365.77h-20.796l-.314-.241c-.008 0-.008-.008-.016-.008l-7.546-5.76c-.925-.7-.426-2.172.732-2.172h20.796l.314.241c.008 0 .008.008.016.008l6.178 4.714 1.368 1.046c.925.708.426 2.172-.732 2.172z"/><path d="m183.425 365.77h-20.795l-.322-.249-7.554-5.76c-.917-.7-.418-2.172.74-2.172h20.796l.322.249 6.178 4.714 1.368 1.046c.925.708.426 2.172-.733 2.172z"/><path d="m217.085 365.77h-20.796l-.322-.249-7.554-5.76c-.917-.7-.426-2.172.732-2.172h20.796l.314.241c.008 0 .008.008.016.008l6.178 4.714 1.368 1.046c.925.708.426 2.172-.732 2.172z"/><path d="m283.542 365.77h-19.935l-.314-.241c-.008 0-.008-.008-.016-.008l-7.546-5.76c-.925-.7-.426-2.172.732-2.172h19.943l.322.249 6.186 4.714 1.368 1.046c.917.708.418 2.172-.74 2.172z"/></g><g fill="#3f5d77"><path d="m131.03 348.739h-16.532c-.265 0-.523-.089-.732-.249l-3.902-2.977h16.942l.322.249z"/><path d="m115.48 362.552h-15.679c-.265 0-.523-.088-.74-.249l-6.178-4.714h16.089l.322.249z"/><path d="m164.689 348.739h-16.532c-.266 0-.523-.089-.732-.249l-3.902-2.977h16.942l.322.249z"/><path d="m232.007 348.739h-16.532c-.265 0-.523-.089-.732-.249l-3.902-2.977h16.942l.322.249z"/><path d="m198.348 348.739h-16.532c-.265 0-.523-.089-.732-.249l-3.902-2.977h16.942l.322.249z"/><path d="m169.379 378.006h-16.532c-.265 0-.523-.08-.732-.241l-8.334-6.363h16.95l.322.249z"/><path d="m270.357 378.006h-16.532c-.265 0-.523-.08-.74-.241l-8.326-6.363h16.941l.314.241c.008 0 .008.008.016.008z"/><path d="m203.038 378.006h-16.532c-.265 0-.523-.08-.732-.241l-8.334-6.363h16.942l.314.241c.008 0 .008.008.016.008z"/><path d="m236.698 378.006h-16.532c-.265 0-.523-.08-.732-.241l-8.334-6.363h16.942l.314.241c.008 0 .008.008.016.008z"/><path d="m97.379 348.739h-15.429c-1.328-.13-2.392-2.332-2.598-3.049 1.414-.348 12.118-.112 13.797-.177l.314.241c.008 0 .008.008.016.008z"/><path d="m135.728 378.006h-4.022c-6.292-.002-15.134-2.995-20.602-6.605h15.969l.322.249z"/><path d="m262.569 348.739h-13.435c-.265 0-.523-.089-.74-.249l-3.902-2.977c.855.015 4.312-.034 5.092.032 4.466.26 8.847 1.524 12.985 3.194z"/><path d="m300.886 377.829c-1.42.34-11.724.117-13.402.177-.265 0-.523-.08-.74-.241l-8.326-6.363h16.089c2.046 1.525 6.13 4.469 6.379 6.427z"/><path d="m149.131 362.552h-16.532c-.265 0-.523-.088-.732-.249l-6.186-4.714h16.95l.322.249z"/><path d="m250.108 362.552h-16.532c-.265 0-.523-.088-.74-.249l-6.178-4.714h16.942l.314.241c.008 0 .008.008.016.008z"/><path d="m182.79 362.552h-16.532c-.265 0-.523-.088-.732-.249l-6.186-4.714h16.95l.322.249z"/><path d="m216.449 362.552h-16.532c-.265 0-.523-.088-.732-.249l-6.186-4.714h16.942l.314.241c.008 0 .008.008.016.008z"/><path d="m282.914 362.552h-15.679c-.266 0-.523-.088-.74-.249l-6.178-4.714h16.089l.322.249z"/></g></g><g><path d="m264.379 399.855h-70.528c-2.816 0-6.999-1.448-9.34-3.242-2.354-1.778-8.882-6.786-11.303-8.624-2.341-1.786-1.955-3.234.861-3.234h70.528c2.816 0 6.999 1.448 9.34 3.234l11.311 8.624c1.888 1.348 2.408 3.243-.869 3.242z" fill="#3f5d77"/><path d="m264.379 399.855h-70.528c-2.816 0-6.999-1.448-9.34-3.242l-3.483-2.655c-.426-.989.362-1.657 2.285-1.657h70.52c2.824 0 7.007 1.448 9.348 3.234l3.475 2.655c.434.99-.362 1.665-2.277 1.665z" fill="#3e4e60"/></g></g><g fill="#fff"><path d="m236.407 182.359h-51.928c-5.302-.158-5.329-7.878 0-8.045h51.928c5.301.158 5.329 7.879 0 8.045z"/><path d="m333.736 396.114h-50.838c-6.706.201-6.732 9.959 0 10.169h50.838c6.706-.202 6.732-9.959 0-10.169z"/></g></g><g><g><path d="m121.089 299.244c-12.849-.474-11.781-12.793-4.655-26.704 5.62-10.893 15.125-23.302 26.764-34.941s24.048-21.144 34.941-26.764c23.261-12.287 33.798-1.764 21.504 21.504-11.71 23.35-51.691 65.023-78.554 66.905zm73.878-90.671c-25.738 2.293-64.61 42.769-75.89 65.33-10.759 20.85-3.362 28.265 17.499 17.499 10.627-5.483 22.774-14.796 34.202-26.224s20.741-23.574 26.224-34.202c5.888-11.674 7.991-22.212-2.035-22.403z" fill="#decee5"/></g><g><path d="m110.189 267.293c3.779-3.822 10.173-3.935 14.082 0 7.008 7.075.394 18.853-9.183 16.768-7.548-1.543-10.475-11.356-4.899-16.768z" fill="#2d2667"/><path d="m110.189 267.293c.972-.972 2.101-1.703 3.301-2.189 9.503 2.076 10.64 15.287 1.598 18.957-7.55-1.542-10.474-11.357-4.899-16.768z" fill="#6052a3"/><path d="m110.001 271.083c-4.278 4.501 2.157 10.935 6.657 6.657 4.278-4.501-2.158-10.935-6.657-6.657z" fill="#9175a7"/></g><g><path d="m194.988 299.244c-26.848-1.879-66.826-43.529-78.554-66.904-12.288-23.261-1.764-33.797 21.504-21.504 10.893 5.619 23.302 15.124 34.941 26.763s21.144 24.048 26.764 34.941c7.137 13.93 8.184 26.222-4.655 26.704zm-73.877-90.671c-10.038.179-7.91 10.756-2.034 22.403 5.483 10.627 14.796 22.774 26.224 34.202s23.575 20.741 34.202 26.224c20.85 10.759 28.265 3.362 17.499-17.499-11.263-22.534-50.141-63.035-75.891-65.33z" fill="#ebd9ea"/></g><g><g><path d="m158.039 314.992c-5.909 0-11.309-6.719-15.205-18.92-7.652-22.885-7.652-64.378 0-87.263 7.759-25.137 22.651-25.145 30.41 0 7.652 22.885 7.652 64.378 0 87.263-3.896 12.2-9.296 18.92-15.205 18.92zm0-122.131c-4.443 0-8.953 6.142-12.373 16.851-7.465 22.304-7.465 63.15 0 85.455 7.136 22.352 17.608 22.363 24.747 0 7.465-22.304 7.465-63.15 0-85.454-3.421-10.71-7.931-16.852-12.374-16.852z" fill="#fff"/></g><g><g><path d="m181.371 208.102c.031 5.375-4.411 9.976-9.958 9.957-9.958-.047-13.61-13.052-5.363-18.35 6.428-4.246 15.437.624 15.321 8.393z" fill="#b82065"/></g><g><path d="m181.371 208.102c0 1.374-.281 2.69-.786 3.882-8.188 5.251-18.333-3.286-14.535-12.275 6.429-4.247 15.437.625 15.321 8.393z" fill="#d7156f"/></g><g><path d="m178.824 205.289c-.192-6.222-9.223-6.22-9.414 0 .192 6.222 9.223 6.22 9.414 0z" fill="#ed72ab"/></g></g></g><g><path d="m172.892 300.29c-3.822-3.779-3.935-10.173 0-14.082 7.075-7.008 18.853-.394 16.768 9.183-1.543 7.548-11.357 10.475-16.768 4.899z" fill="#bf5e39"/><path d="m172.892 300.29c-.972-.972-1.703-2.101-2.189-3.301 2.076-9.503 15.287-10.64 18.957-1.598-1.543 7.549-11.357 10.474-16.768 4.899z" fill="#dd5e26"/><path d="m176.682 300.478c4.501 4.278 10.935-2.157 6.657-6.657-4.501-4.278-10.935 2.158-6.657 6.657z" fill="#ea792e"/></g><g><g><path d="m171.747 252.44c.043 7.403-6.075 13.74-13.714 13.714-13.75-.12-18.745-17.91-7.387-25.273 8.854-5.848 21.261.859 21.101 11.559z" fill="#50755c"/></g><g><path d="m171.747 252.44c0 1.892-.388 3.705-1.083 5.347-11.277 7.233-25.25-4.525-20.018-16.906 8.854-5.85 21.261.861 21.101 11.559z" fill="#528f66"/></g><g><path d="m168.239 248.566c0-3.58-2.902-6.483-6.483-6.483-8.582.296-8.58 12.671 0 12.966 3.58 0 6.483-2.903 6.483-6.483z" fill="#53b976"/></g></g></g></g><g><g id="Speech-bubble_5_"><path d="m322.011 266.799c3.823 0 7.569-1.867 9.819-5.304l37.803-57.775c7.992-13.323-10.57-25.517-19.615-12.835 0 0-37.803 57.775-37.803 57.775-5.147 7.611.679 18.282 9.796 18.139z" fill="#ebd9ea"/><path d="m489.69 151.34v26.59c0 10.33-3.5 19.83-9.38 27.4-8.17 10.52-20.95 17.29-35.31 17.29h-113.2c-14.071.053-27.206-6.756-35.31-17.29-5.88-7.57-9.38-17.07-9.38-27.4v-73.2c-.029-24.501 19.876-44.682 44.69-44.68h88.94c29.418 24.732 53.203 56.111 68.95 91.29z" fill="#ebd9ea"/><path d="m489.69 151.34v26.59c0 10.33-3.5 19.83-9.38 27.4-5.88-7.57-9.38-17.07-9.38-27.4v-61.05c7.1 10.94 13.38 22.45 18.76 34.46z" fill="#fff"/><path d="m305.865 104.732v73.201c0 10.326-3.498 19.823-9.372 27.396-5.882-7.573-9.38-17.07-9.38-27.396v-73.201c0-10.326 3.498-19.823 9.38-27.387 5.874 7.564 9.372 17.061 9.372 27.387z" fill="#c1b7d3"/></g><g fill="#6c53a2"><path d="m384.271 169.878c-7.748-.011-12.123 3.885-12.103 11.69-.037 7.531 4.587 11.739 12.103 11.692 7.34.072 12.014-4.385 11.969-11.692.04-7.55-4.466-11.724-11.969-11.69z"/><path d="m410.853 96.222c-5.571-4.54-13.078-6.809-22.523-6.809-11.465 0-15.853.797-26.074 6.527l.021.042c-9.808 5.238-2.704 19.659 7.447 14.964l.029.056c8.804-4.493 10.188-4.671 17.066-4.671 3.941 0 7.013.78 9.214 2.339s3.303 3.829 3.303 6.808c-.328 7.52-4.567 10.054-11.831 15.613-8.888 6.744-12.943 11.471-13.135 21.869l.011.001c.204 11.622 16.715 12.477 18.129.958l.085.004c.193-7.327 3.215-8.585 10.107-14.099 6.421-4.583 10.776-8.709 13.068-12.379 5.876-9.323 4.281-24.445-4.917-31.223z"/></g></g></g></svg>