<svg id="Capa_1" enable-background="new 0 0 512 512" height="512" viewBox="0 0 512 512" width="512" xmlns="http://www.w3.org/2000/svg"><g><g><path d="m0 256c0 43.79 11 85.02 30.39 121.07l225.61 49.67 225.61-49.67c19.39-36.05 30.39-77.28 30.39-121.07 0-46.63-12.47-90.34-34.26-128-41.698 72.091-399.22 76.52-443.48 0-21.79 37.66-34.26 81.37-34.26 128z" fill="#9feafd"/><path d="m34.26 128c44.26 76.52 126.99 128 221.74 128s177.48-51.48 221.74-128c-.01-.02-.03-.05-.04-.07-44.27-76.48-126.98-127.93-221.7-127.93s-177.43 51.45-221.7 127.93c-.01.02-.03.05-.04.07z" fill="#c3f3ff"/><path d="m481.61 377.07c-16.99 31.6-40.43 59.22-68.56 81.1-5.685 4.425-20.599.68-26.65 4.62s-3.24 15.565-9.63 18.99c-5.8 3.11-11.74 6.01-17.8 8.67-7.76 3.414-15.724-5.491-23.868-2.85-11.681 3.789-23.732 18.704-36.082 20.79-13.98 2.38-28.36 3.61-43.02 3.61-97.59 0-182.42-54.61-225.61-134.93z" fill="#70c5e8"/></g><g><g><g><g><g fill="#f3e9e0"><path d="m316.947 273.93h109.75v23.47h-109.75z"/><path d="m316.937 323.84h109.75v23.47h-109.75z"/></g></g><g><g><path d="m316.937 373.75h109.75v23.47h-109.75z" fill="#f3e9e0"/></g></g></g><g><g><g><path d="m316.937 142.19h109.75v23.48h-109.75z" fill="#f3e9e0"/></g></g></g><g fill="#deba9f"><path d="m371.817 142.19h54.87v23.48h-54.87z"/><path d="m371.817 323.84h54.87v23.47h-54.87z"/><path d="m371.817 373.75h54.87v23.47h-54.87z"/><path d="m371.817 273.93h54.88v23.47h-54.88z"/></g><path d="m453.377 108.54c0 65.7-35.59 99.05-66.98 128.47-5.02 4.7-9.91 9.29-14.58 13.92-22.03 21.84-38.91 44.47-38.91 83.43h-42.65c0-65.69 35.59-99.04 66.98-128.47 5.02-4.7 9.91-9.29 14.58-13.91 22.03-21.84 38.91-44.47 38.91-83.44z" fill="#8898e5"/><path d="m386.397 237.01c-5.02 4.7-9.91 9.29-14.58 13.92v-58.95c22.03-21.84 38.91-44.47 38.91-83.44h42.65c0 65.7-35.59 99.05-66.98 128.47z" fill="#546bd9"/><path d="m453.38 334.32c0 16.05-2.12 30.16-5.79 42.75-6.09 20.95-16.45 37.71-28.41 52.18-10.3 12.47-21.79 23.25-32.78 33.54-5.02 4.7-9.91 9.29-14.58 13.92-4.54 4.5-8.86 9.03-12.85 13.74-18.89 8.31-38.99 14.4-59.95 17.94 12.5-33.86 36.37-56.23 58.22-76.71.87-.81 1.73-1.62 2.59-2.43 4.11-3.86 8.13-7.67 11.99-11.49 12.47-12.37 23.3-24.99 30.34-40.69 5.39-12.02 8.57-25.85 8.57-42.75 0-38.97-16.88-61.6-38.91-83.44-4.67-4.62-9.56-9.22-14.58-13.92-31.39-29.42-66.98-62.77-66.98-128.47h42.65c0 38.97 16.88 61.6 38.91 83.44 4.67 4.63 9.56 9.22 14.58 13.92 31.39 29.42 66.98 62.77 66.98 128.47z" fill="#d75e91"/><path d="m453.377 334.32c0 42.71-15.04 71.75-34.2 94.93-10.3 12.47-21.79 23.25-32.78 33.54-5.02 4.7-9.91 9.29-14.58 13.92v-58.95c22.03-21.84 38.91-44.48 38.91-83.44 0-38.97-16.88-61.6-38.91-83.44v-58.95c4.67 4.63 9.56 9.22 14.58 13.92 31.39 29.42 66.98 62.77 66.98 128.47z" fill="#bf2e70"/><path d="m413.05 458.17c-11.37 8.85-23.5 16.76-36.28 23.61-1.61-1.69-3.27-3.36-4.95-5.03-4.67-4.63-9.56-9.22-14.58-13.92-11-10.3-22.51-21.09-32.81-33.58-11.96-14.47-22.31-31.23-28.4-52.18-3.65-12.58-5.77-26.69-5.77-42.71l26.7-20.2 15.95 20.2c0 16.88 3.17 30.7 8.55 42.71 7.04 15.72 17.88 28.35 30.36 40.73 3.84 3.81 7.84 7.6 11.94 11.45.88.82 1.76 1.64 2.64 2.47 8.84 8.29 18.02 16.9 26.65 26.45z" fill="#8898e5"/><path d="m413.05 458.17c-11.37 8.85-23.5 16.76-36.28 23.61-1.61-1.69-3.27-3.36-4.95-5.03v-58.95c3.84 3.81 7.84 7.6 11.94 11.45.88.82 1.76 1.64 2.64 2.47 8.84 8.29 18.02 16.9 26.65 26.45z" fill="#546bd9"/></g></g><g><g><path d="m61.943 213.476h-15v-61.126h-13.065v-15h28.065z" fill="#9865d8"/></g><g><path d="m162.845 213.476h-15v-61.126h-13.065v-15h28.065z" fill="#9865d8"/></g><g><path d="m61.943 305.753h-15v-61.126h-13.065v-15h28.065z" fill="#9865d8"/></g><g><path d="m102.713 305.753h-15v-61.126h-13.066v-15h28.066z" fill="#9865d8"/></g><g><path d="m143.6 305.753h-15v-61.126h-13.066v-15h28.066z" fill="#9865d8"/></g><g><path d="m185.552 398.03h-15v-61.126h-13.065v-15h28.065z" fill="#9865d8"/></g><g><path d="m226.438 398.03h-15v-61.126h-13.064v-15h28.064z" fill="#9865d8"/></g><g><path d="m236.76 305.753h-15v-61.126h-13.065v-15h28.065z" fill="#9865d8"/></g><g><path d="m274.925 305.753h-15v-61.126h-13.065v-15h28.065z" fill="#9865d8"/></g><g><path d="m99.824 214.723c-13.882 0-25.176-11.294-25.176-25.176v-28.269c0-13.882 11.294-25.176 25.176-25.176s25.176 11.294 25.176 25.176v28.269c0 13.882-11.294 25.176-25.176 25.176zm0-63.621c-5.611 0-10.176 4.565-10.176 10.176v28.269c0 5.611 4.565 10.176 10.176 10.176s10.176-4.565 10.176-10.176v-28.269c0-5.611-4.565-10.176-10.176-10.176z" fill="#9865d8"/></g><g><path d="m69.453 399.278c-13.882 0-25.176-11.294-25.176-25.176v-28.269c0-13.882 11.294-25.176 25.176-25.176s25.176 11.294 25.176 25.176v28.269c0 13.882-11.294 25.176-25.176 25.176zm0-63.621c-5.611 0-10.176 4.565-10.176 10.176v28.269c0 5.611 4.565 10.176 10.176 10.176s10.176-4.565 10.176-10.176v-28.269c0-5.611-4.565-10.176-10.176-10.176z" fill="#9865d8"/></g><g><path d="m124.17 399.278c-13.882 0-25.176-11.294-25.176-25.176v-28.269c0-13.882 11.294-25.176 25.176-25.176s25.176 11.294 25.176 25.176v28.269c.001 13.882-11.293 25.176-25.176 25.176zm0-63.621c-5.611 0-10.176 4.565-10.176 10.176v28.269c0 5.611 4.565 10.176 10.176 10.176s10.176-4.565 10.176-10.176v-28.269c.001-5.611-4.564-10.176-10.176-10.176z" fill="#9865d8"/></g><g><path d="m260.893 399.278c-13.882 0-25.176-11.294-25.176-25.176v-28.269c0-13.882 11.294-25.176 25.176-25.176s25.176 11.294 25.176 25.176v28.269c0 13.882-11.294 25.176-25.176 25.176zm0-63.621c-5.611 0-10.176 4.565-10.176 10.176v28.269c0 5.611 4.565 10.176 10.176 10.176s10.176-4.565 10.176-10.176v-28.269c0-5.611-4.565-10.176-10.176-10.176z" fill="#9865d8"/></g><g><path d="m198.088 214.723c-13.882 0-25.176-11.294-25.176-25.176v-28.269c0-13.882 11.294-25.176 25.176-25.176s25.176 11.294 25.176 25.176v28.269c.001 13.882-11.293 25.176-25.176 25.176zm0-63.621c-5.611 0-10.176 4.565-10.176 10.176v28.269c0 5.611 4.565 10.176 10.176 10.176s10.176-4.565 10.176-10.176v-28.269c.001-5.611-4.564-10.176-10.176-10.176z" fill="#9865d8"/></g><g><path d="m180.412 305.753c-13.882 0-25.176-11.294-25.176-25.176v-28.269c0-13.882 11.294-25.176 25.176-25.176s25.176 11.294 25.176 25.176v28.269c0 13.882-11.294 25.176-25.176 25.176zm0-63.621c-5.611 0-10.176 4.565-10.176 10.176v28.269c0 5.611 4.565 10.176 10.176 10.176s10.176-4.565 10.176-10.176v-28.269c0-5.611-4.565-10.176-10.176-10.176z" fill="#9865d8"/></g><g><path d="m254.36 214.723c-13.882 0-25.176-11.294-25.176-25.176v-28.269c0-13.882 11.294-25.176 25.176-25.176s25.176 11.294 25.176 25.176v28.269c0 13.882-11.294 25.176-25.176 25.176zm0-63.621c-5.611 0-10.176 4.565-10.176 10.176v28.269c0 5.611 4.565 10.176 10.176 10.176s10.176-4.565 10.176-10.176v-28.269c0-5.611-4.565-10.176-10.176-10.176z" fill="#9865d8"/></g></g></g></svg>