<svg id="Capa_1" enable-background="new 0 0 512 512" height="512" viewBox="0 0 512 512" width="512" xmlns="http://www.w3.org/2000/svg"><g><path d="m127.084 332.183-24.173-23.44c-3.996-3.875-10.347-3.875-14.343 0l-24.173 23.44c-1.922 1.864-4.494 2.906-7.172 2.906h-46.921c-5.69.001-10.302 4.613-10.302 10.302v93.868c0 5.69 4.612 10.302 10.302 10.302h170.876c5.69 0 10.302-4.612 10.302-10.302v-93.868c0-5.69-4.612-10.302-10.302-10.302h-46.922c-2.677.001-5.25-1.042-7.172-2.906z" fill="#d8e2f1"/><path d="m170.667 335.09v114.472h10.511c5.69 0 10.302-4.612 10.302-10.302v-93.868c0-5.69-4.612-10.302-10.302-10.302z" fill="#b9cbea"/><circle cx="95.74" cy="114.471" fill="#f1d0a5" r="52.033"/><path d="m118.912 67.884c3.479 6.98 5.446 14.844 5.446 23.172 0 28.737-23.296 52.033-52.033 52.033-8.328 0-16.193-1.967-23.172-5.446 8.524 17.104 26.178 28.86 46.587 28.86 28.737 0 52.033-23.296 52.033-52.033-.001-20.408-11.757-38.061-28.861-46.586z" fill="#f1b986"/><path d="m10.922 262.244c-6.153 0-10.971-5.364-10.241-11.474 5.669-47.466 46.067-84.266 95.059-84.266s89.39 36.8 95.059 84.266c.73 6.11-4.088 11.474-10.241 11.474z" fill="#5766cb"/><path d="m126.959 190.959c0 29.91-15.116 56.184-37.931 71.285h91.527c6.19 0 10.973-5.421 10.232-11.567-4.537-37.671-30.953-68.607-66.168-79.736 1.517 6.421 2.34 13.12 2.34 20.018z" fill="#3342aa"/><g><path d="m501.698 449.561h-85.438v-64.52h85.438c5.69 0 10.302 4.612 10.302 10.302v43.917c0 5.689-4.612 10.301-10.302 10.301z" fill="#d8e2f1"/><path d="m416.26 449.561h-177.015c-5.69 0-10.302-4.612-10.302-10.302v-43.917c0-5.69 4.612-10.302 10.302-10.302h177.015z" fill="#5766cb"/></g><g><path d="m501.698 342.027h-147.877v-64.52h147.877c5.69 0 10.302 4.612 10.302 10.302v43.917c0 5.689-4.612 10.301-10.302 10.301z" fill="#d8e2f1"/><path d="m353.821 342.027h-114.576c-5.69 0-10.302-4.612-10.302-10.302v-43.917c0-5.69 4.612-10.302 10.302-10.302h114.576z" fill="#80e29d"/></g><g><path d="m501.698 234.493h-64.625v-64.52h64.625c5.69 0 10.302 4.612 10.302 10.302v43.917c0 5.689-4.612 10.301-10.302 10.301z" fill="#d8e2f1"/><path d="m437.073 234.493h-197.828c-5.69 0-10.302-4.612-10.302-10.302v-43.917c0-5.69 4.612-10.302 10.302-10.302h197.828z" fill="#dd5790"/></g><g><path d="m501.698 126.959h-189.503v-64.52h189.503c5.69 0 10.302 4.612 10.302 10.302v43.917c0 5.689-4.612 10.301-10.302 10.301z" fill="#d8e2f1"/><path d="m312.195 126.959h-72.95c-5.69 0-10.302-4.612-10.302-10.302v-43.916c0-5.69 4.612-10.302 10.302-10.302h72.95z" fill="#ffe07d"/></g><g><path d="m158.179 383.401h-124.878c-4.268 0-7.726-3.459-7.726-7.726s3.459-7.726 7.726-7.726h124.878c4.268 0 7.726 3.459 7.726 7.726s-3.458 7.726-7.726 7.726z" fill="#a2b9e2"/></g><g><path d="m116.553 420.865h-83.252c-4.268 0-7.726-3.459-7.726-7.726s3.459-7.726 7.726-7.726h83.253c4.268 0 7.726 3.459 7.726 7.726s-3.459 7.726-7.727 7.726z" fill="#a2b9e2"/></g></g></svg>