<svg id="Capa_1" enable-background="new 0 0 512 512" height="512" viewBox="0 0 512 512" width="512" xmlns="http://www.w3.org/2000/svg"><g><g><path d="m512 256c0 141.387-114.613 256-256 256s-256-114.613-256-256 114.613-256 256-256 256 114.613 256 256zm0 0" fill="#a8eb58"/><path d="m512 256c0 26.051-3.891 51.191-11.129 74.871-5.031 16.469-11.672 32.231-19.75 47.109-8.25 15.2-147.391 53.734-225.121 53.734s-216.871-38.534-225.109-53.734c-3.289-6.031-6.332-12.21-9.121-18.531-14-31.629-21.77-66.629-21.77-103.449 0-46.219 12.25-89.57 33.68-127 44.121 77.07 127.16 129 222.32 129s178.211-51.93 222.32-129c21.43 37.43 33.68 80.781 33.68 127zm0 0" fill="#80cf8c"/><path d="m481.262 377.699c-7.16 13.223-15.434 25.742-24.723 37.43-8.437 10.633-17.719 20.57-27.719 29.723-45.539 41.699-106.211 67.148-172.82 67.148s-127.281-25.449-172.82-67.148c-10-9.153-19.282-19.09-27.719-29.723-9.289-11.688-17.563-24.207-24.723-37.43zm0 0" fill="#599d8a"/></g><g><path d="m415.348 387.645c0-2.014-.083-4.007-.238-5.98l21.39-12.642-31.625-54.947-21.565 12.642c-3.243-2.251-6.703-4.245-10.266-5.939l-.041-28.32h-31.687-31.729v28.299c-3.584 1.694-7.023 3.677-10.297 5.939l-21.535-12.611-31.625 54.936 21.39 12.632c-.155 1.973-.238 3.966-.238 5.99 0 2.014.083 4.018.238 5.99l-21.38 12.642 31.625 54.957 21.504-12.642c3.264 2.262 6.734 4.245 10.318 5.949l.031 28.994h31.698 31.729v-29.034c3.594-1.684 7.023-3.667 10.266-5.928l21.565 12.642 31.625-54.947-21.4-12.621c.164-1.983.247-3.977.247-6.001zm-74.034 21.152c-11.683 0-21.152-9.471-21.152-21.152 0-11.683 9.47-21.152 21.152-21.152 11.683 0 21.152 9.47 21.152 21.152.001 11.681-9.469 21.152-21.152 21.152z" fill="#fbf5eb"/><path d="m373.043 454.5c3.594-1.684 7.023-3.667 10.266-5.928l21.565 12.642 31.625-54.947-21.4-12.621c.165-1.983.248-3.976.248-6.001 0-2.014-.083-4.007-.238-5.98l21.39-12.642-31.625-54.947-21.565 12.642c-3.243-2.251-6.703-4.245-10.266-5.939l-.041-28.32h-31.687v74.033c11.683 0 21.152 9.47 21.152 21.152 0 11.681-9.47 21.152-21.152 21.152v74.738h31.729v-29.034z" fill="#dce0ef"/><path d="m341.314 355.916c-17.523 0-31.729 14.205-31.729 31.729 0 17.523 14.205 31.728 31.729 31.728 17.523 0 31.729-14.205 31.729-31.728s-14.205-31.729-31.729-31.729zm0 42.305c-5.841 0-10.576-4.736-10.576-10.576 0-5.842 4.736-10.576 10.576-10.576 5.841 0 10.576 4.734 10.576 10.576.001 5.841-4.735 10.576-10.576 10.576z" fill="#dce0ef"/><path d="m373.043 387.645c0-17.523-14.205-31.729-31.729-31.729v21.152c5.841 0 10.576 4.734 10.576 10.576 0 5.841-4.736 10.576-10.576 10.576v21.152c17.524.001 31.729-14.204 31.729-31.727z" fill="#cad0e7"/><path d="m171.391 143.688h-16.71l-21.153-21.153h-58.028v63.457l21.857 10.577h74.034 74.738l21.152-10.577v-42.304z" fill="#e38d22"/><path d="m267.281 185.992v-42.304h-95.89v52.881h74.738z" fill="#da5f2a"/><path d="m171.391 185.992h-95.891v106.467h95.891 95.89v-106.467z" fill="#f3d37a"/><path d="m192.895 185.992h-74.385v106.467h74.385 74.386v-106.467z" fill="#efc142"/><path d="m171.391 185.992h95.891v106.467h-95.891z" fill="#e38d22"/><path d="m171.391 351.537-14.956 14.955 10.576 10.577h-27.349v-63.457h-21.152v84.609h48.501l-10.576 10.576 14.956 14.956 36.107-36.108z" fill="#8ab8ec"/><path d="m171.391 351.537v72.216l36.107-36.108z" fill="#728ee4"/><path d="m345.694 186.698 10.576-10.577-14.956-14.955-36.107 36.108 36.107 36.107 14.956-14.955-10.576-10.576h27.349v63.457h21.152v-84.609z" fill="#8ab8ec"/><path d="m345.694 207.85h27.349v63.457h21.152v-84.609h-48.501l10.576-10.577-14.956-14.955v72.215l14.956-14.955z" fill="#728ee4"/></g><g fill="#fff"><path d="m237.445 62.765h-1.524c-6.754 0-12.226-5.477-12.226-12.227v-1.523h-8.715v1.523c0 6.75-5.477 12.227-12.227 12.227h-1.527v8.715h1.527c6.75 0 12.227 5.472 12.227 12.226v1.528h8.715v-1.528c0-6.754 5.472-12.226 12.226-12.226h1.524zm0 0"/><path d="m370 103.344h-1.524c-6.754 0-12.226-5.477-12.226-12.227v-1.523h-8.715v1.523c0 6.75-5.477 12.227-12.227 12.227h-1.527v8.715h1.527c6.75 0 12.227 5.472 12.227 12.226v1.528h8.715v-1.528c0-6.754 5.472-12.226 12.226-12.226h1.524zm0 0"/></g></g></svg>