<svg id="Capa_1" enable-background="new 0 0 512 512" height="512" viewBox="0 0 512 512" width="512" xmlns="http://www.w3.org/2000/svg"><circle cx="256" cy="256" fill="#65b2fe" r="256"/><path d="m512 256c0 87.11-43.52 164.07-110 210.31-41.41 28.8-91.73 45.69-146 45.69s-104.59-16.89-146-45.69c-66.48-46.24-110-123.2-110-210.31 0-46.22 12.25-89.57 33.68-127 44.12 77.07 127.16 129 222.32 129s178.21-51.93 222.32-129c21.43 37.43 33.68 80.78 33.68 127z" fill="#0e9ce7"/><path d="m452 316c0 105.34-83.12 191.28-187.34 195.81-.31.02-.62.03-.93.04-.87.03-1.74.06-2.6.08-1.73.05-3.44.07-5.13.07-108.24 0-196-87.76-196-196s87.76-196 196-196h.28c108.11.15 195.72 87.85 195.72 196z" fill="#ffe853"/><path d="m452 316c0 105.34-83.12 191.28-187.34 195.81-.31.02-.62.03-.93.04-.87.03-1.74.06-2.6.08-1.73.05-3.44.07-5.13.07-58.54-45.3-103.35-116.25-103.35-196s44.81-150.7 103.35-196h.28c108.11.15 195.72 87.85 195.72 196z" fill="#fed110"/><path d="m452 316c0 108.244-87.756 196-196 196v-392c108.244 0 196 87.756 196 196z" fill="#ff9f01"/><path d="m331.5 262.207c0 41.701-33.807 75.508-75.491 75.508-41.701 0-75.508-33.806-75.508-75.508 0-41.685 33.807-75.491 75.508-75.491 41.684-.001 75.491 33.806 75.491 75.491z" fill="#fff"/><circle cx="256.789" cy="262.213" fill="#29334c" r="41.957"/><path d="m365.014 393.314c-5.989 31.656-25.406 58.54-52.116 74.518-16.625 9.969-36.09 15.698-56.898 15.698s-40.273-5.728-56.898-15.698c-26.71-15.978-46.127-42.862-52.116-74.518-2.048-10.761 6.202-20.74 17.156-20.74h10.066l14.925 14.925h135.193l13.466-14.925h10.066c10.954 0 19.204 9.979 17.156 20.74z" fill="#313b5a"/><path d="m365.014 393.314c-5.989 31.656-25.406 58.54-52.116 74.518-16.625 9.969-36.09 15.698-56.898 15.698v-96.031h68.326l13.466-14.925h10.066c10.954 0 19.204 9.979 17.156 20.74z" fill="#29334c"/><path d="m312.902 467.836c-16.632 9.964-36.096 15.691-56.902 15.691s-40.27-5.727-56.902-15.692c8.792-22.867 30.95-39.087 56.902-39.087s48.111 16.221 56.902 39.088z" fill="#ff1d56"/><path d="m312.902 467.836c-16.632 9.964-36.096 15.691-56.902 15.691v-54.778c25.952 0 48.111 16.22 56.902 39.087z" fill="#dd1265"/><path d="m337.792 372.574v2.318c0 18.122-14.703 32.825-32.825 32.825h-97.934c-18.122 0-32.825-14.703-32.825-32.825v-2.318z" fill="#fff"/><path d="m337.792 372.574v2.318c0 18.122-14.703 32.825-32.825 32.825h-48.967v-35.143z" fill="#d1f6ff"/></svg>