<svg id="Layer_1" enable-background="new 0 0 477.673 477.673" height="512" viewBox="0 0 477.673 477.673" width="512" xmlns="http://www.w3.org/2000/svg"><g><g><g><path d="m464.032 238.837c0 131.906-93.29 209.831-225.196 209.831s-219.77-79.417-219.77-211.323c0-78.745 19.042-147.098 77.823-190.605 39.683-29.372 88.787-46.74 141.948-46.74 71.118 0 134.975 31.083 178.728 80.406 37.398 42.158 46.467 97.642 46.467 158.431z" fill="#ff5551"/></g></g><path d="m432.39 98.906c-4.643-6.41-9.596-12.58-14.838-18.489h-287.245c-9.253 0-15.823-9.102-12.814-17.852.067-.194.133-.387.201-.581 4.327-12.477-10.187-23.097-20.802-15.24-58.438 43.252-96.445 112.531-96.888 190.711-.744 131.287 105.61 239.169 236.895 240.21 61.815.49 118.242-22.511 160.909-60.606z" fill="#e20a62"/><g><path d="m171.393 328.406h288.899c11.199-27.662 17.381-57.892 17.381-89.57 0-48.705-14.592-93.996-39.624-131.765h-266.656z" fill="#20b7a1"/><g><path d="m464.032 318.538h-232.048c-25.399 0-45.989-20.59-45.989-45.989v-34.83c0-2.329 1.587-4.345 3.844-4.921 1.541-.393 3.034-1.142 3.379-2.55l11.622-35.628c.059-.175.117-.468.117-.759 0-1.986-3.271-3.621-5.9-3.621-1.401 0-2.569.467-2.92 1.694l-8.878 29.962-1.266-5.417v-109.408h-126.588v273.103h371.959c13.724-18.663 24.795-39.391 32.668-61.636z" fill="#269ab1"/><g><path d="m212.262 232.935h20.793c1.927 0 2.745-2.044 2.745-3.913 0-2.161-.994-4.03-2.745-4.03h-15.653v-9.93h8.761c1.928 0 2.745-1.869 2.745-3.446 0-1.869-.993-3.563-2.745-3.563h-8.761v-9.871h15.653c1.751 0 2.745-1.869 2.745-4.03 0-1.869-.819-3.913-2.745-3.913h-20.793c-1.985 0-3.972.934-3.972 2.804v37.088c0 1.869 1.986 2.804 3.972 2.804z" fill="#269ab1"/></g><g><path d="m243.743 232.935h18.456c1.753 0 2.629-1.986 2.629-3.972s-.876-3.972-2.629-3.972h-13.316v-32.007c0-1.927-2.278-2.745-4.556-2.745s-4.557.817-4.557 2.745v37.147c.001 1.869 1.988 2.804 3.973 2.804z" fill="#269ab1"/></g><g><path d="m281.418 233.285c8.352 0 14.659-4.439 14.659-12.207 0-3.505-1.46-4.323-4.613-4.323-2.337 0-4.323.585-4.498 2.745-.175 2.278-.467 5.841-5.14 5.841-3.388 0-5.314-1.869-5.314-5.841v-15.478c0-3.972 1.927-5.841 5.257-5.841 4.964 0 5.139 3.738 5.198 5.257.116 2.103 2.103 2.745 4.556 2.745 3.096 0 4.556-.818 4.556-4.322 0-7.418-6.307-11.623-14.659-11.623-7.651 0-14.018 3.738-14.018 13.784v15.478c-.002 10.047 6.365 13.785 14.016 13.785z" fill="#269ab1"/></g><g><path d="m314.536 233.285c8.061 0 14.368-3.738 14.368-13.784v-15.478c0-10.046-6.307-13.784-14.368-13.784s-14.31 3.738-14.31 13.784v15.478c0 10.046 6.249 13.784 14.31 13.784zm-5.198-29.262c0-4.03 1.927-5.841 5.198-5.841s5.257 1.811 5.257 5.841v15.478c0 4.03-1.986 5.841-5.257 5.841s-5.198-1.81-5.198-5.841z" fill="#269ab1"/></g><g><path d="m339.302 232.935c2.277 0 4.556-.935 4.556-2.804v-22.486l5.548 10.163c.701 1.343 1.811 1.694 2.862 1.694 1.11 0 2.278-.409 3.037-1.694l5.607-9.579v21.902c0 1.869 2.278 2.804 4.557 2.804 2.277 0 4.556-.935 4.556-2.804v-35.336c0-3.329-2.22-4.556-4.556-4.556-3.271 0-4.673.35-7.068 4.556l-6.015 10.513-6.016-10.513c-2.395-4.206-3.797-4.556-7.067-4.556-2.278 0-4.557 1.226-4.557 4.556v35.336c0 1.869 2.278 2.804 4.556 2.804z" fill="#269ab1"/></g><g><path d="m380.305 232.935h20.793c1.927 0 2.745-2.044 2.745-3.913 0-2.161-.994-4.03-2.745-4.03h-15.653v-9.93h8.761c1.928 0 2.745-1.869 2.745-3.446 0-1.869-.993-3.563-2.745-3.563h-8.761v-9.871h15.653c1.751 0 2.745-1.869 2.745-4.03 0-1.869-.819-3.913-2.745-3.913h-20.793c-1.986 0-3.972.934-3.972 2.804v37.088c0 1.869 1.986 2.804 3.972 2.804z" fill="#269ab1"/></g><g><path d="m218.161 254.639c-1.985 0-3.973.935-3.973 2.804v37.146c0 1.46 1.52 2.745 3.973 2.745h12.967c6.599 0 11.739-3.329 11.739-12.557v-1.227c0-5.841-2.454-8.002-6.015-9.345 3.096-1.343 4.964-4.439 4.964-9.17 0-8.294-5.841-10.396-11.68-10.396zm15.594 29.378c0 3.738-1.753 5.373-4.672 5.373h-5.841v-11.681h5.841c2.919 0 4.672 1.402 4.672 5.374zm-1.052-17.347c0 1.986-1.11 4.03-3.329 4.03h-6.133v-8.118h6.133c2.219 0 3.329 2.044 3.329 4.088z" fill="#269ab1"/></g><g><path d="m255.658 257.325-10.864 35.628c-.059.233-.115.467-.115.642 0 2.161 3.329 3.738 5.839 3.738 1.461 0 2.63-.467 2.98-1.694l1.986-7.301h12.324l1.985 7.301c.351 1.226 1.517 1.694 2.978 1.694 2.512 0 5.841-1.577 5.841-3.738 0-.175-.059-.409-.118-.642l-10.922-35.628c-.642-2.044-3.27-3.037-5.956-3.037s-5.315.993-5.958 3.037zm1.694 24.005 4.265-15.653 4.263 15.653z" fill="#269ab1"/></g><g><path d="m295.904 262.582c4.964 0 5.138 3.738 5.197 5.257.118 2.103 2.103 2.745 4.557 2.745 3.096 0 4.554-.818 4.554-4.322 0-7.418-6.307-11.623-14.658-11.623-7.652 0-14.018 3.738-14.018 13.784v15.477c0 10.046 6.366 13.784 14.018 13.784 8.351 0 14.658-4.439 14.658-12.207 0-3.505-1.459-4.323-4.613-4.323-2.336 0-4.322.585-4.498 2.745-.174 2.278-.466 5.841-5.14 5.841-3.388 0-5.314-1.869-5.314-5.841v-15.478c-.001-3.97 1.926-5.839 5.257-5.839z" fill="#269ab1"/></g><g><path d="m319.383 254.639c-2.277 0-4.557.817-4.557 2.745v37.147c0 1.869 2.279 2.803 4.557 2.803 2.277 0 4.557-.935 4.557-2.803v-10.572l2.451-3.154 9.988 15.186c.76 1.226 1.927 1.694 3.155 1.694 2.628 0 5.491-2.278 5.491-4.556 0-.525-.176-1.051-.468-1.518l-12.089-18.515 9.577-12.032c.468-.642.586-1.285.586-1.752 0-2.278-3.037-4.673-5.375-4.673-.934 0-1.75.35-2.393 1.284l-10.922 15.478v-14.018c-.001-1.927-2.281-2.744-4.558-2.744z" fill="#269ab1"/></g></g><g fill="#2d56a1"><path d="m443.174 362.549h-287.742v25.79h269.651c6.571-8.175 12.626-16.782 18.091-25.79z"/><path d="m155.432 124.696h293.249c-4.885-8.963-10.337-17.57-16.291-25.79h-276.958z"/></g><g><g><path d="m158.824 375.771v-13.222h-82.744v-237.853h82.744v-13.222c0-6.942 5.627-12.569 12.569-12.569h-108.535c-6.941 0-12.569 5.627-12.569 12.569v264.296c0 6.942 5.627 12.569 12.569 12.569h108.535c-6.941.001-12.569-5.627-12.569-12.568z" fill="#1a396b"/></g></g><path d="m175.203 388.34v26.313h225.269c8.847-8.137 17.073-16.935 24.611-26.313z" fill="#2896ff"/><g><path d="m186.33 388.34h-167.264v26.313h167.264z" fill="#2d56a1"/></g><g><path d="m73.882 341.014h80.036v47.325h-80.036z" fill="#ffc305"/></g><path d="m81.631 372.425c0-2.437-1.127-4.609-2.887-6.027-1.573-1.267-2.385-3.257-2.385-5.276v-20.108h-51.174v47.325h51.174v-4.611c0-2.02.812-4.009 2.385-5.276 1.76-1.418 2.887-3.589 2.887-6.027z" fill="#ff8500"/><g><circle cx="44.57" cy="354.494" fill="#fa690f" r="7.749"/></g><g><circle cx="49.411" cy="378.235" fill="#fa690f" r="5.809"/></g><g><circle cx="94.37" cy="357.424" fill="#ff8500" r="4.818"/></g><g><circle cx="110.784" cy="374.079" fill="#ff8500" r="8.521"/></g><g><circle cx="133.521" cy="358.641" fill="#ff8500" r="6.035"/></g><g fill="#fff"><path d="m193.601 222.293c-.701 2.044-3.33 3.037-6.016 3.037-2.628 0-5.432-.993-5.899-3.037l-3.037-13.842-3.037 13.842c-.467 2.044-3.271 3.037-5.9 3.037-2.687 0-5.373-.993-6.015-3.037l-11.623-35.628c-.058-.175-.116-.468-.116-.759 0-1.986 3.271-3.621 5.899-3.621 1.402 0 2.57.467 2.921 1.694l8.878 29.962 4.614-19.742c.351-1.577 2.395-2.395 4.38-2.395 1.986 0 4.03.818 4.38 2.395l4.614 19.742 8.878-29.962c.351-1.227 1.519-1.694 2.919-1.694 2.629 0 5.9 1.635 5.9 3.621 0 .292-.059.584-.118.759z"/><path d="m217.785 200.099h8.761c1.753 0 2.745 1.694 2.745 3.563 0 1.577-.817 3.446-2.745 3.446h-8.761v9.93h15.653c1.751 0 2.745 1.869 2.745 4.03 0 1.869-.819 3.913-2.745 3.913h-20.793c-1.986 0-3.972-.934-3.972-2.804v-37.088c0-1.869 1.987-2.804 3.972-2.804h20.793c1.927 0 2.745 2.044 2.745 3.913 0 2.161-.994 4.03-2.745 4.03h-15.653z"/><path d="m244.127 224.98c-1.985 0-3.972-.934-3.972-2.804v-37.147c0-1.927 2.278-2.745 4.557-2.745 2.277 0 4.556.817 4.556 2.745v32.007h13.316c1.753 0 2.629 1.985 2.629 3.972 0 1.985-.876 3.972-2.629 3.972z"/><path d="m282.153 190.228c-3.33 0-5.257 1.869-5.257 5.841v15.478c0 3.972 1.927 5.841 5.314 5.841 4.673 0 4.965-3.563 5.14-5.841.175-2.161 2.161-2.745 4.498-2.745 3.154 0 4.613.818 4.613 4.323 0 7.768-6.307 12.207-14.659 12.207-7.651 0-14.018-3.738-14.018-13.784v-15.478c0-10.046 6.367-13.784 14.018-13.784 8.352 0 14.659 4.205 14.659 11.623 0 3.504-1.46 4.322-4.556 4.322-2.452 0-4.439-.643-4.556-2.745-.057-1.52-.232-5.258-5.196-5.258z"/><path d="m300.61 211.546v-15.478c0-10.046 6.249-13.784 14.31-13.784s14.368 3.738 14.368 13.784v15.478c0 10.046-6.307 13.784-14.368 13.784s-14.31-3.738-14.31-13.784zm19.567-15.478c0-4.03-1.985-5.841-5.257-5.841-3.271 0-5.198 1.811-5.198 5.841v15.478c0 4.03 1.927 5.841 5.198 5.841s5.257-1.81 5.257-5.841z"/><path d="m355.689 209.852c-.759 1.285-1.927 1.694-3.037 1.694-1.052 0-2.161-.351-2.862-1.694l-5.548-10.163v22.486c0 1.869-2.278 2.804-4.556 2.804s-4.557-.934-4.557-2.804v-35.335c0-3.329 2.278-4.556 4.557-4.556 3.27 0 4.672.35 7.067 4.556l6.016 10.513 6.015-10.513c2.395-4.206 3.797-4.556 7.068-4.556 2.336 0 4.556 1.226 4.556 4.556v35.336c0 1.869-2.278 2.804-4.556 2.804s-4.557-.934-4.557-2.804v-21.902z"/><path d="m385.829 200.099h8.761c1.753 0 2.745 1.694 2.745 3.563 0 1.577-.818 3.446-2.745 3.446h-8.761v9.93h15.653c1.751 0 2.745 1.869 2.745 4.03 0 1.869-.819 3.913-2.745 3.913h-20.793c-1.986 0-3.972-.934-3.972-2.804v-37.088c0-1.869 1.987-2.804 3.972-2.804h20.793c1.927 0 2.745 2.044 2.745 3.913 0 2.161-.994 4.03-2.745 4.03h-15.653z"/></g><g fill="#fff"><path d="m214.572 249.487c0-1.869 1.987-2.804 3.972-2.804h11.974c5.84 0 11.681 2.103 11.681 10.396 0 4.731-1.869 7.827-4.965 9.17 3.563 1.343 6.016 3.505 6.016 9.345v1.227c0 9.228-5.14 12.557-11.74 12.557h-12.967c-2.454 0-3.972-1.285-3.972-2.745v-37.146zm9.053 13.258h6.133c2.22 0 3.329-2.044 3.329-4.03 0-2.044-1.109-4.089-3.329-4.089h-6.133zm5.841 18.69c2.921 0 4.672-1.635 4.672-5.373v-.935c0-3.972-1.751-5.374-4.672-5.374h-5.841v11.681h5.841z"/><path d="m245.062 285.641c0-.175.058-.409.116-.642l10.864-35.628c.642-2.044 3.271-3.037 5.958-3.037s5.315.993 5.958 3.037l10.922 35.628c.058.233.116.467.116.642 0 2.161-3.329 3.738-5.841 3.738-1.46 0-2.628-.467-2.978-1.694l-1.986-7.301h-12.324l-1.985 7.301c-.351 1.226-1.519 1.694-2.979 1.694-2.512 0-5.841-1.577-5.841-3.738zm21.202-12.266-4.264-15.652-4.264 15.653h8.528z"/><path d="m296.287 254.627c-3.33 0-5.257 1.869-5.257 5.841v15.478c0 3.971 1.927 5.841 5.314 5.841 4.673 0 4.965-3.563 5.14-5.841.175-2.161 2.161-2.745 4.498-2.745 3.154 0 4.613.818 4.613 4.323 0 7.768-6.307 12.207-14.659 12.207-7.651 0-14.018-3.738-14.018-13.784v-15.478c0-10.046 6.367-13.784 14.018-13.784 8.352 0 14.659 4.205 14.659 11.623 0 3.505-1.46 4.322-4.556 4.322-2.452 0-4.439-.643-4.556-2.745-.057-1.52-.233-5.258-5.196-5.258z"/><path d="m315.211 249.428c0-1.927 2.278-2.745 4.557-2.745 2.277 0 4.556.818 4.556 2.745v14.018l10.922-15.478c.642-.934 1.46-1.284 2.394-1.284 2.337 0 5.374 2.394 5.374 4.673 0 .467-.118 1.11-.585 1.752l-9.578 12.032 12.089 18.515c.293.467.468.993.468 1.518 0 2.278-2.862 4.556-5.491 4.556-1.227 0-2.395-.468-3.154-1.694l-9.988-15.186-2.453 3.154v10.572c0 1.869-2.278 2.803-4.556 2.803s-4.557-.935-4.557-2.803v-37.148z"/></g><g><path d="m286.02 388.34h-93.899c-5.442 0-9.854-4.412-9.854-9.854 0-5.442 4.412-9.854 9.854-9.854h93.899c5.442 0 9.854 4.412 9.854 9.854-.001 5.442-4.412 9.854-9.854 9.854z" fill="#fff"/></g></g></g></svg>