<svg id="Capa_1" enable-background="new 0 0 512 512" height="512" viewBox="0 0 512 512" width="512" xmlns="http://www.w3.org/2000/svg"><circle cx="256" cy="256" fill="#22d7ff" r="256"/><path d="m512 256c0 87.11-43.52 164.07-110 210.31-41.41 28.8-91.73 45.69-146 45.69s-104.59-16.89-146-45.69c-66.48-46.24-110-123.2-110-210.31 0-46.22 12.25-89.57 33.68-127 44.12 77.07 127.16 129 222.32 129s178.21-51.93 222.32-129c21.43 37.43 33.68 80.78 33.68 127z" fill="#00b3fe"/><path d="m390.32 141.14h-28.18v-28.43c0-16.92-13.71-30.64-30.63-30.64h-151.02c-16.92 0-30.63 13.72-30.63 30.64v28.43h-28.18c-26.25 0-47.53 21.28-47.53 47.53v19.73c0 30.46 11.87 59.1 33.41 80.64 21.54 21.55 50.18 33.41 80.64 33.41h11.12c7.57 0 14.69 3.78 18.76 10.14.02.04.05.08.07.11 10.73 16.83 1.15 39.19-18.42 43.12l-26.05 5.23c-9.76 1.68-16.89 10.13-16.89 20.03v90.98c19.11 8.04 39.4 13.83 60.53 17.03 12.62 1.92 25.53 2.91 38.68 2.91 35.18 0 68.7-7.1 99.21-19.94v-90.98c0-4.95-1.79-9.54-4.79-13.1s-7.23-6.09-12.1-6.93l-25.69-4.97c-19.74-3.82-29.46-26.4-18.54-43.28.07-.11.14-.22.21-.33 4.12-6.29 11.17-10.02 18.68-10.02h10.82c30.46 0 59.1-11.86 80.64-33.41 21.54-21.54 33.41-50.18 33.41-80.64v-19.73c0-26.25-21.28-47.53-47.53-47.53zm-229.93 137.97c-28.49-8.35-49.35-34.72-49.35-65.87v-15.34c0-9.34 7.57-16.92 16.92-16.92h21.9v43.37c0 17.76 5.68 34.36 15.32 47.98 2.4 3.4-.8 7.95-4.79 6.78zm243.79-63.2c0 33.51-22.29 61.9-52.82 71.15-4.32 1.3-7.81-3.62-5.23-7.32 10.09-14.47 16.01-32.06 16.01-51.04v-47.72h23.72c10.12 0 18.32 8.2 18.32 18.32z" fill="#ffe400"/><path d="m390.32 141.14h-28.18v-28.43c0-16.92-13.71-30.64-30.63-30.64h-75.51v429.93c35.18 0 68.7-7.1 99.21-19.94v-90.98c0-4.95-1.79-9.54-4.79-13.1s-7.23-6.09-12.1-6.93l-25.69-4.97c-19.74-3.82-29.46-26.4-18.54-43.28l.21-.33c4.12-6.29 11.17-10.02 18.68-10.02h10.82c30.46 0 59.1-11.86 80.64-33.41 21.54-21.54 33.41-50.18 33.41-80.64v-19.73c0-26.25-21.28-47.53-47.53-47.53zm13.86 74.77c0 33.51-22.29 61.9-52.82 71.15-4.32 1.3-7.81-3.62-5.23-7.32 10.09-14.47 16.01-32.06 16.01-51.04v-47.72h23.72c10.12 0 18.32 8.2 18.32 18.32z" fill="#ffb600"/><path d="m294.09 332.8c-10.92 16.88-1.2 39.46 18.54 43.28l25.69 4.97c4.87.84 9.1 3.37 12.1 6.93s4.79 8.15 4.79 13.1v90.98c-30.51 12.84-64.03 19.94-99.21 19.94s-68.7-7.1-99.21-19.94v-90.98c0-9.9 7.13-18.35 16.89-20.03l26.05-5.23c19.57-3.93 29.15-26.29 18.42-43.12-5.16-8.1-12.02-15.17-20.25-20.67-28.89-19.27-48.04-52.34-48.04-89.34v-109.98c0-16.92 13.71-30.64 30.63-30.64h151.02c16.92 0 30.63 13.72 30.63 30.64v110.89c0 36.97-18.91 69.53-47.59 88.53-8.29 5.5-15.22 12.56-20.46 20.67z" fill="#ffe400"/><path d="m294.09 332.8c-10.92 16.88-1.2 39.46 18.54 43.28l25.69 4.97c4.87.84 9.1 3.37 12.1 6.93s4.79 8.15 4.79 13.1v90.98c-30.51 12.84-64.03 19.94-99.21 19.94-13.15 0-26.06-.99-38.68-2.91-1.25-2.43-2.05-6.17-2.05-10.36v-97.65c0-9.9 2.92-18.35 6.93-20.03l10.7-5.23c8.03-3.93 11.96-26.29 7.56-43.12-2.12-8.1-4.94-15.17-8.32-20.67-11.86-19.27-29.74-52.34-29.74-89.34v-140.62h129.11c16.92 0 30.63 13.72 30.63 30.64v110.89c0 36.97-18.91 69.53-47.59 88.53-8.29 5.5-15.22 12.56-20.46 20.67z" fill="#ffce00"/><path d="m294.09 332.8c-10.92 16.88-1.2 39.46 18.54 43.28l25.69 4.97c4.87.84 9.1 3.37 12.1 6.93s4.79 8.15 4.79 13.1v90.98c-30.51 12.84-64.03 19.94-99.21 19.94v-429.93h75.51c16.92 0 30.63 13.72 30.63 30.64v110.89c0 36.97-18.91 69.53-47.59 88.53-8.29 5.5-15.22 12.56-20.46 20.67z" fill="#ffb600"/><path d="m362.14 112.71v28.43h-212.28v-28.43c0-16.92 13.71-30.64 30.63-30.64h151.02c16.92 0 30.63 13.72 30.63 30.64z" fill="#ffce00"/><path d="m362.14 112.71v28.43h-159.74v-59.07h129.11c16.92 0 30.63 13.72 30.63 30.64z" fill="#ffb600"/><path d="m362.14 112.71v28.43h-106.14v-59.07h75.51c16.92 0 30.63 13.72 30.63 30.64z" fill="#ec781b"/><path d="m355.21 401.08v90.98c-30.51 12.84-64.03 19.94-99.21 19.94s-68.7-7.1-99.21-19.94v-90.98z" fill="#c55732"/><path d="m355.21 401.08v90.98c-30.51 12.84-64.03 19.94-99.21 19.94v-110.92z" fill="#a63917"/><path d="m193.762 432.015h124.476v49.05h-124.476z" fill="#fff"/><path d="m256 432.015h62.238v49.05h-62.238z" fill="#d1f6ff"/><g fill="#fff"><path d="m438.17 301.765h1.524c6.753 0 12.227 5.474 12.227 12.227v1.524h8.716v-1.524c0-6.753 5.474-12.227 12.227-12.227h1.525v-8.716h-1.525c-6.753 0-12.227-5.474-12.227-12.227v-1.525h-8.716v1.525c0 6.753-5.474 12.227-12.227 12.227h-1.524z"/><path d="m37.611 301.765h1.524c6.753 0 12.227 5.474 12.227 12.227v1.524h8.716v-1.524c0-6.753 5.474-12.227 12.227-12.227h1.525v-8.716h-1.525c-6.753 0-12.227-5.474-12.227-12.227v-1.525h-8.716v1.525c0 6.753-5.474 12.227-12.227 12.227h-1.524z"/><path d="m94.272 395.289h1.524c6.753 0 12.227 5.474 12.227 12.227v1.524h8.716v-1.524c0-6.753 5.474-12.227 12.227-12.227h1.525v-8.716h-1.525c-6.753 0-12.227-5.474-12.227-12.227v-1.525h-8.716v1.525c0 6.753-5.474 12.227-12.227 12.227h-1.524z"/><path d="m381.51 395.289h1.524c6.753 0 12.227 5.474 12.227 12.227v1.524h8.716v-1.524c0-6.753 5.474-12.227 12.227-12.227h1.525v-8.716h-1.525c-6.753 0-12.227-5.474-12.227-12.227v-1.525h-8.716v1.525c0 6.753-5.474 12.227-12.227 12.227h-1.524z"/><path d="m94.272 98.936h1.524c6.753 0 12.227 5.474 12.227 12.227v1.524h8.716v-1.524c0-6.753 5.474-12.227 12.227-12.227h1.525v-8.716h-1.525c-6.753 0-12.227-5.474-12.227-12.227v-1.525h-8.716v1.525c0 6.753-5.474 12.227-12.227 12.227h-1.524z"/><path d="m381.51 98.936h1.524c6.753 0 12.227 5.474 12.227 12.227v1.524h8.716v-1.524c0-6.753 5.474-12.227 12.227-12.227h1.525v-8.716h-1.525c-6.753 0-12.227-5.474-12.227-12.227v-1.525h-8.716v1.525c0 6.753-5.474 12.227-12.227 12.227h-1.524z"/></g></svg>