<svg id="Capa_1" enable-background="new 0 0 512 512" height="512" viewBox="0 0 512 512" width="512" xmlns="http://www.w3.org/2000/svg"><g><g><g><g><g><g><g><circle cx="256" cy="256" fill="#ffce00" r="256"/></g></g></g></g></g></g><path d="m509.167 294.213-96.951-96.951-5.778 33.786-169.006-169.006-68.059 88.187.042 54.302-52.941 25.815 41.487 41.487-38.588 91.045-37.109 25.676 117.175 117.176c18.196 4.104 37.126 6.27 56.561 6.27 128.399 0 234.719-94.527 253.167-217.787z" fill="#ffa300"/><path d="m237.432 62.042c-1.436-.078-14.433-.588-29.021 5.753-13.893 6.039-31.862 19.446-38.59 49.021l-19.54 83.531h-33.806v30h26.789l-22.607 96.642-.023.098c-7.17 31.614-33.842 31.614-36.866 31.506l.146.007-1.649 29.955c.257.014.882.042 1.822.042 4.312 0 15.22-.588 27.199-5.795 13.895-6.039 31.865-19.447 38.592-49.026l24.195-103.43h38.759v-30h-31.742l17.951-76.738.023-.099c7.17-31.61 33.843-31.617 36.865-31.506l-.147-.007z" fill="#ff6c52"/><path d="m237.432 62.042c-1.436-.078-14.433-.588-29.021 5.753-13.893 6.039-31.862 19.446-38.59 49.021l-7.676 32.812v131.708l11.928-50.989h38.759v-30h-31.742l17.951-76.738.023-.099c7.17-31.61 33.843-31.617 36.865-31.506l-.147-.007z" fill="#ff432e"/><path d="m388.536 263.481-21.213-21.212-35.29 35.289-35.29-35.289-21.213 21.212 35.29 35.29-35.29 35.29 21.213 21.212 35.29-35.289 35.289 35.29 21.213-21.213-35.289-35.29z" fill="#7584f2"/><path d="m388.536 263.481-21.213-21.212-35.29 35.289v42.426l35.289 35.29 21.213-21.213-35.289-35.29z" fill="#606aea"/><g><path d="m254.689 400.281c-17.318-27.782-26.855-63.832-26.855-101.51s9.538-73.727 26.855-101.509l25.459 15.87c-14.39 23.083-22.314 53.498-22.314 85.639 0 32.142 7.925 62.556 22.314 85.64z" fill="#7584f2"/></g><g><path d="m412.216 400.281-25.459-15.87c14.39-23.084 22.315-53.498 22.315-85.64s-7.925-62.556-22.315-85.639l25.459-15.87c17.318 27.782 26.855 63.832 26.855 101.509s-9.537 73.728-26.855 101.51z" fill="#606aea"/></g></g></svg>