<svg id="Capa_1" enable-background="new 0 0 512 512" height="512" viewBox="0 0 512 512" width="512" xmlns="http://www.w3.org/2000/svg"><g><g><path d="m512 256c0 43.79-11 85.02-30.39 121.07l-225.61 49.67-225.61-49.67c-19.39-36.05-30.39-77.28-30.39-121.07 0-46.63 12.47-90.34 34.26-128 41.698 72.091 399.22 76.52 443.48 0 21.79 37.66 34.26 81.37 34.26 128z" fill="#9965d8"/><path d="m477.74 128c-44.26 76.52-126.99 128-221.74 128s-177.48-51.48-221.74-128c.01-.02.03-.05.04-.07 44.27-76.48 126.98-127.93 221.7-127.93s177.43 51.45 221.7 127.93c.01.02.03.05.04.07z" fill="#b895e5"/><path d="m481.61 377.07c-5.42 10.07-11.49 19.74-18.17 28.94-2.131 2.946-27.753-9.274-30.004-6.425-4.048 5.121 15.141 25.202 10.714 29.995-18.5 20.06-40.17 37.14-64.22 50.47-4.56 2.53-25.7-5.18-30.42-2.93-7.92 3.78.43 17.26-7.92 20.22-26.76 9.49-55.57 14.66-85.59 14.66s-58.83-5.17-85.59-14.66c-5.52-1.95 1.8-16.85-3.53-19.16-7.55-3.28-27.66 5.84-34.81 1.87-24.05-13.33-45.72-30.41-64.22-50.47-3.73-4.039 2.853-18.378-.608-22.651-2.933-3.62-15.948 2.86-18.681-.919-6.68-9.2-12.75-18.87-18.17-28.94z" fill="#5541b6"/></g><g><path d="m251.29 416.45-80.88 80.89c-13.33-4.72-26.14-10.52-38.34-17.29l91.41-91.41z" fill="#e8a440"/><path d="m379.93 480.05c-12.2 6.77-25.01 12.57-38.34 17.29l-80.88-80.89 27.81-27.81z" fill="#de8051"/></g><path d="m463.44 129.9v276.11c-5.96 8.24-12.4 16.11-19.29 23.57h-376.3c-6.89-7.46-13.33-15.33-19.29-23.57v-276.11z" fill="#f5dd6e"/><path d="m463.44 129.9v276.11c-5.96 8.24-12.4 16.11-19.29 23.57h-188.15v-299.68z" fill="#eec036"/><path d="m78.564 399.585v-239.688h354.872v239.688h-237.438l-41.868-11.257-41.868 11.257z" fill="#79ce8b"/><path d="m255.863 159.897h177.573v239.688h-177.573z" fill="#599d8a"/><g><path d="m137.814 206.995-48.814 128.167 18.69 7.118 11.767-30.895h54.969l11.653 30.877 18.712-7.062-48.39-128.225zm-10.739 84.39 19.994-52.496 19.811 52.496z" fill="#e8ebf7"/><path d="m287.96 265.33c5.12-6.25 8.19-14.23 8.19-22.92 0-19.97-16.25-36.23-36.23-36.23h-43.11v134.04l10.04-.04c.23-.01 17.01-.08 29.01-.12 4.14-.01 7.72-.02 9.84-.02 22.44 0 40.69-18.25 40.69-40.68 0-14.22-7.34-26.76-18.43-34.03zm-51.15-39.15h23.11c8.95 0 16.23 7.28 16.23 16.23s-7.28 16.23-16.23 16.23c-.55 0-2.06 0-4.06.01-6.74 0-19.05.02-19.05.02zm28.89 93.86c-2.13 0-5.7.01-9.84.02-6.04.02-13.3.05-19.05.07v-41.41c2.02-.01 11.49-.03 19.05-.03 5.41-.01 9.84-.02 9.84-.02 11.41 0 20.69 9.28 20.69 20.69 0 11.4-9.28 20.68-20.69 20.68z" fill="#e8ebf7"/><g fill="#daddee"><path d="m413.065 299.999c-2.37 2.72-7.354 9.138-10.041 11.393-6.545 5.829-14.832 8.785-24.63 8.785-25.914 0-46.997-21.083-46.997-46.997s21.083-46.997 46.997-46.997c9.419 0 18.503 2.773 26.269 8.021l8.286 5.598 11.197-16.572-8.286-5.598c-11.085-7.489-24.041-11.448-37.465-11.448-36.942 0-66.997 30.055-66.997 66.997s30.055 66.997 66.997 66.997c14.643 0 27.759-4.789 37.932-13.85 3.766-3.184 8.805-9.671 12.063-13.477z"/><path d="m306.39 299.36c0 22.43-18.25 40.68-40.69 40.68-2.12 0-5.7.01-9.84.02v-20c4.14-.01 7.71-.02 9.84-.02 11.41 0 20.69-9.28 20.69-20.68 0-11.41-9.28-20.69-20.69-20.69 0 0-4.43.01-9.84.02v-20.04c2-.01 3.51-.01 4.06-.01 8.95 0 16.23-7.28 16.23-16.23s-7.28-16.23-16.23-16.23h-4.06v-20h4.06c19.98 0 36.23 16.26 36.23 36.23 0 8.69-3.07 16.67-8.19 22.92 11.09 7.27 18.43 19.81 18.43 34.03z"/></g></g><path d="m112.262 377.07h83.736v22.515h-83.736z" fill="#e8ebf7"/><path d="m154.13 377.07h41.868v22.515h-41.868z" fill="#daddee"/></g></svg>