<svg id="Capa_1" enable-background="new 0 0 512 512" height="512" viewBox="0 0 512 512" width="512" xmlns="http://www.w3.org/2000/svg"><circle cx="256" cy="256" fill="#ffe400" r="256"/><path d="m512 256c0 87.11-43.52 164.07-110 210.31-41.41 28.8-91.73 45.69-146 45.69s-104.59-16.89-146-45.69c-66.48-46.24-110-123.2-110-210.31 0-46.22 12.25-89.57 33.68-127 44.12 77.07 127.16 129 222.32 129s178.21-51.93 222.32-129c21.43 37.43 33.68 80.78 33.68 127z" fill="#ffce00"/><path d="m403.871 289.885-148.416-148.417-28.119 28.119 147.299 147.296-109.2 153.766h48.772l93.764-132.03c10.703-15.071 8.97-35.664-4.1-48.734z" fill="#4e689b"/><path d="m403.871 289.885-148.416-148.417-14.058 14.058 159.172 159.175-110.749 155.948h24.387l93.764-132.03c10.703-15.071 8.97-35.664-4.1-48.734z" fill="#374c81"/><path d="m235.16 221.31c0 31.62-25.63 57.26-57.26 57.26-15.98 0-30.44-6.55-40.82-17.11-10.17-10.33-16.44-24.51-16.44-40.15 0-31.63 25.64-57.26 57.26-57.26 15.65 0 29.82 6.27 40.15 16.44 10.56 10.38 17.11 24.83 17.11 40.82z" fill="#fff"/><path d="m235.16 221.31c0 31.62-25.63 57.26-57.26 57.26-15.98 0-30.44-6.55-40.82-17.11l55.45-55.45 25.52-25.52c10.56 10.38 17.11 24.83 17.11 40.82z" fill="#b3f4ff"/><path d="m265.504 277.568-33.949 33.949-145.86-145.86 33.949-33.949c6.127-6.127 14.111-9.267 22.14-9.419 20.661-.396 40.451-8.292 55.33-22.564.403-.384.801-.773 1.196-1.168l15.049-15.049c14.037-14.037 32.434-21.056 50.833-21.056 18.11 0 36.218 6.8 50.169 20.401.001.001.001.001.002.002.223.215.443.433.662.652 28.074 28.074 28.074 73.591 0 101.666l-16.23 16.23c-14.615 14.615-22.964 34.227-23.899 54.873-.351 7.742-3.481 15.381-9.392 21.292z" fill="#4e689b"/><path d="m274.895 256.278c.936-20.646 9.285-40.259 23.899-54.873l16.23-16.23c28.074-28.074 28.074-73.591 0-101.666-.219-.219-.439-.437-.662-.652-.001-.001-.001-.001-.002-.002-13.951-13.602-32.059-20.401-50.169-20.401-18.398 0-36.796 7.019-50.833 21.056l-15.048 15.047c-.395.395-.793.784-1.196 1.168-14.879 14.273-34.669 22.168-55.33 22.564-8.029.152-16.013 3.292-22.14 9.419l73.59 73.59 72.269 72.269c5.912-5.91 9.042-13.549 9.392-21.289z" fill="#374c81"/><path d="m265.504 277.568-33.949 33.949-109.725-109.726 33.949-33.949c6.127-6.127 12.912-10.466 18.99-12.57 15.64-5.416 32.484-16.259 47.212-30.682.398-.389.794-.78 1.189-1.175l15.049-15.049c14.037-14.037 29.616-23.875 43.457-28.431 13.624-4.487 25.561-3.858 32.686 2.918.001.001.001.001.002.002.223.215.443.433.662.652 28.074 28.074 28.074 73.591 0 101.666l-16.23 16.23c-14.615 14.615-22.964 34.227-23.899 54.873-.352 7.742-3.482 15.381-9.393 21.292z" fill="#374c81"/><path d="m274.895 256.278c.936-20.646 9.285-40.259 23.899-54.873l16.23-16.23c28.074-28.074 28.074-73.591 0-101.666-.219-.219-.439-.437-.662-.652-.001-.001-.001-.001-.002-.002-7.125-6.776-19.062-7.405-32.686-2.918-13.842 4.557-29.42 14.394-43.457 28.431l-15.049 15.049c-.395.395-.791.786-1.189 1.175-14.728 14.424-31.571 25.266-47.212 30.682-6.078 2.103-12.863 6.442-18.99 12.57l37.456 37.456 72.269 72.269c5.913-5.912 9.043-13.551 9.393-21.291z" fill="#234177"/><path d="m265.504 277.568-33.949 33.949-72.269-72.269 155.739-155.74c28.074 28.074 28.074 73.591 0 101.666l-16.23 16.23c-14.615 14.615-22.964 34.227-23.899 54.873-.351 7.741-3.481 15.38-9.392 21.291z" fill="#234177"/><path d="m274.895 256.278c.936-20.646 9.285-40.259 23.899-54.873l16.23-16.23c28.074-28.074 28.074-73.591 0-101.666l-67.063 67.063-54.727 54.727 72.269 72.269c5.912-5.911 9.042-13.55 9.392-21.29z" fill="#16325b"/><path d="m377.65 470.3v11c-36.18 19.58-77.62 30.7-121.65 30.7-21.66 0-42.69-2.69-62.77-7.76-20.75-5.23-40.49-12.99-58.88-22.94v-11c0-32.58 26.42-59 59-59h125.3c32.58 0 59 26.42 59 59z" fill="#374c81"/><path d="m377.65 470.3v11c-36.18 19.58-77.62 30.7-121.65 30.7-21.66 0-42.69-2.69-62.77-7.76v-33.94c0-32.58 13.64-59 30.45-59h94.97c32.58 0 59 26.42 59 59z" fill="#234177"/><path d="m377.65 470.3v11c-36.18 19.58-77.62 30.7-121.65 30.7v-100.7h62.65c32.58 0 59 26.42 59 59z" fill="#16325b"/><circle cx="386.242" cy="312.52" fill="#374c81" r="37.803"/><path d="m386.241 274.717v75.606c20.878 0 37.803-16.925 37.803-37.803s-16.925-37.803-37.803-37.803z" fill="#234177"/><path d="m401.931 312.313c.112 8.762-6.958 15.896-15.69 15.896-8.664 0-15.691-7.023-15.691-15.691 0-8.745 7.16-15.818 15.935-15.685 8.45.129 15.338 7.031 15.446 15.48z" fill="#234177"/><path d="m401.932 312.518c0 8.668-7.027 15.691-15.691 15.691v-31.378c8.664.001 15.691 7.024 15.691 15.687z" fill="#16325b"/><path d="m377.65 470.3v11c-36.18 19.58-77.62 30.7-121.65 30.7-21.66 0-42.69-2.69-62.77-7.76-20.75-5.23-40.49-12.99-58.88-22.94v-11z" fill="#4e689b"/><path d="m377.65 470.3v11c-36.18 19.58-77.62 30.7-121.65 30.7-21.66 0-42.69-2.69-62.77-7.76v-33.94z" fill="#374c81"/><path d="m377.65 470.3v11c-36.18 19.58-77.62 30.7-121.65 30.7v-41.7z" fill="#234177"/></svg>