<svg id="Capa_1" enable-background="new 0 0 512 512" height="512" viewBox="0 0 512 512" width="512" xmlns="http://www.w3.org/2000/svg"><circle cx="256" cy="256" fill="#65b2fe" r="256"/><path d="m512 256c0 87.11-43.52 164.07-110 210.31-41.41 28.8-91.73 45.69-146 45.69s-104.59-16.89-146-45.69c-66.48-46.24-110-123.2-110-210.31 0-46.22 12.25-89.57 33.68-127 44.12 77.07 127.16 129 222.32 129s178.21-51.93 222.32-129c21.43 37.43 33.68 80.78 33.68 127z" fill="#0e9ce7"/><path d="m452 316c0 105.34-83.12 191.28-187.34 195.81-.31.02-.62.03-.93.04-.87.03-1.74.06-2.6.08-1.73.05-3.44.07-5.13.07-108.24 0-196-87.76-196-196s87.76-196 196-196h.28c108.11.15 195.72 87.85 195.72 196z" fill="#ffe853"/><path d="m452 316c0 105.34-83.12 191.28-187.34 195.81-.31.02-.62.03-.93.04-.87.03-1.74.06-2.6.08-1.73.05-3.44.07-5.13.07-58.54-45.3-103.35-116.25-103.35-196s44.81-150.7 103.35-196h.28c108.11.15 195.72 87.85 195.72 196z" fill="#fed110"/><path d="m452 316c0 108.244-87.756 196-196 196v-392c108.244 0 196 87.756 196 196z" fill="#ff9f01"/><path d="m391.884 388.746c5.965.695 8.106 8.214 3.492 12.058-25.061 20.879-56.781 32.476-89.736 32.476h-14c-14.72 0-27.74-7.28-35.64-18.45-7.9 11.17-20.92 18.45-35.64 18.45h-14c-19.22 0-38.01-3.94-55.31-11.37-12.371-5.313-23.98-12.401-34.429-21.105-4.614-3.844-2.473-11.363 3.492-12.058 26.328-3.068 51.289-13.971 71.257-31.727 7.71-6.85 17.86-11.02 28.99-11.02 14.71 0 27.73 7.3 35.64 18.47 7.91-11.17 20.93-18.47 35.64-18.47 11.13 0 21.28 4.17 28.99 11.02 19.967 17.755 44.926 28.658 71.254 31.726z" fill="#313b5a"/><path d="m391.884 388.746c5.965.695 8.106 8.214 3.492 12.058-25.061 20.879-56.781 32.476-89.736 32.476h-14c-14.72 0-27.74-7.28-35.64-18.45v-50.36c7.91-11.17 20.93-18.47 35.64-18.47 11.13 0 21.28 4.17 28.99 11.02 19.967 17.755 44.926 28.658 71.254 31.726z" fill="#29334c"/><path d="m342.939 231.578c-34.112 0-63.113 4.045-73.754 27.07-2.365 5.117-7.548 8.34-13.185 8.34-5.637 0-10.82-3.223-13.185-8.34-10.641-23.025-39.642-27.07-73.754-27.07-43.135 0-78.103 6.463-78.103 49.598s18.435 78.103 61.57 78.103c39.53 0 86.078-29.368 93.584-67.475.926-4.703 5.095-8.066 9.888-8.066 4.793 0 8.962 3.363 9.888 8.066 7.506 38.107 54.054 67.475 93.584 67.475 43.135 0 61.57-34.968 61.57-78.103s-34.968-49.598-78.103-49.598z" fill="#313b5a"/><path d="m293.589 286.423c0 27.256 32.542 49.351 59.797 49.351 27.256 0 38.904-22.095 38.904-49.351s-22.095-31.34-49.351-31.34c-27.255.001-49.35 4.085-49.35 31.34z" fill="#20273a"/><path d="m221.592 285.843c0 29.012-34.639 52.531-63.651 52.531s-41.412-23.519-41.412-52.531 23.519-33.359 52.531-33.359 52.532 4.347 52.532 33.359z" fill="#20273a"/><path d="m333.86 96.59-19.55 30.33h-116.62l-19.55-30.33c-8.45-13.11-2.56-30.67 12.09-36.03l54.4-19.93c3.67-1.34 7.52-2.01 11.37-2.01s7.7.67 11.37 2.01l54.4 19.93c14.65 5.36 20.54 22.92 12.09 36.03z" fill="#313b5a"/><path d="m333.86 96.59-19.55 30.33h-58.31v-88.3c3.85 0 7.7.67 11.37 2.01l54.4 19.93c14.65 5.36 20.54 22.92 12.09 36.03z" fill="#29334c"/><path d="m319 130c-13.33 24.72-32.74 38.94-53.16 38.94h-19.68c-20.42 0-39.83-14.22-53.16-38.94z" fill="#29334c"/><path d="m319 130c-13.33 24.72-32.74 38.94-53.16 38.94h-9.84v-38.94z" fill="#20273a"/><path d="m337 124.83c0 6.15-4.99 11.14-11.14 11.14h-139.72c-3.08 0-5.86-1.25-7.88-3.26-2.01-2.02-3.26-4.81-3.26-7.88 0-6.15 4.99-11.13 11.14-11.13h139.72c3.08 0 5.86 1.24 7.88 3.26 2.01 2.01 3.26 4.8 3.26 7.87z" fill="#364d7f"/><path d="m337 124.83c0 6.15-4.99 11.14-11.14 11.14h-69.86v-22.27h69.86c3.08 0 5.86 1.24 7.88 3.26 2.01 2.01 3.26 4.8 3.26 7.87z" fill="#313b5a"/><path d="m271.557 83.443 3.675 21.408-19.232-10.101-19.233 10.101 3.676-21.408-15.556-15.16 21.497-3.132 9.616-19.482 9.616 19.482 21.497 3.132z" fill="#fed110"/><g fill="#ff9f01"><path d="m271.557 83.443 3.675 21.408-19.232-10.101v-49.081l9.616 19.482 21.497 3.132z"/><path d="m263.822 79.384 1.853 10.763-9.675-5.087-9.675 5.087 1.853-10.763-7.823-7.631 10.807-1.573 4.838-9.807 4.837 9.807 10.808 1.573z"/><circle cx="256" cy="45.675" r="4.227"/><circle cx="287.112" cy="68.28" r="4.227"/><circle cx="275.229" cy="104.855" r="4.227"/><circle cx="236.771" cy="104.855" r="4.227"/><circle cx="224.887" cy="68.28" r="4.227"/></g><path d="m263.822 79.384 1.853 10.763-9.675-5.087v-24.687l4.837 9.807 10.808 1.573z" fill="#ed771b"/></svg>