<?xml version="1.0" encoding="iso-8859-1"?>
<!-- Generator: Adobe Illustrator 19.0.0, SVG Export Plug-In . SVG Version: 6.00 Build 0)  -->
<svg version="1.1" id="Capa_1" xmlns="http://www.w3.org/2000/svg" xmlns:xlink="http://www.w3.org/1999/xlink" x="0px" y="0px"
	 viewBox="0 0 512 512" style="enable-background:new 0 0 512 512;" xml:space="preserve">
<path style="fill:#9AE7FD;" d="M512,256c0,141.385-114.615,256-256,256S0,397.385,0,256S114.615,0,256,0S512,114.615,512,256z"/>
<path style="fill:#235967;" d="M414.753,65.286l29.306-29.203c3.912-3.897,3.923-10.229,0.025-14.142s-10.229-3.924-14.142-0.024
	l-356.43,355.18c-3.906,3.892-3.924,10.212-0.04,14.127C118.12,436.22,177.616,461,241,461c1.67,0,3.336-0.026,5-0.061V498
	c0,5.522,4.477,10,10,10c5.523,0,10-4.478,10-10v-38.314c53.587-5.606,103.25-29.181,141.877-67.809
	C452.452,347.303,477,288.038,477,225C477,165.281,454.97,108.95,414.753,65.286z M241,441c-54.674,0-106.188-20.146-146.144-56.938
	L400.573,79.416C437.036,119.296,457,170.613,457,225C457,344.103,360.103,441,241,441z"/>
<path style="fill:#4391A6;" d="M437,225c0,108.248-87.752,196-196,196S45,333.248,45,225S132.752,29,241,29S437,116.752,437,225z"/>
<path style="fill:#328093;" d="M257.5,420.302C252.059,420.756,246.558,421,241,421c-108.248,0-196-87.752-196-196
	S132.752,29,241,29c5.558,0,11.059,0.244,16.5,0.698C156.975,38.078,78,122.311,78,225S156.975,411.922,257.5,420.302z"/>
<path style="fill:#9BD04C;" d="M214.969,201.266c0-14.8,11.997-26.797,26.797-26.797h53.595c6.342,0,11.483-5.142,11.483-11.484
	c0-6.343-5.142-11.484-11.484-11.484h-22.969c-14.8,0-26.797-11.997-26.797-26.797s11.997-26.797,26.797-26.797h117.807
	c13.539,15.878,24.586,33.943,32.541,53.594h-81.441c-6.343,0-11.484,5.142-11.484,11.484s5.142,11.484,11.484,11.484h-7.654
	c14.799,0.001,26.795,11.998,26.795,26.797c0,14.8-11.997,26.797-26.797,26.797h-91.875
	C226.966,228.062,214.969,216.065,214.969,201.266z M149.891,205.094h-11.484c-8.457,0-15.312-6.855-15.312-15.312v-11.484
	c0-14.8-11.997-26.797-26.797-26.797H59.262C50.073,174.199,45,199.005,45,225c0,11.488,0.998,22.741,2.894,33.688h36.918
	c6.343,0,11.484,5.142,11.484,11.484s-5.142,11.484-11.484,11.484H53.327c5.814,19.286,14.514,37.319,25.607,53.594h55.644
	c14.8,0,26.797-11.997,26.797-26.797s-11.997-26.797-26.797-26.797h-3.828c-6.343,0-11.484-5.142-11.484-11.484
	s5.142-11.484,11.484-11.484h19.141c14.8,0,26.797-11.997,26.797-26.797S164.69,205.094,149.891,205.094z M352.781,335.25
	c-8.457,0-15.312-6.855-15.312-15.312v-11.484c0-14.8-11.997-26.797-26.797-26.797h-91.875c-14.8,0-26.797,11.997-26.797,26.797
	s11.997,26.797,26.797,26.797h11.484c8.457,0,15.312,6.855,15.312,15.312v11.484c0,14.8,11.997,26.797,26.797,26.797h76.193
	c21.119-13.896,39.388-31.76,53.75-52.538c-2.364-0.683-4.859-1.056-7.443-1.056H352.781z M394.891,274H356.61
	c-6.343,0-11.484,5.142-11.484,11.484s5.142,11.484,11.484,11.484h38.281c6.343,0,11.484-5.142,11.484-11.484
	S401.233,274,394.891,274z M157.547,97.906h38.281c6.343,0,11.484-5.142,11.484-11.484s-5.142-11.484-11.484-11.484h-38.281
	c-6.343,0-11.484,5.142-11.484,11.484S151.204,97.906,157.547,97.906z"/>
<path style="fill:#80BE1C;" d="M80.894,258.688h-33C45.998,247.741,45,236.488,45,225c0-25.995,5.073-50.801,14.262-73.5h33
	C83.073,174.199,78,199.005,78,225C78,236.488,78.998,247.742,80.894,258.688z M86.296,281.55c-0.487,0.063-0.979,0.106-1.483,0.106
	H53.327c5.814,19.286,14.514,37.319,25.607,53.594h33C100.821,318.945,92.11,300.875,86.296,281.55z"/>
<path style="fill:#F8BB5E;" d="M170.211,497.252C171.553,487.51,179.889,480,190,480h132c10.111,0,18.447,7.51,19.789,17.252
	C314.968,506.791,286.094,512,256,512S197.032,506.791,170.211,497.252z"/>
<path style="fill:#EBAE56;" d="M270.895,511.559C265.965,511.843,261.001,512,256,512c-30.094,0-58.968-5.209-85.789-14.748
	C171.553,487.51,179.889,480,190,480h29.789c-10.111,0-18.447,7.51-19.789,17.252C222.364,505.206,246.159,510.136,270.895,511.559z
	"/>
<g>
</g>
<g>
</g>
<g>
</g>
<g>
</g>
<g>
</g>
<g>
</g>
<g>
</g>
<g>
</g>
<g>
</g>
<g>
</g>
<g>
</g>
<g>
</g>
<g>
</g>
<g>
</g>
<g>
</g>
</svg>
