<svg id="Capa_1" enable-background="new 0 0 512.001 512.001" height="512" viewBox="0 0 512.001 512.001" width="512" xmlns="http://www.w3.org/2000/svg"><path d="m139.215 440.948-68.168-68.164c-3.565-3.566-8.683-5.102-13.623-4.086-4.938 1.013-9.037 4.441-10.91 9.123l-45.44 113.609c-2.229 5.57-.923 11.934 3.321 16.176 2.867 2.869 6.703 4.394 10.609 4.394 1.873 0 3.762-.35 5.568-1.074l113.607-45.443c4.681-1.873 8.108-5.973 9.122-10.912 1.015-4.94-.521-10.058-4.086-13.623z" fill="#fdd1a3"/><path d="m15.004 512c1.873 0 3.762-.35 5.568-1.074l113.607-45.443c4.681-1.873 8.108-5.973 9.122-10.912s-.522-10.058-4.087-13.623l-34.08-34.078-100.735 100.74c2.867 2.865 6.701 4.39 10.605 4.39z" fill="#ffbb85"/><path d="m439.442 140.723-68.166-68.164c-5.859-5.857-15.355-5.857-21.213 0l-300.227 300.223 89.379 89.379 300.227-300.225c2.813-2.813 4.395-6.629 4.395-10.607s-1.583-7.793-4.395-10.606z" fill="#ff9f00"/><path d="m405.358 106.639-310.828 310.838 44.686 44.684 300.227-300.225c2.813-2.813 4.395-6.629 4.395-10.607s-1.582-7.793-4.395-10.605z" fill="#ff641a"/><path d="m507.608 72.557-68.166-68.163c-5.857-5.858-15.355-5.858-21.213 0l-68.166 68.165 89.379 89.377 68.166-68.166c2.813-2.813 4.393-6.627 4.393-10.605 0-3.979-1.581-7.796-4.393-10.608z" fill="#ff5b5b"/><path d="m507.608 72.557-34.086-34.084-78.769 78.773 44.689 44.689 68.166-68.166c2.813-2.813 4.393-6.627 4.393-10.605s-1.581-7.795-4.393-10.607z" fill="#ff0059"/><path d="m479.383 321.84c-25.918-25.92-63.143-37.313-98.932-30.768l-159.523-159.523c6.543-35.789-4.852-73.016-30.77-98.936-33.318-33.318-84.271-42.06-126.784-21.753-4.394 2.098-7.495 6.199-8.318 11-.825 4.797.734 9.697 4.177 13.14l53.662 53.664-24.23 24.23-53.664-53.663c-3.443-3.443-8.343-4.994-13.145-4.178-4.799.824-8.9 3.926-10.998 8.32-20.305 42.52-11.559 93.47 21.759 126.783 25.918 25.92 63.141 37.318 98.931 30.771l159.529 159.523c-6.547 35.787 4.844 73.01 30.762 98.932 21.346 21.342 49.922 32.602 78.883 32.602 16.252 0 32.627-3.547 47.906-10.846 4.394-2.1 7.496-6.201 8.32-11 .822-4.799-.734-9.699-4.178-13.143l-53.666-53.662 24.231-24.23 53.66 53.664c3.443 3.443 8.344 4.996 13.143 4.179 4.801-.823 8.9-3.925 11-8.319 20.31-42.515 11.568-93.467-21.755-126.787z" fill="#c5e1e6"/><path d="m479.383 321.84c-25.918-25.92-63.143-37.313-98.932-30.768l-159.523-159.523c6.543-35.789-4.852-73.016-30.77-98.936-33.318-33.318-84.271-42.06-126.784-21.753-4.394 2.098-7.495 6.199-8.318 11-.825 4.797.734 9.697 4.177 13.14l53.662 53.664-12.113 12.113 310.445 310.433 12.107-12.107 53.66 53.664c3.443 3.443 8.344 4.996 13.143 4.179 4.801-.823 8.9-3.925 11-8.319 20.311-42.515 11.569-93.467-21.754-126.787z" fill="#8db9c4"/></svg>