<svg height="512" viewBox="0 0 512 512" width="512" xmlns="http://www.w3.org/2000/svg"><g id="BULINE"><circle cx="256" cy="256" fill="#f6c752" r="256"/></g><g id="Icons"><path d="m326.35 63.51a18.64 18.64 0 1 0 -25.67 17.26v48.58a48.09 48.09 0 0 1 -96.18 0v-48.58a18.65 18.65 0 1 0 -14.07 0v48.58a62.24 62.24 0 0 0 55.12 61.75v37.9a7 7 0 0 0 14.07 0v-37.9a62.24 62.24 0 0 0 55.12-61.75v-48.58a18.64 18.64 0 0 0 11.61-17.26z" fill="#fff"/><path d="m155.21 379.36h197.25a9.7 9.7 0 0 1 9.7 9.7v66.26a0 0 0 0 1 0 0h-216.65a0 0 0 0 1 0 0v-66.26a9.7 9.7 0 0 1 9.7-9.7z" fill="#a65c3b"/><path d="m145.51 455.32h38.93a0 0 0 0 1 0 0v19.53a4.85 4.85 0 0 1 -4.85 4.85h-29.22a4.85 4.85 0 0 1 -4.85-4.85v-19.53a0 0 0 0 1 -.01 0z" fill="#9e4830"/><path d="m323.23 455.32h38.93a0 0 0 0 1 0 0v19.53a4.85 4.85 0 0 1 -4.85 4.85h-29.23a4.85 4.85 0 0 1 -4.85-4.85v-19.53a0 0 0 0 1 0 0z" fill="#9e4830"/><path d="m295.88 352.79h-6.14a11.9 11.9 0 0 0 8.64-11.45v-2.73a11.92 11.92 0 0 0 -11.92-11.91h-65.24a11.91 11.91 0 0 0 -11.92 11.91v2.73a11.9 11.9 0 0 0 8.63 11.45h-6.13a13.29 13.29 0 0 0 -13.29 13.29 13.28 13.28 0 0 0 13.29 13.28h84.08a13.27 13.27 0 0 0 13.28-13.28 13.28 13.28 0 0 0 -13.28-13.29z" fill="#32314b"/><path d="m237 353.26h12.93a11.72 11.72 0 0 1 -3.31-.47 11.91 11.91 0 0 1 -8.62-11.44v-2.73a11.92 11.92 0 0 1 11.92-11.92h-28.71a11.91 11.91 0 0 0 -11.91 11.92v2.73a11.9 11.9 0 0 0 8.6 11.44h-6.1a13.29 13.29 0 1 0 0 26.57h28.66a13.29 13.29 0 0 1 -3.51-26.1z" fill="#27273d"/><path d="m272.59 237.14h-39.38l-4.69 89.56h48.76z" fill="#3e436d"/><rect fill="#32314b" height="23.76" rx="11.88" width="58.71" x="223.54" y="215.89"/><ellipse cx="291.12" cy="417.34" fill="#c16e4d" rx="18.29" ry="11.25"/><ellipse cx="330.69" cy="417.34" fill="#c16e4d" rx="14.81" ry="9.11"/><g fill="#fff"><path d="m154.44 148.77a7.52 7.52 0 0 1 -5.31-2.2 54.5 54.5 0 0 1 0-77.07 7.5 7.5 0 1 1 10.61 10.6 39.5 39.5 0 0 0 0 55.86 7.51 7.51 0 0 1 -5.3 12.81z"/><path d="m114.22 167.16a7.52 7.52 0 0 1 -5.31-2.2 80.59 80.59 0 0 1 0-113.85 7.5 7.5 0 1 1 10.61 10.6 65.58 65.58 0 0 0 0 92.64 7.51 7.51 0 0 1 -5.3 12.81z"/><path d="m74 183.76a7.51 7.51 0 0 1 -5.31-2.19 104 104 0 0 1 0-147.07 7.5 7.5 0 1 1 10.57 10.6 89 89 0 0 0 0 125.86 7.5 7.5 0 0 1 -5.3 12.8z"/><path d="m355.55 67.3a7.44 7.44 0 0 1 5.3 2.2 54.48 54.48 0 0 1 0 77.07 7.5 7.5 0 0 1 -10.6-10.57 39.5 39.5 0 0 0 0-55.86 7.5 7.5 0 0 1 5.3-12.8z"/><path d="m395.77 48.91a7.44 7.44 0 0 1 5.3 2.2 80.59 80.59 0 0 1 0 113.85 7.5 7.5 0 1 1 -10.6-10.61 65.58 65.58 0 0 0 0-92.64 7.5 7.5 0 0 1 5.3-12.8z"/><path d="m436 32.3a7.44 7.44 0 0 1 5.3 2.2 104 104 0 0 1 0 147.07 7.5 7.5 0 1 1 -10.57-10.57 89 89 0 0 0 0-125.86 7.5 7.5 0 0 1 5.27-12.84z"/></g></g></svg>