<svg id="Capa_1" enable-background="new 0 0 512 512" height="512" viewBox="0 0 512 512" width="512" xmlns="http://www.w3.org/2000/svg"><g><g><path d="m256 309.962c-141.387 0-244.868-139.488-225.264-175.691 43.302-79.964 127.94-134.271 225.264-134.271 97.204 0 181.752 54.173 225.103 133.974 19.704 36.274-83.716 175.988-225.103 175.988z" fill="#afe8fd"/><path d="m512 256c0 26.051-3.891 51.191-11.129 74.871-5.031 16.469-11.672 32.231-19.75 47.109-8.25 15.2-147.391 57.372-225.121 57.372s-216.871-42.172-225.109-57.372c-3.289-6.031-6.332-12.21-9.121-18.531-14-31.629-21.77-66.629-21.77-103.449 0-46.219 12.25-89.57 33.68-127 44.121 77.07 127.16 129 222.32 129s178.211-51.93 222.32-129c21.43 37.43 33.68 80.781 33.68 127zm0 0" fill="#64b0fb"/><path d="m481.262 377.699c-7.16 13.223-15.434 25.742-24.723 37.43-6.522 8.22-13.55 16.024-21.024 23.372-2.194 2.157-112.906 29.917-179.515 29.917s-178.562-28.943-181.34-31.729c-6.795-6.815-13.21-14.012-19.199-21.56-9.289-11.688-17.563-24.207-24.723-37.43zm0 0" fill="#1394fb"/></g><g><path d="m437.04 436.999v-244.543c0-23.397-19.035-42.431-42.431-42.431h-84.863v356.305c49.133-10.498 93.047-35.076 127.294-69.331z" fill="#bd4911"/><path d="m309.746 150.025h-96.178l-84.863 181.041 83.02 177.109c14.383 2.507 29.174 3.825 44.275 3.825 30.183 0 59.138-5.239 86.026-14.831 6.323-7.412 10.152-17.012 10.152-27.495v-277.218c0-23.396-19.035-42.431-42.432-42.431z" fill="#d85819"/><path d="m74.96 192.456v244.543c36.855 36.864 84.906 62.521 138.609 71.48v-358.454h-96.178c-23.397 0-42.431 19.035-42.431 42.431z" fill="#e38031"/></g></g></svg>