<svg id="Capa_1" enable-background="new 0 0 512 512" height="512" viewBox="0 0 512 512" width="512" xmlns="http://www.w3.org/2000/svg"><g><g><g><path d="m256 509.582c-65.698 0-127.464-25.585-173.92-72.04s-72.04-108.221-72.04-173.92 25.584-127.463 72.04-173.919 108.222-72.04 173.92-72.04 127.464 25.584 173.919 72.04 72.04 108.221 72.04 173.919-25.584 127.464-72.04 173.919-108.221 72.041-173.919 72.041zm0-458.953c-117.445 0-212.994 95.548-212.994 212.994s95.549 212.993 212.994 212.993c117.446 0 212.994-95.548 212.994-212.994s-95.549-212.993-212.994-212.993z" fill="#5766cb"/></g></g><g><path d="m256 138.78c-4.267 0-7.726-3.459-7.726-7.726v-65.18c0-4.268 3.459-7.726 7.726-7.726 4.268 0 7.726 3.459 7.726 7.726v65.18c0 4.267-3.459 7.726-7.726 7.726z" fill="#3342aa"/></g><g><path d="m384.075 227.035c-4.015 0-7.406-3.105-7.698-7.172-.306-4.257 2.896-7.955 7.152-8.261l72.672-5.224c4.276-.309 7.956 2.896 8.261 7.152.306 4.257-2.896 7.955-7.152 8.261l-72.672 5.224c-.19.014-.377.02-.563.02z" fill="#3342aa"/></g><g><path d="m377.9 451.079c-2.627 0-5.188-1.34-6.636-3.758l-35.276-58.9c-2.192-3.661-1.002-8.405 2.659-10.599 3.661-2.192 8.406-1.002 10.599 2.659l35.276 58.9c2.192 3.661 1.002 8.405-2.659 10.599-1.244.745-2.612 1.099-3.963 1.099z" fill="#3342aa"/></g><g><path d="m127.925 227.035c-.186 0-.373-.006-.562-.02l-72.672-5.224c-4.257-.306-7.459-4.004-7.152-8.261.306-4.256 4.001-7.463 8.26-7.152l72.672 5.224c4.257.306 7.459 4.004 7.152 8.261-.293 4.067-3.683 7.172-7.698 7.172z" fill="#3342aa"/></g><g><path d="m134.099 451.079c-1.351 0-2.719-.354-3.962-1.099-3.661-2.193-4.851-6.938-2.658-10.599l35.277-58.9c2.193-3.661 6.937-4.851 10.598-2.659 3.661 2.193 4.851 6.938 2.658 10.599l-35.277 58.9c-1.448 2.418-4.01 3.758-6.636 3.758z" fill="#3342aa"/></g><g><path d="m243.889 111.46-133.408 96.926c-7.221 5.247-10.243 14.546-7.485 23.036l50.957 156.83c2.758 8.489 10.669 14.237 19.595 14.237h164.902c8.926 0 16.837-5.748 19.595-14.237l50.957-156.83c2.758-8.489-.263-17.789-7.485-23.036l-133.407-96.926c-7.221-5.247-16.999-5.247-24.221 0z" fill="#dd5790"/></g><g><path d="m360.646 178.69c1.588 9.212 2.425 18.681 2.425 28.347 0 91.498-74.174 165.672-165.672 165.672-17.837 0-35.011-2.83-51.11-8.047l7.665 23.589c2.758 8.489 10.669 14.237 19.595 14.237h164.901c8.926 0 16.837-5.748 19.595-14.237l50.957-156.83c2.758-8.489-.263-17.789-7.485-23.036z" fill="#da387d"/></g><g><g><circle cx="256" cy="210.958" fill="#f1d0a5" r="44.258"/></g><g><path d="m275.71 171.332c2.959 5.937 4.632 12.626 4.632 19.71 0 24.443-19.815 44.258-44.258 44.258-7.084 0-13.773-1.673-19.71-4.632 7.251 14.548 22.267 24.548 39.626 24.548 24.443 0 44.258-19.815 44.258-44.258 0-17.359-10-32.375-24.548-39.626z" fill="#f1b986"/></g><g><path d="m280.56 259c1.29 5.46 1.99 11.15 1.99 17.02 0 25.44-12.85 47.79-32.26 60.63h-64.68c-6.22 0-11.1-5.48-10.22-11.64 5.65-39.46 39.59-69.79 80.61-69.79 8.56 0 16.81 1.32 24.56 3.77z" fill="#5766cb"/></g><g><path d="m280.56 258.99c.16.05.32.1.48.16-.16-.06-.32-.11-.48-.15z" fill="#3342aa"/></g><g><path d="m282.555 276.017c0 25.441-12.858 47.789-32.263 60.633h76.096c6.303 0 11.101-5.607 10.192-11.844-4.536-31.132-26.688-56.549-56.015-65.816 1.289 5.462 1.99 11.16 1.99 17.027z" fill="#3342aa"/></g></g><g><g><circle cx="256" cy="34.145" fill="#ffe07d" r="31.728"/></g></g><g><g><circle cx="480.272" cy="203.28" fill="#ffe07d" r="31.728"/></g></g><g><g><circle cx="389.332" cy="461.753" fill="#ffe07d" r="31.728"/></g></g><g><g><circle cx="122.668" cy="461.753" fill="#ffe07d" r="31.728"/></g></g><g><g><circle cx="31.728" cy="203.28" fill="#ffe07d" r="31.728"/></g></g></g></svg>