<svg id="Capa_1" enable-background="new 0 0 512 512" height="512" viewBox="0 0 512 512" width="512" xmlns="http://www.w3.org/2000/svg"><g><g><path d="m512 256c0 141.387-114.613 256-256 256s-256-114.613-256-256 114.613-256 256-256 256 114.613 256 256zm0 0" fill="#e27fad"/><path d="m512 256c0 26.051-3.891 51.191-11.129 74.871-5.031 16.469-11.672 32.231-19.75 47.109-8.25 15.2-18 29.461-29.051 42.61-.582.691-1.16 1.379-1.75 2.058-46.941 54.704-116.59 89.352-194.32 89.352s-147.379-34.648-194.309-89.352c-.589-.687-1.179-1.378-1.75-2.07-11.062-13.137-20.812-27.398-29.05-42.598-3.289-6.031-6.332-12.21-9.121-18.531-14-31.629-21.77-66.629-21.77-103.449 0-46.219 12.25-89.57 33.68-127 44.121 77.07 127.16 129 222.32 129s178.211-51.93 222.32-129c21.43 37.43 33.68 80.781 33.68 127zm0 0" fill="#dc4180"/><path d="m481.262 377.699c-7.16 13.223-15.434 25.742-24.723 37.43-8.437 10.633-17.719 20.57-27.719 29.723-45.539 41.699-106.211 67.148-172.82 67.148s-127.281-25.449-172.82-67.148c-10-9.153-19.282-19.09-27.719-29.723-9.289-11.688-17.563-24.207-24.723-37.43zm0 0" fill="#9f165b"/></g><g><path d="m414.468 140.28c-9.376-9.376-21.842-14.54-35.101-14.54s-25.725 5.164-35.101 14.539c-1.189 1.188-2.328 2.449-3.386 3.745l-62.755 76.878h-61.835c-14.732 0-28.583 5.737-39 16.154l-7.802 7.802 54.6 117.002 190.379-190.379v-31.201z" fill="#afe8fd"/><path d="m414.468 140.28c-1.661-1.587-8.196-2.093-21.456-2.093-13.259 0-25.725 5.164-35.101 14.539-1.189 1.188-2.328 2.449-3.385 3.745l-62.755 76.878h-61.835c-14.732 0-28.582 5.737-39 16.154l-8.384 8.418 57.137 57.137z" fill="#8adbff"/><path d="m192.881 502.269s85.808-85.809 85.808-85.809-85.808 85.809-85.808 85.809z"/><path d="m208.488 346.26 101.401 39 7.8-7.8c10.418-10.417 16.155-24.268 16.154-39v-61.837l76.88-62.757c1.299-1.06 2.558-2.199 3.743-3.384 9.376-9.376 14.54-21.842 14.54-35.101s-5.164-25.725-14.539-35.1z" fill="#64b0fb"/><path d="m138.288 276.06 70.2 132.601 31.201-93.602-70.201-70.2-31.201 31.2z" fill="#dff5ff"/><path d="m138.288 276.06 13.934 13.934 30.329-32.072-13.063-13.063-31.201 31.2z" fill="#f7fdff"/><path d="m177.288 377.461 101.401 38.999 31.2-31.2-70.2-70.201z" fill="#bfebff"/><path d="m243.588 381.36-66.304 19.504-19.504 66.305 35.101 35.1 85.808-85.809z" fill="#d85819"/><path d="m208.488 346.259-66.305 19.504-19.503 66.305 35.101 35.101 85.807-85.809z" fill="#e38031"/><path d="m173.387 311.159-66.304 19.504-19.504 66.305 35.101 35.1 85.808-85.809z" fill="#e79d25"/><path d="m52.258 311.693h121.351v49.64h-121.351z" fill="#f2d332" transform="matrix(.707 -.707 .707 .707 -204.874 178.42)"/><path d="m41.669 316.081h121.351v19.7h-121.351z" fill="#ffe694" transform="matrix(.707 -.707 .707 .707 -200.493 167.833)"/></g><g fill="#fff"><path d="m274.098 107.553h-1.524c-6.754 0-12.226-5.477-12.226-12.227v-1.523h-8.715v1.523c0 6.75-5.477 12.227-12.227 12.227h-1.527v8.715h1.527c6.75 0 12.227 5.472 12.227 12.226v1.528h8.715v-1.528c0-6.754 5.472-12.226 12.226-12.226h1.524zm0 0"/><path d="m143.443 134.587h-1.524c-6.754 0-12.226-5.477-12.226-12.227v-1.523h-8.715v1.523c0 6.75-5.477 12.227-12.227 12.227h-1.527v8.715h1.527c6.75 0 12.227 5.472 12.227 12.226v1.528h8.715v-1.528c0-6.754 5.472-12.226 12.226-12.226h1.524zm0 0"/><path d="m101.098 240.301h-1.524c-6.754 0-12.226-5.477-12.226-12.227v-1.523h-8.715v1.523c0 6.75-5.477 12.227-12.227 12.227h-1.527v8.715h1.527c6.75 0 12.227 5.472 12.227 12.226v1.528h8.715v-1.528c0-6.754 5.472-12.226 12.226-12.226h1.524zm0 0"/></g></g></svg>