<svg height="512" viewBox="0 0 512 512" width="512" xmlns="http://www.w3.org/2000/svg"><g id="BULINE"><circle cx="256" cy="256" fill="#7cc8fb" r="256"/></g><g id="Icons"><path d="m411.69 459.22q-3.1 2.4-6.3 4.68c-1.05-3-2-5.17-2.57-6.37-.69-1.5-1.43-3.13-2.09-4.84-5.42-14-5.62-25.77-4.2-34.44 1.69-10.26 5.65-16.23 6-16.68a3.77 3.77 0 0 1 6.23 4.23 35.89 35.89 0 0 0 -4.55 12.45c-1.46 7.59-1.55 18.41 3.59 31.73.58 1.51 1.26 3 1.9 4.4.43 1.01 1.16 2.62 1.99 4.84z" fill="#fff"/><path d="m509.91 240.17a108.25 108.25 0 1 0 -216.49 0c0 57.28 44.49 148.67 100.8 156.23l-10 13.17a5.4 5.4 0 0 0 4.3 8.68h26.37a5.4 5.4 0 0 0 4.3-8.68l-10-13.17c56.23-7.56 100.72-98.95 100.72-156.23z" fill="#fc4581"/><path d="m414.72 395.38a56.65 56.65 0 0 1 -13.05 1.54c-59.79 0-108.25-97-108.25-156.75a108.32 108.32 0 0 1 121.3-107.47 108.27 108.27 0 0 0 -95.19 107.47c0 55.36 41.57 142.62 95.19 155.21z" fill="#fa3268"/><ellipse cx="474.73" cy="193.54" fill="#fc77a7" rx="9.04" ry="14.69" transform="matrix(.903 -.43 .43 .903 -37.1 222.74)"/><ellipse cx="488.39" cy="222.24" fill="#fc77a7" rx="7.32" ry="11.89" transform="matrix(.903 -.43 .43 .903 -48.11 231.39)"/><path d="m111.27 452.69c-.66 1.71-1.4 3.34-2.09 4.84-.56 1.2-1.52 3.41-2.57 6.37q-3.19-2.28-6.3-4.68c.83-2.18 1.56-3.83 2-4.84.64-1.4 1.32-2.89 1.9-4.4 5.14-13.32 5.05-24.14 3.59-31.73a35.89 35.89 0 0 0 -4.55-12.45 3.77 3.77 0 0 1 6.23-4.23c.31.45 4.27 6.42 6 16.68 1.41 8.67 1.21 20.4-4.21 34.44z" fill="#fff"/><path d="m2.09 240.17a108.25 108.25 0 1 1 216.49 0c0 57.28-44.49 148.67-100.8 156.23l10 13.17a5.4 5.4 0 0 1 -4.3 8.68h-26.33a5.4 5.4 0 0 1 -4.3-8.68l10-13.17c-56.27-7.56-100.76-98.95-100.76-156.23z" fill="#aa60fa"/><path d="m97.28 395.38a56.65 56.65 0 0 0 13 1.54c59.79 0 108.25-97 108.25-156.75a108.32 108.32 0 0 0 -121.25-107.47 108.27 108.27 0 0 1 95.19 107.47c0 55.36-41.57 142.62-95.19 155.21z" fill="#934cf5"/><ellipse cx="37.27" cy="193.54" fill="#a99bd4" rx="14.69" ry="9.04" transform="matrix(.43 -.903 .903 .43 -153.51 144.04)"/><ellipse cx="23.61" cy="222.24" fill="#a99bd4" rx="11.89" ry="7.32" transform="matrix(.43 -.903 .903 .43 -187.22 148.08)"/><path d="m269.69 511.64q-5 .27-10.1.33c3.53-26.23-6.72-50.68-9.48-56.65-.92-2-1.9-4.16-2.77-6.43-7.19-18.64-7.47-34.21-5.58-45.72 2.24-13.63 7.5-21.56 7.9-22.15a5 5 0 0 1 8.28 5.62c-.33.5-4.11 6.34-6.05 16.53s-2 24.45 4.78 42.12c.77 2 1.67 4 2.52 5.84 2.96 6.4 13.74 32.14 10.5 60.51z" fill="#fff"/><path d="m392.3 166.73a143.73 143.73 0 1 0 -287.45 0c0 76.05 59.07 197.39 133.83 207.42l-13.33 17.49a7.18 7.18 0 0 0 5.71 11.53h35a7.18 7.18 0 0 0 5.71-11.53l-13.33-17.49c74.78-10.03 133.86-131.37 133.86-207.42z" fill="#f6c752"/><path d="m265.91 372.8a75.27 75.27 0 0 1 -17.33 2c-79.38 0-143.73-128.74-143.73-208.11a143.8 143.8 0 0 1 161.06-142.69 143.74 143.74 0 0 0 -126.39 142.73c0 73.5 55.19 189.35 126.39 206.07z" fill="#f7bb38"/><ellipse cx="345.58" cy="104.82" fill="#f7d98f" rx="12" ry="19.5" transform="matrix(.903 -.43 .43 .903 -11.51 158.65)"/><ellipse cx="363.71" cy="142.93" fill="#f7d98f" rx="9.72" ry="15.79" transform="matrix(.903 -.43 .43 .903 -26.13 170.13)"/><circle cx="248.57" cy="213.09" fill="#7cc8fb" r="75"/><circle cx="248.57" cy="213.09" fill="#bbe7ff" r="55.89"/><g fill="#27273d"><path d="m242.76 164.45v40.4l-13.08-40.4h-19.51v89.72h19.51v-40.79l12.14 40.79h20.45v-89.72z"/><path d="m291.65 230.47a18.2 18.2 0 0 0 1.77-7.46 10.22 10.22 0 0 0 -3.14-7.67q-3.13-3-9.25-3a13.14 13.14 0 0 0 -5.35 1 8.83 8.83 0 0 0 -3.63 2.92 9.61 9.61 0 0 0 -1.75 3.92 32.14 32.14 0 0 0 -.36 5.44v1.5h9.19v-3.91a7.63 7.63 0 0 1 .57-3.62 1.91 1.91 0 0 1 1.74-.92 2 2 0 0 1 1.74.83 4.42 4.42 0 0 1 .57 2.5 15.3 15.3 0 0 1 -1.89 6.07q-1.86 3.85-11.86 20.24v5.86h22.5v-7h-11.24q8.63-12.76 10.39-16.7z"/></g></g></svg>