<svg id="Capa_1" enable-background="new 0 0 512 512" height="512" viewBox="0 0 512 512" width="512" xmlns="http://www.w3.org/2000/svg"><g><g><g><g><g><g><g><circle cx="256" cy="256" fill="#1dd882" r="256"/></g></g></g></g></g></g><path d="m510.167 286.787-120.171-120.171-267.992 259.11 80.724 80.724c17.184 3.636 35.004 5.55 53.272 5.55 130.965 0 238.961-98.344 254.167-225.213z" fill="#28bc75"/><g><path d="m297.656 74.275h-175.652v351.45h267.992v-259.11z" fill="#fff"/></g><g><path d="m389.996 166.615-92.34-92.34h-41.535v351.45h133.875z" fill="#e9edf5"/></g><g><path d="m297.655 166.616h92.341l-92.341-92.341z" fill="#cdd2e1"/></g><g><path d="m170.5 268.292v-50.93l-12.761 12.875-11.166-11.735 26.547-26.205h16.977v75.996h-19.597z" fill="#606aea"/><path d="m231.572 235.137v22.56h-11.508v-22.56h-19.826v-10.482h19.826v-21.762h11.508v21.762h19.825v10.482z" fill="#606aea"/><path d="m259.716 268.292v-15.267c32.928-23.813 39.081-29.054 39.081-36.574 0-5.241-4.9-7.976-10.483-7.976-8.431 0-14.812 3.19-20.281 8.317l-10.824-12.989c8.089-8.887 20.167-12.647 30.763-12.647 17.889 0 30.764 10.027 30.764 25.294 0 11.621-8.318 21.534-27.231 34.751h27.801v17.09h-59.59z" fill="#4253ce"/></g><g><path d="m150.612 293.642h210.775v30h-210.775z" fill="#cdd2e1"/></g><g><path d="m256.121 293.642h105.267v30h-105.267z" fill="#afb4c8"/></g><g><path d="m150.612 351.089h210.775v30h-210.775z" fill="#cdd2e1"/></g><g><path d="m256.121 351.089h105.267v30h-105.267z" fill="#afb4c8"/></g></g></svg>