<svg id="Capa_1" enable-background="new 0 0 512 512" height="512" viewBox="0 0 512 512" width="512" xmlns="http://www.w3.org/2000/svg"><g><g><path d="m0 256c0 43.79 11 85.02 30.39 121.07l225.61 49.67 225.61-49.67c19.39-36.05 30.39-77.28 30.39-121.07 0-46.63-12.47-90.34-34.26-128-41.698 72.091-399.22 76.52-443.48 0-21.79 37.66-34.26 81.37-34.26 128z" fill="#9965d8"/><path d="m34.26 128c44.26 76.52 126.99 128 221.74 128s177.48-51.48 221.74-128c-.01-.02-.03-.05-.04-.07-44.27-76.48-126.98-127.93-221.7-127.93s-177.43 51.45-221.7 127.93c-.01.02-.03.05-.04.07z" fill="#b895e5"/><path d="m481.61 377.07c-4.54 8.44-9.53 16.59-14.95 24.43-1.81 2.61-30.685-2.272-32.585.268-1.98 2.64-4 5.24-6.08 7.8-5.33 6.59 16.025 20.362 10.075 26.382-46.4 46.96-110.84 76.05-182.07 76.05s-135.67-29.09-182.07-76.05c-5.95-6.02 15.309-21.422 9.979-28.012-2.08-2.56-4.1-5.16-6.08-7.8-1.9-2.54-30.679 3.972-32.489 1.362-5.42-7.84-10.41-15.99-14.95-24.43z" fill="#5541b6"/></g><g><path d="m434.075 401.768c-1.977 2.64 23.012 12.704 20.937 15.264-5.334 6.584-10.988 12.899-16.943 18.918l-182.069 42.13-182.07-42.13c-5.514-5.574-10.77-11.401-15.753-17.46-2.491-3.029 22.004-15.209 19.651-18.352l8.251-23.068 169.921-155.42 59.54 54.46 110.38 100.96z" fill="#464652"/><path d="m461.09 409.23c-7.06 9.43-14.75 18.36-23.02 26.72l-182.07 42.13v-201.97h59.54l110.38 100.96z" fill="#2d2f40"/><path d="m466.66 157.9v243.6c-1.81 2.61-3.67 5.19-5.57 7.73-1.98 2.64-4 5.24-6.08 7.8l-199.01 46.05-199.01-46.05c-2.08-2.56-4.1-5.16-6.08-7.8-1.9-2.54-3.76-5.12-5.57-7.73v-243.6l210.66 48.75z" fill="#c8cde4"/><path d="m466.66 275.3v126.2c-1.81 2.61-3.67 5.19-5.57 7.73-1.98 2.64-4 5.24-6.08 7.8l-199.01 46.05v-187.78z" fill="#b2b7cc"/><g><path d="m45.336 123.511 210.664 48.751v256.434l-210.664-48.751z" fill="#e8ebf7"/><g fill="#616579"><path d="m226.296 237.508-151.256-35.003v-25.961l151.256 35.003z"/><path d="m226.296 285.143-151.256-35.003v-25.961l151.256 35.003z"/><path d="m226.296 332.778-151.256-35.003v-25.961l151.256 35.003z"/><path d="m226.296 380.413-151.256-35.003v-25.962l151.256 35.003z"/></g></g><g><path d="m466.66 123.51v256.44l-210.66 48.75v-256.44l15.15-3.51 24.395 13.837 24.395-25.127z" fill="#daddee"/><g fill="#464652"><path d="m285.704 237.508 151.256-35.003v-25.961l-151.256 35.003z"/><path d="m285.704 285.143 151.256-35.003v-25.961l-151.256 35.003z"/><path d="m285.704 332.778 151.256-35.003v-25.961l-151.256 35.003z"/><path d="m285.704 380.413 151.256-35.003v-25.962l-151.256 35.003z"/></g></g><path d="m319.94 157.46v130.34l-24.39-22.43-24.4 35.11v-131.73l24.4-5.65z" fill="#db504f"/></g><path d="m319.94 157.46v130.34l-24.39-22.43v-102.27z" fill="#c12439"/></g></svg>