<svg id="Capa_1" enable-background="new 0 0 512 512" height="512" viewBox="0 0 512 512" width="512" xmlns="http://www.w3.org/2000/svg"><g><g><path d="m256 306.54c-141.387 0-244.056-138.981-223.124-176.088 43.911-77.841 127.379-130.4 223.124-130.4 95.748 0 179.217 52.562 223.127 130.406 20.93 37.105-81.74 176.082-223.127 176.082z" fill="#ffc46c"/><path d="m512 256.052c0 26.051-3.891 51.191-11.129 74.871-5.031 16.469-11.672 32.231-19.75 47.109-8.25 15.2-147.391 64.72-225.121 64.72s-216.871-49.52-225.109-64.72c-3.289-6.031-6.332-12.21-9.121-18.531-14-31.629-21.77-66.629-21.77-103.449 0-46.219 12.25-89.57 33.68-127 44.121 77.07 127.16 129 222.32 129s178.211-51.93 222.32-129c21.43 37.43 33.68 80.781 33.68 127zm0 0" fill="#ffb03b"/><path d="m481.262 377.751c-7.16 13.223-15.434 25.742-24.723 37.43-8.437 10.633-17.719 20.57-27.719 29.723-2.702 2.474-5.457 4.891-8.263 7.249-44.496 37.381-285.715 36.948-330.386-1.076-2.368-2.015-4.698-4.073-6.991-6.172-10-9.153-19.282-19.09-27.719-29.723-9.289-11.688-17.563-24.207-24.723-37.43h450.524zm0 0" fill="#ff903d"/></g><g><path d="m255.999 129.513v280.904h128.856l-27.486-331.67z" fill="#2dceea"/><path d="m357.369 78.747h-101.37l-33.843 50.766 33.843 52.657z" fill="#5ab4fc"/><path d="m255.999 129.513v280.904h-128.855l27.486-331.67z" fill="#8bfff4"/><path d="m154.63 78.747h101.369v103.423z" fill="#cbeefe"/><path d="m307.611 129.513h-51.612l-50.765 280.904h102.377z" fill="#cbeefe"/><path d="m204.388 129.513h51.612v280.904h-51.612z" fill="#fff"/><path d="m129.071 478.414c14.754 8.44 30.432 15.443 46.839 20.843h160.179c31.79-10.462 60.824-26.98 85.745-48.193v-40.647h-165.835z" fill="#4d34b0"/><path d="m90.165 451.063c24.921 21.213 53.956 37.731 85.746 48.194h80.089v-88.84h-165.835z" fill="#6c3beb"/><path d="m90.165 451.063c24.181 20.583 52.231 36.753 82.917 47.253v-87.9h-82.917z" fill="#8057eb"/><path d="m409.186 461.182h-153.187l-50.766 25.383 50.766 25.383h7.145c54.694-1.499 105.104-20.146 146.042-50.766z" fill="#576ceb"/><path d="m248.856 511.948h7.144v-50.766h-153.186c40.938 30.62 91.348 49.267 146.042 50.766z" fill="#75b4ea"/><path d="m133.365 480.814c34.459 18.841 73.724 29.989 115.49 31.134h7.144v-50.766h-82.579c-16.265 0-30.757 7.698-40.055 19.632z" fill="#429dea"/></g><g fill="#fff"><path d="m437.253 168.276h-1.524c-6.754 0-12.226-5.477-12.226-12.227v-1.523h-8.715v1.523c0 6.75-5.477 12.227-12.227 12.227h-1.527v8.715h1.527c6.75 0 12.227 5.472 12.227 12.226v1.528h8.715v-1.528c0-6.754 5.472-12.226 12.226-12.226h1.524zm0 0"/><path d="m458.158 286.332h-1.524c-6.754 0-12.226-5.477-12.226-12.227v-1.523h-8.715v1.523c0 6.75-5.477 12.227-12.227 12.227h-1.527v8.715h1.527c6.75 0 12.227 5.472 12.227 12.226v1.528h8.715v-1.528c0-6.754 5.472-12.226 12.226-12.226h1.524zm0 0"/><path d="m72.055 176.991h1.524c6.754 0 12.226 5.472 12.226 12.226v1.528h8.715v-1.528c0-6.754 5.477-12.226 12.227-12.226h1.527v-8.715h-1.527c-6.75 0-12.227-5.477-12.227-12.227v-1.523h-8.715v1.523c0 6.75-5.472 12.227-12.226 12.227h-1.524zm0-8.715"/><path d="m51.805 295.047h1.524c6.754 0 12.226 5.472 12.226 12.226v1.528h8.715v-1.528c0-6.754 5.477-12.226 12.227-12.226h1.527v-8.715h-1.527c-6.75 0-12.227-5.477-12.227-12.227v-1.523h-8.715v1.523c0 6.75-5.472 12.227-12.226 12.227h-1.524zm0-8.715"/></g></g></svg>