<svg id="Capa_1" enable-background="new 0 0 512 512" height="512" viewBox="0 0 512 512" width="512" xmlns="http://www.w3.org/2000/svg"><path d="m511.994 254.262c.529 79.641-35.312 150.934-91.904 198.238h-.01c-95.272 38.153-200.695 42.736-298.919 12.994l-20.951-6.344c-60.93-46.8-100.21-120.39-100.21-203.15 0-141.2 114.328-255.708 255.46-255.999 141.383-.292 255.596 112.88 256.534 254.261z" fill="#ffe400"/><path d="m512 256c0 78.94-35.74 149.54-91.91 196.5l-.01.01-.01.004c-95.266 38.144-200.679 42.723-298.894 12.984l-20.965-6.348c-60.931-46.79-100.211-120.39-100.211-203.15 0-46.22 12.25-89.57 33.68-127 44.12 77.07 127.16 129 222.32 129s178.21-51.93 222.32-129c21.43 37.43 33.68 80.78 33.68 127z" fill="#ffce00"/><path d="m447.27 389.74c0 3.75-1.52 7.15-3.97 9.61-2.46 2.46-5.86 3.98-9.62 3.98h-13.59s-31.52 72.61-49.19 81.49c-29.8 15-62.94 24.35-98 26.62-5.59.37-11.22.56-16.9.56-58.62 0-112.63-19.71-155.79-52.85-1.01-4.47-1.57-9.08-1.66-13.76-.02-.58-.02-1.05-.02-1.32 0-18.15 7.06-35.22 19.9-48.02 12.83-12.83 29.88-19.9 48.02-19.9h267.23c7.51 0 13.59 6.08 13.59 13.59z" fill="#374c81"/><path d="m447.27 389.74c0 3.75-1.52 7.15-3.97 9.61-2.46 2.46-5.86 3.98-9.62 3.98h-13.59s-31.52 72.61-49.19 81.49c-29.8 15-62.94 24.35-98 26.62v-135.29h160.78c7.51 0 13.59 6.08 13.59 13.59z" fill="#234177"/><path d="m420.09 403.33v49.17c-15.03 12.56-31.52 23.44-49.19 32.32h-204.45c-22.31 0-40.42-17.93-40.74-40.16-.01-.19-.01-.39-.01-.59 0-11.25 4.56-21.44 11.94-28.8 7.38-7.38 17.57-11.94 28.81-11.94z" fill="#fff"/><path d="m420.09 403.33v49.17c-15.03 12.56-31.52 23.44-49.19 32.32h-137.26c-22.31 0-40.42-17.93-40.74-40.16-.01-.19-.01-.39-.01-.59 0-11.25 4.56-21.44 11.94-28.8 7.38-7.38 17.57-11.94 28.81-11.94z" fill="#d1f6ff"/><path d="m420.09 403.33v49.17c-15.03 12.56-31.52 23.44-49.19 32.32h-98v-81.49z" fill="#b3f4ff"/><path d="m251.43 444.075h-90.176v-20.039h90.176c5.534 0 10.02 4.486 10.02 10.02 0 5.533-4.486 10.019-10.02 10.019z" fill="#8fc8f5"/><path d="m203.446 424.038v51.205l-21.098-4.771-21.099 4.771v-51.205z" fill="#ffe400"/><path d="m203.446 424.038v51.205l-21.098-4.771v-46.434z" fill="#ffce00"/><path d="m373.549 362.56c0 3.755-1.52 7.147-3.976 9.613-2.456 2.456-5.858 3.976-9.613 3.976h-267.232c-17.978 0-34.919-6.956-47.713-19.578-12.683-12.522-19.85-29.212-20.192-47.028-.02-.584-.02-1.057-.02-1.319 0-18.159 7.066-35.221 19.9-48.025 12.834-12.834 29.886-19.9 48.025-19.9h267.232c7.509 0 13.589 6.08 13.589 13.589 0 3.755-1.52 7.147-3.976 9.613-2.456 2.456-5.858 3.976-9.613 3.976h-13.59l-38 40.747 38 40.747h13.589c7.51 0 13.59 6.08 13.59 13.589z" fill="#6c82ff"/><path d="m373.549 362.56c0 3.755-1.52 7.147-3.976 9.613-2.456 2.456-5.858 3.976-9.613 3.976h-160.784v-135.85h160.784c7.509 0 13.589 6.08 13.589 13.589 0 3.755-1.52 7.147-3.976 9.613-2.456 2.456-5.858 3.976-9.613 3.976h-13.59l-40 39.467 40 42.027h13.589c7.51 0 13.59 6.08 13.59 13.589z" fill="#4d6df4"/><path d="m346.37 267.477v81.494h-253.642c-22.306 0-40.425-17.928-40.737-40.163-.01-.191-.01-.393-.01-.584 0-11.254 4.56-21.441 11.938-28.809 7.378-7.378 17.565-11.938 28.809-11.938z" fill="#fff"/><path d="m346.37 267.477v81.494h-186.452c-22.306 0-40.425-17.928-40.737-40.163-.01-.191-.01-.393-.01-.584 0-11.254 4.56-21.441 11.938-28.809 7.378-7.378 17.565-11.938 28.809-11.938z" fill="#d1f6ff"/><path d="m199.176 267.477h147.195v81.494h-147.195z" fill="#b3f4ff"/><path d="m177.707 308.224h-90.176v-20.039h90.176c5.534 0 10.02 4.486 10.02 10.02 0 5.533-4.486 10.019-10.02 10.019z" fill="#8fc8f5"/><path d="m129.723 288.187v51.206l-21.098-4.771-21.099 4.771v-51.206z" fill="#fe3345"/><path d="m129.723 288.187v51.206l-21.098-4.771v-46.435z" fill="#de1263"/><path d="m96.47 226.71c0 3.755 1.52 7.147 3.976 9.613 2.456 2.456 5.858 3.976 9.613 3.976h267.232c17.978 0 34.919-6.956 47.713-19.578 12.683-12.522 19.85-29.212 20.192-47.028.02-.584.02-1.057.02-1.319 0-18.159-7.066-35.221-19.9-48.025-12.834-12.834-29.886-19.9-48.025-19.9h-267.231c-7.509 0-13.589 6.08-13.589 13.589 0 3.755 1.52 7.147 3.976 9.613 2.456 2.456 5.858 3.976 9.613 3.976h13.589l38 46.313-38 35.181h-13.589c-7.51 0-13.59 6.08-13.59 13.589z" fill="#de1263"/><path d="m96.47 226.71c0 3.755 1.52 7.147 3.976 9.613 2.456 2.456 5.858 3.976 9.613 3.976h160.784v-135.851h-160.783c-7.509 0-13.589 6.08-13.589 13.589 0 3.755 1.52 7.147 3.976 9.613 2.456 2.456 5.858 3.976 9.613 3.976h13.589l45 40.747-45 40.747h-13.589c-7.51.001-13.59 6.081-13.59 13.59z" fill="#fe3345"/><path d="m123.649 131.627v81.494h253.643c22.306 0 40.425-17.928 40.737-40.163.01-.191.01-.393.01-.584 0-11.254-4.56-21.441-11.938-28.809-7.378-7.378-17.565-11.938-28.809-11.938z" fill="#b3f4ff"/><path d="m123.649 131.627h147.195v81.494h-147.195z" fill="#fff"/><path d="m292.312 172.374h90.176v-20.039h-90.176c-5.534 0-10.02 4.486-10.02 10.02 0 5.533 4.486 10.019 10.02 10.019z" fill="#8fc8f5"/><path d="m340.296 152.337v51.205l21.098-4.771 21.099 4.771v-51.205z" fill="#4d6df4"/><path d="m340.296 152.337v51.205l21.098-4.771v-46.434z" fill="#6c82ff"/><path d="m190.839 131.627h80.005v81.494h-80.005z" fill="#d1f6ff"/></svg>