<svg id="Capa_1" enable-background="new 0 0 512 512" height="512" viewBox="0 0 512 512" width="512" xmlns="http://www.w3.org/2000/svg"><g><g><path d="m256 305.378c-141.387 0-244.868-134.782-225.263-170.986 43.302-79.963 127.94-134.269 225.263-134.269 97.204 0 181.752 54.173 225.103 133.974 19.704 36.273-83.716 171.281-225.103 171.281z" fill="#ffd89d"/><path d="m512 256.123c0 26.051-3.891 51.191-11.129 74.871-5.031 16.469-11.672 32.231-19.75 47.109-8.25 15.2-147.391 49.758-225.121 49.758s-216.871-34.558-225.109-49.758c-3.289-6.031-6.332-12.21-9.121-18.531-14-31.629-21.77-66.629-21.77-103.449 0-46.219 12.25-89.57 33.68-127 44.121 77.07 127.16 129 222.32 129s178.211-51.93 222.32-129c21.43 37.43 33.68 80.781 33.68 127zm0 0" fill="#ffa688"/><path d="m481.262 377.822c-7.16 13.223-15.434 25.742-24.723 37.43-8.437 10.633-17.719 20.57-27.719 29.723-1.095 1.003-2.199 1.996-3.311 2.98-45.149 39.928-293.869 39.928-339.018-.001-1.112-.984-2.216-1.977-3.31-2.979-10-9.153-19.282-19.09-27.719-29.723-9.289-11.688-17.563-24.207-24.723-37.43zm0 0" fill="#ff7472"/></g><g><path d="m392.664 119.877h-136.665l-136.664 346.063h273.329z" fill="#8defe9"/><path d="m119.335 119.877h136.664v346.062h-136.664z" fill="#8bfff4"/><path d="m119.335 119.877h68.563v346.062h-68.563z" fill="#c4fff9"/><path d="m425.515 447.939-2.058-4.968h-167.458l-45.938 34.453 45.938 34.453h10.857c60.756-2.535 116.034-26.24 158.659-63.938z" fill="#429dea"/><path d="m86.484 447.938c42.626 37.698 97.903 61.404 158.66 63.939h10.856v-68.906h-167.459z" fill="#7adaea"/><path d="m156.741 492.164c27.369 11.523 57.164 18.41 88.403 19.714h10.856v-68.906h-78.882z" fill="#2dceea"/><path d="m255.999 165.815-45.363 90.727 45.363 90.726c50.107 0 90.727-40.619 90.727-90.726 0-50.108-40.62-90.727-90.727-90.727z" fill="#cbeefe"/><path d="m165.273 256.542c0 50.107 40.62 90.726 90.727 90.726v-181.453c-50.107 0-90.727 40.619-90.727 90.727z" fill="#fff"/><path d="m255.999 211.752-22.395 44.789 22.395 44.789c24.736 0 44.789-20.053 44.789-44.789.001-24.736-20.052-44.789-44.789-44.789z" fill="#8defe9"/><path d="m211.21 256.542c0 24.736 20.053 44.789 44.789 44.789v-89.578c-24.736-.001-44.789 20.052-44.789 44.789z" fill="#cbeefe"/></g><g fill="#fff"><path d="m461.329 211.917h-1.524c-6.754 0-12.226-5.477-12.226-12.227v-1.523h-8.715v1.523c0 6.75-5.477 12.227-12.227 12.227h-1.527v8.715h1.527c6.75 0 12.227 5.472 12.227 12.226v1.528h8.715v-1.528c0-6.754 5.472-12.226 12.226-12.226h1.524zm0 0"/><path d="m463.771 306.074h-1.524c-6.754 0-12.226-5.477-12.226-12.227v-1.523h-8.715v1.523c0 6.75-5.477 12.227-12.227 12.227h-1.527v8.715h1.527c6.75 0 12.227 5.472 12.227 12.226v1.528h8.715v-1.528c0-6.754 5.472-12.226 12.226-12.226h1.524zm0 0"/><path d="m88.555 161.455h-1.524c-6.754 0-12.226-5.477-12.226-12.227v-1.523h-8.715v1.523c0 6.75-5.477 12.227-12.227 12.227h-1.527v8.715h1.527c6.75 0 12.227 5.472 12.227 12.226v1.528h8.715v-1.528c0-6.754 5.472-12.226 12.226-12.226h1.524zm0 0"/><path d="m84.231 306.074h-1.524c-6.754 0-12.226-5.477-12.226-12.227v-1.523h-8.715v1.523c0 6.75-5.477 12.227-12.227 12.227h-1.527v8.715h1.527c6.75 0 12.227 5.472 12.227 12.226v1.528h8.715v-1.528c0-6.754 5.472-12.226 12.226-12.226h1.524zm0 0"/></g></g></svg>