<?xml version="1.0" encoding="iso-8859-1"?>
<!-- Generator: Adobe Illustrator 19.0.0, SVG Export Plug-In . SVG Version: 6.00 Build 0)  -->
<svg version="1.1" id="Capa_1" xmlns="http://www.w3.org/2000/svg" xmlns:xlink="http://www.w3.org/1999/xlink" x="0px" y="0px"
	 viewBox="0 0 512 512" style="enable-background:new 0 0 512 512;" xml:space="preserve">
<path style="fill:#FFC143;" d="M512,256c0,141.385-114.615,256-256,256S0,397.385,0,256S114.615,0,256,0S512,114.615,512,256z"/>
<path style="fill:#EA4444;" d="M435.01,419.42H219.086c-5.523,0-10-4.477-10-10V10c0-5.523,4.477-10,10-10H435.01
	c5.523,0,10,4.477,10,10v399.42C445.01,414.943,440.533,419.42,435.01,419.42z"/>
<path style="fill:#D93131;" d="M250,419.42h-30.914c-5.523,0-10-4.477-10-10V10c0-5.523,4.477-10,10-10H250c-5.523,0-10,4.477-10,10
	v399.42C240,414.943,244.477,419.42,250,419.42z"/>
<path style="fill:#A82B2B;" d="M309.572,22.719c0,4.826-3.912,8.738-8.738,8.738c-4.826,0-8.738-3.912-8.738-8.738
	s3.912-8.738,8.738-8.738C305.66,13.981,309.572,17.893,309.572,22.719z M353.262,13.981h-26.214c-4.826,0-8.738,3.912-8.738,8.738
	l0,0c0,4.826,3.912,8.738,8.738,8.738h26.214c4.826,0,8.738-3.912,8.738-8.738l0,0C362,17.893,358.088,13.981,353.262,13.981z"/>
<path style="fill:#FFF5F5;" d="M428.408,36.214v338.255c0,5.523-4.477,10-10,10h-182.72c-5.523,0-10-4.477-10-10V36.214
	c0-5.523,4.477-10,10-10h33.69v7.476c0,5.523,4.477,10,10,10h95.341c5.523,0,10-4.477,10-10v-7.476h33.69
	C423.931,26.214,428.408,30.691,428.408,36.214z"/>
<path style="fill:#FFE7BF;" d="M428.408,34.952v340.779c0,4.826-3.912,8.738-8.738,8.738h-16.602V26.214h16.602
	C424.496,26.214,428.408,30.126,428.408,34.952z"/>
<path style="fill:#00B7A0;" d="M412.048,155c0,46.944-38.056,85-85,85s-85-38.056-85-85s38.056-85,85-85
	S412.048,108.056,412.048,155z"/>
<path style="fill:#00D3B4;" d="M392.048,155c0,35.899-29.102,65-65,65s-65-29.101-65-65s29.102-65,65-65
	S392.048,119.101,392.048,155z"/>
<path style="fill:#FFF5F5;" d="M409.39,108.604l-79.996,79.933c-1.953,1.951-5.118,1.951-7.07-0.001l-39.663-39.663
	c-3.904-3.904-3.904-10.235,0-14.139l0.003-0.003c3.904-3.904,10.235-3.904,14.139,0l29.091,29.091l69.359-69.359
	c3.904-3.904,10.235-3.904,14.139,0l0,0C413.298,98.367,413.297,104.7,409.39,108.604z"/>
<path style="fill:#596C76;" d="M355.371,438.445l-140.434,45.301c-0.934,0.301-1.94,0.301-2.874,0L71.629,438.445
	c-1.934-0.624-3.244-2.423-3.244-4.455V264.197c0-2.585,2.096-4.681,4.681-4.681h280.867c2.585,0,4.681,2.096,4.681,4.681V433.99
	C358.615,436.022,357.304,437.821,355.371,438.445z"/>
<path style="fill:#465A61;" d="M51.461,386.922c3.977,3.926,6.626,10.911,6.626,18.879c0,4.391-0.807,8.48-2.194,11.928
	c-3.76,0.611-7.733,0.945-11.849,0.945s-8.089-0.334-11.849-0.945C30.807,414.281,30,410.192,30,405.801
	c0-7.968,2.648-14.953,6.626-18.879c-1.215-1.579-1.945-3.551-1.945-5.697c0-3.463,1.885-6.48,4.681-8.1V268.878h9.362v104.247
	c2.796,1.62,4.681,4.636,4.681,8.1C53.406,383.372,52.676,385.343,51.461,386.922z M302.324,259.516H124.676l-34.758,11.212v-11.212
	H73.066c-2.585,0-4.681,2.096-4.681,4.681v13.477v19.291V433.99c0,2.031,1.31,3.831,3.244,4.455l18.289,5.9V323.046
	c0-7.349,7.661-12.188,14.297-9.03l105.859,50.377c2.227,0.719,4.623,0.719,6.85,0l141.69-67.428v-19.291L302.324,259.516z"/>
<path style="fill:#7A8C98;" d="M216.925,201.427l172.343,55.595c4.608,1.487,7.732,5.776,7.732,10.618l0,0
	c0,4.842-3.123,9.132-7.732,10.618l-172.343,55.595c-2.227,0.718-4.623,0.718-6.85,0L37.732,278.258
	C33.123,276.771,30,272.482,30,267.64l0,0c0-4.842,3.123-9.132,7.732-10.618l172.343-55.595
	C212.302,200.709,214.698,200.709,216.925,201.427z"/>
<g>
</g>
<g>
</g>
<g>
</g>
<g>
</g>
<g>
</g>
<g>
</g>
<g>
</g>
<g>
</g>
<g>
</g>
<g>
</g>
<g>
</g>
<g>
</g>
<g>
</g>
<g>
</g>
<g>
</g>
</svg>
