<svg id="Capa_1" enable-background="new 0 0 512 512" height="512" viewBox="0 0 512 512" width="512" xmlns="http://www.w3.org/2000/svg"><g><g><path d="m0 256c0 43.79 11 85.02 30.39 121.07l225.61 49.67 225.61-49.67c19.39-36.05 30.39-77.28 30.39-121.07 0-46.63-12.47-90.34-34.26-128-41.698 72.091-399.22 76.52-443.48 0-21.79 37.66-34.26 81.37-34.26 128z" fill="#78cd8a"/><path d="m34.26 128c44.26 76.52 126.99 128 221.74 128s177.48-51.48 221.74-128c-.01-.02-.03-.05-.04-.07-44.27-76.48-126.98-127.93-221.7-127.93s-177.43 51.45-221.7 127.93c-.01.02-.03.05-.04.07z" fill="#a8ea58"/><path d="m30.39 377.07c43.19 80.32 128.02 134.93 225.61 134.93s182.42-54.61 225.61-134.93z" fill="#599d89"/></g><g><path d="m258.8 287.143h-229.915c-10.636 0-19.257-8.622-19.257-19.257v-23.018c0-10.636 8.622-19.257 19.257-19.257h227.115" fill="#f5dc6e"/><path d="m256 225.61h227.115c10.636 0 19.257 8.622 19.257 19.257v23.018c0 10.636-8.622 19.257-19.257 19.257h-224.315" fill="#eebf36"/><path d="m477.29 221.57v86.93c0 44.26-35.88 80.14-80.15 80.14h-38.67c-36.15 0-66.71-23.94-76.69-56.83-1.74-5.71-5.2-10.53-9.72-13.92-4.52-3.4-10.1-5.37-16.06-5.37-11.92 0-22.31 7.88-25.78 19.29-9.98 32.89-40.54 56.83-76.69 56.83h-38.67c-44.27 0-80.15-35.88-80.15-80.14v-86.93c0-35.82 29.05-64.87 64.87-64.87h312.84c35.82 0 64.87 29.05 64.87 64.87z" fill="#616679"/><path d="m477.29 221.57v86.93c0 44.26-35.88 80.14-80.15 80.14h-38.67c-36.15 0-66.71-23.94-76.69-56.83-1.74-5.71-5.2-10.53-9.72-13.92-4.52-3.4-10.1-5.37-16.06-5.37v-155.82h156.42c35.82 0 64.87 29.05 64.87 64.87z" fill="#464651"/><path d="m447.29 221.57v86.93c0 27.65-22.5 50.14-50.15 50.14h-38.67c-21.9 0-41.64-14.62-47.99-35.54-7.37-24.27-29.26-40.58-54.48-40.58s-47.11 16.31-54.48 40.58c-6.35 20.92-26.09 35.54-47.99 35.54h-38.67c-1.78 0-3.53-.09-5.26-.28-9.68-1.01-18.56-4.79-25.81-10.53-7.48-5.92-13.23-13.91-16.39-23.11-1.74-5.09-2.69-10.55-2.69-16.22v-86.93c0-19.23 15.65-34.87 34.87-34.87h312.84c19.22 0 34.87 15.64 34.87 34.87z" fill="#9feafd"/><path d="m205.42 186.7-138.02 138.02c-1.74-5.09-2.69-10.55-2.69-16.22v-53.76l68.04-68.04z" fill="#c3f3ff"/><path d="m281.26 186.7-171.66 171.66c-9.68-1.01-18.56-4.79-25.81-10.53l161.13-161.13z" fill="#c3f3ff"/><path d="m447.29 221.57v86.93c0 27.65-22.5 50.14-50.15 50.14h-38.67c-9.61 0-18.81-2.82-26.65-7.75-10-6.3-17.78-16.05-21.34-27.79-3.75-12.35-11.27-22.65-21.07-29.77-9.45-6.88-21.03-10.81-33.41-10.81v-95.82h156.42c19.22 0 34.87 15.64 34.87 34.87z" fill="#70c5e8"/><g fill="#9feafd"><path d="m281.26 186.7-25.26 25.26v-25.26z"/><path d="m447.29 221.57v13.85l-115.47 115.47c-10-6.3-17.78-16.05-21.34-27.79-3.75-12.35-11.27-22.65-21.07-29.77l106.62-106.63h16.39c19.22 0 34.87 15.64 34.87 34.87z"/></g></g></g></svg>