<svg id="Capa_1" enable-background="new 0 0 512 512" height="512" viewBox="0 0 512 512" width="512" xmlns="http://www.w3.org/2000/svg"><g><g><path d="m487.469 374.206h-389.513c15.603 11.459 25.738 29.928 25.738 50.771 0 16.885-6.66 32.206-17.48 43.512-.884 1.031-4.542 4.528-8.258 7.259h389.513c13.526 0 24.531-11.005 24.531-24.531v-52.48c0-13.526-11.005-24.531-24.531-24.531z" fill="#dbedff"/></g><g><path d="m487.469 205.312h-389.513c15.603 11.459 25.738 29.928 25.738 50.771 0 16.885-6.66 32.206-17.48 43.512-1.788 1.937-5.044 4.898-8.258 7.259h389.513c13.526 0 24.531-11.005 24.531-24.531v-52.48c0-13.526-11.005-24.531-24.531-24.531z" fill="#dbedff"/></g><g><path d="m487.469 36.417h-389.513c15.603 11.459 25.738 29.928 25.738 50.771 0 16.885-6.66 32.206-17.48 43.512-.883 1.031-4.55 4.535-8.258 7.259h389.513c13.526 0 24.531-11.005 24.531-24.531v-52.48c0-13.526-11.005-24.531-24.531-24.531z" fill="#dbedff"/></g><g><path d="m487.469 438.857h-365.332c-2.557 11.338-8.161 21.521-15.923 29.632-.884 1.031-4.542 4.528-8.258 7.259h389.513c13.526 0 24.531-11.005 24.531-24.531v-36.891c0 13.527-11.005 24.531-24.531 24.531z" fill="#b5dcff"/></g><g><path d="m487.469 269.963h-365.332c-2.557 11.338-8.161 21.521-15.923 29.632-1.788 1.937-5.044 4.898-8.258 7.259h389.513c13.526 0 24.531-11.005 24.531-24.531v-36.891c0 13.526-11.005 24.531-24.531 24.531z" fill="#b5dcff"/></g><g><path d="m487.469 101.068h-365.332c-2.557 11.338-8.161 21.521-15.923 29.632-.883 1.031-4.549 4.535-8.258 7.259h389.513c13.526 0 24.531-11.005 24.531-24.531v-36.891c0 13.527-11.005 24.531-24.531 24.531z" fill="#b5dcff"/></g><path d="m287.737 110.042c4.161 0 7.535-3.373 7.535-7.535v-30.638c0-4.161-3.373-7.535-7.535-7.535h-168.339c2.763 7.087 4.296 14.789 4.296 22.854s-1.533 15.767-4.296 22.854z" fill="#ff5595"/><path d="m476.548 233.229h-357.15c2.763 7.087 4.296 14.789 4.296 22.854s-1.533 15.767-4.296 22.855h357.15c4.161 0 7.535-3.373 7.535-7.535v-30.639c0-4.162-3.373-7.535-7.535-7.535z" fill="#ffe02f"/><path d="m380.233 402.123h-260.835c2.763 7.087 4.296 14.789 4.296 22.854s-1.533 15.767-4.296 22.854h260.835c4.161 0 7.535-3.373 7.535-7.535v-30.639c0-4.16-3.373-7.534-7.535-7.534z" fill="#73d578"/><g><path d="m287.737 87.188h-164.043c0 8.065-1.533 15.767-4.296 22.854h168.338c4.161 0 7.535-3.373 7.535-7.535v-22.854c.001 4.162-3.373 7.535-7.534 7.535z" fill="#ff0263"/></g><g><path d="m476.548 256.083h-352.854c0 8.065-1.533 15.767-4.296 22.854h357.15c4.161 0 7.535-3.373 7.535-7.535v-22.854c0 4.162-3.373 7.535-7.535 7.535z" fill="#fbc700"/></g><g><path d="m380.234 424.977h-256.54c0 8.065-1.533 15.767-4.296 22.854h260.835c4.161 0 7.535-3.373 7.535-7.535v-22.854c.001 4.162-3.373 7.535-7.534 7.535z" fill="#00c63a"/></g><g><path d="m23.078 127.471h80.531l4.689 3.089c10.806-11.292 17.457-26.592 17.457-43.455 0-34.726-28.152-62.878-62.878-62.878s-62.877 28.152-62.877 62.878c0 16.863 6.651 32.163 17.457 43.455z" fill="#8479c2"/><g><path d="m27.53 87.105c0-29.996 21.01-55.069 49.113-61.348-4.432-.99-9.034-1.53-13.765-1.53-34.727 0-62.878 28.152-62.878 62.878 0 16.863 6.651 32.163 17.457 43.455l5.621-3.089h19.162c-9.168-10.923-14.71-24.989-14.71-40.366z" fill="#6e60b8"/></g><circle cx="62.878" cy="61.144" fill="#ffcebe" r="25.961"/><path d="m60.587 61.144c0-10.073 5.741-18.8 14.125-23.104-3.55-1.822-7.57-2.857-11.835-2.857-14.338 0-25.961 11.623-25.961 25.961s11.624 25.961 25.961 25.961c4.265 0 8.286-1.035 11.835-2.857-8.384-4.304-14.125-13.031-14.125-23.104z" fill="#ffb1a0"/><path d="m82.326 101.068h-38.896c-14.285 0-25.973 11.688-25.973 25.973v3.52c11.447 11.962 27.558 19.423 45.421 19.423s33.974-7.461 45.421-19.423v-3.52c-.001-14.285-11.688-25.973-25.973-25.973z" fill="#ff5595"/><path d="m46.084 133.283c-1.72-1.6-2.666-3.865-2.666-6.215 0-12.9 9.36-23.713 21.622-26h-21.61c-14.285 0-25.973 11.688-25.973 25.972v3.52c11.447 11.962 27.558 19.423 45.421 19.423 4.206 0 8.316-.413 12.29-1.202-11.068-2.57-21.041-8.015-29.084-15.498z" fill="#ff0263"/></g><g><path d="m23.078 465.26h80.531l4.689 3.089c10.806-11.292 17.457-26.592 17.457-43.455 0-34.726-28.152-62.878-62.878-62.878s-62.877 28.152-62.877 62.879c0 16.863 6.651 32.164 17.457 43.455z" fill="#8479c2"/><g><path d="m27.53 424.895c0-29.996 21.01-55.069 49.113-61.348-4.432-.99-9.034-1.53-13.765-1.53-34.727 0-62.878 28.151-62.878 62.878 0 16.863 6.651 32.164 17.457 43.455l5.621-3.089h19.162c-9.168-10.924-14.71-24.99-14.71-40.366z" fill="#6e60b8"/></g><circle cx="62.878" cy="398.934" fill="#ffcebe" r="25.961"/><path d="m60.587 398.934c0-10.073 5.741-18.8 14.125-23.104-3.55-1.822-7.57-2.857-11.835-2.857-14.338 0-25.961 11.623-25.961 25.961s11.623 25.961 25.961 25.961c4.265 0 8.286-1.035 11.835-2.857-8.384-4.305-14.125-13.031-14.125-23.104z" fill="#ffb1a0"/><path d="m82.326 438.857h-38.896c-14.285 0-25.973 11.688-25.973 25.973v3.52c11.447 11.962 27.558 19.423 45.421 19.423s33.974-7.461 45.421-19.423v-3.52c-.001-14.284-11.688-25.973-25.973-25.973z" fill="#73d578"/><path d="m46.084 471.073c-1.72-1.6-2.666-3.865-2.666-6.215 0-12.9 9.36-23.713 21.622-26h-21.61c-14.285 0-25.973 11.688-25.973 25.972v3.52c11.447 11.962 27.558 19.423 45.421 19.423 4.206 0 8.315-.413 12.289-1.202-11.068-2.57-21.04-8.016-29.083-15.498z" fill="#00c63a"/></g><g><path d="m23.078 296.531h80.531l4.689 3.089c10.806-11.292 17.457-26.592 17.457-43.455 0-34.726-28.152-62.878-62.878-62.878s-62.877 28.152-62.877 62.878c0 16.863 6.651 32.163 17.457 43.455z" fill="#8479c2"/><g><path d="m27.53 256.165c0-29.996 21.01-55.069 49.113-61.348-4.432-.99-9.034-1.53-13.765-1.53-34.727 0-62.878 28.152-62.878 62.878 0 16.863 6.651 32.163 17.457 43.455l5.621-3.089h19.162c-9.168-10.923-14.71-24.989-14.71-40.366z" fill="#6e60b8"/></g><circle cx="62.878" cy="230.204" fill="#ffcebe" r="25.961"/><path d="m60.587 230.204c0-10.073 5.741-18.8 14.125-23.104-3.55-1.822-7.57-2.857-11.835-2.857-14.338 0-25.961 11.623-25.961 25.961s11.623 25.961 25.961 25.961c4.265 0 8.286-1.035 11.835-2.857-8.384-4.304-14.125-13.031-14.125-23.104z" fill="#ffb1a0"/><path d="m82.326 270.128h-38.896c-14.285 0-25.973 11.688-25.973 25.973v3.52c11.447 11.962 27.558 19.423 45.421 19.423s33.974-7.461 45.421-19.423v-3.52c-.001-14.285-11.688-25.973-25.973-25.973z" fill="#ffe02f"/><path d="m46.084 302.344c-1.72-1.6-2.666-3.865-2.666-6.215 0-12.9 9.36-23.713 21.622-26h-21.61c-14.285 0-25.973 11.688-25.973 25.972v3.52c11.447 11.962 27.558 19.423 45.421 19.423 4.206 0 8.311-.413 12.285-1.202-11.068-2.571-21.036-8.016-29.079-15.498z" fill="#fbc700"/></g></g></svg>