<svg id="Icons" enable-background="new 0 0 512 512" height="512" viewBox="0 0 512 512" width="512" xmlns="http://www.w3.org/2000/svg"><g><path d="m512 256c0 27.41-4.31 53.81-12.28 78.56-.53 1.63-1.06 3.24-1.62 4.85-14.93 43.34-41.17 81.41-75.19 110.69-2 1.73-4.03 3.43-6.09 5.09-43.96 35.53-99.9 56.81-160.82 56.81-89.32 0-167.97-45.75-213.77-115.1-26.69-40.42-42.23-88.84-42.23-140.9 0-141.38 114.62-256 256-256 136.83 0 248.59 107.36 255.65 242.44.23 4.49.35 9.01.35 13.56z" fill="#f39e22"/><path d="m512 256c0 27.41-4.31 53.81-12.28 78.56-.53 1.63-1.06 3.24-1.62 4.85-14.93 43.34-41.17 81.41-75.19 110.69-2 1.73-4.03 3.43-6.09 5.09-43.96 35.53-99.9 56.81-160.82 56.81-89.32 0-167.97-45.75-213.77-115.1l40-118.95c7.609-21.95 15.9-35.51 35.51-35.51h393.91c.23 4.49.35 9.01.35 13.56z" fill="#ebd9ea"/><g><path d="m398.63 335.61c35.88 0 69.22 1.37 99.47 3.8.56-1.61 1.09-3.22 1.62-4.85-92.408-8.104-222.535-3.728-300.77 13.63-38.53 8.189-84.47 22.609-84.47 44.769 7.856 55.456 235.503 63.908 302.34 62.23 2.06-1.66 4.09-3.36 6.09-5.09-7.96.14-16.05.21-24.28.21-166.98 0-279.15-29.65-279.15-57.35s112.17-57.349 279.15-57.349z" fill="#c2aacf"/></g><path d="m407.978 392.535c-.267-5.134-18.434-5.131-18.697 0 .267 5.135 18.434 5.131 18.697 0z" fill="#c2aacf"/><g><g><g><g><path d="m381.636 351.327 9.659 22.631 7.471 17.524c.483 1.152-1.067 2.047-1.814 1.047-6.522-8.695-19.719-26.266-26.21-34.914z" fill="#9175a7"/><g><path d="m374.806 314.359 17.717 30.687c7.757 14.736-12.803 26.727-21.778 12.574 0 0-17.717-30.687-17.717-30.687-7.76-14.767 12.86-26.689 21.778-12.574z" fill="#9175a7"/><path d="m384.046 330.363 8.477 14.683c5.025 8.421-1.722 19.369-11.346 18.861l-8.482-14.692c-5.006-8.373 1.683-19.357 11.351-18.852z" fill="#a583bb"/><path d="m390.286 341.171 2.237 3.875c3.319 5.749 1.591 13.004-3.806 16.677-8.43-4.539-7.498-17.308 1.569-20.552z" fill="#c2aacf"/></g></g><g><path d="m291.851 143.631 84.603 146.536c1.692 2.93 2.829 6.021 3.44 9.165 2.387 12.159-3.027 25.028-14.363 31.573-4.224 2.439-9.639.988-12.078-3.236l-95.091-164.703z" fill="#c0405c"/><path d="m291.851 143.631 84.603 146.536c1.692 2.93 2.829 6.021 3.44 9.165-2.533 4.699-6.364 8.784-11.338 11.656-4.224 2.439-9.639.988-12.082-3.245l-87.219-151.067z" fill="#e9465e"/><path d="m346.029 263.563c-6.24 3.602-14.218 1.465-17.821-4.775l-36.314-62.898c-3.602-6.24-1.465-14.218 4.775-17.821 6.24-3.602 14.218-1.465 17.821 4.775l36.314 62.898c3.603 6.239 1.465 14.218-4.775 17.821z" fill="#ee6781"/></g></g><g><g><path d="m135.088 351.326-9.659 22.632-7.471 17.524c-.483 1.152 1.067 2.047 1.814 1.047 6.522-8.695 19.719-26.266 26.21-34.914z" fill="#334353"/><g><path d="m141.918 314.359-17.718 30.687c-7.757 14.736 12.803 26.727 21.778 12.574 0 0 17.717-30.687 17.717-30.687 7.76-14.767-12.859-26.689-21.777-12.574z" fill="#9175a7"/><path d="m132.678 330.363-8.477 14.683c-5.025 8.421 1.722 19.369 11.346 18.861l8.482-14.692c5.006-8.373-1.683-19.357-11.351-18.852z" fill="#a583bb"/><path d="m126.438 341.171-2.237 3.875c-3.319 5.749-1.591 13.004 3.806 16.677 8.43-4.539 7.498-17.308-1.569-20.552z" fill="#c2aacf"/></g></g><g><path d="m224.873 143.631-84.603 146.537c-1.692 2.93-2.829 6.021-3.44 9.165-2.387 12.159 3.027 25.028 14.363 31.573 4.224 2.439 9.639.988 12.078-3.236l95.091-164.703z" fill="#c0405c"/><path d="m224.873 143.631-84.603 146.537c-1.692 2.93-2.829 6.021-3.44 9.165 2.533 4.699 6.364 8.784 11.338 11.656 4.224 2.439 9.639.988 12.082-3.245l87.219-151.067z" fill="#e9465e"/><path d="m170.694 263.562c6.24 3.602 14.218 1.465 17.821-4.775l36.314-62.898c3.602-6.24 1.465-14.218-4.775-17.821-6.24-3.602-14.218-1.465-17.821 4.775l-36.314 62.898c-3.602 6.24-1.464 14.219 4.775 17.821z" fill="#ee6781"/></g></g></g><g><path d="m312.561 138.026c.084 13.46-11.045 24.996-24.941 24.941h-58.516c-6.894 0-13.129-2.793-17.633-7.307-12.188-11.857-8.433-33.082 6.855-40.145 3.265-1.564 6.913-2.439 10.778-2.439h58.516c13.789-.002 24.935 11.178 24.941 24.95z" fill="#c2aacf"/><path d="m312.561 138.026c0 3.294-.639 6.432-1.8 9.313-3.265 1.564-6.924 2.439-10.779 2.439h-58.516c-17.504.16-29.798-18.153-23.141-34.264 3.265-1.564 6.914-2.439 10.779-2.439h58.516c13.789-.001 24.935 11.179 24.941 24.951z" fill="#ebd9ea"/><path d="m285.312 136.509h-35.482c-6.471 0-11.717-5.246-11.717-11.717s5.246-11.717 11.717-11.717h35.482c15.538.624 15.551 22.804 0 23.434z" fill="#fff"/><path d="m267.567 138.026c.019 4.997-4.074 9.218-9.205 9.205-10.015-.102-12.682-13.714-3.648-17.663 5.86-2.685 13.002 1.961 12.853 8.458z" fill="#334353"/><path d="m267.567 138.026c0 1.603-.413 3.108-1.131 4.426-7.968 3.489-15.919-5.301-11.723-12.883 5.862-2.687 13.003 1.962 12.854 8.457z" fill="#3f5d77"/></g><g><path d="m283.499 75.674c0 10.11-2.695 19.296-7.101 26.023-17.524 25.718-43.727 4.134-43.174-26.023 1.233-48.981 48.567-50.357 50.275 0z" fill="#c0405c"/><path d="m283.499 75.674c0 10.11-2.695 19.296-7.101 26.023-16.936 3.884-29.366-14.399-29.632-36.791 0-10.12 2.695-19.296 7.081-26.023 16.942-3.885 29.386 14.391 29.652 36.791z" fill="#e9465e"/><path d="m277.775 63.322c0-6.347-5.145-11.493-11.493-11.493-15.245.605-15.24 22.382 0 22.985 6.348 0 11.493-5.145 11.493-11.492z" fill="#ee6781"/></g></g></g></svg>