<svg height="512" viewBox="0 0 512 512" width="512" xmlns="http://www.w3.org/2000/svg"><g id="BULINE"><circle cx="256" cy="256" fill="#b0d46c" r="256"/></g><g id="Icons"><rect fill="#41c0e3" height="365.46" rx="12.41" transform="matrix(.707 .707 -.707 .707 264.02 -127.26)" width="232.68" x="169.28" y="72.34"/><path d="m260 445.2-12.58 12.58a12.41 12.41 0 0 1 -17.55 0l-147-147a12.39 12.39 0 0 1 0-17.54l240.92-240.87a12.41 12.41 0 0 1 17.55 0l13.54 13.53-228.3 228.3a12.41 12.41 0 0 0 0 17.55z" fill="#3bb1cc"/><rect fill="#b0e3ff" height="338.02" rx="14.79" transform="matrix(.707 .707 -.707 .707 264.02 -127.26)" width="29.58" x="270.83" y="86.07"/><path d="m169.28 377a14.81 14.81 0 0 1 -3.17-23.33l218.11-218.1a14.8 14.8 0 0 1 23.32 3.16 14.78 14.78 0 0 0 -17.75 2.41l-218.1 218.11a14.78 14.78 0 0 0 -2.41 17.75z" fill="#3bb1cc"/><circle cx="315.31" cy="124.53" fill="#3586cb" r="26.95"/><circle cx="322.05" cy="127.55" fill="#fff" r="26.95"/><path d="m306.53 149.58a26.95 26.95 0 1 1 34.57-41.09 27.53 27.53 0 0 1 3 3.54 26.95 26.95 0 0 0 -37.55 37.55z" fill="#e2e2e2"/><rect fill="#e2e2e2" height="36.97" rx="3.08" transform="matrix(.707 .707 -.707 .707 184.52 -190.37)" width="6.16" x="318.97" y="109.06"/><circle cx="407.34" cy="216.56" fill="#3bb1cc" r="26.95"/><circle cx="414.08" cy="219.58" fill="#fff" r="26.95"/><path d="m398.56 241.6a26.66 26.66 0 0 1 -3.54-3 26.95 26.95 0 1 1 38.11-38.11 27.45 27.45 0 0 1 3 3.53 26.95 26.95 0 0 0 -37.55 37.55z" fill="#e2e2e2"/><rect fill="#e2e2e2" height="36.97" rx="3.08" transform="matrix(.707 .707 -.707 .707 276.54 -228.49)" width="6.16" x="411" y="201.09"/><circle cx="261.28" cy="178.56" fill="#3586cb" r="26.95"/><circle cx="268.02" cy="181.58" fill="#fff" r="26.95"/><path d="m252.5 203.61a27.53 27.53 0 0 1 -3.54-3 26.95 26.95 0 1 1 38.11-38.11 27.53 27.53 0 0 1 3 3.54 26.95 26.95 0 0 0 -37.55 37.55z" fill="#e2e2e2"/><rect fill="#e2e2e2" height="36.97" rx="3.08" transform="matrix(.707 .707 -.707 .707 206.9 -136.34)" width="6.16" x="264.94" y="163.09"/><circle cx="353.31" cy="270.59" fill="#3bb1cc" r="26.95"/><circle cx="360.05" cy="273.61" fill="#fff" r="26.95"/><path d="m344.53 295.64a27.53 27.53 0 0 1 -3.54-3 26.95 26.95 0 1 1 41.09-34.57 26.95 26.95 0 0 0 -37.55 37.55z" fill="#e2e2e2"/><rect fill="#e2e2e2" height="36.97" rx="3.08" transform="matrix(.707 .707 -.707 .707 298.93 -174.45)" width="6.16" x="356.97" y="255.12"/><circle cx="207.25" cy="232.59" fill="#3586cb" r="26.95"/><circle cx="213.99" cy="235.61" fill="#fff" r="26.95"/><path d="m198.47 257.64a27.53 27.53 0 0 1 -3.54-3 26.94 26.94 0 1 1 41.07-34.55 26.95 26.95 0 0 0 -37.55 37.55z" fill="#e2e2e2"/><rect fill="#e2e2e2" height="36.97" rx="3.08" transform="matrix(.707 .707 -.707 .707 229.28 -82.3)" width="6.16" x="210.91" y="217.12"/><circle cx="299.28" cy="324.62" fill="#3bb1cc" r="26.95"/><circle cx="306.02" cy="327.64" fill="#fff" r="26.95"/><path d="m290.5 349.67a27 27 0 1 1 37.5-37.55 26.94 26.94 0 0 0 -37.54 37.55z" fill="#e2e2e2"/><rect fill="#e2e2e2" height="36.97" rx="3.08" transform="matrix(.707 .707 -.707 .707 321.3 -120.42)" width="6.16" x="302.94" y="309.15"/><circle cx="153.22" cy="286.62" fill="#3586cb" r="26.95"/><circle cx="159.96" cy="289.64" fill="#fff" r="26.95"/><path d="m144.44 311.67a27.53 27.53 0 0 1 -3.54-3 26.94 26.94 0 1 1 41.1-34.55 26.95 26.95 0 0 0 -37.55 37.55z" fill="#e2e2e2"/><rect fill="#e2e2e2" height="36.97" rx="3.08" transform="matrix(.707 .707 -.707 .707 251.66 -28.27)" width="6.16" x="156.88" y="271.16"/><circle cx="245.25" cy="378.65" fill="#3bb1cc" r="26.95"/><circle cx="251.99" cy="381.67" fill="#fff" r="26.95"/><path d="m236.46 403.7a27.45 27.45 0 0 1 -3.53-3 26.95 26.95 0 0 1 38.07-38.09 26.66 26.66 0 0 1 3 3.54 26.95 26.95 0 0 0 -37.55 37.55z" fill="#e2e2e2"/><rect fill="#e2e2e2" height="36.97" rx="3.08" transform="matrix(.707 .707 -.707 .707 343.69 -66.39)" width="6.16" x="248.9" y="363.18"/><ellipse cx="464.51" cy="201.94" fill="#b0e3ff" rx="7.89" ry="12.83" transform="matrix(.707 -.707 .707 .707 -6.74 387.61)"/><ellipse cx="444.89" cy="182.32" fill="#b0e3ff" rx="6.39" ry="10.38" transform="matrix(.707 -.707 .707 .707 1.39 367.98)"/><rect fill="#7cc8fb" height="365.46" rx="12.41" width="232.68" x="75.1" y="72.34"/><path d="m307.79 407.61v17.79a12.41 12.41 0 0 1 -12.42 12.4h-207.86a12.4 12.4 0 0 1 -12.41-12.4v-340.65a12.41 12.41 0 0 1 12.41-12.41h19.14v322.86a12.41 12.41 0 0 0 12.41 12.41z" fill="#41c0e3"/><rect fill="#b0e3ff" height="338.02" rx="14.79" width="29.58" x="176.66" y="86.07"/><path d="m195.39 423.56a15 15 0 0 1 -3.94.53 14.79 14.79 0 0 1 -14.79-14.79v-308.45a14.77 14.77 0 0 1 18.73-14.25 14.78 14.78 0 0 0 -10.85 14.25v308.45a14.8 14.8 0 0 0 10.85 14.26z" fill="#41c0e3"/><circle cx="120.13" cy="141.77" fill="#3586cb" r="26.95"/><circle cx="127.03" cy="139.14" fill="#fff" r="26.95"/><path d="m131.63 165.69a26.94 26.94 0 1 1 -4.63-53.49 28 28 0 0 1 4.6.39 26.94 26.94 0 0 0 0 53.1z" fill="#e2e2e2"/><rect fill="#e2e2e2" height="36.97" rx="3.08" width="6.16" x="123.95" y="120.66"/><circle cx="250.27" cy="141.77" fill="#7cc8fb" r="26.95"/><circle cx="257.18" cy="139.14" fill="#fff" r="26.95"/><path d="m261.78 165.69a26.94 26.94 0 1 1 -4.61-53.49 28 28 0 0 1 4.61.39 26.94 26.94 0 0 0 0 53.1z" fill="#e2e2e2"/><rect fill="#e2e2e2" height="36.97" rx="3.08" width="6.16" x="254.09" y="120.66"/><circle cx="120.13" cy="218.18" fill="#3586cb" r="26.95"/><circle cx="127.03" cy="215.55" fill="#fff" r="26.95"/><path d="m131.63 242.11a28 28 0 0 1 -4.6.39 26.95 26.95 0 1 1 0-53.89 28 28 0 0 1 4.6.39 27 27 0 0 0 0 53.11z" fill="#e2e2e2"/><rect fill="#e2e2e2" height="36.97" rx="3.08" width="6.16" x="123.95" y="197.07"/><circle cx="250.27" cy="218.18" fill="#7cc8fb" r="26.95"/><circle cx="257.18" cy="215.55" fill="#fff" r="26.95"/><path d="m261.78 242.11a28 28 0 0 1 -4.61.39 26.95 26.95 0 0 1 0-53.89 28 28 0 0 1 4.61.39 27 27 0 0 0 0 53.11z" fill="#e2e2e2"/><rect fill="#e2e2e2" height="36.97" rx="3.08" width="6.16" x="254.09" y="197.07"/><circle cx="120.13" cy="294.6" fill="#3586cb" r="26.95"/><circle cx="127.03" cy="291.97" fill="#fff" r="26.95"/><path d="m131.63 318.52a28 28 0 0 1 -4.6.39 26.95 26.95 0 1 1 -.03-53.91 28 28 0 0 1 4.6.39 27 27 0 0 0 0 53.11z" fill="#e2e2e2"/><rect fill="#e2e2e2" height="36.97" rx="3.08" width="6.16" x="123.95" y="273.48"/><circle cx="250.27" cy="294.6" fill="#7cc8fb" r="26.95"/><circle cx="257.18" cy="291.97" fill="#fff" r="26.95"/><path d="m261.78 318.52a28 28 0 0 1 -4.61.39 26.95 26.95 0 0 1 0-53.89 28 28 0 0 1 4.61.39 27 27 0 0 0 0 53.11z" fill="#e2e2e2"/><rect fill="#e2e2e2" height="36.97" rx="3.08" width="6.16" x="254.09" y="273.48"/><circle cx="120.13" cy="371.01" fill="#3586cb" r="26.95"/><circle cx="127.03" cy="368.38" fill="#fff" r="26.95"/><path d="m131.63 394.93a27 27 0 1 1 0-53.1 26.94 26.94 0 0 0 0 53.1z" fill="#e2e2e2"/><rect fill="#e2e2e2" height="36.97" rx="3.08" width="6.16" x="123.95" y="349.89"/><circle cx="250.27" cy="371.01" fill="#7cc8fb" r="26.95"/><circle cx="257.18" cy="368.38" fill="#fff" r="26.95"/><path d="m261.78 394.93a27 27 0 1 1 0-53.1 26.94 26.94 0 0 0 0 53.1z" fill="#e2e2e2"/><rect fill="#e2e2e2" height="36.97" rx="3.08" width="6.16" x="254.09" y="349.89"/><ellipse cx="280.37" cy="91.01" fill="#b0e3ff" rx="12.83" ry="7.89"/><ellipse cx="252.61" cy="91.01" fill="#b0e3ff" rx="10.38" ry="6.39"/><circle cx="414.08" cy="405.61" fill="#f6d372" r="31.88"/><rect fill="#f6c752" height="14.12" rx="7.06" width="58.61" x="384.78" y="398.25"/><circle cx="332.97" cy="405.61" fill="#fff" r="31.88"/><rect fill="#e2e2e2" height="14.12" rx="7.06" transform="matrix(.707 -.707 .707 .707 -189.19 354.03)" width="58.61" x="303.45" y="398.33"/></g></svg>