<svg id="Capa_1" enable-background="new 0 0 512 512" height="512" viewBox="0 0 512 512" width="512" xmlns="http://www.w3.org/2000/svg"><g><g><path d="m512 256c0 141.387-114.613 256-256 256s-256-114.613-256-256 114.613-256 256-256 256 114.613 256 256zm0 0" fill="#e27fad"/><path d="m512 256c0 26.051-3.891 51.191-11.129 74.871-5.031 16.469-11.672 32.231-19.75 47.109-8.25 15.2-18 29.461-29.051 42.61-.582.691-1.16 1.379-1.75 2.058-46.941 54.704-116.59 89.352-194.32 89.352s-147.379-34.648-194.309-89.352c-.589-.687-1.179-1.378-1.75-2.07-11.062-13.137-20.812-27.398-29.05-42.598-3.289-6.031-6.332-12.21-9.121-18.531-14-31.629-21.77-66.629-21.77-103.449 0-46.219 12.25-89.57 33.68-127 44.121 77.07 127.16 129 222.32 129s178.211-51.93 222.32-129c21.43 37.43 33.68 80.781 33.68 127zm0 0" fill="#dc4180"/><path d="m481.262 377.699c-7.16 13.223-15.434 25.742-24.723 37.43-8.437 10.633-17.719 20.57-27.719 29.723-45.539 41.699-106.211 67.148-172.82 67.148s-127.281-25.449-172.82-67.148c-10-9.153-19.282-19.09-27.719-29.723-9.289-11.688-17.563-24.207-24.723-37.43zm0 0" fill="#9f165b"/></g><g><path d="m395.067 116.93-36.938-36.937-51.714 51.713 36.938 96.039z" fill="#2d3e53"/><path d="m377.512 99.375-19.383-19.382-51.714 51.713 20.02 20.019z" fill="#425873"/><path d="m395.067 116.93-81.264 81.265 66.489 7.388 51.713-51.714z" fill="#16202d"/><path d="m97.808 378.32-22.418 58.288 69.904-40.353z" fill="#2d3e53"/><path d="m97.808 378.32-22.418 58.288 30.841-49.865z" fill="#425873"/><path d="m75.39 436.608 58.288-22.419-3.16-32.71z" fill="#16202d"/><path d="m204.395 337.153-82.832-20.594-23.755 61.761 17.935 17.935z" fill="#fff0be"/><path d="m141.695 336.656-20.132-20.097-23.755 61.761 8.423 8.423z" fill="#fff8e0"/><path d="m189.62 322.378-73.877 73.877 17.935 17.934 61.762-23.754z" fill="#ffd19c"/><path d="m343.353 168.644-36.938-36.938-29.55 29.551 22.162 110.814z" fill="#dff5ff"/><path d="m326.435 151.725-20.02-20.019-29.55 29.551 20.132 20.098z" fill="#fff"/><path d="m269.477 242.521 81.264-7.388 29.551-29.55-36.939-36.939z" fill="#bfebff"/><path d="m158.501 353.497 36.939 36.938 155.301-155.302-36.938-36.938-107.201 48.1z" fill="#135dd9"/><path d="m107.868 231.258h219.63v52.238h-219.63z" fill="#1394fb" transform="matrix(.707 -.707 .707 .707 -118.235 229.309)"/><path d="m99.465 234.733h219.63v28.447h-219.63z" fill="#64b0fb" transform="matrix(.707 -.708 .708 .707 -114.766 221.179)"/></g><g fill="#fff"><path d="m274.109 75.633h-1.524c-6.754 0-12.226-5.477-12.226-12.227v-1.523h-8.715v1.523c0 6.75-5.477 12.227-12.227 12.227h-1.527v8.715h1.527c6.75 0 12.227 5.472 12.227 12.226v1.528h8.715v-1.528c0-6.754 5.472-12.226 12.226-12.226h1.524zm0 0"/><path d="m154.187 134.428h-1.524c-6.754 0-12.226-5.477-12.226-12.227v-1.523h-8.715v1.523c0 6.75-5.477 12.227-12.227 12.227h-1.527v8.715h1.527c6.75 0 12.227 5.472 12.227 12.226v1.528h8.715v-1.528c0-6.754 5.472-12.226 12.226-12.226h1.524zm0 0"/><path d="m104.534 253.017h-1.524c-6.754 0-12.226-5.477-12.226-12.227v-1.523h-8.715v1.523c0 6.75-5.477 12.227-12.227 12.227h-1.527v8.715h1.527c6.75 0 12.227 5.472 12.227 12.226v1.528h8.715v-1.528c0-6.754 5.472-12.226 12.226-12.226h1.524zm0 0"/></g></g></svg>