<svg id="Layer_1" enable-background="new 0 0 512 512" height="512" viewBox="0 0 512 512" width="512" xmlns="http://www.w3.org/2000/svg"><g><path d="m429.186 417.546c37.856-43.127 60.818-99.652 60.818-161.546 0-135.311-109.691-245.002-245.002-245.002-68.856 0-131.066 28.417-175.575 74.148l76.869 332.4z" fill="#ffdd40"/><path d="m161.352 482.654.929 4.017c25.843 9.269 53.689 14.332 82.721 14.332 32.981 0 64.432-6.533 93.151-18.349z" fill="#1c2e7a"/><path d="m349.695 238.818v-155.328h-30.458c-.181 8.383-1.72 14.41-1.717 15.688-1.375 16.909-1.452 26.028-1.513 27.117 1.998.146 4.44-.149 5.914 1.2 8.167 7.486-2.391 18.497-4.184 31.714-.362 2.665-1.845 6.073-4.34 7.676-1.65 1.062-3.565 1.245-5.848.555l-3.328 1.139c-.13.311.441 40.356-35.24 68.067-8.228 6.389-18.52 9.908-28.981 9.908-10.462 0-20.755-3.519-28.982-9.908-9.991-7.758-33.425-29.921-35.24-68.062l-3.328-1.145c-2.285.69-4.197.506-5.849-.556-2.495-1.605-3.976-5.011-4.338-7.675-1.805-13.267-12.361-24.221-4.186-31.714 1.917-1.756 5.524-.906 8.315-.729-2.447-11.226-5.162-28.839-3.494-43.276h-91.854c-43.912 44.279-71.044 105.224-71.044 172.511 0 76.31 34.891 144.466 89.586 189.4h366.948c13.705 0 24.854-11.149 24.854-24.854v-174.517h-124.482c-3.982 0-7.211-3.229-7.211-7.211z" fill="#167cc1"/><path d="m112.414 443.443c-11.965-7.655-5.267-18.887-3.3-21.707.336-.482.567-1.028.692-1.602l30.981-142.533c.377-1.735-.284-3.544-1.715-4.596-60.979-44.847-31.708-106.682-24.415-119.925.788-1.431.737-3.163-.105-4.562-2.26-3.756-.451-7.167.746-8.79.568-.77.845-1.716.845-2.673v-18.459c0-.933-.348-1.816-.905-2.564-1.71-2.297-1.417-4.409-.731-5.916.714-1.569.537-3.371-.526-4.728-6.007-7.672-3.58-14.374-.966-18.28.742-1.109.898-2.423.577-3.617h-42.548c-43.912 44.277-71.044 105.222-71.044 172.509 0 76.31 34.891 144.466 89.586 189.4h24.468c-.34-.791-.896-1.481-1.64-1.957z" fill="#0e62a8"/><path d="m349.695 238.818v-90.403h-28.901c-1.307 3.396-2.542 7.004-3.056 10.794-.362 2.665-1.845 6.073-4.34 7.676-1.65 1.062-3.564 1.245-5.848.556l-3.328 1.139c-.13.311.441 40.356-35.24 68.067-8.228 6.389-18.52 9.907-28.981 9.907-10.462 0-20.755-3.519-28.982-9.907-9.991-7.758-33.425-29.921-35.24-68.062l-3.328-1.144c-2.285.689-4.197.506-5.849-.556-2.495-1.605-3.976-5.011-4.338-7.675-.516-3.796-1.75-7.403-3.056-10.794-66.938 0-122.011 0-134.368 0-.646 1.321-1.278 2.65-1.901 3.984v207.202c10.403 22.26 24.043 42.703 40.333 60.709l176.728-7.123 195.731 7.887h20.802c.262 0 .529-.267.529-.529v-174.517h-100.156c-3.982 0-7.211-3.229-7.211-7.211z" fill="#3c58a0"/><path d="m139.072 273.005c-60.979-44.847-31.708-106.682-24.415-119.925.788-1.431.737-3.163-.105-4.562-.021-.034-.035-.068-.055-.102-45.695 0-80.197 0-89.658 0-.646 1.321-1.278 2.65-1.901 3.983v207.202c10.403 22.26 24.043 42.703 40.333 60.709l46.908-1.89 30.608-140.818c.377-1.736-.285-3.545-1.715-4.597z" fill="#2a428c"/><path d="m49.897 107.815c-10.075 13.245-18.837 27.541-26.082 42.704h136.175c-3.371-9.385-8.226-17.237-1.913-23.024 1.917-1.756 5.524-.906 8.315-.729-1.143-5.246-2.344-11.891-3.132-18.952-46.285.001-87.367.001-113.363.001z" fill="#2a428c"/><path d="m23.816 150.519h91.376c-.058-.695-.267-1.381-.64-2.001-2.26-3.756-.451-7.167.746-8.79.568-.77.845-1.716.845-2.673v-18.459c0-.933-.348-1.816-.905-2.564-1.71-2.297-1.417-4.409-.731-5.916.336-.739.467-1.529.409-2.3-26.046 0-48.559 0-65.018 0-10.076 13.244-18.838 27.54-26.082 42.703z" fill="#1c2e7a"/><path d="m349.695 150.519v-42.704c-16.068 0-28.684 0-32.816 0-.762 11.39-.822 17.595-.871 18.48 1.998.146 4.44-.149 5.914 1.2 6.303 5.777 1.455 13.655-1.911 23.024z" fill="#2a428c"/><ellipse cx="56.259" cy="127.901" fill="#ff4155" rx="10.83" ry="10.83" transform="matrix(.976 -.218 .218 .976 -26.567 15.369)"/><ellipse cx="86.201" cy="127.901" fill="#ffdd40" rx="10.83" ry="10.829" transform="matrix(.141 -.99 .99 .141 -52.598 195.161)"/><path d="m126.972 127.901c0 5.981-4.849 10.83-10.829 10.83-5.981 0-10.83-4.849-10.83-10.83s4.849-10.83 10.83-10.83c5.98 0 10.829 4.849 10.829 10.83z" fill="#38c674"/><path d="m240 297.606c25.428 0 47.16-16.109 55.54-38.655-.063-.014-.124-.031-.187-.045-8.56-8.561-10.731-24.791-11.121-36.146-4.468 5.204-9.157 9.556-13.637 13.036-8.729 6.779-19.5 10.46-30.594 10.46s-21.865-3.682-30.594-10.46c-4.48-3.479-9.169-7.832-13.637-13.036-.391 11.355-2.561 27.586-11.123 36.146-.063.015-.124.03-.187.045 8.379 22.546 30.111 38.655 55.54 38.655z" fill="#fcad6d"/><path d="m240 246.255c-11.094 0-21.865-3.682-30.594-10.46-4.48-3.479-9.169-7.832-13.637-13.036-.391 11.355-2.561 27.586-11.123 36.146-.063.015-.124.03-.187.045 5.234 14.082 15.677 25.652 28.976 32.355.35-.046.679-.083.98-.112 1.632-.158 3.188-.77 4.469-1.793 15.95-12.729 20.881-31.812 22.397-43.173-.426.013-.853.028-1.281.028z" fill="#fd995b"/><path d="m63.965 421.075h371.766c-1.319-8.243-3.158-16.942-5.673-25.979 0 0 11.04-102.552-66.564-108.897-5.707-.466-8.744-2.681-15.471-6.474-9.276-5.231-18.639-9.707-28.328-13.401-11.565 32.878-42.914 56.518-79.696 56.518s-68.13-23.64-79.695-56.518c-9.688 3.694-19.052 8.17-28.327 13.4-6.727 3.793-9.764 6.007-15.471 6.474-77.604 6.345-66.564 108.897-66.564 108.897-.636 2.286-1.228 4.55-1.781 6.79 4.947 6.665 10.221 13.071 15.804 19.19z" fill="#73c3f9"/><path d="m109.602 355.833c0-34.736 59.583-45.119 75.879-47.309 1.713-.23 3.278-.988 4.538-2.119-13.548-9.987-24.027-23.912-29.715-40.08-9.688 3.694-19.052 8.17-28.327 13.4-6.727 3.793-9.764 6.007-15.471 6.474-77.604 6.345-66.564 108.897-66.564 108.897-.636 2.286-1.228 4.55-1.781 6.79 4.947 6.663 10.221 13.069 15.804 19.188h45.637z" fill="#4fabf7"/><g><path d="m225.207 13.485c-44.423 6.053-48.645 31.239-48.665 40.48-.004 1.938-1.078 3.734-2.82 4.582-23.107 11.241-10.649 65.417-10.649 65.417 2.32.155 5.801 2.146 7.612 3.023.443-2.761 1.168-5.479 2.19-8.106.779-2.002 1.753-4.024 2.971-5.935 2.113-3.315 3.076-7.226 2.788-11.136-.83-11.302-1.482-32.521 13.437-39.234 12.639-5.687 28.142-2.394 38.029.894 6.421 2.135 13.376 2.135 19.797 0 9.887-3.288 25.39-6.581 38.029-.894 14.876 6.694 14.265 27.805 13.444 39.137-.286 3.94.651 7.891 2.78 11.232 1.257 1.972 2.255 4.063 3.047 6.129.984 2.567 1.684 5.219 2.116 7.913 2.283-1.106 6.599-3.363 9.391-2.968.342-11.846 1.435-24.617 1.435-24.617 13.167-64.476-47.101-92.434-94.932-85.917z" fill="#a05838"/></g><path d="m242.383 12.623c-5.804-.186-11.576.098-17.176.862-44.423 6.053-48.645 31.239-48.665 40.479-.004 1.938-1.078 3.734-2.82 4.582-23.107 11.241-10.649 65.417-10.649 65.417 2.32.155 5.801 2.146 7.612 3.024.444-2.761 1.168-5.479 2.19-8.106.779-2.002 1.753-4.024 2.971-5.935 2.113-3.315 3.076-7.226 2.789-11.136-.831-11.302-1.482-32.521 13.437-39.234 12.639-5.687 28.142-2.394 38.029.894 1.532.509 3.095.889 4.673 1.155-.41-.803-.843-1.596-1.323-2.372-17.388-28.078 1.621-44.63 8.932-49.63z" fill="#823c26"/><path d="m240 324.421c37.45 0 69.372-24.058 81.167-57.524-8.32-3.251-16.872-5.928-25.813-7.991-.368-.369-.71-.769-1.055-1.166-7.975 22.292-29.3 38.289-54.299 38.289s-46.324-15.997-54.299-38.288c-.345.396-.686.797-1.055 1.165-8.941 2.063-17.492 4.739-25.813 7.991 11.795 33.466 43.716 57.524 81.167 57.524z" fill="#4fabf7"/><path d="m185.701 257.741c-.345.396-.686.797-1.055 1.165-8.941 2.063-17.492 4.739-25.813 7.991 5.743 16.294 16.266 30.345 29.865 40.488 1.102-.662 2.06-1.565 2.789-2.663 7.187-10.831 18.225-13.07 22.928-13.527.579-.056 1.141-.189 1.692-.358-14.088-6.445-25.149-18.401-30.406-33.096z" fill="#1e9ef4"/><path d="m183.506 249.67-12.174 6.63c-2.593 1.413-3.645 4.596-2.402 7.275l42.803 92.259c5.696-6.297 13.462-10.685 22.213-12.088l-42.418-91.428c-1.406-3.033-5.084-4.248-8.022-2.648z" fill="#ff4155"/><path d="m308.668 256.3-12.174-6.63c-2.938-1.6-6.615-.386-8.023 2.648l-42.417 91.428c8.751 1.403 16.517 5.79 22.213 12.087l42.803-92.258c1.242-2.678.191-5.862-2.402-7.275z" fill="#ff4155"/><path d="m270.078 291.963-24.025 51.783c8.751 1.403 16.517 5.79 22.213 12.087l24.791-53.435c-18.376 9.91-22.978-10.434-22.979-10.435z" fill="#e80054"/><path d="m489.279 54.842h-13.222c-3.493 0-6.336-2.842-6.336-6.335v-13.223c0-15.722-11.098-20.971-18.18-22.721h-97.79c-3.982 0-7.211 3.228-7.211 7.211v222.199c0 3.982 3.228 7.211 7.211 7.211h151.038c3.982 0 7.211-3.228 7.211-7.21v-171.567c-4.24-15.211-22.507-15.564-22.721-15.565z" fill="#e9efff"/><path d="m398.658 241.973v-222.2c0-3.982 3.229-7.211 7.21-7.211h-52.117c-3.982 0-7.21 3.228-7.21 7.211v222.199c0 3.982 3.228 7.211 7.21 7.211h52.117c-3.981 0-7.21-3.228-7.21-7.21z" fill="#d3dcfb"/><path d="m504.56 48.277-28.275-28.274c-4.764-4.764-11.225-7.44-17.962-7.44h-12.549s23.071.351 23.071 22.721v13.222c0 3.982 3.228 7.211 7.21 7.211h13.222s22.721.187 22.721 21.484v-10.962c.002-6.737-2.674-13.198-7.438-17.962z" fill="#d3dcfb"/><g><path d="m386.358 107.651c-2.018 0-4.037-.77-5.577-2.31l-10.19-10.191c-3.08-3.08-3.08-8.073 0-11.153s8.074-3.081 11.153 0l4.615 4.614 10.781-10.781c3.08-3.08 8.074-3.08 11.153 0 3.08 3.08 3.08 8.074 0 11.153l-16.358 16.358c-1.54 1.54-3.558 2.31-5.577 2.31z" fill="#38c674"/></g><g><path d="m386.358 158.538c-2.018 0-4.037-.77-5.577-2.31l-10.191-10.191c-3.08-3.08-3.08-8.073 0-11.153s8.074-3.081 11.153 0l4.615 4.614 10.781-10.782c3.08-3.08 8.074-3.08 11.153 0 3.08 3.08 3.08 8.074 0 11.153l-16.358 16.358c-1.539 1.541-3.557 2.311-5.576 2.311z" fill="#38c674"/></g><g><path d="m386.358 209.425c-2.018 0-4.037-.77-5.577-2.31l-10.191-10.19c-3.08-3.08-3.08-8.073 0-11.153s8.074-3.081 11.153 0l4.615 4.614 10.781-10.782c3.08-3.08 8.074-3.08 11.153 0 3.08 3.08 3.08 8.074 0 11.153l-16.358 16.358c-1.539 1.54-3.557 2.31-5.576 2.31z" fill="#38c674"/></g><g><g><path d="m481.388 91.059h-52.118c-4.356 0-7.887-3.531-7.887-7.887s3.531-7.887 7.887-7.887h52.117c4.356 0 7.887 3.531 7.887 7.887.001 4.356-3.531 7.887-7.886 7.887z" fill="#bec8f7"/></g></g><g><g><path d="m481.388 141.727h-52.118c-4.356 0-7.887-3.531-7.887-7.887s3.531-7.887 7.887-7.887h52.117c4.356 0 7.887 3.531 7.887 7.887.001 4.356-3.531 7.887-7.886 7.887z" fill="#bec8f7"/></g></g><g><g><path d="m481.388 192.394h-52.118c-4.356 0-7.887-3.531-7.887-7.887s3.531-7.887 7.887-7.887h52.117c4.356 0 7.887 3.531 7.887 7.887.001 4.356-3.531 7.887-7.886 7.887z" fill="#bec8f7"/></g></g><g><g><path d="m457.063 115.341h-27.793c-4.356 0-7.887-3.531-7.887-7.887s3.531-7.887 7.887-7.887h27.792c4.356 0 7.887 3.531 7.887 7.887s-3.531 7.887-7.886 7.887z" fill="#bec8f7"/></g></g><g><g><path d="m457.063 166.009h-27.793c-4.356 0-7.887-3.531-7.887-7.887s3.531-7.887 7.887-7.887h27.792c4.356 0 7.887 3.531 7.887 7.887s-3.531 7.887-7.886 7.887z" fill="#bec8f7"/></g></g><g><path d="m457.063 216.676h-27.793c-4.356 0-7.887-3.531-7.887-7.887s3.531-7.887 7.887-7.887h27.792c4.356 0 7.887 3.531 7.887 7.887s-3.531 7.887-7.886 7.887z" fill="#bec8f7"/></g><path d="m322.647 125.557c-3.46-3.171-10.352-1.564-13.332.378.653 4.065.69 8.224.126 12.331l-3.517 25.611c0 2.065-.065 4.09-.185 6.08 8.575 2.586 12.834-5.112 13.552-10.395.309-2.274.814-4.515 1.514-6.703 2.282-7.122 10.51-19.358 1.842-27.302z" fill="#fcad6d"/><path d="m315.128 149.096c-2.52 0-4.878-.674-6.921-1.838l-2.282 16.62c0 2.065-.065 4.09-.185 6.08 8.575 2.586 12.835-5.112 13.552-10.395.309-2.274.814-4.515 1.515-6.703.599-1.87 1.607-4.095 2.613-6.5-2.325 1.712-5.185 2.736-8.292 2.736z" fill="#fd995b"/><path d="m157.354 125.557c3.46-3.171 10.352-1.564 13.332.378-.653 4.065-.69 8.224-.126 12.331l3.517 25.611c0 2.065.065 4.09.185 6.08-8.575 2.586-12.834-5.112-13.552-10.395-.309-2.274-.814-4.515-1.514-6.703-2.283-7.122-10.511-19.358-1.842-27.302z" fill="#fcad6d"/><path d="m171.795 147.268c-2.039 1.158-4.391 1.827-6.903 1.827-3.12 0-5.992-1.032-8.32-2.757 1.008 2.413 2.021 4.645 2.622 6.521.7 2.187 1.205 4.429 1.514 6.703.717 5.283 4.977 12.981 13.551 10.395-.12-1.99-.185-4.016-.185-6.08z" fill="#fd995b"/><path d="m308.25 118.022c-.792-2.065-1.789-4.156-3.046-6.128-2.129-3.341-3.066-7.292-2.78-11.232.821-11.332.381-33.495-14.496-40.189-12.638-5.687-28.141-2.394-38.028.893-6.421 2.135-13.379 2.135-19.8 0-9.887-3.288-25.389-6.58-38.027-.893-14.919 6.713-15.319 28.983-14.488 40.286.287 3.91-.675 7.821-2.788 11.136-1.218 1.911-2.192 3.933-2.971 5.935-2.528 6.493-3.265 13.536-2.318 20.431l3.517 25.617c0 36.828 19.659 61.86 36.382 74.846 8.729 6.778 19.5 10.46 30.594 10.46s21.866-3.682 30.594-10.46c16.723-12.986 36.382-38.018 36.382-74.846l3.517-25.611c.936-6.829.225-13.802-2.244-20.245z" fill="#f9ba8f"/><g><path d="m253.906 238.723c-16.722-12.986-36.382-38.018-36.382-74.846l-3.517-25.617c-.947-6.896-.21-13.938 2.318-20.431.779-2.002 1.753-4.024 2.971-5.935 2.113-3.315 3.076-7.226 2.788-11.136-.768-10.45-.474-30.269 11.368-38.505-1.128-.241-2.25-.521-3.352-.887-9.887-3.288-25.389-6.58-38.028-.893-14.918 6.713-15.319 28.983-14.488 40.285.287 3.91-.675 7.821-2.788 11.136-1.218 1.911-2.192 3.933-2.971 5.935-2.528 6.493-3.264 13.536-2.318 20.431l3.517 25.617c0 36.828 19.659 61.86 36.382 74.846 8.729 6.778 19.5 10.46 30.594 10.46 7.773 0 15.385-1.814 22.25-5.228-2.933-1.458-5.731-3.203-8.344-5.232z" fill="#fcad6d"/></g><path d="m504.454 444.606h-155.697v8.724c0 6.123-4.981 11.105-11.105 11.105h-195.304c-6.124 0-11.105-4.982-11.105-11.105v-8.724h-42.617c22.289 18.501 47.912 33.116 75.832 42.832h291.132c3.877 0 7.744-.511 11.46-1.616.02-.006.04-.012.06-.018l25.465-7.591c11.522-3.435 19.421-14.028 19.425-26.051.002-4.17-3.377-7.556-7.546-7.556z" fill="#e9efff"/><path d="m88.626 444.606c22.289 18.501 47.912 33.116 75.832 42.832h64.34c-12.052-12.052 0-21.416 0-21.416l-.764-1.587h-85.686c-6.124 0-11.105-4.982-11.105-11.105v-8.724z" fill="#d3dcfb"/><path d="m129.656 444.606v8.725c0 6.98 5.711 12.691 12.691 12.691h195.304c6.98 0 12.691-5.711 12.691-12.691v-8.725z" fill="#d3dcfb"/><path d="m216.107 453.331v-8.725h-86.451v8.725c0 6.98 5.711 12.691 12.691 12.691h86.451c-6.98 0-12.691-5.712-12.691-12.691z" fill="#bec8f7"/><path d="m458.324 12.563h-12.549s23.07.351 23.07 22.722v13.222c0 3.982 3.229 7.211 7.21 7.211h5.332c-7.214-18.355 8.616-21.996 8.616-21.996l-13.719-13.719c-4.762-4.764-11.223-7.44-17.96-7.44z" fill="#bec8f7"/><path d="m233.366 342.495-23.444-50.533c0 .002-.955 17.699-20.638 15.482l22.45 48.389c5.356-5.921 12.541-10.152 20.654-11.803z" fill="#e80054"/><ellipse cx="240" cy="373.492" fill="#ffb332" rx="39.696" ry="39.696" transform="matrix(.988 -.153 .153 .988 -54.449 41.233)"/><path d="m253.733 400.288c-5.252-1.97-5.138-7.406-4.971-9.079.035-.346.013-.695-.076-1.03l-6.601-24.914c-.092-.347-.249-.673-.463-.961l-8.713-11.744c-.354-.477-.854-.83-1.421-1.007-2.795-.869-3.322-2.958-3.27-4.564.04-1.228-.79-2.295-1.936-2.738-3.062-1.181-4.663-3.272-5.447-5.523-12.24 6.762-20.532 19.793-20.532 34.766 0 21.923 17.773 39.696 39.696 39.696 5.931 0 11.553-1.31 16.607-3.642-1.301-2.104-1.339-4.533-1.103-6.287.173-1.274-.568-2.522-1.77-2.973z" fill="#ff9100"/><g><path d="m240 421.075c-26.238 0-47.583-21.345-47.583-47.583 0-26.237 21.345-47.583 47.583-47.583s47.583 21.345 47.583 47.583-21.345 47.583-47.583 47.583zm0-79.392c-17.54 0-31.809 14.27-31.809 31.809 0 17.54 14.27 31.81 31.809 31.81s31.809-14.27 31.809-31.81c.001-17.539-14.269-31.809-31.809-31.809z" fill="#ffdd40"/></g><path d="m261.449 413.11c-5.992-1.984-6.345-6.884-5.945-9.85.086-.636-.057-1.267-.371-1.794-4.503 2.446-9.659 3.837-15.133 3.837-17.54 0-31.809-14.27-31.809-31.81 0-12.849 7.663-23.936 18.655-28.95-.178-.113-.363-.215-.563-.292-6.025-2.324-6.411-8.165-5.988-11.838.085-.737-.127-1.426-.52-1.978-16.151 7.617-27.358 24.05-27.358 43.058 0 26.237 21.345 47.583 47.583 47.583 8.454 0 16.393-2.226 23.281-6.107-.261-.834-.902-1.551-1.832-1.859z" fill="#ffb332"/><g><path d="m241.975 394.702c-4.356 0-7.887-3.531-7.887-7.887v-19.454h-.141c-4.355 0-7.887-3.531-7.887-7.887s3.531-7.887 7.887-7.887h8.028c4.356 0 7.887 3.531 7.887 7.887v27.34c-.001 4.357-3.531 7.888-7.887 7.888z" fill="#ffdd40"/></g></g></svg>