<svg id="Capa_1" enable-background="new 0 0 512 512" height="512" viewBox="0 0 512 512" width="512" xmlns="http://www.w3.org/2000/svg"><circle cx="256" cy="256" fill="#ffe400" r="256"/><path d="m512 256c0 87.11-43.52 164.07-110 210.31-41.41 28.8-91.73 45.69-146 45.69s-104.59-16.89-146-45.69c-66.48-46.24-110-123.2-110-210.31 0-46.22 12.25-89.57 33.68-127 44.12 77.07 127.16 129 222.32 129s178.21-51.93 222.32-129c21.43 37.43 33.68 80.78 33.68 127z" fill="#ffce00"/><path d="m238.993 404.655h35.963v74.789h-35.963z" fill="#4e689b"/><path d="m256.975 404.655h17.981v74.789h-17.981z" fill="#374c81"/><path d="m454.626 236.245c4.089-49.356-9.218-98.772-37.458-139.146-8.141-11.625-20.91-19.011-35.045-20.251-14.111-1.24-27.944 3.799-37.961 13.815l-229.065 229.064c-10.016 10.016-15.055 23.849-13.815 37.961.992 11.311 5.916 21.751 13.809 29.644 1.966 1.966 4.125 3.774 6.442 5.401 40.374 28.241 89.79 41.547 139.146 37.458 49.949-4.137 97.007-25.96 132.493-61.447 35.494-35.492 57.317-82.55 61.454-132.499zm-311.3 125.344c-3.284-2.305-4.028-5.516-4.174-7.222-.151-1.7.018-4.966 2.819-7.766l229.064-229.064c2.8-2.8 6.067-2.97 7.766-2.819 1.44.121 3.938.671 6.061 2.794.405.405.798.859 1.161 1.379 23.166 33.122 34.077 73.683 30.72 114.214-3.393 41.003-21.315 79.623-50.451 108.759s-67.75 47.052-108.753 50.445c-40.53 3.358-81.097-7.548-114.213-30.72z" fill="#374c81"/><path d="m401.592 107.992c-10.283-14.686-31.319-16.573-43.997-3.895l-229.064 229.064c-12.678 12.678-10.797 33.721 3.895 43.997 75.389 52.743 179.998 45.455 247.307-21.853 67.314-67.314 74.603-171.924 21.859-247.313zm-144.052 284.318c-40.531 3.357-81.099-7.549-114.214-30.72-3.284-2.305-4.028-5.516-4.174-7.222-.151-1.7.018-4.966 2.819-7.766l229.064-229.064c2.8-2.8 6.067-2.97 7.766-2.819 1.44.121 3.938.671 6.061 2.794.405.405.798.859 1.161 1.379 23.166 33.122 34.077 73.683 30.72 114.214-3.393 41.003-21.315 79.623-50.451 108.759-29.135 29.136-67.749 47.051-108.752 50.445z" fill="#4e689b"/><path d="m398.722 238.891c-.522 4.02-1.206 8.049-2.053 12.087-5.971 28.331-19.229 53.248-37.389 73.213-29.28 32.18-71.34 51.495-116.222 51.443-10.658-.009-21.487-1.112-32.342-3.396-.359-.077-.719-.154-1.069-.24-28.656-6.236-53.796-19.948-73.786-38.664-21.393-20.025-36.876-45.789-44.489-74.214-6.176-23.061-7.168-47.885-1.916-72.837 1.12-5.295 2.481-10.47 4.097-15.525.026-.077.051-.145.077-.231 20.949-65.326 82.007-108.968 149.428-108.9 6.972.009 14.02.479 21.094 1.446 3.738.513 7.493 1.163 11.257 1.95 38.168 8.041 70.159 29.314 92.168 58.021 17.211 22.445 28.322 49.425 31.53 78.183l-.009.009c1.377 12.31 1.309 24.927-.376 37.655z" fill="#22d7ff"/><path d="m399.098 201.237.009-.009c-3.208-28.758-14.319-55.737-31.53-78.183-22.009-28.707-54.001-49.981-92.168-58.021-3.764-.787-7.519-1.437-11.257-1.95-7.074-.967-14.123-1.437-21.094-1.446v314.006c44.882.051 86.942-19.263 116.222-51.443 18.16-19.965 31.419-44.882 37.389-73.213.847-4.037 1.531-8.066 2.053-12.087 1.685-12.728 1.753-25.345.376-37.654z" fill="#00b3fe"/><path d="m367.58 123.04v.01c-.29.15-.59.3-.88.43-11.77 5.68-27.06 1.27-37.85 8.64-12.46 8.52-13.8 29.47-28.1 34.33-13.03 4.44-28.07-8.28-40.4-2.15-10.33 5.15-10.9 20.2-6.02 30.66 4.87 10.48 13.47 19.02 17.37 29.89 3.9 10.88.16 26.17-11.19 28.32-6.74 1.27-13.49-2.83-17.45-8.51-.3-.43-.59-.87-.86-1.32-5.02-8.42-3.67-18.1-9.41-25.67-5.85-7.73-18.42-13.71-27.98-13.47-8.07.18-15.48 4.14-22.84 7.44-10.03 4.5-22.41 7.76-30.87-1.11-7.46-7.84-8.94-20.26-18.55-27.15-8.24-6-25.75-10.33-35.99-12.42-.97-.19-1.95-.34-2.93-.43 20.95-65.33 82.01-108.97 149.43-108.9 6.97.01 14.02.48 21.09 1.44 3.74.52 7.49 1.17 11.26 1.95 38.07 8.02 69.99 29.21 91.99 57.79.06.08.12.15.18.23z" fill="#6cdc2d"/><path d="m359.28 324.19c-29.28 32.18-71.34 51.5-116.22 51.44-10.66-.01-21.49-1.11-32.34-3.39-.36-.08-.72-.16-1.07-.24 1.8-16.31 7.97-26.42 22.28-34.59 3.72-2.12 7.59-4.25 11.13-6.74 4.25-2.96 8.01-6.43 10.43-10.98 3.11-5.82 3.55-12.62 4.37-19.17.83-6.53 2.27-13.41 6.8-18.21 4.53-4.79 13.07-6.32 17.59-1.52 3.79 4.02 3.59 10.86 7.82 14.43 4.6 3.87 11.46 1.75 17.44 1.02 10.38-1.28 21.11 3.03 28.25 10.57 3.08 3.23 4.69 7.24 8.37 9.69 4.61 3.06 10.46 4.21 15.15 7.69z" fill="#6cdc2d"/><path d="m363.457 226.356c4.803 7.695 9.605 15.391 14.408 23.086 2.94 4.71 6.002 10.047 4.864 15.481-1.15 5.487-6.463 9.322-11.951 10.471-5.487 1.149-11.17.148-16.687-.853-9.902-1.798-69.003-20.047-41.55-33.233 9.919-4.764 21.279 4.085 30.985-1.384 7.833-4.411 9.58-30.152 19.931-13.568z" fill="#57b718"/><path d="m170.014 303.475c-1.067 1.251-2.287 2.385-3.496 3.506-7.087 6.57-11.986 15.282-19.645 21.219-3.306 2.565-7.052 4.236-11.009 5.139-21.396-20.031-36.884-45.788-44.496-74.216 2.997-2.64 6.243-4.922 9.932-6.453 7.46-3.092 17.249-2.165 22.071 4.324 4.348 5.846 3.546 14.317 7.68 20.318 3.937 5.712 11.326 7.802 18.198 8.724 5.756.773 20.891.759 23.466 7.514.935 2.454.323 5.283-.997 7.553-.491.846-1.071 1.629-1.704 2.372z" fill="#6cdc2d"/><path d="m375.33 482.54c-35.36 18.67-75.63 29.3-118.36 29.45-.32.01-.65.01-.97.01-43.09 0-83.7-10.65-119.33-29.46 9.48-13.75 25.34-22.76 43.3-22.76h152.06c17.96 0 33.82 9.01 43.3 22.76z" fill="#c55732"/><path d="m375.33 482.54c-35.36 18.67-75.63 29.3-118.36 29.45v-52.21h75.06c17.96 0 33.82 9.01 43.3 22.76z" fill="#a63917"/><path d="m344.13 316.5c-3.68-2.45-5.29-6.46-8.36-9.69-7.15-7.54-17.87-11.85-28.26-10.57-5.98.73-12.84 2.85-17.44-1.02-4.23-3.57-4.03-10.41-7.82-14.43-4.52-4.8-13.06-3.27-17.59 1.52-4.53 4.8-5.97 11.68-6.79 18.21-.83 6.55-1.27 13.36-4.38 19.17-2.42 4.55-6.18 8.03-10.43 10.99v44.95c44.88.05 86.94-19.26 116.22-51.44-4.69-3.48-10.54-4.63-15.15-7.69zm23.19-193.8c-22-28.53-53.89-49.67-91.91-57.68-3.77-.78-7.52-1.43-11.26-1.95-7.07-.96-14.12-1.43-21.09-1.44v183.04c3.96 5.67 10.71 9.77 17.45 8.5 11.35-2.15 15.09-17.44 11.19-28.31-3.91-10.88-12.5-19.42-17.37-29.9-4.88-10.46-4.31-25.51 6.02-30.66 12.33-6.13 27.37 6.59 40.39 2.15 14.31-4.86 15.65-25.81 28.11-34.33 10.79-7.37 26.07-2.96 37.85-8.64.29-.13.59-.28.88-.43v-.01c-.09-.11-.18-.23-.26-.34z" fill="#57b718"/></svg>