<svg id="Capa_1" enable-background="new 0 0 512 512" height="512" viewBox="0 0 512 512" width="512" xmlns="http://www.w3.org/2000/svg"><g><g><g><g><g><g><g><circle cx="256" cy="256" fill="#7584f2" r="256"/></g></g></g></g></g></g><path d="m512 256c0-19.187-2.111-37.881-6.113-55.863l-53.887-53.887-179.668 50.54 59.078 59.078-21.701 19.727-85.537-85.538-140.229 134.338 187.871 187.124c134.019-8.167 240.186-119.445 240.186-255.519z" fill="#4253ce"/><g><g><path d="m76.588 316.09c-13.037-16.532-20.817-37.402-20.817-60.09 0-53.635 43.48-97.115 97.115-97.115s97.114 43.48 97.114 97.115c0 22.693-7.784 43.568-20.827 60.102z" fill="#fff"/></g><g><path d="m250 256c0-53.56-43.359-96.991-96.892-97.112v157.207l76.065.006c13.043-16.533 20.827-37.408 20.827-60.101z" fill="#e9edf5"/></g><g><g><path d="m204.348 333.462h-102.925v-113.13c0-28.422 23.04-51.462 51.462-51.462 28.422 0 51.462 23.04 51.462 51.462v113.13z" fill="#ffce00"/></g><g><path d="m204.348 220.333c0-28.347-22.921-51.336-51.239-51.457v164.586h51.239z" fill="#fdba12"/></g><g><g><path d="m169.909 270.904v-24.262h-34.047v24.262c0 4.05-1.573 7.838-4.236 10.671l21.259 42.82 21.259-42.82c-2.662-2.833-4.235-6.621-4.235-10.671z" fill="#e09380"/></g><g><path d="m169.909 270.904v-24.261h-17.023v77.303l21.259-42.371c-2.663-2.833-4.236-6.621-4.236-10.671z" fill="#d47f6c"/></g><g><path d="m210.723 297.908-31.07-12.556c-2.134-.862-3.996-2.167-5.509-3.777l-21.259 19.317-21.259-19.317c-1.513 1.61-3.375 2.915-5.508 3.777l-31.07 12.556c-8.379 3.386-14.991 9.967-18.45 18.194 17.784 22.543 45.346 37.014 76.288 37.014s58.504-14.471 76.288-37.014c-3.46-8.227-10.072-14.808-18.451-18.194z" fill="#a3d4ff"/></g><g><path d="m229.173 316.101c-3.459-8.226-10.071-14.807-18.45-18.194l-31.07-12.556c-2.134-.862-3.996-2.167-5.509-3.777l-21.259 19.317.223 52.219c30.851-.068 58.324-14.521 76.065-37.009z" fill="#65b1fc"/></g><g><path d="m152.885 300.892-11.889 14.569-20.666-27.77 11.296-6.116z" fill="#dbeeff"/></g><g><path d="m152.885 300.892 11.89 14.569 20.666-27.77-11.296-6.116z" fill="#a3d4ff"/></g></g><g><path d="m164.783 202.298-50.759 25.622v8.499c0 21.462 17.399 38.861 38.861 38.861 21.462 0 38.861-17.399 38.861-38.861v-12.713z" fill="#faa68e"/></g><g><path d="m164.783 202.298-11.675 5.893-.223 67.089.223-.005c21.359-.121 38.638-17.468 38.638-38.855v-12.713z" fill="#e09380"/></g></g></g><g><g><g><path d="m311.065 146.251h140.935v50.54h-140.935z" fill="#ffce00"/></g><g><path d="m272.332 146.251h65.713v50.54h-65.713z" fill="#ff6c52"/></g></g><g><g><path d="m311.065 315.21h140.935v50.54h-140.935z" fill="#ffce00"/></g><g><path d="m272.332 315.21h109.201v50.54h-109.201z" fill="#ff6c52"/></g></g></g><g><path d="m311.065 230.73h140.935v50.54h-140.935z" fill="#ffce00"/></g><g><path d="m272.332 230.73h131.426v50.54h-131.426z" fill="#ff6c52"/></g></g></svg>