<svg height="512" viewBox="0 0 512 512" width="512" xmlns="http://www.w3.org/2000/svg"><g id="BULINE"><circle cx="256" cy="256" fill="#f58d89" r="256"/></g><g id="Icons"><rect fill="#3e436d" height="300.27" rx="21.16" width="417.16" x="46.72" y="102.67"/><rect fill="#32314b" height="289.09" rx="19.68" width="374.9" x="67.85" y="102.67"/><path d="m425.47 83.77h-340.33a9.63 9.63 0 0 0 -9.63 9.63v262a9.63 9.63 0 0 0 9.63 9.6h340.33a9.62 9.62 0 0 0 9.62-9.62v-261.98a9.63 9.63 0 0 0 -9.62-9.63z" fill="#fff"/><path d="m256.48 402.94h-2.36a16.55 16.55 0 0 1 -16.4-14.26l-3.32-23.68h41.8l-3.31 23.71a16.57 16.57 0 0 1 -16.41 14.23z" fill="#27273d"/><path d="m164.29 365v58.43a5.58 5.58 0 0 1 -7.93 5.06l-12.77-6a12.2 12.2 0 0 0 -10.3 0l-12.78 6a5.58 5.58 0 0 1 -7.93-5.06v-58.43z" fill="#db1b1b"/><path d="m112.58 364.98h51.72v18.98h-51.72z" fill="#bc1d1d"/><path d="m249 83.77h12.6v281.2h-12.6z" fill="#e2e0e0"/><rect fill="#934cf5" height="196.97" rx="10.36" width="147.73" x="271.65" y="107.11"/><rect fill="#4f4f74" height="196.97" rx="10.36" width="147.73" x="89.99" y="107.11"/><path d="m361.23 188.79v-56.79h1.64a5.65 5.65 0 0 0 5.65-5.65v-6.55a5.65 5.65 0 0 0 -5.65-5.66h-34.7a5.65 5.65 0 0 0 -5.66 5.66v6.55a5.65 5.65 0 0 0 5.66 5.65h1.63v56.8a55.28 55.28 0 1 0 31.43 0z" fill="#c5eaff"/><path d="m341 188.79v-36.79a12.88 12.88 0 0 1 12.88-12.88h7.32v-7.12h-21.81a5.66 5.66 0 0 1 -5.66-5.66v-6.54a5.66 5.66 0 0 1 5.66-5.66h-11.22a5.66 5.66 0 0 0 -5.66 5.66v6.55a5.65 5.65 0 0 0 5.66 5.65h1.63v56.8a55.28 55.28 0 0 0 21.33 108 55.28 55.28 0 0 1 -10.1-108z" fill="#a4e1fc"/><path d="m389.34 242a4.15 4.15 0 0 1 3.44 4.4 47.42 47.42 0 0 1 -94.61-1.14 4.11 4.11 0 0 1 2.31-3.9c5.37-2.66 19.18-8.37 34.47-5.75a70.92 70.92 0 0 0 26.2 3.28 55.55 55.55 0 0 1 13.69.61z" fill="#db1b1b"/><circle cx="370.02" cy="250.21" fill="#e55151" r="6.17"/><circle cx="344.23" cy="259.19" fill="#e55151" r="6.17"/><circle cx="322.07" cy="242.66" fill="#e55151" r="3.67"/><circle cx="324.01" cy="272.93" fill="#e55151" r="3.67"/><circle cx="361.23" cy="277.98" fill="#e55151" r="3.67"/><ellipse cx="372.16" cy="204.97" fill="#fff" rx="4.59" ry="7.45" transform="matrix(.716 -.698 .698 .716 -37.35 318.2)"/><ellipse cx="383.43" cy="216.52" fill="#fff" rx="3.71" ry="6.04" transform="matrix(.716 -.698 .698 .716 -42.21 329.35)"/><g fill="#db1b1b"><path d="m148.42 176.33h16.54v4.93h-16.54z"/><path d="m144.07 189.67h42.31v4.93h-42.31z"/><path d="m140.01 203.01h49.89v4.93h-49.89z"/><path d="m144.07 216.35h42.31v4.93h-42.31z"/><path d="m148.42 229.69h16.54v4.93h-16.54z"/></g><path d="m164.96 176.33h15.44v4.93h-15.44z" fill="#3586cb"/><path d="m164.96 189.67h21.43v4.93h-21.43z" fill="#3586cb"/><path d="m164.96 216.35h21.43v4.93h-21.43z" fill="#3586cb"/><path d="m164.96 229.69h15.44v4.93h-15.44z" fill="#3586cb"/><path d="m164.96 203.01h24.94v4.93h-24.94z" fill="#3586cb"/><path d="m140.01 121.29h49.89v4.93h-49.89z" fill="#db1b1b"/><path d="m143.53 134.63h42.31v4.93h-42.31z" fill="#db1b1b"/><path d="m164.96 147.97v4.94h13.43l3.11-4.94z" fill="#db1b1b"/><path d="m143.53 134.63h21.43v4.93h-21.43z" fill="#3586cb"/><path d="m164.96 147.97h-15.44l2.97 4.94h12.47z" fill="#3586cb"/><path d="m140.01 121.29h24.94v4.93h-24.94z" fill="#3586cb"/><path d="m140.01 285.06h49.89v4.93h-49.89z" fill="#db1b1b"/><path d="m143.53 271.72h42.31v4.93h-42.31z" fill="#db1b1b"/><path d="m164.96 263.31v-4.93h13.98l2.56 4.93z" fill="#db1b1b"/><path d="m143.53 271.72h21.43v4.93h-21.43z" fill="#3586cb"/><path d="m164.96 263.31h-15.44l2.97-4.93h12.47z" fill="#3586cb"/><path d="m140.01 285.06h24.94v4.93h-24.94z" fill="#3586cb"/><path d="m167.33 160.67c-.06 0-.84-.66-2.1-1.76 5.72-5 21.16-20.26 21.16-37.71h6.88c0 19.65-15.73 35.94-22.71 42.2-1.8-1.61-3.02-2.56-3.23-2.73z" fill="#db1b1b"/><path d="m186.39 205.6c0-17.5-15.44-32.69-21.16-37.72-5.72 5-21.16 20.22-21.16 37.72s15.44 32.66 21.16 37.7c5.77-5.04 21.16-20.3 21.16-37.7z" fill="none"/><path d="m159.9 247.8c-7 6.25-22.7 22.54-22.7 42.19h6.87c0-17.44 15.44-32.67 21.16-37.7-1.26-1.12-2-1.74-2.09-1.77-.22-.16-1.44-1.11-3.24-2.72z" fill="#3586cb"/><path d="m170.56 247.8c-1.8-1.62-3-2.57-3.23-2.73 0 0-.83-.65-2.1-1.77-5.72-5-21.16-20.26-21.16-37.7s15.44-32.69 21.16-37.72c-1.26-1.11-2-1.72-2.09-1.75-.22-.17-1.44-1.12-3.24-2.73-7 6.26-22.7 22.55-22.7 42.2s15.72 35.94 22.7 42.2c1.8 1.61 3 2.56 3.24 2.72 0 0 .83.65 2.09 1.77 5.72 5 21.16 20.26 21.16 37.7h6.88c0-19.65-15.73-35.94-22.71-42.19z" fill="#ba1717"/><path d="m171.44 258.38c1.36 1.48 2.78 3.13 4.18 4.93h-2.8c-1.4-1.8-2.82-3.45-4.18-4.93z" fill="#a01717"/><path d="m183.57 276.65h-2.8a49.69 49.69 0 0 0 -2.37-4.93h2.8a49.69 49.69 0 0 1 2.37 4.93z" fill="#a01717"/><path d="m186.39 290h-2.8a31.13 31.13 0 0 0 -.4-4.93h2.81a31.13 31.13 0 0 1 .39 4.93z" fill="#a01717"/><path d="m159 258.38c-1.35 1.48-2.78 3.13-4.18 4.93h2.8c1.4-1.8 2.83-3.45 4.18-4.93z" fill="#2e75a0"/><path d="m146.89 276.65h2.8a49.69 49.69 0 0 1 2.37-4.93h-2.8a49.69 49.69 0 0 0 -2.37 4.93z" fill="#2e75a0"/><path d="m144.07 290h2.8a31.14 31.14 0 0 1 .41-4.93h-2.8a31.14 31.14 0 0 0 -.41 4.93z" fill="#2e75a0"/><path d="m171.44 152.91c1.36-1.48 2.78-3.13 4.18-4.94h-2.8c-1.4 1.81-2.82 3.46-4.18 4.94z" fill="#a01717"/><path d="m183.57 134.63h-2.8a49.86 49.86 0 0 1 -2.37 4.94h2.8a49.86 49.86 0 0 0 2.37-4.94z" fill="#a01717"/><path d="m186.39 121.29h-2.8a31.16 31.16 0 0 1 -.4 4.94h2.81a31.16 31.16 0 0 0 .39-4.94z" fill="#a01717"/><path d="m159 152.91c-1.35-1.48-2.78-3.13-4.18-4.94h2.8c1.4 1.81 2.83 3.46 4.18 4.94z" fill="#2e75a0"/><path d="m146.89 134.63h2.8a49.86 49.86 0 0 0 2.37 4.94h-2.8a49.86 49.86 0 0 1 -2.37-4.94z" fill="#2e75a0"/><path d="m144.07 121.29h2.8a31.16 31.16 0 0 0 .41 4.94h-2.8a31.16 31.16 0 0 1 -.41-4.94z" fill="#2e75a0"/><path d="m170.56 163.4c-1.8-1.61-3-2.56-3.23-2.73s-.84-.66-2.1-1.76c-5.71-5-21.16-20.26-21.16-37.71h-6.87c0 19.65 15.72 35.94 22.7 42.2 1.8 1.61 3 2.56 3.24 2.73 0 0 .83.64 2.09 1.75 5.72 5 21.16 20.22 21.16 37.72s-15.39 32.66-21.16 37.7c1.27 1.12 2.06 1.73 2.1 1.77.21.16 1.43 1.11 3.23 2.73 7-6.26 22.71-22.55 22.71-42.2s-15.73-35.94-22.71-42.2z" fill="#41c0e3"/><path d="m177.51 181.26h-3.37c-1.26-1.77-2.57-3.42-3.85-4.93h3.36c1.29 1.51 2.6 3.16 3.86 4.93z" fill="#2e75a0"/><path d="m184.58 194.6h-3.36a44.42 44.42 0 0 0 -2-4.93h3.36a44.42 44.42 0 0 1 2 4.93z" fill="#2e75a0"/><path d="m184.66 216.35a44.25 44.25 0 0 1 -2 4.93h-3.37a40.73 40.73 0 0 0 2-4.93z" fill="#2e75a0"/><path d="m174.3 229.69h3.37c-1.25 1.76-2.55 3.42-3.83 4.93h-3.36c1.27-1.51 2.57-3.17 3.82-4.93z" fill="#2e75a0"/><path d="m186.4 203c.07.85.11 1.72.11 2.59s0 1.57-.09 2.34h-3.37c.06-.77.1-1.56.1-2.34s0-1.74-.12-2.59z" fill="#2e75a0"/><path d="m153 181.26h3.37c1.26-1.77 2.57-3.42 3.86-4.93h-3.37c-1.34 1.51-2.65 3.16-3.86 4.93z" fill="#a01717"/><path d="m145.88 194.6h3.37a42.59 42.59 0 0 1 2-4.93h-3.37a44.42 44.42 0 0 0 -2 4.93z" fill="#a01717"/><path d="m145.8 216.35a44.25 44.25 0 0 0 2 4.93h3.37a44.25 44.25 0 0 1 -2-4.93z" fill="#a01717"/><path d="m156.16 229.69h-3.36c1.25 1.76 2.54 3.42 3.82 4.93h3.38c-1.29-1.51-2.59-3.17-3.84-4.93z" fill="#a01717"/><path d="m144.06 203c-.07.85-.11 1.72-.11 2.59s0 1.57.09 2.34h3.37c-.06-.77-.09-1.56-.09-2.34s0-1.74.11-2.59z" fill="#a01717"/><circle cx="198.12" cy="162.74" fill="#41c0e3" r="4.86"/><circle cx="198.12" cy="143.37" fill="#41c0e3" r="4.86"/><circle cx="215.3" cy="186.42" fill="#41c0e3" r="4.86"/><circle cx="198.12" cy="226.7" fill="#41c0e3" r="4.86"/><circle cx="212.1" cy="259.11" fill="#41c0e3" r="4.86"/><circle cx="185.84" cy="247.8" fill="#ba1717" r="4.86"/><circle cx="181.38" cy="163.4" fill="#db1b1b" r="3.2"/><circle cx="212.1" cy="132.77" fill="#db1b1b" r="3.2"/><circle cx="204.7" cy="207.94" fill="#db1b1b" r="3.2"/><circle cx="212.1" cy="240.47" fill="#3586cb" r="3.2"/><circle cx="198.12" cy="276.65" fill="#db1b1b" r="3.2"/><circle cx="198.12" cy="184.5" fill="#ba1717" r="3.2"/><circle cx="129.59" cy="162.74" fill="#41c0e3" r="4.86"/><circle cx="129.59" cy="143.37" fill="#41c0e3" r="4.86"/><circle cx="112.41" cy="186.42" fill="#41c0e3" r="4.86"/><circle cx="129.59" cy="226.7" fill="#41c0e3" r="4.86"/><circle cx="115.61" cy="259.11" fill="#41c0e3" r="4.86"/><circle cx="141.87" cy="247.8" fill="#ba1717" r="4.86"/><circle cx="146.33" cy="163.4" fill="#db1b1b" r="3.2"/><circle cx="115.61" cy="132.77" fill="#db1b1b" r="3.2"/><circle cx="123.01" cy="207.94" fill="#db1b1b" r="3.2"/><circle cx="115.61" cy="240.47" fill="#3586cb" r="3.2"/><circle cx="129.59" cy="276.65" fill="#db1b1b" r="3.2"/><circle cx="129.59" cy="184.5" fill="#ba1717" r="3.2"/><rect fill="#e88032" height="14.62" rx="7.31" width="138.47" x="94.62" y="314.98"/><rect fill="#e88032" height="14.62" rx="7.31" width="138.47" x="94.62" y="339.43"/><rect fill="#e88032" height="14.62" rx="7.31" width="138.47" x="274.99" y="314.98"/><rect fill="#e88032" height="14.62" rx="7.31" width="138.47" x="274.99" y="339.43"/></g></svg>