<svg id="Capa_1" enable-background="new 0 0 512 512" height="512" viewBox="0 0 512 512" width="512" xmlns="http://www.w3.org/2000/svg"><g><g><path d="m0 256c0 43.79 11 85.02 30.39 121.07l225.61 49.67 225.61-49.67c19.39-36.05 30.39-77.28 30.39-121.07 0-46.63-12.47-90.34-34.26-128-41.698 72.091-399.22 76.52-443.48 0-21.79 37.66-34.26 81.37-34.26 128z" fill="#9865d8"/><path d="m34.26 128c44.26 76.52 126.99 128 221.74 128s177.48-51.48 221.74-128c-.01-.02-.03-.05-.04-.07-44.27-76.48-126.98-127.93-221.7-127.93s-177.43 51.45-221.7 127.93c-.01.02-.03.05-.04.07z" fill="#b895e4"/><path d="m30.39 377.07c19.659 36.56 47.946 67.794 82.137 90.975 40.923 27.745 90.304-15.009 143.473-15.009s102.55 42.754 143.473 15.009c34.191-23.181 62.477-54.414 82.137-90.975z" fill="#5541b5"/></g><g><path d="m410.729 236.494h-4.67c2.939 2.286 5.356 5.226 7.033 8.578 1.687 3.364 2.634 7.163 2.634 11.169 0 13.847-11.224 25.06-25.06 25.06h-275.331c-6.924 0-13.194-2.809-17.723-7.337-4.529-4.529-7.337-10.799-7.337-17.723 0-8.023 3.777-15.164 9.656-19.748h-4.659c-6.913 0-13.183-2.808-17.722-7.337-4.529-4.54-7.337-10.799-7.337-17.723 0-13.836 11.223-25.049 25.06-25.049h4.659c-2.939-2.297-5.356-5.236-7.033-8.589-1.676-3.364-2.623-7.163-2.623-11.169 0-13.836 11.213-25.06 25.06-25.06h8.219c-2.928-2.286-5.345-5.226-7.033-8.589-1.676-3.364-2.624-7.152-2.624-11.169 0-13.836 11.224-25.049 25.06-25.049h27.019c-2.939-2.286-5.356-5.225-7.033-8.589-1.687-3.364-2.634-7.152-2.634-11.169 0-13.836 11.224-25.06 25.06-25.06h143.261c6.923 0 13.183 2.809 17.712 7.337 4.539 4.539 7.337 10.81 7.337 17.723 0 8.023-3.777 15.175-9.656 19.758h27.019c6.924 0 13.183 2.809 17.712 7.337 4.539 4.529 7.337 10.799 7.337 17.712 0 8.034-3.777 15.175-9.656 19.758h8.23c6.924 0 13.183 2.808 17.723 7.337 4.529 4.54 7.337 10.799 7.337 17.723 0 8.023-3.788 15.164-9.667 19.758h4.67c6.913 0 13.183 2.798 17.712 7.337 4.529 4.529 7.337 10.788 7.337 17.712 0 13.838-11.213 25.061-25.049 25.061z" fill="#e7eaf5"/><path d="m410.729 236.494h-4.67c2.939 2.286 5.356 5.226 7.033 8.578 1.687 3.364 2.634 7.163 2.634 11.169 0 13.847-11.224 25.06-25.06 25.06h-134.4v-229.358h68.365c6.923 0 13.183 2.809 17.712 7.337 4.539 4.539 7.337 10.81 7.337 17.723 0 8.023-3.777 15.175-9.656 19.758h27.019c6.924 0 13.183 2.809 17.712 7.337 4.539 4.529 7.337 10.799 7.337 17.712 0 8.034-3.777 15.175-9.656 19.758h8.23c6.924 0 13.183 2.808 17.723 7.337 4.529 4.54 7.337 10.799 7.337 17.723 0 8.023-3.788 15.164-9.667 19.758h4.67c6.913 0 13.183 2.798 17.712 7.337 4.529 4.529 7.337 10.788 7.337 17.712 0 13.836-11.213 25.059-25.049 25.059z" fill="#d9dced"/><path d="m399.47 468.04c-40.92 27.75-90.3 43.96-143.47 43.96s-102.55-16.21-143.47-43.96c9.76-28.05 27.52-52.36 50.54-70.2 10.67-8.27 22.48-15.15 35.15-20.37.37-.15.73-.28 1.1-.4 3-.97 6.05-.85 9.15 0 14.95 4.09 30.93 25.34 47.53 25.34s32.58-21.25 47.53-25.34c3.1-.85 6.15-.97 9.15 0 .37.12.73.25 1.1.4v.01c39.98 16.46 71.4 49.5 85.69 90.56z" fill="#e7eaf5"/><path d="m399.47 468.04c-40.92 27.75-90.3 43.96-143.47 43.96v-109.59c16.6 0 32.58-21.25 47.53-25.34 3.1-.85 6.15-.97 9.15 0 .37.12.73.25 1.1.4v.01c39.98 16.46 71.4 49.5 85.69 90.56z" fill="#d9dced"/><path d="m313.775 377.472v.011l-15.993 43.578-41.783 31.975-41.814-32.647-15.961-42.917c17.809-7.33 37.32-11.372 57.775-11.372 20.456 0 39.966 4.043 57.776 11.372z" fill="#616679"/><path d="m313.77 377.47v.01l-15.99 43.58-41.78 31.98-.01-.01v-86.93h.01c20.45 0 39.97 4.04 57.77 11.37z" fill="#464651"/><path d="m292.301 329.798v36.302c0 20.057-16.255 36.312-36.301 36.312-20.056 0-36.312-16.255-36.312-36.312v-36.301h72.613z" fill="#debba2"/><path d="m292.301 329.798v36.302c0 20.057-16.255 36.312-36.301 36.312v-72.613h36.301z" fill="#ca8e69"/><path d="m386.714 257.249v7.025c0 25.527-20.687 46.214-46.214 46.214h-66.344v-77.275h88.511c13.284-.001 24.047 10.762 24.047 24.036z" fill="#ca8e69"/><path d="m274.156 233.212v77.275h-103.695c-25.517 0-46.203-20.687-46.203-46.214v-7.025c0-13.273 10.763-24.036 24.036-24.036z" fill="#debba2"/><path d="m346.56 141.29v135.92c0 50.02-40.54 90.56-90.56 90.56-50.03 0-90.57-40.54-90.57-90.56v-95.65h50.3c22.24 0 40.27-18.03 40.27-40.27z" fill="#edd8c7"/><circle cx="211.397" cy="252.233" fill="#c3f3ff" r="32.332"/><path d="m346.559 141.288v135.922c0 50.015-40.544 90.559-90.559 90.559v-226.481z" fill="#debba2"/><circle cx="299.037" cy="252.233" fill="#c3f3ff" r="32.332"/><path d="m255.999 453.036-13.84 20.648 13.84 27.981 54.888-54.877-14.733-14.733 52.777-34.211c-10.669-8.275-22.482-15.153-35.157-20.372z" fill="#c8cde3"/><path d="m255.999 453.036v48.629l-54.888-54.877 14.733-14.733-52.777-34.211c10.669-8.275 22.482-15.153 35.157-20.372z" fill="#d9dced"/><path d="m255.995 296.318c-5.518 0-9.992-4.474-9.992-9.992v-27.306c0-5.518 4.474-9.992 9.992-9.992 5.518 0 9.992 4.474 9.992 9.992v27.306c0 5.519-4.474 9.992-9.992 9.992z" fill="#ca8e69"/><g fill="#464651"><circle cx="219.525" cy="252.101" r="13.073"/><circle cx="292.465" cy="252.101" r="13.073"/></g><path d="m288.15 305.49c0 8.33-3.16 15.91-8.36 21.61-5.88 6.48-14.36 10.54-23.79 10.54s-17.91-4.06-23.79-10.54c-5.2-5.7-8.36-13.28-8.36-21.61z" fill="#464651"/><path d="m288.15 305.49c0 8.33-3.16 15.91-8.36 21.61-5.88 6.48-14.36 10.54-23.79 10.54v-32.15z" fill="#2d3041"/><path d="m352.205 219.492-13.435 16.668c-6.3-15.35-21.4-26.19-38.99-26.19-20.84 0-38.19 15.22-41.53 35.13h-5.19c-3.34-19.91-20.69-35.13-41.54-35.13-17.59 0-32.68 10.84-38.98 26.19l-13.435-16.668c-2.427-3.011-6.836-3.484-9.846-1.056-3.009 2.427-3.482 6.834-1.056 9.844l21.278 26.4c1.34 22.03 19.68 39.55 42.04 39.55 20.85 0 38.2-15.22 41.54-35.13h5.19c3.34 19.91 20.69 35.13 41.53 35.13 22.37 0 40.71-17.52 42.05-39.55l21.278-26.4c2.426-3.01 1.953-7.417-1.056-9.844-3.012-2.428-7.421-1.955-9.848 1.056zm-140.685 60.738c-15.51 0-28.12-12.62-28.12-28.13s12.61-28.13 28.12-28.13c15.52 0 28.13 12.62 28.13 28.13s-12.61 28.13-28.13 28.13zm88.26 0c-15.51 0-28.13-12.62-28.13-28.13s12.62-28.13 28.13-28.13 28.13 12.62 28.13 28.13-12.62 28.13-28.13 28.13z" fill="#616679"/><path d="m352.205 219.492-13.435 16.668c-6.3-15.35-21.4-26.19-38.99-26.19-20.84 0-38.19 15.22-41.53 35.13h-2.25v14h2.25c3.34 19.91 20.69 35.13 41.53 35.13 22.37 0 40.71-17.52 42.05-39.55l21.278-26.4c2.426-3.01 1.953-7.417-1.056-9.844-3.011-2.428-7.42-1.955-9.847 1.056zm-52.425 60.738c-15.51 0-28.13-12.62-28.13-28.13s12.62-28.13 28.13-28.13 28.13 12.62 28.13 28.13-12.62 28.13-28.13 28.13z" fill="#464651"/><path d="m279.79 327.1c-5.88 6.48-14.36 10.54-23.79 10.54s-17.91-4.06-23.79-10.54c5.88-6.47 14.36-10.53 23.79-10.53s17.91 4.06 23.79 10.53z" fill="#d75e91"/><path d="m279.79 327.1c-5.88 6.48-14.36 10.54-23.79 10.54v-21.07c9.43 0 17.91 4.06 23.79 10.53z" fill="#bf2e70"/></g></g></svg>