<svg id="Capa_1" enable-background="new 0 0 512 512" height="512" viewBox="0 0 512 512" width="512" xmlns="http://www.w3.org/2000/svg"><g><g><g><g><g><g><g><circle cx="256" cy="256" fill="#7584f2" r="256"/></g></g></g></g></g></g><path d="m512 256c0-15.103-1.308-29.899-3.816-44.284l-134.781-134.781-234.806 358.13 73.119 73.119c14.384 2.508 29.181 3.816 44.284 3.816 141.385 0 256-114.615 256-256z" fill="#4253ce"/><g><g><path d="m76.935 373.403 61.662 61.662 296.468-296.468-61.662-61.662-47.479 47.479-7.568 13.535-13.644 7.678-20.501 20.501-7.823 13.185-13.413 8.051-20.478 20.478-8.411 11.663-12.811 9.56-20.509 20.509-7.973 12.908-13.178 8.243-20.544 20.544-7.246 12.751-13.967 8.462-20.501 20.501-7.994 11.626-13.22 9.588zm290.615-228.953c-5.593-5.593-5.593-14.661 0-20.255s14.661-5.593 20.255 0 5.593 14.661 0 20.255-14.662 5.593-20.255 0z" fill="#ffce00"/></g><g><path d="m435.065 138.597-29.74-29.74-16.49 16.49c4.536 5.625 4.195 13.879-1.03 19.104s-13.479 5.566-19.104 1.03l-259.845 259.843 29.74 29.74z" fill="#fdba12"/></g><g><path d="m316.279 128.41h30v45.143h-30z" fill="#ff6c52" transform="matrix(.707 -.707 .707 .707 -9.731 278.469)"/></g><g><path d="m278.859 168.345h30v57.288h-30z" fill="#ff6c52" transform="matrix(.707 -.707 .707 .707 -53.223 265.484)"/></g><g><path d="m297.704 205.682h30v20.304h-30z" fill="#ff432e" transform="matrix(.707 -.707 .707 .707 -61.029 284.331)"/></g><g><path d="m232.851 211.837h30v45.143h-30z" fill="#ff6c52" transform="matrix(.707 -.707 .707 .707 -93.158 243.911)"/></g><g><path d="m195.431 251.772h30v57.289h-30z" fill="#ff6c52" transform="matrix(.707 -.707 .707 .707 -136.651 230.93)"/></g><g><path d="m214.076 289.193h30v19.74h-30z" fill="#ff432e" transform="matrix(.707 -.707 .707 .707 -144.374 249.575)"/></g><g><path d="m149.423 295.265h30v45.144h-30z" fill="#ff6c52" transform="matrix(.707 -.707 .707 .707 -176.586 209.356)"/></g><g><path d="m112.003 335.2h30v57.29h-30z" fill="#ff6c52" transform="matrix(.707 -.707 .707 .707 -220.079 196.372)"/></g><g><path d="m130.241 372.789h30v18.588h-30z" fill="#ff432e" transform="matrix(.707 -.707 .707 .707 -227.633 214.611)"/></g></g></g></svg>