<?xml version="1.0" encoding="iso-8859-1"?>
<!-- Generator: Adobe Illustrator 19.0.0, SVG Export Plug-In . SVG Version: 6.00 Build 0)  -->
<svg version="1.1" id="Capa_1" xmlns="http://www.w3.org/2000/svg" xmlns:xlink="http://www.w3.org/1999/xlink" x="0px" y="0px"
	 viewBox="0 0 512 512" style="enable-background:new 0 0 512 512;" xml:space="preserve">
<path style="fill:#009A8E;" d="M512,256c0,141.385-114.615,256-256,256S0,397.385,0,256S114.615,0,256,0S512,114.615,512,256z"/>
<path style="fill:#FFF2B4;" d="M71.826,170h30v130h-30V170z M410.174,170v130h30V170H410.174z"/>
<path style="fill:#FBC56D;" d="M137.921,353.229c19.874,39.46,10.958,84.055-19.916,99.604
	c-30.873,15.549-72.013-3.834-91.887-43.295c-19.875-39.46-10.958-84.055,19.916-99.604
	C76.907,294.384,118.047,313.768,137.921,353.229z M457.021,303.753c-32.826-10.836-70.664,14.392-84.514,56.348
	c-13.849,41.956,1.534,84.752,34.36,95.588c2.35,0.776,4.728,1.346,7.119,1.759c35.629-27.981,63.646-65.213,80.444-108.074
	C489.591,327.562,476.328,310.126,457.021,303.753z"/>
<path style="fill:#EBAE56;" d="M169.408,415.747c4.969,9.865,0.999,21.89-8.866,26.859l-11.137,5.609
	c-7.148,3.6-15.418,2.489-21.328-2.139c-3.042,2.621-6.393,4.904-10.073,6.758c-2.089,1.052-4.229,1.931-6.402,2.668L59.989,353.25
	c-3.262-6.462-12.15-7.469-16.678-1.821c-13.214,16.485-19.163,38.248-16.207,59.974c-0.329-0.621-0.668-1.233-0.986-1.864
	c-19.875-39.46-10.958-84.055,19.916-99.604c3.68-1.853,7.508-3.2,11.426-4.086c-0.194-7.498,3.835-14.797,10.978-18.395
	l11.137-5.609c9.865-4.969,21.89-0.999,26.859,8.866L169.408,415.747z M427.523,415.186l35.912-108.793
	c-2.058-1.016-4.192-1.908-6.414-2.641c-3.913-1.292-7.897-2.064-11.903-2.362c-0.913-7.444-5.972-14.069-13.566-16.576
	l-11.841-3.909c-10.489-3.462-21.799,2.234-25.261,12.723l-43.884,132.944c-3.462,10.489,2.234,21.799,12.723,25.261l11.841,3.909
	c7.595,2.507,15.605,0.195,20.77-5.244c3.397,2.144,7.056,3.899,10.968,5.19c2.35,0.776,4.728,1.346,7.119,1.759
	c11.765-9.24,22.69-19.497,32.666-30.623c-2.792,0.638-5.621,1.119-8.477,1.437C430.913,429.07,425.232,422.126,427.523,415.186z"/>
<g>
	<path style="fill:#FBC56D;" d="M169.408,415.747c4.969,9.865,0.999,21.89-8.866,26.859l-11.137,5.609
		c-9.865,4.969-21.89,0.999-26.859-8.866l-50.268-99.807c-4.969-9.865-0.999-21.89,8.866-26.859l11.137-5.609
		c9.865-4.969,21.89-0.999,26.859,8.866L169.408,415.747z M431.552,284.815l-11.841-3.909c-10.489-3.462-21.799,2.234-25.261,12.723
		l-35.03,106.119c-3.462,10.489,2.234,21.799,12.723,25.261l11.841,3.909c10.489,3.462,21.799-2.234,25.261-12.723l35.03-106.119
		C447.737,299.587,442.041,288.277,431.552,284.815z"/>
	<path style="fill:#FBC56D;" d="M451.596,182.478c-4.702,15.887-21.393,24.955-37.281,20.252
		c-11.274-3.337-19.107-12.713-21.029-23.553C372.939,123.043,319.16,82.932,256,82.932c-63.157,0-116.936,40.108-137.286,96.239
		c-1.92,10.843-9.753,20.222-21.03,23.56c-15.887,4.702-32.578-4.365-37.281-20.252c-1.51-5.101-1.593-10.283-0.494-15.126
		c0.068-1.329,0.311-2.678,0.762-4.021C88.067,81.724,165.166,22.932,256,22.932c89.617,0,165.864,57.228,194.2,137.131
		c0.453,1.279,0.74,2.564,0.888,3.84C453.151,169.682,453.471,176.143,451.596,182.478z"/>
</g>
<path style="fill:#EBAE56;" d="M103.553,169.706c2.351,7.944-2.182,16.289-10.126,18.64s-16.289-2.182-18.64-10.126
	s2.182-16.289,10.126-18.64C92.857,157.229,101.202,161.763,103.553,169.706z M427.087,159.58
	c-7.944-2.351-16.289,2.182-18.64,10.126c-2.351,7.944,2.182,16.289,10.126,18.64s16.289-2.182,18.64-10.126
	C439.564,170.277,435.031,161.931,427.087,159.58z"/>
<path style="fill:#5EE2C5;" d="M266,240v110c0,5.523-4.477,10-10,10s-10-4.477-10-10V240c0-5.523,4.477-10,10-10
	C261.523,230,266,234.477,266,240z M176,250c-5.523,0-10,4.477-10,10v50c0,5.523,4.477,10,10,10s10-4.477,10-10v-50
	C186,254.477,181.523,250,176,250z M216,210c-5.523,0-10,4.477-10,10v90c0,5.523,4.477,10,10,10s10-4.477,10-10v-90
	C226,214.477,221.523,210,216,210z M336,250c-5.523,0-10,4.477-10,10v50c0,5.523,4.477,10,10,10s10-4.477,10-10v-50
	C346,254.477,341.523,250,336,250z M296,200c-5.523,0-10,4.477-10,10v90c0,5.523,4.477,10,10,10s10-4.477,10-10v-90
	C306,204.477,301.523,200,296,200z"/>
<g>
</g>
<g>
</g>
<g>
</g>
<g>
</g>
<g>
</g>
<g>
</g>
<g>
</g>
<g>
</g>
<g>
</g>
<g>
</g>
<g>
</g>
<g>
</g>
<g>
</g>
<g>
</g>
<g>
</g>
</svg>
