<svg id="Layer_1" enable-background="new 0 0 511.593 511.593" height="512" viewBox="0 0 511.593 511.593" width="512" xmlns="http://www.w3.org/2000/svg"><g><path d="m255.797 0c-135.935 0-246.132 110.197-246.132 246.132l246.132 246.132c135.935 0 246.132-110.197 246.132-246.132s-110.198-246.132-246.132-246.132z" fill="#82cd64"/><path d="m164.632 315.744c-2.877-2.939-4.609-6.812-4.923-10.912l-.008-.11c-.357-4.662 1.162-9.274 4.22-12.812l55.877-64.655c8.922-10.324 25.83-4.378 26.392 9.256 1.151 27.921 11.425 55.309 30.315 77.484l-.073.073c-3.863 3.863-4.31 10.137-.722 14.257 2.064 2.37 4.926 3.556 7.789 3.556 2.638 0 5.274-1.006 7.287-3.018l29.706-29.706c10.248-10.247 25.064-14.104 39.18-10.825 20.641 4.795 42.987-1.759 57.762-18.342 12.745-14.308 17.328-33.139 13.94-50.694-3.185-16.506 2.469-33.49 14.355-45.376l25.47-25.47c3.881-3.881 4.34-10.2.716-14.323-3.971-4.518-10.857-4.684-15.043-.5l-.293.293c-32.461-27.646-76.064-36.806-116.06-26.025-13.027 3.511-26.937-.013-36.477-9.554l-15.16-15.16c-15.467-15.468-39.463-17.207-56.85-5.221-2.97 2.047-6.892 2.061-9.903.075-2.966-2.075-9.091-11.446-22.344-10.7-6.518.37-12.459 3.292-16.729 8.23l-31.658 36.604c-7.959 9.202-11.931 21.192-11.041 33.326l6.91 94.234c.274 3.741-.798 7.456-3.024 10.475-7.042 9.549-21.811 8.191-26.83-2.561-3.244-6.95-6.146-14.018-8.705-21.178-19.039-53.282-98.147-40.756-99.014 15.819-.022 1.428-.032 2.859-.029 4.293.242 136.538 110.371 246.107 246.908 245.685 1.58-.005 3.156-.025 4.729-.059 65.085-1.429 76.311-94.037 13.56-111.369-40.616-11.219-78.813-32.997-110.23-65.09zm78.371-152.21c6.578 6.578 6.961 17.118.878 24.156l-79.603 92.108c-2.179 2.522-6.32 1.151-6.564-2.173-1.412-19.253 4.11-38.376 15.567-53.914l42.886-58.16c6.446-8.74 19.158-9.695 26.836-2.017zm-85.821-46.36 31.659-36.604c2.904-3.358 6.944-5.345 11.376-5.597 9.374-.539 13.616 6.392 16.511 8.489l-.897.901c2.714 2.701 3.386 6.84 1.659 10.257-7.795 15.425-6.191 34.637 5.567 48.701l-55.033 74.633c-4.587 6.221-14.437 3.376-15.002-4.332l-5.037-68.686c-.747-10.181 2.519-20.041 9.197-27.762zm-7.187 159.749 1.237 16.874c.048.648-.164 1.288-.589 1.78-1.004 1.162-2.829 1.131-3.778-.077-3.547-4.514-6.941-9.153-10.172-13.913-1.745-2.571-1.693-5.96.151-8.461 4.021-5.453 12.655-2.96 13.151 3.797z" fill="#20b7a1"/><g><g><g><path d="m199.134 76.65c-4.801-4.423-11.031-6.653-17.552-6.286-6.518.37-12.459 3.292-16.729 8.23l-31.658 36.604c-8.016 9.269-11.937 21.104-11.041 33.325l11.939 162.809c1.889 25.749-2.964 51.687-14.032 75.013l-59.435 125.248h8.466l57.879-121.97c11.635-24.519 16.736-51.785 14.751-78.851l-11.939-162.808c-.747-10.181 2.52-20.04 9.197-27.761l31.659-36.604c2.904-3.358 6.944-5.345 11.376-5.597 4.437-.255 8.672 1.267 11.937 4.275l21.627 19.924 5.182-5.626z" fill="#ff5551"/></g><g><path d="m201.259 81.644h10.198v14.485h-10.198z" fill="#1a396b" transform="matrix(.705 -.709 .709 .705 -2.215 172.444)"/></g><g><circle cx="354.946" cy="233.593" fill="#f8e000" r="59.303"/></g><g><path d="m375.915 255.651c-29.071-1.713-52.842-24.75-55.471-53.753-.537-5.927-.183-11.687.919-17.176-15.814 10.888-26.088 29.243-25.709 49.982.59 32.216 27.38 58.356 59.601 58.192 22.755-.116 42.475-13.049 52.317-31.948 2.634-5.059-2.386-10.731-7.743-8.773-7.395 2.701-15.476 3.973-23.914 3.476z" fill="#ffc305"/></g><g><g><g><path d="m83.07 511.593-10.879-169.536h27.477l11.292 169.537h7.666l-11.564-173.615c-.134-2.009-1.802-3.57-3.816-3.57h-35.132c-1.057 0-2.067.437-2.789 1.208-.723.771-1.095 1.806-1.028 2.861l11.108 173.116h7.665z" fill="#2d56a1"/></g></g><g><g><path d="m103.247 342.057h-35.133c-1.443 0-2.763-.812-3.414-2.1s-.521-2.832.336-3.994l148.203-200.984c.721-.977 1.863-1.554 3.078-1.554h60.628c1.496 0 2.855.873 3.478 2.233.622 1.361.393 2.96-.585 4.092l-173.698 200.983c-.726.84-1.782 1.324-2.893 1.324zm-27.561-7.649h25.811l167.088-193.336h-50.336z" fill="#2d56a1"/></g></g><g><g><path d="m349.979 165.511-63.115 63.115-79.301-79.301c-17.429-17.429-17.429-45.686 0-63.115 17.429-17.429 45.686-17.429 63.115 0z" fill="#6ee1ff"/></g><g><path d="m235.088 133.901c-10.826-10.825-14.922-25.826-12.297-39.815 1.605-8.551-8.825-14.196-15.017-8.085-.071.07-.141.14-.211.21-17.429 17.429-17.429 45.686 0 63.115l79.301 79.301 21.475-21.475z" fill="#2896ff"/></g><g><g><path d="m236.177 137.218h7.648v61.751h-7.648z" fill="#1a396b" transform="matrix(.707 -.707 .707 .707 -48.565 218.944)"/></g></g><g><g><path d="m245.191 128.204h7.648v61.752h-7.648z" fill="#1a396b" transform="matrix(.707 -.707 .707 .707 -39.552 222.674)"/></g></g><g><g><path d="m256.009 117.387h7.648v61.752h-7.648z" fill="#1a396b" transform="matrix(.707 -.707 .707 .707 -28.735 227.155)"/></g></g><g><path d="m265.296 143.943c-49.888 49.888-49.888 130.772 0 180.66l180.66-180.66c-49.888-49.888-130.772-49.888-180.66 0z" fill="#2896ff"/></g><g><path d="m261.207 180.968c-1.559-10.596-1.784-21.35-.678-31.992-45.064 50.154-43.477 127.383 4.767 175.627l180.66-180.66c-6.883-6.883-14.359-12.812-22.26-17.795l-81.484 81.484c-27.712 27.712-75.301 12.11-81.005-26.664z" fill="#2d56a1"/></g></g></g></g><g><path d="m265.296 334.909c-2.638 0-5.275-1.006-7.287-3.018-4.024-4.025-4.024-10.55 0-14.575l180.66-180.66c4.026-4.025 10.549-4.025 14.575 0 4.025 4.025 4.025 10.55 0 14.575l-180.66 180.66c-2.014 2.011-4.65 3.018-7.288 3.018z" fill="#6ee1ff"/></g><g><path d="m324.893 255.058c-2.84-.115-5.593.967-7.603 2.977l-59.281 59.281c-4.024 4.025-4.024 10.55 0 14.575 2.013 2.012 4.65 3.018 7.287 3.018s5.275-1.006 7.287-3.018l59.432-59.432c6.283-6.283 2.071-17.043-6.808-17.388-.106-.004-.211-.008-.314-.013z" fill="#2896ff"/></g></g></g></svg>