<?xml version="1.0" encoding="iso-8859-1"?>
<!-- Generator: Adobe Illustrator 19.0.0, SVG Export Plug-In . SVG Version: 6.00 Build 0)  -->
<svg version="1.1" id="Capa_1" xmlns="http://www.w3.org/2000/svg" xmlns:xlink="http://www.w3.org/1999/xlink" x="0px" y="0px"
	 viewBox="0 0 512 512" style="enable-background:new 0 0 512 512;" xml:space="preserve">
<path style="fill:#6BC5DC;" d="M512,256c0,141.385-114.615,256-256,256S0,397.385,0,256S114.615,0,256,0S512,114.615,512,256z"/>
<path style="fill:#90D2E3;" d="M210,295c0,8.284-6.716,15-15,15H95c-8.284,0-15-6.716-15-15s6.716-15,15-15h100
	C203.284,280,210,286.716,210,295z M436.576,270H385c-8.284,0-15-6.716-15-15s-6.716-15-15-15H245c-8.284,0-15,6.716-15,15
	s6.716,15,15,15h52c8.284,0,15,6.716,15,15s6.716,15,15,15h110c8.525,0,15.389-7.111,14.983-15.726
	C451.603,276.207,444.653,270,436.576,270z M227.738,191h-51.576c-8.284,0-15-6.716-15-15s-6.716-15-15-15h-110
	c-8.284,0-15,6.716-15,15s6.716,15,15,15h52c8.284,0,15,6.716,15,15s6.716,15,15,15h110c8.525,0,15.389-7.111,14.983-15.726
	C242.764,197.207,235.814,191,227.738,191z M503.843,191.663C501.79,190.607,499.468,190,497,190H375c-8.284,0-15,6.716-15,15
	s6.716,15,15,15h122c4.692,0,8.878-2.157,11.629-5.531C507.369,206.747,505.778,199.136,503.843,191.663z M55,230H1.306
	C0.444,238.55,0,247.223,0,256c0,1.337,0.03,2.667,0.051,4H55c8.284,0,15-6.716,15-15S63.284,230,55,230z M365,150h60
	c8.284,0,15-6.716,15-15s-6.716-15-15-15h-60c-8.284,0-15,6.716-15,15S356.716,150,365,150z M95,120h50c8.284,0,15-6.716,15-15
	s-6.716-15-15-15H95c-8.284,0-15,6.716-15,15S86.716,120,95,120z"/>
<path style="fill:#EA4444;" d="M461.763,350.531v57.787C415.12,471.222,340.326,512,256,512S96.88,471.222,50.237,408.317V350.53
	h142.891V169.438h125.744v181.093H461.763z"/>
<path style="fill:#D93131;" d="M215.256,350.531h-22.128V158.104h22.128V350.531z M74.237,408.317V350.53h-24v57.787
	C96.88,471.222,171.674,512,256,512c4.022,0,8.023-0.094,12-0.278C188.603,508.058,118.655,468.222,74.237,408.317z"/>
<path style="fill:#FAB2B2;" d="M183.602,175.156v-15.052c0-1.105,0.896-2,2-2h60.872V137c0-3.866,3.134-7,7-7h5.052
	c3.866,0,7,3.134,7,7v21.104h60.872c1.104,0,2,0.895,2,2v15.052c0,1.104-0.896,2-2,2h-67.872h-5.052h-67.872
	C184.497,177.156,183.602,176.261,183.602,175.156z M469.289,339.1H42.711c-1.105,0-2,0.896-2,2v15.052c0,1.104,0.895,2,2,2h426.578
	c1.104,0,2-0.896,2-2V341.1C471.289,339.995,470.394,339.1,469.289,339.1z"/>
<path style="fill:#A82B2B;" d="M421.753,428.645v22.434c-24.424,20.773-52.789,37.052-83.829,47.53v-69.964
	c0-23.149,18.766-41.915,41.915-41.915S421.753,405.496,421.753,428.645z M256,386.73c-23.149,0-41.915,18.766-41.915,41.915v79.92
	C227.726,510.812,241.723,512,256,512c14.277,0,28.274-1.188,41.915-3.435v-79.92C297.915,405.496,279.149,386.73,256,386.73z
	 M132.161,386.73c-23.149,0-41.915,18.766-41.915,41.915v22.434c24.424,20.773,52.789,37.052,83.829,47.53v-69.964
	C174.076,405.496,155.31,386.73,132.161,386.73z M256,194.303c-50.507,0-91.45,40.944-91.45,91.45
	c0,50.507,40.944,91.45,91.45,91.45s91.45-40.943,91.45-91.45C347.45,235.247,306.507,194.303,256,194.303z"/>
<path style="fill:#FFE7BF;" d="M328.398,285.754c0,39.984-32.414,72.398-72.398,72.398s-72.398-32.414-72.398-72.398
	s32.414-72.398,72.398-72.398S328.398,245.769,328.398,285.754z"/>
<path style="fill:#FFF5F5;" d="M300,285.753c0,35.124-25.015,64.397-58.199,70.998c-33.184-6.601-58.199-35.874-58.199-70.998
	s25.015-64.397,58.199-70.997C274.985,221.356,300,250.63,300,285.753z"/>
<path style="fill:#EF6161;" d="M267.156,285.753c0,5.209-4.315,9.382-9.521,9.209l-40.019-1.334
	c-4.247-0.142-7.617-3.625-7.617-7.875c0-4.249,3.37-7.733,7.617-7.875l29.096-0.97l1.412-42.362
	c0.142-4.247,3.625-7.617,7.875-7.617c4.25,0,7.733,3.37,7.875,7.617l1.527,45.809C266.501,281.872,267.156,283.732,267.156,285.753
	z"/>
<path style="fill:#A82B2B;" d="M268.384,285.754c0,6.839-5.544,12.384-12.384,12.384c-6.839,0-12.384-5.544-12.384-12.384
	c0-6.839,5.544-12.384,12.384-12.384C262.839,273.37,268.384,278.914,268.384,285.754z"/>
<path style="fill:#FFF5F5;" d="M351.459,63.683c-1.953,1.952-4.513,2.929-7.071,2.929c-2.56,0-5.118-0.976-7.071-2.929
	C315.596,41.962,286.717,30,256,30s-59.597,11.962-81.317,33.683c-3.905,3.905-10.237,3.906-14.142,0s-3.905-10.237,0-14.142
	C186.038,24.042,219.94,10,256,10c36.061,0,69.962,14.042,95.46,39.541C355.365,53.446,355.365,59.778,351.459,63.683z M256,50
	c-25.375,0-49.232,9.882-67.175,27.825c-3.905,3.905-3.905,10.237,0,14.142s10.237,3.905,14.142,0C217.132,77.801,235.966,70,256,70
	s38.867,7.801,53.033,21.967c1.953,1.953,4.512,2.929,7.071,2.929s5.118-0.977,7.071-2.929c3.905-3.905,3.905-10.237,0-14.142
	C305.232,59.882,281.375,50,256,50z M256,90c-14.691,0-28.503,5.721-38.891,16.109c-3.905,3.905-3.905,10.237,0,14.143
	c3.905,3.905,10.237,3.905,14.143,0C237.861,113.641,246.651,110,256,110s18.138,3.641,24.748,10.251
	c1.953,1.953,4.512,2.929,7.071,2.929c2.559,0,5.118-0.977,7.071-2.929c3.905-3.905,3.905-10.237,0-14.142
	C284.502,95.721,270.691,90,256,90z"/>
<g>
</g>
<g>
</g>
<g>
</g>
<g>
</g>
<g>
</g>
<g>
</g>
<g>
</g>
<g>
</g>
<g>
</g>
<g>
</g>
<g>
</g>
<g>
</g>
<g>
</g>
<g>
</g>
<g>
</g>
</svg>
