<svg id="Capa_1" enable-background="new 0 0 512 512" height="512" viewBox="0 0 512 512" width="512" xmlns="http://www.w3.org/2000/svg"><path d="m87.259 512c-22.688 0-41.081-18.392-41.081-41.081v-429.838c.001-22.695 18.398-41.081 41.081-41.081h182.029c31.295 0 196.533 165.237 196.533 196.529v274.39c0 22.688-18.392 41.081-41.081 41.081z" fill="#f6f1f1"/><path d="m465.821 196.533v17.377c0-36.586-29.667-66.253-66.253-66.253h-40.324c-22.684 0-41.081-18.397-41.081-41.081v-40.323c.001-36.586-29.667-66.253-66.252-66.253h17.377c31.29 0 61.308 12.433 83.433 34.557l78.543 78.543c22.125 22.125 34.557 52.143 34.557 83.433z" fill="#eadfda"/><path d="m91.563 192.573h328.874v49.331h-328.874z" fill="#dad0cb"/><path d="m91.563 192.573h211.262v49.331h-211.262z" fill="#e49542"/><path d="m254.204 180.124h-152.339c-4.267 0-7.726-3.459-7.726-7.726s3.459-7.726 7.726-7.726h152.339c4.267 0 7.727 3.459 7.727 7.726s-3.46 7.726-7.727 7.726z" fill="#665e66"/><path d="m91.563 305.795h328.874v49.331h-328.874z" fill="#dad0cb"/><path d="m91.563 305.795h117.288v49.331h-117.288z" fill="#df6b57"/><path d="m254.204 293.346h-152.339c-4.267 0-7.726-3.459-7.726-7.726s3.459-7.726 7.726-7.726h152.339c4.267 0 7.727 3.459 7.727 7.726 0 4.266-3.46 7.726-7.727 7.726z" fill="#665e66"/><path d="m91.563 419.016h328.874v49.331h-328.874z" fill="#dad0cb"/><path d="m91.563 419.016h300.333v49.331h-300.333z" fill="#90dfc3"/><path d="m254.204 406.567h-152.339c-4.267 0-7.726-3.459-7.726-7.726s3.459-7.726 7.726-7.726h152.339c4.267 0 7.727 3.459 7.727 7.726s-3.46 7.726-7.727 7.726z" fill="#665e66"/></svg>