<svg id="Capa_1" enable-background="new 0 0 512 512" height="512" viewBox="0 0 512 512" width="512" xmlns="http://www.w3.org/2000/svg"><g><g><path d="m256 297.534c-141.387 0-244.425-128.693-224.094-165.398 43.644-78.794 127.639-132.136 224.094-132.136 96.454 0 180.448 53.34 224.092 132.133 20.332 36.705-82.705 165.401-224.092 165.401z" fill="#df7cb3"/><path d="m512 256c0 26.051-3.891 51.191-11.129 74.871-5.031 16.469-11.672 32.231-19.75 47.109-8.25 15.2-147.391 46.775-225.121 46.775s-216.871-31.575-225.109-46.775c-3.289-6.031-6.332-12.21-9.121-18.531-14-31.629-21.77-66.629-21.77-103.449 0-46.219 12.25-89.57 33.68-127 44.121 77.07 127.16 129 222.32 129s178.211-51.93 222.32-129c21.43 37.43 33.68 80.781 33.68 127zm0 0" fill="#d85e91"/><path d="m481.262 377.699c-4.461 8.238-9.354 16.203-14.656 23.864-1.179 1.703-5.564.508-6.783 2.181-1.418 1.947.323 6.756-1.15 8.661-.706.913-1.417 1.821-2.135 2.724-6.109 7.699-12.66 15.033-19.607 21.968-2.648 2.643-62.187 48.345-94.469 59.929-27.008 9.693-56.119 14.974-86.462 14.974s-59.454-5.281-86.463-14.974c-32.282-11.585-91.814-57.279-94.459-59.919-6.95-6.939-13.505-14.276-19.617-21.978-.718-.903-1.429-1.811-2.135-2.724-1.457-1.886 3.388-7.717 1.983-9.644-1.265-1.735-8.785.437-10.007-1.331-5.266-7.62-10.129-15.541-14.564-23.731zm0 0" fill="#bb1961"/></g><g><path d="m120.194 350.908h-24.692v-61.96h108.112v24.692h-83.42z" fill="#8ab8ec"/><path d="m95.502 400.063h24.692v49.384h-24.692z" fill="#8ab8ec"/><path d="m416.498 350.908h-24.692v-37.268h-83.432v-24.692h108.124z" fill="#728ee4"/><path d="m391.806 400.063h24.692v49.384h-24.692z" fill="#728ee4"/><g fill="#8ab8ec"><path d="m243.654 353.669v95.778h12.346 12.346v-95.778h-12.346z"/><path d="m256 202.526h-12.346v49.384h12.346 12.346v-49.384z"/></g><path d="m256 202.526h12.346v49.384h-12.346z" fill="#728ee4"/><path d="m256 353.669h12.346v95.778h-12.346z" fill="#728ee4"/><path d="m256 90.589h-111.114v124.283h111.114 111.114v-124.283z" fill="#fbf5eb"/><path d="m256 90.589h111.114v124.283h-111.114z" fill="#dce0ef"/><path d="m194.27 140.796h24.692v24.692h-24.692z" fill="#535564"/><path d="m293.038 140.796h24.692v24.692h-24.692z" fill="#3b3b3b"/><path d="m256 231.45-69.844 69.844 69.844 69.833 69.832-69.833z" fill="#a8eb58"/><path d="m256 231.45v139.677l69.832-69.833z" fill="#80cf8c"/><path d="m256 437.101c-35.193 0-61.73 15.927-61.73 37.038s26.537 37.861 61.73 37.861 61.73-16.75 61.73-37.861-26.537-37.038-61.73-37.038z" fill="#e05352"/><path d="m317.73 474.139c0-21.111-26.537-37.038-61.73-37.038v74.899c35.193 0 61.73-16.75 61.73-37.861z" fill="#e05352"/><path d="m256 140.796h-12.346v24.692h12.346 12.346v-24.692z" fill="#535564"/><path d="m256 140.796h12.346v24.692h-12.346z" fill="#3b3b3b"/><path d="m466.706 401.404v-63.071h-124.284v74.076h116.237c2.778-3.594 5.46-7.263 8.047-11.005z" fill="#e38d22"/><path d="m436.938 437.101h-94.515v59.929c35.892-12.871 68.079-33.518 94.515-59.929z" fill="#e38d22"/><path d="m45.294 401.404c2.587 3.742 5.269 7.412 8.046 11.005h116.237v-74.076h-124.283z" fill="#f3d37a"/><path d="m169.578 412.409h-62.142v-74.076h62.142z" fill="#efc142"/><path d="m169.578 497.03v-59.929h-94.516c26.435 26.411 58.624 47.058 94.516 59.929z" fill="#f3d37a"/><path d="m107.436 464.502c18.953 13.529 39.833 24.528 62.142 32.528v-59.929h-62.142z" fill="#efc142"/></g></g></svg>