<svg id="Capa_1" enable-background="new 0 0 512.002 512.002" height="512" viewBox="0 0 512.002 512.002" width="512" xmlns="http://www.w3.org/2000/svg"><g><g><path d="m512.001 256c0 141.387-114.613 256-256 256s-256-114.613-256-256 114.613-256 256-256 256 114.613 256 256zm0 0" fill="#ff0f47"/><path d="m512.001 256c0 26.051-3.891 51.191-11.129 74.871-5.031 16.469-11.672 32.231-19.75 47.109-8.25 15.2-147.391 19.764-225.121 19.764s-216.871-4.564-225.109-19.764c-3.289-6.031-6.332-12.21-9.121-18.531-14-31.629-21.77-66.629-21.77-103.449 0-46.219 12.25-89.57 33.68-127 44.121 77.07 127.16 129 222.32 129s178.211-51.93 222.32-129c21.43 37.43 33.68 80.781 33.68 127zm0 0" fill="#ba1956"/><path d="m481.263 377.699c-7.16 13.223-15.434 25.742-24.723 37.43-8.437 10.633-17.719 20.57-27.719 29.723-45.539 41.699-106.211 67.148-172.82 67.148s-127.281-25.449-172.82-67.148c-10-9.153-19.282-19.09-27.719-29.723-9.289-11.688-17.563-24.207-24.723-37.43zm0 0" fill="#742466"/></g><g><path d="m256.001 283.487-57.129 114.258 57.129 114.258c63.103 0 114.258-51.155 114.258-114.258s-51.156-114.258-114.258-114.258z" fill="#ff903d"/><path d="m141.743 397.744c0 63.103 51.155 114.258 114.258 114.258v-228.515c-63.103 0-114.258 51.154-114.258 114.257z" fill="#ffb03b"/><path d="m256.001 329.19-34.277 68.555 34.277 68.555c37.862 0 68.555-30.693 68.555-68.555s-30.694-68.555-68.555-68.555z" fill="#ffb03b"/><path d="m187.446 397.744c0 37.862 30.693 68.555 68.555 68.555v-137.109c-37.862 0-68.555 30.693-68.555 68.554z" fill="#ffc46c"/><path d="m187.446 397.744c0 37.862 30.693 68.555 68.555 68.555-45.703 0-45.703-137.109 0-137.109-37.862 0-68.555 30.693-68.555 68.554z" fill="#ffd391"/><path d="m118.891 122.002v61.789l60.938 53.992 76.172 22.852-57.129-138.633z" fill="#ff415d"/><path d="m157.251 122.002h-38.36v61.789l38.36 33.988z" fill="#ff6b80"/><path d="m313.129 122.002-57.128 138.633 76.171-22.852 60.938-53.992v-61.789z" fill="#6c3beb"/><path d="m256.001 122.002-57.129 138.633h114.257v-138.633z" fill="#8bfff4"/><path d="m198.872 122.002h57.129v138.633h-57.129z" fill="#fff"/><path d="m332.172 237.783h-76.172l-15.234 22.852 15.234 22.852h76.172c12.621 0 22.852-10.231 22.852-22.852s-10.231-22.852-22.852-22.852z" fill="#ff7040"/><path d="m179.829 237.783c-12.62 0-22.852 10.231-22.852 22.852s10.231 22.852 22.852 22.852h76.172v-45.703h-76.172z" fill="#ffab6b"/><path d="m216.954 237.783c-12.62 0-22.852 10.231-22.852 22.852s10.231 22.852 22.852 22.852h39.047v-45.703h-39.047z" fill="#ff903d"/></g><g fill="#fff"><path d="m89.778 238.166h-1.524c-6.754 0-12.226-5.477-12.226-12.227v-1.523h-8.715v1.523c0 6.75-5.477 12.227-12.227 12.227h-1.527v8.715h1.527c6.75 0 12.227 5.472 12.227 12.226v1.528h8.715v-1.528c0-6.754 5.472-12.226 12.226-12.226h1.524zm0 0"/><path d="m125.997 316.141h-1.524c-6.754 0-12.226-5.477-12.226-12.227v-1.523h-8.715v1.523c0 6.75-5.477 12.227-12.227 12.227h-1.527v8.715h1.527c6.75 0 12.227 5.472 12.227 12.226v1.528h8.715v-1.528c0-6.754 5.472-12.226 12.226-12.226h1.524zm0 0"/><path d="m429.329 316.141h-1.524c-6.754 0-12.226-5.477-12.226-12.227v-1.523h-8.715v1.523c0 6.75-5.477 12.227-12.227 12.227h-1.527v8.715h1.527c6.75 0 12.227 5.472 12.227 12.226v1.528h8.715v-1.528c0-6.754 5.472-12.226 12.226-12.226h1.524zm0 0"/><path d="m452.001 238.166h-1.524c-6.754 0-12.226-5.477-12.226-12.227v-1.523h-8.715v1.523c0 6.75-5.477 12.227-12.227 12.227h-1.527v8.715h1.527c6.75 0 12.227 5.472 12.227 12.226v1.528h8.715v-1.528c0-6.754 5.472-12.226 12.226-12.226h1.524zm0 0"/></g></g></svg>