<svg id="Layer_1" enable-background="new 0 0 512 512" height="512" viewBox="0 0 512 512" width="512" xmlns="http://www.w3.org/2000/svg"><g><path d="m465.807 393.575c22.336-36.943 35.195-80.258 35.195-126.578 0-135.311-109.691-245.003-245.002-245.003s-245.002 109.691-245.002 245.003c0 46.32 12.859 89.634 35.195 126.578z" fill="#73c3f9"/><path d="m466.398 99.02c-1.556-2.6-3.156-5.17-4.804-7.707h-411.188c-1.648 2.537-3.249 5.106-4.804 7.707v293.555c42.783 71.527 120.992 119.425 210.398 119.425s167.615-47.898 210.398-119.424z" fill="#e9efff"/><path d="m133.176 93.439 1.51-2.126h-84.28c-1.648 2.537-3.249 5.106-4.804 7.707v293.555c26.078 43.599 65.319 78.418 112.234 98.962-13.479-21.038-8.343-43.182-8.343-43.182l-25.646-243.295c-21.735-25.165-13.119-46.87-5.801-57.806 3.181-4.753 4-10.757 1.929-16.087-10.054-25.872 13.201-37.728 13.201-37.728z" fill="#d3dcfb"/><g><path d="m186.907 187.343c122.949 149.757 183.795 5.833 257.572 79.61 7.538 7.537 14.836 14.124 21.92 19.829v-195.469h-420.797v46.016c26.96-8.494 86.836-16.332 141.305 50.014z" fill="#ffdd40"/></g><path d="m45.602 137.33c16.119-5.079 44.004-9.917 75.464 1.188.177-2.47-.169-4.977-1.091-7.35-10.055-25.872 13.201-37.728 13.201-37.728l1.51-2.126h-89.084z" fill="#ffc839"/><path d="m307.83 320.158h57.175v23.843h-57.175z" fill="#ffe98d" transform="matrix(.707 -.707 .707 .707 -136.281 335.147)"/><path d="m429.33 0h-346.66c-20.387 0-37.068 16.681-37.068 37.069v24.404h420.797v-24.404c-.001-20.388-16.681-37.069-37.069-37.069z" fill="#2a428c"/><path d="m157.295 0h-74.625c-20.387 0-37.068 16.681-37.068 37.069v24.404h110.288l1.404-1.976c-9.636-8.007 0-16.811 0-16.811v-23.899c-11.35-8.229.001-18.787.001-18.787z" fill="#1c2e7a"/><path d="m350.354 429.105-220.855-220.856c-6.813-6.813-18.461-1.988-18.461 7.647v220.856c0 5.973 4.842 10.814 10.815 10.814h220.855c9.634 0 14.459-11.648 7.646-18.461zm-193.899-26.956v-102.714l102.714 102.714z" fill="#ffc839"/><path d="m187.073 206.335 11.702 26.177 1.522 1.522c-.558-2.986.315-6.187 2.626-8.497 3.721-3.721 9.755-3.721 13.476 0-3.721-3.721-3.721-9.755 0-13.476s9.755-3.722 13.476 0c-3.721-3.721-3.721-9.755 0-13.476 2.31-2.311 5.512-3.184 8.497-2.626l-1.522-1.522-26.177-11.702z" fill="#ffe98d"/><path d="m322.849 336.341h57.175v21.513h-57.175z" fill="#ffdd40" transform="matrix(.707 -.707 .707 .707 -142.502 350.166)"/><path d="m338.386 374.476 1.631 1.631c11.164 11.164 29.264 11.164 40.428 0s11.164-29.264 0-40.428l-1.631-1.631z" fill="#ff4155"/><path d="m174.87 179.039 12.693 28.393 24.207-24.207-28.393-12.693c-5.396-2.412-10.919 3.111-8.507 8.507z" fill="#3c58a0"/><g><path d="m314.852 423.633c-3.113-3.113-3.113-8.16 0-11.273l9.093-9.093c3.113-3.114 8.16-3.113 11.273-.001 3.113 3.113 3.113 8.16 0 11.273l-9.093 9.093c-3.112 3.113-8.159 3.114-11.273.001z" fill="#ffb332"/></g><g><path d="m291.96 400.74c-3.113-3.113-3.113-8.16 0-11.273l9.093-9.093c3.113-3.114 8.16-3.113 11.273-.001 3.113 3.113 3.113 8.16 0 11.273l-9.092 9.093c-3.114 3.113-8.16 3.114-11.274.001z" fill="#ffb332"/></g><g><path d="m269.067 377.846c-3.113-3.113-3.113-8.16 0-11.273l9.093-9.092c3.113-3.113 8.16-3.112 11.273.001s3.113 8.16 0 11.273l-9.092 9.092c-3.115 3.112-8.161 3.113-11.274-.001z" fill="#ffb332"/></g><g><path d="m246.174 354.953c-3.113-3.113-3.113-8.16 0-11.273l9.093-9.092c3.113-3.113 8.16-3.112 11.273.001s3.113 8.16 0 11.273l-9.092 9.092c-3.114 3.112-8.161 3.113-11.274-.001z" fill="#ffb332"/></g><g><path d="m223.281 332.062c-3.113-3.113-3.113-8.16 0-11.273l9.092-9.093c3.113-3.114 8.16-3.113 11.273-.001 3.113 3.113 3.113 8.16 0 11.273l-9.093 9.093c-3.111 3.113-8.158 3.114-11.272.001z" fill="#ffb332"/></g><path d="m360.476 167.472h-11.624v-11.623c0-4.403-3.569-7.971-7.971-7.971s-7.971 3.568-7.971 7.971v11.623h-11.624c-4.402 0-7.971 3.568-7.971 7.971s3.569 7.971 7.971 7.971h11.624v11.625c0 4.403 3.569 7.971 7.971 7.971s7.971-3.568 7.971-7.971v-11.625h11.624c4.402 0 7.971-3.568 7.971-7.971s-3.568-7.971-7.971-7.971z" fill="#ff4155"/><path d="m414.563 175.443 8.219-8.219c3.113-3.114 3.113-8.16 0-11.274-3.113-3.112-8.16-3.112-11.273 0l-8.22 8.22-8.22-8.22c-3.113-3.112-8.16-3.112-11.273 0-3.113 3.114-3.113 8.16 0 11.274l8.219 8.219-8.219 8.219c-3.113 3.114-3.113 8.16 0 11.274 3.114 3.113 8.16 3.112 11.273 0l8.22-8.22 8.22 8.22c3.114 3.113 8.16 3.112 11.273 0 3.113-3.114 3.113-8.16 0-11.274z" fill="#ff4155"/><g><path d="m360.476 238.454h-39.19c-4.402 0-7.971-3.568-7.971-7.971s3.569-7.971 7.971-7.971h39.19c4.402 0 7.971 3.568 7.971 7.971s-3.568 7.971-7.971 7.971z" fill="#ff4155"/></g><g><path d="m405.719 224.598h-4.859c-4.402 0-7.971-3.568-7.971-7.971s3.569-7.971 7.971-7.971h4.859c4.402 0 7.971 3.568 7.971 7.971s-3.568 7.971-7.971 7.971z" fill="#ff4155"/></g><g><path d="m405.719 252.31h-4.859c-4.402 0-7.971-3.568-7.971-7.971s3.569-7.971 7.971-7.971h4.859c4.402 0 7.971 3.568 7.971 7.971s-3.568 7.971-7.971 7.971z" fill="#ff4155"/></g><path d="m103.168 30.736c0 6.599-5.35 11.95-11.949 11.95-6.6 0-11.949-5.35-11.949-11.95 0-6.599 5.35-11.949 11.949-11.949s11.949 5.35 11.949 11.949z" fill="#ff4155"/><path d="m136.206 30.736c0 6.599-5.35 11.95-11.949 11.95s-11.95-5.35-11.95-11.95c0-6.599 5.35-11.949 11.95-11.949 6.599 0 11.949 5.35 11.949 11.949z" fill="#ffdd40"/><path d="m169.244 30.736c0 6.599-5.35 11.95-11.949 11.95s-11.949-5.35-11.949-11.95c0-6.599 5.35-11.949 11.949-11.949s11.949 5.35 11.949 11.949z" fill="#38c674"/><g><path d="m328.383 38.708h-119.898c-4.402 0-7.971-3.568-7.971-7.971s3.569-7.971 7.971-7.971h119.899c4.402 0 7.971 3.568 7.971 7.971s-3.569 7.971-7.972 7.971z" fill="#3c58a0"/></g><g><path d="m425.781 38.708h-10.39c-4.402 0-7.971-3.568-7.971-7.971s3.569-7.971 7.971-7.971h10.39c4.402 0 7.971 3.568 7.971 7.971s-3.569 7.971-7.971 7.971z" fill="#3c58a0"/></g><g><path d="m389.659 38.708h-10.39c-4.402 0-7.971-3.568-7.971-7.971s3.569-7.971 7.971-7.971h10.39c4.402 0 7.971 3.568 7.971 7.971s-3.568 7.971-7.971 7.971z" fill="#3c58a0"/></g><path d="m167.118 59.497c0 18.746-15.197 33.942-33.942 33.942h333.222v-33.942z" fill="#e9efff"/><path d="m45.602 59.497v33.942h89.7c18.746 0 33.942-15.197 33.942-33.942z" fill="#73c3f9"/><path d="m201.401 224.015c-3.721 3.721-3.721 9.755 0 13.476l107.445 107.445 13.476-13.476-107.445-107.445c-3.721-3.721-9.755-3.721-13.476 0z" fill="#1e9ef4"/><path d="m214.877 210.539c-3.721 3.721-3.721 9.755 0 13.476l107.445 107.445 13.476-13.476-107.445-107.445c-3.721-3.722-9.755-3.722-13.476 0z" fill="#4fabf7"/><path d="m228.353 197.063c-3.721 3.721-3.721 9.755 0 13.476l107.445 107.445 13.476-13.476-107.445-107.445c-3.721-3.722-9.755-3.722-13.476 0z" fill="#73c3f9"/><path d="m111.038 215.896v220.856c0 5.973 4.841 10.814 10.814 10.814h27.084c-19.276-27.533 7.519-45.417 7.519-45.417v-102.714l28.414 28.414c-3.42-20.313 15.52-18.681 15.52-18.681l15.014-15.015-85.904-85.905c-6.813-6.811-18.461-1.986-18.461 7.648z" fill="#ffb332"/><g><path d="m200.389 309.169c-3.113-3.113-3.113-8.16 0-11.273l9.092-9.093c3.113-3.114 8.16-3.113 11.273-.001 3.113 3.113 3.113 8.16 0 11.273l-9.092 9.093c-3.113 3.113-8.159 3.114-11.273.001z" fill="#ff9100"/></g><g><path d="m177.496 286.275c-3.113-3.113-3.113-8.16 0-11.272l9.092-9.092c3.113-3.111 8.161-3.113 11.273.001 3.113 3.113 3.113 8.16 0 11.273l-9.092 9.092c-3.113 3.111-8.16 3.112-11.273-.002z" fill="#ff9100"/></g><g><path d="m154.604 263.382c-3.113-3.113-3.113-8.16 0-11.273l9.092-9.092c3.113-3.113 8.161-3.112 11.273.001 3.113 3.113 3.113 8.16 0 11.273l-9.092 9.092c-3.114 3.112-8.161 3.113-11.273-.001z" fill="#ff9100"/></g><g><path d="m131.711 240.491c-3.113-3.113-3.113-8.16 0-11.273l9.093-9.093c3.113-3.114 8.16-3.113 11.273-.001 3.113 3.113 3.113 8.16 0 11.273l-9.092 9.093c-3.114 3.114-8.161 3.114-11.274.001z" fill="#ff9100"/></g></g></svg>