<svg height="512" viewBox="0 0 512 512" width="512" xmlns="http://www.w3.org/2000/svg"><g id="BULINE"><circle cx="256" cy="256" fill="#3586cb" r="256"/></g><g id="Icons"><path d="m44.08 65.21h422.92a10.61 10.61 0 0 1 10.61 10.61v296a0 0 0 0 1 0 0h-444.14a0 0 0 0 1 0 0v-296a10.61 10.61 0 0 1 10.61-10.61z" fill="#9e4830"/><path d="m65.2 88.51h380.67a9 9 0 0 1 9 9v274.3a0 0 0 0 1 0 0h-398.71a0 0 0 0 1 0 0v-274.27a9 9 0 0 1 9.04-9.03z" fill="#27273d"/><path d="m454.9 333.76v38.09h-398.74v-274.26a9 9 0 0 1 9-9h30.75v181.41a63.79 63.79 0 0 0 63.78 63.78z" fill="#1d1d2d"/><ellipse cx="431.59" cy="115.99" fill="#4f4f74" rx="9.66" ry="15.71"/><ellipse cx="431.59" cy="149.98" fill="#4f4f74" rx="7.83" ry="12.72"/><path d="m485.39 369.77a254.59 254.59 0 0 1 -16.7 28.74q-5.54 8.25-11.68 16h-402.01q-6.14-7.77-11.68-16a255.47 255.47 0 0 1 -16.89-29.11 10.17 10.17 0 0 1 4.06-.84h450.08a10.19 10.19 0 0 1 4.82 1.21z" fill="#a65c3b"/><path d="m468.69 398.51q-5.54 8.25-11.68 16c-.38.49-.77 1-1.16 1.46h-399.7c-.39-.49-.78-1-1.16-1.46q-6.14-7.77-11.68-16z" fill="#9e4830"/><g fill="#fff"><path d="m155.06 248.1c-1.91 0-4.78.18-8.62.52s-6.72.53-8.67.53h-8q-6.1-.39-7-2.48c-.37-.81-.55-2.61-.55-5.4 0-2.09 0-3.23.06-3.41.25-.74 1.13-1.1 2.64-1.1h5.84q11.18 0 14.31.33l5 .55c1.07 0 1.6-.37 1.6-1.1a86.48 86.48 0 0 1 .44-8.81q.89-8.55 1-8.55c0-.76-.47-1.15-1.31-1.15a28.68 28.68 0 0 0 -3 .22l-3 .28q-7.11.39-14.05.38c-.69 0-1.58 0-2.64.09s-1.78.08-2.15.08c-1.76 0-3-.35-3.58-1.05s-1.1-2.46-1.1-4.95a16.79 16.79 0 0 1 .28-4.24c.44-.92 1.63-1.38 3.58-1.38q11.67 0 26.32 1.21c.55 0 .94.06 1.16.06.73 0 1.1-.39 1.1-1.16s-.2-3.51-.58-7.79-.67-6.84-.86-7.68c-.29-1.44-1.39-2.15-3.3-2.15q-4 0-12.11.22t-12.12.22q-4.08 0-12.25-.22t-12.4-.17q-1.5 0-1.38 1.26v.78q.45 8.74.61 13.16.66 17.13.66 23.4t-.69 18.53q-.69 12.36-.69 18.53c0 1.07.61 1.6 1.82 1.6q4.18 0 12.56.06t12.61.05q19.44 0 23.46.55a13.68 13.68 0 0 0 1.65.17 2.06 2.06 0 0 0 1.82-1.05q.76-1.32 1.76-8.21a72 72 0 0 0 .93-8.7c.05-1.37-.35-2.03-1.16-2.03z"/><path d="m208.15 215.89q-3.69 0-11.15.16c-5 .11-8.69.17-11.15.17s-5.95-.1-10.69-.28-8.28-.27-10.63-.27a1.24 1.24 0 0 0 -1.26.88c-.11 2.13-.19 4.13-.22 6-.3 3.34-.44 5.18-.44 5.51q0 1.92 1 1.92 3.36 0 10.13-.22c4.52-.14 7.91-.22 10.19-.22q20 0 23.24.55a2.23 2.23 0 0 0 .44.11c.44 0 .7-.29.77-.88a82.38 82.38 0 0 0 .72-12.33c-.01-.74-.33-1.1-.95-1.1zm.11 21c-2.5 0-6.23 0-11.21.16s-8.71.17-11.2.17-5.95-.09-10.69-.28-8.28-.27-10.63-.27a1.24 1.24 0 0 0 -1.26.88q-.17 3.3-.11 6c0 .51-.15 1.45-.33 2.81a24.31 24.31 0 0 0 -.22 2.81c0 1.14.33 1.7 1 1.7q3.36 0 10.13-.27c4.52-.18 7.91-.28 10.19-.28q11.9 0 23.24.55l.55.06q.43 0 .66-.72c0-.07.18-2 .44-5.89s.39-6 .39-6.33c-.01-.76-.33-1.12-.95-1.12z"/><path d="m305.24 244.3q0-2.91.16-8.78t.17-8.79q0-7-5.18-10.84-4.58-3.36-11.84-3.36a21.44 21.44 0 0 0 -10 2.69 23.19 23.19 0 0 0 -8 6.67 11.75 11.75 0 0 0 -5.78-7.11 18 18 0 0 0 -9-2.25 21.07 21.07 0 0 0 -9.2 2 52.77 52.77 0 0 0 -7.82 5.29 5.39 5.39 0 0 1 -1.26.77c-.26 0-.41-1.27-.45-3.83s-.4-3.82-1.1-3.82a16.46 16.46 0 0 0 -4.35.77c-2.53.7-4 1.08-4.35 1.15s-2.15.24-4.9.5a18.85 18.85 0 0 0 -4.57.83 1.25 1.25 0 0 0 -.77 1.26 7.1 7.1 0 0 0 .11 1 176.7 176.7 0 0 1 1.32 20.32q0 4.41 0 13.19t-.06 13.19a3.06 3.06 0 0 0 .25 1.65c.16.19.69.32 1.57.39q4.41.33 7.87.33 5.34 0 7.82-.22a3.08 3.08 0 0 0 1.71-.44 2.75 2.75 0 0 0 .33-1.71q0-4.95-.05-14.92t-.06-15c0-1.5 1-2.94 3.08-4.3a9.68 9.68 0 0 1 5.11-1.83q6 0 6 7.88c0 1.39 0 3.47.11 6.22s.11 4.81.11 6.17q0 2.64-.17 7.82t-.16 7.76c0 1.51.51 2.26 1.54 2.26h16.69c1.06 0 1.59-.61 1.59-1.82q0-2.64-.16-7.9c-.11-3.51-.17-6.12-.17-7.85q0-11.23.22-13.54a7.33 7.33 0 0 1 2.84-4.82 8 8 0 0 1 5.15-2.18q5.89 0 6.22 6.56.22 4.07.22 13.71 0 2.53-.16 7.57t-.17 7.57q0 2.37 1.65 2.7a60.31 60.31 0 0 0 8.37.33q6.5 0 8.15-.22c1.1-.15 1.66-.86 1.66-2.15q0-3.46-.17-10.43t-.12-10.44z"/><path d="m352.93 248.38s-.95.45-2.87 1.23a14.54 14.54 0 0 1 -5.45 1.24 11.92 11.92 0 0 1 -8.32-2.89 10.17 10.17 0 0 1 -3.19-8 10.64 10.64 0 0 1 2.92-7.85 10.48 10.48 0 0 1 7.82-2.95 21.78 21.78 0 0 1 5.31.88c2.19.59 3.3.88 3.33.88.33 0 .65-.38 1-1.15s1-3 2-6.72a53.92 53.92 0 0 0 1.65-6.5c0-.48-.48-1-1.43-1.49a28.88 28.88 0 0 0 -14.43-3.52q-12.06 0-20 8.23a28.19 28.19 0 0 0 -7.9 20.3q0 12.16 7.87 20.32t20 8.15a42.12 42.12 0 0 0 8.54-1.16q6.82-1.49 6.82-3.58a56 56 0 0 0 -1.26-8.48q-1.46-6.91-2.41-6.94z"/><path d="m410.16 197.51q-6.07 0-16.78.54 15.09-13.31 15.09-23.27a12.94 12.94 0 0 0 -6.25-11.53c-3.52-2.32-7.91-3.47-13.14-3.47a42.1 42.1 0 0 0 -10 1.24 26.65 26.65 0 0 0 -9.18 3.84 1.34 1.34 0 0 0 -.7 1 7.16 7.16 0 0 0 .5 2.15 19.18 19.18 0 0 1 .61 2.24 23.2 23.2 0 0 1 .21 3.72q0 3.3 1.41 3.3a13 13 0 0 0 2.27-1.27 23.65 23.65 0 0 1 4.59-2.4 17.35 17.35 0 0 1 6.57-1.32 7.11 7.11 0 0 1 5.06 2 6.5 6.5 0 0 1 2.13 4.93q0 3.39-5.58 10.17a66.14 66.14 0 0 1 -8.55 8.89c-.78.64-2.51 1.13-5.21 1.49-2.32.3-3.47.76-3.47 1.36a39.54 39.54 0 0 0 1 4.84c.33 1.85.54 3.24.62 4.17a1.07 1.07 0 0 0 1.2 1c2.06 0 5.22-.12 9.46-.35s7.43-.36 9.55-.36q10.29 0 14.06.83a35.51 35.51 0 0 0 3.88.79c.91 0 1.36-.35 1.36-1s0-1.74.05-3.16 0-2.46 0-3.12.07-1.63.2-2.89a28.52 28.52 0 0 0 .21-2.86c.07-1.01-.33-1.5-1.17-1.5z"/></g><path d="m359.84 322.14h71.41a10 10 0 0 1 10 10v36.42a0 0 0 0 1 0 0h-91.4a0 0 0 0 1 0 0v-36.42a10 10 0 0 1 9.99-10z" fill="#f6c752"/><path d="m441.25 352.1v16.46h-91.4v-36.42a10 10 0 0 1 10-10h7.56v8.76a21.2 21.2 0 0 0 21.2 21.2z" fill="#f7bb38"/><circle cx="419.12" cy="339.61" fill="#f7bb38" r="6.43"/><circle cx="386.32" cy="334.26" fill="#f7bb38" r="6.43"/><rect fill="#fff" height="11.89" rx="4.42" width="52.13" x="67.74" y="356.84"/></g></svg>