<svg id="Capa_1" enable-background="new 0 0 512 512" height="512" viewBox="0 0 512 512" width="512" xmlns="http://www.w3.org/2000/svg"><g><g><path d="m0 256c0 43.79 11 85.02 30.39 121.07l225.61 49.67 225.61-49.67c19.39-36.05 30.39-77.28 30.39-121.07 0-46.63-12.47-90.34-34.26-128-41.698 72.091-399.22 76.52-443.48 0-21.79 37.66-34.26 81.37-34.26 128z" fill="#9865d8"/><path d="m34.26 128c44.26 76.52 126.99 128 221.74 128s177.48-51.48 221.74-128c-.01-.02-.03-.05-.04-.07-44.27-76.48-126.98-127.93-221.7-127.93s-177.43 51.45-221.7 127.93c-.01.02-.03.05-.04.07z" fill="#b895e4"/><path d="m30.39 377.07c43.19 80.32 128.02 134.93 225.61 134.93s182.42-54.61 225.61-134.93z" fill="#5541b5"/></g><path d="m444.416 390.39h-46.025v-20h46.025c14.995 0 27.194-12.199 27.194-27.194s-12.199-27.194-27.194-27.194h-10.325c-22.566 0-40.925-18.359-40.925-40.925s18.358-40.925 40.925-40.925c12.062 0 21.877-9.814 21.877-21.877v-39.731h20v39.731c0 23.091-18.786 41.877-41.877 41.877-11.538 0-20.925 9.387-20.925 20.925s9.387 20.925 20.925 20.925h10.325c26.023 0 47.194 21.171 47.194 47.194s-21.171 47.194-47.194 47.194z" fill="#78cd8a"/><path d="m81.23 371.03 6.765 9.68-6.765 9.68h-28.37z" fill="#d75e91"/><g><path d="m412.54 365.8v24.59h-331.31v-19.36l148.86-101.6c21.02-14.35 44.07-20.71 66.5-20.49 60.21.56 115.95 48.54 115.95 116.86z" fill="#a8ea58"/><path d="m123.175 353.39c0 12.853 10.42 23.273 23.273 23.273s23.273-10.42 23.273-23.273" fill="#d75e91"/><path d="m179.721 346.95c18.688 0 33.837-15.149 33.837-33.837s-15.149-33.837-33.837-33.837z" fill="#78cd8a"/></g><path d="m412.54 365.8v24.59h-115.95v-141.45c60.21.56 115.95 48.54 115.95 116.86z" fill="#78cd8a"/><g><path d="m286.59 138.07h20v52.5h-20z" fill="#cbff8d"/></g><g><path d="m209.26 151.644h20v52.561h-20z" fill="#cbff8d" transform="matrix(.94 -.342 .342 .94 -47.637 85.74)"/></g><g><path d="m141.276 190.958h20v52.504h-20z" fill="#cbff8d" transform="matrix(.766 -.643 .643 .766 -104.23 148.061)"/></g><g><path d="m90.79 251.075h20v52.539h-20z" fill="#cbff8d" transform="matrix(.5 -.866 .866 .5 -189.792 225.956)"/></g></g></svg>