<svg id="Capa_1" enable-background="new 0 0 512 512" height="512" viewBox="0 0 512 512" width="512" xmlns="http://www.w3.org/2000/svg"><g><g><g><g><g><g><g><g><circle cx="256" cy="256" fill="#ffce00" r="256"/></g></g></g></g></g></g></g><path d="m512 256c0-21.29-2.599-41.972-7.497-61.748l-78.44-78.441-340.126 281.484 106.837 106.837c20.223 5.138 41.406 7.868 63.226 7.868 141.385 0 256-114.615 256-256z" fill="#ffa300"/><g><path d="m85.937 115.812h340.126v56.688h-340.126z" fill="#7584f2"/></g><g><path d="m256 115.812h170.063v56.688h-170.063z" fill="#606aea"/></g><g><path d="m85.937 171.196h340.126v226.099h-340.126z" fill="#fff"/></g><g><path d="m256 171.196h170.063v226.099h-170.063z" fill="#e9edf5"/></g><g><circle cx="395.121" cy="144.156" fill="#354cbc" r="15"/></g><g><circle cx="346.253" cy="144.156" fill="#354cbc" r="15"/></g><g><path d="m186.179 320.536v-6.896c-4.31 5.172-12.643 8.62-21.549 8.62-10.631 0-23.848-7.183-23.848-22.842 0-16.809 13.217-22.268 23.848-22.268 9.194 0 17.383 2.873 21.549 8.045v-8.333c0-6.034-5.172-10.056-14.079-10.056-6.895 0-14.079 2.586-19.682 7.327l-7.901-13.935c8.907-7.614 20.831-10.774 31.462-10.774 16.665 0 32.324 6.177 32.324 27.727v43.386h-22.124zm0-17.814v-6.178c-2.299-3.16-7.471-4.884-12.355-4.884-5.89 0-11.062 2.586-11.062 8.045 0 5.46 5.172 8.045 11.062 8.045 4.884 0 10.056-1.724 12.355-5.028z" fill="#555a66"/><path d="m269.36 320.536-13.36-20.975-13.504 20.975h-24.135l23.704-35.628-22.268-33.761h24.279l11.924 18.82 11.78-18.82h24.279l-22.124 33.761 23.704 35.628z" fill="#ff6c52"/><path d="m293.639 320.536-23.704-35.628 22.124-33.761h-24.279l-11.78 18.82v29.594l13.36 20.975z" fill="#ff432e"/><path d="m300.991 320.536v-95.822h22.124v34.622c5.459-6.896 12.93-9.913 20.544-9.913 17.239 0 30.6 13.648 30.6 36.346 0 23.561-13.504 36.49-30.6 36.49-7.758 0-14.797-3.161-20.544-9.769v8.045h-22.124zm35.341-17.814c8.763 0 15.372-6.465 15.372-16.952 0-10.344-6.608-16.809-15.372-16.809-4.741 0-10.487 2.586-13.217 6.321v21.262c2.729 3.736 8.476 6.178 13.217 6.178z" fill="#333940"/></g></g></svg>