<svg id="Capa_1" enable-background="new 0 0 512 512" height="512" viewBox="0 0 512 512" width="512" xmlns="http://www.w3.org/2000/svg"><g><g><path d="m256 300.323c-141.387 0-243.753-133.895-222.328-171.323 44.119-77.069 127.158-128.999 222.328-128.999s178.209 51.93 222.328 128.999c21.425 37.428-80.941 171.323-222.328 171.323z" fill="#b196e7"/><path d="m512 256.001c0 26.051-3.891 51.191-11.129 74.871-5.031 16.469-11.672 32.231-19.75 47.109-8.25 15.2-147.391 54.974-225.121 54.974s-216.871-39.774-225.109-54.974c-3.289-6.031-6.332-12.21-9.121-18.531-14-31.629-21.77-66.629-21.77-103.449 0-46.219 12.25-89.57 33.68-127 44.121 77.07 127.16 129 222.32 129s178.211-51.93 222.32-129c21.43 37.43 33.68 80.781 33.68 127zm0 0" fill="#8d69db"/><path d="m481.262 377.7c-7.16 13.223-15.434 25.742-24.723 37.43-8.437 10.633-17.719 20.57-27.719 29.723-31.501 28.845-70.243 49.914-113.182 60.162-19.135 4.567-99.724 4.617-118.678.142-43.178-10.195-82.133-31.326-113.78-60.304-10-9.153-19.282-19.09-27.719-29.723-9.289-11.688-17.563-24.207-24.723-37.43zm0 0" fill="#5541b6"/></g><g><path d="m125.16 225.737h-23.789v-11.895c0-32.791 26.681-59.473 59.473-59.473h11.895v23.789h-11.895c-19.677 0-35.683 16.007-35.683 35.684v11.895z" fill="#8ab8ec"/><path d="m410.629 225.737h-23.789v-11.895c0-19.677-16.007-35.684-35.684-35.684h-11.895v-23.788h11.895c32.791 0 59.473 26.681 59.473 59.473z" fill="#728ee4"/><path d="m172.738 487.417h-11.895c-32.791 0-59.473-26.681-59.473-59.473v-11.894h23.789v11.895c0 19.677 16.007 35.684 35.683 35.684h11.895v23.788z" fill="#8ab8ec"/><path d="m351.156 487.417h-11.895v-23.789h11.895c19.677 0 35.684-16.007 35.684-35.684v-11.894h23.789v11.895c0 32.791-26.682 59.472-59.473 59.472z" fill="#728ee4"/><path d="m256 178.159c19.677 0 35.684-16.007 35.684-35.684s-16.007-36.477-35.684-36.477-35.684 16.799-35.684 36.477c0 19.677 16.007 35.684 35.684 35.684z" fill="#fbf5eb"/><ellipse cx="256" cy="404.155" fill="#fbf5eb" rx="35.684" ry="35.684" transform="matrix(1 -.024 .024 1 -9.778 6.362)"/><g fill="#dce0ef"><path d="m291.684 142.475c0-19.677-16.007-36.477-35.684-36.477v72.16c19.677.001 35.684-16.006 35.684-35.683z"/><path d="m291.684 404.155c0-19.677-16.007-35.684-35.684-35.684v71.367c19.677.001 35.684-16.006 35.684-35.683z"/><path d="m256 178.159c-32.791 0-59.473 26.681-59.473 59.473v11.895h59.473 59.473v-11.895c0-32.792-26.682-59.473-59.473-59.473z"/><path d="m256 439.839c-32.791 0-59.473 26.681-59.473 59.473v5.73c19.033 4.528 38.884 6.944 59.299 6.958h.174.174c20.415-.013 40.267-2.429 59.299-6.958v-5.73c0-32.792-26.682-59.473-59.473-59.473z"/></g><path d="m315.473 237.632c0-32.791-26.681-59.473-59.473-59.473v71.367h59.473z" fill="#cad0e7"/><path d="m256 439.839v72.16h.174c20.415-.013 40.267-2.429 59.299-6.958v-5.73c0-32.791-26.682-59.472-59.473-59.472z" fill="#cad0e7"/><circle cx="113.266" cy="285.21" fill="#fbf5eb" r="35.684"/><path d="m148.949 285.21c0-19.677-16.007-35.684-35.684-35.684v71.367c19.678 0 35.684-16.006 35.684-35.683z" fill="#dce0ef"/><path d="m113.266 320.893c-32.792 0-60.266 26.682-60.266 59.473v11.895h60.266 59.473v-11.895c-.001-32.791-26.682-59.473-59.473-59.473z" fill="#dce0ef"/><path d="m172.738 380.366c0-32.791-26.681-59.473-59.473-59.473v71.367h59.473z" fill="#cad0e7"/><circle cx="398.734" cy="285.21" fill="#fbf5eb" r="35.684"/><path d="m434.418 285.21c0-19.677-16.007-35.684-35.684-35.684v71.367c19.677 0 35.684-16.006 35.684-35.683z" fill="#dce0ef"/><path d="m398.734 320.893c-32.791 0-59.473 26.681-59.473 59.473v11.895h59.473 60.266v-11.895c0-32.791-27.474-59.473-60.266-59.473z" fill="#dce0ef"/><path d="m459 380.366c0-32.791-27.474-59.473-60.266-59.473v71.367h60.266z" fill="#cad0e7"/></g><g fill="#fff"><path d="m384.268 89.639h-1.524c-6.754 0-12.226-5.477-12.226-12.227v-1.523h-8.715v1.523c0 6.75-5.477 12.227-12.227 12.227h-1.527v8.715h1.527c6.75 0 12.227 5.472 12.227 12.226v1.528h8.715v-1.528c0-6.754 5.472-12.226 12.226-12.226h1.524zm0 0"/><path d="m163.951 89.639h-1.524c-6.754 0-12.226-5.477-12.226-12.227v-1.523h-8.715v1.523c0 6.75-5.477 12.227-12.227 12.227h-1.527v8.715h1.527c6.75 0 12.227 5.472 12.227 12.226v1.528h8.715v-1.528c0-6.754 5.472-12.226 12.226-12.226h1.524zm0 0"/><path d="m270.305 42.939h-1.524c-6.754 0-12.226-5.477-12.226-12.227v-1.523h-8.715v1.523c0 6.75-5.477 12.227-12.227 12.227h-1.527v8.715h1.527c6.75 0 12.227 5.472 12.227 12.226v1.528h8.715v-1.528c0-6.754 5.472-12.226 12.226-12.226h1.524zm0 0"/></g></g></svg>