<svg id="Capa_1" enable-background="new 0 0 512 512" height="512" viewBox="0 0 512 512" width="512" xmlns="http://www.w3.org/2000/svg"><g><g><path d="m0 256c0 43.79 11 85.02 30.39 121.07l225.61 49.67 225.61-49.67c19.39-36.05 30.39-77.28 30.39-121.07 0-46.63-12.47-90.34-34.26-128-41.698 72.091-399.22 76.52-443.48 0-21.79 37.66-34.26 81.37-34.26 128z" fill="#8898e5"/><path d="m34.26 128c44.26 76.52 126.99 128 221.74 128s177.48-51.48 221.74-128c-.01-.02-.03-.05-.04-.07-44.27-76.48-126.98-127.93-221.7-127.93s-177.43 51.45-221.7 127.93c-.01.02-.03.05-.04.07z" fill="#a3b5eb"/><path d="m481.61 377.07c-30.61 56.92-82.13 100.93-144.29 121.74-8.62 2.89-17.427-17.108-26.437-15.148-5.01 1.1-10.985 17.765-16.105 18.555-12.93 2.02-22.862 1.918-36.352 1.918-13.23 0-28.646-.771-41.326-2.711-5.38-.82-10.71-4.004-15.98-5.154-9-1.96-17.82 5.43-26.44 2.54-62.16-20.81-113.68-64.82-144.29-121.74z" fill="#546bd9"/></g><g><g><g><g><g fill="#f3e9e0"><path d="m201.13 221.75h109.75v23.47h-109.75z"/><path d="m201.12 271.66h109.75v23.47h-109.75z"/></g></g><g><g><path d="m201.12 321.57h109.75v23.47h-109.75z" fill="#f3e9e0"/></g></g></g><g><g><g><path d="m201.12 90.01h109.75v23.48h-109.75z" fill="#f3e9e0"/></g></g></g><g><g><g fill="#f3e9e0"><path d="m201.13 446.35h109.75v23.48h-109.75z"/><path d="m310.87 496.27v9.83c-5.01 1.1-10.09 2.05-15.21 2.84-12.93 2.02-26.17 3.06-39.66 3.06-13.23 0-26.22-1-38.9-2.94-5.38-.82-10.71-1.81-15.98-2.96v-9.83z"/></g></g></g><g fill="#deba9f"><path d="m256 90.01h54.87v23.48h-54.87z"/><path d="m256 271.66h54.87v23.47h-54.87z"/><path d="m256 321.57h54.87v23.47h-54.87z"/><path d="m256 496.27h54.87v9.83c-5.01 1.1-10.09 2.05-15.21 2.84-12.93 2.02-26.17 3.06-39.66 3.06z"/><path d="m256 221.75h54.88v23.47h-54.88z"/><path d="m256 446.35h54.88v23.48h-54.88z"/></g><path d="m337.56 56.36c0 65.7-35.59 99.05-66.98 128.47-5.02 4.7-9.91 9.29-14.58 13.92-22.03 21.84-38.91 44.47-38.91 83.43h-42.65c0-65.69 35.59-99.04 66.98-128.47 5.02-4.7 9.91-9.29 14.58-13.91 22.03-21.84 38.91-44.47 38.91-83.44h42.65z" fill="#eebf36"/><path d="m270.58 184.83c-5.02 4.7-9.91 9.29-14.58 13.92v-58.95c22.03-21.84 38.91-44.47 38.91-83.44h42.65c0 65.7-35.59 99.05-66.98 128.47z" fill="#dd8051"/><path d="m337.56 282.14c0 42.71-15.04 71.75-34.2 94.93-10.3 12.47-21.79 23.25-32.78 33.54-5.02 4.7-9.91 9.29-14.58 13.92-22.03 21.85-38.91 44.48-38.91 83.45 0 .36 0 .72.01 1.08-14.58-2.22-28.76-5.67-42.42-10.25 3.14-59.7 36.84-91.28 66.74-119.31.87-.81 1.73-1.62 2.59-2.43 4.11-3.86 8.13-7.67 11.99-11.49 22.03-21.84 38.91-44.48 38.91-83.44 0-38.97-16.88-61.6-38.91-83.44-4.67-4.62-9.56-9.22-14.58-13.92-31.39-29.42-66.98-62.77-66.98-128.47h42.65c0 38.97 16.88 61.6 38.91 83.44 4.67 4.63 9.56 9.22 14.58 13.92 31.39 29.42 66.98 62.77 66.98 128.47z" fill="#d75e91"/><path d="m337.56 282.14c0 42.71-15.04 71.75-34.2 94.93-10.3 12.47-21.79 23.25-32.78 33.54-5.02 4.7-9.91 9.29-14.58 13.92v-58.95c22.03-21.84 38.91-44.48 38.91-83.44 0-38.97-16.88-61.6-38.91-83.44v-58.95c4.67 4.63 9.56 9.22 14.58 13.92 31.39 29.42 66.98 62.77 66.98 128.47z" fill="#bf2e70"/><path d="m337.32 498.81c-13.42 4.5-27.35 7.91-41.66 10.13l-.75-.94c0-38.96-16.88-61.59-38.91-83.43-4.67-4.63-9.56-9.22-14.58-13.92-11-10.3-22.51-21.09-32.81-33.58-19.15-23.17-34.17-52.2-34.17-94.89l26.7-20.2 15.95 20.2c0 38.97 16.88 61.6 38.91 83.44 3.84 3.81 7.84 7.6 11.94 11.45.88.82 1.76 1.64 2.64 2.47 29.89 28.02 63.59 59.6 66.74 119.27z" fill="#eebf36"/><path d="m337.32 498.81c-13.42 4.5-27.35 7.91-41.66 10.13l-.75-.94c0-38.96-16.88-61.59-38.91-83.43v-58.95c3.84 3.81 7.84 7.6 11.94 11.45.88.82 1.76 1.64 2.64 2.47 29.89 28.02 63.59 59.6 66.74 119.27z" fill="#dd8051"/></g></g></g></svg>