<svg id="Capa_1" enable-background="new 0 0 512.02 512.02" height="512" viewBox="0 0 512.02 512.02" width="512" xmlns="http://www.w3.org/2000/svg"><path d="m511.64 269.845c-3.59 66.34-32.14 125.42-76.04 168.6l-78.426 29.681c-73.749 27.91-155.468 26.01-227.84-5.298l-50.144-21.693c-52.13-49.83-83.01-121.28-78.81-198.95 1.71-31.71 9.13-61.75 21.2-89.2l.01-.01 40.47-64.06.01-.02c50.02-57.97 125.4-92.96 207.77-88.51 141.18 7.64 249.43 128.28 241.8 269.46z" fill="#fd4fb9"/><path d="m512.01 256.015c0 71.41-29.24 135.99-76.41 182.43h-.01l-78.415 29.678c-73.75 27.912-155.47 26.013-227.843-5.296l-50.122-21.682c-48.8-46.61-79.2-112.32-79.2-185.13 0-36.69 7.72-71.57 21.62-103.11l13.52-21.4c44.46 75.7 126.73 126.51 220.86 126.51 95.16 0 178.21-51.93 222.32-129 21.43 37.43 33.68 80.78 33.68 127z" fill="#ea39ab"/><path d="m381.54 190.415v288.74c-36.75 20.73-79.01 32.59-123.74 32.86h-3.32c-4.08-.02-8.19-.15-12.3-.37-63.51-3.43-120.37-29.75-162.99-70.51v-316.47h236.62z" fill="#fff"/><path d="m381.54 190.415v288.74c-34.71 19.58-74.33 31.25-116.31 32.7-2.47.09-4.95.14-7.43.16h-3.32c-4.08-.02-8.19-.15-12.3-.37-3.96-.21-7.9-.52-11.81-.91v-386.07h85.44z" fill="#d1f6ff"/><path d="m435.6 438.445c-16.11 15.86-34.29 29.57-54.06 40.71-34.71 19.58-74.33 31.25-116.31 32.7-2.47.09-4.95.14-7.43.16h-3.32c-4.08-.02-8.19-.15-12.3-.37-30.12-1.62-58.76-8.4-85.09-19.44 4.05-6.48 6.4-14.13 6.4-22.34v-31.42z" fill="#22d7ff"/><path d="m435.6 438.445c-16.11 15.86-34.29 29.57-54.06 40.71-34.71 19.58-74.33 31.25-116.31 32.7 21.56-1.86 38.48-19.95 38.48-41.99v-31.42z" fill="#00b3fe"/><path d="m381.537 190.416h-65.734v-65.753z" fill="#22d7ff"/><path d="m62.339 171.944-32.058 71.019 25.974-10.878 14.846 23.93 15.092-76.443z" fill="#ffce00"/><path d="m96.031 171.944 32.058 71.019-25.974-10.878-14.846 23.93-15.092-76.443z" fill="#ffb600"/><path d="m130.2 162.935c-1.87 5.74 1.07 13.97-2.4 18.74-3.51 4.83-12.27 4.57-17.09 8.08-4.78 3.47-7.22 11.9-12.96 13.76-5.53 1.8-12.44-3.53-18.57-3.53-6.12 0-13.03 5.33-18.56 3.53-5.74-1.86-8.18-10.29-12.96-13.76-4.82-3.51-13.58-3.25-17.09-8.08-3.47-4.77-.53-13-2.4-18.74-1.1-3.41-4.3-6.58-6.59-9.95 10.32-23.46 24.03-45.02 40.49-64.09 5.26-.62 11.51 3.84 17.11 3.84 6.13 0 13.04-5.34 18.57-3.53 5.74 1.86 8.18 10.3 12.96 13.76 4.82 3.51 13.58 3.25 17.09 8.07 3.47 4.78.53 13.01 2.4 18.75 1.79 5.53 9.08 10.44 9.08 16.58 0 6.13-7.29 11.04-9.08 16.57z" fill="#ffe400"/><path d="m79.185 199.984v-107.249c6.125 0 13.04-5.335 18.568-3.528 5.739 1.86 8.178 10.302 12.952 13.759 4.826 3.51 13.584 3.247 17.094 8.073 3.475 4.774.526 13.005 2.404 18.744 1.79 5.528 9.073 10.442 9.073 16.585 0 6.125-7.283 11.039-9.073 16.567-1.878 5.739 1.071 13.97-2.404 18.744-3.51 4.826-12.268 4.563-17.094 8.073-4.774 3.475-7.213 11.899-12.952 13.759-5.528 1.808-12.443-3.527-18.568-3.527z" fill="#ffce00"/><path d="m106.957 155.383c-1.022 3.124.583 7.605-1.309 10.203-1.911 2.627-6.678 2.484-9.305 4.395-2.599 1.892-3.927 6.477-7.051 7.49-3.009.984-6.774-1.92-10.108-1.92s-7.098 2.904-10.108 1.92c-3.124-1.013-4.452-5.598-7.051-7.49-2.627-1.911-7.395-1.767-9.305-4.395-1.892-2.599-.287-7.079-1.309-10.203-.974-3.009-4.939-5.684-4.939-9.019 0-3.344 3.965-6.019 4.939-9.028 1.022-3.124-.583-7.605 1.309-10.203 1.911-2.627 6.678-2.484 9.305-4.395 2.599-1.882 3.927-6.477 7.051-7.49 3.009-.984 6.773 1.92 10.108 1.92 3.334 0 7.098-2.904 10.108-1.92 3.124 1.013 4.452 5.608 7.051 7.49 2.627 1.911 7.394 1.767 9.305 4.395 1.892 2.599.287 7.079 1.309 10.203.974 3.009 4.939 5.684 4.939 9.028.001 3.334-3.964 6.009-4.939 9.019z" fill="#ffce00"/><path d="m79.185 175.55v-58.382c3.334 0 7.098-2.904 10.108-1.92 3.124 1.013 4.452 5.608 7.051 7.49 2.627 1.911 7.394 1.767 9.305 4.395 1.892 2.599.287 7.079 1.309 10.203.974 3.009 4.939 5.684 4.939 9.028 0 3.334-3.965 6.009-4.939 9.019-1.022 3.124.583 7.605-1.309 10.203-1.911 2.627-6.678 2.484-9.305 4.395-2.599 1.892-3.927 6.477-7.051 7.49-3.01.984-6.774-1.921-10.108-1.921z" fill="#ffb600"/><g fill="#4e689b"><path d="m325.6 240.725c0 4.93-2 9.38-5.23 12.61-3.22 3.22-7.68 5.22-12.6 5.22h-154.81c-9.85 0-17.83-7.98-17.83-17.83 0-4.93 2-9.38 5.22-12.61 3.23-3.22 7.68-5.22 12.61-5.22h154.81c9.84 0 17.83 7.98 17.83 17.83z"/><path d="m325.6 312.055c0 4.92-2 9.38-5.23 12.6-3.22 3.23-7.68 5.23-12.6 5.23h-154.81c-9.85 0-17.83-7.99-17.83-17.83 0-4.92 2-9.38 5.22-12.61 3.23-3.23 7.68-5.23 12.61-5.23h154.81c9.84 0 17.83 7.99 17.83 17.84z"/><path d="m325.6 383.375c0 4.92-2 9.38-5.23 12.61-3.22 3.23-7.68 5.22-12.6 5.22h-154.81c-9.85 0-17.83-7.98-17.83-17.83 0-4.92 2-9.38 5.22-12.61 3.23-3.23 7.68-5.22 12.61-5.22h154.81c9.84 0 17.83 7.98 17.83 17.83z"/></g><path d="m325.6 383.375c0 4.92-2 9.38-5.23 12.61-3.22 3.23-7.68 5.22-12.6 5.22h-77.4v-35.66h77.4c9.84 0 17.83 7.98 17.83 17.83z" fill="#374c81"/><path d="m325.6 312.055c0 4.92-2 9.38-5.23 12.6-3.22 3.23-7.68 5.23-12.6 5.23h-77.4v-35.67h77.4c9.84 0 17.83 7.99 17.83 17.84z" fill="#374c81"/><path d="m307.77 258.555h-77.4v-35.66h77.4c9.84 0 17.83 7.98 17.83 17.83 0 4.93-2 9.38-5.23 12.61-3.22 3.22-7.68 5.22-12.6 5.22z" fill="#374c81"/></svg>