<svg id="Capa_1" enable-background="new 0 0 512 512" height="512" viewBox="0 0 512 512" width="512" xmlns="http://www.w3.org/2000/svg"><g><g><path d="m256 294.969c-141.387 0-244.868-124.497-225.262-160.701 43.302-79.962 127.939-134.268 225.262-134.268 96.345 0 180.257 53.219 223.944 131.865 20.424 36.768-82.557 163.104-223.944 163.104z" fill="#aaed58"/><path d="m512 256c0 26.051-3.891 51.191-11.129 74.871-5.031 16.469-11.672 32.231-19.75 47.109-8.25 15.2-147.391 29.514-225.121 29.514s-216.871-14.314-225.109-29.514c-3.289-6.031-6.332-12.21-9.121-18.531-14-31.629-21.77-66.629-21.77-103.449 0-46.219 12.25-89.57 33.68-127 44.121 77.07 127.16 129 222.32 129s178.211-51.93 222.32-129c21.43 37.43 33.68 80.781 33.68 127zm0 0" fill="#6abb5e"/><path d="m481.262 377.699c-7.16 13.223-15.434 25.742-24.723 37.43-8.437 10.633-17.719 20.57-27.719 29.723-1.909 1.748-3.845 3.467-5.806 5.158-7.637 6.581-41.17 29.2-50.219 33.848-26.495 13.61-55.672 22.735-86.527 26.371-9.927 1.17-50.428 1.18-60.269.031-25.755-3.007-50.343-9.839-73.181-19.91-13.093-5.774-54.302-32.257-62.145-38.898-2.541-2.152-5.039-4.352-7.494-6.6-10-9.153-19.282-19.09-27.719-29.723-9.289-11.688-17.563-24.207-24.723-37.43zm0 0" fill="#299f8c"/></g><g><path d="m99.204 458.362c16.951 13.153 35.597 24.22 55.557 32.824h90.832v-20.814h-125.575v-271.964h125.576v-20.814h-146.39z" fill="#5a7ba0"/><path d="m266.407 198.408h125.576v271.965h-125.576v20.814h90.832c19.96-8.604 38.606-19.671 55.557-32.824v-280.769h-146.389z" fill="#435d7a"/><path d="m371.169 156.781h62.441v62.441h-62.441z" fill="#bfebff"/><path d="m78.39 156.781h62.441v62.441h-62.441z" fill="#dff5ff"/><path d="m371.169 303.17h62.441v62.441h-62.441z" fill="#bfebff"/><path d="m78.39 303.17h62.441v62.441h-62.441z" fill="#dff5ff"/><path d="m371.169 449.559v35.119c18.926-9.55 36.512-21.369 52.382-35.119z" fill="#bfebff"/><path d="m140.831 484.678v-35.119h-52.382c15.87 13.75 33.456 25.569 52.382 35.119z" fill="#dff5ff"/><path d="m287.22 449.559h-31.22l-20.814 31.22 20.814 31.221c10.57 0 20.986-.654 31.22-1.898z" fill="#bfebff"/><path d="m287.22 156.781h-31.22l-20.814 32.7 20.814 29.74h31.22z" fill="#bfebff"/><path d="m266.407 365.611v-20.814h20.813v-20.814h-20.813v-20.813h-10.407l-13.876 31.22 13.876 31.221z" fill="#435d7a"/><path d="m224.779 156.781h31.221v62.441h-31.221z" fill="#dff5ff"/><path d="m224.779 449.559v60.542c10.235 1.245 20.651 1.899 31.221 1.899v-62.441z" fill="#dff5ff"/><path d="m245.593 323.983h-20.814v20.814h20.814v20.814h10.407v-62.441h-10.407z" fill="#5a7ba0"/></g><g fill="#fff"><path d="m164.843 95.939h-1.524c-6.754 0-12.226-5.477-12.226-12.227v-1.523h-8.715v1.523c0 6.75-5.477 12.227-12.227 12.227h-1.527v8.715h1.527c6.75 0 12.227 5.472 12.227 12.226v1.528h8.715v-1.528c0-6.754 5.472-12.226 12.226-12.226h1.524zm0 0"/><path d="m287.544 64.156h-1.524c-6.754 0-12.226-5.477-12.226-12.227v-1.523h-8.715v1.523c0 6.75-5.477 12.227-12.227 12.227h-1.527v8.715h1.527c6.75 0 12.227 5.472 12.227 12.226v1.528h8.715v-1.528c0-6.754 5.472-12.226 12.226-12.226h1.524zm0 0"/><path d="m383.699 114.049h-1.524c-6.754 0-12.226-5.477-12.226-12.227v-1.523h-8.715v1.523c0 6.75-5.477 12.227-12.227 12.227h-1.527v8.715h1.527c6.75 0 12.227 5.472 12.227 12.226v1.528h8.715v-1.528c0-6.754 5.472-12.226 12.226-12.226h1.524zm0 0"/></g></g></svg>