<svg id="Capa_1" enable-background="new 0 0 512 512" height="512" viewBox="0 0 512 512" width="512" xmlns="http://www.w3.org/2000/svg"><g><g><path d="m0 256c0 43.79 11 85.02 30.39 121.07l225.61 49.67 225.61-49.67c19.39-36.05 30.39-77.28 30.39-121.07 0-46.63-12.47-90.34-34.26-128-41.698 72.091-399.22 76.52-443.48 0-21.79 37.66-34.26 81.37-34.26 128z" fill="#db6870"/><path d="m34.26 128c44.26 76.52 126.99 128 221.74 128s177.48-51.48 221.74-128c-.01-.02-.03-.05-.04-.07-44.27-76.48-126.98-127.93-221.7-127.93s-177.43 51.45-221.7 127.93c-.01.02-.03.05-.04.07z" fill="#e38888"/><path d="m30.39 377.07c43.19 80.32 128.02 134.93 225.61 134.93s182.42-54.61 225.61-134.93z" fill="#c12439"/></g><path d="m54.298 233.465h170.515v170.515h-170.515z" fill="#a4b5ed"/><path d="m287.188 233.465h170.515v170.515h-170.515z" fill="#a9eb58"/><path d="m372.445 233.465h85.257v170.515h-85.257z" fill="#79ce8b"/><path d="m139.555 233.465h85.257v170.515h-85.257z" fill="#8999e5"/><path d="m170.743 62.951h170.515v170.515h-170.515z" fill="#f5dd6e"/><path d="m256 62.951h85.257v170.515h-85.257z" fill="#eec036"/><path d="m265.51 80.56-9.51.01h-9.08l-48.82 128.17 18.69 7.12 11.77-30.89h54.97l11.65 30.87 18.72-7.06zm-29.33 84.41 19.82-52.05.17-.45 19.81 52.5z" fill="#a4b5ed"/><path d="m313.9 208.78-18.72 7.06-11.65-30.87h-27.53v-20h19.98l-19.81-52.5-.17.45v-32.35l9.51-.01z" fill="#8999e5"/><path d="m171.2 310.85c5.12-6.25 8.19-14.23 8.19-22.92 0-19.97-16.25-36.23-36.23-36.23h-43.11v134.04l10.04-.04c.23-.01 29.47-.12 29.47-.12 3.94-.01 7.34-.02 9.38-.02 22.44 0 40.69-18.25 40.69-40.68 0-14.22-7.34-26.76-18.43-34.03zm-51.15-39.15h23.11c8.95 0 16.23 7.28 16.23 16.23s-7.28 16.23-16.23 16.23c-.51 0-1.83 0-3.6.01l-19.51.02zm28.89 93.86c-2.05 0-5.44.01-9.38.02h-.46c-6.04.02-13.3.05-19.05.07v-41.41c2.02-.01 19.51-.03 19.51-.03 5.2-.01 9.38-.02 9.38-.02 11.41 0 20.69 9.28 20.69 20.69 0 11.4-9.28 20.68-20.69 20.68z" fill="#616579"/><path d="m189.63 344.88c0 22.43-18.25 40.68-40.69 40.68-2.04 0-5.44.01-9.38.02v-20c3.94-.01 7.33-.02 9.38-.02 11.41 0 20.69-9.28 20.69-20.68 0-11.41-9.28-20.69-20.69-20.69 0 0-4.18.01-9.38.02v-20.04c1.77-.01 3.09-.01 3.6-.01 8.95 0 16.23-7.28 16.23-16.23s-7.28-16.23-16.23-16.23h-3.6v-20h3.6c19.98 0 36.23 16.26 36.23 36.23 0 8.69-3.07 16.67-8.19 22.92 11.09 7.27 18.43 19.81 18.43 34.03z" fill="#464652"/><path d="m430.94 358.39c-3.279 3.834-8.274 10.267-12.06 13.48-10.18 9.06-23.29 13.85-37.93 13.85-2.88 0-5.72-.18-8.51-.54-32.95-4.19-58.49-32.4-58.49-66.46s25.54-62.26 58.49-66.45c2.79-.36 5.63-.54 8.51-.54 13.42 0 26.38 3.96 37.46 11.44l8.29 5.6-11.2 16.57-8.29-5.59c-7.76-5.25-16.85-8.02-26.26-8.02-2.91 0-5.75.26-8.51.78-21.87 4.01-38.49 23.2-38.49 46.21s16.62 42.21 38.49 46.22c2.76.52 5.6.78 8.51.78 9.79 0 18.08-2.96 24.63-8.79 2.653-2.22 7.7-8.71 10.04-11.39z" fill="#9965d8"/><g fill="#5541b6"><path d="m380.95 271.73c-2.91 0-5.75.26-8.51.78v-20.24c2.79-.36 5.63-.54 8.51-.54 13.42 0 26.38 3.96 37.46 11.44l8.29 5.6-11.2 16.57-8.29-5.59c-7.76-5.25-16.85-8.02-26.26-8.02z"/><path d="m430.94 358.39c-3.279 3.834-8.274 10.267-12.06 13.48-10.18 9.06-23.29 13.85-37.93 13.85-2.88 0-5.72-.18-8.51-.54v-20.24c2.76.52 5.6.78 8.51.78 9.79 0 18.08-2.96 24.63-8.79 2.653-2.22 7.7-8.71 10.04-11.39z"/></g></g></svg>