<svg id="Capa_1" enable-background="new 0 0 512 512" height="512" viewBox="0 0 512 512" width="512" xmlns="http://www.w3.org/2000/svg"><g><g><path d="m477 101h-312c-19.299 0-35-15.701-35-35v-30c0-19.299 15.701-35 35-35h312c19.299 0 35 15.701 35 35v30c0 19.299-15.701 35-35 35z" fill="#ffdd54"/><path d="m50 101c-27.57 0-50-22.43-50-50s22.43-50 50-50 50 22.43 50 50-22.43 50-50 50z" fill="#f1f1f4"/><path d="m130 51v15c0 19.299 15.701 35 35 35h312c19.299 0 35-15.701 35-35v-15z" fill="#ffb454"/><path d="m50 101c27.57 0 50-22.43 50-50h-100c0 27.57 22.43 50 50 50z" fill="#dddadf"/></g><g><path d="m477 237.667h-312c-19.299 0-35-15.701-35-35v-30c0-19.299 15.701-35 35-35h312c19.299 0 35 15.701 35 35v30c0 19.299-15.701 35-35 35z" fill="#8bb9ff"/><path d="m50 237.667c-27.57 0-50-22.43-50-50s22.43-50 50-50 50 22.43 50 50-22.43 50-50 50z" fill="#f1f1f4"/><path d="m130 187.667v15c0 19.299 15.701 35 35 35h312c19.299 0 35-15.701 35-35v-15z" fill="#4793ff"/><path d="m50 237.667c27.57 0 50-22.43 50-50h-100c0 27.57 22.43 50 50 50z" fill="#dddadf"/></g><g><path d="m477 374.333h-312c-19.299 0-35-15.701-35-35v-30c0-19.299 15.701-35 35-35h312c19.299 0 35 15.701 35 35v30c0 19.299-15.701 35-35 35z" fill="#afea93"/><path d="m50 374.333c-27.57 0-50-22.43-50-50s22.43-50 50-50 50 22.43 50 50-22.43 50-50 50z" fill="#f1f1f4"/><path d="m130 324.333v15c0 19.299 15.701 35 35 35h312c19.299 0 35-15.701 35-35v-15z" fill="#70d840"/><path d="m50 374.333c27.57 0 50-22.43 50-50h-100c0 27.57 22.43 50 50 50z" fill="#dddadf"/></g><g><path d="m477 511h-312c-19.299 0-35-15.701-35-35v-30c0-19.299 15.701-35 35-35h312c19.299 0 35 15.701 35 35v30c0 19.299-15.701 35-35 35z" fill="#ff6b6b"/><path d="m50 511c-27.57 0-50-22.43-50-50s22.43-50 50-50 50 22.43 50 50-22.43 50-50 50z" fill="#f1f1f4"/><path d="m130 461v15c0 19.299 15.701 35 35 35h312c19.299 0 35-15.701 35-35v-15z" fill="#f90024"/><path d="m50 511c27.57 0 50-22.43 50-50h-100c0 27.57 22.43 50 50 50z" fill="#dddadf"/></g></g></svg>