<svg id="Capa_1" enable-background="new 0 0 512 512" height="512" viewBox="0 0 512 512" width="512" xmlns="http://www.w3.org/2000/svg"><g><g><path d="m512 256c0 141.387-114.613 256-256 256s-256-114.613-256-256 114.613-256 256-256 256 114.613 256 256zm0 0" fill="#df7cb3"/><path d="m512 256c0 26.051-3.891 51.191-11.129 74.871-5.031 16.469-11.672 32.231-19.75 47.109-8.25 15.2-147.391 55.229-225.121 55.229s-216.871-40.029-225.109-55.229c-3.289-6.031-6.332-12.21-9.121-18.531-14-31.629-21.77-66.629-21.77-103.449 0-46.219 12.25-89.57 33.68-127 44.121 77.07 127.16 129 222.32 129s178.211-51.93 222.32-129c21.43 37.43 33.68 80.781 33.68 127zm0 0" fill="#d85e91"/><path d="m481.262 377.699c-7.16 13.223-15.434 25.742-24.723 37.43-8.437 10.633-17.719 20.57-27.719 29.723-45.539 41.699-106.211 67.148-172.82 67.148s-127.281-25.449-172.82-67.148c-10-9.153-19.282-19.09-27.719-29.723-9.289-11.688-17.563-24.207-24.723-37.43zm0 0" fill="#bb1961"/></g><g><path d="m72.287 306.51 13.695 13.696h-63.72v27.391h63.72l-13.695 13.696 19.366 19.366 46.758-46.757-46.758-46.758z" fill="#8ab8ec"/><path d="m489.738 320.206h-63.72l13.695-13.696-19.366-19.366-46.758 46.758 46.758 46.757 19.366-19.366-13.695-13.696h63.72z" fill="#728ee4"/><path d="m132.74 191.275-58.795-58.795-19.366 19.367 58.795 58.794h-21.721v27.392h68.478v-68.478h-27.391z" fill="#8ab8ec"/><path d="m420.347 210.641h-21.721l58.795-58.794-19.366-19.367-58.795 58.795v-21.72h-27.391v68.478h68.478z" fill="#728ee4"/><path d="m256 416.075h-95.869v54.782c0 28.381 48.148 41.087 95.869 41.087s95.869-12.706 95.869-41.087v-54.782z" fill="#dce0ef"/><path d="m351.869 470.857v-54.782h-95.869v95.869c47.72 0 95.869-12.706 95.869-41.087z" fill="#cad0e7"/><path d="m256 361.293h-95.869v54.782c0 28.381 48.148 41.087 95.869 41.087s95.869-12.706 95.869-41.087v-54.782z" fill="#fbf5eb"/><path d="m351.869 416.075v-54.782h-95.869v95.869c47.72 0 95.869-12.706 95.869-41.087z" fill="#dce0ef"/><path d="m256 306.51h-95.869v54.782c0 28.381 48.148 41.087 95.869 41.087s95.869-12.706 95.869-41.087v-54.782z" fill="#dce0ef"/><path d="m351.869 361.293v-54.783h-95.869v95.869c47.72 0 95.869-12.705 95.869-41.086z" fill="#cad0e7"/><ellipse cx="256" cy="306.51" fill="#fbf5eb" rx="95.869" ry="41.087"/><path d="m351.869 306.51c0-28.381-48.148-41.087-95.869-41.087v82.173c47.72.001 95.869-12.705 95.869-41.086z" fill="#dce0ef"/><path d="m283.391 150.189-13.695 13.695v-62.807h-13.696-13.696v62.807l-13.695-13.695-19.367 19.366 46.758 46.757 46.758-46.757z" fill="#8ab8ec"/><path d="m283.391 150.189-13.695 13.695v-62.807h-13.696v115.235l46.758-46.757z" fill="#728ee4"/></g></g></svg>