<svg height="512" viewBox="0 0 512 512" width="512" xmlns="http://www.w3.org/2000/svg"><g id="BULINE"><circle cx="256" cy="256.05" fill="#b0d46c" r="256"/></g><g id="Icons"><path d="m461.35 139.14c-11.89-21.26-44.22-27-93.48-16.74-44.53 9.32-98.37 30.85-151.61 60.64s-99.75 64.42-131 97.49c-34.53 36.6-46.5 67.18-34.61 88.47 8.06 14.41 25.51 21.71 51.26 21.71 12.23 0 26.35-1.65 42.22-5 44.53-9.32 98.37-30.85 151.61-60.64s99.75-64.42 131-97.5c34.53-36.57 46.5-67.18 34.61-88.43zm-176.35 166.73c-51.34 28.73-103 49.43-145.37 58.3-43.87 9.18-64.81 2.94-69.79-5.95s.67-30 31.44-62.59c29.72-31.5 74.38-64.63 125.72-93.4 79.51-44.49 145.88-62.8 183.41-62.8 16.92 0 28 3.72 31.75 10.45 12.11 21.63-41.83 91.44-157.16 155.99z" fill="#366fca"/><path d="m410.09 390.67c-12.24 0-26.35-1.65-42.22-5-44.53-9.32-98.37-30.85-151.61-60.64s-99.75-64.42-131-97.5c-34.53-36.53-46.5-67.14-34.61-88.39s44.22-27 93.48-16.74c44.53 9.32 98.37 30.85 151.61 60.64s99.75 64.42 131 97.49c34.55 36.6 46.52 67.18 34.63 88.43-8.08 14.41-25.53 21.71-51.28 21.71zm-308.5-251.24c-16.93 0-28 3.72-31.75 10.45-12.11 21.63 41.83 91.44 157.16 156 51.34 28.73 103 49.43 145.37 58.3 43.87 9.18 64.81 2.94 69.79-5.95s-.67-30-31.44-62.59c-29.72-31.51-74.38-64.64-125.72-93.41-79.5-44.48-145.88-62.8-183.41-62.8z" fill="#41c0e3"/><path d="m256 489.37c-24.35 0-45.19-25.39-60.25-73.41-13.62-43.41-21.12-100.91-21.12-161.91s7.5-118.5 21.12-161.91c15.06-48 35.9-73.41 60.25-73.41s45.19 25.39 60.25 73.41c13.62 43.41 21.12 100.91 21.12 161.91s-7.5 118.5-21.12 161.91c-15.06 48.04-35.9 73.41-60.25 73.41zm0-448.64c-24.79 0-59.38 81.15-59.38 213.32s34.59 213.32 59.38 213.32 59.38-81.15 59.38-213.32-34.59-213.32-59.38-213.32z" fill="#3586cb"/><path d="m181.8 352.5-.18.06q-10.73 3.6-21 6.46 1.81 11.16 4 21.7 10.14-2.76 20.73-6.25l.37-.12q-2.12-10.35-3.92-21.85zm-28.5-129.77q-.59 13.68-.66 27.7 10.68-8.06 22.25-16c.06-2.49.13-5 .23-7.44s.19-4.94.31-7.38c.06-1.42.13-2.84.21-4.25l.18-3.17c.09-1.67.2-3.34.31-5q-11.76 7.67-22.83 15.54z" fill="#2c61af"/><path d="m175.83 295.88-.18-3.17c-.07-1.41-.15-2.83-.21-4.25q-.18-3.66-.31-7.38c0-1.22-.09-2.45-.13-3.68s-.07-2.47-.1-3.7q-11.76-8-22.25-16 .08 14 .66 27.64 11 7.86 22.84 15.51c-.15-1.63-.23-3.3-.32-4.97zm9.56-162.25q-10.57-3.48-20.73-6.25-2.21 10.51-4 21.67 10.06 2.79 21 6.45l.19.06q1.78-11.42 3.95-21.81z" fill="#39aec9"/><path d="m181.62 155.5.19.06q1.78-11.42 3.95-21.81l-.37-.12q-2.08 10.62-3.77 21.87zm.18 197-.18.06q1.68 11.25 3.77 21.91l.37-.12q-2.16-10.35-3.96-21.85z" fill="#3586cb"/><circle cx="255.96" cy="254.05" fill="#fc4581" r="37.55"/><path d="m262.81 291a38.58 38.58 0 0 1 -6.84.61 37.55 37.55 0 1 1 0-75.1 38.58 38.58 0 0 1 6.84.61 37.57 37.57 0 0 0 0 73.88z" fill="#fa3268"/><circle cx="270.46" cy="244.55" fill="#fc72a4" r="14.5"/><circle cx="398.06" cy="376.52" fill="#e88032" r="25"/><path d="m402.62 401.11a25.33 25.33 0 0 1 -4.55.41 25 25 0 1 1 0-50 25.33 25.33 0 0 1 4.55.41 25 25 0 0 0 0 49.18z" fill="#cc6c2b"/><circle cx="407.72" cy="370.2" fill="#f29e64" r="9.65"/><circle cx="112.16" cy="376.52" fill="#aa60fa" r="25"/><path d="m116.72 401.11a25.33 25.33 0 0 1 -4.55.41 25 25 0 1 1 0-50 25.33 25.33 0 0 1 4.55.41 25 25 0 0 0 0 49.18z" fill="#934cf5"/><circle cx="121.81" cy="370.2" fill="#cd88f8" r="9.65"/><circle cx="398.06" cy="130.38" fill="#38c487" r="25"/><path d="m402.62 155a24.45 24.45 0 0 1 -4.55.41 25 25 0 1 1 0-50 25.33 25.33 0 0 1 4.55.41 25 25 0 0 0 0 49.18z" fill="#00b564"/><circle cx="407.72" cy="124.06" fill="#4acc97" r="9.65"/><circle cx="112.16" cy="130.38" fill="#db1b1b" r="25"/><path d="m116.72 155a24.45 24.45 0 0 1 -4.55.41 25 25 0 1 1 0-50 25.33 25.33 0 0 1 4.55.41 25 25 0 0 0 0 49.18z" fill="#ba1919"/><circle cx="121.81" cy="124.06" fill="#e54a4a" r="9.65"/></g></svg>