<svg id="Capa_1" enable-background="new 0 0 512 512" height="512" viewBox="0 0 512 512" width="512" xmlns="http://www.w3.org/2000/svg"><path d="m511.989 253.561c.771 82.8-37.776 156.634-98.099 203.959l-37.174 12.827c-78.215 26.988-163.217 26.988-241.432 0l-37.174-12.827c-59.73-46.86-98.11-119.71-98.11-201.52 0-141.193 114.318-255.697 255.44-255.999 141.116-.302 255.234 112.45 256.549 253.56z" fill="#6c82ff"/><path d="m512 256c0 81.8-38.38 154.65-98.11 201.52l-37.174 12.827c-78.215 26.988-163.217 26.988-241.432 0l-37.174-12.827c-59.73-46.87-98.11-119.72-98.11-201.52 0-46.22 12.25-89.57 33.68-127 44.12 77.07 127.16 129 222.32 129s178.21-51.93 222.32-129c21.43 37.43 33.68 80.78 33.68 127z" fill="#4d6df4"/><path d="m413.89 134.99v322.53c-43.5 34.13-98.32 54.48-157.89 54.48-26.13 0-51.34-3.92-75.09-11.2-30.39-9.31-58.38-24.12-82.8-43.28v-322.53c0-9.78 7.93-17.72 17.72-17.72h280.34c9.79 0 17.72 7.94 17.72 17.72z" fill="#fff"/><path d="m413.89 134.99v322.53c-43.5 34.13-98.32 54.48-157.89 54.48-26.13 0-51.34-3.92-75.09-11.2v-383.53h215.26c9.79 0 17.72 7.94 17.72 17.72z" fill="#d1f6ff"/><path d="m413.89 134.99v322.53c-43.5 34.13-98.32 54.48-157.89 54.48v-394.73h140.17c9.79 0 17.72 7.94 17.72 17.72z" fill="#b3f4ff"/><path d="m128.9 148.06v330.2c1.75 1 3.52 1.99 5.3 2.95h243.6c1.78-.96 3.55-1.94 5.3-2.95v-330.2z" fill="#374c81"/><path d="m383.1 148.06v330.2c-1.75 1.01-3.52 1.99-5.3 2.95h-196.89v-333.15z" fill="#234177"/><path d="m383.1 148.06v330.2c-1.75 1.01-3.52 1.99-5.3 2.95h-121.8v-333.15z" fill="#16325b"/><path d="m354.368 219.884v209.262h-196.737v-252.045h153.967z" fill="#fff"/><path d="m354.368 219.884v209.262h-98.365v-252.045h55.595z" fill="#d1f6ff"/><path d="m354.369 219.885h-42.773v-42.785z" fill="#22d7ff"/><path d="m317.971 252.62c0 3.208-1.301 6.103-3.403 8.205-2.095 2.095-4.997 3.397-8.199 3.397h-100.733c-6.409 0-11.602-5.193-11.602-11.602 0-3.208 1.301-6.103 3.397-8.205 2.102-2.095 4.997-3.397 8.205-3.397h100.733c6.403.001 11.602 5.193 11.602 11.602z" fill="#4e689b"/><path d="m317.971 299.034c0 3.201-1.301 6.103-3.403 8.199-2.095 2.102-4.997 3.403-8.199 3.403h-100.733c-6.409 0-11.602-5.199-11.602-11.602 0-3.201 1.301-6.104 3.397-8.205 2.102-2.102 4.997-3.403 8.205-3.403h100.733c6.403 0 11.602 5.199 11.602 11.608z" fill="#4e689b"/><path d="m317.971 345.442c0 3.201-1.301 6.103-3.403 8.205-2.095 2.102-4.997 3.397-8.199 3.397h-100.733c-6.409 0-11.602-5.193-11.602-11.602 0-3.201 1.301-6.103 3.397-8.205 2.102-2.102 4.997-3.397 8.205-3.397h100.733c6.403 0 11.602 5.192 11.602 11.602z" fill="#4e689b"/><g fill="#374c81"><path d="m317.971 345.442c0 3.201-1.301 6.103-3.403 8.205-2.095 2.102-4.997 3.397-8.199 3.397h-50.363v-23.204h50.363c6.403 0 11.602 5.192 11.602 11.602z"/><path d="m317.971 299.034c0 3.201-1.301 6.103-3.403 8.199-2.095 2.102-4.997 3.403-8.199 3.403h-50.363v-23.21h50.363c6.403 0 11.602 5.199 11.602 11.608z"/><path d="m306.369 264.222h-50.363v-23.204h50.363c6.403 0 11.602 5.193 11.602 11.602 0 3.208-1.301 6.103-3.403 8.205-2.095 2.096-4.998 3.397-8.199 3.397z"/></g><path d="m212.11 458.62 15.557 10.758v-21.515z" fill="#fff"/><path d="m299.89 458.62-15.557 10.758v-21.515z" fill="#d1f6ff"/></svg>