<svg id="Capa_1" enable-background="new 0 0 512 512" height="512" viewBox="0 0 512 512" width="512" xmlns="http://www.w3.org/2000/svg"><g><g><path d="m0 256c0 43.79 11 85.02 30.39 121.07l225.61 49.67 225.61-49.67c19.39-36.05 30.39-77.28 30.39-121.07 0-46.63-12.47-90.34-34.26-128-41.698 72.091-399.22 76.52-443.48 0-21.79 37.66-34.26 81.37-34.26 128z" fill="#9865d8"/><path d="m34.26 128c44.26 76.52 126.99 128 221.74 128s177.48-51.48 221.74-128c-.01-.02-.03-.05-.04-.07-44.27-76.48-126.98-127.93-221.7-127.93s-177.43 51.45-221.7 127.93c-.01.02-.03.05-.04.07z" fill="#b895e4"/><path d="m30.39 377.07c43.19 80.32 128.02 134.93 225.61 134.93s182.42-54.61 225.61-134.93z" fill="#5541b5"/></g><g><path d="m256 496.788c6.088 0 11.023-4.935 11.023-11.024v-167.323l81.19 140.63c2.042 3.536 5.747 5.513 9.557 5.513 1.87 0 3.766-.476 5.502-1.479 5.272-3.044 7.079-9.786 4.035-15.058l-81.19-140.63 129.349 74.685c1.736 1.002 3.631 1.479 5.502 1.479 3.81 0 7.515-1.977 9.557-5.513 3.044-5.272 1.238-12.014-4.034-15.058l-129.351-74.686h132.664c6.088 0 11.024-4.935 11.024-11.024s-4.935-11.023-11.024-11.023h-132.666l108.001-62.358c5.272-3.044 7.079-9.786 4.034-15.059s-9.787-7.079-15.059-4.034l-107.994 62.354 77.61-134.416c3.044-5.272 1.238-12.014-4.035-15.059-5.271-3.043-12.013-1.238-15.058 4.035l-77.613 134.423v-167.328c0-6.088-4.935-11.024-11.023-11.024l-17.094 230.59z" fill="#a8ea58"/><path d="m256 57.811c-6.088 0-11.024 4.935-11.024 11.024v167.327l-77.613-134.423c-3.045-5.272-9.787-7.079-15.058-4.035-5.273 3.044-7.079 9.786-4.035 15.059l77.61 134.416-107.994-62.354c-5.273-3.043-12.015-1.237-15.059 4.034-3.044 5.273-1.238 12.014 4.034 15.059l108.001 62.358h-132.665c-6.088 0-11.024 4.935-11.024 11.023s4.935 11.024 11.024 11.024h132.664l-129.351 74.686c-5.272 3.044-7.079 9.786-4.034 15.058 2.042 3.537 5.747 5.513 9.557 5.513 1.87 0 3.766-.476 5.502-1.479l129.349-74.685-81.19 140.63c-3.044 5.273-1.237 12.014 4.035 15.058 1.736 1.003 3.631 1.479 5.502 1.479 3.81 0 7.515-1.977 9.557-5.513l81.19-140.63v167.323c0 6.088 4.935 11.024 11.024 11.024" fill="#cbff8d"/><path d="m387.16 310.8c0 71.59-57.37 129.78-128.64 131.13-.84.02-1.68.03-2.52.03s-1.68-.01-2.52-.03c-71.27-1.35-128.64-59.54-128.64-131.13 0-33.65 12.67-64.33 33.5-87.54v-12.96c0-26.96 10.93-51.38 28.6-69.05 17.68-17.68 42.09-28.61 69.06-28.61 53.94 0 97.66 43.73 97.66 97.66v12.96c20.83 23.21 33.5 53.89 33.5 87.54z" fill="#a8ea58"/><path d="m387.16 310.8c0 71.59-57.37 129.78-128.64 131.13-.84.02-1.68.03-2.52.03v-329.32c53.94 0 97.66 43.73 97.66 97.66v12.96c20.83 23.21 33.5 53.89 33.5 87.54z" fill="#78cd8a"/><path d="m354.09 310.8c0 53.52-43.1 97.18-96.43 98.07-.55.02-1.1.02-1.66.02s-1.11 0-1.66-.02c-53.33-.89-96.43-44.55-96.43-98.07 0-29.38 12.98-55.78 33.5-73.76v-26.74c0-35.62 28.97-64.59 64.59-64.59s64.59 28.97 64.59 64.59v26.74c20.52 17.98 33.5 44.38 33.5 73.76z" fill="#78cd8a"/><path d="m354.09 310.8c0 53.52-43.1 97.18-96.43 98.07-.55.02-1.1.02-1.66.02v-263.18c35.62 0 64.59 28.97 64.59 64.59v26.74c20.52 17.98 33.5 44.38 33.5 73.76z" fill="#599d89"/><ellipse cx="256" cy="210.3" fill="#a8ea58" rx="30.66" ry="30.66" transform="matrix(.383 -.924 .924 .383 -36.259 366.335)"/><ellipse cx="256" cy="310.8" fill="#a8ea58" rx="44.8" ry="44.8" transform="matrix(.383 -.924 .924 .383 -129.109 428.375)"/><g fill="#78cd8a"><path d="m256 240.96v-61.32c16.93 0 30.66 13.73 30.66 30.66s-13.73 30.66-30.66 30.66z"/><path d="m300.8 310.8c0 24.74-20.06 44.8-44.8 44.8v-89.6c24.74 0 44.8 20.06 44.8 44.8z"/></g></g></g></svg>