<?xml version="1.0" encoding="iso-8859-1"?>
<!-- Generator: Adobe Illustrator 19.0.0, SVG Export Plug-In . SVG Version: 6.00 Build 0)  -->
<svg version="1.1" id="Capa_1" xmlns="http://www.w3.org/2000/svg" xmlns:xlink="http://www.w3.org/1999/xlink" x="0px" y="0px"
	 viewBox="0 0 512 512" style="enable-background:new 0 0 512 512;" xml:space="preserve">
<path style="fill:#00D3B4;" d="M512,256c0,141.385-114.615,256-256,256S0,397.385,0,256S114.615,0,256,0S512,114.615,512,256z"/>
<path style="fill:#5EE2C5;" d="M510.871,280C498.77,410.128,389.29,512,256,512S13.23,410.128,1.129,280H510.871z"/>
<path style="fill:#FFF5F5;" d="M433.438,220.104c33.195,33.194,33.195,87.013,0,120.208l0,0c-33.194,33.195-87.013,33.195-120.208,0
	l0,0c-33.195-33.195-33.195-87.014,0-120.208l37.5-37.5l-37.5-37.5c-33.195-33.195-33.195-87.014,0-120.208l0,0
	c33.195-33.194,87.014-33.194,120.208,0l0,0c33.195,33.194,33.195,87.013,0,120.208l-37.5,37.5L433.438,220.104z"/>
<path style="fill:#FFE7BF;" d="M367.584,182.604c0,10.888-3.829,21.43-10.817,29.78l-3.538,4.228
	c-33.195,39.665-33.195,103.975,0,143.639l0,0c0.908,1.085,1.834,2.135,2.772,3.161c-15.673-3.249-30.609-10.936-42.772-23.1l0,0
	c-33.195-33.194-33.195-87.013,0-120.208l37.5-37.5l-37.5-37.5c-33.195-33.195-33.195-87.014,0-120.208l0,0
	c12.164-12.164,27.1-19.851,42.772-23.1c-0.938,1.025-1.864,2.076-2.772,3.161l0,0c-33.195,39.665-33.195,103.974,0,143.639
	l3.538,4.227C363.755,161.174,367.584,171.716,367.584,182.604L367.584,182.604z"/>
<path style="fill:#A87A52;" d="M448.333,30h-150c-5.523,0-10-4.477-10-10V10c0-5.523,4.477-10,10-10h150c5.523,0,10,4.477,10,10v10
	C458.333,25.523,453.856,30,448.333,30z"/>
<path style="fill:#D09247;" d="M312.333,20V10c0-5.523,4.477-10,10-10h126c5.523,0,10,4.477,10,10v10c0,5.523-4.477,10-10,10h-126
	C316.811,30,312.333,25.523,312.333,20z M448.333,335.208h-150c-5.523,0-10,4.477-10,10v10c0,5.523,4.477,10,10,10h150
	c5.523,0,10-4.477,10-10v-10C458.333,339.686,453.856,335.208,448.333,335.208z"/>
<path style="fill:#FFC143;" d="M327.371,130.961c-10.072-10.071-16.126-22.655-18.193-35.753h128.309
	c-2.066,13.098-8.121,25.682-18.193,35.753l-38.091,38.092c1.33,1.698,2.129,3.831,2.129,6.155c0,5.523-4.477,10-10,10
	s-10-4.477-10-10c0-2.324,0.8-4.457,2.129-6.155L327.371,130.961z M373.333,255.208l-45.962,45.963
	c-10.072,10.072-16.126,22.656-18.193,35.753h128.309c-2.066-13.097-8.121-25.681-18.193-35.753L373.333,255.208z M373.333,195.208
	c-5.523,0-10,4.478-10,10c0,5.523,4.477,10,10,10s10-4.477,10-10C383.333,199.686,378.856,195.208,373.333,195.208z
	 M373.333,225.208c-5.523,0-10,4.478-10,10c0,5.523,4.477,10,10,10s10-4.477,10-10C383.333,229.686,378.856,225.208,373.333,225.208
	z"/>
<path style="fill:#596C76;" d="M328.615,283.309v169.793c0,2.031-1.311,3.831-3.244,4.455l-139.027,44.847
	c-62.135-17.53-114.667-57.934-147.958-111.539V283.309c0-2.585,2.096-4.681,4.681-4.681h280.867
	C326.519,278.627,328.615,280.723,328.615,283.309z"/>
<path style="fill:#465A61;" d="M328.615,296.786v19.291l-141.689,67.429c-2.227,0.718-4.624,0.718-6.851,0L74.216,333.128
	c-6.636-3.158-14.297,1.681-14.297,9.03v78.41c-7.859-9.354-15.059-19.278-21.533-29.702v-74.789v-19.291v-13.477
	c0-2.585,2.096-4.681,4.681-4.681h16.852v11.212l34.758-11.212h177.648L328.615,296.786z M23.406,400.336
	c0-3.463-1.886-6.48-4.681-8.099V287.99H9.362v104.248c-2.796,1.619-4.681,4.636-4.681,8.099c0,2.146,0.73,4.118,1.945,5.697
	C2.648,409.959,0,416.945,0,424.913c0,4.391,0.807,8.48,2.194,11.928c3.76,0.611,7.733,0.945,11.849,0.945s8.089-0.334,11.849-0.945
	c1.387-3.447,2.194-7.537,2.194-11.928c0-7.968-2.648-14.953-6.626-18.879C22.676,404.455,23.406,402.483,23.406,400.336z"/>
<path style="fill:#7A8C98;" d="M186.925,220.539l172.343,55.595c4.608,1.487,7.732,5.776,7.732,10.618l0,0
	c0,4.842-3.123,9.132-7.732,10.618l-172.343,55.595c-2.227,0.718-4.623,0.718-6.85,0L7.732,297.369
	C3.123,295.883,0,291.594,0,286.751l0,0c0-4.842,3.123-9.132,7.732-10.618l172.343-55.595
	C182.302,219.82,184.698,219.82,186.925,220.539z"/>
<path style="fill:#FFF5F5;" d="M278.959,140.503c-1.953,1.952-4.513,2.929-7.071,2.929c-2.56,0-5.118-0.977-7.071-2.93
	c-21.721-21.721-50.6-33.683-81.317-33.683s-59.597,11.962-81.317,33.683c-3.905,3.905-10.237,3.906-14.142,0.001
	s-3.905-10.237,0-14.143c25.498-25.498,59.4-39.541,95.459-39.541c36.061,0,69.962,14.043,95.46,39.541
	C282.865,130.266,282.865,136.598,278.959,140.503z M183.5,126.819c-25.375,0-49.232,9.882-67.175,27.825
	c-3.905,3.905-3.905,10.237,0,14.143s10.237,3.904,14.142-0.001c14.166-14.165,33-21.967,53.033-21.967s38.867,7.802,53.033,21.968
	c1.953,1.952,4.512,2.929,7.071,2.929s5.118-0.977,7.071-2.93c3.905-3.905,3.905-10.236,0-14.142
	C232.732,136.701,208.875,126.819,183.5,126.819z M183.5,166.819c-14.691,0-28.503,5.721-38.891,16.109
	c-3.905,3.905-3.905,10.237,0,14.143c3.905,3.905,10.237,3.905,14.143,0c6.61-6.611,15.4-10.252,24.749-10.252
	s18.138,3.641,24.748,10.251c1.953,1.953,4.512,2.93,7.071,2.93s5.118-0.977,7.071-2.929c3.905-3.905,3.905-10.237,0-14.143
	C212.002,172.541,198.191,166.819,183.5,166.819z"/>
<g>
</g>
<g>
</g>
<g>
</g>
<g>
</g>
<g>
</g>
<g>
</g>
<g>
</g>
<g>
</g>
<g>
</g>
<g>
</g>
<g>
</g>
<g>
</g>
<g>
</g>
<g>
</g>
<g>
</g>
</svg>
