<svg id="Capa_1" enable-background="new 0 0 512 512" height="512" viewBox="0 0 512 512" width="512" xmlns="http://www.w3.org/2000/svg"><g><g><path d="m0 256c0 43.79 11 85.02 30.39 121.07l225.61 49.67 225.61-49.67c19.39-36.05 30.39-77.28 30.39-121.07 0-46.63-12.47-90.34-34.26-128-41.698 72.091-399.22 76.52-443.48 0-21.79 37.66-34.26 81.37-34.26 128z" fill="#d0d4e3"/><path d="m34.26 128c44.26 76.52 126.99 128 221.74 128s177.48-51.48 221.74-128c-.01-.02-.03-.05-.04-.07-44.27-76.48-126.98-127.93-221.7-127.93s-177.43 51.45-221.7 127.93c-.01.02-.03.05-.04.07z" fill="#e7eaf5"/><path d="m30.39 377.07c43.19 80.32 128.02 134.93 225.61 134.93s182.42-54.61 225.61-134.93z" fill="#b1b7cb"/></g><g><path d="m256.118 278.23-167.655-81.428 10.922-22.488 156.497 76.009 156.544-79.334 11.301 22.299z" fill="#464651"/><path d="m243.5 264.277h25v178.954h-25z" fill="#464651"/><g><g><circle cx="256" cy="152.532" fill="#8898e5" r="68.578"/><path d="m324.578 152.532c0 37.879-30.699 68.578-68.578 68.578v-137.155c37.879 0 68.578 30.699 68.578 68.577z" fill="#546bd9"/></g><g><circle cx="153.775" cy="329.499" fill="#8898e5" r="68.578"/><path d="m222.353 329.499c0 37.879-30.699 68.578-68.578 68.578v-137.156c37.879 0 68.578 30.699 68.578 68.578z" fill="#546bd9"/></g><g><circle cx="362.158" cy="329.499" fill="#8898e5" r="68.578"/><path d="m430.736 329.499c0 37.879-30.699 68.578-68.578 68.578v-137.156c37.879 0 68.578 30.699 68.578 68.578z" fill="#546bd9"/></g></g><g><circle cx="256" cy="264.276" fill="#e28787" r="68.578"/><path d="m324.578 264.276c0 37.879-30.699 68.578-68.578 68.578v-137.155c37.879 0 68.578 30.699 68.578 68.577z" fill="#da504f"/></g><g><circle cx="93.924" cy="182.139" fill="#e28787" r="44.07"/><path d="m137.993 182.139c0 24.342-19.728 44.07-44.07 44.07v-88.14c24.342 0 44.07 19.728 44.07 44.07z" fill="#da504f"/></g><g><circle cx="418.076" cy="182.139" fill="#e28787" r="44.07"/><path d="m462.146 182.139c0 24.342-19.728 44.07-44.07 44.07v-88.14c24.342 0 44.07 19.728 44.07 44.07z" fill="#da504f"/></g><g><circle cx="256" cy="439.81" fill="#e28787" r="44.07"/><path d="m300.07 439.81c0 24.342-19.728 44.07-44.07 44.07v-88.14c24.342 0 44.07 19.728 44.07 44.07z" fill="#da504f"/></g></g></g></svg>