<svg id="Capa_1" enable-background="new 0 0 512 512" height="512" viewBox="0 0 512 512" width="512" xmlns="http://www.w3.org/2000/svg"><g><g><path d="m0 256c0 43.79 11 85.02 30.39 121.07l225.61 49.67 225.61-49.67c19.39-36.05 30.39-77.28 30.39-121.07 0-46.63-12.47-90.34-34.26-128-41.698 72.091-399.22 76.52-443.48 0-21.79 37.66-34.26 81.37-34.26 128z" fill="#a4b5ed"/><path d="m34.26 128c44.26 76.52 126.99 128 221.74 128s177.48-51.48 221.74-128c-.01-.02-.03-.05-.04-.07-44.27-76.48-126.98-127.93-221.7-127.93s-177.43 51.45-221.7 127.93c-.01.02-.03.05-.04.07z" fill="#c0d3f2"/><path d="m30.39 377.07c43.19 80.32 128.02 134.93 225.61 134.93s182.42-54.61 225.61-134.93z" fill="#546ada"/></g><path d="m178.449 359.321h155.101v85.214h-155.101z" fill="#464652"/><path d="m256 359.321h77.551v85.214h-77.551z" fill="#2d2f40"/><path d="m147.37 425.825h217.26v33.71h-217.26z" fill="#616579"/><path d="m256 425.825h108.63v33.71h-108.63z" fill="#464652"/><path d="m57.477 132.615h397.046v256.025h-397.046z" fill="#616578"/><path d="m256 132.615h198.523v256.025h-198.523z" fill="#464652"/><path d="m424.52 162.62v196.02h-73.68l-94.842-23.487-94.848 23.487h-73.67v-196.02z" fill="#c4f4ff"/><path d="m424.52 162.62v196.02h-73.68l-94.84-23.487v-172.533z" fill="#9febff"/><g><path d="m350.84 358.64h-189.69c18.64-33.12 54.13-55.49 94.85-55.49s76.21 22.37 94.84 55.49z" fill="#db6870"/><path d="m350.84 358.64h-94.84v-55.49c40.72 0 76.21 22.37 94.84 55.49z" fill="#db504f"/><path d="m288.868 269.403v32.87c0 18.161-14.719 32.88-32.87 32.88-18.161 0-32.88-14.719-32.88-32.88v-32.87z" fill="#dfbca3"/><path d="m288.868 269.403v32.87c0 18.161-14.719 32.88-32.87 32.88v-65.75z" fill="#cb8f69"/><path d="m374.357 203.71v6.361c0 23.115-18.731 41.846-41.846 41.846h-60.073v-69.971h80.145c12.028 0 21.774 9.746 21.774 21.764z" fill="#cb8f69"/><path d="m272.438 181.946v69.971h-93.894c-23.105 0-41.836-18.731-41.836-41.846v-6.361c0-12.019 9.746-21.765 21.764-21.765h113.966z" fill="#dfbca3"/><path d="m337.998 98.711v123.075c0 45.288-36.711 81.999-81.999 81.999-45.297 0-82.009-36.711-82.009-81.999v-123.075z" fill="#eed9c8"/><path d="m337.998 98.711v123.075c0 45.288-36.711 81.999-81.999 81.999v-205.074z" fill="#dfbca3"/><path d="m255.994 239.087c-4.997 0-9.048-4.051-9.048-9.048v-29.253c0-4.997 4.051-9.047 9.048-9.047 4.997 0 9.048 4.051 9.048 9.047v29.253c-.001 4.998-4.052 9.048-9.048 9.048z" fill="#cb8f69"/><g fill="#464652"><circle cx="222.971" cy="203.576" r="11.837"/><circle cx="289.016" cy="203.576" r="11.837"/></g><path d="m226.892 242.868c0 16.075 13.032 29.107 29.107 29.107s29.107-13.032 29.107-29.107z" fill="#fff"/><path d="m285.105 242.868c0 16.081-13.039 29.111-29.111 29.111v-29.111z" fill="#e9ecf8"/><path d="m369.761 45.974h-110.954c-24.788 0-44.883 20.095-44.883 44.883 0 24.788 20.095 44.883 44.883 44.883h32.806c43.16 0 78.147-34.988 78.147-78.147v-11.619z" fill="#de8051"/><path d="m189.638 45.974h7.831c16.388 0 29.673 13.285 29.673 29.673v31.606c0 16.388-13.285 29.673-29.673 29.673h-7.831c-16.388 0-29.673-13.285-29.673-29.673v-31.606c0-16.388 13.285-29.673 29.673-29.673z" fill="#e8a440"/><g><path d="m159.965 98.711h19.631v83.439h-19.631z" fill="#e8a440"/><path d="m332.391 98.711h19.631v83.439h-19.631z" fill="#de8051"/></g></g></g></svg>