<svg id="Capa_1" enable-background="new 0 0 512 512" height="512" viewBox="0 0 512 512" width="512" xmlns="http://www.w3.org/2000/svg"><circle cx="72.833" cy="196" fill="#466286" r="30"/><path d="m86.006 256.117h-26.345c-20.813 0-38.148 15.96-39.864 36.702l-6.068 73.357c-.482 5.828 4.118 10.824 9.966 10.824h98.277c5.848 0 10.448-4.996 9.966-10.824l-6.068-73.357c-1.716-20.742-19.051-36.702-39.864-36.702z" fill="#466286"/><path d="m102.833 196c0-16.569-13.431-30-30-30v60c16.569 0 30-13.431 30-30z" fill="#354a67"/><path d="m86.006 256.117h-13.173v120.883h49.139c5.848 0 10.448-4.996 9.966-10.824l-6.068-73.357c-1.716-20.742-19.052-36.702-39.864-36.702z" fill="#354a67"/><path d="m322.566 125h118.1v-90c0-5.523-4.477-10-10-10h-108.1c-8.569 0-13.169 10.074-7.557 16.549l28.991 33.451-28.991 33.451c-5.612 6.475-1.012 16.549 7.557 16.549z" fill="#fbb23b"/><path d="m439.167 273c-8.284 0-15-6.716-15-15v-243c0-8.284 6.716-15 15-15s15 6.716 15 15v243c0 8.284-6.716 15-15 15z" fill="#466286"/><path d="m439.167 0v273c8.284 0 15-6.716 15-15v-243c0-8.284-6.716-15-15-15z" fill="#354a67"/><path d="m135.667 377h-125.667c-5.523 0-10 4.477-10 10v125h145.667v-125c0-5.523-4.477-10-10-10z" fill="#e05a6e"/><path d="m502 198h-125.667c-5.523 0-10 4.477-10 10v304h145.667v-304c0-5.523-4.477-10-10-10z" fill="#a3ce29"/><path d="m326.333 289h-140.666c-5.523 0-10 4.477-10 10v213h160.667v-213c-.001-5.523-4.478-10-10.001-10z" fill="#fbb23b"/><path d="m336.333 299c0-5.523-4.477-10-10-10h-70.333v223h80.333z" fill="#f27a22"/><path d="m145.667 387c0-5.523-4.477-10-10-10h-62.834v135h72.833v-125z" fill="#d62f44"/><path d="m512 208c0-5.523-4.477-10-10-10h-62.833v314h72.833z" fill="#8eba05"/></svg>