<svg id="Capa_1" enable-background="new 0 0 512 512" height="512" viewBox="0 0 512 512" width="512" xmlns="http://www.w3.org/2000/svg"><g><g><path d="m256 316.954c-141.387 0-244.868-146.427-225.264-182.631 43.302-79.964 127.94-134.271 225.264-134.271 97.204 0 181.752 54.173 225.103 133.974 19.704 36.274-83.716 182.928-225.103 182.928z" fill="#ffc46c"/><path d="m512 256.052c0 26.051-3.891 51.191-11.129 74.871-5.031 16.469-11.672 32.231-19.75 47.109-8.25 15.2-147.391 54.635-225.121 54.635s-216.871-39.435-225.109-54.635c-3.289-6.031-6.332-12.21-9.121-18.531-14-31.629-21.77-66.629-21.77-103.449 0-46.219 12.25-89.57 33.68-127 44.121 77.07 127.16 129 222.32 129s178.211-51.93 222.32-129c21.43 37.43 33.68 80.781 33.68 127zm0 0" fill="#ffb03b"/><path d="m481.262 377.751c-7.16 13.223-15.434 25.742-24.723 37.43-8.437 10.633-17.719 20.57-27.719 29.723-7.907 7.24-16.27 13.991-25.042 20.203-41.746 29.566-252.549 29.993-294.003 1.091-9.339-6.511-18.223-13.628-26.595-21.295-10-9.153-19.282-19.09-27.719-29.723-9.289-11.688-17.563-24.207-24.723-37.43h450.524zm0 0" fill="#ff903d"/></g><g><path d="m256 93.237-98.136 191.585h174.691v-191.585z" fill="#8defe9"/><path d="m256.002 284.827 184.819-.006v-83.319l-108.266-108.265s-76.555 191.585-76.553 191.59z" fill="#5ab4fc"/><path d="m223.288 495.592 109.267-32.712v-178.048h-174.691z" fill="#2dceea"/><path d="m256 284.829 76.555 178.051 108.266-108.266-16.356-69.787z" fill="#5ab4fc"/><path d="m256.002 284.827 184.819 69.787v-153.111z" fill="#2dceea"/><path d="m179.444 93.237h76.556v191.585h-76.556z" fill="#cbeefe"/><path d="m255.997 284.827-184.819-.006v-83.319l108.266-108.265s76.556 191.585 76.553 191.59z" fill="#8bfff4"/><path d="m256 503.77-76.556-40.89v-178.048h76.556z" fill="#8defe9"/><path d="m256 284.829-76.556 178.051-108.266-108.266 16.356-69.787z" fill="#2dceea"/><path d="m255.997 284.827-184.819 69.787v-153.111z" fill="#5ab4fc"/><path d="m406.858 462.88h-150.858l-57.246 24.534 57.246 24.534h7.144c53.667-1.471 103.198-19.465 143.714-49.068z" fill="#4d34b0"/><path d="m248.856 511.948h7.144v-49.068h-150.858c40.516 29.603 90.047 47.597 143.714 49.068z" fill="#8057eb"/><path d="m139.156 483.888c33.041 16.979 70.256 26.979 109.7 28.06h7.141v-49.068h-108.14z" fill="#6c3beb"/><path d="m312.23 144.102h-56.23l-57.246 135.754 57.246 135.754h56.23l79.524-79.523v-112.462z" fill="#cbeefe"/><path d="m199.769 144.102-79.523 79.523v112.462l79.523 79.523h56.231v-271.508z" fill="#fff"/></g></g></svg>