<svg id="Layer_1" enable-background="new 0 0 512 512" height="512" viewBox="0 0 512 512" width="512" xmlns="http://www.w3.org/2000/svg"><g><path d="m256 21.995c-135.311 0-245.002 109.691-245.002 245.002 0 45.35 12.336 87.812 33.814 124.241l307.132 101.254c87.626-37.331 149.058-124.237 149.058-225.496 0-135.309-109.691-245.001-245.002-245.001z" fill="#ff4155"/><path d="m253.934 53.316c0-9.95 1.225-19.618 3.518-28.869h-166.965c-25.585 0-46.4 20.815-46.4 46.4v319.153c10.593 18.214 23.467 34.938 38.229 49.78l232.122 65.179c13.4-3.283 26.375-7.652 38.809-13.036v-318.576c-66.185 0-99.313-53.845-99.313-120.031z" fill="#167cc1"/><path d="m159.258 461.385-2.36-375.432c-.003-.526-.197-1.031-.524-1.443-5.716-7.219-2.15-12.194.088-14.291.732-.686.904-1.789.445-2.681-2.633-5.128.872-8.371 2.347-9.445.406-.295.693-.722.832-1.204l4.035-13.965c.217-.751.043-1.572-.481-2.153-6.906-7.655-2.131-13.126.528-15.294.34-.277.576-.638.71-1.03h-74.391c-25.585 0-46.4 20.815-46.4 46.4v319.153c10.596 18.219 23.479 34.942 38.248 49.785z" fill="#024788"/><path d="m72.955 429.815c44.87 50.417 110.24 82.185 183.045 82.185 23.734 0 46.675-3.387 68.379-9.683v-332.488c-20.087-4.978-17.474-15.027-32.158-28.706h-219.266z" fill="#e9efff"/><path d="m72.955 141.122v288.692c23.129 25.988 51.701 47.018 83.938 61.297v-349.989z" fill="#d3dcfb"/><g><path d="m164.486 57.699h-4.633c-4.429 0-8.019-3.59-8.019-8.019s3.59-8.019 8.019-8.019h4.633c4.429 0 8.019 3.59 8.019 8.019s-3.591 8.019-8.019 8.019z" fill="#1e92d3"/></g><g><path d="m257.091 57.699h-65.237c-4.429 0-8.019-3.59-8.019-8.019s3.59-8.019 8.019-8.019h65.237c4.429 0 8.019 3.59 8.019 8.019s-3.59 8.019-8.019 8.019z" fill="#1e92d3"/></g><path d="m256.309 77.122h-109.498c-7.057 0-12.83-5.774-12.83-12.83 0-6.062-4.914-10.976-10.976-10.976h-32.518c-9.682 0-17.531 7.849-17.531 17.532v73.117h222.414c-19.65-17.061-33.717-40.39-39.061-66.843z" fill="#9bd8f9"/><path d="m146.811 77.122c-7.057 0-12.83-5.774-12.83-12.83 0-6.062-4.914-10.976-10.976-10.976h-32.518c-9.682 0-17.531 7.849-17.531 17.531v73.117h83.937v-66.842z" fill="#73c3f9"/><g fill="#1e92d3"><path d="m80.974 438.404v-367.556c0-5.246 4.267-9.513 9.513-9.513h32.518c1.63 0 2.957 1.326 2.957 2.957 0 11.496 9.353 20.849 20.849 20.849h114.844c4.429 0 8.019-3.59 8.019-8.019s-3.59-8.019-8.019-8.019h-114.844c-2.608 0-4.811-2.203-4.811-4.811 0-10.474-8.521-18.995-18.995-18.995h-32.518c-14.089 0-25.55 11.462-25.55 25.551v349.492c5.048 6.284 10.403 12.31 16.037 18.064z"/><path d="m332.398 164.483c0-4.429-3.59-8.019-8.019-8.019s-8.019 3.59-8.019 8.019v340.016c5.421-1.374 10.767-2.935 16.038-4.664z"/></g><path d="m80.974 438.404v-367.556c0-5.246 4.267-9.513 9.513-9.513h32.518c1.63 0 2.957 1.326 2.957 2.957 0 11.496 9.353 20.849 20.849 20.849h9.923c-.089-.225-.208-.438-.361-.631-5.716-7.219-2.15-12.194.088-14.291.327-.306.523-.7.62-1.117h-10.271c-2.608 0-4.811-2.203-4.811-4.811 0-10.474-8.521-18.995-18.995-18.995h-32.517c-14.089 0-25.55 11.462-25.55 25.551v349.493c5.048 6.284 10.403 12.31 16.037 18.064z" fill="#167cc1"/><path d="m265.163 99.658h-107.948v28.104h121.534c.608 0 1.202-.052 1.789-.126-6.298-8.536-11.493-17.933-15.375-27.978z" fill="#e9efff"/><path d="m158.284 99.658h-15.773c-7.761 0-14.052 6.291-14.052 14.052s6.291 14.052 14.052 14.052h15.773z" fill="#3c58a0"/><g><path d="m110.37 83.327h-11.049c-4.429 0-8.019-3.59-8.019-8.019s3.59-8.019 8.019-8.019h11.049c4.429 0 8.019 3.59 8.019 8.019s-3.591 8.019-8.019 8.019z" fill="#e9efff"/></g><path d="m436.421 58.6h-18.327c-4.842 0-8.781-3.939-8.781-8.781v-18.326c0-21.791-15.383-29.066-25.198-31.493h-135.539c-5.52 0-9.994 4.475-9.994 9.994v307.975c0 5.52 4.475 9.994 9.994 9.994h209.343c5.52 0 9.994-4.474 9.994-9.994v-237.794c-5.877-21.084-31.195-21.572-31.492-21.575z" fill="#ffdd40"/><path d="m238.582 9.994v307.975c0 5.52 4.475 9.994 9.994 9.994h127.996c-.411-.926-.97-1.789-1.672-2.543-30.182-32.382-15.011-60.759-4.603-73.735 2.918-3.638 2.616-8.879-.731-12.127-7.5-7.279-4.333-17.979-3.346-20.726.135-.374.29-.731.473-1.085l7.051-13.675c.658-1.275 1.001-2.688 1.001-4.123v-5.947c0-2.984-1.653-5.64-4.176-7.235-2.297-1.452-3.01-3.886-3.176-5.838-.183-2.149-1.072-4.177-2.632-5.666l-2.436-2.326c-1.417-1.352-2.353-3.13-2.667-5.063l-5.693-35.028c-.413-2.544-1.918-4.763-4.083-6.161-6.596-4.261-7.265-10.571-6.576-15.299.561-3.852-1.349-7.6-4.826-9.349-43.251-21.763-24.001-81.899-17.893-98.018.492-1.299.67-2.673.543-4.019h-72.552c-5.522 0-9.996 4.475-9.996 9.994z" fill="#ffb332"/><path d="m457.601 49.501-39.189-39.189c-6.603-6.603-15.558-10.312-24.895-10.312h-17.393s31.976.487 31.976 31.493v18.326c0 5.52 4.475 9.994 9.994 9.994h18.327s31.493.259 31.493 29.777v-15.193c-.001-9.338-3.71-18.293-10.313-24.896z" fill="#ffc839"/><path d="m226.992 434.525h-56.65c-9.997 0-18.176 8.179-18.176 18.176 0 9.997 8.179 18.176 18.176 18.176h56.65c9.997 0 18.176-8.179 18.176-18.176 0-9.997-8.179-18.176-18.176-18.176z" fill="#38c674"/><path d="m196.472 452.702c0-9.997 8.179-18.176 18.176-18.176h-44.306c-9.997 0-18.176 8.179-18.176 18.176s8.179 18.176 18.176 18.176h44.306c-9.996 0-18.176-8.179-18.176-18.176z" fill="#24b55e"/><g><path d="m206.003 204.115h-47.421c-7.972 0-14.434-6.462-14.434-14.434s6.462-14.434 14.434-14.434h47.421c7.972 0 14.434 6.462 14.434 14.434s-6.462 14.434-14.434 14.434z" fill="#ff4155"/></g><g><path d="m212.418 238.663h-101.051c-4.429 0-8.019-3.59-8.019-8.019s3.59-8.019 8.019-8.019h101.051c4.429 0 8.019 3.59 8.019 8.019s-3.59 8.019-8.019 8.019z" fill="#bec8f7"/></g><g><path d="m212.418 271.418h-101.051c-4.429 0-8.019-3.59-8.019-8.019s3.59-8.019 8.019-8.019h101.051c4.429 0 8.019 3.59 8.019 8.019s-3.59 8.019-8.019 8.019z" fill="#bec8f7"/></g><g><path d="m212.418 304.173h-101.051c-4.429 0-8.019-3.59-8.019-8.019s3.59-8.019 8.019-8.019h101.051c4.429 0 8.019 3.59 8.019 8.019s-3.59 8.019-8.019 8.019z" fill="#bec8f7"/></g><g><path d="m212.418 336.927h-101.051c-4.429 0-8.019-3.59-8.019-8.019s3.59-8.019 8.019-8.019h101.051c4.429 0 8.019 3.59 8.019 8.019s-3.59 8.019-8.019 8.019z" fill="#bec8f7"/></g><g><path d="m285.967 369.683h-174.6c-4.429 0-8.019-3.59-8.019-8.019s3.59-8.019 8.019-8.019h174.6c4.429 0 8.019 3.59 8.019 8.019s-3.59 8.019-8.019 8.019z" fill="#bec8f7"/></g><g><path d="m285.967 402.439h-174.6c-4.429 0-8.019-3.59-8.019-8.019s3.59-8.019 8.019-8.019h174.6c4.429 0 8.019 3.59 8.019 8.019s-3.59 8.019-8.019 8.019z" fill="#bec8f7"/></g><ellipse cx="353.247" cy="176.404" fill="#e9efff" rx="71.926" ry="71.926" transform="matrix(.707 -.707 .707 .707 -21.273 301.451)"/><path d="m370.568 186.768c-2.297-1.452-3.01-3.886-3.176-5.838-.183-2.149-1.072-4.177-2.632-5.666l-2.436-2.326c-1.417-1.352-2.353-3.13-2.667-5.063l-5.693-35.028c-.413-2.544-1.918-4.763-4.083-6.161-6.596-4.261-7.265-10.571-6.576-15.299.314-2.157-.147-4.282-1.225-6.041-34.419 5.366-60.758 35.134-60.758 71.058 0 39.723 32.202 71.926 71.925 71.926 6.593 0 12.972-.905 19.038-2.566-.063-2.271-.972-4.51-2.72-6.206-7.5-7.279-4.333-17.979-3.346-20.726.135-.374.29-.731.473-1.085l7.051-13.675c.658-1.275 1.001-2.688 1.001-4.123v-5.947c-.001-2.983-1.654-5.639-4.176-7.234z" fill="#bec8f7"/><g><path d="m353.247 183.163c-4.429 0-8.019-3.59-8.019-8.019v-38.68c0-4.429 3.59-8.019 8.019-8.019s8.019 3.59 8.019 8.019v38.68c0 4.43-3.59 8.019-8.019 8.019z" fill="#4fabf7"/></g><g><path d="m353.247 188.844c-2.052 0-4.104-.783-5.67-2.348l-23.03-23.03c-3.132-3.132-3.132-8.209 0-11.341 3.131-3.13 8.209-3.13 11.34 0l17.36 17.361 17.36-17.361c3.132-3.13 8.209-3.13 11.34 0 3.132 3.132 3.132 8.209 0 11.341l-23.03 23.03c-1.565 1.565-3.617 2.348-5.67 2.348z" fill="#4fabf7"/></g><g><path d="m378.868 218.171h-51.242c-4.429 0-8.019-3.59-8.019-8.019v-15.285c0-4.429 3.59-8.019 8.019-8.019s8.019 3.59 8.019 8.019v7.266h35.204v-7.266c0-4.429 3.59-8.019 8.019-8.019s8.019 3.59 8.019 8.019v15.285c0 4.429-3.59 8.019-8.019 8.019z" fill="#4fabf7"/></g><path d="m441.214 33.114-22.802-22.802c-6.603-6.603-15.558-10.312-24.896-10.312h-17.393s31.976.487 31.976 31.493v18.327c0 5.52 4.475 9.994 9.994 9.994h11.546c-10.666-25.208 11.575-26.7 11.575-26.7z" fill="#ffb332"/></g></svg>