<svg id="Capa_1" enable-background="new 0 0 512 512" height="512" viewBox="0 0 512 512" width="512" xmlns="http://www.w3.org/2000/svg"><g><g><path d="m0 256c0 43.79 11 85.02 30.39 121.07l225.61 49.67 225.61-49.67c19.39-36.05 30.39-77.28 30.39-121.07 0-46.63-12.47-90.34-34.26-128-41.698 72.091-399.22 76.52-443.48 0-21.79 37.66-34.26 81.37-34.26 128z" fill="#eebf36"/><path d="m34.26 128c44.26 76.52 126.99 128 221.74 128s177.48-51.48 221.74-128c-.01-.02-.03-.05-.04-.07-44.27-76.48-126.98-127.93-221.7-127.93s-177.43 51.45-221.7 127.93c-.01.02-.03.05-.04.07z" fill="#f5dc6e"/><path d="m30.39 377.07c43.19 80.32 128.02 134.93 225.61 134.93s182.42-54.61 225.61-134.93z" fill="#dd8051"/></g><path d="m429.07 223.78c-21.57-12.45-45.26-17.67-68.39-16.51 12.54-19.47 19.87-42.63 19.87-67.49 0-32.38-12.35-61.83-32.55-83.99 8.65 15.3 13.58 33.01 13.58 51.84 0 27.98-10.89 53.42-28.65 72.32-20.56-18.05-47.48-29.01-76.93-29.01-29.44 0-56.36 10.96-76.92 29.01-17.77-18.9-28.66-44.34-28.66-72.32 0-18.83 4.93-36.54 13.58-51.84-20.2 22.16-32.55 51.61-32.55 83.99 0 24.86 7.33 48.02 19.9 67.49-23.12-1.16-46.85 4.06-68.38 16.51-28.06 16.2-47.39 41.6-56.48 70.18 8.92-15.14 21.8-28.25 38.11-37.67 24.21-13.98 51.66-17.28 76.89-11.36-1.46 7.36-2.23 14.97-2.23 22.76 0 51.24 33.19 94.88 79.21 110.55-7.49 24.81-24.07 46.94-48.28 60.92-16.34 9.42-34.11 13.98-51.71 14.14 29.31 6.42 61 2.4 89.02-13.81 21.55-12.44 37.91-30.33 48.5-50.91.01-.01.01-.03.02-.04 10.55 20.6 26.95 38.5 48.48 50.95 28.06 16.21 59.74 20.229 89.02 13.81-17.57-.16-35.37-4.72-51.68-14.14-24.22-13.98-40.8-36.11-48.29-60.92 46.01-15.67 79.2-59.31 79.2-110.55 0-7.79-.77-15.4-2.23-22.76 25.23-5.92 52.68-2.62 76.88 11.36 16.31 9.42 29.19 22.53 38.11 37.67-9.09-28.58-28.42-53.98-56.44-70.18zm-173.07-43.1c20.01 0 38.46 6.79 53.18 18.19-15.61 9.12-33.78 14.36-53.16 14.36-.01 0-.01 0-.02 0-19.39 0-37.56-5.24-53.17-14.36 14.72-11.4 33.17-18.19 53.17-18.19zm-87 87.01c0-3.96.27-7.85.78-11.66 15.72 8.95 29.35 22.07 39.05 38.86 9.71 16.82 14.26 35.18 14.16 53.29-31.65-13.03-53.99-44.2-53.99-80.49zm87.02 28.77c-.01 0-.01 0-.02 0-15.87-.01-28.77-12.92-28.77-28.79 0-15.83 12.9-28.74 28.77-28.75h.02c15.84 0 28.75 12.91 28.75 28.75 0 15.88-12.91 28.79-28.75 28.79zm33 51.72c-.1-18.1 4.45-36.46 14.15-53.25 9.7-16.81 23.33-29.94 39.06-38.9.51 3.81.78 7.7.78 11.66 0 36.29-22.34 67.46-53.99 80.49z" fill="#616679"/><path d="m429.07 223.78c-21.57-12.45-45.26-17.67-68.39-16.51 12.54-19.47 19.87-42.63 19.87-67.49 0-32.38-12.35-61.83-32.55-83.99 8.65 15.3 13.58 33.01 13.58 51.84 0 27.98-10.89 53.42-28.65 72.32-20.56-18.05-47.48-29.01-76.93-29.01v29.74c20.01 0 38.46 6.79 53.18 18.19-15.61 9.12-33.78 14.36-53.16 14.36-.01 0-.01 0-.02 0v25.69h.02c15.84 0 28.75 12.91 28.75 28.75 0 15.88-12.91 28.79-28.75 28.79-.01 0-.01 0-.02 0v92.12c.01-.01.01-.03.02-.04 10.55 20.6 26.95 38.5 48.48 50.95 28.06 16.21 59.74 20.229 89.02 13.81-17.57-.16-35.37-4.72-51.68-14.14-24.22-13.98-40.8-36.11-48.29-60.92 46.01-15.67 79.2-59.31 79.2-110.55 0-7.79-.77-15.4-2.23-22.76 25.23-5.92 52.68-2.62 76.88 11.36 16.31 9.42 29.19 22.53 38.11 37.67-9.09-28.58-28.42-53.98-56.44-70.18zm-140.05 124.4c-.1-18.1 4.45-36.46 14.15-53.25 9.7-16.81 23.33-29.94 39.06-38.9.51 3.81.78 7.7.78 11.66 0 36.29-22.34 67.46-53.99 80.49z" fill="#464651"/></g></svg>