<svg id="Capa_1" enable-background="new 0 0 512 512" height="512" viewBox="0 0 512 512" width="512" xmlns="http://www.w3.org/2000/svg"><circle cx="256" cy="256" fill="#6c82ff" r="256"/><path d="m512 256c0 87.11-43.52 164.07-110 210.31-41.41 28.8-91.73 45.69-146 45.69s-104.59-16.89-146-45.69c-66.48-46.24-110-123.2-110-210.31 0-46.22 12.25-89.57 33.68-127 44.12 77.07 127.16 129 222.32 129s178.21-51.93 222.32-129c21.43 37.43 33.68 80.78 33.68 127z" fill="#4d6df4"/><path d="m106.044 333.733-6.912 84.282h36.329l6.67-81.325c1.655-20.201-3.5-40.682-14.519-57.672-5.271-8.136-8.054-17.582-8.054-27.341.008-27.086 22.038-49.651 49.099-50.285.412-.008.823-.016 1.227-.016 13.242 0 25.669 5.065 35.148 14.321 9.784 9.553 15.161 22.334 15.161 35.996 0 9.751-2.783 19.197-8.054 27.325-11.011 16.989-16.166 37.47-14.511 57.672l6.67 81.325h36.329l-6.912-84.282c-1.005-12.271 2.116-24.706 8.803-35.016 9.083-14.008 13.885-30.265 13.885-47.023 0-23.495-9.256-45.475-26.073-61.896-16.314-15.935-37.709-24.632-60.447-24.624-.692 0-1.392.008-2.084.025-22.606.527-43.828 9.808-59.755 26.114-15.919 16.306-24.681 37.742-24.689 60.356-.008 16.767 4.793 33.032 13.876 47.048 6.689 10.311 9.818 22.746 8.813 35.016z" fill="#ffe400"/><path d="m233.716 333.733 10.319 125.827h-74.15v-36.21h34.852l-7.107-86.66c-1.655-20.201 3.5-40.682 14.511-57.672 5.27-8.128 8.054-17.574 8.054-27.325 0-13.662-5.377-26.443-15.161-35.996-9.479-9.256-21.906-14.321-35.148-14.321v-36.202c22.737-.008 44.133 8.688 60.447 24.623 16.817 16.421 26.073 38.401 26.073 61.896 0 16.759-4.801 33.015-13.885 47.023-6.689 10.312-9.81 22.747-8.805 35.017z" fill="#ffce00"/><path d="m124.088 335.216-6.791 82.799h18.165l6.67-81.325c1.655-20.201-3.5-40.682-14.519-57.672-5.271-8.136-8.054-17.582-8.054-27.341.008-27.086 22.038-49.651 49.099-50.285.412-.008.823-.016 1.227-.016 13.242 0 25.669 5.065 35.148 14.321 9.784 9.553 15.161 22.334 15.161 35.996 0 9.751-2.783 19.197-8.054 27.325-11.011 16.989-16.166 37.47-14.511 57.672l6.67 81.325h18.165l-6.791-82.808c-1.334-16.306 2.75-32.603 11.661-46.34 6.934-10.698 10.969-23.462 10.969-37.174 0-37.783-30.627-68.41-68.419-68.419-.552 0-1.104 0-1.655.016-36.919.873-66.763 31.45-66.772 68.386-.008 13.712 4.027 26.485 10.969 37.19 8.903 13.73 12.996 30.036 11.662 46.35z" fill="#ffce00"/><path d="m227.333 288.868c-8.911 13.736-12.995 30.034-11.661 46.34l8.713 106.243h-54.501v-18.101h34.852l-7.107-86.66c-1.655-20.201 3.5-40.682 14.511-57.672 5.27-8.128 8.054-17.574 8.054-27.325 0-13.662-5.377-26.443-15.161-35.996-9.479-9.256-21.906-14.321-35.148-14.321v-18.101c37.792.008 68.419 30.635 68.419 68.419-.001 13.711-4.036 26.476-10.971 37.174z" fill="#ffb600"/><path d="m297.76 370.91v137.69c-13.59 2.24-27.54 3.4-41.76 3.4-30.22 0-59.21-5.23-86.12-14.85-22.61-8.07-43.76-19.24-62.93-32.99-9.66-6.93-18.82-14.53-27.42-22.71-14.15-13.46-26.75-28.52-37.53-44.9v-25.64z" fill="#4e689b"/><path d="m297.76 370.91v137.69c-13.59 2.24-27.54 3.4-41.76 3.4-30.22 0-59.21-5.23-86.12-14.85-22.61-8.07-43.76-19.24-62.93-32.99v-93.25z" fill="#374c81"/><path d="m297.76 370.91v137.69c-13.59 2.24-27.54 3.4-41.76 3.4-30.22 0-59.21-5.23-86.12-14.85v-126.24z" fill="#234177"/><path d="m297.76 370.91v70.54h-218.23c-14.15-13.46-26.75-28.52-37.53-44.9v-25.64z" fill="#374c81"/><path d="m106.945 370.909h190.812v70.546h-190.812z" fill="#234177"/><path d="m169.878 370.909h127.878v70.546h-127.878z" fill="#16325b"/><path d="m473.401 148.05v202.268c0 23-18.646 41.646-41.646 41.646h-120.685c-23 0-41.646-18.645-41.646-41.646v-223.514c0-5.636 2.284-10.734 5.98-14.43 3.686-3.686 8.784-5.971 14.421-5.971 11.263 0 20.4 9.128 20.4 20.4v224.368h122.385v-203.976h-40.801v142.785c0 5.636-2.284 10.725-5.971 14.421-3.686 3.686-8.793 5.971-14.421 5.971-11.263 0-20.4-9.128-20.4-20.391v-141.931c0-15.238 8.19-28.562 20.4-35.824 6.221-3.696 13.492-5.822 21.246-5.822h39.092c23.001 0 41.646 18.645 41.646 41.646z" fill="#fff"/><path d="m473.401 148.05v202.268c0 23-18.646 41.646-41.646 41.646h-60.338v-40.792h61.192v-203.977h-40.801v142.785c0 5.636-2.284 10.725-5.971 14.421-3.686 3.686-8.793 5.971-14.421 5.971v-198.146c6.221-3.696 13.492-5.822 21.246-5.822h39.092c23.002 0 41.647 18.645 41.647 41.646z" fill="#d1f6ff"/><path d="m452.546 152.107v195.128c0 13.984-11.338 25.322-25.322 25.322h-112.077c-13.984 0-25.322-11.338-25.322-25.322v-240.831c11.263 0 20.4 9.128 20.4 20.4v224.368h122.385v-203.977h-40.801v142.785c0 5.636-2.284 10.725-5.971 14.421-3.686 3.686-8.793 5.971-14.421 5.971v-158.265c0-13.984 11.338-25.322 25.322-25.322h30.485c13.984.001 25.322 11.338 25.322 25.322z" fill="#d1f6ff"/><path d="m452.546 152.107v195.128c0 13.984-11.338 25.322-25.322 25.322h-55.807v-21.385h61.192v-203.977h-40.801v142.785c0 5.636-2.284 10.725-5.971 14.421-3.686 3.686-8.793 5.971-14.421 5.971v-158.265c0-13.984 11.338-25.322 25.322-25.322h30.485c13.985.001 25.323 11.338 25.323 25.322z" fill="#8fc8f5"/></svg>