<svg id="Icons" enable-background="new 0 0 512 512" height="512" viewBox="0 0 512 512" width="512" xmlns="http://www.w3.org/2000/svg"><g><g><circle cx="256" cy="256" fill="#6052a3" r="256"/></g><g><g><g><g><path d="m389.28 256c-7.007 176.776-259.564 176.759-266.56-.001-1.257-89.831 91.337-155.999 175.801-126.348 53.069 17.401 91.241 69.445 90.759 126.349z" fill="#ea792e"/></g></g><g><g><path d="m387.66 235.95c0 59.61-48.32 107.94-107.94 107.94-143.173-5.689-143.146-210.214.001-215.88 6.409 0 12.699.56 18.799 1.64 46.488 15.663 82.014 56.534 89.14 106.3z" fill="#f39e22"/></g></g><g><g><path d="m350.17 276c-11.046 0-20-8.954-20-20 0-40.897-33.272-74.17-74.17-74.17-11.046 0-20-8.954-20-20s8.954-20 20-20c62.953 0 114.17 51.217 114.17 114.17 0 11.046-8.954 20-20 20z" fill="#f9c744"/></g></g><g><g><path d="m256 370.17c-62.953 0-114.17-51.217-114.17-114.17 0-11.046 8.954-20 20-20s20 8.954 20 20c0 40.897 33.272 74.17 74.17 74.17 26.494 1.031 26.554 38.941 0 40z" fill="#dd5e26"/></g></g><g><g><path d="m277.481 256c0-11.864-9.617-21.481-21.481-21.481-28.494 1.131-28.486 41.835 0 42.962 11.864 0 21.481-9.617 21.481-21.481z" fill="#dd5e26"/></g></g><g><g><path d="m270.559 252.538c0-5.836-4.731-10.567-10.567-10.567-14.017.557-14.013 20.58 0 21.135 5.836-.001 10.567-4.732 10.567-10.568z" fill="#f9c744"/></g></g><g><path d="m341.368 182.682c0-18.079-14.656-32.735-32.735-32.735-43.423 1.724-43.41 63.753 0 65.47 18.079.001 32.735-14.655 32.735-32.735z" fill="#fbd9a3"/></g></g><g><g><g><g><g><path d="m449.19 255.892c-.195 39.683-.858 77.516-8.61 110.325-5.63 22.827-15.401 41.968-35.068 53.588-26.352 15.755-68.608 13.058-101.531 13.705-3.87 0-7.012-3.132-7.012-7.012 0-3.87 3.141-7.012 7.012-7.012 4.272 0 28.386-.037 32.35-.122 30.795-1.122 59.51-2.316 77.025-25.11 16.807-23.618 18.987-58.792 20.951-93.647.588-13.266.86-28.103.86-44.716 0-3.871 3.132-7.012 7.012-7.012 3.87.002 7.011 3.143 7.011 7.013z" fill="#c1b7d3"/></g></g></g><g><g><path d="m449.19 243.29v23.297c0 2.767-.561 5.404-1.589 7.806-3.029 7.152-10.125 12.172-18.389 12.172-11.041 0-19.988-8.947-19.988-19.978v-23.297c-.047-11.022 9.083-20.044 19.988-19.978 11.031 0 19.978 8.946 19.978 19.978z" fill="#9f90ae"/></g><g><path d="m449.19 243.29v23.297c0 2.767-.561 5.404-1.589 7.806-12.917 8.143-30.583-1.693-30.355-17.081v-23.297c0-2.767.561-5.404 1.58-7.806 12.923-8.12 30.589 1.693 30.364 17.081z" fill="#ebd9ea"/></g><g><path d="m443.944 242.681c0-5.924-4.802-10.726-10.726-10.726-14.228.565-14.224 20.889 0 21.452 5.923 0 10.726-4.802 10.726-10.726z" fill="#fff"/></g></g><g><path d="m447.516 315.93c-2.741 33.577-5.662 62.463-22.913 86.71-15.844 20.591-35.575 26.386-63.273 29.411-9.153-2.683-17.604-7.021-24.999-12.687 26.516-1.011 44.496-1.676 63.506-12.648 30.226-19.01 32.091-67.638 34.469-106.109 5.049 4.497 9.499 9.648 13.21 15.323z" fill="#ebd9ea"/></g><g><path d="m440.58 366.217c-5.639 22.819-15.394 41.974-35.067 53.587-7.619-.094-14.706-2.431-20.614-6.385 28.829-9.246 38.02-29.166 44.36-61.553 4.851 3.768 8.769 8.686 11.321 14.351z" fill="#fff"/></g></g><g><g><path d="m277.721 389.28h-43.443c-22.325 0-40.422 18.098-40.422 40.422 0 8.308 6.735 15.043 15.043 15.043h94.202c8.308 0 15.043-6.735 15.043-15.043 0-22.324-18.098-40.422-40.423-40.422z" fill="#9f90ae"/></g><g><path d="m281.828 397.832h-37.808c-14.804 0-26.805 12.001-26.805 26.805 0 5.509 4.466 9.975 9.975 9.975h71.469c5.509 0 9.975-4.466 9.975-9.975-.001-14.804-12.002-26.805-26.806-26.805z" fill="#c1b7d3"/></g><g><path d="m282.051 421.876h-27.167c-6.64 0-12.022-5.383-12.022-12.022 0-6.64 5.383-12.022 12.022-12.022h27.167c15.945.642 15.954 23.399 0 24.044z" fill="#ebd9ea"/></g></g></g></g><g><g><g><path d="m157.958 411.112c-1.428 0-2.87-.407-4.147-1.257-32.248-21.455-57.448-53.263-70.958-89.562-1.444-3.882.531-8.2 4.413-9.646 3.881-1.443 8.2.531 9.646 4.413 12.414 33.359 35.572 62.59 65.208 82.307 6.164 4.069 3.142 13.805-4.162 13.745z" fill="#9175a7"/></g><g><path d="m132.618 449.266c-1.428 0-2.87-.407-4.147-1.257-40.245-26.776-71.695-66.473-88.556-111.774-1.444-3.882.531-8.2 4.413-9.646 3.883-1.442 8.201.531 9.646 4.413 15.766 42.361 45.174 79.48 82.806 104.519 6.161 4.062 3.146 13.807-4.162 13.745z" fill="#9175a7"/></g></g><g><g><path d="m422.116 201.831c-3.044 0-5.906-1.866-7.03-4.886-12.41-33.345-35.569-62.57-65.212-82.292-3.448-2.294-4.385-6.95-2.09-10.398 2.293-3.448 6.95-4.384 10.398-2.09 32.256 21.46 57.457 53.262 70.962 89.548 1.886 4.771-1.925 10.209-7.028 10.118z" fill="#9175a7"/></g><g><path d="m465.057 185.889c-3.044 0-5.906-1.866-7.03-4.886-15.765-42.358-45.172-79.475-82.806-104.513-3.448-2.294-4.385-6.95-2.09-10.398 2.294-3.449 6.95-4.383 10.398-2.09 40.247 26.775 71.696 66.47 88.556 111.769 1.885 4.77-1.925 10.209-7.028 10.118z" fill="#9175a7"/></g></g></g></g></svg>