<svg id="Capa_1" enable-background="new 0 0 512 512" height="512" viewBox="0 0 512 512" width="512" xmlns="http://www.w3.org/2000/svg"><g><g><path d="m0 256c0 43.79 11 85.02 30.39 121.07l225.61 49.67 225.61-49.67c19.39-36.05 30.39-77.28 30.39-121.07 0-46.63-12.47-90.34-34.26-128-41.698 72.091-399.22 76.52-443.48 0-21.79 37.66-34.26 81.37-34.26 128z" fill="#db6870"/><path d="m34.26 128c44.26 76.52 126.99 128 221.74 128s177.48-51.48 221.74-128c-.01-.02-.03-.05-.04-.07-44.27-76.48-126.98-127.93-221.7-127.93s-177.43 51.45-221.7 127.93c-.01.02-.03.05-.04.07z" fill="#e38888"/><path d="m481.61 377.07c-13.95 25.94-32.24 49.2-53.91 68.8-7.929 7.178-50.227-15.176-59.01-9.028-11.356 7.949 10.533 44.038-2.07 50.088-33.48 16.07-70.99 25.07-110.62 25.07s-77.14-9-110.62-25.07c-11.175-5.365 6.799-40.214-3.405-47.08s-48.585 14.25-57.675 6.02c-21.67-19.6-39.96-42.86-53.91-68.8z" fill="#c12439"/></g><g><path d="m427.7 213.53v232.34c-18.18 16.46-38.73 30.33-61.08 41.06h-221.24c-22.35-10.73-42.9-24.6-61.08-41.06v-362.44h213.29z" fill="#e8ebf7"/><path d="m427.7 213.53v232.34c-5.09 4.6-10.36 9.01-15.8 13.18-6.25 4.82-28.28-6.2-34.97-2-6.8 4.31 1.73 23.84-5.48 27.49-1.6.82-3.21 1.61-4.83 2.39h-110.62v-403.5h41.59z" fill="#daddee"/><path d="m297.59 213.531v-130.1l130.11 130.1z" fill="#c8cde4"/></g><g><path d="m149.395 229.509h213.211v20.605h-213.211z" fill="#616579"/><path d="m149.395 276.997h213.211v20.605h-213.211z" fill="#616579"/><g fill="#464652"><path d="m256 229.509h106.605v20.605h-106.605z"/><path d="m256 276.997h106.605v20.605h-106.605z"/></g></g><g><path d="m149.395 324.485h213.211v20.605h-213.211z" fill="#616579"/><path d="m149.395 371.973h213.211v20.605h-213.211z" fill="#616579"/><g fill="#464652"><path d="m256 324.485h106.605v20.605h-106.605z"/><path d="m256 371.973h106.605v20.605h-106.605z"/></g></g><g><path d="m411.9 459.05c-6.25 4.82-12.73 9.35-19.42 13.55-6.8 4.31-13.82 8.29-21.03 11.94l-45.97-45.97 32.97-32.97z" fill="#9965d8"/><path d="m411.9 459.05c-6.25 4.82-12.73 9.35-19.42 13.55l-50.52-50.52 16.49-16.48z" fill="#5541b6"/><ellipse cx="283.826" cy="363.946" fill="#f5dd6e" rx="103.09" ry="103.09" transform="matrix(.707 -.707 .707 .707 -174.218 307.293)"/><path d="m356.722 291.05c40.263 40.263 40.263 105.529 0 145.791l-145.792-145.79c40.263-40.263 105.536-40.256 145.792-.001z" fill="#eec036"/><path d="m333.935 414.05c-27.67 27.67-72.54 27.68-100.21 0-5.81-5.8-10.39-12.36-13.76-19.37-2.982-6.192 1.556-12.725.483-19.383-.709-4.396-7.566-8.845-7.443-13.287.41-15.16 5.65-30.2 15.73-42.64 1.55-1.91 3.21-3.75 4.99-5.53 17.7-17.706 30.935-12.558 53.703-7.614 11.873 2.578 34.709-3.289 44.237 5.444.77.7 1.53 1.43 2.27 2.17 27.669 27.68 27.669 72.54 0 100.21z" fill="#c4f4ff"/><path d="m333.932 313.84c27.676 27.676 27.676 72.535 0 100.211l-100.212-100.21c12.243-12.243 27.85-13.11 43.844-14.521 19.19-1.692 38.937-1.547 54.1 12.35.768.703 1.524 1.427 2.268 2.17z" fill="#9febff"/><g><path d="m331.665 311.67v7.7h-102.93c1.55-1.91 3.21-3.75 4.99-5.53 26.93-26.94 70.139-27.65 97.94-2.17z" fill="#8999e5"/><path d="m331.665 362.01v32.67h-111.7c-4.95-10.28-7.27-21.5-6.96-32.67z" fill="#8999e5"/><g fill="#546ada"><path d="m331.665 311.67v7.7h-92.41l-5.53-5.53c26.93-26.94 70.139-27.65 97.94-2.17z"/><path d="m281.895 362.01h49.77v32.67h-17.101z"/></g></g></g></g></svg>