<svg id="Layer_1" enable-background="new 0 0 512 512" height="512" viewBox="0 0 512 512" width="512" xmlns="http://www.w3.org/2000/svg"><g><path d="m441.662 426.855c36.978-42.908 59.34-98.77 59.34-159.858 0-135.311-109.691-245.002-245.002-245.002s-245.002 109.692-245.002 245.003c0 61.088 22.362 116.95 59.341 159.858z" fill="#49d88b"/><ellipse cx="256" cy="254.503" fill="#1c2e7a" rx="146.945" ry="42.829"/><path d="m256 211.674c-2.472 0-4.928.019-7.37.055-2.383 2.818-3.761 4.46-3.761 4.46s87.872 36.677 6.428 81.109c1.565.014 3.126.035 4.703.035 81.156 0 146.945-19.175 146.945-42.829 0-23.655-65.789-42.83-146.945-42.83z" fill="#142766"/><path d="m363.086 275.818c33.949 14.003 60.964 34.455 76.909 58.715-22.266-80.701-96.194-139.972-183.976-139.972 44.277 0 83.408 32.12 107.067 81.257z" fill="#73c3f9"/><path d="m148.952 275.818c23.659-49.138 62.79-81.257 107.067-81.257-89.938 0-165.332 62.218-185.521 145.956.484-2.007.998-4.001 1.544-5.983 15.945-24.26 42.96-44.712 76.91-58.716z" fill="#1e9ef4"/><path d="m148.952 275.818c20.344-8.391 43.178-14.46 67.628-17.636 9.689-39.043 23.768-63.621 39.44-63.621-44.278 0-83.41 32.12-107.068 81.257z" fill="#1886ea"/><path d="m295.458 258.183c24.45 3.176 47.284 9.245 67.628 17.636-23.658-49.138-62.79-81.257-107.067-81.257 15.672-.001 29.75 24.578 39.439 63.621z" fill="#4fabf7"/><path d="m216.579 258.183c25.51-3.314 52.229-3.462 78.879 0-9.689-39.043-23.767-63.621-39.439-63.621s-29.75 24.578-39.44 63.621z" fill="#73c3f9"/><path d="m363.086 275.818c10.006 20.782 17.243 44.607 20.93 70.338 38.588 9.681 62.837 23.675 62.847 39.24-.001-16.629-2.167-33.811-6.859-50.831-.003-.01-.006-.021-.009-.031-15.945-24.26-42.96-44.712-76.909-58.716z" fill="#4fabf7"/><path d="m144.571 485.251c-7.745-18.372-13.426-38.796-16.549-60.596-38.596-9.683-62.848-23.68-62.848-39.249 0 1.99.04 3.97.101 5.945.354 11.571 1.768 23.145 4.217 34.505 20.797 24.392 46.283 44.664 75.079 59.395z" fill="#1886ea"/><path d="m128.022 346.156c3.686-25.731 10.923-49.556 20.929-70.338-33.949 14.003-60.965 34.456-76.91 58.716-4.62 16.745-6.868 33.975-6.868 50.871v.001c.001-15.569 24.253-29.567 62.849-39.25z" fill="#1886ea"/><path d="m367.476 485.227c28.777-14.729 54.246-34.993 75.031-59.372 1.75-7.961 3.804-19.77 4.254-34.492.061-1.976.101-3.957.101-5.948-.01 15.565-24.259 29.559-62.847 39.239-3.122 21.792-8.798 42.207-16.539 60.573z" fill="#4fabf7"/><path d="m296.415 508.663c25.192-4.182 49.09-12.19 71.062-23.435 7.74-18.367 13.417-38.782 16.539-60.573-21.712 5.447-47.965 9.526-76.994 11.753-2.069 26.951-5.734 51.503-10.607 72.255z" fill="#73c3f9"/><path d="m384.015 346.156c-3.686-25.731-10.923-49.555-20.93-70.338-20.344-8.391-43.177-14.46-67.628-17.636 5.351 21.561 9.362 47.533 11.563 76.221 29.031 2.227 55.284 6.306 76.995 11.753z" fill="#73c3f9"/><path d="m205.016 436.408c-29.029-2.227-55.282-6.306-76.994-11.753 3.123 21.8 8.803 42.224 16.549 60.596 21.97 11.239 45.865 19.241 71.053 23.419-4.874-20.754-8.54-45.308-10.608-72.262z" fill="#1e9ef4"/><path d="m216.579 258.183c-24.45 3.176-47.283 9.244-67.628 17.636-10.006 20.782-17.243 44.607-20.929 70.338 21.712-5.447 47.964-9.526 76.994-11.753 2.201-28.689 6.212-54.66 11.563-76.221z" fill="#1e9ef4"/><path d="m205.016 436.408c2.068 26.954 5.734 51.508 10.608 72.261 13.137 2.179 26.621 3.331 40.376 3.331 13.768 0 27.265-1.154 40.414-3.337 4.873-20.752 8.539-45.304 10.607-72.255-32.478 2.491-67.94 2.613-102.005 0z" fill="#4fabf7"/><path d="m307.021 334.403c-2.201-28.688-6.212-54.659-11.563-76.221-25.455-3.307-52.176-3.469-78.879 0-5.351 21.561-9.362 47.533-11.563 76.221 32.481-2.492 67.943-2.613 102.005 0z" fill="#4fabf7"/><path d="m128.022 346.156c-38.596 9.683-62.848 23.681-62.848 39.249 0 15.569 24.252 29.566 62.848 39.249-3.699-25.821-3.7-52.663 0-78.498z" fill="#1e9ef4"/><path d="m446.862 385.396c-.01-15.565-24.259-29.559-62.847-39.24 3.699 25.819 3.701 52.664 0 78.499 38.588-9.681 62.837-23.675 62.847-39.239v-.01z" fill="#73c3f9"/><path d="m384.015 346.156c-21.712-5.447-47.965-9.526-76.994-11.753 2.492 32.485 2.613 67.943 0 102.005 29.029-2.227 55.283-6.306 76.994-11.753 3.699-25.819 3.701-52.664 0-78.499z" fill="#4fabf7"/><path d="m205.016 334.403c-29.03 2.227-55.282 6.306-76.994 11.753-3.699 25.821-3.701 52.664 0 78.499 21.712 5.447 47.964 9.526 76.994 11.753-2.492-32.485-2.612-67.943 0-102.005z" fill="#1886ea"/><path d="m205.016 334.403c-2.492 32.485-2.613 67.943 0 102.005 32.481 2.492 67.943 2.613 102.005 0 2.492-32.485 2.613-67.943 0-102.005-32.478-2.491-67.94-2.613-102.005 0z" fill="#73c3f9"/><g><path d="m476.418 95.87-201.086-91.671c-12.28-5.598-26.384-5.598-38.665 0l-201.085 91.671c-18.646 8.501-18.646 34.99 0 43.491l77.034 35.119v-20.946c0-9.435 15.13-19.478 40.474-26.866 56.791-16.552 149.055-16.545 205.819 0 25.344 7.388 40.474 17.431 40.474 26.866v20.946l77.034-35.119c18.647-8.501 18.647-34.99.001-43.491z" fill="#3c58a0"/></g><path d="m35.582 95.87c-18.647 8.501-18.647 34.99 0 43.491l77.034 35.119v-20.946c0-9.435 15.13-19.478 40.474-26.866 25.446-7.416 58.017-11.498 91.322-12.267 6.065-2.583 11.588-3.696 11.588-3.696-81.111-43.063-19.332-106.506-19.332-106.506z" fill="#2a428c"/><path d="m256 110.705c-81.155 0-146.945 19.175-146.945 42.828v100.97h.765c7.547-21.59 70.113-38.436 146.18-38.436s138.634 16.846 146.18 38.436h.764v-100.97c.001-23.653-65.788-42.828-146.944-42.828z" fill="#2a428c"/><path d="m256 110.705c-81.156 0-146.945 19.175-146.945 42.828v100.97h.764c7.175-20.526 64.092-36.752 135.049-38.303v-.011c-16.376-6.312-16.045-23.05-16.045-23.05s0-47.152 0-62.066c.001-14.914 27.177-20.368 27.177-20.368z" fill="#1c2e7a"/><g><path d="m343.628 307.392c-5.556 0-10.06-4.505-10.06-10.061v-55.054c0-5.556 4.504-10.061 10.06-10.061s10.06 4.505 10.06 10.061v55.054c.001 5.556-4.503 10.061-10.06 10.061z" fill="#ffdd40"/></g><path d="m343.628 232.217c-5.556 0-10.06 4.505-10.06 10.061v35.322c0-5.556 4.504-10.061 10.06-10.061 5.557 0 10.061 4.505 10.061 10.061v-35.322c0-5.556-4.504-10.061-10.061-10.061z" fill="#ffb332"/><g><path d="m343.628 204.996c-4.167 0-7.545-3.378-7.545-7.545v-169.981c0-4.168 3.378-7.545 7.545-7.545s7.545 3.378 7.545 7.545v169.98c.001 4.168-3.377 7.546-7.545 7.546z" fill="#ffdd40"/></g><path d="m371.211 221.017c0 15.234-12.349 27.583-27.582 27.583s-27.582-12.349-27.582-27.583c0-15.233 12.349-27.582 27.582-27.582 15.233-.001 27.582 12.348 27.582 27.582z" fill="#ffb332"/><ellipse cx="351.905" cy="214.204" fill="#ffdd40" rx="12.168" ry="12.168" transform="matrix(.23 -.973 .973 .23 62.58 507.481)"/></g></svg>