<?xml version="1.0" encoding="iso-8859-1"?>
<!-- Generator: Adobe Illustrator 19.0.0, SVG Export Plug-In . SVG Version: 6.00 Build 0)  -->
<svg version="1.1" id="Capa_1" xmlns="http://www.w3.org/2000/svg" xmlns:xlink="http://www.w3.org/1999/xlink" x="0px" y="0px"
	 viewBox="0 0 512 512" style="enable-background:new 0 0 512 512;" xml:space="preserve">
<path style="fill:#2B6C7E;" d="M410.429,460.176C367.5,492.696,314.008,512,256,512C114.615,512,0,397.385,0,256S114.615,0,256,0
	s256,114.615,256,256c0,57.312-18.837,110.223-50.652,152.887c-1.916-0.246-3.865-0.387-5.848-0.387
	c-25.129,0-45.5,20.371-45.5,45.5C410,456.096,410.154,458.155,410.429,460.176z"/>
<path style="fill:#D09247;" d="M462,407.992c-14.875,20.127-32.621,38.003-52.646,53.008H102.646
	C82.621,445.996,64.875,428.12,50,407.992V174.876h412V407.992z"/>
<path style="fill:#FFE7BF;" d="M424,56v360c0,2.761-2.239,5-5,5H93c-2.761,0-5-2.239-5-5V56c0-2.761,2.239-5,5-5h326
	C421.761,51,424,53.239,424,56z"/>
<path style="fill:#FFF5F5;" d="M424,56v360c0,2.761-2.239,5-5,5H115c-2.761,0-5-2.239-5-5V56c0-2.761,2.239-5,5-5h304
	C421.761,51,424,53.239,424,56z"/>
<path style="fill:#FFE1A8;" d="M121,123v-11c0-1.104,0.895-2,2-2h126c1.105,0,2,0.896,2,2v11c0,1.104-0.895,2-2,2H123
	C121.895,125,121,124.104,121,123z M123,153h88.857c1.105,0,2-0.896,2-2v-11c0-1.104-0.895-2-2-2H123c-1.105,0-2,0.896-2,2v11
	C121,152.104,121.895,153,123,153z M123,237.333h226c1.105,0,2-0.895,2-2v-11c0-1.104-0.895-2-2-2H123c-1.105,0-2,0.896-2,2v11
	C121,236.438,121.895,237.333,123,237.333z M389,251.667H123c-1.105,0-2,0.896-2,2v11c0,1.105,0.895,2,2,2h266c1.105,0,2-0.895,2-2
	v-11C391,252.562,390.104,251.667,389,251.667z M123,296h230c1.105,0,2-0.896,2-2v-11c0-1.104-0.895-2-2-2H123c-1.105,0-2,0.896-2,2
	v11C121,295.104,121.895,296,123,296z M383,311H123c-1.105,0-2,0.896-2,2v11c0,1.104,0.895,2,2,2h260c1.105,0,2-0.896,2-2v-11
	C385,311.896,384.104,311,383,311z"/>
<path style="fill:#FFDF8E;" d="M462,407.992c-14.875,20.127-32.621,38.003-52.646,53.008H102.646
	C82.621,445.996,64.875,428.12,50,407.992V174.876l206,160l206-160V407.992z"/>
<path style="fill:#FBC56D;" d="M88.333,432.236c9.934,10.467,20.743,20.094,32.313,28.764h-18
	C82.621,445.996,64.875,428.12,50,407.992V174.876l18,13.98v192.28C68,400.142,75.25,418.452,88.333,432.236z"/>
<path style="fill:#FFAA00;" d="M360,42h-20c-5.523,0-10,4.477-10,10v40c0,11.046,8.954,20,20,20s20-8.954,20-20V52
	C370,46.477,365.523,42,360,42z M357.5,92.167c0,4.142-3.358,7.5-7.5,7.5s-7.5-3.358-7.5-7.5V54c0-1.105,0.896-2,2-2h11
	c1.104,0,2,0.895,2,2V92.167z"/>
<g>
</g>
<g>
</g>
<g>
</g>
<g>
</g>
<g>
</g>
<g>
</g>
<g>
</g>
<g>
</g>
<g>
</g>
<g>
</g>
<g>
</g>
<g>
</g>
<g>
</g>
<g>
</g>
<g>
</g>
</svg>
