<svg id="Capa_1" enable-background="new 0 0 512 512" height="512" viewBox="0 0 512 512" width="512" xmlns="http://www.w3.org/2000/svg"><path d="m512 256c0 27.48-4.33 53.94-12.33 78.75-9.12 28.2-22.98 54.26-40.66 77.23-46.81 60.82-120.33 100.02-203.01 100.02s-156.2-39.2-203.01-100.02c-17.68-22.97-31.54-49.03-40.66-77.23-8-24.81-12.33-51.27-12.33-78.75 0-141.38 114.62-256 256-256s256 114.62 256 256z" fill="#9e69e2"/><path d="m512 256c0 87.11-43.52 164.07-110 210.31-41.41 28.8-91.73 45.69-146 45.69s-104.59-16.89-146-45.69c-66.48-46.24-110-123.2-110-210.31 0-46.22 12.25-89.57 33.68-127 44.12 77.07 127.16 129 222.32 129s178.21-51.93 222.32-129c21.43 37.43 33.68 80.78 33.68 127z" fill="#8e4fd2"/><path d="m499.67 334.75c-9.12 28.2-22.98 54.26-40.66 77.23-46.81 60.82-120.33 100.02-203.01 100.02s-156.2-39.2-203.01-100.02c-17.68-22.97-31.54-49.03-40.66-77.23 66.14-54.81 151.05-87.75 243.67-87.75s177.53 32.94 243.67 87.75z" fill="#29334c"/><path d="m499.67 334.75c-9.12 28.2-22.98 54.26-40.66 77.23-46.81 60.82-120.33 100.02-203.01 100.02v-265c92.62 0 177.53 32.94 243.67 87.75z" fill="#20273a"/><path d="m452 316c0 105.34-83.12 191.28-187.34 195.81-.31.02-.62.03-.93.04-.87.03-1.74.06-2.6.08-1.73.05-3.44.07-5.13.07-108.24 0-196-87.76-196-196s87.76-196 196-196h.28c108.11.15 195.72 87.85 195.72 196z" fill="#ffe853"/><path d="m452 316c0 105.34-83.12 191.28-187.34 195.81-.31.02-.62.03-.93.04-.87.03-1.74.06-2.6.08-1.73.05-3.44.07-5.13.07-58.54-45.3-103.35-116.25-103.35-196s44.81-150.7 103.35-196h.28c108.11.15 195.72 87.85 195.72 196z" fill="#fed110"/><path d="m452 316c0 108.244-87.756 196-196 196v-392c108.244 0 196 87.756 196 196z" fill="#ff9f01"/><path d="m368.85 359.73c-6.2 32.77-26.3 60.6-53.95 77.14-17.21 10.32-37.36 16.25-58.9 16.25s-41.69-5.93-58.9-16.25c-27.65-16.54-47.75-44.37-53.95-77.14-2.12-11.14 6.42-21.47 17.76-21.47h10.42 5.793l78.877 18 78.877-18h5.793 10.42c11.34 0 19.88 10.33 17.76 21.47z" fill="#313b5a"/><path d="m368.85 359.73c-6.2 32.77-26.3 60.6-53.95 77.14-17.21 10.32-37.36 16.25-58.9 16.25v-89.86l78.877-25h5.793 10.42c11.34 0 19.88 10.33 17.76 21.47z" fill="#29334c"/><path d="m314.905 436.873c-17.217 10.315-37.366 16.244-58.905 16.244s-41.687-5.929-58.905-16.244c9.101-23.672 32.039-40.462 58.905-40.462s49.804 16.791 58.905 40.462z" fill="#ff1d56"/><path d="m314.905 436.873c-17.217 10.315-37.366 16.244-58.905 16.244v-56.706c26.865 0 49.804 16.791 58.905 40.462z" fill="#dd1265"/><path d="m201.579 374.166 12.28-35.906h-36.736l12.28 35.906c1.984 5.802 10.191 5.802 12.176 0z" fill="#d1f6ff"/><path d="m322.597 374.166 12.28-35.906h-36.736l12.28 35.906c1.985 5.802 10.192 5.802 12.176 0z" fill="#8ccaf2"/><path d="m318.234 338.26v1.764c0 13.789-11.187 24.976-24.976 24.976h-74.516c-13.789 0-24.976-11.187-24.976-24.976v-1.764z" fill="#fff"/><path d="m318.234 338.26v1.764c0 13.789-11.187 24.976-24.976 24.976h-37.258v-26.74z" fill="#d1f6ff"/><path d="m233.762 266.264c0 25.458-20.638 46.095-46.095 46.095-25.458 0-46.095-20.638-46.095-46.095 0-9.432 2.833-18.203 7.695-25.508 8.259-12.41 84.495.05 84.495 25.508z" fill="#fff"/><circle cx="187.667" cy="266.264" fill="#29334c" r="25.616"/><path d="m370.43 266.26c0 25.46-20.64 46.1-46.1 46.1-25.45 0-46.09-20.64-46.09-46.1 0-25.45 76.24-37.91 84.49-25.5 4.87 7.3 7.7 16.08 7.7 25.5z" fill="#fff"/><circle cx="324.333" cy="266.264" fill="#29334c" r="25.616"/><path d="m362.73 240.76-84.49 25.5c0-25.45 20.64-46.09 46.09-46.09 16.03 0 30.15 8.18 38.4 20.59z" fill="#c55835"/><path d="m149.272 240.76 84.49 25.5c0-25.45-20.64-46.09-46.09-46.09-16.03 0-30.15 8.18-38.4 20.59z" fill="#ed771b"/><path d="m438.73 245c-11.86 0-23.01-5.32-30.71-14.33-18.34-21.44-45.59-35.03-76.02-35.03-30.42 0-57.66 13.58-76 35.01-16.78-19.61-41.01-32.64-68.31-34.71-2.54-.2-5.1-.3-7.69-.3-30.43 0-57.68 13.59-76.02 35.03-7.7 9.01-18.85 14.33-30.71 14.33 28.45-73.14 99.54-125 182.73-125h.28c41.54.06 80.05 13.04 111.73 35.14 31.67 22.1 56.51 53.32 70.72 89.86z" fill="#313b5a"/><path d="m438.73 245c-11.86 0-23.01-5.32-30.71-14.33-18.34-21.44-45.59-35.03-76.02-35.03-30.42 0-57.66 13.58-76 35.01-16.78-19.61-41.01-32.64-68.31-34.71 18.01-29.55 41.75-55.38 68.31-75.94h.28c41.54.06 80.05 13.04 111.73 35.14 31.67 22.1 56.51 53.32 70.72 89.86z" fill="#29334c"/><path d="m438.73 245c-11.86 0-23.01-5.32-30.71-14.33-18.34-21.44-45.59-35.03-76.02-35.03-30.42 0-57.66 13.58-76 35.01v-110.65h.28c41.54.06 80.05 13.04 111.73 35.14 31.67 22.1 56.51 53.32 70.72 89.86z" fill="#20273a"/></svg>