<svg id="Capa_1" enable-background="new 0 0 512 512" height="512" viewBox="0 0 512 512" width="512" xmlns="http://www.w3.org/2000/svg"><circle cx="256" cy="256" fill="#65b2fe" r="256"/><path d="m512 256c0 87.11-43.52 164.07-110 210.31-41.41 28.8-91.73 45.69-146 45.69s-104.59-16.89-146-45.69c-66.48-46.24-110-123.2-110-210.31 0-46.22 12.25-89.57 33.68-127 44.12 77.07 127.16 129 222.32 129s178.21-51.93 222.32-129c21.43 37.43 33.68 80.78 33.68 127z" fill="#0e9ce7"/><path d="m452 316c0 105.34-83.12 191.28-187.34 195.81-.31.02-.62.03-.93.04-.87.03-1.74.06-2.6.08-1.73.05-3.44.07-5.13.07-108.24 0-196-87.76-196-196s87.76-196 196-196h.28c108.11.15 195.72 87.85 195.72 196z" fill="#ffe853"/><path d="m452 316c0 105.34-83.12 191.28-187.34 195.81-.31.02-.62.03-.93.04-.87.03-1.74.06-2.6.08-1.73.05-3.44.07-5.13.07-58.54-45.3-103.35-116.25-103.35-196s44.81-150.7 103.35-196h.28c108.11.15 195.72 87.85 195.72 196z" fill="#fed110"/><path d="m452 316c0 108.244-87.756 196-196 196v-392c108.244 0 196 87.756 196 196z" fill="#ff9f01"/><path d="m368.85 359.73c-6.2 32.77-26.3 60.6-53.95 77.14-17.21 10.32-37.36 16.25-58.9 16.25s-41.69-5.93-58.9-16.25c-27.65-16.54-47.75-44.37-53.95-77.14-2.12-11.14 6.42-21.47 17.76-21.47h10.42l15.45 15.45h139.95l13.94-15.45h10.42c11.34 0 19.88 10.33 17.76 21.47z" fill="#313b5a"/><path d="m368.85 359.73c-6.2 32.77-26.3 60.6-53.95 77.14-17.21 10.32-37.36 16.25-58.9 16.25v-99.41h70.73l13.94-15.45h10.42c11.34 0 19.88 10.33 17.76 21.47z" fill="#29334c"/><path d="m314.905 436.873c-17.217 10.315-37.366 16.244-58.905 16.244s-41.687-5.929-58.905-16.244c9.101-23.672 32.039-40.462 58.905-40.462s49.804 16.791 58.905 40.462z" fill="#ff1d56"/><path d="m314.905 436.873c-17.217 10.315-37.366 16.244-58.905 16.244v-56.706c26.865 0 49.804 16.791 58.905 40.462z" fill="#dd1265"/><path d="m340.67 338.26v2.4c0 18.76-15.22 33.98-33.98 33.98h-101.38c-18.76 0-33.98-15.22-33.98-33.98v-2.4z" fill="#fff"/><path d="m340.67 338.26v2.4c0 18.76-15.22 33.98-33.98 33.98h-50.69v-36.38z" fill="#d1f6ff"/><path d="m459.17 231.67c0 6.9-5.6 12.5-12.5 12.5h-45.02l-20.35 19.83c-2.31 2.25-3.36 5.5-2.82 8.67l6.63 38.63c1.37 8.01-7.03 14.11-14.22 10.33l-34.69-18.24c-2.85-1.5-6.26-1.5-9.11 0l-34.69 18.24c-7.19 3.78-15.59-2.32-14.22-10.33l6.62-38.63c.55-3.17-.5-6.42-2.81-8.67l-25.99-25.33-25.99 25.33c-2.31 2.25-3.36 5.5-2.81 8.67l6.62 38.63c1.37 8.01-7.03 14.11-14.22 10.33l-34.69-18.24c-2.85-1.5-6.26-1.5-9.11 0l-34.69 18.24c-7.19 3.78-15.59-2.32-14.22-10.33l6.63-38.63c.54-3.17-.51-6.42-2.82-8.67l-20.35-19.83h-45.02c-6.9 0-12.5-5.6-12.5-12.5 0-6.91 5.6-12.5 12.5-12.5h48 .01l33.51-4.87c3.19-.47 5.95-2.47 7.37-5.36l17.35-35.15c3.59-7.28 13.98-7.28 17.57 0l17.35 35.15c1.42 2.89 4.18 4.89 7.37 5.36l38.79 5.63c1.24.18 2.35.59 3.35 1.14 1-.55 2.11-.96 3.35-1.14l38.79-5.63c3.19-.47 5.95-2.47 7.37-5.36l17.35-35.15c3.59-7.28 13.98-7.28 17.57 0l17.35 35.15c1.42 2.89 4.18 4.89 7.37 5.36l33.51 4.87h.01 48c6.9 0 12.5 5.59 12.5 12.5z" fill="#ed771b"/><path d="m459.17 231.67c0 6.9-5.6 12.5-12.5 12.5h-45.02l-20.35 19.83c-2.31 2.25-3.36 5.5-2.82 8.67l6.63 38.63c1.37 8.01-7.03 14.11-14.22 10.33l-34.69-18.24c-2.85-1.5-6.26-1.5-9.11 0l-34.69 18.24c-7.19 3.78-15.59-2.32-14.22-10.33l6.62-38.63c.55-3.17-.5-6.42-2.81-8.67l-25.99-25.33v-17.6c1-.55 2.11-.96 3.35-1.14l38.79-5.63c3.19-.47 5.95-2.47 7.37-5.36l17.35-35.15c3.59-7.28 13.98-7.28 17.57 0l17.35 35.15c1.42 2.89 4.18 4.89 7.37 5.36l33.51 4.87h.01 48c6.9 0 12.5 5.59 12.5 12.5z" fill="#c6601a"/><path d="m185.46 203.865 10.077 20.417c.829 1.68 2.432 2.844 4.286 3.114l22.532 3.274c4.669.678 6.533 6.416 3.155 9.709l-16.304 15.893c-1.342 1.308-1.954 3.192-1.637 5.038l3.849 22.441c.798 4.65-4.083 8.196-8.259 6.001l-20.153-10.595c-1.658-.872-3.639-.872-5.298 0l-20.153 10.595c-4.176 2.195-9.057-1.351-8.259-6.001l3.849-22.441c.317-1.846-.295-3.731-1.637-5.038l-16.304-15.893c-3.378-3.293-1.514-9.031 3.155-9.709l22.532-3.274c1.854-.269 3.457-1.434 4.286-3.114l10.077-20.417c2.085-4.231 8.118-4.231 10.206 0z" fill="#313b5a"/><path d="m336.749 203.865 10.077 20.417c.829 1.68 2.432 2.844 4.286 3.114l22.532 3.274c4.669.678 6.533 6.416 3.155 9.709l-16.304 15.893c-1.342 1.308-1.954 3.192-1.637 5.038l3.849 22.441c.798 4.65-4.083 8.196-8.259 6.001l-20.153-10.595c-1.658-.872-3.639-.872-5.298 0l-20.153 10.595c-4.176 2.195-9.057-1.351-8.259-6.001l3.849-22.441c.317-1.846-.295-3.731-1.637-5.038l-16.304-15.893c-3.378-3.293-1.514-9.031 3.155-9.709l22.532-3.274c1.854-.269 3.457-1.434 4.286-3.114l10.077-20.417c2.085-4.231 8.118-4.231 10.206 0z" fill="#29334c"/></svg>