<svg id="Icons" enable-background="new 0 0 512 512" height="512" viewBox="0 0 512 512" width="512" xmlns="http://www.w3.org/2000/svg"><g><g><path d="m512 256c0 141.38-114.62 256-256 256s-256-114.62-256-256 114.62-256 256-256c62.59 0 119.93 22.47 164.41 59.77 26.55 22.26 48.51 49.82 64.26 81.04 8.2 16.23 14.71 33.44 19.32 51.42 5.23 20.39 8.01 41.75 8.01 63.77z" fill="#6052a3"/></g><g><path d="m506.73 307.92c-29.377 143.578-175.476 233.544-316.81 195.47-92.139-23.916-166.053-102.008-184.65-195.47z" fill="#d48d77"/><g fill="#c17e62"><path d="m288.65 423.76v86.18c-4.57.58-9.17 1.04-13.81 1.37v-87.55c.318-9.145 13.491-9.147 13.81 0z"/><path d="m288.65 307.92v21.26c0 3.81-3.09 6.9-6.91 6.9-3.81 0-6.9-3.09-6.9-6.9v-21.26z"/><path d="m239.242 471.872c-3.814 0-6.906-3.092-6.906-6.906v-127.551c0-3.814 3.092-6.906 6.906-6.906s6.906 3.092 6.906 6.906v127.552c0 3.813-3.092 6.905-6.906 6.905z"/><path d="m189.92 307.92v101c0 3.81-3.09 6.9-6.9 6.9-3.82 0-6.91-3.09-6.91-6.9v-101z"/><path d="m189.92 465.94v37.45c-4.66-1.24-9.26-2.61-13.81-4.11v-33.34c.318-9.141 13.489-9.15 13.81 0z"/><path d="m136.71 369.85v112.71c-4.7-2.48-9.31-5.1-13.82-7.86v-104.85c.316-9.127 13.503-9.135 13.82 0z"/><path d="m82.11 307.92v40.79c0 3.81-3.09 6.9-6.91 6.9-3.81 0-6.9-3.09-6.9-6.9v-40.79z"/><path d="m82.11 403.73v40.14c-4.77-4.42-9.38-9.02-13.81-13.8v-26.34c.279-9.121 13.536-9.12 13.81 0z"/><path d="m36.96 307.92v80.65c-5.08-8.38-9.69-17.07-13.81-26.04v-54.61z"/><path d="m313.339 471.872c-3.814 0-6.906-3.092-6.906-6.906v-127.551c0-3.814 3.092-6.906 6.906-6.906s6.906 3.092 6.906 6.906v127.552c0 3.813-3.092 6.905-6.906 6.905z"/><path d="m356.8 307.92v73.53c0 3.81-3.09 6.9-6.9 6.9-3.82 0-6.91-3.09-6.91-6.9v-73.53z"/><path d="m356.8 440.54v50.85c-4.53 1.94-9.14 3.76-13.81 5.44v-56.29c.275-9.128 13.538-9.139 13.81 0z"/><path d="m388.4 459.034c-3.814 0-6.906-3.092-6.906-6.906v-127.551c0-3.814 3.092-6.906 6.906-6.906s6.906 3.092 6.906 6.906v127.552c-.001 3.813-3.092 6.905-6.906 6.905z"/><path d="m435.73 307.92v96.74c0 3.81-3.09 6.9-6.9 6.9-3.82 0-6.91-3.09-6.91-6.9v-96.74z"/><path d="m474.94 347.79v40.94c-4.28 7.04-8.89 13.86-13.81 20.43v-61.37c.275-9.128 13.538-9.139 13.81 0z"/></g></g><g id="Laptop_2_"><g><g><path d="m276.012 193.13v126.664c0 10.394-8.423 18.816-18.809 18.816h-202.284c-10.394 0-18.817-8.423-18.817-18.816v-126.664c0-1.102.097-2.188.29-3.242 1.52-8.849 9.235-15.575 18.527-15.575h202.284c10.386.001 18.809 8.424 18.809 18.817z" fill="#a583bb"/><path d="m185.654 338.611h-130.735c-10.394 0-18.817-8.423-18.817-18.816v-126.665c0-1.102.097-2.188.29-3.242 79.41 6.163 142.826 69.386 149.262 148.723z" fill="#9175a7"/><path d="m276.012 193.13v97.14c-70.191 17.034-137.59-44.456-126.889-115.956h108.081c10.385 0 18.808 8.423 18.808 18.816z" fill="#c2aacf"/></g><g><g><path d="m356.62 402.84v12.083c.11 2.44-2.407 3.603-7.103 3.668h-209.581c-8.375 0-20.804-4.304-27.762-9.613l-63.473-48.445c-3.218-2.454-4.698-4.69-4.537-6.387v-12.308h14.408v9.083h202.276c8.375 0 20.804 4.304 27.762 9.613l56.916 43.433v-1.126h11.094z" fill="#9175a7"/><path d="m153.451 384.755c0 11.818-1.882 23.185-5.374 33.836h-8.141c-8.375 0-20.804-4.304-27.762-9.613l-63.473-48.445c-3.218-2.454-4.698-4.69-4.537-6.387v-12.308h14.408v9.083h89.505c3.491 10.65 5.374 22.017 5.374 33.834z" fill="#6c53a2"/><path d="m356.62 402.84v12.083c.01.14.005.277 0 .41-.169 1.995-2.582 3.258-7.103 3.258h-119.19c-22.002-15.945-37.786-39.942-43.039-67.672h73.561c8.375 0 20.804 4.304 27.762 9.613l56.916 43.433v-1.126h11.093z" fill="#a583bb"/></g><g><path d="m349.516 406.283h-209.58c-8.375 0-20.804-4.304-27.762-9.613l-63.473-48.445c-6.959-5.309-5.808-9.613 2.566-9.613h209.581c8.375 0 20.804 4.304 27.762 9.613l17.94 13.692 45.533 34.753c6.958 5.309 5.808 9.613-2.567 9.613z" fill="#c2aacf"/><path d="m352.083 396.67c-12.758-9.738-51.389-39.222-63.473-48.445-6.959-5.31-19.388-9.613-27.762-9.613h-75.178c1.923 26.25 13.169 49.901 30.433 67.672h133.413c8.375-.001 9.525-4.305 2.567-9.614z" fill="#decee5"/><path d="m153.451 384.755c0 7.369-.732 14.569-2.132 21.528h-11.383c-8.375 0-20.804-4.304-27.762-9.613l-63.473-48.445c-6.959-5.309-5.808-9.613 2.566-9.613h91.927c6.58 14.005 10.257 29.644 10.257 46.143z" fill="#a583bb"/><path d="m306.55 361.916c-31.735 11.552-105.536 5.066-107.252-23.305h61.55c8.375 0 20.804 4.304 27.762 9.613z" fill="#fff"/></g></g><g><path d="m267.967 199.462v105.957c0 9.444-7.659 17.103-17.103 17.103h-189.614c-9.444 0-17.103-7.659-17.103-17.103v-105.957c0-3.089.821-5.985 2.261-8.487 2.936-5.149 8.487-8.616 14.842-8.616h189.614c9.445 0 17.103 7.658 17.103 17.103z" fill="#fff"/></g><path d="m163.562 324.933h-15.006c-7.439.228-7.445 11.033 0 11.263h15.006c7.439-.228 7.445-11.033 0-11.263z" fill="#6c53a2"/><g><g><g fill="#3e4e60"><path d="m131.674 351.957h-20.804l-.322-.249-5.269-4.022c-.925-.7-.426-2.172.732-2.172h20.796l.322.249 3.902 2.977h.008l1.368 1.046c.916.699.417 2.171-.733 2.171z"/><path d="m116.115 365.77h-19.942l-.314-.241c-.008 0-.008-.008-.016-.008l-7.546-5.76c-.925-.7-.426-2.172.732-2.172h19.943l.322.249 6.186 4.714 1.368 1.046c.917.708.418 2.172-.733 2.172z"/><path d="m165.325 351.957h-20.796l-.322-.249-5.269-4.022c-.925-.7-.426-2.172.732-2.172h20.796l.322.249 3.902 2.977c.027.023 1.533 1.156 1.488 1.142.756.732.257 2.075-.853 2.075z"/><path d="m232.643 351.957h-20.796l-.322-.249-5.277-4.022c-.917-.7-.418-2.172.732-2.172h20.804l.322.249 3.902 2.977 1.368 1.046c.924.699.425 2.171-.733 2.171z"/><path d="m198.984 351.957h-20.796l-.322-.249-5.277-4.022c-.898-.671-.439-2.176.74-2.172h20.796l.322.249 3.902 2.977 1.368 1.046c.924.699.425 2.171-.733 2.171z"/><path d="m170.015 381.224h-20.796l-.29-.225c-.019.027-9.713-7.43-9.734-7.425-.917-.7-.418-2.172.74-2.172h20.796l.322.249 8.326 6.355h.008c.027.023 1.522 1.156 1.48 1.142.757.74.258 2.076-.852 2.076z"/><path d="m270.992 381.224h-20.796l-.241-.185c-.008 0-.008-.008-.016-.008-.638-.467-9.471-7.238-9.766-7.457-.925-.7-.426-2.172.732-2.172h20.795l.314.241c.008 0 .008.008.016.008l8.326 6.355 1.368 1.046c.925.708.427 2.172-.732 2.172z"/><path d="m203.674 381.224h-20.796l-.29-.225c-.019.027-9.713-7.43-9.734-7.425-.917-.7-.426-2.172.732-2.172h20.796l.314.241c.008 0 .008.008.016.008l8.326 6.355 1.368 1.046c.925.708.426 2.172-.732 2.172z"/><path d="m237.333 381.224h-20.796l-.29-.225c-.019.027-9.713-7.43-9.734-7.425-.917-.7-.426-2.172.732-2.172h20.796l.314.241c.008 0 .008.008.016.008l8.326 6.355 1.368 1.046c.925.708.426 2.172-.732 2.172z"/><path d="m98.015 351.957h-19.782c-.121-.113-.233-.225-.338-.338-.304-.28-.56-.605-.821-.917v-.008c-3.013-3.826 1.152-5.313 4.626-5.181h11.448l.314.241c.008 0 .008.008.016.008l3.902 2.977 1.368 1.046c.916.7.425 2.172-.733 2.172z"/><path d="m136.364 381.224h-7.876c-7.67-.265-15.806-3.141-22.091-7.65-.925-.7-.426-2.172.732-2.172h19.943l.322.249 8.334 6.355 1.368 1.046c.917.708.418 2.172-.732 2.172z"/><path d="m264.13 351.957h-18.623l-.314-.241c-.008 0-.008-.008-.016-.008l-5.269-4.022c-.917-.7-.426-2.172.732-2.172 2.83.058 9.141-.204 11.85.338 4.192.666 8.291 2.006 12.139 3.797 1.182.546.804 2.308-.499 2.308z"/><path d="m300.959 378.649c-.043.631-.423 1.17-.925 1.529 0 0-.008 0-.008.008-1.376.909-3.109 1.008-4.722 1.038h-11.448l-.241-.185c-.008 0-.008-.008-.016-.008-.638-.467-9.471-7.238-9.766-7.457-.925-.7-.426-2.172.732-2.172h19.943c2.328 1.84 6.687 4.593 6.451 7.247z"/><path d="m149.766 365.77h-20.796l-.322-.249-7.554-5.76c-.04-.032-.08-.064-.113-.097-.756-.732-.257-2.075.853-2.075h20.796l.322.249 6.178 4.714h.008c.027.023 1.522 1.156 1.48 1.142.757.74.259 2.076-.852 2.076z"/><path d="m250.744 365.77h-20.796l-.314-.241c-.008 0-.008-.008-.016-.008l-7.546-5.76c-.925-.7-.426-2.172.732-2.172h20.796l.314.241c.008 0 .008.008.016.008l6.178 4.714 1.368 1.046c.925.708.426 2.172-.732 2.172z"/><path d="m183.425 365.77h-20.795l-.322-.249-7.554-5.76c-.917-.7-.418-2.172.74-2.172h20.796l.322.249 6.178 4.714 1.368 1.046c.925.708.426 2.172-.733 2.172z"/><path d="m217.085 365.77h-20.796l-.322-.249-7.554-5.76c-.917-.7-.426-2.172.732-2.172h20.796l.314.241c.008 0 .008.008.016.008l6.178 4.714 1.368 1.046c.925.708.426 2.172-.732 2.172z"/><path d="m283.542 365.77h-19.935l-.314-.241c-.008 0-.008-.008-.016-.008l-7.546-5.76c-.925-.7-.426-2.172.732-2.172h19.943l.322.249 6.186 4.714 1.368 1.046c.917.708.418 2.172-.74 2.172z"/></g><g fill="#3f5d77"><path d="m131.03 348.739h-16.532c-.265 0-.523-.089-.732-.249l-3.902-2.977h16.942l.322.249z"/><path d="m115.48 362.552h-15.679c-.265 0-.523-.088-.74-.249l-6.178-4.714h16.089l.322.249z"/><path d="m164.689 348.739h-16.532c-.266 0-.523-.089-.732-.249l-3.902-2.977h16.942l.322.249z"/><path d="m232.007 348.739h-16.532c-.265 0-.523-.089-.732-.249l-3.902-2.977h16.942l.322.249z"/><path d="m198.348 348.739h-16.532c-.265 0-.523-.089-.732-.249l-3.902-2.977h16.942l.322.249z"/><path d="m169.379 378.006h-16.532c-.265 0-.523-.08-.732-.241l-8.334-6.363h16.95l.322.249z"/><path d="m270.357 378.006h-16.532c-.265 0-.523-.08-.74-.241l-8.326-6.363h16.941l.314.241c.008 0 .008.008.016.008z"/><path d="m203.038 378.006h-16.532c-.265 0-.523-.08-.732-.241l-8.334-6.363h16.942l.314.241c.008 0 .008.008.016.008z"/><path d="m236.698 378.006h-16.532c-.265 0-.523-.08-.732-.241l-8.334-6.363h16.942l.314.241c.008 0 .008.008.016.008z"/><path d="m97.379 348.739h-15.429c-1.328-.13-2.392-2.332-2.598-3.049 1.414-.348 12.118-.112 13.797-.177l.314.241c.008 0 .008.008.016.008z"/><path d="m135.728 378.006h-4.022c-6.292-.002-15.134-2.995-20.602-6.605h15.969l.322.249z"/><path d="m262.569 348.739h-13.435c-.265 0-.523-.089-.74-.249l-3.902-2.977c.855.015 4.312-.034 5.092.032 4.466.26 8.847 1.524 12.985 3.194z"/><path d="m300.886 377.829c-1.42.34-11.724.117-13.402.177-.265 0-.523-.08-.74-.241l-8.326-6.363h16.089c2.046 1.525 6.13 4.469 6.379 6.427z"/><path d="m149.131 362.552h-16.532c-.265 0-.523-.088-.732-.249l-6.186-4.714h16.95l.322.249z"/><path d="m250.108 362.552h-16.532c-.265 0-.523-.088-.74-.249l-6.178-4.714h16.942l.314.241c.008 0 .008.008.016.008z"/><path d="m182.79 362.552h-16.532c-.265 0-.523-.088-.732-.249l-6.186-4.714h16.95l.322.249z"/><path d="m216.449 362.552h-16.532c-.265 0-.523-.088-.732-.249l-6.186-4.714h16.942l.314.241c.008 0 .008.008.016.008z"/><path d="m282.914 362.552h-15.679c-.266 0-.523-.088-.74-.249l-6.178-4.714h16.089l.322.249z"/></g></g><g><path d="m264.379 399.855h-70.528c-2.816 0-6.999-1.448-9.34-3.242-2.354-1.778-8.882-6.786-11.303-8.624-2.341-1.786-1.955-3.234.861-3.234h70.528c2.816 0 6.999 1.448 9.34 3.234l11.311 8.624c1.888 1.348 2.408 3.243-.869 3.242z" fill="#3f5d77"/><path d="m264.379 399.855h-70.528c-2.816 0-6.999-1.448-9.34-3.242l-3.483-2.655c-.426-.989.362-1.657 2.285-1.657h70.52c2.824 0 7.007 1.448 9.348 3.234l3.475 2.655c.434.99-.362 1.665-2.277 1.665z" fill="#3e4e60"/></g></g><g fill="#fff"><path d="m236.407 182.359h-51.928c-5.302-.158-5.329-7.878 0-8.045h51.928c5.301.158 5.329 7.879 0 8.045z"/><path d="m333.736 396.114h-50.838c-6.706.201-6.732 9.959 0 10.169h50.838c6.706-.202 6.732-9.959 0-10.169z"/></g></g><g><g><path d="m221.308 237.404h-14.569c-2.836 0-5.135 2.299-5.135 5.135v14.569c0 2.836 2.299 5.135 5.135 5.135h14.569c2.836 0 5.135-2.299 5.135-5.135v-14.568c0-2.836-2.299-5.136-5.135-5.136z" fill="#ebd9ea"/><path d="m237.734 260.866c-5.359-2.82-6.412-10.773-3.733-15.801 2.924-5.779 11.089-6.903 16.336-3.621 2.393 1.237 1.59 5.579-1.29 4.308-5.222-3.437-10.827-1.865-10.713 5.202 0 2.224.496 3.935 1.489 5.133 1.249 1.679 4.17 2.24 6.224 1.469 1.574-.373 3.773-2.83 5.267-1.089 1.884 2.904-1.667 4.598-4.133 5.267-3.037.875-6.823.647-9.447-.868z" fill="#6c53a2"/></g><g><path d="m80.015 237.404h-14.569c-2.836 0-5.135 2.299-5.135 5.135v14.569c0 2.836 2.299 5.135 5.135 5.135h14.569c2.836 0 5.135-2.299 5.135-5.135v-14.568c0-2.836-2.299-5.136-5.135-5.136z" fill="#ebd9ea"/><path d="m108.312 240.756c1.467 1.498 2.199 3.773 2.199 6.822v10.848c0 .799-.237 1.429-.711 1.888-1.516 1.458-4.754.518-4.578-1.888v-.98c-2.759 6.409-14.122 3.882-13.914-3.111.016-6.922 8.143-6.213 13.914-6.399.593-6.88-5.168-5.596-9.734-3.733-1.755 1.103-3.487.515-3.512-1.512.124-2.514 3.174-3.034 5.357-3.69 3.546-.885 8.793-.704 10.979 1.755zm-4.489 14.892c1.174-1.152 1.502-3.026 1.4-4.778-2.945.102-5.841-.241-7.779 1.201-1.117 1.017-.851 3.217.289 4.153 1.653 1.541 4.695 1.003 6.09-.576z" fill="#6c53a2"/></g><g><path d="m147.991 237.404h-14.569c-2.836 0-5.135 2.299-5.135 5.135v14.569c0 2.836 2.299 5.135 5.135 5.135h14.569c2.836 0 5.135-2.299 5.135-5.135v-14.568c0-2.836-2.299-5.136-5.135-5.136z" fill="#ebd9ea"/><path d="m179.205 243.152c6.295 4.032 6.184 15.752-.022 19.823-3.711 2.48-9.884 1.755-12.024-2.445v1.111c.019 1.621-1.151 2.642-2.755 2.623-1.614.02-2.727-1.005-2.713-2.623v-26.58c-.168-3.33 5.695-3.478 5.556-.087v10.49c2.163-4.11 8.331-4.657 11.958-2.312zm-2.4 15.066c1.923-2.188 1.982-8.176.023-10.356-1.745-2.372-6.491-2.375-8.224.022-1.933 2.16-1.921 8.213 0 10.382 1.757 2.43 6.445 2.44 8.201-.048z" fill="#6c53a2"/></g></g></g><g><g id="Speech-bubble_6_"><path d="m329.198 279.119c4.056 0 8.03-1.981 10.417-5.628l40.107-61.295c8.479-14.135-11.214-27.071-20.811-13.617 0 0-40.106 61.295-40.106 61.295-5.461 8.076.72 19.397 10.393 19.245z" fill="#ebd9ea"/><path d="m503.99 192.23c-3.558 22.725-23.189 40.02-46.83 40.02h-120.28c-26.248-.095-47.261-21.479-47.23-47.41v-77.66c0-10.96 3.71-21.03 9.95-29.06 8.67-11.17 22.22-18.35 37.46-18.35h83.35c40.645 33.985 70.405 80.771 83.58 132.46z" fill="#ebd9ea"/><path d="m503.99 192.23c-1.26 8.08-4.56 15.48-9.37 21.67-6.24-8.03-9.95-18.11-9.95-29.06v-44.03c8.2 16.23 14.71 33.44 19.32 51.42z" fill="#fff"/><path d="m309.546 107.177v77.661c0 10.955-3.711 21.031-9.943 29.065-6.241-8.034-9.952-18.11-9.952-29.065v-77.661c0-10.955 3.711-21.031 9.952-29.056 6.233 8.026 9.943 18.102 9.943 29.056z" fill="#c1b7d3"/></g><g fill="#e9465e"><path d="m395.981 174.554c-7.748-.011-12.123 3.885-12.103 11.69-.037 7.531 4.587 11.739 12.103 11.692 7.34.072 12.014-4.385 11.969-11.692.04-7.55-4.466-11.724-11.969-11.69z"/><path d="m422.563 100.898c-5.571-4.54-13.078-6.809-22.523-6.809-11.465 0-15.853.797-26.074 6.527l.021.042c-9.808 5.238-2.704 19.659 7.447 14.964l.029.056c8.804-4.493 10.188-4.671 17.066-4.671 3.941 0 7.013.78 9.214 2.339s3.303 3.829 3.303 6.808c-.328 7.52-4.567 10.054-11.831 15.613-8.889 6.744-12.943 11.471-13.135 21.869l.011.001c.204 11.622 16.715 12.477 18.129.958l.085.004c.193-7.327 3.215-8.585 10.107-14.099 6.421-4.583 10.776-8.709 13.068-12.379 5.876-9.324 4.281-24.445-4.917-31.223z"/></g></g></g></svg>