<svg id="Capa_1" enable-background="new 0 0 512.354 512.354" height="512" viewBox="0 0 512.354 512.354" width="512" xmlns="http://www.w3.org/2000/svg"><g><g><path d="m512.177 256c0 141.387-114.613 256-256 256s-256-114.613-256-256 114.613-256 256-256 256 114.613 256 256zm0 0" fill="#ffc46c"/><path d="m512.177 256c0 26.051-3.891 51.191-11.129 74.871-5.031 16.469-11.672 32.231-19.75 47.109-8.25 15.2-147.391 34.677-225.121 34.677s-216.871-19.477-225.109-34.677c-3.289-6.031-6.332-12.21-9.121-18.531-14-31.629-21.77-66.629-21.77-103.449 0-46.219 12.25-89.57 33.68-127 44.121 77.07 127.16 129 222.32 129s178.211-51.93 222.32-129c21.43 37.43 33.68 80.781 33.68 127zm0 0" fill="#ffb03b"/><path d="m481.439 377.699c-7.16 13.223-15.434 25.742-24.723 37.43-8.437 10.633-17.719 20.57-27.719 29.723-45.539 41.699-106.211 67.148-172.82 67.148s-127.281-25.449-172.82-67.148c-10-9.153-19.282-19.09-27.719-29.723-9.289-11.688-17.563-24.207-24.723-37.43zm0 0" fill="#ff903d"/></g><g><path d="m438.469 196.604-182.293-105.25-49.336 210.499 49.336 210.501 182.293-105.251-49.335-105.25z" fill="#8defe9"/><path d="m438.469 196.604-182.293 105.249 182.293 105.25z" fill="#5ab4fc"/><path d="m73.883 196.604 49.336 105.249-49.336 105.25 182.293 105.251v-421z" fill="#cbeefe"/><path d="m73.883 196.604v210.499l182.293-105.25z" fill="#8defe9"/><path d="m117.21 221.62-43.327-25.016v210.499l43.327-25.016z" fill="#99fff5"/><path d="m256.176 191.05-49.336 110.803 49.336 110.804 95.956-55.401v-110.805z" fill="#cbeefe"/><path d="m160.221 246.451v110.805l95.955 55.401v-221.607z" fill="#fff"/></g><g fill="#fff"><path d="m215.848 54.687h-1.524c-6.754 0-12.226-5.477-12.226-12.227v-1.523h-8.715v1.523c0 6.75-5.477 12.227-12.227 12.227h-1.527v8.715h1.527c6.75 0 12.227 5.472 12.227 12.226v1.528h8.715v-1.528c0-6.754 5.472-12.226 12.226-12.226h1.524zm0 0"/><path d="m116.322 120.429h-1.524c-6.754 0-12.226-5.477-12.226-12.227v-1.523h-8.715v1.523c0 6.75-5.477 12.227-12.227 12.227h-1.527v8.715h1.527c6.75 0 12.227 5.472 12.227 12.226v1.528h8.715v-1.528c0-6.754 5.472-12.226 12.226-12.226h1.524zm0 0"/><path d="m388.351 93.233h-1.524c-6.754 0-12.226-5.477-12.226-12.227v-1.523h-8.715v1.523c0 6.75-5.477 12.227-12.227 12.227h-1.527v8.715h1.527c6.75 0 12.227 5.472 12.227 12.226v1.528h8.715v-1.528c0-6.754 5.472-12.226 12.226-12.226h1.524zm0 0"/></g></g></svg>