<svg id="Capa_1" enable-background="new 0 0 512 512" height="512" viewBox="0 0 512 512" width="512" xmlns="http://www.w3.org/2000/svg"><g><g><g><g><g><g><g><circle cx="256" cy="256" fill="#a3d4ff" r="256"/></g></g></g></g></g></g><path d="m274.194 511.363c129.863-9.119 233.005-115.096 237.643-246.146l-167.045-167.046-8.974 26.646-64.818-64.817-4.064 107.899-69.728-69.728-30 163.829 98.081 98.081-79.049 63.329z" fill="#65b1fc"/><g><circle cx="256" cy="357.783" fill="#ff6c52" r="95.783"/></g><g><path d="m351.783 357.783c0-52.859-42.818-95.716-95.662-95.781v191.562c52.843-.065 95.662-42.922 95.662-95.781z" fill="#ff432e"/></g><g><path d="m241 60h30v163.829h-30z" fill="#555a66"/></g><g><path d="m256.12 60h14.88v163.829h-14.88z" fill="#333940"/></g><g><g><path d="m314.792 98.171h30v163.829h-30z" fill="#333940"/></g><g><path d="m167.208 98.171h30v163.829h-30z" fill="#555a66"/></g></g></g></svg>