<svg id="Capa_1" enable-background="new 0 0 512 512" height="512" viewBox="0 0 512 512" width="512" xmlns="http://www.w3.org/2000/svg"><g><g><path d="m256 299.781c-141.387 0-243.753-133.355-222.328-170.782 44.119-77.07 127.158-128.999 222.328-128.999s178.208 51.929 222.328 128.999c21.425 37.427-80.941 170.782-222.328 170.782z" fill="#b196e7"/><path d="m512 256c0 26.051-3.891 51.191-11.129 74.871-5.031 16.469-11.672 32.231-19.75 47.109-8.25 15.2-147.391 38.698-225.121 38.698s-216.871-23.498-225.109-38.698c-3.289-6.031-6.332-12.21-9.121-18.531-14-31.629-21.77-66.629-21.77-103.449 0-46.219 12.25-89.57 33.68-127 44.121 77.07 127.16 129 222.32 129s178.211-51.93 222.32-129c21.43 37.43 33.68 80.781 33.68 127zm0 0" fill="#8d69db"/><path d="m481.262 377.699c-7.16 13.223-15.434 25.742-24.723 37.43-8.437 10.633-17.719 20.57-27.719 29.723-1.607 1.472-3.234 2.924-4.879 4.355-18.361 15.975-101.671 55.117-123.396 58.93-14.466 2.539-29.351 3.863-44.545 3.863-15.405 0-30.492-1.361-45.148-3.97-7.492-1.334-12.354-5.991-19.606-7.961-7.077-1.923-16.55-1.144-23.37-3.645-31.626-11.598-60.328-29.258-84.696-51.572-10-9.153-19.282-19.09-27.719-29.723-9.289-11.688-17.563-24.207-24.723-37.43zm0 0" fill="#5541b6"/></g><g><path d="m388.922 187.95h-11.016v110.156h11.016 11.016v-110.156z" fill="#8ab8ec"/><path d="m388.922 187.95h11.016v110.156h-11.016z" fill="#728ee4"/><path d="m388.922 364.2h-11.016v88.86h11.016 11.016v-88.86z" fill="#8ab8ec"/><path d="m388.922 364.2h11.016v88.859h-11.016z" fill="#728ee4"/><path d="m211.504 508.138h88.991c23.907-4.19 46.668-11.7 67.799-22.031h-178.388v-33.251h-11.016-11.016v43.572c14.01 5.136 28.596 9.075 43.63 11.71z" fill="#8ab8ec"/><path d="m189.906 188.155v-33.986h165.969l-22.031-22.031h-154.953-11.016v56.017h11.016z" fill="#8ab8ec"/><path d="m178.891 353.185h-110.891v66.828c0 30.271 57.835 44.062 110.891 44.062s110.891-13.791 110.891-44.062v-66.828z" fill="#dce0ef"/><path d="m289.781 420.013v-66.828h-110.89v110.891c53.055-.001 110.89-13.792 110.89-44.063z" fill="#cad0e7"/><path d="m178.891 287.091h-110.891v66.094c0 30.271 57.835 44.062 110.891 44.062s110.891-13.791 110.891-44.062v-66.094z" fill="#fbf5eb"/><path d="m289.781 353.185v-66.094h-110.89v110.156c53.055 0 110.89-13.791 110.89-44.062z" fill="#dce0ef"/><path d="m178.891 220.997h-110.891v66.094c0 30.272 57.835 44.062 110.891 44.062s110.891-13.791 110.891-44.062v-66.094z" fill="#dce0ef"/><path d="m289.781 287.091v-66.094h-110.89v110.156c53.055 0 110.89-13.791 110.89-44.062z" fill="#cad0e7"/><ellipse cx="178.891" cy="220.997" fill="#fbf5eb" rx="110.891" ry="44.062"/><path d="m289.781 220.997c0-30.271-57.835-44.062-110.891-44.062v88.125c53.056 0 110.891-13.792 110.891-44.063z" fill="#dce0ef"/><path d="m388.922 132.138h-55.078v66.828h55.078 55.078v-66.828z" fill="#efc142"/><path d="m388.922 132.138h55.078v66.828h-55.078z" fill="#e38d22"/><path d="m388.922 442.044c-31.401 0-55.078 14.21-55.078 33.047 0 8.024 4.309 15.204 11.67 20.809 28.998-10.825 55.509-26.748 78.434-46.692-9.389-4.517-21.486-7.164-35.026-7.164z" fill="#e05352"/><path d="m423.948 449.207c-9.389-4.516-21.486-7.163-35.026-7.163v32.785c12.409-7.554 24.121-16.135 35.026-25.622z" fill="#cb2d41"/><path d="m349.976 292.207h77.892v77.892h-77.892z" fill="#a8eb58" transform="matrix(.707 -.707 .707 .707 -120.248 372.001)"/><path d="m388.922 276.075v110.156l55.078-55.078z" fill="#80cf8c"/></g></g></svg>