<svg id="Capa_1" enable-background="new 0 0 512 512" height="512" viewBox="0 0 512 512" width="512" xmlns="http://www.w3.org/2000/svg"><g><g><path d="m0 256c0 43.79 11 85.02 30.39 121.07l225.61 49.67 225.61-49.67c19.39-36.05 30.39-77.28 30.39-121.07 0-46.63-12.47-90.34-34.26-128-41.698 72.091-399.22 76.52-443.48 0-21.79 37.66-34.26 81.37-34.26 128z" fill="#eebf36"/><path d="m34.26 128c44.26 76.52 126.99 128 221.74 128s177.48-51.48 221.74-128c-.01-.02-.03-.05-.04-.07-44.27-76.48-126.98-127.93-221.7-127.93s-177.43 51.45-221.7 127.93c-.01.02-.03.05-.04.07z" fill="#f5dc6e"/><path d="m30.39 377.07c43.19 80.32 128.02 134.93 225.61 134.93s182.42-54.61 225.61-134.93z" fill="#dd8051"/></g><g><path d="m356.53 88.53-56.98 98.72c-12.81-7.4-27.68-11.67-43.55-11.67-15.82 0-30.69 4.27-43.5 11.65l-57.01-98.7c29.56-17.11 63.9-26.92 100.51-26.92 36.63 0 70.94 9.81 100.53 26.92z" fill="#616679"/><path d="m212.473 338.035-56.99 98.697c-30.506-17.63-55.95-43.074-73.599-73.561-17.11-29.601-26.907-63.918-26.907-100.545h113.979c0 15.859 4.253 30.737 11.625 43.536 7.68 13.203 18.689 24.212 31.892 31.873z" fill="#616679"/><path d="m457.022 262.635c0 36.606-9.808 70.945-26.918 100.535-17.635 30.497-43.073 55.935-73.594 73.57l-56.961-98.698c13.196-7.66 24.197-18.685 31.834-31.881 7.397-12.791 11.669-27.681 11.669-43.526z" fill="#464651"/><path d="m308.05 262.64c0 28.75-23.32 52.04-52.05 52.04s-52.05-23.29-52.05-52.04c0-28.74 23.32-52.03 52.05-52.03s52.05 23.29 52.05 52.03z" fill="#616679"/></g><g fill="#464651"><path d="m308.05 262.64c0 28.75-23.32 52.04-52.05 52.04v-104.07c28.73 0 52.05 23.29 52.05 52.03z"/><path d="m299.55 187.25c-12.81-7.4-27.68-11.67-43.55-11.67v-113.97c36.63 0 70.94 9.81 100.53 26.92z"/></g></g></svg>