<svg id="Capa_1" enable-background="new 0 0 512 512" height="512" viewBox="0 0 512 512" width="512" xmlns="http://www.w3.org/2000/svg"><g><g><path d="m512 256c0 43.79-11 85.02-30.39 121.07l-225.61 49.67-225.61-49.67c-19.39-36.05-30.39-77.28-30.39-121.07 0-46.63 12.47-90.34 34.26-128 41.698 72.091 399.22 76.52 443.48 0 21.79 37.66 34.26 81.37 34.26 128z" fill="#79ce8b"/><path d="m477.74 128c-44.26 76.52-126.99 128-221.74 128s-177.48-51.48-221.74-128c.01-.02.03-.05.04-.07 44.27-76.48 126.98-127.93 221.7-127.93s177.43 51.45 221.7 127.93c.01.02.03.05.04.07z" fill="#a9eb58"/><path d="m481.61 377.07c-40.113 74.598-116.146 127.019-204.959 134.109-6.812.544-13.699-16.505-20.651-16.505s-13.839 17.049-20.651 16.505c-88.814-7.09-164.846-59.511-204.959-134.109z" fill="#858899"/><path d="m481.61 377.07c-40.113 74.598-116.146 127.019-204.959 134.109-6.812.544-13.699-5.985-20.651-5.985v-128.124z" fill="#616579"/></g><path d="m276.65 456.65v54.52c-6.81.55-13.7.83-20.65.83s-13.84-.28-20.65-.83v-54.52z" fill="#e9ecf8"/><g><path d="m102.642 394.053h78.024v63.723h-78.024z" fill="#464652"/><path d="m331.334 394.053h78.024v63.723h-78.024z" fill="#2d2f40"/></g><path d="m408.94 138.35v130.86h-305.88v-130.86c0-34.19 27.71-61.91 61.9-61.91h182.08c34.19 0 61.9 27.72 61.9 61.91z" fill="#eec036"/><path d="m408.94 138.35v130.86h-152.94v-192.77h91.04c34.19 0 61.9 27.72 61.9 61.91z" fill="#e8a440"/><path d="m378.94 138.35v100.86h-245.88v-100.86c0-17.59 14.31-31.91 31.9-31.91h182.08c17.59 0 31.9 14.32 31.9 31.91z" fill="#616579"/><path d="m378.94 138.35v100.86h-122.94v-132.77h91.04c17.59 0 31.9 14.32 31.9 31.91z" fill="#464652"/><path d="m365.52 241.25v70.63h-219.04v-70.63c0-21.88 17.74-39.62 39.62-39.62h139.8c21.88 0 39.62 17.74 39.62 39.62z" fill="#eec036"/><path d="m448.03 318.68v64.45h-168.7v-94.27h138.88c16.47 0 29.82 13.35 29.82 29.82z" fill="#e8a440"/><path d="m279.33 288.86v94.27h-215.36v-64.45c0-16.47 13.35-29.82 29.82-29.82z" fill="#eec036"/><path d="m365.52 241.25v70.63h-109.52v-110.25h69.9c21.88 0 39.62 17.74 39.62 39.62z" fill="#e8a440"/><path d="m427.63 288.72v110.68h-343.26v-110.68c0-34.29 27.8-62.09 62.09-62.09h219.08c34.29 0 62.09 27.8 62.09 62.09z" fill="#f5dd6e"/><path d="m427.63 288.72v110.68h-171.63v-172.77h109.54c34.29 0 62.09 27.8 62.09 62.09z" fill="#eec036"/><path d="m454.87 383.13c0 15.39-12.47 27.86-27.85 27.86h-342.04c-7.69 0-14.65-3.12-19.69-8.16s-8.16-12.01-8.16-19.7c0-15.38 12.47-27.85 27.85-27.85h342.04c7.69 0 14.65 3.12 19.69 8.16s8.16 12 8.16 19.69z" fill="#e8ebf7"/><g><g><circle cx="149.202" cy="299.4" fill="#eec036" r="41.674"/><path d="m173.77 299.4c0 13.57-11 24.57-24.57 24.57-13.56 0-24.56-11-24.56-24.57s11-24.57 24.56-24.57c13.57 0 24.57 11 24.57 24.57z" fill="#e8ebf7"/></g><g><circle cx="362.798" cy="299.4" fill="#e8a440" r="41.674"/><circle cx="362.798" cy="299.4" fill="#e8ebf7" r="24.565"/></g></g><g fill="#858899"><path d="m209.34 258.67h93.319v21.071h-93.319z"/><path d="m209.34 288.864h93.319v21.071h-93.319z"/><path d="m209.34 319.059h93.319v21.071h-93.319z"/></g><g fill="#616579"><path d="m256 258.67h46.66v21.071h-46.66z"/><path d="m256 288.864h46.66v21.071h-46.66z"/><path d="m256 319.059h46.66v21.071h-46.66z"/></g><path d="m326.45 42.89v28.57c0 9.98-8.09 18.07-18.07 18.07h-104.76c-9.98 0-18.07-8.09-18.07-18.07v-28.57c0-9.98 8.09-18.07 18.07-18.07h104.76c9.98 0 18.07 8.09 18.07 18.07z" fill="#616579"/><path d="m326.45 42.89v28.57c0 9.98-8.09 18.07-18.07 18.07h-52.38v-64.71h52.38c9.98 0 18.07 8.09 18.07 18.07z" fill="#464652"/><path d="m243.648 6.729h24.705v100.896h-24.705z" fill="#e38888" transform="matrix(0 1 -1 0 313.177 -198.823)"/><path d="m268.872 31.953h24.705v50.448h-24.705z" fill="#db6870" transform="matrix(0 1 -1 0 338.401 -224.047)"/><g fill="#daddee"><path d="m454.87 383.13c0 15.39-12.47 27.86-27.85 27.86h-171.02v-55.71h171.02c7.69 0 14.65 3.12 19.69 8.16s8.16 12 8.16 19.69z"/><path d="m276.65 456.65v54.52c-6.81.55-13.7.83-20.65.83v-55.35z"/><path d="m173.77 299.4c0 13.57-11 24.57-24.57 24.57v-49.14c13.57 0 24.57 11 24.57 24.57z"/><path d="m387.363 299.4c0 13.57-11 24.57-24.57 24.57v-49.14c13.57 0 24.57 11 24.57 24.57z"/></g></g></svg>