<?xml version="1.0" encoding="iso-8859-1"?>
<!-- Generator: Adobe Illustrator 19.0.0, SVG Export Plug-In . SVG Version: 6.00 Build 0)  -->
<svg version="1.1" id="Capa_1" xmlns="http://www.w3.org/2000/svg" xmlns:xlink="http://www.w3.org/1999/xlink" x="0px" y="0px"
	 viewBox="0 0 512 512" style="enable-background:new 0 0 512 512;" xml:space="preserve">
<path style="fill:#2B6C7E;" d="M512,256c0,141.385-114.615,256-256,256S0,397.385,0,256S114.615,0,256,0S512,114.615,512,256z"/>
<path style="fill:#B2DFEB;" d="M439.32,281.784c-14.24,14.24-37.328,14.24-51.569,0c-4.55-4.55-7.639-10.005-9.281-15.784h-90.983
	H271v14v100.453c3.935,1.421,7.63,3.703,10.784,6.857c11.479,11.479,11.479,30.09,0,41.568c-5.736,5.737-13.254,8.606-20.773,8.609
	c-0.004,0-0.008,0.001-0.011,0.001s-0.008-0.001-0.011-0.001c-7.519-0.003-15.036-2.872-20.773-8.609
	c-11.479-11.479-11.479-30.09,0-41.568c3.154-3.154,6.849-5.436,10.784-6.857V280v-14h-54.094H87.035
	c-1.421,3.935-3.703,7.63-6.857,10.784c-11.479,11.479-30.09,11.479-41.569,0c-5.737-5.736-8.606-13.254-8.609-20.773
	c0-0.004,0-0.008,0-0.011s0-0.008,0-0.011c0.003-7.519,2.872-15.036,8.609-20.773c11.479-11.479,30.09-11.479,41.569,0
	c3.154,3.154,5.436,6.849,6.857,10.784h109.871H251v-66V98.435c-5.779-1.642-11.234-4.731-15.784-9.281
	c-14.24-14.24-14.24-37.328,0-51.569c14.24-14.24,37.328-14.24,51.568,0s14.24,37.328,0,51.569
	c-4.55,4.55-10.005,7.639-15.784,9.281V180v66h16.487h90.983c1.642-5.779,4.731-11.234,9.281-15.784
	c14.24-14.24,37.328-14.24,51.569,0S453.56,267.544,439.32,281.784z"/>
<path style="fill:#90D2E3;" d="M51,255.989c0,0.004,0,0.008,0,0.011c0,0.003,0,0.008,0,0.011c0.003,7.519,2.872,15.036,8.609,20.773
	c3.02,3.02,6.536,5.238,10.284,6.668c-10.497,4.008-22.826,1.79-31.284-6.668c-5.737-5.736-8.606-13.254-8.609-20.773
	c0-0.004,0-0.008,0-0.011s0-0.008,0-0.011c0.003-7.519,2.872-15.036,8.609-20.773c8.459-8.459,20.788-10.676,31.284-6.668
	c-3.748,1.431-7.264,3.648-10.284,6.668C53.873,240.952,51.003,248.47,51,255.989z M251,98.435V180v66h20v-66V98.435
	c0.168-0.048,0.333-0.109,0.5-0.159c-5.593-1.676-10.866-4.704-15.284-9.122c-14.24-14.24-14.24-37.328,0-51.569
	c4.419-4.419,9.69-7.464,15.284-9.14c-12.433-3.726-26.463-0.681-36.284,9.14c-14.24,14.24-14.24,37.328,0,51.569
	C239.766,93.704,245.22,96.793,251,98.435z M261.216,428.878c-11.479-11.479-11.479-30.09,0-41.568
	c3.02-3.02,6.537-5.231,10.284-6.661c-0.167-0.064-0.332-0.135-0.5-0.196V280v-14h-20v14v100.453
	c-3.935,1.421-7.63,3.703-10.784,6.857c-11.479,11.479-11.479,30.09,0,41.568c5.736,5.737,13.254,8.606,20.773,8.609
	c0.004,0,0.008,0.001,0.011,0.001s0.008-0.001,0.011-0.001c3.56-0.001,7.118-0.654,10.489-1.94
	C267.752,434.116,264.236,431.899,261.216,428.878z"/>
<path style="fill:#5EE2C5;" d="M405.933,120.21L302.71,223.433C307.944,231.337,311,240.81,311,251s-3.056,19.663-8.29,27.567
	l94.477,94.477c5.955-3.518,12.896-5.544,20.313-5.544c22.091,0,40,17.908,40,40c0,22.091-17.909,40-40,40s-40-17.909-40-40
	c0-7.417,2.026-14.358,5.545-20.313l-94.477-94.477C280.663,297.944,271.19,301,261,301c-27.614,0-50-22.386-50-50
	c0-10.19,3.056-19.663,8.29-27.567L110.322,114.464c-15.339,9.059-35.427,6.999-48.606-6.18c-15.621-15.621-15.621-40.948,0-56.568
	c15.621-15.621,40.948-15.621,56.569,0c13.179,13.179,15.239,33.267,6.18,48.606L233.433,209.29C241.337,204.056,250.81,201,261,201
	s19.663,3.056,27.567,8.29L391.79,106.067c-5.235-7.904-8.29-17.377-8.29-27.567c0-27.614,22.386-50,50-50s50,22.386,50,50
	s-22.386,50-50,50C423.31,128.5,413.837,125.444,405.933,120.21z"/>
<path style="fill:#00D3B4;" d="M82.929,51.716c-15.621,15.621-15.621,40.948,0,56.568c5.091,5.092,11.217,8.506,17.698,10.278
	c-13.414,3.684-28.371,0.263-38.912-10.278c-15.621-15.621-15.621-40.948,0-56.568c10.54-10.54,25.497-13.962,38.912-10.278
	C94.146,43.21,88.02,46.624,82.929,51.716z M430.5,369.672c-4.077-1.401-8.447-2.172-13-2.172c-22.091,0-40,17.908-40,40
	c0,22.091,17.909,40,40,40c4.553,0,8.923-0.771,13-2.172c-15.707-5.397-27-20.289-27-37.828S414.793,375.069,430.5,369.672z
	 M271.303,202.068C267.978,201.371,264.533,201,261,201c-27.614,0-50,22.386-50,50s22.386,50,50,50
	c3.533,0,6.978-0.371,10.303-1.068c-22.67-4.75-39.697-24.85-39.697-48.932S248.633,206.818,271.303,202.068z M407.5,78.5
	c0-23.476,16.183-43.164,38-48.54c-3.845-0.948-7.862-1.46-12-1.46c-27.614,0-50,22.386-50,50s22.386,50,50,50
	c4.138,0,8.155-0.512,12-1.46C423.683,121.664,407.5,101.976,407.5,78.5z"/>
<path style="fill:#FFE1A8;" d="M263.592,249.755L249.3,314.07c-0.844,3.796-2.752,7.273-5.502,10.022L105.097,462.794
	c-21.388-15.634-40.257-34.503-55.891-55.891l138.702-138.702c2.75-2.75,6.226-4.658,10.022-5.502l64.316-14.292
	C263.052,248.228,263.772,248.948,263.592,249.755z"/>
<path style="fill:#FFF2B4;" d="M191.301,286.095c2.75-2.75,6.226-4.658,10.022-5.502l58.295-12.954L249.3,314.07
	c-0.844,3.796-2.752,7.273-5.502,10.022L105.097,462.794c-17.302-12.647-32.954-27.413-46.58-43.916L191.301,286.095z"/>
<path style="fill:#FFAA00;" d="M234.803,318.961c2.604,2.604,5.792,4.261,9.142,4.984L105.097,462.794
	c-21.388-15.634-40.257-34.503-55.891-55.891l138.849-138.849c0.723,3.35,2.381,6.539,4.984,9.142
	c4.431,4.431,10.553,6.133,16.287,5.117c-1.016,5.735,0.686,11.857,5.117,16.287c4.118,4.118,9.697,5.879,15.068,5.292
	C228.924,309.264,230.685,314.843,234.803,318.961z"/>
<path style="fill:#FF9500;" d="M213.675,325.472L89.066,450.081c-2.857-2.46-5.655-4.987-8.4-7.569l125.025-125.025
	c2.205-2.205,5.78-2.205,7.984,0C215.88,319.692,215.88,323.267,213.675,325.472z M193.714,297.526c-2.205-2.205-5.78-2.205-7.984,0
	l15.565-15.565c-3.024-0.81-5.883-2.392-8.256-4.765c-2.604-2.604-4.261-5.792-4.984-9.142L49.206,406.903
	c6.036,8.257,12.553,16.138,19.512,23.604l124.996-124.996C195.919,303.306,195.919,299.731,193.714,297.526z"/>
<path style="fill:#465A61;" d="M244.379,252.378l17.866-3.97c0.807-0.179,1.526,0.54,1.347,1.347l-3.97,17.866L244.379,252.378z"/>
<g>
</g>
<g>
</g>
<g>
</g>
<g>
</g>
<g>
</g>
<g>
</g>
<g>
</g>
<g>
</g>
<g>
</g>
<g>
</g>
<g>
</g>
<g>
</g>
<g>
</g>
<g>
</g>
<g>
</g>
</svg>
