<svg id="Capa_1" enable-background="new 0 0 512 512" height="512" viewBox="0 0 512 512" width="512" xmlns="http://www.w3.org/2000/svg"><circle cx="256" cy="256" fill="#65b2fe" r="256"/><path d="m512 256c0 87.11-43.52 164.07-110 210.31-41.41 28.8-91.73 45.69-146 45.69s-104.59-16.89-146-45.69c-66.48-46.24-110-123.2-110-210.31 0-46.22 12.25-89.57 33.68-127 44.12 77.07 127.16 129 222.32 129s178.21-51.93 222.32-129c21.43 37.43 33.68 80.78 33.68 127z" fill="#0e9ce7"/><path d="m452 316c0 105.34-83.12 191.28-187.34 195.81-.31.02-.62.03-.93.04-.87.03-1.74.06-2.6.08-1.73.05-3.44.07-5.13.07-108.24 0-196-87.76-196-196s87.76-196 196-196h.28c108.11.15 195.72 87.85 195.72 196z" fill="#ffe853"/><path d="m452 316c0 105.34-83.12 191.28-187.34 195.81-.31.02-.62.03-.93.04-.87.03-1.74.06-2.6.08-1.73.05-3.44.07-5.13.07-58.54-45.3-103.35-116.25-103.35-196s44.81-150.7 103.35-196h.28c108.11.15 195.72 87.85 195.72 196z" fill="#fed110"/><path d="m452 316c0 108.244-87.756 196-196 196v-392c108.244 0 196 87.756 196 196z" fill="#ff9f01"/><path d="m368.85 359.73c-6.2 32.77-26.3 60.6-53.95 77.14-17.21 10.32-37.36 16.25-58.9 16.25s-41.69-5.93-58.9-16.25c-27.65-16.54-47.75-44.37-53.95-77.14-2.12-11.14 6.42-21.47 17.76-21.47h10.42l15.45 15.45h139.95l13.94-15.45h10.42c11.34 0 19.88 10.33 17.76 21.47z" fill="#313b5a"/><path d="m368.85 359.73c-6.2 32.77-26.3 60.6-53.95 77.14-17.21 10.32-37.36 16.25-58.9 16.25v-99.41h70.73l13.94-15.45h10.42c11.34 0 19.88 10.33 17.76 21.47z" fill="#29334c"/><path d="m314.905 436.873c-17.217 10.315-37.367 16.244-58.905 16.244s-41.687-5.929-58.905-16.244c9.101-23.672 32.039-40.462 58.905-40.462s49.804 16.791 58.905 40.462z" fill="#ff1d56"/><path d="m314.905 436.873c-17.217 10.315-37.367 16.244-58.905 16.244v-56.706c26.865 0 49.804 16.791 58.905 40.462z" fill="#dd1265"/><path d="m340.67 338.26v2.4c0 18.76-15.22 33.98-33.98 33.98h-101.38c-18.76 0-33.98-15.22-33.98-33.98v-2.4z" fill="#fff"/><path d="m340.67 338.26v2.4c0 18.76-15.22 33.98-33.98 33.98h-50.69v-36.38z" fill="#d1f6ff"/><path d="m221.813 273.195c0 17.517-13.138 26.806-29.858 29.194v10.616c0 6.083-4.931 11.014-11.014 11.014-6.083 0-11.014-4.931-11.014-11.014v-11.014c-7.869-1.269-15.738-3.671-22.781-7.068-6.387-3.081-9.077-10.742-5.936-17.099 3.16-6.393 10.94-8.888 17.276-5.616 8.493 4.385 18.076 7.357 24.445 7.357 4.512 0 7.432-1.46 7.432-4.777 0-12.076-48.171-4.114-48.171-36.759 0-15.261 10.616-25.877 27.735-29.194v-10.351c0-6.083 4.931-11.014 11.014-11.014 6.083 0 11.014 4.931 11.014 11.014v9.953c6.295.805 12.47 2.297 18.1 4.342 6.999 2.542 10.212 10.638 7.005 17.358l-.265.554c-2.924 6.127-10.137 8.838-16.402 6.223-7.603-3.173-15.708-5.653-21.044-5.653-3.45 0-5.706 1.062-5.706 3.849 0 11.678 48.17 4.379 48.17 38.085z" fill="#29334c"/><path d="m362.806 273.195c0 17.517-13.138 26.806-29.858 29.194v10.616c0 6.083-4.931 11.014-11.014 11.014-6.083 0-11.014-4.931-11.014-11.014v-11.014c-7.869-1.269-15.738-3.671-22.781-7.068-6.387-3.081-9.077-10.742-5.935-17.099 3.159-6.393 10.939-8.888 17.275-5.616 8.493 4.385 18.076 7.357 24.445 7.357 4.512 0 7.432-1.46 7.432-4.777 0-12.076-48.171-4.114-48.171-36.759 0-15.261 10.616-25.877 27.735-29.194v-10.351c0-6.083 4.931-11.014 11.014-11.014 6.083 0 11.014 4.931 11.014 11.014v9.953c6.295.805 12.47 2.297 18.1 4.342 7 2.542 10.212 10.638 7.005 17.358l-.265.554c-2.924 6.127-10.137 8.838-16.402 6.223-7.603-3.173-15.708-5.653-21.044-5.653-3.45 0-5.706 1.062-5.706 3.849 0 11.678 48.17 4.379 48.17 38.085z" fill="#29334c"/><path d="m143.971 196.619c16.242-20.451 46.793-29.91 73.514-21.32.021.007.042.013.063.02 2.001.645 3.955-1.344 2.802-2.874-4.777-6.339-11.996-11.344-21.15-13.927-21.129-5.962-45.356 3.583-55.048 21.676-2.733 5.102-4.081 10.374-4.188 15.506-.038 1.847 2.76 2.489 4.007.919z" fill="#ed771b"/><path d="m366.099 196.619c-16.242-20.451-46.793-29.91-73.514-21.32-.021.007-.042.013-.063.02-2.001.645-3.955-1.344-2.802-2.874 4.777-6.339 11.996-11.344 21.15-13.927 21.129-5.962 45.356 3.583 55.048 21.676 2.733 5.102 4.081 10.374 4.188 15.506.038 1.847-2.76 2.489-4.007.919z" fill="#c55835"/></svg>