<svg id="Capa_1" enable-background="new 0 0 512 512" height="512" viewBox="0 0 512 512" width="512" xmlns="http://www.w3.org/2000/svg"><g><g><path d="m256 362.089c-141.387 0-244.19-194.102-223.475-231.065 43.816-78.183 127.474-131.024 223.475-131.024 95.224 0 178.303 51.988 222.403 129.13 21.379 37.398-81.016 232.959-222.403 232.959z" fill="#df7cb3"/><path d="m512 256c0 26.051-3.891 51.191-11.129 74.871-5.031 16.469-11.672 32.231-19.75 47.109-8.25 15.2-147.391 54.416-225.121 54.416s-216.871-39.216-225.109-54.416c-3.289-6.031-6.332-12.21-9.121-18.531-14-31.629-21.77-66.629-21.77-103.449 0-46.219 12.25-89.57 33.68-127 44.121 77.07 127.16 129 222.32 129s178.211-51.93 222.32-129c21.43 37.43 33.68 80.781 33.68 127zm0 0" fill="#d85e91"/><path d="m481.262 377.699c-2.61 4.821-5.369 9.548-8.271 14.176-5.057 8.065-81.807 82.903-103.508 93.655-15.783 7.82-32.488 14.06-49.908 18.512-20.328 5.196-106.674 5.215-126.938.054-16.715-4.257-32.772-10.159-47.99-17.523-22.526-10.901-100.581-86.632-105.638-94.698-2.902-4.628-5.66-9.355-8.271-14.176zm0 0" fill="#bb1961"/></g><g><path d="m319.574 486.57h47.787c43.496-21.046 80.121-54.043 105.639-94.719v-186.703h-217-217v186.703c25.518 40.676 62.143 73.673 105.639 94.719h47.787v17.469c20.328 5.195 41.627 7.961 63.574 7.961s43.246-2.766 63.574-7.961z" fill="#a4e2fd"/><path d="m319.574 486.57h47.787c43.496-21.046 80.121-54.043 105.639-94.719v-186.703h-217-133.803v269.13c7.251 4.454 14.737 8.563 22.442 12.292h47.787v17.469c20.328 5.195 41.627 7.961 63.574 7.961s43.246-2.766 63.574-7.961z" fill="#8ab8ec"/><path d="m319.574 486.57h47.787c43.496-21.046 80.121-54.043 105.639-94.719v-186.703h-217v306.852c21.947 0 43.246-2.766 63.574-7.961z" fill="#728ee4"/><path d="m256 179.719h-166.141v255.992h140.711c7.016 0 12.715 5.699 12.715 12.715v12.715h12.715 12.715v-12.715c0-7.016 5.699-12.715 12.715-12.715h139.863v-255.992z" fill="#fbf5eb"/><path d="m268.715 448.426c0-7.016 5.699-12.715 12.715-12.715h139.863v-255.992h-165.293v281.422h12.715z" fill="#dce0ef"/><path d="m256 217.863h-89.004v50.859c0 26.349 44.701 38.145 89.004 38.145s89.004-11.796 89.004-38.145v-50.859z" fill="#dce0ef"/><path d="m345.004 268.723v-50.859h-89.004v89.004c44.303-.001 89.004-11.797 89.004-38.145z" fill="#cad0e7"/><path d="m256 167.004h-89.004v50.859c0 26.349 44.701 38.145 89.004 38.145s89.004-11.796 89.004-38.145v-50.859z" fill="#fbf5eb"/><path d="m345.004 217.863v-50.859h-89.004v89.004c44.303 0 89.004-11.796 89.004-38.145z" fill="#dce0ef"/><path d="m256 116.145h-89.004v50.859c0 26.348 44.701 38.145 89.004 38.145s89.004-11.796 89.004-38.145v-50.859z" fill="#dce0ef"/><path d="m345.004 167.004v-50.859h-89.004v89.004c44.303-.001 89.004-11.797 89.004-38.145z" fill="#cad0e7"/><ellipse cx="256" cy="116.145" fill="#fbf5eb" rx="89.004" ry="38.145"/><path d="m345.004 116.145c0-26.349-44.701-38.145-89.004-38.145v76.289c44.303 0 89.004-11.796 89.004-38.144z" fill="#dce0ef"/></g></g></svg>