<svg id="Capa_1" enable-background="new 0 0 512 512" height="512" viewBox="0 0 512 512" width="512" xmlns="http://www.w3.org/2000/svg"><g><g><path d="m0 256c0 43.79 11 85.02 30.39 121.07l225.61 49.67 225.61-49.67c19.39-36.05 30.39-77.28 30.39-121.07 0-46.63-12.47-90.34-34.26-128-41.698 72.091-399.22 76.52-443.48 0-21.79 37.66-34.26 81.37-34.26 128z" fill="#bf2e70"/><path d="m34.26 128c44.26 76.52 126.99 128 221.74 128s177.48-51.48 221.74-128c-.01-.02-.03-.05-.04-.07-44.27-76.48-126.98-127.93-221.7-127.93s-177.43 51.45-221.7 127.93c-.01.02-.03.05-.04.07z" fill="#d75e91"/><path d="m30.39 377.07c13.167 24.487 30.205 46.585 50.295 65.474 7.41 6.967 53.475-16.692 61.675-10.639 14.03 10.357-9.084 49.507 6.932 56.861 32.481 14.917 68.623 23.234 106.708 23.234s74.227-8.317 106.708-23.233c11.455-5.261 4.296-37.405 14.766-44.232 11.345-7.398 40.226 10.392 50.23 1.34 21.664-19.604 39.956-42.863 53.906-68.805z" fill="#871155"/></g><g><path d="m427.7 129.04v316.83c-19.23 17.41-41.12 31.93-64.99 42.9h-213.42c-2.33-1.07-4.64-2.18-6.93-3.32-21.19-10.51-40.7-23.87-58.05-39.57-.01-.29-.01-.59-.01-.88v-315.96z" fill="#d8c1fa"/><path d="m427.7 129.04v316.83c-19.23 17.41-41.12 31.93-64.99 42.9h-213.42c-2.33-1.07-4.64-2.18-6.93-3.32v-356.41z" fill="#b895e4"/><path d="m427.7 129.04v316.83c-19.23 17.41-41.12 31.93-64.99 42.9h-101.37v-359.73z" fill="#9865d8"/><path d="m427.698 85.27v25l-38.627 18.77 38.627 18.77v25h-299.63c-12.09 0-23.03-4.9-30.95-12.82s-12.82-18.87-12.82-30.95c0-24.18 19.59-43.77 43.77-43.77z" fill="#d8c1fa"/><path d="m427.698 85.27v25l-38.628 18.77 38.628 18.77v25h-166.36v-87.54z" fill="#b895e4"/><path d="m427.698 110.27v37.54h-299.63c-10.35 0-18.77-8.42-18.77-18.77s8.42-18.77 18.77-18.77z" fill="#e7eaf5"/><path d="m261.338 110.27h166.36v37.54h-166.36z" fill="#d9dced"/><path d="m317.35 301.58v-53.13l-56.01-32.34-56.02 32.34v53.13l-46.02 26.57v64.68l56.02 32.34 46.02-26.56 46.01 26.56 56.02-32.34v-64.68zm-66.01 79.71-36.02 20.79-36.02-20.79v-41.59l36.02-20.8 36.02 20.8zm-26.02-79.71v-41.59l36.02-20.79 36.01 20.79v41.59l-18 10.4-18.01 10.4zm118.05 79.71-36.02 20.79-36.01-20.79v-41.59l18.01-10.4 18-10.4 36.02 20.8z" fill="#616679"/><path d="m317.35 301.58v-53.13l-56.01-32.34v23.09l36.01 20.79v41.59l-18 10.4-18.01 10.4v76.23l46.01 26.56 56.02-32.34v-64.68zm26.02 79.71-36.02 20.79-36.01-20.79v-41.59l18.01-10.4 18-10.4 36.02 20.8z" fill="#464651"/></g></g></svg>