<svg id="Capa_1" enable-background="new 0 0 512 512" height="512" viewBox="0 0 512 512" width="512" xmlns="http://www.w3.org/2000/svg"><g><g><path d="m256 330.666c-141.387 0-243.753-164.13-222.328-201.557 44.119-77.07 127.158-128.999 222.328-128.999s178.208 51.929 222.328 128.999c21.425 37.427-80.941 201.557-222.328 201.557z" fill="#8bfff4"/><path d="m512 256.11c0 26.051-3.891 51.191-11.129 74.871-5.031 16.469-11.672 32.231-19.75 47.109-8.25 15.2-147.391 50.531-225.121 50.531s-216.871-35.331-225.109-50.531c-3.289-6.031-6.332-12.21-9.121-18.531-14-31.629-21.77-66.629-21.77-103.449 0-46.219 12.25-89.57 33.68-127 44.121 77.07 127.16 129 222.32 129s178.211-51.93 222.32-129c21.43 37.43 33.68 80.781 33.68 127zm0 0" fill="#2dceea"/><path d="m481.262 377.809c-7.16 13.223-15.434 25.742-24.723 37.43-.579.729-1.161 1.455-1.748 2.178-7.966 9.814-132.182 12.267-198.791 12.267s-190.84-2.468-198.811-12.292c-.58-.715-1.156-1.432-1.728-2.153-9.289-11.688-17.563-24.207-24.723-37.43zm0 0" fill="#5ab4fc"/></g><g><path d="m454.794 220.688c0-32.114-26.126-58.24-58.24-58.24h-46.592l-246.164 186.368 350.996-46.592z" fill="#ff7040"/><path d="m115.446 162.447c-32.114 0-58.24 26.126-58.24 58.24v81.537l198.794 46.592-93.961-186.369z" fill="#ff903d"/><path d="m148.575 162.447h-33.13c-32.114 0-58.241 26.126-58.241 58.24v81.537l91.37 21.415v-161.192z" fill="#ffa969"/><path d="m454.794 302.224h-198.795l-152.201 104.833 152.201 104.833h10.204c76.096-2.984 143.652-39.173 188.59-94.492v-115.174z" fill="#ff4f42"/><path d="m57.205 417.396c44.938 55.32 112.494 91.509 188.591 94.494h10.203v-209.666h-198.794z" fill="#ff7040"/><path d="m57.205 417.396c24.496 30.155 55.711 54.624 91.37 71.133v-186.305h-91.37z" fill="#ff8c66"/><path d="m302.592 232.336h-46.593l-15.53 69.888 15.53 69.889h46.593z" fill="#ff903d"/><path d="m209.407 232.336h46.592v139.777h-46.592z" fill="#ffb03b"/><path d="m267.648 290.576h-11.649l-7.765 11.648 7.765 11.648h11.649z" fill="#10273a"/><path d="m244.351 290.576h11.648v23.296h-11.648z" fill="#742466"/><path d="m209.407 407.057 46.592 58.24h147.594c1.549-1.095 3.084-2.21 4.607-3.338v-113.143h-152.201z" fill="#742466"/><path d="m103.798 461.958c1.524 1.129 3.059 2.244 4.608 3.339h147.594v-116.481h-152.202z" fill="#ba1956"/><path d="m103.798 461.958c1.524 1.129 3.058 2.244 4.608 3.339h40.17v-116.481h-44.778z" fill="#d42f6e"/><path d="m408.201 220.688c0-32.114-26.126-58.24-58.241-58.24h-93.961l-46.592 46.592 46.592 46.592h152.202z" fill="#742466"/><path d="m162.038 162.447c-32.114 0-58.24 26.126-58.24 58.24v34.944h152.202v-93.185h-93.962z" fill="#ba1956"/><path d="m148.575 164.035c-25.642 6.094-44.778 29.173-44.778 56.652v34.944h44.778z" fill="#d42f6e"/></g><g fill="#fff"><path d="m276.05 51.797h-1.524c-6.754 0-12.226-5.477-12.226-12.227v-1.523h-8.715v1.523c0 6.75-5.477 12.227-12.227 12.227h-1.527v8.715h1.527c6.75 0 12.227 5.472 12.227 12.226v1.528h8.715v-1.528c0-6.754 5.472-12.226 12.226-12.226h1.524zm0 0"/><g><path d="m390.292 115.033h-1.524c-6.754 0-12.226-5.477-12.226-12.227v-1.523h-8.715v1.523c0 6.75-5.477 12.227-12.227 12.227h-1.527v8.715h1.527c6.75 0 12.227 5.472 12.227 12.226v1.528h8.715v-1.528c0-6.754 5.472-12.226 12.226-12.226h1.524zm0 0"/><path d="m161.215 115.033h-1.524c-6.754 0-12.226-5.477-12.226-12.227v-1.523h-8.715v1.523c0 6.75-5.477 12.227-12.227 12.227h-1.527v8.715h1.527c6.75 0 12.227 5.472 12.227 12.226v1.528h8.715v-1.528c0-6.754 5.472-12.226 12.226-12.226h1.524zm0 0"/></g></g></g></svg>