<svg id="Capa_1" enable-background="new 0 0 512 512" height="512" viewBox="0 0 512 512" width="512" xmlns="http://www.w3.org/2000/svg"><g><g><g><g><g><g><circle cx="256" cy="256" fill="#ff6c52" r="256"/></g></g></g></g></g><path d="m512 256c0-.153 0-.307-.001-.46l-75.104-75.104-12.507 23.896-129.788-129.788-207.64 177.29 68.002 68.001-19.346 96.592 94.254 94.254c8.591.873 17.308 1.319 26.13 1.319 141.385 0 256-114.615 256-256z" fill="#f92814"/><g><ellipse cx="256" cy="100.028" fill="#fff" rx="31.276" ry="31.276" transform="matrix(.16 -.987 .987 .16 116.257 336.7)"/><path d="m287.276 100.028c0-17.233-13.938-31.208-31.156-31.273v62.546c17.218-.066 31.156-14.04 31.156-31.273z" fill="#e9edf5"/></g><circle cx="109.451" cy="211.412" fill="#fff" r="31.276"/><g><g><ellipse cx="166.57" cy="382.064" fill="#fff" rx="31.276" ry="31.276" transform="matrix(.227 -.974 .974 .227 -243.309 457.678)"/><path d="m256 146.304c25.517 0 46.276-20.759 46.276-46.276s-20.759-46.276-46.276-46.276-46.276 20.759-46.276 46.276c0 5.708 1.039 11.177 2.938 16.23l-77.778 56.509c-7.302-4.822-16.045-7.631-25.432-7.631-25.517 0-46.276 20.759-46.276 46.276 0 25.447 20.647 46.162 46.068 46.274l28.626 88.102c-10.7 8.484-17.575 21.592-17.575 36.276 0 25.517 20.759 46.276 46.276 46.276 20.269 0 37.535-13.099 43.78-31.276h54.308v-30h-54.308c-6.245-18.177-23.511-31.276-43.78-31.276-.135 0-.27.001-.405.002l-28.502-87.72c10.979-8.469 18.064-21.751 18.064-36.658 0-5.216-.868-10.233-2.466-14.915l78.522-57.05c7.048 4.346 15.344 6.857 24.216 6.857zm-73.154 235.76c0 8.975-7.301 16.276-16.276 16.276s-16.276-7.301-16.276-16.276 7.301-16.276 16.276-16.276 16.276 7.301 16.276 16.276zm73.154-298.312c8.975 0 16.276 7.301 16.276 16.276s-7.301 16.276-16.276 16.276-16.276-7.301-16.276-16.276 7.301-16.276 16.276-16.276zm-162.825 127.66c0-8.975 7.302-16.276 16.276-16.276s16.276 7.302 16.276 16.276-7.301 16.276-16.276 16.276-16.276-7.301-16.276-16.276z" fill="#555a66"/></g><ellipse cx="345.43" cy="382.064" fill="#e9edf5" rx="31.276" ry="31.276" transform="matrix(.895 -.445 .445 .895 -134.009 193.828)"/></g><g><circle cx="402.549" cy="211.412" fill="#e9edf5" r="31.276"/><path d="m448.825 211.412c0-25.517-20.759-46.276-46.276-46.276-9.387 0-18.129 2.81-25.432 7.631l-77.779-56.509c1.898-5.053 2.938-10.522 2.938-16.23 0-25.476-20.694-46.207-46.155-46.273v30.003c8.919.065 16.155 7.335 16.155 16.27s-7.237 16.204-16.155 16.27v30.003c8.825-.023 17.078-2.529 24.094-6.855l78.524 57.051c-1.598 4.682-2.466 9.699-2.466 14.915 0 14.907 7.085 28.189 18.064 36.658l-28.502 87.72c-.135-.001-.27-.002-.405-.002-20.269 0-37.535 13.099-43.78 31.276h-45.53v30h45.529c6.245 18.177 23.511 31.276 43.78 31.276 25.517 0 46.276-20.759 46.276-46.276 0-14.684-6.875-27.792-17.575-36.276l28.626-88.102c25.422-.112 46.069-20.827 46.069-46.274zm-103.395 186.928c-8.975 0-16.276-7.301-16.276-16.276s7.301-16.276 16.276-16.276 16.276 7.301 16.276 16.276-7.302 16.276-16.276 16.276zm73.395-186.928c0 8.975-7.302 16.276-16.276 16.276s-16.276-7.301-16.276-16.276 7.301-16.276 16.276-16.276 16.276 7.302 16.276 16.276z" fill="#333940"/></g></g></svg>