<svg id="Capa_1" enable-background="new 0 0 512 512" height="512" viewBox="0 0 512 512" width="512" xmlns="http://www.w3.org/2000/svg"><path d="m512 256c0 141.38-114.62 256-256 256s-256-114.62-256-256c0-133.73 102.55-243.52 233.3-255.01h.01l23.69.1 23.69.09c129.8 12.42 231.31 121.77 231.31 254.82z" fill="#65b2fe"/><path d="m512 256c0 87.11-43.52 164.07-110 210.31-41.41 28.8-91.73 45.69-146 45.69s-104.59-16.89-146-45.69c-66.48-46.24-110-123.2-110-210.31 0-46.22 12.25-89.57 33.68-127 44.12 77.07 127.16 129 222.32 129s178.21-51.93 222.32-129c21.43 37.43 33.68 80.78 33.68 127z" fill="#0e9ce7"/><path d="m439.5 328.5c0 98.622-77.819 179.081-175.392 183.322-.29.019-.58.028-.871.037-.815.028-1.629.056-2.434.075-1.62.047-3.221.066-4.803.066-101.337 0-183.5-82.163-183.5-183.5s82.163-183.5 183.5-183.5h.262c101.215.141 183.238 82.247 183.238 183.5z" fill="#ffe853"/><path d="m439.5 328.5c0 98.622-77.819 179.081-175.392 183.322-.29.019-.58.028-.871.037-.815.028-1.629.056-2.434.075-1.62.047-3.221.066-4.803.066-54.807-42.411-96.759-108.836-96.759-183.5s41.952-141.089 96.759-183.5h.262c101.215.141 183.238 82.247 183.238 183.5z" fill="#fed110"/><path d="m439.5 328.5c0 101.341-82.159 183.5-183.5 183.5v-367c101.341 0 183.5 82.159 183.5 183.5z" fill="#ff9f01"/><path d="" fill="#ed771b"/><path d="" fill="#ed771b"/><path d="m309.32 40.34c-.03 5.23-8.68 8.99-10.24 13.71-1.6 4.88 3.05 13.04.06 17.1-3.01 4.1-12.21 2.09-16.34 5.07-4.09 2.94-5.1 12.31-10 13.88-4.72 1.52-10.97-5.49-16.2-5.52-5.23-.02-11.54 6.93-16.25 5.36-4.89-1.61-5.8-10.99-9.87-13.97-4.09-3.02-13.31-1.1-16.28-5.23-2.95-4.09 1.78-12.2.22-17.1-1.52-4.73-10.13-8.58-10.1-13.81.02-5.23 8.67-9 10.23-13.71 1.61-4.88-3.04-13.05-.05-17.1 3.01-4.11 12.21-2.09 16.33-5.07.96-.69 1.76-1.74 2.47-2.96 7.48-.65 15.05-.99 22.7-.99 8.33 0 16.57.4 24.69 1.18.71 1.24 1.5 2.31 2.46 3.02 4.09 3.02 13.31 1.09 16.28 5.23 2.95 4.08-1.77 12.2-.22 17.1 1.52 4.72 10.13 8.58 10.11 13.81z" fill="#fff"/><path d="m309.32 40.34c-.03 5.23-8.68 8.99-10.24 13.71-1.6 4.88 3.05 13.04.06 17.1-3.01 4.1-12.21 2.09-16.34 5.07-4.09 2.94-5.1 12.31-10 13.88-4.72 1.52-10.97-5.49-16.2-5.52l.4-83.49 23.69.09c.71 1.24 1.5 2.31 2.46 3.02 4.09 3.02 13.31 1.09 16.28 5.23 2.95 4.08-1.77 12.2-.22 17.1 1.52 4.72 10.13 8.58 10.11 13.81z" fill="#d1f6ff"/><path d="m280.884 303.111c1.366-23.366 20.018-42.507 43.344-44.445 27.345-2.271 50.376 18.69 51.469 45.308.03.642.045 1.298.046 1.939v.154c-.008 4.424-5.804 6.143-8.31 2.497-8.561-12.457-22.925-20.619-39.178-20.598-16.25.022-30.59 8.211-39.132 20.682-2.523 3.684-8.312 1.904-8.323-2.562-.002-.984.025-1.977.084-2.975z" fill="#29334c"/><path d="m326.566 357.018c.002 1.482-.041 2.973-.121 4.482-2.058 35.119-30.087 63.885-65.148 66.798-2.134.18-4.258.26-6.354.25-38.255-.139-69.442-30.421-71.003-68.35-.04-.967-.063-1.952-.067-2.91l.001-.235c.014-6.652 8.721-9.23 12.49-3.754 12.851 18.697 34.401 30.966 58.793 30.957l.09.001c24.419-.036 45.97-12.34 58.812-31.085 3.795-5.54 12.494-2.859 12.507 3.846z" fill="#ed771b"/><path d="m326.566 357.018c.002 1.482-.041 2.973-.121 4.482-2.058 35.119-30.087 63.885-65.148 66.798-2.134.18-4.258.26-6.354.25l.214-44.292.09.001c24.419-.036 45.97-12.34 58.812-31.085 3.795-5.54 12.494-2.859 12.507 3.846z" fill="#c6601a"/><path d="m135.938 302.411c1.366-23.366 20.018-42.507 43.344-44.444 27.345-2.271 50.376 18.69 51.469 45.308.03.642.045 1.298.046 1.94v.154c-.008 4.424-5.804 6.143-8.31 2.497-8.561-12.457-22.925-20.619-39.178-20.598-16.25.021-30.59 8.211-39.132 20.682-2.523 3.684-8.312 1.904-8.323-2.562-.002-.985.025-1.978.084-2.977z" fill="#29334c"/><path d="m371.181 254.792c-14.589-18.553-42.158-27.234-66.344-19.588-.019.006-.038.012-.057.018-1.811.575-3.568-1.232-2.52-2.609 4.344-5.708 10.89-10.2 19.174-12.494 19.121-5.296 40.974 3.436 49.654 19.829 2.448 4.623 3.643 9.393 3.717 14.031.027 1.669-2.504 2.237-3.624.813z" fill="#c55835"/><path d="m140.384 253.678c14.768-18.411 42.419-26.826 66.53-18.947.019.006.038.012.057.019 1.805.592 3.58-1.197 2.545-2.585-4.289-5.749-10.791-10.304-19.053-12.678-19.069-5.481-41.005 3.04-49.843 19.349-2.492 4.599-3.733 9.357-3.852 13.995-.043 1.669 2.483 2.261 3.616.847z" fill="#ed771b"/><path d="m373.45 170.136-234.517-1.131 95.262-124.532c5.706-7.463 14.194-11.172 22.654-11.131s16.912 3.832 22.545 11.349z" fill="#fe3345"/><path d="m373.45 170.136-117.259-.566.657-136.229c8.46.041 16.912 3.832 22.545 11.349z" fill="#dd1265"/><path d="m383.525 212.678c-32.405-17.807-77.491-28.967-127.401-29.208-49.909-.241-95.102 10.484-127.676 27.977-10.648 5.722-24.059-2.312-21.608-12.94 3.524-15.291 11.661-29.211 23.206-40.487 11.555-11.276 26.516-19.908 43.699-24.622 24.753-6.778 52.872-10.541 82.671-10.397 29.8.144 57.881 4.177 82.567 11.194 34.273 9.751 59.521 35.112 66.273 65.751 2.349 10.652-11.139 18.557-21.731 12.732z" fill="#fff"/><path d="m383.525 212.678c-32.405-17.807-77.491-28.967-127.401-29.208l.292-60.469c29.8.144 57.881 4.177 82.567 11.194 34.273 9.751 59.521 35.112 66.273 65.751 2.349 10.652-11.139 18.557-21.731 12.732z" fill="#d1f6ff"/></svg>