<svg id="Icons" enable-background="new 0 0 512 512" height="512" viewBox="0 0 512 512" width="512" xmlns="http://www.w3.org/2000/svg"><g><circle cx="256" cy="256" fill="#dd5e26" r="256"/><g><path d="m506.73 307.92c-29.377 143.578-175.476 233.544-316.81 195.47-92.139-23.916-166.053-102.008-184.65-195.47z" fill="#d48d77"/><g fill="#c17e62"><path d="m288.65 423.76v86.18c-4.57.58-9.17 1.04-13.81 1.37v-87.55c.318-9.145 13.491-9.147 13.81 0z"/><path d="m288.65 307.92v21.26c0 3.81-3.09 6.9-6.91 6.9-3.81 0-6.9-3.09-6.9-6.9v-21.26z"/><path d="m239.242 471.872c-3.814 0-6.906-3.092-6.906-6.906v-127.551c0-3.814 3.092-6.906 6.906-6.906s6.906 3.092 6.906 6.906v127.552c0 3.813-3.092 6.905-6.906 6.905z"/><path d="m189.92 307.92v101c0 3.81-3.09 6.9-6.9 6.9-3.82 0-6.91-3.09-6.91-6.9v-101z"/><path d="m189.92 465.94v37.45c-4.66-1.24-9.26-2.61-13.81-4.11v-33.34c.318-9.141 13.489-9.15 13.81 0z"/><path d="m136.71 369.85v112.71c-4.7-2.48-9.31-5.1-13.82-7.86v-104.85c.316-9.127 13.503-9.135 13.82 0z"/><path d="m82.11 307.92v40.79c0 3.81-3.09 6.9-6.91 6.9-3.81 0-6.9-3.09-6.9-6.9v-40.79z"/><path d="m82.11 403.73v40.14c-4.77-4.42-9.38-9.02-13.81-13.8v-26.34c.279-9.121 13.536-9.12 13.81 0z"/><path d="m36.96 307.92v80.65c-5.08-8.38-9.69-17.07-13.81-26.04v-54.61z"/><path d="m313.339 471.872c-3.814 0-6.906-3.092-6.906-6.906v-127.551c0-3.814 3.092-6.906 6.906-6.906s6.906 3.092 6.906 6.906v127.552c0 3.813-3.092 6.905-6.906 6.905z"/><path d="m356.8 307.92v73.53c0 3.81-3.09 6.9-6.9 6.9-3.82 0-6.91-3.09-6.91-6.9v-73.53z"/><path d="m356.8 440.54v50.85c-4.53 1.94-9.14 3.76-13.81 5.44v-56.29c.275-9.128 13.538-9.139 13.81 0z"/><path d="m388.4 459.034c-3.814 0-6.906-3.092-6.906-6.906v-127.551c0-3.814 3.092-6.906 6.906-6.906s6.906 3.092 6.906 6.906v127.552c-.001 3.813-3.092 6.905-6.906 6.905z"/><path d="m435.73 307.92v96.74c0 3.81-3.09 6.9-6.9 6.9-3.82 0-6.91-3.09-6.91-6.9v-96.74z"/><path d="m474.94 347.79v40.94c-4.28 7.04-8.89 13.86-13.81 20.43v-61.37c.275-9.128 13.538-9.139 13.81 0z"/></g></g><g id="Laptop_3_"><g><g><path d="m266.012 193.13v126.664c0 10.394-8.423 18.816-18.809 18.816h-202.284c-10.394 0-18.817-8.423-18.817-18.816v-126.664c0-1.102.097-2.188.29-3.242 1.52-8.849 9.235-15.575 18.527-15.575h202.284c10.386.001 18.809 8.424 18.809 18.817z" fill="#a583bb"/><path d="m175.654 338.611h-130.735c-10.394 0-18.817-8.423-18.817-18.816v-126.665c0-1.102.097-2.188.29-3.242 79.41 6.163 142.826 69.386 149.262 148.723z" fill="#9175a7"/><path d="m266.012 193.13v97.14c-70.191 17.034-137.59-44.456-126.889-115.956h108.081c10.385 0 18.808 8.423 18.808 18.816z" fill="#c2aacf"/></g><g><g><path d="m346.62 402.84v12.083c.11 2.44-2.407 3.603-7.103 3.668h-209.581c-8.375 0-20.804-4.304-27.762-9.613l-63.473-48.445c-3.218-2.454-4.698-4.69-4.537-6.387v-12.308h14.408v9.083h202.276c8.375 0 20.804 4.304 27.762 9.613l56.916 43.433v-1.126h11.094z" fill="#9175a7"/><path d="m143.451 384.755c0 11.818-1.882 23.185-5.374 33.836h-8.141c-8.375 0-20.804-4.304-27.762-9.613l-63.473-48.445c-3.218-2.454-4.698-4.69-4.537-6.387v-12.308h14.408v9.083h89.505c3.491 10.65 5.374 22.017 5.374 33.834z" fill="#6c53a2"/><path d="m346.62 402.84v12.083c.01.14.005.277 0 .41-.169 1.995-2.582 3.258-7.103 3.258h-119.19c-22.002-15.945-37.786-39.942-43.039-67.672h73.561c8.375 0 20.804 4.304 27.762 9.613l56.916 43.433v-1.126h11.093z" fill="#a583bb"/></g><g><path d="m339.516 406.283h-209.58c-8.375 0-20.804-4.304-27.762-9.613l-63.473-48.445c-6.959-5.309-5.808-9.613 2.566-9.613h209.581c8.375 0 20.804 4.304 27.762 9.613l17.94 13.692 45.533 34.753c6.958 5.309 5.808 9.613-2.567 9.613z" fill="#c2aacf"/><path d="m342.083 396.67c-12.758-9.738-51.389-39.222-63.473-48.445-6.959-5.31-19.388-9.613-27.762-9.613h-75.178c1.923 26.25 13.169 49.901 30.433 67.672h133.413c8.375-.001 9.525-4.305 2.567-9.614z" fill="#decee5"/><path d="m143.451 384.755c0 7.369-.732 14.569-2.132 21.528h-11.383c-8.375 0-20.804-4.304-27.762-9.613l-63.473-48.445c-6.959-5.309-5.808-9.613 2.566-9.613h91.927c6.58 14.005 10.257 29.644 10.257 46.143z" fill="#a583bb"/><path d="m296.55 361.916c-31.735 11.552-105.536 5.066-107.252-23.305h61.55c8.375 0 20.804 4.304 27.762 9.613z" fill="#fff"/></g></g><g><path d="m257.967 199.462v105.957c0 9.444-7.659 17.103-17.103 17.103h-189.614c-9.444 0-17.103-7.659-17.103-17.103v-105.957c0-3.089.821-5.985 2.261-8.487 2.936-5.149 8.487-8.616 14.842-8.616h189.614c9.445 0 17.103 7.658 17.103 17.103z" fill="#2d2667"/></g><path d="m153.562 324.933h-15.006c-7.439.228-7.445 11.033 0 11.263h15.006c7.439-.228 7.445-11.033 0-11.263z" fill="#6c53a2"/><g><g><g fill="#3e4e60"><path d="m121.674 351.957h-20.804l-.322-.249-5.269-4.022c-.925-.7-.426-2.172.732-2.172h20.796l.322.249 3.902 2.977h.008l1.368 1.046c.916.699.417 2.171-.733 2.171z"/><path d="m106.115 365.77h-19.942l-.314-.241c-.008 0-.008-.008-.016-.008l-7.546-5.76c-.925-.7-.426-2.172.732-2.172h19.943l.322.249 6.186 4.714 1.368 1.046c.917.708.418 2.172-.733 2.172z"/><path d="m155.325 351.957h-20.796l-.322-.249-5.269-4.022c-.925-.7-.426-2.172.732-2.172h20.796l.322.249 3.902 2.977c.027.023 1.533 1.156 1.488 1.142.756.732.257 2.075-.853 2.075z"/><path d="m222.643 351.957h-20.796l-.322-.249-5.277-4.022c-.917-.7-.418-2.172.732-2.172h20.804l.322.249 3.902 2.977 1.368 1.046c.924.699.425 2.171-.733 2.171z"/><path d="m188.984 351.957h-20.796l-.322-.249-5.277-4.022c-.898-.671-.439-2.176.74-2.172h20.796l.322.249 3.902 2.977 1.368 1.046c.924.699.425 2.171-.733 2.171z"/><path d="m160.015 381.224h-20.796l-.29-.225c-.019.027-9.713-7.43-9.734-7.425-.917-.7-.418-2.172.74-2.172h20.796l.322.249 8.326 6.355h.008c.027.023 1.522 1.156 1.48 1.142.757.74.258 2.076-.852 2.076z"/><path d="m260.992 381.224h-20.796l-.241-.185c-.008 0-.008-.008-.016-.008-.638-.467-9.471-7.238-9.766-7.457-.925-.7-.426-2.172.732-2.172h20.795l.314.241c.008 0 .008.008.016.008l8.326 6.355 1.368 1.046c.925.708.427 2.172-.732 2.172z"/><path d="m193.674 381.224h-20.796l-.29-.225c-.019.027-9.713-7.43-9.734-7.425-.917-.7-.426-2.172.732-2.172h20.796l.314.241c.008 0 .008.008.016.008l8.326 6.355 1.368 1.046c.925.708.426 2.172-.732 2.172z"/><path d="m227.333 381.224h-20.796l-.29-.225c-.019.027-9.713-7.43-9.734-7.425-.917-.7-.426-2.172.732-2.172h20.796l.314.241c.008 0 .008.008.016.008l8.326 6.355 1.368 1.046c.925.708.426 2.172-.732 2.172z"/><path d="m88.015 351.957h-19.782c-.121-.113-.233-.225-.338-.338-.304-.28-.56-.605-.821-.917v-.008c-3.013-3.826 1.152-5.313 4.626-5.181h11.448l.314.241c.008 0 .008.008.016.008l3.902 2.977 1.368 1.046c.916.7.425 2.172-.733 2.172z"/><path d="m126.364 381.224h-7.876c-7.67-.265-15.806-3.141-22.091-7.65-.925-.7-.426-2.172.732-2.172h19.943l.322.249 8.334 6.355 1.368 1.046c.917.708.418 2.172-.732 2.172z"/><path d="m254.13 351.957h-18.623l-.314-.241c-.008 0-.008-.008-.016-.008l-5.269-4.022c-.917-.7-.426-2.172.732-2.172 2.83.058 9.141-.204 11.85.338 4.192.666 8.291 2.006 12.139 3.797 1.182.546.804 2.308-.499 2.308z"/><path d="m290.959 378.649c-.043.631-.423 1.17-.925 1.529 0 0-.008 0-.008.008-1.376.909-3.109 1.008-4.722 1.038h-11.448l-.241-.185c-.008 0-.008-.008-.016-.008-.638-.467-9.471-7.238-9.766-7.457-.925-.7-.426-2.172.732-2.172h19.943c2.328 1.84 6.687 4.593 6.451 7.247z"/><path d="m139.766 365.77h-20.796l-.322-.249-7.554-5.76c-.04-.032-.08-.064-.113-.097-.756-.732-.257-2.075.853-2.075h20.796l.322.249 6.178 4.714h.008c.027.023 1.522 1.156 1.48 1.142.757.74.259 2.076-.852 2.076z"/><path d="m240.744 365.77h-20.796l-.314-.241c-.008 0-.008-.008-.016-.008l-7.546-5.76c-.925-.7-.426-2.172.732-2.172h20.796l.314.241c.008 0 .008.008.016.008l6.178 4.714 1.368 1.046c.925.708.426 2.172-.732 2.172z"/><path d="m173.425 365.77h-20.795l-.322-.249-7.554-5.76c-.917-.7-.418-2.172.74-2.172h20.796l.322.249 6.178 4.714 1.368 1.046c.925.708.426 2.172-.733 2.172z"/><path d="m207.085 365.77h-20.796l-.322-.249-7.554-5.76c-.917-.7-.426-2.172.732-2.172h20.796l.314.241c.008 0 .008.008.016.008l6.178 4.714 1.368 1.046c.925.708.426 2.172-.732 2.172z"/><path d="m273.542 365.77h-19.935l-.314-.241c-.008 0-.008-.008-.016-.008l-7.546-5.76c-.925-.7-.426-2.172.732-2.172h19.943l.322.249 6.186 4.714 1.368 1.046c.917.708.418 2.172-.74 2.172z"/></g><g fill="#3f5d77"><path d="m121.03 348.739h-16.532c-.265 0-.523-.089-.732-.249l-3.902-2.977h16.942l.322.249z"/><path d="m105.48 362.552h-15.679c-.265 0-.523-.088-.74-.249l-6.178-4.714h16.089l.322.249z"/><path d="m154.689 348.739h-16.532c-.266 0-.523-.089-.732-.249l-3.902-2.977h16.942l.322.249z"/><path d="m222.007 348.739h-16.532c-.265 0-.523-.089-.732-.249l-3.902-2.977h16.942l.322.249z"/><path d="m188.348 348.739h-16.532c-.265 0-.523-.089-.732-.249l-3.902-2.977h16.942l.322.249z"/><path d="m159.379 378.006h-16.532c-.265 0-.523-.08-.732-.241l-8.334-6.363h16.95l.322.249z"/><path d="m260.357 378.006h-16.532c-.265 0-.523-.08-.74-.241l-8.326-6.363h16.941l.314.241c.008 0 .008.008.016.008z"/><path d="m193.038 378.006h-16.532c-.265 0-.523-.08-.732-.241l-8.334-6.363h16.942l.314.241c.008 0 .008.008.016.008z"/><path d="m226.698 378.006h-16.532c-.265 0-.523-.08-.732-.241l-8.334-6.363h16.942l.314.241c.008 0 .008.008.016.008z"/><path d="m87.379 348.739h-15.429c-1.328-.13-2.392-2.332-2.598-3.049 1.414-.348 12.118-.112 13.797-.177l.314.241c.008 0 .008.008.016.008z"/><path d="m125.728 378.006h-4.022c-6.292-.002-15.134-2.995-20.602-6.605h15.969l.322.249z"/><path d="m252.569 348.739h-13.435c-.265 0-.523-.089-.74-.249l-3.902-2.977c.855.015 4.312-.034 5.092.032 4.466.26 8.847 1.524 12.985 3.194z"/><path d="m290.886 377.829c-1.42.34-11.724.117-13.402.177-.265 0-.523-.08-.74-.241l-8.326-6.363h16.089c2.046 1.525 6.13 4.469 6.379 6.427z"/><path d="m139.131 362.552h-16.532c-.265 0-.523-.088-.732-.249l-6.186-4.714h16.95l.322.249z"/><path d="m240.108 362.552h-16.532c-.265 0-.523-.088-.74-.249l-6.178-4.714h16.942l.314.241c.008 0 .008.008.016.008z"/><path d="m172.79 362.552h-16.532c-.265 0-.523-.088-.732-.249l-6.186-4.714h16.95l.322.249z"/><path d="m206.449 362.552h-16.532c-.265 0-.523-.088-.732-.249l-6.186-4.714h16.942l.314.241c.008 0 .008.008.016.008z"/><path d="m272.914 362.552h-15.679c-.266 0-.523-.088-.74-.249l-6.178-4.714h16.089l.322.249z"/></g></g><g><path d="m254.379 399.855h-70.528c-2.816 0-6.999-1.448-9.34-3.242-2.354-1.778-8.882-6.786-11.303-8.624-2.341-1.786-1.955-3.234.861-3.234h70.528c2.816 0 6.999 1.448 9.34 3.234l11.311 8.624c1.888 1.348 2.408 3.243-.869 3.242z" fill="#3f5d77"/><path d="m254.379 399.855h-70.528c-2.816 0-6.999-1.448-9.34-3.242l-3.483-2.655c-.426-.989.362-1.657 2.285-1.657h70.52c2.824 0 7.007 1.448 9.348 3.234l3.475 2.655c.434.99-.362 1.665-2.277 1.665z" fill="#3e4e60"/></g></g><g fill="#fff"><path d="m226.407 182.359h-51.928c-5.302-.158-5.329-7.878 0-8.045h51.928c5.301.158 5.329 7.879 0 8.045z"/><path d="m323.736 396.114h-50.838c-6.706.201-6.732 9.959 0 10.169h50.838c6.706-.202 6.732-9.959 0-10.169z"/></g></g><g><g><path d="m236.148 247.341c.069 9.283-7.666 17.202-17.138 17.142h-145.905c-2.373 0-4.629-.481-6.684-1.353-6.257-2.675-10.447-8.77-10.455-15.785.008-7.015 4.186-13.111 10.454-15.785 2.045-.873 4.352-1.363 6.684-1.353h145.906c9.44-.065 17.198 7.834 17.138 17.134z" fill="#ebd9ea"/><path d="m231.761 258.794c-3.133 3.492-7.686 5.69-12.751 5.69h-145.905c-4.918.006-9.525-2.097-12.751-5.69 3.036-3.426 7.593-5.584 12.27-5.686.075-.024 146.168.008 146.385-.005 5.066.009 9.581 2.169 12.752 5.691z" fill="#c2aacf"/><path d="m231.905 236.064c-3.138 3.599-7.752 5.853-12.895 5.856h-145.905c-4.928.024-9.739-2.196-12.9-5.861 3.112-3.557 7.617-5.725 12.419-5.848.078-.025 146.166.008 146.385-.005 5.143.013 9.721 2.231 12.896 5.858z" fill="#fff"/></g><path d="m139.48 230.208h13.156v11.713h-13.156z" fill="#c0405c"/><path d="m146.057 230.208h6.578v11.713h-6.578z" fill="#e9465e"/><g><g><path d="m161.968 281.105c1.316.707 11.845 6.34 12.843 6.879 1.059.568 2.198-.609 1.598-1.649l-10.821-18.742-17.133 9.892 10.821 18.742c.6 1.04 2.19.642 2.227-.56.029-1.078.422-13.133.465-14.562" fill="#f39e22"/><path d="m152.526 278.575 8.31 14.394c.18.312.447.494.734.563l.398-12.427 10.961 5.869c.083-.283.059-.605-.121-.917l-8.31-14.394z" fill="#fad98f"/></g><g><path d="m130.147 281.183c.045 1.493.432 13.428.465 14.562.037 1.201 1.627 1.599 2.227.56l10.821-18.742-17.133-9.892-10.821 18.742c-.6 1.04.539 2.217 1.598 1.649.947-.515 11.584-6.202 12.843-6.879" fill="#f39e22"/><path d="m127.617 271.741-8.31 14.394c-.18.312-.204.634-.121.917l10.961-5.869.398 12.427c.287-.069.554-.251.734-.563l8.31-14.394z" fill="#fad98f"/></g></g><g><g><path d="m167.9 259.771c0-12.063-9.779-21.843-21.843-21.843-28.974 1.15-28.966 42.539 0 43.685 12.064 0 21.843-9.779 21.843-21.842z" fill="#c0405c"/><path d="m164.87 259.771c0-10.39-8.423-18.812-18.812-18.812-24.954.991-24.947 36.638 0 37.625 10.389-.001 18.812-8.423 18.812-18.813z" fill="#e9465e"/><path d="m160.35 259.769c.042 7.765-6.379 14.328-14.293 14.293-18.897-.746-18.985-27.713-.099-28.581 7.813-.142 14.478 6.477 14.392 14.288z" fill="#f39e22"/><path d="m160.35 259.769c0 .503-.027.998-.076 1.488-1.906 3.555-5.654 5.973-9.969 5.973-12.41-.195-15.584-16.922-4.346-21.749 7.812-.142 14.477 6.477 14.391 14.288z" fill="#f9c744"/><path d="m158.543 253.256c-.241 7.804-11.578 7.808-11.816 0 0-3.263 2.643-5.91 5.906-5.91.184 0 .364.009.539.027 2.234 1.285 4.086 3.155 5.349 5.398.018.157.022.323.022.485z" fill="#fad98f"/></g></g></g></g><g id="Person_7_"><g id="Body_11_"><path d="m452.02 353.9v66.76c-34.295 40.886-81.295 70.57-133.31 83.6v-150.36c-.228-37.055 30.799-66.95 66.65-66.659 35.865-.291 66.889 29.613 66.66 66.659z" fill="#2d2667"/><path d="m452.02 353.9v66.76c-29.923 35.589-69.055 62.581-113.31 77.68v-144.44c0-.74.01-1.47.04-2.2.187-6.049 1.216-12.077 3.03-17.84 3.525-11.277 10.18-21.535 18.95-29.44 8.342-7.559 18.648-12.933 29.62-15.46 1.65-.38 3.32-.72 5.01-.97 2.03.31 4.04.7 6 1.19 29.1 7.16 50.66 33.42 50.66 64.72z" fill="#6c53a2"/><path d="m442.02 353.9v77.98c-28.505 30.1-63.8 52.976-103.31 66.46v-144.44c0-.74.01-1.47.04-2.2.187-6.049 1.216-12.077 3.03-17.84 3.527-11.277 10.176-21.535 18.95-29.44 7.906-7.164 17.571-12.362 27.9-15.04.576-.146 1.145-.282 1.72-.42 29.455 6.742 51.709 33.26 51.67 64.94z" fill="#57409b"/><path d="m401.9 466.38c-24.871 17.33-53.429 30.42-83.19 37.88v-37.88z" fill="#c0405c"/><path d="m338.71 466.38h63.19c-19.29 13.41-40.53 24.23-63.19 31.96z" fill="#cde6f6"/><path d="m338.71 466.38h63.19c-19.29 13.41-40.53 24.23-63.19 31.96z" fill="#e9465e"/></g><g id="HEAD_10_"><g id="Ears_9_"><path d="m349.971 234.974c.735 8.918-6.141 16.844-15.197 16.795h-12.839c-20.319-.497-20.319-31.496 0-31.992h12.839c8.393-.001 15.197 6.803 15.197 15.197z" fill="#f9d6bf"/><path d="m463.987 234.974c.735 8.918-6.141 16.844-15.197 16.795h-12.839c-20.319-.497-20.319-31.496 0-31.992h12.839c8.393-.001 15.197 6.803 15.197 15.197z" fill="#f9d6bf"/><g fill="#eab39b"><path d="m355.358 235.772c0 3.52-2.853 6.373-6.373 6.373h-23.907c-3.52 0-6.373-2.853-6.373-6.373s2.853-6.373 6.373-6.373h23.907c3.519 0 6.373 2.854 6.373 6.373z"/><path d="m452.02 235.772c0 3.52-2.853 6.373-6.373 6.373h-23.907c-3.52 0-6.373-2.853-6.373-6.373s2.853-6.373 6.373-6.373h23.907c3.52 0 6.373 2.854 6.373 6.373z"/></g></g><g id="Neck_9_"><path d="m401.358 276.702v15.91c0 7.45-5.1 13.71-12 15.49-9.908 2.672-20.141-5.184-19.99-15.49v-15.91c-.151-10.303 10.082-18.166 19.99-15.49 6.991 1.816 11.996 8.091 12 15.49z" fill="#eab39b"/><path d="m401.358 276.702v15.91c0 7.45-5.1 13.71-12 15.49-6.89-1.78-11.99-8.04-11.99-15.49v-15.91c0-7.45 5.1-13.71 11.99-15.49 6.991 1.816 11.996 8.091 12 15.49z" fill="#f9d6bf"/><path d="m401.358 276.702v14.65c-5.985 1.561-14.08 1.312-20.35 1.3-3.911-.005-7.878-.43-11.64-1.3v-14.65c-.151-10.304 10.082-18.166 19.99-15.49 6.991 1.815 11.996 8.092 12 15.49z" fill="#eab39b"/></g><g id="Face_9_"><path d="m442.368 195.962v36.04c.107 29.136-23.962 52.783-52.66 52.65h-8.7c-29.08 0-52.65-23.57-52.65-52.65v-36.04c0-29.09 23.57-52.66 52.65-52.66h8.7c28.699-.128 52.767 23.512 52.66 52.66z" fill="#f9d6bf"/><path d="m442.368 195.962v36.04c0 27.68-21.36 50.37-48.51 52.49-27.14-2.12-48.5-24.81-48.5-52.49v-36.04c0-27.69 21.36-50.38 48.5-52.5 27.15 2.12 48.51 24.81 48.51 52.5z" fill="#ffe9d7"/></g><g id="Mouth1_4_"><path d="m385.362 259.359c-6.599 0-12.565-2.023-15.572-5.279-1.745-1.961 1.119-4.616 2.94-2.714 4.587 5.257 20.681 5.256 25.265 0 1.807-1.899 4.694.75 2.939 2.714-3.007 3.256-8.974 5.279-15.572 5.279z" fill="#eab39b"/></g><g id="Nose1_6_"><path d="m394.133 241.288h-17.541c-2.624-.043-2.633-3.955 0-4h17.541c2.624.044 2.633 3.955 0 4z" fill="#f3c3aa"/></g><g id="Eyes_10_"><path d="m371.261 221.563c0-4.323-3.504-7.827-7.827-7.827-10.371.384-10.368 15.272 0 15.654 4.322.001 7.827-3.504 7.827-7.827z" fill="#eab39b"/><path d="m415.118 221.563c0-4.323-3.504-7.827-7.827-7.827-10.371.384-10.368 15.272 0 15.654 4.322.001 7.827-3.504 7.827-7.827z" fill="#eab39b"/><path d="m370.726 224.485c0-4.028-3.265-7.293-7.293-7.293-9.654.333-9.651 14.253 0 14.585 4.028.001 7.293-3.264 7.293-7.292z" fill="#122894"/><path d="m368.535 224.636c3.376-3.551-1.702-8.628-5.253-5.252-3.376 3.551 1.703 8.628 5.253 5.252z" fill="#e8f3fc"/><path d="m414.583 224.485c0-4.028-3.265-7.293-7.293-7.293-9.654.333-9.651 14.253 0 14.585 4.028.001 7.293-3.264 7.293-7.292z" fill="#122894"/><path d="m412.392 224.636c3.376-3.551-1.702-8.628-5.253-5.252-3.375 3.551 1.703 8.628 5.253 5.252z" fill="#e8f3fc"/></g><g id="Hair_3_"><path d="m451.328 195.052v24.95c-1.719-.39-7.132-.182-8.96-.23.003-.008-.002-23.813 0-23.82-3.638.508-70.014-5.961-109.95-20.3-2.62 6.25-4.06 13.11-4.06 20.31v23.81c-2.154.06-7.426-.205-9.46.31v-25.03c-.037-28.618 19.82-52.898 46.63-59.42 7.465-2.045 16.909-1.778 24.64-1.75 5.243.012 10.477.669 15.54 2 26.416 6.767 45.838 31.503 45.62 59.17z" fill="#284cb2"/><path d="m451.328 195.052v24.95c-1.719-.39-7.132-.182-8.96-.23v-23.81c-2.359-.149-47.875-2.539-94.65-15.64 6.66-21.45 26.66-37.02 50.29-37.02h8.7c8.45 0 16.43 1.99 23.5 5.52 13.329 11.623 21.073 28.012 21.12 46.23z" fill="#406bcc"/></g></g><g><g><path d="m325.49 140.396v12.633 6.152c-1.501 21.109 27.417 35.826 63.948 36.213 36.542-.388 65.433-15.103 63.948-36.212v-6.153-12.633z" fill="#2d2667"/><g><path d="m396.298 189.561c-6.496-.007-8.077-7.411-1.08-8.694 18.457-2.773 33.045-9.969 39.024-19.25 1.397-2.17 4.808-3.055 7.62-1.975 2.812 1.078 3.957 3.711 2.56 5.881-7.498 11.789-26.262 21.281-48.124 24.038z" fill="#57409b"/></g></g><g><path d="m479.62 131.31c-27.178 9.417-60.864 21.076-88.04 30.49-1.36.48-2.92.48-4.28 0l-21.54-7.46c-5.671-1.966-17.12-5.933-22.8-7.9-11.331-3.914-42.084-14.567-53.78-18.62-4.12-1.43-4.12-5.94 0-7.37l98.12-33.98c1.36-.479 2.92-.479 4.28 0l76.84 26.61c3.98 5.91 7.72 11.99 11.2 18.23z" fill="#57409b"/><g><path d="m455.191 127.156c-.859 0-1.731-.137-2.566-.426l-60.902-21.095c-3.162-1.095-4.574-3.961-3.155-6.401s5.132-3.529 8.294-2.435l60.902 21.095c6.636 2.559 3.455 9.404-2.573 9.262z" fill="#6c53a2"/></g></g><g><g><path d="m299.216 137.415v26.047h-10.232v-27.155c0-1.968 2.629-3.281 4.956-2.476l3.2 1.108c1.263.439 2.076 1.408 2.076 2.476z" fill="#2d2667"/></g><path d="m310.153 169.431c-.031 8.408-7.225 15.016-16.052 15.035-21.301-.801-21.289-29.276 0-30.08 8.351-.17 16.158 6.637 16.052 15.045z" fill="#2d2667"/><path d="m306.436 206.911c-1.211.683-2.503 1.005-3.945 1.012h-16.78c-5.673 0-9.425-5.505-7.048-10.318l6.81-13.81c1.273-2.577 4.024-4.227 7.048-4.227h3.16c2.909-.007 5.765 1.599 7.048 4.227 0 0 6.81 13.81 6.81 13.81 1.763 3.567.148 7.518-3.103 9.306z" fill="#2d2667"/><g fill="#57409b"><path d="m306.436 206.911c-1.33-.735-2.422-1.842-3.092-3.205l-6.81-13.81c-1.762-3.578-.148-7.517 3.104-9.306 1.33.735 2.422 1.842 3.092 3.205l6.81 13.81c1.762 3.567.147 7.518-3.104 9.306z"/><path d="m310.153 169.431c0 1.938-.387 3.78-1.103 5.484-5.52 3.309-12.588-.404-14.711-6.996-1.739-5.409.398-10.871 4.809-12.777 6.407 1.975 11.002 7.683 11.005 14.289z"/></g></g></g></g></g></svg>