<svg id="Capa_1" enable-background="new 0 0 512 512" height="512" viewBox="0 0 512 512" width="512" xmlns="http://www.w3.org/2000/svg"><g><g><path d="m256 295.042c-141.387 0-244.066-127.5-223.149-164.597 43.904-77.866 127.385-130.445 223.149-130.445 95.902 0 179.486 52.731 223.339 130.782 20.799 37.019-81.952 164.26-223.339 164.26z" fill="#ff0f47"/><path d="m512 256c0 26.051-3.891 51.191-11.129 74.871-5.031 16.469-11.672 32.231-19.75 47.109-8.25 15.2-147.391 57.537-225.121 57.537s-216.871-42.337-225.109-57.537c-3.289-6.031-6.332-12.21-9.121-18.531-14-31.629-21.77-66.629-21.77-103.449 0-46.219 12.25-89.57 33.68-127 44.121 77.07 127.16 129 222.32 129s178.211-51.93 222.32-129c21.43 37.43 33.68 80.781 33.68 127zm0 0" fill="#ba1956"/><path d="m481.262 377.699c-7.16 13.223-15.434 25.742-24.723 37.43-8.437 10.633-17.719 20.57-27.719 29.723-28.074 25.707-61.899 45.238-99.322 56.437-23.281 6.967-123.994 6.925-147.39-.118-37.266-11.219-70.953-30.703-98.929-56.32-10-9.153-19.282-19.09-27.719-29.723-9.289-11.688-17.563-24.207-24.723-37.43h450.525zm0 0" fill="#742466"/></g><g><path d="m333.863 278.565h-77.863l-59.663 116.719 59.661 116.716h.002c25.824 0 50.749-3.839 74.252-10.951l-15.498-47.011 57.965 19.109v-155.727l-57.965 19.109z" fill="#2dceea"/><path d="m197.245 336.529-57.964-19.109v155.727l57.964-19.109-15.498 47.011c23.503 7.112 48.428 10.951 74.253 10.951v-233.435h-77.864z" fill="#5ab4fc"/><path d="m197.245 336.529-57.964-19.109v155.727l57.964-19.109-15.498 47.011c5.243 1.587 10.554 3.02 15.933 4.273v-226.757h-19.545z" fill="#9ee2ef"/><path d="m256 335.62-29.832 59.663 29.832 59.664c32.951 0 59.663-26.712 59.663-59.663 0-32.952-26.712-59.664-59.663-59.664z" fill="#cbeefe"/><path d="m196.336 395.284c0 32.951 26.712 59.663 59.663 59.663v-119.327c-32.951 0-59.663 26.712-59.663 59.664z" fill="#fff"/><path d="m362.171 152.002-28.125 42.188 28.125 42.187h52.735v-84.375z" fill="#ffb03b"/><path d="m149.828 152.002h-52.735v84.375h52.735l28.125-42.187z" fill="#ffc46c"/><path d="m256 152.002-28.125 42.188 28.125 42.187h106.171v-84.375z" fill="#4d34b0"/><path d="m149.828 152.002h106.172v84.375h-106.172z" fill="#6c3beb"/><path d="m149.828 152.002h53.086v84.375h-53.086z" fill="#8d6aeb"/><path d="m256 236.377-10.547 21.094 10.547 21.094c11.65 0 21.094-9.444 21.094-21.094-.001-11.65-9.445-21.094-21.094-21.094z" fill="#429dea"/><path d="m234.906 257.471c0 11.65 9.444 21.094 21.094 21.094v-42.188c-11.65 0-21.094 9.444-21.094 21.094z" fill="#2dceea"/></g><g fill="#fff"><path d="m274.109 46.693h-1.524c-6.754 0-12.226-5.477-12.226-12.227v-1.523h-8.715v1.523c0 6.75-5.477 12.227-12.227 12.227h-1.527v8.715h1.527c6.75 0 12.227 5.472 12.227 12.226v1.528h8.715v-1.528c0-6.754 5.472-12.226 12.226-12.226h1.524zm0 0"/><path d="m383.644 97.71h-1.524c-6.754 0-12.226-5.477-12.226-12.227v-1.523h-8.715v1.523c0 6.75-5.477 12.227-12.227 12.227h-1.527v8.715h1.527c6.75 0 12.227 5.472 12.227 12.226v1.528h8.715v-1.528c0-6.754 5.472-12.226 12.226-12.226h1.524zm0 0"/><path d="m164.574 97.71h-1.524c-6.754 0-12.226-5.477-12.226-12.227v-1.523h-8.715v1.523c0 6.75-5.477 12.227-12.227 12.227h-1.527v8.715h1.527c6.75 0 12.227 5.472 12.227 12.226v1.528h8.715v-1.528c0-6.754 5.472-12.226 12.226-12.226h1.524zm0 0"/></g></g></svg>