<svg id="Capa_1" enable-background="new 0 0 512 512" height="512" viewBox="0 0 512 512" width="512" xmlns="http://www.w3.org/2000/svg"><g><g><path d="m512 256c0 141.387-114.613 256-256 256s-256-114.613-256-256 114.613-256 256-256 256 114.613 256 256zm0 0" fill="#ffeb78"/><path d="m512 256c0 26.051-3.891 51.191-11.129 74.871-5.031 16.469-11.672 32.231-19.75 47.109-8.25 15.2-18 29.461-29.051 42.61-.582.691-1.16 1.379-1.75 2.058-46.941 54.704-116.59 89.352-194.32 89.352s-147.379-34.648-194.309-89.352c-.589-.687-1.179-1.378-1.75-2.07-11.062-13.137-20.812-27.398-29.05-42.598-3.289-6.031-6.332-12.21-9.121-18.531-14-31.629-21.77-66.629-21.77-103.449 0-46.219 12.25-89.57 33.68-127 44.121 77.07 127.16 129 222.32 129s178.211-51.93 222.32-129c21.43 37.43 33.68 80.781 33.68 127zm0 0" fill="#f2d332"/><path d="m481.262 377.699c-7.16 13.223-15.434 25.742-24.723 37.43-8.437 10.633-17.719 20.57-27.719 29.723-45.539 41.699-106.211 67.148-172.82 67.148s-127.281-25.449-172.82-67.148c-10-9.153-19.282-19.09-27.719-29.723-9.289-11.688-17.563-24.207-24.723-37.43zm0 0" fill="#e79d25"/></g><g><path d="m156.009 322.645-62.642 62.642v53.908l.001 13.477 143.504-103.073z" fill="#bfebff"/><path d="m156.009 322.645-62.642 62.642v53.908l.001 13.477 16.195-51.14 63.294-62.039z" fill="#d9f3ff"/><path d="m106.844 452.672 53.909.001 62.642-62.643-6.739-60.647-46.293 46.294z" fill="#a6cfe7"/><path d="m250.349 336.122-53.908-53.908-40.432 40.431 33.693 33.693z" fill="#dff5ff"/><path d="m200.442 313.169-4.001-30.955-40.432 40.431 16.848 16.848z" fill="#f2fbff"/><path d="m289.741 296.73-87.721-33.813-19.056 32.774 33.692 33.692z" fill="#bfebff"/><path d="m217.92 278.724-15.9-15.807-19.056 32.774 17.478 17.478z" fill="#e3f6ff"/><path d="m198.175 329.144h57.179v47.648h-57.179z" fill="#bfebff" transform="matrix(.707 -.707 .707 .707 -183.169 263.728)"/><path d="m216.656 329.383 33.693 33.693 32.773-19.056-13.597-67.506z" fill="#a6cfe7"/><path d="m242.571 303.469 40.551 40.551 129.725-170.775c8.601-11.316 7.502-27.436-2.557-37.495l-124.291 83.859z" fill="#bd4911"/><path d="m410.29 135.75c-10.059-10.059-26.178-11.159-37.493-2.559l-170.777 129.726 40.551 40.551z" fill="#ff8e87"/><path d="m410.29 135.75c-6.121-4.648-16.751-1.91-28.066 6.69l-164.304 136.284 24.651 24.744z" fill="#d85819"/><path d="m170.363 375.677-10.108 3.369-63.518 63.518-3.369 10.108h13.476l70.257-70.257z" fill="#8db3cf"/><path d="m170.362 375.677-76.995 76.995v-13.477l70.257-70.257z" fill="#a6cfe7"/></g><g fill="#fff"><path d="m330.237 79.702h-1.524c-6.754 0-12.226-5.477-12.226-12.227v-1.523h-8.715v1.523c0 6.75-5.477 12.227-12.227 12.227h-1.527v8.715h1.527c6.75 0 12.227 5.472 12.227 12.226v1.528h8.715v-1.528c0-6.754 5.472-12.226 12.226-12.226h1.524zm0 0"/><path d="m217.92 103.605h-1.524c-6.754 0-12.226-5.477-12.226-12.227v-1.523h-8.715v1.523c0 6.75-5.477 12.227-12.227 12.227h-1.527v8.715h1.527c6.75 0 12.227 5.472 12.227 12.226v1.528h8.715v-1.528c0-6.754 5.472-12.226 12.226-12.226h1.524zm0 0"/><path d="m135.845 174.435h-1.524c-6.754 0-12.226-5.477-12.226-12.227v-1.523h-8.715v1.523c0 6.75-5.477 12.227-12.227 12.227h-1.527v8.715h1.527c6.75 0 12.227 5.472 12.227 12.226v1.528h8.715v-1.528c0-6.754 5.472-12.226 12.226-12.226h1.524zm0 0"/><path d="m102.135 295.342h-1.524c-6.754 0-12.226-5.477-12.226-12.227v-1.523h-8.715v1.523c0 6.75-5.477 12.227-12.227 12.227h-1.527v8.715h1.527c6.75 0 12.227 5.472 12.227 12.226v1.528h8.715v-1.528c0-6.754 5.472-12.226 12.226-12.226h1.524zm0 0"/></g></g></svg>