<svg id="Capa_1" enable-background="new 0 0 512 512" height="512" viewBox="0 0 512 512" width="512" xmlns="http://www.w3.org/2000/svg"><g><g><g><g><g><g><g><circle cx="256" cy="256" fill="#1dd882" r="256"/></g></g></g></g></g></g><path d="m512 256c0-20.741-2.467-40.905-7.122-60.216l-112.697-112.698-310.009 328.398 84.499 84.499c27.811 10.356 57.909 16.017 89.329 16.017 141.385 0 256-114.615 256-256z" fill="#2cc47f"/><g><path d="m119.819 83.087h272.361v251.511h-272.361z" fill="#fff"/></g><g><path d="m256.121 83.086h136.06v251.511h-136.06z" fill="#e9edf5"/></g><g><path d="m429.828 411.484h-347.656v-251.511h99.655l43.005 50.824h204.996z" fill="#ffce00"/></g><g><path d="m256.121 210.797h173.708v200.687h-173.708z" fill="#fdba12"/></g><g><path d="m180.266 346.888v-42.357l-16.494 42.357h-7.417l-16.396-42.357v42.357h-16.787v-65.096h23.325l13.566 35.33 13.663-35.33h23.325v65.096z" fill="#555a66"/><path d="m252.975 346.888-3.221-9.369h-25.668l-3.221 9.369h-19.03l24.496-65.096h21.081l24.594 65.096zm-16.104-48.505-8.295 24.497h16.591z" fill="#555a66"/><g fill="#333940"><path d="m256.121 346.888h15.885l-15.885-42.046z"/><path d="m285.279 346.888v-50.457h-18.25v-14.64h53.19v14.64h-18.153v50.457z"/><path d="m372.041 346.888v-26.155h-27.033v26.155h-16.787v-65.096h16.787v24.301h27.033v-24.301h16.786v65.096z"/></g></g></g></svg>