<?xml version="1.0" encoding="iso-8859-1"?>
<!-- Generator: Adobe Illustrator 19.0.0, SVG Export Plug-In . SVG Version: 6.00 Build 0)  -->
<svg version="1.1" id="Capa_1" xmlns="http://www.w3.org/2000/svg" xmlns:xlink="http://www.w3.org/1999/xlink" x="0px" y="0px"
	 viewBox="0 0 512 512" style="enable-background:new 0 0 512 512;" xml:space="preserve">
<path style="fill:#FFC143;" d="M512,256c0,141.385-114.615,256-256,256S0,397.385,0,256S114.615,0,256,0S512,114.615,512,256z"/>
<path style="fill:#235967;" d="M351.5,0C440.142,0,512,71.858,512,160.5S440.142,321,351.5,321S191,249.142,191,160.5
	S262.858,0,351.5,0z"/>
<path style="fill:#174550;" d="M366,320.341c-4.777,0.428-9.611,0.659-14.5,0.659c-37.112,0-71.278-12.602-98.464-33.752
	L143.977,396.307l-28.284-28.284l109.059-109.059C203.602,231.778,191,197.612,191,160.5C191,71.858,262.858,0,351.5,0
	c4.889,0,9.723,0.231,14.5,0.659C284.154,7.99,220,76.747,220,160.5S284.154,313.01,366,320.341z"/>
<path style="fill:#00D3B4;" d="M256.855,65.855c52.271-52.271,137.02-52.271,189.291,0s52.271,137.019,0,189.291
	s-137.019,52.271-189.291,0S204.584,118.126,256.855,65.855z"/>
<path style="fill:#5EE2C5;" d="M415.786,266.3c-9.534,9.534-20.046,17.484-31.198,23.906
	c-44.244,11.242-93.112-0.439-127.734-35.061c-52.271-52.271-52.271-137.019,0-189.291c34.622-34.622,83.49-46.303,127.734-35.061
	c11.152,6.422,21.664,14.372,31.198,23.906C474.218,113.131,474.218,207.868,415.786,266.3z"/>
<path style="fill:#FFF5F5;" d="M428,165.5c0,20.776-8.188,40.214-23.053,54.733C390.532,234.311,371.62,242,351.517,242
	c-0.622,0-1.244-0.007-1.868-0.022c-19.849-0.469-38.524-8.597-52.588-22.886c-14.062-14.287-21.896-33.091-22.059-52.948
	c-0.199-24.145,11.214-47.241,30.529-61.781c3.339-2.514,7.73-2.92,11.463-1.058c3.704,1.848,6.005,5.571,6.005,9.717
	c0,3.402-1.604,6.635-4.292,8.649c-13.955,10.455-21.958,26.43-21.958,43.829c0,29.647,24.106,54.204,53.738,54.741
	c14.707,0.267,28.627-5.315,39.244-15.714c10.611-10.392,16.478-24.197,16.518-38.873c0.048-17.45-7.947-33.476-21.937-43.966
	c-2.701-2.026-4.313-5.266-4.313-8.665v-0.004c0-4.143,2.297-7.862,5.995-9.706c3.742-1.864,8.149-1.454,11.504,1.075
	C416.883,118.994,428,141.268,428,165.5z M351.5,162c6.341,0,11.5-5.159,11.5-11.5v-60c0-6.341-5.159-11.5-11.5-11.5
	S340,84.159,340,90.5v60C340,156.841,345.159,162,351.5,162z"/>
<path style="fill:#D93131;" d="M204.934,319.105c9.499,9.499,9.499,24.899,0,34.398L99.698,458.74
	c-17.394-13.429-33.009-29.044-46.438-46.438l105.236-105.236c9.499-9.499,24.9-9.499,34.398,0L204.934,319.105z"/>
<path style="fill:#EA4444;" d="M209.224,324.906c4.88,9.193,3.453,20.855-4.29,28.598L99.698,458.74
	c-9.104-7.029-17.722-14.654-25.794-22.823l106.722-106.722C188.368,321.452,200.031,320.025,209.224,324.906z"/>
<g>
</g>
<g>
</g>
<g>
</g>
<g>
</g>
<g>
</g>
<g>
</g>
<g>
</g>
<g>
</g>
<g>
</g>
<g>
</g>
<g>
</g>
<g>
</g>
<g>
</g>
<g>
</g>
<g>
</g>
</svg>
