<svg id="Layer_1" enable-background="new 0 0 512 512" height="512" viewBox="0 0 512 512" width="512" xmlns="http://www.w3.org/2000/svg"><g><path d="m95.948 452.495h320.105c52.023-44.927 84.949-111.366 84.949-185.497 0-135.311-109.691-245.003-245.002-245.003s-245.002 109.692-245.002 245.003c0 74.131 32.927 140.57 84.95 185.497z" fill="#73c3f9"/><path d="m368.808 0h-225.616c-26.679 0-48.385 21.705-48.385 48.385v403.109c12.372 10.818 25.846 20.405 40.223 28.586h241.94c14.377-8.181 27.852-17.768 40.223-28.586v-403.109c0-26.68-21.705-48.385-48.385-48.385z" fill="#167cc1"/><path d="m206.102 480.081c-.426-3.062-.365-4.96-.365-4.96v-51.768c0-1.165-.602-2.248-1.586-2.872-16.6-10.523-9.923-25.41-8.099-28.805.267-.496.405-1.045.405-1.609v-17.001c0-.422-.086-.843-.239-1.236-6.141-15.791 4.501-26.283 8.271-29.376.791-.649 1.248-1.61 1.248-2.633v-67.187c0-1.118-.551-2.169-1.476-2.798-15.053-10.232-9.83-26.001-8.562-29.213.16-.404.244-.831.244-1.266v-17.206c0-.464-.105-.926-.288-1.353-6.411-14.899 3.303-24.666 8.034-28.327 1.263-.978 1.689-2.688 1.022-4.14-5.322-11.577 2.104-18.44 5.379-20.77.897-.638 1.415-1.684 1.415-2.785v-13.896c0-.617-.181-1.218-.491-1.752-6.356-10.965-.056-20.74 2.165-23.633.459-.598.71-1.325.71-2.079v-59.125c0-.654-.202-1.285-.543-1.843-4.369-7.156-.997-11.772 1.819-14.092 1.289-1.062 1.557-2.958.657-4.364-2.746-4.294-.529-7.187.991-8.504.729-.632 1.126-1.563 1.126-2.528v-13.433c0-.971-.429-1.884-1.144-2.542-6.175-5.68-3.149-11.727-.774-14.847.482-.633.692-1.39.663-2.138h-73.493c-26.679 0-48.385 21.705-48.385 48.385v403.109c12.372 10.818 25.846 20.405 40.223 28.586h71.073z" fill="#024788"/><path d="m124.91 474.004c37.909 24.056 82.869 37.996 131.09 37.996s93.182-13.94 131.09-37.996v-352.338h-262.18z" fill="#e9efff"/><path d="m213.889 123.415v-1.749h-88.979v352.337c28.855 18.312 61.8 30.753 97.156 35.655-16.963-14.972-16.329-34.538-16.329-34.538v-51.768c0-1.165-.602-2.248-1.586-2.872-16.6-10.523-9.923-25.41-8.099-28.805.267-.496.405-1.045.405-1.609v-17.001c0-.422-.086-.843-.239-1.236-6.141-15.791 4.501-26.283 8.271-29.376.791-.649 1.248-1.61 1.248-2.633v-67.187c0-1.118-.551-2.169-1.476-2.798-15.053-10.232-9.83-26.001-8.562-29.213.16-.404.244-.831.244-1.266v-17.206c0-.464-.105-.926-.288-1.353-6.411-14.899 3.303-24.666 8.034-28.327 1.263-.978 1.689-2.688 1.022-4.14-5.322-11.577 2.104-18.44 5.379-20.77.897-.638 1.415-1.684 1.415-2.785v-13.895c0-.617-.181-1.218-.491-1.752-6.356-10.965-.056-20.74 2.165-23.633.46-.599.71-1.325.71-2.08z" fill="#d3dcfb"/><g><path d="m220.356 34.673h-4.831c-4.618 0-8.362-3.743-8.362-8.362s3.744-8.362 8.362-8.362h4.831c4.618 0 8.362 3.743 8.362 8.362s-3.744 8.362-8.362 8.362z" fill="#1e92d3"/></g><g><path d="m295.319 34.673h-46.424c-4.618 0-8.362-3.743-8.362-8.362s3.744-8.362 8.362-8.362h46.424c4.618 0 8.362 3.743 8.362 8.362s-3.743 8.362-8.362 8.362z" fill="#1e92d3"/></g><path d="m368.808 30.103h-33.909c-6.321 0-11.445 5.124-11.445 11.446 0 7.358-6.021 13.379-13.379 13.379h-108.149c-7.359 0-13.379-6.021-13.379-13.379 0-6.321-5.124-11.446-11.445-11.446h-33.91c-10.097 0-18.281 8.185-18.281 18.282v76.245h262.18v-76.245c-.001-10.097-8.186-18.282-18.283-18.282z" fill="#9bd8f9"/><path d="m213.889 64.291c0-.654-.202-1.285-.543-1.843-1.788-2.929-2.267-5.426-2.03-7.521h-9.391c-7.358 0-13.379-6.021-13.379-13.379 0-6.321-5.124-11.445-11.445-11.445h-33.91c-10.097 0-18.281 8.185-18.281 18.282v76.245h88.746c.148-.386.233-.794.233-1.214z" fill="#73c3f9"/><path d="m364.704 305.822c0-8.093-6.56-14.653-14.653-14.653h-34.65c-8.093 0-14.653 6.56-14.653 14.653s6.56 14.653 14.653 14.653h34.65c8.093 0 14.653-6.56 14.653-14.653z" fill="#49d88b"/><g><path d="m163.925 61.399h-11.521c-4.618 0-8.362-3.743-8.362-8.362s3.744-8.362 8.362-8.362h11.521c4.618 0 8.362 3.743 8.362 8.362s-3.744 8.362-8.362 8.362z" fill="#e9efff"/></g><g><path d="m359.595 61.399h-11.52c-4.618 0-8.362-3.743-8.362-8.362s3.744-8.362 8.362-8.362h11.52c4.618 0 8.362 3.743 8.362 8.362s-3.743 8.362-8.362 8.362z" fill="#e9efff"/></g><path d="m353.609 190.851h-128.57v79.93h128.571c6.102 0 11.094-4.992 11.094-11.094v-57.741c0-6.102-4.993-11.095-11.095-11.095z" fill="#9bd8f9"/><path d="m226.154 190.851h-67.763c-6.102 0-11.094 4.993-11.094 11.095v57.741c0 6.102 4.992 11.094 11.094 11.094h67.763z" fill="#ff4155"/><path d="m204.262 269.836c-15.053-10.232-9.83-26.001-8.562-29.213.16-.404.244-.831.244-1.266v-17.206c0-.464-.105-.926-.288-1.353-6.411-14.899 3.303-24.666 8.034-28.327.551-.427.933-.997 1.144-1.621h-46.443c-6.102 0-11.094 4.992-11.094 11.094v57.741c0 6.102 4.992 11.094 11.094 11.094h46.768c-.239-.361-.528-.692-.897-.943z" fill="#e80054"/><path d="m203.576 226.328-21.274-13.601c-3.546-2.267-8.197.28-8.197 4.488v27.202c0 4.209 4.651 6.756 8.197 4.488l21.274-13.601c3.277-2.094 3.277-6.881 0-8.976z" fill="#e9efff"/><g><path d="m294.871 223.755h-38.871c-4.618 0-8.362-3.743-8.362-8.362s3.744-8.362 8.362-8.362h38.871c4.618 0 8.362 3.743 8.362 8.362s-3.743 8.362-8.362 8.362z" fill="#e9efff"/></g><g><path d="m336.531 254.601h-80.531c-4.618 0-8.362-3.743-8.362-8.362s3.744-8.362 8.362-8.362h80.531c4.618 0 8.362 3.743 8.362 8.362s-3.743 8.362-8.362 8.362z" fill="#e9efff"/></g><path d="m364.704 456.473c0-8.093-6.56-14.653-14.653-14.653h-34.65c-8.093 0-14.653 6.56-14.653 14.653s6.56 14.653 14.653 14.653h34.65c8.093 0 14.653-6.56 14.653-14.653z" fill="#49d88b"/><path d="m332.726 305.822c0-8.093 6.561-14.653 14.653-14.653h-31.978c-8.093 0-14.653 6.56-14.653 14.653s6.56 14.653 14.653 14.653h31.978c-8.093 0-14.653-6.56-14.653-14.653z" fill="#38c674"/><path d="m332.726 456.473c0-8.093 6.561-14.653 14.653-14.653h-31.978c-8.093 0-14.653 6.56-14.653 14.653s6.56 14.653 14.653 14.653h31.978c-8.093 0-14.653-6.56-14.653-14.653z" fill="#38c674"/><path d="m353.609 341.503h-128.57v79.93h128.571c6.102 0 11.094-4.992 11.094-11.095v-57.74c0-6.103-4.993-11.095-11.095-11.095z" fill="#9bd8f9"/><path d="m226.154 341.503h-67.763c-6.102 0-11.094 4.993-11.094 11.095v57.74c0 6.102 4.992 11.095 11.094 11.095h67.763z" fill="#ff4155"/><path d="m204.151 420.482c-16.6-10.523-9.923-25.41-8.099-28.805.267-.496.405-1.045.405-1.609v-17.001c0-.422-.086-.843-.239-1.236-6.141-15.791 4.501-26.283 8.271-29.376.325-.267.578-.596.782-.952h-46.88c-6.102 0-11.094 4.993-11.094 11.095v57.741c0 6.102 4.992 11.095 11.094 11.095h46.717c-.257-.37-.566-.705-.957-.952z" fill="#e80054"/><path d="m203.576 376.979-21.274-13.601c-3.546-2.267-8.197.28-8.197 4.489v27.202c0 4.209 4.651 6.756 8.197 4.489l21.274-13.601c3.277-2.096 3.277-6.883 0-8.978z" fill="#e9efff"/><g><path d="m294.871 374.406h-38.871c-4.618 0-8.362-3.743-8.362-8.362s3.744-8.362 8.362-8.362h38.871c4.618 0 8.362 3.743 8.362 8.362s-3.743 8.362-8.362 8.362z" fill="#e9efff"/></g><g><path d="m336.531 405.253h-80.531c-4.618 0-8.362-3.743-8.362-8.362s3.744-8.362 8.362-8.362h80.531c4.618 0 8.362 3.743 8.362 8.362s-3.743 8.362-8.362 8.362z" fill="#e9efff"/></g><g><path d="m300.494 166.661h-88.989c-4.618 0-8.362-3.743-8.362-8.362s3.744-8.362 8.362-8.362h88.989c4.618 0 8.362 3.743 8.362 8.362 0 4.618-3.744 8.362-8.362 8.362z" fill="#3c58a0"/></g><path d="m314.559 79.543h-101.785v29.307h101.784c8.093 0 14.653-6.56 14.653-14.653.001-8.094-6.56-14.654-14.652-14.654z" fill="#e9efff"/><path d="m213.889 79.543h-16.448c-8.093 0-14.653 6.56-14.653 14.653s6.56 14.653 14.653 14.653h16.448z" fill="#3c58a0"/><path d="m395.452 468.446v-420.062c0-14.691-11.952-26.643-26.644-26.643h-33.909c-10.922 0-19.807 8.886-19.807 19.807 0 2.72-2.297 5.017-5.017 5.017h-108.149c-2.72 0-5.017-2.297-5.017-5.017 0-10.922-8.885-19.807-19.807-19.807h-33.91c-14.691 0-26.643 11.952-26.643 26.643v420.062c5.422 3.76 10.997 7.313 16.724 10.635v-430.697c0-5.469 4.45-9.919 9.919-9.919h33.91c1.7 0 3.083 1.383 3.083 3.083 0 11.988 9.753 21.741 21.741 21.741h108.148c11.988 0 21.741-9.754 21.741-21.741 0-1.701 1.383-3.083 3.084-3.083h33.909c5.47 0 9.92 4.45 9.92 9.919v430.697c5.727-3.322 11.302-6.875 16.724-10.635z" fill="#1e92d3"/><path d="m201.926 46.566c-2.72 0-5.018-2.298-5.018-5.017 0-10.922-8.885-19.807-19.807-19.807h-33.91c-14.691 0-26.644 11.952-26.644 26.643v420.062c5.422 3.76 10.997 7.313 16.724 10.635v-430.698c0-5.469 4.45-9.919 9.919-9.919h33.91c1.7 0 3.083 1.383 3.083 3.083 0 11.988 9.753 21.741 21.741 21.741h11.804c-.093-.293-.221-.576-.383-.842-4.369-7.156-.997-11.772 1.819-14.092.571-.47.929-1.107 1.086-1.79h-14.324z" fill="#167cc1"/></g></svg>