<svg id="Capa_1" enable-background="new 0 0 512 512" height="512" viewBox="0 0 512 512" width="512" xmlns="http://www.w3.org/2000/svg"><circle cx="256" cy="256" fill="#65b2fe" r="256"/><path d="m512 256c0 87.11-43.52 164.07-110 210.31-41.41 28.8-91.73 45.69-146 45.69s-104.59-16.89-146-45.69c-66.48-46.24-110-123.2-110-210.31 0-46.22 12.25-89.57 33.68-127 44.12 77.07 127.16 129 222.32 129s178.21-51.93 222.32-129c21.43 37.43 33.68 80.78 33.68 127z" fill="#0e9ce7"/><path d="m452 316c0 105.34-83.12 191.28-187.34 195.81-.31.02-.62.03-.93.04-.87.03-1.74.06-2.6.08-1.73.05-3.44.07-5.13.07-108.24 0-196-87.76-196-196s87.76-196 196-196h.28c108.11.15 195.72 87.85 195.72 196z" fill="#ffe853"/><path d="m452 316c0 105.34-83.12 191.28-187.34 195.81-.31.02-.62.03-.93.04-.87.03-1.74.06-2.6.08-1.73.05-3.44.07-5.13.07-58.54-45.3-103.35-116.25-103.35-196s44.81-150.7 103.35-196h.28c108.11.15 195.72 87.85 195.72 196z" fill="#fed110"/><path d="m452 316c0 108.244-87.756 196-196 196v-392c108.244 0 196 87.756 196 196z" fill="#ff9f01"/><path d="m325.171 307.805c0 4.14-1.68 7.89-4.396 10.605-2.709 2.709-6.459 4.389-10.599 4.389h-115.272c-8.28 0-14.995-6.715-14.995-14.995 0-4.14 1.68-7.89 4.396-10.605 2.709-2.709 6.46-4.389 10.599-4.389h115.272c8.28 0 14.995 6.715 14.995 14.995z" fill="#ff9f01"/><path d="m325.171 307.805c0 4.14-1.68 7.89-4.396 10.605-2.709 2.709-6.459 4.389-10.599 4.389h-55.529v-29.99h55.529c8.28.001 14.995 6.716 14.995 14.996z" fill="#ed771b"/><circle cx="187.667" cy="266.264" fill="#fff" r="46.095"/><circle cx="187.667" cy="246.264" fill="#29334c" r="25.616"/><circle cx="324.333" cy="266.264" fill="#fff" r="46.095"/><circle cx="324.333" cy="245.597" fill="#29334c" r="25.616"/><path d="m132.193 200.637c25.388 6.122 55.289-5.225 71.063-28.442.012-.018.025-.036.037-.055 1.18-1.74 3.944-1.375 3.977.54.137 7.936-2.473 16.324-8.098 23.994-12.984 17.704-37.953 25.091-56.728 16.796-5.295-2.339-9.601-5.665-12.844-9.644-1.166-1.431.644-3.659 2.593-3.189z" fill="#ed771b"/><path d="m379.807 200.637c-25.388 6.122-55.289-5.225-71.063-28.442-.013-.018-.025-.036-.037-.055-1.18-1.74-3.944-1.375-3.977.54-.137 7.936 2.473 16.324 8.098 23.994 12.984 17.704 37.953 25.091 56.728 16.796 5.294-2.339 9.601-5.665 12.844-9.644 1.166-1.431-.644-3.659-2.593-3.189z" fill="#c55835"/><path d="m341.71 428.5c-7.88 5.05-16.87 7.56-25.86 7.55l-59.85-51.55-59.85 51.55c-8.99.01-17.98-2.5-25.86-7.55-14.76-9.45-22.14-24.97-22.14-40.48 0-15.58 7.45-31.16 22.35-40.56.72-.45 1.44-.9 2.17-1.34h166.66c.73.44 1.45.89 2.17 1.34 29.73 18.76 29.81 62.09.21 81.04z" fill="#29334c"/><path d="m341.71 428.5c-7.88 5.05-16.87 7.56-25.86 7.55l-59.85-51.55v-38.38h83.33c.73.44 1.45.89 2.17 1.34 29.73 18.76 29.81 62.09.21 81.04z" fill="#29334c"/><path d="m339.33 346.12c-2.5 16.05-16.33 27.88-32.57 27.88h-101.52c-16.24 0-30.07-11.83-32.57-27.88 1.67-1.02 3.36-2.01 5.07-2.97 3.05-1.7 6.15-3.31 9.3-4.8 21.45-10.2 45.08-15.55 68.96-15.55s47.51 5.35 68.96 15.55c3.15 1.49 6.25 3.1 9.3 4.8 1.71.96 3.4 1.95 5.07 2.97z" fill="#fff"/><path d="m315.85 436.05c-8.91 0-17.84-2.47-25.7-7.4-10.07-6.31-21.83-9.77-34.15-9.77s-24.08 3.46-34.15 9.77c-7.86 4.93-16.79 7.4-25.7 7.4 4.33-29.17 29.47-51.55 59.85-51.55s55.52 22.38 59.85 51.55z" fill="#ff1d56"/><path d="m315.85 436.05c-8.91 0-17.84-2.47-25.7-7.4-10.07-6.31-21.83-9.77-34.15-9.77v-34.38c30.38 0 55.52 22.38 59.85 51.55z" fill="#dd1265"/><path d="m339.33 346.12c-2.5 16.05-16.33 27.88-32.57 27.88h-50.76v-51.2c23.88 0 47.51 5.35 68.96 15.55 3.15 1.49 6.25 3.1 9.3 4.8 1.71.96 3.4 1.95 5.07 2.97z" fill="#d1f6ff"/><g fill="#fff"><path d="m441.912 303.779c-2.549-4.165-8.016-14.556-11.161-20.599-.99-1.902-3.71-1.894-4.688.014-3.109 6.062-8.514 16.485-11.039 20.665-3.837 6.354-2.773 14.833 3.177 20.006 5.873 5.105 14.812 5.079 20.654-.061 5.918-5.209 6.932-13.694 3.057-20.025z"/><path d="m415.912 250.446c-2.549-4.165-8.016-14.556-11.161-20.599-.99-1.902-3.71-1.894-4.688.014-3.109 6.062-8.514 16.485-11.039 20.665-3.837 6.354-2.773 14.833 3.177 20.006 5.873 5.105 14.812 5.079 20.654-.062 5.918-5.208 6.932-13.693 3.057-20.024z"/><path d="m97.912 304.446c-2.549-4.165-8.016-14.556-11.161-20.599-.99-1.902-3.71-1.894-4.688.014-3.109 6.061-8.514 16.485-11.039 20.665-3.837 6.354-2.773 14.833 3.177 20.006 5.872 5.105 14.812 5.079 20.654-.062 5.918-5.208 6.932-13.693 3.057-20.024z"/><path d="m127.245 258.446c-2.549-4.165-8.016-14.556-11.161-20.599-.99-1.902-3.71-1.894-4.688.014-3.109 6.062-8.514 16.485-11.039 20.665-3.837 6.354-2.773 14.833 3.177 20.006 5.872 5.105 14.812 5.079 20.654-.062 5.918-5.208 6.932-13.693 3.057-20.024z"/></g></svg>