<svg id="Icons" enable-background="new 0 0 512 512" height="512" viewBox="0 0 512 512" width="512" xmlns="http://www.w3.org/2000/svg"><g><path d="m512 256c0 141.38-114.62 256-256 256s-256-114.62-256-256c0-89.26 45.69-167.85 114.95-213.67 7.22-4.77 14.7-9.19 22.41-13.23 35.46-18.59 75.82-29.1 118.64-29.1s83.18 10.52 118.65 29.1v.01c7.71 4.03 15.18 8.45 22.4 13.22 69.26 45.82 114.95 124.41 114.95 213.67z" fill="#f39e22"/><g id="Speech-bubble_7_"><path d="m397.05 42.33v75.4c0 12.34-4.18 23.69-11.2 32.74-9.78 12.58-25.04 20.67-42.21 20.67h-175.28c-17.16 0-32.43-8.09-42.19-20.67-7.03-9.05-11.22-20.4-11.22-32.74v-75.4c73.897-50.742 181.001-56.169 259.7-13.22 7.71 4.03 15.18 8.45 22.4 13.22z" fill="#ebd9ea"/><path d="m397.05 42.33v75.4c0 12.34-4.18 23.69-11.2 32.74-7.03-9.05-11.21-20.4-11.21-32.74v-87.48c0-.38 0-.76.01-1.14 7.71 4.03 15.18 8.45 22.4 13.22z" fill="#fff"/><path d="m137.37 30.25v87.48c0 12.34-4.18 23.69-11.2 32.74-7.03-9.05-11.22-20.4-11.22-32.74v-75.4c7.22-4.77 14.7-9.19 22.41-13.23.01.38.01.76.01 1.15z" fill="#c1b7d3"/><path d="m255.995 217.685c-9.874 0-17.878-8.004-17.878-17.878v-57.341c0-9.874 8.004-17.878 17.878-17.878s17.878 8.004 17.878 17.878v57.341c0 9.874-8.004 17.878-17.878 17.878z" fill="#ebd9ea"/></g><g id="Magnifying-glass_4_"><g><path d="m301.286 79.21h10.846v20.558h-10.846z" fill="#c1b7d3" transform="matrix(.888 -.46 .46 .888 -6.793 151.095)"/><path d="m306.796 77.868 9.455 18.254c-1.994 1.033-4.449.255-5.483-1.741l-5.713-11.03c-1.033-1.994-.253-4.451 1.741-5.483z" fill="#decee5"/><path d="m306.621 101.111-7.633-14.736c1.609-.834 3.591-.206 4.426 1.406l4.612 8.904c.834 1.609.204 3.592-1.405 4.426z" fill="#9f90ae"/><path d="m306.796 77.868 6.39 12.337c-1.994 1.033-4.449.255-5.483-1.741l-2.648-5.113c-1.033-1.994-.253-4.451 1.741-5.483z" fill="#fff"/></g><g><path d="m324.041 100.09 18.344 35.415c5.932 12.606-11.768 21.813-18.673 9.672 0 0-18.344-35.415-18.344-35.415-1.402-2.706-1.512-5.738-.554-8.396 2.937-8.482 15.09-9.429 19.227-1.276z" fill="#6c53a2"/><path d="m311.346 106.666 18.344 35.415c1.4 2.703 1.515 5.736.56 8.393-2.722-.749-5.136-2.59-6.538-5.297l-18.344-35.415c-1.402-2.706-1.512-5.738-.554-8.396 2.738.765 5.126 2.593 6.532 5.3z" fill="#57409b"/><path d="m324.041 100.09 18.208 35.153c-4.892 1.788-10.469-.297-12.929-5.046l-18.207-35.15c4.93-1.796 10.484.321 12.928 5.043z" fill="#9175a7"/><path d="m317.886 94.906c2.566.815 4.818 2.605 6.154 5.184l9.478 18.298c-4.892 1.788-10.469-.297-12.929-5.046l-9.476-18.295c2.237-.818 4.616-.824 6.773-.141z" fill="#a583bb"/></g><g><path d="m299.133 23.951c-17.429-5.534-36.047 4.109-41.583 21.542-11.633 42.393 48.18 61.369 63.123 20.044 5.536-17.433-4.108-36.051-21.54-41.586zm-17.102 53.857c-12.31-3.909-19.122-17.059-15.212-29.373 10.566-29.201 52.803-15.776 44.585 14.158-3.909 12.313-17.06 19.125-29.373 15.215z" fill="#f39e22"/><path d="m297.579 28.844c-14.729-4.677-30.461 3.47-35.139 18.201-9.828 35.825 40.713 51.86 53.343 16.938 4.679-14.731-3.472-30.461-18.204-35.139zm-15.548 48.964c-12.31-3.909-19.122-17.059-15.212-29.373 10.566-29.201 52.803-15.776 44.585 14.158-3.909 12.313-17.06 19.125-29.373 15.215z" fill="#dd8c29"/><g><path d="m303.448 62.964c-1.454-.462-2.258-2.014-1.796-3.468 2.195-6.914-1.643-14.325-8.558-16.521-1.454-.462-2.258-2.014-1.796-3.468s2.014-2.258 3.468-1.796c9.817 3.117 15.268 13.64 12.15 23.457-.462 1.453-2.015 2.258-3.468 1.796z" fill="#fff"/></g><g><path d="m283.459 73.318c-9.817-3.117-15.268-13.64-12.151-23.457.462-1.454 2.014-2.258 3.468-1.796s2.258 2.014 1.796 3.468c-2.195 6.914 1.643 14.325 8.558 16.521 3.439 1.183 1.832 6.281-1.671 5.264z" fill="#c2aacf"/></g></g></g><g id="Book_3_"><path d="m283.921 458.023c0-15.422-12.502-19.847-27.924-19.847s-27.924 4.425-27.924 19.847c1.471 37.041 54.383 37.029 55.848 0z" fill="#e9465e"/><path d="m283.921 448.158c0-15.422-12.502-19.847-27.924-19.847s-27.924 4.425-27.924 19.847c1.471 37.041 54.383 37.029 55.848 0z" fill="#c0405c"/><path d="m410.11 254.297v182.34c0 6.76-3.14 12.8-8.05 16.71-3.66 2.93-8.29 4.68-13.34 4.68h-265.45c-11.684.034-21.387-9.503-21.38-21.39v-182.34c0-7.37 3.73-13.88 9.41-17.73 3.41-2.31 7.54-3.66 11.97-3.66h265.45c11.733-.009 21.391 9.528 21.39 21.39z" fill="#e9465e"/><path d="m120.7 254.297v182.34c0 7.37-3.73 13.88-9.4 17.73-5.68-3.85-9.41-10.36-9.41-17.73v-182.34c0-7.37 3.73-13.88 9.41-17.73 5.67 3.85 9.4 10.36 9.4 17.73z" fill="#c0405c"/><path d="m410.11 254.297v182.34c0 6.76-3.14 12.8-8.05 16.71-4.91-3.91-8.05-9.94-8.05-16.71v-182.34c0-6.77 3.14-12.8 8.05-16.71 4.91 3.91 8.05 9.95 8.05 16.71z" fill="#ee6781"/><path d="m363.245 444.061h-214.496c-9.965 0-18.044-8.078-18.044-18.044v-161.1c0-9.965 8.078-18.044 18.044-18.044h214.496c9.965 0 18.044 8.078 18.044 18.044v161.1c-.001 9.965-8.079 18.044-18.044 18.044z" fill="#c0405c"/><path d="m381.29 250.957v161.1c0 4.02-1.31 7.73-3.54 10.73-3.29 4.43-8.56 7.31-14.51 7.31h-214.49c-10.024-.003-18.069-8.159-18.05-18.04v-161.1c0-9.97 8.08-18.05 18.05-18.05h214.49c9.97 0 18.05 8.08 18.05 18.05z" fill="#ebd9ea"/><path d="m381.29 250.957v161.1c0 9.96-8.08 18.04-18.05 18.04h-107.24v-197.19h107.24c9.97 0 18.05 8.08 18.05 18.05z" fill="#fff"/><path d="m377.75 422.787c-3.29 4.43-8.56 7.31-14.51 7.31h-214.49c-5.95 0-11.22-2.88-14.51-7.31 3.28-4.44 8.56-7.32 14.51-7.32h214.49c5.95 0 11.23 2.88 14.51 7.32z" fill="#c1b7d3"/><g fill="#6c53a2"><path d="m256 284.187h-82.071c-4.04 0-7.315-3.275-7.315-7.315s3.275-7.315 7.315-7.315h82.071z"/><path d="m256 328.817h-82.071c-4.04 0-7.315-3.275-7.315-7.315s3.275-7.315 7.315-7.315h82.071z"/><path d="m256 373.447h-82.071c-4.04 0-7.315-3.275-7.315-7.315s3.275-7.315 7.315-7.315h82.071z"/></g><path d="m255.995 358.817h82.071c4.04 0 7.315 3.275 7.315 7.315s-3.275 7.315-7.315 7.315h-82.071z" fill="#9175a7"/><path d="m255.995 314.187h82.071c4.04 0 7.315 3.275 7.315 7.315s-3.275 7.315-7.315 7.315h-82.071z" fill="#9175a7"/><path d="m255.995 269.557h82.071c4.04 0 7.315 3.275 7.315 7.315s-3.275 7.315-7.315 7.315h-82.071z" fill="#9175a7"/></g><g id="Pitcher_7_"><g><path d="m260.36 136.087c-1.216 7.318-7.849 13.118-15.446 13.008h-63.063c-11.133.153-19.261-11.911-14.088-22.47 7.374-15.155 22.387-46.327 29.67-61.309 2.547-5.342 8.161-8.864 14.093-8.832 1.073.009 4.11-.044 5.124.063 4.441.383 8.646 2.771 11.25 6.389 1.081 1.158 7.531 15.169 8.436 16.862.101.1 13.31 27.565 13.394 27.668.045.106 9.217 19.044 9.271 19.158 1.516 3.128 1.887 6.405 1.359 9.463z" fill="#c1b7d3"/><path d="m198.535 29.42h29.694v44.869h-29.694z" fill="#c1b7d3"/><path d="m260.36 136.087h-59.649c-11.548 0-19.124-12.08-14.093-22.475l27.653-57.128c6.314-.317 12.311 3.105 15.055 8.832 0 0 29.675 61.309 29.675 61.309 1.516 3.127 1.887 6.404 1.359 9.462z" fill="#ebd9ea"/><path d="m230.04 75.91h-1.671c-2.7 0-5.162 1.544-6.339 3.974l-13.35 27.581c-2.264 4.676 1.143 10.11 6.339 10.11h28.371c5.195 0 8.602-5.434 6.339-10.11l-13.35-27.581c-1.177-2.43-3.639-3.974-6.339-3.974z" fill="#fff"/><path d="m210.041 38.815h18.188v28.472h-18.188z" fill="#ebd9ea"/><path d="m222.499 67.287c-3.164 0-5.729-2.565-5.729-5.729v-12.687c.232-7.57 11.225-7.575 11.459 0v12.687c0 3.164-2.565 5.729-5.73 5.729z" fill="#fff"/><path d="m251.719 147.557c-2.027.982-4.323 1.539-6.805 1.539h-63.063c-2.481 0-4.777-.557-6.805-1.534.689-2.955 3.336-5.153 6.502-5.153h63.669c3.138 0 5.798 2.158 6.502 5.148z" fill="#9f90ae"/></g><g><path d="m242.497 31.523c.005 4.047-3.285 7.368-7.371 7.366h-43.49c-2.308-.007-4.345-1.039-5.715-2.726v-.005c-3.908-4.57-.397-12.135 5.715-12.007h43.489c4.068-.007 7.378 3.322 7.372 7.372z" fill="#ebd9ea"/><path d="m240.85 36.163c-1.353 1.666-3.414 2.726-5.725 2.726h-43.49c-2.308-.007-4.345-1.039-5.715-2.726v-.005c1.348-1.666 3.405-2.726 5.715-2.726h43.49c2.307.007 4.353 1.042 5.725 2.731z" fill="#c1b7d3"/><path d="m240.733 26.74c-1.353 1.583-3.361 2.589-5.608 2.589h-43.49c-2.247-.005-4.232-.987-5.603-2.589 1.348-1.583 3.356-2.589 5.603-2.589h43.49c2.243.006 4.238.987 5.608 2.589z" fill="#fff"/></g><g><path d="m236.298 135.911c-1.778.241-45.364.503-46.675-.185-6.072-1.632-9.569-8.554-6.638-14.611 2.936-6.081 17.164-35.443 19.774-40.852 1.739-3.595 5.388-5.886 9.384-5.886 1.208.015 3.198-.081 4.362.176 3.229.591 6.038 2.692 7.503 5.71l2.379 4.919 12.315 25.44 5.075 10.493c3.067 6.331-.89 13.609-7.479 14.796z" fill="#d7156f"/><path d="m236.298 135.911s0 .005-.005 0c-3.229-.591-6.033-2.687-7.498-5.71l-19.774-40.847c-3.063-6.336.894-13.609 7.479-14.801 0 0 0-.005.005 0 3.229.591 6.038 2.692 7.503 5.71l19.769 40.852c3.067 6.331-.89 13.609-7.479 14.796z" fill="#df3d81"/><path d="m205.445 103.041-15.822 32.684c-6.072-1.632-9.569-8.553-6.638-14.61l15.822-32.684c6.072 1.631 9.569 8.548 6.638 14.61z" fill="#b82065"/><path d="m238.701 110.623c-2.068-.094-8.857.284-10.742-.361-6.072-1.632-9.569-8.553-6.638-14.611l5.066-10.468z" fill="#ed72ab"/></g></g></g></svg>