<svg id="Capa_1" enable-background="new 0 0 512 512" height="512" viewBox="0 0 512 512" width="512" xmlns="http://www.w3.org/2000/svg"><g><g><path d="m0 256c0 43.79 11 85.02 30.39 121.07l225.61 49.67 225.61-49.67c19.39-36.05 30.39-77.28 30.39-121.07 0-46.63-12.47-90.34-34.26-128-41.698 72.091-399.22 76.52-443.48 0-21.79 37.66-34.26 81.37-34.26 128z" fill="#9feafd"/><path d="m34.26 128c44.26 76.52 126.99 128 221.74 128s177.48-51.48 221.74-128c-.01-.02-.03-.05-.04-.07-44.27-76.48-126.98-127.93-221.7-127.93s-177.43 51.45-221.7 127.93c-.01.02-.03.05-.04.07z" fill="#c3f3ff"/><path d="m30.39 377.07c43.19 80.32 128.02 134.93 225.61 134.93s182.42-54.61 225.61-134.93z" fill="#70c5e8"/></g><g><g fill="#464651"><path d="m256 299.619-93.682-54.087v-108.175l93.682-54.087 93.682 54.087v108.174zm-68.682-68.521 68.682 39.653 68.682-39.654v-79.307l-68.682-39.653-68.682 39.654z"/><path d="m337.182 440.23-93.682-54.087v-108.175l93.682-54.087 93.683 54.087v108.174zm-68.682-68.521 68.682 39.654 68.683-39.654v-79.307l-68.683-39.654-68.682 39.654z"/><path d="m174.818 440.23-93.683-54.087v-108.175l93.683-54.087 93.682 54.087v108.174zm-68.682-68.521 68.683 39.654 68.682-39.654v-79.307l-68.682-39.654-68.683 39.654z"/></g><g><circle cx="418.364" cy="285.185" fill="#e28787" r="35.226"/><path d="m453.59 285.185c0 19.457-15.769 35.226-35.226 35.226v-70.452c19.457 0 35.226 15.769 35.226 35.226z" fill="#da504f"/></g><g><circle cx="418.364" cy="378.926" fill="#9865d8" r="35.226"/><path d="m453.59 378.926c0 19.457-15.769 35.226-35.226 35.226v-70.452c19.457 0 35.226 15.769 35.226 35.226z" fill="#5541b5"/></g><g><circle cx="337.182" cy="425.796" fill="#e28787" r="35.226"/><path d="m372.408 425.796c0 19.457-15.769 35.226-35.226 35.226v-70.452c19.457 0 35.226 15.769 35.226 35.226z" fill="#da504f"/></g><g><circle cx="256" cy="378.926" fill="#e28787" r="35.226"/><path d="m291.226 378.926c0 19.457-15.769 35.226-35.226 35.226v-70.452c19.457 0 35.226 15.769 35.226 35.226z" fill="#da504f"/></g><g><circle cx="256" cy="286" fill="#9865d8" r="35.226"/><path d="m291.226 286c0 19.457-15.769 35.226-35.226 35.226v-70.452c19.457 0 35.226 15.769 35.226 35.226z" fill="#5541b5"/></g><g><circle cx="337.182" cy="238.315" fill="#e28787" r="35.226"/><path d="m372.408 238.315c0 19.457-15.769 35.226-35.226 35.226v-70.452c19.457 0 35.226 15.769 35.226 35.226z" fill="#da504f"/></g><g><circle cx="337.182" cy="144.574" fill="#9865d8" r="35.226"/><path d="m372.408 144.574c0 19.457-15.769 35.226-35.226 35.226v-70.452c19.457 0 35.226 15.769 35.226 35.226z" fill="#5541b5"/></g><g><circle cx="174.818" cy="145.389" fill="#9865d8" r="35.226"/><path d="m210.044 145.389c0 19.457-15.769 35.226-35.226 35.226v-70.452c19.457 0 35.226 15.769 35.226 35.226z" fill="#5541b5"/></g><g><circle cx="256" cy="97.703" fill="#e28787" r="35.226"/><path d="m291.226 97.703c0 19.457-15.769 35.226-35.226 35.226v-70.452c19.457 0 35.226 15.769 35.226 35.226z" fill="#da504f"/></g><g><circle cx="174.818" cy="424.981" fill="#e28787" r="35.226"/><path d="m210.044 424.981c0 19.457-15.769 35.226-35.226 35.226v-70.452c19.457.001 35.226 15.77 35.226 35.226z" fill="#da504f"/></g><g><circle cx="93.636" cy="378.111" fill="#9865d8" r="35.226"/><path d="m128.862 378.111c0 19.457-15.769 35.226-35.226 35.226v-70.452c19.457 0 35.226 15.769 35.226 35.226z" fill="#5541b5"/></g><g><circle cx="93.636" cy="285.185" fill="#e28787" r="35.226"/><path d="m128.862 285.185c0 19.457-15.769 35.226-35.226 35.226v-70.452c19.457 0 35.226 15.769 35.226 35.226z" fill="#da504f"/></g><g><circle cx="174.818" cy="237.5" fill="#e28787" r="35.226"/><path d="m210.044 237.5c0 19.457-15.769 35.226-35.226 35.226v-70.452c19.457 0 35.226 15.769 35.226 35.226z" fill="#da504f"/></g></g></g></svg>