<svg id="Capa_1" enable-background="new 0 0 512 512" height="512" viewBox="0 0 512 512" width="512" xmlns="http://www.w3.org/2000/svg"><g><g><path d="m256 296.284c-141.387 0-243.753-129.857-222.328-167.285 44.12-77.07 127.158-128.999 222.328-128.999 96.252 0 180.096 53.118 223.818 131.639 20.502 36.82-82.431 164.645-223.818 164.645z" fill="#df7cb3"/><path d="m512 256c0 26.051-3.891 51.191-11.129 74.871-5.031 16.469-11.672 32.231-19.75 47.109-8.25 15.2-147.391 45.724-225.121 45.724s-216.871-30.524-225.109-45.724c-3.289-6.031-6.332-12.21-9.121-18.531-14-31.629-21.77-66.629-21.77-103.449 0-46.219 12.25-89.57 33.68-127 44.121 77.07 127.16 129 222.32 129s178.211-51.93 222.32-129c21.43 37.43 33.68 80.781 33.68 127zm0 0" fill="#d85e91"/><path d="m481.262 377.699c-7.16 13.223-15.434 25.742-24.723 37.43-8.437 10.633-17.719 20.57-27.719 29.723-32.773 30.01-73.384 51.603-118.405 61.351-17.537 3.797-61.432 5.726-64.914 5.586-62.474-2.521-119.187-27.439-162.321-66.937-10-9.153-19.282-19.09-27.719-29.723-9.289-11.688-17.563-24.207-24.723-37.43zm0 0" fill="#bb1961"/></g><g><path d="m310.359 479.844h32.156v-32.922h26.077l4.666-4.636c3.409.539 6.662.808 9.836.808 37.997 0 68.906-30.909 68.906-68.906 0-18.999-7.727-36.225-20.204-48.702s-29.704-20.204-48.702-20.204c-37.997 0-68.906 30.909-68.906 68.906 0 3.163.269 6.415.808 9.824l-69.714 69.714v58.035c3.556.146 7.126.24 10.719.24 18.655 0 36.838-2.014 54.359-5.803v-26.354zm61.25-117.141h22.969v22.969h-22.969z" fill="#eabd3e"/><path d="m310.359 479.844h32.156v-32.922h26.077l4.666-4.636c3.409.539 6.662.808 9.836.808 37.997 0 68.906-30.909 68.906-68.906 0-18.999-7.727-36.225-20.204-48.702l-37.218 37.218v22.969h-22.969l-126.097 126.096c3.48.14 6.973.231 10.488.231 18.655 0 36.838-2.014 54.359-5.803z" fill="#e38d22"/><path d="m175.609 305.281h-115.609v68.906c0 31.56 60.296 45.938 115.609 45.938s115.609-14.378 115.609-45.938v-68.906z" fill="#dce0ef"/><path d="m291.219 374.188v-68.906h-115.61v114.844c55.314-.001 115.61-14.379 115.61-45.938z" fill="#cad0e7"/><path d="m175.609 235.609h-115.609v69.672c0 31.56 60.296 45.938 115.609 45.938s115.609-14.378 115.609-45.938v-69.672z" fill="#fbf5eb"/><path d="m291.219 305.281v-69.672h-115.61v115.609c55.314.001 115.61-14.377 115.61-45.937z" fill="#dce0ef"/><path d="m175.609 165.938h-115.609v69.672c0 31.56 60.296 45.938 115.609 45.938s115.609-14.378 115.609-45.938v-69.672z" fill="#dce0ef"/><path d="m291.219 235.609v-69.672h-115.61v115.609c55.314.001 115.61-14.377 115.61-45.937z" fill="#cad0e7"/><ellipse cx="175.609" cy="165.938" fill="#fbf5eb" rx="115.609" ry="45.938"/><path d="m291.219 165.938c0-31.56-60.296-45.938-115.609-45.938v91.875c55.313 0 115.609-14.378 115.609-45.937z" fill="#dce0ef"/></g><g fill="#fff"><path d="m278.082 65.49h-1.524c-6.754 0-12.226-5.477-12.226-12.227v-1.523h-8.715v1.523c0 6.75-5.477 12.227-12.227 12.227h-1.527v8.715h1.527c6.75 0 12.227 5.472 12.227 12.226v1.528h8.715v-1.528c0-6.754 5.472-12.226 12.226-12.226h1.524zm0 0"/><path d="m399.667 131.645h-1.524c-6.754 0-12.226-5.477-12.226-12.227v-1.523h-8.715v1.523c0 6.75-5.477 12.227-12.227 12.227h-1.527v8.715h1.527c6.75 0 12.227 5.472 12.227 12.226v1.528h8.715v-1.528c0-6.754 5.472-12.226 12.226-12.226h1.524zm0 0"/><path d="m437.846 244.895h-1.524c-6.754 0-12.226-5.477-12.226-12.227v-1.523h-8.715v1.523c0 6.75-5.477 12.227-12.227 12.227h-1.527v8.715h1.527c6.75 0 12.227 5.472 12.227 12.226v1.528h8.715v-1.528c0-6.754 5.472-12.226 12.226-12.226h1.524zm0 0"/></g></g></svg>