<svg id="Capa_1" enable-background="new 0 0 512 512" height="512" viewBox="0 0 512 512" width="512" xmlns="http://www.w3.org/2000/svg"><g><g><path d="m512 256c0 141.387-114.613 256-256 256s-256-114.613-256-256 114.613-256 256-256 256 114.613 256 256zm0 0" fill="#e38031"/><path d="m512 256c0 26.051-3.891 51.191-11.129 74.871-5.031 16.469-11.672 32.231-19.75 47.109-8.25 15.2-18 29.461-29.051 42.61-.582.691-1.16 1.379-1.75 2.058-46.941 54.704-116.59 89.352-194.32 89.352s-147.379-34.648-194.309-89.352c-.589-.687-1.179-1.378-1.75-2.07-11.062-13.137-20.812-27.398-29.05-42.598-3.289-6.031-6.332-12.21-9.121-18.531-14-31.629-21.77-66.629-21.77-103.449 0-46.219 12.25-89.57 33.68-127 44.121 77.07 127.16 129 222.32 129s178.211-51.93 222.32-129c21.43 37.43 33.68 80.781 33.68 127zm0 0" fill="#d85819"/><path d="m481.262 377.699c-7.16 13.223-15.434 25.742-24.723 37.43-8.437 10.633-17.719 20.57-27.719 29.723-45.539 41.699-106.211 67.148-172.82 67.148s-127.281-25.449-172.82-67.148c-10-9.153-19.282-19.09-27.719-29.723-9.289-11.688-17.563-24.207-24.723-37.43zm0 0" fill="#bd4911"/></g><g><path d="m299.594 343.993-3.98 73.359 69.417 69.418 77.131-77.131-69.417-69.418z" fill="#f2d332"/><path d="m240.498 284.29h109.08v110.71h-109.08z" fill="#ffeb78" transform="matrix(.707 -.707 .707 .707 -153.751 308.103)"/><path d="m127.61 122.464h109.08v208.586h-109.08z" fill="#fff0be" transform="matrix(.707 -.707 .707 .707 -106.991 195.215)"/><path d="m139.255 340.221-69.417 69.418 38.461 38.461 123.409-77.13z" fill="#6abb5e"/><path d="m139.255 340.221-69.417 69.418 18.721 18.722 70.192-68.644z" fill="#a3d962"/><path d="m108.299 448.1 38.67 38.67 69.417-69.418-7.817-69.522z" fill="#299f8c"/><path d="m403.492 152.907-143.74 82.035-82.035 143.741 38.669 38.669 225.776-225.775z" fill="#6abb5e"/><path d="m111.726 219.368h319.295v54.392h-319.295z" fill="#aaed58" transform="matrix(.707 -.707 .707 .707 -94.864 264.107)"/><path d="m102.111 223.351h319.295v27.196h-319.295z" fill="#d0f165" transform="matrix(.707 -.707 .707 .707 -90.881 254.491)"/></g></g></svg>