<svg id="Capa_1" enable-background="new 0 0 512 512" height="512" viewBox="0 0 512 512" width="512" xmlns="http://www.w3.org/2000/svg"><g><g><path d="m0 256c0 43.79 11 85.02 30.39 121.07l225.61 49.67 225.61-49.67c19.39-36.05 30.39-77.28 30.39-121.07 0-46.63-12.47-90.34-34.26-128-41.698 72.091-399.22 76.52-443.48 0-21.79 37.66-34.26 81.37-34.26 128z" fill="#9feafd"/><path d="m34.26 128c44.26 76.52 126.99 128 221.74 128s177.48-51.48 221.74-128c-.01-.02-.03-.05-.04-.07-44.27-76.48-126.98-127.93-221.7-127.93s-177.43 51.45-221.7 127.93c-.01.02-.03.05-.04.07z" fill="#c3f3ff"/><path d="m30.39 377.07c43.19 80.32 128.02 134.93 225.61 134.93s182.42-54.61 225.61-134.93z" fill="#70c5e8"/></g><g><path d="m358.519 380.681c0 56.477-45.677 102.287-102.109 102.51-.276 0-.543 0-.819-.009-56.255-.214-102.109-46.14-102.109-102.51 0-46.825 31.404-86.314 74.294-98.574 2.73-.78 4.643-3.248 4.648-6.099 0-2.849-1.914-5.316-4.657-6.099-42.89-12.261-74.285-51.749-74.285-98.574 0-56.477 45.677-102.296 102.109-102.519 56.629-.223 102.929 45.882 102.929 102.519 0 46.825-31.404 86.323-74.294 98.574-2.742.784-4.648 3.25-4.648 6.099s1.914 5.324 4.657 6.108c42.889 12.26 74.284 51.749 74.284 98.574z" fill="#b895e4"/><path d="m358.519 380.681c0 56.477-45.677 102.287-102.109 102.51-.276 0-.543 0-.819-.009v-414.376c56.629-.223 102.929 45.882 102.929 102.519 0 46.825-31.404 86.323-74.294 98.574-2.742.784-4.648 3.25-4.648 6.099s1.914 5.324 4.657 6.108c42.889 12.261 74.284 51.75 74.284 98.575z" fill="#9865d8"/><path d="m314 171.325c0 31.983-26.017 58-58 58-.134 0-.276 0-.41-.009-31.796-.214-57.59-26.142-57.59-57.991s25.794-57.777 57.59-57.991c.134-.009.276-.009.41-.009 31.983 0 58 26.017 58 58z" fill="#f5dc6e"/><path d="m314 380.681c0 31.974-26.017 57.991-58 57.991-.134 0-.276 0-.41-.009-31.796-.214-57.59-26.142-57.59-57.982 0-31.849 25.794-57.777 57.59-57.991.134-.009.276-.009.41-.009 31.983 0 58 26.017 58 58z" fill="#f5dc6e"/><g fill="#eebf36"><path d="m314 380.681c0 31.974-26.017 57.991-58 57.991-.134 0-.276 0-.41-.009v-115.973c.134-.009.276-.009.41-.009 31.983 0 58 26.017 58 58z"/><path d="m256 229.325c-.134 0-.276 0-.41-.009v-115.982c.134-.009.276-.009.41-.009 31.983 0 58 26.017 58 58 0 31.982-26.017 58-58 58z"/></g></g><g><path d="m475.61 344.21c0 26.89-21.81 48.7-48.7 48.7-26.9 0-48.7-21.81-48.7-48.7 0-16.55 8.26-31.17 20.88-39.97-12.62-8.8-20.88-23.41-20.88-39.96 0-26.9 21.8-48.7 48.7-48.7 26.89 0 48.7 21.8 48.7 48.7 0 16.55-8.27 31.16-20.89 39.96 12.62 8.8 20.89 23.42 20.89 39.97z" fill="#b895e4"/><path d="m475.61 344.21c0 26.89-21.81 48.7-48.7 48.7v-177.33c26.89 0 48.7 21.8 48.7 48.7 0 16.55-8.27 31.16-20.89 39.96 12.62 8.8 20.89 23.42 20.89 39.97z" fill="#9865d8"/><ellipse cx="426.91" cy="264.28" fill="#f5dc6e" rx="21.13" ry="21.13" transform="matrix(.615 -.788 .788 .615 -44.122 438.132)"/><circle cx="426.91" cy="344.21" fill="#f5dc6e" r="21.13"/><g fill="#eebf36"><path d="m448.04 344.21c0 11.67-9.46 21.13-21.13 21.13v-42.26c11.67 0 21.13 9.46 21.13 21.13z"/><path d="m426.91 285.41v-42.26c11.67 0 21.13 9.46 21.13 21.13s-9.46 21.13-21.13 21.13z"/></g></g><g><ellipse cx="82.96" cy="264.28" fill="#b895e4" rx="64.631" ry="64.631" transform="matrix(.707 -.707 .707 .707 -162.576 136.067)"/><path d="m147.591 264.28c0 35.686-28.945 64.631-64.631 64.631v-129.262c35.686 0 64.631 28.931 64.631 64.631z" fill="#9865d8"/><ellipse cx="82.96" cy="264.28" fill="#f5dc6e" rx="28.042" ry="28.042" transform="matrix(.383 -.924 .924 .383 -192.95 239.79)"/><path d="m111.002 264.28c0 15.487-12.555 28.042-28.042 28.042v-56.084c15.488 0 28.042 12.554 28.042 28.042z" fill="#eebf36"/></g></g></svg>