<svg id="Icons" enable-background="new 0 0 512 512" height="512" viewBox="0 0 512 512" width="512" xmlns="http://www.w3.org/2000/svg"><g><circle cx="256" cy="256" fill="#22bce0" r="256"/><g><g><path d="m345.968 355.779v72.723c0 23.107-18.725 41.832-41.832 41.832h-56.875c-23.107 0-41.832-18.725-41.832-41.832v-72.723z" fill="#c17e62"/><path d="m345.968 357.002v71.499c-.232 25.974-21.954 43.928-47.402 41.832v-104.3l32.394-2.295z" fill="#a26d5a"/><path d="m225.318 447.833c-10.985 0-19.889-8.905-19.889-19.889v-37.336c1.062-26.381 38.712-26.392 39.779 0v37.336c-.001 10.984-8.905 19.889-19.89 19.889z" fill="#d48d77"/></g><g><path d="m382.079 246.27v58.949c0 33.583-27.231 60.814-60.814 60.814h-115.836v-119.763z" fill="#c17e62"/><path d="m340.324 246.27h-134.895v34.421h134.895v37.374c0 38.743-41.755 47.968-41.755 47.968h22.696c33.582 0 60.814-27.231 60.814-60.814.024-14.105-.017-44.649 0-58.949z" fill="#a26d5a"/><path d="m340.324 280.691v38.73c0 12.82-10.393 23.213-23.213 23.212-12.82 0-23.212-10.393-23.212-23.212v-38.73z" fill="#d48d77"/></g><g id="Pencil_13_"><g><path d="m94.778 196.112h307.751v50.163h-307.751z" fill="#f39e22"/><path d="m387.94 210.701h-278.574c-8.051.001-14.589-6.538-14.589-14.589h307.751c.001 8.052-6.525 14.589-14.588 14.589z" fill="#c68132"/><path d="m402.529 246.275h-307.751c0-8.063 6.537-14.6 14.589-14.6h278.573c8.063 0 14.589 6.537 14.589 14.6z" fill="#f9c744"/></g><g><path d="m83.16 259.542c-6.409 0-11.617-5.197-11.617-11.606v-53.484c-.043-6.397 5.331-11.661 11.618-11.606 6.42 0 11.617 5.197 11.617 11.606v53.484c-.005 6.412-5.207 11.611-11.618 11.606z" fill="#ebd9ea"/><path d="m83.16 259.542v-33.769c-.001-6.409 5.192-11.616 11.617-11.617v33.78c-.004 6.412-5.206 11.611-11.617 11.606z" fill="#fff"/><path d="m71.543 245.372v-50.921c.01-4.783 2.879-8.914 7.131-10.709v50.921c-.013 4.79-2.872 8.904-7.131 10.709z" fill="#c1b7d3"/></g><g><path d="m71.543 246.27h-17.187c-13.902.017-25.105-11.339-25.076-25.076-.028-13.764 11.217-25.117 25.076-25.088h17.187z" fill="#ee6781"/><path d="m71.543 246.27h-17.187c-7.621 0-14.437-3.391-19.028-8.751 4.658-5.406 11.408-8.722 19.028-8.739h17.187z" fill="#f0a6b3"/><path d="m71.543 211.429h-17.187c-7.085 0-13.482-2.925-18.026-7.656 4.543-4.761 10.948-7.655 18.026-7.667h17.187z" fill="#d65171"/></g><path d="m402.529 246.27v-50.163l52.331 20.974v8.227c-7.367 2.95-45.885 18.377-52.331 20.962z" fill="#f5b890"/><path d="m412.445 242.296v-25.391c0-4.311 4.358-7.248 8.355-5.651l34.06 13.645v.408z" fill="#fbd9a3"/><g><path d="m477.395 226.519h-24.738c-7.015-.215-7.029-10.437 0-10.65h24.738c7.05.229 7.025 10.441 0 10.65z" fill="#2e3140"/><path d="m477.395 226.519h-15.136c-.551-3.195 2.017-6.206 5.255-6.176h15.136c.547 3.191-2.003 6.206-5.255 6.176z" fill="#334353"/></g></g><g><g><path d="m210.183 124.456v78.98c0 7.796-3.158 14.857-8.273 19.961-5.104 5.115-12.165 8.273-19.972 8.273-15.602 0-28.245-12.643-28.245-28.234v-78.98c.013-12.407 7.97-23.045 19.425-26.835 17.767-6.154 37.414 7.941 37.065 26.835z" fill="#c17e62"/><path d="m210.183 124.456v72.011c-17.768 6.156-37.408-7.933-37.066-26.835v-72.011c17.769-6.164 37.414 7.948 37.066 26.835z" fill="#d48d77"/><path d="m201.921 194.638v8.401c0 11.041-8.943 19.983-19.984 19.984-11.035 0-19.984-8.949-19.984-19.984v-8.401c0-6.397 5.185-11.582 11.582-11.582h16.803c6.398 0 11.583 5.185 11.583 11.582z" fill="#f5b890"/><path d="m201.921 194.638v3.228c-10.887.251-20.574-5.828-25.426-14.81h13.843c6.398 0 11.583 5.185 11.583 11.582z" fill="#fbd9a3"/><path d="m197.885 115.318c-6.792 0-12.298 5.506-12.298 12.298v20.087c.657 16.312 23.936 16.317 24.595 0v-20.087c.001-6.792-5.505-12.298-12.297-12.298z" fill="#eea47d"/></g><g><path d="m266.673 101.151v102.284c0 7.796-3.158 14.857-8.273 19.961-17.405 17.631-48.295 5.156-48.218-19.961v-102.284c.013-12.407 7.97-23.045 19.425-26.835 17.768-6.151 37.416 7.94 37.066 26.835z" fill="#c17e62"/><path d="m266.673 101.151v95.316c-17.768 6.156-37.408-7.932-37.066-26.835v-95.316c17.77-6.164 37.414 7.949 37.066 26.835z" fill="#d48d77"/><path d="m258.412 194.638v8.401c0 11.041-8.943 19.983-19.984 19.984-11.035 0-19.984-8.949-19.984-19.984v-8.401c0-6.397 5.185-11.582 11.582-11.582h16.803c6.398 0 11.583 5.185 11.583 11.582z" fill="#f5b890"/><path d="m258.412 194.638v3.228c-10.887.251-20.574-5.828-25.426-14.81h13.843c6.398 0 11.583 5.185 11.583 11.582z" fill="#fbd9a3"/><path d="m254.376 92.912c-6.792 0-12.298 5.506-12.298 12.298v31.74c.656 16.309 23.934 16.32 24.595 0v-31.739c0-6.793-5.505-12.299-12.297-12.299z" fill="#eea47d"/><path d="m219.004 124.456v72.011c-2.773.921-5.745 1.41-8.821 1.41v-93.918c5.43 5.151 8.821 12.433 8.821 20.497z" fill="#a26d5a"/></g><g><path d="m323.164 124.456v78.98c0 7.796-3.158 14.857-8.273 19.961-5.104 5.115-12.165 8.273-19.972 8.273-15.603 0-28.245-12.643-28.245-28.234v-78.98c-.003-12.4 8.005-23.058 19.425-26.835 17.767-6.155 37.415 7.941 37.065 26.835z" fill="#c17e62"/><path d="m323.164 124.456v72.011c-17.768 6.156-37.408-7.933-37.066-26.835v-72.011c17.77-6.164 37.414 7.948 37.066 26.835z" fill="#d48d77"/><path d="m314.903 194.638v8.401c0 11.041-8.943 19.983-19.984 19.984-11.035 0-19.984-8.949-19.984-19.984v-8.401c0-6.397 5.185-11.582 11.582-11.582h16.803c6.397 0 11.583 5.185 11.583 11.582z" fill="#f5b890"/><path d="m314.903 194.638v3.228c-10.887.251-20.574-5.828-25.426-14.81h13.843c6.397 0 11.583 5.185 11.583 11.582z" fill="#fbd9a3"/><path d="m310.867 115.318c-6.792 0-12.298 5.506-12.298 12.298v20.087c.657 16.312 23.936 16.317 24.595 0v-20.087c0-6.792-5.506-12.298-12.297-12.298z" fill="#eea47d"/><path d="m276.858 102.759v93.708c-3.159 1.059-6.712 1.554-10.184 1.375v-73.387c.027-8.709 3.866-16.459 10.184-21.696z" fill="#a26d5a"/></g><g><path d="m379.655 147.76v55.675c0 7.796-3.158 14.857-8.273 19.961-17.407 17.636-48.297 5.15-48.218-19.961v-55.674c.013-12.407 7.97-23.046 19.425-26.835 17.768-6.156 37.415 7.942 37.066 26.834z" fill="#c17e62"/><path d="m379.655 147.76v48.707c-17.768 6.157-37.408-7.933-37.066-26.835v-48.706c17.769-6.165 37.414 7.948 37.066 26.834z" fill="#d48d77"/><path d="m371.394 194.638v8.401c0 11.041-8.943 19.983-19.984 19.984-11.035 0-19.984-8.949-19.984-19.984v-8.401c0-6.397 5.185-11.582 11.582-11.582h16.803c6.397 0 11.583 5.185 11.583 11.582z" fill="#f5b890"/><path d="m371.394 194.638v3.228c-10.887.251-20.574-5.828-25.426-14.81h13.843c6.397 0 11.583 5.185 11.583 11.582z" fill="#fbd9a3"/><path d="m367.357 135.773c-6.792 0-12.298 5.506-12.298 12.298v8.435c.647 16.31 23.949 16.31 24.595 0v-8.435c.001-6.792-5.505-12.298-12.297-12.298z" fill="#eea47d"/></g></g><g><path d="m261.908 325.751c-1.946 4.253-4.673 8.238-8.168 11.734l-16.71 16.71c-15.777 15.777-41.343 15.777-57.12 0l-47.67-47.658c-15.766-15.777-15.766-41.343 0-57.121l16.709-16.709c3.507-3.507 7.493-6.234 11.746-8.168 14.903-6.829 33.104-4.102 45.374 8.168l47.67 47.67c12.27 12.269 14.985 30.47 8.169 45.374z" fill="#c17e62"/><path d="m265.558 309.582c-2.03 26.601-34.388 23.314-49.036 8 0 0-47.658-47.669-47.658-47.669-12.27-12.27-14.997-30.471-8.168-45.374 14.903-6.829 33.104-4.102 45.374 8.168l47.67 47.67c8.05 8.05 11.987 18.654 11.818 29.205z" fill="#a26d5a"/><path d="m234.746 226.204-72.408 72.42c-10.499 10.487-27.511 10.487-38.01 0-3.245-3.046-6.266-6.721-7.795-10.756-3.985-9.729-2.028-21.3 5.861-29.189l72.419-72.419c10.544-10.625 27.794-10.308 38.01 0 12.008 10.257 13.286 28.711 1.923 39.944z" fill="#c17e62"/><path d="m289.489 206.64c0 15.591-12.643 28.246-28.245 28.246h-45.642c-7.796 0-14.857-3.158-19.961-8.273-7.775-7.374-10.586-20.59-6.164-30.692 4.218-10.289 14.332-17.525 26.125-17.525h45.642c15.573-.113 28.361 12.925 28.245 28.244z" fill="#c17e62"/><path d="m218.426 344.9c-7.019 7.019-18.398 7.019-25.417 0l-27.858-27.858c-16.177-17.534 7.87-41.599 25.417-25.417 0 0 27.857 27.857 27.857 27.857 7.02 7.02 7.02 18.4.001 25.418z" fill="#d48d77"/><path d="m287.38 195.92c-4.218 10.277-14.332 17.513-26.136 17.513h-45.642c-.431 0-.862-.011-1.282-.035l-68.598 68.598c-7.889 7.889-19.471 9.858-29.189 5.872-4.082-9.894-1.82-21.586 5.861-29.189 0 0 72.419-72.419 72.419-72.419 5.512-5.512 12.806-8.11 20.019-7.842.256 0 .513-.023.769-.023h45.642c11.649 0 21.805 7.039 26.137 17.525z" fill="#d48d77"/><path d="m279.211 184.85c-.314.326-.629.641-.955.932v.012c-5.045 4.754-11.851 7.667-19.343 7.667h-45.642c-.431 0-.862-.023-1.282-.035l-68.598 68.598c-7.376 7.376-17.991 9.578-27.29 6.56 1.305-3.612 3.391-7.003 6.292-9.905l72.419-72.419c5.727-5.768 13.277-8.17 20.788-7.865h45.642c6.84.015 12.989 2.36 17.969 6.455z" fill="#eea47d"/><path d="m278.396 187.215c0 7.691-11.676 13.936-26.078 13.936h-10.965c-8.28-.064-14.978-3.391-15.113-8.075v-11.711c0-1.049.373-2.051 1.06-2.971h33.943c6.036 0 11.629 1.888 16.208 5.116.611 1.169.94 2.405.945 3.705z" fill="#f5b890"/><path d="m279.211 184.85c-.314.326-.629.641-.955.932v.012c-5.045 4.754-11.851 7.667-19.343 7.667h-32.65c-.023-.129-.023-.257-.023-.385v-11.711c0-1.049.373-2.051 1.06-2.971h33.943c6.84.016 12.987 2.362 17.968 6.456z" fill="#fbd9a3"/></g></g></g></svg>