<svg id="Capa_1" enable-background="new 0 0 512 512" height="512" viewBox="0 0 512 512" width="512" xmlns="http://www.w3.org/2000/svg"><g><g><path d="m512 256c0 141.387-114.613 256-256 256s-256-114.613-256-256 114.613-256 256-256 256 114.613 256 256zm0 0" fill="#df7cb3"/><path d="m512 256c0 26.051-3.891 51.191-11.129 74.871-5.031 16.469-11.672 32.231-19.75 47.109-8.25 15.2-147.391 90.217-225.121 90.217s-216.871-75.017-225.109-90.217c-3.289-6.031-6.332-12.21-9.121-18.531-14-31.629-21.77-66.629-21.77-103.449 0-46.219 12.25-89.57 33.68-127 44.121 77.07 127.16 129 222.32 129s178.211-51.93 222.32-129c21.43 37.43 33.68 80.781 33.68 127zm0 0" fill="#d85e91"/><path d="m481.262 377.699c-7.16 13.223-15.434 25.742-24.723 37.43-8.437 10.633-17.719 20.57-27.719 29.723-45.539 41.699-106.211 67.148-172.82 67.148s-127.281-25.449-172.82-67.148c-10-9.153-19.282-19.09-27.719-29.723-9.289-11.688-17.563-24.207-24.723-37.43zm0 0" fill="#bb1961"/></g><g><path d="m109.394 129.627h26.422v46.567h-26.422z" fill="#dce0ef" transform="matrix(.707 -.707 .707 .707 -72.214 131.481)"/><path d="m365.799 139.802h46.859v26.422h-46.859z" fill="#cad0e7" transform="matrix(.707 -.707 .707 .707 5.808 320.048)"/><path d="m255.969 61.013h-39.638v80.156h39.638 39.637v-80.156z" fill="#fbf5eb"/><path d="m255.969 61.013h39.638v80.156h-39.638z" fill="#dce0ef"/><path d="m255.969 114.755c-.079 0-.153-.011-.232-.011-109.287 0-198.188 88.901-198.188 198.188s88.9 199.068 198.187 199.068c.079 0 .153-.011.232-.011 109.179-.129 197.955-89.849 197.955-199.057s-88.775-198.048-197.954-198.177z" fill="#dce0ef"/><path d="m453.924 312.931c0-109.208-88.776-198.047-197.955-198.176v397.234c109.179-.129 197.955-89.85 197.955-199.058z" fill="#cad0e7"/><path d="m400.64 299.719c-2.726-30.207-14.645-57.743-33.005-79.769l-27.582 1.156 8.895-19.841c-22.025-18.359-49.561-30.28-79.767-33.005l-13.212 12.546-13.213-12.546c-30.206 2.726-57.742 14.646-79.767 33.005l8.895 19.841-27.582-1.156c-18.361 22.025-30.28 49.561-33.005 79.769l12.546 13.212-12.546 13.213c2.726 30.205 14.646 57.742 33.005 79.767l27.582-1.157-8.897 19.843c22.025 18.359 49.563 30.28 79.769 33.005l13.213-12.546 13.212 12.546c30.206-2.726 57.743-14.646 79.769-33.005l-8.896-19.843 27.582 1.157c18.359-22.025 30.28-49.562 33.005-79.767l-12.546-13.213z" fill="#fbf5eb"/><path d="m348.95 424.598-8.896-19.843 27.582 1.157c18.359-22.025 30.28-49.562 33.005-79.767l-12.546-13.213 12.546-13.212c-2.726-30.207-14.645-57.743-33.005-79.769l-27.582 1.156 8.895-19.841c-22.025-18.359-49.561-30.28-79.767-33.005l-13.212 12.546v264.25l13.212 12.546c30.205-2.726 57.743-14.646 79.768-33.005z" fill="#dce0ef"/><path d="m392.585 96.813h26.422v79.267h-26.422z" fill="#dce0ef" transform="matrix(.707 -.707 .707 .707 22.373 326.906)"/><path d="m66.507 123.235h79.267v26.422h-79.267z" fill="#fbf5eb" transform="matrix(.707 -.707 .707 .707 -65.394 115.017)"/><g fill="#3b3b3b"><path d="m361.669 326.144h38.971c.394-4.358.666-8.751.666-13.213 0-4.46-.272-8.854-.666-13.212h-38.971z"/><path d="m321.367 397.014 27.583 27.583c6.781-5.651 13.034-11.908 18.685-18.686l-27.582-27.582z"/><path d="m340.053 247.532 27.582-27.581c-5.65-6.779-11.908-13.034-18.687-18.685l-27.581 27.581z"/></g><path d="m269.181 299.719v-52.85h-13.212-13.213v79.275h13.213 66.062v-26.425z" fill="#e05352"/><path d="m322.031 299.719h-52.85v-52.85h-13.212v79.275h66.062z" fill="#cb2d41"/><g fill="#535564"><path d="m242.756 418.632v38.971c4.358.393 8.751.666 13.213.666 4.461 0 8.855-.273 13.212-.666v-38.971h-13.212z"/><path d="m255.969 167.594c-4.461 0-8.855.273-13.213.666v38.971h13.213 13.212v-38.971c-4.358-.394-8.751-.666-13.212-.666z"/></g><path d="m269.181 418.632h-13.212v39.638c4.461 0 8.855-.273 13.212-.666z" fill="#3b3b3b"/><path d="m269.181 168.26c-4.358-.394-8.751-.666-13.212-.666v39.637h13.212z" fill="#3b3b3b"/><path d="m150.268 299.719h-38.971c-.394 4.358-.666 8.753-.666 13.212 0 4.461.273 8.855.666 13.213h38.971z" fill="#535564"/><path d="m190.57 228.847-27.581-27.581c-6.779 5.651-13.037 11.906-18.687 18.685l27.582 27.581z" fill="#535564"/><path d="m171.884 378.329-27.582 27.582c5.652 6.779 11.905 13.035 18.685 18.686l27.583-27.583z" fill="#535564"/></g></g></svg>