<svg id="Capa_1" enable-background="new 0 0 512 512" height="512" viewBox="0 0 512 512" width="512" xmlns="http://www.w3.org/2000/svg"><g><g><path d="m0 256c0 43.79 11 85.02 30.39 121.07l225.61 49.67 225.61-49.67c19.39-36.05 30.39-77.28 30.39-121.07 0-46.63-12.47-90.34-34.26-128-41.698 72.091-399.22 76.52-443.48 0-21.79 37.66-34.26 81.37-34.26 128z" fill="#78cd8a"/><path d="m34.26 128c44.26 76.52 126.99 128 221.74 128s177.48-51.48 221.74-128c-.01-.02-.03-.05-.04-.07-44.27-76.48-126.98-127.93-221.7-127.93s-177.43 51.45-221.7 127.93c-.01.02-.03.05-.04.07z" fill="#a8ea58"/><path d="m30.39 377.07c43.19 80.32 128.02 134.93 225.61 134.93s182.42-54.61 225.61-134.93z" fill="#599d89"/></g><g><path d="m323.143 199.022h28.567v90.864h-28.567z" fill="#c3f3ff" transform="matrix(-.707 .707 -.707 -.707 748.878 178.714)"/><path d="m335.334 193.972h14.283v90.864h-14.283z" fill="#9feafd" transform="matrix(-.707 .707 -.707 -.707 753.928 166.522)"/></g><g><path d="m311.569 193.889h28.567v90.864h-28.567z" fill="#c3f3ff" transform="matrix(-1 0 0 -1 651.706 478.641)"/><path d="m325.853 193.889h14.283v90.864h-14.283z" fill="#9feafd" transform="matrix(-1 0 0 -1 665.989 478.641)"/></g><g><path d="m299.996 199.022h28.567v90.864h-28.567z" fill="#c3f3ff" transform="matrix(-.707 -.707 .707 -.707 363.654 639.539)"/><path d="m312.188 204.072h14.283v90.864h-14.283z" fill="#9feafd" transform="matrix(-.707 -.707 .707 -.707 368.704 651.731)"/></g><path d="m277.226 214.456h97.253v39.746h-97.253z" fill="#616679"/><g><path d="m253.934 91.795h59.416v90.864h-59.416z" fill="#616679" transform="matrix(-.924 .382 -.382 -.924 598.197 155.668)"/><path d="m282.516 86.12h29.708v90.864h-29.708z" fill="#464651" transform="matrix(-.924 .382 -.382 -.924 622.441 139.503)"/><path d="m224.062 84.564h88.59v31.385h-88.59z" fill="#848898" transform="matrix(-.924 .382 -.382 -.924 554.66 90.372)"/><path d="m266.677 76.102h44.295v31.385h-44.295z" fill="#616679" transform="matrix(-.924 .382 -.382 -.924 590.808 66.27)"/></g><path d="m185.735 336.896h182.983v37.466h-182.983z" fill="#464651"/><path d="m386.856 132.48v91.744h-115.945l-16.285 10.494-64.482 41.564v.226c22.374 2.269 39.829 21.162 39.829 44.131v87.154l-50.251 37.334-57.315-37.334v-189.032l132.219-49.604 16.285-6.109 81.455-30.567h34.49z" fill="#e7eaf5"/><path d="m213.17 314.732h182.983v37.466h-182.983z" fill="#848898"/><path d="m254.627 314.732h141.526v37.466h-141.526z" fill="#616679"/><path d="m386.856 433v30.639h-264.449v-65.18h229.908z" fill="#d9dced"/><g><path d="m154.458 367.004c0 17.703-14.349 32.058-32.052 32.058s-32.052-14.355-32.052-32.058 14.349-32.052 32.052-32.052 32.052 14.349 32.052 32.052z" fill="#616679"/><path d="m154.458 367.004c0 17.703-14.349 32.058-32.052 32.058v-64.11c17.703 0 32.052 14.349 32.052 32.052z" fill="#464651"/><path d="m142.791 367.004c0 11.261-9.125 20.391-20.385 20.391s-20.385-9.13-20.385-20.391c0-11.255 9.125-20.385 20.385-20.385s20.385 9.13 20.385 20.385z" fill="#464651"/><path d="m142.791 367.004c0 11.261-9.125 20.391-20.385 20.391v-40.777c11.261.001 20.385 9.131 20.385 20.386z" fill="#2d3041"/></g><path d="m386.856 132.48v91.744h-115.945l-16.284 10.493v-65.56l97.74-36.677z" fill="#d9dced"/><path d="m386.856 433v30.639h-132.229v-65.18h97.688z" fill="#c8cde3"/><g><path d="m375.04 180.903c0 14.218-11.525 25.747-25.743 25.747s-25.743-11.529-25.743-25.747 11.525-25.743 25.743-25.743 25.743 11.525 25.743 25.743z" fill="#616679"/><path d="m375.04 180.903c0 14.218-11.525 25.747-25.743 25.747v-51.49c14.218 0 25.743 11.525 25.743 25.743z" fill="#464651"/><path d="m365.67 180.903c0 9.044-7.329 16.377-16.373 16.377s-16.373-7.333-16.373-16.377c0-9.04 7.329-16.373 16.373-16.373s16.373 7.333 16.373 16.373z" fill="#464651"/><path d="m365.67 180.903c0 9.044-7.329 16.377-16.373 16.377v-32.75c9.044 0 16.373 7.333 16.373 16.373z" fill="#2d3041"/></g></g></svg>