<svg id="Capa_1" enable-background="new 0 0 512 512" height="512" viewBox="0 0 512 512" width="512" xmlns="http://www.w3.org/2000/svg"><g><g><path d="m512 256c0 43.79-11 85.02-30.39 121.07l-225.61 49.67-225.61-49.67c-19.39-36.05-30.39-77.28-30.39-121.07 0-46.63 12.47-90.34 34.26-128 41.698 72.091 399.22 76.52 443.48 0 21.79 37.66 34.26 81.37 34.26 128z" fill="#79ce8b"/><path d="m477.74 128c-44.26 76.52-126.99 128-221.74 128s-177.48-51.48-221.74-128c.01-.02.03-.05.04-.07 44.27-76.48 126.98-127.93 221.7-127.93s177.43 51.45 221.7 127.93c.01.02.03.05.04.07z" fill="#a9eb58"/><path d="m481.61 377.07c-4.53 8.43-9.52 16.58-14.95 24.41-4.74 6.86-35.36-9.899-40.74-3.55-6.66 7.88-13.79 15.34-21.35 22.35-8.09 7.52 8.88 37.88-.14 44.31l-.01.01c-41.86 29.84-93.09 47.4-148.42 47.4s-106.56-17.56-148.42-47.4c-9.02-6.43 7.95-36.79-.14-44.32-7.56-7.01-14.7-14.47-21.36-22.35-5.38-6.35-36 10.41-40.74 3.55-5.43-7.83-10.42-15.98-14.95-24.41z" fill="#599d8a"/></g><g><path d="m451.47 421.3c-13.8 16.31-29.6 30.86-47.04 43.29l-.01.01-148.42 34.34-148.42-34.34c-8.72-6.215-17.032-12.963-24.89-20.195s9.601-20.56 2.701-28.715l.689-17.759 22.81-20.86 147.11-134.561 59.54 54.46 87.57 80.1 22.81 20.86z" fill="#464652"/><path d="m429.849 421.3c-6.661 7.873 7.83 15.339.274 22.353-8.096 7.517-16.682 14.517-25.703 20.947l-148.42 34.34v-201.97h59.54l87.57 80.1 22.81 20.86z" fill="#2d2f40"/><path d="m466.66 178.76v222.72c-4.74 6.86-9.81 13.47-15.19 19.82-6.66 7.88-13.79 15.34-21.35 22.35l-174.12 40.29-174.11-40.29c-7.56-7.01-14.7-14.47-21.36-22.35-5.38-6.35-10.45-12.96-15.19-19.82v-222.72l210.66 48.75z" fill="#c8cde4"/><path d="m466.66 296.16v105.32c-4.74 6.86-9.81 13.47-15.19 19.82-6.66 7.88-13.79 15.34-21.35 22.35l-174.12 40.29v-187.78z" fill="#b2b7cc"/><g><path d="m45.336 144.369 210.664 48.751v256.433l-210.664-48.751z" fill="#e8ebf7"/><g fill="#616579"><path d="m226.296 258.366-151.256-35.003v-25.962l151.256 35.003z"/><path d="m226.296 306-151.256-35.003v-25.961l151.256 35.003z"/><path d="m226.296 353.635-151.256-35.003v-25.961l151.256 35.003z"/><path d="m226.296 401.27-151.256-35.003v-25.961l151.256 35.003z"/></g></g><g><path d="m466.66 144.367v256.44l-210.66 48.75v-256.44z" fill="#daddee"/><g fill="#464652"><path d="m285.704 258.366 151.256-35.003v-25.962l-151.256 35.003z"/><path d="m285.704 306 151.256-35.003v-25.961l-151.256 35.003z"/><path d="m285.704 353.635 151.256-35.003v-25.961l-151.256 35.003z"/><path d="m285.704 401.27 151.256-35.003v-25.961l-151.256 35.003z"/></g></g></g><g><path d="m357.921 120.82c0 56.281-45.621 101.921-101.921 101.921s-101.921-45.64-101.921-101.921c0-56.3 45.621-101.94 101.921-101.94s101.921 45.64 101.921 101.94z" fill="#d95f91"/><path d="m357.921 120.82c0 56.281-45.621 101.921-101.921 101.921v-203.861c56.3 0 101.921 45.64 101.921 101.94z" fill="#c02e71"/><path d="m328.744 120.822c0 40.153-32.569 72.722-72.744 72.722s-72.744-32.569-72.744-72.722c0-40.174 32.569-72.744 72.744-72.744s72.744 32.569 72.744 72.744z" fill="#c4f4ff"/><path d="m328.744 120.822c0 40.153-32.569 72.722-72.744 72.722v-145.466c40.175 0 72.744 32.569 72.744 72.744z" fill="#9febff"/><path d="m271.93 116.4c.39 1.4.61 2.88.61 4.41 0 9.14-7.4 16.55-16.54 16.55s-16.54-7.41-16.54-16.55c0-6.17 3.38-11.55 8.4-14.39v-40.4h16.28v35.13l11.02-11.01 11.52 11.51z" fill="#616579"/><path d="m271.93 116.4c.39 1.4.61 2.88.61 4.41 0 9.14-7.4 16.55-16.54 16.55v-71.34h8.14v35.13l11.02-11.01 11.52 11.51z" fill="#464652"/></g></g></svg>