<svg id="Capa_1" enable-background="new 0 0 512 512" height="512" viewBox="0 0 512 512" width="512" xmlns="http://www.w3.org/2000/svg"><g><g><g><g><g><g><g><ellipse cx="256" cy="256" fill="#7584f2" rx="256" ry="256" transform="matrix(.707 -.707 .707 .707 -106.039 256)"/></g></g></g></g></g></g><path d="m512 256c0-15.541-1.385-30.758-4.038-45.536l-120.878-120.878-.54 2.092-25.875-25.875-22.954 36.826-36.825-36.826-11.275 48.504-48.505-48.504-6.282 53.498-53.498-53.498-56.415 378.232 57.116 57.117c23.419 7.055 48.251 10.848 73.969 10.848 141.385 0 256-114.615 256-256z" fill="#4253ce"/><g><path d="m124.916 150.373h262.168v293.663h-262.168z" fill="#fff"/></g><g><path d="m256.121 150.373h130.963v293.663h-130.963z" fill="#e9edf5"/></g><g><path d="m301.042 308.503c-.037-.247-3.885-25.626-12.294-50.799-10.757-32.201-22.281-44.305-29.479-44.895-5.913-.491-16.163 9.467-25.425 39.123-7.561 24.209-10.551 49.083-10.58 49.332l-29.793-3.516c.133-1.127 3.354-27.918 11.736-54.759 5.163-16.53 11.286-29.781 18.2-39.386 13.392-18.602 28.229-21.518 38.312-20.694 23.04 1.888 41.748 23.979 55.605 65.658 9.184 27.622 13.224 54.397 13.391 55.523z" fill="#bec3d2"/></g><g><path d="m317.325 248.568c-13.857-41.679-32.565-63.77-55.605-65.658-1.735-.142-3.614-.168-5.599-.028v30.535c1.145-.494 2.203-.686 3.148-.607 7.198.59 18.723 12.694 29.479 44.895 8.409 25.172 12.257 50.551 12.294 50.799l29.674-4.412c-.167-1.127-4.207-27.903-13.391-55.524z" fill="#9196aa"/></g><g><path d="m124.916 89.586h262.168v64.108h-262.168z" fill="#ffce00"/></g><g><path d="m256.121 89.586h130.963v64.108h-130.963z" fill="#fdba12"/></g><g><g><path d="m151.331 65.803h30v47.565h-30z" fill="#555a66"/></g><g><path d="m211.11 65.803h30v47.565h-30z" fill="#555a66"/></g><g><path d="m270.89 65.803h30v47.565h-30z" fill="#333940"/></g><g><path d="m330.669 65.803h30v47.565h-30z" fill="#333940"/></g></g><path d="m359.534 291.297h-155.991v-107.202h-30v107.202h-21.077v30h21.077v18.608h30v-18.608h155.991z" fill="#7e8596"/><g><path d="m256.121 291.297h103.414v30h-103.414z" fill="#636978"/></g><g><path d="m152.466 371.072h89.602v30h-89.602z" fill="#bec3d2"/></g><g><path d="m306.036 371.072h53.498v30h-53.498z" fill="#9196aa"/></g></g></svg>