<svg id="Capa_1" enable-background="new 0 0 512 512" height="512" viewBox="0 0 512 512" width="512" xmlns="http://www.w3.org/2000/svg"><g><g><path d="m256 303.366c-141.387 0-243.753-136.94-222.327-174.368 44.118-77.069 127.157-128.998 222.327-128.998s178.209 51.93 222.328 129c21.425 37.427-80.941 174.366-222.328 174.366z" fill="#e36565"/><path d="m512 256c0 26.051-3.891 51.191-11.129 74.871-5.031 16.469-11.672 32.231-19.75 47.109-8.25 15.2-147.391 52.944-225.121 52.944s-216.871-37.744-225.109-52.944c-3.289-6.031-6.332-12.21-9.121-18.531-14-31.629-21.77-66.629-21.77-103.449 0-46.219 12.25-89.57 33.68-127 44.121 77.07 127.16 129 222.32 129s178.211-51.93 222.32-129c21.43 37.43 33.68 80.781 33.68 127zm0 0" fill="#da3f3e"/><path d="m481.262 377.699c-7.16 13.223-15.434 25.742-24.723 37.43-8.437 10.633-17.719 20.57-27.719 29.723-8.334 7.631-17.174 14.718-26.466 21.204-11.476 8.012-60.552 31.576-73.303 35.366-23.149 6.883-47.669 10.578-73.051 10.578-66.609 0-127.281-25.449-172.82-67.148-10-9.153-19.282-19.09-27.719-29.723-9.289-11.688-17.563-24.207-24.723-37.43zm0 0" fill="#a52020"/></g><g><path d="m145.733 240.199h-86.332v48.867c0 25.316 43.764 36.65 86.332 36.65s85.518-11.334 85.518-36.65v-48.867z" fill="#dce0ef"/><path d="m231.25 289.066v-48.867h-85.518v85.518c42.569 0 85.518-11.334 85.518-36.651z" fill="#cad0e7"/><path d="m145.733 191.332h-86.332v48.867c0 25.316 43.764 36.65 86.332 36.65s85.518-11.334 85.518-36.65v-48.867z" fill="#fbf5eb"/><path d="m231.25 240.199v-48.867h-85.518v85.518c42.569 0 85.518-11.334 85.518-36.651z" fill="#dce0ef"/><path d="m145.733 141.65h-86.332v49.682c0 25.316 43.764 36.65 86.332 36.65s85.518-11.334 85.518-36.65v-49.682z" fill="#dce0ef"/><path d="m231.25 191.332v-49.682h-85.518v86.332c42.569 0 85.518-11.334 85.518-36.65z" fill="#cad0e7"/><path d="m145.733 105c-42.568 0-86.332 11.334-86.332 36.65s43.764 36.65 86.332 36.65 85.518-11.334 85.518-36.65c-.001-25.316-42.95-36.65-85.518-36.65z" fill="#fbf5eb"/><path d="m231.25 141.65c0-25.317-42.95-36.65-85.518-36.65v73.301c42.569 0 85.518-11.334 85.518-36.651z" fill="#dce0ef"/><g><path d="m391.548 197.011-13.696 13.696v-56.025h-12.217-109.951v24.433h97.734v31.592l-13.696-13.696-17.275 17.275 43.188 43.188 43.188-43.188z" fill="#8ab8ec"/><path d="m391.548 197.011-13.696 13.696v-56.025h-12.217v102.792l43.188-43.188z" fill="#728ee4"/><path d="m365.635 276.85h-109.951l73.301 110.226v114.351c26.481-7.863 51.167-19.891 73.301-35.331v-79.019l74.115-110.226h-110.766z" fill="#a4e2fd"/><path d="m365.635 276.85h-88.886l69.445 110.226v108.565c20.011-7.535 38.827-17.503 56.092-29.546v-79.019l74.115-110.226z" fill="#8ab8ec"/><path d="m365.635 276.85v210.538c12.842-6.096 25.093-13.231 36.651-21.293v-79.019l74.115-110.226z" fill="#728ee4"/></g></g><g fill="#fff"><path d="m304.725 77.141h-1.524c-6.754 0-12.226-5.477-12.226-12.227v-1.523h-8.715v1.523c0 6.75-5.477 12.227-12.227 12.227h-1.527v8.715h1.527c6.75 0 12.227 5.472 12.227 12.226v1.528h8.715v-1.528c0-6.754 5.472-12.226 12.226-12.226h1.524zm0 0"/><path d="m273.793 436.13h-1.524c-6.754 0-12.226-5.477-12.226-12.227v-1.523h-8.715v1.523c0 6.75-5.477 12.227-12.227 12.227h-1.527v8.715h1.527c6.75 0 12.227 5.472 12.227 12.226v1.528h8.715v-1.528c0-6.754 5.472-12.226 12.226-12.226h1.524zm0 0"/><path d="m179.191 378.193h-1.524c-6.754 0-12.226-5.477-12.226-12.227v-1.523h-8.715v1.523c0 6.75-5.477 12.227-12.227 12.227h-1.527v8.715h1.527c6.75 0 12.227 5.472 12.227 12.226v1.528h8.715v-1.528c0-6.754 5.472-12.226 12.226-12.226h1.524zm0 0"/></g></g></svg>