<svg id="Capa_1" enable-background="new 0 0 512 512" height="512" viewBox="0 0 512 512" width="512" xmlns="http://www.w3.org/2000/svg"><g><g><g><g><g><g><g><g><circle cx="256" cy="256" fill="#1dd882" r="256"/></g></g></g></g></g></g></g><path d="m511.86 247.473-162.431-162.432-1.133 4.987-32.731-32.731-17.394 75.334 32.957 32.957-15.81 69.583-90.589-90.589-25.024-1.652-14.149 13.816 11.252 11.254-10.614 8.903-56.697-56.697-30 273.372 115.091 115.091c13.48 2.191 27.313 3.331 41.412 3.331 141.385 0 256-114.615 256-256 0-2.854-.047-5.696-.14-8.527z" fill="#28bc75"/><g><path d="m173.583 216.985h69.068v161.592h-69.068z" fill="#ffce00"/></g><g><path d="m208.117 216.985h34.534v161.592h-34.534z" fill="#fdba12"/></g><g><path d="m291.846 149.872h69.068v228.705h-69.068z" fill="#ff6c52"/></g><g><path d="m326.38 149.872h34.534v228.705h-34.534z" fill="#ff432e"/></g><g><path d="m212.098 193.229v-5.421c-3.389 4.066-9.939 6.777-16.942 6.777-8.358 0-18.749-5.647-18.749-17.959 0-13.214 10.391-17.506 18.749-17.506 7.229 0 13.666 2.259 16.942 6.325v-6.551c0-4.744-4.066-7.906-11.069-7.906-5.421 0-11.069 2.033-15.474 5.76l-6.212-10.956c7.002-5.986 16.377-8.471 24.735-8.471 13.102 0 25.413 4.857 25.413 21.799v34.109zm0-14.006v-4.856c-1.807-2.485-5.874-3.84-9.713-3.84-4.631 0-8.697 2.033-8.697 6.325s4.066 6.325 8.697 6.325c3.84 0 7.906-1.356 9.713-3.954z" fill="#555a66"/></g><g><path d="m298.17 132.632v-75.335h17.394v27.22c4.292-5.421 10.165-7.793 16.151-7.793 13.554 0 24.058 10.73 24.058 28.575 0 18.523-10.617 28.688-24.058 28.688-6.099 0-11.633-2.485-16.151-7.681v6.325h-17.394zm27.785-14.006c6.89 0 12.085-5.082 12.085-13.328 0-8.132-5.196-13.214-12.085-13.214-3.727 0-8.245 2.033-10.391 4.97v16.716c2.146 2.936 6.664 4.856 10.391 4.856z" fill="#555a66"/></g><g><path d="m204.208 137.322v13.918c5.034.829 7.89 3.683 7.89 7.653v6.551c-1.803-2.238-4.567-3.924-7.89-4.992v10.187c3.242.355 6.368 1.635 7.89 3.728v4.856c-1.522 2.188-4.648 3.482-7.89 3.84v9.947c3.272-1.192 6.05-2.995 7.89-5.204v5.421h17.394v-34.109c0-16.885-12.231-21.764-25.284-21.796z" fill="#333940"/></g><g><path d="m331.715 76.723c-1.245 0-2.484.109-3.707.32v15.211c5.84.915 10.032 5.744 10.032 13.043 0 7.401-4.192 12.241-10.032 13.157v15.205c1.209.214 2.445.327 3.707.327 13.44 0 24.058-10.165 24.058-28.688 0-17.845-10.504-28.575-24.058-28.575z" fill="#333940"/></g><g><path d="m417.275 393.577h-317.778v-273.372h30v243.372h287.778z" fill="#555a66"/></g><g><path d="m256.12 363.577h161.155v30h-161.155z" fill="#333940"/></g></g></svg>