<svg id="Layer_1" enable-background="new 0 0 512 512" height="512" viewBox="0 0 512 512" width="512" xmlns="http://www.w3.org/2000/svg"><g><path d="m61.192 415.568 289.153 77.596c73.89-30.86 129.439-96.864 145.745-177.131l4.912-49.035c0-135.311-109.691-245.002-245.003-245.002s-245.001 109.691-245.001 245.002c0 55.867 18.712 107.356 50.193 148.571z" fill="#49d88b"/><path d="m238.082 82.166c0-9.306 1.145-18.348 3.29-27h-136.783c-23.929 0-43.397 19.468-43.397 43.398v317.004c10.655 13.953 22.79 26.71 36.145 38.077l216.418 51.483c12.602-3.048 24.831-7.053 36.59-11.964v-298.735c-61.902 0-112.263-50.36-112.263-112.263z" fill="#167cc1"/><path d="m97.31 453.638 71.643 17.043-2.25-357.99c-.003-.492-.185-.964-.49-1.35-5.346-6.752-2.011-11.405.082-13.366.685-.642.845-1.673.417-2.508-2.463-4.796.815-7.829 2.195-8.834.379-.276.648-.676.778-1.126l3.773-13.061c.203-.703.041-1.47-.45-2.014-6.459-7.16-1.993-12.277.494-14.304.318-.259.538-.596.665-.964h-69.577c-23.929 0-43.397 19.468-43.397 43.397v317.004c10.65 13.949 22.769 26.712 36.117 38.073z" fill="#024788"/><path d="m273.891 164.29h-185.699v281.201c9.311 8.757 19.313 16.785 29.904 24.013l58.208 29.223c24.986 8.595 51.792 13.273 79.696 13.273 23.356 0 45.948-3.271 67.346-9.376v-311.485c-18.788-4.656-35.721-14.054-49.455-26.849z" fill="#e9efff"/><path d="m166.698 493.904v-329.614h-78.506v281.201c9.319 8.765 19.333 16.795 29.935 24.029z" fill="#d3dcfb"/><g><path d="m173.799 86.265h-4.333c-4.142 0-7.5-3.357-7.5-7.5s3.358-7.5 7.5-7.5h4.333c4.142 0 7.5 3.357 7.5 7.5s-3.358 7.5-7.5 7.5z" fill="#1e92d3"/></g><g><g><path d="m241.034 86.265h-41.638c-4.142 0-7.5-3.357-7.5-7.5s3.358-7.5 7.5-7.5h41.638c4.142 0 7.5 3.357 7.5 7.5s-3.358 7.5-7.5 7.5z" fill="#1e92d3"/></g></g><g><path d="m240.303 104.432h-83.035c-6.6 0-12-5.4-12-12 0-5.67-4.596-10.266-10.265-10.266h-30.414c-9.056 0-16.397 7.341-16.397 16.397v68.385h188.644c-18.379-15.956-31.535-37.775-36.533-62.516z" fill="#ffdd40"/></g><path d="m157.268 104.432c-6.6 0-12-5.4-12-12 0-5.67-4.596-10.266-10.265-10.266h-30.414c-9.056 0-16.397 7.341-16.397 16.397v68.385h78.506v-62.517h-9.43z" fill="#ffb332"/><g fill="#1e92d3"><path d="m323.345 178.639c-4.142 0-7.5 3.357-7.5 7.5v318.485c5.065-1.272 10.066-2.704 15-4.285v-314.2c0-4.142-3.358-7.5-7.5-7.5z"/><path d="m95.692 452.279v-353.716c0-4.906 3.991-8.897 8.897-8.897h30.414c1.525 0 2.765 1.24 2.765 2.766 0 10.752 8.748 19.5 19.5 19.5h88.035c4.142 0 7.5-3.357 7.5-7.5s-3.358-7.5-7.5-7.5h-88.035c-2.439 0-4.5-2.061-4.5-4.5 0-9.796-7.969-17.766-17.765-17.766h-30.414c-.126 0-.251.008-.377.01-8.226 6.501-16.017 13.526-23.341 21.011-.114.944-.179 1.903-.179 2.877v339.563c4.803 4.918 9.8 9.649 15 14.152z"/></g><path d="m104.589 89.666h30.414c1.525 0 2.765 1.24 2.765 2.766 0 10.752 8.748 19.5 19.5 19.5h9.281c-.083-.21-.195-.41-.337-.59-5.346-6.752-2.011-11.405.082-13.366.306-.286.489-.655.58-1.045h-9.606c-2.439 0-4.5-2.061-4.5-4.5 0-9.796-7.969-17.766-17.765-17.766h-30.414c-13.177 0-23.897 10.721-23.897 23.897v339.552c4.8 4.918 9.803 9.636 15 14.138v-353.689c0-4.906 3.991-8.897 8.897-8.897z" fill="#167cc1"/><g><path d="m123.185 110.235h-10.333c-4.142 0-7.5-3.357-7.5-7.5s3.358-7.5 7.5-7.5h10.333c4.142 0 7.5 3.357 7.5 7.5s-3.358 7.5-7.5 7.5z" fill="#e9efff"/></g><path d="m190.754 285.383h-62.091c-5.854 0-10.644-4.79-10.644-10.644v-62.091c0-5.854 4.79-10.644 10.644-10.644h62.091c5.854 0 10.644 4.79 10.644 10.644v62.091c0 5.854-4.79 10.644-10.644 10.644z" fill="#ff4155"/><path d="m190.754 415.37h-62.091c-5.854 0-10.644 4.79-10.644 10.644v43.452c17.886 12.213 37.471 22.116 58.33 29.284h14.406c5.854 0 10.644-4.79 10.644-10.644v-62.091c0-5.855-4.791-10.645-10.645-10.645z" fill="#ff4155"/><g><path d="m230.398 221.294h-2.378c-4.142 0-7.5-3.357-7.5-7.5s3.358-7.5 7.5-7.5h2.378c4.142 0 7.5 3.357 7.5 7.5s-3.358 7.5-7.5 7.5z" fill="#bec8f7"/></g><g><path d="m255.564 327.977h-27.545c-4.142 0-7.5-3.357-7.5-7.5s3.358-7.5 7.5-7.5h27.545c4.142 0 7.5 3.357 7.5 7.5s-3.358 7.5-7.5 7.5z" fill="#bec8f7"/></g><g><path d="m255.564 434.661h-27.545c-4.142 0-7.5-3.357-7.5-7.5s3.358-7.5 7.5-7.5h27.545c4.142 0 7.5 3.357 7.5 7.5s-3.358 7.5-7.5 7.5z" fill="#bec8f7"/></g><g><path d="m247.231 251.193h-19.212c-4.142 0-7.5-3.358-7.5-7.5 0-4.143 3.358-7.5 7.5-7.5h19.212c4.142 0 7.5 3.357 7.5 7.5 0 4.142-3.358 7.5-7.5 7.5z" fill="#bec8f7"/></g><g><path d="m294.685 357.876h-66.666c-4.142 0-7.5-3.357-7.5-7.5 0-4.142 3.358-7.5 7.5-7.5h66.666c4.142 0 7.5 3.358 7.5 7.5 0 4.143-3.358 7.5-7.5 7.5z" fill="#bec8f7"/></g><g><path d="m294.685 464.56h-66.666c-4.142 0-7.5-3.357-7.5-7.5 0-4.142 3.358-7.5 7.5-7.5h66.666c4.142 0 7.5 3.358 7.5 7.5 0 4.143-3.358 7.5-7.5 7.5z" fill="#bec8f7"/></g><g><path d="m294.685 281.092h-66.666c-4.142 0-7.5-3.358-7.5-7.5 0-4.143 3.358-7.5 7.5-7.5h66.666c4.142 0 7.5 3.357 7.5 7.5s-3.358 7.5-7.5 7.5z" fill="#bec8f7"/></g><g><path d="m294.685 387.776h-66.666c-4.142 0-7.5-3.358-7.5-7.5 0-4.143 3.358-7.5 7.5-7.5h66.666c4.142 0 7.5 3.357 7.5 7.5 0 4.142-3.358 7.5-7.5 7.5z" fill="#bec8f7"/></g><g><path d="m294.685 494.458h-66.666c-4.142 0-7.5-3.357-7.5-7.5s3.358-7.5 7.5-7.5h66.666c4.142 0 7.5 3.357 7.5 7.5s-3.358 7.5-7.5 7.5z" fill="#bec8f7"/></g><g><g><circle cx="335.099" cy="126.182" fill="#9bd8f9" r="126.182"/></g><path d="m421.268 215.638c-7.495-1.864-9.862-7.79-10.61-11.384-.322-1.548-1.502-2.806-3.06-3.08-5.551-.974-7.209-4.945-7.683-7.672-.282-1.619-1.575-2.872-3.191-3.168-48.85-8.954-45.207-50.797-44.236-57.835.095-.688.005-1.381-.256-2.024l-4.433-10.921c-.489-1.204-1.538-2.102-2.808-2.378-30.751-6.698-27.108-33.148-26.128-38.153.112-.572.093-1.156-.05-1.721l-3.079-12.186c-.355-1.403-1.439-2.53-2.846-2.869-11.224-2.702-11.598-12.767-10.981-18.007.208-1.771-.822-3.42-2.461-4.123-4.911-2.107-5.218-6.277-4.671-9.289.343-1.887-.766-3.747-2.575-4.385-7.47-2.632-7.844-9.402-7.361-13.337.108-.882-.099-1.739-.535-2.462-13.944 6.127-27.009 14.894-38.427 26.313-49.277 49.277-49.277 129.171 0 178.448 48.864 48.863 127.827 49.264 177.196 1.22-.489-.459-1.097-.811-1.805-.987z" fill="#73c3f9"/><g><circle cx="335.099" cy="126.182" fill="#4fabf7" r="98.903"/></g><path d="m399.915 193.503c-.282-1.619-1.575-2.872-3.191-3.168-48.85-8.954-45.207-50.797-44.236-57.835.095-.688.005-1.381-.256-2.024l-4.433-10.921c-.489-1.204-1.538-2.102-2.808-2.378-30.751-6.698-27.108-33.148-26.128-38.153.112-.572.093-1.156-.05-1.721l-3.079-12.186c-.355-1.403-1.439-2.53-2.846-2.869-11.224-2.702-11.598-12.767-10.981-18.007.208-1.771-.822-3.42-2.461-4.123-2.494-1.07-3.797-2.672-4.408-4.384-10.837 4.797-20.99 11.631-29.872 20.513-38.624 38.624-38.624 101.246 0 139.87 37.766 37.766 98.472 38.598 137.257 2.509-1.568-1.584-2.236-3.558-2.508-5.123z" fill="#1e9ef4"/><g><g><path d="m259.885 201.397c-41.568-41.57-41.575-108.854 0-150.429 41.473-41.472 108.955-41.472 150.428 0 41.473 41.473 41.473 108.955 0 150.429-41.473 41.471-108.954 41.473-150.428 0zm-16.224-75.215c0 81.263 98.878 121.872 156.093 64.656 35.651-35.652 35.651-93.66 0-129.311-57.124-57.124-156.093-16.767-156.093 64.655z" fill="#73c3f9"/></g></g><path d="m407.598 201.175c-5.551-.974-7.209-4.945-7.683-7.672-.127-.732-.469-1.381-.946-1.909-57.329 56.077-155.308 15.483-155.308-65.412 0-41.096 25.217-71.719 57.536-84.639-.432-.61-1.028-1.113-1.754-1.425-4.911-2.107-5.218-6.277-4.671-9.289.184-1.013-.06-2.01-.596-2.823-12.477 5.181-24.162 12.83-34.292 22.961-41.576 41.575-41.568 108.859 0 150.429 41.212 41.211 108.098 41.463 149.633.775-.519-.505-1.174-.866-1.919-.996z" fill="#4fabf7"/></g><g><path d="m445.292 236.375c3.644-3.644 8.324-5.602 13.092-5.913l-25.498-25.498c-5.248-5.248-13.757-5.248-19.005 0s-5.248 13.757 0 19.005l25.498 25.498c.311-4.768 2.269-9.448 5.913-13.092z" fill="#e9efff"/></g><g><g><g><path d="m342.647 186.119c0-4.169-3.38-7.549-7.549-7.549s-7.549 3.38-7.549 7.549 3.38 7.549 7.549 7.549 7.549-3.379 7.549-7.549z" fill="#e9efff"/></g></g></g><g><g><g><g><path d="m335.098 168.801c-4.123 0-7.466-3.342-7.466-7.466v-33.189c0-4.124 3.343-7.466 7.466-7.466 6.718 0 12.969-2.687 17.602-7.567 4.63-4.877 6.987-11.272 6.638-18.008-.655-12.624-11.081-22.711-23.735-22.967-12.334-.228-22.848 8.726-24.544 20.874-.156 1.115-.235 2.258-.235 3.395 0 4.124-3.343 7.466-7.466 7.466s-7.466-3.342-7.466-7.466c0-1.825.127-3.661.378-5.458 2.74-19.635 19.776-34.179 39.633-33.738 20.443.411 37.286 16.716 38.345 37.121.564 10.866-3.243 21.187-10.721 29.063-5.731 6.036-12.998 9.994-20.965 11.516v26.425c.002 4.123-3.34 7.465-7.464 7.465z" fill="#e9efff"/></g></g></g></g><path d="m443.884 234.967c-7.969 7.969-7.969 20.89 0 28.859l52.206 52.206c3.219-15.844 4.912-32.241 4.912-49.034 0-1.277-.029-2.547-.048-3.82l-28.211-28.211c-7.969-7.969-20.89-7.969-28.859 0z" fill="#ff4155"/><path d="m476.252 264.376c5.271-5.27 12.442-7.453 19.307-6.594l-22.815-22.815c-7.969-7.969-20.89-7.969-28.859 0s-7.969 20.89 0 28.859l28.91 28.91c-5.374-8.92-4.239-20.664 3.457-28.36z" fill="#e80054"/><path d="m128.663 202.003c-5.854 0-10.644 4.79-10.644 10.644v62.091c0 5.854 4.789 10.644 10.644 10.644h38.035c-14.614-14.614 0-32.315 0-32.315l-16.769-27.617c-18.26-4.837-7.157-23.448-7.157-23.448h-14.109z" fill="#e80054"/><path d="m174.545 239.335-20.655-13.205c-3.443-2.201-7.959.272-7.959 4.358v26.411c0 4.086 4.516 6.559 7.959 4.358l20.655-13.205c3.182-2.035 3.182-6.683 0-8.717z" fill="#e9efff"/><path d="m190.754 392.066h-62.091c-5.854 0-10.644-4.79-10.644-10.644v-62.091c0-5.854 4.79-10.644 10.644-10.644h62.091c5.854 0 10.644 4.79 10.644 10.644v62.091c0 5.854-4.79 10.644-10.644 10.644z" fill="#ff4155"/><path d="m128.663 308.686c-5.854 0-10.644 4.79-10.644 10.644v62.091c0 5.854 4.789 10.644 10.644 10.644h38.035c-14.614-14.614 0-32.315 0-32.315l-16.769-27.617c-18.26-4.836-7.157-23.448-7.157-23.448h-14.109z" fill="#e80054"/><path d="m174.545 346.018-20.655-13.205c-3.443-2.201-7.959.272-7.959 4.358v26.411c0 4.087 4.516 6.559 7.959 4.358l20.655-13.205c3.182-2.035 3.182-6.682 0-8.717z" fill="#e9efff"/><path d="m128.663 415.37c-5.854 0-10.644 4.79-10.644 10.644v43.451c13.947 9.523 28.931 17.635 44.743 24.148-7.493-13.318 3.936-27.178 3.936-27.178l-16.769-27.617c-18.259-4.836-7.158-23.446-7.158-23.446z" fill="#e80054"/><path d="m174.545 452.702-20.655-13.205c-3.443-2.201-7.959.272-7.959 4.358v26.411c0 4.086 4.516 6.559 7.959 4.358l20.655-13.205c3.182-2.036 3.182-6.683 0-8.717z" fill="#e9efff"/></g></svg>