<?xml version="1.0" encoding="iso-8859-1"?>
<!-- Generator: Adobe Illustrator 19.0.0, SVG Export Plug-In . SVG Version: 6.00 Build 0)  -->
<svg version="1.1" id="Capa_1" xmlns="http://www.w3.org/2000/svg" xmlns:xlink="http://www.w3.org/1999/xlink" x="0px" y="0px"
	 viewBox="0 0 512 512" style="enable-background:new 0 0 512 512;" xml:space="preserve">
<path style="fill:#EA4444;" d="M512,256c0,141.385-114.615,256-256,256S0,397.385,0,256S114.615,0,256,0S512,114.615,512,256z"/>
<path style="fill:#FFF5F5;" d="M91.336,60H376v370H68.246c-8.029-8.659-15.465-17.872-22.246-27.58V109.58
	C58.89,91.127,74.148,74.455,91.336,60z"/>
<path style="fill:#FFE7BF;" d="M65.664,402.42c6.781,9.708,14.218,18.921,22.246,27.58H68.246
	c-8.029-8.659-15.465-17.873-22.246-27.58V109.58C58.89,91.127,74.148,74.456,91.336,60H111
	c-17.188,14.456-32.446,31.127-45.336,49.58V402.42z"/>
<path style="fill:#FFE1A8;" d="M76,140v-11c0-1.104,0.895-2,2-2h126c1.105,0,2,0.896,2,2v11c0,1.104-0.895,2-2,2H78
	C76.895,142,76,141.104,76,140z M78,170h88.857c1.105,0,2-0.896,2-2v-11c0-1.104-0.895-2-2-2H78c-1.105,0-2,0.896-2,2v11
	C76,169.104,76.895,170,78,170z M344,217H78c-1.105,0-2,0.896-2,2v11c0,1.104,0.895,2,2,2h266c1.105,0,2-0.896,2-2v-11
	C346,217.896,345.105,217,344,217z M78,261.333h226c1.105,0,2-0.895,2-2v-11c0-1.104-0.895-2-2-2H78c-1.105,0-2,0.896-2,2v11
	C76,260.438,76.895,261.333,78,261.333z M344,275.667H78c-1.105,0-2,0.896-2,2v11c0,1.105,0.895,2,2,2h266c1.105,0,2-0.895,2-2v-11
	C346,276.562,345.105,275.667,344,275.667z M224,305H78c-1.105,0-2,0.896-2,2v11c0,1.104,0.895,2,2,2h146c1.105,0,2-0.896,2-2v-11
	C226,305.896,225.105,305,224,305z"/>
<path style="fill:#90D2E3;" d="M376,50v50H53.029c18.163-23.596,40.338-43.942,65.519-60H366C371.523,40,376,44.477,376,50z"/>
<path style="fill:#0DB2D0;" d="M176.667,40v30c0,5.523-4.477,10-10,10s-10-4.477-10-10V40c0-5.523,4.477-10,10-10
	C172.189,30,176.667,34.477,176.667,40z M210,30c-5.523,0-10,4.477-10,10v30c0,5.523,4.477,10,10,10s10-4.477,10-10V40
	C220,34.477,215.523,30,210,30z M113.333,43.415V70c0,5.523,4.477,10,10,10s10-4.477,10-10V40c0-2.773-1.13-5.281-2.953-7.093
	C124.554,36.195,118.865,39.695,113.333,43.415z M253.333,30c-5.523,0-10,4.477-10,10v30c0,5.523,4.477,10,10,10s10-4.477,10-10V40
	C263.333,34.477,258.856,30,253.333,30z M340,30c-5.523,0-10,4.477-10,10v30c0,5.523,4.477,10,10,10s10-4.477,10-10V40
	C350,34.477,345.523,30,340,30z M296.667,30c-5.523,0-10,4.477-10,10v30c0,5.523,4.477,10,10,10s10-4.477,10-10V40
	C306.667,34.477,302.189,30,296.667,30z M72.935,77.076C74.744,78.883,77.241,80,80,80c5.523,0,10-4.477,10-10v-8.87
	C84.071,66.186,78.378,71.507,72.935,77.076z"/>
<path style="fill:#C5D3DD;" d="M386,476L386,476c-44.183,0-80-35.817-80-80v-80c0-44.183,35.817-80,80-80l0,0
	c44.183,0,80,35.817,80,80v80C466,440.183,430.183,476,386,476z"/>
<path style="fill:#D9E7EC;" d="M466,316v80c0,44.183-35.817,80-80,80l0,0c-2.476,0-4.92-0.129-7.339-0.349
	C354.391,461.913,338,435.879,338,406V306c0-29.878,16.391-55.913,40.661-69.651c2.418-0.22,4.863-0.349,7.339-0.349l0,0
	C430.183,236,466,271.817,466,316z"/>
<path style="fill:#9FACBA;" d="M386,326L386,326c-8.284,0-15-6.716-15-15v-20c0-8.284,6.716-15,15-15l0,0c8.284,0,15,6.716,15,15v20
	C401,319.284,394.284,326,386,326z"/>
<g>
</g>
<g>
</g>
<g>
</g>
<g>
</g>
<g>
</g>
<g>
</g>
<g>
</g>
<g>
</g>
<g>
</g>
<g>
</g>
<g>
</g>
<g>
</g>
<g>
</g>
<g>
</g>
<g>
</g>
</svg>
