<svg id="Capa_1" enable-background="new 0 0 512 512" height="512" viewBox="0 0 512 512" width="512" xmlns="http://www.w3.org/2000/svg"><path d="m512 255.775c.069 80.341-36.876 152.071-94.73 199.045l-26.893 9.535c-86.933 30.823-181.821 30.823-268.754 0l-26.893-9.535c-57.8-46.93-94.73-118.57-94.73-198.82 0-139.788 112.053-253.415 251.234-255.957 142.092-2.594 260.644 113.617 260.766 255.732z" fill="#22d7ff"/><path d="m512 256c0 80.25-36.93 151.88-94.73 198.82l-26.893 9.535c-86.933 30.823-181.821 30.823-268.754 0l-26.893-9.535c-57.8-46.94-94.73-118.57-94.73-198.82 0-46.22 12.25-89.57 33.68-127 44.12 77.07 127.16 129 222.32 129s178.21-51.93 222.32-129c21.43 37.43 33.68 80.78 33.68 127z" fill="#00b3fe"/><path d="m417.27 454.82c-44.02 35.75-100.14 57.18-161.27 57.18-27.97 0-54.89-4.49-80.09-12.78-29.86-9.83-57.3-25-81.18-44.4 2.98-22.14 10.41-42.87 21.37-61.25 15.74-26.41 20.1-58.05 13.25-88.02-2.14-9.33-3.26-19.05-3.26-29.04 0-1.06.01-2.11.04-3.16 1.12-47.01 40.26-84.23 87.28-84.23h85.15c47.62 0 86.76 38.14 87.34 85.76.01.33.01.67.01 1 .05 10.77-1.21 21.24-3.63 31.25-7.09 29.33-2.08 60.4 13.43 86.28 11.05 18.43 18.55 39.21 21.56 61.41z" fill="#f4873d"/><path d="m417.27 454.82c-44.02 35.75-100.14 57.18-161.27 57.18-27.97 0-54.89-4.49-80.09-12.78-.8-6.76-1.24-13.78-1.27-20.98-.01-.5-.01-1-.01-1.49 0-30.4 4.17-58.84 11.42-83.18 7.87-26.41 10.05-58.05 6.63-88.02-1.07-9.33-1.63-19.05-1.63-29.04 0-1.06 0-2.11.02-3.16.56-47.01 20.13-84.23 43.64-84.23h63.85c47.62 0 86.76 38.14 87.34 85.76.01.33.01.67.01 1 .05 10.77-1.21 21.24-3.63 31.25-7.09 29.33-2.08 60.4 13.43 86.28 11.05 18.43 18.55 39.21 21.56 61.41z" fill="#ec781b"/><path d="m417.27 454.82c-44.02 35.75-100.14 57.18-161.27 57.18v-322.88h42.56c47.62 0 86.76 38.14 87.34 85.76.01.33.01.67.01 1 .05 10.77-1.21 21.24-3.63 31.25-7.09 29.33-2.08 60.4 13.43 86.28 11.05 18.43 18.55 39.21 21.56 61.41z" fill="#c55733"/><circle cx="256" cy="389.5" fill="#fff" r="54.4"/><path d="m310.4 389.5c0 30.04-24.35 54.4-54.4 54.4v-108.8c30.05 0 54.4 24.35 54.4 54.4z" fill="#d1f6ff"/><path d="m287.99 389.5c0 17.67-14.32 31.99-31.99 31.99s-31.99-14.32-31.99-31.99 14.32-32 31.99-32 31.99 14.33 31.99 32z" fill="#234177"/><path d="m287.99 389.5c0 17.67-14.32 31.99-31.99 31.99v-63.99c17.67 0 31.99 14.33 31.99 32z" fill="#16325b"/><path d="m310.4 474.01v14.54c0 5.52-4.47 9.98-9.98 9.98h-88.84c-5.51 0-9.98-4.46-9.98-9.98v-14.54c0-5.51 4.47-9.98 9.98-9.98h88.84c5.51 0 9.98 4.47 9.98 9.98z" fill="#234177"/><path d="m310.4 474.01v14.54c0 5.52-4.47 9.98-9.98 9.98h-44.42v-34.5h44.42c5.51 0 9.98 4.47 9.98 9.98z" fill="#16325b"/><path d="m292.94 296.99h-73.88l3.91-294.87c4.59-.6 9.23-1.07 13.9-1.41 2.02-.16 4.05-.28 6.09-.39 3.31-.16 6.64-.26 9.99-.3 1.02-.01 2.03-.02 3.05-.02s2.03.01 3.05.02c3.35.04 6.68.14 9.99.3 2.04.11 4.07.23 6.09.39 4.67.34 9.31.81 13.9 1.41z" fill="#374c81"/><path d="m292.94 296.99h-36.94v-296.99c1.02 0 2.03.01 3.05.02 3.35.04 6.68.14 9.99.3 2.04.11 4.07.23 6.09.39 4.67.34 9.31.81 13.9 1.41z" fill="#234177"/><path d="m310.4 290.44v14.54c0 5.52-4.47 9.98-9.98 9.98h-88.84c-5.51 0-9.98-4.46-9.98-9.98v-14.54c0-5.51 4.47-9.98 9.98-9.98h88.84c5.51 0 9.98 4.47 9.98 9.98z" fill="#234177"/><path d="m310.4 290.44v14.54c0 5.52-4.47 9.98-9.98 9.98h-44.42v-34.5h44.42c5.51 0 9.98 4.47 9.98 9.98z" fill="#16325b"/><g fill="#8fc8f5"><path d="m242.96.32v477.92c0 1.68-1.36 3.04-3.04 3.04-1.69 0-3.05-1.36-3.05-3.04v-477.53c2.02-.16 4.05-.28 6.09-.39z"/><path d="m259.05.02v478.22c0 1.68-1.37 3.04-3.05 3.04s-3.05-1.36-3.05-3.04v-478.22c1.02-.01 2.03-.02 3.05-.02s2.03.01 3.05.02z"/><path d="m275.13.71v477.52c0 1.69-1.36 3.05-3.05 3.05-1.68 0-3.04-1.36-3.04-3.05v-477.91c2.04.11 4.07.23 6.09.39z"/></g></svg>