<svg id="Capa_1" enable-background="new 0 0 512 512" height="512" viewBox="0 0 512 512" width="512" xmlns="http://www.w3.org/2000/svg"><g><g><g><g><g><g><g><circle cx="256" cy="256" fill="#ff6c52" r="256"/></g></g></g></g></g></g><path d="m512 256c0-9.265-.492-18.414-1.452-27.424l-129.802-129.802-250.282 320.643 1.624 1.757 88.534 88.402c11.564 1.597 23.374 2.424 35.378 2.424 141.385 0 256-114.615 256-256z" fill="#f92814"/><g><path d="m385.665 409.43c0 21.951-58.053 39.747-129.665 39.747s-129.665-17.795-129.665-39.747v-299.775h259.33z" fill="#ffce00"/></g><g><path d="m256.12 109.655v339.521c71.556-.02 129.544-17.807 129.544-39.746v-299.775z" fill="#fdba12"/></g><g><ellipse cx="256" cy="409.43" fill="#fa0" rx="129.665" ry="39.747"/></g><g><path d="m385.665 409.43c0-21.939-57.988-39.726-129.544-39.746v79.492c71.556-.02 129.544-17.807 129.544-39.746z" fill="#ff9500"/></g><g><path d="m271 421.02h-30v-30.389h30zm0-47.389h-30v-33h30zm0-50h-30v-33h30zm0-50h-30v-33h30zm0-50h-30v-33h30zm0-50h-30v-33h30z" fill="#7584f2"/></g><g fill="#606aea"><path d="m256.12 340.631h14.88v33h-14.88z"/><path d="m256.12 290.631h14.88v33h-14.88z"/><path d="m256.12 240.631h14.88v33h-14.88z"/><path d="m256.12 190.631h14.88v33h-14.88z"/><path d="m256.12 390.631h14.88v30.389h-14.88z"/><path d="m256.12 140.631h14.88v33h-14.88z"/></g><g><ellipse cx="256" cy="109.655" fill="#fa0" rx="129.665" ry="39.746"/></g><g><path d="m385.665 109.655c0-21.939-57.988-39.726-129.544-39.746v79.492c71.556-.02 129.544-17.806 129.544-39.746z" fill="#ff9500"/></g></g></svg>