<svg id="Capa_1" enable-background="new 0 0 512 512" height="512" viewBox="0 0 512 512" width="512" xmlns="http://www.w3.org/2000/svg"><g><g><path d="m256 289.971c-141.387 0-244.128-122.207-223.312-159.237 43.86-78.024 127.429-130.734 223.312-130.734 95.88 0 179.447 52.707 223.309 130.729 20.818 37.031-81.922 159.242-223.309 159.242z" fill="#8bfff4"/><path d="m512 256c0 26.051-3.891 51.191-11.129 74.871-5.031 16.469-11.672 32.231-19.75 47.109-8.25 15.2-147.391 47.465-225.121 47.465s-216.871-32.265-225.109-47.465c-3.289-6.031-6.332-12.21-9.121-18.531-14-31.629-21.77-66.629-21.77-103.449 0-46.219 12.25-89.57 33.68-127 44.121 77.07 127.16 129 222.32 129s178.211-51.93 222.32-129c21.43 37.43 33.68 80.781 33.68 127zm0 0" fill="#2dceea"/><path d="m481.262 377.699c-7.16 13.223-15.434 25.742-24.723 37.43-5.048 6.362-10.399 12.475-16.025 18.32-3.777 3.923-24.888 1.748-28.905 5.424-8.68 7.948-.698 21.284-10.413 27.987-41.258 28.468-91.282 45.14-145.196 45.14-53.742 0-103.619-16.566-144.801-44.868-9.86-6.776-2.393-20.679-11.19-28.734-4.017-3.677-24.746-1.025-28.523-4.949-5.626-5.845-10.976-11.957-16.024-18.319-9.289-11.688-17.563-24.207-24.723-37.43h450.523zm0 0" fill="#429dea"/></g><g><path d="m440.515 143.216h-184.516l-141.269 162.172h282.539z" fill="#ff7040"/><path d="m433.332 440.622-36.062-135.234h-282.54l141.27 162.172h144.172c11.799-8.057 22.89-17.072 33.16-26.938z" fill="#ff3744"/><path d="m440.515 143.216-162.172 162.172 144.647 144.646c6.1-5.254 11.947-10.794 17.525-16.594z" fill="#ff4f42"/><path d="m71.484 143.216h184.515v162.172h-141.269z" fill="#ff7040"/><path d="m78.668 440.621c10.27 9.867 21.361 18.882 33.161 26.939h144.171v-162.172h-141.27z" fill="#ff3744"/><path d="m71.484 433.44c5.579 5.8 11.425 11.34 17.526 16.594l144.646-144.646-162.172-162.172z" fill="#ff4f42"/><path d="m397.269 186.462h-141.27l-122.529 118.926 122.529 118.926h141.27z" fill="#ffebce"/><path d="m114.73 186.462h141.27v237.852h-141.27z" fill="#fff"/><path d="m255.999 485.219 45.497 22.749c2.872-.515 5.722-1.094 8.56-1.704v-163.34h-108.114z" fill="#ba1956"/><path d="m201.942 506.263c2.838.61 5.688 1.189 8.561 1.704l45.497-22.749v-142.295h-54.057v163.34z" fill="#ff0f47"/><path d="m255.999 229.708-37.84 75.68 37.84 75.68c41.797 0 75.68-33.883 75.68-75.68.001-41.797-33.882-75.68-75.68-75.68z" fill="#ff0f47"/><path d="m180.319 305.388c0 41.797 33.883 75.68 75.68 75.68v-151.36c-41.797 0-75.68 33.883-75.68 75.68z" fill="#ff415d"/><path d="m180.319 305.388c0 41.797 33.883 75.68 75.68 75.68-50.453 0-50.453-151.361 0-151.361-41.797.001-75.68 33.884-75.68 75.681z" fill="#ff7472"/></g></g></svg>