<svg id="Capa_1" enable-background="new 0 0 512 512" height="512" viewBox="0 0 512 512" width="512" xmlns="http://www.w3.org/2000/svg"><path d="m445.75 427.85-69.49 54.18.01.01c-35.86 19.12-76.8 29.96-120.27 29.96-35.02 0-68.39-7.03-98.79-19.77l-77.3-50.41c-49.21-46.66-79.91-112.65-79.91-185.82 0-141.38 114.62-256 256-256s256 114.62 256 256c0 66.14-25.09 126.42-66.25 171.85z" fill="#fd4fb9"/><path d="m445.7 427.89-69.44 54.14.01.01c-35.86 19.12-76.8 29.96-120.27 29.96-35.02 0-68.4-7.03-98.8-19.76l.01-.01-77.24-50.37c-49.25-46.65-79.97-112.67-79.97-185.86 0-46.22 12.25-89.57 33.68-127 44.12 77.07 127.16 129 222.32 129s178.21-51.93 222.32-129c21.43 37.43 33.68 80.78 33.68 127 0 66.16-25.1 126.46-66.3 171.89z" fill="#ea39ab"/><path d="m284.19 319.96-18.49.54-18.48.53-6.63-229.28 18.48-.54 18.49-.54z" fill="#234177"/><path d="m262.381 90.892h18.498v229.386h-18.498z" fill="#16325b" transform="matrix(1 -.029 .029 1 -5.886 8.018)"/><path d="m274.62 304.29-8.92 16.21-8.91 16.2-200.38-110.22 8.91-16.2 8.92-16.21z" fill="#374c81"/><path d="m151.811 159.143h18.489v228.693h-18.489z" fill="#234177" transform="matrix(.482 -.876 .876 .482 -156.197 282.81)"/><path d="m278.74 333.62-146.36 145.33-13.03-13.12-13.03-13.12 146.35-145.33 13.03 13.12h.01z" fill="#374c81"/><path d="m278.74 333.62-146.36 145.33-13.03-13.12 146.35-145.33h.01z" fill="#234177"/><path d="m426.48 446.98c-2.29 2.04-4.62 4.05-6.98 6.01-2.42 2.01-4.87 3.97-7.36 5.88-4.97 3.84-10.09 7.49-15.34 10.96l-143.8-135.89 12.7-13.44 12.71-13.44z" fill="#16325b"/><path d="m412.14 458.87c-4.97 3.84-10.09 7.49-15.34 10.96l-143.8-135.89 12.7-13.44z" fill="#234177"/><path d="m470.47 231.26-196 105.52-8.76-16.28h-.01l-8.76-16.29 196-105.52 8.76 16.28z" fill="#16325b"/><path d="m470.47 231.26-196 105.52-8.76-16.28 195.99-105.53z" fill="#234177"/><ellipse cx="265.704" cy="320.502" fill="#ffe400" rx="71.689" ry="71.689" transform="matrix(.526 -.851 .851 .526 -146.621 378.026)"/><path d="m337.393 320.502c0 39.585-32.095 71.689-71.689 71.689-19.797 0-35.84-32.104-35.84-71.689 0-39.594 16.043-71.689 35.84-71.689 39.594 0 71.689 32.095 71.689 71.689z" fill="#ffce00"/><path d="m265.705 248.809v143.378c39.593 0 71.689-32.096 71.689-71.689s-32.096-71.689-71.689-71.689z" fill="#ffb600"/><ellipse cx="458.855" cy="217.634" fill="#b6e337" rx="45.8" ry="45.8" transform="matrix(.526 -.851 .851 .526 32.49 493.543)"/><path d="m504.654 217.634c0 25.289-20.504 45.8-45.8 45.8-12.648 0-22.897-20.51-22.897-45.8 0-25.295 10.249-45.8 22.897-45.8 25.296 0 45.8 20.505 45.8 45.8z" fill="#6cdc2d"/><path d="m458.855 171.832v91.6c25.295 0 45.8-20.505 45.8-45.8s-20.505-45.8-45.8-45.8z" fill="#57b718"/><ellipse cx="259.07" cy="91.21" fill="#6cdc2d" rx="37.79" ry="37.79" transform="matrix(.526 -.851 .851 .526 45.281 263.637)"/><path d="m296.86 91.21c0 20.866-16.918 37.79-37.79 37.79-10.436 0-18.892-16.923-18.892-37.79 0-20.871 8.457-37.79 18.892-37.79 20.872.001 37.79 16.919 37.79 37.79z" fill="#57b718"/><path d="m259.071 53.418v75.58c20.871 0 37.79-16.919 37.79-37.79s-16.919-37.79-37.79-37.79z" fill="#038c3b"/><path d="m445.75 427.85c-8.15 8.98-16.92 17.39-26.25 25.14-7.33 6.09-15 11.77-22.98 17.02-6.55 4.31-13.31 8.33-20.26 12.02-1.9-5.04-2.93-10.5-2.93-16.2 0-25.49 20.67-46.16 46.17-46.16 9.75 0 18.8 3.03 26.25 8.18z" fill="#6cdc2d"/><path d="m445.75 427.85c-8.15 8.98-16.92 17.39-26.25 25.14-7.33 6.09-15 11.77-22.98 17.02-.07-1.38-.1-2.77-.1-4.18 0-25.49 10.33-46.16 23.08-46.16 9.75 0 18.8 3.03 26.25 8.18z" fill="#57b718"/><path d="m445.75 427.85c-8.15 8.98-16.92 17.39-26.25 25.14v-33.33c9.75 0 18.8 3.03 26.25 8.19z" fill="#038c3b"/><path d="m165.51 465.83c0 9.82-3.07 18.92-8.3 26.4-28.82-12.06-54.97-29.24-77.3-50.41 8.1-13.29 22.73-22.16 39.44-22.16 25.49 0 46.16 20.67 46.16 46.17z" fill="#b6e337"/><path d="m165.51 465.83c0 9.82-3.07 18.92-8.3 26.4-21.86-9.15-42.19-21.24-60.47-35.79 2.17-21 11.47-36.78 22.61-36.78 25.49 0 46.16 20.67 46.16 46.17z" fill="#6cdc2d"/><path d="m165.51 465.83c0 9.82-3.07 18.92-8.29 26.4h-.01c-13.22-5.53-25.88-12.14-37.86-19.72v-52.85c25.49 0 46.16 20.67 46.16 46.17z" fill="#57b718"/><ellipse cx="65.324" cy="210.28" fill="#6cdc2d" rx="46.168" ry="46.168" transform="matrix(.526 -.851 .851 .526 -147.894 155.297)"/><path d="m111.492 210.28c0 25.493-20.669 46.168-46.168 46.168-12.749 0-23.081-20.675-23.081-46.168 0-25.499 10.332-46.168 23.081-46.168 25.498 0 46.168 20.669 46.168 46.168z" fill="#57b718"/><path d="m65.324 164.109v92.336c25.498 0 46.168-20.67 46.168-46.168s-20.67-46.168-46.168-46.168z" fill="#038c3b"/></svg>