<svg id="Icons" enable-background="new 0 0 512 512" height="512" viewBox="0 0 512 512" width="512" xmlns="http://www.w3.org/2000/svg"><g><path d="m512 256c0 112.71-72.84 208.41-174.02 242.59-3.74 1.26-7.52 2.44-11.34 3.54-9.26 2.65-18.75 4.8-28.41 6.4-13.74 2.28-27.85 3.47-42.23 3.47-14.2 0-28.13-1.16-41.7-3.39-9.67-1.57-19.16-3.7-28.43-6.33-3.82-1.09-7.6-2.26-11.34-3.52-101.44-34.03-174.53-129.86-174.53-242.76 0-141.38 114.62-256 256-256s256 114.62 256 256z" fill="#6052a3"/><g><g><g><path d="m252.78 45.21c-12.332 151.082-25.967 311.962-38.48 463.4-13.623-2.22-26.801-5.49-39.77-9.85 8.358-100.482 18.103-217.595 26.44-317.73 2.882-34.587 6.379-76.617 9.23-110.969 0 0 2.21-26.51 2.21-26.51.68-8.23 6.2-14.9 13.53-17.44 12.805-4.664 27.102 5.513 26.84 19.099z" fill="#a26d5a"/><path d="m252.78 45.21c-12.332 151.082-25.967 311.962-38.48 463.4-9.67-1.57-19.16-3.7-28.43-6.33 9.748-117.167 20.648-248.048 30.36-364.85 1.303-15.7 2.941-35.337 4.25-51.09.942-11.234 3.704-44.451 4.67-56.06.12-1.44.39-2.84.79-4.17 12.81-4.689 27.1 5.538 26.84 19.1z" fill="#c17e62"/></g><g><path d="m337.98 498.59c-12.962 4.372-26.134 7.682-39.75 9.94-5.356-64.398-13.234-158.9-18.5-222.32-5.055-60.671-14.999-180.143-19.92-239.3-1.421-14.231 13.217-25.723 26.77-20.8 7.33 2.54 12.86 9.21 13.54 17.44l2.21 26.51c1.069 12.976 2.645 31.824 3.72 44.76 10.417 125.133 21.479 258.236 31.93 383.77z" fill="#a26d5a"/><path d="m326.64 502.13c-9.26 2.65-18.75 4.8-28.41 6.4-9.343-112.22-21.502-258.401-30.89-371.1-1.304-15.699-2.941-35.338-4.25-51.09-.795-10.363-2.673-30.669-3.35-41.13-.263-13.532 14.038-23.803 26.84-19.1.41 1.33.67 2.73.8 4.17.988 11.876 3.734 44.867 4.66 56.06 2.715 32.472 5.877 70.627 8.59 103.19 8.287 99.637 17.677 212.376 26.01 312.6z" fill="#c17e62"/></g></g><g><path d="m336.425 82.066v20.749c.042 6.479-5.346 12.039-12.002 12.003h-136.317c-6.625 0-12.002-5.377-12.002-12.003v-20.749c0-5.774 4.073-10.585 9.495-11.742.805-.17 1.645-.261 2.507-.261h136.317c6.624 0 12.002 5.367 12.002 12.003z" fill="#a26d5a"/><path d="m336.425 82.066c-.058.717.169 23.202-.193 22.894-.805.17-1.645.261-2.507.261h-136.317c-6.625 0-12.003-5.366-12.003-12.003-.075-.709-.072-23.205.193-22.893.805-.17 1.645-.261 2.507-.261h136.317c6.625-.001 12.003 5.366 12.003 12.002z" fill="#d48d77"/><path d="m319.841 86.34h-112.017c-10.752-.384-10.81-15.869 0-16.277h112.017c10.752.384 10.81 15.869 0 16.277z" fill="#eea47d"/></g><g><g><g><path d="m423.51 114.82h-335.02c-6.24 0-11.3 5.06-11.3 11.3v256.85c0 6.24 5.06 11.31 11.3 11.31h335.02c6.25 0 11.3-5.07 11.3-11.31v-256.85c0-6.24-5.05-11.3-11.3-11.3zm-11.31 256.85h-312.4v-234.24h312.4z" fill="#a26d5a"/><path d="m413.82 123.83h-315.62c-5.85 0-10.58 4.73-10.58 10.57v240.3c0 5.83 4.73 10.56 10.58 10.56h315.62c5.84 0 10.58-4.73 10.58-10.56v-240.3c0-5.84-4.74-10.57-10.58-10.57zm-1.62 247.84h-312.4v-234.24h312.4z" fill="#d48d77"/><g fill="#eea47d"><path d="m99.796 179.397v103.959c0 3.363-2.726 6.089-6.089 6.089s-6.089-2.726-6.089-6.089v-103.959c.264-8.03 11.892-8.086 12.178 0z"/><path d="m424.382 234.766v103.959c0 3.363-2.726 6.089-6.089 6.089s-6.089-2.726-6.089-6.089v-103.959c.264-8.03 11.892-8.086 12.178 0z"/><path d="m259.453 137.427h-116.054c-3.754 0-6.798-3.043-6.798-6.798 0-3.754 3.043-6.798 6.798-6.798h116.054c8.964.296 9.027 13.277 0 13.596z"/><path d="m369.849 385.264h-150.088c-8.953-.29-9.037-13.273 0-13.595h150.088c8.953.289 9.037 13.272 0 13.595z"/></g></g><path d="m99.796 137.427h312.408v234.241h-312.408z" fill="#fff"/></g></g><g><g><path d="m193.487 180.62v67.764h67.764c0-37.425-30.339-67.764-67.764-67.764z" fill="#df3d81"/><path d="m142.776 305.988c41.819 42.327 115.862 12.323 115.681-47.917h-67.764z" fill="#53b976"/><g><path d="m183.799 183.414c-60.27-.173-90.226 73.882-47.916 115.681l47.916-47.917z" fill="#22bce0"/></g></g><g fill="#9175a7"><path d="m381.771 262.888h-95.377c-4.606 0-8.34-3.734-8.34-8.34s3.734-8.34 8.34-8.34h95.377c11.025.396 11.073 16.264 0 16.68z"/><path d="m381.771 299.568h-95.377c-4.606 0-8.34-3.734-8.34-8.34s3.734-8.34 8.34-8.34h95.377c11.025.396 11.073 16.264 0 16.68z"/><path d="m381.771 336.248h-95.377c-4.606 0-8.34-3.734-8.34-8.34s3.734-8.34 8.34-8.34h95.377c11.025.396 11.073 16.264 0 16.68z"/><path d="m381.771 226.208h-95.377c-4.606 0-8.34-3.734-8.34-8.34s3.734-8.34 8.34-8.34h95.377c11.025.396 11.073 16.263 0 16.68z"/><path d="m381.771 189.527h-95.377c-4.606 0-8.34-3.734-8.34-8.34s3.734-8.34 8.34-8.34h95.377c11.025.396 11.073 16.264 0 16.68z"/></g></g></g></g></svg>