<svg id="Capa_1" enable-background="new 0 0 512 512" height="512" viewBox="0 0 512 512" width="512" xmlns="http://www.w3.org/2000/svg"><g><g><g><g><g><g><g><circle cx="256" cy="256" fill="#1dd882" r="256"/></g></g></g></g></g></g><path d="m512 256c0-32.943-6.223-64.433-17.557-93.358l-94.401-94.402-301.508 350.718 81.62 81.62c23.967 7.423 49.439 11.422 75.846 11.422 141.385 0 256-114.615 256-256z" fill="#28bc75"/><g><path d="m126.06 68.24h273.982v375.519h-273.982z" fill="#fff"/></g><g><path d="m256.12 68.24h143.922v375.52h-143.922z" fill="#e9edf5"/></g><g><path d="m142.652 93.042h227.807v325.916h-227.807z" fill="#ffce00"/></g><g><path d="m256.12 93.042h114.338v325.916h-114.338z" fill="#fdba12"/></g><g><path d="m98.534 93.042h50.464v325.916h-50.464z" fill="#ff6c52"/></g><g><g fill="#555a66"><path d="m181.943 240.068c-8.655-8.655-14.256-23.844-14.256-37.505 0-13.662 5.601-28.85 14.256-37.505l8.23 6.279c-5.939 10.098-8.485 19.177-8.485 31.226 0 11.964 2.546 21.129 8.485 31.142z"/><path d="m221.315 223.182-7.892-12.389-7.976 12.389h-14.256l14.001-21.044-13.152-19.94h14.34l7.043 11.116 6.958-11.116h14.34l-13.067 19.94 14.001 21.044z"/><path d="m260.285 207.151v16.801h-8.57v-16.801h-14.765v-7.807h14.765v-16.207h8.57v16.207h14.765v7.807z"/></g><path d="m260.285 183.137h-4.165v40.815h4.165v-16.802h14.765v-7.806h-14.765z" fill="#333940"/><path d="m283.94 227.51c.933.509 2.206.764 3.224.764 2.971 0 4.837-.594 5.516-2.291l.934-2.206-16.292-41.578h13.746l9.249 25.965 9.334-25.965h13.832l-18.499 46.839c-3.309 8.655-9.503 10.607-17.31 10.776-1.188 0-4.243-.254-5.601-.679z" fill="#333940"/><path d="m324.162 233.704c5.855-10.013 8.4-19.177 8.4-31.142 0-12.049-2.546-21.128-8.4-31.226l8.23-6.279c8.655 8.655 14.256 23.844 14.256 37.505 0 13.662-5.601 28.851-14.256 37.505z" fill="#333940"/></g></g></svg>