<svg id="Capa_1" enable-background="new 0 0 512 512" height="512" viewBox="0 0 512 512" width="512" xmlns="http://www.w3.org/2000/svg"><g><g><path d="m256 322.372c-141.387 0-243.753-155.945-222.328-193.372 44.119-77.07 127.158-129 222.328-129s178.209 51.93 222.328 129c21.425 37.427-80.941 193.372-222.328 193.372z" fill="#b196e7"/><path d="m512 256c0 26.051-3.891 51.191-11.129 74.871-5.031 16.469-11.672 32.231-19.75 47.109-8.25 15.2-147.391 42.739-225.121 42.739s-216.871-27.539-225.109-42.739c-3.289-6.031-6.332-12.21-9.121-18.531-14-31.629-21.77-66.629-21.77-103.449 0-46.219 12.25-89.57 33.68-127 44.121 77.07 127.16 129 222.32 129s178.211-51.93 222.32-129c21.43 37.43 33.68 80.781 33.68 127zm0 0" fill="#8d69db"/><path d="m481.262 377.699c-7.16 13.223-150.459 130.759-211.738 133.95-4.478.233-8.987.351-13.524.351-4.416 0-8.805-.112-13.166-.333-61.421-3.113-204.936-120.745-212.096-133.968zm0 0" fill="#5541b6"/></g><g><path d="m110.984 352.922h-26.366v-131.832h105.466v26.366h-79.1z" fill="#8ab8ec"/><path d="m427.382 379.289h-26.366v-131.833h-79.1v-26.366h105.466z" fill="#728ee4"/><path d="m256 207.906h-92.283v52.733c0 27.319 46.347 39.55 92.283 39.55s92.283-12.231 92.283-39.55v-52.733z" fill="#dce0ef"/><path d="m348.283 260.639v-52.733h-92.283v92.283c45.935 0 92.283-12.23 92.283-39.55z" fill="#cad0e7"/><path d="m256 155.173h-92.283v52.733c0 27.319 46.347 39.55 92.283 39.55s92.283-12.231 92.283-39.55v-52.733z" fill="#fbf5eb"/><path d="m348.283 207.906v-52.733h-92.283v92.283c45.935 0 92.283-12.23 92.283-39.55z" fill="#dce0ef"/><path d="m256 101.562h-92.283v53.612c0 27.319 46.347 39.55 92.283 39.55s92.283-12.231 92.283-39.55v-53.612z" fill="#dce0ef"/><path d="m348.283 155.173v-53.612h-92.283v93.162c45.935 0 92.283-12.23 92.283-39.55z" fill="#cad0e7"/><ellipse cx="256" cy="101.562" fill="#fbf5eb" rx="92.283" ry="39.55"/><path d="m348.283 101.562c0-27.319-46.347-39.55-92.283-39.55v79.1c45.935-.001 92.283-12.231 92.283-39.55z" fill="#dce0ef"/><path d="m103.339 326.556h-72.333v51.664c7.858 14.436 17.063 28.033 27.449 40.619h157.995l26.367-13.183v-52.733h-113.112z" fill="#e38d22"/><path d="m242.817 511.666v-106.011h-194.523c44.088 61.083 114.444 101.949 194.523 106.011z" fill="#f3d37a"/><path d="m132.895 480.499c32.91 18.085 70.219 29.153 109.922 31.167v-106.011h-109.922z" fill="#efc142"/><path d="m480.994 378.22v-25.297h-113.991l-26.366-26.367h-71.454v79.1l26.367 13.183h157.995c10.386-12.587 19.591-26.183 27.449-40.619z" fill="#da5f2a"/><path d="m269.183 511.666c80.078-4.061 150.435-44.928 194.523-106.011h-194.523z" fill="#e38d22"/></g></g></svg>