<svg id="Capa_1" enable-background="new 0 0 512 512" height="512" viewBox="0 0 512 512" width="512" xmlns="http://www.w3.org/2000/svg"><g><g><path d="m256 320.5c-141.387 0-245.398-148.028-226.664-183.606 42.859-81.397 128.279-136.894 226.664-136.894 97.204 0 181.752 54.173 225.103 133.974 19.704 36.274-83.716 186.526-225.103 186.526z" fill="#e27fad"/><path d="m512 256c0 26.051-3.891 51.191-11.129 74.871-5.031 16.469-11.672 32.231-19.75 47.109-8.25 15.2-147.391 48.851-225.121 48.851s-216.871-33.651-225.109-48.851c-3.289-6.031-6.332-12.21-9.121-18.531-14-31.629-21.77-66.629-21.77-103.449 0-46.219 12.25-89.57 33.68-127 44.121 77.07 127.16 129 222.32 129s178.211-51.93 222.32-129c21.43 37.43 33.68 80.781 33.68 127zm0 0" fill="#dc4180"/><path d="m481.262 377.699c-7.16 13.223-15.434 25.742-24.723 37.43-8.437 10.633-17.719 20.57-27.719 29.723-45.539 41.699-106.211 67.148-172.82 67.148-36.707 0-71.61-7.728-103.172-21.646-1.041-.459-72.41-48.057-73.769-49.358-8.438-8.069-16.331-16.71-23.598-25.867-9.289-11.688-17.563-24.207-24.723-37.43zm0 0" fill="#9f165b"/></g><g><path d="m109.899 466.223c13.47 9.379 27.882 17.494 43.068 24.179l103.157-103.157-15.482-77.283z" fill="#d85819"/><path d="m113.096 468.431 143.008-143.008-61.822-.021-112.074 112.074c-1.128 1.128-2.176 2.306-3.155 3.521 10.53 10.075 21.917 19.26 34.043 27.434z" fill="#ffae85"/><path d="m98.156 452.937c-.853.853-1.68 1.732-2.482 2.632 5.615 4.516 11.414 8.812 17.403 12.85l130.963-131.426-33.81 3.87z" fill="#e38031"/><path d="m433.925 209.444-30.921-30.921-78.426 16.583 61.843 61.843z" fill="#d85819"/><path d="m330.2 164.95h67.182v43.73h-67.182z" fill="#e38031" transform="matrix(.707 -.707 .707 .707 -25.546 311.955)"/><path d="m322.469 168.152h67.182v21.865h-67.182z" fill="#ffae85" transform="matrix(.707 -.707 .707 .707 -22.344 304.225)"/><path d="m256.125 387.245 39.766-39.766-61.843-61.843-8.845 70.687z" fill="#5a7ba0"/><path d="m201.507 299.115h56.238v43.73h-56.238z" fill="#7397b8" transform="matrix(.707 -.707 .707 .707 -159.711 256.383)"/><path d="m193.776 302.317h56.238v21.865h-56.238z" fill="#98b9d6" transform="matrix(.707 -.707 .707 .707 -156.509 248.652)"/><path d="m439.122 303.023c-17.082-34.706-39.883-66.32-67.091-93.528l-92.715 30.872-30.871 92.714c27.208 27.208 58.821 50.01 93.527 67.091l7.023 3.457 93.583-93.583z" fill="#16202d"/><path d="m278.504 142.404-7.023-3.457-93.583 93.583 3.457 7.023c17.082 34.706 39.883 66.32 67.091 93.527l123.586-123.586c-27.208-27.207-58.822-50.008-93.528-67.09z" fill="#2d3e53"/><path d="m324.579 169.67c-14.609-10.227-30.011-19.359-46.075-27.266l-7.023-3.457-93.583 93.583 3.457 7.023c7.908 16.067 17.042 31.472 27.271 46.083" fill="#425b7a"/></g></g></svg>