<svg id="Capa_1" enable-background="new 0 0 512 512" height="512" viewBox="0 0 512 512" width="512" xmlns="http://www.w3.org/2000/svg"><g><g><path d="m0 256c0 43.79 11 85.02 30.39 121.07l225.61 49.67 225.61-49.67c19.39-36.05 30.39-77.28 30.39-121.07 0-46.63-12.47-90.34-34.26-128-41.698 72.091-399.22 76.52-443.48 0-21.79 37.66-34.26 81.37-34.26 128z" fill="#eec036"/><path d="m34.26 128c44.26 76.52 126.99 128 221.74 128s177.48-51.48 221.74-128c-.01-.02-.03-.05-.04-.07-44.27-76.48-126.98-127.93-221.7-127.93s-177.43 51.45-221.7 127.93c-.01.02-.03.05-.04.07z" fill="#f5dd6e"/><path d="m481.61 377.07c-13.76 25.6-31.76 48.58-53.05 68.02-9.351 8.542-52.161-7.648-62.708-.555-16.061 10.801-.594 43.877-18.962 50.855-28.24 10.74-58.88 16.61-90.89 16.61s-62.65-5.87-90.89-16.61c-14.228-5.405 2.408-42.883-10.474-50.619-14.669-8.811-58.636 11.793-71.196.319-21.29-19.44-39.29-42.42-53.05-68.02z" fill="#de8051"/></g><path d="m428.56 80.52v364.57c-23.59 21.55-51.24 38.74-81.67 50.3h-181.78c-30.43-11.56-58.08-28.75-81.67-50.3v-364.57z" fill="#616579"/><path d="m428.56 80.52v364.57c-23.59 21.55-51.24 38.74-81.67 50.3h-90.89v-414.87z" fill="#464652"/><path d="m124.381 401.834v-280.375h263.238v280.375l-131.619 23.294z" fill="#e8ebf7"/><path d="m256 401.834v-280.375h131.619v280.375l-65.81 23.294z" fill="#daddee"/><path d="m229.691 296.524h52.618v263.238h-52.618z" fill="#464652" transform="matrix(0 1 -1 0 684.143 172.143)"/><path d="m295.5 362.334h52.618v131.619h-52.618z" fill="#2d2f40" transform="matrix(0 1 -1 0 749.953 106.334)"/><g fill="#616579"><path d="m241.018 68.842h29.965v206.708h-29.965z" transform="matrix(0 1 -1 0 428.196 -83.804)"/><path d="m241.018 247.293h29.965v206.708h-29.965z" transform="matrix(0 1 -1 0 606.647 94.647)"/><path d="m241.018 187.81h29.965v206.708h-29.965z" transform="matrix(0 1 -1 0 547.164 35.164)"/><path d="m241.018 128.326h29.965v206.708h-29.965z" transform="matrix(0 1 -1 0 487.68 -24.32)"/></g><path d="m292.695 120.519h29.965v103.354h-29.965z" fill="#464652" transform="matrix(0 1 -1 0 479.873 -135.481)"/><path d="m292.695 298.97h29.965v103.354h-29.965z" fill="#464652" transform="matrix(0 1 -1 0 658.324 42.97)"/><path d="m292.695 239.487h29.965v103.354h-29.965z" fill="#464652" transform="matrix(0 1 -1 0 598.841 -16.513)"/><path d="m292.695 180.003h29.965v103.354h-29.965z" fill="#464652" transform="matrix(0 1 -1 0 539.357 -75.997)"/><g fill="#e8ebf7"><path d="m190.534 413.682-35.898 31.089h71.796z"/><path d="m321.466 444.771 35.898-31.089h-71.796z"/></g></g></svg>