<svg id="Capa_1" enable-background="new 0 0 512 512" height="512" viewBox="0 0 512 512" width="512" xmlns="http://www.w3.org/2000/svg"><circle cx="256" cy="256" fill="#22d7ff" r="256"/><path d="m512 256c0 87.11-43.52 164.07-110 210.31-26.38 18.35-56.37 31.86-88.7 39.25-7.86 1.8-15.87 3.24-23.99 4.29-7.83 1.02-15.77 1.68-23.81 1.97-3.15.12-6.32.18-9.5.18-54.27 0-104.59-16.89-146-45.69-66.48-46.24-110-123.2-110-210.31 0-46.22 12.25-89.57 33.68-127 44.12 77.07 127.16 129 222.32 129s178.21-51.93 222.32-129c21.43 37.43 33.68 80.78 33.68 127z" fill="#00b3fe"/><path d="m271.103 323.563h36.407v143.508h-36.407z" fill="#fff"/><path d="m289.307 323.563h18.203v143.508h-18.203z" fill="#d1f6ff"/><path d="m360.048 288.016 83.92 78.89-47.786 54.726-89.481-72.522z" fill="#374c81"/><path d="m360.048 288.016 83.92 78.89-23.893 27.363-86.7-75.706z" fill="#234177"/><path d="m448.094 350.027 11.821 11.23c4.034 3.835 4.328 10.164.67 14.353l-53.538 61.314c-3.658 4.189-9.969 4.751-14.313 1.271l-12.721-10.2c-4.605-3.693-5.206-10.47-1.32-14.921l54.438-62.344c3.886-4.451 10.683-4.768 14.963-.703z" fill="#234177"/><path d="m284.264 192.802 114.808 109.061c3.736 3.545 4.006 9.407.621 13.284l-60.765 69.59c-3.385 3.876-9.23 4.399-13.246 1.175l-123.54-99.062z" fill="#d1f6ff"/><path d="m284.264 192.802 114.808 109.061c3.736 3.545 4.006 9.407.621 13.284l-45.574 52.193c-1.689 1.934-6.147.869-10.09-2.44l-121.357-101.562z" fill="#b3f4ff"/><path d="m284.264 192.802 114.808 109.061c3.736 3.545 4.006 9.407.621 13.284l-30.383 34.795-126.107-110.116z" fill="#8fc8f5"/><path d="m187.084 84.725 137.096 132.066c3.69 3.564 3.949 9.387.572 13.255l-80.249 91.903c-3.378 3.868-9.182 4.396-13.211 1.22l-149.338-118.046z" fill="#fff"/><path d="m187.084 84.725 137.096 132.066c3.69 3.564 3.949 9.387.572 13.255l-60.485 69.269c-1.718 1.968-6.151.925-10.099-2.344l-146.322-121.5z" fill="#d1f6ff"/><path d="m187.084 84.725 137.096 132.066c3.69 3.564 3.949 9.387.572 13.255l-40.124 45.951-150.109-131.073z" fill="#b3f4ff"/><path d="m177.625 67.892-113.626 130.127c-4.127-31.616 4.815-64.801 27.44-90.712s54.302-39.243 86.186-39.415z" fill="#374c81"/><path d="m177.625 67.892-56.813 65.063-29.373-25.648c22.625-25.911 54.302-39.243 86.186-39.415z" fill="#234177"/><path d="m183.893 60.356 27.76 24.24c3.15 2.751 3.474 7.528.723 10.678l-116.561 133.488c-2.751 3.15-7.528 3.474-10.678.723l-27.76-24.24c-3.142-2.743-3.474-7.528-.723-10.678l116.56-133.488c2.751-3.151 7.537-3.467 10.679-.723z" fill="#234177"/><path d="m448.094 350.027 11.821 11.23c4.034 3.835 4.328 10.164.67 14.353l-26.769 30.657-27.904-24.365 27.219-31.172c3.886-4.451 10.683-4.768 14.963-.703z" fill="#16325b"/><path d="m183.893 60.356 27.76 24.24c3.15 2.751 3.474 7.528.723 10.678l-58.28 66.744-39.161-34.195 58.28-66.744c2.75-3.151 7.536-3.467 10.678-.723z" fill="#16325b"/><circle cx="289.307" cy="323.563" fill="#234177" r="54.89"/><path d="m289.307 268.673v109.779c30.315 0 54.89-24.575 54.89-54.889-.001-30.315-24.576-54.89-54.89-54.89z" fill="#16325b"/><circle cx="289.307" cy="323.563" fill="#374c81" r="27.834"/><path d="m289.307 295.729v55.667c15.372 0 27.834-12.462 27.834-27.834s-12.462-27.833-27.834-27.833z" fill="#234177"/><path d="m313.3 453.17v52.39c-7.86 1.8-15.87 3.24-23.99 4.29-7.83 1.02-15.77 1.68-23.81 1.97v-58.65z" fill="#234177"/><path d="m313.3 453.17v52.39c-7.86 1.8-15.87 3.24-23.99 4.29v-56.68z" fill="#16325b"/><path d="m325.346 451.186v5.283c0 6.239-5.052 11.302-11.291 11.302h-49.491c-6.239 0-11.301-5.063-11.301-11.302v-5.283c0-6.239 5.063-11.302 11.301-11.302h49.491c6.239.001 11.291 5.064 11.291 11.302z" fill="#374c81"/><path d="m325.346 451.186v5.283c0 6.239-5.052 11.302-11.291 11.302h-24.746v-27.886h24.746c6.239 0 11.291 5.063 11.291 11.301z" fill="#234177"/></svg>