<svg id="Capa_1" enable-background="new 0 0 512 512" height="512" viewBox="0 0 512 512" width="512" xmlns="http://www.w3.org/2000/svg"><g><g><path d="m0 256c0 43.79 11 85.02 30.39 121.07l225.61 49.67 225.61-49.67c19.39-36.05 30.39-77.28 30.39-121.07 0-46.63-12.47-90.34-34.26-128-41.698 72.091-399.22 76.52-443.48 0-21.79 37.66-34.26 81.37-34.26 128z" fill="#eebf36"/><path d="m34.26 128c44.26 76.52 126.99 128 221.74 128s177.48-51.48 221.74-128c-.01-.02-.03-.05-.04-.07-44.27-76.48-126.98-127.93-221.7-127.93s-177.43 51.45-221.7 127.93c-.01.02-.03.05-.04.07z" fill="#f5dc6e"/><path d="m30.39 377.07c43.19 80.32 128.02 134.93 225.61 134.93s182.42-54.61 225.61-134.93z" fill="#dd8051"/></g><path d="m472.916 321.31v-92.827h-51.803c-3.703-13.222-8.961-25.786-15.555-37.507l36.642-36.642-65.638-65.638-36.642 36.642c-11.721-6.594-24.286-11.852-37.507-15.555v-51.803h-92.826v51.803c-13.222 3.702-25.786 8.961-37.507 15.555l-36.642-36.642-65.638 65.638 36.642 36.642c-6.594 11.721-11.852 24.286-15.555 37.507h-51.803v92.827h51.803c3.703 13.222 8.961 25.786 15.555 37.507l-36.642 36.642 65.638 65.638 36.642-36.642c11.721 6.594 24.286 11.853 37.507 15.555v51.803h92.826v-51.803c13.222-3.702 25.786-8.961 37.507-15.555l36.642 36.642 65.638-65.638-36.642-36.642c6.594-11.721 11.852-24.286 15.555-37.507zm-216.916 55.111c-56.064 0-101.524-45.46-101.524-101.524s45.46-101.525 101.524-101.525 101.524 45.46 101.524 101.524-45.46 101.525-101.524 101.525z" fill="#616679"/><path d="m421.114 321.31c-3.703 13.222-8.961 25.786-15.555 37.507l36.642 36.642-65.638 65.638-36.642-36.642c-11.721 6.594-24.286 11.853-37.507 15.555v51.803h-46.414v-115.392c9.549 0 12.872-24.196 21.633-26.661 10.529-2.963 26.283 15.296 35.127 9.321 27.006-18.246 44.764-49.144 44.764-84.184 0-56.064-45.46-101.524-101.524-101.524v-115.393h46.413v51.803c13.222 3.702 25.786 8.961 37.507 15.555l36.642-36.642 65.638 65.638-36.642 36.642c6.594 11.721 11.852 24.286 15.555 37.507h51.803v92.827z" fill="#464651"/><path d="m256 138.384c-75.398 0-136.512 61.114-136.512 136.512s61.114 136.513 136.512 136.513 136.512-61.114 136.512-136.512-61.114-136.513-136.512-136.513zm56.973 220.553c-16.245 11.031-35.853-15.325-56.973-15.325-21.021 0-40.553 26.411-56.765 15.468-27.002-18.25-44.759-49.141-44.759-84.184 0-56.064 45.46-101.524 101.524-101.524s101.524 45.46 101.524 101.524c0 34.944-17.658 65.77-44.551 84.041z" fill="#464651"/><path d="m392.512 274.896c0 75.398-61.114 136.512-136.512 136.512v-67.796c21.12 0 40.728 26.356 56.973 15.325 26.893-18.271 44.551-49.097 44.551-84.041 0-56.064-45.46-101.524-101.524-101.524v-34.988c75.398 0 136.512 61.114 136.512 136.512z" fill="#2d3041"/><g><path d="m312.973 150.806v208.12c-8.895 6.047-18.808 10.724-29.423 13.704-8.753 2.476-17.998-17.205-27.55-17.205s-18.787 19.681-27.55 17.205c-10.615-2.99-20.517-7.657-29.423-13.693v-208.131z" fill="#9feafd"/><path d="m312.973 159.143v199.784c-8.899 6.049-18.808 10.721-29.422 13.709-8.761 2.466-18.001-5.315-27.551-5.315v-208.178z" fill="#70c5e8"/><path d="m283.55 251.071v121.559c-8.753 2.476-17.998 3.791-27.55 3.791s-18.787-1.315-27.55-3.791v-121.559z" fill="#9865d8"/><path d="m338.608 171.385c0 17.076-13.846 30.922-30.933 30.922h-103.35c-8.538 0-16.282-3.459-21.873-9.06-5.602-5.591-9.06-13.324-9.06-21.862 0-17.076 13.846-30.922 30.933-30.922h103.35c8.538 0 16.282 3.459 21.873 9.06 5.601 5.591 9.06 13.324 9.06 21.862z" fill="#c3f3ff"/><path d="m338.608 171.385c0 17.076-13.846 30.922-30.933 30.922h-51.675v-61.845h51.675c8.538 0 16.282 3.459 21.873 9.06 5.601 5.592 9.06 13.325 9.06 21.863z" fill="#9feafd"/><path d="m283.55 251.071v121.559c-8.753 2.476-17.998 3.791-27.55 3.791v-125.35z" fill="#5541b5"/></g></g></svg>