<svg id="Capa_1" enable-background="new 0 0 512 512" height="512" viewBox="0 0 512 512" width="512" xmlns="http://www.w3.org/2000/svg"><circle cx="256" cy="256" fill="#65b2fe" r="256"/><path d="m512 256c0 87.11-43.52 164.07-110 210.31-41.41 28.8-91.73 45.69-146 45.69s-104.59-16.89-146-45.69c-66.48-46.24-110-123.2-110-210.31 0-46.22 12.25-89.57 33.68-127 44.12 77.07 127.16 129 222.32 129s178.21-51.93 222.32-129c21.43 37.43 33.68 80.78 33.68 127z" fill="#0e9ce7"/><path d="m452 316c0 105.34-83.12 191.28-187.34 195.81-.31.02-.62.03-.93.04-.87.03-1.74.06-2.6.08-1.73.05-3.44.07-5.13.07-108.24 0-196-87.76-196-196s87.76-196 196-196h.28c108.11.15 195.72 87.85 195.72 196z" fill="#ffe853"/><path d="m452 316c0 105.34-83.12 191.28-187.34 195.81-.31.02-.62.03-.93.04-.87.03-1.74.06-2.6.08-1.73.05-3.44.07-5.13.07-58.54-45.3-103.35-116.25-103.35-196s44.81-150.7 103.35-196h.28c108.11.15 195.72 87.85 195.72 196z" fill="#fed110"/><path d="m452 316c0 108.244-87.756 196-196 196v-392c108.244 0 196 87.756 196 196z" fill="#ff9f01"/><path d="m223.718 128.764-106.462 55.09-2.123-26.767-2.117-26.771-2.123-26.767-2.123-26.768-1.446-18.217c-.427-5.352 2.471-9.647 6.511-11.737 4.039-2.09 9.219-1.976 13.342 1.464l14.036 11.702 20.625 17.193 20.625 17.193 20.631 17.19z" fill="#6cdc2d"/><path d="m223.718 128.764-53.231 27.545-56.653-109.482c4.039-2.09 9.219-1.976 13.342 1.464l14.036 11.702 20.625 17.193 20.625 17.193 20.631 17.19z" fill="#00a042"/><path d="m141.212 59.993-32.442 16.788-1.446-18.217c-.427-5.352 2.471-9.647 6.511-11.737 4.039-2.09 9.219-1.976 13.342 1.464z" fill="#fe3345"/><path d="m182.462 94.38-69.446 35.936-2.123-26.768 50.944-26.361z" fill="#fe3345"/><path d="m223.718 128.764-106.462 55.09-2.123-26.768 87.96-45.516z" fill="#fe3345"/><path d="m141.212 59.993-16.221 8.394-11.157-21.56c4.039-2.09 9.219-1.976 13.342 1.464z" fill="#dd1265"/><path d="m182.462 94.38-34.723 17.968-11.374-21.981 25.472-13.18z" fill="#dd1265"/><path d="m223.718 128.764-53.231 27.545-11.374-21.981 43.98-22.758z" fill="#dd1265"/><path d="m280.884 303.111c1.366-23.366 20.018-42.507 43.344-44.445 27.345-2.271 50.376 18.69 51.469 45.308.03.642.045 1.298.046 1.939v.154c-.008 4.424-5.804 6.143-8.31 2.497-8.561-12.457-22.925-20.619-39.178-20.598-16.25.022-30.59 8.211-39.132 20.682-2.523 3.684-8.312 1.904-8.323-2.562-.002-.984.025-1.977.084-2.975z" fill="#29334c"/><path d="m135.938 302.411c1.366-23.366 20.018-42.507 43.343-44.444 27.345-2.271 50.376 18.69 51.469 45.308.03.642.045 1.298.046 1.94v.154c-.008 4.424-5.804 6.143-8.31 2.497-8.561-12.457-22.925-20.619-39.178-20.598-16.25.021-30.59 8.211-39.132 20.682-2.523 3.684-8.312 1.904-8.323-2.562-.001-.985.026-1.978.085-2.977z" fill="#29334c"/><path d="m143.971 247.619c16.242-20.451 46.793-29.91 73.514-21.32.021.007.042.013.063.02 2.001.645 3.955-1.344 2.802-2.874-4.777-6.339-11.996-11.344-21.15-13.927-21.129-5.962-45.356 3.583-55.048 21.676-2.733 5.102-4.081 10.374-4.188 15.506-.038 1.847 2.76 2.489 4.007.919z" fill="#ed771b"/><path d="m366.099 247.619c-16.242-20.451-46.793-29.91-73.514-21.32-.021.007-.042.013-.063.02-2 .645-3.955-1.344-2.802-2.874 4.777-6.339 11.996-11.344 21.15-13.927 21.13-5.962 45.356 3.583 55.048 21.676 2.733 5.102 4.081 10.374 4.188 15.506.038 1.847-2.76 2.489-4.007.919z" fill="#c55835"/><path d="m473 359.545v4.31c0 16.98-13.77 30.75-30.75 30.75h-124.25v-19h124.25c6.49 0 11.75-5.26 11.75-11.75v-4.61c0-5.66-3.84-10.77-9.39-11.9-1.8-.37-3.54-.3-5.21.1-.54.14-.78.2-.68 1.07.12 1.05.6 1.05 1.1 1.06 1.44.02 2.6 1.19 2.6 2.62v.04l-.09 6.87v.01l-.08 6.86c-.02 1.44-1.19 2.6-2.62 2.6h-.04c-5.13-.06-9.76-1.97-13.27-5.14-3.5-3.17-5.88-7.61-6.47-12.72-1.2-10.3 4.96-19.22 14.98-21.71 2.41-.6 4.89-.9 7.39-.9 16.93-.02 30.78 14.51 30.78 31.44z" fill="#ff1d56"/><path d="m473 359.545v4.31c0 16.98-13.77 30.75-30.75 30.75h-124.25v-9.5h124.25c11.74 0 21.25-9.51 21.25-21.25v-4.52c0-10.07-6.82-19.08-16.66-21.23-3.39-.74-6.69-.62-9.72.12-11.98 2.98-9.75 20.7 2.59 20.85l2.62.03v.01l-.08 6.86c-.02 1.44-1.19 2.6-2.62 2.6h-.04c-5.13-.06-9.76-1.97-13.27-5.14-3.5-3.17-5.88-7.61-6.47-12.72-1.2-10.3 4.96-19.22 14.98-21.71 2.41-.6 4.89-.9 7.39-.9 16.93-.02 30.78 14.51 30.78 31.44z" fill="#dd1265"/><path d="m373.97 375.945v18.32c0 3.11-2.51 5.62-5.61 5.62h-69.74c-3.1 0-5.62-2.51-5.62-5.62v-18.32c0-3.11 2.52-5.62 5.62-5.62h69.74c3.1 0 5.61 2.51 5.61 5.62z" fill="#0e9ce7"/><path d="m373.97 385.145v9.12c0 3.11-2.51 5.62-5.61 5.62h-69.74c-3.1 0-5.62-2.51-5.62-5.62v-9.12z" fill="#1076e4"/><path d="m281.531 426.565h38.813c6.988 0 10.487-8.448 5.546-13.389l-26.425-26.426c-.909-.909-.909-2.382 0-3.291l26.425-26.425c4.941-4.941 1.442-13.389-5.546-13.389h-38.813-10.965c-2.597 0-2.957 3.754-.407 4.248l26.293 5.089c3.262.631 4.233 4.828 1.581 6.829l-22.255 16.788c-5.651 4.263-5.651 12.75 0 17.013l22.255 16.788c2.652 2.001 1.68 6.197-1.581 6.829l-26.293 5.089c-2.55.493-2.19 4.248.407 4.248h10.965z" fill="#c6601a"/><path d="m378.33 370.935v27.34c0 3.86-3.13 7-7 7h-3c-3.86 0-7-3.14-7-7v-27.34c0-3.86 3.14-7 7-7h3c3.87 0 7 3.14 7 7z" fill="#dd1265"/><path d="m378.33 385.145v13.13c0 3.86-3.13 7-7 7h-3c-3.86 0-7-3.14-7-7v-13.13z" fill="#a00d5a"/><path d="m390.658 133.322h40.498v17.999h-40.498z" fill="#fe3345" transform="matrix(.707 .707 -.707 .707 220.989 -248.87)"/><path d="m39.37 163.685h40.498v17.999h-40.498z" fill="#fe3345" transform="matrix(-.707 .707 -.707 -.707 223.882 252.634)"/><path d="m182.524 49.675h40.498v17.999h-40.498z" fill="#ffe853" transform="matrix(-.784 -.621 .621 -.784 325.288 230.575)"/><path d="m350.751 67.334h40.498v17.999h-40.498z" fill="#ffe853" transform="matrix(.784 -.621 .621 .784 32.787 246.861)"/><g fill="#6cdc2d"><path d="m254.084 77.334h40.498v17.999h-40.498z" transform="matrix(-.707 .707 -.707 -.707 529.363 -46.603)"/><path d="m16.084 244h40.498v17.999h-40.498z" transform="matrix(-.763 -.646 .646 -.763 -99.339 469.615)"/><path d="m448.503 213.039h40.498v17.999h-40.498z" transform="matrix(.662 -.75 .75 .662 -7.89 426.592)"/></g></svg>