<svg id="Icons" enable-background="new 0 0 512 512" height="512" viewBox="0 0 512 512" width="512" xmlns="http://www.w3.org/2000/svg"><g><path d="m512 256c0 9.37-.5 18.61-1.49 27.72-13.81 128.34-122.5 228.28-254.51 228.28s-240.7-99.94-254.51-228.28c-.99-9.11-1.49-18.35-1.49-27.72 0-141.38 114.62-256 256-256s256 114.62 256 256z" fill="#22bce0"/><path d="m510.51 283.72c-4.76 44.25-20.8 85.12-45.19 119.69-46.34 65.69-122.83 108.59-209.32 108.59s-162.98-42.9-209.32-108.59c-24.39-34.57-40.43-75.44-45.19-119.69 36.51-105.41 136.67-181.1 254.51-181.1s218 75.69 254.51 181.1z" fill="#4fcae8"/><path d="m465.32 403.41c-46.34 65.69-122.83 108.59-209.32 108.59s-162.98-42.9-209.32-108.59c30.71-85.92 112.83-147.41 209.32-147.41s178.61 61.49 209.32 147.41z" fill="#83d5ef"/><g id="Book_4_"><path d="m287.317 355.115c0-17.298-14.023-22.262-31.321-22.262s-31.321 4.964-31.321 22.262c1.651 41.548 60.999 41.534 62.642 0z" fill="#e9465e"/><path d="m287.317 344.05c0-17.298-14.023-22.262-31.321-22.262s-31.321 4.964-31.321 22.262c1.651 41.548 60.999 41.534 62.642 0z" fill="#c0405c"/><path d="m428.857 126.607v204.521c0 7.582-3.522 14.357-9.029 18.743-4.105 3.286-9.298 5.249-14.963 5.249h-297.741c-13.106.038-23.989-10.66-23.981-23.992v-204.521c0-8.267 4.184-15.568 10.555-19.887 3.825-2.591 8.457-4.105 13.426-4.105h297.741c13.16-.01 23.993 10.687 23.992 23.992z" fill="#e9465e"/><path d="m104.241 126.607v204.521c0 8.267-4.184 15.568-10.544 19.887-6.371-4.318-10.555-11.62-10.555-19.887v-204.521c0-8.267 4.184-15.568 10.555-19.887 6.36 4.319 10.544 11.621 10.544 19.887z" fill="#c0405c"/><path d="m428.857 126.607v204.521c0 7.582-3.522 14.357-9.029 18.743-5.507-4.386-9.029-11.149-9.029-18.743v-204.521c0-7.594 3.522-14.357 9.029-18.743 5.507 4.386 9.029 11.161 9.029 18.743z" fill="#ee6781"/><path d="m376.291 339.455h-240.589c-11.178 0-20.239-9.061-20.239-20.239v-180.697c0-11.178 9.061-20.239 20.239-20.239h240.589c11.178 0 20.239 9.061 20.239 20.239v180.697c-.001 11.178-9.062 20.239-20.239 20.239z" fill="#c0405c"/><path d="m396.531 122.861v180.697c0 4.509-1.469 8.67-3.971 12.035-3.69 4.969-9.601 8.199-16.275 8.199h-240.582c-11.243-.003-20.267-9.152-20.246-20.234v-180.697c0-11.183 9.063-20.246 20.246-20.246h240.582c11.183 0 20.246 9.063 20.246 20.246z" fill="#ebd9ea"/><path d="m396.531 122.861v180.697c0 11.172-9.063 20.234-20.246 20.234h-120.285v-221.177h120.285c11.183 0 20.246 9.063 20.246 20.246z" fill="#fff"/><path d="m392.56 315.594c-3.69 4.969-9.601 8.199-16.275 8.199h-240.582c-6.674 0-12.585-3.23-16.275-8.199 3.679-4.98 9.601-8.21 16.275-8.21h240.582c6.674-.001 12.596 3.229 16.275 8.21z" fill="#c1b7d3"/><g fill="#6c53a2"><path d="m256 160.133h-92.055c-4.531 0-8.205-3.673-8.205-8.205 0-4.531 3.673-8.205 8.205-8.205h92.055z"/><path d="m256 210.192h-92.055c-4.531 0-8.205-3.673-8.205-8.205 0-4.531 3.673-8.205 8.205-8.205h92.055z"/><path d="m256 260.252h-92.055c-4.531 0-8.205-3.673-8.205-8.205 0-4.531 3.673-8.205 8.205-8.205h92.055z"/></g><path d="m255.994 243.842h92.055c4.531 0 8.205 3.673 8.205 8.205 0 4.531-3.673 8.205-8.205 8.205h-92.055z" fill="#9175a7"/><path d="m255.994 193.783h92.055c4.531 0 8.205 3.673 8.205 8.205 0 4.531-3.673 8.205-8.205 8.205h-92.055z" fill="#9175a7"/><path d="m255.994 143.724h92.055c4.531 0 8.205 3.673 8.205 8.205 0 4.531-3.673 8.205-8.205 8.205h-92.055z" fill="#9175a7"/></g><g id="Lightbulb_6_"><g><path d="m317.366 290.234c.146 18.208-10.833 31.283-18.722 46.15-3.726 7.079-13.608 37.041-13.803 38.216h-57.666s-10.193-33.045-16.196-42.778c-7.932-12.79-16.325-25.521-16.344-41.589-.052-33.586 27.278-61.373 61.366-61.366 33.212-.252 61.618 27.503 61.365 61.367z" fill="#daab42"/><path d="m218.571 290.234c0 13.239-4.19 25.512-11.337 35.542-6.582-10.772-12.6-22.02-12.6-35.542 0-13.625 4.443-26.225 11.976-36.403 7.519 10.177 11.961 22.777 11.961 36.403z" fill="#c4983d"/><path d="m317.366 290.234c.147 18.207-10.833 31.283-18.722 46.15-1.931 4.116-4.041 9.539-6.032 15.007-74.925 3.981-91.981-99.609-20.816-120.458 26.544 7.089 45.547 31.053 45.57 59.301z" fill="#f9c744"/><path d="m317.366 290.234c.147 18.206-10.833 31.284-18.722 46.15-27.374-23.569-27.779-67.261-1.085-91.306 12.184 11.219 19.807 27.296 19.807 45.156z" fill="#f8d07a"/><path d="m307.687 276.993c0-13.906-11.273-25.18-25.18-25.18-33.4 1.326-33.391 49.038 0 50.359 13.907 0 25.18-11.273 25.18-25.179z" fill="#fbd9a3"/><path d="m317.366 290.234c.146 18.208-10.833 31.283-18.722 46.15-3.726 7.079-13.608 37.041-13.803 38.216h-57.666s-10.193-33.045-16.196-42.778c-7.932-12.79-16.325-25.521-16.344-41.589-.052-33.586 27.278-61.373 61.366-61.366 33.212-.252 61.618 27.503 61.365 61.367z" fill="none"/></g><g><path d="m277.738 425.788v8.722c0 9.049-5.542 16.82-13.402 20.089-13.928 6.016-30.304-4.822-30.059-20.089v-8.722z" fill="#2e3140"/><path d="m277.738 425.788v8.722c0 9.049-5.542 16.82-13.402 20.089-7.875-3.269-13.417-11.025-13.417-20.089v-8.722z" fill="#3e4e60"/><path d="m277.738 425.788v8.722c0 9.049-5.542 16.82-13.402 20.089-13.928 6.016-30.304-4.822-30.059-20.089v-8.722z" fill="none"/></g><g><path d="m246.375 332.083h19.263v42.518h-19.263z" fill="#bf5e39"/><path d="m256.007 332.083h9.632v42.518h-9.632z" fill="#dd5e26"/></g><g><path d="m284.469 320.084c.053 6.47-5.341 12.04-12.006 12.006h-32.912c-3.313 0-6.315-1.352-8.484-3.521-7.501-7.403-2.192-20.517 8.484-20.49h32.911c6.625.007 12.012 5.381 12.007 12.005z" fill="#bf5e39"/><path d="m284.469 320.084c0 1.189-.163 2.333-.49 3.403h-31.173c-7.884.137-13.846-7.914-11.515-15.408h31.173c6.622.007 12.01 5.381 12.005 12.005z" fill="#dd5e26"/><path d="m280.947 311.6c3.001 2.859 4.327 7.783 3.031 11.887h-11.158c-7.886.14-13.838-7.917-11.501-15.408h11.144c3.314 0 6.315 1.352 8.484 3.521z" fill="#ea792e"/><path d="m284.469 320.084c.053 6.47-5.341 12.04-12.006 12.006h-32.912c-3.313 0-6.315-1.352-8.484-3.521-7.501-7.403-2.192-20.517 8.484-20.49h32.911c6.625.007 12.012 5.381 12.007 12.005z" fill="none"/></g><g><path d="m301.66 390.662c.05 8.737-9.269 10.343-16.047 16.047-1.337 1.144-1.144 6.909-1.144 6.909 0 15.72-12.749 28.469-28.469 28.469-15.773.106-28.57-13.132-28.454-28.469 0 0 .193-5.765-1.144-6.909-6.761-5.735-16.047-7.191-16.047-16.047 0-8.87 7.177-16.062 16.047-16.062h59.211c8.87 0 16.047 7.192 16.047 16.062z" fill="#c1b7d3"/><path d="m301.63 390.662c.139 8.731-9.272 10.346-16.017 16.047-1.337 1.144-1.144 6.909-1.144 6.909 0 15.72-12.749 28.469-28.469 28.469-15.773.106-28.57-13.132-28.454-28.469 0 0 .193-5.765-1.144-6.909-6.761-5.735-16.047-7.191-16.047-16.047z" fill="#aea7b9"/><path d="m265.643 390.662s-4.77 34.323-35.378 35.111c-1.738-3.685-2.719-7.801-2.719-12.154 0 0 .193-5.765-1.144-6.909-6.761-5.735-16.047-7.191-16.047-16.047h55.288z" fill="#9f90ae"/><path d="m251.78 382.624c0 4.443-3.596 8.038-8.024 8.038h-33.402c0-8.87 7.177-16.062 16.047-16.062h17.355c4.428 0 8.024 3.596 8.024 8.024z" fill="#aea7b9"/><path d="m273.429 424.45c0 3.254-2.645 5.899-5.914 5.899h-34.531c-2.542-3.491-4.256-7.499-5.007-11.813h39.538c3.269.001 5.914 2.646 5.914 5.914z" fill="#c1b7d3"/><g fill="#ebd9ea"><path d="m261.634 430.352h-3.768c-3.261 0-5.905-2.644-5.905-5.905s2.644-5.905 5.905-5.905h3.768c7.804.242 7.804 11.57 0 11.81z"/><path d="m282.63 386.41h-17.924c-3.261 0-5.905-2.644-5.905-5.905s2.644-5.905 5.905-5.905h17.924c7.8.24 7.807 11.569 0 11.81z"/></g></g></g></g></svg>