<svg id="Capa_1" enable-background="new 0 0 512 512" height="512" viewBox="0 0 512 512" width="512" xmlns="http://www.w3.org/2000/svg"><path d="m511.975 252.372c1.139 82.299-36.561 155.837-95.945 203.448l-.014.005c-103.578 36.362-216.453 36.361-320.031-.003l-.005-.002v.01c-58.51-46.91-95.98-119-95.98-199.83 0-141.205 114.337-255.716 255.476-255.999 140.636-.282 254.552 111.749 256.499 252.371z" fill="#6c82ff"/><path d="m512 256c0 80.82-37.46 152.91-95.97 199.82h-.01c-103.581 36.365-216.459 36.365-320.04 0-58.51-46.91-95.98-118.99-95.98-199.82 0-46.22 12.25-89.57 33.68-127 44.12 77.07 127.16 129 222.32 129s178.21-51.93 222.32-129c21.43 37.43 33.68 80.78 33.68 127z" fill="#4d6df4"/><path d="m416.03 455.82c-43.83 35.15-99.48 56.18-160.03 56.18-18.64 0-36.81-1.99-54.32-5.78-39.36-8.51-75.36-26.07-105.7-50.4-10.44-25.49-9.49-55.82 7.53-82.48l100.05-156.67v-134.94h104.88v134.94l100.05 156.67c17.02 26.66 17.98 56.99 7.54 82.48z" fill="#fff"/><path d="m416.03 455.82c-43.83 35.15-99.48 56.18-160.03 56.18-18.64 0-36.81-1.99-54.32-5.78-25.44-19.2-37.98-82.58-21.92-132.88l50.02-156.67v-134.94h78.66v134.94l100.05 156.67c17.02 26.66 17.98 56.99 7.54 82.48z" fill="#d1f6ff"/><path d="m416.03 455.82c-43.83 35.15-99.48 56.18-160.03 56.18v-430.27h52.44v134.94l100.05 156.67c17.02 26.66 17.98 56.99 7.54 82.48z" fill="#b3f4ff"/><path d="m203.56 81.73h104.88v71.07h-104.88z" fill="#d1f6ff"/><path d="m229.78 81.73h78.66v71.07h-78.66z" fill="#b3f4ff"/><path d="m256 81.73h52.44v71.07h-52.44z" fill="#8fc8f5"/><path d="m331.81 81.43c0 7.44-3.01 14.17-7.89 19.05-4.87 4.87-11.6 7.88-19.04 7.88h-97.76c-14.87 0-26.93-12.05-26.93-26.93 0-7.43 3.01-14.17 7.89-19.04 4.87-4.87 11.6-7.89 19.04-7.89h97.76c14.87 0 26.93 12.06 26.93 26.93z" fill="#fff"/><path d="m331.81 81.43c0 7.44-3.01 14.17-7.89 19.05-4.87 4.87-11.6 7.88-19.04 7.88h-61.86c-14.87 0-26.92-12.05-26.92-26.93 0-7.43 3.01-14.17 7.89-19.04 4.87-4.87 11.59-7.89 19.03-7.89h61.86c14.87 0 26.93 12.06 26.93 26.93z" fill="#d1f6ff"/><path d="m376.835 409.009-62.8-98.36h-116.069l-62.8 98.36c-10.301 16.109-4.291 30.843-1.221 36.426 3.058 5.595 12.233 18.586 31.352 18.586h181.406c19.12 0 28.294-12.991 31.364-18.586 3.059-5.583 9.057-20.317-1.232-36.426z" fill="#22d7ff"/><path d="m331.81 81.43c0 7.44-3.01 14.17-7.89 19.05-4.87 4.87-11.6 7.88-19.04 7.88h-48.88v-53.86h48.88c14.87 0 26.93 12.06 26.93 26.93z" fill="#b3f4ff"/><path d="m378.068 445.435c-3.07 5.595-12.245 18.586-31.364 18.586h-90.704v-153.372h58.035l62.8 98.36c10.289 16.109 4.291 30.843 1.233 36.426z" fill="#00b3fe"/><circle cx="193.304" cy="422.575" fill="#b3f4ff" r="13.843"/><circle cx="288.055" cy="350.973" fill="#22d7ff" r="12.453"/><circle cx="255.998" cy="408.732" fill="#b3f4ff" r="9.649"/><circle cx="217.944" cy="355.773" fill="#b3f4ff" r="9.649"/><circle cx="319.302" cy="422.575" fill="#22d7ff" r="9.649"/></svg>