<svg id="Capa_1" enable-background="new 0 0 512 512" height="512" viewBox="0 0 512 512" width="512" xmlns="http://www.w3.org/2000/svg"><g><g><path d="m256 336.15c-141.387 0-244.387-167.446-223.995-204.193 43.672-78.696 127.613-131.957 223.995-131.957 95.17 0 178.208 51.929 222.327 128.999 21.426 37.427-80.94 207.151-222.327 207.151z" fill="#f3d37a"/><path d="m512 256c0 26.051-3.891 51.191-11.129 74.871-5.031 16.469-11.672 32.231-19.75 47.109-8.25 15.2-147.391 47.756-225.121 47.756s-216.871-32.556-225.109-47.756c-3.289-6.031-6.332-12.21-9.121-18.531-14-31.629-21.77-66.629-21.77-103.449 0-46.219 12.25-89.57 33.68-127 44.121 77.07 127.16 129 222.32 129s178.211-51.93 222.32-129c21.43 37.43 33.68 80.781 33.68 127zm0 0" fill="#efc142"/><path d="m481.262 377.699c-7.16 13.223-15.434 25.742-24.723 37.43-8.437 10.633-17.719 20.57-27.719 29.723-45.539 41.699-106.211 67.148-172.82 67.148-13.078 0-25.928-.981-38.478-2.874-51.372-7.746-144.847-74.303-149.771-79.642-4.27-4.629-8.371-9.417-12.289-14.355-9.289-11.688-17.563-24.207-24.723-37.43zm0 0" fill="#e38d22"/></g><g><path d="m333.212 312.72h-110.303v66.182c0 30.312 57.176 44.121 110.303 44.121s111.038-13.809 111.038-44.121v-66.182z" fill="#dce0ef"/><path d="m444.25 378.901v-66.181h-111.038v110.303c53.126-.001 111.038-13.81 111.038-44.122z" fill="#cad0e7"/><path d="m333.212 246.538h-110.303v66.182c0 30.312 57.176 44.121 110.303 44.121s111.038-13.81 111.038-44.121v-66.182z" fill="#fbf5eb"/><path d="m444.25 312.72v-66.182h-111.038v110.303c53.126 0 111.038-13.81 111.038-44.121z" fill="#dce0ef"/><path d="m333.212 179.621h-110.303v66.917c0 30.312 57.176 44.121 110.303 44.121s111.038-13.809 111.038-44.121v-66.917z" fill="#dce0ef"/><path d="m444.25 246.538v-66.917h-111.038v111.038c53.126 0 111.038-13.809 111.038-44.121z" fill="#cad0e7"/><path d="m333.212 135.5c-53.126 0-110.303 13.809-110.303 44.121s57.176 44.121 110.303 44.121 111.038-13.809 111.038-44.121-57.912-44.121-111.038-44.121z" fill="#fbf5eb"/><path d="m444.25 179.621c0-30.312-57.912-44.121-111.038-44.121v88.242c53.126 0 111.038-13.809 111.038-44.121z" fill="#dce0ef"/><path d="m67.75 400.962v28.507c38.851 42.141 91.666 71.2 151.108 79.84 38.306-5.345 70.233-18.779 70.233-41.429v-66.917h-110.303-111.038z" fill="#dce0ef"/><path d="m178.788 500.139c12.942 4.089 26.329 7.172 40.069 9.17 38.306-5.345 70.233-18.779 70.233-41.429v-66.917h-110.302z" fill="#cad0e7"/><path d="m178.788 334.78h-111.038v66.182c0 30.312 57.912 44.121 111.038 44.121s110.303-13.809 110.303-44.121v-66.182z" fill="#fbf5eb"/><path d="m289.091 400.962v-66.182h-110.303v110.303c53.126 0 110.303-13.809 110.303-44.121z" fill="#dce0ef"/><path d="m178.788 268.599h-111.038v66.182c0 30.312 57.912 44.121 111.038 44.121s110.303-13.809 110.303-44.121v-66.182z" fill="#dce0ef"/><path d="m289.091 334.78v-66.182h-110.303v110.303c53.126 0 110.303-13.809 110.303-44.121z" fill="#cad0e7"/><path d="m178.788 224.477c-53.126 0-111.038 13.809-111.038 44.121s57.912 44.121 111.038 44.121 110.303-13.809 110.303-44.121-57.177-44.121-110.303-44.121z" fill="#fbf5eb"/><path d="m289.091 268.599c0-30.312-57.176-44.121-110.303-44.121v88.242c53.126 0 110.303-13.81 110.303-44.121z" fill="#dce0ef"/></g><g fill="#fff"><path d="m145.429 145.713h-1.524c-6.754 0-12.226-5.477-12.226-12.227v-1.523h-8.715v1.523c0 6.75-5.477 12.227-12.227 12.227h-1.527v8.715h1.527c6.75 0 12.227 5.472 12.227 12.226v1.528h8.715v-1.528c0-6.754 5.472-12.226 12.226-12.226h1.524zm0 0"/><path d="m251.869 72.236h-1.524c-6.754 0-12.226-5.477-12.226-12.227v-1.523h-8.715v1.523c0 6.75-5.477 12.227-12.227 12.227h-1.527v8.715h1.527c6.75 0 12.227 5.472 12.227 12.226v1.528h8.715v-1.528c0-6.754 5.472-12.226 12.226-12.226h1.524zm0 0"/></g></g></svg>