<svg id="Capa_1" enable-background="new 0 0 512 512" height="512" viewBox="0 0 512 512" width="512" xmlns="http://www.w3.org/2000/svg"><g><g><path d="m0 256c0 43.79 11 85.02 30.39 121.07l225.61 49.67 225.61-49.67c19.39-36.05 30.39-77.28 30.39-121.07 0-46.63-12.47-90.34-34.26-128-41.698 72.091-399.22 76.52-443.48 0-21.79 37.66-34.26 81.37-34.26 128z" fill="#616679"/><path d="m34.26 128c44.26 76.52 126.99 128 221.74 128s177.48-51.48 221.74-128c-.01-.02-.03-.05-.04-.07-44.27-76.48-126.98-127.93-221.7-127.93s-177.43 51.45-221.7 127.93c-.01.02-.03.05-.04.07z" fill="#848898"/><path d="m481.61 377.07c-35.26 65.58-98.28 114.02-173.34 129.58-16.87 3.51-34.35-21.409-52.27-21.409s-35.4 24.919-52.27 21.409c-75.06-15.56-138.08-64-173.34-129.58z" fill="#2d3041"/></g><g><path d="m320.68 468.54c0 13.39-4.14 26.79-12.41 38.11-8.98 1.87-18.12 3.26-27.42 4.15h-.01c-8.17.8-16.46-18.581-24.84-18.581s-16.67 19.381-24.84 18.581c-9.3-.89-18.45-2.28-27.43-4.15-18.49-25.3-16.31-61 6.53-83.84l45.74-45.74 45.74 45.74c12.62 12.63 18.94 29.18 18.94 45.73z" fill="#d9696f"/><path d="m320.68 468.54c0 13.39-4.14 26.79-12.41 38.11-8.979 1.868-18.13 3.263-27.429 4.16-8.172.788-16.459-10.555-24.841-10.555v-123.185l45.74 45.74c12.62 12.63 18.94 29.18 18.94 45.73z" fill="#da504f"/><path d="m289.19 488.81c0 7.86-2.78 15.73-8.35 21.99-8.17.8-16.46 1.2-24.84 1.2s-16.67-.4-24.84-1.2c-11.57-13.03-11.11-32.98 1.37-45.46l23.47-23.47 23.47 23.47c6.48 6.48 9.72 14.97 9.72 23.47z" fill="#f5dc6e"/><path d="m289.19 488.81c0 7.86-2.78 15.73-8.34 21.99h-.01c-8.17.8-16.46 1.2-24.84 1.2v-70.13l23.47 23.47c6.48 6.48 9.72 14.97 9.72 23.47z" fill="#eebf36"/></g><g><path d="m196.45 106.718h119.102v119.894h-119.102z" fill="#9feafd"/><path d="m256.001 106.718h59.551v119.894h-59.551z" fill="#70c5e8"/><path d="m404.26 277.88c0 42.45-34.42 76.87-76.87 76.87h-142.77c-21.23 0-40.45-8.61-54.36-22.52-13.92-13.91-22.52-33.13-22.52-54.35 0-42.46 34.42-76.88 76.88-76.88h142.77c21.23 0 40.44 8.6 54.35 22.52 13.92 13.91 22.52 33.13 22.52 54.36z" fill="#c3f3ff"/><path d="m343.793 97.079c0 18.148-14.715 32.863-32.875 32.863h-109.836c-9.074 0-17.304-3.676-23.246-9.629-5.953-5.941-9.629-14.16-9.629-23.234 0-18.148 14.715-32.863 32.875-32.863h109.837c9.074 0 17.304 3.676 23.246 9.629 5.952 5.941 9.628 14.16 9.628 23.234z" fill="#c3f3ff"/><path d="m343.793 97.079c0 18.148-14.715 32.863-32.875 32.863h-54.918v-65.726h54.918c9.074 0 17.304 3.676 23.246 9.629 5.953 5.941 9.629 14.16 9.629 23.234z" fill="#9feafd"/><path d="m404.26 277.88c0 42.45-34.42 76.87-76.87 76.87h-71.39v-153.75h71.39c21.23 0 40.44 8.6 54.35 22.52 13.92 13.91 22.52 33.13 22.52 54.36z" fill="#9feafd"/><path d="m209.63 277.88c0-13.286-10.771-24.057-24.057-24.057s-24.057 10.771-24.057 24.057h-28.776c0 13.86 5.4 26.88 15.2 36.67 9.8 9.8 22.83 15.2 36.68 15.2h142.77c28.6 0 51.87-23.27 51.87-51.87z" fill="#b895e4"/><path d="m356.911 277.88c-1.568-8.656-9.127-15.226-18.235-15.226s-16.667 6.57-18.235 15.226h-18.506c-1.475-5.668-6.612-9.858-12.741-9.858s-11.266 4.19-12.741 9.858h-20.453v51.87h71.39c28.6 0 51.87-23.27 51.87-51.87z" fill="#9865d8"/><circle cx="310.128" cy="241" fill="#70c5e8" r="20.934"/><circle cx="209.63" cy="301.643" fill="#d8c1fa" r="13.18"/><circle cx="227.082" cy="226.612" fill="#9feafd" r="13.18"/><circle cx="283.54" cy="165.471" fill="#9feafd" r="13.18"/><g fill="#b895e4"><circle cx="288.341" cy="312.002" r="10.221"/><circle cx="329.673" cy="297.494" r="14.121"/></g></g></g></svg>