<svg id="Layer_1" enable-background="new 0 0 508.936 508.936" height="512" viewBox="0 0 508.936 508.936" width="512" xmlns="http://www.w3.org/2000/svg"><g><g><path d="m508.936 254.468c0 43.29-10.81 84.055-29.877 119.743-42.834 80.172-128.407 120.835-225.656 120.835-140.539 0-239.414-102.457-239.414-242.996 0-110.544 56.5-202.207 154.982-237.33 26.72-9.53 55.503-14.72 85.497-14.72 140.539 0 254.468 113.929 254.468 254.468z" fill="#82cd64"/></g><g fill="#20b7a1"><path d="m467.994 217.568h-79.117c-2.025 0-4.033-.373-5.924-1.1l-13.458-5.176c-6.821-2.624-14.153 2.411-14.153 9.72v19.971l-80.64 7.676c-1.665.157-3.038 1.477-3.203 3.203-.186 1.955 1.248 3.69 3.203 3.877l80.64 7.675v20.368c0 6.697 6.612 11.389 12.933 9.179l17.537-6.132h82.181c19.126 0 34.63-15.504 34.63-34.63.001-19.317-15.72-34.631-34.629-34.631z"/><path d="m313.979 225.579c.171 1.806 1.709 3.269 3.651 3.218 1.821-.048 3.271-1.563 3.444-3.377l6.677-70.149c.558-5.858 5.477-10.331 11.361-10.331h7.61c7.86 0 13.368-7.76 10.773-15.18l-4.707-13.461c-.423-1.211-.64-2.484-.64-3.767v-80.245c0-5.012-1.073-9.77-2.989-14.071-16.303-6.541-33.439-11.441-51.206-14.501-.39.267-.777.538-1.155.821-8.444 6.315-13.91 16.394-13.91 27.75v82.181l-11.72 30.47h35.135z"/><path d="m396.735 339.26c-32.733-32.733-86.541-24.432-109.026 13.531-3.546 5.987-10.914 8.606-17.491 6.336-.135-.047-.269-.093-.404-.14-4.941-1.715-8.531-5.983-9.578-11.106-6.485-31.728-34.539-55.6-68.184-55.6-4.501 0-8.901.431-13.162 1.251-5.497 1.058-11.15-.721-14.896-4.88-.377-.418-.752-.838-1.127-1.259-7.087-7.971-4.415-20.521 5.339-24.837l78.878-34.896c10.702-4.735 15.539-17.248 10.804-27.95l-76.834-173.67c-2.42-5.469-6.875-9.393-12.078-11.304-21.308 7.6-41.304 17.96-59.559 30.649 0-.001 0-.001.001-.002-65.475 45.297-109.418 122.051-109.418 209.085 0 140.539 113.929 254.468 254.468 254.468 97.249 0 181.745-54.558 224.575-134.733 7.586-14.201-6.992-30.07-21.678-23.472-.284.128-.569.255-.854.382-20.304 9.032-43.905 4.166-59.545-11.62-.077-.078-.154-.156-.231-.233z"/></g><g><g><path d="m222.26 194.28-69.869-157.928c-4.734-10.702-17.248-15.539-27.95-10.804l-89.603 39.641 74.765 181.578z" fill="#ff5551"/><path d="m192.153 176.323-54.762-123.78-56.373 24.94 62.962 142.316-13.26 5.866c-10.702 4.735-23.215-.103-27.95-10.804l-66.497-150.307-22.701 10.043c-10.702 4.735-15.539 17.248-10.805 27.95l76.833 173.67c4.734 10.702 17.248 15.539 27.949 10.804l110.87-49.05c10.702-4.735 15.539-17.248 10.804-27.95l-10.336-23.364c-10.235 4.53-22.205-.098-26.734-10.334z" fill="#e20a62"/><path d="m114.706 60.263h46.906v172.432h-46.906z" fill="#fff" transform="matrix(.915 -.405 .405 .915 -47.451 68.421)"/><path d="m102.33 71.443h21.117v172.432h-21.117z" fill="#6ee1ff" transform="matrix(.915 -.405 .405 .915 -54.135 59.153)"/><circle cx="135.524" cy="147.645" fill="#1a396b" r="14.193"/></g><g><path d="m348.774 275.827-102.734-9.778c-1.955-.186-3.389-1.922-3.203-3.877.164-1.726 1.538-3.045 3.203-3.203l102.734-9.779c7.355-.7 13.886 4.695 14.586 12.051.7 7.355-4.695 13.886-12.051 14.586-.833.08-1.73.072-2.535 0z" fill="#fff"/><path d="m473.57 257.288h-101.13v39.851h66.893c19.126 0 34.63-15.504 34.63-34.63-.001-1.775-.136-3.518-.393-5.221z" fill="#ffc305"/><path d="m400.823 262.509h73.138c0-19.126-15.504-34.63-34.63-34.63h-82.181v69.26h21.429v-12.387c.001-12.284 9.96-22.243 22.244-22.243z" fill="#ff8500"/><path d="m357.151 297.139v-69.26l-30.471-11.72v91.635z" fill="#f8e000"/></g><g><path d="m302.175 133.157-9.778 102.734c-.186 1.955-1.922 3.389-3.877 3.203-1.726-.164-3.045-1.538-3.203-3.203l-9.779-102.734c-.7-7.355 4.695-13.886 12.051-14.586 7.355-.7 13.886 4.695 14.586 12.051.079.833.071 1.729 0 2.535z" fill="#fff"/><path d="m323.486 111.165v-68.566c0-19.126-15.504-34.63-34.63-34.63-.873 0-1.735.043-2.591.107v103.089z" fill="#ffc305"/><path d="m288.856 81.108v-73.139c-19.126 0-34.63 15.504-34.63 34.63v82.181h69.26v-21.429h-12.386c-12.285 0-22.244-9.959-22.244-22.243z" fill="#ff8500"/><path d="m323.486 124.78h-69.26l-11.719 30.471h91.634z" fill="#f8e000"/></g><path d="m163.389 302.592c-17.661 0-33.786 6.577-46.059 17.414-14.446 12.756-14.126 31.415-14.126 52.201 0 38.448 21.737 65.354 60.185 65.354 12.6 0 24.418.914 34.614-4.94 20.915-12.009 35.002-34.566 35.002-60.414-.001-38.447-31.169-69.615-69.616-69.615zm0 129.768-12.879-50.015h25.759z" fill="#fff"/><path d="m270.218 359.127c-27.186 27.186-21.927 55.018 5.259 82.205 16.38 16.381 33.037 29.582 54.292 26.224 14.022-2.216 27.497-8.727 38.303-19.533 27.187-27.187 27.187-71.264 0-98.451-18.066-18.066-43.59-24.127-66.661-18.182-11.647 3-22.072 18.616-31.193 27.737zm91.163 82.204-44.473-26.259 18.214-18.214z" fill="#fff"/><g><path d="m310.025 436.335c-23.666-25.799-24.336-65.721-1.526-92.279.148-.173.297-.344.447-.515 4.879-5.573-.36-13.996-7.533-12.149-12.785 3.292-24.817 10.271-34.408 20.94-23.784 26.455-23.57 67.225.47 93.448 16.524 18.026 40.095 25.28 62.295 21.77 7.76-1.227 9.362-11.77 2.238-15.082-8.064-3.75-15.556-9.127-21.983-16.133z" fill="#6ee1ff"/></g><g><path d="m194.657 421.386c-9.59 0-18.726-1.94-27.04-5.448l-4.229 16.422-5.538-21.507c-19.696-12.296-32.809-34.153-32.809-59.082 0-8.273 1.446-16.206 4.097-23.564 2.596-7.206-6.064-13.266-11.806-8.197-14.444 12.751-23.556 31.402-23.56 52.183-.007 37.26 29.905 68.295 67.143 69.586 13.528.469 26.224-2.928 37.081-9.168 5.374-3.089 3.079-11.245-3.12-11.225-.072 0-.145 0-.219 0z" fill="#6ee1ff"/></g></g></g></svg>