<svg id="Capa_1" enable-background="new 0 0 512 512" height="512" viewBox="0 0 512 512" width="512" xmlns="http://www.w3.org/2000/svg"><g><g><path d="m512 256c0 141.387-114.613 256-256 256s-256-114.613-256-256 114.613-256 256-256 256 114.613 256 256zm0 0" fill="#ff0f47"/><path d="m512 256c0 26.051-3.891 51.191-11.129 74.871-5.031 16.469-11.672 32.231-19.75 47.109-8.25 15.2-147.391 19.91-225.121 19.91s-216.871-4.71-225.109-19.91c-3.289-6.031-6.332-12.21-9.121-18.531-14-31.629-21.77-66.629-21.77-103.449 0-46.219 12.25-89.57 33.68-127 44.121 77.07 127.16 129 222.32 129s178.211-51.93 222.32-129c21.43 37.43 33.68 80.781 33.68 127zm0 0" fill="#ba1956"/><path d="m481.262 377.699c-7.16 13.223-15.434 25.742-24.723 37.43-8.437 10.633-17.719 20.57-27.719 29.723-45.539 41.699-106.211 67.148-172.82 67.148s-127.281-25.449-172.82-67.148c-10-9.153-19.282-19.09-27.719-29.723-9.289-11.688-17.563-24.207-24.723-37.43zm0 0" fill="#742466"/></g><g><path d="m143.793 129v91.262h112.207l-37.403-91.262z" fill="#ff6b82"/><path d="m182.194 129v91.262h73.806l-24.602-91.262z" fill="#ff415d"/><path d="m293.402 129-37.402 91.262h112.207v-91.262z" fill="#576ceb"/><path d="m293.402 129h-37.402l-44.883 91.262h82.285z" fill="#8bfff4"/><path d="m218.597 129h37.402v91.262h-37.402z" fill="#fff"/><path d="m368.207 197.82h-112.207l-14.961 22.441 14.961 22.442h112.207c12.394 0 22.441-10.047 22.441-22.441s-10.047-22.442-22.441-22.442z" fill="#ff7040"/><path d="m143.793 197.82c-12.394 0-22.441 10.047-22.441 22.441s10.047 22.441 22.441 22.441h112.207v-44.882z" fill="#ffa663"/><path d="m199.896 197.82c-12.394 0-22.441 10.047-22.441 22.441s10.047 22.441 22.441 22.441h56.104v-44.882z" fill="#ff903d"/><path d="m256 242.703-67.324 134.648 67.324 134.649c74.364 0 134.648-60.284 134.648-134.648 0-74.365-60.284-134.649-134.648-134.649z" fill="#ff903d"/><path d="m121.351 377.352c0 74.364 60.284 134.648 134.649 134.648v-269.297c-74.365 0-134.649 60.284-134.649 134.649z" fill="#ffb03b"/><path d="m256 287.586-44.883 89.766 44.883 89.765c49.576 0 89.766-40.189 89.766-89.766s-40.19-89.765-89.766-89.765z" fill="#ffb03b"/><path d="m166.234 377.352c0 49.576 40.189 89.766 89.766 89.766v-179.532c-49.577 0-89.766 40.189-89.766 89.766z" fill="#ffc46c"/><path d="m166.234 377.352c0 49.576 40.189 89.766 89.766 89.766-59.844 0-59.844-179.531 0-179.531-49.577-.001-89.766 40.188-89.766 89.765z" fill="#ffd391"/></g><g fill="#fff"><path d="m270.369 41.5h-1.524c-6.754 0-12.226-5.477-12.226-12.227v-1.523h-8.715v1.523c0 6.75-5.477 12.227-12.227 12.227h-1.527v8.715h1.527c6.75 0 12.227 5.472 12.227 12.226v1.528h8.715v-1.528c0-6.754 5.472-12.226 12.226-12.226h1.524zm0 0"/><path d="m379.904 78.767h-1.524c-6.754 0-12.226-5.477-12.226-12.227v-1.523h-8.715v1.523c0 6.75-5.477 12.227-12.227 12.227h-1.527v8.715h1.527c6.75 0 12.227 5.472 12.227 12.226v1.528h8.715v-1.528c0-6.754 5.472-12.226 12.226-12.226h1.524zm0 0"/><path d="m160.834 78.767h-1.524c-6.754 0-12.226-5.477-12.226-12.227v-1.523h-8.715v1.523c0 6.75-5.477 12.227-12.227 12.227h-1.527v8.715h1.527c6.75 0 12.227 5.472 12.227 12.226v1.528h8.715v-1.528c0-6.754 5.472-12.226 12.226-12.226h1.524zm0 0"/></g></g></svg>