<svg id="Capa_1" enable-background="new 0 0 512 512" height="512" viewBox="0 0 512 512" width="512" xmlns="http://www.w3.org/2000/svg"><g><g><path d="m256 311.605c-141.387 0-245.406-138.716-226.686-174.284 42.853-81.419 128.285-136.934 226.686-136.934 97.204 0 181.752 54.173 225.103 133.974 19.704 36.273-83.716 177.244-225.103 177.244z" fill="#e27fad"/><path d="m512 256.387c0 26.051-3.891 51.191-11.129 74.871-5.031 16.469-11.672 32.231-19.75 47.109-8.25 15.2-147.391 64.861-225.121 64.861s-216.871-49.661-225.109-64.861c-3.289-6.031-6.332-12.21-9.121-18.531-14-31.629-21.77-66.629-21.77-103.449 0-46.219 12.25-89.57 33.68-127 44.121 77.07 127.16 129 222.32 129s178.211-51.93 222.32-129c21.43 37.43 33.68 80.781 33.68 127zm0 0" fill="#dc4180"/><path d="m481.262 378.086c-7.16 13.223-15.434 25.742-24.723 37.43-3.41 4.298-6.958 8.481-10.636 12.546-5.422 5.992-123.294 65.343-189.903 65.343s-186.227-61.119-192.381-68.122c-2.799-3.186-5.52-6.443-8.158-9.767-9.289-11.688-17.563-24.207-24.723-37.43zm0 0" fill="#9f165b"/></g><g><path d="m447.992 425.704-10.984-10.984c-6.432-6.432-9.975-14.985-9.975-24.081v-53.198c0-9.096 3.542-17.649 9.975-24.081l12.729-12.729v-38.758c0-25.038-20.37-45.407-45.407-45.407h-148.33l-79.463 147.574 79.463 147.573h19.999c68.378-5.283 129.214-37.438 171.993-85.909zm-94.745 29.15h-46.164c-15.674 0-28.379-12.706-28.379-28.379 0-15.674 12.706-28.38 28.379-28.38h46.164c15.673 0 28.379 12.706 28.379 28.379 0 15.674-12.705 28.38-28.379 28.38z" fill="#d85819"/><path d="m256 216.467h-193.737v207.261c42.861 49.578 104.431 82.53 173.738 87.885h20v-295.146z" fill="#e38031"/><path d="m62.263 423.728c26.152 30.251 59.277 54.297 96.869 69.677v-276.938h-96.869z" fill="#ffad82"/></g><g fill="#fff"><path d="m418.633 145.661h-1.524c-6.754 0-12.226-5.477-12.226-12.227v-1.523h-8.715v1.523c0 6.75-5.477 12.227-12.227 12.227h-1.527v8.715h1.527c6.75 0 12.227 5.472 12.227 12.226v1.528h8.715v-1.528c0-6.754 5.472-12.226 12.226-12.226h1.524zm0 0"/><path d="m331.247 88.431h-1.524c-6.754 0-12.226-5.477-12.226-12.227v-1.523h-8.715v1.523c0 6.75-5.477 12.227-12.227 12.227h-1.527v8.715h1.527c6.75 0 12.227 5.472 12.227 12.226v1.528h8.715v-1.528c0-6.754 5.472-12.226 12.226-12.226h1.524zm0 0"/><path d="m210.811 88.431h-1.524c-6.754 0-12.226-5.477-12.226-12.227v-1.523h-8.715v1.523c0 6.75-5.477 12.227-12.227 12.227h-1.527v8.715h1.527c6.75 0 12.227 5.472 12.227 12.226v1.528h8.715v-1.528c0-6.754 5.472-12.226 12.226-12.226h1.524zm0 0"/><path d="m114.477 145.661h-1.524c-6.754 0-12.226-5.477-12.226-12.227v-1.523h-8.715v1.523c0 6.75-5.477 12.227-12.227 12.227h-1.527v8.715h1.527c6.75 0 12.227 5.472 12.227 12.226v1.528h8.715v-1.528c0-6.754 5.472-12.226 12.226-12.226h1.524zm0 0"/></g></g></svg>