<svg id="Capa_1" enable-background="new 0 0 512 512" height="512" viewBox="0 0 512 512" width="512" xmlns="http://www.w3.org/2000/svg"><g><g><path d="m512 256c0 43.79-11 85.02-30.39 121.07l-225.61 49.67-225.61-49.67c-19.39-36.05-30.39-77.28-30.39-121.07 0-46.63 12.47-90.34 34.26-128 41.698 72.091 399.22 76.52 443.48 0 21.79 37.66 34.26 81.37 34.26 128z" fill="#c02e71"/><path d="m477.74 128c-44.26 76.52-126.99 128-221.74 128s-177.48-51.48-221.74-128c.01-.02.03-.05.04-.07 44.27-76.48 126.98-127.93 221.7-127.93s177.43 51.45 221.7 127.93c.01.02.03.05.04.07z" fill="#d95f91"/><path d="m481.61 377.07c-6.58 12.23-14.12 23.87-22.53 34.81-4.496 5.849-9.24-2.505-14.216 2.931-5.029 5.494-10.296 24.773-15.784 29.809-45.56 41.84-106.34 67.38-173.08 67.38s-127.52-25.54-173.08-67.38c-6.176-5.667-6.673-25.258-12.264-31.501-4.295-4.796-13.808 3.87-17.736-1.239-8.41-10.94-15.95-22.58-22.53-34.81z" fill="#815"/></g><g><path d="m120.389 142.93h20v183.008h-20z" fill="#616579"/><g><ellipse cx="130.39" cy="325.94" fill="#daddee" rx="41.87" ry="41.87" transform="matrix(.707 -.707 .707 .707 -192.284 187.665)"/><path d="m172.26 325.94c0 23.12-18.75 41.87-41.87 41.87v-83.74c23.12 0 41.87 18.74 41.87 41.87z" fill="#c8cde4"/></g></g><g><path d="m396.239 139.349h20v172.99h-20z" fill="#464652" transform="matrix(.959 -.285 .285 .959 -47.493 125.031)"/><g><ellipse cx="430.87" cy="308.76" fill="#daddee" rx="41.87" ry="41.87" transform="matrix(.707 -.707 .707 .707 -92.127 395.105)"/><path d="m472.74 308.76c0 23.12-18.75 41.87-41.87 41.87v-83.74c23.12 0 41.87 18.74 41.87 41.87z" fill="#c8cde4"/></g></g><g><path d="m204.129 142.93h20v183.008h-20z" fill="#616579"/><g><ellipse cx="214.13" cy="325.94" fill="#daddee" rx="41.87" ry="41.87" transform="matrix(.707 -.707 .707 .707 -167.757 246.878)"/><path d="m256 325.94c0 23.12-18.75 41.87-41.87 41.87v-83.74c23.12 0 41.87 18.74 41.87 41.87z" fill="#c8cde4"/></g></g><g><path d="m287.869 142.93h20v183.008h-20z" fill="#464652"/><g><ellipse cx="297.87" cy="325.94" fill="#daddee" rx="41.87" ry="41.87" transform="matrix(.707 -.707 .707 .707 -143.23 306.092)"/><path d="m339.74 325.94c0 23.12-18.75 41.87-41.87 41.87v-83.74c23.12 0 41.87 18.74 41.87 41.87z" fill="#c8cde4"/></g></g><path d="m459.08 127.93v283.95c-9.04 11.76-19.08 22.72-30 32.74v-286.69h-346.16v286.69c-10.92-10.02-20.96-20.98-30-32.74v-283.95z" fill="#f5dd6e"/><path d="m459.08 127.93v283.95c-9.04 11.76-19.08 22.72-30 32.74v-286.69h-173.08v-30z" fill="#eec036"/></g></svg>