<svg id="Capa_1" enable-background="new 0 0 512 512" height="512" viewBox="0 0 512 512" width="512" xmlns="http://www.w3.org/2000/svg"><circle cx="256" cy="256" fill="#65b2fe" r="256"/><path d="m512 256c0 87.11-43.52 164.07-110 210.31-41.41 28.8-91.73 45.69-146 45.69s-104.59-16.89-146-45.69c-66.48-46.24-110-123.2-110-210.31 0-46.22 12.25-89.57 33.68-127 44.12 77.07 127.16 129 222.32 129s178.21-51.93 222.32-129c21.43 37.43 33.68 80.78 33.68 127z" fill="#0e9ce7"/><path d="m452 316c0 105.34-83.12 191.28-187.34 195.81-.31.02-.62.03-.93.04-.87.03-1.74.06-2.6.08-1.73.05-3.44.07-5.13.07-108.24 0-196-87.76-196-196s87.76-196 196-196h.28c108.11.15 195.72 87.85 195.72 196z" fill="#ffe853"/><path d="m452 316c0 105.34-83.12 191.28-187.34 195.81-.31.02-.62.03-.93.04-.87.03-1.74.06-2.6.08-1.73.05-3.44.07-5.13.07-58.54-45.3-103.35-116.25-103.35-196s44.81-150.7 103.35-196h.28c108.11.15 195.72 87.85 195.72 196z" fill="#fed110"/><path d="m452 316c0 108.244-87.756 196-196 196v-392c108.244 0 196 87.756 196 196z" fill="#ff9f01"/><path d="m280.884 290.463c1.366 23.366 20.018 42.507 43.344 44.445 27.345 2.271 50.376-18.69 51.469-45.308.03-.642.045-1.298.046-1.939 0-.052 0-.103 0-.154-.008-4.424-5.804-6.143-8.31-2.497-8.561 12.457-22.925 20.619-39.178 20.598-16.25-.022-30.59-8.21-39.132-20.682-2.523-3.684-8.312-1.904-8.323 2.562-.002.983.025 1.976.084 2.975z" fill="#29334c"/><path d="m135.938 291.162c1.366 23.366 20.018 42.507 43.343 44.445 27.345 2.271 50.376-18.69 51.469-45.308.03-.642.045-1.298.046-1.939 0-.051 0-.103 0-.154-.008-4.424-5.804-6.143-8.31-2.497-8.561 12.457-22.925 20.619-39.178 20.598-16.25-.022-30.59-8.211-39.132-20.682-2.523-3.684-8.312-1.904-8.323 2.562-.001.983.026 1.976.085 2.975z" fill="#29334c"/><path d="m217.362 224.434c-16.242 20.451-46.793 29.91-73.514 21.32-.021-.007-.042-.013-.063-.02-2.001-.645-3.955 1.344-2.802 2.874 4.777 6.339 11.996 11.344 21.15 13.927 21.13 5.963 45.356-3.583 55.048-21.676 2.733-5.102 4.081-10.374 4.188-15.506.037-1.847-2.76-2.489-4.007-.919z" fill="#ed771b"/><path d="m294.638 224.434c16.242 20.451 46.793 29.91 73.515 21.32.021-.007.042-.013.063-.02 2-.645 3.955 1.344 2.802 2.874-4.777 6.339-11.996 11.344-21.15 13.927-21.13 5.963-45.356-3.583-55.048-21.676-2.733-5.102-4.081-10.374-4.188-15.506-.038-1.847 2.759-2.489 4.006-.919z" fill="#c55835"/><path d="m447.03 360.07c-2.01 8.71-4.59 17.2-7.71 25.43l-81.97 23.59v-23.21z" fill="#d1f6ff"/><path d="m154.65 385.88v23.21l-81.97-23.59c-3.12-8.22-5.7-16.72-7.7-25.43z" fill="#fff"/><path d="m381.47 466.56c-10.62 8.88-22.2 16.64-34.55 23.11h-181.85c-12.35-6.48-23.92-14.23-34.54-23.09l3.52-63.42 1.27-22.84.25-4.56c.55-9.78 8.64-17.43 18.43-17.43h204c9.79 0 17.88 7.65 18.43 17.43l.25 4.56 1.27 22.84z" fill="#d1f6ff"/><path d="m381.47 466.56c-10.62 8.88-22.2 16.64-34.55 23.11h-90.92v-131.34h102c9.79 0 17.88 7.65 18.43 17.43l.25 4.56 1.27 22.84z" fill="#8fc9f7"/><path d="m354.35 456.12-3.61-64.98c-.2-3.54-3.12-6.31-6.67-6.31h-176.14c-3.55 0-6.47 2.77-6.67 6.31l-3.61 64.98c-.21 3.83 2.84 7.05 6.67 7.05h183.36c3.83 0 6.88-3.22 6.67-7.05z" fill="#8fc9f7"/><path d="m347.68 463.17h-91.68v-78.34h88.07c3.55 0 6.47 2.77 6.67 6.31l3.61 64.98c.21 3.83-2.84 7.05-6.67 7.05z" fill="#65b2fe"/><g fill="#fff"><path d="m422.579 247.112c-2.549-4.165-8.016-14.556-11.161-20.599-.99-1.902-3.71-1.894-4.688.014-3.109 6.062-8.514 16.485-11.039 20.665-3.837 6.354-2.773 14.833 3.177 20.006 5.873 5.105 14.812 5.079 20.654-.061 5.918-5.208 6.931-13.693 3.057-20.025z"/><path d="m108.579 302.446c-2.549-4.165-8.016-14.556-11.161-20.599-.99-1.902-3.71-1.894-4.688.014-3.109 6.061-8.514 16.485-11.039 20.665-3.837 6.354-2.773 14.833 3.177 20.006 5.873 5.105 14.812 5.079 20.654-.062 5.918-5.208 6.931-13.693 3.057-20.024z"/><path d="m210.579 174.446c-2.549-4.165-8.016-14.556-11.161-20.599-.99-1.902-3.71-1.894-4.688.014-3.109 6.062-8.514 16.485-11.039 20.665-3.837 6.354-2.773 14.833 3.177 20.006 5.873 5.105 14.812 5.079 20.654-.061 5.918-5.209 6.932-13.694 3.057-20.025z"/><path d="m332.661 184.673c-1.933-3.158-6.077-11.035-8.462-15.617-.751-1.442-2.813-1.436-3.554.011-2.357 4.595-6.455 12.498-8.369 15.667-2.909 4.817-2.102 11.245 2.408 15.167 4.452 3.87 11.229 3.85 15.658-.047 4.488-3.949 5.256-10.381 2.319-15.181z"/></g></svg>