<svg id="Layer_1" enable-background="new 0 0 513 513" height="512" viewBox="0 0 513 513" width="512" xmlns="http://www.w3.org/2000/svg"><g><g><circle cx="256.5" cy="255" fill="#ff5551" r="255"/></g><path d="m437.109 435.009v-.024c4.274-4.289 8.397-8.728 12.359-13.31 3.314-3.832-.764-9.572-5.469-7.691-.084.034-.168.067-.252.101-3.182 1.268-6.639-1.102-6.639-4.527v-23.038c0-3.478-2.819-6.297-6.297-6.297-3.478 0-6.297-2.819-6.297-6.297v-198.977c0-51.791-41.985-93.775-93.775-93.775h-54.229c-9.778 0-18.456-5.886-22.494-14.791-6.192-13.653-19.936-23.149-35.904-23.149-5.589 0-10.902 1.17-15.718 3.267-.316.336-23.279 8.603-23.699 36.15v15.324h-50.905c-10.428 0-17.436-10.65-13.365-20.251.106-.25.212-.499.319-.749 6.045-14.13-11.061-26.685-22.797-16.762-55.318 46.771-90.447 116.673-90.447 194.787 0 92.134 48.867 172.848 122.092 217.657 40.29 24.122 84.039 37.343 132.908 37.343 69.998 0 134.068-28.296 180.609-74.991zm-337.648-309.21h79.233v43.203h12.77v13.491h46.907c3.526 0 6.385-2.859 6.385-6.385v-.721c0-3.526 2.859-6.385 6.385-6.385 3.526 0 6.385-2.859 6.385-6.385v-30.307h28.055c31.297 0 56.331 25.359 56.331 56.331v67.414h-73.697c-5.771 0-8.945-6.576-5.48-11.191 2.654-3.535 4.537-7.681 5.4-12.19.556-2.906-1.647-5.61-4.606-5.61h-91.385c-2.959 0-5.162 2.704-4.606 5.61 2.226 11.635 11.246 20.853 22.771 23.381h-35.948v31.031h73.618 69.803v93.137h-47.522c-44.018 0-85.36-21.426-110.486-57.568-39.735-57.156-54.336-128.364-40.313-196.856z" fill="#e20a62"/><g><path d="m177.779 241.308v15.262l14.425 14.425h28.599c16.396 0 29.687-13.291 29.687-29.687z" fill="#fff"/><path d="m179.834 241.308h-31c0 16.396 13.291 29.687 29.687 29.687h31c-16.395 0-29.687-13.291-29.687-29.687z" fill="#faf58c"/><path d="m195.418 130.015v-17.797h-119.241c-7.684 0-13.912 6.229-13.912 13.912 0 1.35.202 2.651.561 3.885z" fill="#ffc305"/><path d="m64.106 119.233c-1.165 2.035-1.841 4.385-1.841 6.898 0 7.683 6.229 13.912 13.912 13.912h119.24v-13.796h-119.239c-5.171 0-9.674-2.828-12.072-7.014z" fill="#ff8500"/><path d="m195.418 480.189h223.515v32.811h-223.515z" fill="#2d56a1"/><path d="m105.416 480.189h99.004v32.811h-99.004z" fill="#1a396b"/><path d="m206.325 270.299v31.031h73.283v93.137h44.13v-124.168z" fill="#2d56a1"/><path d="m136.187 270.299h73.618v31.031h-73.618z" fill="#1a396b"/><path d="m312.563 95.418h-54.855v51.135h9.699c16.019 0 30.465 6.698 40.721 17.432 2.858-.922 5.878-1.479 8.988-1.618 16.735-.75 30.988 14.779 30.988 30.988v54.572c.616 2.374.952 4.817.952 7.278v149.392c0 1.477-.11 2.918-.309 4.326h57.591v-219.73c.001-51.79-41.984-93.775-93.775-93.775z" fill="#82cd64"/><path d="m229.962 95.418h29.715v51.135h-29.715z" fill="#20b7a1"/><path d="m173.289 175.159h53.293v21.578h-53.293z" fill="#1a396b"/><path d="m239.352 168.077v-71.182c0-21.769-17.647-39.417-39.417-39.417-7.406 0-14.333 2.047-20.253 5.599v104.999h59.67z" fill="#6ee1ff"/><path d="m195.709 163.05c-8.21 0-14.865-6.655-14.865-14.865v-71.486c0-5.68 1.211-11.075 3.374-15.953-13.945 6.072-23.699 19.969-23.699 36.15v86.351h78.833v-20.197z" fill="#2896ff"/><path d="m369.626 298.511c-5.711-.826-11.192-.216-16.174 1.482v-97.109c0-31.11-25.22-56.33-56.33-56.33h-29.715c31.11 0 56.33 25.22 56.33 56.33v206.039h29.715v-36.139c0-.081.001-.162.003-.242.077-3.431 3.216-5.904 6.618-5.457 1.476.194 2.982.295 4.51.295 20.28 0 36.542-17.529 34.432-38.232-1.594-15.637-13.833-28.387-29.389-30.637zm18.8 36.998c-1.234-11.576-10.873-20.816-22.595-21.413-4.483-.228-8.709.781-12.38 2.706v-5.306c3.328-1.746 7.113-2.738 11.131-2.738 13.257 0 24.004 10.747 24.004 24.004.001.93-.057 1.845-.16 2.747z" fill="#20b7a1"/><circle cx="364.583" cy="325.334" fill="#ff8500" r="24.004"/><path d="m364.583 301.33c13.257 0 24.004 10.747 24.004 24.004s-10.747 24.004-24.004 24.004-24.004-10.747-24.004-24.004 10.747-24.004 24.004-24.004m0-10.613c-19.087 0-34.616 15.529-34.616 34.616s15.529 34.616 34.616 34.616 34.616-15.529 34.616-34.616c.001-19.087-15.528-34.616-34.616-34.616z" fill="#faf58c"/><path d="m162.776 394.467h256.156v76.473h-256.156z" fill="#6ee1ff"/><path d="m173.289 433.239v-38.772h-67.873v70.911 14.81h67.873 245.644v-14.81h-213.505c-17.75.001-32.139-14.389-32.139-32.139z" fill="#2896ff"/><path d="m160.518 143.292h78.834" fill="none" stroke="#3f61ff" stroke-miterlimit="10" stroke-width="6.367"/></g></g></svg>