<svg id="Capa_1" enable-background="new 0 0 512 512" height="512" viewBox="0 0 512 512" width="512" xmlns="http://www.w3.org/2000/svg"><g><g><path d="m256 302.365c-141.387 0-243.753-135.939-222.327-173.367 44.119-77.069 127.158-128.998 222.327-128.998 95.171 0 178.21 51.93 222.329 129.001 21.425 37.427-80.942 173.364-222.329 173.364z" fill="#a8eb58"/><path d="m512 256c0 26.051-3.891 51.191-11.129 74.871-5.031 16.469-11.672 32.231-19.75 47.109-8.25 15.2-147.391 54.977-225.121 54.977s-216.871-39.777-225.109-54.977c-3.289-6.031-6.332-12.21-9.121-18.531-14-31.629-21.77-66.629-21.77-103.449 0-46.219 12.25-89.57 33.68-127 44.121 77.07 127.16 129 222.32 129s178.211-51.93 222.32-129c21.43 37.43 33.68 80.781 33.68 127zm0 0" fill="#80cf8c"/><path d="m481.262 377.699c-7.16 13.223-15.434 25.742-24.723 37.43-8.437 10.633-17.719 20.57-27.719 29.723-11.751 10.76-24.509 20.438-38.116 28.875-4.071 2.524-12.04-2.264-16.258.034s-4.686 11.682-9.043 13.745c-33.175 15.707-70.264 24.494-109.403 24.494-39.14 0-76.231-8.787-109.405-24.495-4.566-2.162-4.178-10.375-8.591-12.794-4.01-2.198-12.833 1.419-16.708-.984-13.607-8.438-26.365-18.115-38.116-28.875-10-9.153-19.282-19.09-27.719-29.723-9.289-11.688-17.563-24.207-24.723-37.43zm0 0" fill="#599d8a"/></g><g><path d="m145.785 400.969h-24.492v72.746c8.15 5.054 16.604 9.663 25.33 13.793h128.725v-24.492h-129.563z" fill="#8ab8ec"/><g><path d="m390.707 118.492v86.539h-24.492v-62.047h-105.071v-24.492z" fill="#728ee4"/></g><path d="m261.144 94-17.39 17.39 7.102 7.102h-129.563v86.539h24.492v-62.047h105.071l-7.102 7.103 17.39 17.39 36.738-36.739z" fill="#8ab8ec"/><path d="m366.215 463.016h-80.579l7.102-7.102-17.39-17.39-36.738 36.738 36.057 36.057c.489-.035.978-.066 1.466-.104l16.605-16.605-7.102-7.102h79.741c8.726-4.13 17.179-8.74 25.33-13.793v-72.746h-24.492z" fill="#728ee4"/><path d="m133.539 327.492h-86.539v48.984c0 25.377 43.869 36.738 86.539 36.738s85.723-11.361 85.723-36.738v-48.984z" fill="#dce0ef"/><path d="m219.262 376.477v-48.984h-85.723v85.723c42.67-.001 85.723-11.362 85.723-36.739z" fill="#cad0e7"/><path d="m133.539 278.508h-86.539v48.984c0 25.377 43.869 36.738 86.539 36.738s85.723-11.361 85.723-36.738v-48.984z" fill="#fbf5eb"/><path d="m219.262 327.492v-48.984h-85.723v85.723c42.67-.001 85.723-11.362 85.723-36.739z" fill="#dce0ef"/><path d="m133.539 229.523h-86.539v48.984c0 25.377 43.869 36.738 86.539 36.738s85.723-11.361 85.723-36.738v-48.984z" fill="#dce0ef"/><path d="m219.262 278.508v-48.984h-85.723v85.723c42.67-.001 85.723-11.362 85.723-36.739z" fill="#cad0e7"/><path d="m133.539 192.785c-42.67 0-86.539 11.361-86.539 36.738s43.869 36.738 86.539 36.738 85.723-11.361 85.723-36.738-43.053-36.738-85.723-36.738z" fill="#fbf5eb"/><path d="m219.262 229.523c0-25.377-43.053-36.738-85.723-36.738v73.476c42.67.001 85.723-11.36 85.723-36.738z" fill="#dce0ef"/><path d="m378.461 327.492h-85.723v48.984c0 25.377 43.053 36.738 85.723 36.738s86.539-11.361 86.539-36.738v-48.984z" fill="#dce0ef"/><path d="m465 376.477v-48.984h-86.539v85.723c42.67-.001 86.539-11.362 86.539-36.739z" fill="#cad0e7"/><path d="m378.461 278.508h-85.723v48.984c0 25.377 43.053 36.738 85.723 36.738s86.539-11.361 86.539-36.738v-48.984z" fill="#fbf5eb"/><path d="m465 327.492v-48.984h-86.539v85.723c42.67-.001 86.539-11.362 86.539-36.739z" fill="#dce0ef"/><path d="m378.461 229.523h-85.723v48.984c0 25.377 43.053 36.738 85.723 36.738s86.539-11.361 86.539-36.738v-48.984z" fill="#dce0ef"/><path d="m465 278.508v-48.984h-86.539v85.723c42.67-.001 86.539-11.362 86.539-36.739z" fill="#cad0e7"/><path d="m378.461 192.785c-42.67 0-85.723 11.361-85.723 36.738s43.053 36.738 85.723 36.738 86.539-11.361 86.539-36.738-43.869-36.738-86.539-36.738z" fill="#fbf5eb"/><path d="m465 229.523c0-25.377-43.869-36.738-86.539-36.738v73.476c42.67.001 86.539-11.36 86.539-36.738z" fill="#dce0ef"/></g></g></svg>