<svg id="Icons" enable-background="new 0 0 512 512" height="512" viewBox="0 0 512 512" width="512" xmlns="http://www.w3.org/2000/svg"><g><circle cx="256" cy="256" fill="#f39e22" r="256"/><g id="Book_5_"><path d="m281.751 361.929c-5.477-16.143-20.135-16.334-36.278-10.857s-27.657 14.55-22.18 30.692c14.697 38.25 70.077 19.444 58.458-19.835z" fill="#528f66"/><path d="m278.248 351.603c-5.477-16.143-20.135-16.334-36.278-10.857s-27.657 14.55-22.18 30.692c14.696 38.25 70.076 19.444 58.458-19.835z" fill="#50755c"/><path d="m341.481 103.865 64.762 190.861c2.401 7.076 1.259 14.513-2.491 20.35-2.79 4.367-7.015 7.843-12.301 9.637l-277.854 94.28c-12.218 4.185-25.762-2.352-29.976-14.796l-64.763-190.862c-2.618-7.714-1.025-15.853 3.553-21.901 2.749-3.629 6.592-6.509 11.229-8.082l277.854-94.28c12.278-4.177 25.774 2.375 29.987 14.793z" fill="#528f66"/><path d="m38.547 206.654 64.762 190.861c2.618 7.714 1.025 15.853-3.542 21.897-7.313-2.013-13.529-7.502-16.147-15.216l-64.762-190.861c-2.618-7.714-1.025-15.853 3.553-21.901 7.301 2.017 13.518 7.506 16.136 15.22z" fill="#50755c"/><path d="m341.481 103.865 64.762 190.861c2.401 7.076 1.259 14.513-2.491 20.35-6.528-2.349-11.957-7.545-14.361-14.632l-64.762-190.861c-2.404-7.086-1.259-14.513 2.491-20.35 6.528 2.349 11.96 7.556 14.361 14.632z" fill="#53b976"/><path d="m359.823 319.141-224.519 76.182c-10.431 3.539-21.756-2.047-25.296-12.478l-57.217-168.628c-3.539-10.431 2.047-21.756 12.478-25.296l224.519-76.182c10.431-3.539 21.756 2.047 25.296 12.478l57.218 168.628c3.539 10.431-2.048 21.756-12.479 25.296z" fill="#50755c"/><path d="m310.128 110.605 57.218 168.628c1.428 4.208 1.374 8.556.106 12.489-1.87 5.806-6.364 10.692-12.592 12.805l-224.513 76.18c-10.493 3.558-21.812-2.123-25.301-12.472 0 0-57.218-168.628-57.218-168.628-3.541-10.436 2.047-21.763 12.483-25.304l224.513-76.18c10.435-3.542 21.763 2.046 25.304 12.482z" fill="#ebd9ea"/><path d="m310.128 110.605 57.218 168.628c3.537 10.425-2.05 21.753-12.486 25.294l-112.251 38.088-70.037-206.405 112.251-38.088c10.436-3.541 21.764 2.047 25.305 12.483z" fill="#fff"/><path d="m367.451 291.721c-1.87 5.806-6.364 10.692-12.592 12.805l-224.513 76.18c-6.228 2.113-12.767.97-17.784-2.498 1.856-5.812 6.36-10.702 12.588-12.816l224.513-76.18c6.228-2.112 12.778-.973 17.788 2.509z" fill="#c1b7d3"/><g fill="#6c53a2"><path d="m190.785 189.887-85.906 29.149c-4.229 1.435-8.82-.83-10.255-5.059s.83-8.82 5.059-10.255l85.906-29.149z"/><path d="m206.636 236.602-85.906 29.149c-4.229 1.435-8.82-.83-10.255-5.059s.83-8.82 5.059-10.255l85.906-29.149z"/><path d="m222.488 283.318-85.906 29.149c-4.229 1.435-8.82-.83-10.255-5.059s.83-8.82 5.059-10.255l85.906-29.149z"/></g><path d="m217.286 268.006 85.906-29.149c4.229-1.435 8.82.83 10.255 5.059s-.83 8.82-5.059 10.255l-85.906 29.149z" fill="#9175a7"/><path d="m201.435 221.29 85.906-29.149c4.229-1.435 8.82.83 10.255 5.059s-.83 8.82-5.059 10.255l-85.906 29.149z" fill="#9175a7"/><path d="m185.584 174.575 85.906-29.149c4.229-1.435 8.82.83 10.255 5.059s-.83 8.82-5.059 10.255l-85.906 29.149z" fill="#9175a7"/></g><g id="Apple"><g><g><path d="m483.587 302.774c0-48.107-38.999-65.891-87.106-65.891s-87.106 17.784-87.106 65.891c4.59 115.547 169.643 115.509 174.212 0z" fill="#c0405c"/></g><g><path d="m476.061 303.767c0-37.463-24.227-42.075-69.375-26.873-35.504 11.955-66.289-10.59-66.289 26.873 3.575 89.983 132.106 89.948 135.664 0z" fill="#e9465e"/></g><g><path d="m340.4 277.061c-7.572.08-11.274-9.692-5.35-14.628 20.466-17.262 64.23-27.294 102.046-14.2 4.326 1.497 6.619 6.22 5.121 10.546-1.496 4.326-6.214 6.62-10.546 5.121-35.133-12.161-72.046-.503-85.93 11.208-1.556 1.312-3.454 1.953-5.341 1.953z" fill="#e9465e"/></g><g><path d="m367.393 263.495c-3.566 0-6.86-2.319-7.937-5.91-1.316-4.386 1.173-9.007 5.558-10.323 16.939-5.083 35.79-6.409 53.08-3.726 10.78 2.073 8.388 17.671-2.539 16.384-15.806-2.755-32.646-.395-48.162 3.575z" fill="#ee6781"/></g><g><path d="m462.717 291.084c-2.694-14.828-19.424-13.674-48.89-2.104-23.172 9.098-45.631 3.961-42.937 18.789 8.586 35.167 96.177 19.228 91.827-16.685z" fill="#ee6781"/></g><path d="m447.716 301.779c0-7.694-6.237-13.931-13.931-13.931-18.48.734-18.474 27.132 0 27.863 7.694-.001 13.931-6.238 13.931-13.932z" fill="#f0a6b3"/></g><g><g><path d="m441.816 194.35c-4.233 7.428-42.512 28.176-42.512 28.176-2.178 2.177-3.371 5.084-3.371 8.168v39.66c-.211 7.374-10.976 7.433-11.208 0v-39.66c0-6.079 2.366-11.794 6.654-16.093l34.299-34.288 1.912-1.912c2.189-2.189 5.737-2.189 7.925 0 2.19 2.187 9.673 10.058 6.301 15.949z" fill="#bf5e39"/></g><g><path d="m431.471 194.627c-3.747 6.566-37.571 24.904-37.571 24.904-1.923 1.923-2.984 4.487-2.984 7.206v35.051c.048 3.188-3.131 5.644-6.19 4.786v-35.879c0-6.079 2.366-11.794 6.654-16.093l34.299-34.288c2.079 2.07 8.758 8.919 5.792 14.313z" fill="#dd5e26"/></g><path d="m406.37 207.182c-1.441-1.624-1.292-4.108.332-5.549l15.029-13.332c1.624-1.441 4.108-1.292 5.549.332s1.292 4.108-.332 5.549l-15.029 13.332c-1.624 1.441-4.109 1.292-5.549-.332z" fill="#ea792e"/></g></g></g></svg>