<?xml version="1.0" encoding="iso-8859-1"?>
<!-- Generator: Adobe Illustrator 19.0.0, SVG Export Plug-In . SVG Version: 6.00 Build 0)  -->
<svg version="1.1" id="Capa_1" xmlns="http://www.w3.org/2000/svg" xmlns:xlink="http://www.w3.org/1999/xlink" x="0px" y="0px"
	 viewBox="0 0 512 512" style="enable-background:new 0 0 512 512;" xml:space="preserve">
<path style="fill:#63A0B2;" d="M512,256c0,141.385-114.615,256-256,256S0,397.385,0,256S114.615,0,256,0S512,114.615,512,256z"/>
<path style="fill:#F8BB5E;" d="M511.615,270C504.344,404.873,392.687,512,256,512S7.656,404.873,0.385,270H511.615z"/>
<path style="fill:#EBAE56;" d="M66.408,428c-38.326-42.225-62.75-97.298-66.023-158h511.229
	c-3.272,60.702-27.697,115.775-66.023,158H66.408z"/>
<path style="fill:#596C76;" d="M466,382.59v19.83c-6.154,8.81-12.84,17.219-20.027,25.17H431c-2.761,0-5-2.239-5-5v-40
	c0-2.762,2.239-5,5-5h30C463.761,377.59,466,379.829,466,382.59z M81,377.59H51c-2.761,0-5,2.238-5,5v19.83
	c6.154,8.81,12.84,17.219,20.027,25.17H81c2.761,0,5-2.239,5-5v-40C86,379.829,83.761,377.59,81,377.59z"/>
<path style="fill:#D9E7EC;" d="M512,243.59v140c0,11.045-8.954,20-20,20h-26.811l0,0H46.811C17.328,361.878,0,310.964,0,256
	c0-5.758,0.209-11.467,0.584-17.131c2.125-8.763,10-15.279,19.416-15.279h179.998c0,0,0.001,0,0.002,0h292c0.006,0,0.011,0,0.017,0
	c0.638,0.001,1.267,0.037,1.89,0.096c0.211,0.02,0.418,0.055,0.627,0.082c0.413,0.053,0.824,0.11,1.229,0.188
	c0.245,0.047,0.486,0.104,0.728,0.159c0.359,0.083,0.715,0.172,1.067,0.274c0.254,0.073,0.505,0.15,0.754,0.233
	c0.327,0.109,0.649,0.229,0.968,0.354c0.255,0.1,0.51,0.198,0.76,0.308c0.296,0.13,0.583,0.275,0.871,0.419
	c0.257,0.128,0.517,0.25,0.768,0.388c0.227,0.126,0.442,0.269,0.664,0.403c0.611,0.371,1.201,0.771,1.767,1.204
	c0.123,0.094,0.251,0.181,0.371,0.277c0.324,0.26,0.632,0.536,0.939,0.815c0.117,0.107,0.237,0.21,0.352,0.32
	c0.31,0.295,0.606,0.603,0.897,0.917c0.09,0.098,0.18,0.196,0.269,0.296c0.302,0.341,0.594,0.689,0.873,1.05
	c0.049,0.063,0.095,0.128,0.144,0.192C510.483,234.916,512,239.071,512,243.59z"/>
<path style="fill:#C5D3DD;" d="M30,256c0,54.964,17.328,105.878,46.811,147.59h-30C17.328,361.878,0,310.964,0,256
	c0-5.758,0.209-11.467,0.584-17.131c2.125-8.763,10-15.279,19.416-15.279h30c-9.416,0-17.291,6.516-19.416,15.279
	C30.209,244.533,30,250.242,30,256z"/>
<path style="fill:#9FACBA;" d="M220,268.59v10c0,2.761-2.239,5-5,5H45c-2.761,0-5-2.239-5-5v-10c0-2.762,2.239-5,5-5h170
	C217.761,263.59,220,265.829,220,268.59z M215,303.59H45c-2.761,0-5,2.238-5,5v10c0,2.761,2.239,5,5,5h170c2.761,0,5-2.239,5-5v-10
	C220,305.829,217.761,303.59,215,303.59z M215,343.59H45c-2.761,0-5,2.238-5,5v10c0,2.761,2.239,5,5,5h170c2.761,0,5-2.239,5-5v-10
	C220,345.829,217.761,343.59,215,343.59z"/>
<path style="fill:#465A61;" d="M464,313.59c0,59.094-47.906,107-107,107s-107-47.906-107-107s47.906-107,107-107
	S464,254.496,464,313.59z"/>
<path style="fill:#5EE2C5;" d="M439,313.59c0,45.287-36.713,82-82,82s-82-36.713-82-82s36.713-82,82-82S439,268.303,439,313.59z"/>
<path style="fill:#8BEBDB;" d="M357,231.59c6.188,0,12.215,0.69,18.011,1.989c19.965,18.223,32.886,47.278,32.886,80.011
	s-12.92,61.788-32.886,80.011c-5.796,1.299-11.823,1.989-18.011,1.989c-45.287,0-82-36.713-82-82S311.713,231.59,357,231.59z"/>
<path style="fill:#FFF5F5;" d="M452.46,138.093c-1.953,1.952-4.513,2.929-7.071,2.929c-2.56,0-5.118-0.976-7.071-2.929
	c-21.721-21.721-50.6-33.683-81.317-33.683s-59.597,11.962-81.317,33.683c-3.905,3.905-10.237,3.906-14.142,0
	s-3.905-10.237,0-14.142C287.038,98.452,320.94,84.41,357,84.41c36.061,0,69.962,14.042,95.46,39.541
	C456.365,127.856,456.365,134.188,452.46,138.093z M357,124.41c-25.375,0-49.232,9.882-67.175,27.825
	c-3.905,3.905-3.905,10.237,0,14.142s10.237,3.905,14.142,0c14.166-14.166,33-21.967,53.033-21.967s38.867,7.801,53.033,21.967
	c1.953,1.953,4.512,2.929,7.071,2.929s5.118-0.977,7.071-2.929c3.905-3.905,3.905-10.237,0-14.142
	C406.232,134.292,382.375,124.41,357,124.41z M357,164.41c-14.691,0-28.503,5.721-38.891,16.109c-3.905,3.905-3.905,10.237,0,14.143
	c3.905,3.905,10.237,3.905,14.143,0c6.61-6.611,15.4-10.251,24.749-10.251s18.138,3.641,24.748,10.251
	c1.953,1.953,4.512,2.929,7.071,2.929c2.559,0,5.118-0.977,7.071-2.929c3.905-3.905,3.905-10.237,0-14.142
	C385.503,170.131,371.691,164.41,357,164.41z"/>
<g>
</g>
<g>
</g>
<g>
</g>
<g>
</g>
<g>
</g>
<g>
</g>
<g>
</g>
<g>
</g>
<g>
</g>
<g>
</g>
<g>
</g>
<g>
</g>
<g>
</g>
<g>
</g>
<g>
</g>
</svg>
