<svg id="Capa_1" enable-background="new 0 0 512 512" height="512" viewBox="0 0 512 512" width="512" xmlns="http://www.w3.org/2000/svg"><g><g><path d="m256 310.433c-141.387 0-243.753-143.884-222.327-181.312 44.119-77.069 127.157-128.998 222.327-128.998s178.209 51.93 222.328 129c21.425 37.427-80.941 181.31-222.328 181.31z" fill="#8bfff4"/><path d="m512 256.123c0 26.051-3.891 51.191-11.129 74.871-5.031 16.469-11.672 32.231-19.75 47.109-8.25 15.2-147.391 46.873-225.121 46.873s-216.871-31.673-225.109-46.873c-3.289-6.031-6.332-12.21-9.121-18.531-14-31.629-21.77-66.629-21.77-103.449 0-46.219 12.25-89.57 33.68-127 44.121 77.07 127.16 129 222.32 129s178.211-51.93 222.32-129c21.43 37.43 33.68 80.781 33.68 127zm0 0" fill="#2dceea"/><path d="m481.262 377.822c-7.16 13.223-15.434 25.742-24.723 37.43-8.437 10.633-17.719 20.57-27.719 29.723-3.486 3.192-7.061 6.289-10.721 9.287-44.143 36.159-280.539 35.973-324.764-.465-3.462-2.853-6.849-5.795-10.155-8.822-10-9.153-19.282-19.09-27.719-29.723-9.289-11.688-17.563-24.207-24.723-37.43zm0 0" fill="#429dea"/></g><g><path d="m93.058 453.58c25.13 20.761 54.293 36.811 86.135 46.813l76.806-10.241v-327.331l-162.941-21.725z" fill="#ff7040"/><path d="m255.999 490.152 76.807 10.241c31.842-10.002 61.004-26.052 86.134-46.812v-312.485l-162.941 21.725z" fill="#ba1956"/><path d="m384.585 477.521-128.586-128.585-43.451 81.47 43.451 81.471h10.856c42.797-1.786 82.875-14.069 117.73-34.356z" fill="#ff0f47"/><path d="m245.144 511.877h10.855v-162.941l-128.584 128.585c34.854 20.286 74.933 32.57 117.729 34.356z" fill="#ff3744"/><path d="m255.999 304.037-43.451-81.471 43.451-81.47h162.942z" fill="#ff3744"/><path d="m93.058 141.096h162.941v162.941z" fill="#ff4f42"/><path d="m375.49 184.547h-119.491l-86.901 141.94 86.901 141.939h119.491z" fill="#ff903d"/><path d="m136.509 184.547h119.49v283.88h-119.49z" fill="#ffb03b"/><path d="m136.509 184.547h59.725v283.88h-59.725z" fill="#ffc269"/><path d="m255.999 227.998-43.451 55.488 43.451 55.488 4.168-1.731c30.462-12.656 50.146-42.142 50.146-75.119v-34.126z" fill="#ff7040"/><path d="m201.686 227.998v34.126c0 32.977 19.684 62.463 50.146 75.119l4.168 1.731v-110.976z" fill="#ff903d"/><path d="m332.039 359.799h-76.04l-43.451 32.588 43.451 32.588h76.04z" fill="#ff7040"/><path d="m179.96 359.799h76.039v65.176h-76.039z" fill="#ff903d"/></g><g fill="#fff"><path d="m274.109 50.594h-1.524c-6.754 0-12.226-5.477-12.226-12.227v-1.523h-8.715v1.523c0 6.75-5.477 12.227-12.227 12.227h-1.527v8.715h1.527c6.75 0 12.227 5.472 12.227 12.226v1.528h8.715v-1.528c0-6.754 5.472-12.226 12.226-12.226h1.524zm0 0"/><path d="m383.645 87.861h-1.524c-6.754 0-12.226-5.477-12.226-12.227v-1.523h-8.715v1.523c0 6.75-5.477 12.227-12.227 12.227h-1.527v8.715h1.527c6.75 0 12.227 5.472 12.227 12.226v1.528h8.715v-1.528c0-6.754 5.472-12.226 12.226-12.226h1.524zm0 0"/><path d="m164.574 87.861h-1.524c-6.754 0-12.226-5.477-12.226-12.227v-1.523h-8.715v1.523c0 6.75-5.477 12.227-12.227 12.227h-1.527v8.715h1.527c6.75 0 12.227 5.472 12.227 12.226v1.528h8.715v-1.528c0-6.754 5.472-12.226 12.226-12.226h1.524zm0 0"/></g></g></svg>