<svg id="Capa_1" enable-background="new 0 0 512 512" height="512" viewBox="0 0 512 512" width="512" xmlns="http://www.w3.org/2000/svg"><path d="m511.99 257.95c-.65 87.15-44.85 163.94-111.91 209.68l-132.41 40.78c-3.89.09-7.78.13-11.67.13s-7.78-.04-11.67-.13l-132.41-40.78c-67.56-46.08-111.92-123.68-111.92-211.63 0-141.38 114.62-256 256-256 141.03 0 257.05 116.92 255.99 257.95z" fill="#fd4fb9"/><path d="m512 256c0 87.11-43.52 164.07-110 210.31-.64.44-1.28.89-1.92 1.32l-132.41 40.78c-7.78.18-15.56.18-23.34 0l-132.41-40.78c-.64-.43-1.28-.88-1.92-1.32-66.48-46.24-110-123.2-110-210.31 0-46.22 12.25-89.57 33.68-127 44.12 77.07 127.16 129 222.32 129s178.21-51.93 222.32-129c21.43 37.43 33.68 80.78 33.68 127z" fill="#ea39ab"/><path d="m413.69 225.98c6.53 8.25 10.44 18.68 10.44 30.02 0 26.75-21.68 48.43-48.42 48.43-4.36 0-8.58-.59-12.6-1.67-6.09 19.78-24.51 34.16-46.28 34.16h-121.66c-21.77 0-40.19-14.38-46.28-34.16-4.02 1.08-8.24 1.67-12.6 1.67-26.74 0-48.42-21.68-48.42-48.43 0-11.34 3.91-21.77 10.44-30.02-9.55-8.85-15.53-21.49-15.53-35.53 0-23.05 16.11-42.33 37.68-47.22-.01-.4-.03-.8-.03-1.21 0-26.74 21.68-48.42 48.43-48.42.95 0 1.9.03 2.84.09 6.7-18.71 24.58-32.09 45.59-32.09 15.82 0 29.87 7.6 38.71 19.34 8.84-11.74 22.89-19.34 38.71-19.34 21.01 0 38.89 13.38 45.59 32.09.94-.06 1.89-.09 2.84-.09 26.75 0 48.43 21.68 48.43 48.42 0 .41-.02.81-.03 1.21 21.57 4.89 37.68 24.17 37.68 47.22 0 14.04-5.98 26.68-15.53 35.53z" fill="#fff"/><path d="m413.69 225.98c6.53 8.25 10.44 18.68 10.44 30.02 0 26.75-21.68 48.43-48.42 48.43-4.36 0-8.58-.59-12.6-1.67-6.09 19.78-24.51 34.16-46.28 34.16h-60.83v-255.98c8.84-11.74 22.89-19.34 38.71-19.34 21.01 0 38.89 13.38 45.59 32.09.94-.06 1.89-.09 2.84-.09 26.75 0 48.43 21.68 48.43 48.42 0 .41-.02.81-.03 1.21 21.57 4.89 37.68 24.17 37.68 47.22 0 14.04-5.98 26.68-15.53 35.53z" fill="#b3f4ff"/><path d="m400.08 467.63-144.08 44.37-144.08-44.37c.03-22.69 5.29-44.14 14.66-63.22 12.23-24.92 31.45-45.79 55.1-60.04.93-.58 1.87-1.13 2.82-1.67 3.49-2 7.07-3.86 10.74-5.56 4.26-1.99 8.63-3.77 13.11-5.34 3.87-1.36 7.81-2.55 11.82-3.58 4.96-1.27 10.02-2.29 15.16-3.02 6.75-.98 13.65-1.48 20.67-1.48 12.38 0 24.4 1.56 35.87 4.51 4.01 1.03 7.95 2.22 11.81 3.58 9.37 3.28 18.31 7.51 26.68 12.57 23.63 14.26 42.83 35.12 55.06 60.03 9.37 19.08 14.63 40.53 14.66 63.22z" fill="#22d7ff"/><path d="m400.08 467.63-144.08 44.37v-188.28c12.38 0 24.4 1.56 35.87 4.51 4.01 1.03 7.95 2.22 11.81 3.58 56.09 19.65 96.33 73.04 96.4 135.82z" fill="#00b3fe"/><path d="m307.6 313.71v19.9l-30.08 31.41-21.52-19.02-21.52 19.02-30.08-31.41v-19.9z" fill="#b3f4ff"/><path d="m307.6 313.71v19.9l-30.08 31.41-21.52-19.02v-32.29z" fill="#b3f4ff"/><path d="m307.6 313.71v19.9l-30.08 31.41-21.52-19.02v-32.29z" fill="#8fc8f5"/><path d="m145.993 190.503c-13.53 0-24.499 10.968-24.499 24.499 0 24.644 19.978 44.623 44.623 44.623v-69.175z" fill="#ffa87a"/><path d="m366.007 190.503c13.53 0 24.499 10.968 24.499 24.499 0 24.644-19.978 44.623-44.623 44.623v-69.175z" fill="#e3835a"/><path d="m351.78 203.81v36.1c0 52.87-42.86 95.75-95.75 95.76h-.02c-52.881 0-95.75-42.869-95.75-95.75v-36.11c0-4.55.31-9.02.93-13.38 8.262-.27 15.613-4.136 20.539-10.084 5.38-6.496 13.539-9.883 21.974-9.836h.177c8.56 0 16.31-3.442 21.948-9.017 6.353-6.283 15.252-9.269 24.012-7.512 1.991.399 4.051.609 6.159.609 2.021 0 3.996-.193 5.909-.56 8.807-1.693 17.725 1.242 24.121 7.529 5.632 5.536 13.354 8.952 21.88 8.952h.175c8.405-.046 16.581 3.28 21.921 9.77 4.971 6.041 12.435 9.951 20.824 10.15.631 4.359.951 8.829.951 13.379z" fill="#ffc0a4"/><path d="m351.78 203.8v36.11c0 52.86-42.86 95.75-95.75 95.76v-181.08c2.002-.002 3.96-.194 5.856-.557 8.816-1.688 17.743 1.233 24.144 7.525 5.632 5.536 13.354 8.952 21.88 8.952h.175c8.405-.046 16.581 3.28 21.921 9.77 4.971 6.041 12.435 9.951 20.824 10.15.63 4.37.95 8.83.95 13.37z" fill="#ffa87a"/><ellipse cx="225.961" cy="235.214" fill="#323b5a" rx="11.789" ry="11.789" transform="matrix(.924 -.383 .383 .924 -72.812 104.376)"/><ellipse cx="286.039" cy="235.214" fill="#323b5a" rx="11.789" ry="11.789" transform="matrix(.924 -.383 .383 .924 -68.239 127.367)"/><path d="m256 263.275c-4.018 0-7.275-3.257-7.275-7.275v-31.235c0-4.018 3.257-7.275 7.275-7.275 4.019 0 7.276 3.257 7.276 7.275v31.235c0 4.018-3.258 7.275-7.276 7.275z" fill="#e3835a"/><path d="m242.545 211.615c-2.732-6.46-9.129-10.992-16.584-10.992s-13.851 4.532-16.584 10.992z" fill="#fff"/><path d="m302.622 211.615c-2.732-6.46-9.129-10.992-16.584-10.992s-13.851 4.532-16.584 10.992z" fill="#d1f6ff"/><path d="m364.23 46.13c-.05-.06.1-.01.1-.01z" fill="#00b3fe"/><path d="m300.66 305.41h-89.32c5.48-19.52 23.39-33.84 44.66-33.84h.03c21.26.01 39.15 14.33 44.63 33.84z" fill="#fff"/><path d="m300.66 305.41h-44.63v-33.84c21.26.01 39.15 14.33 44.63 33.84z" fill="#d1f6ff"/><path d="m252.93 511.98c-52.26-.61-100.76-16.89-141.01-44.35.03-22.69 5.29-44.14 14.66-63.22 12.23-24.92 31.45-45.79 55.1-60.04.93-.58 1.87-1.13 2.82-1.67 3.49-2 7.07-3.86 10.74-5.56z" fill="#fff"/><path d="m400.08 467.63c-40.25 27.46-88.75 43.74-141.01 44.35l57.69-174.84c3.67 1.7 7.25 3.56 10.74 5.56.95.54 1.89 1.09 2.82 1.67 23.65 14.25 42.87 35.12 55.1 60.04 9.37 19.08 14.63 40.53 14.66 63.22z" fill="#d1f6ff"/><path d="m252.93 511.98c-3.12-.03-6.22-.13-9.3-.28l-61.95-48.02 12.8-37.83-34.22-35.83 34.98-52.88z" fill="#b3f4ff"/><path d="m317.56 425.85 12.8 37.83-61.95 48.02c-3.08.15-6.18.24-9.3.28l57.69-174.84 34.98 52.88z" fill="#8fc8f5"/></svg>