<svg id="Layer_1" enable-background="new 0 0 507.293 507.293" height="512" viewBox="0 0 507.293 507.293" width="512" xmlns="http://www.w3.org/2000/svg"><g><g><path d="m501.565 247.918c0 51.346-15.609 99.045-42.341 138.613-44.553 65.947-119.002 97.831-204.578 97.831-136.921 0-238.837-99.06-238.837-235.982 0-25.112-6.348-49.816.595-72.659 30.912-101.706 125.433-175.721 237.243-175.721 136.921 0 247.918 110.997 247.918 247.918z" fill="#2d56a1"/></g><path d="m456.934 389.58c-13.384 7.517-29.91-2.301-29.91-17.651v-279.934c0-14.303-6.416-27.877-17.533-36.875-.108-.087-.216-.175-.324-.262-8.501-6.857-19.066-10.647-29.987-10.647h-212.487c-6.486 0-11.744 5.258-11.744 11.744v12.688h-25.222v117.594c0 26.826-39.995 28.148-41.54 1.367-.056-.975-.107-1.951-.151-2.927-1.88-40.987-59.695-48.21-71.628-8.954-6.944 22.842-10.678 47.082-10.678 72.195 0 81.073 38.7 152.943 98.697 198.151l39.533 24.341c32.85 16.187 69.833 25.317 108.99 25.426 28.092.078 55.097-4.522 80.287-13.057l.002.006c.116-.039 3.506-1.204 6.275-2.227 21.76-8.036 42.951-19.407 62.291-33.844v-.017c7.422-5.542 14.522-11.491 21.271-17.813h.005c.79-.737 2.555-2.421 3.947-3.78v-.004c11.142-10.906 21.264-22.852 30.2-35.685-.1.056-.197.11-.294.165z" fill="#1a396b"/><g><path d="m203.748 85.642v384.674h159.564c4.501-2.224 8.926-4.581 13.268-7.065v-377.609z" fill="#faf58c"/><path d="m104.505 445.964c12.322 9.294 25.541 17.457 39.5 24.352h63.027v-384.674h-102.527z" fill="#ffc305"/><path d="m196.921 61.21h204.882v352.932h-204.882z" fill="#fff"/><path d="m272.529 398.308v-5.158l-45.942.276c-5.602 0-10.143-4.541-10.143-10.143v-9.14c0-5.602 4.541-10.143 10.143-10.143h148.88v-13.695h-148.88c-5.602 0-10.143-4.541-10.143-10.143v-9.14c0-5.602 4.541-10.143 10.143-10.143h148.88v-13.695h-148.88c-5.602 0-10.143-4.541-10.143-10.143v-9.14c0-5.602 4.541-10.143 10.143-10.143h148.88v-13.694h-148.88c-5.602 0-10.143-4.541-10.143-10.143v-9.14c0-5.602 4.541-10.143 10.143-10.143h148.88v-13.694h-148.88c-5.602 0-10.143-4.541-10.143-10.143v-9.14c0-5.602 4.541-10.143 10.143-10.143h148.88v-13.694h-148.88c-5.602 0-10.143-4.541-10.143-10.143v-9.14c0-5.602 4.541-10.143 10.143-10.143h148.88v-13.694h-159.023v-73.494h-86.717v384.674h272.076v-47.3z" fill="#faf58c"/><g fill="#ffc305"><path d="m171.68 123.318h203.786v13.694h-203.786z"/><path d="m171.68 166.437h203.786v13.694h-203.786z"/><path d="m171.68 209.557h203.786v13.694h-203.786z"/><path d="m171.68 252.676h203.786v13.694h-203.786z"/><path d="m171.68 295.796h203.786v13.694h-203.786z"/><path d="m171.68 338.915h203.786v13.694h-203.786z"/><path d="m171.68 382.035h100.848v13.695h-100.848z"/></g><path d="m310.122 505.182-3.247-8.314c-.684-1.75-2.683-2.585-4.408-1.84l-8.194 3.539c-2.741 1.184-5.529-1.57-4.379-4.325l28.746-68.877 26.381 11.01-28.746 68.877c-1.148 2.756-5.067 2.71-6.153-.07z" fill="#e20a62"/><path d="m360.363 505.182 3.247-8.314c.684-1.75 2.683-2.585 4.408-1.84l8.194 3.539c2.741 1.184 5.529-1.57 4.379-4.325l-28.746-68.877-26.381 11.01 28.746 68.877c1.148 2.756 5.067 2.71 6.153-.07z" fill="#ff5551"/><circle cx="334.727" cy="414.142" fill="#ff5551" r="31.742"/><path d="m322.35 407.307c0-5.461 1.381-10.598 3.812-15.084 2.115-3.904-2.135-8.298-6.073-6.248-9.906 5.156-16.751 15.382-17.091 27.24-.504 17.585 14.136 32.669 31.729 32.669 1.082 0 2.151-.054 3.205-.16 5.286-.531 6.484-7.711 1.751-10.126-10.276-5.245-17.333-15.937-17.333-28.291z" fill="#e20a62"/><path d="m334.727 382.4c17.531 0 31.742 14.212 31.742 31.742 0 17.531-14.212 31.742-31.742 31.742-17.531 0-31.742-14.211-31.742-31.742 0-17.53 14.211-31.742 31.742-31.742m0-11.392c-23.784 0-43.134 19.35-43.134 43.134s19.35 43.134 43.134 43.134 43.134-19.35 43.134-43.134-19.35-43.134-43.134-43.134z" fill="#ff8500"/></g></g></svg>