<svg id="Icons" enable-background="new 0 0 512 512" height="512" viewBox="0 0 512 512" width="512" xmlns="http://www.w3.org/2000/svg"><g><circle cx="256" cy="256" fill="#6052a3" r="256"/><g><g><path d="m382.019 143.462v255.937c0 13.579-10.997 24.575-24.565 24.575h-201.942c-13.568 0-24.565-10.997-24.565-24.575v-255.937c0-13.568 10.997-24.575 24.565-24.575h201.942c13.568-.001 24.565 11.006 24.565 24.575z" fill="#50755c"/><path d="m371.732 127.003v255.937c0 6.337-2.397 12.118-6.326 16.469-4.506 4.979-11.007 8.106-18.239 8.106h-201.942c-8.127 0-15.317-3.94-19.792-10.019l-11.305-15.893 6.656 3.765c-.82-3.05.332-255.355-.125-258.366.001-13.567 10.998-24.574 24.566-24.574h201.942c3.703 0 7.201.823 10.349 2.294l-.689-6.46 10.338 14.474c2.87 4.021 4.567 8.948 4.567 14.267z" fill="#c2aacf"/><path d="m371.732 127.003v255.937c0 6.337-2.397 12.118-6.326 16.469-1.934.751-4.032 1.162-6.234 1.162-9.546 0-17.272-7.736-17.272-17.272v-277.487c0-1.162.113-2.294.329-3.384h4.938c3.703 0 7.201.823 10.349 2.294l-.689-6.46 10.338 14.474c2.87 4.021 4.567 8.948 4.567 14.267z" fill="#f0dae2"/><path d="m361.445 112.601v255.937c0 13.579-10.997 24.575-24.565 24.575h-201.942c-13.568 0-24.565-10.997-24.565-24.575v-255.937c0-13.568 10.997-24.575 24.565-24.575h201.942c13.568 0 24.565 11.007 24.565 24.575z" fill="#528f66"/><path d="m168.803 88.026v305.088h-33.865c-13.568 0-24.565-10.997-24.565-24.575v-255.938c0-13.568 10.997-24.575 24.565-24.575z" fill="#50755c"/><path d="m312.562 88.026c-.001 13-10.537 23.548-23.536 23.547h-47.803c-13.003 0-23.536-10.544-23.536-23.547z" fill="#9acdae"/><g fill="#50755c"><path d="m322.348 189.751c0-31.604-25.62-57.224-57.224-57.224-75.906 3.014-75.885 111.445 0 114.448 31.604 0 57.224-25.62 57.224-57.224z"/><path d="m312.951 289.553h-95.654c-12.439.482-12.486 18.29 0 18.794h95.654c12.439-.483 12.486-18.291 0-18.794z"/><path d="m326.866 328.624h-123.484c-12.431.478-12.493 18.287 0 18.794h123.484c12.431-.479 12.493-18.288 0-18.794z"/></g></g><g><g><path d="m139.588 138.565c.041 5.066-4.16 9.424-9.392 9.402h-54.51c-5.196-.001-9.401-4.206-9.402-9.402 0-5.185 4.207-9.392 9.402-9.392h54.51c5.177-.002 9.395 4.205 9.392 9.392z" fill="#dd8c29"/><path d="m139.588 138.565c0 1.183-.216 2.315-.617 3.364h-49.511c-6.455.138-11.179-6.802-8.775-12.756h49.511c5.177-.002 9.395 4.205 9.392 9.392z" fill="#f39e22"/><path d="m123.706 141.929h-20.477c-3.522 0-6.378-2.855-6.378-6.378 0-3.522 2.855-6.378 6.378-6.378h20.477c8.438.289 8.446 12.464 0 12.756z" fill="#f9c744"/></g><g><path d="m139.588 342.564c.041 5.066-4.16 9.424-9.392 9.402h-54.51c-5.196-.001-9.401-4.206-9.402-9.402 0-5.185 4.207-9.392 9.402-9.392h54.51c5.177-.002 9.395 4.205 9.392 9.392z" fill="#dd8c29"/><path d="m139.588 342.564c0 1.183-.216 2.315-.617 3.364h-49.511c-6.455.138-11.179-6.802-8.775-12.756h49.511c5.177-.002 9.395 4.205 9.392 9.392z" fill="#f39e22"/><path d="m123.706 345.928h-20.477c-3.522 0-6.378-2.855-6.378-6.378 0-3.522 2.855-6.378 6.378-6.378h20.477c8.438.289 8.446 12.464 0 12.756z" fill="#f9c744"/></g><g><path d="m139.588 291.564c.041 5.066-4.16 9.424-9.392 9.402h-54.51c-5.196-.001-9.401-4.207-9.402-9.402 0-5.185 4.207-9.392 9.402-9.392h54.51c5.177-.001 9.395 4.205 9.392 9.392z" fill="#dd8c29"/><path d="m139.588 291.564c0 1.183-.216 2.315-.617 3.364h-49.511c-6.455.138-11.179-6.802-8.775-12.756h49.511c5.177-.001 9.395 4.205 9.392 9.392z" fill="#f39e22"/><path d="m123.706 294.928h-20.477c-3.522 0-6.378-2.855-6.378-6.378 0-3.522 2.855-6.378 6.378-6.378h20.477c8.438.289 8.446 12.464 0 12.756z" fill="#f9c744"/></g><g><path d="m139.588 240.565c.041 5.066-4.16 9.424-9.392 9.402h-54.51c-5.196-.001-9.401-4.206-9.402-9.402 0-5.185 4.207-9.392 9.402-9.392h54.51c5.177-.002 9.395 4.204 9.392 9.392z" fill="#dd8c29"/><path d="m139.588 240.565c0 1.183-.216 2.315-.617 3.364h-49.511c-6.455.138-11.179-6.802-8.775-12.756h49.511c5.177-.002 9.395 4.204 9.392 9.392z" fill="#f39e22"/><path d="m123.706 243.928h-20.477c-3.522 0-6.378-2.855-6.378-6.378 0-3.522 2.855-6.378 6.378-6.378h20.477c8.438.29 8.446 12.464 0 12.756z" fill="#f9c744"/></g><g><path d="m139.588 189.565c.041 5.066-4.16 9.424-9.392 9.402h-54.51c-5.196-.001-9.401-4.206-9.402-9.402 0-5.185 4.207-9.392 9.402-9.392h54.51c5.177-.002 9.395 4.205 9.392 9.392z" fill="#dd8c29"/><path d="m139.588 189.565c0 1.183-.216 2.315-.617 3.364h-49.511c-6.455.138-11.179-6.802-8.775-12.756h49.511c5.177-.002 9.395 4.205 9.392 9.392z" fill="#f39e22"/><path d="m123.706 192.929h-20.477c-3.522 0-6.378-2.855-6.378-6.378 0-3.522 2.855-6.378 6.378-6.378h20.477c8.438.289 8.446 12.464 0 12.756z" fill="#f9c744"/></g></g></g><path d="m437.721 178.699h-76.276v-35.781h76.276c9.881 0 17.89 8.01 17.89 17.89.001 9.881-8.009 17.891-17.89 17.891z" fill="#ed72ab"/><path d="m427.721 291.282h-66.276v-35.781h66.276c9.881 0 17.89 8.01 17.89 17.89.001 9.881-8.009 17.891-17.89 17.891z" fill="#f39e22"/><path d="m407.721 235.502h-46.276v-35.781h46.276c23.739.96 23.73 34.825 0 35.781z" fill="#22bce0"/><path d="m407.721 365.308h-46.276v-35.781h46.276c23.739.96 23.73 34.825 0 35.781z" fill="#53b976"/></g></svg>