<svg id="Capa_1" enable-background="new 0 0 512 512" height="512" viewBox="0 0 512 512" width="512" xmlns="http://www.w3.org/2000/svg"><g><g><path d="m0 256c0 43.79 11 85.02 30.39 121.07l225.61 49.67 225.61-49.67c19.39-36.05 30.39-77.28 30.39-121.07 0-46.63-12.47-90.34-34.26-128-41.698 72.091-399.22 76.52-443.48 0-21.79 37.66-34.26 81.37-34.26 128z" fill="#eebf36"/><path d="m34.26 128c44.26 76.52 126.99 128 221.74 128s177.48-51.48 221.74-128c-.01-.02-.03-.05-.04-.07-44.27-76.48-126.98-127.93-221.7-127.93s-177.43 51.45-221.7 127.93c-.01.02-.03.05-.04.07z" fill="#f5dc6e"/><path d="m30.39 377.07c43.19 80.32 128.02 134.93 225.61 134.93s182.42-54.61 225.61-134.93z" fill="#dd8051"/></g><path d="m85.26 85.26h341.48v341.48h-341.48z" fill="#616679"/><path d="m256 85.26h170.74v341.48h-170.74z" fill="#464651"/><path d="m115.26 115.26h281.48v281.48h-281.48z" fill="#e7eaf5"/><path d="m256 115.26h140.74v281.48h-140.74z" fill="#d9dced"/><path d="m229.611 276.36-60.026-95.532-17.989-.003v125.637h16.921v-95.531l60.026 95.531h17.988v-125.842h-16.92z" fill="#d75e91"/><path d="m327.965 220.336v11.402c-6.466-4.555-14.34-7.241-22.833-7.241-21.919 0-39.752 17.833-39.752 39.753s17.833 39.753 39.752 39.753c8.493 0 16.367-2.686 22.833-7.241v9.7h16.92v-86.126zm-22.833 66.747c-12.59 0-22.832-10.243-22.832-22.833s10.242-22.833 22.832-22.833 22.833 10.243 22.833 22.833-10.243 22.833-22.833 22.833z" fill="#bf2e70"/><g><path d="m269.601 337.512h10v37.835h-10z" fill="#546bd9"/><path d="m269.601 323.841h10v9.59h-10z" fill="#546bd9"/><path d="m156.858 334.281c5.916-1.78 11.376 2.5 11.592 2.672l3.806 3.2 6.436-7.655-3.827-3.217c-.389-.327-9.644-7.961-20.891-4.575-5.659 1.705-9.662 6.162-10.447 11.633-.736 5.129 1.486 10.062 5.801 12.875.221.144.452.271.693.378.24.107 5.951 2.649 12.382 5.021 1.864.688 6.139 2.635 5.562 5.861-.428 2.396-3.326 4.875-7.436 4.875-4.178 0-8.2-1.686-10.76-4.511l-3.358-3.705-7.409 6.716 3.357 3.705c4.425 4.881 11.217 7.795 18.17 7.795 8.655 0 15.923-5.517 17.28-13.117 1.02-5.712-1.583-13.178-11.946-17-5.13-1.893-9.903-3.954-11.335-4.581-1.225-.968-1.185-2.326-1.104-2.89.111-.77.666-2.647 3.434-3.48z" fill="#8898e5"/><path d="m309.266 361.09c0 2.795-2.364 4.258-4.7 4.258h-.561c-2.336 0-4.7-1.462-4.7-4.258v-23.97h-10v23.97c0 7.995 6.457 14.258 14.7 14.258h.561c8.243 0 14.7-6.263 14.7-14.258v-23.97h-10z" fill="#546bd9"/><path d="m201.08 337.512c-10.432 0-18.918 8.486-18.918 18.917 0 10.432 8.486 18.918 18.918 18.918s18.918-8.486 18.918-18.918c0-10.43-8.486-18.917-18.918-18.917zm0 27.836c-4.917 0-8.918-4-8.918-8.918 0-4.917 4.001-8.917 8.918-8.917s8.918 4 8.918 8.917-4.001 8.918-8.918 8.918z" fill="#8898e5"/><path d="m369.063 341.661c-2.366-2.476-5.67-3.73-9.818-3.73-3.636 0-6.73 1.089-9.122 3.036-2.577-2.455-5.857-3.18-8.829-3.18-1.8 0-3.482.322-5.032.902v-1.346h-10v38.005h10l.002-19.482c0-3.727 1.317-8.079 5.03-8.079 1.519 0 3.239 0 3.439 6.78.029 2.099.008 20.781.008 20.781h10l-.001-16.991.009-4.378c.001-6.049 3.267-6.049 4.496-6.049.902 0 2.084.111 2.59.641.325.34 1.367 1.873 1.122 7.314-.003.075-.005 19.463-.005 19.463h10v-19.128c.188-4.345-.032-10.526-3.889-14.559z" fill="#546bd9"/><path d="m251.32 323.84v15.91c-2.66-1.42-5.7-2.24-8.92-2.24-10.43 0-18.92 8.49-18.92 18.92s8.49 18.92 18.92 18.92c3.22 0 6.26-.82 8.92-2.24v2.24h10v-51.51zm-8.92 41.51c-4.92 0-8.92-4-8.92-8.92s4-8.92 8.92-8.92 8.92 4 8.92 8.92-4 8.92-8.92 8.92z" fill="#8898e5"/><path d="m256 323.84h5.32v51.51h-5.32z" fill="#546bd9"/></g><g><g><path d="m380.802 195.583h-15v-47.299h-10.11v-15h25.11z" fill="#546bd9"/></g><g><path d="m345.816 195.583h-15v-47.299h-10.109v-15h25.109z" fill="#546bd9"/></g></g></g></svg>