<?xml version="1.0" encoding="iso-8859-1"?>
<!-- Generator: Adobe Illustrator 19.0.0, SVG Export Plug-In . SVG Version: 6.00 Build 0)  -->
<svg version="1.1" id="Capa_1" xmlns="http://www.w3.org/2000/svg" xmlns:xlink="http://www.w3.org/1999/xlink" x="0px" y="0px"
	 viewBox="0 0 512 512" style="enable-background:new 0 0 512 512;" xml:space="preserve">
<path style="fill:#6BC5DC;" d="M423.088,449.95C378.246,488.616,319.855,512,256,512c-63.585,0-121.747-23.191-166.513-61.564
	c0.002-0.174,0.013-0.345,0.013-0.519c0-22.298-17.43-40.518-39.407-41.797C18.62,365.589,0,312.972,0,256
	C0,114.615,114.615,0,256,0s256,114.615,256,256c0,57.091-18.696,109.81-50.288,152.388
	C440.161,410.042,423.178,427.997,423.088,449.95z"/>
<path style="fill:#FFF5F5;" d="M462,407.992c-11.701,15.833-25.185,30.265-40.154,43.008H90.154
	C75.185,438.257,61.701,423.825,50,407.992V104.008c0.746-1.009,1.502-2.01,2.262-3.008h407.476c0.76,0.998,1.516,1.999,2.262,3.008
	V407.992z"/>
<path style="fill:#FFE7BF;" d="M459.738,101c0.76,0.998,1.516,1.999,2.262,3.008v303.984c-5.945,8.044-12.351,15.724-19.177,23.008
	H69.177c-6.826-7.284-13.232-14.964-19.177-23.008V104.008c0.746-1.009,1.502-2.01,2.262-3.008H459.738z"/>
<path style="fill:#FFF5F5;" d="M462,104.008v303.984c-0.746,1.009-1.502,2.01-2.262,3.008H72c-1.105,0-2-0.895-2-2V101h389.738
	C460.498,101.998,461.254,102.999,462,104.008z"/>
<path style="fill:#B2DA7B;" d="M233.529,197.706V229c0,1.105-0.895,2-2,2H182c-1.105,0-2-0.895-2-2v-31.294c0-1.105,0.895-2,2-2
	h49.529C232.634,195.706,233.529,196.601,233.529,197.706z M438,245.706h-49.529c-1.105,0-2,0.895-2,2V279c0,1.105,0.895,2,2,2H438
	c1.105,0,2-0.895,2-2v-31.294C440,246.601,439.105,245.706,438,245.706z M300.353,295.706h-49.529c-1.105,0-2,0.895-2,2V329
	c0,1.105,0.895,2,2,2h49.529c1.105,0,2-0.895,2-2v-31.294C302.353,296.601,301.458,295.706,300.353,295.706z M369.176,345.706
	h-49.529c-1.105,0-2,0.895-2,2V379c0,1.105,0.895,2,2,2h49.529c1.105,0,2-0.895,2-2v-31.294
	C371.176,346.601,370.281,345.706,369.176,345.706z"/>
<path style="fill:#FFE1A8;" d="M302.353,247.706V279c0,1.105-0.895,2-2,2h-49.529c-1.105,0-2-0.895-2-2v-31.294c0-1.105,0.895-2,2-2
	h49.529C301.458,245.706,302.353,246.601,302.353,247.706z M231.529,295.706H182c-1.105,0-2,0.895-2,2V329c0,1.105,0.895,2,2,2
	h49.529c1.105,0,2-0.895,2-2v-31.294C233.529,296.601,232.634,295.706,231.529,295.706z M300.353,345.706h-49.529
	c-1.105,0-2,0.895-2,2V379c0,1.105,0.895,2,2,2h49.529c1.105,0,2-0.895,2-2v-31.294
	C302.353,346.601,301.458,345.706,300.353,345.706z M231.529,245.706H182c-1.105,0-2,0.895-2,2V279c0,1.105,0.895,2,2,2h49.529
	c1.105,0,2-0.895,2-2v-31.294C233.529,246.601,232.634,245.706,231.529,245.706z M231.529,345.706H182c-1.105,0-2,0.895-2,2V379
	c0,1.105,0.895,2,2,2h49.529c1.105,0,2-0.895,2-2v-31.294C233.529,346.601,232.634,345.706,231.529,345.706z M158,170H92
	c-1.105,0-2,0.895-2,2v16c0,1.105,0.895,2,2,2h66c1.105,0,2-0.895,2-2v-16C160,170.895,159.105,170,158,170z M92,160h106
	c1.105,0,2-0.895,2-2v-16c0-1.105-0.895-2-2-2H92c-1.105,0-2,0.895-2,2v16C90,159.105,90.895,160,92,160z M438,295.706h-49.529
	c-1.105,0-2,0.895-2,2V329c0,1.105,0.895,2,2,2H438c1.105,0,2-0.895,2-2v-31.294C440,296.601,439.105,295.706,438,295.706z
	 M438,195.706h-49.529c-1.105,0-2,0.895-2,2V229c0,1.105,0.895,2,2,2H438c1.105,0,2-0.895,2-2v-31.294
	C440,196.601,439.105,195.706,438,195.706z M438,345.706h-49.529c-1.105,0-2,0.895-2,2V379c0,1.105,0.895,2,2,2H438
	c1.105,0,2-0.895,2-2v-31.294C440,346.601,439.105,345.706,438,345.706z M369.176,295.706h-49.529c-1.105,0-2,0.895-2,2V329
	c0,1.105,0.895,2,2,2h49.529c1.105,0,2-0.895,2-2v-31.294C371.176,296.601,370.281,295.706,369.176,295.706z M300.353,195.706
	h-49.529c-1.105,0-2,0.895-2,2V229c0,1.105,0.895,2,2,2h49.529c1.105,0,2-0.895,2-2v-31.294
	C302.353,196.601,301.458,195.706,300.353,195.706z M369.176,195.706h-49.529c-1.105,0-2,0.895-2,2V229c0,1.105,0.895,2,2,2h49.529
	c1.105,0,2-0.895,2-2v-31.294C371.176,196.601,370.281,195.706,369.176,195.706z M369.176,245.706h-49.529c-1.105,0-2,0.895-2,2V279
	c0,1.105,0.895,2,2,2h49.529c1.105,0,2-0.895,2-2v-31.294C371.176,246.601,370.281,245.706,369.176,245.706z"/>
<path style="fill:#EA4444;" d="M462,104.008V111H310H50v-6.992V71c0-5.523,4.477-10,10-10h30.154H300h121.846
	C436.815,73.743,450.299,88.175,462,104.008z"/>
<path style="fill:#D93131;" d="M70,104.008V111H50v-6.992V71c0-5.523,4.477-10,10-10h20c-5.523,0-10,4.477-10,10V104.008z"/>
<path style="fill:#A82B2B;" d="M100,86c0,5.523-4.477,10-10,10s-10-4.477-10-10s4.477-10,10-10S100,80.477,100,86z M120,76
	c-5.523,0-10,4.477-10,10s4.477,10,10,10s10-4.477,10-10S125.523,76,120,76z M150,76c-5.523,0-10,4.477-10,10s4.477,10,10,10
	s10-4.477,10-10S155.523,76,150,76z"/>
<g>
</g>
<g>
</g>
<g>
</g>
<g>
</g>
<g>
</g>
<g>
</g>
<g>
</g>
<g>
</g>
<g>
</g>
<g>
</g>
<g>
</g>
<g>
</g>
<g>
</g>
<g>
</g>
<g>
</g>
</svg>
