<svg id="Capa_1" enable-background="new 0 0 512 512" height="512" viewBox="0 0 512 512" width="512" xmlns="http://www.w3.org/2000/svg"><g><g><g><path d="m256 313.506c-141.387 0-244.868-143.032-225.263-179.236 43.302-79.963 127.939-134.27 225.263-134.27 97.204 0 181.752 54.173 225.103 133.974 19.704 36.274-83.716 179.532-225.103 179.532z" fill="#e38031"/><path d="m512 256c0 26.051-3.891 51.191-11.129 74.871-5.031 16.469-11.672 32.231-19.75 47.109-8.25 15.2-147.391 51.974-225.121 51.974s-216.871-36.774-225.109-51.974c-3.289-6.031-6.332-12.21-9.121-18.531-14-31.629-21.77-66.629-21.77-103.449 0-46.219 12.25-89.57 33.68-127 44.121 77.07 127.16 129 222.32 129s178.211-51.93 222.32-129c21.43 37.43 33.68 80.781 33.68 127zm0 0" fill="#d85819"/><path d="m481.262 377.699c-7.16 13.223-15.434 25.742-24.723 37.43-8.437 10.633-17.719 20.57-27.719 29.723-4.209 3.854-8.548 7.57-13.008 11.139-43.798 35.047-276.086 34.949-319.931-.246-4.353-3.494-8.589-7.127-12.701-10.893-10-9.153-19.282-19.09-27.719-29.723-9.289-11.688-17.563-24.207-24.723-37.43zm0 0" fill="#bd4911"/></g><g><path d="m359.552 122.159h-160.658l-45.685 102.791h206.343z" fill="#7ed7ff"/><path d="m152.448 122.159h46.446v102.791h-46.446z" fill="#afe8fd"/><path d="m359.552 179.265h-160.658l-45.685 144.669h206.343z" fill="#bfebff"/><path d="m152.448 179.265-57.106 68.527 103.552 76.142v-144.669z" fill="#fff"/><path d="m195.776 179.265-57.105 68.527 60.223 76.142v-144.669z" fill="#dff5ff"/><path d="m359.552 179.265-95.177 114.212 152.283-45.685z" fill="#64b0fb"/><path d="m256.761 379.897 44.315 128.144c43.262-7.685 82.756-26.247 115.582-52.741v-207.508h-114.212z" fill="#afe8fd"/><path d="m302.446 247.792h-103.552l-45.685 159.897 149.237-114.212z" fill="#7ed7ff"/><path d="m95.342 247.792v114.212l103.552 45.685v-159.897z" fill="#bfebff"/><path d="m138.671 247.792h-43.329v114.212l43.329 19.116z" fill="#def5ff"/><path d="m153.209 419.871 42.083 84.868c19.463 4.733 39.789 7.261 60.708 7.261 15.862 0 31.382-1.454 46.446-4.215v-214.308c-51.776 0-77.664 17.132-103.552 34.263z" fill="#bfebff"/><path d="m95.342 455.301c29.757 24.018 64.994 41.514 103.552 50.299v-177.859c-25.888 17.132-51.776 34.264-103.552 34.264z" fill="#dff5ff"/><path d="m95.342 455.301c13.397 10.813 27.903 20.306 43.326 28.274 0-.001.002-126.451.001-126.456-12.285 3.056-26.424 4.886-43.328 4.886v93.296z" fill="#fff"/></g></g></g></svg>