<svg id="Capa_1" enable-background="new 0 0 512 512" height="512" viewBox="0 0 512 512" width="512" xmlns="http://www.w3.org/2000/svg"><g><g><g><g><g><g><g><circle cx="256" cy="256" fill="#7584f2" r="256"/></g></g></g></g></g></g><path d="m512 256c0-21.219-2.582-41.835-7.448-61.552l-88-88-208.811 41.335-37.989-37.989-57.608-5.952-8.228 68.988 40.199 40.199-21.935 123.231-25.063 71.242 96.956 96.957c19.83 4.926 40.573 7.541 61.927 7.541 141.385 0 256-114.615 256-256z" fill="#4253ce"/><path d="m175.137 150.596h174.231v-30h-174.231c-6.245-18.177-23.511-31.276-43.78-31.276-25.517 0-46.276 20.759-46.276 46.276 0 20.269 13.099 37.535 31.276 43.78v153.247c-18.177 6.245-31.276 23.511-31.276 43.78 0 25.517 20.759 46.276 46.276 46.276 20.269 0 37.535-13.099 43.78-31.276h174.231v-30h-174.231c-4.628-13.471-15.31-24.152-28.78-28.78v-153.247c13.47-4.627 24.152-15.309 28.78-28.78zm-43.781-31.276c8.975 0 16.276 7.301 16.276 16.276s-7.301 16.276-16.276 16.276-16.276-7.301-16.276-16.276 7.302-16.276 16.276-16.276zm0 273.36c-8.975 0-16.276-7.301-16.276-16.276s7.301-16.276 16.276-16.276 16.276 7.301 16.276 16.276-7.301 16.276-16.276 16.276z" fill="#fff"/><path d="m395.644 332.624v-153.248c18.177-6.245 31.276-23.511 31.276-43.78 0-25.517-20.759-46.276-46.276-46.276-20.269 0-37.535 13.099-43.78 31.276h-81.129v30h81.129c4.628 13.471 15.31 24.152 28.78 28.78v153.247c-13.471 4.628-24.152 15.31-28.78 28.78h-81.129v30h81.129c6.245 18.177 23.511 31.276 43.78 31.276 25.517 0 46.276-20.759 46.276-46.276-.001-20.268-13.1-37.534-31.276-43.779zm-15-213.304c8.975 0 16.276 7.301 16.276 16.276s-7.301 16.276-16.276 16.276-16.276-7.301-16.276-16.276 7.301-16.276 16.276-16.276zm0 273.36c-8.975 0-16.276-7.301-16.276-16.276s7.301-16.276 16.276-16.276 16.276 7.301 16.276 16.276-7.302 16.276-16.276 16.276z" fill="#e9edf5"/></g></svg>