<svg id="Capa_1" enable-background="new 0 0 512 512" height="512" viewBox="0 0 512 512" width="512" xmlns="http://www.w3.org/2000/svg"><circle cx="256" cy="256" fill="#22d7ff" r="256"/><path d="m512 256c0 87.11-43.52 164.07-110 210.31-41.41 28.8-91.73 45.69-146 45.69s-104.59-16.89-146-45.69c-66.48-46.24-110-123.2-110-210.31 0-46.22 12.25-89.57 33.68-127 44.12 77.07 127.16 129 222.32 129s178.21-51.93 222.32-129c21.43 37.43 33.68 80.78 33.68 127z" fill="#00b3fe"/><path d="m441.81 274.41v157.69c-11.32 11.93-23.77 22.78-37.19 32.35-41.9 29.94-93.21 47.55-148.62 47.55s-106.72-17.61-148.62-47.55c-13.42-9.57-25.87-20.42-37.19-32.35v-157.69l185.81-185.98z" fill="#ec781b"/><path d="m441.81 274.41v157.69c-11.32 11.93-23.77 22.78-37.19 32.35-41.9 29.94-93.21 47.55-148.62 47.55v-423.57z" fill="#c55733"/><path d="m395.217 457.628v-259.422l-60.532-60.55h-217.905v319.972z" fill="#fff"/><path d="m395.217 457.628v-259.422l-60.532-60.55h-78.682v319.972z" fill="#d1f6ff"/><path d="m395.218 198.207h-60.535v-60.552z" fill="#00b3fe"/><g fill="#4e689b"><path d="m343.705 226.889c0 4.54-1.842 8.638-4.816 11.613-2.965 2.965-7.073 4.807-11.603 4.807h-142.566c-9.071 0-16.42-7.349-16.42-16.42 0-4.54 1.842-8.638 4.807-11.613 2.975-2.965 7.073-4.807 11.613-4.807h142.566c9.061.001 16.419 7.349 16.419 16.42z"/><path d="m343.705 292.578c0 4.531-1.842 8.638-4.816 11.603-2.965 2.975-7.073 4.816-11.603 4.816h-142.566c-9.071 0-16.42-7.358-16.42-16.42 0-4.531 1.842-8.638 4.807-11.613 2.975-2.975 7.073-4.816 11.613-4.816h142.566c9.061.001 16.419 7.359 16.419 16.43z"/><path d="m343.705 358.257c0 4.531-1.842 8.638-4.816 11.613-2.965 2.975-7.073 4.807-11.603 4.807h-142.566c-9.071 0-16.42-7.349-16.42-16.42 0-4.531 1.842-8.638 4.807-11.613 2.975-2.975 7.073-4.807 11.613-4.807h142.566c9.061 0 16.419 7.349 16.419 16.42z"/></g><path d="m343.705 358.257c0 4.531-1.842 8.638-4.816 11.613-2.965 2.975-7.073 4.807-11.603 4.807h-71.278v-32.84h71.278c9.061 0 16.419 7.349 16.419 16.42z" fill="#374c81"/><path d="m343.705 292.578c0 4.531-1.842 8.638-4.816 11.603-2.965 2.975-7.073 4.816-11.603 4.816h-71.278v-32.849h71.278c9.061.001 16.419 7.359 16.419 16.43z" fill="#374c81"/><path d="m327.285 243.309h-71.278v-32.84h71.278c9.062 0 16.42 7.349 16.42 16.42 0 4.54-1.842 8.638-4.816 11.613-2.965 2.965-7.073 4.807-11.604 4.807z" fill="#374c81"/><path d="m441.81 274.41v157.69c-46.65 49.21-112.65 79.9-185.81 79.9s-139.16-30.69-185.81-79.9v-157.69l119.09 85.31 66.72 47.8 66.72-47.8z" fill="#ffc300"/><path d="m441.81 274.41v157.69c-46.65 49.21-112.65 79.9-185.81 79.9v-104.48l66.72-47.8z" fill="#ff9f00"/><path d="m404.62 464.45c-41.9 29.94-93.21 47.55-148.62 47.55s-106.72-17.61-148.62-47.55l81.9-104.73 66.72 47.8 66.72-47.8z" fill="#ff9f00"/><path d="m404.62 464.45c-41.9 29.94-93.21 47.55-148.62 47.55v-104.48l66.72-47.8z" fill="#ec781b"/></svg>