<svg id="Capa_1" enable-background="new 0 0 512 512" height="512" viewBox="0 0 512 512" width="512" xmlns="http://www.w3.org/2000/svg"><g><g><path d="m512 256c0 43.79-11 85.02-30.39 121.07l-225.61 49.67-225.61-49.67c-19.39-36.05-30.39-77.28-30.39-121.07 0-46.63 12.47-90.34 34.26-128 41.698 72.091 399.22 76.52 443.48 0 21.79 37.66 34.26 81.37 34.26 128z" fill="#eec036"/><path d="m477.74 128c-44.26 76.52-126.99 128-221.74 128s-177.48-51.48-221.74-128c.01-.02.03-.05.04-.07 44.27-76.48 126.98-127.93 221.7-127.93s177.43 51.45 221.7 127.93c.01.02.03.05.04.07z" fill="#f5dd6e"/><path d="m481.61 377.07c-4.68 8.71-9.86 17.12-15.49 25.19-12.375 17.752-52.202 4-68.574 18.075-17.577 15.111-11.973 57.739-33.216 67.675-32.89 15.39-69.6 23.99-108.33 23.99s-75.44-8.6-108.33-23.99c-14.364-6.718 8.396-51.129-4.364-60.286-23.688-16.998-80.75-1.541-97.426-25.464-5.63-8.07-10.81-16.48-15.49-25.19z" fill="#de8051"/></g><path d="m466.12 144.91v257.35c-25.66 36.81-60.76 66.56-101.79 85.75h-216.66c-41.03-19.19-76.13-48.94-101.79-85.75v-257.35z" fill="#e8ebf7"/><path d="m466.12 144.91v257.35c-25.66 36.81-60.76 66.56-101.79 85.75h-108.33v-343.1z" fill="#daddee"/><path d="m45.88 144.912h420.241v65.488h-420.241z" fill="#daddee"/><path d="m256 144.912h210.12v65.488h-210.12z" fill="#c8cde4"/><path d="m70.216 166.081h26.637v26.637h-26.637z" fill="#d95f91"/><path d="m107.283 166.081h26.637v26.637h-26.637z" fill="#eec036"/><path d="m147.37 166.081h26.637v26.637h-26.637z" fill="#79ce8b"/><g fill="#474d54"><path d="m258.145 284.182-17.623 62.989-18.593-63.023h-15.33l-16.363 90.92 14.763 2.657 10.949-60.84 17.414 59.024h14.697l16.534-59.099 11.93 61.005 14.721-2.879-17.76-90.81z"/><path d="m76.875 376.515h48.07v-15h-33.07v-24.243h30.632v-15h-30.632v-24.243h33.07v-15h-48.07z"/><path d="m366.982 353.017c-.763.911-1.589 1.763-2.454 2.533-4.444 3.958-10.079 5.965-16.748 5.965-17.702 0-32.104-14.402-32.104-32.105s14.402-32.104 32.104-32.104c9.02-.351 17.157 4.52 24.16 9.677l8.396-12.43c-9.437-7.08-20.487-12.55-32.557-12.247-25.974 0-47.104 21.131-47.104 47.104s21.131 47.105 47.104 47.105c10.312 0 19.553-3.376 26.725-9.763 2.699-2.278 6.454-7.122 8.791-9.847l-11.495-9.636z"/><path d="m407.959 311.393c3.82-4.936 8.991-11.894 15.67-21.436 4.211-6.015 6.957-11.702 8.163-16.903.026-.245.611-4.156.52-4.242 0-13.428-10.924-24.352-24.352-24.352-11.609 0-21.658 8.259-23.895 19.639l-1.446 7.359 14.719 2.892 1.446-7.359c.857-4.364 4.717-7.531 9.176-7.531 5.02 0 9.129 3.976 9.343 8.944l-.204 1.596c-.821 3.25-2.758 7.068-5.759 11.356-15.856 22.656-22.792 30.081-22.847 30.138l-2.06 2.162-.045 12.672 48.69.149.046-15z"/><path d="m137.563 311.028h51.754v15h-51.754z"/><path d="m137.563 334.494h51.754v15h-51.754z"/></g><path d="m184.401 400.075h213.145v20.26h-213.145z" fill="#db6870"/></g></svg>