<svg id="Icons" enable-background="new 0 0 512 512" height="512" viewBox="0 0 512 512" width="512" xmlns="http://www.w3.org/2000/svg"><g><circle cx="256" cy="256" fill="#22bce0" r="256"/><path d="m413.739 256c-.095 65.728-39.9 121.979-97.706 145.908-125.134 51.495-253.708-69.958-208.947-198.043 60.959-165.188 302.949-126.257 306.653 52.135z" fill="#4fcae8"/><g id="Microscope_3_"><g><path d="m404.43 464.6c-15.861 11.294-32.933 20.767-51 28.2-31.25 12.923-66.218 19.825-101.96 19.16-12.489-.683-22.364-11.166-22.32-23.66 0-6.46 2.58-12.32 6.77-16.59 4.3-4.39 10.3-7.11 16.93-7.11z" fill="#57409b"/><path d="m353.43 492.8c-31.25 12.923-66.218 19.825-101.96 19.16-7.23-.425-13.527-4.002-17.67-9.55 4.32-5.83 11.24-9.61 19.05-9.61z" fill="#2d2667"/><path d="m404.43 464.6c-7.17 5.11-14.62 9.86-22.31 14.22h-129.27c-6.635-.007-12.63-2.707-16.93-7.11 4.3-4.39 10.3-7.11 16.93-7.11z" fill="#6c53a2"/></g><g><g><path d="m463.535 322.662c-1.617 124.342-160.8 171.489-229.642 67.76-7.242-12.223 9.787-23.234 17.977-11.638 56.908 86.004 189.094 46.727 190.254-56.122 0-25.366-9.275-49.766-26.121-68.702-3.931-4.419-3.537-11.185.882-15.116s11.185-3.529 15.116.882c20.332 22.858 31.534 52.31 31.534 82.936z" fill="#57409b"/></g><path d="m414.145 422.041c-55.377 43.696-142.449 29.09-180.251-31.62-3.212-4.957-1.799-11.586 3.168-14.798 4.959-3.212 11.587-1.799 14.808 3.16 32.195 51.788 107.181 62.691 152.7 23.543 3.725 6.252 6.937 12.847 9.575 19.715z" fill="#2d2667"/><path d="m463.535 322.662c0 6.089-.437 12.084-1.285 17.942-7.22-.822-14.242-2.278-21.017-4.308 3.984-29.572-5.318-60.108-25.23-82.337-3.931-4.419-3.537-11.185.882-15.116s11.185-3.529 15.116.882c20.332 22.859 31.534 52.311 31.534 82.937z" fill="#6c53a2"/></g><g><path d="m350.116 127.22-88.427 88.427c-4.124 4.124-6.359 9.423-6.722 14.825-.435 6.6 1.956 13.133 6.722 17.901 0 0 27.542 27.542 27.542 27.542 2.447 2.447 5.305 4.227 8.357 5.341 8.382 3.086 17.855 1.15 24.369-5.341 0 0 88.427-88.427 88.427-88.427 9.149-9.09 8.886-23.92 0-32.726 0 0-27.542-27.542-27.542-27.542-8.802-8.875-23.637-9.149-32.726 0z" fill="#c2aacf"/><path d="m391.357 168.461-88.427 88.427c-1.811 1.811-3.258 3.851-4.336 6.019-2.87 5.729-3.21 12.402-1.005 18.349 8.383 3.087 17.854 1.15 24.369-5.341 0 0 88.427-88.427 88.427-88.427 6.589-6.589 8.381-16.169 5.341-24.369-8.2-3.04-17.781-1.247-24.369 5.342z" fill="#a583bb"/><path d="m350.116 127.22-88.427 88.427c-6.514 6.544-8.446 16.069-5.299 24.471 8.309 3.178 18.154 1.096 24.466-5.305 0 0 88.427-88.427 88.427-88.427 6.619-6.619 8.387-16.248 5.305-24.466-8.224-3.087-17.852-1.319-24.472 5.3z" fill="#f0dae2"/><g><path d="m230.397 205.642c-5.272 5.194-5.375 14.018-.002 19.323 0 0 82.245 82.245 82.245 82.245 5.192 5.283 14.056 5.352 19.321 0 5.251-5.166 5.3-13.812.268-19.047-.055-.14-82.379-82.329-82.513-82.518-5.285-5.358-14.111-5.279-19.319-.003z" fill="#57409b"/><path d="m226.414 214.571c-.203 3.734 1.125 7.54 3.98 10.395l82.245 82.245c2.769 2.776 6.551 4.187 10.395 3.98.23-3.767-1.233-7.693-3.98-10.395 0 0-82.245-82.245-82.245-82.245-2.86-2.851-6.623-4.178-10.395-3.98z" fill="#2d2667"/><path d="m239.145 201.677c-.26 3.798 1.071 7.669 3.968 10.57 0 0 82.245 82.245 82.245 82.245 2.764 2.792 6.728 4.252 10.575 3.968.263-3.881-1.166-7.789-3.973-10.57 0 0-82.245-82.245-82.245-82.245-2.905-2.892-6.736-4.222-10.57-3.968z" fill="#6c53a2"/></g><path d="m260.551 255.12-14.734 14.734c-6.326 6.425-3.349 13.862 2.422 19.657 5.799 5.767 13.232 8.746 19.651 2.416 0 0 14.734-14.734 14.734-14.734z" fill="#ebd9ea"/><path d="m276.375 270.944-14.734 14.734c-2.992 2.992-3.936 6.31-3.391 9.641 3.331.545 6.649-.4 9.641-3.391l14.734-14.734z" fill="#c2aacf"/><path d="m260.551 255.12-14.734 14.734c-2.998 2.998-3.936 6.334-3.385 9.671 3.337.551 6.674-.388 9.671-3.385l14.734-14.734z" fill="#fff"/><path d="m252.325 264.643h31.217v10.336h-31.217z" fill="#c2aacf" transform="matrix(-.707 -.707 .707 -.707 266.605 650.053)"/><path d="m390.315 119.747-7.473 7.473 27.542 27.542 7.473-7.473c2.344-2.344 2.695-5.929 1.048-8.642-.708-1.258-18.476-18.865-19.694-19.79-2.746-1.826-6.479-1.526-8.896.89z" fill="#57409b"/><path d="m410.269 139.701-7.473 7.473 7.588 7.588 7.473-7.473c2.344-2.344 2.695-5.929 1.048-8.642-2.713-1.634-6.292-1.289-8.636 1.054z" fill="#2d2667"/><path d="m390.315 119.747-7.473 7.473 8.012 8.012 7.473-7.473c2.416-2.416 2.713-6.153.884-8.902-2.746-1.826-6.479-1.526-8.896.89z" fill="#6c53a2"/><path d="m295.919 200.584c5.293 5.293 13.874 5.293 19.167 0l34.259-34.259c5.293-5.293 5.293-13.874 0-19.167s-13.874-5.293-19.167 0l-34.259 34.259c-5.292 5.293-5.292 13.875 0 19.167z" fill="#fff"/></g><g><path d="m366.553 436.763c.062 15.114-12.332 27.864-27.834 27.834-28.796-.3-38.245-38.141-13.591-52.13 18.145-10.411 41.642 3.226 41.425 24.296z" fill="#2d2667"/><path d="m366.553 436.763c0 4.933-1.285 9.575-3.546 13.6-24.547 13.496-51.365-13.374-37.88-37.897 18.147-10.412 41.643 3.231 41.426 24.297z" fill="#57409b"/><path d="m356.628 427.281c0-7.393-5.993-13.387-13.387-13.387-17.757.705-17.752 26.071 0 26.773 7.394.001 13.387-5.992 13.387-13.386z" fill="#6c53a2"/></g><g><path d="m417.865 219.79c.062 15.114-12.332 27.864-27.834 27.834-28.796-.3-38.245-38.141-13.591-52.13 18.144-10.411 41.641 3.226 41.425 24.296z" fill="#2d2667"/><path d="m417.865 219.79c0 4.933-1.285 9.575-3.546 13.6-24.547 13.496-51.365-13.374-37.88-37.897 18.147-10.412 41.643 3.23 41.426 24.297z" fill="#57409b"/><path d="m407.94 210.308c0-7.393-5.993-13.387-13.387-13.387-17.757.705-17.752 26.071 0 26.773 7.393.001 13.387-5.993 13.387-13.386z" fill="#6c53a2"/></g><g><path d="m286.006 360.242c.01 5.332-4.345 9.71-9.703 9.703h-83.493c-5.385-.001-9.716-4.369-9.712-9.703-.011-5.323 4.351-9.716 9.712-9.703h83.493c5.394-.002 9.703 4.389 9.703 9.703z" fill="#57409b"/><path d="m283.865 366.322c-1.816 2.235-4.504 3.615-7.562 3.623h-83.493c-3.057 0-5.789-1.413-7.571-3.623 1.816-2.236 4.512-3.615 7.571-3.623h83.493c3.058 0 5.79 1.414 7.562 3.623z" fill="#2d2667"/><path d="m283.985 354.324c-1.814 2.329-4.555 3.769-7.682 3.777h-83.493c-3.126 0-5.909-1.482-7.691-3.777 1.798-2.34 4.568-3.774 7.691-3.785h83.493c3.135-.001 5.918 1.481 7.682 3.785z" fill="#6c53a2"/></g><g><path d="m276.303 350.538h-83.493c-.002-7.089 5.748-12.84 12.838-12.838h57.817c7.093.002 12.839 5.748 12.838 12.838z" fill="#528f66"/><path d="m272.578 341.494c-2.329 2.347-5.55 3.794-9.112 3.794h-57.817c-3.563-.001-6.786-1.451-9.112-3.794 2.329-2.347 5.55-3.794 9.112-3.794h57.817c3.563.001 6.786 1.452 9.112 3.794z" fill="#53b976"/></g></g><g id="Speech-bubble_8_"><path d="m186.153 321.571c-3.62 0-7.166-1.768-9.296-5.022l-35.792-54.701c-7.567-12.614 10.008-24.159 18.572-12.152 0 0 35.792 54.701 35.792 54.701 4.872 7.206-.643 17.309-9.276 17.174z" fill="#ebd9ea"/><path d="m206.12 168.13v69.3c0 9.78-3.31 18.77-8.87 25.94-7.86 10.18-20.363 16.442-33.44 16.38h-107.18c-23.502.003-42.337-19.117-42.31-42.32v-66.04c3.15-9.02 6.8-17.82 10.92-26.34 1.64-3.42 3.36-6.79 5.15-10.12 7.21-5.7 16.33-9.11 26.24-9.11h107.18c23.496 0 42.345 19.097 42.31 42.31z" fill="#ebd9ea"/><path d="m206.118 168.125v69.307c0 9.776-3.312 18.769-8.873 25.939-5.57-7.17-8.881-16.162-8.881-25.939v-69.307c0-9.776 3.312-18.769 8.881-25.931 5.562 7.163 8.873 16.155 8.873 25.931z" fill="#fff"/><path d="m32.08 168.13v69.3c0 9.78-3.32 18.77-8.88 25.94-5.57-7.17-8.88-16.16-8.88-25.94v-66.04c3.15-9.02 6.8-17.82 10.92-26.34 4.32 6.64 6.84 14.56 6.84 23.08z" fill="#c1b7d3"/></g><g id="Bacteria"><path d="m61.625 259.013c-4.946-4.858-4.992-12.85-.077-17.756 12.189-11.278 29.025 5.565 17.751 17.753-4.881 4.881-12.793 4.885-17.674.003zm-14.289-27.253c-7.79-7.687-2.341-21.371 8.833-21.357 7.795-.087 13.86 7.346 12.256 14.961-1.789 9.692-14.29 13.409-21.089 6.396zm43.865 30.298c-5.584-5.443-4.597-15.118 1.961-19.288 13.898-8.47 27.06 10.648 14.147 20.607-5.001 3.615-11.941 2.901-16.108-1.319zm-25.424-55.771c-4.884-4.884-4.884-12.801.003-17.681 12.19-11.259 28.935 5.492 17.678 17.678-4.881 4.881-12.8 4.885-17.681.003zm48.493 33.408c-4.881-4.881-4.881-12.796 0-17.678 12.189-11.26 28.94 5.484 17.685 17.671-4.88 4.888-12.801 4.891-17.685.007zm-25.753-56.148c-4.884-4.884-4.884-12.801.003-17.681 12.19-11.259 28.935 5.492 17.678 17.678-4.881 4.881-12.8 4.885-17.681.003zm48.493 33.408c-4.881-4.881-4.881-12.796 0-17.678 12.189-11.26 28.94 5.484 17.685 17.671-4.88 4.888-12.801 4.891-17.685.007zm-25.409-55.739c-5.739-5.594-4.531-15.539 2.406-19.575 14.25-7.858 26.54 11.758 13.306 21.159-5 3.303-11.576 2.551-15.712-1.584zm43.832 30.267c-8.64-8.633-.836-23.497 11.292-21.105 6.41 1.281 10.686 7.254 9.974 13.632-1.051 10.334-14.008 14.865-21.266 7.473zm-14.261-27.179c-4.882-4.882-4.885-12.8-.003-17.681 12.204-11.259 28.933 5.487 17.681 17.681-4.882 4.882-12.796 4.882-17.678 0z" fill="#528f66"/><path d="m70.394 250.103-7.481-7.481c-9.242-9.242-9.242-24.227 0-33.469l53.658-53.658c9.242-9.242 24.227-9.242 33.469 0l7.481 7.481c9.242 9.242 9.242 24.227 0 33.469l-53.658 53.658c-9.242 9.242-24.227 9.242-33.469 0z" fill="#78c795"/><g fill="#53b976"><path d="m146.451 189.113c3.975-3.975 3.975-10.421 0-14.397-9.928-9.169-23.564 4.473-14.396 14.397 3.975 3.976 10.42 3.976 14.396 0z"/><path d="m104.098 244.919c-9.181.534-14.343-10.782-7.74-17.364 6.583-6.603 17.901-1.439 17.364 7.742z"/><path d="m112.873 192.818c5.721-6.085-2.849-14.651-8.931-8.931-5.721 6.084 2.848 14.651 8.931 8.931z"/><path d="m114.376 212.183c5.721-6.085-2.849-14.651-8.931-8.931-5.721 6.085 2.848 14.652 8.931 8.931z"/><path d="m84.038 227.699c5.721-6.085-2.849-14.651-8.931-8.931-5.721 6.084 2.848 14.651 8.931 8.931z"/></g><path d="m67.919 252.578-7.482-7.482c-10.592-10.592-10.591-27.827.001-38.419l53.657-53.657c10.592-10.592 27.827-10.593 38.419-.001l7.482 7.482c10.592 10.592 10.591 27.827-.001 38.419l-53.657 53.657c-10.592 10.592-27.827 10.593-38.419.001zm79.646-94.609c-7.863-7.863-20.657-7.862-28.52.001l-53.657 53.657c-7.863 7.863-7.863 20.657-.001 28.52l7.482 7.482c7.863 7.863 20.657 7.862 28.52-.001l53.657-53.657c7.863-7.863 7.863-20.657.001-28.52z" fill="#528f66"/></g></g></svg>