<svg id="Capa_1" enable-background="new 0 0 512 512" height="512" viewBox="0 0 512 512" width="512" xmlns="http://www.w3.org/2000/svg"><path d="m511.993 257.952c-.897 120.137-84.55 220.591-196.783 247.157h-.01c-39.334 4.578-79.066 4.578-118.4 0h-.01c-112.84-26.709-196.79-128.109-196.79-249.109 0-141.38 114.62-256 255.999-256 141.032 0 257.047 116.924 255.994 257.952z" fill="#6c82ff"/><path d="m512 256c0 87.11-43.52 164.07-110 210.31-25.86 17.98-55.19 31.32-86.79 38.81v-.01l-.02.002c-39.327 4.576-79.053 4.576-118.38 0l-.02-.002-.01.01c-31.6-7.49-60.93-20.83-86.78-38.81-66.48-46.24-110-123.2-110-210.31 0-46.22 12.25-89.57 33.68-127 44.12 77.07 127.16 129 222.32 129s178.21-51.93 222.32-129c21.43 37.43 33.68 80.78 33.68 127z" fill="#4d6df4"/><g fill="#fff"><path d="m438.17 301.765h1.524c6.753 0 12.227 5.474 12.227 12.227v1.524h8.716v-1.524c0-6.753 5.474-12.227 12.227-12.227h1.525v-8.716h-1.525c-6.753 0-12.227-5.474-12.227-12.227v-1.525h-8.716v1.525c0 6.753-5.474 12.227-12.227 12.227h-1.524z"/><path d="m37.611 301.765h1.524c6.753 0 12.227 5.474 12.227 12.227v1.524h8.716v-1.524c0-6.753 5.474-12.227 12.227-12.227h1.525v-8.716h-1.525c-6.753 0-12.227-5.474-12.227-12.227v-1.525h-8.716v1.525c0 6.753-5.474 12.227-12.227 12.227h-1.524z"/><path d="m94.272 395.289h1.524c6.753 0 12.227 5.474 12.227 12.227v1.524h8.716v-1.524c0-6.753 5.474-12.227 12.227-12.227h1.525v-8.716h-1.525c-6.753 0-12.227-5.474-12.227-12.227v-1.525h-8.716v1.525c0 6.753-5.474 12.227-12.227 12.227h-1.524z"/><path d="m381.51 395.289h1.524c6.753 0 12.227 5.474 12.227 12.227v1.524h8.716v-1.524c0-6.753 5.474-12.227 12.227-12.227h1.525v-8.716h-1.525c-6.753 0-12.227-5.474-12.227-12.227v-1.525h-8.716v1.525c0 6.753-5.474 12.227-12.227 12.227h-1.524z"/></g><path d="m402.6 210.75c0 40.64-16.54 77.41-43.26 103.96-27.94 27.77-44.13 65.21-44.13 104.6v2h-118.42v-1.16c0-39.25-15.28-77.19-43.32-104.64-27.82-27.22-44.84-65.43-44.04-107.62 1.52-79.62 67.14-143.73 146.57-143.74.61 0 1.23 0 1.85.01 80.11.99 144.75 66.24 144.75 146.59z" fill="#ffce00"/><path d="m402.6 210.75c0 40.64-16.54 77.41-43.26 103.96-27.94 27.77-44.13 65.21-44.13 104.6v2h-59.21v-357.16c.61 0 1.23 0 1.85.01 80.11.99 144.75 66.24 144.75 146.59z" fill="#ff9f00"/><circle cx="256" cy="206.24" fill="#ffe400" r="88.46"/><path d="m344.46 206.24c0 48.85-39.6 88.46-88.46 88.46v-176.92c48.86 0 88.46 39.6 88.46 88.46z" fill="#ffc300"/><path d="m234.094 419.218h-26.736v-192.678c0-7.383 5.985-13.368 13.368-13.368 7.383 0 13.368 5.985 13.368 13.368z" fill="#fff"/><path d="m304.641 419.218h-26.736v-192.678c0-7.383 5.985-13.368 13.368-13.368 7.383 0 13.368 5.985 13.368 13.368z" fill="#b3f4ff"/><path d="m315.21 421.31v83.8c-19 4.51-38.83 6.89-59.21 6.89-11.29 0-22.4-.73-33.3-2.15-8.79-1.14-17.43-2.73-25.91-4.74v-83.8z" fill="#fff"/><path d="m315.21 421.31v83.8c-19 4.51-38.83 6.89-59.21 6.89-11.29 0-22.4-.73-33.3-2.15v-88.54z" fill="#d1f6ff"/><path d="m315.21 421.31v83.8c-19 4.51-38.83 6.89-59.21 6.89v-90.69z" fill="#b3f4ff"/><path d="m331.07 415.65v30.63c0 6.72-5.45 12.17-12.17 12.17h-125.8c-6.72 0-12.17-5.45-12.17-12.17v-30.63c0-6.73 5.45-12.18 12.17-12.18h125.8c6.72 0 12.17 5.45 12.17 12.18z" fill="#374c81"/><path d="m331.07 415.65v30.63c0 6.72-5.45 12.17-12.17 12.17h-89.4c-6.72 0-12.17-5.45-12.17-12.17v-30.63c0-6.73 5.45-12.18 12.17-12.18h89.4c6.72 0 12.17 5.45 12.17 12.18z" fill="#234177"/><path d="m331.07 415.65v30.63c0 6.72-5.45 12.17-12.17 12.17h-62.9v-54.98h62.9c6.72 0 12.17 5.45 12.17 12.18z" fill="#16325b"/></svg>