<svg id="Capa_1" enable-background="new 0 0 512 512" height="512" viewBox="0 0 512 512" width="512" xmlns="http://www.w3.org/2000/svg"><g><g><path d="m256 313.565c-141.387 0-243.753-147.139-222.328-184.566 44.12-77.07 127.158-128.999 222.328-128.999s178.208 51.929 222.328 128.999c21.425 37.427-80.941 184.566-222.328 184.566z" fill="#b196e7"/><path d="m512 256c0 26.051-3.891 51.191-11.129 74.871-5.031 16.469-11.672 32.231-19.75 47.109-8.25 15.2-147.391 47.386-225.121 47.386s-216.871-32.186-225.109-47.386c-3.289-6.031-6.332-12.21-9.121-18.531-14-31.629-21.77-66.629-21.77-103.449 0-46.219 12.25-89.57 33.68-127 44.121 77.07 127.16 129 222.32 129s178.211-51.93 222.32-129c21.43 37.43 33.68 80.781 33.68 127zm0 0" fill="#8d69db"/><path d="m481.262 377.699c-7.16 13.223-15.434 25.742-24.723 37.43-7.641 9.63-15.975 18.689-24.908 27.112-.931.877-216.961 67.24-236.457 62.487-42.466-10.352-80.784-31.297-111.994-59.876-10-9.153-19.282-19.09-27.719-29.723-9.289-11.688-17.563-24.207-24.723-37.43zm0 0" fill="#5541b6"/></g><g><path d="m190.936 298.164h-119.148v71.016c0 32.526 62.142 47.344 119.148 47.344 57.007 0 118.359-14.818 118.359-47.344v-71.016z" fill="#dce0ef"/><path d="m309.296 369.18v-71.016h-118.36v118.359c57.007 0 118.36-14.818 118.36-47.343z" fill="#cad0e7"/><path d="m190.936 227.148h-119.148v71.016c0 32.526 62.142 47.344 119.148 47.344 57.007 0 118.359-14.818 118.359-47.344v-71.016z" fill="#fbf5eb"/><path d="m309.296 298.164v-71.016h-118.36v118.359c57.007.001 118.36-14.817 118.36-47.343z" fill="#dce0ef"/><path d="m190.936 155.344h-119.148v71.805c0 32.526 62.142 47.344 119.148 47.344 57.007 0 118.359-14.818 118.359-47.344v-71.805z" fill="#dce0ef"/><path d="m309.296 227.148v-71.805h-118.36v119.148c57.007.001 118.36-14.817 118.36-47.343z" fill="#cad0e7"/><path d="m190.936 108c-57.007 0-119.148 14.818-119.148 47.344s62.142 47.344 119.148 47.344c57.007 0 118.359-14.818 118.359-47.344.001-32.526-61.352-47.344-118.359-47.344z" fill="#fbf5eb"/><path d="m309.296 155.344c0-32.526-61.353-47.344-118.359-47.344v94.688c57.006 0 118.359-14.818 118.359-47.344z" fill="#dce0ef"/><path d="m332.967 286.328-137.49 218.456c19.407 4.704 39.67 7.216 60.523 7.216 67.998 0 129.794-26.519 175.635-69.767z" fill="#f3d37a"/><path d="m332.967 286.328-76.967 225.672c67.998 0 129.794-26.519 175.635-69.767z" fill="#efc142"/><path d="m431.635 442.233-98.667-155.905v213.89c37.298-11.743 70.907-31.795 98.667-57.985z" fill="#e38d22"/><path d="m321.132 369.18h23.672v47.344h-23.672z" fill="#535564"/><path d="m321.132 440.195h23.672v23.672h-23.672z" fill="#535564"/><g fill="#3b3b3b"><path d="m332.967 369.18h11.836v47.344h-11.836z"/><path d="m332.967 440.195h11.836v23.672h-11.836z"/></g></g><g fill="#fff"><path d="m339.241 74.235h-1.524c-6.754 0-12.226-5.477-12.226-12.227v-1.523h-8.715v1.523c0 6.75-5.477 12.227-12.227 12.227h-1.527v8.715h1.527c6.75 0 12.227 5.472 12.227 12.226v1.528h8.715v-1.528c0-6.754 5.472-12.226 12.226-12.226h1.524zm0 0"/><path d="m443.211 157.592h-1.524c-6.754 0-12.226-5.477-12.226-12.227v-1.523h-8.715v1.523c0 6.75-5.477 12.227-12.227 12.227h-1.527v8.715h1.527c6.75 0 12.227 5.472 12.227 12.226v1.528h8.715v-1.528c0-6.754 5.472-12.226 12.226-12.226h1.524zm0 0"/><path d="m430.203 281.969h-1.524c-6.754 0-12.226-5.477-12.226-12.227v-1.523h-8.715v1.523c0 6.75-5.477 12.227-12.227 12.227h-1.527v8.715h1.527c6.75 0 12.227 5.472 12.227 12.226v1.528h8.715v-1.528c0-6.754 5.472-12.226 12.226-12.226h1.524zm0 0"/></g></g></svg>