<svg id="Layer_1" enable-background="new 0 0 512 512" height="512" viewBox="0 0 512 512" width="512" xmlns="http://www.w3.org/2000/svg"><g><g><path d="m512 256c0 31.553-5.708 61.773-16.149 89.683-36.342 97.151-130.019 151.076-239.851 151.076-141.385 0-243.649-99.374-243.649-240.759 0-70.692 16.303-134.692 62.63-181.019s110.327-74.981 181.019-74.981c141.385 0 256 114.615 256 256z" fill="#6ee1ff"/></g><path d="m446.413 126.23h-71.723c-2.093 0-3.79-1.697-3.79-3.79v-11.933c0-2.093-1.697-3.79-3.79-3.79-2.093 0-3.79-1.697-3.79-3.79v-22.396c0-20.762-16.831-37.594-37.594-37.594h-59.854-43.919c-20.763 0-37.594 16.832-37.594 37.594v26.186h-8.866v19.513h-16.283-18.185c-15.583 0-27.128-14.55-23.511-29.707.085-.355.17-.71.257-1.065 5.713-23.488-23.053-39.712-40.37-22.847-47.746 46.498-77.401 111.477-77.401 183.389 0 64.585 23.99 124.279 64.519 169.891 12.495 14.072 21.915 21.688 26.243 25.623 44.593 37.726 102.253 60.486 165.238 60.486 92.303 0 174.23-49.047 219.449-124.119-.007.003-.015.007-.022.01 8.029-13.329 14.885-27.445 20.409-42.213v-169.914c0-6.514-1.263-12.975-3.79-18.979-.118-.28-.236-.56-.355-.84-7.693-18.098-25.614-29.715-45.278-29.715zm-232.054-45.699c0-4.194 3.4-7.594 7.594-7.594h43.919 59.854c4.194 0 7.594 3.4 7.594 7.594v26.186h-9.827v19.513h-96.323c-2.359 0-4.271-1.912-4.271-4.271v-10.972c0-2.359-1.912-4.271-4.271-4.271-2.359 0-4.271-1.912-4.271-4.271v-21.914z" fill="#05cdff"/><g><g><path d="m303.405 60.363h-64.05v3.146c1.089 3.101 1.75 6.402 1.903 9.814.279 6.226-1.698 12.107-5.122 17.04h67.269c4.188 0 7.594 3.406 7.594 7.594v59.968h-118.961v-59.649c-4.594 2.615-9.795 4.133-15.071 4.133-5.512 0-10.567-1.433-14.929-3.921v89.438h178.962v-89.969c0-20.729-16.865-37.594-37.595-37.594z" fill="#2d56a1"/></g><g><path d="m177.038 112.957c-8.284 0-15-6.716-15-15 0-20.729 16.865-37.594 37.594-37.594h43.919c8.284 0 15 6.716 15 15s-6.716 15-15 15h-43.919c-4.188 0-7.594 3.406-7.594 7.594 0 8.284-6.716 15-15 15z" fill="#2896ff"/></g><g><path d="m473.516 428.661v-228.611c0-18.294-14.83-33.125-33.124-33.125h-295.239v261.735h328.363z" fill="#ff8500"/></g><g><path d="m471.782 300.203c1.124-3.539 1.734-7.306 1.734-11.216v-145.33h-339.781v156.546z" fill="#ff5551"/></g><g><g><path d="m170.014 425.969c-3.252 0-6.395-.469-9.363-1.342-17.678-5.202-13.889-31.288 4.538-31.288 4.447 0 8.052-3.605 8.052-8.052v-75.355c0-4.447-3.605-8.052-8.052-8.052h-28.3v-134.954h-65.281c-18.294 0-33.124 14.83-33.124 33.124v235.931c0 18.294 14.83 33.125 33.125 33.125h368.783c18.294 0 33.125-14.83 33.125-33.125v-10.012z" fill="#fa690f"/></g><g><path d="m334.052 391.746h40.709c4.447 0 8.052-3.605 8.052-8.052v-75.355c0-4.447-3.605-8.052-8.052-8.052h-40.709c-4.447 0-8.052 3.605-8.052 8.052v75.355c0 4.447 3.605 8.052 8.052 8.052z" fill="#fa690f"/></g></g><g><path d="m173.919 297.879c-20.45 0-37.029-16.578-37.029-37.029v-117.193h-98.406v145.33c0 20.45 16.578 37.029 37.029 37.029h360.975c17.384 0 31.964-11.982 35.947-28.137z" fill="#e20a62"/></g><g><path d="m116.429 304.135v61.152c0 4.447 3.605 8.052 8.052 8.052h40.709c4.447 0 8.052-3.605 8.052-8.052v-61.152z" fill="#ffc305"/></g><g><path d="m165.189 281.879h-40.709c-4.447 0-8.052 3.605-8.052 8.052v24c0-4.447 3.605-8.052 8.052-8.052h40.709c4.447 0 8.052 3.605 8.052 8.052v-24c.001-4.447-3.604-8.052-8.052-8.052z" fill="#faf58c"/></g><g><path d="m326 304.135v59.558c0 4.447 3.605 8.052 8.052 8.052h40.709c4.447 0 8.052-3.605 8.052-8.052v-59.558z" fill="#ffc305"/></g><g><path d="m153.173 124.144h47.407v19.513h-47.407z" fill="#e20a62"/></g><g><path d="m301.173 124.144h47.407v19.513h-47.407z" fill="#e20a62"/></g><g><path d="m374.76 280.879h-40.709c-4.447 0-8.052 3.605-8.052 8.052v24c0-4.447 3.605-8.052 8.052-8.052h40.709c4.447 0 8.052 3.605 8.052 8.052v-24c.001-4.447-3.604-8.052-8.052-8.052z" fill="#faf58c"/></g></g></g></svg>