<svg id="Capa_1" enable-background="new 0 0 512 512" height="512" viewBox="0 0 512 512" width="512" xmlns="http://www.w3.org/2000/svg"><g><g><g><g><g><g><circle cx="256" cy="256" fill="#ffce00" r="256"/></g></g></g></g></g></g><path d="m512 256c0-1.008-.006-2.015-.018-3.021l-94.707-94.707-173.092 38.231-114.686-114.686-30 311.942 114.873 114.873c13.549 2.216 27.455 3.368 41.63 3.368 141.385 0 256-114.615 256-256z" fill="#ffa300"/><g><path d="m417.275 326.337h-81.113c-81.395 0-148.203-37.531-193.202-108.536-33.387-52.682-42.849-104.799-43.236-106.992l29.541-5.225c.087.487 9.053 49.225 39.535 96.944 39.761 62.247 96.069 93.809 167.361 93.809h81.113v30z" fill="#ff6c52"/></g><g><path d="m336.162 296.337c-29.239 0-55.952-5.319-80.042-15.875v32.143c24.676 9.083 51.454 13.732 80.042 13.732h81.113v-30z" fill="#ff432e"/></g><g><path d="m129.266 379.025-29.541-5.225c.387-2.193 9.849-54.31 43.236-106.992 44.999-71.005 111.807-108.536 193.202-108.536h81.113v30h-81.113c-71.292 0-127.6 31.561-167.361 93.809-30.483 47.719-39.449 96.458-39.536 96.944z" fill="#7584f2"/></g><g><path d="m336.162 158.272c-28.587 0-55.366 4.649-80.042 13.732v32.143c24.09-10.557 50.803-15.875 80.042-15.875h81.113v-30z" fill="#606aea"/></g><g><path d="m417.275 393.759h-317.778v-311.942h30v281.942h287.778z" fill="#555a66"/></g><g><path d="m256.12 363.759h161.155v30h-161.155z" fill="#333940"/></g></svg>