<svg id="Capa_1" enable-background="new 0 0 512 512" height="512" viewBox="0 0 512 512" width="512" xmlns="http://www.w3.org/2000/svg"><g><g><path d="m512 256.123c0 141.387-113.388 245.569-254.775 245.569s-257.225-104.182-257.225-245.569 114.613-256 256-256 256 114.613 256 256zm0 0" fill="#e38031"/><path d="m512 256.123c0 26.051-3.891 51.191-11.129 74.871-5.031 16.469-11.672 32.231-19.75 47.109-8.25 15.2-18 29.461-29.051 42.61-.582.691-1.16 1.379-1.75 2.058-26.369 30.729-59.903 55.13-98.01 70.616-29.73 12.082-74.779-.559-99.426-3.927-45.963-6.28-131.677-6.036-177.999-52.435-4.575-4.582-8.977-9.337-13.195-14.254-.589-.687-1.179-1.378-1.75-2.07-11.062-13.137-20.812-27.398-29.05-42.598-3.289-6.031-6.332-12.21-9.121-18.531-13.999-31.629-21.769-66.629-21.769-103.449 0-46.219 12.25-89.57 33.68-127 44.121 77.07 127.16 129 222.32 129s178.211-51.93 222.32-129c21.43 37.43 33.68 80.781 33.68 127zm0 0" fill="#d85819"/><path d="m481.262 377.822c-7.16 13.223-15.434 25.742-24.723 37.43-8.437 10.633-17.719 20.57-27.719 29.723-22.337 20.454-48.316 36.998-76.85 48.546-29.638 11.996-73.041-11.164-106.978-11.164-66.609 0-167.54-42.746-170.311-45.523-6.803-6.822-13.226-14.026-19.221-21.582-9.289-11.688-17.563-24.207-24.723-37.43zm0 0" fill="#bd4911"/></g><g><path d="m121.85 331.127 89.977 177.186c10.885 1.893 22.007 3.092 33.317 3.564h21.712c30.014-1.253 58.69-7.67 85.167-18.392v-343.108h-138.386z" fill="#bfebff"/><path d="m75.25 437.407c36.833 36.725 84.796 62.281 138.387 71.207v-358.237h-138.387z" fill="#dff5ff"/><path d="m75.25 437.407c20.06 20.001 43.421 36.691 69.193 49.189v-336.219h-69.193z" fill="#f5fcff"/><path d="m266.591 192.741h170.159v105.908h-170.159z" fill="#7ed7ff"/><path d="m213.637 469.514h183.807c14.152-9.399 27.321-20.158 39.306-32.108v-117.575l-300.779 21.888z" fill="#64b0fb"/><path d="m117.613 319.831v149.683h96.024v-127.796z" fill="#7ed7ff"/><path d="m436.75 319.831h-223.113l-28.243 32.125 28.243 32.126h172.277z" fill="#7ed7ff"/><path d="m117.613 319.831 50.836 64.251h45.188v-64.251z" fill="#afe8fd"/></g></g></svg>