<svg id="Capa_1" enable-background="new 0 0 512 512" height="512" viewBox="0 0 512 512" width="512" xmlns="http://www.w3.org/2000/svg"><g><g><path d="m512 256c0 43.79-11 85.02-30.39 121.07l-225.61 49.67-225.61-49.67c-19.39-36.05-30.39-77.28-30.39-121.07 0-46.63 12.47-90.34 34.26-128 41.698 72.091 399.22 76.52 443.48 0 21.79 37.66 34.26 81.37 34.26 128z" fill="#eec036"/><path d="m477.74 128c-44.26 76.52-126.99 128-221.74 128s-177.48-51.48-221.74-128c.01-.02.03-.05.04-.07 44.27-76.48 126.98-127.93 221.7-127.93s177.43 51.45 221.7 127.93c.01.02.03.05.04.07z" fill="#f5dd6e"/><path d="m481.61 377.07c-43.19 80.32-128.02 134.93-225.61 134.93s-182.42-54.61-225.61-134.93z" fill="#e8ebf7"/><path d="m481.61 377.07c-43.19 80.32-128.02 134.93-225.61 134.93v-134.93z" fill="#daddee"/><path d="m377.25 426.74v28.61h-264.44l16.61-28.61z" fill="#858899"/><path d="m256 426.74h121.25v28.61h-121.25z" fill="#616579"/></g><g><path d="m424.893 215.371-49.431 49.431-61.595-10.508-10.508-61.594 49.431-49.432 60.762 11.342z" fill="#e8ebf7"/><path d="m213.202 427.062-38.788 10.924-29.575-14.663-14.664-29.576 10.925-38.788 58.948 13.155z" fill="#eed8c6"/><path d="m143.546 258.896h229.47v101.968h-229.47z" fill="#a9eb58" transform="matrix(.707 -.707 .707 .707 -143.47 273.394)"/><path d="m174.414 437.986-61.606 17.367 17.367-61.606z" fill="#616579"/><path d="m424.893 215.371-49.431 49.431-61.595-10.508 99.685-99.684z" fill="#daddee"/><path d="m213.202 427.062-38.788 10.924-29.575-14.663 55.209-55.209z" fill="#dfbba0"/><path d="m438.262 202.002-13.369 13.369-72.103-72.103 13.369-13.369c19.912-19.912 52.19-19.912 72.103 0 19.912 19.913 19.912 52.191 0 72.103z" fill="#db6870"/><path d="m161.572 302.414h229.47v50.984h-229.47z" fill="#79ce8b" transform="matrix(.707 -.707 .707 .707 -150.936 291.42)"/><path d="m438.262 202.002-13.369 13.369-36.051-36.051 49.42-49.42c19.912 19.912 19.912 52.19 0 72.102z" fill="#db504f"/><path d="m174.414 437.986-61.606 17.367 39.487-39.486z" fill="#464652"/></g></g></svg>