<svg id="Layer_1" enable-background="new 0 0 510.468 510.468" height="512" viewBox="0 0 510.468 510.468" width="512" xmlns="http://www.w3.org/2000/svg"><g><g><path d="m510.468 255.234c0 70.481-28.568 134.289-74.756 180.478s-110.388 51.125-180.869 51.125c-140.962 0-239.322-95.474-239.322-236.436 0-38.908-6.814-70.949 8.756-103.948 40.838-86.557 128.903-146.453 230.957-146.453 140.962 0 255.234 114.272 255.234 255.234z" fill="#82cd64"/></g><path d="m406.396 387.992c-.467.084-.934.167-1.401.248-8.053 1.403-16.277-1.312-22.047-7.102l-.222-.223c-4.747-4.764-7.413-11.216-7.413-17.941v-202.21c0-25.76-17.411-47.408-41.055-53.921-6.044-1.665-10.297-7.064-10.297-13.334 0-5.987 3.864-11.289 9.563-13.123 60.548-19.48 54.549-17.527 55.401-17.865h1.175c3.643 0 6.597 2.954 6.597 6.597v61.418c0 3.494-.784 6.996-2.609 9.975-.955 1.558-1.506 3.388-1.506 5.35v40.323c0 2.974 2.411 5.385 5.385 5.385h9.814c2.974 0 5.385-2.411 5.385-5.385v-40.323c0-1.962-.552-3.793-1.507-5.351-1.827-2.979-2.611-6.482-2.611-9.976v-61.415c0-10.465-8.483-18.948-18.948-18.948h-2.116l-100.437-24.322c-5.523-1.338-11.286-1.338-16.809 0l-100.476 24.332c-6.388 1.547-6.719 10.51-.462 12.523l64.524 20.759v9.159c-29.549 1.501-53.045 25.935-53.045 55.857v11.845l.011-.001-.001.111c-.26 46.888-69.154 50.343-74.163 3.723-.107-.998-.208-1.996-.304-2.995-4.211-44.064-63.652-54.739-82.544-14.708-15.571 32.998-24.278 69.871-24.278 108.78 0 87.16 43.696 164.106 110.371 210.151l289.708.015c7.324-5.058 14.387-10.5 21.162-16.305-.001-.002-.001-.004-.002-.006 3.833-3.286 7.567-6.684 11.198-10.188 21.305-20.562 3.1-56.154-26.041-50.909z" fill="#20b7a1"/><g><g><g><path d="m351.859 397.938v-231.932c0-30.889-25.041-55.93-55.93-55.93h-82.173c-30.889 0-55.93 25.041-55.93 55.93v231.932z" fill="#ff5551"/></g></g><g><g><path d="m324.205 382.64v-165.82c0-22.084-17.903-39.987-39.987-39.987h-58.75c-22.084 0-39.987 17.903-39.987 39.987v165.82z" fill="#e20a62"/></g></g><path d="m294.542 348.261h-38.466c-25.931 0-49.249 15.382-59.888 39.031-.219.488-.439.965-.658 1.431-4.195 8.921-6.482 18.619-6.482 28.477v84.585c21.108 5.656 43.292 8.683 66.186 8.683 53.794 0 103.69-16.656 144.842-45.072-9.455-56.495-51.154-102.065-105.534-117.135z" fill="#2d56a1"/><path d="m288.695 346.773c-83.642-19.492-164.704 36.525-178.322 118.61 24.35 16.817 51.755 29.524 81.227 37.087v-12.1c0-10.358 1.072-20.465 3.112-30.216 6.032-28.834 31.404-49.415 60.858-49.871.214-.004.429-.009.644-.015 20.776-.641 37.984-17.219 39.353-37.96.354-5.36-.335-10.514-1.878-15.283-1.064-3.289.711-6.84 4.033-7.797l.066-.019c-2.984-.902-6.015-1.696-9.075-2.41-.006-.009-.012-.018-.018-.026z" fill="#1a396b"/><g><g><g><path d="m282.804 369.78c0 15.227-12.344 27.57-27.57 27.57-15.227 0-27.57-12.344-27.57-27.57v-61.753h55.14z" fill="#ff965a"/></g></g></g><g><g><g><path d="m333.507 265.635c0 43.657-35.391 79.047-79.047 79.047-43.229 0-78.273-35.044-78.273-78.273v-26.865c0-46.05 37.331-83.38 83.38-83.38h39.737c18.343 0 33.263 14.773 33.445 33.115z" fill="#ffbe82"/></g></g></g><g><g><g><path d="m333.507 255.929v-46.525c10.136 0 18.352 8.217 18.352 18.352v9.82c0 10.137-8.216 18.353-18.352 18.353z" fill="#ff965a"/></g></g></g><g><g><g><path d="m176.186 255.929v-46.525c-10.136 0-18.352 8.217-18.352 18.352v9.82c0 10.137 8.217 18.353 18.352 18.353z" fill="#ff965a"/></g></g></g><g><g><g><path d="m227.934 249.41c-3.6 0-6.519-2.919-6.519-6.519v-17.83c0-3.6 2.919-6.519 6.519-6.519s6.519 2.919 6.519 6.519v17.83c0 3.6-2.919 6.519-6.519 6.519z" fill="#ff965a"/></g></g></g><g><g><g><path d="m281.174 249.41c-3.6 0-6.519-2.919-6.519-6.519v-17.83c0-3.6 2.919-6.519 6.519-6.519s6.519 2.919 6.519 6.519v17.83c0 3.6-2.919 6.519-6.519 6.519z" fill="#ff965a"/></g></g></g><g><g><g><path d="m227.934 243.977c-3.6 0-6.519-2.919-6.519-6.519v-17.83c0-3.6 2.919-6.519 6.519-6.519s6.519 2.919 6.519 6.519v17.83c0 3.6-2.919 6.519-6.519 6.519z" fill="#373c41"/></g></g></g><g><g><g><path d="m281.174 243.977c-3.6 0-6.519-2.919-6.519-6.519v-17.83c0-3.6 2.919-6.519 6.519-6.519s6.519 2.919 6.519 6.519v17.83c0 3.6-2.919 6.519-6.519 6.519z" fill="#373c41"/></g></g></g><g><g><g><path d="m244.671 255.149c-1.621 5.711 1.325 11.932 6.957 13.807 1.133.377 2.346.582 3.606.582s2.473-.204 3.606-.582c5.632-1.875 8.578-8.096 6.957-13.807l-7.904-27.853c-.76-2.679-4.557-2.679-5.317 0z" fill="#ff965a"/></g></g></g><g><path d="m261.747 156.304c-47.224-.09-85.56 38.171-85.56 85.395v24.711c0 31.964 19.059 59.12 46.039 71.346 7.575 3.432 13.91-6.654 7.613-12.087-16.629-14.347-27.155-35.57-27.155-59.259.02-34.662-.003-50.75-.006-58.59-.003-6.206 5.072-11.294 11.278-11.308h.008 37.939c22.078 0 39.659-18.269 39.659-40.348 0 .001-5.451.186-29.815.14z" fill="#ff965a"/></g><g><path d="m176.186 151.103v39.977 50.619c5.79 0 10.484-4.694 10.484-10.484v-12.842c0-15.073 12.219-27.293 27.293-27.293h37.939c22.078 0 39.977-17.898 39.977-39.977z" fill="#ff5551"/></g><g><path d="m321.816 148.067v-22.391c0-6.087-3.967-11.489-9.796-13.243-5.095-1.533-10.496-2.359-16.091-2.359h-4.084l-.316 46.089v.051h1.774c17.016.956 29.72 15.843 29.72 33.141v41.858c0 5.79 4.694 10.484 10.484 10.484v-82.772c0-3.165-2.689-5.663-5.846-5.43-3.156.235-5.845-2.263-5.845-5.428z" fill="#e20a62"/></g><g><g><g><path d="m231.205 280.599c-2.032 0-3.655 1.773-3.384 3.787 1.85 13.74 13.622 24.334 27.868 24.334 14.247 0 26.019-10.594 27.868-24.334.271-2.014-1.352-3.787-3.384-3.787z" fill="#e20a62"/></g></g></g><g><path d="m231.556 295.036c4.914 8.197 13.881 13.685 24.133 13.685 4.441 0 8.639-1.033 12.374-2.866-1.605-10.07-10.327-17.767-20.849-17.767-6.211-.001-11.794 2.68-15.658 6.948z" fill="#ff5551"/></g><g><path d="m269.359 288.087h-28.131c-2.191 0-3.967-1.776-3.967-3.967v-3.521h36.064v3.521c.001 2.191-1.775 3.967-3.966 3.967z" fill="#fff"/></g><g><path d="m224.032 235.267c-1.445 0-2.617-1.172-2.617-2.617v-7.862c0-1.445 1.172-2.617 2.617-2.617 1.445 0 2.617 1.172 2.617 2.617v7.862c-.001 1.445-1.172 2.617-2.617 2.617z" fill="#fff"/></g><g><path d="m277.272 233.976c-1.445 0-2.617-1.172-2.617-2.617v-7.862c0-1.445 1.172-2.617 2.617-2.617 1.445 0 2.617 1.172 2.617 2.617v7.862c0 1.445-1.172 2.617-2.617 2.617z" fill="#fff"/></g><g><path d="m291.879 110.983c0-7.285-5.906-13.192-13.192-13.192h-64.932c-30.889 0-55.93 25.041-55.93 55.93v11.845l134.053-14.463v-40.12z" fill="#ff5551"/></g><g><path d="m244.976 49.872v91.204l10.713 2.953 44.818-12.35v-81.807z" fill="#1a396b"/></g><g><path d="m309.57 85.79 55.461-17.844c6.257-2.013 5.927-10.976-.462-12.523l-100.475-24.331c-5.523-1.337-40.052 14.161-40.052 14.161v40.537z" fill="#2d56a1"/></g><path d="m210.871 81.131v50.548l35.826 9.872v-6.284c0-12.203 8.097-22.734 19.735-26.405.065-.02.13-.041.194-.062l33.881-10.901v-16.768z" fill="#033ad6"/><path d="m369.471 60.871c-.924-.139-1.863-.234-2.825-.234h-110.956c-.422 0-.833.042-1.231.123-4.341.88-8.805.953-13.021-.403l-8.399-2.702c-6.257-2.013-5.927-10.976.462-12.523l30.593-7.409c3.478-.842 3.478-5.789 0-6.631-5.523-1.338-11.286-1.338-16.809 0l-100.476 24.331c-6.388 1.547-6.719 10.51-.462 12.523l98.405 31.66c7.112 2.288 14.762 2.288 21.874 0l48.404-15.573c-6.144-1.977-4.721-11.046 1.733-11.046h32.602l15.666-5.04c3.378-1.088 4.819-4.199 4.44-7.076z" fill="#1a396b"/><g><path d="m379.418 165.619c-3.41 0-6.175-2.765-6.175-6.175v-85.082c0-3.638-2.96-6.598-6.597-6.598h-110.957c-3.41 0-6.175-2.765-6.175-6.175s2.765-6.175 6.175-6.175h110.956c10.447 0 18.947 8.5 18.947 18.948v85.082c.001 3.41-2.764 6.175-6.174 6.175z" fill="#ff8500"/></g><g><path d="m296.015 55.413h-40.067c-3.381 0-6.33 2.605-6.431 5.985-.105 3.497 2.699 6.365 6.172 6.365h40.326c3.41 0 6.175-2.765 6.175-6.175 0-3.41-2.764-6.175-6.175-6.175z" fill="#fa690f"/></g><g><path d="m379.419 140.812c-5.684 0-10.292 4.608-10.292 10.292v45.708h20.583v-45.708c0-5.684-4.608-10.292-10.291-10.292z" fill="#faf58c"/></g></g></g></svg>