<svg id="Capa_1" enable-background="new 0 0 512 512" height="512" viewBox="0 0 512 512" width="512" xmlns="http://www.w3.org/2000/svg"><g><g><path d="m256 318.285c-141.387 0-243.753-151.859-222.327-189.286 44.119-77.07 127.157-128.999 222.327-128.999 95.686 0 179.109 52.494 223.042 130.254 20.983 37.141-81.655 188.031-223.042 188.031z" fill="#8bfff4"/><path d="m512 256c0 26.051-3.891 51.191-11.129 74.871-5.031 16.469-11.672 32.231-19.75 47.109-8.25 15.2-147.391 55.166-225.121 55.166s-216.871-39.966-225.109-55.166c-3.289-6.031-6.332-12.21-9.121-18.531-14-31.629-21.77-66.629-21.77-103.449 0-46.219 12.25-89.57 33.68-127 44.121 77.07 127.16 129 222.32 129s178.211-51.93 222.32-129c21.43 37.43 33.68 80.781 33.68 127zm0 0" fill="#2dceea"/><path d="m481.262 377.699c-7.16 13.223-15.434 25.742-24.723 37.43-8.437 10.633-17.719 20.57-27.719 29.723-9.212 8.435-19.042 16.205-29.416 23.234-40.911 27.719-247.14 27.309-288.35-1.053-9.807-6.749-19.12-14.165-27.874-22.18-10-9.153-19.282-19.09-27.719-29.723-9.289-11.688-17.563-24.207-24.723-37.43h450.524zm0 0" fill="#429dea"/></g><g><path d="m399.965 467.703 53.475-106.186v-182.45c0-12.778-10.359-23.138-23.137-23.138-12.779 0-23.138 10.359-23.138 23.138v127.105l-205.153 179.081 53.48 26.74c.17 0 .338.006.508.006 53.383.001 102.943-16.346 143.965-44.296z" fill="#ff7472"/><path d="m400.388 289.962c-9.036-9.036-23.686-9.036-32.721 0l-98.145 98.145c-8.372 8.374-13.522 19.97-13.522 32.747l-23.138 34.128 23.138 34.128c38.336 0 69.413-31.077 69.413-69.413v-22.037l74.976-74.976c9.035-9.036 9.035-23.686-.001-32.722z" fill="#ffa688"/><path d="m104.834 306.171v-127.104c0-12.778-10.359-23.138-23.138-23.138-12.778 0-23.137 10.359-23.137 23.138v182.45l53.475 106.185c41.021 27.95 90.582 44.298 143.966 44.298v-22.89l-46.661-91.836z" fill="#ffa688"/><path d="m104.834 179.067c0-12.778-10.359-23.138-23.138-23.138-12.778 0-23.137 10.359-23.137 23.138v182.45l53.475 106.185c9.349 6.37 19.144 12.13 29.324 17.238v-146.929l-36.524-31.84z" fill="#ffbea8"/><path d="m242.477 388.107-98.145-98.145c-9.036-9.036-23.686-9.036-32.721 0-9.036 9.036-9.036 23.686 0 32.721l74.976 74.976v22.037c0 38.336 31.077 69.413 69.413 69.413v-68.256c0-12.776-5.151-24.372-13.523-32.746z" fill="#ffd89d"/><path d="m142.304 288.175c-9.082-7.189-22.304-6.602-30.693 1.788-9.036 9.036-9.036 23.686 0 32.721l30.693 30.693z" fill="#ffe5bd"/><path d="m256 117.366-48.975 97.949 48.975 97.949c54.096 0 97.949-43.853 97.949-97.949 0-54.095-43.854-97.949-97.949-97.949z" fill="#ffb03b"/><path d="m158.051 215.315c0 54.096 43.853 97.949 97.949 97.949v-195.898c-54.096 0-97.949 43.854-97.949 97.949z" fill="#ffc46c"/><path d="m256 152.073-31.621 63.243 31.621 63.242c34.928 0 63.243-28.315 63.243-63.243s-28.315-63.242-63.243-63.242z" fill="#ffd89d"/><path d="m192.757 215.315c0 34.928 28.315 63.243 63.243 63.243v-126.485c-34.928 0-63.243 28.314-63.243 63.242z" fill="#ffebce"/></g><g fill="#fff"><path d="m237.891 55.166h1.524c6.754 0 12.226 5.472 12.226 12.226v1.528h8.715v-1.528c0-6.754 5.477-12.226 12.227-12.226h1.527v-8.715h-1.527c-6.75 0-12.227-5.477-12.227-12.227v-1.523h-8.715v1.523c0 6.75-5.472 12.227-12.226 12.227h-1.524zm0-8.715"/><g><path d="m130.455 99.012h1.524c6.754 0 12.226 5.472 12.226 12.226v1.528h8.715v-1.528c0-6.754 5.477-12.226 12.227-12.226h1.527v-8.715h-1.527c-6.75 0-12.227-5.477-12.227-12.227v-1.523h-8.715v1.523c0 6.75-5.472 12.227-12.226 12.227h-1.524zm0-8.715"/><path d="m345.327 99.012h1.524c6.754 0 12.226 5.472 12.226 12.226v1.528h8.715v-1.528c0-6.754 5.477-12.226 12.227-12.226h1.527v-8.715h-1.527c-6.75 0-12.227-5.477-12.227-12.227v-1.523h-8.715v1.523c0 6.75-5.472 12.227-12.226 12.227h-1.524zm0-8.715"/></g></g></g></svg>