<svg id="Capa_1" enable-background="new 0 0 512 512" height="512" viewBox="0 0 512 512" width="512" xmlns="http://www.w3.org/2000/svg"><circle cx="256" cy="256" fill="#65b2fe" r="256"/><path d="m512 256c0 87.11-43.52 164.07-110 210.31-41.41 28.8-91.73 45.69-146 45.69s-104.59-16.89-146-45.69c-66.48-46.24-110-123.2-110-210.31 0-46.22 12.25-89.57 33.68-127 44.12 77.07 127.16 129 222.32 129s178.21-51.93 222.32-129c21.43 37.43 33.68 80.78 33.68 127z" fill="#0e9ce7"/><path d="m452 316c0 105.34-83.12 191.28-187.34 195.81-.31.02-.62.03-.93.04-.87.03-1.74.06-2.6.08-1.73.05-3.44.07-5.13.07-108.24 0-196-87.76-196-196s87.76-196 196-196h.28c108.11.15 195.72 87.85 195.72 196z" fill="#ffe853"/><path d="m452 316c0 105.34-83.12 191.28-187.34 195.81-.31.02-.62.03-.93.04-.87.03-1.74.06-2.6.08-1.73.05-3.44.07-5.13.07-58.54-45.3-103.35-116.25-103.35-196s44.81-150.7 103.35-196h.28c108.11.15 195.72 87.85 195.72 196z" fill="#fed110"/><path d="m452 316c0 108.244-87.756 196-196 196v-392c108.244 0 196 87.756 196 196z" fill="#ff9f01"/><path d="m330.66 403.94c-15.81 23.12-37.52 35.72-53.66 35.72h-42c-16.14 0-37.85-12.6-53.66-35.72z" fill="#dd1265"/><path d="m330.66 403.94c-15.81 23.12-37.52 35.72-53.66 35.72h-21v-35.72z" fill="#a00d5a"/><path d="m352.32 397.1c-8.55 7.12-19.33 11.02-30.45 11.02h-131.74c-5.56 0-11.03-.98-16.19-2.84-5.15-1.86-9.98-4.62-14.26-8.18h.69c13.3 0 26.29-3.73 37.69-10.57 11.96-7.18 24.28-10.95 34.57-10.95 6.88 0 13.26 2.14 18.51 5.78 1.46 1.01 3.16 1.52 4.86 1.52s3.4-.51 4.86-1.52c5.25-3.64 11.63-5.78 18.51-5.78 10.29 0 22.61 3.77 34.57 10.95 11.4 6.84 24.39 10.57 37.69 10.57z" fill="#fe3345"/><path d="m107.035 332.185 14.289-11.896c-.767-1.08-1.511-2.177-2.22-3.296-1.437-2.27 1.096-4.963 3.461-3.688 14.831 7.995 31.046 14.019 48.373 17.657 17.328 3.638 34.597 4.644 51.391 3.288 2.677-.216 3.913 3.268 1.685 4.768-16.161 10.88-36.534 15.468-57.108 11.149-9.696-2.035-18.541-5.883-26.29-11.086l-16.699 9.771c-2.33 1.363-4.826-1.496-3.161-3.621l10.584-13.506c-.471-.439-.934-.884-1.393-1.334l-20.662 6.025c-2.546.741-4.289-2.533-2.25-4.231z" fill="#29334c"/><path d="m404.965 332.185-14.289-11.896c.767-1.08 1.511-2.177 2.22-3.296 1.437-2.27-1.096-4.963-3.461-3.688-14.831 7.995-31.046 14.019-48.373 17.657-17.328 3.638-34.597 4.644-51.391 3.288-2.677-.216-3.913 3.268-1.685 4.768 16.161 10.88 36.534 15.468 57.108 11.149 9.696-2.035 18.541-5.883 26.29-11.086l16.699 9.771c2.33 1.363 4.826-1.496 3.161-3.621l-10.584-13.506c.471-.439.934-.884 1.393-1.334l20.662 6.025c2.547.741 4.289-2.533 2.25-4.231z" fill="#29334c"/><path d="m352.32 397.1c-8.55 7.12-19.33 11.02-30.45 11.02h-65.87v-25.24c1.7 0 3.4-.51 4.86-1.52 5.25-3.64 11.63-5.78 18.51-5.78 10.29 0 22.61 3.77 34.57 10.95 11.4 6.84 24.39 10.57 37.69 10.57z" fill="#dd1265"/><path d="m133.02 286.832c29.722-13.099 68.825-5.812 93.258 19.121.019.02.038.039.058.059 1.828 1.869 5.131.812 4.748-1.54-1.585-9.743-6.631-19.434-15.209-27.579-19.8-18.802-51.993-22.331-73.14-8.032-5.964 4.032-10.501 9.053-13.591 14.639-1.113 2.011 1.595 4.338 3.876 3.332z" fill="#ed771b"/><path d="m378.98 286.832c-29.722-13.099-68.825-5.812-93.258 19.121-.019.02-.038.039-.058.059-1.828 1.869-5.131.812-4.748-1.54 1.585-9.743 6.631-19.434 15.209-27.579 19.8-18.802 51.993-22.331 73.14-8.032 5.964 4.032 10.5 9.053 13.591 14.639 1.113 2.011-1.595 4.338-3.876 3.332z" fill="#c55835"/><path d="m341.331 202.846-66.121-2.571c-13.862-.539-22.495-15.266-16.194-27.625l25.077-49.183c6.301-12.359 23.291-14.022 31.87-3.119l40.917 52.004c.012.015.014.035.005.052l-15.509 30.417c-.009.015-.027.025-.045.025z" fill="#dd1265"/><path d="m361.02 212.885 40.917 52.004c8.578 10.902 25.568 9.24 31.87-3.119l25.077-49.183c6.301-12.359-2.332-27.086-16.194-27.625l-66.121-2.571c-.019-.001-.037.01-.045.026l-15.509 30.417c-.008.015-.006.036.005.051z" fill="#a00d5a"/><path d="m419.727 223.856c-.842 1.523-2.201 2.59-3.75 3.093-1.601.52-3.41.427-5.04-.404l-108.041-55.087c-3.334-1.7-4.892-5.931-3.098-9.216.836-1.531 2.203-2.609 3.753-3.12 1.616-.524 3.424-.431 5.055.4l108.05 55.091c3.351 1.708 4.891 5.95 3.071 9.243z" fill="#a00d5a"/><path d="m419.727 223.856c-.842 1.523-2.201 2.59-3.75 3.093-1.601.52-3.41.427-5.04-.404l-54.947-28.016c-.024-.012-.033-.042-.021-.065l5.964-11.697c.012-.024.042-.033.066-.021l54.656 27.868c3.352 1.707 4.892 5.949 3.072 9.242z" fill="#8c0954"/><path d="m391.946 189.781-15.912 31.207c-3.059 6-10.973 7.47-15.985 2.96l-9.667-8.703c-.661-.597-1.401-1.11-2.197-1.516-.795-.406-1.646-.703-2.517-.887l-12.722-2.713c-6.594-1.408-10.052-8.676-6.993-14.676l15.912-31.207c3.059-6 10.973-7.471 15.985-2.96l9.667 8.703c.661.597 1.401 1.11 2.197 1.516.795.406 1.646.703 2.517.887l12.721 2.713c6.595 1.408 10.053 8.676 6.994 14.676z" fill="#ff1d56"/><path d="m391.946 189.781-15.912 31.207c-3.059 6-10.973 7.47-15.985 2.96l-9.667-8.703c-.649-.587-1.375-1.092-2.155-1.494-.023-.012-.032-.04-.021-.063l21.486-42.141c.012-.023.04-.033.063-.021.783.395 1.619.685 2.475.866l12.721 2.713c6.596 1.408 10.054 8.676 6.995 14.676z" fill="#dd1265"/></svg>