<svg id="Capa_1" enable-background="new 0 0 512 512" height="512" viewBox="0 0 512 512" width="512" xmlns="http://www.w3.org/2000/svg"><path d="m511.961 251.498c1.312 75.807-30.372 144.315-81.691 192.026v-.01l-6.96 2.764c-106.427 42.269-224.832 43.107-331.846 2.347l-7.147-2.722c-51.465-46.551-83.935-113.747-84.314-188.606-.713-141.201 113.039-256.287 254.17-257.288 140.8-.998 255.351 110.707 257.788 251.489z" fill="#22d7ff"/><path d="m511.997 254.709c.377 74.519-31.134 141.769-81.727 188.806l-6.967 2.767c-106.422 42.268-224.822 43.107-331.833 2.352l-7.143-2.72-.01-.01c-51.455-46.552-83.935-113.748-84.314-188.607-.233-46.22 11.797-89.631 33.038-127.169 44.509 76.846 127.81 128.356 222.969 127.875s177.945-52.83 221.665-130.122c21.619 37.321 34.088 80.608 34.322 126.828z" fill="#00b3fe"/><path d="m293.219 116.11.434 52.857c.171 20.783-16.528 37.767-37.311 37.938s-37.758-16.537-37.928-37.32l-.434-52.857c-.171-20.773 16.528-37.758 37.311-37.928 10.392-.085 19.833 4.049 26.694 10.798 6.861 6.757 11.149 16.12 11.234 26.512z" fill="#ffc300"/><path d="m293.219 116.11.434 52.857c.171 20.783-16.528 37.767-37.311 37.938l-1.052-128.105c10.392-.085 19.833 4.049 26.694 10.798 6.862 6.757 11.15 16.12 11.235 26.512z" fill="#ff9f00"/><path d="m208.411 136.436.29 35.291c.213 25.973 20.983 47.53 46.956 47.739 26.523.214 47.966-21.329 47.749-47.75l-.296-36.058c-.038-4.569-3.772-8.243-8.341-8.205l-78.153.642c-4.569.037-8.242 3.772-8.205 8.341z" fill="#ff9f00"/><path d="m255.693 127.774.753 91.692c26.158-.215 47.176-21.592 46.961-47.75l-.296-36.058c-.038-4.569-3.772-8.243-8.341-8.205z" fill="#ec781b"/><path d="m408.732 434.913c.08 9.98-.81 19.734-2.583 29.173h-.01c-41.51 29.8-92.321 47.507-147.29 47.905l-.56.003c-27.92.141-54.812-4.193-80.013-12.326-24.31-7.847-47.048-19.242-67.581-33.569-1.877-9.29-2.895-18.885-2.975-28.715z" fill="#ffc300"/><path d="m408.732 434.913c.08 9.98-.81 19.734-2.583 29.173h-.01c-41.51 29.8-92.321 47.507-147.29 47.905l-.56.003c-27.92.141-54.812-4.193-80.013-12.326-3.01-9.795-5.192-20.174-6.287-30.989-1.032-10.255-1.625-20.882-1.711-31.802z" fill="#ff9f00"/><path d="m408.732 434.913c.08 9.98-.81 19.734-2.593 29.173-41.51 29.8-92.321 47.507-147.29 47.905l-.623-75.838z" fill="#ec781b"/><path d="m431.266 443.509c-7.923 7.38-16.308 14.253-25.116 20.577h-.01c-1.275.917-2.551 1.813-3.836 2.7l-287.132 2.361c-1.505-.992-3-2.015-4.475-3.047-8.891-6.205-17.366-12.952-25.382-20.202l-.056-7.11c-.108-13.51 5.6-25.729 14.777-34.255 15.647-14.529 23.972-35.302 23.794-56.651l-.492-59.798c-.602-73.538 58.285-133.696 131.711-134.747.28-.011.57-.013.86-.014l.47-.012c73.879-.344 133.686 60.155 134.299 134.033l.475 58.338c.178 21.359 8.833 41.996 24.725 56.256 4.651 4.187 8.457 9.317 11.116 15.084 2.659 5.757 4.162 12.179 4.216 18.929z" fill="#ffe400"/><path d="m431.266 443.509c-7.923 7.38-16.308 14.253-25.116 20.577h-.01c-1.275.917-2.551 1.813-3.836 2.7l-230.313 1.894-.245-30.599c-.118-13.509 2.69-25.704 7.247-34.197 7.767-14.459 11.852-35.2 11.674-56.55l-.492-59.798c-.6-73.238 28.358-132.975 64.872-134.2.28-.011.57-.013.86-.014l.47-.012c73.879-.344 133.686 60.155 134.299 134.033l.475 58.338c.178 21.359 8.833 41.996 24.725 56.256 4.651 4.187 8.457 9.317 11.116 15.084 2.659 5.757 4.162 12.179 4.216 18.929z" fill="#ffc300"/><path d="m431.266 443.509c-7.923 7.38-16.308 14.253-25.116 20.577h-.01c-1.275.917-2.551 1.813-3.836 2.7l-143.816 1.187-2.581-314.651.47-.012c73.879-.344 133.686 60.155 134.299 134.033l.475 58.338c.178 21.359 8.833 41.996 24.725 56.256 4.651 4.187 8.457 9.317 11.116 15.084 2.659 5.757 4.162 12.179 4.216 18.929z" fill="#ff9f00"/></svg>