<svg id="Capa_1" enable-background="new 0 0 512 512" height="512" viewBox="0 0 512 512" width="512" xmlns="http://www.w3.org/2000/svg"><g><g><path d="m256 301.799c-141.387 0-244.818-131.512-225.13-167.774 43.342-79.829 127.906-134.025 225.13-134.025 95.897 0 179.478 52.726 223.333 130.771 20.803 37.021-81.946 171.028-223.333 171.028z" fill="#e36565"/><path d="m512 256c0 26.051-3.891 51.191-11.129 74.871-5.031 16.469-11.672 32.231-19.75 47.109-8.25 15.2-147.391 29.736-225.121 29.736s-216.871-14.536-225.109-29.736c-3.289-6.031-6.332-12.21-9.121-18.531-14-31.629-21.77-66.629-21.77-103.449 0-46.219 12.25-89.57 33.68-127 44.121 77.07 127.16 129 222.32 129s178.211-51.93 222.32-129c21.43 37.43 33.68 80.781 33.68 127zm0 0" fill="#da3f3e"/><path d="m481.262 377.699c-6.648 12.278-14.257 23.949-22.747 34.912-.653.843-99.646 81.996-142.393 92.287-19.283 4.643-39.416 7.102-60.122 7.102-66.609 0-127.281-25.449-172.82-67.148-10-9.153-19.282-19.09-27.719-29.723-9.289-11.688-17.563-24.207-24.723-37.43zm0 0" fill="#a52020"/></g><g><path d="m387.319 297.617c-26.177 0-47.465 21.287-47.465 47.465v35.599h23.732v-35.599c0-13.083 10.649-23.732 23.732-23.732s23.732 10.65 23.732 23.732v35.599h23.732v-35.599c.002-26.177-21.285-47.465-47.463-47.465z" fill="#dce0ef"/><path d="m411.052 345.082v35.599h23.732v-35.599c0-26.177-21.287-47.465-47.465-47.465v23.732c13.083.001 23.733 10.65 23.733 23.733z" fill="#cad0e7"/><path d="m458.517 412.595v-43.78h-71.197-71.197v136.067c57.444-13.828 107.337-47.017 142.394-92.287z" fill="#f3d37a"/><path d="m458.517 412.595v-43.78h-54.027-54.027v125.187c42.955-17.064 80.189-45.423 108.054-81.407z" fill="#efc142"/><path d="m387.319 475.782c27.504-16.469 51.655-37.951 71.197-63.188v-43.78h-71.197z" fill="#e38d22"/><path d="m387.319 416.279h-11.866v47.465h11.866 11.867v-47.465z" fill="#535564"/><path d="m387.319 416.279h11.866v47.465h-11.866z" fill="#535564"/><path d="m172.937 297.617h-119.454v71.197c0 32.609 62.301 47.465 119.453 47.465s119.453-14.856 119.453-47.465v-71.197z" fill="#dce0ef"/><path d="m292.39 368.814v-71.197h-119.453v118.662c57.152 0 119.453-14.856 119.453-47.465z" fill="#cad0e7"/><path d="m172.937 226.42h-119.454v71.197c0 32.609 62.301 47.465 119.453 47.465s119.453-14.856 119.453-47.465v-71.197z" fill="#fbf5eb"/><path d="m292.39 297.617v-71.197h-119.453v118.662c57.152 0 119.453-14.856 119.453-47.465z" fill="#dce0ef"/><path d="m172.937 154.432h-119.454v71.988c0 32.609 62.301 47.465 119.453 47.465s119.453-14.856 119.453-47.465v-71.988z" fill="#dce0ef"/><path d="m292.39 226.42v-71.988h-119.453v119.453c57.152 0 119.453-14.856 119.453-47.465z" fill="#cad0e7"/><ellipse cx="172.937" cy="154.432" fill="#fbf5eb" rx="119.453" ry="47.465"/><path d="m292.39 154.432c0-32.609-62.301-47.465-119.453-47.465v94.93c57.152-.001 119.453-14.856 119.453-47.465z" fill="#dce0ef"/></g><g fill="#fff"><path d="m280.874 60.259h-1.524c-6.754 0-12.226-5.477-12.226-12.227v-1.523h-8.715v1.523c0 6.75-5.477 12.227-12.227 12.227h-1.527v8.715h1.527c6.75 0 12.227 5.472 12.227 12.226v1.528h8.715v-1.528c0-6.754 5.472-12.226 12.226-12.226h1.524zm0 0"/><path d="m402.459 126.413h-1.524c-6.754 0-12.226-5.477-12.226-12.227v-1.523h-8.715v1.523c0 6.75-5.477 12.227-12.227 12.227h-1.527v8.715h1.527c6.75 0 12.227 5.472 12.227 12.226v1.528h8.715v-1.528c0-6.754 5.472-12.226 12.226-12.226h1.524zm0 0"/><path d="m440.638 239.663h-1.524c-6.754 0-12.226-5.477-12.226-12.227v-1.523h-8.715v1.523c0 6.75-5.477 12.227-12.227 12.227h-1.527v8.715h1.527c6.75 0 12.227 5.472 12.227 12.226v1.528h8.715v-1.528c0-6.754 5.472-12.226 12.226-12.226h1.524zm0 0"/></g></g></svg>