<svg id="Layer_1" enable-background="new 0 0 512.008 512.008" height="512" viewBox="0 0 512.008 512.008" width="512" xmlns="http://www.w3.org/2000/svg"><g><g><path d="m512.008 256.007c0 49.204-13.882 95.166-37.942 134.183-45.076 73.096-124.877 110.618-217.058 110.618-141.385 0-238.837-103.416-238.837-244.801 0-86.834 25.069-163.57 91.185-209.858 41.536-29.079 92.101-46.142 146.652-46.142 141.385 0 256 114.615 256 256z" fill="#ff5551"/></g><path d="m460.965 376.217c-.156.085-.312.169-.467.254-6.587 3.574-14.605-1.232-14.605-8.727v-251.949c0-7.94-6.436-14.376-14.376-14.376s-14.376-6.437-14.376-14.376v-1.268c0-7.94-6.436-14.376-14.376-14.376h-32.216v-18.847c0-4.402-3.393-8.24-7.793-8.372-4.553-.136-8.285 3.513-8.285 8.035v19.184h-30.012v-18.847c0-4.402-3.393-8.24-7.793-8.372-4.553-.136-8.285 3.513-8.285 8.035v19.184h-150.061v-18.847c0-4.402-3.393-8.24-7.793-8.372-4.553-.136-8.285 3.513-8.285 8.035v19.184h-5.488-24.525v-18.847c0-2.507-1.103-4.829-2.864-6.39-4.514 3.16-8.92 6.464-13.214 9.901v.004c-6.053 4.846-11.876 9.966-17.461 15.332h-.026c-60.21 57.855-87.314 139.756-76.24 219.784.029.212.059.425.089.637 17.703 125.554 127.475 222.78 258.762 220.128 87.081-1.755 166.929-47.402 212.783-121.763 5.334-8.651-4.171-18.834-13.093-13.968zm-356.775-255.266c-7.471 0-13.527-6.056-13.527-13.526 0-4.456 2.164-8.396 5.488-10.86v6.98c0 4.44 3.599 8.039 8.039 8.039s8.039-3.599 8.039-8.039v-6.98c3.324 2.464 5.488 6.405 5.488 10.86 0 7.47-6.056 13.526-13.527 13.526zm46.091 0c-2.531 0-4.891-.708-6.916-1.917-3.714-3.194-6.167-7.799-6.541-12.987.393-3.887 2.441-7.276 5.418-9.483v6.98c0 4.44 3.599 8.039 8.039 8.039s8.039-3.599 8.039-8.039v-6.98c3.324 2.464 5.488 6.405 5.488 10.86-.001 7.471-6.057 13.527-13.527 13.527zm166.138 0c-7.471 0-13.527-6.056-13.527-13.526 0-4.456 2.164-8.396 5.488-10.86v6.98c0 4.44 3.599 8.039 8.039 8.039s8.039-3.599 8.039-8.039v-6.98c3.324 2.464 5.488 6.405 5.488 10.86 0 7.47-6.056 13.526-13.527 13.526zm46.09 0c-7.471 0-13.527-6.056-13.527-13.526 0-4.456 2.164-8.396 5.488-10.86v6.98c0 4.44 3.599 8.039 8.039 8.039s8.039-3.599 8.039-8.039v-6.98c3.324 2.464 5.488 6.405 5.488 10.86 0 7.47-6.056 13.526-13.527 13.526z" fill="#e20a62"/><g><path d="m392.141 90.249c-1.019 16.198-16.37 29.471-32.362 29.471h-219.086v284.054h284.616v-313.525z" fill="#ffc305"/><path d="m59.75 119.72h83.963v284.054h-83.963z" fill="#ff8500"/><g><path d="m124.477 326.921h270.619c.491 0 .977.016 1.461.037v-198.187h-281.022v199.489c2.9-.864 5.908-1.339 8.942-1.339z" fill="#fff"/><path d="m396.556 115.457v-55.228h-284.421v55.228zm-54.631-32.729c7.47 0 13.527 6.056 13.527 13.527 0 7.47-6.056 13.527-13.527 13.527s-13.527-6.056-13.527-13.527 6.057-13.527 13.527-13.527zm-46.09 0c7.47 0 13.527 6.056 13.527 13.527 0 7.47-6.056 13.527-13.527 13.527s-13.527-6.056-13.527-13.527 6.057-13.527 13.527-13.527zm-166.139 0c7.47 0 13.527 6.056 13.527 13.527 0 7.47-6.056 13.527-13.527 13.527s-13.527-6.056-13.527-13.527c.001-7.471 6.057-13.527 13.527-13.527z" fill="#ffc305"/><g><path d="m116.17 93.5v-33.271h-85.172v68.542h365.558v-16.319h-261.434c-10.467 0-18.952-8.485-18.952-18.952zm-32.564 16.281c-7.47 0-13.527-6.056-13.527-13.527s6.056-13.527 13.527-13.527 13.527 6.056 13.527 13.527-6.056 13.527-13.527 13.527z" fill="#ff8500"/></g><g fill="#faf58c"><path d="m385.614 322.908c-5.028 0-9.104-4.076-9.104-9.104v-9.144c0-5.112-4.144-9.256-9.256-9.256h-36.496c-5.112 0-9.256 4.144-9.256 9.256v18.248h-18.864c-5.028 0-9.104-4.076-9.104-9.104v-9.144c0-5.112-4.144-9.256-9.256-9.256h-36.496c-5.112 0-9.256 4.144-9.256 9.256v18.248h-18.864c-5.028 0-9.104-4.076-9.104-9.104v-9.144c0-5.112-4.144-9.256-9.256-9.256h-36.496c-5.112 0-9.256 4.144-9.256 9.256v18.248h-19.336c-4.767 0-8.632-3.865-8.632-8.632v-9.616c0-3.194-1.619-6.008-4.08-7.67-2.799-1.89-4.364-5.145-4.364-8.523v-1.694c0-3.378 1.565-6.633 4.364-8.523 2.461-1.662 4.08-4.476 4.08-7.67v-36.496c0-3.063-1.488-5.776-3.781-7.459-2.908-2.135-4.663-5.492-4.663-9.099v-.978c0-3.662 1.867-6.981 4.785-9.193 1.361-1.032 2.426-2.432 3.045-4.058.39-1.024.613-2.131.613-3.292v-36.496c0-3.465-1.904-6.482-4.723-8.067-2.352-1.322-3.721-3.896-3.721-6.594v-20.32h-9.168v.24h-78.971v244.983h365.558v-50.845h-10.942z"/><path d="m155.55 200.008c0 5.112 4.144 9.256 9.256 9.256h36.496c5.112 0 9.256-4.144 9.256-9.256v-36.496c0-5.112-4.144-9.256-9.256-9.256h-36.496c-5.112 0-9.256 4.144-9.256 9.256z"/><path d="m247.782 209.264h36.496c5.112 0 9.256-4.144 9.256-9.256v-36.496c0-5.112-4.144-9.256-9.256-9.256h-36.496c-5.112 0-9.256 4.144-9.256 9.256v36.496c0 5.112 4.144 9.256 9.256 9.256z"/><path d="m330.758 209.264h36.496c5.112 0 9.256-4.144 9.256-9.256v-36.496c0-5.112-4.144-9.256-9.256-9.256h-36.496c-5.112 0-9.256 4.144-9.256 9.256v36.496c0 5.112 4.144 9.256 9.256 9.256z"/><path d="m164.806 279.838h36.496c5.112 0 9.256-4.144 9.256-9.256v-36.496c0-5.112-4.144-9.256-9.256-9.256h-36.496c-5.112 0-9.256 4.144-9.256 9.256v36.496c0 5.112 4.144 9.256 9.256 9.256z"/><path d="m247.782 279.838h36.496c5.112 0 9.256-4.144 9.256-9.256v-36.496c0-5.112-4.144-9.256-9.256-9.256h-36.496c-5.112 0-9.256 4.144-9.256 9.256v36.496c0 5.112 4.144 9.256 9.256 9.256z"/><path d="m330.758 279.838h36.496c5.112 0 9.256-4.144 9.256-9.256v-36.496c0-5.112-4.144-9.256-9.256-9.256h-36.496c-5.112 0-9.256 4.144-9.256 9.256v36.496c0 5.112 4.144 9.256 9.256 9.256z"/></g><g><g fill="#6ee1ff"><path d="m115.791 268.445v-34.359c0-5.112-4.144-9.256-9.256-9.256h-30.437v43.616h39.693z"/><path d="m198.767 268.445v-34.359c0-5.112-4.144-9.256-9.256-9.256h-32.5v43.616h41.756z"/><path d="m281.743 268.445v-34.359c0-5.112-4.144-9.256-9.256-9.256h-31.842v43.616h41.098z"/></g><path d="m364.719 268.445v-34.359c0-5.112-4.144-9.256-9.256-9.256h-31.185v43.616h40.441z" fill="#ff5551"/></g><g><g fill="#6ee1ff"><path d="m115.791 339.84v-35.18c0-5.112-4.144-9.256-9.256-9.256h-30.437v44.436z"/><path d="m198.767 339.84v-35.18c0-5.112-4.144-9.256-9.256-9.256h-32.5v44.436z"/><path d="m281.743 339.84v-35.18c0-5.112-4.144-9.256-9.256-9.256h-31.842v44.436z"/></g><path d="m364.719 339.84v-35.18c0-5.112-4.144-9.256-9.256-9.256h-31.185v44.436z" fill="#ff5551"/></g><g><path d="m115.791 196.371v-32.859c0-5.112-4.144-9.256-9.256-9.256h-30.437v42.115z" fill="#6ee1ff"/><path d="m86.358 194.809c-5.112 0-9.256-4.144-9.256-9.256v-31.298h-7.062c-5.112 0-9.256 4.144-9.256 9.256v36.496c0 5.112 4.144 9.256 9.256 9.256h36.496c5.112 0 9.256-4.144 9.256-9.256v-5.198z" fill="#2896ff"/><path d="m198.767 196.371v-32.859c0-5.112-4.144-9.256-9.256-9.256h-32.5v42.115z" fill="#6ee1ff"/><path d="m281.743 196.371v-32.859c0-5.112-4.144-9.256-9.256-9.256h-31.842v42.115z" fill="#6ee1ff"/><path d="m364.719 196.371v-32.859c0-5.112-4.144-9.256-9.256-9.256h-31.185v42.115z" fill="#ff5551"/><path d="m169.334 194.809c-5.112 0-9.256-4.144-9.256-9.256v-31.298h-7.063c-5.112 0-9.256 4.144-9.256 9.256v36.496c0 5.112 4.144 9.256 9.256 9.256h36.496c5.112 0 9.256-4.144 9.256-9.256v-5.198z" fill="#2896ff"/><path d="m252.31 194.809c-5.112 0-9.256-4.144-9.256-9.256v-31.298h-7.062c-5.112 0-9.256 4.144-9.256 9.256v36.496c0 5.112 4.144 9.256 9.256 9.256h36.496c5.112 0 9.256-4.144 9.256-9.256v-5.198z" fill="#2896ff"/><path d="m335.286 194.809c-5.112 0-9.256-4.144-9.256-9.256v-31.298h-7.063c-5.112 0-9.256 4.144-9.256 9.256v36.496c0 5.112 4.144 9.256 9.256 9.256h36.496c5.112 0 9.256-4.144 9.256-9.256v-5.198z" fill="#e20a62"/><g fill="#2896ff"><path d="m86.312 265.264c-5.112 0-9.256-4.144-9.256-9.256v-31.298h-7.062c-5.112 0-9.256 4.144-9.256 9.256v36.496c0 5.112 4.144 9.256 9.256 9.256h36.496c5.112 0 9.256-4.144 9.256-9.256v-5.198z"/><path d="m169.288 265.264c-5.112 0-9.256-4.144-9.256-9.256v-31.298h-7.062c-5.112 0-9.256 4.144-9.256 9.256v36.496c0 5.112 4.144 9.256 9.256 9.256h36.496c5.112 0 9.256-4.144 9.256-9.256v-5.198z"/><path d="m252.264 265.264c-5.112 0-9.256-4.144-9.256-9.256v-31.298h-7.063c-5.112 0-9.256 4.144-9.256 9.256v36.496c0 5.112 4.144 9.256 9.256 9.256h36.496c5.112 0 9.256-4.144 9.256-9.256v-5.198z"/></g><path d="m335.24 265.264c-5.112 0-9.256-4.144-9.256-9.256v-31.298h-7.062c-5.112 0-9.256 4.144-9.256 9.256v36.496c0 5.112 4.144 9.256 9.256 9.256h36.496c5.112 0 9.256-4.144 9.256-9.256v-5.198z" fill="#e20a62"/><path d="m86.312 335.958c-5.112 0-9.256-4.144-9.256-9.256v-31.298h-7.062c-5.112 0-9.256 4.144-9.256 9.256v36.496c0 5.112 4.144 9.256 9.256 9.256h36.496c5.112 0 9.256-4.144 9.256-9.256v-5.198z" fill="#2896ff"/><path d="m169.288 335.958c-5.112 0-9.256-4.144-9.256-9.256v-31.298h-7.062c-5.112 0-9.256 4.144-9.256 9.256v36.496c0 5.112 4.144 9.256 9.256 9.256h36.496c5.112 0 9.256-4.144 9.256-9.256v-5.198z" fill="#2896ff"/><path d="m252.264 335.958c-5.112 0-9.256-4.144-9.256-9.256v-31.298h-7.063c-5.112 0-9.256 4.144-9.256 9.256v36.496c0 5.112 4.144 9.256 9.256 9.256h36.496c5.112 0 9.256-4.144 9.256-9.256v-5.198z" fill="#2896ff"/><path d="m335.24 335.958c-5.112 0-9.256-4.144-9.256-9.256v-31.298h-7.062c-5.112 0-9.256 4.144-9.256 9.256v36.496c0 5.112 4.144 9.256 9.256 9.256h36.496c5.112 0 9.256-4.144 9.256-9.256v-5.198z" fill="#e20a62"/></g><g><g><path d="m287.796 55.417v36.958c0 4.44 3.599 8.039 8.039 8.039s8.039-3.599 8.039-8.039v-36.958z" fill="#2896ff"/></g><g><path d="m333.886 55.417v36.958c0 4.44 3.599 8.039 8.039 8.039s8.039-3.599 8.039-8.039v-36.958z" fill="#2896ff"/></g><g><path d="m75.567 55.417v36.958c0 4.44 3.599 8.039 8.039 8.039s8.039-3.599 8.039-8.039v-36.958z" fill="#2896ff"/></g><g><path d="m121.657 55.417v36.958c0 4.44 3.599 8.039 8.039 8.039s8.039-3.599 8.039-8.039v-36.958z" fill="#2896ff"/></g></g><g><g><path d="m303.874 58.122v-16.741c0-4.402-3.393-8.24-7.793-8.372-4.553-.136-8.285 3.513-8.285 8.035v17.077c0 4.44 3.599 8.039 8.039 8.039 4.44.001 8.039-3.598 8.039-8.038z" fill="#6ee1ff"/></g><g><path d="m349.964 58.122v-16.741c0-4.402-3.393-8.24-7.793-8.372-4.553-.136-8.285 3.513-8.285 8.035v17.077c0 4.44 3.599 8.039 8.039 8.039 4.44.001 8.039-3.598 8.039-8.038z" fill="#6ee1ff"/></g><g><path d="m91.645 58.122v-16.741c0-4.402-3.393-8.24-7.793-8.372-4.553-.136-8.285 3.513-8.285 8.035v17.077c0 4.44 3.599 8.039 8.039 8.039 4.44.001 8.039-3.598 8.039-8.038z" fill="#6ee1ff"/></g><g><path d="m137.735 58.122v-16.741c0-4.402-3.393-8.24-7.793-8.372-4.553-.136-8.285 3.513-8.285 8.035v17.077c0 4.44 3.599 8.039 8.039 8.039 4.44.001 8.039-3.598 8.039-8.038z" fill="#6ee1ff"/></g></g></g></g></g></svg>