<svg id="Capa_1" enable-background="new 0 0 512 512" height="512" viewBox="0 0 512 512" width="512" xmlns="http://www.w3.org/2000/svg"><path d="m512 256c0 67.68-26.27 129.23-69.16 175.01h-.01l-171.06 80.51c-5.21.32-10.47.48-15.77.48-15.54 0-30.75-1.38-45.53-4.04l-141.31-76.96c-42.89-45.78-69.16-107.32-69.16-175 0-141.38 114.62-256 256-256s256 114.62 256 256z" fill="#22d7ff"/><path d="m512 256c0 67.69-26.28 129.24-69.18 175.02l-171.05 80.5c-5.22.32-10.47.48-15.77.48-15.54 0-30.76-1.38-45.53-4.04l-141.3-76.96h-.01c-42.89-45.77-69.16-107.32-69.16-175 0-46.22 12.25-89.57 33.68-127 44.12 77.07 127.16 129 222.32 129s178.21-51.93 222.32-129c21.43 37.43 33.68 80.78 33.68 127z" fill="#24c6ff"/><path d="m240.229 135.747v137.268c-13.196 13.204-20.599 20.599-33.803 33.803h-137.268v-171.071z" fill="#ffe400"/><path d="m240.229 135.747v137.268c-13.196 13.204-20.599 20.599-33.803 33.803h-51.728v-171.071z" fill="#ffc300"/><path d="m206.429 306.817v-33.801h33.801z" fill="#ff9f00"/><path d="m139.46 123.437h30.468v35.1h-30.468z" fill="#fff"/><path d="m191.853 192.198c.233 3.315-1.018 6.344-3.162 8.489-1.966 1.966-4.689 3.19-7.701 3.19h-74.817c-6.015 0-10.892-4.876-10.892-10.892 0-6.015 4.876-10.892 10.892-10.892h74.483c5.77 0 10.793 4.348 11.197 10.105z" fill="#374c81"/><path d="m191.881 229.523c-.02 2.983-1.233 5.676-3.19 7.626-1.966 1.974-4.689 3.19-7.701 3.19h-74.817c-6.015 0-10.892-4.876-10.892-10.892 0-6.015 4.876-10.892 10.892-10.892h74.441c6.033 0 11.308 4.934 11.267 10.968z" fill="#374c81"/><path d="m191.881 229.447c0 3.013-1.216 5.736-3.19 7.702-1.966 1.974-4.689 3.19-7.701 3.19h-26.295v-21.784h26.295c6.017 0 10.891 4.874 10.891 10.892z" fill="#234177"/><path d="m180.989 203.877h-26.295v-21.784h26.295c6.018 0 10.892 4.874 10.892 10.892 0 3.005-1.216 5.728-3.19 7.702-1.966 1.965-4.689 3.19-7.702 3.19z" fill="#234177"/><path d="m154.694 123.437h15.234v35.1h-15.234z" fill="#d1f6ff"/><path d="m442.841 135.747v137.268c-13.196 13.204-20.599 20.599-33.803 33.803h-137.268v-171.071z" fill="#ffe400"/><path d="m442.841 135.747v137.268c-13.196 13.204-20.599 20.599-33.803 33.803h-51.728v-171.071z" fill="#ffc300"/><path d="m409.041 306.817v-33.801h33.801z" fill="#ff9f00"/><path d="m342.072 123.437h30.468v35.1h-30.468z" fill="#fff"/><path d="m394.465 192.198c.233 3.315-1.018 6.344-3.162 8.489-1.966 1.966-4.689 3.19-7.701 3.19h-74.817c-6.015 0-10.892-4.876-10.892-10.892 0-6.015 4.876-10.892 10.892-10.892h74.483c5.77 0 10.793 4.348 11.197 10.105z" fill="#374c81"/><path d="m394.493 229.523c-.02 2.983-1.233 5.676-3.19 7.626-1.966 1.974-4.689 3.19-7.701 3.19h-74.817c-6.015 0-10.892-4.876-10.892-10.892 0-6.015 4.876-10.892 10.892-10.892h74.441c6.033 0 11.308 4.934 11.267 10.968z" fill="#374c81"/><path d="m394.493 229.447c0 3.013-1.216 5.736-3.19 7.702-1.966 1.974-4.689 3.19-7.701 3.19h-26.295v-21.784h26.295c6.017 0 10.891 4.874 10.891 10.892z" fill="#234177"/><path d="m383.601 203.877h-26.295v-21.784h26.295c6.018 0 10.892 4.874 10.892 10.892 0 3.005-1.216 5.728-3.19 7.702-1.966 1.965-4.689 3.19-7.702 3.19z" fill="#234177"/><path d="m357.306 123.437h15.234v35.1h-15.234z" fill="#d1f6ff"/><path d="m240.23 340.93v137.27c-11.79 11.79-18.95 18.95-29.76 29.76-1.35-.24-2.7-.49-4.04-.76-53.66-10.53-101.31-37.82-137.27-76.2v-90.07z" fill="#ffe400"/><path d="m240.23 340.93v137.27c-11.79 11.79-18.95 18.95-29.76 29.76-19.44-3.49-38.12-9.17-55.77-16.79v-150.24z" fill="#ffc300"/><path d="m240.23 478.2-29.76 29.76c-1.35-.24-2.7-.49-4.04-.76v-29z" fill="#ff9f00"/><path d="m139.46 328.619h30.468v35.1h-30.468z" fill="#fff"/><path d="m191.853 397.38c.233 3.315-1.018 6.344-3.162 8.489-1.966 1.966-4.689 3.19-7.701 3.19h-74.817c-6.015 0-10.892-4.876-10.892-10.892 0-6.015 4.876-10.892 10.892-10.892h74.483c5.77.001 10.793 4.349 11.197 10.105z" fill="#374c81"/><path d="m191.881 434.705c-.02 2.983-1.233 5.676-3.19 7.626-1.966 1.974-4.689 3.19-7.701 3.19h-74.817c-6.015 0-10.892-4.876-10.892-10.892 0-6.015 4.876-10.892 10.892-10.892h74.441c6.033 0 11.308 4.934 11.267 10.968z" fill="#374c81"/><path d="m191.881 434.629c0 3.013-1.216 5.736-3.19 7.702-1.966 1.974-4.689 3.19-7.701 3.19h-26.295v-21.784h26.295c6.017 0 10.891 4.874 10.891 10.892z" fill="#234177"/><path d="m180.989 409.059h-26.295v-21.784h26.295c6.018 0 10.892 4.874 10.892 10.892 0 3.005-1.216 5.728-3.19 7.702-1.966 1.966-4.689 3.19-7.702 3.19z" fill="#234177"/><path d="m154.694 328.619h15.234v35.1h-15.234z" fill="#d1f6ff"/><path d="m442.84 340.93v90.08c-23.91 25.5-52.97 46.11-85.53 60.15-26.5 11.44-55.31 18.52-85.54 20.36v-170.59z" fill="#ffe400"/><path d="m442.84 340.93v90.08c-23.91 25.5-52.97 46.11-85.53 60.15v-150.23z" fill="#ffc300"/><path d="m342.072 328.619h30.468v35.1h-30.468z" fill="#fff"/><path d="m394.465 397.38c.233 3.315-1.018 6.344-3.162 8.489-1.966 1.966-4.689 3.19-7.701 3.19h-74.817c-6.015 0-10.892-4.876-10.892-10.892 0-6.015 4.876-10.892 10.892-10.892h74.483c5.77.001 10.793 4.349 11.197 10.105z" fill="#374c81"/><path d="m394.493 434.705c-.02 2.983-1.233 5.676-3.19 7.626-1.966 1.974-4.689 3.19-7.701 3.19h-74.817c-6.015 0-10.892-4.876-10.892-10.892 0-6.015 4.876-10.892 10.892-10.892h74.441c6.033 0 11.308 4.934 11.267 10.968z" fill="#374c81"/><path d="m394.493 434.629c0 3.013-1.216 5.736-3.19 7.702-1.966 1.974-4.689 3.19-7.701 3.19h-26.295v-21.784h26.295c6.017 0 10.891 4.874 10.891 10.892z" fill="#234177"/><path d="m383.601 409.059h-26.295v-21.784h26.295c6.018 0 10.892 4.874 10.892 10.892 0 3.005-1.216 5.728-3.19 7.702-1.966 1.966-4.689 3.19-7.702 3.19z" fill="#234177"/><path d="m357.306 328.619h15.234v35.1h-15.234z" fill="#d1f6ff"/></svg>