<svg id="Capa_1" enable-background="new 0 0 512 512" height="512" viewBox="0 0 512 512" width="512" xmlns="http://www.w3.org/2000/svg"><g><g><path d="m256 322.232c-141.387 0-244.096-154.584-223.227-191.648 43.883-77.942 127.407-130.584 223.227-130.584s179.343 52.641 223.227 130.583c20.868 37.064-81.84 191.649-223.227 191.649z" fill="#f3d37a"/><path d="m512 256c0 26.051-3.891 51.191-11.129 74.871-5.031 16.469-11.672 32.231-19.75 47.109-8.25 15.2-147.391 46.662-225.121 46.662s-216.871-31.462-225.109-46.662c-3.289-6.031-6.332-12.21-9.121-18.531-14-31.629-21.77-66.629-21.77-103.449 0-46.219 12.25-89.57 33.68-127 44.121 77.07 127.16 129 222.32 129s178.211-51.93 222.32-129c21.43 37.43 33.68 80.781 33.68 127zm0 0" fill="#efc142"/><path d="m481.262 377.699c-7.16 13.223-15.434 25.742-24.723 37.43-8.437 10.633-17.719 20.57-27.719 29.723-45.539 41.699-106.211 67.148-172.82 67.148-27.827 0-54.618-4.442-79.703-12.654-34.959-11.446-101.653-62.578-105.709-66.834-5.298-5.56-10.348-11.36-15.127-17.383-9.289-11.688-17.563-24.207-24.723-37.43zm0 0" fill="#e38d22"/></g><g><path d="m364.642 250.815h-76.049v43.457c0 22.513 38.194 32.593 76.049 32.593s76.774-10.079 76.774-32.593v-43.457z" fill="#dce0ef"/><path d="m441.416 294.272v-43.457h-76.774v76.049c37.855 0 76.774-10.079 76.774-32.592z" fill="#cad0e7"/><path d="m364.642 207.358h-76.049v43.457c0 22.514 38.194 32.593 76.049 32.593s76.774-10.079 76.774-32.593v-43.457z" fill="#fbf5eb"/><path d="m441.416 250.815v-43.457h-76.774v76.049c37.855 0 76.774-10.079 76.774-32.592z" fill="#dce0ef"/><path d="m364.642 163.177h-76.049v44.181c0 22.514 38.194 32.593 76.049 32.593s76.774-10.079 76.774-32.593v-44.181z" fill="#dce0ef"/><path d="m441.416 207.358v-44.181h-76.774v76.774c37.855 0 76.774-10.079 76.774-32.593z" fill="#cad0e7"/><path d="m364.642 130.584c-37.855 0-76.049 10.079-76.049 32.593s38.194 32.593 76.049 32.593 76.774-10.079 76.774-32.593-38.919-32.593-76.774-32.593z" fill="#fbf5eb"/><path d="m441.416 163.177c0-22.514-38.919-32.593-76.774-32.593v65.185c37.855.001 76.774-10.078 76.774-32.592z" fill="#dce0ef"/><path d="m70.585 424.642v7.871c28.837 30.282 65.023 53.493 105.69 66.81 26.214-3.997 47.133-13.841 47.133-30.5v-44.181h-76.05z" fill="#dce0ef"/><path d="m147.358 487.851c9.345 4.386 18.996 8.223 28.917 11.472 26.214-3.997 47.133-13.841 47.133-30.5v-44.181h-76.05z" fill="#cad0e7"/><path d="m147.358 381.185h-76.774v43.457c0 22.513 38.919 32.593 76.774 32.593s76.049-10.079 76.049-32.593v-43.457z" fill="#fbf5eb"/><path d="m223.407 424.642v-43.457h-76.049v76.049c37.855.001 76.049-10.079 76.049-32.592z" fill="#dce0ef"/><path d="m147.358 337.728h-76.774v43.457c0 22.513 38.919 32.593 76.774 32.593s76.049-10.079 76.049-32.593v-43.457z" fill="#dce0ef"/><path d="m223.407 381.185v-43.457h-76.049v76.049c37.855.001 76.049-10.078 76.049-32.592z" fill="#cad0e7"/><path d="m147.358 305.136c-37.855 0-76.774 10.079-76.774 32.593s38.919 32.593 76.774 32.593 76.049-10.079 76.049-32.593-38.194-32.593-76.049-32.593z" fill="#fbf5eb"/><path d="m223.407 337.728c0-22.513-38.194-32.593-76.049-32.593v65.185c37.855.001 76.049-10.078 76.049-32.592z" fill="#dce0ef"/><path d="m364.642 348.593h-10.864v65.185h-71.551l10.864-10.864-15.363-15.363-37.091 37.091 37.091 37.091 15.363-15.363-10.864-10.864h82.415 10.864v-86.913z" fill="#8ab8ec"/><path d="m364.642 348.593h10.864v86.914h-10.864z" fill="#728ee4"/><path d="m234.272 170.267-15.363 15.363 10.864 10.864h-82.415-10.864v86.913h10.864 10.864v-65.185h71.551l-10.864 10.864 15.363 15.363 37.091-37.091z" fill="#8ab8ec"/><path d="m158.222 218.222h71.551l-10.864 10.864 15.363 15.363 37.091-37.091-37.091-37.091-15.363 15.363 10.864 10.864h-82.415v86.913h10.864z" fill="#728ee4"/></g><g fill="#fff"><path d="m304.734 60.609h-1.524c-6.754 0-12.226-5.477-12.226-12.227v-1.523h-8.715v1.523c0 6.75-5.477 12.227-12.227 12.227h-1.527v8.715h1.527c6.75 0 12.227 5.472 12.227 12.226v1.528h8.715v-1.528c0-6.754 5.472-12.226 12.226-12.226h1.524zm0 0"/><path d="m185.383 117.819h-1.524c-6.754 0-12.226-5.477-12.226-12.227v-1.523h-8.715v1.523c0 6.75-5.477 12.227-12.227 12.227h-1.527v8.715h1.527c6.75 0 12.227 5.472 12.227 12.226v1.528h8.715v-1.528c0-6.754 5.472-12.226 12.226-12.226h1.524zm0 0"/></g></g></svg>