<svg id="Capa_1" enable-background="new 0 0 512 512" height="512" viewBox="0 0 512 512" width="512" xmlns="http://www.w3.org/2000/svg"><g><g><path d="m256 297.691c-141.387 0-244.098-130.036-223.232-167.098 43.882-77.947 127.408-130.593 223.232-130.593 95.814 0 179.333 52.635 223.219 130.568 20.873 37.068-81.832 167.123-223.219 167.123z" fill="#576ceb"/><path d="m512 256c0 26.051-3.891 51.191-11.129 74.871-5.031 16.469-11.672 32.231-19.75 47.109-8.25 15.2-147.391 42.189-225.121 42.189s-216.871-26.989-225.109-42.189c-3.289-6.031-6.332-12.21-9.121-18.531-14-31.629-21.77-66.629-21.77-103.449 0-46.219 12.25-89.57 33.68-127 44.121 77.07 127.16 129 222.32 129s178.211-51.93 222.32-129c21.43 37.43 33.68 80.781 33.68 127zm0 0" fill="#6c3beb"/><path d="m481.262 377.699c-7.16 13.223-15.434 25.742-24.723 37.43-8.437 10.633-17.719 20.57-27.719 29.723-3.784 3.465-7.673 6.818-11.661 10.054-44.003 35.699-278.316 35.698-322.319-.001-3.988-3.235-7.876-6.588-11.66-10.053-10-9.153-19.282-19.09-27.719-29.723-9.289-11.688-17.563-24.207-24.723-37.43zm0 0" fill="#4d34b0"/></g><g><path d="m405.022 267.506-74.922-73.031 17.686-103.121-91.786 48.255-24.668 151.395 24.668 188.396 46.9-197.054z" fill="#ff903d"/><path d="m255.177 140.041-92.609-48.687 17.687 103.121-74.923 73.031 102.122 14.84 48.546 199.86v-342.597z" fill="#ffb03b"/><path d="m122.975 474.764c7.747 4.72 15.77 9.029 24.029 12.921h217.993c18.747-8.835 36.246-19.876 52.167-32.792v-41.212h-161.164z" fill="#ffb03b"/><path d="m94.835 454.893c15.921 12.917 33.42 23.958 52.168 32.793h108.997v-74.004h-161.165z" fill="#ffc46c"/><path d="m94.835 454.893c15.921 12.917 33.42 23.958 52.168 32.793h28.414v-74.004h-80.582z" fill="#ffd9a1"/><path d="m406.599 463.018h-150.599l-49.336 24.668 48.61 24.305c.243.001.483.009.726.009 56.297 0 108.337-18.186 150.599-48.982z" fill="#ba1956"/><path d="m256 512v-48.982h-150.599c42.262 30.796 94.302 48.982 150.599 48.982z" fill="#ff4f78"/><path d="m175.418 463.018c-15.915 0-30.085 7.582-39.112 19.315 35.721 18.93 76.45 29.667 119.694 29.667v-48.982z" fill="#ff0f47"/></g><g fill="#fff"><path d="m459.447 211.13h-1.524c-6.754 0-12.226-5.477-12.226-12.227v-1.523h-8.715v1.523c0 6.75-5.477 12.227-12.227 12.227h-1.527v8.715h1.527c6.75 0 12.227 5.472 12.227 12.226v1.528h8.715v-1.528c0-6.754 5.472-12.226 12.226-12.226h1.524zm0 0"/><path d="m417.134 116.923h-1.524c-6.754 0-12.226-5.477-12.226-12.227v-1.523h-8.715v1.523c0 6.75-5.477 12.227-12.227 12.227h-1.527v8.715h1.527c6.75 0 12.227 5.472 12.227 12.226v1.528h8.715v-1.528c0-6.754 5.472-12.226 12.226-12.226h1.524zm0 0"/><path d="m50.21 219.844h1.524c6.754 0 12.226 5.472 12.226 12.226v1.528h8.715v-1.528c0-6.754 5.477-12.226 12.227-12.226h1.527v-8.715h-1.527c-6.75 0-12.227-5.477-12.227-12.227v-1.523h-8.715v1.523c0 6.75-5.472 12.227-12.226 12.227h-1.524zm0-8.714"/><path d="m92.523 125.638h1.524c6.754 0 12.226 5.472 12.226 12.226v1.528h8.715v-1.528c0-6.754 5.477-12.226 12.227-12.226h1.527v-8.715h-1.527c-6.75 0-12.227-5.477-12.227-12.227v-1.523h-8.715v1.523c0 6.75-5.472 12.227-12.226 12.227h-1.524zm0-8.715"/></g></g></svg>