<svg id="Icons" enable-background="new 0 0 512 512" height="512" viewBox="0 0 512 512" width="512" xmlns="http://www.w3.org/2000/svg" xmlns:xlink="http://www.w3.org/1999/xlink"><clipPath id="SVGID_2_"><path id="SVGID_9_" d="m256 457.086c-10.645 0-19.275-8.63-19.275-19.275v-19.166c1.013-25.563 37.536-25.565 38.55 0v19.166c0 10.646-8.63 19.275-19.275 19.275z"/></clipPath><clipPath id="SVGID_4_"><path id="SVGID_11_" d="m261.242 257.899h-10.483c-35.043 0-63.451 28.408-63.451 63.451v43.428c0 35.043 28.408 63.451 63.451 63.451h10.483c35.043 0 63.451-28.408 63.451-63.451v-43.428c0-35.043-28.408-63.451-63.451-63.451z"/></clipPath><g><path d="m512 256c0 113.68-74.1 210.05-176.64 243.46-3.83 1.25-7.69 2.41-11.6 3.47-13.48 3.7-27.41 6.31-41.68 7.76h-.01c-8.57.87-17.26 1.31-26.07 1.31s-17.5-.45-26.08-1.31h-.01c-10.15-1.03-20.13-2.65-29.89-4.84-7.94-1.76-15.75-3.9-23.39-6.39-102.53-33.41-176.63-129.79-176.63-243.46 0-141.38 114.62-256 256-256s256 114.62 256 256z" fill="#6052a3"/><g id="Person1_3_"><g id="Body_10_"><g><path d="m200.02 505.85c-7.94-1.76-15.75-3.9-23.39-6.39 15.792-90.339 142.627-90.897 158.73 0-43.16 14.148-90.96 16.384-135.34 6.39z" fill="#c0405c"/><path d="m229.91 510.69c-10.15-1.03-20.13-2.65-29.89-4.84.268-3.719.773-7.436 1.55-11.07 4.859-23.437 20.836-44.128 42.21-54.86 7.605-3.886 15.829-6.479 24.27-7.8 34.68 5.22 62.1 32.65 67.31 67.34-33.592 11.007-70.137 14.832-105.45 11.23z" fill="#ee6781"/><path d="m323.76 502.93c-39.825 10.99-83.365 12.017-123.74 2.92.268-3.719.773-7.436 1.55-11.07 5.906-28.988 29.079-53.386 57.71-60.8.902-.254 1.822-.458 2.73-.69 4.58 1.06 9.02 2.51 13.26 4.31 26.448 11.268 45.335 35.9 48.49 65.33z" fill="#e9465e"/></g><g><path d="m295.06 441.49c.18 22.954-5.26 48.732-12.98 69.2-17.094 1.75-35.071 1.734-52.17 0-7.703-20.49-13.152-46.212-12.98-69.2 6.15-3.42 12.8-6.08 19.8-7.8v4.12c-.022 5.065 2.044 10.066 5.64 13.63 11.891 12.053 32.958 3.497 32.9-13.63v-4.12c7.01 1.72 13.64 4.36 19.79 7.8z" fill="#e8f3fc"/><g fill="#b7dbf6"><path d="m295.06 441.487c0 11.23-1.085 22.039-2.892 32.257 0 0-23.726-.012-36.173-16.653 10.652 0 19.279-8.64 19.279-19.279v-4.121c7.001 1.723 13.64 4.362 19.786 7.796z"/><path d="m255.995 457.091c-12.435 16.641-36.161 16.653-36.161 16.653-1.819-10.218-2.904-21.027-2.904-32.257 6.145-3.422 12.797-6.073 19.798-7.796v4.121c0 10.651 8.625 19.278 19.267 19.279z"/></g></g></g><g id="HEAD_11_"><g id="Ears_10_"><g fill="#8e4e3f"><path d="m213.355 368.362c.885 10.746-7.399 20.296-18.312 20.237h-15.471c-24.501-.646-24.502-37.904 0-38.55h15.471c10.113 0 18.312 8.199 18.312 18.313z"/><path d="m350.74 368.362c.885 10.746-7.399 20.296-18.312 20.237h-15.471c-24.501-.646-24.502-37.904 0-38.55h15.471c10.114 0 18.312 8.199 18.312 18.313z"/></g><g fill="#723e33"><path d="m219.846 369.324c0 4.241-3.438 7.679-7.679 7.679h-28.807c-4.241 0-7.679-3.438-7.679-7.679s3.438-7.679 7.679-7.679h28.807c4.241 0 7.679 3.438 7.679 7.679z"/><path d="m336.32 369.324c0 4.241-3.438 7.679-7.679 7.679h-28.807c-4.241 0-7.679-3.438-7.679-7.679s3.438-7.679 7.679-7.679h28.807c4.241 0 7.679 3.438 7.679 7.679z"/></g></g><g id="Neck_10_"><path clip-path="url(#SVGID_2_)" d="m256 457.086c-10.645 0-19.275-8.63-19.275-19.275v-19.166c1.013-25.563 37.536-25.565 38.55 0v19.166c0 10.646-8.63 19.275-19.275 19.275z" fill="#723e33"/><path clip-path="url(#SVGID_2_)" d="m265.64 457.086c-10.645 0-19.275-8.63-19.275-19.275v-19.166c1.013-25.563 37.536-25.565 38.55 0v19.166c-.001 10.646-8.63 19.275-19.275 19.275z" fill="#8e4e3f"/><path clip-path="url(#SVGID_2_)" d="m261.242 267.539h-10.483c-35.043 0-63.451 28.408-63.451 63.451v43.428c0 35.043 28.408 63.451 63.451 63.451h10.483c35.043 0 63.451-28.408 63.451-63.451v-43.428c0-35.043-28.408-63.451-63.451-63.451z" fill="#723e33"/></g><g id="Face_10_"><path clip-path="url(#SVGID_4_)" d="m261.242 257.899h-10.483c-35.043 0-63.451 28.408-63.451 63.451v43.428c0 35.043 28.408 63.451 63.451 63.451h10.483c35.043 0 63.451-28.408 63.451-63.451v-43.428c0-35.043-28.408-63.451-63.451-63.451z" fill="#8e4e3f"/><path clip-path="url(#SVGID_4_)" d="m281.726 257.899h-10.483c-35.043 0-63.451 28.408-63.451 63.451v43.428c0 35.043 28.408 63.451 63.451 63.451h10.483c35.043 0 63.451-28.408 63.451-63.451v-43.428c0-35.043-28.408-63.451-63.451-63.451z" fill="#9b5b42"/></g><g id="Blush_3_" fill="#8e4e3f"><path d="m308.183 376.182c0-5.268-4.271-9.539-9.539-9.539-12.653.502-12.649 18.577 0 19.077 5.269 0 9.539-4.27 9.539-9.538z"/><path d="m222.894 376.182c0-5.268-4.271-9.539-9.539-9.539-12.653.502-12.649 18.577 0 19.077 5.268 0 9.539-4.27 9.539-9.538z"/></g><path id="Mouth_3_" d="m256 397.745c-7.952 0-15.141-2.438-18.764-6.361-2.103-2.362 1.346-5.562 3.542-3.269 5.635 6.348 24.811 6.346 30.442 0 2.176-2.291 5.657.904 3.542 3.269-3.622 3.923-10.811 6.361-18.762 6.361z" fill="#723e33"/><g id="Mouth2_5_"><path d="m279.528 382.89c.092 12.819-10.651 23.635-23.533 23.521-11.634.023-21.503-8.535-23.219-19.973-.012-.01-.025-.019-.037-.029-.176-1.171-.258-2.332-.265-3.518h47.054z" fill="#961b3b"/><path d="m275.274 388.023c.022 4.876-1.692 9.654-4.519 13.182-4.037 3.265-9.17 5.205-14.761 5.205s-10.712-1.94-14.749-5.205c-2.83-3.533-4.544-8.313-4.519-13.182z" fill="#cc2561"/><path id="Mouth2_6_" d="m277.946 384.391v3.083c-11.161 8.923-31.801 9.12-43.249.473v-3.557h43.249z" fill="#e8f3fc"/><path d="m232.74 386.407c1.229 1.055 2.581 2.024 4.039 2.897-.025-.424-.054-3.256-.054-3.687h38.55c0 .43-.012 3.259-.036 3.683 1.458-.873 2.792-1.839 4.022-2.894.173-1.15.272-2.324.272-3.522h-47.063c-.002 1.199.097 2.373.27 3.523z" fill="#723e33"/></g><g id="Nose1_7_"><path d="m266.568 375.971h-21.136c-3.172-.078-3.183-4.739 0-4.82h21.136c3.172.078 3.183 4.739 0 4.82z" fill="#723e33"/></g><g id="Eyes_11_"><path d="m239.008 352.203c0-5.209-4.223-9.431-9.431-9.431-12.51.497-12.507 18.368 0 18.863 5.209-.001 9.431-4.223 9.431-9.432z" fill="#723e33"/><path d="m291.854 352.203c0-5.209-4.223-9.431-9.431-9.431-12.51.497-12.507 18.368 0 18.863 5.209-.001 9.431-4.223 9.431-9.432z" fill="#723e33"/><path d="m238.364 355.723c0-4.853-3.934-8.787-8.787-8.787-11.651.45-11.648 17.126 0 17.575 4.853 0 8.787-3.935 8.787-8.788z" fill="#122894"/><path d="m235.724 355.906c4.068-4.279-2.051-10.397-6.329-6.329-4.068 4.279 2.051 10.396 6.329 6.329z" fill="#e8f3fc"/><path d="m291.21 355.723c0-4.853-3.934-8.787-8.787-8.787-11.651.45-11.648 17.126 0 17.575 4.853 0 8.787-3.935 8.787-8.788z" fill="#122894"/><path d="m288.57 355.906c4.068-4.279-2.051-10.397-6.329-6.329-4.068 4.279 2.051 10.396 6.329 6.329z" fill="#e8f3fc"/></g><g id="Hair1_2_"><path d="m334.96 388.42c-1.585.344-13.053.121-14.9.18-5.02 12.38-13.83 22.8-25 29.85h40.73v-30.17c-.27.05-.55.1-.83.14zm-143.02.18c-2.583-.097-13.393.275-15.73-.32v30.17h40.72c-11.16-7.05-19.97-17.47-24.99-29.85zm143.75-70.72c-1.197-29.633-21.872-56.847-50.04-66.07-7.568-2.545-15.52-3.859-23.56-3.86-6.688.096-16.693-.34-23.22.82-25.121 3.615-47.499 21.182-57.06 44.68-3.152 7.576-4.995 15.648-5.46 23.94-.298 2.283-.073 29.993-.14 32.98 2.282-.547 8.694-.25 11.1-.32v-28.08c24.617 7.977 53.618-3.875 65.87-25.83 6.208 31.084 40.361 52.087 71.51 42.65v11.26c2.443.071 8.787-.228 11.1.32-.032-2.233.09-31.223-.1-32.49z" fill="#442a21"/><g fill="#543029"><path d="m335.788 321.642v28.726c-2.242-.531-8.719-.247-11.098-.313v-11.266c-31.146 9.444-65.299-11.566-71.514-42.644-9.326 15.857-26.063 26.822-45.451 28.136v-12.194c-.461-36.843 34.314-70.572 71.105-62.213 6.848 1.592 13.454 4.177 19.568 7.64 22.779 12.697 37.615 38.033 37.39 64.128z"/><path d="m332.426 388.601c1.157 0 2.277-.12 3.362-.325v30.172h-40.728c11.17-7.049 19.978-17.472 25.003-29.847z"/></g></g></g></g><g id="Lightbulb_7_"><g><path d="m147.447 214.094c.117 14.583-8.676 25.054-14.994 36.961-2.984 5.67-10.898 29.666-11.055 30.607h-46.184s-8.163-26.466-12.971-34.26c-6.353-10.244-13.074-20.44-13.09-33.308-.042-26.899 21.847-49.152 49.147-49.147 26.6-.203 49.35 22.026 49.147 49.147z" fill="#daab42"/><path d="m68.324 214.094c0 10.603-3.356 20.432-9.08 28.465-5.272-8.627-10.091-17.636-10.091-28.465 0-10.912 3.558-21.003 9.591-29.155 6.022 8.152 9.58 18.243 9.58 29.155z" fill="#c4983d"/><path d="m147.447 214.094c.117 14.582-8.676 25.054-14.994 36.961-1.547 3.296-3.236 7.64-4.831 12.019-60.006 3.189-73.666-79.775-16.671-96.473 21.258 5.678 36.478 24.87 36.496 47.493z" fill="#f9c744"/><path d="m147.447 214.094c.118 14.581-8.676 25.055-14.994 36.961-21.907-18.787-22.234-53.957-.869-73.125 9.758 8.985 15.863 21.86 15.863 36.164z" fill="#f8d07a"/><path d="m139.696 203.49c0-11.137-9.029-20.166-20.166-20.166-26.75 1.062-26.742 39.274 0 40.332 11.137 0 20.166-9.029 20.166-20.166z" fill="#fbd9a3"/><path d="m147.447 214.094c.117 14.583-8.676 25.054-14.994 36.961-2.984 5.67-10.898 29.666-11.055 30.607h-46.184s-8.163-26.466-12.971-34.26c-6.353-10.244-13.074-20.44-13.09-33.308-.042-26.899 21.847-49.152 49.147-49.147 26.6-.203 49.35 22.026 49.147 49.147z" fill="none"/></g><g><path d="m115.71 322.658v6.985c0 7.247-4.439 13.471-10.734 16.089-11.072 4.831-24.34-3.907-24.073-16.089v-6.985z" fill="#2e3140"/><path d="m115.71 322.658v6.985c0 7.247-4.439 13.471-10.734 16.089-6.307-2.618-10.746-8.83-10.746-16.089v-6.985z" fill="#3e4e60"/><path d="m115.71 322.658v6.985c0 7.247-4.439 13.471-10.734 16.089-11.072 4.831-24.34-3.907-24.073-16.089v-6.985z" fill="none"/></g><g><path d="m90.591 247.611h15.428v34.052h-15.428z" fill="#bf5e39"/><path d="m98.305 247.611h7.714v34.052h-7.714z" fill="#dd5e26"/></g><g><path d="m121.1 238.001c.042 5.181-4.278 9.642-9.615 9.615h-26.358c-2.654 0-5.057-1.083-6.795-2.82-6.013-5.878-1.726-16.473 6.795-16.41h26.358c5.305.006 9.619 4.31 9.615 9.615z" fill="#bf5e39"/><path d="m121.1 238.001c0 .952-.131 1.868-.393 2.725h-24.966c-6.314.11-11.089-6.338-9.222-12.34h24.966c5.305.006 9.619 4.31 9.615 9.615z" fill="#dd5e26"/><path d="m118.28 231.206c2.403 2.29 3.465 6.233 2.428 9.52h-8.937c-6.316.112-11.082-6.341-9.211-12.34h8.925c2.654 0 5.058 1.083 6.795 2.82z" fill="#ea792e"/><path d="m121.1 238.001c.042 5.181-4.278 9.642-9.615 9.615h-26.358c-2.654 0-5.057-1.083-6.795-2.82-6.013-5.878-1.726-16.473 6.795-16.41h26.358c5.305.006 9.619 4.31 9.615 9.615z" fill="none"/></g><g><path d="m134.869 294.526c.04 6.997-7.423 8.283-12.852 12.852-1.071.916-.916 5.534-.916 5.534 0 12.59-10.21 22.8-22.8 22.8-12.633.085-22.881-10.517-22.788-22.8 0 0 .155-4.617-.916-5.533-5.414-4.593-12.852-5.76-12.852-12.852 0-7.104 5.748-12.864 12.852-12.864h47.421c7.103-.001 12.851 5.759 12.851 12.863z" fill="#c1b7d3"/><path d="m134.845 294.526c.111 6.993-7.426 8.286-12.828 12.852-1.071.916-.916 5.534-.916 5.534 0 12.59-10.21 22.8-22.8 22.8-12.633.085-22.881-10.517-22.788-22.8 0 0 .155-4.617-.916-5.533-5.414-4.593-12.852-5.76-12.852-12.852h73.1z" fill="#aea7b9"/><path d="m106.023 294.526s-3.82 27.489-28.334 28.12c-1.392-2.951-2.178-6.247-2.178-9.734 0 0 .155-4.617-.916-5.534-5.414-4.593-12.852-5.76-12.852-12.852z" fill="#9f90ae"/><path d="m94.92 288.088c0 3.558-2.88 6.438-6.426 6.438h-26.751c0-7.104 5.748-12.864 12.852-12.864h13.899c3.547 0 6.426 2.88 6.426 6.426z" fill="#aea7b9"/><path d="m112.259 321.587c0 2.606-2.118 4.724-4.736 4.724h-27.656c-2.036-2.796-3.409-6.006-4.01-9.461h31.666c2.617.001 4.736 2.119 4.736 4.737z" fill="#c1b7d3"/><g fill="#ebd9ea"><path d="m102.812 326.314h-3.018c-2.612 0-4.729-2.117-4.729-4.729s2.117-4.729 4.729-4.729h3.018c6.25.192 6.25 9.265 0 9.458z"/><path d="m119.628 291.121h-14.355c-2.612 0-4.729-2.117-4.729-4.729s2.117-4.729 4.729-4.729h14.355c6.246.191 6.252 9.265 0 9.458z"/></g></g></g><g id="Pitcher_8_"><g><path d="m471.846 314.234c-1.431 8.616-9.241 15.444-18.185 15.315h-74.245c-13.107.18-22.677-14.023-16.586-26.455 8.681-17.842 26.356-54.541 34.931-72.18 2.998-6.289 9.608-10.435 16.591-10.398.779-.015 4.656-.009 5.343.029 5.209.242 10.234 2.846 13.457 6.941 1.865 1.896 8.994 17.889 10.409 20.479.119.118 15.67 32.453 15.769 32.574.053.124 10.851 22.42 10.915 22.555 1.785 3.681 2.222 7.54 1.601 11.14z" fill="#c1b7d3"/><path d="m399.057 188.653h34.96v52.824h-34.96z" fill="#c1b7d3"/><path d="m471.846 314.234h-70.225c-13.595 0-22.515-14.222-16.592-26.46l32.556-67.258c7.434-.373 14.494 3.656 17.724 10.398 0 0 34.937 72.18 34.937 72.18 1.784 3.681 2.221 7.54 1.6 11.14z" fill="#ebd9ea"/><path d="m436.149 243.387h-1.967c-3.179 0-6.078 1.817-7.463 4.679l-15.718 32.472c-2.665 5.506 1.346 11.903 7.463 11.903h33.402c6.117 0 10.127-6.397 7.463-11.903l-15.718-32.472c-1.384-2.861-4.283-4.679-7.462-4.679z" fill="#fff"/><path d="m412.604 199.714h21.413v33.521h-21.413z" fill="#ebd9ea"/><path d="m427.272 233.235c-3.725 0-6.745-3.02-6.745-6.745v-14.936c.307-8.925 13.182-8.931 13.491 0v14.936c-.001 3.725-3.021 6.745-6.746 6.745z" fill="#fff"/><path d="m461.672 327.738c-2.387 1.156-5.09 1.812-8.011 1.812h-74.245c-2.922 0-5.624-.656-8.011-1.806.811-3.479 3.928-6.067 7.655-6.067h74.958c3.693 0 6.826 2.541 7.654 6.061z" fill="#9f90ae"/></g><g><path d="m450.814 191.129c.006 4.765-3.868 8.674-8.678 8.672h-51.201c-2.717-.008-5.116-1.224-6.729-3.209v-.006c-4.593-5.443-.504-14.236 6.729-14.136h51.201c4.79-.007 8.686 3.911 8.678 8.679z" fill="#ebd9ea"/><path d="m448.876 196.593c-1.593 1.961-4.02 3.209-6.74 3.209h-51.201c-2.717-.008-5.116-1.224-6.729-3.209v-.006c1.587-1.961 4.008-3.209 6.729-3.209h51.201c2.716.008 5.125 1.226 6.74 3.215z" fill="#c1b7d3"/><path d="m448.738 185.499c-1.593 1.863-3.957 3.048-6.602 3.048h-51.201c-2.646-.006-4.982-1.162-6.596-3.048 1.587-1.863 3.951-3.048 6.596-3.048h51.201c2.64.006 4.989 1.162 6.602 3.048z" fill="#fff"/></g><g><path d="m443.517 314.027c-.727.136-1.47.208-2.243.207h-49.47c-8.726.123-15.117-9.376-11.053-17.627 3.457-7.159 20.207-41.728 23.28-48.095 2.047-4.233 6.343-6.93 11.048-6.93h2.916c4.64-.007 9.007 2.683 11.053 6.93 0 0 2.801 5.791 2.801 5.791l14.498 29.951 5.975 12.353c3.611 7.454-1.047 16.023-8.805 17.42z" fill="#d7156f"/><path d="m443.517 314.027s0 .006-.006 0c-3.801-.696-7.102-3.163-8.828-6.723l-23.28-48.09c-3.606-7.459 1.052-16.022 8.805-17.425 0 0 0-.006.006 0 3.801.696 7.108 3.169 8.833 6.723l23.274 48.095c3.612 7.454-1.046 16.023-8.804 17.42z" fill="#df3d81"/><path d="m407.193 275.329-18.627 38.48c-7.148-1.921-11.266-10.07-7.816-17.201l18.627-38.48c7.149 1.921 11.267 10.064 7.816 17.201z" fill="#b82065"/><path d="m446.346 284.255c-2.434-.11-10.428.334-12.646-.425-7.148-1.921-11.266-10.07-7.816-17.201l5.964-12.324z" fill="#ed72ab"/></g></g><g><g><path d="m202.051 195.997c-4.779 0-8.58-1.317-11.233-3.971-16.89-20.404 25.239-71.305 45.343-91.136 17.958-17.957 37.103-32.622 53.908-41.291 35.887-18.957 52.143-2.722 33.176 33.177-18.068 36.024-79.75 100.317-121.194 103.221zm113.979-139.888c-39.634 3.486-99.738 66.036-117.085 100.792-16.599 32.168-5.187 43.608 26.998 26.997 16.396-8.458 35.136-22.827 52.767-40.458s32-36.371 40.458-52.767c9.087-18.012 12.33-34.27-3.138-34.564z" fill="#decee5"/></g><g><path d="m185.233 146.703c5.83-5.897 15.695-6.071 21.726 0 10.796 10.986.662 29.035-14.168 25.87-11.645-2.381-16.16-17.521-7.558-25.87z" fill="#2d2667"/><path d="m185.233 146.703c1.499-1.499 3.242-2.628 5.093-3.377 14.661 3.204 16.416 23.585 2.465 29.247-11.647-2.38-16.158-17.523-7.558-25.87z" fill="#6052a3"/><path d="m184.943 152.55c-2.836 2.836-2.836 7.434 0 10.27 7.032 6.563 16.832-3.24 10.27-10.27-2.836-2.836-7.434-2.836-10.27 0z" fill="#9175a7"/></g><g><path d="m316.063 195.997c-41.421-2.899-103.1-67.157-121.194-103.221-18.958-35.887-2.721-52.143 33.177-33.177 16.805 8.67 35.95 23.334 53.907 41.291 20.111 19.85 62.219 70.686 45.344 91.136-2.654 2.654-6.456 3.971-11.234 3.971zm-113.979-139.888c-15.487.276-12.203 16.595-3.139 34.564 8.459 16.396 22.827 35.136 40.459 52.767s36.371 32 52.767 40.458c32.168 16.599 43.607 5.187 26.997-26.997-17.318-34.713-77.431-97.304-117.084-100.792z" fill="#ebd9ea"/></g><g><g><path d="m259.057 220.292c-9.117 0-17.448-10.366-23.459-29.19-11.805-35.307-11.805-99.324 0-134.631 11.97-38.782 34.946-38.795 46.918 0 11.805 35.307 11.805 99.323 0 134.631-6.011 18.824-14.343 29.19-23.459 29.19zm0-188.424c-6.855 0-13.813 9.476-19.09 25.998-11.517 34.411-11.517 97.429 0 131.841 11.01 34.485 27.166 34.502 38.179 0 11.517-34.411 11.517-97.429 0-131.84-5.276-16.523-12.234-25.999-19.089-25.999z" fill="#fff"/></g><g><g><path d="m295.054 55.381c.048 8.292-6.805 15.391-15.363 15.362-15.403-.135-20.998-20.063-8.275-28.311 9.919-6.55 23.817.964 23.638 12.949z" fill="#b82065"/></g><g><path d="m295.054 55.381c0 2.12-.434 4.15-1.213 5.989-12.633 8.102-28.285-5.069-22.424-18.938 9.919-6.552 23.816.966 23.637 12.949z" fill="#d7156f"/></g><g><path d="m291.124 51.042c0-4.011-3.251-7.262-7.262-7.262-9.613.332-9.611 14.193 0 14.524 4.011 0 7.262-3.252 7.262-7.262z" fill="#ed72ab"/></g></g></g><g><path d="m281.973 197.611c-5.897-5.83-6.071-15.695 0-21.726 10.986-10.796 29.035-.662 25.87 14.168-2.381 11.645-17.521 16.159-25.87 7.558z" fill="#bf5e39"/><path d="m281.973 197.611c-1.499-1.499-2.628-3.242-3.377-5.093 3.204-14.661 23.585-16.416 29.247-2.465-2.38 11.647-17.523 16.158-25.87 7.558z" fill="#dd5e26"/><path d="m287.82 197.901c2.836 2.836 7.434 2.836 10.27 0 6.563-7.032-3.241-16.832-10.27-10.27-2.836 2.835-2.836 7.434 0 10.27z" fill="#ea792e"/></g><g><g><path d="m280.206 123.787c.066 11.421-9.373 21.198-21.159 21.158-21.214-.185-28.921-27.632-11.397-38.992 13.761-8.997 32.725 1.259 32.556 17.834z" fill="#50755c"/></g><g><path d="m280.206 123.787c0 2.92-.598 5.716-1.671 8.249-17.399 11.158-38.956-6.981-30.884-26.083 13.761-8.999 32.724 1.262 32.555 17.834z" fill="#528f66"/></g><g><path d="m274.794 117.81c0-5.524-4.478-10.002-10.002-10.002-13.267.527-13.264 19.479 0 20.004 5.524 0 10.002-4.478 10.002-10.002z" fill="#53b976"/></g></g></g></g></svg>