<svg id="Layer_1" enable-background="new 0 0 513.608 513.608" height="512" viewBox="0 0 513.608 513.608" width="512" xmlns="http://www.w3.org/2000/svg"><g><g><path d="m507.005 250.802c0 38.956-8.882 75.837-24.73 108.729-40.504 84.063-124.912 115.194-224.471 115.194-138.514.001-252.404-85.408-252.404-223.923s112.288-250.802 250.802-250.802 250.803 112.288 250.803 250.802z" fill="#2d56a1"/></g><path d="m460.499 396.31-.007-.007c8.253-11.567 15.549-23.865 21.771-36.777 5.658-11.74-7.215-23.702-18.447-17.091-.201.118-.403.237-.604.354-9.058 5.298-20.253-1.579-19.776-12.062 1.042-22.866-7.192-45.556-23.478-62.474-8.254-8.575-12.661-20.145-12.661-32.048v-170.829c0-9.586-4.807-18.534-12.8-23.826l-.209-.138c-4.796-3.175-10.421-4.869-16.172-4.869h-228.342c-4.902 0-8.876 3.974-8.876 8.876 0 4.902-3.974 8.876-8.876 8.876h-12.56c-5.034 0-9.429 3.799-9.754 8.822-.356 5.504 4.003 10.08 9.43 10.08h21.76v28.188h-20.975c-5.034 0-9.429 3.799-9.754 8.822-.356 5.504 4.003 10.08 9.43 10.08h21.299v28.189h-20.515c-5.034 0-9.429 3.799-9.754 8.822-.356 5.504 4.003 10.08 9.43 10.08h20.839v28.189h-20.056c-5.034 0-9.429 3.799-9.754 8.822-.356 5.504 4.003 10.08 9.43 10.08h20.379v28.189c-18.025.482-21.193-1.192-25.335 1.713-3.909-7.3-7.424-14.737-10.547-22.28-21.071-50.882-96.671-38.562-99.321 16.447-.067 1.395-.123 2.792-.167 4.192-4.454 140.836 109.126 258.519 250.033 258.874 83.791.21 158.94-40.809 204.939-105.294zm-319.601-134.751v21.186c-5.431-6.786-10.528-13.85-15.242-21.186z" fill="#1a396b"/><g><path d="m214.865 51.855h170.322v284.088h-170.322z" fill="#82cd64"/><path d="m298.764 283.121c20.747-18.206 51.938-19.049 73.647-2.001 5.179 4.067 9.422 8.797 12.776 13.942v-37.894c-32.99-23.015-78.831-19.84-108.245 9.574-14.265 14.265-22.348 32.397-24.276 51.053-.619 5.988-5.439 10.859-11.445 11.268-7.221.492-13.232-5.22-13.232-12.335v-87.294c0-9.909 8.033-17.943 17.943-17.943h63.324c5.938 0 10.751-4.813 10.751-10.751v-49.373c0-5.937-4.813-10.751-10.751-10.751h-81.267v-88.76h-109.202v336.57h160.234 106.165v-30.298-29.035h-106.063c-.72-16.795 5.822-33.845 19.641-45.972z" fill="#269ab1"/><g><path d="m508.047 493.473c.764-6.655-1.39-13.582-6.495-18.687l-83.217-83.217-16.081 16.081 26.024 41.621c17.194 27.498 47.338 44.202 79.769 44.202z" fill="#ffc305"/><path d="m476.933 482.328-74.679-74.679-16.081 16.081 83.217 83.217c8.881 8.881 23.28 8.881 32.161 0 6.197-6.197 8.064-15.08 5.612-22.901-8.927 7.116-21.966 6.546-30.23-1.718z" fill="#ff8500"/><g><circle cx="336.795" cy="342.191" fill="#6ee1ff" r="71.202"/></g><path d="m378.55 341.165c-26.91 25.024-69.019 25.267-96.249.592-.177-.16-.352-.321-.527-.482-6.34-5.861-16.66-.901-15.846 7.695 1.552 16.401 8.776 32.364 21.682 44.707 27.612 26.406 71.739 26.116 99.02-.631 10.883-10.67 17.604-23.952 20.168-37.852 2.878-15.603-16.119-25.576-27.606-14.633-.212.202-.426.403-.642.604z" fill="#2896ff"/><path d="m360.826 385.513h65.779v27.197h-65.779z" fill="#ffc305" transform="matrix(.707 -.707 .707 .707 -166.898 395.296)"/><g><path d="m396.648 402.044c-6.945 6.945-14.806 12.428-23.197 16.45-31.489 15.092-60.945.102-87.003-25.956s-41.048-55.513-25.957-87.002c4.022-8.392 9.506-16.254 16.451-23.199 33.004-33.004 86.704-33.004 119.708 0 33.002 33.003 33.002 86.704-.002 119.707zm-100.695-100.695c-22.52 22.52-22.52 59.163.001 81.683 22.52 22.52 59.163 22.52 81.682 0 22.52-22.52 22.52-59.163.001-81.683-22.521-22.52-59.163-22.52-81.684 0z" fill="#ff5551"/></g><g><path d="m341.563 399.713c-16.336 1.342-33.138-4.21-45.609-16.681-12.472-12.472-18.023-29.273-16.682-45.61-2.167-8.998-2.845-18.284-2.033-27.462.862-9.757-12.541-13.269-16.76-4.429-14.865 31.151-9.922 70.129 16.463 96.513 26.381 26.381 65.361 31.33 96.515 16.462 8.84-4.219 5.328-17.623-4.429-16.76-9.179.812-18.466.134-27.465-2.033z" fill="#e20a62"/></g></g><g><path d="m138.576 69.608h-34.077v18.902h34.077c5.22 0 9.451-4.231 9.451-9.451s-4.232-9.451-9.451-9.451z" fill="#6ee1ff"/></g><g><path d="m139.036 116.698h-34.538v18.902h34.538c5.22 0 9.451-4.231 9.451-9.451s-4.231-9.451-9.451-9.451z" fill="#6ee1ff"/></g><g><path d="m139.495 163.788h-34.997v18.902h34.997c5.22 0 9.451-4.231 9.451-9.451s-4.231-9.451-9.451-9.451z" fill="#6ee1ff"/></g><g><path d="m139.956 210.878h-35.458v18.902h35.458c5.22 0 9.451-4.231 9.451-9.451s-4.231-9.451-9.451-9.451z" fill="#6ee1ff"/></g><g><path d="m140.415 257.969h-35.917v18.902h35.917c5.22 0 9.451-4.231 9.451-9.451s-4.231-9.451-9.451-9.451z" fill="#6ee1ff"/></g><g><path d="m140.876 305.058h-36.378v18.902h36.378c5.22 0 9.451-4.231 9.451-9.451s-4.231-9.451-9.451-9.451z" fill="#6ee1ff"/></g><g><path d="m141.335 352.149h-36.837v18.902h36.837c5.22 0 9.451-4.231 9.451-9.451s-4.231-9.451-9.451-9.451z" fill="#6ee1ff"/></g><g fill="#2896ff"><path d="m97.027 88.51h7.351 2.829 7.351c5.22 0 9.451-4.231 9.451-9.451s-4.231-9.451-9.451-9.451h-7.351-2.829-7.351c-5.22 0-9.451 4.231-9.451 9.451s4.231 9.451 9.451 9.451z"/><path d="m114.097 116.698h-6.89-2.829-6.89c-5.22 0-9.451 4.231-9.451 9.451s4.231 9.451 9.451 9.451h6.89 2.829 6.89c5.22 0 9.451-4.231 9.451-9.451s-4.232-9.451-9.451-9.451z"/><path d="m113.636 163.788h-6.43-2.829-6.43c-5.22 0-9.451 4.231-9.451 9.451s4.231 9.451 9.451 9.451h6.43 2.829 6.43c5.22 0 9.451-4.231 9.451-9.451s-4.231-9.451-9.451-9.451z"/><path d="m113.177 210.878h-5.97-2.829-5.97c-5.22 0-9.451 4.231-9.451 9.451s4.231 9.451 9.451 9.451h5.97 2.829 5.97c5.22 0 9.451-4.231 9.451-9.451s-4.231-9.451-9.451-9.451z"/><path d="m112.716 257.969h-5.51-2.829-5.51c-5.22 0-9.451 4.231-9.451 9.451s4.231 9.451 9.451 9.451h5.51 2.829 5.51c5.22 0 9.451-4.231 9.451-9.451s-4.231-9.451-9.451-9.451z"/><path d="m112.257 305.058h-5.051-2.829-5.051c-5.22 0-9.451 4.231-9.451 9.451s4.231 9.451 9.451 9.451h5.051 2.829 5.051c5.22 0 9.451-4.231 9.451-9.451s-4.231-9.451-9.451-9.451z"/><path d="m111.797 352.149h-4.59-2.829-4.59c-5.22 0-9.451 4.231-9.451 9.451s4.231 9.451 9.451 9.451h4.59 2.829 4.59c5.22 0 9.451-4.231 9.451-9.451-.001-5.22-4.232-9.451-9.451-9.451z"/></g><path d="m309.254 125.914h-100.838v70.875h100.838c5.938 0 10.751-4.813 10.751-10.751v-49.373c0-5.938-4.813-10.751-10.751-10.751z" fill="#faf58c"/><path d="m211.27 186.038v-49.374c0-5.938 4.813-10.751 10.751-10.751h-27.303c-5.938 0-10.751 4.813-10.751 10.751v49.374c0 5.938 4.813 10.751 10.751 10.751h27.303c-5.937 0-10.751-4.813-10.751-10.751z" fill="#ffc305"/></g></g></svg>