<svg id="Capa_1" enable-background="new 0 0 512 512" height="512" viewBox="0 0 512 512" width="512" xmlns="http://www.w3.org/2000/svg"><g><g><path d="m512 256c0 141.387-114.613 256-256 256s-256-114.613-256-256 114.613-256 256-256 256 114.613 256 256zm0 0" fill="#ffeb78"/><path d="m512 256c0 26.051-3.891 51.191-11.129 74.871-5.031 16.469-11.672 32.231-19.75 47.109-8.25 15.2-18 29.461-29.051 42.61-.582.691-1.16 1.379-1.75 2.058-46.941 54.704-116.59 89.352-194.32 89.352s-147.379-34.648-194.309-89.352c-.589-.687-1.179-1.378-1.75-2.07-11.062-13.137-20.812-27.398-29.05-42.598-3.289-6.031-6.332-12.21-9.121-18.531-14-31.629-21.77-66.629-21.77-103.449 0-46.219 12.25-89.57 33.68-127 44.121 77.07 127.16 129 222.32 129s178.211-51.93 222.32-129c21.43 37.43 33.68 80.781 33.68 127zm0 0" fill="#f2d332"/><path d="m481.262 377.699c-7.16 13.223-15.434 25.742-24.723 37.43-8.437 10.633-17.719 20.57-27.719 29.723-45.539 41.699-106.211 67.148-172.82 67.148s-127.281-25.449-172.82-67.148c-10-9.153-19.282-19.09-27.719-29.723-9.289-11.688-17.563-24.207-24.723-37.43zm0 0" fill="#e79d25"/></g><g><path d="m126.849 243.825c-42.083 21.341-70.927 65.015-70.927 115.429 0 71.437 57.911 129.348 129.348 129.348 26.107 0 50.403-7.742 70.731-21.045v-176.839z" fill="#64b0fb"/><path d="m385.151 243.825-129.151 46.893v176.838c20.328 13.303 44.624 21.045 70.731 21.045 71.437 0 129.348-57.911 129.348-129.348 0-50.414-28.844-94.087-70.928-115.428z" fill="#6abb5e"/><path d="m256 107.376-46.894 190.468 176.045-54.019c.127-2.351.197-4.718.197-7.101 0-71.437-57.911-129.348-129.348-129.348z" fill="#cb2e81"/><path d="m126.652 236.724c0 2.383.069 4.75.197 7.101l129.151 54.019v-190.468c-71.437 0-129.348 57.911-129.348 129.348z" fill="#dc4180"/><path d="m185.269 229.906c-21.023 0-40.872 5.02-58.42 13.919 2.564 47.391 30.637 87.995 70.731 108.328l58.42-101.202c-20.328-13.303-44.624-21.045-70.731-21.045z" fill="#bd4911"/><path d="m326.731 229.906c-26.107 0-50.403 7.742-70.731 21.045l58.42 101.202c40.094-20.333 68.167-60.936 70.731-108.328-17.548-8.899-37.397-13.919-58.42-13.919z" fill="#f2d332"/><path d="m314.42 352.152h-81.867l23.447 115.404c35.294-23.097 58.617-62.973 58.617-108.303 0-2.383-.069-4.749-.197-7.101z" fill="#7ed7ff"/><path d="m197.58 352.152c-.127 2.351-.196 4.718-.196 7.101 0 45.329 23.322 85.205 58.617 108.303v-115.404z" fill="#bfebff"/><path d="m256 250.951-23.447 57.561 23.447 57.56c21.023 0 40.872-5.02 58.42-13.919-2.293-42.375-24.981-79.319-58.42-101.202z" fill="#dff5ff"/><path d="m197.58 352.152c17.549 8.9 37.398 13.919 58.42 13.919v-115.12c-33.439 21.883-56.127 58.827-58.42 101.201z" fill="#fff"/></g></g></svg>