<svg id="Capa_1" enable-background="new 0 0 512 512" height="512" viewBox="0 0 512 512" width="512" xmlns="http://www.w3.org/2000/svg"><g><g><g><g><g><g><g><circle cx="256" cy="256" fill="#ff6c52" r="256"/></g></g></g></g></g></g><path d="m512 256c0-.754-.003-1.507-.01-2.26l-93.85-93.85h-41.537l-5.651 20.609-114.952-114.951-76.838 131.092-41.679-41.679h-36.784l-14.188 58.769 52.098 52.098-62.945 107.388 134.734 134.734c14.798 2.661 30.038 4.05 45.602 4.05 141.385 0 256-114.615 256-256z" fill="#f92814"/><g><path d="m86.511 213.73v-64.302h36.441c12.726 0 18.799 8.291 18.799 16.389 0 8.001-4.917 13.4-10.99 14.75 6.845 1.06 12.243 7.616 12.243 15.714 0 9.351-6.266 17.449-18.896 17.449zm38.369-45.022c0-3.085-2.313-5.302-5.688-5.302h-16.1v10.701h16.1c3.374 0 5.688-2.217 5.688-5.399zm1.254 25.258c0-3.181-2.314-5.784-6.363-5.784h-16.678v11.569h16.678c3.953 0 6.363-2.314 6.363-5.785z" fill="#555a66"/></g><g><path d="m358.853 181.626c0-19.859 15.039-33.26 34.802-33.26 15.522 0 23.812 8.773 28.054 17.257l-14.268 6.748c-2.121-5.109-7.616-9.351-13.786-9.351-10.508 0-17.932 8.098-17.932 18.606s7.424 18.606 17.932 18.606c6.17 0 11.665-4.242 13.786-9.352l14.268 6.749c-4.146 8.291-12.532 17.256-28.054 17.256-19.763.001-34.802-13.495-34.802-33.259z" fill="#333940"/></g><g><path d="m271.857 457.096-3.182-9.255h-25.355l-3.182 9.255h-18.799l24.197-64.302h20.824l24.294 64.302zm-15.907-47.913-8.194 24.197h16.389z" fill="#555a66"/></g><g><path d="m255.95 409.183 8.195 24.197h-8.195v14.461h12.726l3.181 9.255h18.799l-24.294-64.303h-10.412z" fill="#333940"/></g><g><path d="m111.463 312.14 129.537-221.001 30 .001 129.544 221.012-36.957 61.064h-215.104z" fill="#a3d4ff"/></g><g><path d="m255.979 91.14v279.002l15.021 3.074h92.587l37.051-60.903-129.638-221.174z" fill="#a3d4ff"/></g><g><path d="m365.511 349.17-28.641-16.392 14.902-26.037 28.641 16.392zm-43.396-24.836-28.641-16.392 14.902-26.037 28.641 16.392zm-43.395-24.836-28.641-16.392 14.902-26.037 28.641 16.392zm-43.396-24.836-28.641-16.392 14.902-26.037 28.641 16.392zm-43.395-24.837-20.91-11.967 14.902-26.037 20.91 11.967z" fill="#7584f2"/></g><g fill="#4a5bd3"><path d="m343.642 311.455h30v33h-30z" transform="matrix(.497 -.868 .868 .497 -104.143 476.311)"/><path d="m300.246 286.619h30v33h-30z" transform="matrix(.497 -.868 .868 .497 -104.427 426.149)"/><path d="m293.622 273.46-28.641-16.391-9.002 15.729v13.684l22.741 13.016z"/></g><g><path d="m149.009 348.13-15.795-25.505 28.056-17.374 15.795 25.505zm42.509-26.325-15.795-25.505 28.056-17.374 15.795 25.505zm42.508-26.325-15.795-25.505 28.056-17.374 15.795 25.505zm42.509-26.325-15.795-25.505 28.056-17.375 15.795 25.505z" fill="#606aea"/></g><g fill="#354cbc"><path d="m320.461 206.71-17.212 10.616 15.795 25.505 17.212-10.616z"/><path d="m266.166 232.716h33v30h-33z" transform="matrix(.85 -.527 .527 .85 -88.072 185.939)"/></g><g><path d="m241 91.14v282.076h30v-282.076l-15-25.592z" fill="#4253ce"/></g><g><path d="m271 91.14-15-25.592-.021.036v307.632h15.021z" fill="#27488f"/></g><g><path d="m148.468 373.216c1.43-4.521 2.202-9.335 2.202-14.329 0-23.397-16.93-42.839-39.207-46.747l-35.799 61.076z" fill="#ffce00"/></g><g><path d="m363.532 373.216c-1.43-4.521-2.202-9.335-2.202-14.329 0-23.397 16.93-42.839 39.207-46.747l35.799 61.076z" fill="#fdba12"/></g></g></svg>