<svg id="Capa_1" enable-background="new 0 0 512 512" height="512" viewBox="0 0 512 512" width="512" xmlns="http://www.w3.org/2000/svg"><g><g><path d="m0 256c0 43.79 11 85.02 30.39 121.07l225.61 49.67 225.61-49.67c19.39-36.05 30.39-77.28 30.39-121.07 0-46.63-12.47-90.34-34.26-128-41.698 72.091-399.22 76.52-443.48 0-21.79 37.66-34.26 81.37-34.26 128z" fill="#d0d4e3"/><path d="m34.26 128c44.26 76.52 126.99 128 221.74 128s177.48-51.48 221.74-128c-.01-.02-.03-.05-.04-.07-44.27-76.48-126.98-127.93-221.7-127.93s-177.43 51.45-221.7 127.93c-.01.02-.03.05-.04.07z" fill="#e7eaf5"/><path d="m30.39 377.07c37.146 69.08 105.094 119.143 185.47 131.801 13.077 2.06 26.484-13.708 40.14-13.708 12.199 0 24.198 15.984 35.942 14.334 82.205-11.551 151.877-62.147 189.668-132.427z" fill="#b1b7cb"/></g><circle cx="256" cy="256" fill="#616679" r="176.21"/><path d="m432.21 256c0 97.32-78.89 176.21-176.21 176.21v-352.42c97.32 0 176.21 78.89 176.21 176.21z" fill="#2d3041"/><path d="m296.14 492.66v16.21c-13.08 2.06-26.48 3.13-40.14 3.13s-27.06-1.07-40.14-3.13v-16.21c0-22.17 17.97-40.14 40.14-40.14 11.08 0 21.12 4.49 28.38 11.76 7.27 7.26 11.76 17.3 11.76 28.38z" fill="#bf2e70"/><path d="m296.14 492.66v16.21c-13.08 2.06-26.48 3.13-40.14 3.13v-59.48c11.08 0 21.12 4.49 28.38 11.76 7.27 7.26 11.76 17.3 11.76 28.38z" fill="#871155"/><path d="m386.18 256c0 56.82-36.4 105.13-87.15 122.9-4.985 1.745-16.27-9.207-21.515-8.071-5.455 1.181-4.88 14.423-10.565 14.892-3.61.31-7.26.46-10.95.46s-7.35-.15-10.97-.46c-4.492-.375-3.464-12.17-7.815-12.988-6.448-1.212-18.182 8.294-24.255 6.168-50.75-17.77-87.14-66.08-87.14-122.9 0-52.24 30.76-97.28 75.16-118.02 4.49-2.094 12.664 5.427 17.415 3.844 4.868-1.621 6.318-12.332 11.425-13.375 8.46-1.72 17.21-2.63 26.18-2.63s17.73.91 26.19 2.63c5.014 1.024 5.641 13.06 10.426 14.643 4.844 1.603 13.842-7.241 18.415-5.103 44.389 20.73 75.149 65.78 75.149 118.01z" fill="#c3f3ff"/><ellipse cx="270.787" cy="256" fill="#9feafd" rx="115.393" ry="129.339"/><path d="m386.18 256c0 71.9-58.28 130.18-130.18 130.18v-260.36c71.9 0 130.18 58.28 130.18 130.18z" fill="#70c5e8"/><path d="m349.7 445.93c0 7.36-2.98 14.03-7.81 18.85s-11.49 7.81-18.85 7.81h-134.08c-14.72 0-26.66-11.94-26.66-26.66 0-7.36 2.98-14.03 7.81-18.85s11.49-7.81 18.85-7.81h134.08c14.72 0 26.66 11.94 26.66 26.66z" fill="#f5dc6e"/><path d="m349.7 445.93c0 7.36-2.98 14.03-7.81 18.85s-11.49 7.81-18.85 7.81h-67.04v-53.32h67.04c14.72 0 26.66 11.94 26.66 26.66z" fill="#eebf36"/><g><g><g><g><g fill="#f3e9e0"><path d="m217.222 230.412h77.564v16.587h-77.564z"/><path d="m217.215 265.685h77.564v16.587h-77.564z"/></g></g><g><g><path d="m217.215 300.958h77.564v16.587h-77.564z" fill="#f3e9e0"/></g></g></g><g><g><g><path d="m217.215 137.307h77.564v16.594h-77.564z" fill="#f3e9e0"/></g></g></g><g fill="#deba9f"><path d="m256 137.307h38.778v16.594h-38.778z"/><path d="m256 265.685h38.778v16.587h-38.778z"/><path d="m256 300.958h38.778v16.587h-38.778z"/><path d="m256 230.412h38.785v16.587h-38.785z"/></g><path d="m311.03 137.99c-6.98 30.96-26.82 49.55-44.73 66.33-3.54 3.32-7 6.56-10.3 9.84-15.57 15.43-27.5 31.43-27.5 58.96h-30.14c0-46.43 25.15-70 47.34-90.79 3.54-3.33 7-6.57 10.3-9.83 12.52-12.42 22.69-25.19 26.19-44.05 10.09 2.06 19.75 5.29 28.84 9.54z" fill="#eebf36"/><path d="m311.03 137.99c-6.98 30.96-26.82 49.55-44.73 66.33-3.54 3.32-7 6.56-10.3 9.84v-41.66c12.52-12.42 22.69-25.19 26.19-44.05 10.09 2.06 19.75 5.29 28.84 9.54z" fill="#dd8051"/><path d="m313.64 273.09c0 30.19-10.63 50.71-24.17 67.09-7.28 8.81-15.4 16.43-23.17 23.71-3.54 3.32-7 6.56-10.3 9.83-3.93 3.9-7.64 7.84-10.97 12-11.15-.93-21.9-3.26-32.07-6.82 9.14-14.88 21.33-26.31 32.74-37 .61-.57 1.22-1.15 1.83-1.72 2.9-2.73 5.74-5.42 8.47-8.12 15.57-15.43 27.5-31.43 27.5-58.97s-11.93-43.53-27.5-58.97c-3.3-3.26-6.76-6.51-10.3-9.84-17.9-16.77-37.73-35.36-44.72-66.3 9.09-4.24 18.75-7.47 28.84-9.53 3.5 18.83 13.67 31.6 26.18 44.01 3.3 3.27 6.76 6.52 10.3 9.84 22.19 20.79 47.34 44.36 47.34 90.79z" fill="#d75e91"/><path d="m313.641 273.091c0 30.184-10.629 50.708-24.17 67.09-7.279 8.813-15.4 16.432-23.167 23.704-3.548 3.322-7.004 6.566-10.304 9.838v-41.662c15.569-15.435 27.499-31.435 27.499-58.97 0-27.541-11.93-43.535-27.499-58.97v-41.661c3.3 3.272 6.756 6.516 10.304 9.838 22.184 20.791 47.337 44.361 47.337 90.793z" fill="#bf2e70"/><path d="m299.03 378.9c-10.17 3.56-20.93 5.9-32.08 6.82-3.33-4.15-7.03-8.08-10.95-11.97-3.3-3.27-6.76-6.51-10.3-9.84-7.78-7.28-15.91-14.9-23.19-23.73-13.54-16.37-24.15-36.89-24.15-67.06l18.87-14.28 11.27 14.28c0 27.54 11.93 43.53 27.5 58.97 2.71 2.69 5.54 5.37 8.44 8.09.62.58 1.24 1.16 1.86 1.75 11.4 10.68 23.58 22.1 32.73 36.97z" fill="#eebf36"/><path d="m299.03 378.9c-10.17 3.56-20.93 5.9-32.08 6.82-3.33-4.15-7.03-8.08-10.95-11.97v-41.66c2.71 2.69 5.54 5.37 8.44 8.09.62.58 1.24 1.16 1.86 1.75 11.4 10.68 23.58 22.1 32.73 36.97z" fill="#dd8051"/></g></g></g></svg>