<svg id="Layer_1" enable-background="new 0 0 512 512" height="512" viewBox="0 0 512 512" width="512" xmlns="http://www.w3.org/2000/svg"><g><path d="m154.6 482.712.243 1.164c27.905 11.05 58.322 17.126 90.159 17.126 32.927 0 64.328-6.511 93.009-18.29z" fill="#1c2e7a"/><path d="m455.583 381.269c21.853-36.657 34.421-79.492 34.421-125.269 0-135.311-109.691-245.003-245.002-245.003-67.883 0-129.313 27.612-173.684 72.211l62.135 298.06h322.13z" fill="#73c3f9"/><path d="m456.644 81.569h-18.026c3.639 7.012 5.708 14.963 5.708 23.393 0 28.105-22.865 50.97-50.969 50.97-28.105 0-50.971-22.865-50.971-50.97 0-8.43 2.07-16.382 5.709-23.393h-275.118c-45.046 44.428-72.977 106.164-72.977 174.431 0 74.833 33.561 141.818 86.441 186.758h370.203c13.677 0 24.805-11.127 24.805-24.804v-311.581c0-13.677-11.128-24.804-24.805-24.804z" fill="#167cc1"/><path d="m127.921 442.758c.502-1.46.338-3.13-.565-4.524-5.552-8.565-.475-15.877 1.945-18.608.726-.819 1.184-1.838 1.287-2.927l10.823-113.939c.167-1.751-.58-3.472-1.986-4.529-61.982-46.579-30.476-130.925-23.681-147.06.637-1.512.503-3.24-.365-4.632-2.32-3.719-.632-7.052.59-8.718.633-.863.963-1.904.963-2.975v-17.593c0-1.274-.533-2.467-1.394-3.406-1.843-2.012-1.751-4.027-1.205-5.531.618-1.702.387-3.565-.688-5.022-5.247-7.109-3.42-14.291-1.567-18.357.495-1.087.559-2.274.261-3.368h-39.363c-45.045 44.428-72.976 106.164-72.976 174.431 0 74.833 33.561 141.818 86.44 186.758z" fill="#0e62a8"/><path d="m393.357 155.932c-11.065 0-21.308-3.555-29.673-9.567-119.446 0-313.072 0-337.826 0-.657 1.311-1.312 2.624-1.946 3.948v211.374c9.919 20.711 22.669 39.803 37.737 56.795h12.522l166.283-14.588 166.283 14.588h49.907c.262 0 .528-.266.528-.528v-271.589c-2.789 0-15.195 0-34.142 0-8.365 6.013-18.608 9.567-29.673 9.567z" fill="#73c3f9"/><path d="m23.911 150.313v211.374c9.919 20.711 22.669 39.803 37.737 56.795h12.522l56.719-4.976 10.52-110.745c.167-1.751-.58-3.472-1.986-4.529-61.982-46.579-30.476-130.925-23.681-147.06.637-1.512.503-3.24-.365-4.632-.037-.059-.063-.116-.098-.175-45.527 0-79.919 0-89.422 0-.657 1.311-1.311 2.624-1.946 3.948z" fill="#4fabf7"/><path d="m504.469 441.966h-155.387v8.707c0 6.111-4.971 11.083-11.083 11.083h-194.914c-6.112 0-11.083-4.972-11.083-11.083v-8.707h-46.498c21.04 18.062 45.181 32.609 71.514 42.746h298.686c3.869 0 7.729-.51 11.437-1.613.02-.006.04-.012.06-.018l25.414-7.576c11.499-3.428 19.382-14 19.386-25.999 0-4.161-3.371-7.54-7.532-7.54z" fill="#e9efff"/><path d="m85.504 441.966c21.04 18.062 45.181 32.609 71.514 42.746h69.4c-12.313-12.313 0-21.373 0-21.373s-.38-.568-1.061-1.583h-82.272c-6.112 0-11.083-4.972-11.083-11.083v-8.707z" fill="#d3dcfb"/><path d="m24.814 148.464h342.01c-14.409-8.82-24.107-24.596-24.415-42.619-98.098 0-232.282 0-291.002 0-10.25 13.197-19.179 27.469-26.593 42.619z" fill="#2a428c"/><path d="m115.968 137.822c.633-.863.963-1.904.963-2.975v-17.593c0-1.274-.533-2.467-1.394-3.406-1.843-2.012-1.751-4.027-1.205-5.531.293-.808.389-1.651.301-2.471-25.23 0-47.084 0-63.226 0-10.251 13.197-19.18 27.468-26.593 42.619h91.263c-.1-.674-.329-1.33-.699-1.924-2.321-3.72-.633-7.053.59-8.719z" fill="#1c2e7a"/><path d="m456.644 105.845c-1.651 0-5.912 0-12.34 0-.309 18.023-10.007 33.798-24.415 42.619h37.282v-42.091c.001-.261-.265-.528-.527-.528z" fill="#2a428c"/><path d="m67.975 125.891c0 5.969-4.839 10.808-10.808 10.808s-10.808-4.839-10.808-10.808 4.839-10.808 10.808-10.808 10.808 4.839 10.808 10.808z" fill="#ff4155"/><path d="m97.857 125.891c0 5.969-4.839 10.808-10.808 10.808s-10.808-4.839-10.808-10.808 4.839-10.808 10.808-10.808 10.808 4.839 10.808 10.808z" fill="#ffdd40"/><path d="m127.739 125.891c0 5.969-4.839 10.808-10.808 10.808s-10.808-4.839-10.808-10.808 4.839-10.808 10.808-10.808 10.808 4.839 10.808 10.808z" fill="#38c674"/><ellipse cx="240.454" cy="148.299" fill="#1c2e7a" rx="79.275" ry="23.106"/><path d="m184.716 132.944c-6.489 1.922-12.594 4.172-16.471 6.658.643 11.57 2.849 21.929 2.849 21.929 2.092.14 5.041.987 6.674 1.778.4-2.489 1.053-5.699 1.975-8.068.703-1.805 1.581-3.628 2.679-5.351 1.905-2.989 2.773-6.515 2.514-10.041-.145-1.984-.247-4.346-.22-6.905z" fill="#a05838"/><path d="m296.193 132.945c.027 2.521-.073 4.852-.215 6.818-.257 3.552.587 7.115 2.507 10.127 1.134 1.778 2.033 3.664 2.747 5.526.887 2.315 1.518 5.465 1.908 7.894 2.059-.997 5.761-2.084 8.278-1.728.256-8.854.976-19.032 1.215-21.998-3.873-2.479-9.968-4.723-16.44-6.639z" fill="#a05838"/><path d="m285.435 304.584 14.426-19.652c-3.117-.916-6.28-1.747-9.499-2.489-7.719-7.719-9.675-22.353-10.028-32.591-4.028 4.692-8.256 8.617-12.295 11.753-7.871 6.112-17.583 9.432-27.586 9.432s-19.715-3.32-27.585-9.432c-4.039-3.137-8.267-7.062-12.296-11.753-.353 10.238-2.309 24.872-10.028 32.591-3.219.743-6.382 1.574-9.498 2.489l14.425 19.652z" fill="#fcad6d"/><path d="m220.673 295.214c1.765.008 3.513-.454 5.042-1.336 9.33-5.381 12.983-14.997 14.359-22.85-9.868-.083-19.435-3.389-27.206-9.424-4.039-3.137-8.267-7.062-12.295-11.753-.353 10.238-2.309 24.872-10.028 32.591-3.219.743-6.381 1.574-9.498 2.489l14.425 19.652h11.688c5.445-8.17 10.791-9.381 13.513-9.369z" fill="#fd995b"/><path d="m204.192 316.462 28.612 38.979c3.792 5.166 11.508 5.166 15.299 0l28.612-38.979z" fill="#bec8f7"/><path d="m299.244 149.89c-1.92-3.012-2.765-6.575-2.507-10.127.143-1.966.242-4.297.215-6.818-14.38-4.258-34.379-6.899-56.498-6.899s-42.118 2.641-56.497 6.899c-.027 2.558.075 4.921.221 6.906.259 3.525-.609 7.051-2.514 10.041-1.098 1.723-1.976 3.546-2.679 5.351-2.279 5.855-2.943 12.204-2.09 18.422l3.171 23.097c0 33.206 17.725 55.776 32.803 67.484 7.87 6.111 17.582 9.431 27.585 9.431s19.715-3.32 27.585-9.431c15.078-11.709 32.803-34.278 32.803-67.484l3.171-23.092c.845-6.156.204-12.444-2.022-18.253-.714-1.863-1.613-3.749-2.747-5.527z" fill="#f9ba8f"/><path d="m254.951 263.69c-15.078-12.397-32.803-36.295-32.803-71.454l-3.172-24.456c-.854-6.583-.189-13.306 2.09-19.505.703-1.911 1.581-3.842 2.679-5.666 1.905-3.165 2.773-6.899 2.514-10.631-.114-1.635-.198-3.516-.219-5.544-16.325.875-30.907 3.201-42.084 6.511-.027 2.558.075 4.921.221 6.906.259 3.525-.609 7.051-2.514 10.041-1.098 1.723-1.977 3.546-2.679 5.351-2.279 5.855-2.943 12.204-2.089 18.422l3.171 23.097c0 33.206 17.725 55.776 32.803 67.484 7.87 6.111 17.583 9.431 27.585 9.431 7.491 0 14.819-1.862 21.332-5.364-2.393-1.317-4.685-2.855-6.835-4.623z" fill="#fcad6d"/><path d="m315.92 162.209c-3.12-2.859-9.334-1.41-12.02.341.589 3.665.622 7.415.114 11.118l-3.171 23.092c0 1.861-.059 3.688-.167 5.482 7.731 2.332 11.572-4.609 12.219-9.372.279-2.05.734-4.071 1.365-6.043 2.056-6.423 9.476-17.455 1.66-24.618z" fill="#fcad6d"/><path d="m310.048 182.213c-2.598 0-4.982-.893-6.882-2.378l-2.324 16.926c0 1.861-.059 3.688-.167 5.482 7.732 2.332 11.572-4.609 12.219-9.372.278-2.05.734-4.071 1.365-6.043.646-2.018 1.821-4.491 2.887-7.155-1.931 1.586-4.403 2.54-7.098 2.54z" fill="#fd995b"/><path d="m164.988 162.209c3.12-2.859 9.334-1.41 12.02.341-.589 3.665-.622 7.415-.114 11.118l3.171 23.092c0 1.861.059 3.688.167 5.482-7.731 2.332-11.572-4.609-12.219-9.372-.279-2.05-.734-4.071-1.365-6.043-2.057-6.423-9.475-17.455-1.66-24.618z" fill="#fcad6d"/><path d="m177.778 180.095c-1.84 1.327-4.092 2.118-6.534 2.118-2.984 0-5.688-1.175-7.694-3.078 1.119 2.869 2.41 5.54 3.099 7.693.631 1.972 1.086 3.993 1.365 6.043.647 4.763 4.487 11.704 12.219 9.372-.108-1.794-.167-3.621-.167-5.482z" fill="#fd995b"/><g><path d="m359.367 62.719-108.484-49.456c-6.625-3.02-14.234-3.02-20.859 0l-108.483 49.456c-10.06 4.586-10.06 18.877 0 23.463l41.559 18.946v-11.3c0-5.09 8.163-10.508 21.835-14.494 30.638-8.93 80.414-8.926 111.037 0 13.673 3.986 21.835 9.404 21.835 14.494v11.3l41.559-18.946c10.061-4.587 10.061-18.877.001-23.463z" fill="#3c58a0"/></g><path d="m121.541 62.719c-10.06 4.586-10.06 18.877 0 23.463l41.559 18.946v-11.3c0-5.09 8.163-10.508 21.835-14.494 13.728-4.001 31.299-6.203 49.267-6.618 3.272-1.394 6.252-1.994 6.252-1.994-43.758-23.232-10.43-57.459-10.43-57.459z" fill="#2a428c"/><path d="m240.454 70.722c-43.782 0-79.275 10.345-79.275 23.105v54.472h.412c4.072-11.648 37.826-20.736 78.863-20.736 41.038 0 74.792 9.088 78.863 20.736h.412v-54.472c0-12.761-35.493-23.105-79.275-23.105z" fill="#2a428c"/><path d="m240.454 70.722c-43.783 0-79.275 10.345-79.275 23.105v54.472h.412c3.871-11.074 34.577-19.828 72.858-20.664v-.006c-8.835-3.405-8.656-12.435-8.656-12.435s0-25.438 0-33.484c-.001-8.046 14.661-10.988 14.661-10.988z" fill="#1c2e7a"/><path d="m406.737 418.482c-.579-2.43-1.211-4.892-1.905-7.385 0 0 6.04-56.146-25.296-81.858l-130.956 79.44c-4.891 2.967-11.363 2.967-16.254 0l-130.955-79.439c-31.336 25.712-25.296 81.858-25.296 81.858-.694 2.493-1.325 4.955-1.905 7.385h332.567z" fill="#3c58a0"/><path d="m130.418 418.482v-30.745c0-12.778 11.278-18.453 19.423-20.885 2.538-.758 4.625-2.426 5.973-4.587l-54.442-33.026c-31.336 25.712-25.296 81.858-25.296 81.858-.694 2.493-1.325 4.955-1.905 7.385z" fill="#2a428c"/><path d="m254.746 307.151c-.707-1.959-.54-4.089.399-5.877h-14.82-14.137c.939 1.788 1.107 3.918.399 5.877-.842 2.333-2.15 5.357-4.06 8.511l8.644 11.64h18.565l8.877-11.954c-1.806-3.041-3.053-5.942-3.867-8.197z" fill="#e80054"/><path d="m249.737 327.302c-6.687 0-11.935 0-18.565 0l-5.994 17.749 7.627 10.39c3.792 5.166 11.508 5.166 15.3 0l7.627-10.39z" fill="#ff7186"/><path d="m236.559 358.254 4.936-15.588c1.293-4.082 5.045-6.884 9.326-6.965l1.741-.033-2.825-8.365c-6.687 0-11.936 0-18.565 0l-5.994 17.749 7.626 10.39c1.076 1.465 2.472 2.5 4 3.134z" fill="#ff4155"/><path d="m270.414 328.821 27.998-38.142c.393-3.654.528-6.011.528-6.011l-9.215-11.413c-2.352-2.913-6.727-3.097-9.315-.391l-25.598 26.761c-1.918 2.005-2.527 4.917-1.585 7.526 2.098 5.811 7.022 15.895 17.187 21.67z" fill="#e9efff"/><path d="m210.617 328.988c10.369-5.746 15.371-15.969 17.489-21.838.942-2.609.333-5.522-1.585-7.526l-25.598-26.761c-2.588-2.705-6.963-2.522-9.315.391l-9.639 11.413s.155 2.39.585 6.089z" fill="#e9efff"/><path d="m220.673 295.214c.508.002 1.014-.045 1.514-.12l-21.265-22.231c-2.587-2.705-6.963-2.522-9.315.391l-9.639 11.413s.155 2.39.585 6.089l17.278 23.539c1.904-1.076 3.447-2.698 4.427-4.662 6.362-12.756 13.209-14.434 16.415-14.419z" fill="#d3dcfb"/><path d="m379.211 315.477c-2.484-1.507-5.151-2.851-8.015-4.005l-9.171-3.402-114.093 78.808c-4.5 3.108-10.454 3.108-14.954 0l-113.694-78.533-15.043 5.682c-.884.473-1.747.966-2.588 1.478-5.787 3.519-5.683 11.976.108 15.489l130.567 79.204c4.994 3.03 11.26 3.03 16.254 0l130.562-79.201c5.809-3.526 5.876-11.995.067-15.52z" fill="#ffdd40"/><path d="m119.283 308.345-15.043 5.682c-.884.473-1.747.966-2.588 1.478-5.787 3.519-5.683 11.976.108 15.488l53.306 32.336c1.329-1.651 2.176-3.696 2.367-5.897.542-6.244 3.548-12.093 7.762-17.374z" fill="#ffb332"/><path d="m248.104 353.923c-3.792 5.166-11.508 5.166-15.3 0l-50.836-69.256-64.107 24.214 115.115 79.514c4.5 3.108 10.454 3.108 14.954 0l115.524-79.795-64.514-23.931z" fill="#ffb332"/><path d="m164.422 341.042c9.915-13.074 27.553-22.795 34.924-26.477 1.113-.556 2.111-1.3 2.965-2.183l-20.343-27.714-64.107 24.214z" fill="#ff9100"/><g><path d="m287.841 181.769c-5.796 0-10.495-4.698-10.495-10.495v-29.716c0-5.796 4.699-10.495 10.495-10.495s10.495 4.699 10.495 10.495v29.716c0 5.797-4.699 10.495-10.495 10.495z" fill="#ffdd40"/></g><path d="m287.841 131.064c-5.796 0-10.495 4.699-10.495 10.495v25.353c0-5.796 4.699-10.495 10.495-10.495s10.495 4.699 10.495 10.495v-25.353c0-5.797-4.699-10.495-10.495-10.495z" fill="#ffb332"/><g><path d="m287.841 125.232c-4.347 0-7.871-3.524-7.871-7.871v-92.846c0-4.347 3.524-7.871 7.871-7.871s7.871 3.524 7.871 7.871v92.847c0 4.346-3.524 7.87-7.871 7.87z" fill="#ffdd40"/></g><ellipse cx="287.841" cy="130.082" fill="#ffb332" rx="14.888" ry="14.888" transform="matrix(.528 -.849 .849 .528 25.328 305.754)"/><circle cx="393.357" cy="104.962" fill="#38c674" r="52.544"/><path d="m340.813 104.963c0 29.019 23.525 52.544 52.544 52.544 9.879 0 19.119-2.732 27.014-7.474-21.958-7.998-16.586-30.53-16.586-30.53l-19.767-7.767-6.207-13.163c-17.137-22.738-2.233-42.942-2.112-43.105-20.331 7.255-34.886 26.671-34.886 49.495z" fill="#24b55e"/><g><path d="m390.132 129.896c-2.014 0-4.029-.769-5.565-2.305l-17.886-17.886c-3.074-3.074-3.074-8.057 0-11.131s8.057-3.075 11.131 0l12.321 12.32 23.553-23.553c3.074-3.074 8.057-3.074 11.131 0s3.074 8.058 0 11.131l-29.119 29.119c-1.537 1.536-3.552 2.305-5.566 2.305z" fill="#e9efff"/></g><path d="m130.418 441.966v8.707c0 6.966 5.7 12.666 12.666 12.666h194.916c6.967 0 12.666-5.7 12.666-12.666v-8.707z" fill="#d3dcfb"/><path d="m213.751 450.673v-8.707h-83.334v8.707c0 6.966 5.7 12.666 12.666 12.666h83.334c-6.966 0-12.666-5.7-12.666-12.666z" fill="#bec8f7"/></g></svg>