<?xml version="1.0" encoding="iso-8859-1"?>
<!-- Generator: Adobe Illustrator 19.0.0, SVG Export Plug-In . SVG Version: 6.00 Build 0)  -->
<svg version="1.1" id="Capa_1" xmlns="http://www.w3.org/2000/svg" xmlns:xlink="http://www.w3.org/1999/xlink" x="0px" y="0px"
	 viewBox="0 0 512 512" style="enable-background:new 0 0 512 512;" xml:space="preserve">
<path style="fill:#63A0B2;" d="M433.604,440.354C387.571,484.712,324.976,512,256,512c-68.672,0-131.025-27.044-177.001-71.057
	c0.296-1.624,0.459-3.295,0.459-5.005c0-15.314-12.415-27.729-27.729-27.729c-0.517,0-1.029,0.017-1.539,0.045
	C18.658,365.699,0,313.031,0,256C0,114.615,114.615,0,256,0s256,114.615,256,256c0,57.02-18.651,109.68-50.173,152.23
	c-0.282-0.008-0.563-0.021-0.847-0.021c-15.314,0-27.729,12.415-27.729,27.729C433.25,437.441,433.374,438.915,433.604,440.354z"/>
<path style="fill:#A82B2B;" d="M340,60v30c0,16.569-13.431,30-30,30h-20c-16.569,0-30-13.431-30-30V60c0-16.569,13.431-30,30-30h20
	C326.569,30,340,43.431,340,60z"/>
<path style="fill:#FFE7BF;" d="M462,407.992c-8.736,11.821-18.458,22.867-29.057,33.008H79.057
	C68.458,430.86,58.736,419.813,50,407.992V111h412V407.992z"/>
<path style="fill:#FFF5F5;" d="M462,407.992c-8.736,11.821-18.458,22.867-29.057,33.008H79.057
	c-3.096-2.962-6.113-6.004-9.057-9.116V111h392V407.992z"/>
<path style="fill:#FFAA00;" d="M462,121H50V81c0-5.523,4.477-10,10-10h392c5.523,0,10,4.477,10,10V121z"/>
<path style="fill:#FFC143;" d="M462,121H70V81c0-5.523,4.477-10,10-10h372c5.523,0,10,4.477,10,10V121z"/>
<path style="fill:#FF9500;" d="M100,96c0,5.523-4.477,10-10,10s-10-4.477-10-10s4.477-10,10-10S100,90.477,100,96z M120,86
	c-5.523,0-10,4.477-10,10s4.477,10,10,10s10-4.477,10-10S125.523,86,120,86z M150,86c-5.523,0-10,4.477-10,10s4.477,10,10,10
	s10-4.477,10-10S155.523,86,150,86z"/>
<path style="fill:#F89696;" d="M427,410H85c-2.761,0-5-2.239-5-5V205c0-2.761,2.239-5,5-5h342c2.761,0,5,2.239,5,5v200
	C432,407.761,429.761,410,427,410z"/>
<path style="fill:#FFE1A8;" d="M210,147v11c0,1.105-0.896,2-2,2H82c-1.104,0-2-0.895-2-2v-11c0-1.105,0.896-2,2-2h126
	C209.104,145,210,145.895,210,147z M148,170H82c-1.104,0-2,0.895-2,2v11c0,1.105,0.896,2,2,2h66c1.104,0,2-0.895,2-2v-11
	C150,170.895,149.104,170,148,170z"/>
<path style="fill:#EA4444;" d="M430,60v120l-55-30l-55,30V60c0-16.568-13.431-30-30-30h30h80C416.569,30,430,43.431,430,60z
	 M256,235c-38.66,0-70,31.34-70,70s31.34,70,70,70s70-31.34,70-70S294.66,235,256,235z"/>
<path style="fill:#FFF5F5;" d="M288.727,309.124l-49.798,34.148c-3.318,2.275-7.828-0.1-7.828-4.124v-68.297
	c0-4.023,4.51-6.399,7.828-4.124l49.798,34.148C291.623,302.863,291.623,307.137,288.727,309.124z"/>
<g>
</g>
<g>
</g>
<g>
</g>
<g>
</g>
<g>
</g>
<g>
</g>
<g>
</g>
<g>
</g>
<g>
</g>
<g>
</g>
<g>
</g>
<g>
</g>
<g>
</g>
<g>
</g>
<g>
</g>
</svg>
