<svg id="Capa_1" enable-background="new 0 0 512 512" height="512" viewBox="0 0 512 512" width="512" xmlns="http://www.w3.org/2000/svg"><path d="m511.999 255.184c.322 103.267-60.507 192.359-148.319 233.126l-.072.011c-93.452 13.791-188.887-1.245-273.572-43.1l-13.516-6.68c-47.23-46.441-76.52-111.071-76.52-182.541 0-141.201 114.33-255.71 255.464-255.999 141.744-.291 256.093 113.439 256.535 255.183z" fill="#6c82ff"/><path d="m512 256c0 87.11-43.52 164.07-110 210.31-12.06 8.39-24.87 15.76-38.32 22-93.491 13.807-188.97-1.231-273.691-43.108l-13.459-6.652-.01-.01c-47.23-46.45-76.52-111.08-76.52-182.54 0-46.22 12.25-89.57 33.68-127 44.12 77.07 127.16 129 222.32 129s178.21-51.93 222.32-129c21.43 37.43 33.68 80.78 33.68 127z" fill="#4d6df4"/><path d="m435.476 153.053-.001 284.266c0 1.598-1.295 2.893-2.893 2.893h-284.268v-358.95h215.37z" fill="#ffe400"/><path d="m435.476 153.053-.001 284.266c0 1.598-1.295 2.893-2.893 2.893h-140.688v-358.95h71.79z" fill="#ff9f00"/><path d="m291.894 81.262h71.79v358.95h-71.79z" fill="#ffc300"/><path d="m435.476 153.053h-71.792v-71.791z" fill="#ec781b"/><path d="m363.69 224.84-.01 263.47c-32.73 15.2-69.22 23.69-107.68 23.69-12.18 0-24.17-.85-35.9-2.49-55.58-7.8-105.43-33.45-143.58-70.97v-285.49h215.37z" fill="#fff"/><path d="m363.69 224.84-.01 263.47c-32.73 15.2-69.22 23.69-107.68 23.69-12.18 0-24.17-.85-35.9-2.49v-356.46h71.79z" fill="#b3f4ff"/><path d="m291.89 153.05v356.45c-11.73 1.65-23.71 2.5-35.89 2.5s-24.17-.85-35.9-2.49v-356.46z" fill="#d1f6ff"/><path d="m363.686 224.841h-71.792v-71.791z" fill="#fff"/><g fill="#374c81"><path d="m209.492 364.724h-23.446c-1.412 0-2.674.884-3.157 2.211l-2.249 6.183c-.483 1.327-1.744 2.211-3.157 2.211h-18.079c-2.404 0-4.03-2.451-3.094-4.666l28.873-68.377c.525-1.244 1.744-2.052 3.094-2.052h21.007c1.367 0 2.597.828 3.112 2.094l27.8 68.377c.898 2.209-.727 4.624-3.112 4.624h-19.094c-1.423 0-2.692-.897-3.167-2.239l-2.166-6.127c-.472-1.342-1.741-2.239-3.165-2.239zm-5.301-22.255-3.017-8.589c-1.047-2.981-5.256-2.999-6.329-.027l-3.101 8.589c-.79 2.189.832 4.5 3.159 4.5h6.117c2.317-.001 3.938-2.288 3.171-4.473z"/><path d="m280.493 332.372h-9.793c-2.029 0-3.673 1.645-3.673 3.673v9.793c0 2.029-1.645 3.673-3.673 3.673h-7.651c-2.029 0-3.673-1.645-3.673-3.673v-9.793c0-2.029-1.645-3.673-3.673-3.673h-9.793c-2.029 0-3.673-1.645-3.673-3.673v-7.651c0-2.029 1.645-3.673 3.673-3.673h9.793c2.029 0 3.673-1.645 3.673-3.673v-9.793c0-2.029 1.645-3.673 3.673-3.673h7.651c2.029 0 3.673 1.645 3.673 3.673v9.793c0 2.029 1.645 3.673 3.673 3.673h9.793c2.029 0 3.673 1.645 3.673 3.673v7.651c0 2.028-1.645 3.673-3.673 3.673z"/></g></svg>