<svg id="Capa_1" enable-background="new 0 0 512 512" height="512" viewBox="0 0 512 512" width="512" xmlns="http://www.w3.org/2000/svg"><g><g><path d="m512 256c0 141.387-114.613 256-256 256s-256-114.613-256-256 114.613-256 256-256 256 114.613 256 256zm0 0" fill="#a8eb58"/><path d="m512 256c0 26.051-3.891 51.191-11.129 74.871-5.031 16.469-11.672 32.231-19.75 47.109-8.25 15.2-18 29.461-29.051 42.61-.582.691-1.16 1.379-1.75 2.058-46.941 54.704-116.59 89.352-194.32 89.352s-147.379-34.648-194.309-89.352c-.589-.687-1.179-1.378-1.75-2.07-11.062-13.137-20.812-27.398-29.05-42.598-3.289-6.031-6.332-12.21-9.121-18.531-14-31.629-21.77-66.629-21.77-103.449 0-46.219 12.242-89.57 33.672-127 44.121 77.07 127.168 129 222.328 129s178.211-51.93 222.32-129c21.43 37.43 33.68 80.781 33.68 127zm0 0" fill="#80cf8c"/><path d="m481.262 377.699c-7.16 13.223-15.434 25.742-24.723 37.43-8.437 10.633-17.719 20.57-27.719 29.723-45.539 41.699-106.211 67.148-172.82 67.148s-127.281-25.449-172.82-67.148c-10-9.153-19.282-19.09-27.719-29.723-9.289-11.688-17.563-24.207-24.723-37.43zm0 0" fill="#599d8a"/></g><g><path d="m406.469 134.156c-93.639 0-141.591-42.234-142.069-42.662l-8.4-7.462-.037-.032-8.364 7.494c-.478.429-48.43 42.662-142.068 42.662h-12.539v179.26c0 91.043 82.079 166.207 158.355 196.722l4.653 1.862 4.653-1.861c76.275-30.515 158.355-105.679 158.355-196.722v-179.26h-12.539z" fill="#fbf5eb"/><path d="m419.008 313.417v-179.26h-12.539c-93.639 0-141.591-42.234-142.069-42.662l-8.4-7.462v427.967l4.653-1.861c76.275-30.515 158.355-105.679 158.355-196.722z" fill="#dce0ef"/><path d="m256 116.682c-17.829 12.698-63.712 39.576-137.93 42.319v154.415c0 74.181 68.622 142.096 137.93 171.509 69.308-29.413 137.93-97.328 137.93-171.509v-154.414c-74.218-2.743-120.101-29.621-137.93-42.32z" fill="#a4e2fd"/><path d="m256 116.682c-13.372 9.524-40.097 26.031-86.342 36.079l-1.496 164.111c0 74.181 18.53 138.64 87.838 168.053 69.308-29.413 137.93-97.328 137.93-171.509v-154.414c-74.218-2.743-120.101-29.621-137.93-42.32z" fill="#8ab8ec"/><path d="m393.93 313.417v-154.415c-74.218-2.743-120.101-29.621-137.93-42.319v368.243c69.308-29.413 137.93-97.328 137.93-171.509z" fill="#728ee4"/><path d="m256 323.078h-87.773v50.156c0 25.984 44.083 37.617 87.773 37.617s87.773-11.633 87.773-37.617v-50.156z" fill="#dce0ef"/><path d="m343.773 373.234v-50.156h-87.773v87.773c43.691.001 87.773-11.632 87.773-37.617z" fill="#cad0e7"/><path d="m256 272.922h-87.773v50.156c0 25.984 44.083 37.617 87.773 37.617s87.773-11.633 87.773-37.617v-50.156z" fill="#fbf5eb"/><path d="m343.773 323.078v-50.156h-87.773v87.773c43.691 0 87.773-11.633 87.773-37.617z" fill="#dce0ef"/><path d="m256 222.766h-87.773v50.156c0 25.984 44.083 37.617 87.773 37.617s87.773-11.633 87.773-37.617v-50.156z" fill="#dce0ef"/><path d="m343.773 272.922v-50.156h-87.773v87.773c43.691 0 87.773-11.633 87.773-37.617z" fill="#cad0e7"/><ellipse cx="256" cy="222.766" fill="#fbf5eb" rx="87.773" ry="37.617"/><path d="m343.773 222.766c0-25.984-44.083-37.617-87.773-37.617v75.234c43.691 0 87.773-11.633 87.773-37.617z" fill="#dce0ef"/></g></g></svg>