<svg id="Layer_1" enable-background="new 0 0 512 512" height="512" viewBox="0 0 512 512" width="512" xmlns="http://www.w3.org/2000/svg"><g><path d="m452.983 406.689c30.169-40.722 48.019-91.12 48.019-145.691 0-135.311-109.691-245.003-245.002-245.003s-245.002 109.692-245.002 245.003c0 54.571 17.851 104.969 48.019 145.691z" fill="#ffdd40"/><path d="m85.593 437.007h340.814c10.316-9.991 19.759-20.879 28.198-32.54v-357.535c0-22.606-18.326-40.932-40.933-40.932h-315.345c-22.606 0-40.932 18.326-40.932 40.932v357.534c8.439 11.662 17.882 22.55 28.198 32.541z" fill="#167cc1"/><path d="m236.775 415.587c1.761-1.056 2.746-3.035 2.522-5.076l-30.207-276.068c-.239-2.181-1.802-4.01-3.936-4.52-37.648-8.99-33.637-46.94-31.99-56.522.226-1.312-.113-2.63-.837-3.747-1.658-2.555-.782-4.607.13-5.802.72-.944 1.141-2.078 1.141-3.265v-16.323c0-1.055-.31-2.096-.918-2.958-1.344-1.905-1.194-3.683-.67-5.02.667-1.704.357-3.602-.758-5.054-6.407-8.337-3.807-16.187-1.008-20.852.827-1.378.916-2.978.414-4.379h-72.33c-22.607-.001-40.933 18.325-40.933 40.931v357.534c8.439 11.662 17.882 22.55 28.198 32.541h126.702c8.607-11.114 19.399-18.373 24.48-21.42z" fill="#0e62a8"/><path d="m85.287 436.71c44.123 42.876 104.329 69.29 170.713 69.29s126.59-26.414 170.713-69.29c0-123.825 0-348.458 0-367.58h-341.426z" fill="#e9efff"/><path d="m85.287 436.71c33.279 32.338 75.71 55.303 123.036 64.643-26.433-48.577 16.585-78.649 28.452-85.766 1.761-1.056 2.746-3.035 2.522-5.076l-30.207-276.068c-.239-2.181-1.802-4.01-3.936-4.52-37.648-8.99-33.637-46.94-31.99-56.522.226-1.312-.113-2.63-.837-3.747-.115-.177-.215-.352-.307-.523h-86.733z" fill="#d3dcfb"/><g><path d="m333.349 189.654c24.526 10.116 44.043 24.892 55.562 42.418-16.086-58.302-69.494-101.121-132.911-101.121 31.987 0 60.258 23.204 77.349 58.703z" fill="#73c3f9"/><path d="m333.349 347.993c-17.091 35.499-45.362 58.703-77.349 58.703 63.417 0 116.825-42.819 132.911-101.121-11.519 17.527-31.036 32.302-55.562 42.418z" fill="#73c3f9"/><path d="m178.651 347.993c-24.526-10.116-44.043-24.892-55.562-42.418-.395-1.431-.766-2.873-1.116-4.322 14.586 60.495 69.053 105.443 134.027 105.443-31.987 0-60.257-23.204-77.349-58.703z" fill="#1e9ef4"/><path d="m178.651 189.654c17.092-35.499 45.362-58.703 77.349-58.703-64.974 0-119.441 44.948-134.027 105.443.35-1.45.721-2.891 1.116-4.322 11.519-17.526 31.036-32.302 55.562-42.418z" fill="#1e9ef4"/><path d="m333.349 347.993c-14.697 6.062-31.193 10.447-48.856 12.741-7 28.206-17.17 45.962-28.492 45.962 31.986 0 60.257-23.204 77.348-58.703z" fill="#4fabf7"/><path d="m178.651 189.654c14.697-6.062 31.193-10.447 48.856-12.741 7-28.206 17.171-45.962 28.493-45.962-31.987 0-60.257 23.204-77.349 58.703z" fill="#1886ea"/><path d="m227.508 360.734c-17.664-2.294-34.159-6.679-48.856-12.741 17.092 35.499 45.362 58.703 77.349 58.703-11.323 0-21.493-17.756-28.493-45.962z" fill="#1886ea"/><path d="m284.493 176.913c17.664 2.294 34.159 6.679 48.856 12.741-17.091-35.499-45.362-58.703-77.349-58.703 11.322 0 21.493 17.757 28.493 45.962z" fill="#4fabf7"/><path d="m227.508 176.913c18.429-2.394 37.732-2.501 56.985 0-7-28.206-17.17-45.962-28.492-45.962-11.323 0-21.493 17.757-28.493 45.962z" fill="#73c3f9"/><path d="m284.493 360.734c-18.39 2.389-37.694 2.506-56.985 0 7 28.206 17.171 45.962 28.493 45.962 11.321 0 21.492-17.756 28.492-45.962z" fill="#73c3f9"/><path d="m333.349 189.654c7.229 15.014 12.457 32.225 15.12 50.814 27.878 6.994 45.396 17.104 45.403 28.348-.001-12.013-1.565-24.426-4.955-36.722 0 0-.004-.015-.006-.023-11.519-17.525-31.036-32.301-55.562-42.417z" fill="#4fabf7"/><path d="m178.651 347.993c-7.229-15.014-12.457-32.225-15.12-50.814-27.883-6.995-45.403-17.107-45.403-28.355 0 1.438.029 2.868.073 4.295.334 10.931 1.967 21.868 4.889 32.456 11.518 17.526 31.035 32.302 55.561 42.418z" fill="#1886ea"/><path d="m163.531 240.469c2.663-18.589 7.892-35.801 15.12-50.814-24.526 10.116-44.043 24.892-55.562 42.418-3.338 12.097-4.962 24.545-4.962 36.751.001-11.248 17.521-21.36 45.404-28.355z" fill="#1886ea"/><path d="m393.799 273.128c.044-1.427.073-2.859.073-4.297-.007 11.245-17.526 21.354-45.403 28.348-2.663 18.589-7.891 35.801-15.12 50.814 24.526-10.116 44.043-24.891 55.562-42.418.636-2.989 4.351-14.842 4.888-32.447z" fill="#4fabf7"/><path d="m284.493 360.734c17.664-2.294 34.159-6.679 48.856-12.741 7.229-15.014 12.457-32.225 15.12-50.814-15.685 3.935-34.651 6.882-55.623 8.491-1.59 20.725-4.488 39.487-8.353 55.064z" fill="#73c3f9"/><path d="m348.469 240.469c-2.663-18.589-7.891-35.801-15.12-50.814-14.697-6.062-31.193-10.447-48.856-12.741 3.866 15.577 6.764 34.339 8.354 55.065 20.971 1.608 39.937 4.555 55.622 8.49z" fill="#73c3f9"/><path d="m163.531 297.179c2.663 18.589 7.892 35.801 15.12 50.814 14.697 6.062 31.193 10.447 48.856 12.741-3.866-15.577-6.764-34.339-8.354-55.065-20.971-1.608-39.937-4.555-55.622-8.49z" fill="#1e9ef4"/><path d="m227.508 176.913c-17.664 2.294-34.159 6.679-48.856 12.741-7.229 15.014-12.457 32.225-15.12 50.814 15.685-3.935 34.651-6.882 55.623-8.491 1.589-20.724 4.487-39.487 8.353-55.064z" fill="#1e9ef4"/><path d="m219.154 305.669c1.59 20.725 4.488 39.488 8.354 55.065 18.429 2.394 37.732 2.501 56.985 0 3.866-15.577 6.764-34.339 8.354-55.065-23.464 1.801-49.083 1.888-73.693 0z" fill="#4fabf7"/><path d="m292.846 231.978c-1.59-20.725-4.488-39.488-8.354-55.065-18.39-2.389-37.694-2.506-56.985 0-3.866 15.577-6.764 34.339-8.354 55.065 23.467-1.8 49.086-1.888 73.693 0z" fill="#4fabf7"/><path d="m163.531 240.469c-27.883 6.995-45.403 17.108-45.403 28.355 0 11.248 17.52 21.36 45.403 28.355-2.672-18.655-2.673-38.047 0-56.71z" fill="#1e9ef4"/><path d="m393.872 268.817c-.007-11.245-17.526-21.354-45.403-28.348 2.672 18.652 2.674 38.046 0 56.71 27.877-6.994 45.396-17.103 45.403-28.348v-.007s0-.005 0-.007z" fill="#73c3f9"/><path d="m348.469 240.469c-15.685-3.935-34.651-6.882-55.623-8.491 1.8 23.468 1.888 49.084 0 73.692 20.972-1.609 39.938-4.556 55.623-8.491 2.672-18.653 2.674-38.047 0-56.71z" fill="#4fabf7"/><path d="m219.154 231.978c-20.972 1.609-39.938 4.556-55.623 8.491-2.672 18.654-2.673 38.046 0 56.71 15.685 3.935 34.651 6.882 55.623 8.491-1.8-23.468-1.887-49.085 0-73.692z" fill="#1886ea"/><path d="m219.154 231.978c-1.8 23.468-1.887 49.084 0 73.692 23.465 1.8 49.084 1.888 73.692 0 1.8-23.468 1.888-49.084 0-73.692-23.463-1.8-49.082-1.888-73.692 0z" fill="#73c3f9"/><g><path d="m256 414.867c-80.528 0-146.043-65.515-146.043-146.043s65.515-146.043 146.043-146.043 146.042 65.515 146.042 146.043c.001 80.528-65.513 146.043-146.042 146.043zm0-275.746c-71.518 0-129.703 58.184-129.703 129.703s58.185 129.702 129.703 129.702 129.702-58.184 129.702-129.703-58.183-129.702-129.702-129.702z" fill="#9bd8f9"/></g><path d="m242.172 397.788c-65.04-6.925-115.874-62.117-115.874-128.965 0-66.988 51.046-122.275 116.283-129.011v-.094c-9.236-4.618-6.175-13.027-4.841-15.798-71.941 9.014-127.782 70.559-127.782 144.903 0 75.009 56.845 136.981 129.715 145.125-7.867-8.851.821-15.081 2.499-16.16z" fill="#73c3f9"/></g><path d="m413.673 33.891h-315.345c-7.173 0-13.041 5.869-13.041 13.041v24.263h341.427v-24.263c-.001-7.172-5.869-13.041-13.041-13.041z" fill="#2a428c"/><path d="m172.456 63.852c.72-.944 1.141-2.078 1.141-3.265v-16.323c0-1.055-.31-2.096-.918-2.958-1.344-1.905-1.194-3.683-.67-5.02.305-.778.396-1.596.31-2.394h-73.99c-7.172 0-13.041 5.869-13.041 13.041v24.264h87.729c-.154-.539-.378-1.062-.689-1.542-1.66-2.556-.783-4.608.128-5.803z" fill="#1c2e7a"/><g><circle cx="117.427" cy="52.544" fill="#ff4155" r="10.158"/></g><g><circle cx="145.512" cy="52.544" fill="#ffdd40" r="10.158"/></g><g><circle cx="173.597" cy="52.544" fill="#38c674" r="10.158"/></g><g><path d="m319.037 60.292h-101.924c-4.279 0-7.748-3.468-7.748-7.748 0-4.279 3.469-7.748 7.748-7.748h101.924c4.279 0 7.748 3.468 7.748 7.748 0 4.279-3.469 7.748-7.748 7.748z" fill="#3c58a0"/></g><g><path d="m401.834 60.292h-8.832c-4.279 0-7.748-3.468-7.748-7.748 0-4.279 3.469-7.748 7.748-7.748h8.832c4.279 0 7.748 3.468 7.748 7.748-.001 4.279-3.47 7.748-7.748 7.748z" fill="#3c58a0"/></g><g><path d="m371.127 60.292h-8.832c-4.279 0-7.748-3.468-7.748-7.748 0-4.279 3.469-7.748 7.748-7.748h8.832c4.279 0 7.748 3.468 7.748 7.748 0 4.279-3.469 7.748-7.748 7.748z" fill="#3c58a0"/></g><path d="m456.883 134.17h-65.438c-30.315 0-55.118 24.803-55.118 55.118 0 26.467 18.908 48.725 43.882 53.949 2.594.543 3.931 3.48 2.549 5.741-3.112 5.091-7.149 9.72-12.13 13.605-4.827 3.764-2.111 11.482 4.009 11.465 18.468-.051 35.563-9.894 45.119-25.262 1.688-2.715 4.641-4.381 7.839-4.381h29.287c30.315 0 55.118-24.803 55.118-55.118 0-30.314-24.802-55.117-55.117-55.117z" fill="#38c674"/><path d="m55.117 134.17h65.438c30.315 0 55.118 24.803 55.118 55.118 0 26.467-18.908 48.725-43.882 53.949-2.594.543-3.931 3.48-2.549 5.741 3.111 5.091 7.149 9.72 12.13 13.605 4.827 3.764 2.111 11.482-4.009 11.465-18.468-.051-35.563-9.894-45.119-25.262-1.688-2.715-4.641-4.381-7.839-4.381h-29.287c-30.315 0-55.118-24.803-55.118-55.118 0-30.314 24.803-55.117 55.117-55.117z" fill="#ff4155"/><path d="m391.445 134.17c-30.315 0-55.118 24.803-55.118 55.118 0 26.467 18.908 48.725 43.882 53.949 2.594.543 3.932 3.48 2.549 5.741-3.112 5.091-7.149 9.72-12.13 13.605-4.827 3.764-2.111 11.482 4.009 11.465 18.469-.051 35.563-9.893 45.119-25.262 1.689-2.715 4.642-4.381 7.839-4.381h18.769c-8.678-8.494-.034-19.625-.034-19.625l-22.13-70.983c-13.88-7.335-3.87-19.627-3.87-19.627z" fill="#24b55e"/><path d="m453.263 214.295-20.646-54.708c-.027-.07-.055-.141-.083-.211-1.395-3.391-4.663-5.58-8.328-5.58h-.006c-3.673.004-6.94 2.2-8.329 5.597-.024.058-.046.116-.069.175l-20.835 54.705c-1.523 3.998.484 8.474 4.483 9.997 3.997 1.522 8.475-.484 9.998-4.483l3.288-8.633h22.781l3.25 8.612c1.516 4.016 5.994 6.019 9.984 4.512 4.003-1.509 6.023-5.979 4.512-9.983zm-34.626-18.636 5.541-14.549 5.49 14.549z" fill="#e9efff"/><path d="m55.117 134.17c-30.314 0-55.117 24.803-55.117 55.117v.001c0 30.314 24.803 55.118 55.118 55.118h29.287c3.197 0 6.151 1.666 7.839 4.381 9.556 15.369 26.65 25.211 45.119 25.262 6.121.017 8.836-7.701 4.009-11.465-4.98-3.885-9.018-8.515-12.129-13.605-.901-1.474-.641-3.232.364-4.43-19.224-2.459-12.86-19.77-12.86-19.77s-5.166-19.146-5.166-35.491c0-16.344-23.903-35.491-23.903-35.491-13.403-7.585-2.391-19.627-2.391-19.627z" fill="#e80054"/><path d="m117.804 208.019c3.395-5.441 5.365-11.859 5.365-18.731 0-19.57-15.921-35.491-35.491-35.491s-35.491 15.921-35.491 35.491 15.921 35.491 35.491 35.491c7.099 0 13.712-2.103 19.265-5.707l3.214 3.215c3.027 3.026 7.931 3.024 10.957 0 3.026-3.026 3.026-7.931 0-10.958zm-30.127 1.264c-11.026 0-19.996-8.97-19.996-19.995s8.97-19.995 19.996-19.995 19.995 8.97 19.995 19.995c0 2.551-.498 4.982-1.373 7.227l-2.938-2.938c-3.025-3.024-7.931-3.024-10.957 0-3.026 3.027-3.026 7.931 0 10.958l3.133 3.133c-2.413 1.037-5.07 1.615-7.86 1.615z" fill="#e9efff"/></g></svg>