<svg id="Capa_1" enable-background="new 0 0 512 512" height="512" viewBox="0 0 512 512" width="512" xmlns="http://www.w3.org/2000/svg"><circle cx="256" cy="256" fill="#65b2fe" r="256"/><path d="m512 256c0 87.11-43.52 164.07-110 210.31-41.41 28.8-91.73 45.69-146 45.69s-104.59-16.89-146-45.69c-66.48-46.24-110-123.2-110-210.31 0-46.22 12.25-89.57 33.68-127 44.12 77.07 127.16 129 222.32 129s178.21-51.93 222.32-129c21.43 37.43 33.68 80.78 33.68 127z" fill="#0e9ce7"/><path d="m452 316c0 105.34-83.12 191.28-187.34 195.81-.31.02-.62.03-.93.04-.87.03-1.74.06-2.6.08-1.73.05-3.44.07-5.13.07-108.24 0-196-87.76-196-196s87.76-196 196-196h.28c108.11.15 195.72 87.85 195.72 196z" fill="#ffe853"/><path d="m452 316c0 105.34-83.12 191.28-187.34 195.81-.31.02-.62.03-.93.04-.87.03-1.74.06-2.6.08-1.73.05-3.44.07-5.13.07-58.54-45.3-103.35-116.25-103.35-196s44.81-150.7 103.35-196h.28c108.11.15 195.72 87.85 195.72 196z" fill="#fed110"/><path d="m452 316c0 108.244-87.756 196-196 196v-392c108.244 0 196 87.756 196 196z" fill="#ff9f01"/><path d="m399.46 259.692c0 9.137-3.483 18.274-10.46 25.242l-36.987 36.987c-3.73 3.721-8.608 5.59-13.487 5.59s-9.757-1.869-13.487-5.59l-36.987-36.987c-6.976-6.967-10.46-16.104-10.46-25.242 0-9.137 3.483-18.274 10.46-25.242 13.934-13.934 36.531-13.934 50.474 0 6.967-6.967 16.104-10.45 25.241-10.45s18.265 3.483 25.232 10.45c6.978 6.967 10.461 16.105 10.461 25.242z" fill="#ff1e55"/><path d="m399.46 259.692c0 9.137-3.483 18.274-10.46 25.242l-36.987 36.987c-3.73 3.721-8.608 5.59-13.487 5.59v-93.06c6.967-6.967 16.104-10.45 25.241-10.45s18.265 3.483 25.232 10.45c6.978 6.966 10.461 16.104 10.461 25.241z" fill="#de1263"/><path d="m234.406 259.692c0 9.137-3.484 18.274-10.46 25.242l-36.986 36.986c-3.73 3.721-8.608 5.59-13.487 5.59s-9.757-1.869-13.487-5.59l-36.987-36.987c-6.976-6.967-10.46-16.104-10.46-25.242 0-9.137 3.484-18.274 10.46-25.242 13.934-13.934 36.531-13.934 50.474 0 6.967-6.967 16.104-10.45 25.241-10.45s18.265 3.483 25.232 10.45c6.977 6.968 10.46 16.106 10.46 25.243z" fill="#ff1e55"/><path d="m234.406 259.692c0 9.137-3.484 18.274-10.46 25.242l-36.986 36.986c-3.73 3.721-8.608 5.59-13.487 5.59v-93.06c6.967-6.967 16.104-10.45 25.241-10.45s18.265 3.483 25.232 10.45c6.977 6.967 10.46 16.105 10.46 25.242z" fill="#de1263"/><path d="m384.95 351.05c0 2.77-.09 5.52-.26 8.24-2.68 42.56-26 79.51-60.07 100.95l-137.29.07c-34.1-21.4-57.36-58.35-60.02-101.02-.17-2.73-.26-5.47-.26-8.24 0-.39 0-.77.01-1.16.09-10.3 11.5-16.36 20.15-10.76 5.25 3.4 10.66 6.56 16.23 9.46l27.48 27.49h128.58l29.05-27.49h.01c5.57-2.9 10.98-6.06 16.23-9.46 8.64-5.58 20.06.43 20.15 10.72.01.4.01.8.01 1.2z" fill="#313b5a"/><path d="m384.95 351.05c0 2.77-.09 5.52-.26 8.24-2.68 42.56-26 79.51-60.07 100.95l-68.62.03v-84.19h63.5l29.05-27.49h.01c5.57-2.9 10.98-6.06 16.23-9.46 8.64-5.58 20.06.43 20.15 10.72.01.4.01.8.01 1.2z" fill="#29334c"/><path d="m348.56 348.59c0 27.64-19.35 51.72-46.46 57.13-14.6 2.91-30.08 4.28-46.1 4.28s-31.5-1.37-46.1-4.28c-27.11-5.41-46.46-29.49-46.46-57.13 13.84 7.22 28.63 12.87 44.14 16.71 15.5 3.85 31.72 5.89 48.42 5.89 33.39 0 64.88-8.16 92.56-22.6z" fill="#fff"/><path d="m324.62 460.24c-19.88 12.52-43.4 19.75-68.62 19.76h-.81c-24.98-.15-48.22-7.34-67.86-19.69 15.31-21.38 40.36-35.31 68.67-35.31 28.28 0 53.3 13.9 68.62 35.24z" fill="#ff1d56"/><path d="m324.62 460.24c-19.88 12.52-43.4 19.75-68.62 19.76v-55c28.28 0 53.3 13.9 68.62 35.24z" fill="#dd1265"/><path d="m348.56 348.59c0 27.64-19.35 51.72-46.46 57.13-14.6 2.91-30.08 4.28-46.1 4.28v-38.81c33.39 0 64.88-8.16 92.56-22.6z" fill="#d1f6ff"/></svg>