<svg id="Capa_1" enable-background="new 0 0 512 512" height="512" viewBox="0 0 512 512" width="512" xmlns="http://www.w3.org/2000/svg"><g><g><path d="m512 256c0 43.79-11 85.02-30.39 121.07l-225.61 49.67-225.61-49.67c-19.39-36.05-30.39-77.28-30.39-121.07 0-46.63 12.47-90.34 34.26-128 41.698 72.091 399.22 76.52 443.48 0 21.79 37.66 34.26 81.37 34.26 128z" fill="#9febff"/><path d="m477.74 128c-44.26 76.52-126.99 128-221.74 128s-177.48-51.48-221.74-128c.01-.02.03-.05.04-.07 44.27-76.48 126.98-127.93 221.7-127.93s177.43 51.45 221.7 127.93c.01.02.03.05.04.07z" fill="#c4f4ff"/><path d="m481.61 377.07c-19.659 36.56-47.946 67.794-82.137 90.975-40.923 27.746-90.304 3.469-143.473 3.469s-102.55 24.277-143.473-3.469c-34.191-23.181-62.478-54.415-82.137-90.975z" fill="#70c5e9"/></g><g><path d="m324.02 92.17c0 37.57-30.45 68.03-68.03 68.03-37.57 0-68.02-30.46-68.02-68.03s30.45-68.03 68.02-68.03c37.58 0 68.03 30.46 68.03 68.03z" fill="#f5dd6e"/><path d="m324.02 92.17c0 37.57-30.45 68.03-68.03 68.03v-136.06c37.58 0 68.03 30.46 68.03 68.03z" fill="#eec036"/><path d="m294.18 76.82c0 17.54-11.93 32.35-28.09 36.75v59.18h-20v-59.18c-16.17-4.4-28.1-19.21-28.1-36.75h20c0 9.97 8.12 18.09 18.1 18.09 9.97 0 18.09-8.12 18.09-18.09z" fill="#e8a440"/><path d="m294.18 76.82c0 17.54-11.93 32.35-28.09 36.75v59.18h-10v-77.84c9.97 0 18.09-8.12 18.09-18.09z" fill="#de8051"/><path d="m399.47 468.04c-40.92 27.75-90.3 43.96-143.47 43.96s-102.55-16.21-143.47-43.96c9.76-28.05 27.52-52.36 50.54-70.2 10.67-8.27 22.48-15.15 35.15-20.37.37-.15.73-.28 1.1-.4 3-.97 6.05-.85 9.15 0 14.95 4.09 30.93 25.34 47.53 25.34s32.58-21.25 47.53-25.34c3.1-.85 6.15-.97 9.15 0 .37.12.73.25 1.1.4v.01c39.98 16.46 71.4 49.5 85.69 90.56z" fill="#a8306e"/><path d="m213.031 144.912h86.109v88.248h-86.109z" fill="#616578"/><path d="m256.086 144.912h43.054v88.248h-43.054z" fill="#464652"/><path d="m399.47 468.04c-40.92 27.75-90.3 43.96-143.47 43.96v-109.59c16.6 0 32.58-21.25 47.53-25.34 3.1-.85 6.15-.97 9.15 0 .37.12.73.25 1.1.4v.01c39.98 16.46 71.4 49.5 85.69 90.56z" fill="#815"/><path d="m313.775 377.472v.011l-15.993 43.578-41.783 31.975-41.814-32.647-15.961-42.917c17.809-7.33 37.32-11.372 57.775-11.372 20.456 0 39.966 4.043 57.776 11.372z" fill="#e9ecf8"/><path d="m313.77 377.47v.01l-15.99 43.58-41.78 31.98-.01-.01v-86.93h.01c20.45 0 39.97 4.04 57.77 11.37z" fill="#dbdeee"/><path d="m292.301 329.798v36.302c0 20.057-16.255 36.312-36.301 36.312-20.056 0-36.312-16.255-36.312-36.312v-36.301h72.613z" fill="#dfbca3"/><g fill="#cb8f69"><path d="m292.301 329.798v36.302c0 20.057-16.255 36.312-36.301 36.312v-72.613h36.301z"/><path d="m386.714 257.249v7.025c0 25.527-20.687 46.214-46.214 46.214h-66.344v-77.275h88.511c13.284-.001 24.047 10.762 24.047 24.036z"/><path d="m274.156 233.212v77.275h-103.695c-25.517 0-46.203-20.687-46.203-46.214v-7.025c0-13.273 10.763-24.036 24.036-24.036z"/></g><path d="m346.559 187.363v89.848c0 50.015-40.544 90.559-90.559 90.559-50.026 0-90.569-40.543-90.569-90.559v-89.848z" fill="#eed9c8"/><path d="m346.559 187.363v89.848c0 50.015-40.544 90.559-90.559 90.559v-180.407z" fill="#dfbca3"/><path d="m255.999 453.036-13.84 20.648 13.84 27.981 54.888-54.877-14.733-14.733 52.777-34.211c-10.669-8.275-22.482-15.153-35.157-20.372z" fill="#a8306e"/><path d="m255.999 453.036v48.629l-54.888-54.877 14.733-14.733-52.777-34.211c10.669-8.275 22.482-15.153 35.157-20.372z" fill="#c02e71"/><path d="m255.995 296.318c-5.518 0-9.992-4.474-9.992-9.992v-32.306c0-5.518 4.474-9.992 9.992-9.992 5.518 0 9.992 4.474 9.992 9.992v32.306c0 5.519-4.474 9.992-9.992 9.992z" fill="#cb8f69"/><g fill="#464652"><circle cx="219.525" cy="257.101" r="13.073"/><circle cx="292.465" cy="257.101" r="13.073"/></g><path d="m223.855 300.493c0 17.753 14.392 32.145 32.145 32.145s32.145-14.392 32.145-32.145z" fill="#fff"/><path d="m288.145 300.493c0 17.76-14.4 32.15-32.15 32.15v-32.15z" fill="#e9ecf8"/><path d="m255.999 402.412 20.106 24.328-20.106 26.296-6.52-25.312z" fill="#464652"/><path d="m256 402.412-20.106 24.328 20.105 26.296z" fill="#616578"/><g><path d="m149.942 187.363h21.681v46.074h-21.681z" fill="#616578"/><path d="m340.367 187.363h21.681v46.074h-21.681z" fill="#464652"/></g><g fill="#f5dd6e"><path d="m359.436 110.811h51.659v20h-51.659z"/><g><path d="m364.851 144.281h20v43.6h-20z" transform="matrix(.707 -.707 .707 .707 -7.644 313.707)"/><path d="m353.051 65.541h43.6v20h-43.6z" transform="matrix(.707 -.707 .707 .707 56.38 287.191)"/></g><path d="m100.894 110.811h51.659v20h-51.659z"/><g><path d="m115.339 156.081h43.6v20h-43.6z" transform="matrix(.707 -.707 .707 .707 -77.27 145.614)"/><path d="m127.138 53.741h20v43.6h-20z" transform="matrix(.707 -.707 .707 .707 -13.249 119.094)"/></g></g></g></g></svg>