<svg id="Icons" enable-background="new 0 0 512 512" height="512" viewBox="0 0 512 512" width="512" xmlns="http://www.w3.org/2000/svg"><g><circle cx="256" cy="256" fill="#22bce0" r="256"/><g><g><g><g><path d="m366.626 134.541v242.908c0 12.966-10.5 23.467-23.457 23.467h-172.018c-12.957 0-23.467-10.5-23.467-23.467v-242.908c0-12.957 10.51-23.457 23.467-23.457h172.018c12.956 0 23.457 10.501 23.457 23.457z" fill="#fff"/><g fill="#ebd9ea"><g><path d="m166.471 351.301h181.368c2.76 0 4.998-2.237 4.998-4.998 0-2.76-2.237-4.998-4.998-4.998h-181.368c-6.545.179-6.657 9.779 0 9.996z"/><path d="m166.471 305.569h181.368c2.76 0 4.998-2.237 4.998-4.998 0-2.76-2.237-4.998-4.998-4.998h-181.368c-6.545.179-6.657 9.779 0 9.996z"/><path d="m166.471 259.837h181.368c2.76 0 4.998-2.238 4.998-4.998s-2.237-4.998-4.998-4.998h-181.368c-6.545.179-6.657 9.779 0 9.996z"/><path d="m166.471 214.104h181.368c2.76 0 4.998-2.238 4.998-4.998s-2.237-4.998-4.998-4.998h-181.368c-6.545.179-6.657 9.779 0 9.996z"/><path d="m166.471 168.372h181.368c2.76 0 4.998-2.238 4.998-4.998s-2.237-4.998-4.998-4.998h-181.368c-6.545.179-6.657 9.779 0 9.996z"/></g><g><path d="m252.158 135.316v241.368c0 2.76 2.238 4.998 4.998 4.998s4.998-2.237 4.998-4.998v-241.368c-.169-6.518-9.774-6.681-9.996 0z"/><path d="m199.428 135.316v241.368c0 2.76 2.238 4.998 4.998 4.998s4.998-2.237 4.998-4.998v-241.368c-.169-6.518-9.774-6.681-9.996 0z"/><path d="m304.888 135.316v241.368c0 2.76 2.237 4.998 4.998 4.998s4.998-2.237 4.998-4.998v-241.368c-.169-6.518-9.774-6.681-9.996 0z"/></g></g></g><g><path d="m257.155 351.303c-15.947 0-30.728-10.403-41.617-29.292-21.327-35.422-21.329-98.923.001-134.345 21.674-38.883 61.559-38.893 83.235.001 21.327 35.421 21.328 98.922-.001 134.344-10.89 18.89-25.671 29.292-41.618 29.292zm0-182.928c-12.222 0-23.925 8.625-32.954 24.286-19.558 32.4-19.559 91.956.001 124.355 18.149 32.23 47.757 32.238 65.907 0 19.559-32.4 19.56-91.955-.001-124.355-9.027-15.661-20.731-24.286-32.953-24.286z" fill="#aea7b9"/></g></g><g><g><g><g><path d="m286.077 166.072-14.908-2.125-11.542-1.641c-.757-.103-1.041.955-.332 1.238 6.172 2.478 18.649 7.496 24.789 9.963z" fill="#334353"/><g><path d="m309.01 164.254-20.946-5.612c-9.897-2.307-13.765 11.868-3.983 14.865 0 0 20.945 5.612 20.945 5.612 9.92 2.3 13.733-11.894 3.984-14.865z" fill="#9175a7"/><path d="m298.087 161.327-10.022-2.685c-5.737-1.663-11.197 4.125-9.352 9.694l10.028 2.687c5.706 1.659 11.197-4.101 9.346-9.696z" fill="#a583bb"/><path d="m290.71 159.35-2.645-.709c-3.924-1.051-7.939 1.119-9.255 4.891 3.926 4.271 11.496 1.643 11.9-4.182z" fill="#c2aacf"/></g></g><g><path d="m423.068 186.248-100.019-26.8c-2-.536-4.007-.719-5.963-.582-7.565.515-14.315 5.753-16.388 13.491-.773 2.883.942 5.854 3.826 6.627l112.419 30.123z" fill="#c0405c"/><path d="m423.068 186.248-100.019-26.8c-2-.536-4.007-.719-5.963-.582-3.871 3.474-8.802 12.735-1.262 15.176 0 0 103.112 27.629 103.112 27.629z" fill="#e9465e"/><path d="m343.595 173.219c-1.141 4.259 1.386 8.637 5.645 9.778l42.931 11.503c4.259 1.141 8.637-1.386 9.778-5.645s-1.386-8.637-5.645-9.778l-42.931-11.503c-4.26-1.142-8.637 1.386-9.778 5.645z" fill="#ee6781"/></g></g><g><g><path d="m286.077 252.141-14.908 2.125-11.542 1.641c-.757.103-1.041-.955-.332-1.238 6.172-2.478 18.649-7.496 24.789-9.963z" fill="#9175a7"/><g><path d="m309.01 253.959-20.946 5.612c-9.897 2.306-13.765-11.868-3.983-14.865 0 0 20.945-5.612 20.945-5.612 9.92-2.3 13.733 11.894 3.984 14.865z" fill="#9175a7"/><path d="m298.087 256.886-10.022 2.685c-5.737 1.663-11.197-4.125-9.352-9.694l10.028-2.687c5.706-1.659 11.197 4.101 9.346 9.696z" fill="#a583bb"/><path d="m290.71 258.863-2.645.709c-3.924 1.051-7.939-1.119-9.255-4.891 3.926-4.271 11.496-1.643 11.9 4.182z" fill="#c2aacf"/></g></g><g><path d="m423.068 231.965-100.019 26.8c-2 .536-4.007.719-5.963.582-7.565-.515-14.315-5.753-16.388-13.491-.773-2.883.942-5.854 3.826-6.627l112.419-30.123z" fill="#c0405c"/><path d="m423.068 231.965-100.019 26.8c-2 .536-4.007.719-5.963.582-3.871-3.474-8.802-12.735-1.262-15.176 0 0 103.112-27.629 103.112-27.629z" fill="#e9465e"/><path d="m343.595 244.995c-1.141-4.259 1.386-8.637 5.645-9.778l42.931-11.503c4.259-1.141 8.637 1.386 9.778 5.645s-1.386 8.637-5.645 9.778l-42.931 11.503c-4.26 1.141-8.637-1.386-9.778-5.645z" fill="#ee6781"/></g></g></g><g><path d="m423.276 242.274c-8.237.051-15.297-6.759-15.263-15.263v-35.81c0-8.435 6.837-15.259 15.263-15.263 6.073 0 11.315 3.539 13.776 8.667.957 1.998 1.493 4.231 1.493 6.596v35.81c.001 8.439-6.841 15.26-15.269 15.263z" fill="#c2aacf"/><path d="m423.276 242.274c-2.016 0-3.936-.391-5.699-1.101-.957-1.998-1.493-4.237-1.493-6.596v-35.81c-.171-10.642 11.203-18.27 20.968-14.161.957 1.998 1.493 4.231 1.493 6.596v35.81c.001 8.438-6.841 15.259-15.269 15.262z" fill="#ebd9ea"/><path d="m424.204 225.599v-21.713c0-3.96 3.21-7.17 7.17-7.17s7.17 3.21 7.17 7.17v21.713c-.324 9.486-14.011 9.495-14.34 0z" fill="#fff"/><path d="m423.276 214.74c-7.421-.214-7.469-11.028 0-11.267 7.482.243 7.427 11.052 0 11.267z" fill="#334353"/><path d="m423.276 214.74c-.981 0-1.902-.253-2.708-.692-2.157-4.841 3.281-9.761 7.884-7.174 1.644 3.587-1.201 7.957-5.176 7.866z" fill="#3f5d77"/></g><g><path d="m461.433 224.49c-6.187 0-11.808-1.649-15.925-4.345-15.738-10.724-2.53-26.759 15.925-26.421 29.95.724 30.811 29.744 0 30.766z" fill="#c0405c"/><path d="m461.433 224.49c-6.187 0-11.808-1.649-15.925-4.345-2.377-10.364 8.812-17.971 22.515-18.134 6.193 0 11.808 1.649 15.925 4.333 2.377 10.368-8.807 17.983-22.515 18.146z" fill="#e9465e"/><path d="m468.992 220.987c3.884 0 7.033-3.149 7.033-7.033-.322-9.31-13.746-9.308-14.066 0 0 3.884 3.149 7.033 7.033 7.033z" fill="#ee6781"/></g></g></g><g id="Pencil_14_"><g><path d="m199.245 430.506h125.462v32.912h-125.462z" fill="#f39e22"/><path d="m208.816 453.847h106.319c5.282 0 9.572 4.29 9.572 9.571h-125.462c0-5.283 4.281-9.571 9.571-9.571z" fill="#c68132"/><path d="m199.245 430.506h125.462c0 5.29-4.289 9.579-9.572 9.579h-106.319c-5.29.001-9.571-4.288-9.571-9.579z" fill="#f9c744"/></g><g><path d="m332.328 421.803c4.205 0 7.622 3.41 7.622 7.614v35.09c.028 4.197-3.497 7.651-7.622 7.614-4.212 0-7.622-3.41-7.622-7.614v-35.09c.003-4.207 3.416-7.618 7.622-7.614z" fill="#ebd9ea"/><path d="m332.328 421.803v22.155c.001 4.205-3.407 7.621-7.622 7.622v-22.163c.003-4.207 3.416-7.618 7.622-7.614z" fill="#fff"/><path d="m339.95 431.099v33.409c-.006 3.138-1.889 5.848-4.679 7.026v-33.409c.009-3.142 1.885-5.842 4.679-7.026z" fill="#c1b7d3"/></g><g><path d="m339.95 430.51h11.276c9.121-.011 16.471 7.44 16.452 16.452.018 9.03-7.359 16.479-16.452 16.46h-11.276z" fill="#ee6781"/><path d="m339.95 430.51h11.276c5 0 9.472 2.225 12.484 5.741-3.056 3.547-7.485 5.723-12.484 5.734h-11.276z" fill="#f0a6b3"/><path d="m339.95 453.369h11.276c4.648 0 8.845 1.919 11.827 5.023-2.981 3.123-7.183 5.023-11.827 5.03h-11.276z" fill="#d65171"/></g><path d="m199.245 430.51v32.912l-34.334-13.761v-5.397c4.833-1.937 30.104-12.058 34.334-13.754z" fill="#f5b890"/><path d="m192.739 433.117v16.658c0 2.829-2.859 4.755-5.481 3.708l-22.346-8.952v-.268z" fill="#fbd9a3"/><g><path d="m150.126 443.468h16.23c3.057-.067 4.646 3.879 2.469 5.963-.634.635-1.506 1.024-2.469 1.024h-16.23c-4.616-.125-4.599-6.875 0-6.987z" fill="#2e3140"/><path d="m150.126 443.468h9.931c.362 2.096-1.323 4.072-3.448 4.052h-9.931c-.359-2.093 1.314-4.071 3.448-4.052z" fill="#334353"/></g></g><g><g><path d="m216.929 68.178h130.619c4.848-.026 9.015 3.983 8.995 8.995 0 4.963-4.033 8.988-8.995 8.988h-130.619z" fill="#334353"/><path d="m216.929 68.178h130.619c1.235 0 2.414.248 3.493.71 1.079 5.442-3.274 10.71-8.839 10.649h-125.273z" fill="#3e4e60"/><path d="m289.392 73.857c0 3.137-2.543 5.68-5.68 5.68h-38.74c-3.137 0-5.68-2.543-5.68-5.68s2.543-5.68 5.68-5.68h38.74c3.137.001 5.68 2.544 5.68 5.68z" fill="#3f5d77"/></g><g><path d="m167.281 62.548c1.27.033 48.804-.042 50.201.014 5.02.263 9.01 4.416 9.01 9.506v10.209c0 5.254-4.26 9.513-9.514 9.513h-49.697c-5.225 0-9.464-4.21-9.513-9.421v-10.301c0-5.261 4.259-9.52 9.513-9.52z" fill="#2e3140"/><path d="m167.281 62.548c1.322.015 48.766-.029 50.201.014 4.345 9.676-1.439 21.193-12.602 21.32h-40.787c-2.279 0-4.423-.547-6.326-1.512v-10.302c.001-5.261 4.26-9.52 9.514-9.52z" fill="#334353"/><path d="m207.176 69.858c0 4.038-3.273 7.311-7.311 7.311h-22.848c-9.672-.331-9.681-14.287 0-14.622h22.848c4.038.001 7.311 3.274 7.311 7.311z" fill="#3e4e60"/></g><g><path d="m182.834 49.861v12.687h-11.452v-12.687c.234-7.569 11.22-7.566 11.452 0z" fill="#2e3140"/><g><g><path d="m236.949 29.309c2.28 0 4.13 1.85 4.13 4.13-.395 15.076-15.472 16.401-26.059 17.8-9.21.941-21.393 1.156-37.524 1.156-5.44-.164-5.474-8.085 0-8.26 7.847 0 14.727-.049 20.74-.215 11.684-.578 35.534-.343 34.583-10.482 0-2.279 1.85-4.129 4.13-4.129z" fill="#2e3140"/></g><path d="m236.949 29.309c2.28 0 4.13 1.85 4.13 4.13 0 6.368-2.998 10.259-6.93 12.72-6.268 3.633-11.927 4.189-19.129 5.08-6.195-1.165-11.902-3.717-16.784-7.318 11.743-.379 18.703-.776 26.043-2.577 7.838-2.073 8.541-5.03 8.541-7.905-.001-2.28 1.849-4.13 4.129-4.13z" fill="#334353"/><path d="m236.949 29.309c2.28 0 4.13 1.85 4.13 4.13 0 6.368-2.998 10.259-6.93 12.72-3.51-1.19-6.831-2.817-9.87-4.815 7.838-2.073 8.541-5.03 8.541-7.905-.001-2.28 1.849-4.13 4.129-4.13z" fill="#3e4e60"/></g></g></g></g></g></svg>