<svg id="Capa_1" enable-background="new 0 0 512 512" height="512" viewBox="0 0 512 512" width="512" xmlns="http://www.w3.org/2000/svg"><g><g><path d="m256 295.154c-141.387 0-244.222-127.051-223.559-163.979 43.793-78.267 127.496-131.175 223.559-131.175 96.22 0 180.04 53.082 223.774 131.56 20.53 36.838-82.387 163.594-223.774 163.594z" fill="#ff0f47"/><path d="m512 256c0 26.051-3.891 51.191-11.129 74.871-5.031 16.469-11.672 32.231-19.75 47.109-8.25 15.2-147.391 58.816-225.121 58.816s-216.871-43.616-225.109-58.816c-3.289-6.031-6.332-12.21-9.121-18.531-14-31.629-21.77-66.629-21.77-103.449 0-46.219 12.25-89.57 33.68-127 44.121 77.07 127.16 129 222.32 129s178.211-51.93 222.32-129c21.43 37.43 33.68 80.781 33.68 127zm0 0" fill="#ba1956"/><path d="m481.262 377.699c-7.16 13.223-15.434 25.742-24.723 37.43-8.437 10.633-17.719 20.57-27.719 29.723-3.22 2.949-6.516 5.816-9.885 8.6-44.265 36.572-281.55 36.593-325.805.053-3.391-2.8-6.709-5.685-9.95-8.653-10-9.153-19.282-19.09-27.719-29.723-9.289-11.688-17.563-24.207-24.723-37.43zm0 0" fill="#742466"/></g><g><path d="m408.758 167.012c-6.805-16.429-22.692-27.045-40.475-27.045h-180.756l74.64 109.525h180.756z" fill="#ff903d"/><path d="m228.002 167.012c-6.805-16.429-22.693-27.045-40.475-27.045h-21.905l-43.81 54.763 43.81 54.763h96.545z" fill="#ffb03b"/><path d="m143.716 139.967c-17.783 0-33.67 10.616-40.476 27.045l-34.165 82.481h96.545v-109.526z" fill="#ffc46c"/><path d="m408.758 298.443c-6.805-16.429-22.692-27.045-40.475-27.045h-180.756l74.64 109.525h180.756z" fill="#ff7040"/><path d="m228.002 298.443c-6.805-16.429-22.693-27.045-40.475-27.045h-21.905l-43.81 54.763 43.81 54.763h96.545z" fill="#ff903d"/><path d="m143.716 271.398c-17.783 0-33.67 10.616-40.476 27.045l-34.165 82.481h96.545v-109.526z" fill="#ffb03b"/><path d="m187.527 402.828 74.348 109.097c59.475-1.34 113.942-22.956 156.757-58.215l-9.874-23.838c-6.805-16.429-22.692-27.045-40.475-27.045h-180.756z" fill="#ff903d"/><path d="m261.989 511.924-33.987-82.051c-6.805-16.429-22.693-27.045-40.475-27.045h-21.905l-43.81 54.763 23.41 29.263c33.522 16.115 71.095 25.146 110.778 25.146 2.002 0 3.998-.03 5.989-.076z" fill="#ffb03b"/><path d="m103.241 429.873-9.874 23.837c21.439 17.656 45.806 31.878 72.254 41.86v-92.742h-21.905c-17.782 0-33.67 10.616-40.475 27.045z" fill="#ffc46c"/></g><g fill="#fff"><path d="m274.109 44.227h-1.524c-6.754 0-12.226-5.477-12.226-12.227v-1.523h-8.715v1.523c0 6.75-5.477 12.227-12.227 12.227h-1.527v8.715h1.527c6.75 0 12.227 5.472 12.227 12.226v1.528h8.715v-1.528c0-6.754 5.472-12.226 12.226-12.226h1.524zm0 0"/><g><path d="m370.023 86.994h-1.524c-6.754 0-12.226-5.477-12.226-12.227v-1.523h-8.715v1.523c0 6.75-5.477 12.227-12.227 12.227h-1.527v8.715h1.527c6.75 0 12.227 5.472 12.227 12.226v1.528h8.715v-1.528c0-6.754 5.472-12.226 12.226-12.226h1.524zm0 0"/><path d="m178.195 86.994h-1.524c-6.754 0-12.226-5.477-12.226-12.227v-1.523h-8.715v1.523c0 6.75-5.477 12.227-12.227 12.227h-1.527v8.715h1.527c6.75 0 12.227 5.472 12.227 12.226v1.528h8.715v-1.528c0-6.754 5.472-12.226 12.226-12.226h1.524zm0 0"/></g></g></g></svg>