<svg id="Capa_1" enable-background="new 0 0 512 512" height="512" viewBox="0 0 512 512" width="512" xmlns="http://www.w3.org/2000/svg"><g><g><g><g><g><g><g><g><circle cx="256" cy="256" fill="#ffce00" r="256"/></g></g></g></g></g></g></g><path d="m507.862 302.091-251.862-251.863-142.736 355.267 103.52 103.52c12.784 1.965 25.881 2.985 39.216 2.985 125.649 0 230.156-90.523 251.862-209.909z" fill="#ffa300"/><g><path d="m408.729 372.324-.005-.021-.058-.123c-.009-.018-.018-.037-.026-.055l-152.64-321.896-151.743 320.154-.008.029c-2.174 3.912-3.326 7.966-3.326 12.122 0 32.387 69.43 58.642 155.077 58.642s155.077-26.255 155.077-58.642c0-3.483-.808-6.894-2.348-10.21z" fill="#24e082"/></g><g><path d="m411.077 382.534c0-3.483-.808-6.894-2.348-10.21l-.005-.021-.058-.123c-.009-.018-.018-.037-.026-.055l-152.64-321.897.042 390.948c85.627-.009 155.035-26.26 155.035-58.642z" fill="#2cc47f"/></g><g><g><path d="m324.601 314.679c-16.361-2.913-33.77-4.749-51.739-5.457l-1.182 29.977c16.607.655 32.644 2.343 47.663 5.016z" fill="#0a9154"/></g><g><path d="m391.788 336.586c-10.604-5.93-23.455-11.069-38.409-15.332l-8.225 28.851c17.235 4.914 31.215 11.167 40.427 18.083l12.988-17.3z" fill="#0a9154"/></g><g><path d="m129.424 366.068c9.968-6.624 24.329-12.535 41.531-17.093l-7.684-29c-16.847 4.464-31.254 10.02-42.971 16.558l-4.373 9.227z" fill="#079e59"/></g><g><path d="m192.085 313.879 4.842 29.607c15.135-2.475 31.206-3.967 47.767-4.435l-.848-29.988c-17.895.506-35.309 2.126-51.761 4.816z" fill="#079e59"/></g></g></g></svg>