<svg id="Capa_1" enable-background="new 0 0 512 512" height="512" viewBox="0 0 512 512" width="512" xmlns="http://www.w3.org/2000/svg"><g><g><path d="m0 256c0 43.79 11 85.02 30.39 121.07l225.61 49.67 225.61-49.67c19.39-36.05 30.39-77.28 30.39-121.07 0-46.63-12.47-90.34-34.26-128-41.698 72.091-399.22 76.52-443.48 0-21.79 37.66-34.26 81.37-34.26 128z" fill="#9feafd"/><path d="m34.26 128c44.26 76.52 126.99 128 221.74 128s177.48-51.48 221.74-128c-.01-.02-.03-.05-.04-.07-44.27-76.48-126.98-127.93-221.7-127.93s-177.43 51.45-221.7 127.93c-.01.02-.03.05-.04.07z" fill="#c3f3ff"/><path d="m30.39 377.07c43.19 80.32 128.02 134.93 225.61 134.93s182.42-54.61 225.61-134.93z" fill="#70c5e8"/></g><path d="m174.937 354.782h162.126v89.074h-162.126z" fill="#464651"/><path d="m256 354.782h81.063v89.074h-81.063z" fill="#2d3041"/><path d="m142.45 424.299h227.1v35.236h-227.1z" fill="#616679"/><path d="m256 424.299h113.55v35.236h-113.55z" fill="#464651"/><path d="m48.485 117.808h415.029v267.621h-415.029z" fill="#616678"/><path d="m256 117.808h207.515v267.621h-207.515z" fill="#464651"/><path d="m432.153 149.172v204.898h-77.017-198.282-77.007v-204.898z" fill="#e7eaf5"/><path d="m256 149.172h176.153v204.898h-176.153z" fill="#d9dced"/><path d="m321.047 262.61-22.506-38.969 25.104-43.488-15.624-9.021-25.104 43.488h-45.003l-27.702-47.998h-60.627v18.041h50.208l22.497 38.978-22.497 38.969h-50.208v18.041h50.208l27.711 47.998h65.832l27.711-47.998h50.208v-18.041zm-38.13 47.998h-45.003l-22.497-38.978 22.497-38.969h45.003l22.506 38.969z" fill="#616679"/><path d="m371.256 262.61v18.041h-50.209l-27.711 47.998h-37.336v-18.041h26.917l22.507-38.978-22.507-38.968h-26.917v-18.041h26.917l25.105-43.489 15.623 9.021-25.104 43.488 22.506 38.969z" fill="#464651"/><path d="m149.585 196.998h37.782v18.041h-37.782z" fill="#616679"/><path d="m149.585 292.441h37.782v18.041h-37.782z" fill="#616679"/><path d="m333.309 193.314h37.782v18.041h-37.782z" fill="#464651"/></g></svg>