<svg id="Capa_1" enable-background="new 0 0 512 512" height="512" viewBox="0 0 512 512" width="512" xmlns="http://www.w3.org/2000/svg"><g><g><g><g><g><g><g><circle cx="256" cy="256" fill="#ffce00" r="256"/></g></g></g></g></g></g><path d="m274.274 511.358c126.832-8.945 228.157-110.281 237.086-237.118l-77.829-78.102-4.034-3.761-218.26 45.307-101.074-44.689-35.981 118.27 4.818 5.122z" fill="#ffa300"/><g><path d="m373.914 171.475c-50.684 0-94.398 30.226-117.928 50.294-6.311-5.106-14.597-10.469-23.326-16.309-33.703-22.55-65.522-33.985-94.574-33.985-46.607 0-84.525 37.918-84.525 84.525s37.918 84.525 84.525 84.525c50.684 0 94.37-30.202 117.899-50.27 6.311 5.106 14.625 10.445 23.354 16.285 33.703 22.55 65.521 33.985 94.574 33.985 46.607 0 84.525-37.918 84.525-84.525s-37.917-84.525-84.524-84.525zm-235.828 119.05c-19.037 0-34.525-15.488-34.525-34.525s15.488-34.525 34.525-34.525c27.445 0 58.886 18.891 80.158 35.096-18.677 14.912-48.69 33.954-80.158 33.954zm235.828 0c-27.445 0-58.886-18.891-80.158-35.096 18.678-14.912 48.69-33.953 80.158-33.953 19.037 0 34.525 15.488 34.525 34.525s-15.488 34.524-34.525 34.524z" fill="#636978"/><path d="m373.914 171.475c-50.283 0-94.259 30.22-117.928 50.294v68.487c6.311 5.106 14.625 10.445 23.354 16.285 33.703 22.55 65.521 33.985 94.574 33.985 46.607 0 84.525-37.918 84.525-84.525-.001-46.608-37.918-84.526-84.525-84.526zm0 119.05c-27.445 0-58.886-18.891-80.158-35.096 18.678-14.912 48.69-33.953 80.158-33.953 19.037 0 34.525 15.488 34.525 34.525s-15.488 34.524-34.525 34.524z" fill="#414952"/></g></g></svg>