<svg id="Capa_1" enable-background="new 0 0 512 512" height="512" viewBox="0 0 512 512" width="512" xmlns="http://www.w3.org/2000/svg"><g><g><path d="m0 256c0 43.79 11 85.02 30.39 121.07l225.61 49.67 225.61-49.67c19.39-36.05 30.39-77.28 30.39-121.07 0-46.63-12.47-90.34-34.26-128-41.698 72.091-399.22 76.52-443.48 0-21.79 37.66-34.26 81.37-34.26 128z" fill="#9965d8"/><path d="m34.26 128c44.26 76.52 126.99 128 221.74 128s177.48-51.48 221.74-128c-.01-.02-.03-.05-.04-.07-44.27-76.48-126.98-127.93-221.7-127.93s-177.43 51.45-221.7 127.93c-.01.02-.03.05-.04.07z" fill="#b895e5"/><path d="m481.61 377.07c-2.48 4.61-5.1 9.13-7.86 13.57-7.93 12.83-53.91 6.198-63.94 17.388-1.12 1.25-2.25 2.49-3.4 3.71-11.22 12.07 13.3 41.762-.07 51.482-42.21 30.68-94.16 48.78-150.34 48.78s-108.13-18.1-150.34-48.78c-13.37-9.72 15.546-40.681 4.326-52.751-1.15-1.22-2.28-2.46-3.4-3.71-10.03-11.19-60.406-3.289-68.336-16.119-2.76-4.44-5.38-8.96-7.86-13.57z" fill="#5541b6"/></g><path d="m440.65 119.64v202.42l-169.61 45.04-15.04-3.39-184.65-41.65v-202.42c0-14.67 11.9-26.57 26.57-26.57h316.16c14.67 0 26.57 11.9 26.57 26.57z" fill="#daddee"/><path d="m440.65 119.64v202.42l-169.61 45.04-15.04-3.39v-270.64h158.08c14.67 0 26.57 11.9 26.57 26.57z" fill="#c8cde4"/><path d="m473.75 390.64c-7.93 12.83-16.99 24.91-27.02 36.1-1.12 1.25-2.25 2.49-3.4 3.71l-187.33 14.53-187.33-14.53c-1.15-1.22-2.28-2.46-3.4-3.71-10.03-11.19-19.09-23.27-27.02-36.1l6.55-13.57 26.55-55.01h369.3l26.55 55.01z" fill="#e9ecf8"/><path d="m473.75 390.64c-7.93 12.83-16.99 24.91-27.02 36.1-1.12 1.25-2.25 2.49-3.4 3.71l-187.33 14.53v-122.92h184.65l26.55 55.01z" fill="#daddee"/><path d="m451.35 386.74v15h-390.7v-15l195.35-18.24 15.04-1.4z" fill="#616579"/><path d="m451.35 386.74h-390.7l26.39-54.68h337.92z" fill="#858899"/><path d="m451.35 386.74v15h-195.35v-33.24l15.04-1.4z" fill="#464652"/><path d="m451.35 386.74h-195.35v-54.68h168.96z" fill="#616579"/><path d="m446.73 426.74c-12.11 13.54-25.66 25.77-40.39 36.48h-300.68c-14.73-10.71-28.28-22.94-40.39-36.48z" fill="#daddee"/><path d="m96.35 118.07h319.3v178.99h-319.3z" fill="#a9eb58"/><path d="m256 118.07h159.65v178.99h-159.65z" fill="#79ce8b"/><path d="m446.73 426.74c-12.11 13.54-25.66 25.77-40.39 36.48h-150.34v-36.48z" fill="#c8cde4"/><g><path d="m156.762 156.848-41.036 107.746 15.712 5.984 9.892-25.973h46.211l9.796 25.958 15.731-5.936-40.68-107.795zm-9.028 70.944 16.808-44.131 16.654 44.131z" fill="#db6870"/><path d="m282.986 205.888c4.304-5.254 6.885-11.963 6.885-19.268 0-16.788-13.661-30.457-30.457-30.457h-36.241v112.683s22.74-.101 32.828-.134c3.48-.008 6.49-.017 8.272-.017 18.865 0 34.207-15.342 34.207-34.199-.001-11.954-6.171-22.496-15.494-28.608zm-43.001-32.912h19.428c7.524 0 13.644 6.12 13.644 13.644s-6.12 13.644-13.644 13.644c-.462 0-1.732 0-3.413.008-5.666 0-16.015.017-16.015.017zm24.287 78.905c-1.791 0-4.792.008-8.272.017-5.078.017-11.181.042-16.015.059v-34.812c1.698-.008 9.659-.025 16.015-.025 4.548-.008 8.272-.017 8.272-.017 9.592 0 17.393 7.801 17.393 17.394.001 9.583-7.801 17.384-17.393 17.384z" fill="#db6870"/><g fill="#c12439"><path d="m388.158 235.033c-1.993 2.287-6.181 7.682-8.441 9.578-5.502 4.9-12.468 7.385-20.706 7.385-21.785 0-39.509-17.723-39.509-39.509s17.723-39.509 39.509-39.509c7.918 0 15.555 2.332 22.084 6.743l6.966 4.706 9.413-13.932-6.966-4.706c-9.319-6.296-20.21-9.624-31.496-9.624-31.056 0-56.322 25.266-56.322 56.322s25.266 56.322 56.322 56.322c12.31 0 23.336-4.026 31.888-11.643 3.166-2.677 7.402-8.13 10.141-11.329z"/><path d="m298.479 234.496c0 18.856-15.342 34.199-34.207 34.199-1.782 0-4.792.008-8.272.017v-16.813c3.48-.008 6.482-.017 8.272-.017 9.592 0 17.393-7.801 17.393-17.385 0-9.592-7.801-17.394-17.393-17.394 0 0-3.724.008-8.272.017v-16.847c1.681-.008 2.951-.008 3.413-.008 7.524 0 13.644-6.12 13.644-13.644s-6.12-13.644-13.644-13.644h-3.413v-16.813h3.413c16.797 0 30.457 13.669 30.457 30.457 0 7.305-2.581 14.014-6.885 19.268 9.324 6.111 15.494 16.653 15.494 28.607z"/></g></g></g></svg>