<svg id="Capa_1" enable-background="new 0 0 512 512" height="512" viewBox="0 0 512 512" width="512" xmlns="http://www.w3.org/2000/svg"><g><g><path d="m512 256c0 141.387-114.613 256-256 256s-256-114.613-256-256 114.613-256 256-256 256 114.613 256 256zm0 0" fill="#ffc46c"/><path d="m512 256c0 26.051-3.891 51.191-11.129 74.871-5.031 16.469-11.672 32.231-19.75 47.109-8.25 15.2-147.391 36.007-225.121 36.007s-216.871-20.807-225.109-36.007c-3.289-6.031-6.332-12.21-9.121-18.531-14-31.629-21.77-66.629-21.77-103.449 0-46.219 12.25-89.57 33.68-127 44.121 77.07 127.16 129 222.32 129s178.211-51.93 222.32-129c21.43 37.43 33.68 80.781 33.68 127zm0 0" fill="#ffb03b"/><path d="m481.262 377.699c-7.16 13.223-15.434 25.742-24.723 37.43-8.437 10.633-17.719 20.57-27.719 29.723-45.539 41.699-106.211 67.148-172.82 67.148s-127.281-25.449-172.82-67.148c-10-9.153-19.282-19.09-27.719-29.723-9.289-11.688-17.563-24.207-24.723-37.43zm0 0" fill="#ff903d"/></g><g><path d="m446.819 226.213c-20.932-50.477-61.302-90.848-111.779-111.779l-127.439 190.819 127.438 190.819c50.477-20.932 90.848-61.302 111.779-111.779v-158.08z" fill="#ba1956"/><g fill="#ff0f47"><path d="m446.819 226.213-190.819 79.04 190.819 79.04c10.097-24.348 15.681-51.04 15.681-79.04s-5.584-54.692-15.681-79.04z"/><path d="m335.039 114.433c-24.348-10.097-51.04-15.681-79.04-15.681l-48.398 206.5 48.399 206.501c28 0 54.692-5.584 79.04-15.681l-79.04-190.819z"/><path d=""/><path d="m176.96 114.433c-50.477 20.932-90.848 61.302-111.78 111.779v158.08c20.932 50.477 61.302 90.848 111.78 111.779h62.907l16.133-190.818-16.133-190.819h-62.907z"/></g><path d="m176.96 496.072c24.348 10.097 51.04 15.681 79.04 15.681v-206.5z" fill="#ff415d"/><path d="m256 98.753c-28 0-54.692 5.584-79.04 15.681l79.04 190.819z" fill="#ff415d"/><path d="m65.18 226.213c-10.097 24.348-15.681 51.04-15.681 79.04s5.584 54.692 15.681 79.04l190.82-79.04z" fill="#ff415d"/><path d="m301.44 195.55h-45.44l-48.399 109.703 48.399 109.703h45.44l64.263-64.263v-90.881z" fill="#ff415d"/><path d="m210.559 195.55-64.263 64.262v90.881l64.263 64.263h45.441v-219.406z" fill="#ff9491"/><path d="m231.537 195.55-34.595 64.262v90.881l34.595 64.263h24.463v-219.406z" fill="#ff7472"/></g></g></svg>