<svg id="Icons" enable-background="new 0 0 512 512" height="512" viewBox="0 0 512 512" width="512" xmlns="http://www.w3.org/2000/svg"><g><path d="m511.67 242.81c.18 3.57.29 7.16.32 10.77.01.81.01 1.61.01 2.42 0 2.13-.03 4.25-.08 6.37-.22 9.23-.94 18.35-2.12 27.31-2.1 16.04-5.7 31.6-10.63 46.56-4.24 12.86-9.47 25.27-15.61 37.13-42.55 82.34-128.49 138.63-227.56 138.63-141.38 0-256-114.62-256-256s114.62-256 256-256c132.53 0 241.55 100.72 254.68 229.79z" fill="#6c53a2"/><g><path d="m367.517 237.502h-223.037v119.586l16.29 16.28h190.457l16.29-16.28z" fill="#57409b"/><g><g><path d="m177.06 273.288v83.8c.056 8.778-7.212 16.316-16.29 16.28-8.99 0-16.29-7.29-16.29-16.28v-83.8c-.032-9.068 7.492-16.34 16.29-16.29 8.998-.003 16.292 7.292 16.29 16.29z" fill="#a583bb"/><path d="m177.06 273.288v83.8c0 1.99-.36 3.89-1.01 5.65-10.373 4.759-23.042-3.429-22.78-14.94v-83.8c0-1.98.36-3.89 1.01-5.65 10.516-4.737 22.931 3.358 22.78 14.94z" fill="#c2aacf"/><path d="m177.06 273.288v61.11c-10.476 5.721-24.018-2.445-23.79-14.45v-61.12c10.578-5.677 23.956 2.403 23.79 14.46z" fill="#ebd9ea"/><path d="m170.331 320.355c-3.716 0-6.729-3.013-6.729-6.729v-30.715c0-3.716 3.013-6.729 6.729-6.729s6.729 3.013 6.729 6.729v30.715c0 3.716-3.013 6.729-6.729 6.729z" fill="#fff"/></g><g><path d="m367.517 273.288v83.8c.056 8.778-7.212 16.316-16.29 16.28-8.99 0-16.29-7.29-16.29-16.28v-83.8c-.032-9.068 7.492-16.34 16.29-16.29 8.998-.003 16.293 7.292 16.29 16.29z" fill="#a583bb"/><path d="m367.517 273.288v83.8c0 1.99-.36 3.89-1.01 5.65-10.373 4.759-23.042-3.429-22.78-14.94v-83.8c0-1.98.36-3.89 1.01-5.65 10.516-4.737 22.931 3.358 22.78 14.94z" fill="#c2aacf"/><path d="m367.517 273.288v61.11c-10.476 5.721-24.018-2.445-23.79-14.45v-61.12c10.578-5.677 23.957 2.403 23.79 14.46z" fill="#ebd9ea"/><path d="m360.788 320.355c-3.716 0-6.729-3.013-6.729-6.729v-30.715c0-3.716 3.013-6.729 6.729-6.729s6.729 3.013 6.729 6.729v30.715c0 3.716-3.012 6.729-6.729 6.729z" fill="#fff"/></g><g><path d="m240.546 273.288v83.8c.056 8.778-7.212 16.316-16.29 16.28-8.99 0-16.29-7.29-16.29-16.28v-83.8c-.032-9.068 7.492-16.34 16.29-16.29 8.997-.003 16.292 7.292 16.29 16.29z" fill="#a583bb"/><path d="m240.546 273.288v83.8c0 1.99-.36 3.89-1.01 5.65-10.373 4.759-23.042-3.429-22.78-14.94v-83.8c0-1.98.36-3.89 1.01-5.65 10.516-4.737 22.931 3.358 22.78 14.94z" fill="#c2aacf"/><path d="m240.546 273.288v61.11c-10.476 5.721-24.018-2.445-23.79-14.45v-61.12c10.577-5.677 23.956 2.403 23.79 14.46z" fill="#ebd9ea"/><path d="m233.817 320.355c-3.716 0-6.729-3.013-6.729-6.729v-30.715c0-3.716 3.013-6.729 6.729-6.729s6.729 3.013 6.729 6.729v30.715c0 3.716-3.013 6.729-6.729 6.729z" fill="#fff"/></g><g><path d="m304.031 273.288v83.8c.056 8.778-7.212 16.316-16.29 16.28-8.99 0-16.29-7.29-16.29-16.28v-83.8c-.032-9.068 7.492-16.34 16.29-16.29 8.998-.003 16.293 7.292 16.29 16.29z" fill="#a583bb"/><path d="m304.031 273.288v83.8c0 1.99-.36 3.89-1.01 5.65-10.373 4.759-23.042-3.429-22.78-14.94v-83.8c0-1.98.36-3.89 1.01-5.65 10.517-4.737 22.931 3.358 22.78 14.94z" fill="#c2aacf"/><path d="m304.031 273.288v61.11c-10.476 5.721-24.018-2.445-23.79-14.45v-61.12c10.578-5.677 23.957 2.403 23.79 14.46z" fill="#ebd9ea"/><path d="m297.303 320.355c-3.716 0-6.729-3.013-6.729-6.729v-30.715c0-3.716 3.013-6.729 6.729-6.729s6.729 3.013 6.729 6.729v30.715c-.001 3.716-3.013 6.729-6.729 6.729z" fill="#fff"/></g></g><g><g><path d="m371.227 373.368h-230.467c-1.99 0-3.89.36-5.65 1.01-16.716 6.412-12.642 31.239 5.65 31.57h230.467c6.29 0 11.75-3.57 14.46-8.79 5.663-10.579-2.387-23.953-14.46-23.79z" fill="#a583bb"/><path d="m371.227 373.368h-230.467c-1.99 0-3.89.36-5.65 1.01-4.746 10.373 3.42 23.042 14.94 22.78h230.467c1.98 0 3.89-.36 5.65-1.01 4.737-10.516-3.358-22.931-14.94-22.78z" fill="#c2aacf"/><path d="m371.227 373.368h-174.442c-5.718 10.476 2.442 24.017 14.45 23.79h174.452c5.678-10.578-2.403-23.957-14.46-23.79z" fill="#ebd9ea"/><path d="m250.828 380.097c0 3.716 3.013 6.729 6.729 6.729h104.047c3.716 0 6.729-3.013 6.729-6.729s-3.013-6.729-6.729-6.729h-104.047c-3.716 0-6.729 3.012-6.729 6.729z" fill="#fff"/></g><g><path d="m411.227 405.948h-310.467c-1.99 0-3.89.36-5.65 1.01-6.2 2.29-10.63 8.27-10.63 15.28 0 8.99 7.29 16.29 16.28 16.29h310.467c9.067.032 16.341-7.492 16.29-16.29.003-8.998-7.292-16.292-16.29-16.29z" fill="#a583bb"/><path d="m411.227 405.948h-310.467c-1.99 0-3.89.36-5.65 1.01-4.74 10.373 3.415 23.042 14.94 22.78h310.467c1.98 0 3.89-.36 5.65-1.01 4.737-10.516-3.358-22.931-14.94-22.78z" fill="#c2aacf"/><path d="m411.227 405.948h-214.442c-5.717 10.476 2.441 24.017 14.45 23.79h214.452c5.678-10.578-2.403-23.957-14.46-23.79z" fill="#ebd9ea"/><path d="m250.828 412.677c0 3.716 3.013 6.729 6.729 6.729h144.047c3.716 0 6.729-3.013 6.729-6.729s-3.013-6.729-6.729-6.729h-144.047c-3.716 0-6.729 3.012-6.729 6.729z" fill="#fff"/></g></g><g><path d="m358.952 246.078h-205.904c-8.943.012-11.559-11.818-4.434-15.863 0 0 102.952-62.463 102.952-62.463 2.722-1.654 6.145-1.654 8.867 0l6.651 4.043c15.89 9.64 81.708 49.57 96.301 58.42 7.105 4.041 4.531 15.879-4.433 15.863z" fill="#c2aacf"/><path d="m341.608 217.006 21.778 13.209c1.137.689 2.022 1.539 2.676 2.493-1.447 2.194-3.905 3.756-7.11 3.756h-205.904c-3.205 0-5.663-1.562-7.11-3.756.655-.953 1.539-1.803 2.676-2.493l102.952-62.463c2.722-1.654 6.145-1.654 8.867 0 .405.057 78.37 47.697 81.175 49.254z" fill="#ebd9ea"/><path d="m272.288 212.965c0-8.996-7.293-16.288-16.288-16.288-21.606.858-21.6 31.722 0 32.577 8.996-.001 16.288-7.293 16.288-16.289z" fill="#57409b"/><g><path d="m341.608 217.006c3.202 6.567-4.322 13.461-10.613 9.614 0 0-67.528-40.983-67.528-40.983-6.32-3.803-3.689-13.66 3.618-13.841z" fill="#fff"/></g></g></g><g><g><path d="m311.921 75.782c2.815-1.264 5.997.796 5.997 3.881v30.734c0 23.263-27.576 42.125-61.578 42.125s-61.578-18.862-61.578-42.125v-30.733c0-3.085 3.182-5.145 5.997-3.881l53.839 24.168c1.108.497 2.376.497 3.484 0z" fill="#2d2667"/><g><path d="m262.946 145.245c-6.541-.12-7.515-9.445-1.04-10.847 17.772-3.459 31.82-12.438 37.577-24.019 1.345-2.707 4.63-3.812 7.337-2.465 2.707 1.345 3.811 4.631 2.465 7.337-7.281 14.726-25.092 26.477-46.339 29.994z" fill="#57409b"/></g></g><g><path d="m352.883 68.207-94.482 42.406c-1.312.589-2.813.589-4.124 0l-94.482-42.406c-3.965-1.78-3.965-7.41 0-9.189l94.482-42.406c1.312-.589 2.813-.589 4.124 0l94.482 42.406c3.966 1.779 3.966 7.409 0 9.189z" fill="#57409b"/><g><path d="m319.656 67.381c-.827 0-1.667-.171-2.471-.532l-58.645-26.321c-3.045-1.367-4.405-4.942-3.038-7.987 1.366-3.045 4.942-4.404 7.987-3.038l58.645 26.321c5.913 2.68 3.937 11.563-2.478 11.557z" fill="#6c53a2"/></g></g><g><g><path d="m169.462 83.925v28.756h-9.852v-30.139c0-2.455 2.532-4.094 4.772-3.089l3.081 1.383c1.216.546 1.999 1.756 1.999 3.089z" fill="#2d2667"/></g><path d="m179.994 116.824c.058 8.337-6.845 15.491-15.457 15.457-20.508-.811-20.494-30.112 0-30.926 8.319-.106 15.522 6.954 15.457 15.469z" fill="#2d2667"/><path d="m176.415 155.358c-1.154.697-2.406 1.034-3.799 1.04h-16.158c-5.463 0-9.075-5.66-6.787-10.608l6.557-14.198c1.226-2.649 3.875-4.346 6.787-4.346h3.043c2.885.002 5.576 1.702 6.787 4.346l6.557 14.198c1.698 3.667.143 7.729-2.987 9.568z" fill="#2d2667"/><g fill="#57409b"><path d="m176.415 155.358c-1.281-.755-2.332-1.894-2.978-3.295l-6.557-14.198c-1.697-3.678-.142-7.729 2.989-9.568 1.281.755 2.332 1.894 2.978 3.295l6.557 14.198c1.696 3.667.141 7.729-2.989 9.568z"/><path d="m179.994 116.824c0 1.992-.372 3.886-1.062 5.638-5.363 3.409-12.116-.435-14.166-7.192-1.675-5.561.383-11.177 4.631-13.137 6.173 2.021 10.606 7.941 10.597 14.691z"/></g></g></g><g><path d="m511.99 253.58c-.03-3.61-.14-7.2-.32-10.77h-87c-7.21 0-13.53 3.8-17.06 9.51-1.907 3.051-2.996 6.731-3 10.55v90.44c0 11.08 8.98 20.06 20.06 20.06h58.89c19.04-36.673 28.871-78.212 28.43-119.79z" fill="#9175a7"/><g><path d="m511.67 242.81c.331 6.479.41 13.058.25 19.56-.004.001-107.305-.001-107.31 0-18.224-.315-22.428-25.119-5.65-31.57 1.76-.65 3.66-1.01 5.65-1.01 26.393.013 79.802-.009 106.07 0z" fill="#a583bb"/><path d="m511.67 242.81c.18 3.57.29 7.16.32 10.77-22.255 0-75.299 0-98.09 0-11.463.167-19.712-12.154-14.94-22.78 1.76-.65 3.66-1.01 5.65-1.01h106.07z" fill="#c2aacf"/><path d="m510.68 229.79h-50.04c-5.658 10.451 2.268 23.93 14.45 23.79h36.9c.067-6.584-.777-17.134-1.31-23.79z" fill="#ebd9ea"/></g><g fill="#57409b"><path d="m439.309 280.405c-9.866 0-17.863 7.998-17.863 17.863v37.97h35.727v-37.97c0-9.866-7.998-17.863-17.864-17.863z"/><path d="m509.8 289.68c-2.1 16.04-5.7 31.6-10.63 46.56h-22.9v-37.97c.196-18.562 24.651-24.571 33.53-8.59z"/></g></g><g><path d="m0 256c-.052 40.788 9.774 81.404 28.44 117.37h58.89c11.08 0 20.06-8.98 20.06-20.06v-90.44c-.004-3.819-1.093-7.499-3-10.55-3.53-5.71-9.85-9.51-17.06-9.51h-87c-.221 4.365-.335 8.79-.33 13.19z" fill="#9175a7"/><g><path d="m1.32 229.79c26.252-.001 79.697 0 106.07 0 1.99 0 3.89.36 5.65 1.01 16.765 6.444 12.589 31.252-5.65 31.57-.001.008-107.306-.006-107.31 0-.376-10.176.342-22.37 1.24-32.58z" fill="#a583bb"/><path d="m1.32 229.79h106.07c1.99 0 3.89.36 5.65 1.01 4.789 10.571-3.514 22.988-14.94 22.78-22.936 0-75.659.001-98.09 0-.067-6.584.777-17.134 1.31-23.79z" fill="#c2aacf"/><path d="m.33 242.81c-.18 3.57-.29 7.16-.32 10.77h36.9c12.182.141 20.108-13.343 14.45-23.79h-50.04z" fill="#ebd9ea"/></g><g fill="#57409b"><path d="m72.691 280.405c9.866 0 17.863 7.998 17.863 17.863v37.97h-35.727v-37.97c0-9.866 7.998-17.863 17.864-17.863z"/><path d="m2.2 289.68c2.1 16.04 5.7 31.6 10.63 46.56h22.9v-37.97c-.196-18.562-24.651-24.571-33.53-8.59z"/></g></g></g></svg>