<svg id="Capa_1" enable-background="new 0 0 512 512" height="512" viewBox="0 0 512 512" width="512" xmlns="http://www.w3.org/2000/svg"><circle cx="256" cy="256" fill="#65b2fe" r="256"/><path d="m512 256c0 87.11-43.52 164.07-110 210.31-41.41 28.8-91.73 45.69-146 45.69s-104.59-16.89-146-45.69c-66.48-46.24-110-123.2-110-210.31 0-46.22 12.25-89.57 33.68-127 44.12 77.07 127.16 129 222.32 129s178.21-51.93 222.32-129c21.43 37.43 33.68 80.78 33.68 127z" fill="#0e9ce7"/><path d="m452 316c0 105.34-83.12 191.28-187.34 195.81-.31.02-.62.03-.93.04-.87.03-1.74.06-2.6.08-1.73.05-3.44.07-5.13.07-108.24 0-196-87.76-196-196s87.76-196 196-196h.28c108.11.15 195.72 87.85 195.72 196z" fill="#ffe853"/><path d="m452 316c0 105.34-83.12 191.28-187.34 195.81-.31.02-.62.03-.93.04-.87.03-1.74.06-2.6.08-1.73.05-3.44.07-5.13.07-58.54-45.3-103.35-116.25-103.35-196s44.81-150.7 103.35-196h.28c108.11.15 195.72 87.85 195.72 196z" fill="#fed110"/><path d="m452 316c0 108.244-87.756 196-196 196v-392c108.244 0 196 87.756 196 196z" fill="#ff9f01"/><path d="m370.43 266.26c0 25.46-20.64 46.1-46.1 46.1-25.45 0-46.09-20.64-46.09-46.1 0-5.5.97-10.78 2.74-15.67 6.41-17.74 65.72-26.07 73.85-18.89 9.57 8.45 15.6 20.8 15.6 34.56z" fill="#fff"/><circle cx="337.5" cy="250.667" fill="#29334c" r="25.616"/><path d="m233.96 266.26c0 25.46-20.64 46.1-46.1 46.1s-46.09-20.64-46.09-46.1c0-1.44.07-2.87.2-4.28.45-4.93 1.69-9.64 3.57-14 7.08-16.36 23.36-27.81 42.32-27.81 6.25 0 12.21 1.24 17.65 3.51 2.14.88 4.21 1.93 6.18 3.12 13.35 8.07 22.27 22.73 22.27 39.46z" fill="#fff"/><circle cx="196.196" cy="247.667" fill="#29334c" r="25.616"/><path d="m354.83 231.7-73.85 18.89c6.41-17.74 23.4-30.42 43.35-30.42 11.69 0 22.37 4.35 30.5 11.53z" fill="#ed771b"/><path d="m215.255 178.46c-16.242 20.451-46.793 29.91-73.514 21.32-.021-.007-.042-.013-.063-.02-2.001-.645-3.955 1.344-2.802 2.874 4.777 6.339 11.996 11.344 21.15 13.927 21.13 5.963 45.356-3.583 55.048-21.676 2.733-5.102 4.081-10.374 4.188-15.506.037-1.847-2.76-2.488-4.007-.919z" fill="#ed771b"/><path d="m348.65 402.65c-17.19-4.99-36.24-7.76-56.31-7.76s-39.13 2.77-56.31 7.76c-11.34 3.29-20.02-10.13-12.59-19.29 16.26-20.03 41.09-32.83 68.9-32.83s52.63 12.8 68.89 32.83c7.44 9.16-1.25 22.58-12.58 19.29z" fill="#313b5a"/><path d="m348.65 402.65c-17.19-4.99-36.24-7.76-56.31-7.76v-44.36c27.81 0 52.63 12.8 68.89 32.83 7.44 9.16-1.25 22.58-12.58 19.29z" fill="#29334c"/></svg>