<svg id="Capa_1" enable-background="new 0 0 512 512" height="512" viewBox="0 0 512 512" width="512" xmlns="http://www.w3.org/2000/svg"><g><g><path d="m512 256c0 141.387-114.613 256-256 256s-256-114.613-256-256 114.613-256 256-256 256 114.613 256 256zm0 0" fill="#e38031"/><path d="m512 256c0 26.051-3.891 51.191-11.129 74.871-5.031 16.469-11.672 32.231-19.75 47.109-8.25 15.2-18 29.461-29.051 42.61-.582.691-1.16 1.379-1.75 2.058-46.941 54.704-116.59 89.352-194.32 89.352s-147.379-34.648-194.309-89.352c-.589-.687-1.179-1.378-1.75-2.07-11.062-13.137-20.812-27.398-29.05-42.598-3.289-6.031-6.332-12.21-9.121-18.531-14-31.629-21.77-66.629-21.77-103.449 0-46.219 12.25-89.57 33.68-127 44.121 77.07 127.16 129 222.32 129s178.211-51.93 222.32-129c21.43 37.43 33.68 80.781 33.68 127zm0 0" fill="#d85819"/><path d="m481.262 377.699c-7.16 13.223-15.434 25.742-24.723 37.43-8.437 10.633-17.719 20.57-27.719 29.723-45.539 41.699-106.211 67.148-172.82 67.148s-127.281-25.449-172.82-67.148c-10-9.153-19.282-19.09-27.719-29.723-9.289-11.688-17.563-24.207-24.723-37.43zm0 0" fill="#bd4911"/></g><g><path d="m368.504 245.785 66.896-66.896-29.732-29.732-121.404 71.851z" fill="#bfebff"/><path d="m178.183 327.09-71.851 121.404 29.731 29.731 66.896-66.896z" fill="#bfebff"/><path d="m143.496 351.866-66.896 66.896 29.732 29.732 96.627-96.628z" fill="#dff5ff"/><path d="m143.496 351.866-66.896 66.896 14.866 15.079 96.628-96.627z" fill="#fff"/><path d="m405.668 149.157-29.731-29.732-66.896 66.896v59.464z" fill="#dff5ff"/><path d="m390.504 134.291-14.567-14.866-66.896 66.896-15.164 44.598z" fill="#fff"/><path d="m173.228 381.598 29.731 29.731 165.545-165.544-29.732-29.732-97.638 67.907z" fill="#16202d"/><path d="m124.076 262.936h234.116v42.047h-234.116z" fill="#2d3e53" transform="matrix(.707 -.707 .707 .707 -130.163 253.678)"/><path d="m116.644 266.015h234.116v21.023h-234.116z" fill="#496587" transform="matrix(.707 -.707 .707 .707 -127.084 246.246)"/></g><g fill="#fff"><path d="m354.5 74.684h-1.524c-6.754 0-12.226-5.477-12.226-12.227v-1.523h-8.715v1.523c0 6.75-5.477 12.227-12.227 12.227h-1.527v8.715h1.527c6.75 0 12.227 5.472 12.227 12.226v1.528h8.715v-1.528c0-6.754 5.472-12.226 12.226-12.226h1.524zm0 0"/><path d="m266 69.405h-1.524c-6.754 0-12.226-5.477-12.226-12.227v-1.523h-8.715v1.523c0 6.75-5.477 12.227-12.227 12.227h-1.527v8.715h1.527c6.75 0 12.227 5.472 12.227 12.226v1.528h8.715v-1.528c0-6.754 5.472-12.226 12.226-12.226h1.524zm0 0"/><path d="m268.577 144.798h-1.524c-6.754 0-12.226-5.477-12.226-12.227v-1.523h-8.715v1.523c0 6.75-5.477 12.227-12.227 12.227h-1.527v8.715h1.527c6.75 0 12.227 5.472 12.227 12.226v1.528h8.715v-1.528c0-6.754 5.472-12.226 12.226-12.226h1.524zm0 0"/><path d="m172.755 124.641h-1.524c-6.754 0-12.226-5.477-12.226-12.227v-1.523h-8.715v1.523c0 6.75-5.477 12.227-12.227 12.227h-1.527v8.715h1.527c6.75 0 12.227 5.472 12.227 12.226v1.528h8.715v-1.528c0-6.754 5.472-12.226 12.226-12.226h1.524zm0 0"/></g></g></svg>