<svg id="Capa_1" enable-background="new 0 0 512 512" height="512" viewBox="0 0 512 512" width="512" xmlns="http://www.w3.org/2000/svg"><g><g><path d="m256 311.524c-141.387 0-244.868-141.051-225.263-177.255 43.302-79.963 127.94-134.269 225.263-134.269 97.204 0 181.752 54.173 225.103 133.974 19.704 36.274-83.716 177.55-225.103 177.55z" fill="#aaed58"/><path d="m512 256c0 26.051-3.891 51.191-11.129 74.871-5.031 16.469-11.672 32.231-19.75 47.109-8.25 15.2-147.391 39.938-225.121 39.938s-216.871-24.738-225.109-39.938c-3.289-6.031-6.332-12.21-9.121-18.531-14-31.629-21.77-66.629-21.77-103.449 0-46.219 12.25-89.57 33.68-127 44.121 77.07 127.16 129 222.32 129s178.211-51.93 222.32-129c21.43 37.43 33.68 80.781 33.68 127zm0 0" fill="#6abb5e"/><path d="m481.262 377.699c-7.16 13.223-15.434 25.742-24.723 37.43-8.437 10.633-17.719 20.57-27.719 29.723-34.885 31.943-78.65 54.35-127.161 63.087-14.816 2.668-30.075-12.222-45.659-12.222s-30.843 14.891-45.659 12.222c-48.511-8.736-92.276-31.144-127.161-63.087-10-9.153-19.282-19.09-27.719-29.723-9.289-11.688-17.563-24.207-24.723-37.43zm0 0" fill="#299f8c"/></g><g><path d="m302.407 376.667v-41.25h-92.814l46.407 82.501z" fill="#7397b8"/><path d="m256 335.417h-46.407v41.25l46.407 41.251z" fill="#8db3cf"/><path d="m235.375 335.417h-25.782v41.25l25.782 41.251z" fill="#aed1eb"/><path d="m370.126 221.977v20.625h41.251v61.876c0 11.373-9.253 20.625-20.625 20.625h-134.752l-20.625 10.313 20.625 10.313h134.752c22.746 0 41.251-18.505 41.251-41.25v-82.501h-61.877z" fill="#5a7ba0"/><path d="m121.248 325.104c-11.373 0-20.625-9.253-20.625-20.625v-61.876h41.25v-20.625h-61.875v82.501c0 22.745 18.505 41.25 41.25 41.25h134.752v-20.625z" fill="#7397b8"/><path d="m390.752 160.102h-134.752l-68.751 72.188 68.751 72.189h134.752z" fill="#f2d332"/><path d="m121.248 160.102h134.752v144.377h-134.752z" fill="#ffeb78"/><path d="m121.248 160.102h66.001v144.377h-66.001z" fill="#ffecab"/><path d="m235.375 444.387 20.592 67.613h.033c15.848 0 31.355-1.451 46.407-4.207v-131.126h-46.407z" fill="#cb2e81"/><path d="m209.593 376.667v131.126c15.052 2.756 30.559 4.207 46.407 4.207v-135.333z" fill="#dc4180"/><path d="m209.593 507.793c8.456 1.549 17.057 2.683 25.782 3.378v-134.504h-25.782z" fill="#ff69a8"/></g><g fill="#fff"><path d="m296.004 68.657h-1.524c-6.754 0-12.226-5.477-12.226-12.227v-1.523h-8.715v1.523c0 6.75-5.477 12.227-12.227 12.227h-1.527v8.715h1.527c6.75 0 12.227 5.472 12.227 12.226v1.528h8.715v-1.528c0-6.754 5.472-12.226 12.226-12.226h1.524zm0 0"/><path d="m385.226 104.876h-1.524c-6.754 0-12.226-5.477-12.226-12.227v-1.523h-8.715v1.523c0 6.75-5.477 12.227-12.227 12.227h-1.527v8.715h1.527c6.75 0 12.227 5.472 12.227 12.226v1.528h8.715v-1.528c0-6.754 5.472-12.226 12.226-12.226h1.524zm0 0"/></g></g></svg>