<svg id="Capa_1" enable-background="new 0 0 512 512" height="512" viewBox="0 0 512 512" width="512" xmlns="http://www.w3.org/2000/svg"><circle cx="256" cy="256" fill="#65b2fe" r="256"/><path d="m512 256c0 87.11-43.52 164.07-110 210.31-41.41 28.8-91.73 45.69-146 45.69s-104.59-16.89-146-45.69c-66.48-46.24-110-123.2-110-210.31 0-46.22 12.25-89.57 33.68-127 44.12 77.07 127.16 129 222.32 129s178.21-51.93 222.32-129c21.43 37.43 33.68 80.78 33.68 127z" fill="#0e9ce7"/><path d="m452 316c0 105.34-83.12 191.28-187.34 195.81-.31.02-.62.03-.93.04-.87.03-1.74.06-2.6.08-1.73.05-3.44.07-5.13.07-108.24 0-196-87.76-196-196s87.76-196 196-196h.28c108.11.15 195.72 87.85 195.72 196z" fill="#ffe853"/><path d="m452 316c0 105.34-83.12 191.28-187.34 195.81-.31.02-.62.03-.93.04-.87.03-1.74.06-2.6.08-1.73.05-3.44.07-5.13.07-58.54-45.3-103.35-116.25-103.35-196s44.81-150.7 103.35-196h.28c108.11.15 195.72 87.85 195.72 196z" fill="#fed110"/><path d="m452 316c0 108.244-87.756 196-196 196v-392c108.244 0 196 87.756 196 196z" fill="#ff9f01"/><path d="m407.78 309.17c0 7.45-3.02 14.19-7.9 19.08-4.88 4.88-11.63 7.9-19.08 7.9h-249.6c-14.9 0-26.98-12.08-26.98-26.98 0-7.45 3.02-14.2 7.9-19.09 4.88-4.88 11.63-7.9 19.08-7.9h249.6c14.9 0 26.98 12.08 26.98 26.99z" fill="#90ed54"/><path d="m407.78 309.17c0 7.45-3.02 14.19-7.9 19.08-4.88 4.88-11.63 7.9-19.08 7.9h-124.8v-53.97h124.8c14.9 0 26.98 12.08 26.98 26.99z" fill="#6cdc2d"/><path d="m224.871 250.52c5.746 20.988-4.991 43.396-24.961 52.039-23.411 10.133-49.932-1.481-58.812-24.602-.217-.556-.426-1.13-.618-1.695-.015-.045-.031-.091-.046-.136-1.309-3.899 3.285-7.137 6.577-4.671 11.246 8.426 26.326 11.344 40.636 6.491 14.307-4.852 24.503-16.33 28.318-29.856 1.127-3.995 6.756-4.149 8.093-.219.296.869.567 1.751.813 2.649z" fill="#29334c"/><path d="m287.129 250.52c-5.746 20.988 4.991 43.396 24.961 52.039 23.411 10.133 49.932-1.481 58.812-24.602.217-.556.426-1.13.618-1.695.015-.045.031-.091.046-.136 1.309-3.899-3.286-7.137-6.577-4.671-11.246 8.426-26.326 11.344-40.636 6.491-14.307-4.852-24.503-16.33-28.318-29.856-1.127-3.995-6.756-4.149-8.093-.219-.296.869-.567 1.751-.813 2.649z" fill="#29334c"/><path d="m347.49 457.79c-1.77.24-3.58.37-5.42.37h-172.14c-1.84 0-3.65-.13-5.42-.37-19.33-2.66-33.74-19.34-33.74-38.72 0-2.28.2-4.6.61-6.94.05-.25.09-.51.14-.77 4.17-22.39 18.07-40.86 36.81-51.52h175.34c18.75 10.66 32.65 29.14 36.81 51.54.05.25.09.5.14.75 3.95 22.18-11.52 42.68-33.13 45.66z" fill="#313b5a"/><path d="m342.07 458.16h-86.07v-98.32h87.67l-.01-.01c18.75 10.67 32.66 29.15 36.82 51.55.05.25.09.5.14.75 4.27 23.99-14.18 46.03-38.55 46.03z" fill="#29334c"/><path d="m343.47 487.59c.45 3.61 1.43 6.09 2.65 8.09-23.25 8.75-48.11 14.21-74.02 15.82h-32.2c-25.91-1.61-50.77-7.07-74.02-15.82 1.22-2 2.2-4.48 2.65-8.09 1.56-12.46-6.38-13.45-4.83-25.9.18-1.47.46-2.76.81-3.9 2.54-8.5 8.87-9.03 10.24-20.02 1.55-12.45-6.39-13.44-4.83-25.89 1.55-12.45 9.49-11.46 11.04-23.91 1.56-12.46-6.38-13.45-4.83-25.9.1-.8.23-1.54.38-2.23h158.98c.15.69.28 1.43.38 2.23 1.55 12.45-6.39 13.44-4.83 25.9 1.55 12.45 9.49 11.46 11.04 23.91 1.56 12.45-6.38 13.44-4.83 25.89 1.37 10.99 7.7 11.52 10.24 20.02.35 1.14.63 2.43.81 3.9 1.55 12.45-6.39 13.44-4.83 25.9z" fill="#6cdc2d"/><path d="m343.47 487.59c.45 3.61 1.43 6.09 2.65 8.09-23.25 8.75-48.11 14.21-74.02 15.82h-16.1v-151.66h79.49c.15.69.28 1.43.38 2.23 1.55 12.45-6.39 13.44-4.83 25.9 1.55 12.45 9.49 11.46 11.04 23.91 1.56 12.45-6.38 13.44-4.83 25.89 1.37 10.99 7.7 11.52 10.24 20.02.35 1.14.63 2.43.81 3.9 1.55 12.45-6.39 13.44-4.83 25.9z" fill="#00a042"/><path d="m343.67 359.84c-2.85 17.58-18.03 30.49-35.83 30.49h-103.68c-17.8 0-32.98-12.91-35.83-30.49 3.14-1.8 6.42-3.37 9.81-4.7 8.66-3.41 18.05-5.26 27.8-5.26h100.12c9.75 0 19.15 1.85 27.8 5.26 3.39 1.33 6.67 2.9 9.81 4.7z" fill="#fff"/><path d="m343.67 359.84c-2.85 17.58-18.03 30.49-35.83 30.49h-51.84v-40.45h50.06c9.75 0 19.15 1.85 27.8 5.26 3.39 1.33 6.67 2.9 9.81 4.7z" fill="#d1f6ff"/><g fill="#85af12"><circle cx="213" cy="423" r="8"/><circle cx="288.262" cy="465.831" r="8"/><circle cx="237.361" cy="497.252" r="4.603"/><circle cx="319.055" cy="491.596" r="4.603"/><circle cx="187.642" cy="473.927" r="9.812"/><circle cx="295.175" cy="414.929" r="9.812"/></g></svg>