<svg id="Icons" enable-background="new 0 0 512 512" height="512" viewBox="0 0 512 512" width="512" xmlns="http://www.w3.org/2000/svg"><g><circle cx="256" cy="256" fill="#6c53a2" r="256"/><g><g><path d="m347.4 129.61c4.324-1.941 9.211 1.222 9.211 5.962v46.488c0 35.731-42.356 64.703-94.583 64.703s-94.583-28.972-94.583-64.703v-46.488c0-4.739 4.887-7.902 9.211-5.962l82.696 37.121c1.702.764 3.65.764 5.352 0z" fill="#2d2667"/><g><path d="m272.175 235.584c-10.068-.224-11.553-14.463-1.597-16.661 27.298-5.314 48.875-19.105 57.718-36.893 2.067-4.159 7.111-5.855 11.27-3.786 4.159 2.067 5.853 7.113 3.786 11.27-11.183 22.619-38.54 40.668-71.177 46.07z" fill="#57409b"/></g></g><g><path d="m410.319 117.255-145.123 65.135c-2.015.904-4.32.904-6.335 0l-145.123-65.135c-6.091-2.734-6.091-11.381 0-14.115l145.123-65.135c2.015-.904 4.32-.904 6.335 0l145.123 65.135c6.091 2.734 6.091 11.381 0 14.115z" fill="#57409b"/><g><path d="m359.281 115.986c-1.271 0-2.56-.263-3.795-.817l-90.077-40.429c-4.677-2.099-6.766-7.591-4.667-12.267 2.098-4.677 7.591-6.764 12.267-4.667l90.078 40.429c9.09 4.182 6.083 17.701-3.806 17.751z" fill="#6c53a2"/></g></g><g><g><path d="m128.585 141.398v44.169h-15.133v-46.294c0-3.772 3.889-6.289 7.33-4.744l4.732 2.124c1.869.839 3.071 2.696 3.071 4.745z" fill="#2d2667"/></g><path d="m144.762 191.93c.089 12.806-10.514 23.795-23.742 23.742-31.499-1.246-31.479-46.252 0-47.502 12.778-.163 23.841 10.681 23.742 23.76z" fill="#2d2667"/><path d="m139.264 251.118c-1.773 1.07-3.696 1.588-5.835 1.597h-24.819c-8.391 0-13.939-8.693-10.425-16.293l10.072-21.809c1.883-4.069 5.952-6.675 10.425-6.675 3.319.021 7.662-.357 10.526 1.614 1.967 1.16 3.582 2.909 4.574 5.061l10.072 21.809c2.607 5.633.219 11.871-4.59 14.696z" fill="#2d2667"/><g fill="#57409b"><path d="m139.264 251.118c-1.967-1.16-3.582-2.909-4.574-5.061l-10.072-21.809c-2.606-5.65-.219-11.871 4.59-14.696 1.967 1.16 3.582 2.909 4.574 5.061l10.072 21.809c2.607 5.633.219 11.871-4.59 14.696z"/><path d="m144.762 191.93c0 3.06-.572 5.969-1.631 8.66-8.238 5.236-18.61-.669-21.758-11.047-2.573-8.542.589-17.168 7.113-20.178 9.48 3.104 16.289 12.197 16.276 22.565z"/></g></g></g><g><g><path d="m456.44 328.08c.154 20.654-17.056 38.272-38.13 38.14h-324.62c-10.257.009-19.85-4.075-26.96-11.17-19.058-18.826-12.726-51.723 12.09-62.08 4.26-1.81 8.92-2.87 13.8-3 .384-.168 325.052.1 325.69-.01 21.003-.145 38.264 17.428 38.13 38.12z" fill="#ebd9ea"/><path d="m446.68 353.56c-6.97 7.77-17.1 12.66-28.37 12.66h-324.62c-10.942.013-21.192-4.666-28.37-12.66 6.981-7.888 17.616-12.748 28.37-12.66h324.62c11.271.02 21.316 4.825 28.37 12.66z" fill="#c2aacf"/><path d="m447 302.99c-6.982 8.008-17.248 13.022-28.69 13.03h-324.62c-10.964.054-21.667-4.886-28.7-13.04 7.14-8.177 17.671-13.07 28.7-13.02h324.62c11.441.026 21.625 4.96 28.69 13.03z" fill="#fff"/></g><path d="m241.365 289.96h29.27v26.06h-29.27z" fill="#c0405c"/><path d="m256 289.96h14.635v26.06h-14.635z" fill="#e9465e"/><g><g><path d="m291.399 403.2c2.927 1.574 26.354 14.105 28.575 15.304 2.356 1.264 4.891-1.355 3.555-3.668l-24.075-41.699-38.119 22.008 24.075 41.699c1.336 2.314 4.872 1.428 4.955-1.245.064-2.397.938-29.221 1.034-32.399" fill="#f39e22"/><path d="m270.391 397.572 18.489 32.024c.401.694.995 1.099 1.633 1.253l.885-27.649 24.387 13.058c.185-.63.132-1.347-.269-2.041l-18.489-32.024z" fill="#fad98f"/></g><g><path d="m220.601 403.373c.1 3.322.962 29.875 1.034 32.399.083 2.673 3.619 3.559 4.955 1.245l24.075-41.699-38.119-22.008-24.075 41.699c-1.336 2.314 1.199 4.933 3.555 3.668 2.109-1.143 25.775-13.798 28.575-15.304" fill="#f39e22"/><path d="m214.972 382.366-18.489 32.024c-.401.694-.454 1.411-.269 2.041l24.387-13.058.885 27.649c.638-.154 1.233-.559 1.633-1.253l18.489-32.024z" fill="#fad98f"/></g></g><g><g><path d="m304.597 355.734c0-26.84-21.758-48.597-48.597-48.597-64.463 2.56-64.445 94.645 0 97.195 26.84 0 48.597-21.758 48.597-48.598z" fill="#c0405c"/><path d="m297.855 355.734c0-23.116-18.739-41.855-41.855-41.855-55.52 2.205-55.504 81.514 0 83.71 23.116 0 41.855-18.739 41.855-41.855z" fill="#e9465e"/><path d="m287.8 355.73c-1.703 42.107-61.801 42.302-63.6 0-.244-24.236 26.917-39.765 47.63-27.579 9.785 5.637 15.984 16.08 15.97 27.579z" fill="#f39e22"/><path d="m287.8 355.73c0 1.12-.06 2.22-.17 3.31-4.24 7.91-12.58 13.29-22.18 13.29-13.89 0-25.16-11.27-25.16-25.16 0-10.46 6.4-19.44 15.49-23.23 5.819-.04 11.336 1.495 16.05 4.21 9.785 5.638 15.984 16.081 15.97 27.58z" fill="#f9c744"/><path d="m283.78 341.24c0 7.26-5.89 13.14-13.15 13.14-17.435-.688-17.421-25.6 0-26.29 3.417-.246 13.275 9.754 13.15 13.15z" fill="#fad98f"/></g></g></g></g></svg>