<svg id="Capa_1" enable-background="new 0 0 512 512" height="512" viewBox="0 0 512 512" width="512" xmlns="http://www.w3.org/2000/svg"><g><g><path d="m0 256c0 43.79 11 85.02 30.39 121.07l225.61 49.67 225.61-49.67c19.39-36.05 30.39-77.28 30.39-121.07 0-46.63-12.47-90.34-34.26-128-41.698 72.091-399.22 76.52-443.48 0-21.79 37.66-34.26 81.37-34.26 128z" fill="#8898e5"/><path d="m34.26 128c44.26 76.52 126.99 128 221.74 128s177.48-51.48 221.74-128c-.01-.02-.03-.05-.04-.07-44.27-76.48-126.98-127.93-221.7-127.93s-177.43 51.45-221.7 127.93c-.01.02-.03.05-.04.07z" fill="#a3b5eb"/><path d="m481.61 377.07c-14.96 27.82-34.92 52.56-58.68 73.01-3.355 2.891-13.863-4.033-17.365-1.32-3.524 2.73-.043 15.097-3.715 17.64-41.38 28.75-91.65 45.6-145.85 45.6s-104.47-16.85-145.85-45.6c-3.503-2.426 4.015-15.043.646-17.64-3.671-2.83-18.216 4.345-21.726 1.32-23.76-20.45-43.72-45.19-58.68-73.01z" fill="#546bd9"/></g><path d="m110.796 169.341 145.204-15.933 145.204 15.933v240.115l-145.204 15.933-145.204-15.933z" fill="#f5dc6e"/><g fill="#464651"><path d="m298.13 222.08-23.88 41.37c-5.37-3.1-11.6-4.89-18.25-4.89-6.63 0-12.86 1.79-18.23 4.88l-23.89-41.36c12.39-7.17 26.78-11.28 42.12-11.28 15.35 0 29.73 4.11 42.13 11.28z"/><path d="m237.76 326.637-23.882 41.36c-12.784-7.388-23.446-18.051-30.842-30.826-7.17-12.405-11.275-26.785-11.275-42.134h47.764c0 6.646 1.782 12.881 4.872 18.244 3.217 5.532 7.83 10.146 13.363 13.356z"/><path d="m340.24 295.04c0 15.34-4.11 29.73-11.28 42.13-7.39 12.78-18.05 23.44-30.84 30.83l-23.87-41.36c5.53-3.21 10.14-7.83 13.34-13.36 3.1-5.36 4.89-11.6 4.89-18.24z"/><path d="m277.81 295.04c0 12.05-9.77 21.81-21.81 21.81s-21.81-9.76-21.81-21.81c0-12.04 9.77-21.8 21.81-21.8s21.81 9.76 21.81 21.8z"/></g><path d="m256 169.341 72.602-15.933 72.602 15.933v240.115l-72.602 15.933-72.602-15.933z" fill="#eebf36"/><g fill="#464651"><path d="m110.796 137.476h290.408v31.864h-290.408z"/><path d="m110.796 409.456h290.408v31.864h-290.408z"/></g><g fill="#2d3041"><path d="m256 137.476h145.204v31.864h-145.204z"/><path d="m256 409.456h145.204v31.864h-145.204z"/></g><g fill="#616679"><path d="m422.93 431.12v18.96c-6.73 5.8-13.76 11.25-21.08 16.32h-291.7c-7.32-5.07-14.35-10.52-21.08-16.32v-18.96z"/><path d="m89.067 112.399h333.867v35.279h-333.867z"/></g><g fill="#464651"><path d="m422.93 431.12v18.96c-6.73 5.8-13.76 11.25-21.08 16.32h-145.85v-35.28z"/><path d="m256 112.399h166.933v35.279h-166.933z"/></g><g fill="#2d3041"><path d="m277.81 295.04c0 12.05-9.77 21.81-21.81 21.81v-43.61c12.04 0 21.81 9.76 21.81 21.8z"/><path d="m274.25 263.45c-5.37-3.1-11.6-4.89-18.25-4.89v-47.76c15.35 0 29.73 4.11 42.13 11.28z"/><path d="m340.24 295.04c0 15.34-4.11 29.73-11.28 42.13-7.39 12.78-18.05 23.44-30.84 30.83l-23.87-41.36c5.53-3.21 10.14-7.83 13.34-13.36 3.1-5.36 4.89-11.6 4.89-18.24z"/></g></g></svg>