<?xml version="1.0" encoding="iso-8859-1"?>
<!-- Generator: Adobe Illustrator 19.0.0, SVG Export Plug-In . SVG Version: 6.00 Build 0)  -->
<svg version="1.1" id="Capa_1" xmlns="http://www.w3.org/2000/svg" xmlns:xlink="http://www.w3.org/1999/xlink" x="0px" y="0px"
	 viewBox="0 0 512 512" style="enable-background:new 0 0 512 512;" xml:space="preserve">
<path style="fill:#6BC5DC;" d="M512,256c0,141.385-114.615,256-256,256S0,397.385,0,256S114.615,0,256,0S512,114.615,512,256z"/>
<path style="fill:#FFD98F;" d="M106.084,92H408v369.994c-0.003,0.002-0.005,0.004-0.008,0.006H104.008
	C86.922,449.373,71.46,434.676,58,418.271V141.58C71.671,123.127,87.854,106.455,106.084,92z"/>
<path style="fill:#FFF5F5;" d="M91.336,60H376v370H68.246c-8.029-8.659-15.465-17.872-22.246-27.58V109.58
	C58.89,91.127,74.148,74.455,91.336,60z"/>
<path style="fill:#FFE7BF;" d="M65,402.42c6.781,9.708,14.218,18.921,22.246,27.58h-19c-8.029-8.659-15.465-17.873-22.246-27.58
	V109.58C58.89,91.127,74.148,74.456,91.336,60h19C93.148,74.456,77.89,91.127,65,109.58V402.42z"/>
<path style="fill:#FFE1A8;" d="M76,168v-11c0-1.104,0.895-2,2-2h88.857c1.105,0,2,0.896,2,2v11c0,1.104-0.895,2-2,2H78
	C76.895,170,76,169.104,76,168z M78,254.333h226c1.105,0,2-0.895,2-2v-11c0-1.104-0.895-2-2-2H78c-1.105,0-2,0.896-2,2v11
	C76,253.438,76.895,254.333,78,254.333z M78,142h126c1.105,0,2-0.896,2-2v-11c0-1.104-0.895-2-2-2H78c-1.105,0-2,0.896-2,2v11
	C76,141.104,76.895,142,78,142z M78,313h230c1.105,0,2-0.896,2-2v-11c0-1.104-0.895-2-2-2H78c-1.105,0-2,0.896-2,2v11
	C76,312.104,76.895,313,78,313z M178,358H78c-1.105,0-2,0.896-2,2v11c0,1.104,0.895,2,2,2h100c1.105,0,2-0.896,2-2v-11
	C180,358.896,179.105,358,178,358z M344,268.667H78c-1.105,0-2,0.896-2,2v11c0,1.105,0.895,2,2,2h266c1.105,0,2-0.895,2-2v-11
	C346,269.562,345.105,268.667,344,268.667z M338,328H78c-1.105,0-2,0.896-2,2v11c0,1.104,0.895,2,2,2h260c1.105,0,2-0.896,2-2v-11
	C340,328.896,339.105,328,338,328z"/>
<g>
	<path style="fill:#EA4444;" d="M78,239.333h122v15H78c-1.105,0-2-0.895-2-2v-11C76,240.229,76.895,239.333,78,239.333z M344,210H78
		c-1.105,0-2,0.896-2,2v11c0,1.104,0.895,2,2,2h266c1.105,0,2-0.896,2-2v-11C346,210.896,345.105,210,344,210z"/>
	<path style="fill:#EA4444;" d="M370,226v-26.438c0-0.918,0.625-1.718,1.515-1.94l36-9c1.262-0.316,2.485,0.639,2.485,1.94V226
		c0,1.105-0.895,2-2,2h-36C370.895,228,370,227.105,370,226z"/>
</g>
<path style="fill:#465A61;" d="M430,458v32c0,5.523-4.477,10-10,10h-60c-5.523,0-10-4.477-10-10v-31.999V458V258
	c0-5.523,4.477-10,10-10h10v-28c0-1.104,0.895-2,2-2h36c1.105,0,2,0.896,2,2v28h10c5.523,0,10,4.477,10,10V458L430,458z"/>
<path style="fill:#D93131;" d="M430,478h-80c-5.523,0-10-4.477-10-10V288c0-5.523,4.477-10,10-10h80c5.523,0,10,4.477,10,10v180
	C440,473.523,435.523,478,430,478z"/>
<path style="fill:#EA4444;" d="M430,478h-50c-5.523,0-10-4.477-10-10V288c0-5.523,4.477-10,10-10h50c5.523,0,10,4.477,10,10v180
	C440,473.523,435.523,478,430,478z"/>
<g>
</g>
<g>
</g>
<g>
</g>
<g>
</g>
<g>
</g>
<g>
</g>
<g>
</g>
<g>
</g>
<g>
</g>
<g>
</g>
<g>
</g>
<g>
</g>
<g>
</g>
<g>
</g>
<g>
</g>
</svg>
