<svg id="Capa_1" enable-background="new 0 0 512.245 512.245" height="512" viewBox="0 0 512.245 512.245" width="512" xmlns="http://www.w3.org/2000/svg"><g><g><path d="m256.123 324.687c-141.387 0-244.868-154.213-225.264-190.416 43.302-79.964 127.94-134.271 225.264-134.271 97.204 0 181.752 54.173 225.103 133.974 19.704 36.274-83.716 190.713-225.103 190.713z" fill="#ff0f47"/><path d="m512.123 256c0 26.051-3.891 51.191-11.129 74.871-5.031 16.469-11.672 32.231-19.75 47.109-8.25 15.2-147.391 52.238-225.121 52.238s-216.871-37.038-225.109-52.238c-3.289-6.031-6.332-12.21-9.121-18.531-14-31.629-21.77-66.629-21.77-103.449 0-46.219 12.25-89.57 33.68-127 44.121 77.07 127.16 129 222.32 129s178.211-51.93 222.32-129c21.43 37.43 33.68 80.781 33.68 127zm0 0" fill="#ba1956"/><path d="m481.385 377.699c-7.16 13.223-15.434 25.742-24.723 37.43-7.28 9.174-15.188 17.831-23.645 25.912-1.344 1.285-56.677 43.497-87.998 55.098-27.691 10.257-57.64 15.861-88.896 15.861-31.418 0-61.516-5.662-89.327-16.021-31.151-11.602-85.835-53.291-86.991-54.389-8.674-8.238-16.776-17.079-24.221-26.462-9.289-11.688-17.563-24.207-24.723-37.43h450.524zm0 0" fill="#742466"/></g><g><path d="m213.921 278.735 42.201 106.205h180.056v-42.2z" fill="#576ceb"/><path d="m256.122 236.535-180.056 106.205v42.2h180.056z" fill="#429dea"/><path d="m166.795 236.535-90.729 106.205v42.2h90.729z" fill="#6ab1ed"/><path d="m256.122 152.134-49.234 95.302 49.234 95.304h180.056v-190.606z" fill="#429dea"/><path d="m76.066 152.134h180.056v190.606h-180.056z" fill="#2dceea"/><path d="m76.066 152.134h90.028v190.606h-90.028z" fill="#63e1f7"/><path d="m256.122 194.334h137.855v106.205h-137.855z" fill="#8defe9"/><path d="m118.267 194.334h137.855v106.205h-137.855z" fill="#8bfff4"/><path d="m118.267 194.334h48.528v106.205h-48.528z" fill="#b8fff8"/><path d="m256.122 194.334-26.551 53.102 26.551 53.102c29.328 0 53.102-23.775 53.102-53.102s-23.774-53.102-53.102-53.102z" fill="#576ceb"/><path d="m203.02 247.436c0 29.328 23.775 53.102 53.102 53.102v-106.204c-29.328 0-53.102 23.775-53.102 53.102z" fill="#429dea"/><path d="m203.02 247.436c0 29.328 23.775 53.102 53.102 53.102-35.402 0-35.402-106.205 0-106.205-29.328.001-53.102 23.776-53.102 53.103z" fill="#6ab1ed"/><path d="m150.093 236.886h21.1v21.1h-21.1z" fill="#2dceea"/><path d="m341.051 236.886h21.1v21.1h-21.1z" fill="#429dea"/><path d="m383.075 406.04-26.551 53.102 13.166 26.331c23.347-11.577 44.682-26.598 63.323-44.421-7.399-20.42-26.963-35.012-49.938-35.012z" fill="#ff903d"/><path d="m329.973 459.143c0 14.39 5.733 27.434 15.028 36.998 13.242-4.903 25.969-10.866 38.075-17.792v-72.309c-29.328 0-53.103 23.775-53.103 53.103z" fill="#ffb03b"/><path d="m256.122 406.04-26.551 53.102 26.551 53.102c29.328 0 53.102-23.775 53.102-53.102s-23.774-53.102-53.102-53.102z" fill="#ffb03b"/><path d="m203.02 459.143c0 29.328 23.775 53.102 53.102 53.102v-106.205c-29.328 0-53.102 23.775-53.102 53.103z" fill="#ffc46c"/><path d="m203.02 459.143c0 29.328 23.775 53.102 53.102 53.102-35.402 0-35.402-106.205 0-106.205-29.328 0-53.102 23.775-53.102 53.103z" fill="#ffd89e"/><path d="m129.169 406.04-26.551 53.102 1.381 2.763c19.201 14.209 40.457 25.798 63.245 34.235 9.295-9.564 15.028-22.608 15.028-36.998-.001-29.327-23.776-53.102-53.103-53.102z" fill="#ffb03b"/><path d="m79.232 441.052c15.017 14.359 31.78 26.906 49.937 37.295v-72.307c-22.975 0-42.538 14.592-49.937 35.012z" fill="#ffc46c"/><path d="m79.232 441.052c7.392 7.068 15.208 13.698 23.404 19.847-.399-27.124 8.442-54.859 26.533-54.859-22.975 0-42.538 14.592-49.937 35.012z" fill="#ffd89e"/></g><g fill="#fff"><path d="m238.013 62.791h1.524c6.754 0 12.226 5.472 12.226 12.226v1.528h8.715v-1.528c0-6.754 5.477-12.226 12.227-12.226h1.527v-8.715h-1.527c-6.75 0-12.227-5.477-12.227-12.227v-1.523h-8.715v1.523c0 6.75-5.472 12.227-12.226 12.227h-1.524zm0-8.715"/><g><path d="m130.576 106.637h1.524c6.754 0 12.226 5.472 12.226 12.226v1.528h8.715v-1.528c0-6.754 5.477-12.226 12.227-12.226h1.527v-8.715h-1.527c-6.75 0-12.227-5.477-12.227-12.227v-1.523h-8.715v1.523c0 6.75-5.472 12.227-12.226 12.227h-1.524zm0-8.715"/><path d="m345.449 106.637h1.524c6.754 0 12.226 5.472 12.226 12.226v1.528h8.715v-1.528c0-6.754 5.477-12.226 12.227-12.226h1.527v-8.715h-1.527c-6.75 0-12.227-5.477-12.227-12.227v-1.523h-8.715v1.523c0 6.75-5.472 12.227-12.226 12.227h-1.524zm0-8.715"/></g></g></g></svg>