<svg id="Capa_1" enable-background="new 0 0 512 512" height="512" viewBox="0 0 512 512" width="512" xmlns="http://www.w3.org/2000/svg"><circle cx="256" cy="256" fill="#ffe400" r="256"/><path d="m512 256c0 87.11-43.52 164.07-110 210.31-41.41 28.8-91.73 45.69-146 45.69s-104.59-16.89-146-45.69c-66.48-46.24-110-123.2-110-210.31 0-46.22 12.25-89.57 33.68-127 44.12 77.07 127.16 129 222.32 129s178.21-51.93 222.32-129c21.43 37.43 33.68 80.78 33.68 127z" fill="#ffce00"/><path d="m410.02 132v328.49c-42.86 32.34-96.2 51.51-154.02 51.51-24.82 0-48.81-3.53-71.5-10.12-30.18-8.76-58.06-22.92-82.52-41.38v-328.5c0-20.11 16.3-36.42 36.42-36.42h235.2c20.12 0 36.42 16.31 36.42 36.42z" fill="#4e689b"/><path d="m410.02 132v328.49c-42.86 32.34-96.2 51.51-154.02 51.51-24.82 0-48.81-3.53-71.5-10.12-.35-2.05-.54-4.15-.54-6.3v-363.58c0-20.11 16.3-36.42 36.42-36.42h153.22c20.12 0 36.42 16.31 36.42 36.42z" fill="#374c81"/><path d="m410.02 132v328.49c-42.86 32.34-96.2 51.51-154.02 51.51v-416.42h117.6c20.12 0 36.42 16.31 36.42 36.42z" fill="#234177"/><path d="m353.89 146.53v34.05c0 6.44-5.22 11.65-11.65 11.65h-172.48c-6.43 0-11.65-5.21-11.65-11.65v-34.05c0-6.43 5.22-11.65 11.65-11.65h172.48c6.43 0 11.65 5.22 11.65 11.65z" fill="#fff"/><path d="m203.862 341.084h-39.799c-3.285 0-5.948-2.663-5.948-5.948v-39.799c0-3.285 2.663-5.948 5.948-5.948h39.799c3.285 0 5.948 2.663 5.948 5.948v39.799c0 3.285-2.663 5.948-5.948 5.948z" fill="#fff"/><path d="m203.862 412.443h-39.799c-3.285 0-5.948-2.663-5.948-5.948v-39.799c0-3.285 2.663-5.948 5.948-5.948h39.799c3.285 0 5.948 2.663 5.948 5.948v39.799c0 3.285-2.663 5.948-5.948 5.948z" fill="#fff"/><path d="m203.862 482.748h-39.799c-3.285 0-5.948-2.663-5.948-5.948v-39.799c0-3.285 2.663-5.948 5.948-5.948h39.799c3.285 0 5.948 2.663 5.948 5.948v39.799c0 3.285-2.663 5.948-5.948 5.948z" fill="#fff"/><path d="m196.797 462.514h-7.221v7.221c0 3.101-2.514 5.614-5.614 5.614h-.003c-3.101 0-5.614-2.514-5.614-5.614v-7.221h-7.221c-3.101 0-5.614-2.514-5.614-5.614 0-3.101 2.514-5.614 5.614-5.614h7.221v-7.221c0-3.101 2.514-5.614 5.614-5.614h.003c3.101 0 5.614 2.514 5.614 5.614v7.221h7.221c3.101 0 5.614 2.514 5.614 5.614.001 3.101-2.513 5.614-5.614 5.614z" fill="#4e689b"/><path d="m281.47 295.34v39.8c0 3.28-2.67 5.94-5.95 5.94h-39.8c-3.28 0-5.95-2.66-5.95-5.94v-39.8c0-3.29 2.67-5.95 5.95-5.95h39.8c3.28 0 5.95 2.66 5.95 5.95z" fill="#fff"/><path d="m281.47 366.7v39.8c0 3.28-2.67 5.94-5.95 5.94h-39.8c-3.28 0-5.95-2.66-5.95-5.94v-39.8c0-3.29 2.67-5.95 5.95-5.95h39.8c3.28 0 5.95 2.66 5.95 5.95z" fill="#fff"/><path d="m281.47 437v39.8c0 3.29-2.67 5.95-5.95 5.95h-39.8c-3.28 0-5.95-2.66-5.95-5.95v-39.8c0-3.28 2.67-5.95 5.95-5.95h39.8c3.28 0 5.95 2.67 5.95 5.95z" fill="#fff"/><path d="m203.862 270.194h-39.799c-3.285 0-5.948-2.663-5.948-5.948v-39.799c0-3.285 2.663-5.948 5.948-5.948h39.799c3.285 0 5.948 2.663 5.948 5.948v39.799c0 3.285-2.663 5.948-5.948 5.948z" fill="#fff"/><path d="m281.47 224.45v39.8c0 3.28-2.67 5.94-5.95 5.94h-39.8c-3.28 0-5.95-2.66-5.95-5.94v-39.8c0-3.29 2.67-5.95 5.95-5.95h39.8c3.28 0 5.95 2.66 5.95 5.95z" fill="#fff"/><g fill="#d1f6ff"><path d="m347.937 341.084h-39.799c-3.285 0-5.948-2.663-5.948-5.948v-39.799c0-3.285 2.663-5.948 5.948-5.948h39.799c3.285 0 5.948 2.663 5.948 5.948v39.799c0 3.285-2.663 5.948-5.948 5.948z"/><path d="m347.937 270.194h-39.799c-3.285 0-5.948-2.663-5.948-5.948v-39.799c0-3.285 2.663-5.948 5.948-5.948h39.799c3.285 0 5.948 2.663 5.948 5.948v39.799c0 3.285-2.663 5.948-5.948 5.948z"/><path d="m281.47 224.45v39.8c0 3.28-2.67 5.94-5.95 5.94h-19.52v-51.69h19.52c3.28 0 5.95 2.66 5.95 5.95z"/><path d="m281.47 295.34v39.8c0 3.28-2.67 5.94-5.95 5.94h-19.52v-51.69h19.52c3.28 0 5.95 2.66 5.95 5.95z"/><path d="m281.47 366.7v39.8c0 3.28-2.67 5.94-5.95 5.94h-19.52v-51.69h19.52c3.28 0 5.95 2.66 5.95 5.95z"/><path d="m281.47 437v39.8c0 3.29-2.67 5.95-5.95 5.95h-19.52v-51.7h19.52c3.28 0 5.95 2.67 5.95 5.95z"/></g><path d="m270.06 458.62-3.25-1.77 3.07-1.6c2.8-1.45 3.82-4.94 2.24-7.67l-.01-.01c-1.54-2.67-4.98-3.56-7.62-1.97l-2.99 1.79.08-3.5c.07-3.1-2.42-5.65-5.52-5.65h-.13c-3.11 0-5.6 2.55-5.53 5.65l.08 3.5-2.9-1.82c-2.67-1.67-6.2-.78-7.75 1.96l-.05.09c-1.54 2.72-.53 6.17 2.23 7.62l3.06 1.61-3.14 1.73c-2.72 1.5-3.67 4.95-2.1 7.64l.02.03c1.56 2.67 4.99 3.54 7.63 1.94l3.1-1.88-.12 3.54v.18c0 3.05 2.46 5.54 5.53 5.54h.01c3.13-.01 5.62-2.6 5.51-5.72l-.11-3.43 3.04 1.88c2.66 1.64 6.15.76 7.7-1.96l.07-.12c1.54-2.69.57-6.12-2.15-7.6z" fill="#4e689b"/><path d="m272.21 466.22-.07.12c-1.55 2.72-5.04 3.6-7.7 1.96l-3.04-1.88.11 3.43c.11 3.12-2.38 5.71-5.51 5.72v-37.33h.06c3.1 0 5.59 2.55 5.52 5.65l-.08 3.5 2.99-1.79c2.64-1.59 6.08-.7 7.62 1.97l.01.01c1.58 2.73.56 6.22-2.24 7.67l-3.07 1.6 3.25 1.77c2.72 1.48 3.69 4.91 2.15 7.6z" fill="#374c81"/><path d="m353.89 146.53v34.05c0 6.44-5.22 11.65-11.65 11.65h-86.24v-57.35h86.24c6.43 0 11.65 5.22 11.65 11.65z" fill="#d1f6ff"/><path d="m347.937 360.748h-39.799c-3.285 0-5.948 2.663-5.948 5.948v39.799 70.305c0 3.285 2.663 5.948 5.948 5.948h39.799c3.285 0 5.948-2.663 5.948-5.948v-70.305-39.799c0-3.285-2.663-5.948-5.948-5.948z" fill="#6c82ff"/><path d="m336.582 418.738h-16.013c-3.205 0-5.803-2.598-5.803-5.803 0-3.205 2.598-5.803 5.803-5.803h16.013c3.205 0 5.803 2.598 5.803 5.803.001 3.205-2.598 5.803-5.803 5.803z" fill="#fff"/><path d="m336.582 435.209h-16.013c-3.205 0-5.803-2.598-5.803-5.803 0-3.205 2.598-5.803 5.803-5.803h16.013c3.205 0 5.803 2.598 5.803 5.803.001 3.204-2.598 5.803-5.803 5.803z" fill="#fff"/></svg>