<svg id="Capa_1" enable-background="new 0 0 512 512" height="512" viewBox="0 0 512 512" width="512" xmlns="http://www.w3.org/2000/svg"><g><g><path d="m0 256c0 43.79 11 85.02 30.39 121.07l225.61 49.67 225.61-49.67c19.39-36.05 30.39-77.28 30.39-121.07 0-46.63-12.47-90.34-34.26-128-41.698 72.091-399.22 76.52-443.48 0-21.79 37.66-34.26 81.37-34.26 128z" fill="#78cd8a"/><path d="m34.26 128c44.26 76.52 126.99 128 221.74 128s177.48-51.48 221.74-128c-.01-.02-.03-.05-.04-.07-44.27-76.48-126.98-127.93-221.7-127.93s-177.43 51.45-221.7 127.93c-.01.02-.03.05-.04.07z" fill="#a8ea58"/><path d="m481.61 377.07c-43.19 80.32-128.02 134.93-225.61 134.93-71.94 0-136.95-29.68-183.45-77.46-3.146-3.229 9.506-22.257 6.533-25.65-5.958-6.799-27.273 1.795-32.483-5.61-5.92-8.38-11.33-17.13-16.21-26.21z" fill="#599d89"/></g><g><g><path d="m241.77 222.54c0 23.8-8.57 45.63-22.78 62.58 14.21 16.96 22.78 38.79 22.78 62.59v86.83h-70v-86.83c0-15.21-12.38-27.59-27.59-27.59s-27.58 12.38-27.58 27.59v86.83h-44.05c-9.45-9.7-18.14-20.16-25.95-31.26v-55.57c0-23.8 8.56-45.63 22.77-62.59-14.21-16.95-22.77-38.78-22.77-62.58v-86.83h70v86.83c0 15.21 12.37 27.58 27.58 27.58s27.59-12.37 27.59-27.58v-86.83h70z" fill="#d75e91"/><path d="m465.4 135.71v86.83c0 41.48-26.01 76.99-62.58 91.09v120.91h-70v-120.91c-36.57-14.1-62.59-49.61-62.59-91.09v-86.83h70v86.83c0 15.21 12.38 27.58 27.59 27.58s27.58-12.37 27.58-27.58v-86.83z" fill="#8898e5"/></g><path d="m465.4 135.71v86.83c0 41.48-26.01 76.99-62.58 91.09v120.91h-35v-184.42c15.21 0 27.58-12.37 27.58-27.58v-86.83z" fill="#546bd9"/><path d="m241.77 222.54c0 23.8-8.57 45.63-22.78 62.58 14.21 16.96 22.78 38.79 22.78 62.59v86.83h-70v-86.83c0-15.21-12.38-27.59-27.59-27.59v-70c15.21 0 27.59-12.37 27.59-27.58v-86.83h70z" fill="#bf2e70"/></g></g></svg>