<svg id="Icons" enable-background="new 0 0 512 512" height="512" viewBox="0 0 512 512" width="512" xmlns="http://www.w3.org/2000/svg"><g><path d="m512 256c0 69.85-27.98 133.17-73.34 179.36-2.68 2.73-5.42 5.4-8.22 8.02-28.78 26.79-63.73 47.04-102.5 58.37-6.56 1.92-13.23 3.58-20 4.98-16.77 3.45-34.14 5.27-51.94 5.27-141.38 0-256-114.62-256-256 0-65.86 24.88-125.91 65.73-171.27 5.5-6.1 11.28-11.93 17.33-17.49 13.94-12.77 29.3-24.03 45.82-33.49 37.46-21.47 80.86-33.75 127.12-33.75 141.38 0 256 114.62 256 256z" fill="#22bce0"/><g id="Person_2_"><g id="Arm_2_"><path d="m265.591 489.665c-32.755 1.335-49.811-42.363-68.599-76.39l29.03-15.692c10.169 18.284 28.893 58.398 38.383 58.992 2.036.296 7.026-.264 17.563-7.409 10.806-7.329 24.522-19.534 43.167-38.41l23.479 23.189c-39.643 40.137-62.501 55.72-83.023 55.72z" fill="#2d2667"/></g><g id="Hand_1_"><path d="m229.937 405.43c-.003 7.387-5.988 13.394-13.39 13.39h-36.36c-7.461.02-13.418-6.142-13.39-13.39.002-7.402 5.988-13.388 13.39-13.39h36.36c7.252-.029 13.407 5.921 13.39 13.39z" fill="#eab39b"/><path d="m223.937 399.43c-.003 7.387-5.988 13.394-13.39 13.39h-36.36c-2.15 0-4.17-.5-5.97-1.4-4.525-8.617 2.18-19.563 11.97-19.38h36.36c2.15 0 4.18.51 5.98 1.41.9 1.8 1.41 3.83 1.41 5.98z" fill="#ffe9d7"/></g><g id="Body_2_"><path d="m390.59 389.1c-26.518-6.966-56.593 4.834-71.36 27.58-7.13 10.61-11.29 23.39-11.29 37.14v52.91c49.825-10.2 95.781-35.644 130.72-71.37-6.55-22.79-24.93-40.57-48.07-46.26z" fill="#2d2667"/><path d="m430.44 443.38c-28.78 26.79-63.73 47.04-102.5 58.37.141-6.085-.453-51.288.5-56.1 1.051-8.639 3.818-17.047 8.11-24.61 9.055-16.091 25.009-28.08 43.03-32.16 1.65-.38 3.32-.72 5.01-.97 2.03.31 4.04.7 6 1.19 23.14 5.69 41.52 23.47 48.07 46.26-2.68 2.73-5.42 5.4-8.22 8.02z" fill="#6c53a2"/><path d="m430.44 443.38c-28.78 26.79-63.73 47.04-102.5 58.37.141-6.082-.453-51.29.5-56.1 1.02-8.397 3.666-16.572 7.75-23.97 8.715-15.881 24.104-27.898 41.67-32.38.577-.146 1.145-.282 1.72-.42 26.009 5.919 46.671 27.545 50.86 54.5z" fill="#57409b"/></g><g id="HEAD_3_"><g id="Ears_1_"><path d="m339.2 334.891c.735 8.918-6.141 16.844-15.197 16.795h-12.839c-20.319-.497-20.319-31.496 0-31.992h12.839c8.393 0 15.197 6.804 15.197 15.197z" fill="#f9d6bf"/><path d="m453.216 334.891c.735 8.918-6.141 16.844-15.197 16.795h-12.839c-20.319-.497-20.319-31.496 0-31.992h12.839c8.393 0 15.197 6.804 15.197 15.197z" fill="#f9d6bf"/><g fill="#eab39b"><path d="m344.586 335.69c0 3.52-2.853 6.373-6.373 6.373h-23.907c-3.52 0-6.373-2.853-6.373-6.373s2.853-6.373 6.373-6.373h23.907c3.52 0 6.373 2.853 6.373 6.373z"/><path d="m441.249 335.69c0 3.52-2.853 6.373-6.373 6.373h-23.907c-3.52 0-6.373-2.853-6.373-6.373s2.853-6.373 6.373-6.373h23.907c3.519 0 6.373 2.853 6.373 6.373z"/></g></g><g id="Neck_2_"><path d="m390.587 376.62v15.91c0 7.45-5.1 13.71-12 15.49-9.908 2.672-20.141-5.184-19.99-15.49v-15.91c-.151-10.303 10.082-18.166 19.99-15.49 6.991 1.815 11.996 8.091 12 15.49z" fill="#eab39b"/><path d="m390.587 376.62v15.91c0 7.45-5.1 13.71-12 15.49-6.89-1.78-11.99-8.04-11.99-15.49v-15.91c0-7.45 5.1-13.71 11.99-15.49 6.991 1.815 11.995 8.091 12 15.49z" fill="#f9d6bf"/><path d="m390.587 376.62v14.65c-5.985 1.561-14.08 1.312-20.35 1.3-3.911-.005-7.878-.43-11.64-1.3v-14.65c-.151-10.304 10.082-18.166 19.99-15.49 6.991 1.815 11.996 8.091 12 15.49z" fill="#eab39b"/></g><g id="Face_2_"><path d="m431.597 295.88v36.04c.107 29.136-23.962 52.783-52.66 52.65h-8.7c-29.08 0-52.65-23.57-52.65-52.65v-36.04c0-29.09 23.57-52.66 52.65-52.66h8.7c28.699-.129 52.767 23.512 52.66 52.66z" fill="#f9d6bf"/><path d="m431.597 295.88v36.04c0 27.68-21.36 50.37-48.51 52.49-27.14-2.12-48.5-24.81-48.5-52.49v-36.04c0-27.69 21.36-50.38 48.5-52.5 27.15 2.12 48.51 24.81 48.51 52.5z" fill="#ffe9d7"/></g><g id="Mouth1_2_"><path d="m374.591 359.276c-6.599 0-12.565-2.023-15.572-5.279-1.745-1.961 1.119-4.616 2.94-2.714 4.587 5.257 20.681 5.256 25.265 0 1.807-1.899 4.694.75 2.939 2.714-3.007 3.257-8.974 5.279-15.572 5.279z" fill="#eab39b"/></g><g id="Nose1_2_"><path d="m383.362 341.206h-17.541c-2.624-.043-2.633-3.955 0-4h17.541c2.623.043 2.633 3.955 0 4z" fill="#f3c3aa"/></g><g id="Eyes_3_"><path d="m360.489 321.481c0-4.323-3.504-7.827-7.827-7.827-10.371.384-10.368 15.272 0 15.654 4.323 0 7.827-3.504 7.827-7.827z" fill="#eab39b"/><path d="m404.346 321.481c0-4.323-3.504-7.827-7.827-7.827-10.371.384-10.368 15.272 0 15.654 4.323 0 7.827-3.504 7.827-7.827z" fill="#eab39b"/><path d="m359.955 324.403c0-4.028-3.265-7.293-7.293-7.293-9.654.333-9.651 14.253 0 14.585 4.028 0 7.293-3.265 7.293-7.292z" fill="#122894"/><path d="m357.764 324.554c3.376-3.551-1.702-8.628-5.253-5.252-3.376 3.551 1.702 8.628 5.253 5.252z" fill="#e8f3fc"/><path d="m403.812 324.403c0-4.028-3.265-7.293-7.293-7.293-9.654.333-9.651 14.253 0 14.585 4.028 0 7.293-3.265 7.293-7.292z" fill="#122894"/><path d="m401.621 324.554c3.376-3.551-1.702-8.628-5.253-5.252-3.376 3.551 1.702 8.628 5.253 5.252z" fill="#e8f3fc"/></g><g id="Hair_1_"><path d="m440.557 294.97v24.95c-1.719-.39-7.132-.182-8.96-.23.003-.008-.002-23.813 0-23.82-3.638.508-70.014-5.961-109.95-20.3-2.62 6.25-4.06 13.11-4.06 20.31v23.81c-2.154.06-7.426-.205-9.46.31v-25.03c-.038-28.618 19.82-52.898 46.63-59.42 7.465-2.045 16.909-1.778 24.64-1.75 5.243.012 10.477.669 15.54 2 26.416 6.767 45.837 31.503 45.62 59.17z" fill="#284cb2"/><path d="m440.557 294.97v24.95c-1.719-.39-7.132-.182-8.96-.23v-23.81c-2.359-.149-47.875-2.539-94.65-15.64 6.66-21.45 26.66-37.02 50.29-37.02h8.7c8.45 0 16.43 1.99 23.5 5.52 13.328 11.622 21.073 28.012 21.12 46.23z" fill="#406bcc"/></g></g><g><g><path d="m314.718 240.314v12.633 6.152c-1.501 21.109 27.417 35.826 63.948 36.213 36.542-.388 65.433-15.103 63.948-36.212v-6.153-12.633z" fill="#2d2667"/><g><path d="m385.527 289.478c-6.496-.007-8.078-7.411-1.08-8.694 18.457-2.773 33.045-9.969 39.024-19.25 1.397-2.17 4.808-3.055 7.62-1.975 2.812 1.078 3.957 3.711 2.56 5.881-7.498 11.789-26.263 21.282-48.124 24.038z" fill="#57409b"/></g></g><g><path d="m478.926 227.736-98.118 33.987c-1.362.472-2.921.472-4.283 0l-98.118-33.987c-4.118-1.426-4.118-5.938 0-7.365l98.118-33.987c1.362-.472 2.921-.472 4.283 0l98.118 33.987c4.118 1.426 4.118 5.938 0 7.365z" fill="#57409b"/><g><path d="m444.419 227.074c-.859 0-1.731-.137-2.566-.426l-60.902-21.095c-3.162-1.095-4.574-3.961-3.155-6.401s5.132-3.529 8.294-2.435l60.902 21.095c6.636 2.559 3.455 9.403-2.573 9.262z" fill="#6c53a2"/></g></g><g><g><path d="m288.445 237.333v26.047h-10.232v-27.155c0-1.968 2.63-3.281 4.956-2.476l3.2 1.108c1.263.438 2.076 1.407 2.076 2.476z" fill="#2d2667"/></g><path d="m299.382 269.348c-.031 8.408-7.225 15.016-16.052 15.035-21.301-.801-21.289-29.276 0-30.08 8.351-.17 16.157 6.638 16.052 15.045z" fill="#2d2667"/><path d="m295.665 306.829c-1.211.683-2.503 1.005-3.945 1.012h-16.78c-5.673 0-9.425-5.505-7.048-10.318l6.81-13.81c1.273-2.577 4.024-4.227 7.048-4.227h3.16c2.909-.007 5.765 1.599 7.048 4.227 0 0 6.81 13.81 6.81 13.81 1.762 3.567.148 7.517-3.103 9.306z" fill="#2d2667"/><g fill="#57409b"><path d="m295.665 306.829c-1.33-.735-2.422-1.842-3.092-3.205l-6.81-13.81c-1.762-3.578-.148-7.517 3.104-9.306 1.33.735 2.421 1.842 3.092 3.205l6.81 13.81c1.761 3.567.147 7.517-3.104 9.306z"/><path d="m299.382 269.348c0 1.938-.387 3.78-1.103 5.484-5.52 3.309-12.588-.404-14.711-6.996-1.739-5.409.398-10.871 4.809-12.778 6.407 1.977 11.001 7.684 11.005 14.29z"/></g></g></g></g><g id="Pitcher_4_"><g><path d="m211.029 377.09c-1.397 8.411-9.021 15.076-17.752 14.95h-72.477c-12.795.176-22.137-13.689-16.191-25.825 8.474-17.418 25.729-53.243 34.1-70.462 2.927-6.139 9.38-10.187 16.196-10.15.76-.015 4.545-.009 5.215.028 5.099.235 10.004 2.793 13.159 6.799 1.789 1.84 8.773 17.46 10.139 19.969.117.115 15.297 31.681 15.394 31.798.052.121 10.593 21.887 10.655 22.018 1.741 3.594 2.168 7.361 1.562 10.875z" fill="#c1b7d3"/><path d="m139.973 254.499h34.127v51.567h-34.127z" fill="#c1b7d3"/><path d="m211.029 377.09h-68.553c-13.272 0-21.979-13.884-16.197-25.83l31.781-65.656c7.257-.364 14.149 3.569 17.302 10.15 0 0 34.105 70.462 34.105 70.462 1.741 3.593 2.168 7.36 1.562 10.874z" fill="#ebd9ea"/><path d="m176.182 307.93h-1.92c-3.103 0-5.933 1.774-7.285 4.567l-15.343 31.699c-2.602 5.375 1.314 11.62 7.285 11.62h32.607c5.971 0 9.886-6.245 7.285-11.62l-15.343-31.699c-1.353-2.793-4.183-4.567-7.286-4.567z" fill="#fff"/><path d="m153.197 265.297h20.903v32.723h-20.903z" fill="#ebd9ea"/><path d="m167.516 298.019c-3.637 0-6.585-2.948-6.585-6.585v-14.581c.299-8.713 12.869-8.718 13.17 0v14.581c-.001 3.637-2.949 6.585-6.585 6.585z" fill="#fff"/><path d="m201.097 390.272c-2.33 1.128-4.968 1.768-7.82 1.768h-72.477c-2.852 0-5.491-.64-7.82-1.763.792-3.396 3.834-5.923 7.472-5.923h73.173c3.606.001 6.663 2.482 7.472 5.918z" fill="#9f90ae"/></g><g><path d="m190.498 256.916c.006 4.651-3.776 8.468-8.472 8.466h-49.982c-2.652-.008-4.994-1.194-6.568-3.133v-.006c-4.491-5.253-.456-13.947 6.569-13.799h49.982c4.675-.008 8.479 3.817 8.471 8.472z" fill="#ebd9ea"/><path d="m188.606 262.249c-1.555 1.914-3.924 3.133-6.58 3.133h-49.982c-2.652-.008-4.994-1.195-6.568-3.133v-.006c1.549-1.914 3.913-3.133 6.568-3.133h49.982c2.652.009 5.003 1.198 6.58 3.139z" fill="#c1b7d3"/><path d="m188.471 251.419c-1.555 1.819-3.862 2.975-6.445 2.975h-49.982c-2.583-.006-4.864-1.135-6.439-2.975 1.549-1.819 3.857-2.975 6.439-2.975h49.982c2.577.006 4.871 1.134 6.445 2.975z" fill="#fff"/></g><g><path d="m183.374 376.888c-.71.132-1.435.203-2.189.202h-48.292c-8.518.12-14.757-9.153-10.79-17.207 3.374-6.988 19.726-40.734 22.726-46.95 1.999-4.132 6.192-6.765 10.785-6.765h2.846c4.53-.006 8.793 2.619 10.79 6.765 0 0 2.734 5.653 2.734 5.653l14.153 29.238 5.833 12.059c3.524 7.276-1.023 15.641-8.596 17.005z" fill="#d7156f"/><path d="m183.374 376.888s0 .006-.006 0c-3.711-.679-6.933-3.088-8.618-6.563l-22.726-46.945c-3.52-7.281 1.027-15.641 8.595-17.011 0 0 0-.006.006 0 3.711.679 6.939 3.093 8.623 6.563l22.72 46.95c3.526 7.277-1.021 15.642-8.594 17.006z" fill="#df3d81"/><path d="m147.915 339.111-18.184 37.564c-6.978-1.875-10.998-9.83-7.629-16.792l18.184-37.564c6.978 1.875 10.998 9.825 7.629 16.792z" fill="#b82065"/><path d="m186.136 347.824c-2.377-.108-10.18.326-12.345-.415-6.978-1.875-10.998-9.83-7.63-16.792l5.822-12.031z" fill="#ed72ab"/></g></g><g id="Speech-bubble_2_"><path d="m233.194 240.046c-3.814 0-7.552-1.863-9.797-5.293l-37.719-57.647c-7.974-13.294 10.547-25.46 19.572-12.806 0 0 37.719 57.647 37.719 57.647 5.135 7.595-.678 18.242-9.775 18.099z" fill="#ebd9ea"/><path d="m267.86 78.34v73.04c0 10.3-3.49 19.78-9.35 27.33-8.16 10.51-20.91 17.26-35.24 17.26h-112.95c-14.33 0-27.08-6.75-35.23-17.26-5.87-7.55-9.36-17.03-9.36-27.33v-66.65c18.204-20.203 39.47-37.416 63.15-50.98h94.39c24.758.001 44.623 20.133 44.59 44.59z" fill="#ebd9ea"/><path d="m267.859 78.339v73.038c0 10.303-3.49 19.779-9.351 27.335-5.869-7.556-9.359-17.032-9.359-27.335v-73.038c0-10.303 3.49-19.779 9.359-27.327 5.861 7.548 9.351 17.024 9.351 27.327z" fill="#fff"/><path d="m84.45 78.34v73.04c0 10.3-3.49 19.78-9.36 27.33-5.87-7.55-9.36-17.03-9.36-27.33v-66.65c5.5-6.1 11.28-11.93 17.33-17.49.91 3.55 1.39 7.27 1.39 11.1z" fill="#c1b7d3"/></g><g id="Lightbulb_1_"><g><path d="m201.261 87.476c.082 10.226-6.084 17.569-10.515 25.919-2.093 3.976-7.642 20.803-7.752 21.463h-32.386s-5.725-18.559-9.096-24.025c-4.455-7.184-9.168-14.333-9.179-23.357-.029-18.863 15.32-34.468 34.464-34.464 18.653-.142 34.606 15.446 34.464 34.464z" fill="#daab42"/><path d="m145.776 87.476c0 7.435-2.353 14.328-6.367 19.961-3.697-6.05-7.076-12.367-7.076-19.961 0-7.652 2.495-14.729 6.726-20.445 4.222 5.717 6.717 12.793 6.717 20.445z" fill="#c4983d"/><path d="m201.261 87.476c.082 10.226-6.084 17.569-10.515 25.919-1.085 2.312-2.27 5.357-3.388 8.428-42.079 2.236-51.658-55.942-11.691-67.651 14.908 3.981 25.581 17.44 25.594 33.304z" fill="#f9c744"/><path d="m201.261 87.476c.082 10.225-6.084 17.569-10.514 25.919-15.362-13.175-15.591-37.837-.609-51.279 6.842 6.301 11.123 15.33 11.123 25.36z" fill="#f8d07a"/><path d="m195.825 80.04c0-7.81-6.331-14.141-14.141-14.141-18.758.745-18.753 27.54 0 28.282 7.81 0 14.141-6.331 14.141-14.141z" fill="#fbd9a3"/><path d="m201.261 87.476c.082 10.226-6.084 17.569-10.515 25.919-2.093 3.976-7.642 20.803-7.752 21.463h-32.386s-5.725-18.559-9.096-24.025c-4.455-7.184-9.168-14.333-9.179-23.357-.029-18.863 15.32-34.468 34.464-34.464 18.653-.142 34.606 15.446 34.464 34.464z" fill="none"/></g><g><path d="m179.005 163.605v4.898c.022 6.801-5.615 12.253-12.208 12.208-6.734 0-12.2-5.466-12.2-12.208v-4.898z" fill="#2e3140"/><path d="m179.005 163.605v4.898c0 5.082-3.113 9.446-7.527 11.282-4.423-1.836-7.535-6.192-7.535-11.282v-4.898z" fill="#3e4e60"/><path d="m179.005 163.605v4.898c.022 6.801-5.615 12.253-12.208 12.208-6.734 0-12.2-5.466-12.2-12.208v-4.898z" fill="none"/></g><g><path d="m161.391 110.979h10.818v23.879h-10.818z" fill="#bf5e39"/><path d="m166.801 110.979h5.409v23.879h-5.409z" fill="#dd5e26"/></g><g><path d="m182.785 104.241c.03 3.633-3 6.762-6.743 6.743h-18.484c-8.916-.315-8.93-13.172 0-13.485h18.484c3.721.003 6.746 3.021 6.743 6.742z" fill="#bf5e39"/><path d="m182.785 104.241c0 .668-.092 1.31-.275 1.911h-17.507c-4.428.077-7.776-4.445-6.467-8.654h17.507c3.72.004 6.745 3.022 6.742 6.743z" fill="#dd5e26"/><path d="m180.808 99.476c1.685 1.606 2.43 4.371 1.702 6.676h-6.267c-4.429.079-7.771-4.446-6.459-8.654h6.259c1.861 0 3.546.76 4.765 1.978z" fill="#ea792e"/><path d="m182.785 104.241c.03 3.633-3 6.762-6.743 6.743h-18.484c-8.916-.315-8.93-13.172 0-13.485h18.484c3.721.003 6.746 3.021 6.743 6.742z" fill="none"/></g><g><path d="m192.44 143.878c.027 4.907-5.206 5.808-9.012 9.012-.751.643-.643 3.88-.643 3.88 0 8.829-7.16 15.989-15.989 15.989-8.858.06-16.045-7.375-15.98-15.989 0 0 .108-3.238-.643-3.88-3.797-3.221-9.012-4.039-9.012-9.012 0-4.982 4.031-9.021 9.012-9.021h33.254c4.983.001 9.013 4.04 9.013 9.021z" fill="#c1b7d3"/><path d="m192.424 143.878c.078 4.904-5.207 5.81-8.996 9.012-.751.643-.643 3.88-.643 3.88 0 8.829-7.16 15.989-15.989 15.989-8.858.06-16.045-7.375-15.98-15.989 0 0 .108-3.238-.643-3.88-3.797-3.221-9.012-4.039-9.012-9.012z" fill="#aea7b9"/><path d="m172.213 143.878s-2.679 19.276-19.869 19.719c-.976-2.069-1.527-4.381-1.527-6.826 0 0 .108-3.238-.643-3.88-3.797-3.221-9.012-4.039-9.012-9.012h31.051z" fill="#9f90ae"/><path d="m164.427 139.364c0 2.495-2.019 4.514-4.506 4.514h-18.759c0-4.982 4.031-9.021 9.012-9.021h9.747c2.487.001 4.506 2.02 4.506 4.507z" fill="#aea7b9"/><path d="m176.585 162.854c0 1.828-1.485 3.313-3.321 3.313h-19.393c-1.428-1.96-2.39-4.212-2.812-6.634h22.205c1.836 0 3.321 1.486 3.321 3.321z" fill="#c1b7d3"/><g fill="#ebd9ea"><path d="m169.961 166.169h-2.116c-1.831 0-3.316-1.485-3.316-3.316s1.485-3.316 3.316-3.316h2.116c4.373.111 4.373 6.522 0 6.632z"/><path d="m181.753 141.49h-10.066c-4.371-.11-4.375-6.521 0-6.632h10.066c4.37.11 4.375 6.522 0 6.632z"/></g></g></g></g></svg>