<svg id="Capa_1" enable-background="new 0 0 512 512" height="512" viewBox="0 0 512 512" width="512" xmlns="http://www.w3.org/2000/svg"><g><g><path d="m0 256c0 43.79 11 85.02 30.39 121.07l225.61 49.67 225.61-49.67c19.39-36.05 30.39-77.28 30.39-121.07 0-46.63-12.47-90.34-34.26-128-41.698 72.091-399.22 76.52-443.48 0-21.79 37.66-34.26 81.37-34.26 128z" fill="#c02e71"/><path d="m34.26 128c44.26 76.52 126.99 128 221.74 128s177.48-51.48 221.74-128c-.01-.02-.03-.05-.04-.07-44.27-76.48-126.98-127.93-221.7-127.93s-177.43 51.45-221.7 127.93c-.01.02-.03.05-.04.07z" fill="#d95f91"/><path d="m481.61 377.07c-27.62 51.37-72.28 92.23-126.42 115.01-4.646 1.95-15.775-15.734-20.554-14.052-6.371 2.243-6.442 23.745-13.036 25.482-20.93 5.54-42.92 8.49-65.6 8.49s-44.67-2.95-65.6-8.49c-5.315-1.4-16.525-20.033-16.805-25.482-1.069-20.78-10.948 16.501-16.795 14.042-54.13-22.78-98.79-63.63-126.41-115z" fill="#815"/></g><g><path d="m175.478 352.49h161.036v63.357h-161.036z" fill="#daddee"/><path d="m255.996 352.49h80.518v63.357h-80.518z" fill="#c8cde4"/><path d="m173.595 469.147h161.041v23.972h-161.041z" fill="#daddee"/><path d="m256 469.147h78.636v23.972h-78.636z" fill="#c8cde4"/><path d="m173.964 416.628h-50.822c-21.099 0-38.265-17.166-38.265-38.265v-155.964h27.413v155.964c0 5.984 4.868 10.853 10.852 10.853h50.822z" fill="#e8ebf7"/><g><path d="m156.802 213.376h33.594v140.825h-33.594z" fill="#e8ebf7"/><path d="m321.596 213.376h33.594v140.825h-33.594z" fill="#daddee"/></g><g><path d="m190.4 349.19v154.32c-11.54-3.04-22.76-6.88-33.6-11.44v-142.88z" fill="#e8ebf7"/><path d="m355.19 349.19v142.89c-10.84 4.55-22.05 8.39-33.59 11.43v-154.32z" fill="#daddee"/></g><path d="m124.738 327.243h262.517v42.729h-262.517z" fill="#f5dd6e"/><path d="m256 327.243h131.255v42.729h-131.255z" fill="#eec036"/><path d="m364.144 255.888h-216.298c-19.416 0-34.175-17.435-30.978-36.576l19.896-119.205c2.533-15.137 15.627-26.229 30.979-26.229h176.505c15.351 0 28.456 11.092 30.978 26.229l19.897 119.205c3.196 19.141-11.563 36.576-30.979 36.576z" fill="#f5dd6e"/><path d="m45.483 193.757h190.286v33.192h-190.286z" fill="#eec036"/><path d="m140.626 193.757h95.143v33.192h-95.143z" fill="#e8a440"/><g><path d="m219.173 193.757h-141.916c-13.187 0-23.877-10.69-23.877-23.877 0-13.187 10.69-23.877 23.877-23.877h141.916z" fill="#a9eb58"/><path d="m136.276 146.002h82.897v47.755h-82.897z" fill="#79ce8b"/><path d="m219.172 161.534v16.685h-141.916c-4.596 0-8.343-3.737-8.343-8.342 0-4.596 3.746-8.343 8.343-8.343z" fill="#e8ebf7"/><path d="m136.276 161.534h82.896v16.685h-82.896z" fill="#daddee"/></g><g><path d="m173.485 146.002h-96.228c-13.187 0-23.877-10.69-23.877-23.877 0-13.187 10.69-23.877 23.877-23.877h96.228z" fill="#9febff"/><path d="m113.432 98.248h60.053v47.755h-60.053z" fill="#70c5e9"/><path d="m173.484 113.78v16.685h-96.228c-4.596 0-8.343-3.737-8.343-8.343 0-4.596 3.746-8.343 8.343-8.343h96.228z" fill="#e8ebf7"/><path d="m113.432 113.78h60.052v16.685h-60.052z" fill="#daddee"/></g><path d="m364.144 255.888h-108.144v-182.01h88.247c15.351 0 28.456 11.092 30.978 26.229l19.897 119.205c3.197 19.141-11.562 36.576-30.978 36.576z" fill="#eec036"/></g></g></svg>