<svg id="Capa_1" enable-background="new 0 0 512 512" height="512" viewBox="0 0 512 512" width="512" xmlns="http://www.w3.org/2000/svg"><circle cx="256" cy="256" fill="#fd4fb9" r="256"/><path d="m512 256c0 87.11-43.52 164.07-110 210.31-41.41 28.8-91.73 45.69-146 45.69-29.95 0-58.7-5.14-85.41-14.6-13.61-4.81-26.69-10.74-39.13-17.68-7.39-4.12-14.55-8.6-21.46-13.41-66.48-46.24-110-123.2-110-210.31 0-46.22 12.25-89.57 33.68-127 44.12 77.07 127.16 129 222.32 129s178.21-51.93 222.32-129c21.43 37.43 33.68 80.78 33.68 127z" fill="#ea39ab"/><path d="m180.04 448.06-9.45 49.34c-13.61-4.81-26.69-10.74-39.13-17.68l7.58-39.52c2.17-11.33 13.1-18.74 24.43-16.57 11.32 2.17 18.74 13.1 16.57 24.43z" fill="#374c81"/><path d="m380.54 479.72c-12.44 6.93-25.52 12.87-39.13 17.68l-9.45-49.34c-2.17-11.33 5.25-22.26 16.57-24.43s22.26 5.25 24.43 16.57z" fill="#16325b"/><path d="m291.08 112.725c0 8.646-7.009 15.655-15.655 15.655h-3.765v66.2h-31.32v-66.2h-3.765c-8.646 0-15.655-7.009-15.655-15.655 0-8.646 7.009-15.655 15.655-15.655h38.85c8.646 0 15.655 7.009 15.655 15.655z" fill="#fff"/><path d="m291.08 112.725c0 8.646-7.009 15.655-15.655 15.655h-3.765v66.2h-15.66v-97.51h19.425c8.646 0 15.655 7.009 15.655 15.655z" fill="#d1f6ff"/><circle cx="256" cy="324.01" fill="#4e689b" r="173.53"/><path d="m429.53 324.01c0 95.84-77.69 173.53-173.53 173.53-28.603 0-102.693-77.69-102.693-173.53 0-80.931 67.613-173.53 102.693-173.53 95.84 0 173.53 77.69 173.53 173.53z" fill="#374c81"/><path d="m429.53 324.01c0 95.84-77.69 173.53-173.53 173.53v-347.06c95.84 0 173.53 77.69 173.53 173.53z" fill="#234177"/><path d="m385.427 324.01c0 70.834-56.908 128.388-127.504 129.398-.632.028-1.277.028-1.923.028-71.479 0-129.427-57.947-129.427-129.427s57.947-129.425 129.427-129.425c.646 0 1.292 0 1.923.028 70.595 1.011 127.504 58.565 127.504 129.398z" fill="#fff"/><path d="m257.923 194.612c-.632-.028-1.277-.028-1.923-.028v258.853c.646 0 1.292 0 1.923-.028 70.595-1.011 127.504-58.565 127.504-129.399 0-70.833-56.909-128.387-127.504-129.398z" fill="#d1f6ff"/><path d="m325.44 316.94v29.66h-84.27v-123.52h29.66v93.86z" fill="#374c81"/><path d="m325.44 316.94v29.66h-69.44v-123.52h14.83v93.86z" fill="#16325b"/><circle cx="256" cy="331.769" fill="#374c81" r="24.407"/><path d="m280.407 331.769c0 13.48-10.927 24.407-24.407 24.407v-48.814c13.48.001 24.407 10.928 24.407 24.407z" fill="#234177"/><path d="m428.765 257.448-60.062-59.482-.113-.113-29.614-29.331-29.988-29.706c-9.97-9.871-5.374-26.799 8.195-30.356 38.332-10.02 80.822-.127 111.016 29.783l.113.113c30.102 29.89 40.376 72.224 30.731 110.606-3.422 13.605-20.307 18.357-30.278 8.486z" fill="#ffe400"/><path d="m428.765 257.448-60.062-59.482-.113-.113-28.786-28.221c-.332-.332-.615-.7-.827-1.11-2.92-5.494 4.54-17.791 14.757-23.511 30.922-17.303 59.793-20.987 74.465-6.767l.113.113c30.102 29.89 40.376 72.224 30.731 110.606-3.422 13.604-20.307 18.356-30.278 8.485z" fill="#ffc300"/><path d="m428.765 257.448-60.175-59.595 59.609-59.609c30.193 29.896 40.496 72.288 30.844 110.719-3.422 13.604-20.307 18.356-30.278 8.485z" fill="#ff9f00"/><path d="m202.334 138.123-59.482 60.062-.113.113-29.331 29.614-29.705 29.988c-9.871 9.97-26.799 5.374-30.356-8.195-10.02-38.332-.127-80.822 29.783-111.016l.113-.113c29.89-30.101 72.224-40.376 110.606-30.731 13.605 3.422 18.356 20.308 8.485 30.278z" fill="#ffe400"/><path d="m202.334 138.123-59.482 60.062-.113.113-28.221 28.786c-.332.332-.7.615-1.11.827-5.494 2.92-17.791-4.54-23.511-14.757-17.303-30.922-20.987-59.793-6.767-74.465l.113-.113c29.89-30.101 72.224-40.376 110.606-30.731 13.605 3.422 18.356 20.308 8.485 30.278z" fill="#ffc300"/><path d="m202.334 138.123-59.595 60.175-59.609-59.609c29.896-30.193 72.288-40.496 110.719-30.844 13.605 3.422 18.356 20.308 8.485 30.278z" fill="#ff9f00"/></svg>