<svg id="Capa_1" enable-background="new 0 0 512 512" height="512" viewBox="0 0 512 512" width="512" xmlns="http://www.w3.org/2000/svg"><g><g><path d="m256 323.988c-141.387 0-244.868-153.514-225.264-189.717 43.302-79.964 127.94-134.271 225.264-134.271 97.204 0 181.752 54.173 225.103 133.974 19.704 36.274-83.716 190.014-225.103 190.014z" fill="#e27fad"/><path d="m512 256c0 26.051-3.891 51.191-11.129 74.871-5.031 16.469-11.672 32.231-19.75 47.109-8.25 15.2-147.391 48.933-225.121 48.933s-216.871-33.733-225.109-48.933c-3.289-6.031-6.332-12.21-9.121-18.531-14-31.629-21.77-66.629-21.77-103.449 0-46.219 12.25-89.57 33.68-127 44.121 77.07 127.16 129 222.32 129s178.211-51.93 222.32-129c21.43 37.43 33.68 80.781 33.68 127zm0 0" fill="#dc4180"/><path d="m481.262 377.699c-7.16 13.223-15.434 25.742-24.723 37.43-8.437 10.633-17.719 20.57-27.719 29.723-23.343 21.375-50.663 38.48-80.72 50.076-28.58 11.026-154.769 11.191-183.023.451-30.521-11.602-58.249-28.873-81.896-50.527-10-9.153-19.282-19.09-27.719-29.723-9.289-11.688-17.563-24.207-24.723-37.43zm0 0" fill="#9f165b"/></g><g><path d="m120.459 180.154h125.168v20.746h-125.168z" fill="#afe8fd"/><path d="m266.373 180.154h125.168v20.746h-125.168z" fill="#64b0fb"/><ellipse cx="110.086" cy="189.052" fill="#64b0fb" rx="31.119" ry="31.119" transform="matrix(.233 -.973 .973 .233 -99.404 252.091)"/><path d="m110.36 157.94c-.092-.001-.182-.007-.274-.007-17.187 0-31.119 13.933-31.119 31.119 0 17.187 13.932 31.119 31.119 31.119.092 0 .182-.006.274-.007-24.845-20.067-23.32-40.849 0-62.224z" fill="#31b8f5"/><ellipse cx="401.914" cy="189.052" fill="#1394fb" rx="31.119" ry="31.119" transform="matrix(.707 -.707 .707 .707 -15.962 339.568)"/><path d="m287.119 157.933h-31.119l-20.746 31.119 20.746 31.119h31.119z" fill="#bfebff"/><path d="m224.881 157.933h31.119v62.238h-31.119z" fill="#dff5ff"/><path d="m266.373 255.02-51.865 120.471 41.492 95.017 41.492-20.746 50.605-74.271z" fill="#e79d25"/><path d="m245.627 255.02-81.723 120.471 50.604 74.271 41.492 20.746v-215.488z" fill="#ffe58c"/><path d="m256 239.728-66.794 135.763 50.604 74.271 16.19 20.746z" fill="#f2d332"/><path d="m249.085 355.713h17.288v-100.693l-10.373-15.292-6.915 15.292z" fill="#e38031"/><path d="m256 355.713v-115.985l-10.373 15.292v100.693z" fill="#e79d25"/><path d="m256 345.34-15.56 31.119 15.56 31.119c17.187 0 31.119-13.933 31.119-31.119 0-17.187-13.932-31.119-31.119-31.119z" fill="#002bad"/><path d="m224.881 376.459c0 17.187 13.932 31.119 31.119 31.119v-62.238c-17.187 0-31.119 13.932-31.119 31.119z" fill="#133fd9"/><path d="m297.492 449.762h-41.492l-34.577 31.119 34.577 31.119c32.76 0 64.079-6.163 92.871-17.377-3.431-25.297-25.156-44.861-51.379-44.861z" fill="#16202d"/><path d="m214.508 449.762c-26.222 0-47.947 19.565-51.379 44.861 28.792 11.214 60.111 17.377 92.871 17.377v-62.238z" fill="#405875"/><path d="m245.627 449.762c-28.599 0-51.865 23.266-51.865 51.865v2.738c19.925 4.977 40.77 7.635 62.238 7.635v-62.238z" fill="#2d3e53"/></g><g fill="#fff"><path d="m180.752 105.078h-1.524c-6.754 0-12.226-5.477-12.226-12.227v-1.523h-8.715v1.523c0 6.75-5.477 12.227-12.227 12.227h-1.527v8.715h1.527c6.75 0 12.227 5.472 12.227 12.226v1.528h8.715v-1.528c0-6.754 5.472-12.226 12.226-12.226h1.524zm0 0"/><path d="m268.923 55.437h-1.524c-6.754 0-12.226-5.477-12.226-12.227v-1.523h-8.715v1.523c0 6.75-5.477 12.227-12.227 12.227h-1.527v8.715h1.527c6.75 0 12.227 5.472 12.227 12.226v1.528h8.715v-1.528c0-6.754 5.472-12.226 12.226-12.226h1.524zm0 0"/><path d="m360.842 105.078h-1.524c-6.754 0-12.226-5.477-12.226-12.227v-1.523h-8.715v1.523c0 6.75-5.477 12.227-12.227 12.227h-1.527v8.715h1.527c6.75 0 12.227 5.472 12.227 12.226v1.528h8.715v-1.528c0-6.754 5.472-12.226 12.226-12.226h1.524zm0 0"/></g></g></svg>