<?xml version="1.0" encoding="iso-8859-1"?>
<!-- Generator: Adobe Illustrator 19.0.0, SVG Export Plug-In . SVG Version: 6.00 Build 0)  -->
<svg version="1.1" id="Capa_1" xmlns="http://www.w3.org/2000/svg" xmlns:xlink="http://www.w3.org/1999/xlink" x="0px" y="0px"
	 viewBox="0 0 512 512" style="enable-background:new 0 0 512 512;" xml:space="preserve">
<path style="fill:#2B6C7E;" d="M35.636,386.333C13.006,348.154,0,303.6,0,256C0,114.615,114.615,0,256,0s256,114.615,256,256
	c0,47.6-13.006,92.154-35.636,130.333H35.636z"/>
<path style="fill:#FFC143;" d="M425,380L425,380c-2.761,0-5-2.239-5-5V255c0-2.761,2.239-5,5-5l0,0c2.761,0,5,2.239,5,5v120
	C430,377.761,427.761,380,425,380z"/>
<path style="fill:#00D3B4;" d="M434.851,378.059L434.851,378.059c-2.679-0.67-4.308-3.384-3.638-6.063l29.104-116.417
	c0.67-2.679,3.384-4.308,6.063-3.638l0,0c2.679,0.67,4.308,3.384,3.638,6.063l-29.104,116.417
	C440.244,377.1,437.53,378.729,434.851,378.059z"/>
<path style="fill:#DCA050;" d="M479.998,380C436.33,458.714,352.394,512,256,512S75.67,458.714,32.002,380H479.998z"/>
<path style="fill:#EA4444;" d="M452.561,420h-48.623c-2.761,0-5-2.239-5-5v-80c0-2.761,2.239-5,5-5h60c2.761,0,5,2.239,5,5v63.131
	C463.864,405.718,458.395,413.016,452.561,420z"/>
<path style="fill:#D93131;" d="M415,420h-11.062c-2.761,0-5-2.239-5-5v-80c0-2.761,2.239-5,5-5H415c-2.761,0-5,2.239-5,5v80
	C410,417.761,412.239,420,415,420z"/>
<path style="fill:#9FACBA;" d="M263.552,410H181.67v-92.353h81.882V410z"/>
<path style="fill:#8D9CA8;" d="M198.118,361.647V410H181.67v-92.353h81.882v34h-55.435
	C202.595,351.647,198.118,356.124,198.118,361.647z"/>
<path style="fill:#B6C4CF;" d="M301.811,401v14c0,2.761-2.239,5-5,5h-148.4c-2.761,0-5-2.239-5-5v-14c0-2.761,2.239-5,5-5h148.4
	C299.572,396,301.811,398.239,301.811,401z M395.222,72H228.611V59.399c13.693-2.78,24-14.885,24-29.399c0-16.568-13.431-30-30-30
	s-30,13.432-30,30c0,14.514,10.307,26.619,24,29.399V72H50c-5.523,0-10,4.477-10,10v246.118c0,5.523,4.477,10,10,10h345.222
	c5.523,0,10-4.477,10-10V82C405.222,76.477,400.745,72,395.222,72z"/>
<path style="fill:#FFE7BF;" d="M59.411,295V93.471c0-2.761,2.239-5,5-5h316.544c2.761,0,5,2.239,5,5V295c0,2.761-2.239,5-5,5H64.411
	C61.65,300,59.411,297.761,59.411,295z"/>
<path style="fill:#FFF5F5;" d="M59.411,295V93.471c0-2.761,2.239-5,5-5H365c2.761,0,5,2.239,5,5V295c0,2.761-2.239,5-5,5H64.411
	C61.65,300,59.411,297.761,59.411,295z"/>
<path style="fill:#FFDF8E;" d="M312,264.134L312,264.134c0,8.285-6.716,15-15,15H155c-8.284,0-15-6.715-15-15l0,0
	c0-8.284,6.716-15,15-15h142C305.284,249.134,312,255.85,312,264.134z M297,209.134H155c-8.284,0-15,6.716-15,15l0,0
	c0,8.284,6.716,15,15,15h142c8.284,0,15-6.715,15-15l0,0C312,215.85,305.284,209.134,297,209.134z"/>
<path style="fill:#FFB509;" d="M180,265c0,2.761-2.239,5-5,5s-5-2.239-5-5s2.239-5,5-5S180,262.239,180,265z M155,260
	c-2.761,0-5,2.239-5,5s2.239,5,5,5s5-2.239,5-5S157.761,260,155,260z M175,220c-2.761,0-5,2.239-5,5s2.239,5,5,5s5-2.239,5-5
	S177.761,220,175,220z M155,220c-2.761,0-5,2.239-5,5s2.239,5,5,5s5-2.239,5-5S157.761,220,155,220z M195,220c-2.761,0-5,2.239-5,5
	s2.239,5,5,5s5-2.239,5-5S197.761,220,195,220z M235,260c-2.761,0-5,2.239-5,5s2.239,5,5,5s5-2.239,5-5S237.761,260,235,260z
	 M215,260c-2.761,0-5,2.239-5,5s2.239,5,5,5s5-2.239,5-5S217.761,260,215,260z M195,260c-2.761,0-5,2.239-5,5s2.239,5,5,5
	s5-2.239,5-5S197.761,260,195,260z"/>
<path style="fill:#7A8C98;" d="M257.991,151.757v25.888c0,0.772-0.498,1.456-1.233,1.692l-30.214,9.713
	c-0.354,0.114-0.734,0.114-1.088,0l-30.214-9.713c-0.735-0.236-1.233-0.92-1.233-1.692v-25.888c0-1.205,1.174-2.061,2.321-1.692
	l29.126,9.363c0.354,0.114,0.734,0.114,1.088,0l29.126-9.363C256.817,149.696,257.991,150.552,257.991,151.757z M272.988,124.352
	l-46.444-14.93c-0.354-0.114-0.734-0.114-1.088,0l-46.444,14.93c-1.654,0.532-2.776,2.07-2.776,3.808v3.644
	c0,1.738,1.122,3.276,2.776,3.808l0.172,0.055v13.569c0,2.454,1.989,4.443,4.443,4.443s4.443-1.989,4.443-4.443v-10.712
	l37.386,12.018c0.354,0.114,0.734,0.114,1.088,0l46.444-14.93c1.654-0.532,2.776-2.07,2.776-3.808v-3.644
	C275.764,126.422,274.642,124.883,272.988,124.352z"/>
<path style="fill:#C5D3DD;" d="M252.611,30c0,12.532-7.687,23.264-18.6,27.752c-10.913-4.488-18.6-15.22-18.6-27.752
	s7.687-23.264,18.6-27.752C244.924,6.736,252.611,17.468,252.611,30z"/>
<path style="fill:#8D9CA8;" d="M240.611,30c0,9.941-8.059,18-18,18s-18-8.059-18-18s8.059-18,18-18
	C232.552,12,240.611,20.059,240.611,30z"/>
<path style="fill:#8BEBDB;" d="M228.011,30.6c0,3.314-2.686,6-6,6s-6-2.686-6-6s2.686-6,6-6S228.011,27.286,228.011,30.6z"/>
<path style="fill:#9FACBA;" d="M60,82v246.118c0,5.523,4.477,10,10,10H50c-5.523,0-10-4.477-10-10V82c0-5.523,4.477-10,10-10h20
	C64.477,72,60,76.477,60,82z M246.611,312h-48c-3.314,0-6,2.687-6,6s2.686,6,6,6h48c3.314,0,6-2.687,6-6S249.925,312,246.611,312z"
	/>
<path style="fill:#D9E7EC;" d="M140,484.264V445c0-2.761,2.239-5,5-5h288.967C387.9,484.565,325.158,512,256,512
	C214.243,512,174.824,501.997,140,484.264z"/>
<path style="fill:#C5D3DD;" d="M300,485v10c0,2.761-2.239,5-5,5h-10c-2.761,0-5-2.239-5-5v-10c0-2.761,2.239-5,5-5h10
	C297.761,480,300,482.239,300,485z M265,450h-10c-2.761,0-5,2.239-5,5v10c0,2.761,2.239,5,5,5h10c2.761,0,5-2.239,5-5v-10
	C270,452.239,267.761,450,265,450z M235,450h-10c-2.761,0-5,2.239-5,5v10c0,2.761,2.239,5,5,5h10c2.761,0,5-2.239,5-5v-10
	C240,452.239,237.761,450,235,450z M325,450h-10c-2.761,0-5,2.239-5,5v10c0,2.761,2.239,5,5,5h10c2.761,0,5-2.239,5-5v-10
	C330,452.239,327.761,450,325,450z M295,450h-10c-2.761,0-5,2.239-5,5v10c0,2.761,2.239,5,5,5h10c2.761,0,5-2.239,5-5v-10
	C300,452.239,297.761,450,295,450z M325,480h-10c-2.761,0-5,2.239-5,5v10c0,2.761,2.239,5,5,5h10c2.761,0,5-2.239,5-5v-10
	C330,482.239,327.761,480,325,480z M190,455c0-2.761-2.239-5-5-5h-30c-2.761,0-5,2.239-5,5v10c0,2.761,2.239,5,5,5h30
	c2.761,0,5-2.239,5-5V455z M265,480h-10c-2.761,0-5,2.239-5,5v10c0,2.761,2.239,5,5,5h10c2.761,0,5-2.239,5-5v-10
	C270,482.239,267.761,480,265,480z M340,485v10c0,0.962,0.285,1.853,0.756,2.616c13.646-4.787,26.762-10.694,39.24-17.616H345
	C342.239,480,340,482.239,340,485z M235,480h-10c-2.761,0-5,2.239-5,5v10c0,2.761,2.239,5,5,5h10c2.761,0,5-2.239,5-5v-10
	C240,482.239,237.761,480,235,480z M345,450c-2.761,0-5,2.239-5,5v10c0,2.761,2.239,5,5,5h51.518
	c9.273-6.101,18.131-12.779,26.511-20H345z M165,480h-10c-2.761,0-5,2.239-5,5v4.084c6.384,2.908,12.912,5.555,19.565,7.94
	c0.276-0.62,0.435-1.302,0.435-2.024v-10C170,482.239,167.761,480,165,480z M205,480h-10c-2.761,0-5,2.239-5,5v10
	c0,2.761,2.239,5,5,5h10c2.761,0,5-2.239,5-5v-10C210,482.239,207.761,480,205,480z"/>
<g>
</g>
<g>
</g>
<g>
</g>
<g>
</g>
<g>
</g>
<g>
</g>
<g>
</g>
<g>
</g>
<g>
</g>
<g>
</g>
<g>
</g>
<g>
</g>
<g>
</g>
<g>
</g>
<g>
</g>
</svg>
