<svg id="Capa_1" enable-background="new 0 0 512 512" height="512" viewBox="0 0 512 512" width="512" xmlns="http://www.w3.org/2000/svg"><g><g><g><g><g><g><g><circle cx="256" cy="256" fill="#ff6c52" r="256"/></g></g></g></g></g></g><path d="m512 256c0-20.086-2.313-39.631-6.688-58.384l-115.738-115.738-23.61 29.813-40.023-40.024-16.414 15.816-31.887-31.887-155.214 376.574 72.499 72.499c19.572 4.79 40.027 7.331 61.075 7.331 141.385 0 256-114.615 256-256z" fill="#f92814"/><g><path d="m122.426 81.878h267.149v350.292h-267.149z" fill="#ffce00"/></g><g><path d="m255.734 81.878h133.84v350.292h-133.84z" fill="#fdba12"/></g><g><path d="m155.493 108.788h201.014v282.35h-201.014z" fill="#fff"/></g><g><path d="m255.734 108.789h100.773v282.35h-100.773z" fill="#e9edf5"/></g><g><path d="m282.767 71.668v-.326c0-14.783-11.984-26.766-26.767-26.766s-26.766 11.984-26.766 26.766v.326h-43.175v47.512h139.883v-47.512z" fill="#555a66"/></g><g><path d="m325.941 71.668h-43.175v-.326c0-14.783-11.984-26.766-26.767-26.766-.089 0-.177.006-.266.007v74.597h70.207v-47.512z" fill="#333940"/></g><g><path d="m221.984 304.572-52.839-46.065 19.712-22.613 16.918 14.748 16.371-59.181h110.853v30h-88.024z" fill="#7584f2"/></g><g><path d="m255.734 191.461h77.265v30h-77.265z" fill="#606aea"/></g></g></svg>