<?xml version="1.0" encoding="UTF-8" standalone="no"?>
<!-- Generator: Adobe Illustrator 19.0.0, SVG Export Plug-In . SVG Version: 6.00 Build 0)  -->

<svg
   xmlns:dc="http://purl.org/dc/elements/1.1/"
   xmlns:cc="http://creativecommons.org/ns#"
   xmlns:rdf="http://www.w3.org/1999/02/22-rdf-syntax-ns#"
   xmlns:svg="http://www.w3.org/2000/svg"
   xmlns="http://www.w3.org/2000/svg"
   xmlns:sodipodi="http://sodipodi.sourceforge.net/DTD/sodipodi-0.dtd"
   xmlns:inkscape="http://www.inkscape.org/namespaces/inkscape"
   version="1.1"
   id="Layer_1"
   x="0px"
   y="0px"
   viewBox="0 0 512 512"
   style="enable-background:new 0 0 512 512;"
   xml:space="preserve"
   sodipodi:docname="email-1-a.svg"
   inkscape:version="0.92.5 (2060ec1f9f, 2020-04-08)"><metadata
   id="metadata73"><rdf:RDF><cc:Work
       rdf:about=""><dc:format>image/svg+xml</dc:format><dc:type
         rdf:resource="http://purl.org/dc/dcmitype/StillImage" /></cc:Work></rdf:RDF></metadata><defs
   id="defs71" /><sodipodi:namedview
   pagecolor="#ffffff"
   bordercolor="#666666"
   borderopacity="1"
   objecttolerance="10"
   gridtolerance="10"
   guidetolerance="10"
   inkscape:pageopacity="0"
   inkscape:pageshadow="2"
   inkscape:window-width="640"
   inkscape:window-height="480"
   id="namedview69"
   showgrid="false"
   inkscape:zoom="0.4609375"
   inkscape:cx="256"
   inkscape:cy="256"
   inkscape:window-x="0"
   inkscape:window-y="30"
   inkscape:window-maximized="0"
   inkscape:current-layer="Layer_1" />

<g
   id="g8">
	<path
   style="fill:#F5A209;"
   d="M450.359,244.56H61.643l194.358-114.723L450.359,244.56z"
   id="path4" />
	<path
   style="fill:#F5A209;"
   d="M61.641,244.56h388.716v229.45H61.641V244.56z"
   id="path6" />
</g>
<path
   style="fill:#FFFFFF;"
   d="M101.578,77.635h244.43l64.413,64.413v331.965H101.578V77.637V77.635z"
   id="path10" />
<path
   style="fill:#ECF0F1;"
   d="M148.146,162.641h215.701v4.864H148.146V162.641z M148.146,215.039L148.146,215.039h215.701v4.868  H148.146V215.039z M148.146,224.064L148.146,224.064h215.701v4.866H148.146V224.064z M148.146,233.088L148.146,233.088h215.701  v4.864H148.146V233.088z M148.146,242.113L148.146,242.113h215.712v4.864H148.146V242.113z M148.146,171.665L148.146,171.665  h215.701v4.866H148.146V171.665z M148.146,180.69L148.146,180.69h215.701v4.866H148.146V180.69z M148.146,189.714L148.146,189.714  h215.712v4.864H148.146V189.714z M148.144,198.739L148.144,198.739h165.225v4.864H148.144V198.739z M148.144,251.139  L148.144,251.139h165.225v4.866H148.144V251.139z"
   id="path12" />
<path
   style="fill:#FFCA4F;"
   d="M346.01,77.635v64.413h64.413L346.01,77.635z"
   id="path14" />
<path
   style="fill:#B3B3B3;"
   d="M218.214,426.22h73.188v7.15h-73.188V426.22z"
   id="path16" />
<g
   id="g22">
	<path
   style="fill:#FBB429;"
   d="M61.641,244.56l194.358,114.723L61.641,474.01V244.56z"
   id="path18" />
	<path
   style="fill:#FBB429;"
   d="M450.359,244.56L256.001,359.283L450.359,474.01V244.56z"
   id="path20" />
</g>
<path
   style="fill:#F5A209;"
   d="M255.999,359.283L61.641,474.01h388.716L255.999,359.283z"
   id="path24" />
<path
   style="fill:#F7FAFA;"
   d="M410.42,206.456v-64.41h-64.41L410.42,206.456z"
   id="path26" />

<g
   id="g36">
	
	
	
</g>
<g
   id="g38">
</g>
<g
   id="g40">
</g>
<g
   id="g42">
</g>
<g
   id="g44">
</g>
<g
   id="g46">
</g>
<g
   id="g48">
</g>
<g
   id="g50">
</g>
<g
   id="g52">
</g>
<g
   id="g54">
</g>
<g
   id="g56">
</g>
<g
   id="g58">
</g>
<g
   id="g60">
</g>
<g
   id="g62">
</g>
<g
   id="g64">
</g>
<g
   id="g66">
</g>
</svg>