<?xml version="1.0" encoding="iso-8859-1"?>
<!-- Generator: Adobe Illustrator 19.0.0, SVG Export Plug-In . SVG Version: 6.00 Build 0)  -->
<svg version="1.1" id="Capa_1" xmlns="http://www.w3.org/2000/svg" xmlns:xlink="http://www.w3.org/1999/xlink" x="0px" y="0px"
	 viewBox="0 0 512 512" style="enable-background:new 0 0 512 512;" xml:space="preserve">
<circle style="fill:#E02424;" cx="256" cy="256" r="256"/>
<path style="fill:#9D1514;" d="M512,256c0-10.34-0.63-20.532-1.822-30.551L372.795,88.066H123.949v320.612l101.5,101.5
	C235.468,511.37,245.66,512,256,512C397.385,512,512,397.385,512,256z"/>
<rect x="139.21" y="103.32" style="fill:#FFEA88;" width="248.85" height="320.61"/>
<rect x="263.63" y="103.32" style="fill:#FCBF14;" width="124.42" height="320.61"/>
<polygon style="fill:#FFFFFF;" points="372.795,88.066 123.949,88.066 123.949,408.678 324.332,408.678 372.795,360.216 "/>
<polygon style="fill:#FFF7D6;" points="372.8,88.07 372.8,360.22 324.33,408.68 248.37,408.68 248.37,88.07 "/>
<polygon style="fill:#FFEA88;" points="324.332,408.678 372.795,360.216 324.332,360.216 "/>
<rect x="169.6" y="143.39" style="fill:#0E6EF3;" width="157.55" height="20.911"/>
<rect x="248.37" y="143.39" style="fill:#0073D9;" width="78.78" height="20.91"/>
<rect x="169.6" y="195.88" style="fill:#0E6EF3;" width="157.55" height="20.911"/>
<rect x="248.37" y="195.88" style="fill:#0073D9;" width="78.78" height="20.91"/>
<rect x="169.6" y="248.37" style="fill:#0E6EF3;" width="157.55" height="20.911"/>
<rect x="248.37" y="248.37" style="fill:#0073D9;" width="78.78" height="20.91"/>
<polygon style="fill:#FFF7D6;" points="229.054,328.517 217.964,372.138 261.584,361.048 268.608,354.024 236.077,321.494 "/>
<polygon style="fill:#FFEA88;" points="268.608,354.024 261.584,361.048 240.95,366.29 217.964,372.138 252.343,337.759 "/>
<rect x="281.83" y="201.094" transform="matrix(-0.7071 -0.7071 0.7071 -0.7071 318.6733 702.5253)" style="fill:#00DEC1;" width="46.01" height="168.338"/>
<rect x="228.795" y="281.902" transform="matrix(-0.7071 0.7071 -0.7071 -0.7071 741.7299 279.5695)" style="fill:#00AC95;" width="168.338" height="23"/>
<rect x="334.788" y="220.934" transform="matrix(-0.7071 -0.7071 0.7071 -0.7071 446.5284 649.5604)" style="fill:#FFB74F;" width="46.01" height="22.734"/>
<rect x="354.556" y="228.939" transform="matrix(-0.7071 0.7071 -0.7071 -0.7071 794.6825 151.7102)" style="fill:#FE880C;" width="22.731" height="23"/>
<polygon style="fill:#0E6EF3;" points="240.953,366.293 223.808,349.149 217.964,372.138 "/>
<polygon style="fill:#0073D9;" points="240.95,366.29 217.964,372.138 232.381,357.721 "/>
<g>
</g>
<g>
</g>
<g>
</g>
<g>
</g>
<g>
</g>
<g>
</g>
<g>
</g>
<g>
</g>
<g>
</g>
<g>
</g>
<g>
</g>
<g>
</g>
<g>
</g>
<g>
</g>
<g>
</g>
</svg>
