<svg height="512pt" viewBox="0 -19 512.003 512" width="512pt" xmlns="http://www.w3.org/2000/svg"><path d="m316.414062 281.6875c0 33.371094-27.050781 60.421875-60.421874 60.421875-33.367188 0-60.421876-27.050781-60.421876-60.421875 0-33.367188 27.054688-60.417969 60.421876-60.417969 33.371093 0 60.421874 27.050781 60.421874 60.417969zm0 0" fill="#6fd844"/><path d="m230.324219 281.6875c0-27.328125 18.148437-50.40625 43.042969-57.871094-38.8125-11.640625-77.796876 17.480469-77.796876 57.871094 0 40.355469 38.945313 69.519531 77.796876 57.871094-24.894532-7.464844-43.042969-30.542969-43.042969-57.871094zm0 0" fill="#5fbf32"/><path d="m481.210938 373.921875c0 38.082031-30.871094 68.953125-68.953126 68.953125-38.082031 0-68.949218-30.871094-68.949218-68.953125s30.867187-68.949219 68.949218-68.949219c38.082032 0 68.953126 30.867188 68.953126 68.949219zm0 0" fill="#fda537"/><path d="m382.367188 373.921875c0-31.292969 20.855468-57.703125 49.421874-66.128906-6.195312-1.824219-12.746093-2.820313-19.53125-2.820313-38.082031 0-68.949218 30.871094-68.949218 68.949219 0 38.082031 30.867187 68.953125 68.949218 68.953125 6.785157 0 13.335938-1 19.53125-2.824219-28.566406-8.425781-49.421874-34.832031-49.421874-66.128906zm0 0" fill="#f9972d"/><path d="m435.261719 392.992188h-46.011719c-12.3125 0-22.820312 7.707031-26.976562 18.558593 11.292968 15.375 29.488281 25.375 49.984374 25.375 20.496094 0 38.691407-10 49.984376-25.375-4.15625-10.851562-14.664063-18.558593-26.980469-18.558593zm0 0" fill="#e4eaf8"/><path d="m385.132812 393.292969c-10.5 1.503906-19.175781 8.640625-22.859374 18.257812 13.53125 18.417969 36.207031 28.238281 59.464843 24.648438-17.578125-8.359375-31.058593-23.9375-36.605469-42.90625zm0 0" fill="#d8dce5"/><path d="m412.257812 466.15625c-50.859374 0-92.234374-41.375-92.234374-92.234375 0-50.855469 41.375-92.234375 92.234374-92.234375 50.855469 0 92.234376 41.378906 92.234376 92.234375 0 50.859375-41.375 92.234375-92.234376 92.234375zm0-154.234375c-34.1875 0-62 27.8125-62 62s27.8125 62.003906 62 62.003906 62-27.816406 62-62.003906-27.8125-62-62-62zm0 0" fill="#ffc850"/><path d="m363.214844 411.789062c-8.113282-10.480468-12.957032-23.613281-12.957032-37.867187 0-14.25 4.84375-27.382813 12.957032-37.867187 12.15625-26.890626 36.84375-46.945313 66.570312-52.6875-5.675781-1.097657-11.535156-1.675782-17.527344-1.675782-50.859374 0-92.234374 41.375-92.234374 92.234375 0 50.855469 41.375 92.230469 92.234374 92.230469 5.992188 0 11.851563-.578125 17.527344-1.675781-29.726562-5.746094-54.414062-25.800781-66.570312-52.691407zm0 0" fill="#feb644"/><path d="m412.257812 332.371094c-16.4375 0-29.890624 13.449218-29.890624 29.890625 0 16.4375 13.453124 29.886719 29.890624 29.886719s29.890626-13.449219 29.890626-29.886719c0-16.441407-13.453126-29.890625-29.890626-29.890625zm0 0" fill="#f7b594"/><path d="m422.242188 362.261719c0-8.796875 3.855468-16.734375 9.953124-22.21875-5.300781-4.761719-12.292968-7.671875-19.9375-7.671875-16.4375 0-29.890624 13.449218-29.890624 29.890625 0 16.4375 13.453124 29.886719 29.890624 29.886719 7.644532 0 14.636719-2.910157 19.9375-7.671876-6.097656-5.480468-9.953124-13.417968-9.953124-22.214843zm0 0" fill="#f0a479"/><path d="m168.679688 373.921875c0 38.082031-30.871094 68.953125-68.953126 68.953125-38.082031 0-68.949218-30.871094-68.949218-68.953125s30.867187-68.949219 68.949218-68.949219c38.082032 0 68.953126 30.867188 68.953126 68.949219zm0 0" fill="#f25c5c"/><path d="m69.835938 373.921875c0-31.292969 20.855468-57.703125 49.421874-66.128906-6.195312-1.824219-12.746093-2.820313-19.53125-2.820313-38.078124 0-68.949218 30.871094-68.949218 68.949219 0 38.082031 30.871094 68.953125 68.949218 68.953125 6.789063 0 13.339844-1 19.53125-2.824219-28.566406-8.425781-49.421874-34.832031-49.421874-66.128906zm0 0" fill="#e54a4a"/><path d="m122.734375 392.992188h-46.015625c-12.3125 0-22.820312 7.707031-26.976562 18.558593 11.292968 15.375 29.488281 25.375 49.984374 25.375 20.496094 0 38.691407-10 49.984376-25.375-4.15625-10.851562-14.664063-18.558593-26.976563-18.558593zm0 0" fill="#e4eaf8"/><path d="m72.601562 393.292969c-10.496093 1.503906-19.175781 8.640625-22.859374 18.257812 13.535156 18.417969 36.210937 28.238281 59.46875 24.648438-17.582032-8.359375-31.0625-23.9375-36.609376-42.90625zm0 0" fill="#d8dce5"/><path d="m99.726562 466.15625c-50.859374 0-92.234374-41.375-92.234374-92.234375 0-50.855469 41.375-92.234375 92.234374-92.234375 50.859376 0 92.234376 41.378906 92.234376 92.234375 0 50.859375-41.375 92.234375-92.234376 92.234375zm0-154.234375c-34.1875 0-62 27.8125-62 62s27.8125 62.003906 62 62.003906 62.003907-27.816406 62.003907-62.003906-27.816407-62-62.003907-62zm0 0" fill="#f77c7c"/><path d="m50.683594 411.789062c-8.113282-10.480468-12.957032-23.613281-12.957032-37.867187 0-14.25 4.84375-27.382813 12.957032-37.867187 12.15625-26.890626 36.84375-46.945313 66.570312-52.6875-5.675781-1.097657-11.535156-1.675782-17.527344-1.675782-50.859374 0-92.234374 41.375-92.234374 92.234375 0 50.855469 41.375 92.230469 92.234374 92.230469 5.992188 0 11.851563-.578125 17.527344-1.675781-29.726562-5.746094-54.414062-25.800781-66.570312-52.691407zm0 0" fill="#f25c5c"/><path d="m99.726562 332.371094c-16.4375 0-29.890624 13.449218-29.890624 29.890625 0 16.4375 13.453124 29.886719 29.890624 29.886719 16.441407 0 29.890626-13.449219 29.890626-29.886719 0-16.441407-13.449219-29.890625-29.890626-29.890625zm0 0" fill="#f7b594"/><path d="m109.710938 362.261719c0-8.796875 3.855468-16.734375 9.953124-22.21875-5.300781-4.761719-12.292968-7.671875-19.9375-7.671875-16.4375 0-29.890624 13.449218-29.890624 29.890625 0 16.4375 13.453124 29.886719 29.890624 29.886719 7.644532 0 14.636719-2.910157 19.9375-7.671876-6.097656-5.480468-9.953124-13.417968-9.953124-22.214843zm0 0" fill="#f0a479"/><path d="m324.945312 99.808594c0 38.082031-30.871093 68.953125-68.953124 68.953125-38.082032 0-68.949219-30.871094-68.949219-68.953125 0-38.078125 30.867187-68.949219 68.949219-68.949219 38.082031 0 68.953124 30.871094 68.953124 68.949219zm0 0" fill="#00aaf0"/><path d="m226.101562 99.808594c0-31.292969 20.855469-57.703125 49.421876-66.125-6.195313-1.828125-12.746094-2.824219-19.53125-2.824219-38.078126 0-68.949219 30.871094-68.949219 68.949219 0 38.082031 30.871093 68.953125 68.949219 68.953125 6.789062 0 13.339843-.996094 19.53125-2.824219-28.566407-8.421875-49.421876-34.832031-49.421876-66.128906zm0 0" fill="#059adb"/><path d="m279 118.878906h-46.011719c-12.316406 0-22.824219 7.710938-26.980469 18.5625 11.296876 15.371094 29.492188 25.371094 49.984376 25.371094 20.496093 0 38.691406-10 49.984374-25.371094-4.15625-10.855468-14.664062-18.5625-26.976562-18.5625zm0 0" fill="#e4eaf8"/><path d="m228.867188 119.183594c-10.496094 1.5-19.175782 8.636718-22.859376 18.257812 13.535157 18.417969 36.207032 28.234375 59.46875 24.644532-17.582031-8.359376-31.0625-23.933594-36.609374-42.902344zm0 0" fill="#d8dce5"/><path d="m255.992188 192.046875c-50.859376 0-92.234376-41.378906-92.234376-92.234375 0-50.859375 41.375-92.234375 92.234376-92.234375 50.859374 0 92.234374 41.375 92.234374 92.234375 0 50.855469-41.375 92.234375-92.234374 92.234375zm0-154.238281c-34.1875 0-62 27.816406-62 62.003906s27.8125 62 62 62 62.003906-27.8125 62.003906-62-27.816406-62.003906-62.003906-62.003906zm0 0" fill="#00c3ff"/><path d="m206.949219 137.679688c-8.113281-10.484376-12.957031-23.617188-12.957031-37.867188s4.84375-27.386719 12.957031-37.867188c12.15625-26.890624 36.84375-46.945312 66.570312-52.6875-5.675781-1.097656-11.535156-1.679687-17.527343-1.679687-50.859376 0-92.234376 41.375-92.234376 92.234375s41.375 92.234375 92.234376 92.234375c5.992187 0 11.851562-.582031 17.527343-1.679687-29.726562-5.742188-54.414062-25.796876-66.570312-52.6875zm0 0" fill="#00aaf0"/><path d="m255.992188 58.257812c-16.4375 0-29.890626 13.453126-29.890626 29.890626s13.453126 29.890624 29.890626 29.890624 29.890624-13.453124 29.890624-29.890624-13.453124-29.890626-29.890624-29.890626zm0 0" fill="#f7b594"/><path d="m265.976562 88.148438c0-8.796876 3.855469-16.734376 9.953126-22.214844-5.300782-4.765625-12.292969-7.675782-19.9375-7.675782-16.4375 0-29.890626 13.453126-29.890626 29.890626s13.453126 29.890624 29.890626 29.890624c7.644531 0 14.636718-2.910156 19.9375-7.675781-6.097657-5.480469-9.953126-13.417969-9.953126-22.214843zm0 0" fill="#f0a479"/><path d="m325.5 99.738281c0-38.324219-31.175781-69.503906-69.5-69.503906-56.761719 0-89.605469 64.777344-56.070312 110.507813 40.226562 54.851562 125.570312 24.617187 125.570312-41.003907zm-91.890625-11.664062c0-12.34375 10.046875-22.390625 22.390625-22.390625 12.347656 0 22.390625 10.046875 22.390625 22.390625 0 11.449219-8.640625 20.914062-19.738281 22.226562h-5.300782c-11.101562-1.3125-19.742187-10.777343-19.742187-22.226562zm-.617187 37.230469h46.015624c7.421876 0 14.292969 3.929687 18.152344 10.09375-21.457031 24.6875-60.144531 25.519531-82.320312 0 3.859375-6.164063 10.730468-10.09375 18.152344-10.09375zm23.007812-80.070313c30.050781 0 54.5 24.449219 54.5 54.503906 0 7.9375-1.722656 15.480469-4.785156 22.289063-5.3125-5.71875-12.398438-9.652344-20.15625-11.097656 19.023437-24.542969 1.347656-60.246094-29.558594-60.246094-30.941406 0-48.566406 35.722656-29.558594 60.246094-7.761718 1.445312-14.84375 5.378906-20.15625 11.097656-16.214844-36.023438 10.347656-76.792969 49.714844-76.792969zm0 0"/><path d="m460.277344 424.027344c45.445312-43.488282 14.074218-119.679688-48.011719-119.679688-38.324219 0-69.503906 31.175782-69.503906 69.5 0 60.214844 73.042969 92.617188 117.515625 50.179688zm-89.171875-14.515625c3.855469-6.167969 10.730469-10.097657 18.152343-10.097657h46.011719c7.425781 0 14.296875 3.929688 18.15625 10.097657-21.921875 25.21875-60.605469 24.984375-82.320312 0zm18.769531-47.324219c0-12.347656 10.046875-22.390625 22.390625-22.390625 12.347656 0 22.390625 10.042969 22.390625 22.390625 0 11.449219-8.640625 20.910156-19.738281 22.226562h-5.300781c-11.101563-1.316406-19.742188-10.78125-19.742188-22.226562zm22.390625-42.839844c39.328125 0 65.941406 40.738282 49.714844 76.789063-5.3125-5.71875-12.398438-9.648438-20.15625-11.09375 19.023437-24.542969 1.347656-60.246094-29.558594-60.246094-20.617187 0-37.390625 16.769531-37.390625 37.386719 0 8.605468 2.929688 16.535156 7.832031 22.859375-7.761719 1.445312-14.84375 5.378906-20.15625 11.097656-16.21875-36.023437 10.347657-76.792969 49.714844-76.792969zm0 0"/><path d="m169.238281 373.847656c0-38.324218-31.179687-69.5-69.503906-69.5s-69.5 31.175782-69.5 69.5c0 38.625 31.546875 69.5 69.5 69.5 38.363281 0 69.503906-31.261718 69.503906-69.5zm-69.503906-54.5c30.054687 0 54.503906 24.449219 54.503906 54.5 0 7.941406-1.722656 15.480469-4.789062 22.289063-5.308594-5.71875-12.394531-9.648438-20.15625-11.09375 4.902343-6.324219 7.832031-14.253907 7.832031-22.859375 0-20.617188-16.773438-37.386719-37.390625-37.386719s-37.390625 16.769531-37.390625 37.386719c0 8.605468 2.929688 16.535156 7.832031 22.859375-7.757812 1.445312-14.84375 5.375-20.15625 11.09375-3.0625-6.808594-4.785156-14.347657-4.785156-22.289063 0-30.050781 24.449219-54.5 54.5-54.5zm0 109c-15.6875 0-30.800781-6.921875-41.15625-18.835937h-.003906c3.859375-6.167969 10.730469-10.097657 18.15625-10.097657h46.011719c7.421874 0 14.296874 3.929688 18.152343 10.097657-10.363281 11.921875-25.480469 18.835937-41.160156 18.835937zm-22.390625-66.160156c0-12.347656 10.046875-22.390625 22.390625-22.390625 12.347656 0 22.390625 10.042969 22.390625 22.390625 0 11.449219-8.640625 20.910156-19.738281 22.226562h-5.300781c-11.101563-1.316406-19.742188-10.78125-19.742188-22.226562zm0 0"/><path d="m276.546875 264.886719-24.984375 24.984375-14.460938-14.464844c-2.929687-2.929688-7.679687-2.929688-10.609374 0-2.929688 2.929688-2.929688 7.679688 0 10.609375l19.769531 19.765625c2.929687 2.929688 7.675781 2.929688 10.605469 0l30.289062-30.289062c2.929688-2.929688 2.929688-7.675782 0-10.605469-2.929688-2.929688-7.675781-2.929688-10.609375 0zm0 0"/><path d="m440.421875 278.167969c1.203125-65.566407-31.820313-125.917969-86.292969-160.566407 1.050782-5.800781 1.605469-11.769531 1.605469-17.863281 0-54.996093-44.742187-99.738281-99.734375-99.738281-54.996094 0-99.738281 44.742188-99.738281 99.738281 0 5.476563.453125 10.855469 1.308593 16.097657-56.320312 34.421874-90.761718 96.292968-89.09375 163.300781-39.726562 13.144531-68.476562 50.628906-68.476562 94.710937 0 54.992188 44.742188 99.734375 99.734375 99.734375 28.769531 0 54.726563-12.25 72.945313-31.796875 51.0625 24.988282 112.605468 25.757813 165.652343-1.058594 14.109375 15.613282 33.160157 26.832032 55.011719 31.046876 4.0625.789062 8.003906-1.875 8.785156-5.945313.785156-4.066406-1.875-8-5.945312-8.785156-39.777344-7.671875-68.652344-42.660157-68.652344-83.195313 0-46.722656 38.011719-84.734375 84.734375-84.734375s84.734375 38.011719 84.734375 84.734375c0 40.535156-28.871094 75.523438-68.652344 83.195313-4.066406.785156-6.726562 4.71875-5.941406 8.785156.78125 4.058594 4.703125 6.730469 8.78125 5.945313 46.828125-9.03125 80.816406-50.214844 80.816406-97.925782-.003906-45.21875-30.253906-83.496094-71.582031-95.679687zm-184.421875-263.164063c46.722656 0 84.734375 38.011719 84.734375 84.734375 0 46.722657-38.011719 84.730469-84.734375 84.730469s-84.734375-38.007812-84.734375-84.730469c0-46.722656 38.011719-84.734375 84.734375-84.734375zm-156.265625 443.578125c-46.722656 0-84.734375-38.011719-84.734375-84.734375s38.011719-84.734375 84.734375-84.734375 84.734375 38.011719 84.734375 84.734375c0 20.410156-7.253906 39.15625-19.316406 53.796875-.027344.03125-.054688.066407-.082032.097657-15.554687 18.824218-39.066406 30.839843-65.335937 30.839843zm229.238281-29.976562c-46.191406 22.367187-100.125 22.78125-146.675781 1.132812 10.832031-15.953125 17.171875-35.195312 17.171875-55.890625 0-61.152344-54.992188-108.480468-116.042969-98.394531-.324219-57.875 29.160157-112.539063 77.925781-144.257813 13.207032 39.625 50.640626 68.273438 94.648438 68.273438 43.378906 0 80.367188-27.835938 94.0625-66.585938 46.269531 31.316407 75.398438 84.40625 75.398438 142.105469-84.488282-11.222656-143.390626 82.375-96.488282 153.617188zm0 0"/><path d="m298.660156 228.769531c-44.160156-35.71875-110.582031-4.222656-110.582031 52.84375 0 37.453125 30.472656 67.921875 67.921875 67.921875 27.957031 0 53.453125-17.546875 63.441406-43.664062 1.480469-3.871094-.453125-8.207032-4.324218-9.6875-3.871094-1.480469-8.203126.457031-9.683594 4.328125-7.785156 20.347656-27.652344 34.023437-49.433594 34.023437-29.179688 0-52.921875-23.742187-52.921875-52.921875 0-29.179687 23.742187-52.921875 52.921875-52.921875 24.875 0 46.089844 16.925782 51.589844 41.15625.917968 4.039063 4.9375 6.574219 8.976562 5.65625 4.039063-.917968 6.570313-4.9375 5.652344-8.976562-3.351562-14.773438-11.71875-28.183594-23.558594-37.757813zm0 0"/></svg>