<svg id="Capa_1" enable-background="new 0 0 512 512" height="512" viewBox="0 0 512 512" width="512" xmlns="http://www.w3.org/2000/svg"><circle cx="256" cy="256" fill="#65b2fe" r="256"/><path d="m512 256c0 87.11-43.52 164.07-110 210.31-41.41 28.8-91.73 45.69-146 45.69s-104.59-16.89-146-45.69c-66.48-46.24-110-123.2-110-210.31 0-46.22 12.25-89.57 33.68-127 44.12 77.07 127.16 129 222.32 129s178.21-51.93 222.32-129c21.43 37.43 33.68 80.78 33.68 127z" fill="#0e9ce7"/><path d="m452 316c0 105.34-83.12 191.28-187.34 195.81-.31.02-.62.03-.93.04-.87.03-1.74.06-2.6.08-1.73.05-3.44.07-5.13.07-108.24 0-196-87.76-196-196s87.76-196 196-196h.28c108.11.15 195.72 87.85 195.72 196z" fill="#ffe853"/><path d="m452 316c0 105.34-83.12 191.28-187.34 195.81-.31.02-.62.03-.93.04-.87.03-1.74.06-2.6.08-1.73.05-3.44.07-5.13.07-58.54-45.3-103.35-116.25-103.35-196s44.81-150.7 103.35-196h.28c108.11.15 195.72 87.85 195.72 196z" fill="#fed110"/><path d="m452 316c0 108.244-87.756 196-196 196v-392c108.244 0 196 87.756 196 196z" fill="#ff9f01"/><path d="m228.256 275.373c-1.387 25.862-21.923 47.141-47.722 49.409-30.245 2.659-55.841-20.412-57.193-49.858-.037-.71-.057-1.436-.062-2.146 0-.057-.001-.114-.001-.171-.015-4.895 6.39-6.829 9.182-2.808 9.54 13.737 25.477 22.693 43.461 22.582 17.981-.111 33.804-9.248 43.189-23.094 2.772-4.09 9.187-2.151 9.223 2.79.008 1.092-.017 2.19-.077 3.296z" fill="#29334c"/><path d="m388.643 275.373c-1.387 25.862-21.923 47.141-47.723 49.409-30.245 2.659-55.841-20.412-57.193-49.858-.037-.71-.057-1.436-.062-2.146 0-.057-.001-.114-.001-.171-.015-4.895 6.389-6.829 9.182-2.808 9.54 13.737 25.477 22.693 43.461 22.582 17.981-.111 33.804-9.248 43.19-23.094 2.772-4.09 9.187-2.151 9.223 2.79.008 1.092-.017 2.19-.077 3.296z" fill="#29334c"/><path d="m346.58 403.81c-23.96 21.67-55.73 34.86-90.58 34.86s-66.61-13.19-90.58-34.85c-9.54-8.63-.72-24.11 11.6-20.38 25 7.56 51.51 11.62 78.98 11.62s53.99-4.06 78.98-11.63c12.32-3.72 21.15 11.75 11.6 20.38z" fill="#ed771b"/><path d="m346.58 403.81c-23.96 21.67-55.73 34.86-90.58 34.86v-43.61c27.47 0 53.99-4.06 78.98-11.63 12.32-3.72 21.15 11.75 11.6 20.38z" fill="#c6601a"/><ellipse cx="121.757" cy="355.183" fill="#fe3345" rx="43.498" ry="18.749"/><ellipse cx="390.243" cy="355.183" fill="#fe3345" rx="43.498" ry="18.749"/><path d="m256 61c-90.57 0-164 25.07-164 56s73.43 56 164 56 164-25.07 164-56-73.43-56-164-56zm0 90.06c-55.09 0-99.75-15.25-99.75-34.06s44.66-34.06 99.75-34.06 99.75 15.25 99.75 34.06-44.66 34.06-99.75 34.06z" fill="#fff"/><path d="m420 117c0 30.93-73.43 56-164 56v-21.94c55.09 0 99.75-15.25 99.75-34.06s-44.66-34.06-99.75-34.06v-21.94c90.57 0 164 25.07 164 56z" fill="#d1f6ff"/><g fill="#fff"><path d="m37.274 163.62h1.524c6.753 0 12.227-5.474 12.227-12.227v-1.524h8.716v1.524c0 6.753 5.474 12.227 12.227 12.227h1.525v8.716h-1.525c-6.753 0-12.227 5.474-12.227 12.227v1.525h-8.716v-1.525c0-6.753-5.474-12.227-12.227-12.227h-1.524z"/><path d="m433.046 143.421h1.524c6.753 0 12.227-5.474 12.227-12.227v-1.524h8.716v1.524c0 6.753 5.474 12.227 12.227 12.227h1.525v8.716h-1.525c-6.753 0-12.227 5.474-12.227 12.227v1.525h-8.716v-1.525c0-6.753-5.474-12.227-12.227-12.227h-1.524z"/><path d="m464.424 257.05h1.524c6.753 0 12.227-5.474 12.227-12.227v-1.524h8.716v1.524c0 6.753 5.474 12.227 12.227 12.227h1.525v8.716h-1.525c-6.753 0-12.227 5.474-12.227 12.227v1.525h-8.716v-1.525c0-6.753-5.474-12.227-12.227-12.227h-1.524z"/><path d="m15.712 268.968h1.524c6.753 0 12.227-5.474 12.227-12.227v-1.524h8.716v1.524c0 6.753 5.474 12.227 12.227 12.227h1.525v8.716h-1.525c-6.753 0-12.227 5.474-12.227 12.227v1.525h-8.716v-1.525c0-6.753-5.474-12.227-12.227-12.227h-1.524z"/></g></svg>