<svg id="Capa_1" enable-background="new 0 0 512 512" height="512" viewBox="0 0 512 512" width="512" xmlns="http://www.w3.org/2000/svg"><g><g><path d="m0 256c0 43.79 11 85.02 30.39 121.07l225.61 49.67 225.61-49.67c19.39-36.05 30.39-77.28 30.39-121.07 0-46.63-12.47-90.34-34.26-128-41.698 72.091-399.22 76.52-443.48 0-21.79 37.66-34.26 81.37-34.26 128z" fill="#8898e5"/><path d="m34.26 128c44.26 76.52 126.99 128 221.74 128s177.48-51.48 221.74-128c-.01-.02-.03-.05-.04-.07-44.27-76.48-126.98-127.93-221.7-127.93s-177.43 51.45-221.7 127.93c-.01.02-.03.05-.04.07z" fill="#a3b5eb"/><path d="m30.39 377.07c43.19 80.32 128.02 134.93 225.61 134.93s182.42-54.61 225.61-134.93z" fill="#546bd9"/></g><g><path d="m310.34 427.8c0 29.4-23.83 53.23-53.23 53.23-.37 0-.74 0-1.11-.02-28.89-.58-52.13-24.18-52.13-53.21s23.24-52.64 52.13-53.22c.37-.02.74-.02 1.11-.02 29.4 0 53.23 23.84 53.23 53.24z" fill="#d75e91"/><path d="m310.34 427.8c0 29.4-23.83 53.23-53.23 53.23-.37 0-.74 0-1.11-.02v-106.43c.37-.02.74-.02 1.11-.02 29.4 0 53.23 23.84 53.23 53.24z" fill="#bf2e70"/><path d="m286.52 427.8c0 16.24-13.17 29.41-29.41 29.41-.37 0-.74-.01-1.11-.03-15.74-.57-28.31-13.51-28.31-29.38 0-15.88 12.57-28.82 28.31-29.39.37-.02.74-.03 1.11-.03 16.24 0 29.41 13.17 29.41 29.42z" fill="#bf2e70"/><path d="m286.52 427.8c0 16.24-13.17 29.41-29.41 29.41-.37 0-.74-.01-1.11-.03v-58.77c.37-.02.74-.03 1.11-.03 16.24 0 29.41 13.17 29.41 29.42z" fill="#871155"/><path d="m264.965 404.859-15.718 15.922v-107.681h15.718z" fill="#e7eaf5"/><path d="m354.68 142.57v127.28h-195.14v-127.28c0-53.89 43.68-97.57 97.57-97.57 26.94 0 51.33 10.92 68.99 28.58 17.66 17.65 28.58 42.04 28.58 68.99z" fill="#c3f3ff"/><path d="m354.68 142.57v127.28h-97.57v-224.85c26.94 0 51.33 10.92 68.99 28.58 17.66 17.65 28.58 42.04 28.58 68.99z" fill="#9feafd"/><path d="m276.208 115.317h22.052v129.752h-22.052z" fill="#eebf36"/><path d="m146.911 290.511-46.088 44.373 88.823 107.137 14.225-14.225-45.442-92.912 50.086-21.905 24.553-43.143z" fill="#d9dced"/><path d="m367.302 290.511 46.087 44.373-88.823 107.137-14.225-14.225 45.442-92.912-50.085-21.905-24.553-43.143z" fill="#b1b7cb"/><path d="m208.515 262.547h97.183v64.593h-97.183z" fill="#e7eaf5"/><path d="m257.106 262.547h48.591v64.593h-48.591z" fill="#d9dced"/><path d="m255.119 269.836h-22.051v-64.102l-32.296-32.294 15.593-15.593 38.754 38.753z" fill="#f5dc6e"/><path d="m146.911 234.582h220.391v55.929h-220.391z" fill="#616679"/><path d="m257.106 234.582h110.196v55.929h-110.196z" fill="#464651"/><g><circle cx="208.569" cy="165.643" fill="#e28787" r="27.264"/><path d="m235.833 165.643c0 15.059-12.205 27.264-27.264 27.264v-54.528c15.059 0 27.264 12.205 27.264 27.264z" fill="#da504f"/></g><g><circle cx="287.234" cy="115.317" fill="#da504f" r="27.264"/><path d="m314.498 115.317c0 15.059-12.205 27.264-27.264 27.264v-54.528c15.059 0 27.264 12.204 27.264 27.264z" fill="#c12339"/></g></g><g><g><path d="m487.978 245.074c0 29.4-23.83 53.23-53.23 53.23-.37 0-.74 0-1.11-.02-28.89-.58-52.13-24.18-52.13-53.21s23.24-52.64 52.13-53.22c.37-.02.74-.02 1.11-.02 29.4 0 53.23 23.84 53.23 53.24z" fill="#d75e91"/><path d="m487.978 245.074c0 29.4-23.83 53.23-53.23 53.23-.37 0-.74 0-1.11-.02v-106.43c.37-.02.74-.02 1.11-.02 29.4 0 53.23 23.84 53.23 53.24z" fill="#bf2e70"/><path d="m464.158 245.074c0 16.24-13.17 29.41-29.41 29.41-.37 0-.74-.01-1.11-.03-15.74-.57-28.31-13.51-28.31-29.38 0-15.88 12.57-28.82 28.31-29.39.37-.02.74-.03 1.11-.03 16.24 0 29.41 13.17 29.41 29.42z" fill="#bf2e70"/><path d="m464.158 245.074c0 16.24-13.17 29.41-29.41 29.41-.37 0-.74-.01-1.11-.03v-58.77c.37-.02.74-.03 1.11-.03 16.24 0 29.41 13.17 29.41 29.42z" fill="#871155"/></g><g><path d="m130.492 245.074c0 29.4-23.83 53.23-53.23 53.23-.37 0-.74 0-1.11-.02-28.89-.58-52.13-24.18-52.13-53.21s23.24-52.64 52.13-53.22c.37-.02.74-.02 1.11-.02 29.4 0 53.23 23.84 53.23 53.24z" fill="#d75e91"/><path d="m130.492 245.074c0 29.4-23.83 53.23-53.23 53.23-.37 0-.74 0-1.11-.02v-106.43c.37-.02.74-.02 1.11-.02 29.4 0 53.23 23.84 53.23 53.24z" fill="#bf2e70"/><path d="m106.672 245.074c0 16.24-13.17 29.41-29.41 29.41-.37 0-.74-.01-1.11-.03-15.74-.57-28.31-13.51-28.31-29.38 0-15.88 12.57-28.82 28.31-29.39.37-.02.74-.03 1.11-.03 16.24 0 29.41 13.17 29.41 29.42z" fill="#bf2e70"/><path d="m106.672 245.074c0 16.24-13.17 29.41-29.41 29.41-.37 0-.74-.01-1.11-.03v-58.77c.37-.02.74-.03 1.11-.03 16.24 0 29.41 13.17 29.41 29.42z" fill="#871155"/></g></g></g></svg>