<svg id="Capa_1" enable-background="new 0 0 512 512" height="512" viewBox="0 0 512 512" width="512" xmlns="http://www.w3.org/2000/svg"><g><g><path d="m256 299.87c-141.387 0-244.073-132.303-223.168-169.392 43.9-77.884 127.391-130.478 223.168-130.478 95.821 0 179.345 52.643 223.228 130.586 20.868 37.064-81.841 169.284-223.228 169.284z" fill="#a8eb58"/><path d="m512 256c0 26.051-3.891 51.191-11.129 74.871-5.031 16.469-11.672 32.231-19.75 47.109-8.25 15.2-147.391 33.896-225.121 33.896s-216.871-18.696-225.109-33.896c-3.289-6.031-6.332-12.21-9.121-18.531-14-31.629-21.77-66.629-21.77-103.449 0-46.219 12.25-89.57 33.68-127 44.121 77.07 127.16 129 222.32 129s178.211-51.93 222.32-129c21.43 37.43 33.68 80.781 33.68 127zm0 0" fill="#80cf8c"/><path d="m481.262 377.699c-7.16 13.223-15.434 25.742-24.723 37.43-8.437 10.633-17.719 20.57-27.719 29.723-21.865 20.021-47.219 36.297-75.044 47.807-30.126 12.463-165.426 12.463-195.553 0-27.825-11.511-53.179-27.786-75.044-47.807-10-9.153-19.282-19.09-27.719-29.723-9.289-11.688-17.563-24.207-24.723-37.43zm0 0" fill="#599d8a"/></g><g><path d="m201.679 412.774h108.642v88.362h-108.642z" fill="#fbf5eb"/><path d="m256 412.774h54.321v88.362h-54.321z" fill="#dce0ef"/><path d="m353.778 490.272h-195.556v2.375c30.128 12.461 63.146 19.353 97.778 19.353s67.649-6.892 97.778-19.353z" fill="#fbf5eb"/><path d="m353.778 490.272h-97.778v21.728c34.632 0 67.649-6.892 97.778-19.353z" fill="#fbf5eb"/><path d="m70.584 141.169v282.469h370.831v-282.469z" fill="#535564"/><path d="m256 141.169h185.416v282.469h-185.416z" fill="#3b3b3b"/><path d="m92.313 162.897h327.374v239.012h-327.374z" fill="#a4e2fd"/><path d="m167.537 162.897h252.151v239.012h-252.151z" fill="#8ab8ec"/><path d="m256 162.897h163.687v239.012h-163.687z" fill="#728ee4"/><path d="m114.041 184.626h44.181v21.728h-44.181z" fill="#eabd3e"/><path d="m135.77 228.082h44.181v21.728h-44.181z" fill="#eabd3e"/><path d="m332.049 228.082h44.181v21.728h-44.181z" fill="#e05352"/><path d="m332.049 314.996h44.181v21.728h-44.181z" fill="#e05352"/><path d="m114.041 271.539h44.181v21.728h-44.181z" fill="#eabd3e"/><path d="m135.77 314.996h44.181v21.728h-44.181z" fill="#eabd3e"/><path d="m114.041 358.453h44.181v21.728h-44.181z" fill="#eabd3e"/><path d="m179.951 184.626h218.008v21.728h-218.008z" fill="#f2f2fb"/><path d="m201.679 228.082h108.642v21.728h-108.642z" fill="#f2f2fb"/><path d="m179.951 271.539h218.008v21.728h-218.008z" fill="#f2f2fb"/><path d="m201.679 314.996h108.642v21.728h-108.642z" fill="#f2f2fb"/><path d="m179.951 358.453h218.008v21.728h-218.008z" fill="#f2f2fb"/><g fill="#fbf5eb"><path d="m256 228.082h54.321v21.728h-54.321z"/><path d="m256 314.996h54.321v21.728h-54.321z"/><path d="m256 184.626h141.959v21.728h-141.959z"/><path d="m256 271.539h141.959v21.728h-141.959z"/><path d="m256 358.453h141.959v21.728h-141.959z"/></g></g></g></svg>