<svg id="Icons" enable-background="new 0 0 512 512" height="512" viewBox="0 0 512 512" width="512" xmlns="http://www.w3.org/2000/svg"><g><path d="m512 256c0 43.69-10.95 84.82-30.25 120.8-1.97 3.7-4.04 7.34-6.21 10.93-2.52 4.2-5.17 8.33-7.93 12.37-2.37 3.48-4.82 6.9-7.37 10.25-46.73 61.75-120.83 101.65-204.24 101.65-141.38 0-256-114.62-256-256s114.62-256 256-256 256 114.62 256 256z" fill="#6c53a2"/><g id="Pitcher"><g><path d="m293.505 407.986c-9.336-19.312-29.886-61.752-39.394-81.386-5.639-9.7-12.419-32.626-23.848-37.305-13.501-6.357-33.201-4.536-41.856 8.803.267-1.993-24.234 49.841-24.571 50.142 0 0-28.909 59.745-28.909 59.745-8.987 18.345 5.13 39.327 24.486 39.054h109.607c19.584.424 33.477-21.524 24.485-39.053z" fill="#c1b7d3"/><path d="m188.409 239.038h51.61v77.984h-51.61z" fill="#c1b7d3"/><path d="m295.865 424.431h-103.672c-20.071 0-33.239-20.996-24.494-39.063l48.062-99.291h1.681c10.426 0 19.943 5.969 24.485 15.35l51.577 106.559c2.633 5.434 3.278 11.131 2.361 16.445z" fill="#ebd9ea"/><path d="m243.167 319.841h-2.904c-4.693 0-8.972 2.683-11.017 6.907l-23.204 47.938c-3.934 8.128 1.987 17.572 11.017 17.572h49.311c9.03 0 14.951-9.444 11.017-17.572l-23.204-47.938c-2.044-4.224-6.324-6.907-11.016-6.907z" fill="#fff"/><path d="m208.408 255.368h31.611v49.486h-31.611z" fill="#ebd9ea"/><path d="m230.061 304.854c-5.5 0-9.958-4.458-9.958-9.958v-22.05c0-5.5 4.458-9.958 9.958-9.958 5.5 0 9.958 4.458 9.958 9.958v22.05c0 5.499-4.458 9.958-9.958 9.958z" fill="#fff"/><path d="m280.846 444.366c-3.523 1.707-7.514 2.674-11.827 2.674h-109.606c-4.313 0-8.303-.968-11.827-2.666 1.197-5.136 5.799-8.957 11.3-8.957h110.66c3.209 0 6.113 1.299 8.218 3.404 1.495 1.504 2.581 3.406 3.082 5.545z" fill="#9f90ae"/></g><g><path d="m264.817 242.693c0 3.056-1.07 5.867-2.861 8.066-2.352 2.895-5.935 4.737-9.95 4.737h-75.587c-3.54 0-6.733-1.435-9.05-3.753-.314-.314-.611-.637-.883-.985v-.008c-1.8-2.199-2.87-5.001-2.87-8.057 0-3.167 1.155-6.07 3.065-8.312 2.343-2.751 5.833-4.5 9.738-4.5h75.587c3.532 0 6.741 1.435 9.059 3.753.238.238.467.492.688.747 1.909 2.242 3.064 5.145 3.064 8.312z" fill="#ebd9ea"/><path d="m261.956 250.759c-2.352 2.895-5.935 4.737-9.95 4.737h-75.587c-3.54 0-6.733-1.435-9.05-3.753-.314-.314-.611-.637-.883-.985v-.008c2.343-2.895 5.918-4.737 9.933-4.737h75.587c3.532 0 6.741 1.435 9.059 3.753.313.313.611.645.891.993z" fill="#c1b7d3"/><path d="m261.752 234.381c-2.352 2.751-5.841 4.5-9.747 4.5h-75.587c-3.54 0-6.733-1.435-9.05-3.753-.238-.238-.467-.492-.688-.747 2.343-2.751 5.833-4.5 9.738-4.5h75.587c3.532 0 6.741 1.435 9.059 3.753.238.238.467.493.688.747z" fill="#fff"/></g><g><path d="m254.043 424.126h-.008c-1.07.204-2.165.306-3.303.306h-73.032c-1.673 0-3.269-.221-4.78-.628-10.553-2.836-16.632-14.866-11.538-25.394l27.499-56.807 6.868-14.195c3.022-6.249 9.365-10.231 16.309-10.231h4.304c1.112 0 2.199.102 3.269.306h.008c5.612 1.027 10.494 4.678 13.041 9.925l4.135 8.549 21.403 44.216 8.821 18.237c5.334 11.003-1.543 23.653-12.996 25.716z" fill="#d7156f"/><path d="m254.043 424.126s0 .009-.008 0c-5.612-1.027-10.485-4.67-13.032-9.925l-34.368-70.994c-5.323-11.012 1.554-23.653 12.998-25.725 0 0 0-.008.008 0 5.612 1.027 10.494 4.678 13.041 9.925l34.359 71.002c5.332 11.004-1.545 23.654-12.998 25.717z" fill="#df3d81"/><path d="m200.42 366.996-27.499 56.807c-10.553-2.836-16.632-14.866-11.538-25.394l27.499-56.807c10.553 2.836 16.632 14.858 11.538 25.394z" fill="#b82065"/><path d="m258.22 380.173h-13.89c-1.673 0-3.269-.221-4.78-.628-10.553-2.836-16.632-14.866-11.538-25.394l8.804-18.194z" fill="#ed72ab"/></g></g><g id="Magnifying-glass"><g><path d="m390.274 303.866h20.082v38.064h-20.082z" fill="#c1b7d3" transform="matrix(.707 -.707 .707 .707 -111.074 377.64)"/><path d="m393.957 302.34 26.915 26.915c-2.94 2.94-7.708 2.944-10.652 0l-16.263-16.263c-2.939-2.939-2.939-7.712 0-10.652z" fill="#ebd9ea"/><path d="m406.672 343.455-21.727-21.727c2.373-2.373 6.222-2.376 8.599 0l13.128 13.128c2.373 2.373 2.373 6.226 0 8.599z" fill="#9f90ae"/><path d="m393.957 302.34 18.19 18.19c-2.94 2.94-7.708 2.944-10.652 0l-7.538-7.538c-2.939-2.939-2.939-7.712 0-10.652z" fill="#fff"/></g><g><path d="m481.75 376.8c-1.97 3.7-4.04 7.34-6.21 10.93-2.52 4.2-5.17 8.33-7.93 12.37-2.37 3.48-4.82 6.9-7.37 10.25l-50.93-50.93c-3.99-3.99-5.88-9.27-5.68-14.5.05-1.32.24-2.64.56-3.94.51-2.1 1.38-4.13 2.6-5.99.72-1.1 1.56-2.13 2.52-3.09.6-.6 1.24-1.16 1.89-1.66.04-.03.07-.06.11-.08.27-.2.54-.4.82-.59.27-.19.55-.37.84-.54.13-.08.26-.16.39-.24.22-.13.44-.25.67-.36.21-.12.42-.22.63-.32 1.2-.58 2.45-1.03 3.72-1.34.15-.04.29-.07.44-.1l.57-.12c1.22-.24 2.45-.36 3.69-.36 4.98 0 9.96 1.9 13.76 5.7z" fill="#22bce0"/><path d="m467.61 400.1c-2.37 3.48-4.82 6.9-7.37 10.25l-50.93-50.93c-3.99-3.99-5.88-9.27-5.68-14.5.24-.01.49-.01.73-.01 4.98 0 9.96 1.9 13.76 5.7z" fill="#22a8b9"/><path d="m481.75 376.8c-1.97 3.7-4.04 7.34-6.21 10.93-4.56-.29-9.03-2.18-12.51-5.67l-47.48-47.48-4.35-4.34c.04-.03.07-.06.11-.08.27-.2.54-.4.82-.59.27-.19.55-.37.84-.54.28-.18.56-.34.85-.49.28-.16.56-.3.84-.43.24-.12.48-.23.73-.33.24-.11.49-.21.74-.3.22-.09.45-.17.67-.24.52-.18 1.05-.34 1.58-.47.09-.02.17-.04.26-.06.27-.06.53-.12.8-.17.08-.02.15-.03.23-.04.31-.06.62-.1.93-.14.07-.02.15-.03.23-.03.3-.04.6-.07.9-.08.11-.02.23-.03.34-.03.33-.02.67-.03 1.01-.03 4.98 0 9.96 1.9 13.76 5.7z" fill="#4fcae8"/><path d="m423.076 326.192c4.986 0 9.963 1.897 13.766 5.7l26.979 26.979c-7.632 5.896-18.641 5.343-25.643-1.659l-26.975-26.975c3.488-2.696 7.683-4.04 11.873-4.045z" fill="#83d5ef"/></g><g><path d="m350.22 211.49c-33.86 0-61.31 27.45-61.31 61.31 0 33.87 27.45 61.31 61.31 61.31 13.31 0 25.62-4.23 35.67-11.44 1.21-.85 2.38-1.76 3.52-2.71 2.09-1.74 4.07-3.61 5.91-5.61 1.71-1.85 3.31-3.82 4.78-5.87 7.2-10.05 11.44-22.37 11.44-35.68 0-33.86-27.45-61.31-61.32-61.31zm0 18c23.92 0 43.31 19.39 43.31 43.31s-19.39 43.31-43.31 43.31c-23.91 0-43.3-19.39-43.3-43.31s19.39-43.31 43.3-43.31z" fill="#f39e22"/><path d="m350.22 220.99c-28.61 0-51.81 23.19-51.81 51.81 0 28.61 23.2 51.81 51.81 51.81 28.62 0 51.82-23.2 51.82-51.81 0-28.62-23.2-51.81-51.82-51.81zm0 95.12c-23.91 0-43.3-19.39-43.3-43.31s19.39-43.31 43.3-43.31c23.92 0 43.31 19.39 43.31 43.31s-19.39 43.31-43.31 43.31z" fill="#dd8c29"/><g><path d="m379.697 277.916c-2.824 0-5.114-2.29-5.114-5.114 0-13.432-10.928-24.359-24.359-24.359-2.824 0-5.114-2.29-5.114-5.114s2.29-5.114 5.114-5.114c19.071 0 34.587 15.516 34.587 34.587-.001 2.824-2.29 5.114-5.114 5.114z" fill="#fff"/></g><g><path d="m350.224 307.389c-19.071 0-34.587-15.516-34.587-34.587 0-2.824 2.29-5.114 5.114-5.114s5.114 2.29 5.114 5.114c0 13.432 10.928 24.359 24.36 24.359 2.824 0 5.114 2.29 5.114 5.114s-2.291 5.114-5.115 5.114z" fill="#c2aacf"/></g></g></g><g><g id="Leaf_1_"><g><path d="m135.704 81.901c38.127 18.379 100.815 48.599 49.315 100.099s-81.72-11.187-100.099-49.315c-10.339-21.447-8.357-40.529.949-49.835s28.388-11.288 49.835-.949z" fill="#53b976"/></g><g><path d="m176.838 173.82-82.788-82.789c2.259-2.259 2.259-5.921 0-8.18s-5.921-2.259-8.18 0c-9.306 9.306-11.288 28.387-.949 49.835 18.38 38.127 48.599 100.815 100.099 49.315 2.259-2.259 2.259-5.921 0-8.18s-5.923-2.26-8.182-.001z" fill="#528f66"/></g><g><path d="m135.661 90.238c31.836 15.347 84.18 40.579 41.177 83.582s-68.235-9.341-83.582-41.177c-8.633-17.908-6.978-33.841.793-41.612s23.704-9.426 41.612-.793z" fill="#53b976"/></g><g><path d="m130.382 144.438c-1.682 1.682-4.41 1.682-6.092 0l-5.365-5.365c-1.682-1.682-1.682-4.41 0-6.092 1.682-1.682 4.41-1.682 6.092 0l5.365 5.365c1.682 1.682 1.682 4.41 0 6.092z" fill="#78c795"/></g><g><path d="m103.877 117.933c-1.682 1.682-4.41 1.682-6.092 0l-5.365-5.365c-1.682-1.682-1.682-4.41 0-6.092 1.682-1.682 4.41-1.682 6.092 0l5.365 5.365c1.682 1.682 1.682 4.409 0 6.092z" fill="#78c795"/></g><g><path d="m160.83 174.885c-1.682 1.682-4.41 1.682-6.092 0l-5.365-5.365c-1.682-1.682-1.682-4.41 0-6.092 1.682-1.682 4.41-1.682 6.092 0l5.365 5.365c1.682 1.683 1.682 4.41 0 6.092z" fill="#78c795"/></g><g><path d="m189.348 165.554c-1.423 1.423-3.697 1.693-5.435.532-1.978-1.321-2.511-3.996-1.19-5.975 8.076-12.096 8.138-22.683.196-33.318-1.424-1.906-1.026-4.609.874-6.029 1.906-1.424 4.606-1.032 6.028.874 10.142 13.579 10.164 28.133.067 43.257-.162.242-.343.462-.54.659z" fill="#9acdae"/></g><g><path d="m169.189 109.607c-1.404 1.404-3.642 1.69-5.379.571-4.404-2.841-9.455-5.733-15.442-8.843-2.111-1.097-2.933-3.697-1.836-5.808 1.094-2.112 3.697-2.933 5.808-1.837 6.228 3.235 11.507 6.26 16.14 9.248 1.999 1.289 2.575 3.956 1.285 5.954-.169.264-.363.502-.576.715z" fill="#9acdae"/></g><g><path d="m130.224 89.89c-1.101 1.101-2.763 1.565-4.35 1.062-7.208-2.283-14.052-2.801-19.794-1.495-2.32.528-4.628-.925-5.156-3.246-.528-2.319.925-4.628 3.246-5.156 7.234-1.645 15.639-1.062 24.306 1.684 2.268.718 3.524 3.139 2.805 5.407-.216.682-.585 1.271-1.057 1.744z" fill="#9acdae"/></g><g><path d="m174.963 112.836c-1.837-1.46-4.542-.974-5.807 1.002l-13.343 20.855c-2.551 3.987-7.269 4.569-10.538 1.3l-10.57-10.57c-3.269-3.269-3.851-9.151-1.3-13.138l8.871-13.866c1.287-2.011.53-4.695-1.617-5.738l-2.509-1.219c-1.82-.884-4.013-.266-5.103 1.438l-7.424 11.603c-2.551 3.987-7.269 4.569-10.538 1.3l-9.783-9.783s-.591-.591-.787-.787c-6.247-6.247-10.004-11.862-10.004-11.862-1.524-1.524-3.306.975-4.878 2.45-.137.128-.271.259-.403.391-.029.029-.058.058-.087.088-1.516 1.538-1.446 4.036.081 5.563l9.33 9.33.475.475 10.095 10.095c3.269 3.269 2.687 7.987-1.3 10.538l-11.946 7.643c-1.704 1.09-2.322 3.283-1.439 5.103l1.218 2.509c1.043 2.148 3.727 2.905 5.739 1.618l14.21-9.091c3.987-2.551 9.869-1.969 13.138 1.3l10.57 10.57c3.269 3.269 2.687 7.987-1.3 10.538l-21.216 13.574c-1.975 1.263-2.461 3.967-1.004 5.803.625.788 1.259 1.56 1.901 2.314 1.289 1.513 3.506 1.827 5.18.756l22.922-14.665c3.987-2.551 9.869-1.969 13.138 1.3l8.676 8.676 8.257 8.257 1.684 1.684c1.55 1.55 4.07 1.571 5.62.022l.029-.029c.114-.114.226-.227.338-.34 1.539-1.557 1.518-4.067-.03-5.616l.711-1.073s-6.426-4.642-10.65-8.865c-2.169-2.169-8.676-8.676-8.676-8.676-3.269-3.269-3.851-9.151-1.3-13.138l14.432-22.557c1.07-1.673.758-3.887-.752-5.177-.753-.645-1.524-1.279-2.311-1.905z" fill="#528f66"/></g></g><g id="Leaf_2_"><g><path d="m293.535 81.901c-38.127 18.379-100.815 48.599-49.315 100.099s81.72-11.187 100.099-49.315c10.339-21.447 8.357-40.529-.949-49.835s-28.388-11.288-49.835-.949z" fill="#53b976"/></g><g><path d="m252.401 173.82 82.789-82.789c-2.259-2.259-2.259-5.921 0-8.18s5.921-2.259 8.18 0c9.306 9.306 11.288 28.387.949 49.835-18.379 38.127-48.598 100.815-100.099 49.314-2.259-2.259-2.259-5.921 0-8.18s5.922-2.259 8.181 0z" fill="#528f66"/></g><g><path d="m293.578 90.238c-31.836 15.347-84.18 40.579-41.177 83.582s68.235-9.341 83.582-41.177c8.633-17.908 6.978-33.841-.793-41.612s-23.704-9.426-41.612-.793z" fill="#53b976"/></g><g><path d="m298.857 144.438c1.682 1.682 4.41 1.682 6.092 0l5.365-5.365c1.682-1.682 1.682-4.41 0-6.092-1.682-1.682-4.41-1.682-6.092 0l-5.365 5.365c-1.682 1.682-1.682 4.41 0 6.092z" fill="#78c795"/></g><g><path d="m325.362 117.933c1.682 1.682 4.41 1.682 6.092 0l5.365-5.365c1.682-1.682 1.682-4.41 0-6.092-1.682-1.682-4.41-1.682-6.092 0l-5.365 5.365c-1.682 1.682-1.682 4.409 0 6.092z" fill="#78c795"/></g><g><path d="m268.409 174.885c1.682 1.682 4.41 1.682 6.092 0l5.365-5.365c1.682-1.682 1.682-4.41 0-6.092-1.682-1.682-4.41-1.682-6.092 0l-5.365 5.365c-1.682 1.683-1.682 4.41 0 6.092z" fill="#78c795"/></g><g><path d="m239.892 165.554c1.423 1.423 3.697 1.693 5.435.532 1.978-1.321 2.511-3.996 1.19-5.975-8.076-12.096-8.138-22.683-.196-33.318 1.424-1.906 1.026-4.609-.874-6.029-1.906-1.424-4.606-1.032-6.028.874-10.142 13.579-10.164 28.133-.067 43.257.161.242.342.462.54.659z" fill="#9acdae"/></g><g><path d="m260.05 109.607c1.404 1.404 3.642 1.69 5.379.571 4.404-2.841 9.455-5.733 15.442-8.843 2.111-1.097 2.933-3.697 1.836-5.808-1.094-2.112-3.697-2.933-5.808-1.837-6.228 3.235-11.507 6.26-16.14 9.248-1.999 1.289-2.575 3.956-1.285 5.954.169.264.363.502.576.715z" fill="#9acdae"/></g><g><path d="m299.015 89.89c1.101 1.101 2.763 1.565 4.35 1.062 7.208-2.283 14.052-2.801 19.794-1.495 2.32.528 4.628-.925 5.156-3.246.528-2.319-.925-4.628-3.246-5.156-7.234-1.645-15.639-1.062-24.306 1.684-2.268.718-3.524 3.139-2.805 5.407.216.682.585 1.271 1.057 1.744z" fill="#9acdae"/></g><g><path d="m254.277 112.836c1.837-1.46 4.542-.974 5.807 1.002l13.343 20.855c2.551 3.987 7.269 4.569 10.538 1.3l10.57-10.57c3.269-3.269 3.851-9.151 1.3-13.138l-8.871-13.866c-1.287-2.011-.53-4.695 1.617-5.738l2.509-1.219c1.82-.884 4.013-.266 5.103 1.438l7.424 11.603c2.551 3.987 7.269 4.569 10.538 1.3l9.783-9.783s.591-.591.787-.787c6.247-6.247 10.004-11.862 10.004-11.862 1.524-1.524 3.306.975 4.878 2.45.137.128.271.259.403.391.029.029.058.058.087.088 1.516 1.538 1.446 4.036-.081 5.563l-9.33 9.33-.475.475-10.095 10.095c-3.269 3.269-2.687 7.987 1.3 10.538l11.946 7.643c1.704 1.09 2.322 3.283 1.439 5.103l-1.218 2.509c-1.043 2.148-3.727 2.905-5.739 1.618l-14.21-9.091c-3.987-2.551-9.869-1.969-13.138 1.3l-10.57 10.57c-3.269 3.269-2.687 7.987 1.3 10.538l21.216 13.574c1.975 1.263 2.461 3.967 1.004 5.803-.625.788-1.259 1.56-1.901 2.314-1.289 1.513-3.506 1.827-5.18.756l-22.922-14.665c-3.987-2.551-9.869-1.969-13.138 1.3l-8.676 8.676-8.257 8.257-1.684 1.684c-1.55 1.55-4.07 1.571-5.62.022-.01-.01-.019-.019-.029-.029-.113-.114-.226-.227-.338-.34-1.539-1.557-1.518-4.067.03-5.616l-.711-1.073s6.426-4.642 10.65-8.865c2.169-2.169 8.676-8.676 8.676-8.676 3.269-3.269 3.851-9.151 1.3-13.138l-14.432-22.557c-1.07-1.673-.758-3.887.752-5.177.752-.645 1.523-1.279 2.311-1.905z" fill="#528f66"/></g></g><g><path d="m221.3 180.24v49.64h-14.16v-49.64c0-1.96.79-3.73 2.07-5.01.92-.92 2.07-1.58 3.37-1.88.53-.13 1.07-.2 1.64-.2 3.91 0 7.08 3.18 7.08 7.09z" fill="#53b976"/><path d="m214.22 173.15v56.73h-7.08v-49.64c0-1.96.79-3.73 2.07-5.01.92-.92 2.07-1.58 3.37-1.88.53-.13 1.07-.2 1.64-.2z" fill="#528f66"/></g></g></g></svg>