<svg id="Capa_1" enable-background="new 0 0 512 512" height="512" viewBox="0 0 512 512" width="512" xmlns="http://www.w3.org/2000/svg"><g><path d="m308.293 355.602-44.793-28.736v-50.152c0-4.142-3.357-7.5-7.5-7.5s-7.5 3.358-7.5 7.5v50.152l-44.793 28.736c-3.486 2.236-4.499 6.876-2.263 10.362 1.433 2.233 3.851 3.451 6.319 3.451 1.387 0 2.789-.384 4.043-1.188l44.194-28.352 44.193 28.352c1.254.805 2.656 1.188 4.043 1.188 2.469 0 4.887-1.219 6.319-3.451 2.237-3.486 1.224-8.126-2.262-10.362z" fill="#685e68"/><g><g><path d="m322.779 170.739h10.192c11.109 0 20.114-9.005 20.114-20.114 0-11.109-9.005-20.114-20.114-20.114h-10.192z" fill="#ffcebf"/><path d="m353.084 150.626c0 11.106-9.005 20.111-20.111 20.111h-10.19v-7.419c8.704-2.201 15.151-10.089 15.151-19.486 0-5.106-1.911-9.765-5.05-13.318h.089c5.553 0 10.581 2.257 14.223 5.888 3.631 3.644 5.888 8.671 5.888 14.224z" fill="#ffb09e"/><path d="m191.28 170.739h-10.192c-11.109 0-20.114-9.005-20.114-20.114 0-11.109 9.005-20.114 20.114-20.114h10.192z" fill="#ffcebf"/><path d="m257.029 238.829c-37.417 0-67.75-30.333-67.75-67.75v-54.953l64.755-37.237 70.744 37.237v54.953c.001 37.418-30.331 67.75-67.749 67.75z" fill="#ffcebf"/><path d="m324.783 116.124v54.96c0 37.407-30.335 67.742-67.753 67.742-3.81 0-7.542-.313-11.173-.927 32.1-5.318 56.58-33.217 56.58-66.815v-66.725z" fill="#ffb09e"/><g><g><path d="m230.14 176.77c-4.143 0-7.5-3.358-7.5-7.5v-10.646c0-4.142 3.357-7.5 7.5-7.5s7.5 3.358 7.5 7.5v10.646c0 4.142-3.358 7.5-7.5 7.5z" fill="#685e68"/></g><g><path d="m284.013 176.77c-4.143 0-7.5-3.358-7.5-7.5v-10.646c0-4.142 3.357-7.5 7.5-7.5s7.5 3.358 7.5 7.5v10.646c0 4.142-3.358 7.5-7.5 7.5z" fill="#685e68"/></g></g><circle cx="257.029" cy="34" fill="#685e68" r="34"/><path d="m291.029 34.002c0 18.771-15.218 33.999-34 33.999-3.911 0-7.676-.659-11.173-1.888 13.296-4.615 22.827-17.251 22.827-32.111s-9.531-27.497-22.827-32.111c3.497-1.229 7.262-1.888 11.173-1.888 18.782 0 34 15.217 34 33.999z" fill="#554e56"/><path d="m257.029 44.39c-37.417 0-67.75 30.333-67.75 67.75v28.979s57.269-2.303 67.75-44.91c10.481 42.607 67.75 44.91 67.75 44.91v-28.979c0-37.418-30.332-67.75-67.75-67.75z" fill="#685e68"/><path d="m324.783 112.135v28.983s-9.966-.402-22.346-3.955v-25.027c0-33.609-24.48-61.496-56.58-66.815 3.631-.615 7.363-.927 11.173-.927 37.418-.001 67.753 30.323 67.753 67.741z" fill="#554e56"/></g><g><g><g><g><path d="m478.23 441.61h10.536c11.484 0 20.793-9.31 20.793-20.793 0-11.484-9.31-20.793-20.793-20.793h-10.536z" fill="#ffcebf"/><path d="m509.558 420.819c0 11.481-9.31 20.791-20.791 20.791h-10.534v-7.669c8.998-2.276 15.662-10.43 15.662-20.144 0-5.279-1.975-10.095-5.221-13.768h.092c5.74 0 10.938 2.333 14.703 6.087 3.756 3.765 6.089 8.962 6.089 14.703z" fill="#ffb09e"/><path d="m342.155 441.61h-10.536c-11.484 0-20.793-9.31-20.793-20.793 0-11.484 9.31-20.793 20.793-20.793h10.536z" fill="#ffcebf"/><path d="m410.193 512c-38.681 0-70.037-31.357-70.037-70.037v-56.809l66.941-38.494 73.133 38.494v56.809c0 38.68-31.357 70.037-70.037 70.037z" fill="#ffcebf"/><path d="m480.234 385.152v56.816c0 38.67-31.359 70.029-70.041 70.029-3.939 0-7.796-.323-11.55-.958 33.184-5.498 58.491-34.339 58.491-69.071v-68.978z" fill="#ffb09e"/><g><g><path d="m382.395 447.592c-4.143 0-7.5-3.358-7.5-7.5v-11.006c0-4.142 3.357-7.5 7.5-7.5s7.5 3.358 7.5 7.5v11.006c0 4.142-3.358 7.5-7.5 7.5z" fill="#685e68"/></g><g><path d="m438.087 447.592c-4.143 0-7.5-3.358-7.5-7.5v-11.006c0-4.142 3.357-7.5 7.5-7.5s7.5 3.358 7.5 7.5v11.006c0 4.142-3.358 7.5-7.5 7.5z" fill="#685e68"/></g></g></g></g><path d="m500.057 330.074c2.251-11.907-7.275-22.71-19.386-22.3-.073.002-.145.005-.218.007-25.899.822-55.043-1.756-80.666 2.471-.197.029-.394.06-.591.091-.114.019-.23.033-.344.053l.008.007c-33.288 5.408-58.705 34.275-58.705 69.091v22.685s29.315-4.657 47.187-31.764c0 0 14.322 28.61 92.839 31.764v-22.685-.285c-.011-9.501 3.408-18.615 9.343-26.035 5.822-7.279 8.986-14.919 10.533-23.1z" fill="#fdb441"/><path d="m500.052 330.07c-1.544 8.184-4.704 15.822-10.531 23.1-5.929 7.422-9.347 16.532-9.337 26.034v22.977c-8.4-.34-16.069-.968-23.059-1.832v-21.144c-.01-9.501 3.407-18.612 9.347-26.034 5.816-7.278 8.987-14.916 10.531-23.1 2.059-10.85-5.682-20.794-16.244-22.143 6.691.051 13.29.062 19.693-.144.072 0 .144-.01.216-.01 12.117-.413 21.639 10.396 19.384 22.296z" fill="#fea613"/></g><g><g><g><path d="m169.845 441.61h10.536c11.484 0 20.793-9.31 20.793-20.793 0-11.484-9.31-20.793-20.793-20.793h-10.536z" fill="#f6a96c"/><path d="m201.173 420.819c0 11.481-9.31 20.791-20.791 20.791h-10.534v-7.669c8.998-2.276 15.662-10.43 15.662-20.144 0-5.279-1.975-10.095-5.221-13.768h.092c5.74 0 10.938 2.333 14.703 6.087 3.756 3.765 6.089 8.962 6.089 14.703z" fill="#ea9b58"/><path d="m33.77 441.61h-10.536c-11.484 0-20.793-9.31-20.793-20.793 0-11.484 9.31-20.793 20.793-20.793h10.536z" fill="#f6a96c"/><path d="m101.807 512c-38.681 0-70.037-31.357-70.037-70.037v-56.809l66.942-38.494 73.133 38.494v56.809c0 38.68-31.357 70.037-70.038 70.037z" fill="#f6a96c"/><path d="m171.848 385.152v56.816c0 38.67-31.359 70.029-70.041 70.029-3.939 0-7.796-.323-11.55-.958 33.184-5.498 58.491-34.339 58.491-69.071v-68.978z" fill="#ea9b58"/><g><g><path d="m74.01 447.592c-4.143 0-7.5-3.358-7.5-7.5v-11.006c0-4.142 3.357-7.5 7.5-7.5s7.5 3.358 7.5 7.5v11.006c0 4.142-3.358 7.5-7.5 7.5z" fill="#685e68"/></g><g><path d="m129.701 447.592c-4.143 0-7.5-3.358-7.5-7.5v-11.006c0-4.142 3.357-7.5 7.5-7.5s7.5 3.358 7.5 7.5v11.006c0 4.142-3.357 7.5-7.5 7.5z" fill="#685e68"/></g></g></g></g><g><path d="m31.77 378.819v51.874s18.851-12.392 27.288-43.227h85.498c8.438 30.835 27.288 43.227 27.288 43.227v-51.874c0-38.681-31.357-70.037-70.037-70.037-38.68 0-70.037 31.357-70.037 70.037z" fill="#685e68"/><path d="m171.84 378.819v51.876s-18.57-12.217-27.089-42.584v-9.292c0-34.051-24.286-62.414-56.495-68.725 4.375-.867 8.912-1.314 13.545-1.314 38.684 0 70.039 31.356 70.039 70.039z" fill="#554e56"/></g></g></g></g></g></svg>