<svg id="Capa_1" enable-background="new 0 0 512 512" height="512" viewBox="0 0 512 512" width="512" xmlns="http://www.w3.org/2000/svg"><g><g><g><g><g><g><circle cx="256" cy="256" fill="#7584f2" r="256"/></g></g></g></g></g><path d="m509.626 291.008-237.189-237.189-43.194 180.121-87.283 21.165 67.038 67.038-47.965 102.688 87.048 87.048c2.63.08 5.27.121 7.919.121 129.509 0 236.557-96.17 253.626-220.992z" fill="#4253ce"/><g><path d="m141.96 225.105h228.08v30h-228.08z" fill="#ff6c52"/></g><g><path d="m256.121 225.106h113.919v30h-113.919z" fill="#ff432e"/></g><g><path d="m179.773 435.104c-26.94-8.033-42.267-36.385-34.233-63.325l68.19-228.66 48.779 14.546z" fill="#fff"/></g><g><path d="m239.563 53.819h32.874v60.446h-32.874z" fill="#ff6c52"/></g><g><path d="m256.121 53.819h16.316v60.446h-16.316z" fill="#ff432e"/></g><g><path d="m332.227 435.104c26.94-8.033 42.267-36.385 34.233-63.325l-68.19-228.659-48.779 14.546z" fill="#e9edf5"/></g><g><ellipse cx="256" cy="142.535" fill="#ffce00" rx="45.932" ry="45.932" transform="matrix(.924 -.383 .383 .924 -35.059 108.817)"/></g><g><path d="m301.932 142.535c0-25.327-20.5-45.864-45.812-45.929v91.858c25.312-.065 45.812-20.602 45.812-45.929z" fill="#fdba12"/></g></g></svg>