<?xml version="1.0" encoding="iso-8859-1"?>
<!-- Generator: Adobe Illustrator 19.0.0, SVG Export Plug-In . SVG Version: 6.00 Build 0)  -->
<svg version="1.1" id="Capa_1" xmlns="http://www.w3.org/2000/svg" xmlns:xlink="http://www.w3.org/1999/xlink" x="0px" y="0px"
	 viewBox="0 0 512 512" style="enable-background:new 0 0 512 512;" xml:space="preserve">
<path style="fill:#FFC143;" d="M512,256c0,141.385-114.615,256-256,256S0,397.385,0,256S114.615,0,256,0S512,114.615,512,256z"/>
<path style="fill:#465A61;" d="M144.629,50.395c3.965,7.414,1.169,16.639-6.246,20.604l0,0c-7.415,3.965-16.639,1.168-20.604-6.246
	l-13.936-26.06c-3.965-7.415-1.169-16.639,6.246-20.604l0,0c7.415-3.965,16.639-1.169,20.604,6.246L144.629,50.395z M401.911,18.089
	L401.911,18.089c-7.415-3.965-16.639-1.169-20.604,6.246l-13.936,26.06c-3.965,7.414-1.169,16.639,6.246,20.604l0,0
	c7.415,3.965,16.639,1.168,20.604-6.246l13.936-26.06C412.122,31.279,409.325,22.054,401.911,18.089z"/>
<path style="fill:#7A8C98;" d="M180.69,43.989c10.418,19.481-0.878,45.83-25.229,58.852s-52.537,7.786-62.954-11.695
	s0.878-45.83,25.229-58.852S170.273,24.508,180.69,43.989z M394.264,32.294c24.351,13.022,35.646,39.371,25.229,58.852
	s-38.603,24.717-62.954,11.695S320.893,63.47,331.31,43.989S369.913,19.272,394.264,32.294z"/>
<path style="fill:#596C76;" d="M173.078,85.224c1.544-0.826,3.035-1.706,4.472-2.634c-5.012,7.986-12.541,15.145-22.089,20.251
	c-24.351,13.022-52.537,7.786-62.954-11.695C82.75,72.9,92.041,48.631,113.264,34.928c-7.77,12.382-9.473,26.758-3.14,38.601
	C120.542,93.01,148.727,98.246,173.078,85.224z M393.253,31.78c-24.116-12.347-51.669-7.003-61.943,12.209
	c-10.418,19.481,0.878,45.83,25.229,58.852c7.792,4.167,15.975,6.455,23.844,7.015c-0.337-0.173-0.675-0.335-1.011-0.515
	c-24.351-13.022-35.646-39.371-25.229-58.852C361.227,37.242,376.529,30.591,393.253,31.78z"/>
<path style="fill:#465A61;" d="M424.929,448.335c-8.696,7.644-17.914,14.705-27.594,21.127c-4.874-1.052-9.446-3.679-12.851-7.852
	L341,408.326l53.608-26.948l27.931,55.564C424.361,440.566,425.124,444.49,424.929,448.335z M89.461,436.942
	c-1.822,3.624-2.585,7.548-2.39,11.393c8.696,7.644,17.914,14.705,27.594,21.127c4.874-1.052,9.446-3.679,12.851-7.852L171,408.326
	l-53.608-26.948L89.461,436.942z"/>
<path style="fill:#596C76;" d="M462,256c0,113.771-92.229,206-206,206S50,369.771,50,256S142.229,50,256,50S462,142.229,462,256z"/>
<path style="fill:#465A61;" d="M288.5,459.439C277.912,461.118,267.06,462,256,462c-113.771,0-206-92.229-206-206S142.229,50,256,50
	c11.06,0,21.912,0.882,32.5,2.561C190.173,68.146,115,153.289,115,256S190.173,443.854,288.5,459.439z"/>
<path style="fill:#FFF5F5;" d="M432,256c0,97.202-78.798,176-176,176S80,353.202,80,256S158.798,80,256,80S432,158.798,432,256z"/>
<path style="fill:#FFE7BF;" d="M203.225,423.945C131.808,401.525,80,334.815,80,256s51.808-145.525,123.225-167.945
	C152.154,122.363,118,184.737,118,256S152.154,389.637,203.225,423.945z"/>
<path style="fill:#F8BB5E;" d="M272,396c0,8.836-7.163,16-16,16s-16-7.164-16-16s7.163-16,16-16S272,387.164,272,396z M115,239
	c-8.837,0-16,7.163-16,16s7.163,16,16,16s16-7.163,16-16S123.837,239,115,239z M397,239c-8.837,0-16,7.163-16,16s7.163,16,16,16
	s16-7.163,16-16S405.837,239,397,239z M144.984,143.984c-6.248,6.249-6.248,16.379,0,22.627c6.248,6.249,16.379,6.249,22.627,0
	c6.249-6.248,6.249-16.379,0-22.627C161.363,137.736,151.233,137.736,144.984,143.984z M344.388,343.388
	c-6.249,6.249-6.249,16.379,0,22.627c6.248,6.249,16.379,6.249,22.627,0c6.248-6.248,6.248-16.379,0-22.627
	C360.767,337.14,350.637,337.14,344.388,343.388z M144.984,343.388c-6.248,6.249-6.248,16.379,0,22.627
	c6.248,6.249,16.379,6.249,22.627,0c6.249-6.248,6.249-16.379,0-22.627C161.363,337.14,151.233,337.14,144.984,343.388z
	 M344.388,143.984c-6.249,6.249-6.249,16.379,0,22.627c6.248,6.249,16.379,6.249,22.627,0c6.248-6.248,6.248-16.379,0-22.627
	C360.767,137.736,350.637,137.736,344.388,143.984z"/>
<path style="fill:#EA4444;" d="M280,255c0,8.284-6.716,15-15,15H165c-8.284,0-15-6.716-15-15s6.716-15,15-15h75V115
	c0-8.284,6.716-15,15-15s15,6.716,15,15v125.872C275.822,242.933,280,248.472,280,255z"/>
<path style="fill:#9FACBA;" d="M292,256c0,19.882-16.118,36-36,36s-36-16.118-36-36s16.118-36,36-36S292,236.118,292,256z"/>
<g>
</g>
<g>
</g>
<g>
</g>
<g>
</g>
<g>
</g>
<g>
</g>
<g>
</g>
<g>
</g>
<g>
</g>
<g>
</g>
<g>
</g>
<g>
</g>
<g>
</g>
<g>
</g>
<g>
</g>
</svg>
