<svg id="Capa_1" enable-background="new 0 0 512 512" height="512" viewBox="0 0 512 512" width="512" xmlns="http://www.w3.org/2000/svg"><g><g><path d="m512 256c0 141.387-114.613 256-256 256s-256-114.613-256-256 114.613-256 256-256 256 114.613 256 256zm0 0" fill="#ffd89d"/><path d="m512 256c0 26.051-3.891 51.191-11.129 74.871-5.031 16.469-11.672 32.231-19.75 47.109-8.25 15.2-147.391 15.745-225.121 15.745s-216.871-.545-225.109-15.745c-3.289-6.031-6.332-12.21-9.121-18.531-14-31.629-21.77-66.629-21.77-103.449 0-46.219 12.25-89.57 33.68-127 44.121 77.07 127.16 129 222.32 129s178.211-51.93 222.32-129c21.43 37.43 33.68 80.781 33.68 127zm0 0" fill="#ffa688"/><path d="m481.262 377.699c-7.16 13.223-15.434 25.742-24.723 37.43-8.437 10.633-17.719 20.57-27.719 29.723-45.539 41.699-106.211 67.148-172.82 67.148s-127.281-25.449-172.82-67.148c-10-9.153-19.282-19.09-27.719-29.723-9.289-11.688-17.563-24.207-24.723-37.43zm0 0" fill="#ff7472"/></g><g><path d="m255.999 90-105.5 211 105.5 211c116.532 0 211-94.468 211-211s-94.467-211-211-211z" fill="#ffb03b"/><path d="m45 301c0 116.532 94.468 211 211 211v-422c-116.533 0-211 94.468-211 211z" fill="#ffc46c"/><path d="m255.999 127.09-86.955 173.91 86.955 173.91c96.048 0 173.91-77.862 173.91-173.91s-77.862-173.91-173.91-173.91z" fill="#ffc46c"/><path d="m82.089 301c0 96.048 77.862 173.91 173.91 173.91v-347.82c-96.047 0-173.91 77.862-173.91 173.91z" fill="#ffd89d"/><path d="m255.999 164.18-68.41 136.82 68.41 136.82c75.564 0 136.82-61.256 136.82-136.82s-61.256-136.82-136.82-136.82z" fill="#ffebce"/><path d="m119.179 301c0 75.564 61.257 136.82 136.82 136.82v-273.64c-75.563 0-136.82 61.256-136.82 136.82z" fill="#fff"/><path d="m293.089 208.275h-37.09l-24.726 92.725 24.726 92.725h37.09z" fill="#ff903d"/><path d="m218.91 208.275h37.09v185.449h-37.09z" fill="#ffb03b"/><path d="m218.91 208.275h18.545v185.449h-18.545z" fill="#ffc46e"/></g></g></svg>