<svg id="Capa_1" enable-background="new 0 0 512 512" height="512" viewBox="0 0 512 512" width="512" xmlns="http://www.w3.org/2000/svg"><circle cx="256" cy="256" fill="#b47bff" r="256"/><path d="m512 256c0-7.842-.353-15.602-1.043-23.265l-153.105-153.105-228.991 282.075 58.208 58.209-24.545 20.29 70.805 70.805c7.469.655 15.03.99 22.67.99 141.386.001 256.001-114.614 256.001-255.999z" fill="#8c5adb"/><path d="m335.12 444.199h-158.24c-15.336 0-27.768-12.432-27.768-27.768v-320.862c0-15.336 12.432-27.768 27.768-27.768h158.24c15.336 0 27.768 12.432 27.768 27.768v320.862c0 15.336-12.432 27.768-27.768 27.768z" fill="#414952"/><path d="m335.12 67.801h-79.524v376.399h79.524c15.336 0 27.769-12.432 27.769-27.768v-320.863c-.001-15.336-12.433-27.768-27.769-27.768z" fill="#23272b"/><path d="m172.5 93.129h167v325.742h-167z" fill="#fff"/><path d="m255.595 93.129h83.905v325.742h-83.905z" fill="#e9edf5"/><path d="m365.479 120.884h-151.958c-11.595 0-20.994 9.399-20.994 20.994v52.83c0 8.418 4.966 15.658 12.117 19.005v40.278l38.289-38.289h122.545c11.595 0 20.994-9.399 20.994-20.994v-52.83c.001-11.595-9.399-20.994-20.993-20.994z" fill="#ffce00"/><path d="m365.479 120.884h-109.884v94.818h109.884c11.595 0 20.994-9.399 20.994-20.994v-52.83c0-11.595-9.4-20.994-20.994-20.994z" fill="#fdba12"/><path d="m142.521 271.947h151.957c11.595 0 20.994 9.399 20.994 20.994v52.83c0 8.418-4.966 15.658-12.117 19.005v40.278l-38.289-38.289h-122.545c-11.595 0-20.994-9.399-20.994-20.994v-52.83c0-11.595 9.399-20.994 20.994-20.994z" fill="#ffce00"/><path d="m294.479 271.947h-38.884v94.818h9.471l38.289 38.289v-40.278c7.152-3.347 12.117-10.587 12.117-19.005v-52.83c.001-11.595-9.399-20.994-20.993-20.994z" fill="#fdba12"/></svg>