<?xml version="1.0" encoding="UTF-8" standalone="no"?>
<svg
   xmlns:dc="http://purl.org/dc/elements/1.1/"
   xmlns:cc="http://creativecommons.org/ns#"
   xmlns:rdf="http://www.w3.org/1999/02/22-rdf-syntax-ns#"
   xmlns:svg="http://www.w3.org/2000/svg"
   xmlns="http://www.w3.org/2000/svg"
   xmlns:sodipodi="http://sodipodi.sourceforge.net/DTD/sodipodi-0.dtd"
   xmlns:inkscape="http://www.inkscape.org/namespaces/inkscape"
   version="1.1"
   id="Capa_1"
   x="0px"
   y="0px"
   viewBox="0 0 512 512"
   style="enable-background:new 0 0 512 512;"
   xml:space="preserve"
   sodipodi:docname="002-calendar.svg"
   inkscape:version="1.0.1 (3bc2e813f5, 2020-09-07)"><metadata
   id="metadata105"><rdf:RDF><cc:Work
       rdf:about=""><dc:format>image/svg+xml</dc:format><dc:type
         rdf:resource="http://purl.org/dc/dcmitype/StillImage" /></cc:Work></rdf:RDF></metadata><defs
   id="defs103" /><sodipodi:namedview
   pagecolor="#ffffff"
   bordercolor="#666666"
   borderopacity="1"
   objecttolerance="10"
   gridtolerance="10"
   guidetolerance="10"
   inkscape:pageopacity="0"
   inkscape:pageshadow="2"
   inkscape:window-width="1920"
   inkscape:window-height="1015"
   id="namedview101"
   showgrid="false"
   inkscape:zoom="0.82519531"
   inkscape:cx="370.88167"
   inkscape:cy="293.00322"
   inkscape:window-x="0"
   inkscape:window-y="0"
   inkscape:window-maximized="1"
   inkscape:current-layer="Capa_1" />
<path
   style="fill:#e1e4fb;stroke-width:0.932276"
   d="M 439.43877,159.41995 V 396.2268 c 0,23.12256 -18.8109,41.78944 -42.11605,41.78944 H 58.522552 c -23.305146,0 -42.116043,-18.66688 -42.116043,-41.78944 V 159.41995 L 44.483871,129.70301 H 411.3614 Z"
   id="path2" />
<path
   style="fill:#c5c9f7;stroke-width:0.932276"
   d="M 439.43877,159.41995 V 396.2268 c 0,23.12256 -18.8109,41.78944 -42.11605,41.78944 H 227.92264 V 129.70301 H 411.3614 Z"
   id="path4" />
<path
   style="fill:#ff507e;stroke-width:0.932276"
   d="m 439.43877,87.91357 v 71.50638 H 16.406509 V 87.91357 c 0,-23.124421 18.810897,-41.789444 42.116043,-41.789444 H 397.32272 c 23.30515,0 42.11605,18.665023 42.11605,41.789444 z"
   id="path6" />
<path
   style="fill:#f40f78;stroke-width:0.932276"
   d="m 439.43877,87.91357 v 71.50638 H 227.92264 V 46.124126 h 169.40008 c 23.30515,0 42.11605,18.665023 42.11605,41.789444 z"
   id="path8" />
<g
   id="g14"
   transform="matrix(0.93591207,0,0,0.92865431,16.406509,18.264497)">
	<path
   style="fill:#7a7780"
   d="M 75,90 C 66.709,90 60,83.291 60,75 V 15 C 60,6.709 66.709,0 75,0 83.291,0 90,6.709 90,15 v 60 c 0,8.291 -6.709,15 -15,15 z"
   id="path10" />
	<path
   style="fill:#7a7780"
   d="m 165,90 c -8.291,0 -15,-6.709 -15,-15 V 15 c 0,-8.291 6.709,-15 15,-15 8.291,0 15,6.709 15,15 v 60 c 0,8.291 -6.709,15 -15,15 z"
   id="path12" />
</g>
<g
   id="g20"
   transform="matrix(0.93591207,0,0,0.92865431,16.406509,18.264497)">
	<path
   style="fill:#57555c"
   d="m 287,90 c -8.291,0 -15,-6.709 -15,-15 V 15 c 0,-8.291 6.709,-15 15,-15 8.291,0 15,6.709 15,15 v 60 c 0,8.291 -6.709,15 -15,15 z"
   id="path16" />
	<path
   style="fill:#57555c"
   d="m 377,90 c -8.291,0 -15,-6.709 -15,-15 V 15 c 0,-8.291 6.709,-15 15,-15 8.291,0 15,6.709 15,15 v 60 c 0,8.291 -6.709,15 -15,15 z"
   id="path18" />
</g>
<g
   id="g26"
   transform="matrix(0.93591207,0,0,0.92865431,16.406509,18.264497)">
	<path
   style="fill:#adacb2"
   d="M 105,212 H 75 c -8.291,0 -15,-6.709 -15,-15 0,-8.291 6.709,-15 15,-15 h 30 c 8.291,0 15,6.709 15,15 0,8.291 -6.709,15 -15,15 z"
   id="path22" />
	<path
   style="fill:#adacb2"
   d="m 196,212 h -31 c -8.291,0 -15,-6.709 -15,-15 0,-8.291 6.709,-15 15,-15 h 31 c 8.291,0 15,6.709 15,15 0,8.291 -6.709,15 -15,15 z"
   id="path24" />
</g>
<g
   id="g32"
   transform="matrix(0.93591207,0,0,0.92865431,16.406509,18.264497)">
	<path
   style="fill:#8a8891"
   d="m 287,212 h -31 c -8.291,0 -15,-6.709 -15,-15 0,-8.291 6.709,-15 15,-15 h 31 c 8.291,0 15,6.709 15,15 0,8.291 -6.709,15 -15,15 z"
   id="path28" />
	<path
   style="fill:#8a8891"
   d="m 377,212 h -30 c -8.291,0 -15,-6.709 -15,-15 0,-8.291 6.709,-15 15,-15 h 30 c 8.291,0 15,6.709 15,15 0,8.291 -6.709,15 -15,15 z"
   id="path30" />
</g>
<g
   id="g38"
   transform="matrix(0.93591207,0,0,0.92865431,16.406509,18.264497)">
	<path
   style="fill:#adacb2"
   d="M 105,272 H 75 c -8.291,0 -15,-6.709 -15,-15 0,-8.291 6.709,-15 15,-15 h 30 c 8.291,0 15,6.709 15,15 0,8.291 -6.709,15 -15,15 z"
   id="path34" />
	<path
   style="fill:#adacb2"
   d="m 196,272 h -31 c -8.291,0 -15,-6.709 -15,-15 0,-8.291 6.709,-15 15,-15 h 31 c 8.291,0 15,6.709 15,15 0,8.291 -6.709,15 -15,15 z"
   id="path36" />
</g>
<g
   id="g44"
   transform="matrix(0.93591207,0,0,0.92865431,16.406509,18.264497)">
	<path
   style="fill:#8a8891"
   d="m 287,272 h -31 c -8.291,0 -15,-6.709 -15,-15 0,-8.291 6.709,-15 15,-15 h 31 c 8.291,0 15,6.709 15,15 0,8.291 -6.709,15 -15,15 z"
   id="path40" />
	<path
   style="fill:#8a8891"
   d="m 377,272 h -30 c -8.291,0 -15,-6.709 -15,-15 0,-8.291 6.709,-15 15,-15 h 30 c 8.291,0 15,6.709 15,15 0,8.291 -6.709,15 -15,15 z"
   id="path42" />
</g>
<g
   id="g50"
   transform="matrix(0.93591207,0,0,0.92865431,16.406509,18.264497)">
	<path
   style="fill:#adacb2"
   d="M 105,332 H 75 c -8.291,0 -15,-6.709 -15,-15 0,-8.291 6.709,-15 15,-15 h 30 c 8.291,0 15,6.709 15,15 0,8.291 -6.709,15 -15,15 z"
   id="path46" />
	<path
   style="fill:#adacb2"
   d="m 196,332 h -31 c -8.291,0 -15,-6.709 -15,-15 0,-8.291 6.709,-15 15,-15 h 31 c 8.291,0 15,6.709 15,15 0,8.291 -6.709,15 -15,15 z"
   id="path48" />
</g>
<path
   style="fill:#8a8891;stroke-width:0.932276"
   d="M 285.01327,326.57773 H 256 c -7.75965,0 -14.03868,-6.23034 -14.03868,-13.92982 0,-7.69947 6.27903,-13.92981 14.03868,-13.92981 h 29.01327 c 7.75965,0 14.03869,6.23034 14.03869,13.92981 0,7.69948 -6.27904,13.92982 -14.03869,13.92982 z"
   id="path52" />
<g
   id="g58"
   transform="matrix(0.93591207,0,0,0.92865431,16.406509,18.264497)">
	<path
   style="fill:#adacb2"
   d="M 105,392 H 75 c -8.291,0 -15,-6.709 -15,-15 0,-8.291 6.709,-15 15,-15 h 30 c 8.291,0 15,6.709 15,15 0,8.291 -6.709,15 -15,15 z"
   id="path54" />
	<path
   style="fill:#adacb2"
   d="m 196,392 h -31 c -8.291,0 -15,-6.709 -15,-15 0,-8.291 6.709,-15 15,-15 h 31 c 8.291,0 15,6.709 15,15 0,8.291 -6.709,15 -15,15 z"
   id="path56" />
</g>
<path
   style="fill:#8a8891;stroke-width:0.932276"
   d="M 285.01327,382.29699 H 256 c -7.75965,0 -14.03868,-6.23035 -14.03868,-13.92982 0,-7.69947 6.27903,-13.92981 14.03868,-13.92981 h 29.01327 c 7.75965,0 14.03869,6.23034 14.03869,13.92981 0,7.69947 -6.27904,13.92982 -14.03869,13.92982 z"
   id="path60" />
<path
   style="fill:#fea832;stroke-width:0.932276"
   d="m 397.32272,298.7181 c -54.18931,0 -98.27076,43.73962 -98.27076,97.5087 0,53.76909 44.08145,97.5087 98.27076,97.5087 54.18931,0 98.27077,-43.73961 98.27077,-97.5087 0,-53.76908 -44.08146,-97.5087 -98.27077,-97.5087 z"
   id="path62" />
<path
   style="fill:#fe9923;stroke-width:0.932276"
   d="m 495.59349,396.2268 c 0,53.76909 -44.08146,97.5087 -98.27077,97.5087 V 298.7181 c 54.18931,0 98.27077,43.73962 98.27077,97.5087 z"
   id="path64" />
<path
   style="fill:#7a7780;stroke-width:0.932276"
   d="m 439.43877,396.2268 c 0,7.79977 -6.17609,13.92982 -14.03868,13.92982 h -28.07737 c -7.86259,0 -14.03868,-6.13005 -14.03868,-13.92982 v -55.71926 c 0,-7.80162 6.17609,-13.92981 14.03868,-13.92981 7.8626,0 14.03868,6.12819 14.03868,13.92981 v 41.78945 h 14.03869 c 7.86259,0 14.03868,6.12819 14.03868,13.92981 z"
   id="path66" />
<path
   style="fill:#57555c;stroke-width:0.932276"
   d="m 439.43877,396.2268 c 0,7.79977 -6.17609,13.92982 -14.03868,13.92982 h -28.07737 v -83.57889 c 7.8626,0 14.03868,6.12819 14.03868,13.92981 v 41.78945 h 14.03869 c 7.86259,0 14.03868,6.12819 14.03868,13.92981 z"
   id="path68" />
<g
   id="g70"
   transform="matrix(0.93591207,0,0,0.92865431,16.406509,18.264497)">
</g>
<g
   id="g72"
   transform="matrix(0.93591207,0,0,0.92865431,16.406509,18.264497)">
</g>
<g
   id="g74"
   transform="matrix(0.93591207,0,0,0.92865431,16.406509,18.264497)">
</g>
<g
   id="g76"
   transform="matrix(0.93591207,0,0,0.92865431,16.406509,18.264497)">
</g>
<g
   id="g78"
   transform="matrix(0.93591207,0,0,0.92865431,16.406509,18.264497)">
</g>
<g
   id="g80"
   transform="matrix(0.93591207,0,0,0.92865431,16.406509,18.264497)">
</g>
<g
   id="g82"
   transform="matrix(0.93591207,0,0,0.92865431,16.406509,18.264497)">
</g>
<g
   id="g84"
   transform="matrix(0.93591207,0,0,0.92865431,16.406509,18.264497)">
</g>
<g
   id="g86"
   transform="matrix(0.93591207,0,0,0.92865431,16.406509,18.264497)">
</g>
<g
   id="g88"
   transform="matrix(0.93591207,0,0,0.92865431,16.406509,18.264497)">
</g>
<g
   id="g90"
   transform="matrix(0.93591207,0,0,0.92865431,16.406509,18.264497)">
</g>
<g
   id="g92"
   transform="matrix(0.93591207,0,0,0.92865431,16.406509,18.264497)">
</g>
<g
   id="g94"
   transform="matrix(0.93591207,0,0,0.92865431,16.406509,18.264497)">
</g>
<g
   id="g96"
   transform="matrix(0.93591207,0,0,0.92865431,16.406509,18.264497)">
</g>
<g
   id="g98"
   transform="matrix(0.93591207,0,0,0.92865431,16.406509,18.264497)">
</g>
</svg>
