<?xml version="1.0" encoding="iso-8859-1"?>
<!-- Generator: Adobe Illustrator 19.0.0, SVG Export Plug-In . SVG Version: 6.00 Build 0)  -->
<svg version="1.1" id="Capa_1" xmlns="http://www.w3.org/2000/svg" xmlns:xlink="http://www.w3.org/1999/xlink" x="0px" y="0px"
	 viewBox="0 0 512 512" style="enable-background:new 0 0 512 512;" xml:space="preserve">
<path style="fill:#90D2E3;" d="M512,256c0,141.385-114.615,256-256,256S0,397.385,0,256S114.615,0,256,0S512,114.615,512,256z"/>
<path style="fill:#80BE1C;" d="M441.434,122.717c-47.419,24.051-99.974,19.325-128.908-8.622
	C307.07,74.239,313.904,44.051,361.323,20s114-6.25,150-20C516.779,39.856,488.853,98.666,441.434,122.717z"/>
<path style="fill:#517D10;" d="M434.044,62.574c-81.258,22.974-140.342,61.53-170.862,111.501c-1.885,3.086-5.175,4.789-8.544,4.789
	c-1.776,0-3.575-0.473-5.202-1.467c-4.714-2.879-6.201-9.033-3.322-13.746c33.193-54.348,96.297-95.954,182.489-120.323
	c5.316-1.501,10.841,1.588,12.344,6.902C442.448,55.545,439.359,61.071,434.044,62.574z"/>
<path style="fill:#A39C12;" d="M264.973,190h-16.458c-2.088,0-3.823-1.617-3.975-3.707l-8.185-112
	C236.186,71.975,238.014,70,240.33,70h31.339c2.295,0,4.116,1.94,3.979,4.24l-6.697,112C268.826,188.352,267.082,190,264.973,190z"
	/>
<path style="fill:#EA4444;" d="M449.765,372.905c-18.96,69.549-76.427,121.89-147.332,134.89
	c-10.655,1.953-21.54,3.247-32.613,3.836c-4.773,0.254-9.557-0.761-13.753-3.051c-0.022-0.012-0.044-0.024-0.067-0.036l-0.067,0.036
	c-4.196,2.29-8.98,3.305-13.753,3.051c-11.073-0.589-21.958-1.883-32.613-3.836c-70.905-12.999-128.372-65.341-147.332-134.89
	c-0.102-0.375-0.204-0.751-0.305-1.128c-26.444-98.691,8.338-193.76,77.689-212.343c25.711-6.889,52.563-2.295,77.523,11.242
	c24.3,13.179,53.417,13.179,77.717,0c24.961-13.537,51.812-18.132,77.523-11.242c69.351,18.583,104.133,113.652,77.689,212.343
	C449.969,372.154,449.868,372.53,449.765,372.905z"/>
<path style="fill:#D93131;" d="M139.618,159.435c0.963-0.258,1.928-0.497,2.895-0.721c0.089-0.021,0.178-0.04,0.267-0.06
	c0.933-0.213,1.867-0.415,2.802-0.6c0.002,0,0.005-0.001,0.007-0.001C122.934,189.094,110,224.885,110,263
	c0,114.949,117.486,208.811,265.282,214.69c-21.505,14.799-46.231,25.225-72.851,30.105c-10.663,1.955-21.557,3.249-32.638,3.837
	c-4.765,0.253-9.538-0.767-13.727-3.053c-0.022-0.012-0.044-0.024-0.067-0.036c-0.258,0.141-0.516,0.28-0.775,0.419
	c-3.744,2-7.976,2.924-12.215,2.712c-11.358-0.568-22.521-1.877-33.441-3.878c-70.907-12.999-128.375-65.342-147.335-134.892
	c-0.102-0.375-0.204-0.75-0.304-1.126C35.485,273.086,70.268,178.017,139.618,159.435z"/>
<path style="fill:#EF6161;" d="M403.573,260.067c-11.716,11.716-35.459,6.967-53.033-10.607s-22.322-41.317-10.607-53.033
	c11.716-11.716,35.459-6.967,53.033,10.607C410.54,224.607,415.289,248.351,403.573,260.067z"/>
<g>
</g>
<g>
</g>
<g>
</g>
<g>
</g>
<g>
</g>
<g>
</g>
<g>
</g>
<g>
</g>
<g>
</g>
<g>
</g>
<g>
</g>
<g>
</g>
<g>
</g>
<g>
</g>
<g>
</g>
</svg>
