<svg id="Icons" enable-background="new 0 0 512 512" height="512" viewBox="0 0 512 512" width="512" xmlns="http://www.w3.org/2000/svg"><g><path d="m512 256c0 124.89-89.44 228.89-207.75 251.46-3.31.63-6.64 1.2-9.99 1.7-12.48 1.87-25.26 2.84-38.26 2.84-22.45 0-44.23-2.89-64.98-8.32-6.78-1.77-13.44-3.82-19.99-6.13-99.62-35.03-171.03-129.96-171.03-241.55 0-19.06 2.08-37.64 6.04-55.51 25.35-114.69 127.64-200.49 249.96-200.49 31.25 0 61.2 5.6 88.89 15.86 97.57 36.13 167.11 130.01 167.11 240.14z" fill="#22a8b9"/><path d="m380.32 127.71c0 107.25-86.94 194.19-194.19 194.19-81.51 0-151.29-50.22-180.09-121.41 25.35-114.69 127.64-200.49 249.96-200.49 31.25 0 61.2 5.6 88.89 15.86 22.32 31.62 35.43 70.2 35.43 111.85z" fill="#22bce0"/><g><g><path d="m203.718 66.728c1.078-2.834 4.719-3.613 6.863-1.47l19.48 19.48c16.163 16.163 10.108 48.427-13.516 72.051s-55.888 29.678-72.051 13.516l-19.48-19.48c-2.144-2.144-1.364-5.785 1.47-6.863l54.198-20.615c1.116-.424 1.997-1.305 2.421-2.421z" fill="#2d2667"/><g><path d="m216.079 147.143c-4.588 4.475-11.805-1.376-8.259-6.814 9.944-14.752 13.466-30.75 9.42-42.796-.946-2.816.568-5.865 3.386-6.81 2.816-.946 5.865.57 6.81 3.386 5.172 15.289.962 35.828-11.357 53.034z" fill="#57409b"/></g></g><g><path d="m225.041 31.131-36.182 95.108c-.502 1.32-1.545 2.363-2.866 2.866l-95.108 36.182c-3.992 1.519-7.903-2.393-6.385-6.385l36.182-95.108c.502-1.32 1.545-2.363 2.866-2.866l95.108-36.182c3.992-1.518 7.904 2.393 6.385 6.385z" fill="#57409b"/><g><path d="m201.381 53.643c-.575.575-1.277 1.039-2.086 1.347l-59.033 22.458c-3.065 1.166-6.494-.373-7.66-3.438s.374-6.493 3.438-7.66l59.033-22.458c5.971-2.246 10.77 5.298 6.308 9.751z" fill="#6c53a2"/></g></g><g><g><path d="m116.912 173.359-19.979 19.979-6.845-6.845 20.94-20.94c1.706-1.706 4.604-1.085 5.462 1.17l1.18 3.102c.465 1.223.169 2.607-.758 3.534z" fill="#2d2667"/></g><path d="m101.372 203.534c-5.753 5.833-15.519 6.008-21.479 0-13.685-14.812 6.682-35.161 21.487-21.487 5.854 5.706 5.953 15.615-.008 21.487z" fill="#2d2667"/><path d="m72.112 227.82c-1.286-.318-2.39-.954-3.362-1.917 0 0-11.226-11.226-11.226-11.226-3.795-3.795-2.373-10.238 2.654-12.086l14.421-5.309c2.693-.989 5.712-.327 7.735 1.696l2.114 2.114c2.004 2.006 2.692 5.056 1.696 7.735 0 0-5.309 14.421-5.309 14.421-1.368 3.727-5.27 5.469-8.723 4.572z" fill="#2d2667"/><g fill="#57409b"><path d="m72.112 227.82c-.365-1.415-.304-2.936.221-4.358l5.309-14.421c1.377-3.735 5.271-5.469 8.724-4.571.365 1.415.304 2.936-.221 4.358l-5.309 14.421c-1.369 3.726-5.271 5.468-8.724 4.571z"/><path d="m101.372 203.534c-1.384 1.384-2.959 2.442-4.655 3.179-6.095-1.358-8.115-8.72-4.845-14.839 2.7-5.028 8.032-7.499 12.344-5.91 2.885 5.693 1.852 12.886-2.844 17.57z"/></g></g></g><g id="Person_4_"><g><path d="m342.444 421.222c-18.975 0-44.223-10.467-84.102-33.996l16.77-28.422c47.732 28.164 65.144 31.191 71.335 28.769 9.732-4.217 17.808-44.454 24.182-60.89l31.256 10.587c-12.655 35.63-17.315 84.16-59.441 83.952z" fill="#2d2667"/></g><g id="Hand_2_"><path d="m370.404 326.057c.003 7.387 5.988 13.394 13.39 13.39h36.36c7.461.02 13.418-6.142 13.39-13.39-.002-7.402-5.988-13.388-13.39-13.39h-36.36c-7.252-.028-13.407 5.922-13.39 13.39z" fill="#a26d5a"/><path d="m376.404 320.057c.003 7.387 5.988 13.394 13.39 13.39h36.36c2.15 0 4.17-.5 5.97-1.4 4.525-8.617-2.18-19.563-11.97-19.38h-36.36c-2.15 0-4.18.51-5.98 1.41-.9 1.8-1.41 3.83-1.41 5.98z" fill="#d48d77"/></g><g id="Arm_4_"><path d="m185.114 399.2c-66.155.465-86.142-32.693-95.214-90.097-1.893-10.111-4.416-21.991-6.989-32.307l34.626 2.934c14.231 64.504 7.59 93.057 90.813 85.218l3.225 32.842c-9.528.935-18.328 1.41-26.461 1.41z" fill="#2d2667"/></g><g id="Hand_3_"><path d="m113.778 290.77c-5.226 5.222-13.705 5.237-18.936 0 0 0-25.71-25.71-25.71-25.71-5.29-5.261-5.146-13.831 0-18.936 5.236-5.233 13.7-5.233 18.936 0l25.71 25.71c5.148 5.108 5.293 13.667 0 18.936z" fill="#a26d5a"/><path d="m113.778 282.285c-5.226 5.222-13.705 5.237-18.936 0 0 0-25.71-25.71-25.71-25.71-1.52-1.52-2.595-3.302-3.232-5.211 2.894-9.293 15.374-12.292 22.168-5.239 0 0 25.71 25.71 25.71 25.71 1.52 1.52 2.595 3.316 3.231 5.225-.636 1.909-1.711 3.705-3.231 5.225z" fill="#d48d77"/></g><g id="Body_4_"><path d="m304.25 413.07v94.39c-44.045 8.486-91.329 4.992-133.22-9.91v-84.48c0-4.91.53-9.69 1.54-14.29 2.75-12.59 9.06-23.85 17.82-32.67 42.073-41.873 113.505-12.493 113.86 46.96z" fill="#2d2667"/><path d="m304.25 413.07v94.39c-36.88 7.163-77.35 5.756-113.23-3.78.527-9.666-1.402-97.475 1.45-104.48 5.036-24.853 25.408-45.541 50.15-51.03 1.654-.375 3.326-.722 5.02-.97 2.03.3 4.02.7 5.99 1.19 29.415 7.043 50.877 34.486 50.62 64.68z" fill="#6c53a2"/><path d="m294.26 413.07v96.09c-33.795 5.183-70.68 3.181-103.24-5.48.527-9.666-1.402-97.475 1.45-104.48 4.893-24.057 24.135-44.306 47.89-50.46.751-.204 1.51-.386 2.27-.57 3.11.72 6.13 1.65 9.05 2.79 25.331 9.665 42.754 34.753 42.58 62.11z" fill="#57409b"/></g><g id="HEAD_5_"><g id="Ears_4_"><path d="m202.281 294.217c.734 8.912-6.136 16.832-15.187 16.783h-12.83c-20.305-.496-20.305-31.474 0-31.97h12.83c8.387 0 15.187 6.8 15.187 15.187z" fill="#c17e62"/><path d="m316.218 294.217c.734 8.912-6.136 16.832-15.187 16.783h-12.83c-20.305-.496-20.305-31.474 0-31.97h12.83c8.388 0 15.187 6.8 15.187 15.187z" fill="#c17e62"/><g fill="#a26d5a"><path d="m207.664 295.015c0 3.517-2.851 6.369-6.369 6.369h-23.891c-3.517 0-6.369-2.851-6.369-6.369s2.851-6.369 6.369-6.369h23.891c3.517.001 6.369 2.852 6.369 6.369z"/><path d="m304.259 295.015c0 3.517-2.851 6.369-6.369 6.369h-23.89c-3.517 0-6.369-2.851-6.369-6.369s2.851-6.369 6.369-6.369h23.891c3.517.001 6.368 2.852 6.368 6.369z"/></g></g><g id="Neck_4_"><g><path d="m253.635 335.917v15.9c.047 8.884-7.383 16.056-15.99 15.98-8.83 0-15.98-7.15-15.98-15.98v-15.9c-.152-10.304 10.073-18.155 19.98-15.48 6.981 1.821 11.985 8.081 11.99 15.48z" fill="#a26d5a"/></g><g><path d="m253.635 335.917v15.9c0 7.45-5.1 13.7-11.99 15.48-6.89-1.78-11.99-8.03-11.99-15.48v-15.9c0-7.45 5.1-13.7 11.99-15.48 6.981 1.821 11.985 8.081 11.99 15.48z" fill="#c17e62"/></g><g><path d="m253.635 335.917v14.64c-3.74.85-7.64 1.3-11.64 1.3-6.31.005-14.247.273-20.33-1.3v-14.64c-.152-10.304 10.073-18.154 19.98-15.48 6.981 1.82 11.985 8.081 11.99 15.48z" fill="#a26d5a"/></g><g><path d="m253.635 335.917v15.9c.047 8.884-7.383 16.056-15.99 15.98-8.83 0-15.98-7.15-15.98-15.98v-15.9c-.152-10.304 10.073-18.155 19.98-15.48 6.981 1.821 11.985 8.081 11.99 15.48z" fill="none"/></g></g><g id="Face_4_"><g><path d="m294.615 255.227v36.02c.107 29.116-23.95 52.753-52.62 52.62h-8.69c-29.07 0-52.63-23.56-52.63-52.62v-36.02c0-29.06 23.56-52.62 52.63-52.62h8.69c28.67-.13 52.726 23.502 52.62 52.62z" fill="#c17e62"/></g><g><path d="m294.615 255.227v36.02c0 27.66-21.35 50.34-48.47 52.46-27.12-2.11-48.48-24.79-48.48-52.46v-36.02c0-27.67 21.36-50.35 48.48-52.46 27.12 2.12 48.47 24.8 48.47 52.46z" fill="#d48d77"/></g></g><path d="m237.647 318.587c-6.594 0-12.557-2.021-15.562-5.275-1.746-1.96 1.118-4.616 2.939-2.714 4.583 5.253 20.665 5.251 25.246 0 1.805-1.9 4.695.751 2.938 2.714-3.004 3.253-8.967 5.275-15.561 5.275z" fill="#a26d5a"/><path d="m246.412 300.529h-17.529c-2.624-.043-2.633-3.955 0-4h17.529c2.623.043 2.633 3.955 0 4z" fill="#c17e62"/><g id="Eyes_5_"><path d="m223.556 280.816c0-4.32-3.502-7.822-7.822-7.822-10.364.383-10.361 15.261 0 15.643 4.32.001 7.822-3.501 7.822-7.821z" fill="#eab39b"/><path d="m267.382 280.816c0-4.32-3.502-7.822-7.822-7.822-10.364.383-10.361 15.261 0 15.643 4.321.001 7.822-3.501 7.822-7.821z" fill="#eab39b"/><path d="m223.022 283.736c0-4.025-3.263-7.288-7.288-7.288-9.647.333-9.644 14.243 0 14.575 4.025 0 7.288-3.262 7.288-7.287z" fill="#122894"/><path d="m220.832 283.887c3.374-3.549-1.701-8.622-5.249-5.249-3.374 3.549 1.701 8.622 5.249 5.249z" fill="#e8f3fc"/><path d="m266.848 283.736c0-4.025-3.263-7.288-7.288-7.288-9.647.333-9.645 14.243 0 14.575 4.026 0 7.288-3.262 7.288-7.287z" fill="#122894"/><path d="m264.659 283.887c3.374-3.549-1.701-8.622-5.249-5.249-3.374 3.549 1.701 8.622 5.249 5.249z" fill="#e8f3fc"/></g></g><g id="Glasses_3_"><g id="Glasses_4_"><path d="m278.005 270.343c-8.009-3.457-20.699-3.454-28.695 0-1.835.724-3.034 2.485-3.034 4.458v10.746c.915 23.054 33.85 23.051 34.763 0v-10.745c0-1.974-1.199-3.734-3.034-4.459z" fill="#e8f3fc"/><path d="m263.657 304.936c-10.691 0-19.389-8.698-19.389-19.389h4.015c.847 20.401 29.908 20.385 30.748 0h4.015c0 10.691-8.698 19.389-19.389 19.389z" fill="#6c53a2"/><path d="m283.046 285.547h-4.015v-10.746c0-1.151-.692-2.168-1.763-2.591-7.527-3.273-19.71-3.267-27.221 0-1.071.423-1.764 1.439-1.764 2.591v10.746h-4.015v-10.746c0-2.811 1.69-5.293 4.305-6.325 3.217-1.27 8.445-2.784 15.084-2.784 6.638 0 11.867 1.514 15.084 2.784 2.615 1.032 4.304 3.515 4.304 6.325v10.746z" fill="#2d2667"/><path d="m225.356 270.291c-7.944-3.389-20.498-3.385-28.428 0-1.919.748-3.167 2.594-3.167 4.655v10.601c.914 23.053 33.849 23.052 34.763 0v-10.601c0-2.06-1.248-3.907-3.168-4.655z" fill="#e8f3fc"/><path d="m211.143 304.936c-10.691 0-19.389-8.698-19.389-19.389h4.015c.847 20.401 29.908 20.385 30.748 0h4.015c-.001 10.691-8.699 19.389-19.389 19.389z" fill="#6c53a2"/><g fill="#2d2667"><path d="m230.531 285.547h-4.015v-10.601c0-1.244-.742-2.337-1.889-2.785-7.45-3.206-19.535-3.201-26.97 0-1.148.447-1.889 1.54-1.889 2.784v10.601h-4.015v-10.601c0-2.912 1.745-5.473 4.446-6.525 3.192-1.245 8.377-2.729 14.942-2.729s11.75 1.484 14.943 2.729c2.701 1.052 4.446 3.614 4.446 6.525v10.602z"/><path d="m244.491 281.621c-1.402-1.45-12.703-1.455-14.106-.022.002-.002.238-.244.22-.815l-4.013.126c.328-3.672 5.083-4.332 10.808-4.412 9.47 0 10.884 2.725 10.884 4.349h-4.015c0 .544.22.773.222.774z"/><path d="m294.616 273.767h-13.578c-1.108 0-2.007-.899-2.007-2.007s.899-2.007 2.007-2.007h13.578c2.635.043 2.642 3.969 0 4.014z"/><path d="m193.761 273.767h-13.577c-2.634-.044-2.641-3.969 0-4.015h13.577c2.635.044 2.642 3.97 0 4.015z"/></g></g><path d="m223.247 280.739c0-4.339-3.517-7.856-7.856-7.856-10.409.385-10.406 15.328 0 15.711 4.339.001 7.856-3.516 7.856-7.855z" fill="#98cbef"/><path d="m267.264 280.739c0-4.339-3.517-7.856-7.856-7.856-10.409.385-10.406 15.328 0 15.711 4.339.001 7.856-3.516 7.856-7.855z" fill="#98cbef"/><g><path d="m222.711 283.672c0-4.042-3.277-7.319-7.319-7.319-9.689.335-9.686 14.305 0 14.638 4.042 0 7.319-3.277 7.319-7.319z" fill="#122894"/></g><path d="m220.511 283.823c3.388-3.564-1.708-8.66-5.272-5.272-3.388 3.565 1.709 8.66 5.272 5.272z" fill="#e8f3fc"/><path d="m266.728 283.672c0-4.042-3.277-7.319-7.319-7.319-9.689.335-9.686 14.305 0 14.638 4.042 0 7.319-3.277 7.319-7.319z" fill="#122894"/><path d="m264.528 283.823c3.388-3.564-1.708-8.66-5.272-5.272-3.388 3.565 1.709 8.66 5.272 5.272z" fill="#e8f3fc"/></g></g><g><g><path d="m471.956 170.474c6.614 6.517 6.744 17.588.003 24.245 0 0-103.191 103.191-103.191 103.191-1.678 1.678-3.614 2.934-5.684 3.77-6.318 2.533-13.591 1.186-18.558-3.77-6.588-6.482-6.65-17.33-.337-23.898.068-.175 103.36-103.296 103.527-103.534 6.631-6.724 17.705-6.624 24.24-.004z" fill="#ebd9ea"/><path d="m476.953 181.676c.254 4.686-1.411 9.46-4.994 13.043l-103.191 103.19c-3.474 3.482-8.22 5.253-13.043 4.994-.276-4.57 1.421-9.319 4.657-12.699.036-.07 103.382-103.371 103.527-103.533 3.59-3.578 8.311-5.243 13.044-4.995z" fill="#c2aacf"/><path d="m460.979 165.499c.326 4.765-1.344 9.622-4.978 13.262 0 0-103.191 103.191-103.191 103.191-3.468 3.502-8.441 5.334-13.268 4.978-.315-4.716 1.338-9.436 4.647-12.919.037-.072 103.381-103.369 103.527-103.533 3.646-3.63 8.452-5.299 13.263-4.979z" fill="#fff"/></g><path d="m393.685 220.357h13.158v11.715h-13.158z" fill="#c0405c" transform="matrix(.707 -.707 .707 .707 -42.723 349.286)"/><path d="m399.3 218.031h6.579v11.715h-6.579z" fill="#e9465e" transform="matrix(.707 -.707 .707 .707 -40.397 350.249)"/><g><g><path d="m443.371 246.817c1.431-.43 12.861-3.894 13.948-4.219 1.151-.347 1.124-1.985-.036-2.296l-20.908-5.602-5.121 19.113 20.908 5.602c1.16.311 2.003-1.095 1.179-1.971-.741-.782-8.99-9.587-9.97-10.627" fill="#f39e22"/><path d="m434.904 251.705 16.057 4.303c.348.093.666.033.918-.121l-8.508-9.07 11.903-3.601c-.141-.259-.386-.47-.734-.563l-16.057-4.303z" fill="#fad98f"/></g><g><path d="m420.921 269.377c1.088 1.024 9.802 9.191 10.628 9.97.876.823 2.282-.019 1.971-1.179l-5.602-20.908-19.113 5.121 5.602 20.908c.311 1.16 1.949 1.187 2.296.036.306-1.034 3.807-12.579 4.218-13.948" fill="#f39e22"/><path d="m412.454 264.488 4.303 16.057c.093.348.304.593.563.734l3.601-11.903 9.07 8.508c.154-.252.214-.57.121-.918l-4.303-16.057z" fill="#fad98f"/></g></g><g><g><path d="m432.478 227.532c-8.532-8.532-22.365-8.532-30.896 0-19.678 21.305 9.6 50.572 30.897 30.896 8.531-8.531 8.531-22.364-.001-30.896z" fill="#c0405c"/><path d="m430.335 229.676c-7.348-7.348-19.262-7.348-26.61 0-16.948 18.35 8.268 43.556 26.61 26.61 7.348-7.348 7.348-19.262 0-26.61z" fill="#e9465e"/><path d="m427.138 232.871c5.521 5.462 5.622 14.645 0 20.217-13.892 12.838-33.026-6.173-20.284-20.144 5.425-5.626 14.82-5.658 20.284-.073z" fill="#f39e22"/><path d="m427.138 232.871c.356.356.687.725.998 1.106 1.167 3.862.226 8.224-2.826 11.275-8.915 8.639-22.99-.946-18.456-12.308 5.425-5.626 14.82-5.658 20.284-.073z" fill="#f9c744"/><path d="m421.254 229.542c5.349 5.689-2.667 13.711-8.357 8.357-2.308-2.308-2.311-6.049-.003-8.357 2.281-1.373 5.479-.896 8.001-.328.123.1.244.214.359.328z" fill="#fad98f"/></g></g></g></g></svg>