<svg id="Capa_1" enable-background="new 0 0 512 512" height="512" viewBox="0 0 512 512" width="512" xmlns="http://www.w3.org/2000/svg"><g><g><g><g><g><g><g><circle cx="256" cy="256" fill="#a3d4ff" r="256"/></g></g></g></g></g></g><path d="m308.039 119.276 63.651 63.651-5.2 5.2-87.226-87.227-28.852 67.746 23.505 23.505-3.972 3.972-71.743-72.174-4.485-4.054-75.387 101.776 38.161 38.161-17.996 19.467 28.294 28.294-25.874 55.422 29.43 29.43-7.398 5.769 113.019 113.019c132.054-10.187 236.034-120.567 236.034-255.233 0-2.614-.039-5.219-.117-7.814l-139.904-139.905-47.167 5.223z" fill="#65b1fc"/><g><path d="m209.459 415.546c-.003 0-.005 0-.007 0-24.376 0-46.758-12.286-59.873-32.864l25.299-16.123c7.577 11.889 20.503 18.988 34.576 18.988h.006c1.659 0 3.326-.1 4.958-.296l3.585 29.785c-2.818.338-5.692.51-8.544.51zm29.244-6.294-12.377-27.328c14.306-6.479 23.757-20.798 24.077-36.479l29.994.612c-.555 27.17-16.92 51.975-41.694 63.195zm-97.788-46.238c-1.607-5.986-2.421-12.186-2.42-18.428v-48.288h30v48.289c-.001 3.618.469 7.202 1.395 10.652zm139.497-34.27h-30v-63.034h30zm-111.917-49.446h-30v-51.233h30zm223.834-4.756h-30v-63h30zm-111.917-25.852h-30v-63.034h30zm111.917-54.148h-30v-36.522c0-6.579-1.507-12.855-4.481-18.653l26.695-13.688c5.093 9.933 7.786 21.117 7.786 32.342zm-111.917-25.896h-30v-10.626c.001-22.432 10.787-43.785 28.852-57.12l17.816 24.137c-10.593 7.819-16.668 19.841-16.668 32.984zm70.171-39.335c-7.764-7.899-18.139-12.25-29.212-12.25-4.576 0-9.061.745-13.332 2.214l-9.759-28.369c7.418-2.552 15.187-3.846 23.09-3.846 19.185 0 37.158 7.536 50.608 21.22z" fill="#606aea"/></g><g fill="#4253ce"><path d="m264.154 265.71h16.258v63.034h-16.258z"/><path d="m264.154 185.656h16.258v63.034h-16.258z"/><path d="m264.154 345.726v43.948c9.97-12.128 15.913-27.448 16.243-43.617z"/><path d="m362.329 211.542h30v63h-30z"/><path d="m384.543 125.678-26.695 13.688c2.974 5.798 4.481 12.074 4.481 18.653v36.522h30v-36.521c0-11.225-2.693-22.408-7.786-32.342z"/><path d="m321.37 87.061c-7.903 0-15.672 1.294-23.09 3.846l9.759 28.369c4.271-1.469 8.756-2.214 13.332-2.214 11.074 0 21.448 4.35 29.212 12.25l21.396-21.029c-13.451-13.686-31.424-21.222-50.609-21.222z"/><path d="m279.264 100.9c-5.838 4.309-10.912 9.458-15.11 15.209v52.537h16.258v-10.626c0-13.143 6.076-25.165 16.668-32.984z"/></g><g><ellipse cx="153.495" cy="168.908" fill="#ffce00" rx="63.404" ry="63.404" transform="matrix(.247 -.969 .969 .247 -48.091 275.931)"/></g><g><path d="m171.898 198.98-3.692-10.742h-29.428l-3.692 10.742h-21.819l28.085-74.632h24.168l28.197 74.632zm-18.462-55.611-9.511 28.085h19.022z" fill="#555a66"/></g><g><ellipse cx="377.329" cy="318.551" fill="#ff6c52" rx="63.404" ry="63.404" transform="matrix(.201 -.98 .98 .201 -10.538 624.184)"/></g><g><path d="m347.799 356.886v-74.632h42.295c14.77 0 21.819 9.623 21.819 19.022 0 9.287-5.707 15.553-12.756 17.119 7.944 1.231 14.211 8.84 14.211 18.239 0 10.854-7.273 20.253-21.931 20.253h-43.638zm44.533-52.254c0-3.581-2.685-6.154-6.602-6.154h-18.686v12.42h18.686c3.917 0 6.602-2.573 6.602-6.266zm1.455 29.316c0-3.692-2.685-6.714-7.385-6.714h-19.357v13.427h19.357c4.588.001 7.385-2.685 7.385-6.713z" fill="#333940"/></g></g></svg>