<svg id="Capa_1" enable-background="new 0 0 512 512" height="512" viewBox="0 0 512 512" width="512" xmlns="http://www.w3.org/2000/svg"><g><g><path d="m0 256c0 43.79 11 85.02 30.39 121.07l225.61 49.67 225.61-49.67c19.39-36.05 30.39-77.28 30.39-121.07 0-46.63-12.47-90.34-34.26-128-41.698 72.091-399.22 76.52-443.48 0-21.79 37.66-34.26 81.37-34.26 128z" fill="#79ce8b"/><path d="m34.26 128c44.26 76.52 126.99 128 221.74 128s177.48-51.48 221.74-128c-.01-.02-.03-.05-.04-.07-44.27-76.48-126.98-127.93-221.7-127.93s-177.43 51.45-221.7 127.93c-.01.02-.03.05-.04.07z" fill="#a9eb58"/><path d="m30.39 377.07c19.659 36.56 47.946 67.794 82.137 90.975 40.923 27.745 90.304-15.009 143.473-15.009s102.55 42.754 143.473 15.009c34.191-23.181 62.477-54.414 82.137-90.975z" fill="#599d8a"/></g><g><path d="m434.762 245.605h-20.878v-84.979l-112.605-66.158 10.576-18.001 122.907 72.211z" fill="#d95f91"/><path d="m452.419 305.508h-56.192l18.132-45.116c-9.812-3.946-16.754-13.56-16.754-24.782 0-14.76 11.963-26.723 26.723-26.723 14.75 0 26.713 11.963 26.713 26.723 0 11.222-6.942 20.836-16.754 24.782z" fill="#d95f91"/><path d="m452.419 305.508h-28.091v-96.621c14.75 0 26.713 11.963 26.713 26.723 0 11.222-6.942 20.836-16.754 24.782z" fill="#c02e71"/><path d="m453.18 131.16-197.18 136.51-.01.01-197.18-136.52 197.18-125.95.01.01z" fill="#616578"/><path d="m453.18 131.16-197.18 136.51v-262.45z" fill="#464652"/><path d="m228.21 326.678h-8.685v-135.69h-85.75v135.69h-11.986c-15.345 0-27.784 12.439-27.784 27.785 0 15.345 12.439 27.785 27.784 27.785h106.421c15.345 0 27.784-12.44 27.784-27.785.001-15.346-12.439-27.785-27.784-27.785z" fill="#f5dd6e"/><path d="m390.2 326.678h-11.985v-135.69h-85.75v135.69h-8.685c-15.345 0-27.785 12.439-27.785 27.785 0 15.345 12.439 27.785 27.785 27.785h106.42c15.345 0 27.785-12.44 27.785-27.785 0-15.346-12.44-27.785-27.785-27.785z" fill="#eec036"/><path d="m399.47 468.04c-40.92 27.75-90.3 43.96-143.47 43.96s-102.55-16.21-143.47-43.96c9.76-28.05 27.52-52.36 50.54-70.2 10.67-8.27 22.48-15.15 35.15-20.37.37-.15.73-.28 1.1-.4 3-.97 6.05-.85 9.15 0 14.95 4.09 30.93 25.34 47.53 25.34s32.58-21.25 47.53-25.34c3.1-.85 6.15-.97 9.15 0 .37.12.73.25 1.1.4v.01c39.98 16.46 71.4 49.5 85.69 90.56z" fill="#8999e5"/><path d="m399.47 468.04c-40.92 27.75-90.3 43.96-143.47 43.96v-109.59c16.6 0 32.58-21.25 47.53-25.34 3.1-.85 6.15-.97 9.15 0 .37.12.73.25 1.1.4v.01c39.98 16.46 71.4 49.5 85.69 90.56z" fill="#546ada"/><path d="m313.775 377.472v.011l-15.993 43.578-41.783 31.975-41.814-32.647-15.961-42.917c17.809-7.33 37.32-11.372 57.775-11.372 20.456 0 39.966 4.043 57.776 11.372z" fill="#e9ecf8"/><path d="m313.77 377.47v.01l-15.99 43.58-41.78 31.98-.01-.01v-86.93h.01c20.45 0 39.97 4.04 57.77 11.37z" fill="#dbdeee"/><path d="m255.999 453.036-13.84 20.648 13.84 27.981 54.888-54.877-14.733-14.733 52.777-34.211c-10.669-8.275-22.482-15.153-35.157-20.372z" fill="#8999e5"/><path d="m255.999 453.036v48.629l-54.888-54.877 14.733-14.733-52.777-34.211c10.669-8.275 22.482-15.153 35.157-20.372z" fill="#a4b5ed"/><path d="m292.301 329.798v36.302c0 20.057-16.255 36.312-36.301 36.312-20.056 0-36.312-16.255-36.312-36.312v-36.301h72.613z" fill="#dfbca3"/><path d="m292.301 329.798v36.302c0 20.057-16.255 36.312-36.301 36.312v-72.613h36.301z" fill="#cb8f69"/><path d="m386.714 257.249v7.025c0 25.527-20.687 46.214-46.214 46.214h-66.344v-77.275h88.511c13.284-.001 24.047 10.762 24.047 24.036z" fill="#cb8f69"/><path d="m274.156 233.212v77.275h-103.695c-25.517 0-46.203-20.687-46.203-46.214v-7.025c0-13.273 10.763-24.036 24.036-24.036z" fill="#dfbca3"/><path d="m346.559 141.288v135.922c0 50.015-40.544 90.559-90.559 90.559-50.026 0-90.569-40.543-90.569-90.559v-135.922z" fill="#eed9c8"/><path d="m346.559 141.288v135.922c0 50.015-40.544 90.559-90.559 90.559v-226.481z" fill="#dfbca3"/><g><path d="m255.995 98.503h30.634c50.582 0 91.587 41.005 91.587 91.587v4.382c0 24.315-19.711 44.027-44.027 44.027-43.185 0-78.193-15.008-78.193-58.193l-15.77-36.243z" fill="#eec036"/><path d="m255.995 98.503h-30.634c-50.582 0-91.587 41.005-91.587 91.587v4.382c0 24.315 19.711 44.027 44.027 44.027 43.185 0 78.193-15.008 78.193-58.193v-81.803z" fill="#f5dd6e"/></g><path d="m255.995 291.322c-5.518 0-9.992-4.474-9.992-9.992v-27.31c0-5.518 4.474-9.992 9.992-9.992 5.518 0 9.992 4.474 9.992 9.992v27.31c0 5.518-4.474 9.992-9.992 9.992z" fill="#cb8f69"/><g fill="#464652"><circle cx="219.525" cy="257.101" r="13.073"/><circle cx="292.465" cy="257.101" r="13.073"/></g><path d="m288.15 300.49c0 17.76-14.4 32.15-32.15 32.15s-32.15-14.39-32.15-32.15z" fill="#fff"/><path d="m288.15 300.49c0 17.76-14.4 32.15-32.15 32.15v-32.15z" fill="#e9ecf8"/></g></g></svg>