<svg id="Capa_1" enable-background="new 0 0 512.247 512.247" height="512" viewBox="0 0 512.247 512.247" width="512" xmlns="http://www.w3.org/2000/svg"><g><g><path d="m512.124 256c0 141.387-114.613 256-256 256s-256-114.613-256-256 114.613-256 256-256 256 114.613 256 256zm0 0" fill="#aaed58"/><path d="m512.124 256c0 26.051-3.891 51.191-11.129 74.871-5.031 16.469-11.672 32.231-19.75 47.109-8.25 15.2-18 29.461-29.051 42.61-.582.691-1.16 1.379-1.75 2.058-46.941 54.704-116.59 89.352-194.32 89.352s-147.379-34.648-194.309-89.352c-.589-.687-1.179-1.378-1.75-2.07-11.062-13.137-20.812-27.398-29.05-42.598-3.289-6.031-6.332-12.21-9.121-18.531-14-31.629-21.77-66.629-21.77-103.449 0-46.219 12.25-89.57 33.68-127 44.121 77.07 127.16 129 222.32 129s178.211-51.93 222.32-129c21.43 37.43 33.68 80.781 33.68 127zm0 0" fill="#6abb5e"/><path d="m481.386 377.699c-7.16 13.223-15.434 25.742-24.723 37.43-8.437 10.633-17.719 20.57-27.719 29.723-45.539 41.699-106.211 67.148-172.82 67.148s-127.281-25.449-172.82-67.148c-10-9.153-19.282-19.09-27.719-29.723-9.289-11.688-17.563-24.207-24.723-37.43zm0 0" fill="#303a59"/></g><g><path d="m311.068 400.593v83.97h48.48c31.385-18.159 57.553-44.327 75.712-75.712v-48.48h-83.97c-9.647 16.673-23.549 30.575-40.222 40.222z" fill="#64b0fb"/><path d="m351.29 250.482h83.97v-48.48c-18.159-31.385-44.327-57.553-75.712-75.712h-48.48v83.97c16.673 9.647 30.575 23.549 40.222 40.222z" fill="#9f165b"/><path d="m201.179 210.26v-83.97h-48.48c-31.385 18.159-57.553 44.327-75.712 75.712v48.48h83.97c9.647-16.673 23.549-30.575 40.222-40.222z" fill="#e38031"/><path d="m256.124 415.3-48.474 48.474 48.474 48.474c37.678 0 73-10.081 103.424-27.684l-48.48-83.97c-16.163 9.351-34.928 14.706-54.944 14.706z" fill="#afe8fd"/><path d="m160.957 360.371h-83.97v48.48c18.159 31.385 44.327 57.553 75.712 75.712h34.594l13.886-83.97c-16.673-9.647-30.575-23.549-40.222-40.222z" fill="#299f8c"/><path d="m365.997 305.427c0 20.017-5.355 38.781-14.707 54.944l83.97 48.48c17.604-30.425 27.684-65.746 27.684-103.424l-48.474-32.316z" fill="#1394fb"/><path d="m201.179 400.593-48.48 83.97c30.424 17.604 65.746 27.684 103.425 27.684v-96.947c-20.017 0-38.782-5.355-54.945-14.707z" fill="#21867f"/><path d="m146.25 305.427-48.473-24.237-48.474 24.237c0 37.678 10.08 73 27.684 103.424l83.97-48.48c-9.352-16.163-14.707-34.928-14.707-54.944z" fill="#aaed58"/><path d="m365.997 305.427h96.947c0-37.678-10.08-73-27.684-103.424l-83.97 48.48c9.352 16.163 14.707 34.927 14.707 54.944z" fill="#133fd9"/><path d="m311.068 210.26 48.48-83.97c-30.424-17.604-65.746-27.684-103.424-27.684l-48.474 48.474 48.474 48.474c20.016-.001 38.781 5.354 54.944 14.706z" fill="#cb2e81"/><path d="m256.124 195.553v-96.947c-37.678 0-73 10.08-103.425 27.684l48.48 83.97c16.163-9.352 34.928-14.707 54.945-14.707z" fill="#bd4911"/><path d="m160.957 250.482-83.97-48.48c-17.604 30.425-27.684 65.746-27.684 103.424h96.947c0-20.016 5.355-38.78 14.707-54.944z" fill="#f2d332"/><path d="m330.297 262.603h-122.647l48.474 128.461c47.296 0 85.637-38.341 85.637-85.637-.001-15.601-4.175-30.227-11.464-42.824z" fill="#64b0fb"/><path d="m181.95 262.603c-7.289 12.598-11.463 27.223-11.463 42.824 0 47.296 38.341 85.637 85.637 85.637v-128.461z" fill="#f2d332"/><path d="m330.297 262.603c-14.808-25.593-42.479-42.812-74.174-42.812l-24.237 42.818 24.237 42.818z" fill="#dc4180"/><path d="m256.124 219.79c-31.695 0-59.366 17.22-74.174 42.812l74.174 42.824z" fill="#bd4911"/></g></g></svg>