<svg id="Capa_1" enable-background="new 0 0 512 512" height="512" viewBox="0 0 512 512" width="512" xmlns="http://www.w3.org/2000/svg"><g><g><path d="m256 281.387c-141.387 0-243.753-114.961-222.327-152.388 44.119-77.07 127.157-128.999 222.327-128.999s178.209 51.929 222.328 128.999c21.425 37.427-80.941 152.388-222.328 152.388z" fill="#f3d37a"/><path d="m512 256c0 26.051-3.891 51.191-11.129 74.871-5.031 16.469-11.672 32.231-19.75 47.109-8.25 15.2-147.391 55.794-225.121 55.794s-216.871-40.594-225.109-55.794c-3.289-6.031-6.332-12.21-9.121-18.531-14-31.629-21.77-66.629-21.77-103.449 0-46.219 12.25-89.57 33.68-127 44.121 77.07 127.16 129 222.32 129s178.211-51.93 222.32-129c21.43 37.43 33.68 80.781 33.68 127zm0 0" fill="#efc142"/><path d="m481.262 377.699c-7.16 13.223-15.434 25.742-24.723 37.43-3.712 4.678-7.588 9.222-11.616 13.623-5.128 5.602-122.314 32.368-188.923 32.368s-183.794-26.764-188.921-32.366c-4.029-4.402-7.905-8.946-11.618-13.625-9.289-11.688-17.563-24.207-24.723-37.43zm0 0" fill="#e38d22"/></g><g><path d="m444.924 428.745v-206.034l-22.139-22.139h-333.569l-22.139 22.139v206.034c46.806 51.162 114.114 83.255 188.923 83.255s142.117-32.093 188.924-83.255z" fill="#a4e2fd"/><path d="m444.924 428.745v-206.034l-16.259-22.139h-244.964l-16.259 22.139v273.552c27.597 10.175 57.427 15.737 88.558 15.737 74.809 0 142.117-32.093 188.924-83.255z" fill="#8ab8ec"/><path d="m444.924 428.745v-206.034l-22.139-22.139h-166.785v311.428c74.809 0 142.117-32.093 188.924-83.255z" fill="#728ee4"/><path d="m67.076 134.153h377.847v88.558h-377.847z" fill="#535564"/><path d="m256 134.153h188.924v88.558h-188.924z" fill="#3b3b3b"/><path d="m112.093 167.362h132.837v22.139h-132.837z" fill="#3b3b3b"/><path d="m333.488 167.362h22.139v22.139h-22.139z" fill="#728ee4"/><path d="m289.209 167.362h22.139v22.139h-22.139z" fill="#728ee4"/><path d="m377.767 167.362h22.139v22.139h-22.139z" fill="#728ee4"/><g fill="#dce0ef"><path d="m344.558 289.867h44.279v22.139h-44.279z"/><path d="m300.279 422.704h88.558v22.139h-88.558z"/><path d="m300.279 334.146h88.558v22.139h-88.558z"/><path d="m300.279 378.425h88.558v22.139h-88.558z"/><path d="m300.279 289.867h22.139v22.139h-22.139z"/><path d="m167.442 389.495h-78.226v44.279c0 22.939 39.655 33.209 78.226 33.209s77.488-10.27 77.488-33.209v-44.279z"/></g><path d="m244.93 433.774v-44.279h-77.488v77.488c38.571 0 77.488-10.27 77.488-33.209z" fill="#cad0e7"/><path d="m167.442 345.216h-78.226v44.279c0 22.939 39.655 33.209 78.226 33.209s77.488-10.27 77.488-33.209v-44.279z" fill="#fbf5eb"/><path d="m244.93 389.495v-44.279h-77.488v77.488c38.571 0 77.488-10.27 77.488-33.209z" fill="#dce0ef"/><path d="m167.442 300.937h-78.226v44.279c0 22.939 39.655 33.209 78.226 33.209s77.488-10.27 77.488-33.209v-44.279z" fill="#dce0ef"/><path d="m244.93 345.216v-44.279h-77.488v77.488c38.571 0 77.488-10.27 77.488-33.209z" fill="#cad0e7"/><path d="m167.442 267.728c-38.571 0-78.226 10.27-78.226 33.209s39.655 33.209 78.226 33.209 77.488-10.27 77.488-33.209c0-22.94-38.917-33.209-77.488-33.209z" fill="#fbf5eb"/><path d="m244.93 300.937c0-22.939-38.917-33.209-77.488-33.209v66.418c38.571 0 77.488-10.27 77.488-33.209z" fill="#dce0ef"/></g></g></svg>