<svg id="Layer_1" enable-background="new 0 0 507.582 507.582" height="512" viewBox="0 0 507.582 507.582" width="512" xmlns="http://www.w3.org/2000/svg"><g><g><path d="m507.582 253.791c0 92.132-49.213 172.77-122.786 217.061-38.085 22.927-82.697 23.675-130.389 23.675-139.824 0-234.755-100.911-234.755-240.736 0-63.743 5.138-121.985 44.021-166.493 46.41-53.123 114.652-86.682 190.733-86.682 139.826.001 253.176 113.351 253.176 253.175z" fill="#82cd64"/></g><path d="m199.259 275.722-18.854 11.031c-10.689 6.254-24.395 2.945-31.091-7.473-.075-.116-.149-.232-.223-.348-5.844-9.125-4.536-21.094 3.126-28.756l131.611-131.611c7.291-7.291 7.291-19.111 0-26.402l-42.282-42.282-83.585 83.585c-18.504 18.504-49.924 3.073-46.631-22.887.064-.504.129-1.009.197-1.513 3.566-26.821-30.038-42.135-47.842-21.76-38.614 44.188-62.117 101.914-62.448 165.129-.735 140.034 113.135 254.531 253.172 254.53 47.693 0 92.302-13.19 130.384-36.12 35.247-21.224 20.127-75.218-21.016-75.013-.429.002-.859.003-1.289.003-4.283 0-8.542-.106-12.772-.317-26.757-1.331-25.592-41.332 1.198-41.332h108.39c13.731 0 24.863-11.131 24.863-24.863v-53.602h-284.908z" fill="#20b7a1"/><g><path d="m19.653 301.024 75.158-19.675 21.045-76.528-76.528 21.045z" fill="#fff"/><path d="m27.508 271.019-7.855 30.005 30.005-7.855z" fill="#ffc305"/><path d="m42.51 286.021-22.857 15.003 30.005-7.855z" fill="#f8e000"/><path d="m287.039 70.657-46.251-46.251-146.36 146.36-38.186 38.186-16.914 16.914 21.457-2.936-2.936 21.457 21.442-2.951-2.953 21.439 21.438-2.954 26.982-19.662z" fill="#f8e000"/><g fill="#ffc305"><path d="m94.811 281.349 2.965-21.428 189.263-189.264 9.232 9.232z"/><path d="m79.291 241.436 189.263-189.264-8.821-8.821-201.46 201.46z"/></g></g><g><path d="m131.445 289.479 67.057 39.233 68.995-39.233-68.995-39.232z" fill="#fff"/><path d="m158.216 273.817-26.771 15.662 26.771 15.663z" fill="#e20a62"/><path d="m158.216 293.957-26.771-4.478 26.771 15.663z" fill="#ff5551"/><path d="m215.751 315.656-2.028 1.535h269.686v-66.944h-284.907l17.249 13.096-17.249 13.096 17.249 13.076-17.249 13.071z" fill="#ff5551"/><g fill="#e20a62"><path d="m198.502 328.712 17.249-13.056h267.658v13.056z"/><path d="m215.751 289.515h267.658v-12.475h-284.907z"/></g></g><g><path d="m351.965 412.925-67.058 39.232-68.994-39.232 68.994-39.233z" fill="#fff"/><path d="m325.194 397.262 26.771 15.663-26.771 15.663z" fill="#2896ff"/><path d="m325.194 397.262 26.771 15.663-26.771-6.598z" fill="#6ee1ff"/><path d="m267.659 386.789 17.249-13.096c-16.519 0-267.704 0-284.907 0v67.9h206.984 54.004 9.962l-3.291-2.491 17.249-13.07-17.249-13.072 17.249-13.075z" fill="#6ee1ff"/><g fill="#2896ff"><path d="m284.907 452.157-17.248-13.055h-267.659v13.055z"/><path d="m267.659 412.96h-267.659v-12.475h284.907z"/></g></g></g></svg>