<svg id="Layer_1" enable-background="new 0 0 511 511" height="512" viewBox="0 0 511 511" width="512" xmlns="http://www.w3.org/2000/svg"><g><g><path d="m502.593 319.121c.236-.91.463-1.826.688-2.743-.222.917-.455 1.83-.688 2.743z" fill="#bfe5fe"/><path d="m255.5 1c-98.131 0-158.574 55.347-158.741 55.441-3.787 17.481-10.374 42.85-10.374 61.465 0 140.833 118.763 254.972 259.596 254.972 60.017 0 115.159-27.944 158.719-62.639.178-1.087 5.8-23.477 5.8-54.239 0-140.833-114.167-255-255-255z" fill="#ffe565"/><path d="m345.959 365.679c-140.833 0-255-114.167-255-255 0-18.615 2.013-36.757 5.8-54.239-.006.005-.011.01-.017.014-58.645 46.721-96.242 118.738-96.242 199.546 0 70.236 28.396 133.84 74.334 179.958l213.954 72.889c104.056-13.569 188.376-89.883 213.805-189.726.233-.913.466-1.826.688-2.743.106-.436 1.068-4.522 1.418-6.139-43.559 34.695-98.724 55.44-158.74 55.44z" fill="#ffd508"/></g><g><path d="m74.838 194.155v241.799c46.174 46.354 110.066 75.046 180.662 75.046 11.283 0 22.393-.736 33.288-2.157 8.753-4.607 14.725-13.786 14.725-24.364v-290.324c0-15.2-12.322-27.521-27.521-27.521h-173.633c-15.199-.001-27.521 12.321-27.521 27.521z" fill="#3342ae"/><path d="m188.218 166.633h-85.859c-15.19 0-27.521 12.313-27.521 27.521v241.799c30.94 31.061 69.843 54.173 113.38 66.055z" fill="#2b3894"/><path d="m103.815 197.942h170.721v248.493h-170.721z" fill="#3342ae"/><path d="m273.579 463.008h-154.605c-8.901 0-16.116-7.216-16.116-16.116v-232.377h170.721z" fill="#2b3894"/><path d="m184.854 197.942h89.681v216.822h-89.681z" fill="#fff"/><path d="m188.218 410.895v-212.953h-84.403v248.493h170.72v-35.54z" fill="#e6f1ff"/></g><g><g><path d="m215.325 149.412h114.304v114.304h-114.304z" fill="#4b7f3f" transform="matrix(0 1 -1 0 479.041 -65.913)"/><circle cx="342.824" cy="139.509" fill="#8ecb51" r="139.509"/><path d="m412.326 203.808c-77.049 0-139.509-62.46-139.509-139.509 0-17.808 3.343-34.834 9.425-50.493-46.706 22.551-78.928 70.363-78.928 125.703 0 77.049 62.46 139.509 139.509 139.509 59.24 0 109.85-36.927 130.084-89.016-18.321 8.847-38.871 13.806-60.581 13.806z" fill="#59b37d"/></g><g fill="#59b37d"><circle cx="333.111" cy="146.412" r="16.767"/><circle cx="392.48" cy="146.412" r="16.767"/></g><g fill="#fff"><circle cx="342.824" cy="137.274" r="16.767"/><circle cx="283.455" cy="137.274" r="16.767"/><circle cx="402.193" cy="137.274" r="16.767"/></g></g></g></svg>