<svg id="Capa_1" enable-background="new 0 0 512 512" height="512" viewBox="0 0 512 512" width="512" xmlns="http://www.w3.org/2000/svg"><path d="m512 256c0 46.48-12.39 90.06-34.04 127.63l-37.176 21.501c-114.318 66.116-255.25 66.116-369.568 0l-37.176-21.501c-21.65-37.57-34.04-81.15-34.04-127.63 0-142.487 116.423-257.794 259.327-255.979 140.476 1.784 252.673 115.492 252.673 255.979z" fill="#ffe400"/><path d="m512 256c0 46.48-12.39 90.06-34.04 127.63l-37.176 21.501c-114.318 66.116-255.25 66.116-369.568 0l-37.176-21.501c-21.65-37.57-34.04-81.15-34.04-127.63 0-46.22 12.25-89.57 33.68-127 44.12 77.07 127.16 129 222.32 129s178.21-51.93 222.32-129c21.43 37.43 33.68 80.78 33.68 127z" fill="#ffce00"/><path d="m440.46 433.5c-46.57 48.39-112 78.5-184.46 78.5s-137.89-30.11-184.46-78.5z" fill="#374c81"/><path d="m440.46 433.5c-46.57 48.39-112 78.5-184.46 78.5v-78.5z" fill="#234177"/><path d="m477.96 133.81v249.82c-10.45 18.14-23.07 34.88-37.49 49.87h-368.94c-14.42-14.99-27.04-31.73-37.49-49.87v-249.82c0-2.66 2.15-4.81 4.81-4.81h434.3c2.66 0 4.81 2.15 4.81 4.81z" fill="#57b718"/><path d="m477.96 133.81v249.82c-10.45 18.14-23.07 34.88-37.49 49.87h-273.17v-304.5h305.85c2.66 0 4.81 2.15 4.81 4.81z" fill="#02a041"/><path d="m477.96 133.81v249.82c-10.45 18.14-23.07 34.88-37.49 49.87h-184.47v-304.5h217.15c2.66 0 4.81 2.15 4.81 4.81z" fill="#038c3b"/><path d="m76.3 169.57v223.36h359.4v-223.36z" fill="#4e689b"/><path d="m167.3 169.57h268.4v223.36h-268.4z" fill="#374c81"/><path d="m256 169.57h179.7v223.36h-179.7z" fill="#234177"/><path d="m447.11 419.79v6.53c-2.17 2.44-4.38 4.83-6.64 7.18-10.53 10.94-22.02 20.94-34.34 29.87h-57.13c-8.92 0-16.15-7.24-16.15-16.16v-27.42c0-8.92 7.23-16.15 16.15-16.15h81.96c8.92 0 16.15 7.23 16.15 16.15z" fill="#ffc300"/><path d="m447.11 419.79v6.53c-2.17 2.44-4.38 4.83-6.64 7.18-10.53 10.94-22.02 20.94-34.34 29.87h-28.57c-8.92 0-16.14-7.24-16.14-16.16v-27.42c0-8.92 7.22-16.15 16.14-16.15h53.4c8.92 0 16.15 7.23 16.15 16.15z" fill="#ff9f00"/><path d="m447.11 419.79v6.53c-2.17 2.44-4.38 4.83-6.64 7.18-10.53 10.94-22.02 20.94-34.34 29.87h-16.15v-59.73h40.98c8.92 0 16.15 7.23 16.15 16.15z" fill="#ec781b"/><path d="m440.47 433.5c-10.53 10.94-22.02 20.94-34.34 29.87h-57.13c-8.92 0-16.15-7.24-16.15-16.16v-13.71z" fill="#fff"/><path d="m440.47 433.5c-10.53 10.94-22.02 20.94-34.34 29.87h-28.57c-8.92 0-16.14-7.24-16.14-16.16v-13.71z" fill="#d1f6ff"/><path d="m440.47 433.5c-10.53 10.94-22.02 20.94-34.34 29.87h-16.15v-29.87z" fill="#b3f4ff"/><path d="m322.32 403.64v48.47c0 6.22-5.04 11.26-11.26 11.26s-11.26-5.04-11.26-11.26v-48.47z" fill="#fff"/><path d="m322.32 403.64v48.47c0 6.22-5.04 11.26-11.26 11.26v-59.73z" fill="#d1f6ff"/><path d="m311.06 403.64v11.26c-6.22 0-11.26-5.04-11.26-11.26z" fill="#d1f6ff"/><path d="m322.32 403.64c0 6.22-5.04 11.26-11.26 11.26v-11.26z" fill="#b3f4ff"/><g fill="#fff"><path d="m147.666 288.926h-19.283l-3.407 8.844h-17.399l22.184-50.746h16.818l22.184 50.746h-17.689zm-4.712-12.324-4.93-12.759-4.93 12.759z"/><path d="m221.535 283.779c0 8.844-7.467 13.991-21.458 13.991h-28.563v-50.746h27.113c13.991 0 20.516 5.582 20.516 13.267 0 4.712-2.393 8.626-7.032 10.946 5.944 2.175 9.424 6.525 9.424 12.542zm-33.203-24.793v7.54h7.975c3.842 0 5.582-1.305 5.582-3.77s-1.74-3.77-5.582-3.77zm15.949 22.836c0-2.61-1.885-3.987-5.655-3.987h-10.294v7.975h10.294c3.77-.001 5.655-1.378 5.655-3.988z"/><path d="m225.519 272.397c0-15.586 11.961-26.533 28.272-26.533 9.932 0 17.761 3.625 22.764 10.149l-10.802 9.642c-2.972-3.77-6.524-5.944-11.092-5.944-7.104 0-11.889 4.93-11.889 12.687s4.785 12.687 11.889 12.687c4.567 0 8.12-2.175 11.092-5.944l10.802 9.642c-5.002 6.524-12.832 10.149-22.764 10.149-16.311-.001-28.272-10.948-28.272-26.535z"/><path d="m320.193 276.457v21.313h-15.224v-5.22c-1.885 3.987-5.655 5.945-11.237 5.945-9.714 0-14.716-5.51-14.716-12.324 0-7.685 5.799-11.961 18.124-11.961h6.597c-.508-3.045-2.828-4.64-7.467-4.64-3.552 0-7.539 1.16-10.149 3.117l-5.22-10.802c4.64-2.9 11.671-4.495 17.833-4.495 13.629.001 21.459 5.873 21.459 19.067zm-16.384 8.41v-2.755h-4.06c-3.48 0-5.002 1.16-5.002 3.334 0 1.813 1.45 3.19 3.915 3.19 2.247 0 4.277-1.16 5.147-3.769z"/><path d="m372.893 277.907c0 12.759-8.771 20.588-19.138 20.588-4.93 0-8.482-1.305-10.875-3.987v3.262h-15.586v-53.791h16.384v16.819c2.393-2.32 5.727-3.407 10.077-3.407 10.367 0 19.138 7.757 19.138 20.516zm-16.601 0c0-5.147-2.827-7.757-6.452-7.757s-6.452 2.61-6.452 7.757 2.827 7.829 6.452 7.829 6.452-2.682 6.452-7.829z"/><path d="m375.935 277.907c0-12.034 9.714-20.516 23.416-20.516 9.642 0 16.891 4.422 19.501 11.744l-12.687 6.234c-1.667-3.697-4.06-5.22-6.887-5.22-3.697 0-6.742 2.61-6.742 7.757 0 5.219 3.045 7.829 6.742 7.829 2.827 0 5.22-1.522 6.887-5.22l12.687 6.235c-2.61 7.322-9.859 11.744-19.501 11.744-13.702.002-23.416-8.48-23.416-20.587z"/></g></svg>