<svg id="Capa_1" enable-background="new 0 0 512 512" height="512" viewBox="0 0 512 512" width="512" xmlns="http://www.w3.org/2000/svg"><g><g><path d="m220.675 185.76h-192.662c-15.471 0-28.013-12.542-28.013-28.013 0-15.471 12.542-28.013 28.013-28.013h192.663c15.471 0 28.012 12.542 28.012 28.013 0 15.471-12.542 28.013-28.013 28.013z" fill="#904f40"/><path d="m124.344 287.677c-44.792 0-81.103-36.311-81.103-81.103v-112.723c0-44.792 36.311-81.103 81.103-81.103 44.792 0 81.103 36.311 81.103 81.103v112.722c0 44.793-36.311 81.104-81.103 81.104z" fill="#b46e59"/><path d="m145.161 284.987c-6.643 1.765-13.606 2.696-20.811 2.696-44.799 0-81.109-36.311-81.109-81.109v-112.713c0-44.798 36.311-81.109 81.109-81.109 7.204 0 14.168.931 20.811 2.696-34.722 9.194-60.298 40.819-60.298 78.413v112.713c0 37.594 25.576 69.219 60.298 78.413z" fill="#a55e4d"/><path d="m124.343 217.512c-13.465 0-26.125-5.244-35.646-14.765-3.017-3.017-3.017-7.91 0-10.927 3.019-3.017 7.911-3.017 10.928 0 6.603 6.603 15.381 10.239 24.719 10.239s18.117-3.636 24.72-10.239c3.018-3.018 7.91-3.017 10.928 0 3.017 3.017 3.017 7.91 0 10.927-9.523 9.521-22.183 14.765-35.649 14.765z" fill="#dd636e"/><g fill="#26457d"><path d="m103.182 163.887c-4.268 0-7.726-3.459-7.726-7.726v-16.383c0-4.267 3.459-7.726 7.726-7.726 4.268 0 7.726 3.459 7.726 7.726v16.383c0 4.267-3.458 7.726-7.726 7.726z"/><path d="m145.505 163.887c-4.268 0-7.726-3.459-7.726-7.726v-16.383c0-4.267 3.459-7.726 7.726-7.726 4.268 0 7.726 3.459 7.726 7.726v16.383c.001 4.267-3.458 7.726-7.726 7.726z"/></g><path d="m235.245 104.984c0 17.37-12.984 31.718-29.797 33.835v-20.12l-12.744 1.986c-4.255.666-8.489.982-12.689.982-33.933 0-64.985-21.091-76.998-53.769 0 22.444-18.199 40.643-40.643 40.643h-19.138v30.278c-7.703-.971-14.599-4.506-19.814-9.722-6.165-6.165-9.983-14.697-9.983-24.113 0-18.188 14.239-33.049 32.176-34.053-3.262-3.099-5.925-6.852-7.769-11.042-1.833-4.19-2.859-8.816-2.859-13.682 0-18.843 15.264-34.107 34.107-34.107h110.494c9.427 0 17.948 3.819 24.124 9.983 6.165 6.176 9.983 14.697 9.983 24.124 0 9.732-4.092 18.516-10.627 24.724 8.969.502 17.01 4.473 22.815 10.584 5.805 6.11 9.362 14.38 9.362 23.469z" fill="#30579d"/><path d="m75.631 46.207c0 4.866 1.026 9.492 2.859 13.682 1.844 4.19 4.506 7.943 7.769 11.042-17.937 1.004-32.176 15.864-32.176 34.053 0 1.2.065 2.389.185 3.557h-11.032v30.278c-7.703-.971-14.599-4.506-19.814-9.722-6.165-6.165-9.983-14.697-9.983-24.113 0-18.188 14.239-33.049 32.176-34.053-3.262-3.099-5.925-6.852-7.769-11.042-1.833-4.19-2.859-8.816-2.859-13.682 0-18.843 15.264-34.107 34.107-34.107h40.643c-18.842 0-34.106 15.264-34.106 34.107z" fill="#26457d"/></g><g><path d="m483.987 241.222h-192.663c-15.471 0-28.013-12.542-28.013-28.013 0-15.471 12.542-28.013 28.013-28.013h192.663c15.471 0 28.013 12.542 28.013 28.013 0 15.471-12.542 28.013-28.013 28.013z" fill="#eccda0"/><path d="m387.656 331.163c-44.792 0-81.103-36.311-81.103-81.103v-76.835c0-44.792 36.311-81.103 81.103-81.103 44.792 0 81.103 36.311 81.103 81.103v76.835c0 44.792-36.311 81.103-81.103 81.103z" fill="#fdf0db"/><path d="m408.473 328.473c-6.643 1.765-13.606 2.696-20.811 2.696-44.799 0-81.109-36.311-81.109-81.109v-76.825c0-44.798 36.311-81.109 81.109-81.109 7.204 0 14.168.931 20.811 2.696-34.722 9.194-60.298 40.819-60.298 78.413v76.825c-.001 37.594 25.576 69.219 60.298 78.413z" fill="#fbe2bd"/><path d="m387.656 260.999c-13.466 0-26.126-5.244-35.647-14.766-3.017-3.017-3.017-7.91 0-10.927 3.018-3.017 7.91-3.017 10.928 0 6.603 6.603 15.381 10.239 24.72 10.239 9.337 0 18.116-3.636 24.719-10.239 3.018-3.017 7.91-3.017 10.928 0 3.017 3.017 3.017 7.91 0 10.927-9.523 9.522-22.183 14.766-35.648 14.766z" fill="#dd636e"/><g fill="#26457d"><path d="m366.494 207.374c-4.268 0-7.726-3.459-7.726-7.726v-16.384c0-4.267 3.459-7.726 7.726-7.726 4.268 0 7.726 3.459 7.726 7.726v16.384c.001 4.266-3.458 7.726-7.726 7.726z"/><path d="m408.818 207.374c-4.268 0-7.726-3.459-7.726-7.726v-16.384c0-4.267 3.459-7.726 7.726-7.726 4.268 0 7.726 3.459 7.726 7.726v16.384c0 4.266-3.459 7.726-7.726 7.726z"/></g><path d="m318.15 76.205h7.126c21.611 0 39.13 17.519 39.13 39.13v.301c0 21.611-17.519 39.13-39.13 39.13h-7.126c-21.611 0-39.13-17.519-39.13-39.13v-.301c-.001-21.611 17.519-39.13 39.13-39.13z" fill="#b46e59"/><path d="m335.726 153.336c-3.328.937-6.834 1.426-10.447 1.426h-7.119c-21.615 0-39.14-17.512-39.14-39.127v-.299c0-21.615 17.525-39.127 39.14-39.127h7.119c3.614 0 7.119.489 10.447 1.426-16.547 4.551-28.693 19.699-28.693 37.7v.299c0 18.002 12.146 33.15 28.693 37.702z" fill="#a55e4d"/><path d="m357.613 103.94c0 31.064 25.182 56.247 56.247 56.247 50.526 0 91.485-40.959 91.485-91.485v-7.454h-107.087c-23.26-.001-41.788 19.461-40.645 42.692z" fill="#b46e59"/><path d="m432.117 158.365c-5.896 1.196-12.01 1.821-18.259 1.821-31.07 0-56.245-25.174-56.245-56.245-1.141-23.231 17.39-42.686 40.648-42.686h32.524c-23.259 0-41.79 19.455-40.648 42.686 0 26.138 17.824 48.106 41.98 54.424z" fill="#a55e4d"/></g><g><path d="m229.269 209.002c-56.428 0-102.171 45.743-102.171 102.171v48.041h204.342v-48.041c0-56.428-45.743-102.171-102.171-102.171z" fill="#30579d"/><path d="m253.577 211.928c-44.691 10.9-77.86 51.194-77.86 99.245v48.04h-48.619v-48.04c0-56.431 45.738-102.169 102.169-102.169 8.38 0 16.519 1.003 24.31 2.924z" fill="#26457d"/><path d="m325.601 397.974h-192.663c-15.471 0-28.013-12.542-28.013-28.013 0-15.471 12.542-28.013 28.013-28.013h192.663c15.471 0 28.013 12.542 28.013 28.013-.001 15.471-12.542 28.013-28.013 28.013z" fill="#eccda0"/><path d="m310.373 341.955v76.834c0 44.789-36.311 81.1-81.1 81.1-44.8 0-81.111-36.311-81.111-81.1v-76.834c0-4.015.295-8.39.862-13.017l73.43-44.473-13.791 40.643 77.347-41.101-22.924 49.077 44.418-16.355c1.876 9.198 2.869 17.806 2.869 25.226z" fill="#fdf0db"/><path d="m250.091 497.205c-6.645 1.757-13.606 2.695-20.818 2.695-44.8 0-81.111-36.311-81.111-81.111v-76.823c0-4.473.36-8.871 1.069-13.148l55.307-33.496c-9.296 13.191-14.751 29.285-14.751 46.644v76.823c-.001 37.599 25.574 69.218 60.304 78.416z" fill="#fbe2bd"/><path d="m229.269 429.726c-13.465 0-26.125-5.244-35.646-14.766-3.017-3.017-3.017-7.91 0-10.927 3.018-3.017 7.91-3.017 10.928 0 6.603 6.603 15.381 10.239 24.719 10.239s18.117-3.637 24.72-10.24c3.019-3.017 7.911-3.017 10.928 0s3.017 7.91 0 10.927c-9.524 9.524-22.184 14.767-35.649 14.767z" fill="#dd636e"/><g fill="#26457d"><path d="m208.108 376.102c-4.268 0-7.726-3.459-7.726-7.726v-16.384c0-4.267 3.459-7.726 7.726-7.726 4.268 0 7.726 3.459 7.726 7.726v16.384c0 4.266-3.459 7.726-7.726 7.726z"/><path d="m250.431 376.102c-4.268 0-7.726-3.459-7.726-7.726v-16.384c0-4.267 3.459-7.726 7.726-7.726 4.268 0 7.726 3.459 7.726 7.726v16.384c.001 4.266-3.458 7.726-7.726 7.726z"/></g></g></g></svg>