<svg id="Icons" enable-background="new 0 0 512 512" height="512" viewBox="0 0 512 512" width="512" xmlns="http://www.w3.org/2000/svg"><g><path d="m512 256c0 141.38-114.62 256-256 256-70.59 0-134.52-28.58-180.83-74.79-3.45-3.45-6.8-6.98-10.05-10.62-8.07-9.02-15.51-18.62-22.25-28.73-27.08-40.61-42.87-89.39-42.87-141.86 0-141.38 114.62-256 256-256s256 114.62 256 256z" fill="#6c53a2"/><g><path d="m343.665 194.434h-269.354v144.419l19.673 19.661h230.008l19.673-19.661z" fill="#57409b"/><g><g><path d="m113.657 237.651v101.202c.067 10.601-8.709 19.704-19.673 19.661-10.857 0-19.673-8.804-19.673-19.661v-101.202c-.039-10.951 9.048-19.733 19.673-19.673 10.866-.002 19.676 8.807 19.673 19.673z" fill="#a583bb"/><path d="m113.657 237.651v101.202c0 2.403-.435 4.698-1.22 6.823-12.624 5.736-27.745-4.089-27.51-18.043v-101.202c0-2.391.435-4.698 1.22-6.823 12.758-5.698 27.647 4.012 27.51 18.043z" fill="#c2aacf"/><path d="m113.657 237.651v73.8c-12.743 6.884-28.934-2.893-28.73-17.451v-73.812c12.844-6.833 28.877 2.853 28.73 17.463z" fill="#ebd9ea"/><path d="m105.531 294.492c-4.488 0-8.126-3.638-8.126-8.126v-37.094c0-4.488 3.638-8.126 8.126-8.126s8.126 3.638 8.126 8.126v37.094c0 4.488-3.639 8.126-8.126 8.126z" fill="#fff"/></g><g><path d="m343.665 237.651v101.202c.067 10.601-8.709 19.704-19.673 19.661-10.857 0-19.673-8.804-19.673-19.661v-101.202c-.039-10.951 9.048-19.733 19.673-19.673 10.866-.002 19.675 8.807 19.673 19.673z" fill="#a583bb"/><path d="m343.665 237.651v101.202c0 2.403-.435 4.698-1.22 6.823-12.624 5.736-27.745-4.089-27.51-18.043v-101.202c0-2.391.435-4.698 1.22-6.823 12.758-5.698 27.647 4.012 27.51 18.043z" fill="#c2aacf"/><path d="m343.665 237.651v73.8c-12.743 6.884-28.934-2.893-28.73-17.451v-73.812c12.844-6.833 28.877 2.853 28.73 17.463z" fill="#ebd9ea"/><path d="m335.538 294.492c-4.488 0-8.126-3.638-8.126-8.126v-37.094c0-4.488 3.638-8.126 8.126-8.126s8.126 3.638 8.126 8.126v37.094c.001 4.488-3.638 8.126-8.126 8.126z" fill="#fff"/></g><g><path d="m190.326 237.651v101.202c.067 10.601-8.709 19.704-19.673 19.661-10.857 0-19.673-8.804-19.673-19.661v-101.202c-.039-10.951 9.048-19.733 19.673-19.673 10.866-.002 19.676 8.807 19.673 19.673z" fill="#a583bb"/><path d="m190.326 237.651v101.202c0 2.403-.435 4.698-1.22 6.823-12.624 5.736-27.745-4.089-27.51-18.043v-101.202c0-2.391.435-4.698 1.22-6.823 12.758-5.698 27.648 4.012 27.51 18.043z" fill="#c2aacf"/><path d="m190.326 237.651v73.8c-12.743 6.884-28.934-2.893-28.73-17.451v-73.812c12.844-6.833 28.877 2.853 28.73 17.463z" fill="#ebd9ea"/><path d="m182.2 294.492c-4.488 0-8.126-3.638-8.126-8.126v-37.094c0-4.488 3.638-8.126 8.126-8.126s8.126 3.638 8.126 8.126v37.094c0 4.488-3.638 8.126-8.126 8.126z" fill="#fff"/></g><g><path d="m266.995 237.651v101.202c.067 10.601-8.709 19.704-19.673 19.661-10.857 0-19.673-8.804-19.673-19.661v-101.202c-.039-10.951 9.048-19.733 19.673-19.673 10.867-.002 19.676 8.807 19.673 19.673z" fill="#a583bb"/><path d="m266.995 237.651v101.202c0 2.403-.435 4.698-1.22 6.823-12.624 5.736-27.745-4.089-27.51-18.043v-101.202c0-2.391.435-4.698 1.22-6.823 12.759-5.698 27.648 4.012 27.51 18.043z" fill="#c2aacf"/><path d="m266.995 237.651v73.8c-12.743 6.884-28.934-2.893-28.73-17.451v-73.812c12.844-6.833 28.877 2.853 28.73 17.463z" fill="#ebd9ea"/><path d="m258.869 294.492c-4.488 0-8.126-3.638-8.126-8.126v-37.094c0-4.488 3.638-8.126 8.126-8.126s8.126 3.638 8.126 8.126v37.094c0 4.488-3.638 8.126-8.126 8.126z" fill="#fff"/></g></g><g><g><path d="m348.145 358.514h-278.326c-2.403 0-4.698.435-6.823 1.22-20.187 7.743-15.267 37.727 6.824 38.126h278.326c7.596 0 14.19-4.311 17.463-10.615 6.818-12.846-2.835-28.873-17.464-28.731z" fill="#a583bb"/><path d="m348.145 358.514h-278.326c-2.403 0-4.698.435-6.823 1.22-5.726 12.626 4.079 27.743 18.043 27.51h278.326c2.391 0 4.698-.435 6.823-1.22 5.698-12.758-4.012-27.648-18.043-27.51z" fill="#c2aacf"/><path d="m348.145 358.514h-210.667c-6.905 12.652 2.949 29.005 17.451 28.73h210.679c6.833-12.844-2.853-28.877-17.463-28.73z" fill="#ebd9ea"/><path d="m202.744 366.64c0 4.488 3.638 8.126 8.126 8.126h125.654c4.488 0 8.126-3.638 8.126-8.126s-3.638-8.126-8.126-8.126h-125.654c-4.488 0-8.126 3.638-8.126 8.126z" fill="#fff"/></g><g><path d="m416.12 417.53c.058 10.626-8.712 19.715-19.67 19.68h-321.28c-12.032-12.018-22.848-25.17-32.3-39.35h353.58c10.87-.001 19.676 8.807 19.67 19.67z" fill="#a583bb"/><path d="m416.12 417.53c0 2.78-.58 5.44-1.63 7.84-2.12.79-4.43 1.22-6.82 1.22h-342.55c-8.07-9.02-15.51-18.62-22.25-28.73h353.58c10.87-.001 19.676 8.807 19.67 19.67z" fill="#c2aacf"/><path d="m396.451 397.86h-258.973c-6.904 12.652 2.948 29.005 17.451 28.73h258.985c6.834-12.844-2.853-28.877-17.463-28.73z" fill="#ebd9ea"/><path d="m202.744 405.986c0 4.488 3.638 8.126 8.126 8.126h173.96c4.488 0 8.126-3.638 8.126-8.126s-3.638-8.126-8.126-8.126h-173.96c-4.488 0-8.126 3.638-8.126 8.126z" fill="#fff"/></g></g><g><path d="m333.321 204.791h-248.663c-8.836 0-12.956-9.835-8.587-16.147.791-1.151 1.859-2.178 3.232-3.01l124.332-75.434c3.288-1.998 7.421-1.998 10.709 0l8.032 4.883c19.19 11.642 98.676 59.863 116.3 70.551 8.579 4.88 5.47 19.177-5.355 19.157z" fill="#c2aacf"/><path d="m312.375 169.682 26.301 15.952c1.373.832 2.441 1.859 3.232 3.01-1.748 2.649-4.716 4.536-8.587 4.536h-248.663c-3.87 0-6.839-1.887-8.587-4.536.791-1.151 1.859-2.178 3.232-3.01l124.332-75.434c3.288-1.998 7.421-1.998 10.709 0 .488.069 94.643 57.602 98.031 59.482z" fill="#ebd9ea"/><path d="m228.66 164.802c0-10.864-8.807-19.671-19.671-19.671-26.093 1.036-26.086 38.31 0 39.342 10.864 0 19.671-8.807 19.671-19.671z" fill="#57409b"/><g><path d="m312.375 169.682c3.836 7.983-5.164 16.229-12.817 11.61 0 0-81.551-49.494-81.551-49.494-7.634-4.65-4.487-16.445 4.37-16.715z" fill="#fff"/></g></g></g><g id="Magnifying-glass_2_"><g><path d="m372.086 153.766h21.839v41.395h-21.839z" fill="#c1b7d3" transform="matrix(.707 -.707 .707 .707 -11.184 321.925)"/><path d="m376.092 152.106 29.271 29.271c-3.197 3.197-8.383 3.201-11.584 0l-17.687-17.687c-3.197-3.196-3.197-8.387 0-11.584z" fill="#ebd9ea"/><path d="m389.92 196.82-23.629-23.629c2.581-2.581 6.767-2.584 9.351 0l14.277 14.277c2.582 2.581 2.582 6.772.001 9.352z" fill="#9f90ae"/><path d="m376.092 152.106 19.782 19.782c-3.197 3.197-8.383 3.201-11.584 0l-8.198-8.198c-3.197-3.196-3.197-8.387 0-11.584z" fill="#fff"/></g><g><path d="m422.73 184.246 56.789 56.789c8.267 8.267 8.267 21.674 0 29.942-8.25 8.252-21.656 8.281-29.942 0l-56.789-56.789c-4.34-4.34-6.398-10.09-6.181-15.776.151-10.949 10.09-20.615 21.152-20.365 5.422-.001 10.835 2.063 14.971 6.199z" fill="#22bce0"/><path d="m402.374 204.602 56.789 56.789c4.335 4.335 6.403 10.085 6.19 15.767-5.681.222-11.436-1.841-15.776-6.181l-56.789-56.789c-4.34-4.34-6.398-10.09-6.181-15.776 5.723-.201 11.419 1.852 15.767 6.19z" fill="#22a8b9"/><path d="m422.73 184.246 56.368 56.368c-8.3 6.412-20.273 5.811-27.888-1.804l-56.363-56.363c8.366-6.452 20.315-5.773 27.883 1.799z" fill="#4fcae8"/><path d="m407.759 178.046c5.422 0 10.835 2.063 14.971 6.199l29.34 29.34c-8.3 6.412-20.273 5.811-27.888-1.804l-29.336-29.336c3.795-2.932 8.356-4.394 12.913-4.399z" fill="#83d5ef"/></g><g><path d="m328.527 53.3c-36.822 0-66.676 29.854-66.676 66.683 3.51 88.449 129.864 88.417 133.359-.001 0-36.827-29.854-66.682-66.683-66.682zm0 113.784c-26.007 0-47.094-21.087-47.094-47.101 2.482-62.481 91.724-62.457 94.195 0 0 26.014-21.087 47.101-47.101 47.101z" fill="#f39e22"/><path d="m328.527 63.638c-31.117 0-56.345 25.222-56.345 56.345 2.97 74.744 109.74 74.716 112.697 0 0-31.123-25.228-56.345-56.352-56.345zm0 103.446c-26.007 0-47.094-21.087-47.094-47.101 2.482-62.481 91.724-62.457 94.195 0 0 26.014-21.087 47.101-47.101 47.101z" fill="#dd8c29"/><g><path d="m360.583 125.544c-3.071 0-5.561-2.49-5.561-5.561 0-14.607-11.884-26.491-26.491-26.491-3.071 0-5.561-2.49-5.561-5.561s2.49-5.561 5.561-5.561c20.74 0 37.614 16.874 37.614 37.614-.001 3.071-2.49 5.56-5.562 5.56z" fill="#fff"/></g><g><path d="m328.531 157.597c-20.741 0-37.614-16.874-37.614-37.614 0-3.071 2.49-5.561 5.561-5.561s5.561 2.49 5.561 5.561c0 14.607 11.884 26.491 26.492 26.491 7.338.218 7.358 10.897 0 11.123z" fill="#c2aacf"/></g></g></g></g></svg>