<svg id="Capa_1" enable-background="new 0 0 512 512" height="512" viewBox="0 0 512 512" width="512" xmlns="http://www.w3.org/2000/svg"><g><g><g><g><g><g><g><g><circle cx="256" cy="256" fill="#7584f2" r="256"/></g></g></g></g></g></g></g><path d="m512 256c0-8.64-.428-17.18-1.264-25.601l-115.889-115.889-278.199 282.501 114.168 113.766c8.285.809 16.686 1.223 25.184 1.223 141.385 0 256-114.615 256-256z" fill="#4253ce"/><g><g><g><g><g><g><g><ellipse cx="256" cy="256" fill="#ffce00" rx="198.5" ry="198.25"/></g></g></g></g></g></g></g><g><g><g><g><g><g><g><path d="m454.5 256c0-109.45-88.945-198.183-198.38-198.248v396.497c109.435-.066 198.38-88.799 198.38-198.249z" fill="#fdba12"/></g></g></g></g></g></g></g><g fill="#ff6c52"><path d="m288.728 216.554 1.669-29.954c-21.132-1.177-43.327-1.253-64.554-.221l1.457 29.965c20.191-.982 41.331-.91 61.428.21z"/><path d="m378.312 199.232c-19.123-4.89-40.774-8.535-64.353-10.834l-2.912 29.858c22.059 2.151 42.189 5.529 59.833 10.041z"/><path d="m401.68 206.32-10.144 28.233c26.908 9.667 32.964 18.956 32.964 21.447 0 3.844-10.53 14.958-43.078 24.775-33.292 10.041-77.834 15.571-125.422 15.571s-92.13-5.53-125.422-15.572c-32.548-9.816-43.078-20.93-43.078-24.774 0-2.697 6.722-12.656 36.588-22.708l-9.569-28.433c-16.354 5.504-29.375 11.951-38.705 19.164-15.137 11.702-18.314 23.848-18.314 31.977 0 28.158 35.029 44.634 64.415 53.497 36.024 10.866 83.644 16.85 134.085 16.85s98.061-5.984 134.085-16.85c29.386-8.863 64.415-25.339 64.415-53.497 0-20.373-17.771-37.088-52.82-49.68z"/><path d="m204.96 217.881-2.68-29.88c-23.428 2.101-45.088 5.527-64.378 10.184l7.04 29.162c17.861-4.311 38.054-7.496 60.018-9.466z"/></g><g fill="#ff432e"><path d="m311.047 218.256c22.059 2.151 42.189 5.529 59.833 10.041l7.432-29.065c-19.123-4.89-40.774-8.535-64.353-10.834z"/><path d="m256.12 185.667v29.999c10.965.003 21.933.293 32.608.888l1.669-29.954c-11.227-.625-22.754-.93-34.277-.933z"/><path d="m401.68 206.32-10.144 28.233c26.908 9.667 32.964 18.956 32.964 21.447 0 3.844-10.53 14.958-43.078 24.775-33.264 10.033-77.759 15.562-125.302 15.571v30c50.397-.01 97.969-5.992 133.965-16.849 29.386-8.863 64.415-25.339 64.415-53.497 0-20.373-17.771-37.088-52.82-49.68z"/></g></g></svg>