<svg id="Capa_1" enable-background="new 0 0 512 512" height="512" viewBox="0 0 512 512" width="512" xmlns="http://www.w3.org/2000/svg"><g><g><path d="m0 256c0 43.79 11 85.02 30.39 121.07l225.61 49.67 225.61-49.67c19.39-36.05 30.39-77.28 30.39-121.07 0-46.63-12.47-90.34-34.26-128-41.698 72.091-399.22 76.52-443.48 0-21.79 37.66-34.26 81.37-34.26 128z" fill="#79ce8b"/><path d="m34.26 128c44.26 76.52 126.99 128 221.74 128s177.48-51.48 221.74-128c-.01-.02-.03-.05-.04-.07-44.27-76.48-126.98-127.93-221.7-127.93s-177.43 51.45-221.7 127.93c-.01.02-.03.05-.04.07z" fill="#a9eb58"/><path d="m481.61 377.07c-15.84 29.47-37.3 55.48-62.94 76.59-44.22 36.45-100.89.042-162.67.042s-118.45 36.408-162.67-.042c-25.64-21.11-47.1-47.12-62.94-76.59z" fill="#599d8a"/></g><path d="m418.67 302.74v150.92c-44.22 36.45-100.89 58.34-162.67 58.34-2 0-3.99-.02-5.98-.07-41.44-.95-80.46-11.75-114.78-30.16-14.92-7.99-28.95-17.42-41.91-28.11v-150.92z" fill="#e9ecf8"/><path d="m418.67 302.74v150.92c-44.22 36.45-100.89 58.34-162.67 58.34-2 0-3.99-.02-5.98-.07-41.44-.95-80.46-11.75-114.78-30.16v-179.03z" fill="#daddee"/><path d="m418.67 302.74v150.92c-44.22 36.45-100.89 58.34-162.67 58.34-2 0-3.99-.02-5.98-.07v-209.19z" fill="#c8cde4"/><path d="m418.666 302.733c0 11.612-4.708 22.137-12.314 29.743-6.102 6.113-14.081 10.35-22.993 11.788-2.195.351-29.392-38.811-31.686-38.811l-31.686 39.349h-33.519l-36.444-42.063-36.444 42.063h-19.536l-49.796-36.564c8.857-31.69-18.647 35.696-23.092 34.094-16.222-5.828-27.823-21.358-27.823-39.599 0-11.612 4.708-22.127 12.314-29.743 4.335-4.335 9.614-7.727 15.508-9.845 4.445-1.603 9.241-2.469 14.235-2.469h241.217c2.294 0 4.555.186 6.75.538 20.02 3.226 35.309 20.589 35.309 41.519z" fill="#464652"/><g><g><path d="m194.039 163.094-14.082-25.124-22.358-7.536-22.358 7.536-14.082 25.124 36.44 23.144z" fill="#eed8c6"/><path d="m194.044 163.093v181.708h-58.653c-4.994 0-9.79-.867-14.235-2.469v-179.239z" fill="#d95f91"/><path d="m179.957 137.97-22.358-39.912-22.358 39.912z" fill="#616579"/><path d="m194.039 163.094-14.082-25.124-22.358-7.536v55.804z" fill="#dfbba0"/><path d="m157.595 163.093h36.449v181.708h-36.449z" fill="#c02e71"/><path d="m179.957 137.97-22.358-39.912v39.912z" fill="#464652"/></g><g><path d="m286.464 146.445v49.964l-36.44 25.819-36.44-25.819v-49.964l36.44-24.976z" fill="#f5dd6e"/><path d="m213.58 196.414h72.887v148.387h-72.887z" fill="#9965d8"/><path d="m286.464 146.445v49.964l-36.44 25.819v-100.759z" fill="#eec036"/><path d="m286.464 132.933v13.513h-72.88v-13.513c0-20.127 16.313-36.44 36.44-36.44 20.127-.001 36.44 16.313 36.44 36.44z" fill="#db6870"/><path d="m250.029 196.414h36.438v148.387h-36.438z" fill="#5541b6"/><path d="m286.464 132.933v13.513h-36.44v-49.954c20.127 0 36.44 16.314 36.44 36.441z" fill="#db504f"/></g><g><g><path d="m383.358 207.719v136.544c-2.195.351-4.456.538-6.75.538h-56.622v-137.082c0-17.495 14.191-31.675 31.686-31.675s31.686 14.18 31.686 31.675z" fill="#c0d3f2"/><path d="m383.358 207.719v136.544c-2.195.351-4.456.538-6.75.538h-24.936v-168.757c17.495 0 31.686 14.18 31.686 31.675z" fill="#a4b5ed"/></g><g><path d="m390.841 132.239v117.171h-78.338v-117.171c0-21.634 17.535-39.169 39.169-39.169s39.169 17.535 39.169 39.169z" fill="#858899"/><path d="m390.841 132.239v117.171h-39.169v-156.34c21.634 0 39.169 17.535 39.169 39.169z" fill="#616579"/></g><path d="m324.384 176.039h66.456v17.218h-66.456z" fill="#f5dd6e"/><path d="m351.672 176.039h39.169v17.218h-39.169z" fill="#eec036"/><path d="m344.593 172.621v128.661c0 11.16-9.048 20.197-20.209 20.197-11.16 0-20.197-9.037-20.197-20.197v-128.661c0-11.16 9.037-20.209 20.197-20.209 5.58 0 10.63 2.265 14.287 5.922 3.657 3.658 5.922 8.707 5.922 14.287z" fill="#f5dd6e"/><path d="m344.593 172.621v128.661c0 11.16-9.048 20.197-20.209 20.197v-169.067c5.58 0 10.63 2.265 14.287 5.922 3.657 3.658 5.922 8.707 5.922 14.287z" fill="#eec036"/></g></g></g></svg>