<svg height="512" viewBox="0 0 512 512" width="512" xmlns="http://www.w3.org/2000/svg"><g id="BULINE"><circle cx="256" cy="256" fill="#aa60fa" r="256"/></g><g id="Icons"><path d="m352.24 189.73 65.31-81.44a28.08 28.08 0 0 0 -4.34-39.47 28.08 28.08 0 0 0 -39.47 4.34l-65.31 81.44a23.94 23.94 0 0 1 -19.56 8.71 23.45 23.45 0 0 0 -19 8.78l-52 64.84a23.5 23.5 0 0 0 3.61 33.07l37 29.69a23.51 23.51 0 0 0 33.07-3.69l52-64.84a23.45 23.45 0 0 0 4.45-20.44 23.94 23.94 0 0 1 4.24-20.99z" fill="#fff"/><path d="m286.53 185.48-52 64.83a23.5 23.5 0 0 0 3.62 33.05l-16.68-13.36a23.51 23.51 0 0 1 -3.62-33.05l52-64.84a23.44 23.44 0 0 1 19-8.78 23.94 23.94 0 0 0 19.55-8.71l65.32-81.45a28.1 28.1 0 0 1 46.49 4 28.08 28.08 0 0 0 -29.8 9.39l-65.3 81.44a24 24 0 0 1 -19.56 8.7 23.41 23.41 0 0 0 -19.02 8.78z" fill="#ddd"/><path d="m321.09 458.07h-136.63a9.31 9.31 0 0 1 -9-11.64l7-27h140.65l7 27a9.31 9.31 0 0 1 -9.02 11.64z" fill="#7cc8fb"/><path d="m415.28 261.16v37.41a139.42 139.42 0 0 1 -139.42 139h-46.16a139.42 139.42 0 0 1 -139.42-139v-37.41a11.59 11.59 0 0 1 11.58-11.59h301.84a11.59 11.59 0 0 1 11.58 11.59z" fill="#7cc8fb"/><path d="m327.34 435.75a138.91 138.91 0 0 1 -51.48 9.82h-46.16a138.92 138.92 0 0 1 -51.49-9.82l1.88-7.26a139.1 139.1 0 0 0 49.61 9.08h46.16a139 139 0 0 0 49.6-9.08z" fill="#3586cb"/><path d="m312.65 432.67a139.94 139.94 0 0 1 -36.79 4.9h-46.16a139.42 139.42 0 0 1 -139.42-139v-37.41a11.59 11.59 0 0 1 11.58-11.59h19.38a11.58 11.58 0 0 0 -2.29 6.92v37.41c0 1.56 0 3.12.1 4.67a139.41 139.41 0 0 0 139.32 134.33h46.16c2.73 0 5.47-.08 8.12-.23z" fill="#41c0e3"/><ellipse cx="332.15" cy="291.15" fill="#b2e0f9" rx="19.5" ry="12"/><ellipse cx="374.35" cy="291.15" fill="#b2e0f9" rx="15.79" ry="9.72"/><path d="m413.18 458.07a256 256 0 0 1 -314.36 0z" fill="#4f4f74"/><circle cx="235.8" cy="76.69" fill="#fff" r="23.12"/><rect fill="#d6d5d5" height="10.24" rx="5.12" transform="matrix(.707 .707 -.707 .707 123.23 -144.43)" width="42.51" x="214.7" y="71.42"/><circle cx="397.47" cy="203.81" fill="#fff" r="23.12"/><rect fill="#d6d5d5" height="10.24" rx="5.12" transform="matrix(-.707 .707 -.707 -.707 823.02 67.03)" width="42.51" x="376.37" y="198.85"/><circle cx="158.15" cy="210.47" fill="#f6d372" r="23.12"/><rect fill="#f6c752" height="10.24" rx="5.12" transform="matrix(-.707 .707 -.707 -.707 419.18 247.61)" width="42.51" x="137.06" y="205.5"/></g></svg>