<svg id="Capa_1" enable-background="new 0 0 512 512" height="512" viewBox="0 0 512 512" width="512" xmlns="http://www.w3.org/2000/svg"><g><g><g><g><g><g><g><circle cx="256" cy="256" fill="#1dd882" r="256"/></g></g></g></g></g></g><path d="m512 256c0-6.344-.231-12.634-.684-18.863l-159.163-159.162-21.812 26.262-26.262-26.262-5.449 13.23-28.239-28.239-6.146 185.241-83.065 76.5-66.437-66.437-50.861 14.93 18.451 18.451-18.451 33.009 56.261 56.261-26.173 24.104 99.21 99.21c20.1 5.071 41.145 7.765 62.82 7.765 141.385 0 256-114.615 256-256z" fill="#28bc75"/><g><path d="m309.951 144.364v-26.774l-25.181-39.615h19.31l14.432 24.485 14.233-24.485h19.409l-25.082 39.614v26.774h-17.121z" fill="#ffce00"/></g><g><path d="m63.882 324.659v-13.636l28.268-37.823h-28.268v-14.93h50.861v13.636l-28.367 37.824h29.063v14.93h-51.557z" fill="#414952"/></g><g><path d="m436.472 324.659-14.432-22.295-14.433 22.295h-20.305l23.191-34.04-21.698-32.348h20.205l13.039 20.802 12.84-20.802h20.305l-21.599 32.249 23.091 34.14h-20.204z" fill="#414952"/></g><path d="m270.391 248.309v-185.343h-30v186.319l-165.178 132.327 18.757 23.413 162.03-129.805 162.029 129.805 18.758-23.413z" fill="#fff"/><path d="m270.391 248.309v-185.343h-14.391v212.254l162.029 129.805 18.758-23.413z" fill="#e9edf5"/></g></svg>