<svg id="Capa_1" enable-background="new 0 0 512 512" height="512" viewBox="0 0 512 512" width="512" xmlns="http://www.w3.org/2000/svg"><g><g><path d="m0 256c0 43.79 11 85.02 30.39 121.07l225.61 49.67 225.61-49.67c19.39-36.05 30.39-77.28 30.39-121.07 0-46.63-12.47-90.34-34.26-128-41.698 72.091-399.22 76.52-443.48 0-21.79 37.66-34.26 81.37-34.26 128z" fill="#eec036"/><path d="m34.26 128c44.26 76.52 126.99 128 221.74 128s177.48-51.48 221.74-128c-.01-.02-.03-.05-.04-.07-44.27-76.48-126.98-127.93-221.7-127.93s-177.43 51.45-221.7 127.93c-.01.02-.03.05-.04.07z" fill="#f5dd6e"/><path d="m30.39 377.07c43.19 80.32 128.02 134.93 225.61 134.93s182.42-54.61 225.61-134.93z" fill="#de8051"/></g><g><path d="m393.564 225.007v158.158l-137.701 83.122-137.701-83.122v-158.158z" fill="#464652"/><path d="m393.564 225.007v158.158l-137.701 83.122v-241.28z" fill="#2d2f40"/><path d="m488.121 234.807-232.121 140.422-232.121-140.422 232.121-140.423z" fill="#616579"/><path d="m65.509 234.807 211.312 127.833-20.815 12.589-232.127-140.422 232.127-140.423 20.815 12.59z" fill="#858899"/><path d="m488.121 234.807-232.121 140.422v-280.845z" fill="#464652"/><path d="m384.193 394.942h-20.877v-84.979l-112.605-66.158 10.576-18.001 122.906 72.211z" fill="#70c5e9"/><path d="m289.488 234.806c0 13.727-14.99 24.855-33.488 24.855h-.136c-18.435-.052-33.352-11.159-33.352-24.855s14.917-24.803 33.352-24.855h.136c18.497.001 33.488 11.128 33.488 24.855z" fill="#c4f4ff"/><path d="m401.85 454.845h-56.192l18.132-45.116c-9.812-3.946-16.754-13.56-16.754-24.782 0-14.76 11.963-26.723 26.723-26.723 14.75 0 26.713 11.963 26.713 26.723 0 11.222-6.942 20.836-16.754 24.782z" fill="#9febff"/><path d="m401.85 454.845h-28.09v-96.621c14.75 0 26.713 11.963 26.713 26.723 0 11.222-6.942 20.836-16.754 24.782z" fill="#70c5e9"/><path d="m289.488 234.806c0 13.727-14.99 24.855-33.488 24.855h-.136v-49.709h.136c18.497 0 33.488 11.127 33.488 24.854z" fill="#9febff"/></g></g></svg>