<svg id="Capa_1" enable-background="new 0 0 512 512" height="512" viewBox="0 0 512 512" width="512" xmlns="http://www.w3.org/2000/svg"><g><g><path d="m512 256c0 141.387-114.613 256-256 256s-256-114.613-256-256 114.613-256 256-256 256 114.613 256 256zm0 0" fill="#afe8fd"/><path d="m512 256c0 26.051-3.891 51.191-11.129 74.871-5.031 16.469-11.672 32.231-19.75 47.109-8.25 15.2-18 29.461-29.051 42.61-.582.691-1.16 1.379-1.75 2.058-46.941 54.704-116.59 89.352-194.32 89.352s-147.379-34.648-194.309-89.352c-.589-.687-1.179-1.378-1.75-2.07-11.062-13.137-20.812-27.398-29.05-42.598-3.289-6.031-6.332-12.21-9.121-18.531-14-31.629-21.77-66.629-21.77-103.449 0-46.219 12.25-89.57 33.68-127 44.121 77.07 127.16 129 222.32 129s178.211-51.93 222.32-129c21.43 37.43 33.68 80.781 33.68 127zm0 0" fill="#64b0fb"/><path d="m481.262 377.699c-7.16 13.223-15.434 25.742-24.723 37.43-8.437 10.633-17.719 20.57-27.719 29.723-45.539 41.699-106.211 67.148-172.82 67.148s-127.281-25.449-172.82-67.148c-10-9.153-19.282-19.09-27.719-29.723-9.289-11.688-17.563-24.207-24.723-37.43zm0 0" fill="#1394fb"/></g><g><path d="m399.53 134.26-37.503-37.502-37.503 37.503 30.002 90.006z" fill="#ffeb78"/><path d="m381.222 115.952-19.195-19.194-37.503 37.503 19.128 18.751z" fill="#ffecad"/><path d="m399.53 134.26-67.505 67.505 67.505 7.501 37.503-37.503z" fill="#f2d332"/><path d="m362.027 171.763-37.503-37.502-30.002 30.002 22.502 97.507z" fill="#2d3e53"/><path d="m343.652 153.012-19.128-18.751-30.002 30.002 18.751 18.178z" fill="#4c6482"/><path d="m302.022 231.768 67.506 7.5 30.002-30.002-37.503-37.503z" fill="#16202d"/><path d="m149.973 96.757-75.006 75.006 37.503 37.503 67.505-7.501 7.501-67.505z" fill="#cb2e81"/><path d="m411.219 458.823 25.764-25.763-48.42-97.713-67.506 7.501-7.5 67.505z" fill="#ff69a7"/><path d="m283.554 380.351 30.003 30.002 75.006-75.006-30.003-30.002-67.505 7.5z" fill="#16202d"/><path d="m187.476 134.26-75.006 75.006 30.002 30.002 67.505-7.5 7.501-67.505z" fill="#2d3e53"/><path d="m164.95 186.02h106.074v107.515h-106.074z" fill="#dc4180" transform="matrix(.707 -.707 .707 .707 -105.702 224.37)"/><path d="m235.492 264.316h106.074v92.005h-106.074z" fill="#dc4180" transform="matrix(.707 -.707 .707 .707 -134.921 294.911)"/><path d="m87.874 445.916 12.907 12.907 97.662-48.47-30.002-90.007z" fill="#f2d332"/><path d="m123.438 335.347-48.42 97.713 12.856 12.856 103.068-103.068z" fill="#ffeb78"/><path d="m123.438 335.347-48.42 97.713 5.778 5.778 61.676-84.562z" fill="#ffecad"/><path d="m160.94 372.85 37.503 37.503 30.003-30.002-30.003-90.007z" fill="#16202d"/><path d="m220.945 312.845-67.505-7.5-30.002 30.002 37.502 37.503z" fill="#2d3e53"/><path d="m172.316 323.919-18.876-18.574-30.002 30.002 19.034 18.929z" fill="#4c6482"/><path d="m190.942 342.848 37.504 37.503 141.082-141.083-37.503-37.503-93.043 48.04z" fill="#e79d25"/><path d="m142.972 227.037h199.521v53.037h-199.521z" fill="#f2d332" transform="matrix(.707 -.707 .707 .707 -108.196 245.902)"/><path d="m133.596 230.92h199.521v26.518h-199.521z" fill="#ffdf73" transform="matrix(.707 -.707 .707 .707 -104.313 236.526)"/></g></g></svg>