<svg id="Capa_1" enable-background="new 0 0 512 512" height="512" viewBox="0 0 512 512" width="512" xmlns="http://www.w3.org/2000/svg"><g><g><path d="m256 303.301c-141.387 0-243.753-136.874-222.327-174.302 44.119-77.07 127.157-128.999 222.327-128.999s178.208 51.929 222.328 128.999c21.425 37.427-80.941 174.302-222.328 174.302z" fill="#a8eb58"/><path d="m512 256c0 26.051-3.891 51.191-11.129 74.871-5.031 16.469-11.672 32.231-19.75 47.109-8.25 15.2-147.391 52.894-225.121 52.894s-216.871-37.694-225.109-52.894c-3.289-6.031-6.332-12.21-9.121-18.531-14-31.629-21.77-66.629-21.77-103.449 0-46.219 12.25-89.57 33.68-127 44.121 77.07 127.16 129 222.32 129s178.211-51.93 222.32-129c21.43 37.43 33.68 80.781 33.68 127zm0 0" fill="#80cf8c"/><path d="m481.262 377.699c-7.16 13.223-15.434 25.742-24.723 37.43-3.535 4.456-7.219 8.789-11.042 12.994-5.3 5.829-122.888 30.673-189.497 30.673s-184.197-24.844-189.497-30.673c-3.823-4.205-7.507-8.538-11.042-12.994-9.289-11.688-17.563-24.207-24.723-37.43zm0 0" fill="#599d8a"/></g><g><path d="m360.529 189.258h-104.529-104.529l-84.971 84.23 133.982 171.151h55.518 55.518l133.982-171.151z" fill="#fbf5eb"/><path d="m445.5 273.488-84.971-84.23h-104.529v255.381h55.518z" fill="#dce0ef"/><path d="m256 133h-122.139v311.639h122.139 122.139v-311.639z" fill="#a4e2fd"/><path d="m278.207 133h-99.932v311.639h99.932 99.932v-311.639z" fill="#8ab8ec"/><path d="m256 133h122.139v311.639h-122.139z" fill="#728ee4"/><g><path d="m244.896 222.568h-22.207v-11.104c0-6.126-4.977-11.104-11.104-11.104h-11.104v-22.207h11.104c18.368 0 33.311 14.942 33.311 33.311z" fill="#535564"/></g><g><path d="m289.31 222.568h-22.207v-11.104c0-18.368 14.942-33.311 33.311-33.311h11.104v22.207h-11.104c-6.126 0-11.104 4.977-11.104 11.104z" fill="#3b3b3b"/></g><g><path d="m178.275 244.775h44.414v22.207h-44.414z" fill="#535564"/></g><g><path d="m178.275 289.19h44.414v22.207h-44.414z" fill="#535564"/></g><g><path d="m289.31 289.19h44.414v22.207h-44.414z" fill="#3b3b3b"/></g><g><path d="m289.31 244.775h44.414v22.207h-44.414z" fill="#3b3b3b"/></g><path d="m256 200.361c-26.859 0-49.253 19.073-54.398 44.414l21.087 11.104h33.311 33.31l21.088-11.104c-5.145-25.34-27.539-44.414-54.398-44.414z" fill="#535564"/><path d="m310.398 244.775c-5.145-25.341-27.539-44.414-54.398-44.414v55.518h33.31z" fill="#3b3b3b"/><path d="m310.398 244.775h-54.398-54.398c-.729 3.589-1.12 7.3-1.12 11.104v44.414c0 30.661 24.855 55.517 55.518 55.517s55.518-24.857 55.518-55.517v-44.414c0-3.803-.391-7.514-1.12-11.104z" fill="#e05352"/><path d="m311.518 300.293v-44.414c0-3.803-.39-7.514-1.12-11.104h-54.398v111.035c30.662 0 55.518-24.856 55.518-55.517z" fill="#cb2d41"/><g><path d="m66.5 428.125c19.132 21.051 41.727 38.894 66.879 52.645l17.831-8.326 49.272-94.426-133.982-104.53z" fill="#dce0ef"/><path d="m445.5 273.488-133.982 104.53 40.944 86.098 29.131 14.993c23.96-13.516 45.534-30.767 63.908-50.983v-154.638z" fill="#cad0e7"/></g><path d="m311.518 378.018h-55.518-55.518l-89.179 89.179c41.165 28.256 90.995 44.803 144.697 44.803s103.532-16.547 144.696-44.804z" fill="#fbf5eb"/><path d="m311.518 378.018h-55.518v133.982c53.702 0 103.532-16.547 144.696-44.804z" fill="#dce0ef"/></g></g></svg>