<svg id="Capa_1" enable-background="new 0 0 512 512" height="512" viewBox="0 0 512 512" width="512" xmlns="http://www.w3.org/2000/svg"><circle cx="256" cy="256" fill="#ffe400" r="256"/><path d="m437.019 74.981c61.596 61.596 85.242 146.788 70.93 226.493-8.917 49.646-32.555 97.171-70.93 135.545s-85.899 62.013-135.545 70.93c-79.705 14.312-164.897-9.334-226.493-70.93-32.682-32.682-54.674-71.998-65.987-113.618 85.694 23.299 181.132 1.301 248.421-65.987s89.293-162.733 65.986-248.421c41.621 11.314 80.936 33.305 113.618 65.988z" fill="#ffce00"/><path d="m331.35 303.605h47.036v102.526h-47.036z" fill="#4e689b" transform="matrix(.707 -.707 .707 .707 -146.991 354.868)"/><path d="m351.424 295.29h23.518v102.526h-23.518z" fill="#374c81" transform="matrix(.707 -.707 .707 .707 -138.676 358.312)"/><path d="m414.053 362.349 46.987 46.987c-7.234 9.652-15.245 18.908-24.02 27.683s-18.031 16.787-27.683 24.02l-46.987-46.987c-3.91-3.91-3.91-10.26 0-14.17l37.533-37.533c3.909-3.91 10.259-3.91 14.17 0z" fill="#ff576b"/><path d="m414.053 362.349 46.987 46.987c-7.234 9.652-15.245 18.908-24.02 27.683l-55.904-55.904 18.767-18.767c3.909-3.909 10.259-3.909 14.17.001z" fill="#fe3345"/><path d="m351.877 124.768c62.713 62.713 62.713 164.395 0 227.109-.247.247-.488.488-.742.728-62.763 61.985-163.9 61.738-226.366-.728s-62.713-163.603-.728-226.366c.24-.255.481-.495.728-.742 62.712-62.714 164.394-62.714 227.108-.001z" fill="#4e689b"/><path d="m351.877 124.768c62.713 62.713 62.713 164.395 0 227.109-.247.247-.488.488-.742.728-31.806 30.236-107.367 4.723-169.592-57.502s-87.739-137.787-57.503-169.592c.24-.255.481-.495.728-.742 62.713-62.714 164.395-62.714 227.109-.001z" fill="#374c81"/><path d="m124.768 124.768 227.112 227.112c62.715-62.715 62.715-164.396 0-227.111s-164.397-62.716-227.112-.001z" fill="#234177"/><path d="m323.821 152.824c47.221 47.221 47.214 123.783 0 170.997s-123.776 47.221-170.997 0c-47.214-47.214-47.206-123.776.008-170.989s123.775-47.222 170.989-.008z" fill="#b3f4ff"/><path d="m323.821 152.824c47.221 47.221 47.214 123.783 0 170.997l-170.99-170.99c47.214-47.214 123.776-47.221 170.99-.007z" fill="#8fc8f5"/><path d="m302.722 173.924c35.568 35.568 35.562 93.235 0 128.798s-93.23 35.568-128.798 0c-35.562-35.562-35.557-93.23.006-128.792s93.23-35.568 128.792-.006z" fill="#fff"/><path d="m302.722 173.924c35.568 35.568 35.562 93.235 0 128.798l-128.792-128.792c35.562-35.562 93.23-35.568 128.792-.006z" fill="#d1f6ff"/></svg>