<svg id="Icons" enable-background="new 0 0 512 512" height="512" viewBox="0 0 512 512" width="512" xmlns="http://www.w3.org/2000/svg" xmlns:xlink="http://www.w3.org/1999/xlink"><clipPath id="SVGID_2_"><path id="SVGID_1_" d="m170.158 432.834c-11.256 0-20.381-9.125-20.381-20.381v-20.266c1.071-27.03 39.69-27.032 40.762 0v20.266c0 11.256-9.125 20.381-20.381 20.381z"/></clipPath><clipPath id="SVGID_4_"><path id="SVGID_3_" d="m175.701 222.215h-11.085c-37.054 0-67.092 30.038-67.092 67.092v45.92c0 37.054 30.038 67.092 67.092 67.092h11.085c37.054 0 67.092-30.038 67.092-67.092v-45.92c0-37.053-30.038-67.092-67.092-67.092z"/></clipPath><g><path d="m512 256c0 38.06-8.31 74.18-23.21 106.64-40.44 88.14-129.47 149.36-232.79 149.36-.32 0-.65 0-.97-.01-4.27-.01-8.52-.13-12.73-.35-17.31-.91-34.16-3.55-50.39-7.73-17.84-4.6-34.93-11.08-51.05-19.21-9.45-4.77-18.57-10.1-27.31-15.97-6.92-4.64-13.6-9.61-20.02-14.89-57.11-46.95-93.53-118.14-93.53-197.84 0-87.34 43.74-164.47 110.52-210.67 41.31-28.58 91.44-45.33 145.48-45.33 49.05 0 94.87 13.8 133.81 37.72 23.26 14.28 44.06 32.18 61.61 52.91v.01c8.22 9.69 15.7 19.98 22.41 30.82 24.2 39.09 38.17 85.19 38.17 134.54z" fill="#22a8b9"/><path d="m512 256c0 38.06-8.31 74.18-23.21 106.64-38.59 22.27-83.38 35.01-131.13 35.01-145.13 0-262.79-117.65-262.79-262.78 0-31.44 5.52-61.6 15.65-89.54 41.31-28.58 91.44-45.33 145.48-45.33 49.05 0 94.87 13.8 133.81 37.72 23.26 14.28 44.06 32.18 61.61 52.91v.01c8.22 9.69 15.7 19.98 22.41 30.82 24.2 39.09 38.17 85.19 38.17 134.54z" fill="#22bce0"/><g id="Person1_1_"><g id="Body_5_"><g><path d="m182.9 406.44c-37.13-6.023-74.395 14.969-89.37 47.4 45.087 37.222 102.717 58.113 161.5 58.15v-21.62c0-42.55-31.31-77.79-72.13-83.93z" fill="#c0405c"/><path d="m182.9 406.44c-32.853 4.709-61.19 30.099-69.35 62.29 41.517 27.939 91.084 43.185 141.48 43.26v-21.62c0-42.55-31.31-77.79-72.13-83.93z" fill="#ee6781"/><path d="m211.27 424.79c-10.083-8.145-22.258-14.615-35.11-17.03-30.006 6.809-55.017 31.142-62.61 60.97 38.08 25.576 82.567 40.505 128.75 42.91v-21.27c0-26.44-12.09-50.03-31.03-65.58z" fill="#e9465e"/></g><g><path d="m211.46 416.34c.435 29.154-8.717 63.929-19.55 87.57-17.84-4.6-34.93-11.08-51.05-19.21-7.263-20.822-12.121-45.416-12.01-68.36 6.49-3.62 13.53-6.42 20.93-8.24v4.35c-.021 5.409 2.188 10.669 5.96 14.41 12.58 12.756 34.858 3.701 34.8-14.41v-4.35c7.4 1.82 14.42 4.61 20.92 8.24z" fill="#e8f3fc"/><g fill="#b7dbf6"><path d="m211.46 416.34c0 11.875-1.147 23.304-3.058 34.108 0 0-25.087-.013-38.249-17.608 11.263 0 20.386-9.135 20.386-20.386v-4.357c7.402 1.821 14.423 4.611 20.921 8.243z"/><path d="m170.153 432.839c-13.149 17.596-38.236 17.608-38.236 17.608-1.924-10.805-3.071-22.233-3.071-34.108 6.498-3.618 13.531-6.422 20.934-8.243v4.357c0 11.263 9.12 20.385 20.373 20.386z"/></g></g></g><g id="HEAD_4_"><g id="Ears_3_"><g fill="#8e4e3f"><path d="m125.066 339.017c.936 11.362-7.824 21.461-19.363 21.399h-16.359c-25.907-.683-25.908-40.079 0-40.762h16.359c10.694 0 19.363 8.669 19.363 19.363z"/><path d="m270.336 339.017c.936 11.362-7.824 21.461-19.363 21.399h-16.359c-25.907-.683-25.908-40.079 0-40.762h16.359c10.693 0 19.363 8.669 19.363 19.363z"/></g><g fill="#723e33"><path d="m131.929 340.035c0 4.485-3.635 8.12-8.12 8.12h-30.461c-4.485 0-8.12-3.635-8.12-8.12s3.635-8.12 8.12-8.12h30.461c4.485 0 8.12 3.636 8.12 8.12z"/><path d="m255.088 340.035c0 4.485-3.635 8.12-8.12 8.12h-30.461c-4.485 0-8.12-3.635-8.12-8.12s3.635-8.12 8.12-8.12h30.461c4.485 0 8.12 3.636 8.12 8.12z"/></g></g><g id="Neck_3_"><path clip-path="url(#SVGID_2_)" d="m170.158 432.834c-11.256 0-20.381-9.125-20.381-20.381v-20.266c1.071-27.03 39.69-27.032 40.762 0v20.266c0 11.256-9.125 20.381-20.381 20.381z" fill="#723e33"/><path clip-path="url(#SVGID_2_)" d="m180.351 432.834c-11.256 0-20.381-9.125-20.381-20.381v-20.266c1.071-27.03 39.69-27.032 40.762 0v20.266c0 11.256-9.125 20.381-20.381 20.381z" fill="#8e4e3f"/><path clip-path="url(#SVGID_2_)" d="m175.701 232.408h-11.085c-37.054 0-67.092 30.038-67.092 67.092v45.92c0 37.054 30.038 67.092 67.092 67.092h11.085c37.054 0 67.092-30.038 67.092-67.092v-45.92c0-37.053-30.038-67.092-67.092-67.092z" fill="#723e33"/></g><g id="Face_3_"><path clip-path="url(#SVGID_4_)" d="m175.701 222.215h-11.085c-37.054 0-67.092 30.038-67.092 67.092v45.92c0 37.054 30.038 67.092 67.092 67.092h11.085c37.054 0 67.092-30.038 67.092-67.092v-45.92c0-37.053-30.038-67.092-67.092-67.092z" fill="#8e4e3f"/><path clip-path="url(#SVGID_4_)" d="m197.361 222.215h-11.085c-37.054 0-67.092 30.038-67.092 67.092v45.92c0 37.054 30.038 67.092 67.092 67.092h11.085c37.054 0 67.092-30.038 67.092-67.092v-45.92c0-37.053-30.038-67.092-67.092-67.092z" fill="#9b5b42"/></g><g id="Blush_1_" fill="#8e4e3f"><path d="m225.337 347.286c0-5.57-4.516-10.086-10.086-10.086-13.379.531-13.375 19.643 0 20.172 5.57 0 10.086-4.515 10.086-10.086z"/><path d="m135.152 347.286c0-5.57-4.516-10.086-10.086-10.086-13.379.531-13.375 19.643 0 20.172 5.57 0 10.086-4.515 10.086-10.086z"/></g><path id="Mouth_1_" d="m170.159 370.087c-8.408 0-16.01-2.577-19.841-6.726-2.223-2.497 1.423-5.881 3.745-3.456 5.958 6.713 26.235 6.711 32.189 0 2.301-2.422 5.981.955 3.745 3.457-3.83 4.148-11.432 6.725-19.838 6.725z" fill="#723e33"/><g id="Mouth2_1_"><path d="m195.036 354.379c.097 13.555-11.262 24.991-24.884 24.871-12.302.024-22.737-9.025-24.551-21.12-.013-.011-.027-.02-.039-.031-.186-1.238-.272-2.466-.28-3.72z" fill="#961b3b"/><path d="m190.539 359.807c.023 5.156-1.789 10.208-4.778 13.939-4.268 3.453-9.696 5.504-15.608 5.504s-11.327-2.051-15.595-5.504c-2.992-3.735-4.805-8.79-4.778-13.939z" fill="#cc2561"/><path id="Mouth2_2_" d="m193.363 355.967v3.26c-11.801 9.435-33.627 9.643-45.731.501v-3.761z" fill="#e8f3fc"/><path d="m145.564 358.098c1.3 1.115 2.729 2.14 4.271 3.064-.026-.448-.057-3.443-.057-3.898h40.762c0 .455-.012 3.446-.038 3.894 1.542-.924 2.953-1.944 4.252-3.06.183-1.215.288-2.457.288-3.724h-49.765c-.001 1.267.104 2.508.287 3.724z" fill="#723e33"/></g><g id="Nose1_3_"><path d="m181.333 347.063h-22.349c-3.354-.083-3.366-5.01 0-5.096h22.349c3.354.083 3.365 5.01 0 5.096z" fill="#723e33"/></g><g id="Eyes_4_"><path d="m152.191 321.931c0-5.508-4.465-9.973-9.973-9.973-13.228.525-13.225 19.422 0 19.945 5.508.001 9.973-4.464 9.973-9.972z" fill="#723e33"/><path d="m208.07 321.931c0-5.508-4.465-9.973-9.973-9.973-13.228.525-13.225 19.422 0 19.945 5.508.001 9.973-4.464 9.973-9.972z" fill="#723e33"/><path d="m151.51 325.654c0-5.132-4.16-9.292-9.292-9.292-12.325.489-12.322 18.096 0 18.583 5.132 0 9.292-4.16 9.292-9.291z" fill="#122894"/><path d="m148.718 325.846c4.301-4.525-2.169-10.993-6.692-6.692-4.301 4.525 2.169 10.994 6.692 6.692z" fill="#e8f3fc"/><path d="m207.389 325.654c0-5.132-4.16-9.292-9.292-9.292-12.325.489-12.322 18.096 0 18.583 5.132 0 9.292-4.16 9.292-9.291z" fill="#122894"/><path d="m204.597 325.846c4.301-4.525-2.169-10.993-6.692-6.692-4.301 4.525 2.169 10.994 6.692 6.692z" fill="#e8f3fc"/></g><g id="Hair2_1_"><path d="m193.686 194.198c-1.359 3.491-3.376 11.236-5.81 14.079-3.774 4.989-9.911 7.985-16.092 8.001h-3.249c-6.09 0-12.321-2.994-16.105-8.014-2.411-2.806-4.455-10.62-5.797-14.066-5.198-14.933 2.586-32.936 19.927-32.936h7.186c16.565-.323 25.413 17.68 19.94 32.936z" fill="#442a21"/><path d="m193.686 194.198-3.211 9.225c-2.152 6.255-7.899 10.862-14.194 12.321-4.727-1.185-8.6-4.319-10.206-8.83-.949-2.276-1.178-10.188-1.491-12.716-.968-11.849 6.753-25.635 18.653-30.821 10.525 5.185 14.577 18.971 10.449 30.821z" fill="#543029"/><path d="m175.13 206.91c-7.037.009-15.878-.315-22.7 1.35 3.757 4.954 9.887 8.005 16.1 8.02h3.25c6.199-.012 12.35-3.054 16.1-8-3.92-.88-8.21-1.37-12.75-1.37z" fill="#e5387f"/><path d="m254.42 285.64c-1.286-31.376-23.091-60.081-52.91-69.86-8.01-2.693-16.448-4.083-24.91-4.09-7.066.093-17.656-.347-24.55.87-26.568 3.825-50.221 22.396-60.34 47.24-3.332 8.019-5.279 16.551-5.78 25.32-.303 2.437-.069 31.695-.14 34.87 2.408-.564 9.201-.258 11.74-.33v-29.7c26.027 8.452 56.689-4.102 69.64-27.3 6.571 32.853 42.696 55.081 75.62 45.09v11.91c2.576.074 9.292-.236 11.73.33-.035-2.369.095-32.999-.1-34.35z" fill="#442a21"/><path d="m254.525 289.616v30.375c-2.37-.561-9.22-.261-11.735-.331v-11.913c-32.933 9.986-69.046-12.23-75.619-45.091-9.862 16.767-27.559 28.362-48.06 29.751v-12.894c-.595-38.726 36.485-74.814 75.186-65.783 7.241 1.683 14.226 4.416 20.692 8.079 24.087 13.425 39.774 40.215 39.536 67.807z" fill="#543029"/></g></g></g><g id="Speech-bubble_3_"><path d="m295.328 284.802c4.569 0 9.045-2.231 11.734-6.339l45.178-69.045c9.551-15.922-12.632-30.494-23.442-15.339 0 0-45.178 69.045-45.178 69.045-6.149 9.097.813 21.85 11.708 21.678z" fill="#ebd9ea"/><path d="m473.83 121.46v57.14c0 12.34-4.18 23.69-11.2 32.74-9.77 12.58-25.04 20.67-42.2 20.67h-135.29c-29.656.004-53.435-24.13-53.4-53.41v-87.48c-.034-29.283 23.75-53.401 53.4-53.4h104.67c23.26 14.28 44.06 32.18 61.61 52.91v.01c8.22 9.69 15.7 19.98 22.41 30.82z" fill="#ebd9ea"/><path d="m473.83 121.46v57.14c0 12.34-4.18 23.69-11.2 32.74-7.03-9.05-11.21-20.4-11.21-32.74v-87.96c8.22 9.69 15.7 19.98 22.41 30.82z" fill="#fff"/><path d="m254.148 91.121v87.48c0 12.34-4.18 23.69-11.2 32.74-7.03-9.05-11.21-20.4-11.21-32.74v-87.48c0-12.34 4.18-23.69 11.21-32.73 7.02 9.04 11.2 20.39 11.2 32.73z" fill="#c1b7d3"/></g><g id="Lightbulb_2_"><g><path d="m353.806 95.851c.098 12.255-7.29 21.053-12.6 31.06-2.508 4.765-9.158 24.929-9.29 25.72h-38.81s-6.86-22.24-10.9-28.79c-5.339-8.609-10.987-17.176-11-27.99-.035-22.604 18.359-41.305 41.3-41.3 22.353-.171 41.471 18.509 41.3 41.3z" fill="#daab42"/><path d="m287.316 95.851c0 8.91-2.82 17.17-7.63 23.92-4.43-7.25-8.48-14.82-8.48-23.92 0-9.17 2.99-17.65 8.06-24.5 5.06 6.849 8.05 15.329 8.05 24.5z" fill="#c4983d"/><path d="m353.806 95.851c.099 12.254-7.291 21.054-12.6 31.06-1.3 2.77-2.72 6.42-4.06 10.1-50.426 2.68-61.905-67.038-14.01-81.07 17.865 4.77 30.655 20.898 30.67 39.91z" fill="#f9c744"/><path d="m353.806 95.851c.099 12.253-7.291 21.054-12.6 31.06-18.409-15.788-18.684-45.342-.73-61.45 8.2 7.549 13.33 18.369 13.33 30.39z" fill="#f8d07a"/><path d="m347.293 86.939c0-9.359-7.587-16.946-16.946-16.946-22.479.893-22.472 33.003 0 33.892 9.359 0 16.946-7.587 16.946-16.946z" fill="#fbd9a3"/><path d="m353.806 95.851c.098 12.255-7.29 21.053-12.6 31.06-2.508 4.765-9.158 24.929-9.29 25.72h-38.81s-6.86-22.24-10.9-28.79c-5.339-8.609-10.987-17.176-11-27.99-.035-22.604 18.359-41.305 41.3-41.3 22.353-.171 41.471 18.509 41.3 41.3z" fill="none"/></g><g><path d="m327.136 187.08v5.87c0 6.09-3.73 11.32-9.02 13.52-9.305 4.06-20.454-3.283-20.23-13.52v-5.87z" fill="#2e3140"/><path d="m327.136 187.08v5.87c0 6.09-3.73 11.32-9.02 13.52-5.3-2.2-9.03-7.42-9.03-13.52v-5.87z" fill="#3e4e60"/><path d="m327.136 187.08v5.87c0 6.09-3.73 11.32-9.02 13.52-9.305 4.06-20.454-3.283-20.23-13.52v-5.87z" fill="none"/></g><g><path d="m306.029 124.016h12.964v28.615h-12.964z" fill="#bf5e39"/><path d="m312.511 124.016h6.482v28.615h-6.482z" fill="#dd5e26"/></g><g><path d="m331.666 115.94c.035 4.354-3.595 8.103-8.08 8.08h-22.15c-10.684-.377-10.701-15.784 0-16.16h22.15c4.458.005 8.084 3.622 8.08 8.08z" fill="#bf5e39"/><path d="m331.666 115.94c0 .8-.11 1.57-.33 2.29h-20.98c-5.306.092-9.319-5.326-7.75-10.37h20.98c4.458.005 8.084 3.622 8.08 8.08z" fill="#dd5e26"/><path d="m329.296 110.231c2.02 1.924 2.912 5.238 2.04 8h-7.51c-5.307.094-9.313-5.328-7.74-10.37h7.5c2.23-.001 4.25.909 5.71 2.37z" fill="#ea792e"/><path d="m331.666 115.94c.035 4.354-3.595 8.103-8.08 8.08h-22.15c-10.684-.377-10.701-15.784 0-16.16h22.15c4.458.005 8.084 3.622 8.08 8.08z" fill="none"/></g><g><path d="m343.236 163.44c.033 5.88-6.238 6.961-10.8 10.8-.9.77-.77 4.65-.77 4.65 0 10.58-8.58 19.16-19.16 19.16-10.616.072-19.228-8.838-19.15-19.16 0 0 .13-3.88-.77-4.65-4.55-3.86-10.8-4.84-10.8-10.8 0-5.97 4.83-10.81 10.8-10.81h39.85c5.97 0 10.8 4.841 10.8 10.81z" fill="#c1b7d3"/><path d="m343.216 163.44c.094 5.876-6.24 6.963-10.78 10.8-.9.77-.77 4.65-.77 4.65 0 10.58-8.58 19.16-19.16 19.16-10.616.072-19.228-8.838-19.15-19.16 0 0 .13-3.88-.77-4.65-4.55-3.86-10.8-4.84-10.8-10.8z" fill="#aea7b9"/><path d="m318.996 163.44s-3.21 23.1-23.81 23.63c-1.17-2.48-1.83-5.25-1.83-8.18 0 0 .13-3.88-.77-4.65-4.55-3.86-10.8-4.84-10.8-10.8z" fill="#9f90ae"/><path d="m309.666 158.031c0 2.99-2.42 5.41-5.4 5.41h-22.48c0-5.97 4.83-10.81 10.8-10.81h11.68c2.98-.001 5.4 2.419 5.4 5.4z" fill="#aea7b9"/><path d="m324.236 186.18c0 2.19-1.78 3.97-3.98 3.97h-23.24c-1.711-2.349-2.865-5.047-3.37-7.95h26.61c2.2 0 3.98 1.781 3.98 3.98z" fill="#c1b7d3"/><g fill="#ebd9ea"><path d="m316.298 190.153h-2.536c-2.195 0-3.974-1.779-3.974-3.974s1.779-3.974 3.974-3.974h2.536c5.252.162 5.252 7.786 0 7.948z"/><path d="m330.429 160.579h-12.063c-5.249-.161-5.254-7.786 0-7.948h12.063c5.249.161 5.254 7.786 0 7.948z"/></g></g></g><g><g fill="#122894"><path d="m388.96 153.299-1.268.599v-2.317c0-2.07-1.542-4-3.662-4.352l-8.063-1.317c-.359-1.106-.81-2.169-1.331-3.197.439-.612 2.131-2.969 2.528-3.535.379-.581 2.504-3.295 2.69-3.916v.014c.023-.046 1.557-3.093 1.577-3.134l-1.232 1.155c.056-2.113-2.266-3.834-3.571-5.197-1.465-1.465-3.93-1.739-5.676-.479l-3.106 2.239-3.535 2.528c-1.021-.514-2.092-.965-3.197-1.331l-1.317-8.063c-.345-2.113-2.282-3.662-4.352-3.662-1.609.075-4.416-.351-5.74.803l.014-.141.148-1.458c-.448 1.051-1.853 3.342-2.021 4.458-.306 1.88-1.025 6.236-1.324 8.063-1.099.366-2.162.817-3.19 1.331-1.631-1.165-5.005-3.586-6.648-4.768-1.746-1.261-4.204-.986-5.669.479l-1.697 1.697.134-1.324-1.338 2.683h.014c-.908 1.465-.951 3.444.113 4.916.028.049 4.752 6.589 4.768 6.641-.521 1.028-.972 2.092-1.338 3.197l-4.028.655c-1.285.294-4.732.493-5.761 1.38l.289-1.803c-.082.136-1.687 3.33-1.796 3.57-.679 1.139-.363 3.852-.43 5.127 0 2.063 1.542 3.993 3.669 4.338l8.056 1.324c.365 1.108.818 2.158 1.338 3.19l-3.556 4.965-.042-.739-1.535 3.035h.007c-.817 1.669-.465 3.754.838 5.056l2.296 2.303c1.465 1.458 3.923 1.732 5.669.479l6.648-4.775c1.028.521 2.092.979 3.19 1.338l1.324 8.056c.352 2.127 2.275 3.676 4.352 3.676h3.246c1.68-.002 3.273-1.03 3.993-2.57l.007.028 1.528-3.07c-.006-.004-.895.233-.901.232.244-1.488.791-4.826 1.042-6.352 1.092-.353 2.176-.82 3.197-1.338.11.058 6.316 4.555 6.641 4.775 1.751 1.261 4.21.973 5.676-.479.902-1.004 3.067-2.681 3.345-4.078l.007.049 1.324-2.549c.027-.057.062-.123.092-.176-.011.002-1.22.741-1.232.747-.085-.69-.331-1.366-.754-1.958l-2.613-3.648c-.036-.047-2.13-2.963-2.162-3.007.521-1.021.972-2.085 1.331-3.19.173-.026 2.264-.362 2.5-.401 0 0 5.563-.922 5.563-.922 1.385-.226 2.539-1.129 3.155-2.331v.014c.008-.02.069-.142.078-.155 0 0 1.451-2.93 1.451-2.93.007 0 .007-.007.007-.014.096-.147.173-.306.246-.465h-.006zm-35.141 13.254c-10.586.157-17.111-12.354-10.979-20.902 5.621-8.45 18.878-7.361 23.063 1.888 4.219 8.562-2.464 19.166-12.084 19.014z"/><path d="m415.291 113.256c.19-1.275-.472-2.634-1.711-3.197l-5.169-2.331c-.042-.753-.127-1.507-.289-2.254l1.901-1.556c.69-.65 2.977-2.146 3.282-3.077v.014l1.507-3.035c.03-.037.043-.086.07-.127h-.007l-1.43.986c-.08-.451-1.145-2.099-1.359-2.528-.711-1.225-2.282-1.838-3.655-1.324l-5.289 2c-.57-.5-1.176-.965-1.81-1.387l.563-5.627c.141-1.458-.859-2.817-2.218-3.183l-2.148-.577c-1.383-.375-2.924.348-3.507 1.648 0 0-.845 1.859-.845 1.859l-1.486 3.303c-.761.042-1.514.141-2.261.296l-3.577-4.373c-.937-1.141-2.599-1.394-3.824-.69l-1.507.866.077-1.838c-.133.286-1.538 3.114-1.69 3.394-.345.718-.423 1.556-.12 2.331l1.394 3.711.606 1.592c-.507.57-.972 1.176-1.38 1.803l-5.641-.563c-.457-.049-.9.027-1.317.19v-1.831l-1.676 3.338h.007c-.197.324-.645 2.272-.768 2.662-.363 1.366.303 2.912 1.641 3.514 1.286.577 3.891 1.758 5.169 2.338.053.756.129 1.51.289 2.254l-3.415 2.796v-1.704l-.113.232-1.5 3.021c-.282.472-.43 1.021-.43 1.563-.096 1.046 1.059 2.533 1.507 3.416.704 1.225 2.275 1.838 3.648 1.324l5.296-2c.57.5 1.169.965 1.81 1.387l-.563 5.62c-.148 1.465.852 2.824 2.218 3.19l2.141.578c1.366.359 2.908-.317 3.514-1.655l1.148-2.549c.107-.239 1.043-2.306 1.176-2.599.76-.037 1.524-.139 2.275-.296l3.57 4.366c.93 1.141 2.599 1.387 3.824.69l.113-.07 1.803-1.042c.563-.324.986-.831 1.246-1.416.034-.064 1.662-3.31 1.627-3.254l-1.606.901-1.951-5.176c.513-.566.963-1.183 1.38-1.803.464.055 5.048.498 5.641.556 1.247.134 2.416-.585 2.958-1.648l.007.007c.123-.25 1.632-3.275 1.725-3.458zm-18.078 3.359c-5.673 3.453-13.466-.728-13.761-7.324-.564-6.04 5.682-11.278 11.542-9.493 7.82 1.958 9.239 12.904 2.219 16.817z"/><path d="m438.27 146.947-.141-1.113c-.176-1.401-1.38-2.584-2.845-2.641-1.216-.044-4.481-.176-5.655-.211-.324-.697-.704-1.359-1.127-1.986.182-.35 1.519-2.768 1.739-3.176 0 0 .972-1.789.972-1.789.689-1.252.33-2.926-.803-3.796l-1.746-1.373c-1.113-.859-2.803-.845-3.873.155-.891.849-3.283 3.029-4.155 3.838-.718-.254-1.458-.451-2.197-.599-.157-.416-1.648-5.921-1.894-6.106v-.007c-.26-.416-.606-.761-1.014-1.014 0 0-.007 0-.007-.007h-.007c-.57-.338-1.246-.5-1.923-.423-.425.07-2.391.249-2.761.401l-.099-1.81c-.035.056-.063.113-.084.169l-1.57 3.134h.007c-.526.766-.361 3.531-.458 4.43-.024.6-.075 1.857-.098 2.451-.69.324-1.352.704-1.986 1.127l-4.965-2.711c-1.246-.693-2.865-.337-3.746.754l-.085-.979c-.066.133-1.749 3.512-1.739 3.5h.014c-.416 1.035-.254 2.289.549 3.148.413.447 3.514 3.815 3.845 4.162-.261.711-.465 1.451-.613 2.19l-5.345 1.577-.225-1.768c-.609 1.429-2.245 3.771-1.972 5.042 0 0 .275 2.197.275 2.197.155 1.42 1.414 2.57 2.838 2.641l5.655.218c.32.696.706 1.349 1.12 1.986-.426.808-1.562 2.858-1.972 3.634 0 0-.732 1.331-.732 1.331-.704 1.289-.31 2.93.803 3.796l1.746 1.366c1.12.866 2.803.838 3.88-.155l.331-.31 3.81-3.521c.718.261 1.458.451 2.211.599l1.592 5.43c.415 1.401 1.845 2.289 3.253 2.113l2.197-.268c1.007-.127 1.887-.789 2.331-1.69v.021l1.585-3.162c.014-.021.021-.049.035-.07l-1.246.542.155-4.141c.7-.323 1.342-.703 1.979-1.12l4.972 2.711c.81.437 1.768.444 2.585.106.998-.293 1.938-1.925 2.578-2.662.434-.606 1.686-3.334 2.049-3.993l-1.669.951c-.102-.627-3.948-4.435-4.373-4.986.254-.718.465-1.451.613-2.204 1.048-.311 4.321-1.264 5.423-1.585.831-.246 1.472-.845 1.831-1.577l1.556-3.12c.014-.021.021-.035.028-.056zm-21.81 11.944c-8.709 1.099-13.825-9.736-7.458-15.782 6.641-6.309 17.554.134 15.211 9.014-.909 3.542-4.082 6.366-7.753 6.768z"/></g><g fill="#1d3ba8"><path d="m385.685 143.919c-1.99-.323-6.095-.989-8.064-1.31-.367-1.107-.815-2.166-1.331-3.204.117-.131 3.656-5.09 3.901-5.423 0 0 .873-1.218.873-1.218 1.234-1.704.998-4.208-.486-5.669 0 0-2.296-2.303-2.296-2.303-1.465-1.465-3.93-1.74-5.676-.479-.29.195-6.582 4.735-6.641 4.775-1.021-.514-2.092-.972-3.197-1.338-.313-1.958-.997-6.085-1.317-8.063-.345-2.113-2.282-3.662-4.352-3.662h-3.246c-2.399-.005-4.34 1.982-4.458 4.345 0 0-1.218 7.38-1.218 7.38-1.087.367-2.167.824-3.19 1.338l-6.648-4.775c-1.742-1.262-4.185-.983-5.669.479 0 0-2.296 2.303-2.296 2.303-1.478 1.454-1.727 3.991-.479 5.669l4.768 6.641c-.521 1.028-.972 2.092-1.338 3.204l-.345.056-7.711 1.254c-2.093.353-3.666 2.265-3.669 4.352v3.261c0 2.063 1.542 3.993 3.669 4.338l8.056 1.324c.366 1.113.817 2.169 1.338 3.197-1.128 1.566-3.621 5.055-4.768 6.648-1.241 1.679-1.003 4.199.479 5.662 0 0 2.296 2.303 2.296 2.303 1.465 1.465 3.923 1.732 5.669.479l6.648-4.775c1.021.521 2.092.979 3.19 1.345l1.324 8.049c.345 2.127 2.275 3.676 4.352 3.676h3.246c1.579.002 3.104-.92 3.866-2.303h.007c.433-.705.558-1.87.69-2.683.27-1.646.838-5.114 1.106-6.74 1.106-.366 2.176-.824 3.197-1.345 1.509 1.099 5.094 3.654 6.641 4.775 1.711 1.246 4.249.994 5.711-.514 0 0 2.261-2.268 2.261-2.268 1.469-1.472 1.734-3.923.486-5.662 0 0-4.732-6.592-4.732-6.592l-.042-.056c.518-1.04.976-2.09 1.331-3.197l7.979-1.303c1.309-.203 2.44-.999 3.113-2.113.007 0 .007-.007.007-.014.093-.15.179-.299.239-.465h.007c.606-1.105.319-3.806.38-5.028.001-2.063-1.541-3.999-3.661-4.351zm-18.789 12.88c-6.979 11.445-24.685 6.567-24.761-6.895-.083-7.016 5.766-13.148 12.803-13.338 10.461-.581 17.495 11.401 11.958 20.233z"/><path d="m415.235 106.756-5.169-2.338c-.052-.758-.125-1.506-.289-2.254l3.761-3.077c.295-.253.829-.624 1.049-.944.756-.936.86-2.335.261-3.38 0 0-1.106-1.923-1.106-1.923-.711-1.225-2.282-1.831-3.655-1.324l-5.289 2.007c-.57-.507-1.176-.972-1.81-1.394l.563-5.62c.141-1.465-.859-2.824-2.218-3.183l-2.148-.584c-1.366-.359-2.901.317-3.507 1.648l-1.148 2.549-1.183 2.613c-.761.036-1.522.139-2.261.296l-3.585-4.373c-.93-1.141-2.592-1.387-3.817-.69-1.078.667-2.937 1.382-3.261 2.768-.014.007-.014.014-.007.021-.028.07-.049.141-.063.211-.16.565-.124 1.205.092 1.761.347.919 1.681 4.447 2 5.303-.507.57-.972 1.169-1.38 1.803-.462-.046-5.049-.509-5.641-.563-1.412-.142-2.697.771-3.127 2.049-.04.035-.461 1.68-.493 1.768-.573 1.501-.053 3.353 1.507 4.056 0 0 5.169 2.331 5.169 2.331.042.753.134 1.507.289 2.261-.371.301-2.059 1.674-2.38 1.951 0 0-2 1.627-2 1.627-1.112.904-1.398 2.601-.676 3.824 0 0 1.106 1.915 1.106 1.915.704 1.225 2.275 1.838 3.648 1.324.413-.162 5-1.892 5.289-2 .57.5 1.176.965 1.817 1.387-.051.59-.497 4.927-.563 5.627-.148 1.465.852 2.817 2.218 3.183l2.141.578c1.367.377 2.931-.355 3.514-1.655 0 0 .831-1.845.831-1.845l1.493-3.296c.753-.054 1.526-.14 2.275-.303l3.57 4.366c.93 1.148 2.599 1.394 3.824.69l1.711-.986c1.347-.67 2.076-2.335 1.521-3.768 0 0-.887-2.345-.887-2.345-.271-.73-.841-2.221-1.113-2.958.514-.57.965-1.176 1.38-1.803l5.641.563c1.033.099 2.034-.37 2.655-1.169.572-.602.849-2.426 1.106-3.19.366-1.367-.317-2.916-1.655-3.515zm-25.55-9.359c4.235-2.551 10.157-.954 12.542 3.366 4.128 7.001-2.636 15.649-10.331 13.458-7.857-2.036-9.222-12.84-2.211-16.824z"/><path d="m440.059 144.735-.275-2.211c-.176-1.401-1.38-2.578-2.845-2.641l-5.655-.211c-.324-.699-.711-1.354-1.127-1.986l1.345-2.465 1.366-2.5c.704-1.289.317-2.923-.803-3.796l-1.746-1.373c-1.113-.859-2.803-.845-3.873.162l-4.155 3.838c-.718-.26-1.458-.458-2.197-.606l-1.599-5.437c-.415-1.401-1.845-2.289-3.253-2.113l-2.197.268c-1.414.168-2.59 1.418-2.641 2.845 0 0-.028.789-.028.789l-.19 4.873c-.679.317-1.345.707-1.986 1.12-1.061-.588-3.852-2.127-4.965-2.711-1.282-.704-2.93-.317-3.796.803l-.944 1.218c-1.176 1.172-1.474 3.126-.275 4.409 0 0 3.852 4.155 3.852 4.155-.261.711-.465 1.451-.613 2.197-1.052.309-4.325 1.268-5.43 1.592-1.478.436-2.354 1.991-2.092 3.472 0 0 .246 1.979.246 1.979.176 1.408 1.38 2.585 2.845 2.641l5.648.218c.331.69.704 1.352 1.127 1.986l-1.732 3.183-.972 1.782c-.801 1.455-.153 3.282 1.218 4.12 0 0 1.331 1.042 1.331 1.042 1.113.866 2.803.845 3.88-.148l4.141-3.838c.718.26 1.458.451 2.211.599l1.592 5.43c.415 1.408 1.845 2.289 3.254 2.12l2.197-.275c1.411-.172 2.597-1.408 2.641-2.845 0 0 .12-3.197.12-3.197l.091-2.451c.701-.333 1.354-.704 1.986-1.127l4.972 2.711c1.282.697 2.93.31 3.796-.803.118-.158.41-.514.521-.669.158-.23.935-1.154 1.049-1.387.649-1.11.553-2.593-.352-3.577-.395-.429-3.532-3.815-3.845-4.148.254-.718.458-1.451.613-2.197.007 0 4.218-1.236 4.225-1.232 0 0 1.197-.359 1.197-.359 1.373-.384 2.299-1.851 2.122-3.249zm-19.317 10.113c-10.831 4.467-18.246-10.512-8.169-16.444 8.75-4.681 17.695 5.852 11.641 13.718-.007 0-.007.007-.007.014-.93 1.191-2.113 2.107-3.465 2.712z"/></g><g fill="#406bcc"><path d="m373.627 176.019c-.556-.017-7.042-4.938-7.659-5.31-1.026.521-2.092.976-3.201 1.34-.325 1.912-1.014 6.336-1.365 8.287-1.842-1.842-35.23-35.239-36.357-36.365.074-.025.149-.033.223-.05l7.708-1.257.347-.058c.364-1.108.819-2.175 1.34-3.201-.388-.637-5.274-7.085-5.31-7.65l13.58 13.58c-3.906 10.515 6.6 21.012 17.103 17.103.356.341 12.756 12.747 13.591 13.581z"/><path d="m346.682 128.315 8.254 8.254c-2.324.083-4.491.777-6.36 1.911-3.595-3.603-11.018-11.018-14.573-14.581 1.373-.612 3.052-.513 4.334.414l6.65 4.772c.554-.274 1.116-.538 1.695-.77z"/><path d="m381.476 171.38c-3.014-3.017-11.448-11.456-14.581-14.581 1.133-1.869 1.828-4.036 1.91-6.36l8.262 8.262c-.24.571-.496 1.133-.778 1.687.051.069 4.722 6.581 4.772 6.65.928 1.29 1.027 2.96.415 4.342z"/><path d="m389.35 151.365c.087 2.184-1.58 4.209-3.747 4.524l-35.811-35.82-.306-.298c.325-2.209 2.359-3.823 4.524-3.747 6.743 6.743 15.992 15.993 22.744 22.744l-.463.637c.521 1.035.963 2.095 1.332 3.201l3.548.579z"/><path d="m395.321 121.161c-.041 0-.074.008-.116.008-.676 1.409-1.826 4.236-2.572 5.574-1.62-1.62-7.873-7.87-9.362-9.371h-.008l-6.873-6.873c.306-.258 2.034-1.667 2.382-1.952-.157-.753-.248-1.505-.289-2.258l-5.169-2.332c-1.332-.604-2.01-2.15-1.646-3.515.13-.474.467-1.83.628-2.308l19.684 19.684h.008z"/><path d="m412.573 138.405c-1.712.93-3.176 2.504-3.97 4.309-.538-.538-9.875-9.885-10.107-10.115l.943-1.216c.868-1.116 2.514-1.505 3.796-.802l3.283 1.77c1.31 1.315 4.7 4.707 6.055 6.054z"/><path d="m435.052 160.884c-.106.15-.405.52-.521.67-.868 1.108-2.514 1.497-3.796.802l-4.971-2.713c-.05.033-.091.058-.141.091-.903-.905-4.033-4.043-4.88-4.888 1.348-.604 2.531-1.522 3.465-2.713.306-.398.593-.817.827-1.257l9.767 9.759z"/><path d="m416.89 110.269c-.365 1.188-.581 3.168-1.795 3.837-.562.389-1.257.596-1.968.521l-5.641-.562c-.414.629-.868 1.232-1.381 1.803.277.733.841 2.224 1.117 2.953-1.265-1.252-5.417-5.41-6.724-6.716 8.905-8.941-3.964-21.925-12.968-12.968l-5.566-5.566-1.522-4.028c-.52-1.334.086-2.952 1.315-3.647 0 0 1.927-1.108 1.927-1.108 1.224-.703 2.886-.455 3.821.686l3.581 4.375c.686-.149 1.389-.24 2.092-.289.313-.589.865-2.169 1.348-2.622 0 0 1.15-2.547 1.15-2.547.604-1.332 2.142-2.01 3.507-1.646l2.15.579c1.356.364 2.357 1.72 2.217 3.184l-.563 5.624c.637.422 1.241.885 1.811 1.389l5.285-2.002c1.373-.513 2.944.099 3.656 1.323l1.108 1.919c.901 1.587.188 3.372-1.307 4.325 0 0-3.763 3.077-3.763 3.077.164.754.238 1.498.29 2.258l5.169 2.332c1.34.605 2.018 2.151 1.654 3.516z"/><path d="m438.377 147.817c-.297.15-1.316.42-1.646.521-6.202-6.214-13.967-13.979-20.188-20.188v-.008l-1.009-1.009s-.008 0-.008-.008h-.008l-3.25-3.25c.498-.266 2.409-.375 2.977-.48 1.406-.174 2.837.711 3.25 2.117l1.596 5.434c.744.149 1.48.347 2.2.604l4.152-3.838c1.075-1.001 2.762-1.017 3.879-.157l1.745 1.373c1.116.868 1.505 2.506.802 3.796l-1.365 2.498c-.061.621-1.003 2.034-1.265 2.597.389.587.744 1.207 1.042 1.853l5.657.215c1.464.058 2.671 1.241 2.845 2.638l.273 2.208c.157 1.248-.529 2.522-1.679 3.084z"/></g></g></g></svg>