<svg id="Capa_1" enable-background="new 0 0 512 512" height="512" viewBox="0 0 512 512" width="512" xmlns="http://www.w3.org/2000/svg"><g><g><path d="m0 256c0 43.79 11 85.02 30.39 121.07l225.61 49.67 225.61-49.67c19.39-36.05 30.39-77.28 30.39-121.07 0-46.63-12.47-90.34-34.26-128-41.698 72.091-399.22 76.52-443.48 0-21.79 37.66-34.26 81.37-34.26 128z" fill="#c02e71"/><path d="m34.26 128c44.26 76.52 126.99 128 221.74 128s177.48-51.48 221.74-128c-.01-.02-.03-.05-.04-.07-44.27-76.48-126.98-127.93-221.7-127.93s-177.43 51.45-221.7 127.93c-.01.02-.03.05-.04.07z" fill="#d95f91"/><path d="m481.61 377.07c-32.56 60.56-88.79 106.5-156.32 125.43-22.03 6.19-45.27-16.97-69.29-16.97-24.26 0-47.72 23.1-69.95 16.79-67.23-19.05-123.2-64.89-155.66-125.25z" fill="#815"/></g><g><path d="m240.67 410.698h30v56.69h-30z" fill="#eec036"/><path d="m256 410.698h14.67v56.69h-14.67z" fill="#e8a440"/><path d="m393.05 109.482-140.23 140.23-19.28-23.15 138.3-138.3z" fill="#e8a440"/><path d="m252.82 249.712-118.3 118.3-21.22-21.21 120.24-120.24z" fill="#f5dd6e"/><path d="m403.29 228.132c0 74.75-54.62 136.72-126.13 148.21-6.91 1.11-13.97-13.94-21.16-13.81-.94.02-1.88.03-2.82.03-82.91 0-143.455-51.52-143.455-134.43 0-3.8-6.515-7.58-6.235-11.31 5.78-77.63 70.59-138.8 149.69-138.8.94 0 1.88.02 2.82.03.13.01.26.01.39.01 26.19.55 35.665 13.613 56.905 25.928 37.119 21.522 79.229 52.686 87.415 96.312 1.69 9.02 2.58 18.32 2.58 27.83z" fill="#9febff"/><path d="m403.29 228.132c0 74.75-54.62 136.72-126.13 148.21-6.91 1.11-13.97 1.75-21.16 1.88v-300.17c.13.01.26.01.39.01 35.323.741 56.43 17.875 81.705 38.973 26.214 21.882 56.063 48.346 62.615 83.267 1.69 9.02 2.58 18.32 2.58 27.83z" fill="#70c5e9"/><path d="m450.99 228.142c0 52.84-20.57 102.51-57.94 139.87-36.69 36.69-85.26 57.2-137.05 57.91-.94.02-1.88.03-2.82.03-52.84 0-102.51-20.58-139.88-57.94l-25.64-25.64 21.21-21.22 25.65 25.65c33.43 33.43 77.57 49.78 121.48 49.04 42.03-.69 83.84-17.04 115.84-49.04 31.7-31.7 49.15-73.84 49.15-118.66 0-44.83-17.45-86.97-49.15-118.66l-25.65-25.65 21.22-21.21 25.64 25.64c37.37 37.36 57.94 87.04 57.94 139.88z" fill="#f5dd6e"/><g fill="#cdff8f"><path d="m400.71 200.302-21.66 21.65c-4.61 4.61-10.63 6.9-16.66 6.91-6.03-.01-12.06-2.3-16.66-6.91-9.21-9.2-9.2-24.12 0-33.31l28.98-28.99c-9.2 9.2-24.12 9.2-33.32 0-9.2-9.21-9.2-24.12 0-33.32l-58.36 58.37c-4.6 4.59-10.64 6.9-16.66 6.9-3.55-.01-7.11-.8-10.37-2.41-2.27-1.1-4.4-2.6-6.29-4.49-9.21-9.21-9.2-24.12 0-33.32l24.13-24.13c-4.6 4.6-10.64 6.9-16.66 6.9-.39 0-.79-.01-1.18-.03-5.63-.28-11.18-2.57-15.48-6.87-9.2-9.2-9.2-24.12 0-33.32l15.48-15.48.39-.39c71.96 1.51 131.45 53.65 144.32 122.24z"/><path d="m300.46 353.042-23.3 23.3c-6.91 1.11-13.97 1.75-21.16 1.88-.94.02-1.88.03-2.82.03-82.91 0-150.12-67.21-150.12-150.12 0-3.8.15-7.58.43-11.31l35.27-35.27c4.6-4.6 10.63-6.89 16.66-6.9 6.03.01 12.05 2.3 16.66 6.9 9.2 9.2 9.2 24.12 0 33.32l-25.27 25.26c4.6-4.59 10.63-6.9 16.66-6.9s12.06 2.3 16.66 6.9c9.2 9.2 9.2 24.12 0 33.32l-25.63 25.64c9.21-9.21 24.11-9.21 33.32 0 9.2 9.19 9.2 24.11 0 33.31l68.93-68.93c4.6-4.6 10.63-6.91 16.66-6.9 6.03 0 12.06 2.3 16.66 6.9 9.2 9.2 9.2 24.12 0 33.32l-22.93 22.93c4.6-4.6 10.62-6.9 16.66-6.9 6.02 0 12.06 2.3 16.66 6.9 9.2 9.2 9.2 24.12 0 33.32z"/></g><path d="m300.46 319.722c9.2 9.2 9.2 24.12 0 33.32l-23.3 23.3c-6.91 1.11-13.97 1.75-21.16 1.88v-114l.75-.75c4.6-4.6 10.63-6.91 16.66-6.9 6.03 0 12.06 2.3 16.66 6.9 9.2 9.2 9.2 24.12 0 33.32l-22.93 22.93c4.6-4.6 10.62-6.9 16.66-6.9 6.02 0 12.06 2.3 16.66 6.9z" fill="#a9eb58"/><path d="m400.71 200.302-21.66 21.65c-4.61 4.61-10.63 6.9-16.66 6.91-6.03-.01-12.06-2.3-16.66-6.91-9.21-9.2-9.2-24.12 0-33.31l28.98-28.99c-9.2 9.2-24.12 9.2-33.32 0-9.2-9.21-9.2-24.12 0-33.32l-58.36 58.37c-4.6 4.59-10.64 6.9-16.66 6.9-3.55-.01-7.11-.8-10.37-2.41v-110.74l.39-.39c71.96 1.51 131.45 53.65 144.32 122.24z" fill="#a9eb58"/><path d="m450.99 228.142c0 52.84-20.57 102.51-57.94 139.87-36.69 36.69-85.26 57.2-137.05 57.91v-30.08c42.03-.69 83.84-17.04 115.84-49.04 31.7-31.7 49.15-73.84 49.15-118.66 0-44.83-17.45-86.97-49.15-118.66l-25.65-25.65 21.22-21.21 25.64 25.64c37.37 37.36 57.94 87.04 57.94 139.88z" fill="#eec036"/><path d="m325.29 488.65v13.85c-22.03 6.19-45.27 9.5-69.29 9.5h-.33c-24.14-.03-47.49-3.4-69.62-9.68v-13.67c0-16.34 13.25-29.59 29.59-29.59h80.06c16.34 0 29.59 13.25 29.59 29.59z" fill="#858899"/></g><path d="m325.29 488.65v13.85c-22.03 6.19-45.27 9.5-69.29 9.5h-.33v-52.94h40.03c16.34 0 29.59 13.25 29.59 29.59z" fill="#616579"/></g></svg>