<svg id="Capa_1" enable-background="new 0 0 512 512" height="512" viewBox="0 0 512 512" width="512" xmlns="http://www.w3.org/2000/svg"><g><g><path d="m512 256c0 141.387-114.613 256-256 256s-256-114.613-256-256 114.613-256 256-256 256 114.613 256 256zm0 0" fill="#a8eb58"/><path d="m512 256c0 26.051-3.891 51.191-11.129 74.871-5.031 16.469-11.672 32.231-19.75 47.109-8.25 15.2-18.532 7.128-29.583 20.277-.582.691-117.808 27.961-195.538 27.961s-216.871-33.038-225.109-48.238c-3.289-6.031-6.332-12.21-9.121-18.531-14-31.629-21.77-66.629-21.77-103.449 0-46.219 12.25-89.57 33.68-127 44.121 77.07 127.16 129 222.32 129s178.211-51.93 222.32-129c21.43 37.43 33.68 80.781 33.68 127zm0 0" fill="#80cf8c"/><path d="m481.262 377.699c-7.16 13.223-15.434 25.742-24.723 37.43-8.437 10.633-17.719 20.57-27.719 29.723-45.539 41.699-106.211 67.148-172.82 67.148s-127.281-25.449-172.82-67.148c-10-9.153-19.282-19.09-27.719-29.723-9.289-11.688-17.563-24.207-24.723-37.43zm0 0" fill="#599d8a"/></g><g><path d="m256 76c-32.282 0-58.549 26.267-58.549 58.549v46.839h23.419v-46.839c0-19.371 15.758-35.129 35.129-35.129s35.129 15.758 35.129 35.129v46.839h23.419v-46.839c.002-32.282-26.265-58.549-58.547-58.549z" fill="#fbf5eb"/><path d="m291.129 134.549v46.839h23.419v-46.839c.001-32.282-26.266-58.549-58.548-58.549v23.419c19.371 0 35.129 15.758 35.129 35.13z" fill="#dce0ef"/><path d="m256 169.678h-81.968v118.658h81.968 81.968v-118.658z" fill="#f3d37a"/><path d="m273.565 169.678h-64.404v118.658h64.404 64.403v-118.658z" fill="#eabd3e"/><path d="m256 169.678h81.968v118.659h-81.968z" fill="#e38d22"/><path d="m185.742 452.272h46.839v23.42h-46.839z" fill="#535564"/><path d="m237.795 337.142-16.924 11.281v-24.957h-23.42v24.957l-16.924-11.281-12.99 19.486 23.245 15.497-13.32 13.32 16.559 16.558 15.14-15.14 15.14 15.14 16.559-16.558-13.32-13.32 23.245-15.497z" fill="#535564"/><path d="m331.473 337.142-16.924 11.281v-24.957h-23.42v24.957l-16.924-11.281-12.991 19.486 23.245 15.497-13.319 13.32 16.559 16.558 15.14-15.14 15.14 15.14 16.559-16.558-13.32-13.32 23.245-15.497z" fill="#3b3b3b"/><path d="m438.141 356.628-12.99-19.486-16.925 11.281v-24.957h-23.419v24.957l-16.924-11.281-12.991 19.486 23.245 15.497-13.319 13.32 16.558 16.558 15.141-15.14 15.14 15.14 16.558-16.558-13.319-13.32z" fill="#3b3b3b"/><path d="m144.117 337.142-16.924 11.281v-24.957h-23.419v24.957l-16.925-11.281-12.99 19.486 23.245 15.497-13.319 13.32 16.558 16.558 15.14-15.14 15.141 15.14 16.558-16.558-13.319-13.32 23.245-15.497z" fill="#5f657a"/><path d="m92.064 452.616c10.182 8.499 21.033 16.22 32.464 23.076h14.375v-23.419h-46.839z" fill="#5f657a"/><path d="m279.419 452.272h46.839v23.42h-46.839z" fill="#3b3b3b"/><path d="m373.097 475.692h14.375c11.431-6.856 22.283-14.577 32.464-23.076v-.344h-46.839z" fill="#3b3b3b"/><path d="m256 217.297h-11.71v23.42h11.71 11.71v-23.42z" fill="#535564"/><path d="m256 217.297h11.71v23.42h-11.71z" fill="#3b3b3b"/></g><g fill="#fff"><path d="m413.062 128.775h-1.524c-6.754 0-12.226-5.477-12.226-12.227v-1.523h-8.715v1.523c0 6.75-5.477 12.227-12.227 12.227h-1.527v8.715h1.527c6.75 0 12.227 5.472 12.227 12.226v1.528h8.715v-1.528c0-6.754 5.472-12.226 12.226-12.226h1.524zm0 0"/><path d="m456.251 236.357h-1.524c-6.754 0-12.226-5.477-12.226-12.227v-1.523h-8.715v1.523c0 6.75-5.477 12.227-12.227 12.227h-1.527v8.715h1.527c6.75 0 12.227 5.472 12.227 12.226v1.528h8.715v-1.528c0-6.754 5.472-12.226 12.226-12.226h1.524zm0 0"/><path d="m99.791 137.49h1.524c6.754 0 12.226 5.472 12.226 12.226v1.528h8.715v-1.528c0-6.754 5.477-12.226 12.227-12.226h1.527v-8.715h-1.527c-6.75 0-12.227-5.477-12.227-12.227v-1.523h-8.715v1.523c0 6.75-5.472 12.227-12.226 12.227h-1.524zm0-8.715"/><path d="m56.602 245.072h1.524c6.754 0 12.226 5.472 12.226 12.226v1.528h8.715v-1.528c0-6.754 5.477-12.226 12.227-12.226h1.527v-8.715h-1.527c-6.75 0-12.227-5.477-12.227-12.227v-1.523h-8.715v1.523c0 6.75-5.472 12.227-12.226 12.227h-1.524zm0-8.715"/></g></g></svg>