<svg id="Capa_1" enable-background="new 0 0 512 512" height="512" viewBox="0 0 512 512" width="512" xmlns="http://www.w3.org/2000/svg"><g><g><path d="m0 256c0 43.79 11 85.02 30.39 121.07l225.61 49.67 225.61-49.67c19.39-36.05 30.39-77.28 30.39-121.07 0-46.63-12.47-90.34-34.26-128-41.698 72.091-399.22 76.52-443.48 0-21.79 37.66-34.26 81.37-34.26 128z" fill="#9865d8"/><path d="m34.26 128c44.26 76.52 126.99 128 221.74 128s177.48-51.48 221.74-128c-.01-.02-.03-.05-.04-.07-44.27-76.48-126.98-127.93-221.7-127.93s-177.43 51.45-221.7 127.93c-.01.02-.03.05-.04.07z" fill="#b895e4"/><path d="m481.61 377.07c-30.76 57.2-82.64 101.37-145.21 122.04-5.42 1.8-10.925-12.92-16.496-11.51-5.43 1.4-10.914 18.97-16.485 20-15.37 2.9-31.21 4.4-47.42 4.4-60.027 0-115.226-20.661-158.877-55.258-10.35-8.203-6.121-24.107-15.082-33.787-4.472-4.83-22.689-2.916-26.782-8.081-9.353-11.802-17.687-24.448-24.869-37.806h451.221z" fill="#5541b5"/></g><g><path d="m445.179 256c0 92.727-50.393 173.686-125.274 217.01-74.881-43.324-125.262-124.283-125.262-217.01s50.381-173.686 125.262-217.01c74.88 43.324 125.274 124.284 125.274 217.01z" fill="#a8ea58"/><g fill="#78cd8a"><path d="m319.904 192.146-63.916-63.916 20.911-20.909 43.005 43.006 43.007-43.007 20.91 20.91z"/><path d="m319.904 400.006-63.916-63.915 20.911-20.91 43.005 43.006 43.008-43.006 20.909 20.91z"/><path d="m319.904 301.14-92.054-92.053 20.91-20.911 71.144 71.145 71.145-71.145 20.91 20.911z"/><path d="m445.179 256c0 92.727-50.393 173.686-125.274 217.01v-434.02c74.88 43.324 125.274 124.284 125.274 217.01z"/></g><path d="m383.821 336.089-63.917 63.917v-41.813l43.011-43.01z" fill="#599d89"/><path d="m383.821 128.238-63.917 63.902v-41.813l43.011-43.011z" fill="#599d89"/><path d="m411.958 209.084-92.054 92.053v-41.813l71.147-71.147z" fill="#599d89"/><path d="m336.4 99.37v399.74c-5.42 1.8-10.92 3.42-16.49 4.83-5.43 1.4-10.92 2.63-16.49 3.66v-408.23z" fill="#78cd8a"/><path d="m336.4 99.37v399.74c-5.42 1.8-10.92 3.42-16.49 4.83v-404.57z" fill="#599d89"/></g><g><circle cx="208.175" cy="303.825" fill="#616679" r="129.655"/><path d="m299.855 395.505c-50.635 50.635-132.726 50.635-183.36 0l183.36-183.36c50.635 50.635 50.634 132.726 0 183.36z" fill="#2d3041"/><path d="m105.928 447.841-8.434 8.434c-7.877-5.734-15.406-12.149-22.513-19.256s-13.522-14.636-19.256-22.513l8.434-8.434c11.535-11.535 30.234-11.535 41.769 0 5.765 5.765 8.652 13.325 8.647 20.884.005 7.561-2.883 15.121-8.647 20.885z" fill="#bf2e70"/><path d="m105.928 447.841-8.434 8.434c-7.877-5.734-15.406-12.149-22.513-19.256l30.947-30.947c5.765 5.765 8.652 13.325 8.647 20.884.005 7.561-2.883 15.121-8.647 20.885z" fill="#871155"/><path d="m303.82 308.83c-.75 14.7-4.89 29.26-12.4 42.41-1.83 3.229-3.87 6.37-6.11 9.41-2.82 3.81-5.95 7.46-9.4 10.91-5.49 5.49-11.48 10.17-17.82 14.04-8.09 4.96-16.76 8.6-25.7 10.92-15.86 4.13-32.57 4.13-48.43 0-8.94-2.32-17.61-5.96-25.7-10.92-6.35-3.87-12.33-8.55-17.82-14.04-3.45-3.45-6.58-7.1-9.4-10.91-2.24-3.04-4.29-6.18-6.11-9.41-7.52-13.15-11.65-27.71-12.41-42.41-.18-3.33-.18-6.67-.01-10 .76-14.7 4.9-29.26 12.42-42.42 1.83-3.23 3.87-6.37 6.12-9.4 2.8-3.82 5.94-7.47 9.39-10.92 5.49-5.49 11.47-10.17 17.82-14.04 8.09-4.95 16.76-8.59 25.7-10.91 15.86-4.13 32.57-4.13 48.43 0 8.94 2.32 17.61 5.96 25.7 10.91 6.34 3.87 12.33 8.55 17.82 14.04 3.45 3.45 6.58 7.1 9.39 10.92 2.25 3.03 4.29 6.17 6.12 9.4 7.51 13.16 11.65 27.72 12.41 42.42.17 3.33.17 6.67-.01 10z" fill="#cbff8d"/><ellipse cx="215.868" cy="311.519" fill="#a8ea58" rx="95.168" ry="84.906" transform="matrix(.707 -.707 .707 .707 -157.051 243.884)"/><path d="m275.906 371.556c-37.409 37.409-98.054 37.409-135.462 0l135.463-135.463c37.408 37.41 37.408 98.055-.001 135.463z" fill="#78cd8a"/><path d="m158.107 451.395c-3.829 3.829-8.85 5.749-13.871 5.744s-10.042-1.915-13.871-5.744l-69.76-69.76c-7.659-7.659-7.659-20.083 0-27.742 3.829-3.829 8.85-5.749 13.871-5.744s10.042 1.915 13.871 5.744l69.76 69.76c7.659 7.659 7.659 20.083 0 27.742z" fill="#f5dc6e"/><path d="m158.107 451.395c-3.829 3.829-8.85 5.749-13.871 5.744s-10.042-1.915-13.871-5.744l-34.88-34.88 27.742-27.742 34.88 34.88c7.659 7.659 7.659 20.083 0 27.742z" fill="#eebf36"/><path d="m303.83 298.83h-9.27l-6.9-11.97-6.91-11.96 6.91-11.96 3.76-6.53c-1.83-3.23-3.87-6.37-6.12-9.4l-6.3 10.93-6.91 11.96h-27.63l-6.9-11.96-6.91-11.97 6.91-11.96 6.9-11.96h13.63c-8.09-4.95-16.76-8.59-25.7-10.91l3.41 5.91-6.9 11.96-6.91 11.96h-27.63l-6.91-11.96-6.9-11.96 3.41-5.91c-8.94 2.32-17.61 5.96-25.7 10.91h13.63l6.9 11.96 6.91 11.96-6.91 11.97-6.9 11.96h-27.63l-6.91-11.96-6.3-10.93c-2.25 3.03-4.29 6.17-6.12 9.4l3.76 6.53 6.91 11.96-6.91 11.96-6.9 11.97h-9.28c-.17 3.33-.17 6.67.01 10h9.27l6.9 11.96 6.91 11.96-6.91 11.96-3.76 6.53c1.82 3.229 3.87 6.37 6.11 9.41l6.31-10.94 6.91-11.96h27.63l6.9 11.96 6.91 11.97-6.91 11.96-6.9 11.96h-13.63c8.09 4.96 16.76 8.6 25.7 10.92l-3.41-5.92 6.9-11.96 6.91-11.96h27.63l6.91 11.96 6.9 11.96-3.41 5.92c8.94-2.32 17.61-5.96 25.7-10.92h-13.63l-6.9-11.96-6.91-11.96 6.91-11.97 6.9-11.96h27.63l6.91 11.96 6.31 10.94c2.24-3.04 4.28-6.18 6.11-9.41l-3.76-6.53-6.91-11.96 6.91-11.96 6.9-11.96h9.26c.18-3.33.18-6.67.01-10zm-116.38-35.89 6.91-11.97h27.63l6.91 11.97 6.9 11.96-6.9 11.96-6.91 11.97h-27.63l-6.91-11.97-6.9-11.96zm-15.56 64.81h-27.63l-6.91-11.96-6.9-11.96 6.9-11.97 6.91-11.96h27.63l6.9 11.96 6.91 11.97-6.91 11.96zm57.01 16.96-6.91 11.97h-27.63l-6.91-11.97-6.9-11.96 6.9-11.96 6.91-11.96h27.63l6.91 11.96 6.9 11.96zm50.1-28.92-6.91 11.96h-27.63l-6.9-11.96-6.91-11.96 6.91-11.97 6.9-11.96h27.63l6.91 11.96 6.9 11.97z" fill="#78cd8a"/><path d="m294.56 308.83h9.26c.18-3.33.18-6.67.01-10h-9.27l-6.9-11.97-6.91-11.96 6.91-11.96 3.76-6.53c-1.83-3.23-3.87-6.37-6.12-9.4l-6.3 10.93-6.91 11.96h-27.63l-.863-1.497-9.57 9.569-5.127 8.887-6.91 11.97h-8.82l-10 10h18.82l6.91 11.96 6.9 11.96-6.9 11.96-6.91 11.97h-27.63l-6.91-11.97-6.9-11.96 1.773-3.073-9.569 9.569 6.037 10.463 6.91 11.97-6.91 11.96-6.9 11.96h-13.63c8.09 4.96 16.76 8.6 25.7 10.92l-3.41-5.92 6.9-11.96 6.91-11.96h27.63l6.91 11.96 6.9 11.96-3.41 5.92c8.94-2.32 17.61-5.96 25.7-10.92h-13.63l-6.9-11.96-6.91-11.96 6.91-11.97 6.9-11.96h27.63l6.91 11.96 6.31 10.94c2.24-3.04 4.28-6.18 6.11-9.41l-3.76-6.53-6.91-11.96 6.91-11.96zm-15.56 6.96-6.91 11.96h-27.63l-6.9-11.96-6.91-11.96 6.91-11.97 6.9-11.96h27.63l6.91 11.96 6.9 11.97z" fill="#599d89"/></g></g></svg>