<svg id="Capa_1" enable-background="new 0 0 512 512" height="512" viewBox="0 0 512 512" width="512" xmlns="http://www.w3.org/2000/svg"><g><g><g><g><g><g><g><circle cx="256" cy="256" fill="#ff6c52" r="256"/></g></g></g></g></g></g><path d="m512 256c0-18.968-2.063-37.453-5.977-55.245l-88.019-88.019-28.525 7.045-11.897 40.192 16.268 16.268-108.422 79.487-147.112-147.111-35.957 51.356 119.949 119.949-145.308 55.698 16.629 16.629-12.314 41.078 111.39 110.788c20.243 5.149 41.45 7.885 63.295 7.885 141.385 0 256-114.615 256-256z" fill="#f92814"/><g><path d="m142.705 159.973-2.541-7.392h-20.25l-2.541 7.392h-15.014l19.325-51.356h16.632l19.402 51.356zm-12.704-38.267-6.545 19.326h13.089z" fill="#fff"/></g><g><path d="m377.582 159.973v-51.356h29.104c10.163 0 15.014 6.622 15.014 13.089 0 6.391-3.927 10.702-8.777 11.78 5.467.847 9.778 6.083 9.778 12.55 0 7.468-5.005 13.936-15.091 13.936h-30.028zm30.644-35.957c0-2.464-1.848-4.235-4.542-4.235h-12.858v8.547h12.858c2.694 0 4.542-1.771 4.542-4.312zm1.001 20.173c0-2.541-1.848-4.62-5.081-4.62h-13.32v9.239h13.32c3.156.001 5.081-1.847 5.081-4.619z" fill="#fff"/></g><g><path d="m74.91 375.744c0-15.861 12.012-26.563 27.796-26.563 12.396 0 19.018 7.007 22.405 13.782l-11.396 5.39c-1.693-4.081-6.082-7.469-11.01-7.469-8.393 0-14.321 6.467-14.321 14.86s5.929 14.86 14.321 14.86c4.928 0 9.316-3.388 11.01-7.469l11.396 5.39c-3.311 6.622-10.01 13.782-22.405 13.782-15.784.001-27.796-10.778-27.796-26.563z" fill="#e9edf5"/></g><g><path d="m377.581 401.384v-51.356h21.559c16.169 0 27.795 9.701 27.795 25.64 0 15.938-11.626 25.716-27.718 25.716zm35.803-25.716c0-7.931-4.773-14.09-14.167-14.09h-8.393v28.258h8.315c9.009-.001 14.245-6.546 14.245-14.168z" fill="#e9edf5"/></g><g><path d="m398.365 335.62h-202.547l-14.511-1.677-15.489 1.677h-88.818l79.058-167.374h9.76l16.792 3.127 13.208-3.127h202.547z" fill="#ffce00"/></g><g><path d="m114.571 256.078-37.571 79.542h88.818l15.489-1.677 14.511 1.677h202.547v-79.542z" fill="#fdba12"/></g><g><path d="m195.818 269.246h-30v-32.307h30zm0-62.606h-30v-38.394h30z" fill="#7584f2"/></g><g fill="#606aea"><path d="m165.818 300.246h30v35.374h-30z"/><path d="m165.818 256.078h30v18.327h-30z"/></g></g></svg>