<?xml version="1.0" encoding="iso-8859-1"?>
<!-- Generator: Adobe Illustrator 19.0.0, SVG Export Plug-In . SVG Version: 6.00 Build 0)  -->
<svg version="1.1" id="Capa_1" xmlns="http://www.w3.org/2000/svg" xmlns:xlink="http://www.w3.org/1999/xlink" x="0px" y="0px"
	 viewBox="0 0 512 512" style="enable-background:new 0 0 512 512;" xml:space="preserve">
<path style="fill:#63A0B2;" d="M512,256.136c-0.039,74.719-32.098,141.942-83.189,188.717c-4.409,4.037-11.523,0.875-11.523-5.103
	V171.18c0-5.523-4.477-10-10-10h-373.8c-7.361,0-12.255-7.664-9.113-14.32C64.666,61.501,150.743,1.997,250.929,0.05
	C394.756-2.745,512.075,112.281,512,256.136z"/>
<path style="fill:#FFF5F5;" d="M432,441.892C386.122,485.343,324.176,512,256,512C114.615,512,0,397.385,0,256
	c0-24.271,3.378-47.751,9.689-70H432V441.892z"/>
<path style="fill:#9FACBA;" d="M343.5,290h-20V190h20V290z"/>
<path style="fill:#FFE1A8;" d="M30,270v-11c0-1.104,0.896-2,2-2h126c1.104,0,2,0.896,2,2v11c0,1.104-0.896,2-2,2H32
	C30.896,272,30,271.104,30,270z M122.857,298v-11c0-1.104-0.896-2-2-2H32c-1.104,0-2,0.896-2,2v11c0,1.104,0.896,2,2,2h88.857
	C121.962,300,122.857,299.104,122.857,298z M388,355.667H122c-1.104,0-2,0.896-2,2v11c0,1.105,0.896,2,2,2h266c1.104,0,2-0.895,2-2
	v-11C390,356.562,389.104,355.667,388,355.667z M382,415H122c-1.104,0-2,0.896-2,2v11c0,1.104,0.896,2,2,2h260c1.104,0,2-0.896,2-2
	v-11C384,415.896,383.104,415,382,415z M122,400h230c1.104,0,2-0.896,2-2v-11c0-1.104-0.896-2-2-2H122c-1.104,0-2,0.896-2,2v11
	C120,399.104,120.896,400,122,400z M350,458v-11c0-1.104-0.896-2-2-2H122c-1.104,0-2,0.896-2,2v11c0,1.104,0.896,2,2,2h226
	C349.104,460,350,459.104,350,458z M382,475H123.36c9.198,5.583,18.781,10.591,28.691,15H359.95
	c8.255-3.673,16.283-7.763,24.051-12.256V477C384,475.896,383.104,475,382,475z M383.5,280h-100c-5.523,0-10,4.477-10,10
	s4.477,10,10,10h100c5.523,0,10-4.477,10-10S389.023,280,383.5,280z"/>
<path style="fill:#FFC143;" d="M24.784,146H422c5.523,0,10,4.477,10,10v40H7.089C11.275,178.572,17.236,161.837,24.784,146z"/>
<path style="fill:#FFAA00;" d="M110,171c0,5.523-4.477,10-10,10s-10-4.477-10-10s4.477-10,10-10S110,165.477,110,171z M70,161
	c-5.523,0-10,4.477-10,10s4.477,10,10,10s10-4.477,10-10S75.523,161,70,161z M40,161c-5.523,0-10,4.477-10,10s4.477,10,10,10
	s10-4.477,10-10S45.523,161,40,161z"/>
<path style="fill:#D93131;" d="M388.5,60v110h3.5c8.284,0,15,6.716,15,15v10c0,8.284-6.716,15-15,15H275c-8.284,0-15-6.716-15-15
	v-10c0-8.284,6.716-15,15-15h3.5V60H275c-8.284,0-15-6.716-15-15V35c0-8.284,6.716-15,15-15h117c8.284,0,15,6.716,15,15v10
	c0,8.284-6.716,15-15,15H388.5z"/>
<path style="fill:#EA4444;" d="M388.5,60v110h3.5c8.284,0,15,6.716,15,15v10c0,8.284-6.716,15-15,15h-90c-8.284,0-15-6.716-15-15
	v-10c0-8.284,6.716-15,15-15h5V90c0-5.523,4.477-10,10-10h43c5.743,0,10.355-4.841,9.978-10.665
	c-0.344-5.316-4.994-9.335-10.32-9.335H307h-5c-8.284,0-15-6.716-15-15V35c0-8.284,6.716-15,15-15h90c8.284,0,15,6.716,15,15v10
	c0,8.284-6.716,15-15,15H388.5z"/>
<g>
</g>
<g>
</g>
<g>
</g>
<g>
</g>
<g>
</g>
<g>
</g>
<g>
</g>
<g>
</g>
<g>
</g>
<g>
</g>
<g>
</g>
<g>
</g>
<g>
</g>
<g>
</g>
<g>
</g>
</svg>
