<svg id="Capa_1" enable-background="new 0 0 512 512" height="512" viewBox="0 0 512 512" width="512" xmlns="http://www.w3.org/2000/svg"><g><g><path d="m0 256c0 43.79 11 85.02 30.39 121.07l225.61 49.67 225.61-49.67c19.39-36.05 30.39-77.28 30.39-121.07 0-46.63-12.47-90.34-34.26-128-41.698 72.091-399.22 76.52-443.48 0-21.79 37.66-34.26 81.37-34.26 128z" fill="#eebf36"/><path d="m34.26 128c44.26 76.52 126.99 128 221.74 128s177.48-51.48 221.74-128c-.01-.02-.03-.05-.04-.07-44.27-76.48-126.98-127.93-221.7-127.93s-177.43 51.45-221.7 127.93c-.01.02-.03.05-.04.07z" fill="#f5dc6e"/><path d="m30.39 377.07c4.337 8.065 9.094 15.871 14.241 23.389 10.311 15.059 27.5 23.65 40.711 36.159 13.033 12.34 22.052 28.634 37.453 38.037 38.805 23.693 84.41 37.345 133.205 37.345 97.59 0 182.42-54.61 225.61-134.93z" fill="#dd8051"/></g><path d="m438.42 171.81v38.95c0 32.2-13.05 61.36-34.16 82.46-21.1 21.11-50.25 34.16-82.45 34.16-.5 0-1 0-1.49-.02-63.72-.79-115.13-52.69-115.13-116.6v-38.95c0-17.27 7-32.91 18.32-44.23 11.31-11.32 26.95-18.32 44.22-18.32 22.07 0 41.46 11.44 52.59 28.71.52.79 1.01 1.6 1.49 2.42 10.83-18.61 30.98-31.13 54.07-31.13 34.54 0 62.54 28 62.54 62.55z" fill="#d75e91"/><path d="m438.42 171.81v38.95c0 32.2-13.05 61.36-34.16 82.46-21.1 21.11-50.25 34.16-82.45 34.16-.5 0-1 0-1.49-.02v-189.39c.52.79 1.01 1.6 1.49 2.42 10.83-18.61 30.98-31.13 54.07-31.13 34.54 0 62.54 28 62.54 62.55z" fill="#bf2e70"/><g><path d="m262.738 177.415h24.671v138.944h-24.671z" fill="#e7eaf5" transform="matrix(.707 .707 -.707 .707 255.142 -122.195)"/><path d="m273.267 181.776h12.335v138.944h-12.335z" fill="#d9dced" transform="matrix(.707 .707 -.707 .707 259.504 -124.001)"/><path d="m193.998 271.526h49.342v63.531h-49.342z" fill="#c8cde3" transform="matrix(.707 .707 -.707 .707 278.506 -65.79)"/><path d="m215.055 280.249h24.671v63.531h-24.671z" fill="#b1b7cb" transform="matrix(.707 .707 -.707 .707 287.229 -69.403)"/><path d="m114.424 328.163h31.683v127.063h-31.683z" fill="#c8cde3" transform="matrix(.707 .707 -.707 .707 315.124 22.613)"/><path d="m127.946 333.764h15.842v127.063h-15.842z" fill="#b1b7cb" transform="matrix(.707 .707 -.707 .707 320.725 20.293)"/><path d="m131.684 277.403h98.683v127.063h-98.683z" fill="#d9dced" transform="matrix(.707 .707 -.707 .707 294.098 -28.147)"/><path d="m173.8 294.848h49.342v127.063h-49.342z" fill="#c8cde3" transform="matrix(.707 .707 -.707 .707 311.543 -35.373)"/><path d="m168.69 291.729h24.671v98.41h-24.671z" fill="#c8cde3" transform="matrix(.707 .707 -.707 .707 294.098 -28.147)"/><path d="m179.219 296.09h12.335v98.41h-12.335z" fill="#b1b7cb" transform="matrix(.707 .707 -.707 .707 298.46 -29.954)"/><path d="m169.576 293.098h98.683v19.89h-98.683z" fill="#e7eaf5" transform="matrix(.707 .707 -.707 .707 278.403 -66.039)"/><path d="m211.691 310.543h49.342v19.89h-49.342z" fill="#d9dced" transform="matrix(.707 .707 -.707 .707 295.848 -73.265)"/><path d="m52.845 377.26h154.842v28.869h-154.842z" fill="#e7eaf5" transform="matrix(.707 .707 -.707 .707 315.124 22.613)"/><path d="m118.928 404.632h77.421v28.869h-77.421z" fill="#d9dced" transform="matrix(.707 .707 -.707 .707 342.496 11.275)"/><path d="m131.02 467.29-7.69 7.69c-15.61-9.48-30.11-20.57-43.29-33.06-13.12-12.41-24.93-26.21-35.2-41.15l9.83-9.83z" fill="#e7eaf5"/><path d="m131.02 467.29-7.69 7.69c-15.61-9.48-30.11-20.57-43.29-33.06l12.81-12.81z" fill="#d9dced"/></g><path d="m404.62 177.36c-26.83 7.16-56.64.22-77.69-20.82-21.05-21.05-27.99-50.86-20.82-77.69 26.83-7.17 56.64-.23 77.69 20.82s27.98 50.86 20.82 77.69z" fill="#a8ea58"/><path d="m404.62 177.36-98.51-98.51c26.83-7.17 56.64-.23 77.69 20.82s27.98 50.86 20.82 77.69z" fill="#78cd8a"/></g></svg>