<svg id="Capa_1" enable-background="new 0 0 512 512" height="512" viewBox="0 0 512 512" width="512" xmlns="http://www.w3.org/2000/svg"><g><g><path d="m512 256c0 141.387-114.613 256-256 256s-256-114.613-256-256 114.613-256 256-256 256 114.613 256 256zm0 0" fill="#8bfff4"/><path d="m512 256c0 26.051-3.891 51.191-11.129 74.871-5.031 16.469-11.672 32.231-19.75 47.109-8.25 15.2-147.391 26.115-225.121 26.115s-216.871-10.915-225.109-26.115c-3.289-6.031-6.332-12.21-9.121-18.531-14-31.629-21.77-66.629-21.77-103.449 0-46.219 12.25-89.57 33.68-127 44.121 77.07 127.16 129 222.32 129s178.211-51.93 222.32-129c21.43 37.43 33.68 80.781 33.68 127zm0 0" fill="#2dceea"/><path d="m481.262 377.699c-7.16 13.223-15.434 25.742-24.723 37.43-8.437 10.633-17.719 20.57-27.719 29.723-45.539 41.699-106.211 67.148-172.82 67.148s-127.281-25.449-172.82-67.148c-10-9.153-19.282-19.09-27.719-29.723-9.289-11.688-17.563-24.207-24.723-37.43zm0 0" fill="#429dea"/></g><g><path d="m213.46 152 101.87 127.969-154.252-21.094-85.078-106.875z" fill="#576ceb"/><path d="m193.765 152h-117.765l85.078 106.875 32.687 4.47z" fill="#7686eb"/><path d="m436 152h-137.461l-42.539 53.438-59.331 116.718 154.252-63.281z" fill="#4d34b0"/><path d="m196.669 279.969 59.331-8.114v-66.417z" fill="#6c3beb"/><path d="m350.921 258.875h-94.921l-94.922 84.368h189.843z" fill="#ff7040"/><path d="m161.078 258.875h94.922v84.368h-94.922z" fill="#ff903d"/><path d="m256 279.969-58.008 116.016 58.008 116.015c64.074 0 116.016-51.942 116.016-116.016s-51.943-116.015-116.016-116.015z" fill="#ff903d"/><path d="m139.984 395.984c0 64.074 51.942 116.016 116.016 116.016v-232.031c-64.074 0-116.016 51.942-116.016 116.015z" fill="#ffb03b"/><path d="m256 322.156-36.914 73.828 36.914 73.828c40.774 0 73.828-33.054 73.828-73.828s-33.054-73.828-73.828-73.828z" fill="#ffb03b"/><path d="m182.171 395.984c0 40.774 33.054 73.828 73.828 73.828v-147.656c-40.774 0-73.828 33.054-73.828 73.828z" fill="#ffc46c"/><path d="m182.171 395.984c0 40.774 33.054 73.828 73.828 73.828-54.447 0-54.447-147.656 0-147.656-40.774 0-73.828 33.054-73.828 73.828z" fill="#ffd391"/></g><g fill="#fff"><path d="m274.109 55.725h-1.524c-6.754 0-12.226-5.477-12.226-12.227v-1.523h-8.715v1.523c0 6.75-5.477 12.227-12.227 12.227h-1.527v8.715h1.527c6.75 0 12.227 5.472 12.227 12.226v1.528h8.715v-1.528c0-6.754 5.472-12.226 12.226-12.226h1.524zm0 0"/><path d="m383.645 92.992h-1.524c-6.754 0-12.226-5.477-12.226-12.227v-1.523h-8.715v1.523c0 6.75-5.477 12.227-12.227 12.227h-1.527v8.715h1.527c6.75 0 12.227 5.472 12.227 12.226v1.528h8.715v-1.528c0-6.754 5.472-12.226 12.226-12.226h1.524zm0 0"/><path d="m164.574 92.992h-1.524c-6.754 0-12.226-5.477-12.226-12.227v-1.523h-8.715v1.523c0 6.75-5.477 12.227-12.227 12.227h-1.527v8.715h1.527c6.75 0 12.227 5.472 12.227 12.226v1.528h8.715v-1.528c0-6.754 5.472-12.226 12.226-12.226h1.524zm0 0"/></g></g></svg>