<?xml version="1.0" encoding="iso-8859-1"?>
<!-- Generator: Adobe Illustrator 19.0.0, SVG Export Plug-In . SVG Version: 6.00 Build 0)  -->
<svg version="1.1" id="Layer_1" xmlns="http://www.w3.org/2000/svg" xmlns:xlink="http://www.w3.org/1999/xlink" x="0px" y="0px"
	 viewBox="0 0 512 512" style="enable-background:new 0 0 512 512;" xml:space="preserve">
<circle style="fill:#FF3D62;" cx="256" cy="255.996" r="255.996"/>
<path style="fill:#C2001B;" d="M511.484,272.108l-82.486-82.486L256.003,68.126L83.009,189.622v220.001l87.859,87.859
	C197.505,506.874,226.154,512,256.004,512C391.976,512,503.169,405.986,511.484,272.108z"/>
<polygon style="fill:#FEC000;" points="256.003,68.126 83.009,189.622 83.009,409.623 428.998,409.623 428.998,189.622 "/>
<polygon style="fill:#D9A600;" points="428.998,189.622 256.003,68.126 256,68.128 256,409.623 428.998,409.623 "/>
<rect x="107.627" y="110.465" style="fill:#FFFFFF;" width="296.747" height="282.463"/>
<rect x="256" y="110.465" style="fill:#E1E1E3;" width="148.373" height="282.463"/>
<g>
	<rect x="162.149" y="203.042" style="fill:#EBB300;" width="187.703" height="17.24"/>
	<rect x="162.149" y="248.964" style="fill:#EBB300;" width="187.703" height="17.24"/>
</g>
<rect x="256" y="248.964" style="fill:#D9A600;" width="93.851" height="17.238"/>
<polygon style="fill:#FFDF47;" points="256.003,294.099 83.009,189.622 83.009,409.623 256.003,409.623 428.998,409.623 
	428.998,189.622 "/>
<polygon style="fill:#FFD400;" points="256.003,294.099 256,294.097 256,409.623 256.003,409.623 428.998,409.623 428.998,189.622 
	"/>
<polygon style="fill:#FFEC97;" points="83.009,409.623 256.003,294.099 428.998,409.623 "/>
<rect x="162.149" y="157.13" style="fill:#EBB300;" width="187.703" height="17.238"/>
<g>
	<rect x="256" y="157.13" style="fill:#D9A600;" width="93.851" height="17.24"/>
	<rect x="256" y="203.042" style="fill:#D9A600;" width="93.851" height="17.24"/>
</g>
<polygon style="fill:#FFDF47;" points="428.998,409.623 256.003,294.099 256,294.101 256,409.623 "/>
<g>
</g>
<g>
</g>
<g>
</g>
<g>
</g>
<g>
</g>
<g>
</g>
<g>
</g>
<g>
</g>
<g>
</g>
<g>
</g>
<g>
</g>
<g>
</g>
<g>
</g>
<g>
</g>
<g>
</g>
</svg>
