<svg id="Icons" enable-background="new 0 0 512 512" height="512" viewBox="0 0 512 512" width="512" xmlns="http://www.w3.org/2000/svg"><g><path d="m512 256c0 53.09-16.17 102.41-43.84 143.3-3.15 4.65-6.44 9.2-9.88 13.62-3.82 4.92-7.81 9.69-11.97 14.3-1.4 1.57-2.83 3.11-4.28 4.64-.93.98-1.87 1.95-2.81 2.92-.86.89-1.74 1.77-2.62 2.64-2.63 2.63-5.32 5.19-8.06 7.7-.98.9-1.97 1.78-2.96 2.66-.45.4-.9.8-1.36 1.19-1.87 1.64-3.76 3.24-5.68 4.81-.22.18-.44.36-.66.54-1.05.86-2.11 1.71-3.17 2.55-.94.75-1.9 1.5-2.87 2.24-.72.55-1.44 1.1-2.17 1.65-.57.43-1.14.85-1.71 1.27-.55.41-1.09.81-1.64 1.2-.05.04-.1.08-.15.11-.77.56-1.54 1.11-2.32 1.66-.72.51-1.44 1.02-2.16 1.52-.74.51-1.48 1.02-2.22 1.53-.96.65-1.93 1.3-2.9 1.94-.86.56-1.72 1.12-2.59 1.68-.1.07-.19.13-.29.19-.78.49-1.56.98-2.35 1.48-.64.39-1.28.79-1.92 1.18-.75.47-1.5.92-2.25 1.36-.89.54-1.78 1.07-2.68 1.58-.12.08-.25.15-.38.22-1.03.6-2.05 1.19-3.09 1.76-1.16.66-2.33 1.3-3.5 1.93-1.96 1.06-3.93 2.1-5.92 3.1-.69.35-1.39.7-2.08 1.04-1.3.65-2.62 1.29-3.94 1.91-.46.22-.93.44-1.4.66-4 1.88-8.06 3.64-12.17 5.3-.21.09-.43.18-.65.26-.16.07-.33.13-.49.2-.89.36-1.78.71-2.68 1.05l-.93.36c-.83.32-1.67.64-2.51.95-.24.09-.48.18-.73.26-1.96.72-3.93 1.42-5.92 2.09-.18.06-.36.12-.55.18-.8.27-1.6.54-2.41.8 0 .01-.01.01-.02.01-.92.3-1.85.59-2.78.88-.79.25-1.59.49-2.39.73-1.31.39-2.62.78-3.94 1.15-.67.19-1.33.38-2 .56-2 .55-4.01 1.08-6.03 1.58-1.05.26-2.1.52-3.15.76-1.17.28-2.34.54-3.51.8-2.27.51-4.56.98-6.86 1.42-2.31.44-4.63.85-6.97 1.23-.79.13-1.58.25-2.37.37-.64.1-1.28.2-1.93.29-1.66.25-3.33.48-5.01.68-.63.08-1.26.16-1.9.23-.01.01-.02.01-.03 0-1.77.22-3.54.41-5.32.57-.36.04-.72.07-1.07.1-.94.1-1.88.18-2.81.25-1.09.09-2.18.17-3.27.25-.1 0-.2.01-.31.02-1.11.07-2.22.14-3.34.2h-.01c-4.57.26-9.19.38-13.82.39h-.29c-1.07 0-2.13-.01-3.19-.03-.69 0-1.39-.01-2.08-.03-.01.01-.02 0-.02 0-.92-.01-1.83-.04-2.75-.07-.58-.01-1.15-.03-1.73-.06-.82-.02-1.64-.06-2.46-.1-.03 0-.07 0-.1-.01-.71-.03-1.42-.07-2.13-.11-.91-.04-1.81-.1-2.71-.16-.35-.03-.7-.05-1.06-.07-.27-.02-.53-.04-.79-.06-.92-.06-1.84-.14-2.76-.22-.41-.03-.83-.07-1.25-.1-1.29-.12-2.58-.24-3.87-.38-1.39-.14-2.77-.3-4.16-.47-.16-.02-.32-.04-.49-.06-2.85-.34-5.68-.74-8.5-1.19-1.42-.22-2.83-.46-4.24-.7-1.34-.24-2.68-.48-4.01-.74-.38-.07-.75-.14-1.12-.22-2.24-.43-4.47-.9-6.68-1.4-.56-.12-1.13-.25-1.69-.38-2.54-.58-5.06-1.2-7.56-1.87-.12-.02-.23-.06-.35-.09-.23-.06-.45-.12-.68-.18-.08-.02-.15-.04-.23-.06-.73-.2-1.45-.4-2.17-.6-.37-.09-.73-.19-1.09-.3h-.01c-3.49-.98-6.96-2.04-10.39-3.18-1.15-.38-2.28-.76-3.42-1.16-1.12-.38-2.23-.78-3.33-1.18-1.11-.4-2.21-.8-3.31-1.22-1.1-.41-2.2-.84-3.29-1.27-1.1-.42-2.18-.86-3.27-1.31-.81-.33-1.62-.66-2.43-1.01-.95-.4-1.9-.8-2.84-1.22-.95-.41-1.89-.83-2.83-1.25-.6-.27-1.19-.54-1.78-.81-.69-.31-1.38-.63-2.07-.96-.66-.31-1.31-.62-1.97-.94-.62-.29-1.24-.59-1.86-.9-.6-.3-1.2-.59-1.8-.9-1.27-.62-2.53-1.27-3.78-1.93-1.17-.61-2.34-1.23-3.5-1.86-1.06-.57-2.11-1.15-3.16-1.74-.37-.2-.73-.4-1.09-.61-.68-.38-1.34-.76-2.01-1.15-.61-.35-1.23-.71-1.84-1.08-.69-.4-1.38-.81-2.07-1.23-.77-.46-1.54-.93-2.3-1.4-.88-.54-1.76-1.09-2.64-1.65-.66-.42-1.32-.84-1.98-1.27-.85-.54-1.69-1.1-2.53-1.65-1.1-.73-2.2-1.47-3.28-2.22-1.14-.78-2.28-1.57-3.4-2.37-.72-.51-1.45-1.03-2.17-1.56-.73-.53-1.45-1.05-2.16-1.59-.63-.46-1.24-.95-1.86-1.42-.41-.3-.81-.6-1.21-.9-1.05-.8-2.1-1.61-3.14-2.44-1.03-.8-2.04-1.62-3.05-2.44-1.01-.83-2.01-1.66-3.01-2.5-1.23-1.03-2.46-2.08-3.68-3.14-.95-.83-1.89-1.66-2.82-2.51-.01 0-.01-.01-.01-.01-.46-.42-.93-.85-1.39-1.26-.57-.51-1.14-1.03-1.7-1.57-.31-.28-.62-.57-.93-.87-.24-.22-.47-.45-.71-.67-.04-.02-.07-.05-.1-.09-.77-.72-1.54-1.46-2.3-2.21-1.3-1.25-2.59-2.53-3.86-3.82-.64-.65-1.28-1.31-1.91-1.97-.31-.3-.6-.61-.88-.92-.74-.77-1.47-1.54-2.2-2.32-.37-.4-.73-.8-1.1-1.2-.35-.38-.69-.74-1.04-1.12-.15-.15-.28-.3-.42-.45-.21-.22-.42-.44-.62-.67-2.68-2.97-5.28-6-7.81-9.09-2.31-2.82-4.56-5.68-6.75-8.6-5.2-6.93-10.06-14.14-14.55-21.59-3.53-5.86-6.84-11.88-9.9-18.04l-.01-.01c-2.97-5.97-5.72-12.07-8.22-18.3-11.9-29.53-18.45-61.8-18.45-95.59 0-76.96 33.96-145.99 87.72-192.92 0-.01.01-.01.01-.01 2.39-2.09 4.81-4.12 7.27-6.11 3.54-2.87 7.15-5.64 10.85-8.32 25.16-18.25 53.78-32.04 84.68-40.18 3.67-.98 7.36-1.86 11.09-2.67 4.65-1.01 9.36-1.89 14.1-2.63 8.91-1.42 17.98-2.37 27.17-2.83 1.8-.09 3.61-.16 5.42-.21h.01c2.56-.08 5.11-.12 7.68-.12 141.38 0 256 114.62 256 256z" fill="#22bce0"/><g><g><g><path d="m90.416 210.257c.051 8.938-7.335 16.589-16.558 16.558-16.601-.145-22.633-21.624-8.919-30.515 10.69-7.06 25.67 1.038 25.477 13.957z" fill="#bf5e39"/><path d="m90.416 210.257c0 2.285-.468 4.473-1.308 6.455-13.616 8.732-30.486-5.464-24.169-20.412 10.691-7.062 25.67 1.04 25.477 13.957z" fill="#dd5e26"/><path d="m86.18 205.579c0-4.323-3.504-7.827-7.827-7.827-10.372.384-10.369 15.273 0 15.655 4.323 0 7.827-3.505 7.827-7.828z" fill="#f39e22"/></g><g><path d="m80.04 148.703c.066 11.53-9.462 21.399-21.36 21.359-21.416-.187-29.196-27.895-11.505-39.363 13.891-9.081 33.035 1.272 32.865 18.004z" fill="#bf5e39"/><path d="m80.04 148.703c0 2.947-.604 5.77-1.687 8.327-17.649 11.227-39.276-6.972-31.178-26.331 13.892-9.083 33.036 1.275 32.865 18.004z" fill="#dd5e26"/><path d="m74.576 142.67c0-5.576-4.521-10.097-10.097-10.097-13.394.532-13.39 19.664 0 20.194 5.577 0 10.097-4.521 10.097-10.097z" fill="#f39e22"/></g><g><path d="m129.32 69.89c.061 11.528-9.462 21.4-21.36 21.36-14.342.271-25.025-14.745-20.23-28.18 5.831-5.088 11.853-9.887 18.12-14.43 12.467-1.318 23.545 8.719 23.47 21.25z" fill="#bf5e39"/><path d="m129.32 69.89c0 2.95-.61 5.77-1.69 8.33-15.268 9.931-35.507-3.143-32.63-21.26 3.54-2.87 7.15-5.64 10.85-8.32 12.467-1.318 23.545 8.719 23.47 21.25z" fill="#dd5e26"/><path d="m123.852 63.86c0-5.576-4.521-10.097-10.097-10.097-13.394.532-13.39 19.664 0 20.194 5.576 0 10.097-4.521 10.097-10.097z" fill="#f39e22"/></g></g><g><g><path d="m211.872 231.721c.051 8.938-7.335 16.589-16.558 16.558-16.601-.145-22.633-21.624-8.919-30.515 10.69-7.06 25.67 1.038 25.477 13.957z" fill="#b82065"/><path d="m211.872 231.721c0 2.285-.468 4.473-1.308 6.455-13.616 8.732-30.486-5.464-24.169-20.412 10.691-7.062 25.67 1.04 25.477 13.957z" fill="#d7156f"/><path d="m207.637 227.043c0-4.323-3.504-7.827-7.827-7.827-10.372.384-10.369 15.273 0 15.655 4.322 0 7.827-3.505 7.827-7.828z" fill="#ed72ab"/></g><g><path d="m201.625 162.085c.066 11.53-9.462 21.399-21.36 21.359-21.416-.187-29.196-27.895-11.505-39.363 13.89-9.081 33.035 1.272 32.865 18.004z" fill="#b82065"/><path d="m201.625 162.085c0 2.947-.604 5.77-1.687 8.327-17.649 11.227-39.276-6.972-31.178-26.331 13.892-9.083 33.035 1.275 32.865 18.004z" fill="#d7156f"/><path d="m196.161 156.052c0-5.576-4.521-10.097-10.097-10.097-13.394.532-13.39 19.664 0 20.194 5.576 0 10.097-4.521 10.097-10.097z" fill="#ed72ab"/></g><g><path d="m267.072 98.044c.066 11.53-9.462 21.399-21.36 21.359-21.416-.187-29.196-27.895-11.505-39.363 13.891-9.082 33.035 1.272 32.865 18.004z" fill="#b82065"/><path d="m267.072 98.044c0 2.947-.604 5.77-1.687 8.327-17.649 11.227-39.276-6.972-31.178-26.331 13.892-9.084 33.035 1.275 32.865 18.004z" fill="#d7156f"/><path d="m261.608 92.01c0-5.576-4.521-10.097-10.097-10.097-13.394.532-13.39 19.664 0 20.194 5.576 0 10.097-4.52 10.097-10.097z" fill="#ed72ab"/></g><g><path d="m253.3 17.28c.099 17.286-14.183 32.082-32.02 32.02-20.927.339-36.786-20.885-30.75-40.84 18.866-4.989 38.186-7.774 57.79-8.34 3.15 4.96 4.98 10.84 4.98 17.16z" fill="#b82065"/><path d="m253.3 17.28c0 4.42-.9 8.65-2.53 12.48-19.814 13.064-47.238-.357-49.15-23.97 15.322-3.305 30.912-5.224 46.7-5.67 3.15 4.96 4.98 10.84 4.98 17.16z" fill="#d7156f"/><path d="m245.11 8.23c0 8.36-6.78 15.14-15.14 15.14-10.264.203-17.853-10.654-14.25-20.21 8.91-1.42 17.98-2.37 27.17-2.83 1.41 2.3 2.22 5 2.22 7.9z" fill="#ed72ab"/></g></g><g id="Pitcher_5_"><g><path d="m259.211 409.529c-1.654 9.953-10.674 17.84-21.006 17.691h-85.765c-15.141.208-26.195-16.199-19.159-30.559 10.028-20.611 30.446-63.004 40.351-83.38 3.464-7.264 11.099-12.055 19.166-12.011h5.049c6.713-.04 13.306 3.322 17.219 8.776 1.47 1.574 10.242 20.631 11.473 22.933.15.302 18.153 37.482 18.289 37.787 0 0 12.536 25.896 12.536 25.896 2.06 4.251 2.565 8.708 1.847 12.867z" fill="#c1b7d3"/><path d="m175.129 264.463h40.384v61.021h-40.384z" fill="#c1b7d3"/><path d="m259.211 409.529h-81.121c-15.705 0-26.008-16.429-19.166-30.566l37.608-77.693c8.588-.431 16.743 4.223 20.475 12.011 0 0 40.358 83.38 40.358 83.38 2.059 4.252 2.564 8.709 1.846 12.868z" fill="#ebd9ea"/><path d="m217.976 327.689h-2.272c-3.672 0-7.021 2.099-8.62 5.405l-18.156 37.51c-3.078 6.36 1.555 13.75 8.62 13.75h38.585c7.066 0 11.699-7.39 8.62-13.75l-18.156-37.51c-1.601-3.305-4.949-5.405-8.621-5.405z" fill="#fff"/><path d="m190.778 277.24h24.735v38.722h-24.735z" fill="#ebd9ea"/><path d="m207.721 315.962c-4.303 0-7.792-3.489-7.792-7.792v-17.254c.38-10.32 15.202-10.326 15.584 0v17.254c0 4.303-3.489 7.792-7.792 7.792z" fill="#fff"/><path d="m247.459 425.127c-2.757 1.335-5.879 2.093-9.254 2.093h-85.765c-3.375 0-6.497-.757-9.254-2.086.937-4.019 4.537-7.009 8.842-7.009h86.589c4.267.001 7.885 2.937 8.842 7.002z" fill="#9f90ae"/></g><g><path d="m234.917 267.323c.007 5.504-4.468 10.02-10.025 10.018h-59.145c-3.138-.01-5.909-1.413-7.773-3.707v-.007c-5.306-6.287-.582-16.445 7.773-16.329h59.145c5.533-.01 10.034 4.517 10.025 10.025z" fill="#ebd9ea"/><path d="m232.678 273.634c-1.84 2.265-4.644 3.707-7.786 3.707h-59.145c-3.139-.01-5.909-1.413-7.773-3.707v-.007c1.834-2.265 4.63-3.707 7.773-3.707h59.145c3.137.009 5.92 1.417 7.786 3.714z" fill="#c1b7d3"/><path d="m232.519 260.819c-1.84 2.152-4.571 3.521-7.626 3.521h-59.145c-3.056-.007-5.755-1.343-7.62-3.521 1.834-2.152 4.564-3.521 7.62-3.521h59.145c3.049.007 5.762 1.342 7.626 3.521z" fill="#fff"/></g><g><path d="m226.486 409.29c-.84.157-1.698.24-2.591.239h-57.145c-10.08.142-17.462-10.831-12.768-20.362 3.993-8.27 23.342-48.202 26.892-55.558 2.365-4.889 7.328-8.005 12.762-8.005h3.368c5.36-.008 10.405 3.099 12.768 8.005 0 0 3.235 6.69 3.235 6.69l16.748 34.598 6.902 14.27c4.172 8.61-1.209 18.508-10.171 20.123z" fill="#d7156f"/><path d="m226.486 409.29s0 .007-.007 0c-4.391-.804-8.204-3.654-10.197-7.766l-26.892-55.551c-4.165-8.616 1.216-18.508 10.171-20.129 0 0 0-.007.007 0 4.391.804 8.211 3.66 10.204 7.766l26.885 55.558c4.172 8.609-1.209 18.507-10.171 20.122z" fill="#df3d81"/><path d="m184.527 364.587-21.518 44.45c-8.258-2.219-13.014-11.632-9.028-19.87l21.518-44.45c8.258 2.219 13.014 11.626 9.028 19.87z" fill="#b82065"/><path d="m229.755 374.897c-2.812-.127-12.047.386-14.609-.491-8.258-2.219-13.014-11.633-9.028-19.87l6.889-14.237z" fill="#ed72ab"/></g></g><g id="Pitcher_6_"><g><path d="m120.73 396.66c-12.352-25.062-29.162-61.134-41.85-85.97v-.01c-.01-.01-.01-.02-.02-.02-.09-.13-.18-.26-.26-.39h-.01s0 0 0-.01c-.227-.324-.465-.623-.7-.93 0-.01-.01-.01-.01-.01-1.498-1.886-3.326-3.514-5.36-4.8-.01 0-.01-.01-.02-.01-2.824-1.759-6.036-2.861-9.37-3.15-1.31-.189-5.586-.046-6.97-.09-7.053-.015-13.765 3.574-17.67 9.41-1.68 2.361-18.584 38.172-20.04 40.91 11.165 27.751 27.237 53.429 47.24 75.63h35.88c3.37 0 6.5-.76 9.25-2.09 10.442-4.997 15.14-17.922 9.91-28.47z" fill="#c1b7d3"/><path d="m38.492 264.463h40.384v61.021h-40.384z" fill="#c1b7d3"/><path d="m122.57 409.53h-71.44c-9.317-12.421-17.523-25.695-24.45-39.63 10.413-21.542 22.858-47.216 33.22-68.63 4.41-.176 8.869.868 12.6 3.24.01 0 .01.01.02.01 2.033 1.286 3.862 2.914 5.36 4.8 0 0 .01 0 .01.01.235.307.473.606.7.93v.01s0 0 0 .01c.1.12.19.25.27.38.01 0 .01.01.02.02v.01c7.33 13.848 22.242 45.829 29.37 60.2 0 0 12.48 25.77 12.48 25.77 2.06 4.25 2.56 8.71 1.84 12.87z" fill="#ebd9ea"/><path d="m81.339 327.689h-2.272c-3.672 0-7.021 2.099-8.62 5.405l-18.156 37.51c-3.078 6.36 1.555 13.75 8.62 13.75h38.585c7.066 0 11.699-7.39 8.62-13.75l-18.156-37.51c-1.6-3.305-4.949-5.405-8.621-5.405z" fill="#fff"/><path d="m54.141 277.24h24.735v38.722h-24.735z" fill="#ebd9ea"/><path d="m71.084 315.962c-4.303 0-7.792-3.489-7.792-7.792v-17.254c.38-10.32 15.202-10.326 15.584 0v17.254c0 4.303-3.488 7.792-7.792 7.792z" fill="#fff"/><path d="m110.82 425.13c-2.75 1.33-5.88 2.09-9.25 2.09h-35.88c-2.68-2.97-5.28-6-7.81-9.09h44.1c4.264-.002 7.888 2.932 8.84 7z" fill="#9f90ae"/></g><g><path d="m98.28 267.323c.007 5.504-4.468 10.02-10.025 10.018h-59.145c-3.138-.01-5.909-1.413-7.773-3.707v-.007c-5.306-6.287-.582-16.445 7.773-16.329h59.145c5.533-.01 10.034 4.517 10.025 10.025z" fill="#ebd9ea"/><path d="m96.041 273.634c-1.84 2.265-4.644 3.707-7.786 3.707h-59.145c-3.139-.01-5.909-1.413-7.773-3.707v-.007c1.834-2.265 4.63-3.707 7.773-3.707h59.145c3.138.009 5.92 1.417 7.786 3.714z" fill="#c1b7d3"/><path d="m95.882 260.819c-1.84 2.152-4.571 3.521-7.626 3.521h-59.146c-3.056-.007-5.755-1.343-7.62-3.521 1.834-2.152 4.564-3.521 7.62-3.521h59.145c3.05.007 5.764 1.342 7.627 3.521z" fill="#fff"/></g><g><path d="m26.68 369.9c6.927 13.935 15.133 27.21 24.45 39.63.976-.129 38.995.288 38.709-.24 8.966-1.598 14.352-11.509 10.181-20.12-1.429-2.951-5.409-11.192-6.9-14.27 0 0-16.75-34.6-16.75-34.6-.516-1.008-3.398-7.222-3.98-8.03-2.08-3.343-5.595-5.737-9.47-6.43-1.564-.392-4.298-.188-5.92-.24-5.4 0-10.32 3.07-12.7 7.9-.02.04-.04.07-.06.11l-5.38 11.11-12.19 25.17z" fill="#dd5e26"/><path d="m89.85 409.29s0 .007-.007 0c-4.391-.804-8.204-3.654-10.197-7.766l-26.892-55.551c-4.165-8.616 1.216-18.508 10.171-20.129 0 0 0-.007.007 0 4.391.804 8.211 3.66 10.204 7.766l26.885 55.558c4.172 8.609-1.209 18.507-10.171 20.122z" fill="#ea792e"/><path d="m26.67 369.89 12.19-25.17c8.26 2.22 13.02 11.62 9.03 19.87l-11.31 23.35c-3.536-5.861-6.837-11.893-9.91-18.05z" fill="#bf5e39"/><path d="m93.118 374.897c-2.812-.127-12.047.386-14.609-.491-8.258-2.219-13.014-11.633-9.028-19.87l6.889-14.237z" fill="#f39e22"/></g></g></g><g><path d="m446.3 427.22c-101.508 113.06-279.295 112.836-380.6 0z" fill="#d48d77"/><g fill="#c17e62"><path d="m259.52 427.22c.63 11.488-23.449 20.994-38.22 24.63-36.558 9.478-78.649 11.551-117.67 9.87-13.762-10.201-26.464-21.772-37.93-34.5z"/><path d="m446.3 427.22c-11.092 12.334-23.364 23.578-36.63 33.54-18.659 2.701-39.735 2.919-58.31.74-19.931-2.132-64.749-11.484-65.94-34.28z"/><g><path d="m172.315 498v-53.56c-.089-6.089 7.607-9.213 11.79-4.89 1.26 1.25 2.03 2.98 2.03 4.89v57.9z"/><path d="m156.455 427.22v24.17c0 3.82-3.09 6.91-6.91 6.91-3.81 0-6.91-3.09-6.91-6.91v-24.17z"/><path d="m121.785 427.22v46.81c-4.71-2.9-9.32-5.96-13.82-9.16v-37.65z"/><path d="m87.685 434.76v14.12c-4.77-4.17-9.38-8.5-13.82-13.01-.778-9.896 13.24-10.961 13.82-1.11z"/><path d="m235.115 427.22v56.83c0 3.82-3.09 6.91-6.91 6.91s-6.91-3.09-6.91-6.91v-56.83z"/><path d="m270.125 483.74v27.87c-4.58.26-9.19.38-13.83.39v-28.26c.328-9.149 13.497-9.141 13.83 0z"/><path d="m311.315 450.09v55.91c-4.56 1.01-9.17 1.9-13.82 2.65v-58.56c.309-9.148 13.509-9.144 13.82 0z"/><path d="m351.365 427.22v66.43c-4.54 1.82-9.15 3.52-13.82 5.09v-71.52z"/><path d="m391.335 450.09v23.26c-4.52 2.81-9.12 5.49-13.82 8.02v-31.28c.275-9.133 13.551-9.136 13.82 0z"/><path d="m428.535 427.22v17.9c-4.46 4.08-9.07 8-13.82 11.75v-29.65z"/></g></g><g fill="#a26d5a"><path d="m186.14 444.44v14.16c-4.47.59-9.08 1.12-13.82 1.57v-15.73c.311-9.15 13.51-9.141 13.82 0z"/><path d="m156.455 427.22v24.17c0 3.82-3.09 6.91-6.91 6.91-3.81 0-6.91-3.09-6.91-6.91v-24.17z"/><path d="m121.79 427.22v35.02c-4.68-.05-9.29-.16-13.83-.33v-34.69z"/><path d="m87.685 434.76v14.12c-4.77-4.17-9.38-8.5-13.82-13.01-.778-9.896 13.24-10.961 13.82-1.11z"/><path d="m235.11 427.22v20.28c-4.16 1.55-8.78 3-13.81 4.35v-24.63z"/><path d="m311.32 450.09v1.98c-4.69-1.88-8.85-3.96-12.39-6.2 3.852-5.165 12.472-2.315 12.39 4.22z"/><path d="m351.36 427.22v34.28c-4.78-.54-9.39-1.24-13.81-2.06v-32.22z"/><path d="m391.34 450.09v12.49c-4.504.272-9.127.402-13.82.4v-12.89c.277-9.142 13.553-9.129 13.82 0z"/><path d="m428.535 427.22v17.9c-4.46 4.08-9.07 8-13.82 11.75v-29.65z"/></g></g><g id="Microscope_2_"><g><path d="m468.16 399.3c-6.632 9.801-13.935 19.146-21.85 27.92h-140.94c-17.732-.05-26.491-21.424-14.25-33.9 3.62-3.7 8.67-5.99 14.25-5.99h144.52c8.101.017 15.126 4.795 18.27 11.97z" fill="#57409b"/><path d="m458.28 412.92c-3.82 4.92-7.81 9.69-11.97 14.3h-140.94c-6.559-.02-12.319-3.092-16.03-8.07 3.63-4.91 9.45-8.09 16.03-8.09h144.52c2.99 0 5.84.66 8.39 1.86z" fill="#2d2667"/><path d="m464.129 393.32c-3.618 3.69-8.662 5.982-14.24 5.982h-144.524c-5.575-.005-10.62-2.281-14.24-5.982 3.618-3.697 8.662-5.989 14.24-5.989h144.523c5.575.004 10.62 2.281 14.241 5.989z" fill="#6c53a2"/></g><g><g><path d="m482.657 267.894c-1.361 104.632-135.311 144.306-193.24 57.019-6.104-10.27 8.253-19.555 15.127-9.793 47.888 72.371 159.12 39.32 160.097-47.226 0-21.346-7.805-41.878-21.98-57.812-3.308-3.719-2.976-9.412.742-12.72 3.719-3.308 9.412-2.969 12.72.742 17.108 19.235 26.534 44.019 26.534 69.79z" fill="#57409b"/></g><path d="m441.096 351.521c-46.599 36.77-119.869 24.479-151.679-26.608-2.703-4.172-1.514-9.75 2.666-12.452 4.173-2.703 9.751-1.513 12.46 2.659 27.092 43.579 90.192 52.754 128.495 19.811 3.136 5.261 5.838 10.81 8.058 16.59z" fill="#2d2667"/><path d="m482.657 267.894c0 5.124-.367 10.169-1.081 15.098-6.075-.692-11.985-1.917-17.685-3.625 3.353-24.884-4.475-50.58-21.231-69.285-3.308-3.719-2.976-9.412.742-12.72 3.719-3.308 9.412-2.969 12.72.742 17.109 19.235 26.535 44.019 26.535 69.79z" fill="#6c53a2"/></g><g><path d="m387.217 103.433-74.41 74.41c-3.47 3.47-5.351 7.929-5.656 12.475-.366 5.554 1.646 11.051 5.656 15.063l23.176 23.176c7.414 7.529 20.039 7.622 27.538 0 0 0 74.41-74.41 74.41-74.41 7.699-7.649 7.478-20.128 0-27.538 0 0-23.176-23.176-23.176-23.176-7.406-7.468-19.89-7.699-27.538 0z" fill="#c2aacf"/><path d="m421.92 138.136-74.41 74.41c-5.362 5.29-7.128 13.533-4.495 20.506 7.054 2.598 15.024.967 20.506-4.494 0 0 74.41-74.41 74.41-74.41 5.544-5.544 7.053-13.606 4.495-20.506-6.9-2.559-14.961-1.05-20.506 4.494z" fill="#a583bb"/><path d="m387.217 103.433-74.41 74.41c-5.481 5.507-7.107 13.522-4.459 20.592 6.992 2.674 15.276.922 20.587-4.464 0 0 74.41-74.41 74.41-74.41 5.57-5.57 7.058-13.672 4.464-20.588-6.919-2.598-15.022-1.11-20.592 4.46z" fill="#f0dae2"/><g><path d="m286.475 169.424c-4.436 4.371-4.523 11.796-.002 16.26 0 0 69.208 69.208 69.208 69.208 4.369 4.445 11.828 4.504 16.258 0 4.418-4.347 4.46-11.623.226-16.028-.046-.118-69.321-69.279-69.434-69.438-4.447-4.509-11.873-4.442-16.256-.002z" fill="#57409b"/><path d="m283.123 176.937c-.171 3.142.947 6.345 3.349 8.747l69.208 69.208c2.33 2.336 5.513 3.523 8.747 3.349.193-3.17-1.038-6.473-3.349-8.747 0 0-69.208-69.208-69.208-69.208-2.406-2.398-5.573-3.515-8.747-3.349z" fill="#2d2667"/><path d="m293.836 166.087c-.219 3.196.901 6.453 3.339 8.895 0 0 69.208 69.208 69.208 69.208 2.326 2.349 5.661 3.578 8.899 3.339.221-3.266-.981-6.554-3.343-8.895 0 0-69.208-69.208-69.208-69.208-2.445-2.433-5.668-3.553-8.895-3.339z" fill="#6c53a2"/></g><path d="m311.849 211.058-12.398 12.398c-5.323 5.407-2.818 11.665 2.038 16.541 4.88 4.853 11.135 7.36 16.536 2.033 0 0 12.398-12.398 12.398-12.398z" fill="#ebd9ea"/><path d="m325.164 224.374-12.398 12.398c-2.517 2.517-3.312 5.31-2.854 8.113 2.803.459 5.595-.336 8.113-2.854l12.398-12.398z" fill="#c2aacf"/><path d="m311.849 211.058-12.398 12.398c-2.522 2.523-3.312 5.33-2.849 8.138 2.808.464 5.616-.326 8.138-2.849l12.398-12.398z" fill="#fff"/><path d="m304.927 219.072h26.268v8.698h-26.268z" fill="#c2aacf" transform="matrix(-.707 -.707 .707 -.707 384.982 606.307)"/><path d="m421.044 97.145-6.288 6.288 23.176 23.176 6.288-6.288c1.972-1.972 2.268-4.989.882-7.272-.597-1.061-15.545-15.873-16.572-16.653-2.311-1.537-5.452-1.285-7.486.749z" fill="#57409b"/><path d="m437.835 113.936-6.288 6.288 6.385 6.385 6.288-6.288c1.972-1.972 2.268-4.989.882-7.272-2.283-1.376-5.295-1.085-7.267.887z" fill="#2d2667"/><path d="m421.044 97.145-6.288 6.288 6.742 6.742 6.288-6.288c2.033-2.033 2.283-5.177.744-7.491-2.311-1.537-5.452-1.285-7.486.749z" fill="#6c53a2"/><path d="m341.611 165.168c4.454 4.454 11.675 4.454 16.129 0l28.829-28.829c4.454-4.454 4.454-11.675 0-16.129s-11.675-4.454-16.129 0l-28.829 28.829c-4.454 4.454-4.454 11.675 0 16.129z" fill="#fff"/></g><g><path d="m401.048 363.909c.052 12.719-10.377 23.447-23.422 23.422-24.231-.252-32.182-32.095-11.437-43.867 15.176-8.788 35.115 2.781 34.859 20.445z" fill="#2d2667"/><path d="m401.048 363.909c0 4.151-1.081 8.057-2.983 11.444-20.656 11.357-43.223-11.254-31.875-31.89 15.175-8.79 35.114 2.784 34.858 20.446z" fill="#57409b"/><path d="m392.697 355.93c0-6.221-5.043-11.265-11.265-11.265-14.942.593-14.938 21.938 0 22.529 6.222.001 11.265-5.042 11.265-11.264z" fill="#6c53a2"/></g><g><path d="m444.226 181.329c.052 12.719-10.377 23.447-23.422 23.422-24.231-.252-32.182-32.095-11.437-43.867 15.175-8.789 35.115 2.78 34.859 20.445z" fill="#2d2667"/><path d="m444.226 181.329c0 4.151-1.081 8.057-2.983 11.444-20.656 11.357-43.223-11.254-31.875-31.89 15.175-8.79 35.114 2.784 34.858 20.446z" fill="#57409b"/><path d="m435.875 173.35c0-6.221-5.043-11.265-11.265-11.265-14.942.593-14.938 21.938 0 22.529 6.221.001 11.265-5.043 11.265-11.264z" fill="#6c53a2"/></g><g><path d="m333.27 299.517c.008 4.487-3.656 8.171-8.165 8.165h-70.258c-4.532-.001-8.176-3.676-8.172-8.165-.009-4.479 3.661-8.176 8.172-8.165h70.258c4.538-.001 8.164 3.694 8.165 8.165z" fill="#57409b"/><path d="m331.468 304.634c-1.528 1.881-3.79 3.042-6.363 3.048h-70.258c-2.573 0-4.872-1.189-6.371-3.048 1.528-1.881 3.797-3.042 6.371-3.048h70.258c2.572 0 4.871 1.189 6.363 3.048z" fill="#2d2667"/><path d="m331.569 294.537c-1.527 1.959-3.833 3.171-6.464 3.178h-70.258c-2.63 0-4.973-1.247-6.472-3.178 1.513-1.969 3.844-3.176 6.472-3.185h70.258c2.637 0 4.979 1.247 6.464 3.185z" fill="#6c53a2"/></g><g><path d="m325.104 291.352h-70.258c-.002-5.965 4.837-10.805 10.803-10.803h48.652c5.969.001 10.804 4.837 10.803 10.803z" fill="#ebd9ea"/><path d="m321.969 283.742c-1.96 1.975-4.67 3.193-7.668 3.193h-48.652c-2.999 0-5.711-1.221-7.668-3.193 1.96-1.975 4.67-3.193 7.668-3.193h48.652c2.999.001 5.711 1.222 7.668 3.193z" fill="#fff"/></g></g></g></svg>