<svg id="Capa_1" enable-background="new 0 0 512 512" height="512" viewBox="0 0 512 512" width="512" xmlns="http://www.w3.org/2000/svg"><g><g><path d="m0 256c0 43.79 11 85.02 30.39 121.07l225.61 49.67 225.61-49.67c19.39-36.05 30.39-77.28 30.39-121.07 0-46.63-12.47-90.34-34.26-128-41.698 72.091-399.22 76.52-443.48 0-21.79 37.66-34.26 81.37-34.26 128z" fill="#eebf36"/><path d="m34.26 128c44.26 76.52 126.99 128 221.74 128s177.48-51.48 221.74-128c-.01-.02-.03-.05-.04-.07-44.27-76.48-126.98-127.93-221.7-127.93s-177.43 51.45-221.7 127.93c-.01.02-.03.05-.04.07z" fill="#f5dc6e"/><path d="m30.39 377.07c43.19 80.32 128.02 134.93 225.61 134.93s182.42-54.61 225.61-134.93z" fill="#dd8051"/></g><path d="m203.434 109.032h105.132v130.892h-105.132z" fill="#9feafd"/><path d="m256 109.032h52.566v130.892h-52.566z" fill="#70c5e8"/><circle cx="256" cy="340.793" fill="#d6f3ff" r="148.938"/><path d="m404.938 340.793c0 75.948-56.855 138.626-130.328 147.787-6.341-.794-12.545-1.98-18.61-3.545-64.243-16.527-111.707-74.843-111.707-144.243s47.464-127.715 111.707-144.242c6.065-1.565 12.269-2.751 18.61-3.545 73.474 9.162 130.328 71.84 130.328 147.788z" fill="#c3f3ff"/><path d="m343.411 110.831c0 18.069-14.651 32.72-32.732 32.72h-109.358c-9.035 0-17.229-3.66-23.145-9.587-5.927-5.916-9.587-14.099-9.587-23.133 0-18.069 14.651-32.72 32.732-32.72h109.359c9.035 0 17.229 3.66 23.145 9.587 5.926 5.915 9.586 14.098 9.586 23.133z" fill="#c3f3ff"/><path d="m404.938 340.793c0 82.255-66.683 148.938-148.938 148.938v-297.877c82.255 0 148.938 66.684 148.938 148.939z" fill="#9feafd"/><path d="m237.879 330.603h36.243v73.757h-36.243z" fill="#a8ea58"/><path d="m256 330.603h18.121v73.757h-18.121z" fill="#78cd8a"/><path d="m343.411 110.831c0 18.069-14.651 32.72-32.732 32.72h-54.679v-65.44h54.679c9.035 0 17.229 3.66 23.145 9.587 5.927 5.915 9.587 14.098 9.587 23.133z" fill="#9feafd"/><path d="m351.522 395.931c-19.058 32.957-54.705 55.141-95.522 55.141s-76.464-22.184-95.522-55.141z" fill="#b17151"/><path d="m351.522 395.931c-19.058 32.957-54.705 55.141-95.522 55.141v-55.141z" fill="#964529"/><ellipse cx="211.456" cy="307.679" fill="#a8ea58" rx="36.363" ry="62.995" transform="matrix(.707 -.707 .707 .707 -155.628 239.639)"/><ellipse cx="300.544" cy="307.679" fill="#78cd8a" rx="62.995" ry="36.363" transform="matrix(.707 -.707 .707 .707 -129.535 302.634)"/></g></svg>