<svg id="Capa_1" enable-background="new 0 0 512 512" height="512" viewBox="0 0 512 512" width="512" xmlns="http://www.w3.org/2000/svg"><g><g><g><g><g><g><g><circle cx="256" cy="284.151" fill="#27d1b3" r="128.337"/></g><g><path d="m384.336 284.152c0 70.879-57.457 128.336-128.336 128.336-5.133 0-10.204-.303-15.178-.891 63.723-7.513 113.15-61.699 113.15-127.445s-49.427-119.932-113.15-127.445c4.973-.588 10.044-.891 15.178-.891 70.879 0 128.336 57.457 128.336 128.336z" fill="#20b69f"/></g><g><g><path d="m325.274 356.067v36.13c-19.981 12.843-43.759 20.293-69.275 20.293s-49.294-7.451-69.275-20.293v-36.13c0-26.576 21.541-48.108 48.108-48.108h42.333c26.568 0 48.109 21.532 48.109 48.108z" fill="#0d5f7f"/><path d="m325.274 356.067v36.13c-7.807 5.018-16.202 9.215-25.044 12.459v-48.59c0-26.567-21.541-48.108-48.108-48.108h25.044c26.558.001 48.108 21.542 48.108 48.109z" fill="#094c66"/><path d="m292.943 310.607-36.943 70.362-36.943-70.362c4.943-1.711 10.257-2.648 15.784-2.648h42.318c5.526.001 10.841.937 15.784 2.648z" fill="#fff"/><path d="m274.854 345.053-18.854 35.916-18.854-35.916 13.579-37.093h10.55z" fill="#fb4a59"/><g><g><circle cx="207.249" cy="261.818" fill="#fdb0a0" r="14.855"/></g><g><circle cx="304.751" cy="261.818" fill="#f69583" r="14.855"/></g><g><path d="m256 312.199c-21.661 0-39.221-17.56-39.221-39.221v-14.158c0-21.661 17.56-39.221 39.221-39.221 21.661 0 39.221 17.56 39.221 39.221v14.158c0 21.661-17.56 39.221-39.221 39.221z" fill="#ffcec0"/><path d="m295.222 258.82v14.155c0 21.669-17.562 39.221-39.221 39.221-3.243 0-6.405-.391-9.422-1.145 17.108-4.216 29.791-19.661 29.791-38.077v-14.154c0-10.83-4.388-20.633-11.493-27.738-4.97-4.97-11.257-8.604-18.298-10.339 3.016-.754 6.178-1.145 9.422-1.145 10.83 0 20.633 4.388 27.738 11.484 7.095 7.105 11.483 16.908 11.483 27.738z" fill="#fdb0a0"/></g><path d="m308.057 248.241c-7.856.78-23.519 1.621-36.947-2.034-9.547-2.599-16.094-11.382-16.094-21.276v-14.969c0-7.59 6.153-13.742 13.742-13.742h10.338c18.776 0 33.997 15.221 33.997 33.997v12.462c0 2.876-2.174 5.278-5.036 5.562z" fill="#7a7179"/><path d="m313.095 230.221v12.462c0 2.869-2.174 5.275-5.043 5.557-5.416.543-14.535 1.107-24.088.201.795-.071 1.53-.131 2.215-.201 2.859-.282 5.033-2.688 5.033-5.557v-12.462c0-16.357-11.536-30.007-26.907-33.258 1.389-.483 2.889-.745 4.449-.745h10.338c18.783-.001 34.003 15.219 34.003 34.003z" fill="#685e67"/><path d="m203.894 249.763c8.897.939 28.112 2.161 44.502-2.3 11.253-3.063 18.972-13.417 18.972-25.08v-17.645c0-8.947-7.253-16.199-16.199-16.199h-12.186c-22.133 0-40.075 17.942-40.075 40.075v15.592c-.001 2.854 2.148 5.257 4.986 5.557z" fill="#9b8f99"/><path d="m267.365 204.733v17.646c0 11.667-7.721 22.025-18.965 25.085-13.539 3.684-29 3.493-38.976 2.788 5.627-.443 11.435-1.298 16.921-2.788 11.254-3.06 18.975-13.418 18.975-25.085v-17.646c0-7.63-5.285-14.032-12.391-15.743 1.973-.302 3.996-.453 6.05-.453h12.19c8.948 0 16.196 7.257 16.196 16.196z" fill="#8b8088"/></g></g></g></g></g><g><g><g><g><g><path d="m504.5 165.664h-110.596v-49.229c0-21.21 17.194-38.404 38.404-38.404h33.788c21.21 0 38.404 17.194 38.404 38.404z" fill="#fb4a59"/><g><g><path d="m465.082 129.555-13.207 11.61c-1.529 1.344-3.818 1.344-5.347 0l-13.207-11.61c-1.145-1.006-1.627-2.57-1.249-4.046l12.165-47.478h9.929l12.165 47.478c.379 1.476-.104 3.04-1.249 4.046z" fill="#f8f3f1"/></g></g><path d="m504.5 116.435v49.229h-19.988v-49.229c0-21.204-17.199-38.403-38.403-38.403h19.988c21.204-.001 38.403 17.198 38.403 38.403z" fill="#f82f40"/><g><g><path d="m449.202 81.419c-17.291 0-31.308-14.017-31.308-31.308v-11.303c0-17.291 14.017-31.308 31.308-31.308 17.291 0 31.308 14.017 31.308 31.308v11.302c0 17.291-14.017 31.309-31.308 31.309z" fill="#ffcec0"/><path d="m480.511 38.812v11.298c0 17.291-14.018 31.308-31.308 31.308-3.458 0-6.793-.563-9.908-1.602 12.434-4.153 21.391-15.883 21.391-29.707v-11.297c0-8.641-3.502-16.472-9.169-22.139-3.397-3.397-7.559-6.01-12.222-7.567 3.115-1.038 6.45-1.602 9.908-1.602 8.641 0 16.472 3.502 22.139 9.169 5.667 5.666 9.169 13.498 9.169 22.139z" fill="#fdb0a0"/></g></g></g></g></g><g><g><g><path d="m118.096 504.5h-110.596v-49.229c0-21.21 17.194-38.404 38.404-38.404h33.788c21.21 0 38.404 17.194 38.404 38.404z" fill="#bcea73"/><g><g><path d="m78.678 468.392-13.207 11.61c-1.529 1.344-3.818 1.344-5.347 0l-13.207-11.61c-1.145-1.006-1.627-2.57-1.249-4.046l12.165-47.478h9.929l12.165 47.478c.378 1.476-.104 3.04-1.249 4.046z" fill="#107295"/></g></g><path d="m118.096 455.271v49.229h-19.989v-49.229c0-21.204-17.199-38.403-38.403-38.403h19.988c21.205 0 38.404 17.199 38.404 38.403z" fill="#a3e440"/><g><g><path d="m62.798 420.255c-17.291 0-31.308-14.017-31.308-31.308v-11.302c0-17.291 14.017-31.308 31.308-31.308 17.291 0 31.308 14.017 31.308 31.308v11.302c0 17.291-14.017 31.308-31.308 31.308z" fill="#ffcec0"/><path d="m94.107 377.648v11.298c0 17.291-14.018 31.308-31.308 31.308-3.458 0-6.793-.563-9.908-1.602 12.434-4.153 21.391-15.883 21.391-29.707v-11.298c0-8.641-3.502-16.472-9.169-22.139-3.397-3.397-7.559-6.01-12.222-7.567 3.115-1.038 6.45-1.602 9.908-1.602 8.641 0 16.472 3.502 22.139 9.169 5.667 5.668 9.169 13.499 9.169 22.14z" fill="#fdb0a0"/></g></g></g></g></g></g><g><g><g><g><path d="m118.096 165.664h-110.596v-49.229c0-21.21 17.194-38.404 38.404-38.404h33.788c21.21 0 38.404 17.194 38.404 38.404z" fill="#f8f3f1"/><g><g><path d="m46.918 129.555 13.207 11.61c1.529 1.344 3.818 1.344 5.347 0l13.207-11.61c1.145-1.006 1.627-2.57 1.249-4.046l-12.165-47.478h-9.929l-12.165 47.478c-.379 1.476.104 3.04 1.249 4.046z" fill="#fb4a59"/></g></g><path d="m118.096 116.435v49.229h-19.989v-49.229c0-21.204-17.199-38.403-38.403-38.403h19.988c21.205-.001 38.404 17.198 38.404 38.403z" fill="#e5e1e5"/><g><g><path d="m62.798 81.419c-17.291 0-31.308-14.017-31.308-31.308v-11.303c-.001-17.291 14.017-31.308 31.308-31.308 17.291 0 31.308 14.017 31.308 31.308v11.302c0 17.291-14.017 31.309-31.308 31.309z" fill="#ffcec0"/><path d="m94.107 38.812v11.298c0 17.291-14.018 31.308-31.308 31.308-3.458 0-6.793-.563-9.908-1.602 12.434-4.153 21.391-15.883 21.391-29.707v-11.297c0-8.641-3.502-16.472-9.169-22.139-3.397-3.397-7.559-6.01-12.222-7.567 3.115-1.038 6.45-1.602 9.908-1.602 8.641 0 16.472 3.502 22.139 9.169 5.667 5.666 9.169 13.498 9.169 22.139z" fill="#fdb0a0"/></g></g></g></g></g><g><g><g><path d="m504.5 504.5h-110.596v-49.229c0-21.21 17.194-38.404 38.404-38.404h33.788c21.21 0 38.404 17.194 38.404 38.404z" fill="#fcb44d"/><g><g><path d="m433.322 468.392 13.207 11.61c1.529 1.344 3.818 1.344 5.347 0l13.207-11.61c1.145-1.006 1.627-2.57 1.249-4.046l-12.165-47.478h-9.929l-12.165 47.478c-.378 1.476.104 3.04 1.249 4.046z" fill="#68dbf9"/></g></g><path d="m504.5 455.271v49.229h-19.988v-49.229c0-21.204-17.199-38.403-38.403-38.403h19.988c21.204 0 38.403 17.199 38.403 38.403z" fill="#fb9927"/><g><g><path d="m449.202 420.255c-17.291 0-31.308-14.017-31.308-31.308v-11.302c0-17.291 14.017-31.308 31.308-31.308 17.291 0 31.308 14.017 31.308 31.308v11.302c0 17.291-14.017 31.308-31.308 31.308z" fill="#ffcec0"/><path d="m480.511 377.648v11.298c0 17.291-14.018 31.308-31.308 31.308-3.458 0-6.793-.563-9.908-1.602 12.434-4.153 21.391-15.883 21.391-29.707v-11.298c0-8.641-3.502-16.472-9.169-22.139-3.397-3.397-7.559-6.01-12.222-7.567 3.115-1.038 6.45-1.602 9.908-1.602 8.641 0 16.472 3.502 22.139 9.169 5.667 5.668 9.169 13.499 9.169 22.14z" fill="#fdb0a0"/></g></g></g></g></g></g></g></g></g><g><circle cx="197.67" cy="89.441" fill="#27d1b3" r="29.238"/></g></g><g><path d="m280.505 378.779h-.104c-.012 0-.023 0-.036 0-4.125 0-7.479 3.334-7.499 7.465-.02 4.142 3.322 7.516 7.465 7.535h.104.036c4.125 0 7.479-3.334 7.499-7.465.019-4.142-3.323-7.515-7.465-7.535z"/><path d="m480.593 72.89c4.659-6.403 7.417-14.273 7.417-22.78v-11.302c.001-21.399-17.408-38.808-38.808-38.808s-38.809 17.409-38.809 38.808v11.302c0 8.507 2.758 16.377 7.417 22.78-18.226 6.084-31.407 23.299-31.407 43.544v26.707l-39.82 39.82c-20.036-17.992-44.516-29.466-71.259-33.278-4.107-.583-7.899 2.265-8.483 6.367-.585 4.101 2.266 7.898 6.366 8.483 52.658 7.506 94.754 49.516 102.368 102.162.54 3.735 3.746 6.427 7.413 6.427.357 0 .72-.025 1.083-.078 4.1-.593 6.942-4.397 6.35-8.497-3.853-26.64-15.311-51.017-33.232-70.978l29.214-29.214v1.308c0 4.142 3.357 7.5 7.5 7.5s7.5-3.358 7.5-7.5v-49.229c0-17.041 13.863-30.904 30.904-30.904.314 0 .623-.026.927-.063.403.183.808.363 1.218.532l-9.645 37.645c-1.087 4.234.278 8.658 3.562 11.543l13.207 11.611c2.173 1.911 4.898 2.866 7.625 2.866 2.726 0 5.452-.956 7.626-2.866l13.205-11.609c3.284-2.887 4.649-7.31 3.563-11.541l-9.646-37.649c.41-.169.815-.349 1.218-.532.304.038.612.063.927.063 17.041 0 30.904 13.863 30.904 30.904v49.229c0 4.142 3.357 7.5 7.5 7.5s7.5-3.358 7.5-7.5v-49.229c.002-20.245-13.178-37.459-31.405-43.544zm-55.199-34.082c0-13.128 10.68-23.808 23.808-23.808s23.809 10.68 23.809 23.808v11.302c0 13.128-10.681 23.808-23.809 23.808s-23.809-10.68-23.809-23.808v-11.302zm33.146 86.512-9.338 8.21-9.338-8.209 9.326-36.402h.012s.008 0 .012 0z"/><path d="m118.096 481.417c-4.143 0-7.5 3.358-7.5 7.5v15.583c0 4.142 3.357 7.5 7.5 7.5s7.5-3.358 7.5-7.5v-15.583c0-4.142-3.358-7.5-7.5-7.5z"/><path d="m480.593 411.727c4.659-6.403 7.417-14.273 7.417-22.78v-11.302c0-21.399-17.409-38.808-38.809-38.808s-38.809 17.409-38.809 38.808v11.302c0 8.507 2.758 16.377 7.417 22.78-5.594 1.867-10.711 4.78-15.118 8.511l-45.495-45.495c17.949-20.047 29.631-45.024 33.338-71.804.568-4.103-2.297-7.89-6.4-8.458-4.1-.569-7.889 2.297-8.457 6.4-3.963 28.621-18.168 54.94-39.998 74.108-.956.839-1.928 1.656-2.907 2.463v-21.388c0-24.123-15.443-44.699-36.959-52.383-.307-.128-.619-.232-.933-.316-.897-.303-1.805-.583-2.722-.84 4.377-5.346 7.585-11.679 9.255-18.606 1.099.165 2.213.254 3.337.254 12.326 0 22.354-10.028 22.354-22.355 0-6.22-2.557-11.997-6.871-16.133.226-.968.358-1.971.358-3.007v-12.461c0-22.881-18.615-41.497-41.496-41.497h-10.339c-.045 0-.09.006-.135.007-4.335-4.722-10.555-7.688-17.455-7.688h-12.187c-26.232 0-47.574 21.342-47.574 47.575v15.593c0 .585.051 1.158.126 1.724-4.184 4.149-6.638 9.858-6.638 15.888 0 12.327 10.028 22.355 22.354 22.355 1.125 0 2.24-.084 3.338-.249 1.67 6.925 4.878 13.256 9.253 18.601-.919.258-1.828.539-2.727.842-.312.084-.62.187-.925.313-21.517 7.683-36.962 28.26-36.962 52.384v21.332c-26.892-22.181-44.063-55.746-44.063-93.246 0-29.31 10.625-57.576 29.919-79.591 19.116-21.813 45.375-36.038 73.939-40.052 4.102-.577 6.96-4.369 6.383-8.471-.576-4.102-4.378-6.958-8.471-6.383-26.675 3.749-51.551 15.416-71.526 33.301l-39.812-39.812v-26.707c0-20.246-13.18-37.46-31.407-43.544 4.659-6.403 7.417-14.273 7.417-22.78v-11.304c.003-21.399-17.406-38.808-38.805-38.808s-38.809 17.409-38.809 38.808v11.302c0 8.507 2.758 16.377 7.417 22.78-18.226 6.085-31.406 23.299-31.406 43.545v49.229c0 4.142 3.357 7.5 7.5 7.5s7.5-3.358 7.5-7.5v-49.229c0-17.041 13.863-30.904 30.904-30.904.314 0 .622-.026.927-.063.403.183.808.363 1.219.532l-9.645 37.645c-1.086 4.232.277 8.655 3.562 11.544l13.207 11.61c2.173 1.911 4.898 2.866 7.625 2.866 2.726 0 5.452-.956 7.626-2.866l13.208-11.611c3.282-2.887 4.646-7.31 3.561-11.539l-9.646-37.649c.41-.169.815-.349 1.218-.532.304.038.612.063.927.063 17.041 0 30.904 13.863 30.904 30.904v49.229c0 4.142 3.357 7.5 7.5 7.5s7.5-3.358 7.5-7.5v-1.308l29.203 29.203c-.333.371-.669.739-.998 1.114-21.691 24.752-33.638 56.529-33.638 89.478 0 34.758 13.128 66.503 34.679 90.553l-45.548 45.548c-4.414-3.736-9.534-6.646-15.112-8.515 4.663-6.404 7.424-14.279 7.424-22.789v-11.302c0-21.399-17.409-38.808-38.809-38.808s-38.809 17.409-38.809 38.808v11.302c0 8.507 2.758 16.377 7.417 22.78-18.226 6.083-31.406 23.298-31.406 43.543v49.229c0 4.142 3.357 7.5 7.5 7.5s7.5-3.358 7.5-7.5v-49.229c0-17.041 13.863-30.904 30.904-30.904.314 0 .622-.026.927-.063.403.183.808.362 1.218.532l-9.647 37.65c-1.084 4.233.282 8.655 3.563 11.539l13.208 11.612c2.173 1.909 4.897 2.864 7.623 2.864 2.727 0 5.453-.955 7.627-2.865l13.205-11.609c3.284-2.887 4.649-7.31 3.563-11.541l-9.646-37.648c.41-.169.815-.349 1.218-.532.304.038.612.063.927.063 16.185 0 29.723 12.637 30.821 28.77.27 3.959 3.564 6.991 7.475 6.991.171 0 .344-.006.518-.018 4.133-.281 7.254-3.859 6.973-7.992-.507-7.439-2.796-14.376-6.426-20.409l46.398-46.399c24.049 21.55 55.794 34.677 90.551 34.677 32.997 0 64.811-11.978 89.578-33.726.342-.3.676-.607 1.014-.911l46.346 46.346c-4.144 6.895-6.534 14.96-6.534 23.574v49.228c0 4.142 3.357 7.5 7.5 7.5s7.5-3.358 7.5-7.5v-49.229c0-17.041 13.863-30.904 30.904-30.904.314 0 .623-.026.927-.063.403.183.808.363 1.218.532l-9.645 37.645c-1.087 4.234.278 8.658 3.562 11.543l13.207 11.61c2.173 1.911 4.898 2.866 7.625 2.866 2.725 0 5.451-.955 7.626-2.866l13.205-11.609c3.282-2.885 4.648-7.307 3.564-11.542l-9.647-37.648c.41-.169.815-.349 1.218-.532.304.038.612.063.927.063 17.041 0 30.904 13.863 30.904 30.904v49.23c0 4.142 3.357 7.5 7.5 7.5s7.5-3.358 7.5-7.5v-49.229c.001-20.246-13.179-37.46-31.406-43.544zm-441.604-372.919c0-13.128 10.681-23.808 23.809-23.808s23.809 10.68 23.809 23.808v11.302c0 13.128-10.681 23.808-23.809 23.808s-23.809-10.68-23.809-23.808zm33.147 86.512-9.338 8.209-9.338-8.209 9.326-36.402h.012s.008 0 .012 0zm-33.147 252.325c0-13.128 10.681-23.808 23.809-23.808s23.809 10.68 23.809 23.808v11.302c0 13.128-10.681 23.808-23.809 23.808s-23.809-10.68-23.809-23.808zm33.147 86.512-9.338 8.209-9.339-8.21 9.327-36.401h.011s.008 0 .011 0zm245.637-108.092v31.943c-16.434 9.78-35.026 15.547-54.273 16.741v-21.93l32.836-62.542c12.749 6.858 21.437 20.326 21.437 35.788zm-82.937-40.61c.491 0 .97-.051 1.435-.141 1.069.5 2.159.962 3.27 1.382l-3.621 9.892-5.703-10.862c1.516-.173 3.056-.271 4.619-.271zm-10.557-56.635c0-.231.01-.463.015-.694 8.319-.188 17.495-1.092 26.071-3.426 3.841-1.046 7.37-2.761 10.486-4.991 2.547 1.667 5.348 2.936 8.289 3.736 6.043 1.645 12.436 2.451 18.465 2.78.07.862.115 1.728.115 2.595v14.158c0 17.491-14.229 31.721-31.721 31.721s-31.721-14.23-31.721-31.721v-14.158zm52.885 56.635c1.563 0 3.103.098 4.62.271l-5.703 10.862-3.621-9.892c1.111-.42 2.201-.881 3.27-1.382.464.091.943.141 1.434.141zm-22.735 4.204c.523.017 1.044.04 1.571.04s1.048-.022 1.571-.04l9.098 24.855-10.669 20.321-10.669-20.322zm50.322-50.486c-.693 0-1.375-.098-2.03-.286v-10.067c0-.88-.029-1.76-.078-2.638 2.324-.132 4.407-.304 6.154-.478l.018-.003c2.029 1.347 3.291 3.618 3.291 6.116-.001 4.057-3.299 7.356-7.355 7.356zm-25.654-65.453c14.61 0 26.496 11.887 26.496 26.497v10.72c-7.892.678-21.192 1.115-32.513-1.967-.738-.201-1.448-.483-2.142-.801 2.519-4.746 3.929-10.139 3.929-15.787v-17.645c0-.341-.011-.68-.026-1.018h4.256zm-72.69 24.893c0-17.962 14.612-32.575 32.574-32.575h12.187c4.797 0 8.699 3.902 8.699 8.699v17.645c0 8.351-5.527 15.688-13.441 17.843-14.402 3.92-31.716 3.021-40.019 2.25zm-6.512 33.205c0-1.798.676-3.502 1.827-4.824.453.097.913.177 1.384.227h.001c1.791.189 3.885.377 6.196.537-.008.354-.023.708-.023 1.062v10.062c-.655.188-1.335.292-2.03.292-4.057-.001-7.355-3.3-7.355-7.356zm-5.668 94.247c0-15.462 8.688-28.93 21.437-35.788l32.836 62.542v21.929c-19.737-1.215-38.206-7.186-54.273-16.783zm231.167 21.58c0-13.128 10.681-23.808 23.809-23.808s23.809 10.68 23.809 23.808v11.302c0 13.128-10.681 23.808-23.809 23.808s-23.809-10.68-23.809-23.808zm33.147 86.511-9.339 8.21-9.338-8.21 9.326-36.402h.011s.008 0 .011 0z"/><path d="m261.171 124.379h33.755c4.143 0 7.5-3.358 7.5-7.5s-3.357-7.5-7.5-7.5h-33.755c-4.143 0-7.5 3.358-7.5 7.5s3.357 7.5 7.5 7.5z"/><path d="m261.171 93.185h82.397c4.143 0 7.5-3.358 7.5-7.5s-3.357-7.5-7.5-7.5h-82.397c-4.143 0-7.5 3.358-7.5 7.5s3.357 7.5 7.5 7.5z"/><path d="m261.171 69.502h82.397c4.143 0 7.5-3.358 7.5-7.5s-3.357-7.5-7.5-7.5h-82.397c-4.143 0-7.5 3.358-7.5 7.5s3.357 7.5 7.5 7.5z"/><path d="m197.67 126.179c20.258 0 36.738-16.481 36.738-36.738 0-5.367-1.166-10.463-3.243-15.063l1.047-1.047c2.929-2.929 2.929-7.678 0-10.606-2.726-2.725-7.023-2.911-9.968-.566-6.514-5.873-15.133-9.456-24.574-9.456-20.258 0-36.738 16.481-36.738 36.738s16.48 36.738 36.738 36.738zm0-58.476c5.286 0 10.136 1.899 13.909 5.048l-10.646 10.646-2.979-2.979c-2.93-2.929-7.678-2.929-10.607 0s-2.929 7.678 0 10.606l8.282 8.282c1.465 1.464 3.385 2.197 5.304 2.197s3.839-.732 5.304-2.197l12.949-12.949c.144 1.008.223 2.037.223 3.084 0 11.986-9.752 21.738-21.738 21.738s-21.738-9.752-21.738-21.738 9.751-21.738 21.737-21.738z"/></g></g></svg>