<svg id="Capa_1" enable-background="new 0 0 512 512" height="512" viewBox="0 0 512 512" width="512" xmlns="http://www.w3.org/2000/svg"><g><g><path d="m0 256c0 43.79 11 85.02 30.39 121.07l225.61 49.67 225.61-49.67c19.39-36.05 30.39-77.28 30.39-121.07 0-46.63-12.47-90.34-34.26-128-41.698 72.091-399.22 76.52-443.48 0-21.79 37.66-34.26 81.37-34.26 128z" fill="#9febff"/><path d="m34.26 128c44.26 76.52 126.99 128 221.74 128s177.48-51.48 221.74-128c-.01-.02-.03-.05-.04-.07-44.27-76.48-126.98-127.93-221.7-127.93s-177.43 51.45-221.7 127.93c-.01.02-.03.05-.04.07z" fill="#c4f4ff"/><path d="m30.39 377.07c5.131 9.543 10.851 18.723 17.109 27.492 3.343 4.684 18.044-1.955 21.688 2.487 3.178 3.874-4.738 18.857-1.342 22.537 18.507 20.052 40.179 37.139 64.223 50.469 5.09 2.822 19.717-13.148 25.012-10.671 6.994 3.272 4.728 24.86 12.049 27.501 27.123 9.782 56.374 15.115 86.871 15.115 30.018 0 58.828-5.167 85.59-14.659 6.155-2.183-2.869-15.179 3.059-17.809 6.903-3.063 28.717 4.161 35.283.521 24.044-13.329 45.716-30.416 64.223-50.468 2.293-2.484-9.973-19.524-7.778-22.098 4.393-5.153 23.096 4.027 27.076-1.467 6.669-9.207 12.741-18.876 18.157-28.949h-451.22z" fill="#70c5e9"/></g><g><path d="m251.29 416.45-80.88 80.89c-13.33-4.72-26.14-10.52-38.34-17.29l91.41-91.41z" fill="#e8a440"/><path d="m379.93 480.05c-12.2 6.77-25.01 12.57-38.34 17.29l-80.88-80.89 27.81-27.81z" fill="#de8051"/></g><path d="m463.44 129.9v276.11c-5.96 8.24-12.4 16.11-19.29 23.57h-376.3c-6.89-7.46-13.33-15.33-19.29-23.57v-276.11z" fill="#f5dd6e"/><path d="m463.44 129.9v276.11c-5.96 8.24-12.4 16.11-19.29 23.57h-188.15v-299.68z" fill="#eec036"/><path d="m136.156 102.306h239.688v354.871h-239.688z" fill="#79ce8b" transform="matrix(0 1 -1 0 535.741 23.741)"/><path d="m255.863 399.585v-239.688h177.573v239.688h-31.848l-56.129-8.07-27.607 8.07z" fill="#599d8a"/><path d="m317.852 377.07h83.736v22.515h-83.736z" fill="#e8ebf7"/><path d="m359.72 377.07h41.868v22.515h-41.868z" fill="#daddee"/><g fill="#e8ebf7"><path d="m122.512 180.114h19.116v196.956h-19.116z"/><path d="m87.47 328.84h293.18v19.11h-293.18z"/><path d="m354.65 211.61c0 54.47-44.32 98.78-98.79 98.78s-98.78-44.31-98.78-98.78h20c0 43.44 35.34 78.78 78.78 78.78 43.45 0 78.79-35.34 78.79-78.78z"/></g><path d="m354.65 211.61c0 54.47-44.32 98.78-98.79 98.78v-20c43.45 0 78.79-35.34 78.79-78.78z" fill="#daddee"/><path d="m255.86 328.84h124.79v19.11h-124.79z" fill="#daddee"/></g></svg>