<svg id="Capa_1" enable-background="new 0 0 512 512" height="512" viewBox="0 0 512 512" width="512" xmlns="http://www.w3.org/2000/svg"><g><g><path d="m0 256c0 43.79 11 85.02 30.39 121.07l225.61 49.67 225.61-49.67c19.39-36.05 30.39-77.28 30.39-121.07 0-46.63-12.47-90.34-34.26-128-41.698 72.091-399.22 76.52-443.48 0-21.79 37.66-34.26 81.37-34.26 128z" fill="#eebf36"/><path d="m34.26 128c44.26 76.52 126.99 128 221.74 128s177.48-51.48 221.74-128c-.01-.02-.03-.05-.04-.07-44.27-76.48-126.98-127.93-221.7-127.93s-177.43 51.45-221.7 127.93c-.01.02-.03.05-.04.07z" fill="#f5dc6e"/><path d="m481.61 377.07c-24.75 46.03-63.17 83.61-109.84 107.32h-.01c-34.76 17.66-74.09-19.181-115.76-19.181s-81.01 36.841-115.77 19.181c-46.67-23.71-85.09-61.29-109.84-107.32z" fill="#dd8051"/></g><path d="m261.743 128h93.885v26.308h-93.885z" fill="#464651"/><path d="m214.745 137.662-54.647-31.216h-64.887v-25h71.523l60.411 34.508z" fill="#464651"/><path d="m374.59 284.06v184.99c0 5.4-1 10.58-2.82 15.34h-.01c-34.76 17.66-74.09 27.61-115.76 27.61s-81.01-9.95-115.77-27.61c-1.82-4.76-2.82-9.94-2.82-15.34v-184.99c0-65.49 53.1-118.59 118.59-118.59s118.59 53.1 118.59 118.59z" fill="#8898e5"/><path d="m374.59 284.06v184.99c0 5.4-1 10.58-2.82 15.34-34.76 17.66-74.1 27.61-115.77 27.61v-346.53c65.49 0 118.59 53.1 118.59 118.59z" fill="#546bd9"/><path d="m95.211 129.308h160.789v25h-160.789z" fill="#616679"/><path d="m311.29 141.81c0 30.54-24.75 55.29-55.29 55.29s-55.29-24.75-55.29-55.29 24.75-55.3 55.29-55.3 55.29 24.76 55.29 55.3z" fill="#d75e91"/><path d="m256 281.23c-8.22-4.13-17.5-6.45-27.3-6.45-33.7 0-61.11 27.41-61.11 61.11 0 33.69 27.41 61.1 61.11 61.1 9.8 0 19.08-2.32 27.3-6.45 20.03-10.04 33.8-30.77 33.8-54.65 0-23.89-13.77-44.62-33.8-54.66zm0 85.36c-7.27 6.46-16.83 10.4-27.3 10.4-22.67 0-41.11-18.44-41.11-41.1 0-22.67 18.44-41.11 41.11-41.11 10.47 0 20.03 3.94 27.3 10.4 8.46 7.54 13.8 18.51 13.8 30.71 0 12.19-5.34 23.16-13.8 30.7z" fill="#e7eaf5"/><path d="m311.29 141.81c0 30.54-24.75 55.29-55.29 55.29v-110.59c30.54 0 55.29 24.76 55.29 55.3z" fill="#bf2e70"/><ellipse cx="256" cy="141.81" fill="#c3f3ff" rx="32.86" ry="32.86" transform="matrix(.383 -.924 .924 .383 27.018 324.055)"/><path d="m288.86 141.81c0 18.15-14.71 32.86-32.86 32.86v-65.72c18.15 0 32.86 14.71 32.86 32.86z" fill="#9feafd"/><ellipse cx="256" cy="141.81" fill="#616679" rx="12.498" ry="12.498" transform="matrix(.383 -.924 .924 .383 27.018 324.055)"/><path d="m268.498 141.81c0 6.903-5.595 12.498-12.498 12.498v-24.995c6.903-.001 12.498 5.594 12.498 12.497z" fill="#464651"/><g><path d="m344.362 394.513-45.676-.14.046-12.477 2.059-2.161c.046-.049 6.345-6.799 20.736-27.361 2.988-4.471 4.836-7.568 5.305-11.434-.208-4.14-3.642-7.443-7.832-7.443-3.74 0-6.976 2.655-7.695 6.314l-1.445 7.359-14.719-2.891 1.445-7.359c2.097-10.675 11.523-18.423 22.414-18.423 12.595 0 22.842 10.247 22.842 22.842-.46 7.03-3.257 12.596-8.026 19.637-5.613 8.02-10.062 14.042-13.455 18.464l24.046.074z" fill="#d9dced"/></g><path d="m289.8 335.89c0 23.88-13.77 44.61-33.8 54.65v-23.95c8.46-7.54 13.8-18.51 13.8-30.7 0-12.2-5.34-23.17-13.8-30.71v-23.95c20.03 10.04 33.8 30.77 33.8 54.66z" fill="#d9dced"/><path d="m335.267 104.914h72.479v72.479h-72.479z" fill="#e7eaf5"/><path d="m371.507 104.914h36.24v72.479h-36.24z" fill="#d9dced"/></g></svg>