<svg id="Capa_1" enable-background="new 0 0 512 512" height="512" viewBox="0 0 512 512" width="512" xmlns="http://www.w3.org/2000/svg"><g><g><g><g><g><g><g><circle cx="256" cy="256" fill="#ffce00" r="256"/></g></g></g></g></g></g><path d="m512 256c0-17.203-1.697-34.01-4.933-50.262l-139.1-139.1-223.251 379.6 60.781 60.781c16.327 3.267 33.215 4.981 50.503 4.981 141.385 0 256-114.615 256-256z" fill="#ffa300"/><g><path d="m341.586 458.628h-171.173c-18.15 0-32.864-14.714-32.864-32.864v-339.527c0-18.15 14.714-32.864 32.864-32.864h171.173c18.15 0 32.864 14.714 32.864 32.864v339.527c.001 18.15-14.713 32.864-32.864 32.864z" fill="#555a66"/></g><g><path d="m341.586 53.372h-85.522v405.255h85.522c18.15 0 32.864-14.714 32.864-32.864v-339.526c.001-18.151-14.713-32.865-32.864-32.865z" fill="#333940"/></g><g><path d="m169.417 86.843h173.166v338.315h-173.166z" fill="#a3d4ff"/></g><g><path d="m256.065 86.843h86.518v338.314h-86.518z" fill="#65b1fc"/></g><g><path d="m324.416 176.847c0 37.785-30.566 68.416-68.351 68.416s-68.481-30.631-68.481-68.416 30.696-68.416 68.481-68.416 68.351 30.631 68.351 68.416z" fill="#ff6c52"/></g><g><path d="m324.416 176.847c0-37.745-30.622-68.348-68.351-68.413v136.826c37.729-.065 68.351-30.668 68.351-68.413z" fill="#ff432e"/></g><path d="m302.403 151.657-21.213-21.213-25.125 25.19-25.255-25.19-21.213 21.213 25.19 25.19-25.19 25.19 21.213 21.213 25.255-25.189 25.125 25.189 21.213-21.213-25.19-25.19z" fill="#fff"/><path d="m302.403 151.657-21.213-21.213-25.125 25.19v42.427l25.125 25.189 21.213-21.213-25.19-25.19z" fill="#e9edf5"/><g><path d="m324.416 334.856c0 37.785-30.566 68.416-68.351 68.416s-68.481-30.631-68.481-68.416 30.696-68.416 68.481-68.416 68.351 30.631 68.351 68.416z" fill="#7584f2"/></g><g><path d="m324.416 334.856c0-37.745-30.622-68.348-68.351-68.413v136.826c37.729-.065 68.351-30.668 68.351-68.413z" fill="#606aea"/></g><g><path d="m205.376 319.856h101.248v30h-101.248z" fill="#fff"/></g><g><path d="m256.065 319.856h50.559v30h-50.559z" fill="#e9edf5"/></g><g><g><path d="m271.204 294.241c0 8.397-6.742 15.204-15.139 15.204s-15.269-6.807-15.269-15.204 6.872-15.204 15.269-15.204 15.139 6.807 15.139 15.204z" fill="#fff"/></g><g><path d="m271.204 294.241c0-8.356-6.798-15.132-15.139-15.198v30.395c8.34-.065 15.139-6.841 15.139-15.197z" fill="#e9edf5"/></g><g><path d="m271.204 375.471c0 8.397-6.742 15.204-15.139 15.204s-15.269-6.807-15.269-15.204 6.872-15.204 15.269-15.204c8.397.001 15.139 6.808 15.139 15.204z" fill="#fff"/></g><g><path d="m271.204 375.471c0-8.356-6.798-15.132-15.139-15.197v30.395c8.34-.066 15.139-6.842 15.139-15.198z" fill="#e9edf5"/></g></g></g></svg>