<svg id="Capa_1" enable-background="new 0 0 512 512" height="512" viewBox="0 0 512 512" width="512" xmlns="http://www.w3.org/2000/svg"><g><g><path d="m512 256c0 141.387-114.613 256-256 256s-256-114.613-256-256 114.613-256 256-256 256 114.613 256 256zm0 0" fill="#aaed58"/><path d="m512 256c0 26.051-3.891 51.191-11.129 74.871-5.031 16.469-11.672 32.231-19.75 47.109-8.25 15.2-18 29.461-29.051 42.61-.582.691-1.16 1.379-1.75 2.058-46.941 54.704-116.59 89.352-194.32 89.352s-147.379-34.648-194.309-89.352c-.589-.687-1.179-1.378-1.75-2.07-11.062-13.137-20.812-27.398-29.05-42.598-3.289-6.031-6.332-12.21-9.121-18.531-14-31.629-21.77-66.629-21.77-103.449 0-46.219 12.25-89.57 33.68-127 44.121 77.07 127.16 129 222.32 129s178.211-51.93 222.32-129c21.43 37.43 33.68 80.781 33.68 127zm0 0" fill="#6abb5e"/><path d="m481.262 377.699c-7.16 13.223-15.434 25.742-24.723 37.43-8.437 10.633-17.719 20.57-27.719 29.723-45.539 41.699-106.211 67.148-172.82 67.148s-127.281-25.449-172.82-67.148c-10-9.153-19.282-19.09-27.719-29.723-9.289-11.688-17.563-24.207-24.723-37.43zm0 0" fill="#299f8c"/></g><g><path d="m260.09 324.866-47.775-20.475-38.607 38.607 34.125 34.125z" fill="#a6cfe7"/><path d="m239.929 303.219-27.614 1.172-38.607 38.607 13.964 12.479z" fill="#bddef2"/><path d="m194.183 363.473 20.475 20.475 38.607-38.607-6.825-34.125z" fill="#8db3cf"/><path d="m303.383 281.573-66.707-12.107-24.361 34.925 20.475 20.475z" fill="#ffeb78"/><path d="m271.436 259.185-34.76 10.281-24.361 34.925 13.249 13.194z" fill="#fff1bf"/><path d="m232.79 324.866 20.475 20.475 34.925-24.361 1.543-53.057z" fill="#f2d332"/><path d="m359.854 197.802 6.825 6.825-13.65 13.65-6.825-6.825-55.535 28.235-28.235 55.535 25.757 25.757 94.116-65.647c4.204-2.932 8.131-6.214 11.672-9.755 23.809-23.809 32.412-60.406 23.012-97.897l-1.406-5.609-41.516 14.216z" fill="#9f165b"/><path d="m409.976 140.665c-37.491-9.399-74.088-.797-97.897 23.012-3.542 3.542-6.824 7.469-9.755 11.672l-65.648 94.116 25.757 25.757 83.77-83.77-6.825-6.825 13.65-13.65 6.825 6.825 55.731-55.731z" fill="#e851a0"/><path d="m409.976 140.665c-21.64-3.732-59.191 14.123-83 37.932-3.542 3.542-6.824 7.469-9.755 11.672l-65.648 94.116 10.859 10.837 83.77-83.77-6.825-6.825 13.65-13.65 6.825 6.825 55.731-55.731z" fill="#cb2e81"/><path d="m99.723 457.933c9.007 9.007 23.111 11.05 34.254 4.993l79.654-42.76 14.677-49.868-20.475-20.475-74.53 33.58z" fill="#a6cfe7"/><path d="m187.358 329.348-49.868 14.677-42.735 79.609c-6.082 11.187-4.039 25.291 4.969 34.299l108.11-108.11z" fill="#e0f5ff"/><path d="m200.579 342.569-54.643 21.93-42.735 79.609c-2.281 4.195-3.419 8.801-3.476 13.394l108.108-107.68z" fill="#bfebff"/></g><g fill="#fff"><path d="m341.028 88.042h-1.524c-6.754 0-12.226-5.477-12.226-12.227v-1.523h-8.715v1.523c0 6.75-5.477 12.227-12.227 12.227h-1.527v8.715h1.527c6.75 0 12.227 5.472 12.227 12.226v1.528h8.715v-1.528c0-6.754 5.472-12.226 12.226-12.226h1.524zm0 0"/><path d="m212.293 101.792h-1.524c-6.754 0-12.226-5.477-12.226-12.227v-1.523h-8.715v1.523c0 6.75-5.477 12.227-12.227 12.227h-1.527v8.715h1.527c6.75 0 12.227 5.472 12.227 12.226v1.528h8.715v-1.528c0-6.754 5.472-12.226 12.226-12.226h1.524zm0 0"/><path d="m190.812 215.718h-1.524c-6.754 0-12.226-5.477-12.226-12.227v-1.523h-8.715v1.523c0 6.75-5.477 12.227-12.227 12.227h-1.527v8.715h1.527c6.75 0 12.227 5.472 12.227 12.226v1.528h8.715v-1.528c0-6.754 5.472-12.226 12.226-12.226h1.524zm0 0"/><path d="m97.318 269.397h-1.524c-6.754 0-12.226-5.477-12.226-12.227v-1.523h-8.715v1.523c0 6.75-5.477 12.227-12.227 12.227h-1.527v8.715h1.527c6.75 0 12.227 5.472 12.227 12.226v1.528h8.715v-1.528c0-6.754 5.472-12.226 12.226-12.226h1.524zm0 0"/></g></g></svg>