<?xml version="1.0" encoding="UTF-8" standalone="no"?>
<svg
   xmlns:dc="http://purl.org/dc/elements/1.1/"
   xmlns:cc="http://creativecommons.org/ns#"
   xmlns:rdf="http://www.w3.org/1999/02/22-rdf-syntax-ns#"
   xmlns:svg="http://www.w3.org/2000/svg"
   xmlns="http://www.w3.org/2000/svg"
   xmlns:sodipodi="http://sodipodi.sourceforge.net/DTD/sodipodi-0.dtd"
   xmlns:inkscape="http://www.inkscape.org/namespaces/inkscape"
   version="1.1"
   id="Layer_1"
   x="0px"
   y="0px"
   viewBox="0 0 511.999 511.999"
   style="enable-background:new 0 0 511.999 511.999;"
   xml:space="preserve"
   sodipodi:docname="008-power-button-1.svg"
   inkscape:version="1.0.2 (e86c870879, 2021-01-15)"><metadata
   id="metadata53"><rdf:RDF><cc:Work
       rdf:about=""><dc:format>image/svg+xml</dc:format><dc:type
         rdf:resource="http://purl.org/dc/dcmitype/StillImage" /></cc:Work></rdf:RDF></metadata><defs
   id="defs51">
	
	
</defs><sodipodi:namedview
   pagecolor="#ffffff"
   bordercolor="#666666"
   borderopacity="1"
   objecttolerance="10"
   gridtolerance="10"
   guidetolerance="10"
   inkscape:pageopacity="0"
   inkscape:pageshadow="2"
   inkscape:window-width="1920"
   inkscape:window-height="1015"
   id="namedview49"
   showgrid="false"
   inkscape:zoom="1.6503939"
   inkscape:cx="133.90743"
   inkscape:cy="231.76286"
   inkscape:window-x="0"
   inkscape:window-y="0"
   inkscape:window-maximized="1"
   inkscape:current-layer="Layer_1"
   inkscape:document-rotation="0" />


<rect
   x="228.728"
   y="60.696999"
   style="fill:#fbf5eb;fill-opacity:1"
   width="55.598"
   height="173.022"
   id="rect6" /><path
   style="fill:#fbf5eb;fill-opacity:1"
   d="m 402.094,187.68 c -16.802,-26.638 -40.549,-48.16 -68.673,-62.238 l -19.768,39.492 c 43.609,21.829 70.7,65.655 70.7,114.374 0,70.483 -57.342,127.825 -127.824,127.825 -70.483,0 -127.824,-57.342 -127.824,-127.825 0,-48.719 27.091,-92.543 70.7,-114.374 l -19.768,-39.492 c -28.124,14.079 -51.871,35.6 -68.673,62.238 -17.287,27.405 -26.423,59.089 -26.423,91.628 0,94.835 77.153,171.99 171.988,171.99 94.835,0 171.988,-77.154 171.988,-171.99 0,-32.539 -9.136,-64.223 -26.423,-91.628 z"
   id="path8" />
<g
   id="g16">
	<rect
   x="256.532"
   y="60.697"
   style="fill:#dce0ef;fill-opacity:1"
   width="27.799"
   height="173.022"
   id="rect12" />
	<path
   style="fill:#dce0ef;fill-opacity:1"
   d="M428.517,279.308c0-32.539-9.136-64.223-26.423-91.628c-16.802-26.638-40.549-48.16-68.673-62.237   l-19.768,39.492c43.609,21.829,70.7,65.655,70.7,114.373c0,70.483-57.342,127.826-127.824,127.826l0,0v44.164l0,0   C351.364,451.297,428.517,374.143,428.517,279.308z"
   id="path14" />
</g>
<g
   id="g18">
</g>
<g
   id="g20">
</g>
<g
   id="g22">
</g>
<g
   id="g24">
</g>
<g
   id="g26">
</g>
<g
   id="g28">
</g>
<g
   id="g30">
</g>
<g
   id="g32">
</g>
<g
   id="g34">
</g>
<g
   id="g36">
</g>
<g
   id="g38">
</g>
<g
   id="g40">
</g>
<g
   id="g42">
</g>
<g
   id="g44">
</g>
<g
   id="g46">
</g>
</svg>
