<svg id="Capa_1" enable-background="new 0 0 512 512" height="512" viewBox="0 0 512 512" width="512" xmlns="http://www.w3.org/2000/svg"><g><g><path d="m512 256c0 141.387-114.613 256-256 256s-256-114.613-256-256 114.613-256 256-256 256 114.613 256 256zm0 0" fill="#e38031"/><path d="m512 256c0 26.051-3.891 51.191-11.129 74.871-5.031 16.469-11.672 32.231-19.75 47.109-8.25 15.2-18 29.461-29.051 42.61-.582.691-1.16 1.379-1.75 2.058-46.941 54.704-116.59 89.352-194.32 89.352s-147.379-34.648-194.309-89.352c-.589-.687-1.179-1.378-1.75-2.07-11.062-13.137-20.812-27.398-29.05-42.598-3.289-6.031-6.332-12.21-9.121-18.531-14-31.629-21.77-66.629-21.77-103.449 0-46.219 12.25-89.57 33.68-127 44.121 77.07 127.16 129 222.32 129s178.211-51.93 222.32-129c21.43 37.43 33.68 80.781 33.68 127zm0 0" fill="#d85819"/><path d="m481.262 377.699c-7.16 13.223-15.434 25.742-24.723 37.43-8.437 10.633-17.719 20.57-27.719 29.723-45.539 41.699-106.211 67.148-172.82 67.148s-127.281-25.449-172.82-67.148c-10-9.153-19.282-19.09-27.719-29.723-9.289-11.688-17.563-24.207-24.723-37.43zm0 0" fill="#bd4911"/></g><g><path d="m133.799 369.502-36.743 75.935 29.394 29.394 36.743-36.743z" fill="#8db3cf"/><path d="m104.405 379.3-36.742 36.743 29.393 29.394 56.339-56.339z" fill="#a6cfe7"/><path d="m104.405 379.3-36.742 36.743 10.787 10.788 56.338-56.338z" fill="#bfe1f5"/><path d="m163.193 438.088 59.137-59.137 7.348-22.045 59.418-59.419-44.09-44.091-111.207 155.298z" fill="#a6cfe7"/><path d="m267.051 275.442-22.045-22.046-59.419 59.419-22.045 7.348-59.137 59.137 29.394 29.394z" fill="#dbf4ff"/><path d="m267.051 275.442-11.171-11.213-59.418 59.418-22.046 7.349-59.137 59.137 18.52 18.561z" fill="#bfebff"/><path d="m230.338 312.155 22.046 22.045 51.439-7.348-44.091-102.879z" fill="#21867f"/><path d="m215.641 238.67-7.348 51.439 22.045 22.046 58.788-58.788z" fill="#299f8c"/><path d="m215.641 238.67-7.348 51.439 10.752 10.752 17.213-41.647z" fill="#6abb5e"/><path d="m404.153 138.34-101.604 42.816-42.817 101.604 44.091 44.091 100.33-100.33c24.312-24.311 24.312-63.869 0-88.181z" fill="#299f8c"/><path d="m404.153 138.34c-24.312-24.312-63.87-24.312-88.182 0l-100.33 100.33 44.091 44.091z" fill="#a0db5c"/><path d="m404.153 138.34c-12.415-13.08-43.253-3.768-67.565 20.544l-100.33 100.33 23.474 23.547z" fill="#6abb5e"/></g><g fill="#fff"><path d="m98.322 281.276h-1.524c-6.754 0-12.226-5.477-12.226-12.227v-1.523h-8.715v1.523c0 6.75-5.477 12.227-12.227 12.227h-1.527v8.715h1.527c6.75 0 12.227 5.472 12.227 12.226v1.528h8.715v-1.528c0-6.754 5.472-12.226 12.226-12.226h1.524zm0 0"/><path d="m120.5 168.312h-1.524c-6.754 0-12.226-5.477-12.226-12.227v-1.523h-8.715v1.523c0 6.75-5.477 12.227-12.227 12.227h-1.527v8.715h1.527c6.75 0 12.227 5.472 12.227 12.226v1.528h8.715v-1.528c0-6.754 5.472-12.226 12.226-12.226h1.524zm0 0"/><path d="m226.402 151.383h-1.524c-6.754 0-12.226-5.477-12.226-12.227v-1.523h-8.715v1.523c0 6.75-5.477 12.227-12.227 12.227h-1.527v8.715h1.527c6.75 0 12.227 5.472 12.227 12.226v1.528h8.715v-1.528c0-6.754 5.472-12.226 12.226-12.226h1.524zm0 0"/><path d="m278.942 73.016h-1.524c-6.754 0-12.226-5.477-12.226-12.227v-1.523h-8.715v1.523c0 6.75-5.477 12.227-12.227 12.227h-1.527v8.715h1.527c6.75 0 12.227 5.472 12.227 12.226v1.528h8.715v-1.528c0-6.754 5.472-12.226 12.226-12.226h1.524zm0 0"/></g></g></svg>