<svg id="Capa_1" enable-background="new 0 0 512 512" height="512" viewBox="0 0 512 512" width="512" xmlns="http://www.w3.org/2000/svg"><circle cx="256" cy="256" fill="#4e679b" r="256"/><path d="m512 256c0 87.11-43.52 164.07-110 210.31-41.41 28.8-91.73 45.69-146 45.69s-104.59-16.89-146-45.69c-66.48-46.24-110-123.2-110-210.31 0-46.22 12.25-89.57 33.68-127 44.12 77.07 127.16 129 222.32 129s178.21-51.93 222.32-129c21.43 37.43 33.68 80.78 33.68 127z" fill="#364d7f"/><path d="m433.264 316c0 97.814-79.236 177.133-177.015 177.264h-.249c-97.897 0-177.264-79.367-177.264-177.264s79.367-177.264 177.264-177.264h.249c97.78.131 177.015 79.45 177.015 177.264z" fill="#ff1d56"/><path d="m452 316c0 108.15-87.61 195.85-195.72 196h-.28c-108.24 0-196-87.76-196-196 0-24.017 4.318-47.027 12.232-68.289 2.239-6.014 8.229-9.826 14.617-9.218 3.104.296 6.249.447 9.431.447 54.2 0 98.15-43.94 98.15-98.15 0-.036 0-.072 0-.109-.007-6.531 4.268-12.28 10.575-13.976 16.258-4.372 33.353-6.705 50.995-6.705h.28c108.11.15 195.72 87.85 195.72 196z" fill="#90ed54"/><path d="m452 316c0 105.34-83.12 191.28-187.34 195.81-.31.02-.62.03-.93.04-.87.03-1.74.06-2.6.08-1.73.05-3.44.07-5.13.07-58.54-45.3-103.35-116.25-103.35-196s44.81-150.7 103.35-196h.28c108.11.15 195.72 87.85 195.72 196z" fill="#6cdc2d"/><path d="m452 316c0 108.244-87.756 196-196 196v-392c108.244 0 196 87.756 196 196z" fill="#00a042"/><path d="m233.76 301.26c0 25.46-20.64 46.1-46.09 46.1-25.46 0-46.1-20.64-46.1-46.1 0-6.59 92.19-5.4 92.19 0z" fill="#fff"/><circle cx="187" cy="302" fill="#29334c" r="25.616"/><path d="m370.43 301.26c0 8.59-2.35 16.63-6.43 23.51-8.04 13.52-71.29 13.52-79.33 0-4.08-6.88-6.43-14.92-6.43-23.51 0-25.45 20.64-46.09 46.09-46.09 25.46 0 46.1 20.64 46.1 46.09z" fill="#fff"/><circle cx="322" cy="295.264" fill="#29334c" r="25.616"/><path d="m364 324.77c-8.04 13.52-22.8 22.59-39.67 22.59s-31.62-9.07-39.66-22.59c8.03-13.53 22.79-22.6 39.66-22.6 16.88 0 31.64 9.07 39.67 22.6z" fill="#037230"/><path d="m294.638 213.46c16.242 20.451 46.793 29.91 73.515 21.32.021-.007.042-.013.063-.02 2-.645 3.955 1.344 2.802 2.874-4.777 6.339-11.996 11.344-21.15 13.927-21.13 5.963-45.356-3.583-55.048-21.676-2.733-5.102-4.081-10.374-4.188-15.506-.039-1.847 2.759-2.488 4.006-.919z" fill="#037230"/><path d="m334.81 447.45h-157.62c-9.4 0-16.47-8.56-14.72-17.79 3.32-17.53 11.43-33.34 22.93-46.04 6.32-6.99 134.88-6.99 141.2 0 11.5 12.7 19.61 28.51 22.93 46.04 1.75 9.23-5.32 17.79-14.72 17.79z" fill="#313b5a"/><path d="m334.808 447.453h-78.808v-74.193c17.852 0 64.285 3.37 70.605 10.353 11.495 12.701 19.607 28.521 22.922 46.046 1.757 9.233-5.32 17.794-14.719 17.794z" fill="#29334c"/><path d="m309.26 447.45h-106.52c6.4-23.4 27.82-40.6 53.26-40.6s46.86 17.2 53.26 40.6z" fill="#ff1d56"/><path d="m309.26 447.45h-53.26v-40.6c25.44 0 46.86 17.2 53.26 40.6z" fill="#dd1265"/><circle cx="106.098" cy="346.126" fill="#6cdc2d" r="11.999"/><ellipse cx="133.097" cy="416.622" fill="#6cdc2d" rx="17.196" ry="18.286"/><ellipse cx="347.586" cy="185.634" fill="#037230" rx="17.196" ry="18.286"/><ellipse cx="412.083" cy="304.128" fill="#037230" rx="11.472" ry="12.199"/><path d="m326.6 383.62h-141.2c6.32-6.99 13.66-13.03 21.79-17.89 14.26-8.56 30.96-13.47 48.81-13.47s34.55 4.91 48.81 13.47c8.13 4.86 15.47 10.9 21.79 17.89z" fill="#fff"/><path d="m326.6 383.62h-70.6v-31.36c17.85 0 34.55 4.91 48.81 13.47 8.13 4.86 15.47 10.9 21.79 17.89z" fill="#d1f6ff"/><path d="m233.741 302c.004-.247.019-.492.019-.74 0-5.4-.93-10.57-2.63-15.38-2.98-8.42-8.33-15.71-15.25-21.07-7.8-6.04-17.58-9.64-28.21-9.64-18.86 0-35.08 11.33-42.22 27.55-2.49 5.68-3.88 11.95-3.88 18.54 0 .248.015.493.019.74z" fill="#037230"/></svg>