<svg height="512" viewBox="0 0 512 512" width="512" xmlns="http://www.w3.org/2000/svg"><g id="BULINE"><circle cx="256" cy="256" fill="#aa60fa" r="256"/></g><g id="Icons"><path d="m369.1 205.6a126.67 126.67 0 1 0 -228.2 0 167.33 167.33 0 1 0 228.2 0z" fill="#bb88fc"/><path d="m223.83 126v247.81a69.38 69.38 0 0 0 4.63 24.92l17.15 44.6a11.49 11.49 0 0 0 21.44 0l17.16-44.6a69.59 69.59 0 0 0 4.62-24.92v-247.81z" fill="#7cc8fb"/><path d="m276.16 145a32.34 32.34 0 0 0 -32.33 32.33v215.49a69.42 69.42 0 0 0 4.63 24.92l12.33 32.06a11.46 11.46 0 0 1 -15.18-6.48l-17.15-44.59a69.38 69.38 0 0 1 -4.63-24.92v-247.81h65v19z" fill="#41c0e3"/><path d="m292 97.45h-3.13v-55.66a32.5 32.5 0 0 0 -32.5-32.5 32.5 32.5 0 0 0 -32.5 32.5v55.66h-3.12a17.38 17.38 0 0 0 -17.38 17.38 11.87 11.87 0 0 0 11.88 11.87h82.25a11.86 11.86 0 0 0 11.87-11.87 17.38 17.38 0 0 0 -17.37-17.38z" fill="#db1b1b"/><path d="m288.83 80.12v17.33h-65v-55.67a32.5 32.5 0 0 1 18.24-29.21 32.34 32.34 0 0 0 -2.24 11.88v27a28.71 28.71 0 0 0 28.71 28.71z" fill="#c11b1b"/><g fill="#3e436d"><path d="m255 150.54h-31.17v-10h31.17a5 5 0 0 1 5 5 5 5 0 0 1 -5 5z"/><path d="m236.92 174.2h-13.09v-10h13.09a5 5 0 0 1 5 5 5 5 0 0 1 -5 5z"/><path d="m255 197.87h-31.17v-10h31.17a5 5 0 0 1 5 5 5 5 0 0 1 -5 5z"/><path d="m236.92 221.54h-13.09v-10h13.09a5 5 0 0 1 5 5 5 5 0 0 1 -5 5z"/><path d="m255 245.2h-31.17v-10h31.17a5 5 0 0 1 5 5 5 5 0 0 1 -5 5z"/><path d="m236.92 268.87h-13.09v-10h13.09a5 5 0 0 1 5 5 5 5 0 0 1 -5 5z"/><path d="m255 292.54h-31.17v-10h31.17a5 5 0 0 1 5 5 5 5 0 0 1 -5 5z"/><path d="m236.92 316.2h-13.09v-10h13.09a5 5 0 0 1 5 5 5 5 0 0 1 -5 5z"/><path d="m255 339.87h-31.17v-10h31.17a5 5 0 0 1 5 5 5 5 0 0 1 -5 5z"/><path d="m236.92 363.54h-13.09v-10h13.09a5 5 0 0 1 5 5 5 5 0 0 1 -5 5z"/></g><ellipse cx="276" cy="247.09" fill="#aaddf9" rx="10.47" ry="17.01"/><ellipse cx="276" cy="283.89" fill="#aaddf9" rx="8.47" ry="13.77"/><path d="m242.33 488.71a14 14 0 0 0 28 0c0-5.94-8.26-14.85-12.09-18.66a2.71 2.71 0 0 0 -3.82 0c-3.83 3.81-12.09 12.72-12.09 18.66z" fill="#7cc8fb"/></g></svg>