<svg height="512pt" viewBox="1 1 511.99998 511.99998" width="512pt" xmlns="http://www.w3.org/2000/svg"><path d="m512 256c0 32.296875-5.988281 63.207031-16.90625 91.667969-1.546875 4.042969-3.199219 8.027343-4.941406 11.964843-1.703125 3.835938-3.492188 7.605469-5.363282 11.335938-4.34375 8.632812-9.152343 16.96875-14.40625 24.996094-2.226562 3.40625-4.535156 6.757812-6.9375 10.0625-7.179687 9.914062-15.058593 19.296875-23.5625 28.074218-3.984374 4.117188-8.121093 8.109376-12.375 11.953126-3.320312 3-6.726562 5.914062-10.207031 8.738281-3.03125 2.476562-6.132812 4.867187-9.277343 7.199219-42.519532 31.429687-95.097657 50.007812-152.023438 50.007812-55.597656 0-107.050781-17.722656-149.023438-47.824219-6.675781-4.785156-13.125-9.894531-19.300781-15.296875-5.390625-4.703125-10.582031-9.636718-15.546875-14.777344-6.53125-6.726562-12.683594-13.832031-18.453125-21.25-3.644531-4.703124-7.144531-9.542968-10.457031-14.503906-3.679688-5.464844-7.136719-11.085937-10.386719-16.84375-.074219-.136718-.15625-.285156-.230469-.417968-2.914062-5.183594-5.652343-10.480469-8.191406-15.882813-.304687-.605469-.585937-1.214844-.867187-1.828125-1.378907-2.980469-2.695313-5.988281-3.972657-9.019531-12.601562-30.28125-19.570312-63.507813-19.570312-98.355469 0-38.734375 8.609375-75.472656 24.011719-108.386719 40.8125-87.207031 129.347656-147.613281 231.988281-147.613281s191.175781 60.40625 231.988281 147.613281c15.402344 32.914063 24.011719 69.652344 24.011719 108.386719zm0 0" fill="#4c86cc"/><path d="m512 256c0 32.296875-5.988281 63.207031-16.90625 91.667969-1.546875 4.042969-3.199219 8.027343-4.941406 11.964843-1.703125 3.835938-3.492188 7.605469-5.363282 11.335938-4.34375 8.632812-9.152343 16.96875-14.40625 24.996094-2.226562 3.40625-4.535156 6.757812-6.9375 10.0625-7.179687 9.914062-15.058593 19.296875-23.5625 28.074218-3.984374 4.117188-8.121093 8.109376-12.375 11.953126-3.320312 3-6.726562 5.914062-10.207031 8.738281-3.03125 2.476562-6.132812 4.867187-9.277343 7.199219-42.519532 31.429687-95.097657 50.007812-152.023438 50.007812-55.597656 0-107.050781-17.722656-149.023438-47.824219-6.675781-4.785156-13.125-9.894531-19.300781-15.296875-5.390625-4.703125-10.582031-9.636718-15.546875-14.777344-6.53125-6.726562-12.683594-13.832031-18.453125-21.25-3.644531-4.703124-7.144531-9.542968-10.457031-14.503906-3.679688-5.464844-7.136719-11.085937-10.386719-16.84375-.074219-.136718-.15625-.285156-.230469-.417968-2.914062-5.183594-5.652343-10.480469-8.191406-15.882813-.304687-.605469-.585937-1.214844-.867187-1.828125-1.378907-2.980469-2.695313-5.988281-3.972657-9.019531-12.601562-30.28125-19.570312-63.507813-19.570312-98.355469 0-38.734375 8.609375-75.472656 24.011719-108.386719h463.976562c15.402344 32.914063 24.011719 69.652344 24.011719 108.386719zm0 0" fill="#31474c"/><path d="m71.625 185.769531c-30.007812 0-54.335938-24.328125-54.335938-54.339843v-41.988282c0-15.335937 12.429688-27.765625 27.765626-27.765625h53.148437c15.332031 0 27.761719 12.429688 27.761719 27.765625v41.988282c0 30.011718-24.328125 54.339843-54.339844 54.339843zm0 0" fill="#ffbda9"/><path d="m79.398438 185.214844c-2.539063.367187-5.128907.550781-7.769532.550781-30.011718 0-54.34375-24.324219-54.34375-54.335937v-47.527344l15.550782-22.226563v69.753907c0 27.371093 20.238281 50.015624 46.5625 53.785156zm0 0" fill="#efa492"/><path d="m125.917969 77.808594c0-27.359375-22.179688-49.535156-49.539063-49.535156h-9.554687c-27.359375 0-49.535157 22.175781-49.535157 49.535156v35.070312c8.457032 0 15.3125-6.855468 15.3125-15.316406v-19.753906h78.050782v19.753906c0 8.460938 6.855468 15.316406 15.3125 15.316406v-35.070312zm0 0" fill="#ff2751"/><path d="m93.453125 142.617188c0 .199218 0 .398437-.011719.59375-.058594 2.355468-.5 4.625-1.257812 6.730468-.824219 2.335938-2.039063 4.480469-3.5625 6.367188-.671875.835937-1.410156 1.625-2.195313 2.34375-3.890625 3.601562-9.089843 5.792968-14.800781 5.792968-5.707031 0-10.90625-2.191406-14.796875-5.792968-.785156-.71875-1.523437-1.503906-2.195313-2.34375-1.523437-1.886719-2.738281-4.03125-3.566406-6.367188-.753906-2.105468-1.195312-4.375-1.253906-6.730468-.011719-.195313-.011719-.394532-.011719-.59375zm0 0" fill="#2c2133"/><path d="m48.023438 104.386719c3.269531 0 5.921874 2.652343 5.921874 5.921875v9.277344c0 3.269531-2.652343 5.921874-5.921874 5.921874-3.269532 0-5.917969-2.652343-5.917969-5.921874v-9.277344c-.003907-3.269532 2.648437-5.921875 5.917969-5.921875zm0 0" fill="#2c2133"/><path d="m95.230469 104.386719c3.269531 0 5.917969 2.652343 5.917969 5.921875v9.277344c0 3.269531-2.648438 5.921874-5.917969 5.921874s-5.921875-2.652343-5.921875-5.921874v-9.277344c0-3.269532 2.648437-5.921875 5.921875-5.921875zm0 0" fill="#2c2133"/><path d="m196.339844 185.769531c-30.011719 0-54.339844-24.328125-54.339844-54.339843v-41.988282c0-15.335937 12.429688-27.765625 27.765625-27.765625h53.148437c15.332032 0 27.765626 12.429688 27.765626 27.765625v41.988282c-.003907 30.011718-24.332032 54.339843-54.339844 54.339843zm0 0" fill="#ffbda9"/><path d="m204.113281 185.214844c-2.539062.367187-5.132812.550781-7.773437.550781-30.011719 0-54.339844-24.324219-54.339844-54.335937v-47.527344l15.546875-22.226563v69.753907c0 27.371093 20.238281 50.015624 46.566406 53.785156zm0 0" fill="#efa492"/><path d="m250.628906 77.808594c0-27.359375-22.179687-49.535156-49.539062-49.535156h-9.554688c-27.359375 0-49.535156 22.175781-49.535156 49.535156v35.070312c8.457031 0 15.3125-6.855468 15.3125-15.316406v-19.753906h78.050781v19.753906c0 8.460938 6.855469 15.316406 15.3125 15.316406v-35.070312zm0 0" fill="#31474c"/><path d="m218.164062 142.617188c0 .199218 0 .398437-.011718.59375-.058594 2.355468-.5 4.625-1.253906 6.730468-.828126 2.335938-2.042969 4.480469-3.566407 6.367188-.671875.835937-1.410156 1.625-2.195312 2.34375-3.890625 3.601562-9.089844 5.792968-14.796875 5.792968-5.710938 0-10.90625-2.191406-14.800782-5.792968-.785156-.71875-1.523437-1.503906-2.195312-2.34375-1.523438-1.886719-2.738281-4.03125-3.5625-6.367188-.757812-2.105468-1.199219-4.375-1.257812-6.730468-.011719-.195313-.011719-.394532-.011719-.59375zm0 0" fill="#2c2133"/><path d="m172.734375 104.386719c3.269531 0 5.921875 2.652343 5.921875 5.921875v9.277344c0 3.269531-2.652344 5.921874-5.921875 5.921874s-5.917969-2.652343-5.917969-5.921874v-9.277344c0-3.269532 2.648438-5.921875 5.917969-5.921875zm0 0" fill="#2c2133"/><path d="m219.941406 104.386719c3.269532 0 5.917969 2.652343 5.917969 5.921875v9.277344c0 3.269531-2.648437 5.921874-5.917969 5.921874-3.269531 0-5.921875-2.652343-5.921875-5.921874v-9.277344c0-3.269532 2.652344-5.921875 5.921875-5.921875zm0 0" fill="#2c2133"/><path d="m321.050781 185.769531c-30.011719 0-54.339843-24.328125-54.339843-54.339843v-41.988282c0-15.335937 12.429687-27.765625 27.765624-27.765625h53.148438c15.332031 0 27.765625 12.429688 27.765625 27.765625v41.988282c0 30.011718-24.328125 54.339843-54.339844 54.339843zm0 0" fill="#ffbda9"/><path d="m328.824219 185.214844c-2.539063.367187-5.128907.550781-7.769531.550781-30.015626 0-54.34375-24.324219-54.34375-54.335937v-47.527344l15.546874-22.226563v69.753907c0 27.371093 20.238282 50.015624 46.566407 53.785156zm0 0" fill="#efa492"/><path d="m375.339844 77.808594c0-27.359375-22.175782-49.535156-49.535156-49.535156h-9.554688c-27.359375 0-49.539062 22.175781-49.539062 49.535156v35.070312c8.457031 0 15.316406-6.855468 15.316406-15.316406v-19.753906h78.046875v19.753906c0 8.460938 6.859375 15.316406 15.316406 15.316406v-35.070312zm0 0" fill="#f4ca19"/><path d="m342.875 142.617188c0 .199218 0 .398437-.011719.59375-.058593 2.355468-.5 4.625-1.253906 6.730468-.828125 2.335938-2.042969 4.480469-3.566406 6.367188-.671875.835937-1.40625 1.625-2.195313 2.34375-3.890625 3.601562-9.089844 5.792968-14.796875 5.792968-5.710937 0-10.90625-2.191406-14.796875-5.792968-.789062-.71875-1.523437-1.503906-2.195312-2.34375-1.523438-1.886719-2.742188-4.03125-3.566406-6.367188-.757813-2.105468-1.195313-4.375-1.253907-6.730468-.015625-.195313-.015625-.394532-.015625-.59375zm0 0" fill="#2c2133"/><path d="m297.449219 104.386719c3.269531 0 5.917969 2.652343 5.917969 5.921875v9.277344c0 3.269531-2.648438 5.921874-5.917969 5.921874s-5.921875-2.652343-5.921875-5.921874v-9.277344c0-3.269532 2.648437-5.921875 5.921875-5.921875zm0 0" fill="#2c2133"/><path d="m344.652344 104.386719c3.269531 0 5.921875 2.652343 5.921875 5.921875v9.277344c0 3.269531-2.652344 5.921874-5.921875 5.921874-3.269532 0-5.921875-2.652343-5.921875-5.921874v-9.277344c0-3.269532 2.652343-5.921875 5.921875-5.921875zm0 0" fill="#2c2133"/><path d="m445.761719 185.769531c-30.011719 0-54.339844-24.328125-54.339844-54.339843v-41.988282c0-15.335937 12.433594-27.765625 27.765625-27.765625h53.148438c15.335937 0 27.765624 12.429688 27.765624 27.765625v41.988282c0 30.011718-24.328124 54.339843-54.339843 54.339843zm0 0" fill="#ffbda9"/><path d="m453.535156 185.214844c-2.539062.367187-5.128906.550781-7.769531.550781-30.011719 0-54.34375-24.324219-54.34375-54.335937v-47.527344l15.550781-22.226563v69.753907c0 27.371093 20.234375 50.015624 46.5625 53.785156zm0 0" fill="#efa492"/><path d="m500.050781 77.808594c0-27.359375-22.175781-49.535156-49.535156-49.535156h-9.554687c-27.359376 0-49.535157 22.175781-49.535157 49.535156v35.070312c8.457031 0 15.3125-6.855468 15.3125-15.316406v-19.753906h78.050781v19.753906c0 8.460938 6.855469 15.316406 15.3125 15.316406v-35.070312zm0 0" fill="#31474c"/><path d="m467.585938 142.617188c0 .199218 0 .398437-.011719.59375-.054688 2.355468-.5 4.625-1.253907 6.730468-.824218 2.335938-2.042968 4.480469-3.566406 6.367188-.671875.835937-1.40625 1.625-2.195312 2.34375-3.890625 3.601562-9.085938 5.792968-14.796875 5.792968-5.710938 0-10.90625-2.191406-14.796875-5.792968-.789063-.71875-1.523438-1.503906-2.195313-2.34375-1.523437-1.886719-2.742187-4.03125-3.566406-6.367188-.753906-2.105468-1.195313-4.375-1.253906-6.730468-.011719-.195313-.011719-.394532-.011719-.59375zm0 0" fill="#2c2133"/><path d="m422.160156 104.386719c3.269532 0 5.917969 2.652343 5.917969 5.921875v9.277344c0 3.269531-2.648437 5.921874-5.917969 5.921874-3.269531 0-5.921875-2.652343-5.921875-5.921874v-9.277344c0-3.269532 2.652344-5.921875 5.921875-5.921875zm0 0" fill="#2c2133"/><path d="m469.363281 104.386719c3.269531 0 5.921875 2.652343 5.921875 5.921875v9.277344c0 3.269531-2.652344 5.921874-5.921875 5.921874s-5.917969-2.652343-5.917969-5.921874v-9.277344c0-3.269532 2.648438-5.921875 5.917969-5.921875zm0 0" fill="#2c2133"/><path d="m71.625 329.960938c-30.007812 0-54.335938-24.328126-54.335938-54.335938v-41.992188c0-15.332031 12.429688-27.765624 27.765626-27.765624h53.148437c15.332031 0 27.761719 12.433593 27.761719 27.765624v41.992188c0 30.007812-24.328125 54.335938-54.339844 54.335938zm0 0" fill="#ffbda9"/><path d="m79.398438 329.40625c-2.539063.367188-5.128907.550781-7.769532.550781-30.011718 0-54.34375-24.324219-54.34375-54.332031v-47.53125l15.550782-22.226562v69.757812c0 27.371094 20.238281 50.011719 46.5625 53.78125zm0 0" fill="#efa492"/><g fill="#2c2133"><path d="m125.917969 222c0-27.359375-22.179688-49.535156-49.539063-49.535156h-9.554687c-27.359375 0-49.535157 22.175781-49.535157 49.535156v35.070312c8.457032 0 15.3125-6.855468 15.3125-15.3125v-19.757812h78.050782v19.757812c0 8.457032 6.855468 15.3125 15.3125 15.3125v-35.070312zm0 0"/><path d="m93.453125 286.808594c0 .199218 0 .398437-.011719.597656-.058594 2.351562-.5 4.621094-1.257812 6.726562-.824219 2.335938-2.039063 4.480469-3.5625 6.367188-.671875.839844-1.410156 1.625-2.195313 2.34375-3.890625 3.601562-9.089843 5.792969-14.800781 5.792969-5.707031 0-10.90625-2.191407-14.796875-5.792969-.785156-.71875-1.523437-1.503906-2.195313-2.34375-1.523437-1.886719-2.738281-4.03125-3.566406-6.367188-.753906-2.105468-1.195312-4.375-1.253906-6.726562-.011719-.199219-.011719-.398438-.011719-.597656zm0 0"/><path d="m48.023438 248.578125c3.269531 0 5.921874 2.652344 5.921874 5.921875v9.277344c0 3.269531-2.652343 5.921875-5.921874 5.921875-3.269532 0-5.917969-2.652344-5.917969-5.921875v-9.277344c-.003907-3.269531 2.648437-5.921875 5.917969-5.921875zm0 0"/><path d="m95.230469 248.578125c3.269531 0 5.917969 2.652344 5.917969 5.921875v9.277344c0 3.269531-2.648438 5.921875-5.917969 5.921875s-5.921875-2.652344-5.921875-5.921875v-9.277344c0-3.269531 2.648437-5.921875 5.921875-5.921875zm0 0"/></g><path d="m196.339844 329.960938c-30.011719 0-54.339844-24.328126-54.339844-54.335938v-41.992188c0-15.332031 12.429688-27.765624 27.765625-27.765624h53.148437c15.332032 0 27.765626 12.433593 27.765626 27.765624v41.992188c-.003907 30.007812-24.332032 54.335938-54.339844 54.335938zm0 0" fill="#ffbda9"/><path d="m204.113281 329.40625c-2.539062.367188-5.132812.550781-7.773437.550781-30.011719 0-54.339844-24.324219-54.339844-54.332031v-47.53125l15.546875-22.226562v69.757812c0 27.371094 20.238281 50.011719 46.566406 53.78125zm0 0" fill="#efa492"/><path d="m250.628906 222c0-27.359375-22.179687-49.535156-49.539062-49.535156h-9.554688c-27.359375 0-49.535156 22.175781-49.535156 49.535156v35.070312c8.457031 0 15.3125-6.855468 15.3125-15.3125v-19.757812h78.050781v19.757812c0 8.457032 6.855469 15.3125 15.3125 15.3125v-35.070312zm0 0" fill="#ff2751"/><path d="m218.164062 286.808594c0 .199218 0 .398437-.011718.597656-.058594 2.351562-.5 4.621094-1.253906 6.726562-.828126 2.335938-2.042969 4.480469-3.566407 6.367188-.671875.839844-1.410156 1.625-2.195312 2.34375-3.890625 3.601562-9.089844 5.792969-14.796875 5.792969-5.710938 0-10.90625-2.191407-14.800782-5.792969-.785156-.71875-1.523437-1.503906-2.195312-2.34375-1.523438-1.886719-2.738281-4.03125-3.5625-6.367188-.757812-2.105468-1.199219-4.375-1.257812-6.726562-.011719-.199219-.011719-.398438-.011719-.597656zm0 0" fill="#2c2133"/><path d="m172.734375 248.578125c3.269531 0 5.921875 2.652344 5.921875 5.921875v9.277344c0 3.269531-2.652344 5.921875-5.921875 5.921875s-5.917969-2.652344-5.917969-5.921875v-9.277344c0-3.269531 2.648438-5.921875 5.917969-5.921875zm0 0" fill="#2c2133"/><path d="m219.941406 248.578125c3.269532 0 5.917969 2.652344 5.917969 5.921875v9.277344c0 3.269531-2.648437 5.921875-5.917969 5.921875-3.269531 0-5.921875-2.652344-5.921875-5.921875v-9.277344c0-3.269531 2.652344-5.921875 5.921875-5.921875zm0 0" fill="#2c2133"/><path d="m321.050781 329.960938c-30.011719 0-54.339843-24.328126-54.339843-54.335938v-41.992188c0-15.332031 12.429687-27.765624 27.765624-27.765624h53.148438c15.332031 0 27.765625 12.433593 27.765625 27.765624v41.992188c0 30.007812-24.328125 54.335938-54.339844 54.335938zm0 0" fill="#ffbda9"/><path d="m328.824219 329.40625c-2.539063.367188-5.128907.550781-7.769531.550781-30.015626 0-54.34375-24.324219-54.34375-54.332031v-47.53125l15.546874-22.226562v69.757812c0 27.371094 20.238282 50.011719 46.566407 53.78125zm0 0" fill="#efa492"/><path d="m375.339844 222c0-27.359375-22.175782-49.535156-49.535156-49.535156h-9.554688c-27.359375 0-49.539062 22.175781-49.539062 49.535156v35.070312c8.457031 0 15.316406-6.855468 15.316406-15.3125v-19.757812h78.046875v19.757812c0 8.457032 6.859375 15.3125 15.316406 15.3125v-35.070312zm0 0" fill="#2c2133"/><path d="m342.875 286.808594c0 .199218 0 .398437-.011719.597656-.058593 2.351562-.5 4.621094-1.253906 6.726562-.828125 2.335938-2.042969 4.480469-3.566406 6.367188-.671875.839844-1.40625 1.625-2.195313 2.34375-3.890625 3.601562-9.089844 5.792969-14.796875 5.792969-5.710937 0-10.90625-2.191407-14.796875-5.792969-.789062-.71875-1.523437-1.503906-2.195312-2.34375-1.523438-1.886719-2.742188-4.03125-3.566406-6.367188-.757813-2.105468-1.195313-4.375-1.253907-6.726562-.015625-.199219-.015625-.398438-.015625-.597656zm0 0" fill="#2c2133"/><path d="m297.449219 248.578125c3.269531 0 5.917969 2.652344 5.917969 5.921875v9.277344c0 3.269531-2.648438 5.921875-5.917969 5.921875s-5.921875-2.652344-5.921875-5.921875v-9.277344c0-3.269531 2.648437-5.921875 5.921875-5.921875zm0 0" fill="#2c2133"/><path d="m344.652344 248.578125c3.269531 0 5.921875 2.652344 5.921875 5.921875v9.277344c0 3.269531-2.652344 5.921875-5.921875 5.921875-3.269532 0-5.921875-2.652344-5.921875-5.921875v-9.277344c0-3.269531 2.652343-5.921875 5.921875-5.921875zm0 0" fill="#2c2133"/><path d="m445.761719 329.960938c-30.011719 0-54.339844-24.328126-54.339844-54.335938v-41.992188c0-15.332031 12.433594-27.765624 27.765625-27.765624h53.148438c15.335937 0 27.765624 12.433593 27.765624 27.765624v41.992188c0 30.007812-24.328124 54.335938-54.339843 54.335938zm0 0" fill="#ffbda9"/><path d="m453.535156 329.40625c-2.539062.367188-5.128906.550781-7.769531.550781-30.011719 0-54.34375-24.324219-54.34375-54.332031v-47.53125l15.550781-22.226562v69.757812c0 27.371094 20.234375 50.011719 46.5625 53.78125zm0 0" fill="#efa492"/><path d="m500.050781 222c0-27.359375-22.175781-49.535156-49.535156-49.535156h-9.554687c-27.359376 0-49.535157 22.175781-49.535157 49.535156v35.070312c8.457031 0 15.3125-6.855468 15.3125-15.3125v-19.757812h78.050781v19.757812c0 8.457032 6.855469 15.3125 15.3125 15.3125v-35.070312zm0 0" fill="#4c86cc"/><path d="m467.585938 286.808594c0 .199218 0 .398437-.011719.597656-.054688 2.351562-.5 4.621094-1.253907 6.726562-.824218 2.335938-2.042968 4.480469-3.566406 6.367188-.671875.839844-1.40625 1.625-2.195312 2.34375-3.890625 3.601562-9.085938 5.792969-14.796875 5.792969-5.710938 0-10.90625-2.191407-14.796875-5.792969-.789063-.71875-1.523438-1.503906-2.195313-2.34375-1.523437-1.886719-2.742187-4.03125-3.566406-6.367188-.753906-2.105468-1.195313-4.375-1.253906-6.726562-.011719-.199219-.011719-.398438-.011719-.597656zm0 0" fill="#2c2133"/><path d="m422.160156 248.578125c3.269532 0 5.917969 2.652344 5.917969 5.921875v9.277344c0 3.269531-2.648437 5.921875-5.917969 5.921875-3.269531 0-5.921875-2.652344-5.921875-5.921875v-9.277344c0-3.269531 2.652344-5.921875 5.921875-5.921875zm0 0" fill="#2c2133"/><path d="m469.363281 248.578125c3.269531 0 5.921875 2.652344 5.921875 5.921875v9.277344c0 3.269531-2.652344 5.921875-5.921875 5.921875s-5.917969-2.652344-5.917969-5.921875v-9.277344c0-3.269531 2.648438-5.921875 5.917969-5.921875zm0 0" fill="#2c2133"/><path d="m125.960938 380.929688v41.980468c0 16.511719-7.363282 31.296875-18.984376 41.265625-35.820312-25.683593-64.742187-60.394531-83.433593-100.800781 5.085937-6.238281 12.828125-10.21875 21.511719-10.21875h53.144531c15.339843 0 27.761719 12.433594 27.761719 27.773438zm0 0" fill="#ffbda9"/><path d="m32.832031 353.15625v28.347656c-3-5.320312-5.8125-10.753906-8.421875-16.300781zm0 0" fill="#efa492"/><path d="m125.960938 369.289062v35.074219c-8.453126 0-15.304688-6.863281-15.304688-15.316406v-19.757813h-78.054688v11.796876c-2.914062-5.183594-5.652343-10.480469-8.191406-15.882813-.304687-.605469-.585937-1.214844-.867187-1.828125-1.378907-2.980469-2.695313-5.988281-3.972657-9.019531 6.332032-20.0625 25.097657-34.605469 47.25-34.605469h9.5625c27.355469 0 49.539063 22.183594 49.539063 49.539062zm0 0" fill="#4c86cc"/><path d="m93.457031 434.101562c0 .199219 0 .398438-.023437.597657-.050782 2.351562-.488282 4.617187-1.253906 6.71875-.824219 2.339843-2.035157 4.480469-3.5625 6.375-.300782.375-.617188.738281-.941407 1.085937-5.390625-4.703125-10.582031-9.636718-15.546875-14.777344zm0 0" fill="#2c2133"/><path d="m53.949219 401.785156v9.289063c0 .617187-.09375 1.210937-.273438 1.777343-3.644531-4.703124-7.144531-9.542968-10.457031-14.503906 1.0625-1.507812 2.820312-2.476562 4.804688-2.476562 3.269531 0 5.925781 2.652344 5.925781 5.914062zm0 0" fill="#2c2133"/><path d="m95.230469 395.867188c3.269531 0 5.917969 2.652343 5.917969 5.921874v9.28125c0 3.269532-2.648438 5.921876-5.917969 5.921876s-5.921875-2.652344-5.921875-5.921876v-9.28125c0-3.269531 2.648437-5.921874 5.921875-5.921874zm0 0" fill="#2c2133"/><path d="m196.339844 477.25c-30.011719 0-54.339844-24.328125-54.339844-54.335938v-41.992187c0-15.332031 12.429688-27.761719 27.765625-27.761719h53.148437c15.332032 0 27.765626 12.429688 27.765626 27.761719v41.992187c-.003907 30.007813-24.332032 54.335938-54.339844 54.335938zm0 0" fill="#ffbda9"/><path d="m204.113281 476.695312c-2.539062.367188-5.132812.554688-7.773437.554688-30.011719 0-54.339844-24.324219-54.339844-54.335938v-47.53125l15.546875-22.222656v69.753906c0 27.371094 20.238281 50.011719 46.566406 53.78125zm0 0" fill="#efa492"/><path d="m250.628906 369.289062c0-27.355468-22.179687-49.535156-49.539062-49.535156h-9.554688c-27.359375 0-49.535156 22.179688-49.535156 49.535156v35.070313c8.457031 0 15.3125-6.855469 15.3125-15.3125v-19.757813h78.050781v19.757813c0 8.457031 6.855469 15.3125 15.3125 15.3125v-35.070313zm0 0" fill="#85d5e8"/><path d="m218.164062 434.097656c0 .199219 0 .398438-.011718.597656-.058594 2.355469-.5 4.621094-1.253906 6.726563-.828126 2.335937-2.042969 4.480469-3.566407 6.367187-.671875.839844-1.410156 1.625-2.195312 2.34375-3.890625 3.605469-9.089844 5.792969-14.796875 5.792969-5.710938 0-10.90625-2.1875-14.800782-5.792969-.785156-.71875-1.523437-1.503906-2.195312-2.34375-1.523438-1.886718-2.738281-4.03125-3.5625-6.367187-.757812-2.105469-1.199219-4.371094-1.257812-6.726563-.011719-.199218-.011719-.398437-.011719-.597656zm0 0" fill="#2c2133"/><path d="m172.734375 395.867188c3.269531 0 5.921875 2.652343 5.921875 5.921874v9.28125c0 3.269532-2.652344 5.921876-5.921875 5.921876s-5.917969-2.652344-5.917969-5.921876v-9.28125c0-3.269531 2.648438-5.921874 5.917969-5.921874zm0 0" fill="#2c2133"/><path d="m219.941406 395.867188c3.269532 0 5.917969 2.652343 5.917969 5.921874v9.28125c0 3.269532-2.648437 5.921876-5.917969 5.921876-3.269531 0-5.921875-2.652344-5.921875-5.921876v-9.28125c0-3.269531 2.652344-5.921874 5.921875-5.921874zm0 0" fill="#2c2133"/><path d="m321.050781 477.25c-30.011719 0-54.339843-24.328125-54.339843-54.335938v-41.992187c0-15.332031 12.429687-27.761719 27.765624-27.761719h53.148438c15.332031 0 27.765625 12.429688 27.765625 27.761719v41.992187c0 30.007813-24.328125 54.335938-54.339844 54.335938zm0 0" fill="#ffbda9"/><path d="m328.824219 476.695312c-2.539063.367188-5.128907.554688-7.769531.554688-30.015626 0-54.34375-24.324219-54.34375-54.335938v-47.53125l15.546874-22.222656v69.753906c0 27.371094 20.238282 50.011719 46.566407 53.78125zm0 0" fill="#efa492"/><path d="m375.339844 369.289062c0-27.355468-22.175782-49.535156-49.535156-49.535156h-9.554688c-27.359375 0-49.539062 22.179688-49.539062 49.535156v35.070313c8.457031 0 15.316406-6.855469 15.316406-15.3125v-19.757813h78.046875v19.757813c0 8.457031 6.859375 15.3125 15.316406 15.3125v-35.070313zm0 0" fill="#2c2133"/><path d="m342.875 434.097656c0 .199219 0 .398438-.011719.597656-.058593 2.355469-.5 4.621094-1.253906 6.726563-.828125 2.335937-2.042969 4.480469-3.566406 6.367187-.671875.839844-1.40625 1.625-2.195313 2.34375-3.890625 3.605469-9.089844 5.792969-14.796875 5.792969-5.710937 0-10.90625-2.1875-14.796875-5.792969-.789062-.71875-1.523437-1.503906-2.195312-2.34375-1.523438-1.886718-2.742188-4.03125-3.566406-6.367187-.757813-2.105469-1.195313-4.371094-1.253907-6.726563-.015625-.199218-.015625-.398437-.015625-.597656zm0 0" fill="#2c2133"/><path d="m297.449219 395.867188c3.269531 0 5.917969 2.652343 5.917969 5.921874v9.28125c0 3.269532-2.648438 5.921876-5.917969 5.921876s-5.921875-2.652344-5.921875-5.921876v-9.28125c0-3.269531 2.648437-5.921874 5.921875-5.921874zm0 0" fill="#2c2133"/><path d="m344.652344 395.867188c3.269531 0 5.921875 2.652343 5.921875 5.921874v9.28125c0 3.269532-2.652344 5.921876-5.921875 5.921876-3.269532 0-5.921875-2.652344-5.921875-5.921876v-9.28125c0-3.269531 2.652343-5.921874 5.921875-5.921874zm0 0" fill="#2c2133"/><path d="m490.152344 359.632812c-18.109375 40.867188-46.605469 76.101563-82.128906 102.359376-10.242188-9.875-16.605469-23.730469-16.605469-39.082032v-41.980468c0-15.339844 12.433593-27.773438 27.773437-27.773438h53.144532c6.78125 0 13 2.421875 17.816406 6.476562zm0 0" fill="#ffbda9"/><path d="m417.300781 454.792969c-3.03125 2.476562-6.132812 4.867187-9.277343 7.199219-10.242188-9.875-16.605469-23.730469-16.605469-39.082032v-47.53125l15.550781-22.222656v69.753906c0 11.914063 3.832031 22.9375 10.332031 31.882813zm0 0" fill="#efa492"/><path d="m495.09375 347.667969c-1.546875 4.042969-3.199219 8.027343-4.941406 11.964843-1.703125 3.835938-3.492188 7.605469-5.363282 11.335938v-1.679688h-78.050781v19.757813c0 8.453125-6.855469 15.316406-15.320312 15.316406v-35.074219c0-27.355468 22.183593-49.539062 49.539062-49.539062h9.5625c19.601563 0 36.550781 11.386719 44.574219 27.917969zm0 0" fill="#f4ca19"/><path d="m439.882812 434.101562c-3.984374 4.117188-8.121093 8.109376-12.375 11.953126-.949218-1.429688-1.722656-2.988282-2.308593-4.636719-.75-2.101563-1.191407-4.367188-1.253907-6.71875-.007812-.199219-.007812-.398438-.007812-.597657zm0 0" fill="#2c2133"/><path d="m422.160156 395.867188c3.269532 0 5.917969 2.652343 5.917969 5.921874v9.28125c0 3.269532-2.648437 5.921876-5.917969 5.921876-3.269531 0-5.921875-2.652344-5.921875-5.921876v-9.28125c0-3.269531 2.652344-5.921874 5.921875-5.921874zm0 0" fill="#2c2133"/><path d="m470.382812 395.964844c-2.226562 3.40625-4.535156 6.757812-6.9375 10.0625v-4.242188c0-3.261718 2.652344-5.914062 5.921876-5.914062.347656 0 .691406.03125 1.015624.09375zm0 0" fill="#2c2133"/></svg>