<svg id="Icons" enable-background="new 0 0 512 512" height="512" viewBox="0 0 512 512" width="512" xmlns="http://www.w3.org/2000/svg"><g><circle cx="256" cy="256" fill="#78c795" r="256"/><g><g><path d="m124.609 422.944c-11.05 0-19.836-3.045-25.971-9.18-14.904-14.904-11.577-45.47 9.368-86.069 20.044-38.853 53.947-83.114 95.462-124.63s85.777-75.418 124.63-95.462c40.599-20.944 71.165-24.271 86.069-9.368 14.904 14.904 11.577 45.47-9.368 86.069-20.044 38.853-53.947 83.114-95.462 124.63s-85.777 75.418-124.63 95.462c-23.887 12.324-44.303 18.548-60.098 18.548zm263.511-323.41c-13.765 0-32.723 5.918-55.16 17.494-37.906 19.556-81.231 52.774-121.993 93.537s-73.981 84.087-93.537 121.993c-18.385 35.636-22.501 62.502-11.293 73.709 11.207 11.209 38.074 7.091 73.709-11.293 37.906-19.556 81.231-52.774 121.993-93.537s73.981-84.087 93.537-121.993c18.385-35.636 22.501-62.502 11.293-73.709-4.151-4.152-10.453-6.201-18.549-6.201z" fill="#decee5"/></g><g><path d="m85.728 308.98c3.465-3.465 7.495-6.075 11.774-7.807 12.818-5.177 28.057-2.589 38.454 7.808 13.861 13.861 13.84 36.345-.021 50.206-8.872 8.872-21.293 12.066-32.733 9.603-6.388-1.42-12.484-4.593-17.473-9.582-13.884-13.883-13.863-36.366-.001-50.228z" fill="#2d2667"/><path d="m85.728 308.98c3.465-3.465 7.495-6.075 11.774-7.807 6.43 1.378 12.546 4.572 17.557 9.582 13.861 13.861 13.862 36.324-.021 50.207-3.486 3.486-7.516 6.096-11.837 7.829-6.388-1.42-12.484-4.593-17.473-9.582-13.883-13.884-13.862-36.367 0-50.229z" fill="#6052a3"/><circle cx="96.929" cy="334.371" fill="#9175a7" r="16.789"/></g><g><path d="m388.196 422.944c-15.795 0-36.208-6.223-60.098-18.548-38.853-20.044-83.114-53.947-124.63-95.462s-75.418-85.777-95.462-124.63c-20.944-40.599-24.272-71.165-9.368-86.069 14.905-14.904 45.471-11.575 86.069 9.368 38.853 20.044 83.114 53.947 124.63 95.462s75.418 85.777 95.462 124.63c20.944 40.599 24.272 71.165 9.368 86.069-6.134 6.134-14.924 9.18-25.971 9.18zm-263.511-323.41c-8.098 0-14.397 2.049-18.549 6.2-11.207 11.207-7.091 38.073 11.293 73.709 19.556 37.906 52.774 81.231 93.537 121.993s84.087 73.981 121.993 93.537c35.636 18.385 62.503 22.502 73.709 11.293 11.207-11.207 7.091-38.073-11.293-73.709-19.556-37.906-52.774-81.231-93.537-121.993s-84.087-73.981-121.993-93.537c-22.435-11.574-41.396-17.493-55.16-17.493z" fill="#ebd9ea"/></g><g><g><path d="m256.402 479.113c-21.077 0-40.338-23.966-54.235-67.484-13.3-41.646-20.625-96.916-20.625-155.628s7.325-113.982 20.625-155.628c13.897-43.518 33.158-67.484 54.235-67.484s40.338 23.966 54.236 67.484c13.3 41.646 20.625 96.916 20.625 155.628s-7.325 113.982-20.625 155.628c-13.897 43.518-33.159 67.484-54.236 67.484zm0-435.622c-15.849 0-31.936 21.908-44.134 60.106-12.976 40.631-20.122 94.756-20.122 152.403s7.146 111.771 20.122 152.403c12.199 38.198 28.285 60.106 44.134 60.106s31.936-21.908 44.134-60.106c12.976-40.631 20.122-94.756 20.122-152.403s-7.146-111.771-20.122-152.403c-12.198-38.198-28.284-60.106-44.134-60.106z" fill="#fff"/></g><g><g><path d="m339.625 97.852c0 4.901-1.004 9.595-2.805 13.846-5.403 12.724-18.009 21.67-32.712 21.67-19.603 0-35.486-15.913-35.486-35.516 0-12.547 6.524-23.589 16.355-29.936 5.521-3.513 12.075-5.58 19.131-5.58 19.633 0 35.517 15.913 35.517 35.516z" fill="#b82065"/></g><g><path d="m339.625 97.852c0 4.901-1.004 9.595-2.805 13.846-5.52 3.572-12.104 5.639-19.19 5.639-19.603 0-35.487-15.883-35.487-35.516 0-4.93 1.004-9.625 2.834-13.905 5.521-3.513 12.075-5.58 19.131-5.58 19.633 0 35.517 15.913 35.517 35.516z" fill="#d7156f"/></g><g><circle cx="313.751" cy="87.819" fill="#ed72ab" r="16.789"/></g></g></g><g><path d="m309.383 426.675c-3.465-3.465-6.075-7.495-7.807-11.774-5.177-12.818-2.589-28.057 7.808-38.454 13.861-13.861 36.345-13.84 50.206.021 8.872 8.872 12.066 21.293 9.603 32.733-1.42 6.388-4.593 12.484-9.582 17.473-13.883 13.883-36.367 13.863-50.228.001z" fill="#bf5e39"/><path d="m309.383 426.675c-3.465-3.465-6.075-7.495-7.807-11.774 1.377-6.43 4.572-12.546 9.582-17.557 13.861-13.861 36.324-13.862 50.207.021 3.486 3.486 6.096 7.516 7.829 11.837-1.42 6.388-4.593 12.484-9.582 17.473-13.884 13.882-36.368 13.862-50.229 0z" fill="#dd5e26"/><circle cx="334.773" cy="415.473" fill="#ea792e" r="16.789"/></g><g><g><path d="m305.298 256c0 6.75-1.383 13.215-3.864 19.07-7.441 17.525-24.803 29.846-45.053 29.846-26.999 0-48.874-21.917-48.874-48.916 0-17.281 8.986-32.489 22.526-41.231 7.604-4.839 16.631-7.685 26.349-7.685 27.04 0 48.916 21.916 48.916 48.916z" fill="#50755c"/></g><g><path d="m305.298 256c0 6.75-1.383 13.215-3.864 19.07-7.603 4.92-16.671 7.766-26.43 7.766-26.999 0-48.875-21.876-48.875-48.916 0-6.79 1.383-13.256 3.903-19.152 7.604-4.839 16.631-7.685 26.349-7.685 27.041.001 48.917 21.917 48.917 48.917z" fill="#528f66"/></g><g><circle cx="269.662" cy="242.182" fill="#53b976" r="23.124"/></g></g></g></g></svg>