<svg id="Capa_1" enable-background="new 0 0 512 512" height="512" viewBox="0 0 512 512" width="512" xmlns="http://www.w3.org/2000/svg"><g><g><g><path d="m256 332.058c-141.387 0-244.309-163.638-223.789-200.471 43.73-78.493 127.558-131.587 223.789-131.587 96.009 0 179.672 52.849 223.485 131.043 20.709 36.958-82.098 201.015-223.485 201.015z" fill="#ff0f47"/><path d="m512 256c0 26.051-3.891 51.191-11.129 74.871-5.031 16.469-11.672 32.231-19.75 47.109-8.25 15.2-147.391 50.064-225.121 50.064s-216.871-34.864-225.109-50.064c-3.289-6.031-6.332-12.21-9.121-18.531-14-31.629-21.77-66.629-21.77-103.449 0-46.219 12.25-89.57 33.68-127 44.121 77.07 127.16 129 222.32 129s178.211-51.93 222.32-129c21.43 37.43 33.68 80.781 33.68 127zm0 0" fill="#ba1956"/><path d="m481.262 377.699c-7.16 13.223-15.434 25.742-24.723 37.43-5.166 6.51-10.648 12.759-16.418 18.727-3.654 3.78-7.424 7.447-11.302 10.996-45.539 41.699-274.212 51.312-314.852 24.156-10.88-7.27-21.171-15.351-30.788-24.156-10-9.153-19.282-19.09-27.719-29.723-9.289-11.688-17.563-24.207-24.723-37.43zm0 0" fill="#742466"/></g><g><path d="m440.515 433.441v-246.979c0-23.785-19.461-43.246-43.246-43.246-23.884 0-44.858 13.083-56.117 32.434h-86.461v325.785h74.26c43.001-12.761 81.275-36.505 111.564-67.994z" fill="#ffc46c"/><path d="m157.976 492.546c8.153 3.383 16.52 6.352 25.074 8.89h114.888v-325.786h-139.962z" fill="#ffd89d"/><path d="m157.976 492.546c8.153 3.383 16.52 6.352 25.074 8.89h28.984v-325.786h-54.057v316.896z" fill="#ffeac9"/><path d="m297.937 327.011-21.983 43.967 21.983 43.967c24.282 0 43.967-19.684 43.967-43.967s-19.685-43.967-43.967-43.967z" fill="#ff0f47"/><path d="m253.971 370.978c0 24.282 19.684 43.967 43.967 43.967v-87.933c-24.283-.001-43.967 19.683-43.967 43.966z" fill="#ff415d"/><path d="m386.458 240.519h-88.521l-21.623 10.812 21.623 10.811h88.521z" fill="#742466"/><path d="m212.033 240.519h85.904v21.623h-85.904z" fill="#ba1956"/><path d="m386.458 283.765h-88.521l-21.623 10.812 21.623 10.811h88.521z" fill="#742466"/><path d="m212.033 283.765h85.904v21.623h-85.904z" fill="#ba1956"/><path d="m397.269 143.216h-99.332l-21.623 21.623 21.623 21.623h56.086c0-23.785 19.461-43.246 43.246-43.246z" fill="#ffd89d"/><path d="m114.73 143.216c-23.785 0-43.246 19.461-43.246 43.246h226.453v-43.246z" fill="#ffebce"/><path d="m212.096 143.216h-97.366c-23.785 0-43.246 19.461-43.246 43.246h140.612z" fill="#fff9f0"/><path d="m354.023 469.001h-56.086l-36.038 21.623 31.16 18.696c23.35-3.386 45.677-9.922 66.54-19.166-3.541-6.264-5.576-13.48-5.576-21.153z" fill="#ffd89d"/><path d="m256 512c14.285 0 28.29-1.189 41.937-3.438v-39.56h-183.973c40.642 27.155 89.486 42.998 142.036 42.998z" fill="#ffebce"/></g><g fill="#fff"><path d="m272.08 52.727h-1.524c-6.754 0-12.226-5.477-12.226-12.227v-1.523h-8.715v1.523c0 6.75-5.477 12.227-12.227 12.227h-1.527v8.715h1.527c6.75 0 12.227 5.472 12.227 12.226v1.528h8.715v-1.528c0-6.754 5.472-12.226 12.226-12.226h1.524zm0 0"/><path d="m381.615 89.994h-1.524c-6.754 0-12.226-5.477-12.226-12.227v-1.523h-8.715v1.523c0 6.75-5.477 12.227-12.227 12.227h-1.527v8.715h1.527c6.75 0 12.227 5.472 12.227 12.226v1.528h8.715v-1.528c0-6.754 5.472-12.226 12.226-12.226h1.524zm0 0"/><path d="m162.545 89.994h-1.524c-6.754 0-12.226-5.477-12.226-12.227v-1.523h-8.715v1.523c0 6.75-5.477 12.227-12.227 12.227h-1.527v8.715h1.527c6.75 0 12.227 5.472 12.227 12.226v1.528h8.715v-1.528c0-6.754 5.472-12.226 12.226-12.226h1.524zm0 0"/></g></g><path d="m113.964 469.001c29.046 19.407 62.284 33.019 98.069 39.214v-39.214z" fill="#fff9f0"/></g></svg>