<svg id="Capa_1" enable-background="new 0 0 512 512" height="512" viewBox="0 0 512 512" width="512" xmlns="http://www.w3.org/2000/svg"><g><g><g><g><g><g><g><circle cx="256" cy="256" fill="#7584f2" r="256"/></g></g></g></g></g></g><path d="m313.566 105.046-42.566-42.566-55.285 41.996 35.344 35.344-35.344 20.878 28.851 28.851-28.851 27.372 32.734 32.734-185.969 21.345 42.829 42.829-42.83 11.25 186.836 186.836c2.221.057 4.45.086 6.685.086 141.385 0 256-114.615 256-256 0-2.235-.029-4.463-.086-6.685l-186.835-186.836z" fill="#4253ce"/><g><path d="m449.521 216.921h-67.778c-47.786 0-86.663-38.877-86.663-86.663v-67.778h30v67.778c0 31.244 25.419 56.663 56.663 56.663h67.778z" fill="#fdba12"/></g><g><path d="m216.921 449.52h-30v-67.778c0-31.244-25.419-56.663-56.663-56.663h-67.779v-30h67.778c47.786 0 86.663 38.877 86.663 86.663v67.778z" fill="#ffce00"/></g><path d="m241 62.48v11.996h-25.285v30h25.285v26.222h-25.285v30h25.285v26.223h-25.285v30h25.285v24.079h-178.52v30h178.52v178.52h18.806v-387.04z" fill="#fff"/><path d="m449.521 271v-30h-178.521v-178.52h-14.879v387.04h14.879v-11.997h31.285v-30h-31.285v-26.222h31.285v-30h-31.285v-26.222h31.285v-30h-31.285v-24.079z" fill="#e9edf5"/></g></svg>