<?xml version="1.0" encoding="iso-8859-1"?>
<!-- Generator: Adobe Illustrator 19.0.0, SVG Export Plug-In . SVG Version: 6.00 Build 0)  -->
<svg version="1.1" id="Capa_1" xmlns="http://www.w3.org/2000/svg" xmlns:xlink="http://www.w3.org/1999/xlink" x="0px" y="0px"
	 viewBox="0 0 512 512" style="enable-background:new 0 0 512 512;" xml:space="preserve">
<path style="fill:#328093;" d="M482.519,375.34C439.616,456.604,354.284,512,256,512C114.615,512,0,397.385,0,256S114.615,0,256,0
	s256,114.615,256,256c0,13.254-1.007,26.272-2.949,38.983c-16.657,21.913-26.551,49.247-26.551,78.896
	C482.5,374.367,482.513,374.853,482.519,375.34z"/>
<path style="fill:#2B6C7E;" d="M188.5,134.125v90c0,1.989-0.79,3.897-2.197,5.303l-80,80c-1.464,1.464-3.384,2.197-5.303,2.197
	s-3.839-0.732-5.303-2.197c-2.929-2.929-2.929-7.678,0-10.606l77.803-77.803v-86.894c0-4.142,3.358-7.5,7.5-7.5
	S188.5,129.983,188.5,134.125z M416.303,298.822L338.5,221.019v-86.894c0-4.142-3.358-7.5-7.5-7.5s-7.5,3.358-7.5,7.5v90
	c0,1.989,0.79,3.897,2.197,5.303l80,80c1.464,1.464,3.384,2.197,5.303,2.197s3.839-0.732,5.303-2.197
	C419.232,306.5,419.232,301.75,416.303,298.822z M256,126.625c-4.142,0-7.5,3.358-7.5,7.5v270c0,4.142,3.358,7.5,7.5,7.5
	s7.5-3.358,7.5-7.5v-270C263.5,129.983,260.142,126.625,256,126.625z"/>
<path style="fill:#B2DFEB;" d="M411,152.875c0,0.039,0,0.078,0,0.117c-0.016,6.182-5.157,11.133-11.339,11.133h-34.095h-43.148
	H219.11h-64.675h-41.953c-5.915,0-10.867-4.543-11.31-10.441c-0.113-1.505-0.171-3.025-0.171-4.559c0-33.137,26.863-60,60-60
	c0.329,0,0.654,0.02,0.982,0.025C179.679,52.871,216.918,27.875,260,27.875c50.165,0,92.407,33.891,105.099,80.023
	c0.301-0.006,0.599-0.023,0.901-0.023C390.853,107.875,411,128.022,411,152.875z"/>
<path style="fill:#90D2E3;" d="M126.513,164.125h-14.032c-5.915,0-10.867-4.543-11.31-10.441c-0.113-1.505-0.171-3.025-0.171-4.559
	c0-33.137,26.863-60,60-60c0.329,0,0.654,0.02,0.982,0.025C179.679,52.871,216.918,27.875,260,27.875
	c36.403,0,68.622,17.856,88.417,45.276c-17.918-12.93-39.914-20.559-63.699-20.559c-43.082,0-80.321,24.996-98.018,61.275
	c-0.328-0.005-0.652-0.025-0.982-0.025C155.891,113.843,131.158,135.611,126.513,164.125z"/>
<path style="fill:#FFF5F5;" d="M336,404.125c0,44.183-35.817,80-80,80s-80-35.817-80-80s35.817-80,80-80S336,359.942,336,404.125z
	 M80,234.125c-44.183,0-80,35.817-80,80s35.817,80,80,80s80-35.817,80-80S124.183,234.125,80,234.125z M432,234.125
	c-44.183,0-80,35.817-80,80s35.817,80,80,80c18.829,0,36.126-6.521,49.792-17.407c13.661-25.499,23.127-53.578,27.481-83.321
	C500.139,259.265,469.012,234.125,432,234.125z"/>
<path style="fill:#FFE7BF;" d="M447.65,392.573c-5.062,1.007-10.291,1.552-15.65,1.552c-44.183,0-80-35.817-80-80s35.817-80,80-80
	c5.363,0,10.597,0.543,15.664,1.55c-36.664,7.297-64.3,39.642-64.3,78.45C383.364,352.928,410.993,385.271,447.65,392.573z
	 M271.664,325.675c-5.067-1.007-10.301-1.55-15.664-1.55c-44.183,0-80,35.817-80,80s35.817,80,80,80
	c5.359,0,10.588-0.545,15.65-1.552c-36.657-7.302-64.287-39.645-64.287-78.448C207.364,365.317,235,332.972,271.664,325.675z
	 M95.664,235.675c-5.067-1.007-10.301-1.55-15.664-1.55c-44.183,0-80,35.817-80,80s35.817,80,80,80
	c5.359,0,10.588-0.545,15.65-1.552c-36.657-7.302-64.287-39.645-64.287-78.448C31.364,275.317,59,242.972,95.664,235.675z"/>
<path style="fill:#00D3B4;" d="M116.429,308.625v11c0,1.104-0.895,2-2,2H45.571c-1.105,0-2-0.896-2-2v-11c0-1.105,0.895-2,2-2
	h68.857C115.533,306.625,116.429,307.52,116.429,308.625z M114.429,276.625H45.571c-1.105,0-2,0.895-2,2v11c0,1.104,0.895,2,2,2
	h68.857c1.105,0,2-0.896,2-2v-11C116.429,277.52,115.533,276.625,114.429,276.625z M104.429,336.625H55.571c-1.105,0-2,0.896-2,2v11
	c0,1.104,0.895,2,2,2h48.857c1.105,0,2-0.896,2-2v-11C106.429,337.521,105.533,336.625,104.429,336.625z"/>
<path style="fill:#FFC143;" d="M409.5,295.196v37.857c0,4.142-3.358,7.5-7.5,7.5s-7.5-3.358-7.5-7.5v-37.857
	c0-4.142,3.358-7.5,7.5-7.5S409.5,291.054,409.5,295.196z M432,267.696c-4.142,0-7.5,3.358-7.5,7.5v77.857
	c0,4.142,3.358,7.5,7.5,7.5s7.5-3.358,7.5-7.5v-77.857C439.5,271.054,436.142,267.696,432,267.696z M462,287.696
	c-4.142,0-7.5,3.358-7.5,7.5v37.857c0,4.142,3.358,7.5,7.5,7.5s7.5-3.358,7.5-7.5v-37.857
	C469.5,291.054,466.142,287.696,462,287.696z"/>
<path style="fill:#FF5757;" d="M287.626,409.092l-49.798,34.148c-3.318,2.275-7.828-0.1-7.828-4.124V370.82
	c0-4.023,4.51-6.399,7.828-4.124l49.798,34.148C290.523,402.831,290.523,407.106,287.626,409.092z"/>
<g>
</g>
<g>
</g>
<g>
</g>
<g>
</g>
<g>
</g>
<g>
</g>
<g>
</g>
<g>
</g>
<g>
</g>
<g>
</g>
<g>
</g>
<g>
</g>
<g>
</g>
<g>
</g>
<g>
</g>
</svg>
