<svg id="Layer_1" enable-background="new 0 0 512 512" height="512" viewBox="0 0 512 512" width="512" xmlns="http://www.w3.org/2000/svg"><g><path d="m34.785 372.417 77.698 93.149c27.927 20.22 60.282 34.694 95.341 41.686l96.358-.001c35.058-6.992 67.411-21.466 95.337-41.685l77.698-93.149c15.245-31.932 23.787-67.676 23.787-105.419 0-135.311-109.691-245.002-245.002-245.002s-245.004 109.691-245.004 245.002c0 37.743 8.542 73.488 23.787 105.419z" fill="#ffdd40"/><path d="m55.698 408.104h400.604c7.93-11.236 14.937-23.167 20.914-35.687v-196.726c0-11.528-6.398-21.585-15.827-26.82-5.02 22.473-25.111 39.327-49.075 39.327-25.312 0-46.305-18.798-49.779-43.165h-45.511c38.269 21.449 64.195 62.404 64.195 109.307 0 69.045-56.173 125.218-125.218 125.218-69.046 0-125.219-56.173-125.219-125.218 0-46.903 25.926-87.858 64.195-109.307h-45.511c-3.474 24.367-24.467 43.165-49.779 43.165-23.965 0-44.055-16.853-49.075-39.326-9.429 5.235-15.827 15.293-15.827 26.82v196.726c5.976 12.518 12.984 24.45 20.913 35.686z" fill="#167cc1"/><path d="m158.532 346.292.349-13.006c-17.556-21.557-28.099-49.042-28.099-78.946 0-26.824 8.491-51.694 22.909-72.091l-12.732-15.667c-9.092 13.051-24.195 21.616-41.273 21.616-23.965 0-44.055-16.853-49.075-39.326-9.429 5.235-15.827 15.293-15.827 26.82v196.726c5.977 12.519 12.984 24.451 20.914 35.686h93.522v-1.796c-17.585-39.266 9.312-60.016 9.312-60.016z" fill="#0e62a8"/><path d="m55.698 408.104h400.604c.391-.554.773-1.116 1.16-1.673v-230.74c0-3.432-1.689-6.546-4.257-8.561-9.133 12.742-24.054 21.068-40.892 21.068-17.85 0-33.546-9.355-42.474-23.411h-26.416c23.302 22.753 37.795 54.49 37.795 89.554 0 69.045-56.173 125.218-125.218 125.218-69.046 0-125.219-56.173-125.219-125.218 0-35.063 14.493-66.801 37.795-89.554h-26.416c-8.928 14.056-24.624 23.411-42.474 23.411-16.838 0-31.758-8.326-40.891-21.068-2.568 2.016-4.257 5.13-4.257 8.561v230.739c.387.558.769 1.119 1.16 1.674z" fill="#3c58a0"/><path d="m158.532 346.292.349-13.006c-17.556-21.557-28.099-49.042-28.099-78.946 0-26.824 8.489-51.695 22.908-72.093l-12.74-15.678c-9.094 13.052-24.184 21.628-41.263 21.628-16.838 0-31.758-8.326-40.891-21.068-2.568 2.016-4.257 5.13-4.257 8.561v230.74c.387.558.768 1.119 1.16 1.673h93.522v-1.796c-17.586-39.265 9.311-60.015 9.311-60.015z" fill="#2a428c"/><path d="m256 512c16.493 0 32.601-1.641 48.181-4.749-.539-1.981-.979-4.087-1.28-6.329l-4.979-37.152h-83.845l-4.979 37.152c-.301 2.245-.74 4.35-1.276 6.329 15.579 3.108 31.686 4.749 48.178 4.749z" fill="#d3dcfb"/><path d="m246.303 501.195c.856-10.035 9.251-17.745 19.322-17.745h34.935l-2.637-19.68h-83.845l-4.979 37.152c-.301 2.245-.74 4.35-1.275 6.329 12.223 2.438 24.775 3.958 37.58 4.506z" fill="#bec8f7"/><ellipse cx="411.132" cy="137.904" fill="#38c674" rx="55" ry="55" transform="matrix(.924 -.383 .383 .924 -21.478 167.831)"/><path d="m449.875 176.935c-1.328-1.202-1.671-2.882-1.714-4.121-.03-.85-.79-1.489-1.637-1.404-10.517 1.064-31.655-3.857-36.784-5.106-.672-.164-1.141-.765-1.141-1.456v-55.223c0-.433-.193-.839-.514-1.13-5.856-5.3-3.859-10.559-2.414-12.947.417-.69.176-1.559-.486-2.021-1.64-1.145-1.441-2.834-1.05-3.958.233-.67-.019-1.417-.628-1.78-1.916-1.141-2.677-2.526-2.832-3.88-25.373 4.885-44.543 27.196-44.543 53.994 0 30.376 24.624 55 55 55 15.114 0 28.802-6.1 38.743-15.968z" fill="#24b55e"/><path d="m446.21 170.584c-.114-.019.071.014-.38-.056l-.011.006c-3.613-.521-9.159.747-14.696-2.481-2.471 3.72-5.375 6.638-8.083 8.741-3.397 2.638-7.59 4.071-11.907 4.071-4.318 0-8.51-1.433-11.907-4.071-2.707-2.102-5.61-5.018-8.079-8.734-5.367 3.145-10.651 1.959-14.392 2.435 0 0-.002-.002-.002-.003-.446.06-.499.059-.698.092l.033.03c-2.517.45-4.807 1.517-6.752 3.019 10.087 11.789 25.064 19.271 41.796 19.271 16.736 0 31.715-7.485 41.803-19.279-1.942-1.503-4.229-2.572-6.744-3.023z" fill="#e9efff"/><path d="m399.225 176.794c-2.707-2.102-5.61-5.018-8.079-8.734-5.367 3.145-10.651 1.959-14.392 2.435 0 0-.002-.002-.002-.003-.446.06-.499.059-.698.092l.033.03c-2.517.45-4.807 1.517-6.752 3.019 3.558 4.158 7.726 7.777 12.363 10.724 2.409-.467 5.162-.91 8.317-1.293 5.212-.633 9.168-2.316 12.166-4.389-1.034-.537-2.026-1.159-2.956-1.881z" fill="#bec8f7"/><path d="m390.498 168.419c2.6 4.203 5.78 7.457 8.727 9.746 3.397 2.638 7.589 4.071 11.907 4.071s8.51-1.433 11.907-4.071c2.949-2.29 6.131-5.547 8.732-9.754-1.525-.795-3.055-1.911-4.55-3.484l.007-.009c-2.53-2.66-3.17-4.797-5.026-8.036-6.83 3.578-15.119 3.678-22.14 0-1.952 3.405-2.542 5.425-5.026 8.036l.007.009c-1.504 1.583-3.03 2.699-4.545 3.492z" fill="#fcad6d"/><path d="m409.495 159.54c-3.234-.221-6.448-1.095-9.433-2.658-1.951 3.405-2.542 5.424-5.026 8.036l.007.009c-1.504 1.583-3.03 2.699-4.545 3.492 2.6 4.203 5.779 7.457 8.727 9.746.586.455 1.202.86 1.832 1.242 8.393-5.108 10.075-13.386 10.075-13.386s-.707-2.755-1.637-6.481z" fill="#fd995b"/><g><path d="m406.626 94.216c-13.533 1.844-14.819 9.517-14.826 12.332-.001.59-.328 1.137-.859 1.396-7.04 3.424-3.244 19.929-3.244 19.929.707.047 1.767.654 2.319.921.135-.841.356-1.669.667-2.469.237-.61.534-1.226.905-1.808.644-1.01.937-2.201.849-3.393-.253-3.443-.452-9.908 4.093-11.952 3.85-1.732 8.573-.729 11.585.272 1.956.65 4.075.65 6.031 0 3.012-1.002 7.735-2.005 11.585-.272 4.532 2.039 4.346 8.471 4.096 11.923-.087 1.2.198 2.404.847 3.422.383.601.687 1.238.928 1.867.3.782.513 1.59.645 2.411.696-.337 2.01-1.025 2.861-.904.104-3.609.437-7.499.437-7.499 4.012-19.644-14.348-28.161-28.919-26.176z" fill="#a05838"/></g><path d="m408.117 109.444c.158.053.319.094.479.138-.012-.417-.199-.807-.509-1.088-5.856-5.3-3.859-10.559-2.414-12.947.23-.38.254-.813.124-1.204-12.749 2.041-13.989 9.448-13.995 12.204-.001.59-.328 1.137-.859 1.396-7.04 3.424-3.244 19.929-3.244 19.929.707.047 1.767.654 2.319.921.135-.841.356-1.669.667-2.469.237-.61.534-1.226.905-1.808.644-1.01.937-2.201.849-3.393-.253-3.443-.451-9.908 4.093-11.952 3.85-1.732 8.573-.729 11.585.273z" fill="#823c26"/><path d="m436.31 128.358c-1.054-.966-3.154-.476-4.061.115.199 1.238.21 2.505.038 3.757l-1.071 7.802c0 .629-.02 1.246-.056 1.852 2.612.788 3.91-1.557 4.128-3.167.094-.693.248-1.376.461-2.042.695-2.169 3.202-5.896.561-8.317z" fill="#fd995b"/><path d="m385.954 128.358c1.054-.966 3.154-.476 4.061.115-.199 1.238-.21 2.505-.038 3.757l1.071 7.802c0 .629.02 1.246.056 1.852-2.612.788-3.91-1.557-4.128-3.167-.094-.693-.248-1.376-.461-2.042-.695-2.169-3.202-5.896-.561-8.317z" fill="#fd995b"/><path d="m431.924 126.063c-.241-.629-.545-1.266-.928-1.867-.649-1.018-.934-2.221-.847-3.422.25-3.452.116-10.204-4.416-12.243-3.85-1.732-8.573-.729-11.585.272-1.956.651-4.076.651-6.032 0-3.012-1.002-7.735-2.005-11.585-.272-4.545 2.045-4.667 8.83-4.414 12.273.087 1.191-.206 2.382-.849 3.392-.371.582-.668 1.198-.905 1.808-.77 1.978-.995 4.124-.706 6.224l1.072 7.804c0 11.22 5.989 18.846 11.083 22.802 2.659 2.065 5.941 3.187 9.32 3.187 3.38 0 6.661-1.122 9.32-3.187 5.094-3.956 11.084-11.582 11.084-22.802l1.071-7.802c.286-2.08.07-4.204-.683-6.167z" fill="#f9ba8f"/><g><path d="m412.765 162.834c-3.516-3.956-7.648-11.582-7.648-22.802l-.739-7.804c-.199-2.101-.044-4.246.487-6.224.164-.61.369-1.226.625-1.808.444-1.01.647-2.201.586-3.392-.164-3.24-.098-9.438 2.525-11.861-.162-.044-.324-.086-.484-.139-3.012-1.002-7.735-2.005-11.585-.272-4.545 2.045-4.667 8.83-4.414 12.273.087 1.191-.206 2.382-.849 3.392-.371.582-.668 1.198-.905 1.808-.77 1.978-.994 4.124-.706 6.224l1.071 7.804c0 11.22 5.989 18.846 11.083 22.802 2.659 2.065 5.941 3.187 9.32 3.187 1.634 0 3.243-.268 4.772-.772-1.128-.54-2.191-1.349-3.139-2.416z" fill="#fcad6d"/></g><g><path d="m411.132 198.044c-33.161 0-60.14-26.979-60.14-60.14s26.979-60.14 60.14-60.14 60.14 26.979 60.14 60.14-26.979 60.14-60.14 60.14zm0-110c-27.492 0-49.859 22.367-49.859 49.859 0 27.493 22.367 49.859 49.859 49.859 27.493 0 49.859-22.367 49.859-49.859s-22.366-49.859-49.859-49.859z" fill="#49d88b"/></g><path d="m455.287 178.432c-6.013.266-7.048-3.39-7.126-5.618-.014-.415-.205-.777-.492-1.032-9.112 9.821-22.116 15.982-36.537 15.982-27.492 0-49.859-22.367-49.859-49.859 0-25.115 18.669-45.942 42.857-49.358-.112-.308-.323-.579-.622-.757-4.638-2.763-2.522-6.956-1.365-8.668.148-.219.222-.467.243-.719-29.03 4.249-51.393 29.311-51.393 59.502 0 33.161 26.979 60.14 60.14 60.14 17.556 0 33.377-7.563 44.382-19.6-.076-.009-.15-.017-.228-.013z" fill="#38c674"/><ellipse cx="256" cy="60.239" fill="#73c3f9" rx="55.09" ry="55.09" transform="matrix(.23 -.973 .973 .23 138.555 295.551)"/><path d="m294.807 99.335c-1.33-1.204-1.673-2.887-1.717-4.128-.03-.852-.791-1.492-1.639-1.406-10.534 1.066-31.707-3.864-36.845-5.115-.673-.164-1.142-.766-1.142-1.459v-55.314c0-.434-.193-.841-.515-1.132-5.866-5.308-3.866-10.576-2.418-12.968.418-.691.176-1.561-.486-2.024-1.643-1.147-1.444-2.839-1.052-3.964.234-.671-.019-1.42-.629-1.783-1.919-1.143-2.682-2.53-2.837-3.886-25.415 4.894-44.617 27.241-44.617 54.084 0 30.426 24.665 55.09 55.09 55.09 15.139 0 28.85-6.11 38.807-15.995z" fill="#4fabf7"/><path d="m291.136 92.974c-.114-.019.072.014-.381-.056l-.011.006c-3.619-.522-9.174.748-14.72-2.486-2.474 3.726-5.384 6.649-8.097 8.756-3.403 2.642-7.602 4.078-11.926 4.078-4.325 0-8.524-1.435-11.927-4.078-2.711-2.105-5.619-5.026-8.092-8.749-5.376 3.15-10.668 1.962-14.415 2.439-.001-.001-.002-.002-.002-.003-.446.06-.5.059-.699.092l.033.03c-2.521.45-4.815 1.52-6.763 3.024 10.103 11.809 25.104 19.303 41.864 19.303 16.764 0 31.767-7.497 41.872-19.31-1.945-1.505-4.236-2.576-6.755-3.028z" fill="#e9efff"/><path d="m244.074 99.194c-2.711-2.105-5.619-5.026-8.092-8.749-5.376 3.15-10.668 1.962-14.415 2.439-.001-.001-.002-.002-.002-.003-.446.06-.5.059-.699.092l.033.03c-2.521.45-4.815 1.52-6.763 3.024 3.564 4.165 7.739 7.79 12.384 10.742 2.413-.468 5.171-.911 8.331-1.295 5.221-.634 9.183-2.32 12.186-4.396-1.038-.538-2.032-1.161-2.963-1.884z" fill="#bec8f7"/><path d="m235.333 90.805c2.604 4.21 5.789 7.469 8.741 9.762 3.403 2.642 7.602 4.078 11.927 4.078s8.524-1.435 11.927-4.078c2.954-2.294 6.142-5.556 8.746-9.77-1.527-.797-3.06-1.914-4.557-3.49l.007-.009c-2.534-2.665-3.175-4.805-5.034-8.05-6.841 3.583-15.144 3.684-22.177 0-1.955 3.411-2.546 5.434-5.034 8.05l.007.009c-1.508 1.586-3.036 2.704-4.553 3.498z" fill="#fcad6d"/><path d="m254.361 81.912c-3.239-.221-6.459-1.097-9.449-2.663-1.955 3.411-2.546 5.434-5.035 8.049l.007.009c-1.507 1.585-3.035 2.704-4.553 3.498 2.604 4.21 5.789 7.469 8.741 9.762.587.456 1.204.861 1.835 1.244 8.407-5.117 10.092-13.409 10.092-13.409s-.707-2.759-1.638-6.49z" fill="#fd995b"/><g><path d="m251.486 16.48c-13.556 1.847-14.844 9.532-14.85 12.352-.001.591-.329 1.139-.861 1.398-7.051 3.43-3.249 19.962-3.249 19.962.708.047 1.77.655 2.323.923.135-.842.356-1.672.668-2.473.238-.611.535-1.228.907-1.811.645-1.012.939-2.205.851-3.398-.253-3.449-.452-9.924 4.1-11.972 3.857-1.735 8.588-.73 11.604.273 1.959.652 4.082.652 6.041 0 3.017-1.003 7.748-2.008 11.604-.273 4.54 2.043 4.353 8.485 4.103 11.943-.087 1.202.199 2.408.848 3.427.384.602.688 1.24.93 1.87.3.783.514 1.593.646 2.415.697-.338 2.014-1.026 2.866-.906.104-3.615.438-7.512.438-7.512 4.018-19.675-14.373-28.207-28.969-26.218z" fill="#a05838"/></g><path d="m252.98 31.733c.158.053.319.094.479.138-.012-.418-.199-.808-.51-1.089-5.866-5.308-3.866-10.576-2.418-12.968.23-.381.254-.814.124-1.206-12.77 2.044-14.013 9.464-14.018 12.224-.001.591-.329 1.139-.861 1.398-7.051 3.43-3.249 19.962-3.249 19.962.708.047 1.77.655 2.323.923.135-.842.356-1.672.668-2.473.238-.611.535-1.228.907-1.811.645-1.012.939-2.205.851-3.398-.253-3.449-.452-9.924 4.1-11.972 3.856-1.736 8.587-.732 11.604.272z" fill="#823c26"/><path d="m281.22 50.679c-1.056-.968-3.159-.477-4.068.115.199 1.241.211 2.51.039 3.763l-1.073 7.815c0 .63-.02 1.248-.056 1.855 2.616.789 3.916-1.56 4.135-3.172.094-.694.248-1.378.462-2.045.695-2.174 3.206-5.907.561-8.331z" fill="#fd995b"/><path d="m230.781 50.679c1.056-.968 3.159-.477 4.068.115-.199 1.241-.211 2.51-.038 3.763l1.073 7.815c0 .63.02 1.248.056 1.855-2.617.789-3.916-1.56-4.135-3.172-.094-.694-.248-1.378-.462-2.045-.696-2.174-3.207-5.907-.562-8.331z" fill="#fd995b"/><path d="m276.827 48.379c-.242-.63-.546-1.268-.93-1.87-.65-1.019-.936-2.225-.849-3.427.25-3.458.116-10.221-4.423-12.263-3.857-1.735-8.587-.731-11.604.273-1.959.651-4.083.651-6.042 0-3.017-1.003-7.748-2.008-11.604-.273-4.552 2.048-4.674 8.844-4.421 12.293.088 1.193-.206 2.386-.851 3.398-.372.583-.669 1.2-.907 1.811-.771 1.981-.996 4.131-.707 6.235l1.073 7.817c0 11.238 5.999 18.877 11.102 22.839 2.663 2.068 5.951 3.192 9.336 3.192s6.672-1.123 9.336-3.192c5.103-3.963 11.102-11.601 11.102-22.839l1.073-7.815c.286-2.085.069-4.213-.684-6.179z" fill="#f9ba8f"/><g><path d="m257.636 85.211c-3.521-3.963-7.661-11.601-7.661-22.839l-.741-7.817c-.199-2.104-.044-4.253.488-6.235.164-.611.369-1.228.626-1.811.445-1.012.648-2.205.587-3.398-.165-3.246-.098-9.453 2.529-11.881-.162-.044-.325-.086-.485-.14-3.017-1.003-7.748-2.008-11.604-.273-4.552 2.048-4.674 8.844-4.421 12.293.088 1.193-.206 2.386-.851 3.398-.372.583-.669 1.2-.907 1.811-.771 1.981-.996 4.13-.707 6.235l1.073 7.817c0 11.238 5.999 18.877 11.102 22.839 2.664 2.068 5.951 3.192 9.336 3.192 1.636 0 3.248-.268 4.779-.773-1.128-.539-2.194-1.349-3.143-2.418z" fill="#fcad6d"/></g><g><path d="m256 120.479c-33.216 0-60.239-27.023-60.239-60.239s27.023-60.24 60.239-60.24 60.239 27.023 60.239 60.239-27.023 60.24-60.239 60.24zm0-110.181c-27.538 0-49.942 22.404-49.942 49.942s22.404 49.942 49.942 49.942 49.941-22.404 49.941-49.942-22.403-49.942-49.941-49.942z" fill="#9bd8f9"/></g><path d="m300.228 100.834c-6.023.266-7.06-3.396-7.138-5.627-.014-.416-.205-.779-.493-1.034-9.127 9.837-22.152 16.008-36.598 16.008-27.538 0-49.942-22.404-49.942-49.942 0-25.157 18.7-46.018 42.928-49.439-.112-.309-.324-.58-.623-.758-4.646-2.768-2.526-6.967-1.367-8.683.148-.219.222-.468.243-.72-29.078 4.256-51.478 29.36-51.478 59.6 0 33.216 27.023 60.239 60.239 60.239 17.585 0 33.432-7.575 44.455-19.632-.074-.007-.148-.015-.226-.012z" fill="#73c3f9"/><ellipse cx="101.006" cy="137.904" fill="#f76ebb" rx="55.125" ry="55.125" transform="matrix(.16 -.987 .987 .16 -51.296 215.516)"/><path d="m139.838 177.024c-1.331-1.205-1.674-2.888-1.718-4.131-.03-.852-.792-1.493-1.64-1.407-10.541 1.066-31.727-3.866-36.868-5.118-.673-.164-1.143-.766-1.143-1.459v-55.349c0-.434-.193-.841-.515-1.133-5.869-5.312-3.868-10.583-2.42-12.976.418-.692.176-1.562-.487-2.025-1.644-1.148-1.445-2.841-1.053-3.967.234-.672-.019-1.42-.63-1.785-1.92-1.144-2.683-2.532-2.839-3.888-25.431 4.897-44.645 27.258-44.645 54.118 0 30.445 24.681 55.125 55.125 55.125 15.15 0 28.869-6.114 38.833-16.005z" fill="#f24ca7"/><path d="m136.164 170.659c-.114-.019.072.014-.381-.056l-.011.006c-3.621-.523-9.18.748-14.73-2.487-2.476 3.729-5.388 6.653-8.102 8.761-3.405 2.644-7.607 4.08-11.934 4.08s-8.529-1.436-11.934-4.08c-2.713-2.107-5.623-5.029-8.098-8.754-5.379 3.152-10.675 1.964-14.424 2.441-.001-.001-.002-.002-.002-.003-.447.06-.5.059-.699.092l.033.03c-2.523.451-4.818 1.521-6.767 3.025 10.11 11.816 25.121 19.315 41.892 19.315 16.774 0 31.788-7.502 41.898-19.323-1.946-1.506-4.239-2.578-6.759-3.03z" fill="#e9efff"/><path d="m89.073 176.883c-2.713-2.107-5.623-5.029-8.098-8.754-5.379 3.152-10.675 1.964-14.424 2.441-.001-.001-.002-.002-.002-.003-.447.06-.5.059-.699.092l.033.03c-2.523.451-4.818 1.521-6.767 3.025 3.566 4.168 7.744 7.795 12.392 10.749 2.414-.469 5.174-.912 8.336-1.296 5.224-.635 9.188-2.322 12.194-4.399-1.039-.538-2.034-1.162-2.965-1.885z" fill="#bec8f7"/><path d="m80.326 168.489c2.606 4.213 5.793 7.474 8.747 9.768 3.405 2.644 7.607 4.08 11.934 4.08s8.529-1.436 11.934-4.08c2.956-2.296 6.146-5.56 8.752-9.776-1.529-.797-3.062-1.916-4.561-3.492l.007-.009c-2.536-2.666-3.177-4.808-5.038-8.055-6.845 3.586-15.153 3.686-22.191 0-1.956 3.413-2.548 5.437-5.038 8.055l.007.009c-1.506 1.586-3.035 2.705-4.553 3.5z" fill="#fcad6d"/><path d="m99.366 159.589c-3.241-.221-6.463-1.097-9.455-2.664-1.956 3.413-2.548 5.437-5.038 8.055l.007.009c-1.508 1.586-3.037 2.705-4.555 3.5 2.606 4.213 5.793 7.474 8.747 9.768.587.456 1.205.862 1.836 1.245 8.412-5.12 10.098-13.417 10.098-13.417s-.708-2.762-1.64-6.496z" fill="#fd995b"/><g><path d="m96.49 94.116c-13.564 1.848-14.853 9.539-14.859 12.36-.001.592-.329 1.14-.861 1.399-7.055 3.432-3.251 19.975-3.251 19.975.708.047 1.771.655 2.324.923.135-.843.356-1.673.669-2.475.238-.611.535-1.229.907-1.812.645-1.012.939-2.206.852-3.4-.254-3.451-.453-9.93 4.103-11.98 3.859-1.737 8.593-.731 11.612.273 1.961.652 4.084.652 6.045 0 3.019-1.004 7.753-2.009 11.612-.273 4.542 2.044 4.356 8.49 4.105 11.95-.087 1.203.199 2.41.849 3.43.384.602.688 1.241.93 1.871.3.784.514 1.594.646 2.416.697-.338 2.015-1.027 2.867-.906.104-3.617.438-7.516.438-7.516 4.019-19.688-14.384-28.225-28.988-26.235z" fill="#a05838"/></g><path d="m97.984 109.379c.158.053.319.094.48.138-.012-.418-.199-.808-.511-1.09-5.869-5.312-3.868-10.583-2.42-12.976.23-.381.255-.815.124-1.206-12.778 2.045-14.021 9.47-14.027 12.232-.001.592-.329 1.14-.861 1.399-7.055 3.432-3.251 19.975-3.251 19.975.708.047 1.771.655 2.324.923.135-.843.357-1.673.669-2.475.238-.611.535-1.229.907-1.812.645-1.012.939-2.206.852-3.4-.254-3.451-.452-9.93 4.103-11.98 3.858-1.738 8.592-.732 11.611.272z" fill="#823c26"/><path d="m124.371 128.546c-1.033-.947-3.092-.467-3.982.113.195 1.214.206 2.456.038 3.683l-1.05 7.649c0 .617-.019 1.221-.055 1.816 2.561.772 3.833-1.527 4.047-3.104.092-.679.243-1.349.452-2.002.681-2.128 3.139-5.782.55-8.155z" fill="#fd995b"/><path d="m75.771 128.337c1.056-.968 3.161-.477 4.071.115-.199 1.241-.211 2.511-.038 3.765l1.074 7.82c0 .63.02 1.249.056 1.856-2.618.79-3.919-1.561-4.138-3.174-.094-.694-.249-1.379-.462-2.047-.697-2.174-3.21-5.91-.563-8.335z" fill="#fd995b"/><path d="m121.846 126.036c-.242-.631-.546-1.269-.93-1.871-.65-1.02-.936-2.227-.849-3.43.251-3.46.116-10.228-4.426-12.271-3.859-1.736-8.593-.731-11.611.273-1.961.652-4.085.652-6.046 0-3.019-1.004-7.753-2.009-11.612-.273-4.555 2.05-4.677 8.85-4.424 12.301.088 1.194-.206 2.388-.851 3.4-.372.583-.669 1.201-.907 1.812-.772 1.983-.997 4.133-.708 6.239l1.074 7.822c0 11.245 6.003 18.888 11.109 22.854 2.665 2.07 5.954 3.194 9.342 3.194 3.387 0 6.676-1.124 9.342-3.194 5.106-3.965 11.109-11.608 11.109-22.854l1.074-7.82c.285-2.086.068-4.215-.686-6.182z" fill="#f9ba8f"/><g><path d="m102.643 162.891c-3.524-3.965-7.666-11.609-7.666-22.854l-.741-7.822c-.2-2.105-.044-4.256.488-6.239.164-.611.369-1.229.626-1.812.445-1.012.648-2.207.588-3.4-.165-3.248-.098-9.46 2.531-11.888-.162-.044-.325-.086-.485-.14-3.019-1.004-7.753-2.009-11.611-.273-4.555 2.05-4.677 8.85-4.424 12.301.088 1.194-.206 2.388-.851 3.4-.372.583-.669 1.201-.907 1.812-.772 1.983-.997 4.133-.708 6.239l1.074 7.822c0 11.245 6.003 18.888 11.109 22.854 2.665 2.07 5.954 3.194 9.342 3.194 1.637 0 3.25-.268 4.782-.773-1.131-.541-2.197-1.352-3.147-2.421z" fill="#fcad6d"/></g><g><path d="m101.006 198.181c-33.237 0-60.278-27.04-60.278-60.278 0-33.237 27.041-60.278 60.278-60.278s60.277 27.04 60.277 60.278-27.04 60.278-60.277 60.278zm0-110.251c-27.555 0-49.973 22.418-49.973 49.973s22.418 49.973 49.973 49.973 49.973-22.418 49.973-49.973-22.417-49.973-49.973-49.973z" fill="#fc90ce"/></g><path d="m145.262 178.524c-6.027.266-7.064-3.398-7.142-5.631-.014-.416-.205-.779-.493-1.035-9.133 9.843-22.166 16.018-36.621 16.018-27.555 0-49.973-22.418-49.973-49.973 0-25.173 18.712-46.047 42.955-49.471-.112-.309-.324-.58-.624-.759-4.649-2.769-2.528-6.971-1.368-8.688.148-.219.222-.468.243-.72-29.097 4.258-51.511 29.378-51.511 59.638 0 33.237 27.041 60.278 60.278 60.278 17.596 0 33.453-7.58 44.483-19.644-.074-.008-.149-.016-.227-.013z" fill="#f76ebb"/><path d="m54.453 406.308c15.85 22.888 35.494 42.943 58.029 59.259h287.036c22.535-16.316 42.179-36.371 58.029-59.259z" fill="#e9efff"/><path d="m149.22 406.308h-94.767c15.85 22.888 35.494 42.943 58.029 59.259h50.314c-13.901-7.86-13.576-25.66-13.576-25.66z" fill="#d3dcfb"/><ellipse cx="256" cy="435.937" fill="#bec8f7" rx="13.217" ry="13.217" transform="matrix(.707 -.707 .707 .707 -233.274 308.702)"/><path d="m327.005 181.663c22.515 9.287 40.431 22.85 51.005 38.939-14.767-53.52-63.795-92.827-122.01-92.827 29.364 0 55.316 21.301 71.005 53.888z" fill="#73c3f9"/><path d="m327.005 327.017c-15.69 32.587-41.642 53.889-71.005 53.889 58.216 0 107.243-39.308 122.01-92.828-10.574 16.089-28.49 29.652-51.005 38.939z" fill="#73c3f9"/><path d="m184.995 327.017c-22.515-9.287-40.431-22.85-51.005-38.94-.363-1.314-.703-2.637-1.024-3.968 13.389 55.534 63.39 96.796 123.035 96.796-29.364 0-55.316-21.301-71.006-53.888z" fill="#1e9ef4"/><path d="m184.995 181.663c15.69-32.587 41.642-53.888 71.005-53.888-59.645 0-109.646 41.262-123.035 96.796.321-1.331.662-2.654 1.024-3.968 10.575-16.089 28.491-29.653 51.006-38.94z" fill="#1e9ef4"/><path d="m327.005 327.017c-13.492 5.565-28.635 9.59-44.85 11.696-6.426 25.893-15.762 42.193-26.155 42.193 29.364-.001 55.316-21.302 71.005-53.889z" fill="#4fabf7"/><path d="m184.995 181.663c13.492-5.565 28.635-9.59 44.85-11.696 6.426-25.892 15.762-42.193 26.156-42.193-29.364.001-55.316 21.302-71.006 53.889z" fill="#1886ea"/><path d="m229.844 338.712c-16.215-2.106-31.358-6.131-44.85-11.696 15.69 32.587 41.642 53.889 71.005 53.889-10.392 0-19.729-16.3-26.155-42.193z" fill="#1886ea"/><path d="m282.156 169.967c16.215 2.106 31.358 6.131 44.85 11.696-15.69-32.587-41.642-53.888-71.005-53.888 10.393 0 19.729 16.3 26.155 42.192z" fill="#4fabf7"/><path d="m229.844 169.967c16.918-2.198 34.638-2.296 52.311 0-6.426-25.893-15.762-42.193-26.155-42.193-10.393.001-19.73 16.301-26.156 42.193z" fill="#73c3f9"/><path d="m282.156 338.712c-16.882 2.193-34.602 2.3-52.311 0 6.426 25.893 15.762 42.193 26.156 42.193 10.393 0 19.729-16.3 26.155-42.193z" fill="#73c3f9"/><path d="m327.005 181.663c6.636 13.783 11.436 29.583 13.88 46.647 25.591 6.42 41.673 15.701 41.68 26.023-.001-11.028-1.437-22.423-4.549-33.711-.002-.007-.004-.014-.006-.021-10.574-16.087-28.49-29.651-51.005-38.938z" fill="#4fabf7"/><path d="m184.995 327.017c-6.636-13.783-11.436-29.583-13.88-46.647-25.596-6.422-41.68-15.704-41.68-26.03 0 1.32.027 2.633.067 3.943.307 10.035 1.806 20.075 4.488 29.794 10.574 16.089 28.49 29.653 51.005 38.94z" fill="#1886ea"/><path d="m171.115 228.31c2.445-17.064 7.244-32.865 13.88-46.647-22.515 9.287-40.431 22.851-51.005 38.94-3.064 11.105-4.555 22.532-4.555 33.737 0-10.325 16.083-19.608 41.68-26.03z" fill="#1886ea"/><path d="m382.498 258.291c.04-1.31.067-2.624.067-3.945-.007 10.322-16.088 19.603-41.68 26.023-2.445 17.064-7.244 32.865-13.88 46.647 22.515-9.287 40.431-22.85 51.005-38.939.585-2.743 3.995-13.625 4.488-29.786z" fill="#4fabf7"/><path d="m282.156 338.712c16.215-2.106 31.358-6.131 44.85-11.696 6.636-13.783 11.436-29.583 13.88-46.647-14.399 3.612-31.809 6.318-51.061 7.794-1.46 19.026-4.12 36.25-7.669 50.549z" fill="#73c3f9"/><path d="m340.886 228.31c-2.445-17.064-7.244-32.864-13.88-46.647-13.492-5.565-28.635-9.59-44.85-11.696 3.549 14.299 6.209 31.523 7.669 50.548 19.251 1.478 36.662 4.183 51.061 7.795z" fill="#73c3f9"/><path d="m171.115 280.37c2.445 17.064 7.244 32.865 13.88 46.647 13.492 5.565 28.634 9.59 44.85 11.696-3.549-14.299-6.209-31.523-7.668-50.548-19.253-1.478-36.663-4.183-51.062-7.795z" fill="#1e9ef4"/><path d="m229.844 169.967c-16.215 2.106-31.358 6.131-44.85 11.696-6.636 13.783-11.436 29.583-13.88 46.647 14.399-3.612 31.809-6.318 51.061-7.794 1.461-19.026 4.121-36.249 7.669-50.549z" fill="#1e9ef4"/><path d="m222.176 288.164c1.46 19.026 4.12 36.249 7.668 50.548 16.918 2.198 34.638 2.296 52.311 0 3.549-14.299 6.209-31.523 7.669-50.548-21.539 1.652-45.056 1.733-67.648 0z" fill="#4fabf7"/><path d="m289.824 220.516c-1.46-19.025-4.12-36.249-7.669-50.548-16.882-2.193-34.602-2.3-52.311 0-3.548 14.299-6.209 31.523-7.668 50.548 21.541-1.653 45.059-1.733 67.648 0z" fill="#4fabf7"/><path d="m171.115 228.31c-25.596 6.422-41.68 15.705-41.68 26.03 0 10.325 16.083 19.608 41.68 26.03-2.453-17.125-2.454-34.927 0-52.06z" fill="#1e9ef4"/><path d="m382.565 254.334c-.007-10.322-16.088-19.603-41.68-26.023 2.453 17.123 2.454 34.926 0 52.059 25.591-6.42 41.673-15.701 41.68-26.023 0-.002 0-.004 0-.007 0-.002 0-.004 0-.006z" fill="#73c3f9"/><path d="m340.886 228.31c-14.399-3.612-31.809-6.317-51.061-7.794 1.652 21.543 1.733 45.059 0 67.648 19.252-1.477 36.663-4.182 51.061-7.794 2.452-17.123 2.454-34.927 0-52.06z" fill="#4fabf7"/><path d="m222.176 220.516c-19.252 1.477-36.663 4.182-51.061 7.794-2.453 17.124-2.454 34.926 0 52.059 14.399 3.612 31.809 6.318 51.061 7.794-1.652-21.542-1.733-45.058 0-67.647z" fill="#1886ea"/><path d="m222.176 220.516c-1.652 21.543-1.733 45.059 0 67.648 21.541 1.652 45.059 1.733 67.648 0 1.652-21.543 1.733-45.059 0-67.648-21.539-1.653-45.056-1.733-67.648 0z" fill="#73c3f9"/><g><path d="m256 388.405c-73.924 0-134.065-60.142-134.065-134.065s60.142-134.065 134.065-134.065 134.065 60.142 134.065 134.065-60.141 134.065-134.065 134.065zm0-253.13c-65.653 0-119.065 53.412-119.065 119.065s53.413 119.065 119.065 119.065 119.065-53.412 119.065-119.065-53.412-119.065-119.065-119.065z" fill="#9bd8f9"/></g><path d="m243.306 372.728c-59.706-6.357-106.371-57.023-106.371-118.388 0-61.494 46.86-112.247 106.746-118.431v-.086c-8.479-4.239-5.669-11.959-4.444-14.502-66.041 8.275-117.302 64.772-117.302 133.019 0 68.857 52.183 125.746 119.077 133.223-7.222-8.126.754-13.845 2.294-14.835z" fill="#73c3f9"/></g></svg>