<svg height="512" viewBox="0 0 512 512" width="512" xmlns="http://www.w3.org/2000/svg"><g id="BULINE"><circle cx="256" cy="256" fill="#f6c752" r="256"/></g><g id="Icons"><path d="m222.62 366.77h66.46v46.97h-66.46z" fill="#32314b"/><path d="m222.62 366.77h66.46v16.76h-66.46z" fill="#27273d"/><path d="m465.67 61.9v273.16a31.71 31.71 0 0 1 -31.67 31.71h-356.25a31.71 31.71 0 0 1 -31.75-31.71v-273.16a10.76 10.76 0 0 1 10.79-10.76h398.13a10.76 10.76 0 0 1 10.75 10.76z" fill="#3e436d"/><path d="m156.85 366.77h-79.09a31.72 31.72 0 0 1 -31.76-31.71v-273.16a10.76 10.76 0 0 1 10.8-10.76h79.09a10.77 10.77 0 0 0 -10.76 10.76v273.16a31.72 31.72 0 0 0 31.72 31.71z" fill="#32314b"/><rect fill="#3e436d" height="25.82" rx="12.91" width="193.34" x="159.19" y="413.75"/><circle cx="255.92" cy="339.6" fill="#27273d" r="12.08"/><path d="m465.67 61.9v253.62h-419.67v-253.62a10.76 10.76 0 0 1 10.8-10.76h398.12a10.76 10.76 0 0 1 10.75 10.76z" fill="#a2daf9"/><path d="m135.89 51.14a10.77 10.77 0 0 0 -10.76 10.76v253.62h-79.13v-253.62a10.76 10.76 0 0 1 10.8-10.76z" fill="#7cc8fb"/><path d="m434.31 439.56a257.29 257.29 0 0 1 -44.93 34.9 255.75 255.75 0 0 1 -267 0 257.29 257.29 0 0 1 -44.93-34.9z" fill="#a65c3b"/><path d="m362.27 124.62c-6.16-11-22.91-14-48.44-8.68-23.08 4.83-51 16-78.57 31.43s-51.69 33.38-67.87 50.52c-17.91 19-24.11 34.81-17.95 45.83 4.18 7.46 13.22 11.28 26.56 11.28a108.48 108.48 0 0 0 21.88-2.58c23.08-4.83 51-16 78.57-31.42s51.69-33.39 67.87-50.53c17.91-18.99 24.12-34.84 17.95-45.85zm-91.39 86.38c-26.6 14.89-53.36 25.62-75.33 30.21-22.73 4.76-33.59 1.53-36.17-3.08s.35-15.55 16.29-32.43c15.41-16.33 38.55-33.52 65.16-48.41 41.2-23.05 75.59-32.54 95-32.54 8.76 0 14.5 1.93 16.45 5.41 6.32 11.23-21.63 47.41-81.4 80.84z" fill="#db2c62"/><path d="m335.71 255a108.48 108.48 0 0 1 -21.88-2.58c-23.08-4.83-51-16-78.57-31.42s-51.69-33.39-67.87-50.53c-17.91-19-24.11-34.81-17.95-45.82s22.91-14 48.44-8.68c23.08 4.83 51 16 78.57 31.43s51.69 33.38 67.87 50.52c17.91 19 24.12 34.81 17.95 45.83-4.17 7.43-13.22 11.25-26.56 11.25zm-159.88-130.23c-8.76 0-14.5 1.93-16.45 5.41-6.27 11.21 21.68 47.39 81.45 80.84 26.6 14.89 53.36 25.62 75.33 30.21 22.73 4.76 33.59 1.53 36.17-3.08s-.33-15.55-16.33-32.43c-15.41-16.33-38.55-33.52-65.16-48.41-41.16-23.05-75.55-32.54-95.01-32.54z" fill="#ff78a9"/><path d="m255.86 306.11c-12.62 0-23.42-13.15-31.23-38-7.06-22.49-10.94-52.29-10.94-83.9s3.88-61.42 10.94-83.91c7.81-24.89 18.61-38 31.23-38s23.41 13.15 31.22 38c7.06 22.49 10.94 52.29 10.94 83.91s-3.88 61.41-10.94 83.9c-7.81 24.89-18.6 38-31.22 38zm0-232.49c-12.85 0-30.78 42.05-30.78 110.55s17.92 110.55 30.78 110.55 30.77-42.06 30.77-110.55-17.93-110.55-30.77-110.55z" fill="#fc4581"/><path d="m217.41 235.19h-.1c-3.7 1.24-7.34 2.36-10.88 3.34q.94 5.79 2.09 11.25c3.51-.95 7.09-2 10.75-3.24l.19-.06q-1.12-5.35-2.05-11.29zm-14.77-67.25q-.31 7.08-.35 14.35 5.53-4.17 11.53-8.28c0-1.29.07-2.57.12-3.85s.1-2.56.16-3.83c0-.73.07-1.47.11-2.2l.09-1.64c.05-.87.11-1.73.16-2.59q-6.09 3.96-11.82 8.04z" fill="#bc285e"/><path d="m214.31 205.84-.09-1.64c0-.73-.08-1.47-.11-2.2-.06-1.27-.11-2.54-.16-3.83 0-.63 0-1.27-.07-1.9s0-1.28 0-1.92q-6.09-4.16-11.53-8.27 0 7.25.35 14.33 5.72 4.07 11.83 8c-.11-.84-.17-1.7-.22-2.57zm5-84.08q-5.49-1.8-10.75-3.24-1.14 5.46-2.09 11.23 5.22 1.45 10.88 3.35h.1q.93-5.92 2.05-11.31z" fill="#ea71a2"/><path d="m217.41 235.19h-.1q.87 5.82 2 11.35l.19-.06q-1.16-5.35-2.09-11.29z" fill="#3586cb"/><circle cx="255.84" cy="184.17" fill="#fc4581" r="19.46"/><path d="m259.39 203.31a19.86 19.86 0 0 1 -3.55.32 19.46 19.46 0 0 1 0-38.92 19 19 0 0 1 3.55.32 19.46 19.46 0 0 0 0 38.28z" fill="#fa3268"/><circle cx="263.35" cy="179.24" fill="#fc72a4" r="7.51"/><circle cx="329.48" cy="247.63" fill="#e88032" r="12.96"/><path d="m331.84 260.38a13.19 13.19 0 0 1 -2.36.21 13 13 0 1 1 0-25.91 13.19 13.19 0 0 1 2.36.21 13 13 0 0 0 0 25.49z" fill="#cc6c2b"/><circle cx="334.48" cy="244.36" fill="#f29e64" r="5"/><circle cx="181.31" cy="247.63" fill="#aa60fa" r="12.96"/><path d="m183.68 260.38a13.19 13.19 0 0 1 -2.36.21 13 13 0 1 1 0-25.91 13.19 13.19 0 0 1 2.36.21 13 13 0 0 0 0 25.49z" fill="#934cf5"/><circle cx="186.32" cy="244.36" fill="#cd88f8" r="5"/><circle cx="329.48" cy="120.08" fill="#38c487" r="12.96"/><path d="m331.84 132.82a13.2 13.2 0 0 1 -2.36.22 13 13 0 0 1 0-25.92 13.2 13.2 0 0 1 2.36.22 13 13 0 0 0 0 25.48z" fill="#00b564"/><circle cx="334.48" cy="116.8" fill="#4acc97" r="5"/><circle cx="181.31" cy="120.08" fill="#db1b1b" r="12.96"/><path d="m183.68 132.82a13.2 13.2 0 0 1 -2.36.22 13 13 0 1 1 0-25.92 13.2 13.2 0 0 1 2.36.22 13 13 0 0 0 0 25.48z" fill="#ba1919"/><circle cx="186.32" cy="116.8" fill="#e54a4a" r="5"/></g></svg>