<svg id="Capa_1" enable-background="new 0 0 512.354 512.354" height="512" viewBox="0 0 512.354 512.354" width="512" xmlns="http://www.w3.org/2000/svg"><g><g><path d="m512.177 256c0 141.387-114.613 256-256 256s-256-114.613-256-256 114.613-256 256-256 256 114.613 256 256zm0 0" fill="#ffeb78"/><path d="m512.177 256c0 26.051-3.891 51.191-11.129 74.871-5.031 16.469-11.672 32.231-19.75 47.109-8.25 15.2-18 29.461-29.051 42.61-.582.691-1.16 1.379-1.75 2.058-46.941 54.704-116.59 89.352-194.32 89.352s-147.379-34.648-194.309-89.352c-.589-.687-1.179-1.378-1.75-2.07-11.062-13.137-20.812-27.398-29.05-42.598-3.289-6.031-6.332-12.21-9.121-18.531-14-31.629-21.77-66.629-21.77-103.449 0-46.219 12.25-89.57 33.68-127 44.121 77.07 127.16 129 222.32 129s178.211-51.93 222.32-129c21.43 37.43 33.68 80.781 33.68 127zm0 0" fill="#f2d332"/><path d="m481.439 377.699c-7.16 13.223-15.434 25.742-24.723 37.43-8.437 10.633-17.719 20.57-27.719 29.723-45.539 41.699-106.211 67.148-172.82 67.148s-127.281-25.449-172.82-67.148c-10-9.153-19.282-19.09-27.719-29.723-9.289-11.688-17.563-24.207-24.723-37.43zm0 0" fill="#e79d25"/></g><g><path d="m369.236 485.726c29.994-14.79 56.669-35.277 78.617-60.054v-104.995h-78.617z" fill="#002bad"/><path d="m256.177 129-95.838 191.677 95.838 191.677c105.86 0 191.677-85.817 191.677-191.677s-85.817-191.677-191.677-191.677z" fill="#5a7ba0"/><path d="m64.5 320.677c0 105.86 85.817 191.677 191.677 191.677v-383.354c-105.861 0-191.677 85.817-191.677 191.677z" fill="#7397b8"/><path d="m64.5 320.677c0 105.86 85.816 191.677 191.677 191.677-209.915-49.879-201.119-342.013 0-383.354-105.861 0-191.677 85.817-191.677 191.677z" fill="#87b2d9"/><path d="m256.177 286.984-16.847 33.693 16.847 33.693c18.608 0 33.693-15.085 33.693-33.693s-15.085-33.693-33.693-33.693z" fill="#7397b8"/><path d="m222.484 320.677c0 18.608 15.085 33.693 33.693 33.693v-67.386c-18.609 0-33.693 15.085-33.693 33.693z" fill="#8db3cf"/><path d="m332.545 272.245 43.815-14.236c-19.309-36.953-55.155-63.889-97.721-70.99v46.061c0 27.977 27.298 47.81 53.906 39.165z" fill="#002bad"/><path d="m233.715 233.08v-46.07c-41.111 6.944-77.806 32.713-97.713 71.001l43.807 14.234c26.607 8.645 53.906-11.188 53.906-39.165z" fill="#133fd9"/><path d="m165.926 314.971-43.815-14.236c-6.1 41.245 7.069 84.106 37.331 114.871l27.074-37.264c16.445-22.635 6.018-54.726-20.59-63.371z" fill="#133fd9"/><path d="m289.493 404.747c-8.222-11.317-20.769-16.975-33.316-16.975l-22.462 34.21 22.462 34.21c20.545.016 41.233-4.618 60.39-14.181z" fill="#002bad"/><path d="m222.861 404.747-27.079 37.271c18.814 9.345 39.531 14.158 60.395 14.175v-68.421c-12.547 0-25.094 5.658-33.316 16.975z" fill="#133fd9"/><path d="m325.837 378.341 27.079 37.271c29.178-29.783 43.718-72.198 37.318-114.875l-43.807 14.234c-26.607 8.645-37.034 40.736-20.59 63.37z" fill="#002bad"/></g></g></svg>