<svg id="Capa_1" enable-background="new 0 0 512 512" height="512" viewBox="0 0 512 512" width="512" xmlns="http://www.w3.org/2000/svg"><g><g><path d="m0 256c0 43.79 11 85.02 30.39 121.07l225.61 49.67 225.61-49.67c19.39-36.05 30.39-77.28 30.39-121.07 0-46.63-12.47-90.34-34.26-128-41.698 72.091-399.22 76.52-443.48 0-21.79 37.66-34.26 81.37-34.26 128z" fill="#9965d8"/><path d="m34.26 128c44.26 76.52 126.99 128 221.74 128s177.48-51.48 221.74-128c-.01-.02-.03-.05-.04-.07-44.27-76.48-126.98-127.93-221.7-127.93s-177.43 51.45-221.7 127.93c-.01.02-.03.05-.04.07z" fill="#b895e5"/><path d="m481.61 377.07c-20.92 38.92-51.64 71.8-88.84 95.37-6.74 4.27-30.81-14.58-37.95-10.95-7.57 3.85 1.76 30.14-6.21 33.23-21.47 8.34-44.35 13.87-68.18 16.13-8.04.76-16.19-24.618-24.43-24.618s-16.39 25.378-24.43 24.618c-23.83-2.26-46.71-7.79-68.18-16.13-7.75-3.01-3.61-18.1-10.98-21.82-7.36-3.72-26.25 3.93-33.18-.46-37.2-23.57-67.92-56.45-88.84-95.37z" fill="#5541b6"/></g><g><g fill="#c8cde4"><path d="m268.5 348.93-12.5 17.34-7.79 10.8-84.82 117.65c-15.51-6.01-30.29-13.5-44.16-22.28l68.75-95.37 40.88-56.71 27.14 19.56z"/><path d="m392.77 472.44c-13.87 8.78-28.65 16.27-44.16 22.28l-84.82-117.65-7.79-10.8-12.5-17.34 12.5-9.01 27.14-19.56 40.88 56.71z"/></g><path d="m280.43 337.1v173.75c-8.04.76-16.19 1.15-24.43 1.15s-16.39-.39-24.43-1.15v-173.75z" fill="#e8ebf7"/><path d="m280.43 337.1v173.75c-8.04.76-16.19 1.15-24.43 1.15v-174.9z" fill="#daddee"/><g><path d="m417.81 240.51-36.91-63.93-37.23-64.48c35.46-20.47 80.81-8.32 101.28 27.14s8.32 80.8-27.14 101.27z" fill="#9febff"/><path d="m417.81 240.51-36.91-63.93 64.05-37.34c20.47 35.46 8.32 80.8-27.14 101.27z" fill="#70c5e9"/><path d="m44.218 283.758h232.985v39.936h-232.985z" fill="#daddee" transform="matrix(.866 -.5 .5 .866 -130.332 121.047)"/><path d="m49.21 302.388h232.985v19.968h-232.985z" fill="#c8cde4" transform="matrix(.866 -.5 .5 .866 -133.986 124.701)"/><path d="m94.359 233.619h232.985v82.316h-232.985z" fill="#daddee" transform="matrix(.866 -.5 .5 .866 -109.14 142.239)"/><path d="m104.613 271.886h232.985v41.302h-232.985z" fill="#c8cde4" transform="matrix(.866 -.5 .5 .866 -116.646 149.745)"/><path d="m64.991 328.817 26.13 45.258c4.15 7.188 1.687 16.381-5.51 20.536-7.188 4.15-16.381 1.687-20.531-5.501l-26.13-45.258c-4.15-7.188-1.687-16.381 5.501-20.531 3.594-2.075 7.69-2.5 11.415-1.509 3.715.995 7.05 3.411 9.125 7.005z" fill="#616578"/><path d="m176.355 160.816h232.985v133.24h-232.985z" fill="#e8ebf7" transform="matrix(.866 -.5 .5 .866 -74.484 176.895)"/><path d="m193.01 222.974h232.985v66.62h-232.985z" fill="#daddee" transform="matrix(.866 -.5 .5 .866 -86.677 189.087)"/><path d="m374.873 88.001h43.352v159.126h-43.352z" fill="#616578" transform="matrix(.866 -.5 .5 .866 -30.655 220.724)"/><g fill="#464652"><path d="m394.764 162.235h43.352v79.563h-43.352z" transform="matrix(.866 -.5 .5 .866 -45.216 235.285)"/><path d="m77.986 351.325 13.135 22.75c4.15 7.188 1.687 16.381-5.51 20.536-7.188 4.15-16.381 1.687-20.531-5.501l-13.135-22.75z"/></g></g><circle cx="256" cy="324.09" fill="#616578" r="48.68"/><path d="m304.68 324.09c0 26.89-21.79 48.68-48.68 48.68v-97.36c26.89 0 48.68 21.79 48.68 48.68z" fill="#464652"/><circle cx="256.001" cy="324.089" fill="#2d2f40" r="18.308"/></g><g fill="#fff"><path d="m445.054 304.488h-3.844c-5.322 0-9.637-4.314-9.637-9.637v-3.844h-9.833v3.844c0 5.322-4.314 9.637-9.637 9.637h-3.844v9.833h3.844c5.322 0 9.637 4.314 9.637 9.637v3.844h9.833v-3.844c0-5.322 4.314-9.637 9.637-9.637h3.844z"/><path d="m317.223 68.711h-3.844c-5.322 0-9.637-4.314-9.637-9.637v-3.844h-9.833v3.844c0 5.322-4.314 9.637-9.637 9.637h-3.844v9.833h3.844c5.322 0 9.637 4.314 9.637 9.637v3.844h9.833v-3.845c0-5.322 4.314-9.637 9.637-9.637h3.844z"/><path d="m149.099 152.72h-3.844c-5.322 0-9.637-4.314-9.637-9.637v-3.844h-9.833v3.844c0 5.322-4.314 9.637-9.637 9.637h-3.844v9.833h3.844c5.322 0 9.637 4.314 9.637 9.637v3.844h9.833v-3.844c0-5.322 4.314-9.637 9.637-9.637h3.844z"/><path d="m73.727 251.084h-3.844c-5.322 0-9.637-4.314-9.637-9.637v-3.844h-9.833v3.844c0 5.322-4.314 9.637-9.637 9.637h-3.844v9.833h3.844c5.322 0 9.637 4.314 9.637 9.637v3.844h9.833v-3.844c0-5.322 4.314-9.637 9.637-9.637h3.844z"/><path d="m187.911 57.706h-3.844c-5.322 0-9.637-4.314-9.637-9.637v-3.844h-9.833v3.844c0 5.322-4.314 9.637-9.637 9.637h-3.844v9.833h3.844c5.322 0 9.637 4.314 9.637 9.637v3.844h9.833v-3.844c0-5.322 4.314-9.637 9.637-9.637h3.844z"/></g></g></svg>