<svg id="Capa_1" enable-background="new 0 0 512 512" height="512" viewBox="0 0 512 512" width="512" xmlns="http://www.w3.org/2000/svg"><path d="m511.994 257.708c-.269 41.147-10.247 79.997-27.764 114.362l-.006.003c-140.037 85.858-316.412 85.858-456.449 0l-.006-.003c-17.759-34.84-27.769-74.29-27.769-116.07 0-141.38 114.619-255.999 255.999-256 141.716-.001 256.922 115.995 255.995 257.708z" fill="#6c82ff"/><path d="m512 256c0 41.79-10.01 81.23-27.77 116.07l-.01.01c-140.035 85.854-316.405 85.854-456.44 0l-.01-.01c-17.76-34.84-27.77-74.28-27.77-116.07 0-46.22 12.25-89.57 33.68-127 44.12 77.07 127.16 129 222.32 129s178.21-51.93 222.32-129c21.43 37.43 33.68 80.78 33.68 127z" fill="#4d6df4"/><path d="m484.23 224.22v147.85c-21.27 41.75-53.67 76.88-93.28 101.51-39.18 24.35-85.42 38.42-134.95 38.42-99.6 0-185.91-56.88-228.23-139.93v-147.85c0-4.32 3.5-7.83 7.83-7.83h440.8c4.33 0 7.83 3.51 7.83 7.83z" fill="#ffce00"/><path d="m484.23 224.22v147.85c-21.27 41.75-53.67 76.88-93.28 101.51-39.18 24.35-85.42 38.42-134.95 38.42v-295.61h220.4c4.33 0 7.83 3.51 7.83 7.83z" fill="#ffb600"/><path d="m484.24 224.22v147.83c0 .01-.01.01-.01.02-21.27 41.75-53.67 76.88-93.28 101.51h-269.91c-39.6-24.62-72-59.76-93.27-101.51 0-.01-.01-.01-.01-.02v-147.83c0-4.32 3.51-7.83 7.83-7.83h440.82c4.32 0 7.83 3.51 7.83 7.83z" fill="#ffe400"/><path d="m484.24 224.22v147.83c-21.27 41.76-53.67 76.9-93.29 101.53h-134.95v-257.19h220.41c4.32 0 7.83 3.51 7.83 7.83z" fill="#ffce00"/><path d="m453.18 227.11v192.15c-17.64 21.28-38.66 39.66-62.23 54.32h-105.05c-11.9 0-22.57 5.2-29.9 13.45-7.33-8.25-18-13.45-29.9-13.45h-105.06c-23.57-14.65-44.58-33.03-62.22-54.31v-192.16h157.18c22.09 0 40 17.92 40 40 0-22.08 17.91-40 40-40z" fill="#8fc8f5"/><path d="m453.18 227.11v192.15c-17.64 21.28-38.66 39.66-62.23 54.32h-105.05c-11.9 0-22.57 5.2-29.9 13.45-7.33-8.25-18-13.45-29.9-13.45h-69.54v-246.47h59.44c22.09 0 40 17.92 40 40 0-22.08 17.91-40 40-40z" fill="#65b2fe"/><path d="m453.18 227.11v192.15c-17.64 21.28-38.66 39.66-62.23 54.32h-105.05c-11.9 0-22.57 5.2-29.9 13.45v-219.92c0-22.08 17.91-40 40-40z" fill="#48a4ef"/><path d="m453.18 191.76v227.5c-3 3.61-6.09 7.15-9.29 10.59h-157.99c-11.9 0-22.57 5.2-29.9 13.45-7.33-8.25-18-13.45-29.9-13.45h-158c-3.19-3.44-6.29-6.97-9.28-10.58v-227.51c0-4.62 3.76-8.38 8.38-8.38h15.054l18.279 20 25.222-20h90.245c22.09 0 40 17.91 40 40 0-22.09 17.91-40 40-40h148.8c4.62 0 8.38 3.76 8.38 8.38z" fill="#fff"/><path d="m453.18 191.76v227.5c-3 3.61-6.09 7.15-9.29 10.59h-157.99c-11.9 0-22.57 5.2-29.9 13.45v-219.92c0-22.09 17.91-40 40-40h148.8c4.62 0 8.38 3.76 8.38 8.38z" fill="#d1f6ff"/><path d="m453.18 419.26v-227.5c0-4.62-3.76-8.38-8.38-8.38h-96.2v246.47h95.29z" fill="#b3f4ff"/><path d="m159.427 218.35v25.88h-50.935c-7.483 0-13.542-5.79-13.542-12.94 0-3.57 1.517-6.81 3.966-9.15s5.84-3.79 9.576-3.79z" fill="#374c81"/><path d="m218.17 231.29c0 3.57-1.45 6.81-3.79 9.15s-5.58 3.79-9.15 3.79h-48.67v-25.88h48.67c7.15 0 12.94 5.79 12.94 12.94z" fill="#234177"/><g fill="#374c81"><path d="m109.138 270.11h53.362v25.88h-53.362c-7.839 0-14.188-5.79-14.188-12.94 0-3.57 1.59-6.81 4.155-9.15 2.566-2.34 6.118-3.79 10.033-3.79z"/><path d="m109.138 373.63h53.362v25.88h-53.362c-7.839 0-14.188-5.79-14.188-12.94 0-3.57 1.59-6.81 4.155-9.15 2.566-2.34 6.118-3.79 10.033-3.79z"/><path d="m109.138 321.87h53.362v25.88h-53.362c-7.839 0-14.188-5.79-14.188-12.94 0-3.57 1.59-6.81 4.155-9.15 2.566-2.34 6.118-3.79 10.033-3.79z"/></g><path d="m218.17 283.05c0 3.57-1.45 6.81-3.79 9.15s-5.58 3.79-9.15 3.79h-48.67v-25.88h48.67c7.15 0 12.94 5.79 12.94 12.94z" fill="#234177"/><path d="m218.17 334.81c0 3.57-1.45 6.81-3.79 9.15s-5.58 3.79-9.15 3.79h-48.67v-25.88h48.67c7.15 0 12.94 5.79 12.94 12.94z" fill="#234177"/><path d="m218.17 386.57c0 3.57-1.45 6.81-3.79 9.15s-5.58 3.79-9.15 3.79h-48.67v-25.88h48.67c7.15 0 12.94 5.79 12.94 12.94z" fill="#234177"/><path d="m125.76 429.85v46.59c-1.59-.93-3.16-1.89-4.72-2.86-13.87-8.62-26.86-18.54-38.79-29.59v-14.14z" fill="#de1263"/><path d="m82.254 183.384h43.501v246.465h-43.501z" fill="#fe3345"/><path d="m421.662 272.584v-182.305c0-15.746-9.973-29.165-23.945-34.3-3.921-1.439-8.161-2.225-12.587-2.225s-8.666.786-12.587 2.225c-13.972 5.135-23.945 18.554-23.945 34.3v182.305c0 9.18.871 18.321 2.598 27.306 1.307 6.877 3.12 13.661 5.422 20.297l22.444 64.694c.996 2.878 3.532 4.318 6.068 4.318s5.072-1.439 6.068-4.318l22.444-64.694c2.303-6.636 4.115-13.42 5.422-20.297 1.727-8.986 2.598-18.127 2.598-27.306z" fill="#ffe400"/><path d="m421.662 272.584v-182.305c0-15.746-9.973-29.165-23.945-34.3-3.921-1.439-8.161-2.225-12.587-2.225v335.445c2.536 0 5.072-1.439 6.068-4.318l22.444-64.694c2.303-6.636 4.115-13.42 5.422-20.297 1.727-8.986 2.598-18.127 2.598-27.306z" fill="#ffce00"/><path d="m397.717 308.93v-252.951c-3.921-1.439-8.161-2.225-12.587-2.225s-8.666.786-12.587 2.225v252.951z" fill="#ffce00"/><path d="m397.717 308.93v-252.951c-3.921-1.439-8.161-2.225-12.587-2.225v255.176z" fill="#ffb600"/><path d="m421.662 129.394v-39.115c0-15.746-9.973-29.165-23.945-34.3-3.921-1.439-8.161-2.225-12.587-2.225s-8.666.786-12.587 2.225c-13.972 5.135-23.945 18.554-23.945 34.3v39.115z" fill="#374c81"/><path d="m419.064 299.89c-2.264-2.202-5.345-3.548-8.752-3.548-6.955 0-12.595 5.64-12.595 12.587 0-6.947-5.632-12.587-12.587-12.587s-12.587 5.64-12.587 12.587c0-6.947-5.64-12.587-12.595-12.587-3.407 0-6.488 1.346-8.752 3.548 1.307 6.877 3.12 13.661 5.422 20.297l9.172 26.435 13.272 38.26c.996 2.878 3.532 4.318 6.068 4.318s5.072-1.439 6.068-4.318l13.272-38.26 9.172-26.435c2.302-6.636 4.115-13.42 5.422-20.297z" fill="#f79f63"/><path d="m419.064 299.89c-2.264-2.202-5.345-3.548-8.752-3.548-6.955 0-12.595 5.64-12.595 12.587 0-6.947-5.632-12.587-12.587-12.587v92.856c2.536 0 5.072-1.439 6.068-4.318l13.272-38.26 9.172-26.435c2.302-6.634 4.115-13.418 5.422-20.295z" fill="#f4873d"/><path d="m404.47 346.621h-38.68l13.272 38.26c.996 2.878 3.532 4.318 6.068 4.318s5.072-1.439 6.068-4.318z" fill="#374c81"/><path d="m404.47 346.621h-19.34v42.577c2.536 0 5.072-1.439 6.068-4.318z" fill="#234177"/><path d="m421.662 129.394v-39.115c0-15.746-9.973-29.165-23.945-34.3-3.921-1.439-8.161-2.225-12.587-2.225v75.64z" fill="#234177"/><path d="m348.597 100.042h73.065v29.352h-73.065z" fill="#fff"/><path d="m385.13 100.042h36.533v29.352h-36.533z" fill="#d1f6ff"/></svg>