<svg id="Capa_1" enable-background="new 0 0 512 512" height="512" viewBox="0 0 512 512" width="512" xmlns="http://www.w3.org/2000/svg"><g><g><g><g><path d="m411 309.213h-140c-8.284 0-15-6.716-15-15v-129.213c0-46.944 38.056-85 85-85 46.944 0 85 38.056 85 85v129.213c0 8.284-6.716 15-15 15z" fill="#fff48b"/></g><g><path d="m341 80v229.213h70c8.284 0 15-6.716 15-15v-129.213c0-46.944-38.056-85-85-85z" fill="#ffdd54"/></g><g><path d="m341 110c-30.327 0-55-24.673-55-55s24.673-55 55-55 55 24.673 55 55-24.673 55-55 55z" fill="#ffdecf"/></g><path d="m341 0v110c30.327 0 55-24.673 55-55s-24.673-55-55-55z" fill="#ffcdbe"/></g><g><g><path d="m241 309.213h-140c-8.284 0-15-6.716-15-15v-129.213c0-46.944 38.056-85 85-85 46.944 0 85 38.056 85 85v129.213c0 8.284-6.716 15-15 15z" fill="#a2e786"/></g><g><path d="m171 80v229.213h70c8.284 0 15-6.716 15-15v-129.213c0-46.944-38.056-85-85-85z" fill="#00b9a0"/></g><g><path d="m171 110c-30.327 0-55-24.673-55-55s24.673-55 55-55 55 24.673 55 55-24.673 55-55 55z" fill="#ffdecf"/></g><path d="m171 0v110c30.327 0 55-24.673 55-55s-24.673-55-55-55z" fill="#ffcdbe"/></g><g><g><path d="m341 330h-170v-45c0-46.944 38.056-85 85-85 46.944 0 85 38.056 85 85z" fill="#ffc477"/></g><g><path d="m341 285c0-46.944-38.056-85-85-85v130h85z" fill="#ff9f22"/></g><g><path d="m256 230c-30.327 0-55-24.673-55-55s24.673-55 55-55 55 24.673 55 55-24.673 55-55 55z" fill="#ffdecf"/></g><path d="m256 120v110c30.327 0 55-24.673 55-55s-24.673-55-55-55z" fill="#ffcdbe"/></g><g><g><path d="m171 330h-155c-8.284 0-15-6.716-15-15v-30c0-46.944 38.056-85 85-85 46.944 0 85 38.056 85 85z" fill="#ff6c6c"/></g><g><path d="m171 285c0-46.944-38.056-85-85-85v130h85z" fill="#ff405c"/></g><g><path d="m86 230c-30.327 0-55-24.673-55-55s24.673-55 55-55 55 24.673 55 55-24.673 55-55 55z" fill="#ffdecf"/></g><path d="m86 120v110c30.327 0 55-24.673 55-55s-24.673-55-55-55z" fill="#ffcdbe"/></g><g><g><path d="m496 330h-155v-45c0-46.944 38.056-85 85-85 46.944 0 85 38.056 85 85v30c0 8.284-6.716 15-15 15z" fill="#f9f9f9"/></g><g><path d="m426 200v130h70c8.284 0 15-6.716 15-15v-30c0-46.944-38.056-85-85-85z" fill="#e2dff4"/></g><g><path d="m426 230c-30.327 0-55-24.673-55-55s24.673-55 55-55 55 24.673 55 55-24.673 55-55 55z" fill="#ffdecf"/></g><path d="m426 120v110c30.327 0 55-24.673 55-55s-24.673-55-55-55z" fill="#ffcdbe"/></g><g><g><circle cx="256" cy="406" fill="#f9f9f9" r="106"/><path d="m256 300v212c58.449 0 106-47.551 106-106s-47.551-106-106-106z" fill="#e2dff4"/><path d="m286 391h-15v-15c0-8.284-6.716-15-15-15s-15 6.716-15 15v15h-15c-8.284 0-15 6.716-15 15s6.716 15 15 15h15v15c0 8.284 6.716 15 15 15s15-6.716 15-15v-15h15c8.284 0 15-6.716 15-15s-6.716-15-15-15z" fill="#ff6c6c"/><path d="m271 436v-15h15c8.284 0 15-6.716 15-15s-6.716-15-15-15h-15v-15c0-8.284-6.716-15-15-15v90c8.284 0 15-6.716 15-15z" fill="#ff405c"/></g></g></g></g></svg>