<svg id="Capa_1" enable-background="new 0 0 512 512" height="512" viewBox="0 0 512 512" width="512" xmlns="http://www.w3.org/2000/svg"><path d="m512 256c0 82.23-38.77 155.4-99.03 202.24l-.06.05-19.5 13.74h-.01c-39.7 25.31-86.84 39.97-137.4 39.97-50.97 0-98.46-14.9-138.36-40.57l.02-.01-14.22-9.84.01.02c-62.78-46.66-103.45-121.38-103.45-205.6 0-141.38 114.62-256 256-256s256 114.62 256 256z" fill="#65b2fe"/><path d="m512 256c0 82.22-38.77 155.4-99.03 202.24l-.05.03-19.51 13.76h-.01c-39.7 25.31-86.83 39.97-137.4 39.97-50.97 0-98.46-14.9-138.35-40.58l-14.21-9.84.01.02c-62.77-46.66-103.45-121.38-103.45-205.6 0-46.22 12.25-89.57 33.68-127 44.12 77.07 127.16 129 222.32 129s178.21-51.93 222.32-129c21.43 37.43 33.68 80.78 33.68 127z" fill="#0e9ce7"/><path d="m452 316c0 105.34-83.12 191.28-187.34 195.81-.31.02-.62.03-.93.04-.87.03-1.74.06-2.6.08-1.73.05-3.44.07-5.13.07-108.24 0-196-87.76-196-196s87.76-196 196-196h.28c108.11.15 195.72 87.85 195.72 196z" fill="#ffe853"/><path d="m452 316c0 105.34-83.12 191.28-187.34 195.81-.31.02-.62.03-.93.04-.87.03-1.74.06-2.6.08-1.73.05-3.44.07-5.13.07-58.54-45.3-103.35-116.25-103.35-196s44.81-150.7 103.35-196h.28c108.11.15 195.72 87.85 195.72 196z" fill="#fed110"/><path d="m452 316c0 108.244-87.756 196-196 196v-392c108.244 0 196 87.756 196 196z" fill="#ff9f01"/><circle cx="187.667" cy="266.264" fill="#fff" r="46.095"/><circle cx="187.667" cy="266.264" fill="#29334c" r="25.616"/><circle cx="324.333" cy="266.264" fill="#fff" r="46.095"/><circle cx="324.333" cy="266.264" fill="#29334c" r="25.616"/><path d="m368.85 359.73c-6.2 32.77-26.3 60.6-53.95 77.14-17.21 10.32-37.36 16.25-58.9 16.25s-41.69-5.93-58.9-16.25c-27.65-16.54-47.75-44.37-53.95-77.14-2.12-11.14 6.42-21.47 17.76-21.47h10.42l15.45 15.45h139.95l13.94-15.45h10.42c11.34 0 19.88 10.33 17.76 21.47z" fill="#313b5a"/><path d="m368.85 359.73c-6.2 32.77-26.3 60.6-53.95 77.14-17.21 10.32-37.36 16.25-58.9 16.25v-99.41h70.73l13.94-15.45h10.42c11.34 0 19.88 10.33 17.76 21.47z" fill="#29334c"/><path d="m314.905 436.873c-17.217 10.315-37.366 16.244-58.905 16.244s-41.687-5.929-58.905-16.244c9.101-23.672 32.039-40.462 58.905-40.462s49.804 16.791 58.905 40.462z" fill="#ff1d56"/><path d="m314.905 436.873c-17.217 10.315-37.366 16.244-58.905 16.244v-56.706c26.865 0 49.804 16.791 58.905 40.462z" fill="#dd1265"/><path d="m340.67 338.26v2.4c0 18.76-15.22 33.98-33.98 33.98h-101.38c-18.76 0-33.98-15.22-33.98-33.98v-2.4z" fill="#fff"/><path d="m340.67 338.26v2.4c0 18.76-15.22 33.98-33.98 33.98h-50.69v-36.38z" fill="#d1f6ff"/></svg>