<svg id="Icons" enable-background="new 0 0 512 512" height="512" viewBox="0 0 512 512" width="512" xmlns="http://www.w3.org/2000/svg"><g><path d="m512 256c0 141.38-114.62 256-256 256-67.78 0-129.41-26.35-175.21-69.35-3.11-2.92-6.15-5.92-9.11-8.99-5.19-5.39-10.15-11-14.85-16.82-35.54-43.96-56.83-99.91-56.83-160.84 0-108 66.88-200.38 161.48-237.98.01 0 .01-.01.01-.01 1.62-.64 3.24-1.27 4.88-1.87 27.89-10.44 58.1-16.14 89.63-16.14 31.54 0 61.74 5.7 89.64 16.14 1.63.61 3.26 1.23 4.87 1.87l.01.01c94.6 37.6 161.48 129.98 161.48 237.98z" fill="#78c795"/><g id="Book_1_"><path d="m238.856 442.646c0-15.422-12.502-19.847-27.924-19.847s-27.924 4.425-27.924 19.847c1.471 37.042 54.383 37.029 55.848 0z" fill="#e9465e"/><path d="m238.856 432.781c0-15.422-12.502-19.847-27.924-19.847s-27.924 4.425-27.924 19.847c1.471 37.042 54.383 37.029 55.848 0z" fill="#c0405c"/><path d="m365.04 238.92v182.34c0 6.76-3.14 12.8-8.05 16.71-3.66 2.93-8.28 4.68-13.34 4.68h-262.86c-8.565-8.041-16.577-16.673-23.96-25.81v-177.92c0-7.37 3.72-13.88 9.4-17.73 3.42-2.31 7.54-3.66 11.98-3.66h265.44c11.74-.008 21.387 9.526 21.39 21.39z" fill="#e9465e"/><path d="m75.64 238.92v182.34c0 4.62-1.47 8.9-3.96 12.4-5.19-5.39-10.15-11-14.85-16.82v-177.92c0-7.37 3.72-13.88 9.4-17.73 5.67 3.85 9.41 10.36 9.41 17.73z" fill="#c0405c"/><path d="m365.045 238.921v182.34c0 6.76-3.14 12.8-8.05 16.71-4.91-3.91-8.05-9.94-8.05-16.71v-182.34c0-6.77 3.14-12.8 8.05-16.71 4.91 3.91 8.05 9.95 8.05 16.71z" fill="#ee6781"/><path d="m318.18 428.684h-214.496c-9.965 0-18.044-8.078-18.044-18.044v-161.1c0-9.965 8.078-18.044 18.044-18.044h214.496c9.965 0 18.044 8.078 18.044 18.044v161.1c-.001 9.966-8.079 18.044-18.044 18.044z" fill="#c0405c"/><path d="m336.225 235.581v161.1c0 4.02-1.31 7.73-3.54 10.73-3.29 4.43-8.56 7.31-14.51 7.31h-214.49c-10.024-.003-18.069-8.159-18.05-18.04v-161.1c0-9.97 8.08-18.05 18.05-18.05h214.49c9.97 0 18.05 8.08 18.05 18.05z" fill="#ebd9ea"/><path d="m336.225 235.581v161.1c0 9.96-8.08 18.04-18.05 18.04h-107.24v-197.19h107.24c9.97 0 18.05 8.08 18.05 18.05z" fill="#fff"/><path d="m332.685 407.411c-3.29 4.43-8.56 7.31-14.51 7.31h-214.49c-5.95 0-11.22-2.88-14.51-7.31 3.28-4.44 8.56-7.32 14.51-7.32h214.49c5.95 0 11.23 2.88 14.51 7.32z" fill="#c1b7d3"/><g fill="#6c53a2"><path d="m210.935 268.811h-82.071c-4.04 0-7.315-3.275-7.315-7.315s3.275-7.315 7.315-7.315h82.071z"/><path d="m210.935 313.441h-82.071c-4.04 0-7.315-3.275-7.315-7.315s3.275-7.315 7.315-7.315h82.071z"/><path d="m210.935 358.071h-82.071c-4.04 0-7.315-3.275-7.315-7.315s3.275-7.315 7.315-7.315h82.071z"/></g><path d="m210.93 343.441h82.071c4.04 0 7.315 3.275 7.315 7.315s-3.275 7.315-7.315 7.315h-82.071z" fill="#9175a7"/><path d="m210.93 298.811h82.071c4.04 0 7.315 3.275 7.315 7.315s-3.275 7.315-7.315 7.315h-82.071z" fill="#9175a7"/><path d="m210.93 254.181h82.071c4.04 0 7.315 3.275 7.315 7.315s-3.275 7.315-7.315 7.315h-82.071z" fill="#9175a7"/></g><g id="Pencil"><g><path d="m394.7 193.061h43.05v164.11h-43.05z" fill="#f39e22"/><path d="m407.22 205.581v139.07c.001 6.909-5.611 12.52-12.52 12.52v-164.11c6.91 0 12.52 5.6 12.52 12.52z" fill="#c68132"/><path d="m437.75 193.061v164.11c-6.92 0-12.53-5.61-12.53-12.52v-139.07c0-6.92 5.61-12.52 12.53-12.52z" fill="#f9c744"/></g><g><path d="m449.135 367.141c0 5.5-4.46 9.97-9.96 9.97h-45.9c-5.49.037-10.008-4.575-9.96-9.97 0-5.51 4.46-9.97 9.96-9.97h45.9c5.503.004 9.964 4.468 9.96 9.97z" fill="#ebd9ea"/><path d="m449.135 367.141h-28.98c-5.5.001-9.969-4.456-9.97-9.97h28.99c5.503.004 9.964 4.468 9.96 9.97z" fill="#fff"/><path d="m436.975 377.111h-43.7c-4.105-.008-7.65-2.471-9.19-6.12h43.7c4.11.011 7.641 2.465 9.19 6.12z" fill="#c1b7d3"/></g><g><path d="m437.745 377.111v14.75c.015 11.931-9.731 21.545-21.52 21.52-11.812.024-21.555-9.626-21.53-21.52v-14.75z" fill="#ee6781"/><path d="m437.745 377.111v14.75c0 6.54-2.91 12.39-7.51 16.33-4.639-3.997-7.485-9.791-7.5-16.33v-14.75z" fill="#f0a6b3"/><path d="m407.845 377.111v14.75c0 6.08-2.51 11.57-6.57 15.47-4.085-3.899-6.57-9.396-6.58-15.47v-14.75z" fill="#d65171"/></g><path d="m437.745 193.061h-43.05l18-44.91h7.06c2.532 6.322 15.772 39.378 17.99 44.91z" fill="#f5b890"/><path d="m434.335 184.551h-21.79c-3.7 0-6.22-3.74-4.85-7.17l11.71-29.23h.35z" fill="#fbd9a3"/><g><path d="m420.795 128.811v21.23c-.184 6.021-8.957 6.032-9.14 0v-21.23c.197-6.05 8.961-6.029 9.14 0z" fill="#2e3140"/><path d="m420.795 128.811v12.99c-2.742.473-5.326-1.731-5.3-4.51v-12.99c2.739-.47 5.326 1.719 5.3 4.51z" fill="#334353"/></g></g><g id="Speech-bubble_1_"><path d="m211.823 202.141c3.805 0 7.533-1.858 9.772-5.279l37.624-57.501c7.954-13.26-10.52-25.396-19.523-12.774 0 0-37.624 57.501-37.624 57.501-5.121 7.575.677 18.196 9.751 18.053z" fill="#ebd9ea"/><path d="m356.81 40.84v72.86c.034 24.378-19.785 44.486-44.47 44.48h-112.68c-14.29 0-27-6.74-35.13-17.22-5.86-7.54-9.34-16.99-9.34-27.26v-72.86c0-8.35 2.3-16.15 6.29-22.82.01 0 .01-.01.01-.01 56.465-23.171 127.217-23.902 184.15-1.869 1.632.616 3.275 1.224 4.88 1.879 3.99 6.67 6.29 14.47 6.29 22.82z" fill="#ebd9ea"/><path d="m356.81 40.84v72.86c0 10.27-3.48 19.72-9.33 27.26-5.85-7.54-9.34-16.99-9.34-27.26v-72.86c0-9.15 2.76-17.64 7.5-24.7 1.631.616 3.275 1.224 4.88 1.88 3.99 6.67 6.29 14.47 6.29 22.82z" fill="#fff"/><path d="m173.86 40.84v72.86c0 10.27-3.49 19.72-9.33 27.26-5.86-7.54-9.34-16.99-9.34-27.26v-72.86c0-8.35 2.3-16.15 6.29-22.82.01 0 .01-.01.01-.01 1.62-.64 3.24-1.27 4.88-1.87 4.73 7.06 7.49 15.55 7.49 24.7z" fill="#c1b7d3"/></g><g fill="#6c53a2"><path d="m263.208 106.759c.068 4.286-5.572 6.925-9.059 4.629-.93-.563-1.66-1.444-2.19-2.638l-5.973-13.34h-35.042l-5.973 13.34c-.982 2.28-2.908 3.47-5.276 3.484-4.057.075-7.558-4.19-5.475-8.064 0 0 27.476-59.034 27.476-59.034 2.295-5.405 11.044-5.412 13.34 0 0 0 27.576 59.034 27.576 59.034.397.864.596 1.727.596 2.589zm-47.884-21.304h26.282l-13.141-29.567z"/><path d="m307.956 66.988c3.286 3.352 4.928 8.446 4.928 15.281v24.291c0 1.792-.532 3.203-1.593 4.231-3.51 3.27-10.536 1.226-10.254-4.231v-2.19c-4.774 11.347-22.808 10.428-28.87.796-3.183-4.478-3.06-12.43.448-16.227 5.883-6.107 18.188-5.736 28.422-5.874.298-6.936-1.081-11.735-8.86-11.647-4.681.044-8.112 1.495-12.942 3.285-1.727.863-2.986 1.294-3.783 1.294-3.767.133-5.147-4.89-3.235-7.616 2.559-3.079 6.83-4.186 11.15-5.326 7.942-1.984 19.691-1.581 24.589 3.933zm-10.055 33.35c2.091-2.223 3.136-5.093 3.136-8.611v-2.091c-4.289-.045-9.584.129-12.146.598-2.456.398-4.215 1.095-5.276 2.09-2.502 2.29-1.908 7.196.647 9.308 3.706 3.453 10.514 2.249 13.639-1.294z"/></g></g></svg>