<svg id="Capa_1" enable-background="new 0 0 512 512" height="512" viewBox="0 0 512 512" width="512" xmlns="http://www.w3.org/2000/svg"><g><g><path d="m512 256c0 141.387-114.613 256-256 256s-256-114.613-256-256 114.613-256 256-256 256 114.613 256 256zm0 0" fill="#e27fad"/><path d="m512 256c0 26.051-3.891 51.191-11.129 74.871-5.031 16.469-11.672 32.231-19.75 47.109-8.25 15.2-18 29.461-29.051 42.61-.582.691-1.16 1.379-1.75 2.058-46.941 54.704-116.59 89.352-194.32 89.352s-147.379-34.648-194.309-89.352c-.589-.687-1.179-1.378-1.75-2.07-11.062-13.137-20.812-27.398-29.05-42.598-3.289-6.031-6.332-12.21-9.121-18.531-14-31.629-21.77-66.629-21.77-103.449 0-46.219 12.25-89.57 33.68-127 44.121 77.07 127.16 129 222.32 129s178.211-51.93 222.32-129c21.43 37.43 33.68 80.781 33.68 127zm0 0" fill="#dc4180"/><path d="m481.262 377.699c-7.16 13.223-15.434 25.742-24.723 37.43-8.437 10.633-17.719 20.57-27.719 29.723-45.539 41.699-106.211 67.148-172.82 67.148s-127.281-25.449-172.82-67.148c-10-9.153-19.282-19.09-27.719-29.723-9.289-11.688-17.563-24.207-24.723-37.43zm0 0" fill="#9f165b"/></g><g><path d="m284.701 205.338-177.934 248.54 21.182 21.182 28.252-28.252c15.42 2.181 31.216-2.973 42.354-14.112l156.752-156.752z" fill="#7ed7ff"/><path d="m284.701 205.338-156.752 156.752c-11.138 11.138-16.292 26.933-14.112 42.354l-28.252 28.252 21.182 21.182 213.237-213.237z" fill="#afe8fd"/><path d="m284.7 233.58-163.812 206.177 7.061 7.061 21.981-21.981 5.564 1.485c10.319 2.754 21.408-.214 28.94-7.746l142.631-142.631z" fill="#dff5ff"/><path d="m284.701 233.58-142.631 142.631c-7.532 7.532-10.501 18.622-7.747 28.941l1.485 5.564-21.981 21.981 7.061 7.06 184.994-184.994z" fill="#fff"/><path d="m284.724 290.042-7.061-7.06-61.913 52.498-52.498 61.913 7.061 7.06z" fill="#dc4180"/><path d="m136.026 331.664h161.802v9.985h-161.802z" fill="#e27fad" transform="matrix(.707 -.707 .707 .707 -174.516 251.995)"/><path d="m411.815 219.436c19.466-19.466 19.466-51.14 0-70.606l-127.092 56.485 70.606 70.607z" fill="#16202d"/><path d="m341.209 148.829-56.485 56.485 35.303 35.303 91.788-91.788c-19.466-19.466-51.14-19.466-70.606 0z" fill="#455f80"/><path d="m361.725 161.057-56.485 56.485 18.931 18.931 87.686-87.78c-17.138-5.3-36.589-1.179-50.132 12.364z" fill="#2d3e53"/><path d="m369.451 332.406c19.466-19.467 19.466-51.14 0-70.607l-35.303-35.303-49.424-7.061 7.061 49.425 70.607 70.606z" fill="#435d7a"/><path d="m298.845 191.193c-19.466-19.466-51.14-19.466-70.607 0l-7.061 7.061 70.606 70.606 42.364-42.364z" fill="#7099c7"/><path d="m321.945 214.251c-19.466-19.466-51.14-19.466-70.606 0l-7.061 7.061 47.506 47.549 42.364-42.364z" fill="#5a7ba0"/></g><g fill="#fff"><path d="m284.859 79.724h-1.524c-6.754 0-12.226-5.477-12.226-12.227v-1.523h-8.715v1.523c0 6.75-5.477 12.227-12.227 12.227h-1.527v8.715h1.527c6.75 0 12.227 5.472 12.227 12.226v1.528h8.715v-1.528c0-6.754 5.472-12.226 12.226-12.226h1.524zm0 0"/><path d="m154.452 198.251h-1.524c-6.754 0-12.226-5.477-12.226-12.227v-1.523h-8.715v1.523c0 6.75-5.477 12.227-12.227 12.227h-1.527v8.715h1.527c6.75 0 12.227 5.472 12.227 12.226v1.528h8.715v-1.528c0-6.754 5.472-12.226 12.226-12.226h1.524zm0 0"/><path d="m117.822 293.484h-1.524c-6.754 0-12.226-5.477-12.226-12.227v-1.523h-8.715v1.523c0 6.75-5.477 12.227-12.227 12.227h-1.527v8.715h1.527c6.75 0 12.227 5.472 12.227 12.226v1.528h8.715v-1.528c0-6.754 5.472-12.226 12.226-12.226h1.524zm0 0"/></g></g></svg>