<svg id="Capa_1" enable-background="new 0 0 512 512" height="512" viewBox="0 0 512 512" width="512" xmlns="http://www.w3.org/2000/svg"><path d="m512 256c0 75.28-32.49 142.97-84.22 189.81l-57.33 39.24-.02.01c-34.43 17.24-73.3 26.94-114.43 26.94s-80-9.7-114.43-26.94l-.02-.01-57.33-39.24c-51.73-46.84-84.22-114.53-84.22-189.81 0-141.38 114.62-256 256-256s256 114.62 256 256z" fill="#fd4fb9"/><path d="m512 256c0 75.27-32.49 142.96-84.22 189.81l-.03.02-57.31 39.22-.01.01c-34.43 17.24-73.3 26.94-114.43 26.94s-80-9.7-114.43-26.94l-.01-.01-57.31-39.22-.03-.02c-51.73-46.85-84.22-114.54-84.22-189.81 0-46.22 12.25-89.57 33.68-127 44.12 77.07 127.16 129 222.32 129s178.21-51.93 222.32-129c21.43 37.43 33.68 80.78 33.68 127z" fill="#ea39ab"/><path d="m158.008 135.81c0 9.607-7.788 17.395-17.395 17.395h-96.707c.345-9.442 4.313-17.962 10.558-24.204 6.538-6.542 15.572-10.585 25.546-10.585h60.603c9.607-.001 17.395 7.787 17.395 17.394z" fill="#234177"/><path d="m80.01 118.42v304.96h-17.7c-5.76-6.65-11.17-13.6-16.22-20.82-.74-1.06-1.48-2.13-2.21-3.21v-244.8c0-.45.01-.9.03-1.35.34-9.44 4.31-17.96 10.55-24.2 6.54-6.54 15.58-10.58 25.55-10.58z" fill="#374c81"/><path d="m353.992 135.81c0 9.607 7.788 17.395 17.395 17.395h96.707c-.345-9.442-4.313-17.962-10.559-24.204-6.538-6.542-15.572-10.585-25.546-10.585h-60.603c-9.606-.001-17.394 7.787-17.394 17.394z" fill="#16325b"/><path d="m468.12 154.55v244.79c-.73 1.08-1.47 2.15-2.21 3.21v.01c-5.05 7.22-10.46 14.17-16.22 20.82h-17.7v-304.96c9.97 0 19.01 4.04 25.55 10.58 6.24 6.24 10.21 14.76 10.55 24.2.02.45.03.9.03 1.35z" fill="#234177"/><path d="m465.91 402.55v.01c-35.22 50.37-88.12 87.47-149.69 102.31-17.17-11.4-30.53-28.1-37.75-47.77-1.73-4.7-4.84-8.62-8.77-11.36s-8.69-4.3-13.7-4.3c-10.03 0-19.01 6.25-22.47 15.66-7.22 19.67-20.58 36.37-37.75 47.77-18.98-4.58-37.14-11.27-54.21-19.81l-.01-.01-57.33-39.23-.01-.01c-14.27-12.93-27.07-27.44-38.13-43.25 9.43-43.89 48.14-76.69 94.94-77 42.47-.28 78.72 26.51 92.52 64.14 1.72 4.69 4.83 8.6 8.76 11.33 3.94 2.72 8.69 4.28 13.69 4.28 10.01 0 19-6.21 22.45-15.61 13.8-37.63 50.05-64.42 92.52-64.14 46.8.31 85.51 33.11 94.94 76.99z" fill="#4e689b"/><path d="m465.91 402.56c-11.06 15.81-23.86 30.32-38.13 43.25l-.01.01-57.33 39.23-.01.01c-17.07 8.54-35.23 15.23-54.21 19.81-17.17-11.4-30.53-28.1-37.75-47.77-1.73-4.7-4.84-8.62-8.77-11.36s-8.69-4.3-13.7-4.3v-36.13c10.01 0 19-6.21 22.45-15.61 13.8-37.63 50.05-64.42 92.52-64.14 46.8.31 85.51 33.11 94.94 77z" fill="#374c81"/><path d="m203.38 423.38c0 34.06-27.62 61.68-61.69 61.68h-.12c-20.91-10.46-40.19-23.71-57.35-39.25-2.72-6.95-4.21-14.52-4.21-22.43 0-34.07 27.62-61.69 61.68-61.69 34.07 0 61.69 27.62 61.69 61.69z" fill="#fff"/><path d="m141.695 361.691v123.368c34.067 0 61.684-27.617 61.684-61.684s-27.617-61.684-61.684-61.684z" fill="#d1f6ff"/><path d="m431.99 423.38c0 7.91-1.49 15.48-4.21 22.43-17.16 15.54-36.44 28.79-57.35 39.25h-.12c-34.07 0-61.69-27.62-61.69-61.68 0-34.07 27.62-61.69 61.69-61.69 34.06 0 61.68 27.62 61.68 61.69z" fill="#d1f6ff"/><path d="m431.99 423.38c0 7.91-1.49 15.48-4.21 22.43-17.16 15.54-36.44 28.79-57.35 39.25h-.12v-123.37c34.06 0 61.68 27.62 61.68 61.69z" fill="#b3f4ff"/></svg>