<svg id="Capa_1" enable-background="new 0 0 512 512" height="512" viewBox="0 0 512 512" width="512" xmlns="http://www.w3.org/2000/svg"><circle cx="256" cy="256" fill="#65b2fe" r="256"/><path d="m512 256c0 87.11-43.52 164.07-110 210.31-41.41 28.8-91.73 45.69-146 45.69s-104.59-16.89-146-45.69c-66.48-46.24-110-123.2-110-210.31 0-46.22 12.25-89.57 33.68-127 44.12 77.07 127.16 129 222.32 129s178.21-51.93 222.32-129c21.43 37.43 33.68 80.78 33.68 127z" fill="#0e9ce7"/><path d="m452 316c0 105.34-83.12 191.28-187.34 195.81-.31.02-.62.03-.93.04-.87.03-1.74.06-2.6.08-1.73.05-3.44.07-5.13.07-108.24 0-196-87.76-196-196s87.76-196 196-196h.28c108.11.15 195.72 87.85 195.72 196z" fill="#ffe853"/><path d="m452 316c0 105.34-83.12 191.28-187.34 195.81-.31.02-.62.03-.93.04-.87.03-1.74.06-2.6.08-1.73.05-3.44.07-5.13.07-58.54-45.3-103.35-116.25-103.35-196s44.81-150.7 103.35-196h.28c108.11.15 195.72 87.85 195.72 196z" fill="#fed110"/><path d="m452 316c0 108.244-87.756 196-196 196v-392c108.244 0 196 87.756 196 196z" fill="#ff9f01"/><circle cx="191.525" cy="280.141" fill="#fff" r="43.492"/><circle cx="191.525" cy="280.141" fill="#29334c" r="24.169"/><circle cx="320.475" cy="280.141" fill="#fff" r="43.492"/><circle cx="320.475" cy="280.141" fill="#29334c" r="24.169"/><path d="m294.241 393.945v48.016c0 1.057-.047 2.104-.132 3.142-1.595 19.654-18.05 35.099-38.109 35.099s-36.515-15.446-38.109-35.099c-.085-1.038-.132-2.085-.132-3.142v-48.016c0-21.116 17.125-38.241 38.241-38.241 10.558 0 20.116 4.284 27.042 11.2 6.916 6.925 11.199 16.483 11.199 27.041z" fill="#313b5a"/><path d="m294.241 393.945v48.016c0 1.057-.047 2.104-.132 3.142-1.595 19.654-18.05 35.099-38.109 35.099v-124.498c10.558 0 20.116 4.284 27.042 11.2 6.916 6.925 11.199 16.483 11.199 27.041z" fill="#29334c"/><path d="m294.109 445.104c-1.595 19.654-18.05 35.099-38.109 35.099s-36.515-15.446-38.109-35.099c9.681-9.879 23.183-16.012 38.109-16.012s28.428 6.133 38.109 16.012z" fill="#ff1d56"/><path d="m294.109 445.104c-1.595 19.654-18.05 35.099-38.109 35.099v-51.111c14.927 0 28.428 6.133 38.109 16.012z" fill="#dd1265"/><path d="m454.034 136.621c0 16.357-6.649 31.143-17.403 41.825-4.679 4.648-8.271 10.179-10.692 16.192-2.411 6.023-3.663 12.519-3.663 19.117h-54.446c0-13.422-5.418-26.218-14.828-35.781-10.959-11.144-17.537-26.618-16.89-43.631 1.139-30.414 25.746-55.236 56.15-56.642.934-.041 1.867-.062 2.791-.062 32.568 0 58.981 26.403 58.981 58.982z" fill="#fff"/><path d="m405.314 118.654v98.508h-20.523v-98.508c0-5.664 4.597-10.261 10.261-10.261 2.832 0 5.397 1.149 7.255 3.007 1.857 1.856 3.007 4.422 3.007 7.254z" fill="#fed110"/><path d="m418.438 213.755v20.769c0 6.454-2.617 12.303-6.844 16.541-4.238 4.228-10.077 6.844-16.541 6.844-12.909 0-23.385-10.467-23.385-23.386v-20.769h46.77z" fill="#374c81"/><path d="m418.438 213.755v20.769c0 6.454-2.617 12.303-6.844 16.541-4.238 4.228-10.077 6.844-16.541 6.844v-44.154z" fill="#234177"/><path d="m418.438 234.524c0 6.454-2.617 12.303-6.844 16.541-4.238 4.228-10.077 6.844-16.541 6.844-12.909 0-23.385-10.467-23.385-23.386h46.77z" fill="#234177"/><path d="m430.843 212.616c0 2.668-1.088 5.09-2.832 6.844-1.755 1.755-4.166 2.832-6.844 2.832h-52.23c-5.346 0-9.676-4.33-9.676-9.676 0-2.668 1.088-5.09 2.832-6.834 1.755-1.744 4.166-2.832 6.844-2.832h52.23c5.346 0 9.676 4.33 9.676 9.666z" fill="#4e689b"/><path d="m454.034 136.621c0 16.357-6.649 31.143-17.403 41.825-4.679 4.648-8.271 10.179-10.692 16.192-2.411 6.023-3.663 12.519-3.663 19.117h-27.223v-136.116c32.568 0 58.981 26.403 58.981 58.982z" fill="#d6f4fe"/><path d="m405.314 118.654v98.508h-10.261v-108.77c2.832 0 5.397 1.149 7.255 3.007 1.856 1.857 3.006 4.423 3.006 7.255z" fill="#ff9f01"/><path d="m430.843 212.616c0 2.668-1.088 5.09-2.832 6.844-1.755 1.755-4.166 2.832-6.844 2.832h-26.115v-19.342h26.115c5.346 0 9.676 4.33 9.676 9.666z" fill="#374c81"/><path d="m418.438 234.524c0 6.454-2.617 12.303-6.844 16.541-4.238 4.228-10.077 6.844-16.541 6.844v-23.386h23.385z" fill="#29334c"/><g fill="#fff"><path d="m289.262 63.125h1.524c6.753 0 12.227-5.474 12.227-12.227v-1.524h8.716v1.524c0 6.753 5.474 12.227 12.227 12.227h1.525v8.716h-1.525c-6.753 0-12.227 5.474-12.227 12.227v1.525h-8.716v-1.525c0-6.753-5.474-12.227-12.227-12.227h-1.524z"/><path d="m460.253 183.119h1.524c6.753 0 12.227-5.474 12.227-12.227v-1.524h8.716v1.524c0 6.753 5.474 12.227 12.227 12.227h1.525v8.716h-1.525c-6.753 0-12.227 5.474-12.227 12.227v1.525h-8.716v-1.525c0-6.753-5.474-12.227-12.227-12.227h-1.524z"/><path d="m280.262 184.619h1.524c6.753 0 12.227-5.474 12.227-12.227v-1.524h8.716v1.524c0 6.753 5.474 12.227 12.227 12.227h1.525v8.716h-1.525c-6.753 0-12.227 5.474-12.227 12.227v1.525h-8.716v-1.525c0-6.753-5.474-12.227-12.227-12.227h-1.524z"/></g></svg>