<svg id="Capa_1" enable-background="new 0 0 512 512" height="512" viewBox="0 0 512 512" width="512" xmlns="http://www.w3.org/2000/svg"><g><g><g><g><g><g><g><circle cx="256" cy="256" fill="#ff6c52" r="256"/></g></g></g></g></g></g><path d="m512 256c0-24.14-3.341-47.499-9.587-69.641l-109.359-109.359-261.289 327.062 107.392 107.392c5.568.362 11.184.546 16.843.546 141.385 0 256-114.615 256-256z" fill="#f92814"/><g><path d="m393.054 417.581h-229.176c-24.816 0-44.933-20.117-44.933-44.933v-264.856l274.109 30.792z" fill="#ffce00"/></g><g><path d="m393.054 138.584-136.934-30.792v309.789h136.934z" fill="#fdba12"/></g><g><path d="m393.054 138.584h-243.317c-17.006 0-30.792-13.786-30.792-30.792 0-17.006 13.786-30.792 30.792-30.792h243.317z" fill="#fff"/></g><g><path d="m256.12 77h136.934v61.584h-136.934z" fill="#e9edf5"/></g><g><path d="m306.28 357.112h-115.33l-12.424-23.405 43.662-64.534-43.662-64.534 12.424-23.406h115.33v30h-87.07l33.513 49.535v16.81l-33.513 49.534h87.07z" fill="#555a66"/></g><g fill="#333940"><path d="m256.12 181.233v30h42.545v16.535h30v-46.506z"/><path d="m328.665 310.578h-30v16.534h-42.545v30l72.545-.031z"/></g></g></svg>