<svg id="Capa_1" enable-background="new 0 0 512 512" height="512" viewBox="0 0 512 512" width="512" xmlns="http://www.w3.org/2000/svg"><g><g><path d="m256 285.283c-141.387 0-244.36-116.68-223.923-153.456 43.693-78.625 127.594-131.827 223.923-131.827 96.031 0 179.712 52.874 223.517 131.099 20.689 36.945-82.13 154.184-223.517 154.184z" fill="#ffd89d"/><path d="m512 256c0 26.051-3.891 51.191-11.129 74.871-5.031 16.469-11.672 32.231-19.75 47.109-8.25 15.2-147.391 52.24-225.121 52.24s-216.871-37.04-225.109-52.24c-3.289-6.031-6.332-12.21-9.121-18.531-14-31.629-21.77-66.629-21.77-103.449 0-46.219 12.25-89.57 33.68-127 44.121 77.07 127.16 129 222.32 129s178.211-51.93 222.32-129c21.43 37.43 33.68 80.781 33.68 127zm0 0" fill="#ffa688"/><path d="m481.262 377.699c-7.16 13.223-15.434 25.742-24.723 37.43-6.229 7.851-12.92 15.322-20.019 22.379-2.516 2.501-113.911 28.813-180.52 28.813s-177.685-26.009-180.051-28.348c-7.274-7.193-14.122-14.82-20.488-22.844-9.289-11.688-17.563-24.207-24.723-37.43zm0 0" fill="#ff7472"/></g><g><path d="m408.346 461.743-194.693-56.066 42.247 106.322c.033 0 .066.001.099.001 57.074 0 109.778-18.684 152.347-50.257z" fill="#4d34b0"/><path d="m256 512v-148.67l-158.656 93.583c43.618 34.491 98.729 55.087 158.656 55.087z" fill="#6c3beb"/><path d="m170.778 497.453v-134.123l-79.431 88.68c23.301 19.594 50.143 35.105 79.431 45.443z" fill="#8157f0"/><path d="m256 469.901h140.67c14.417-9.5 27.823-20.407 40.007-32.545v-9.801l-223.024-64.225z" fill="#6c3beb"/><path d="m75.323 437.355c12.184 12.138 25.59 23.046 40.007 32.546h140.67v-148.917l-180.677 106.571z" fill="#576ceb"/><path d="m75.323 437.355c12.184 12.138 25.59 23.046 40.007 32.546h55.448v-148.917l-95.455 106.571z" fill="#429dea"/><path d="m181.894 236.292 74.106 191.263h180.676v-85.045z" fill="#576ceb"/><path d="m256 236.292-180.677 106.218v85.045h180.677z" fill="#429dea"/><path d="m170.778 236.292-95.455 106.218v85.045h95.455z" fill="#6ab1ed"/><path d="m256 278.638h138.33v106.571h-138.33z" fill="#2dceea"/><path d="m117.669 278.638h138.33v106.571h-138.33z" fill="#8defe9"/><path d="m117.669 278.638h53.109v106.571h-53.109z" fill="#8bfff4"/><path d="m256 278.638-26.643 53.285 26.643 53.286c29.429 0 53.285-23.857 53.285-53.285 0-29.429-23.857-53.286-53.285-53.286z" fill="#6c3beb"/><path d="m202.714 331.924c0 29.429 23.857 53.285 53.285 53.285v-106.571c-29.428 0-53.285 23.857-53.285 53.286z" fill="#576ceb"/><path d="m202.714 331.924c0 29.429 23.857 53.285 53.285 53.285-35.524 0-35.524-106.571 0-106.571-29.428 0-53.285 23.857-53.285 53.286z" fill="#429dea"/><path d="m256 151.247-49.404 95.632 49.404 95.631h180.676v-191.263z" fill="#429dea"/><path d="m75.323 151.247h180.676v191.263h-180.676z" fill="#2dceea"/><path d="m75.323 151.247h95.455v191.263h-95.455z" fill="#63e1f7"/><path d="m256 193.593h138.33v106.571h-138.33z" fill="#8defe9"/><path d="m117.669 193.593h138.33v106.571h-138.33z" fill="#8bfff4"/><path d="m117.669 193.593h53.109v106.571h-53.109z" fill="#b8fff8"/><path d="m256 193.593-26.643 53.285 26.643 53.286c29.429 0 53.285-23.857 53.285-53.285s-23.857-53.286-53.285-53.286z" fill="#576ceb"/><path d="m202.714 246.879c0 29.429 23.857 53.285 53.285 53.285v-106.571c-29.428 0-53.285 23.857-53.285 53.286z" fill="#429dea"/><path d="m202.714 246.879c0 29.429 23.857 53.285 53.285 53.285-35.524 0-35.524-106.571 0-106.571-29.428 0-53.285 23.857-53.285 53.286z" fill="#6ab1ed"/><path d="m149.605 236.292h21.173v21.173h-21.173z" fill="#2dceea"/><path d="m341.221 236.292h21.173v21.173h-21.173z" fill="#429dea"/></g><g fill="#fff"><path d="m237.891 58.979h1.524c6.754 0 12.226 5.472 12.226 12.226v1.528h8.715v-1.528c0-6.754 5.477-12.226 12.227-12.226h1.527v-8.715h-1.527c-6.75 0-12.227-5.477-12.227-12.227v-1.523h-8.715v1.523c0 6.75-5.472 12.227-12.226 12.227h-1.524zm0-8.715"/><g><path d="m130.454 102.826h1.524c6.754 0 12.226 5.472 12.226 12.226v1.528h8.715v-1.528c0-6.754 5.477-12.226 12.227-12.226h1.527v-8.716h-1.527c-6.75 0-12.227-5.477-12.227-12.227v-1.523h-8.715v1.523c0 6.75-5.472 12.227-12.226 12.227h-1.524zm0-8.716"/><path d="m345.327 102.826h1.524c6.754 0 12.226 5.472 12.226 12.226v1.528h8.715v-1.528c0-6.754 5.477-12.226 12.227-12.226h1.527v-8.716h-1.527c-6.75 0-12.227-5.477-12.227-12.227v-1.523h-8.715v1.523c0 6.75-5.472 12.227-12.226 12.227h-1.524zm0-8.716"/></g></g></g></svg>