<svg id="Capa_1" enable-background="new 0 0 512 512" height="512" viewBox="0 0 512 512" width="512" xmlns="http://www.w3.org/2000/svg"><g><g><path d="m0 256c0 43.79 11 85.02 30.39 121.07l225.61 49.67 225.61-49.67c19.39-36.05 30.39-77.28 30.39-121.07 0-46.63-12.47-90.34-34.26-128-41.698 72.091-399.22 76.52-443.48 0-21.79 37.66-34.26 81.37-34.26 128z" fill="#9feafd"/><path d="m34.26 128c44.26 76.52 126.99 128 221.74 128s177.48-51.48 221.74-128c-.01-.02-.03-.05-.04-.07-44.27-76.48-126.98-127.93-221.7-127.93s-177.43 51.45-221.7 127.93c-.01.02-.03.05-.04.07z" fill="#c3f3ff"/><path d="m30.39 377.07c43.19 80.32 128.02 134.93 225.61 134.93s182.42-54.61 225.61-134.93z" fill="#70c5e8"/></g><path d="m244.582 241.952h22.837v103.046h-22.837z" fill="#616679"/><path d="m301.67 306.83v37.53h-91.34v-37.53c0-9.23 7.47-16.7 16.7-16.7h57.94c9.23 0 16.7 7.47 16.7 16.7z" fill="#e7eaf5"/><path d="m301.67 306.83v37.53h-45.67v-54.23h28.97c9.23 0 16.7 7.47 16.7 16.7z" fill="#d9dced"/><path d="m379.7 353.34v43.65h-247.4v-43.65c0-19.24 15.6-34.84 34.85-34.84h177.7c19.25 0 34.85 15.6 34.85 34.84z" fill="#616679"/><path d="m379.7 353.34v43.65h-123.7v-78.49h88.85c19.25 0 34.85 15.6 34.85 34.84z" fill="#464651"/><path d="m416.84 400.49c0 24.29-19.69 43.98-43.99 43.98h-233.7c-12.15 0-23.15-4.92-31.11-12.88s-12.88-18.95-12.88-31.1c0-24.29 19.69-43.99 43.99-43.99h233.7c12.15 0 23.15 4.92 31.11 12.89 7.96 7.96 12.88 18.95 12.88 31.1z" fill="#e7eaf5"/><path d="m335.93 189.05c0 20.45-7.81 40.91-23.41 56.52-15.61 15.61-36.06 23.41-56.52 23.41s-40.91-7.8-56.52-23.41c-31.21-31.22-31.21-81.83 0-113.04l56.52-56.52 56.52 56.52c15.6 15.61 23.41 36.06 23.41 56.52z" fill="#d9696f"/><path d="m335.93 189.05c0 20.45-7.81 40.91-23.41 56.52-15.61 15.61-36.06 23.41-56.52 23.41v-192.97l56.52 56.52c15.6 15.61 23.41 36.06 23.41 56.52z" fill="#da504f"/><path d="m297.02 214.09c0 10.49-4.01 20.99-12.02 29s-18.5 12.01-29 12.01-20.99-4-29-12.01c-16.02-16.02-16.02-41.99 0-58l29-29 29 29c8.01 8.01 12.02 18.5 12.02 29z" fill="#f5dc6e"/><path d="m297.02 214.09c0 10.49-4.01 20.99-12.02 29s-18.5 12.01-29 12.01v-99.01l29 29c8.01 8.01 12.02 18.5 12.02 29z" fill="#eebf36"/><path d="m416.84 400.49c0 24.29-19.69 43.98-43.99 43.98h-116.85v-87.97h116.85c12.15 0 23.15 4.92 31.11 12.89 7.96 7.96 12.88 18.95 12.88 31.1z" fill="#d9dced"/></g></svg>