<svg id="Capa_1" enable-background="new 0 0 512 512" height="512" viewBox="0 0 512 512" width="512" xmlns="http://www.w3.org/2000/svg"><g><g><path d="m512 256c0 141.387-114.613 256-256 256s-256-114.613-256-256 114.613-256 256-256 256 114.613 256 256zm0 0" fill="#f3d37a"/><path d="m512 256c0 26.051-3.891 51.191-11.129 74.871-5.031 16.469-11.672 32.231-19.75 47.109-8.25 15.2-147.391 33.564-225.121 33.564s-216.871-18.364-225.109-33.564c-3.289-6.031-6.332-12.21-9.121-18.531-14-31.629-21.77-66.629-21.77-103.449 0-46.219 12.25-89.57 33.68-127 44.121 77.07 127.16 129 222.32 129s178.211-51.93 222.32-129c21.43 37.43 33.68 80.781 33.68 127zm0 0" fill="#efc142"/><path d="m481.262 377.699c-7.16 13.223-15.434 25.742-24.723 37.43-8.437 10.633-17.719 20.57-27.719 29.723-45.539 41.699-106.211 67.148-172.82 67.148s-127.281-25.449-172.82-67.148c-10-9.153-19.282-19.09-27.719-29.723-9.289-11.688-17.563-24.207-24.723-37.43zm0 0" fill="#e38d22"/></g><g><path d="m371.501 159.168h-87.582v166.151l18.209 15.932h109.25v-93.227z" fill="#dce0ef"/><g><path d="m359.714 177.376h-75.795v72.833h108.485z" fill="#3b3b3b"/></g><path d="m100.622 86.334h201.506v254.917h-201.506z" fill="#a4e2fd"/><path d="m137.646 86.334h164.482v254.917h-164.482z" fill="#8ab8ec"/><path d="m201.375 86.334h100.753v254.917h-100.753z" fill="#728ee4"/><path d="m338.544 268.418h36.417v18.208h-36.417z" fill="#728ee4"/><path d="m174.062 377.668c-20.084 0-36.417-16.332-36.417-36.417s16.332-36.417 36.417-36.417 36.417 16.332 36.417 36.417-16.332 36.417-36.417 36.417z" fill="#535564"/><path d="m338.544 377.668c-20.084 0-36.417-16.332-36.417-36.417s16.332-36.417 36.417-36.417c20.084 0 36.417 16.332 36.417 36.417s-16.332 36.417-36.417 36.417z" fill="#3b3b3b"/><path d="m201.375 222.897h-63.729v36.417c0 18.866 32.007 27.312 63.729 27.312s63.729-8.446 63.729-27.312v-36.417z" fill="#dce0ef"/><path d="m265.104 259.314v-36.417h-63.729v63.729c31.722 0 63.729-8.446 63.729-27.312z" fill="#cad0e7"/><path d="m201.375 186.48h-63.729v36.417c0 18.866 32.007 27.313 63.729 27.313s63.729-8.446 63.729-27.313v-36.417z" fill="#fbf5eb"/><path d="m265.104 222.897v-36.417h-63.729v63.729c31.722 0 63.729-8.446 63.729-27.312z" fill="#dce0ef"/><path d="m201.375 150.064h-63.729v36.417c0 18.866 32.007 27.312 63.729 27.312s63.729-8.446 63.729-27.312v-36.417z" fill="#dce0ef"/><path d="m265.104 186.48v-36.417h-63.729v63.729c31.722.001 63.729-8.446 63.729-27.312z" fill="#cad0e7"/><ellipse cx="201.375" cy="150.064" fill="#fbf5eb" rx="63.729" ry="27.312"/><path d="m265.104 150.064c0-18.866-32.007-27.313-63.729-27.313v54.625c31.722 0 63.729-8.446 63.729-27.312z" fill="#dce0ef"/><ellipse cx="174.062" cy="341.251" fill="#fbf5eb" rx="18.208" ry="18.208" transform="matrix(.707 -.707 .707 .707 -190.319 223.031)"/><ellipse cx="338.544" cy="341.251" fill="#dce0ef" rx="18.208" ry="18.208" transform="matrix(.707 -.707 .707 .707 -142.144 339.337)"/></g></g></svg>