<?xml version="1.0" encoding="iso-8859-1"?>
<!-- Generator: Adobe Illustrator 19.0.0, SVG Export Plug-In . SVG Version: 6.00 Build 0)  -->
<svg version="1.1" id="Capa_1" xmlns="http://www.w3.org/2000/svg" xmlns:xlink="http://www.w3.org/1999/xlink" x="0px" y="0px"
	 viewBox="0 0 512 512" style="enable-background:new 0 0 512 512;" xml:space="preserve">
<circle style="fill:#77DD00;" cx="256" cy="256" r="256"/>
<path style="fill:#66BB00;" d="M511.963,258.962L363.697,110.697l-57.403,9.725l-9.536,57.756l-24.755,46.819l-95.077-95.443
	l-46.993,47.776l91.457,91.28l-43.087,27.725l-57.457,9.742l-9.725,57.403l148.474,148.474
	C398.333,510.042,510.386,397.781,511.963,258.962z"/>
<polygon style="fill:#FF3636;" points="309.091,249.886 392.23,333.026 362.699,362.557 332.93,392.089 249.909,309.068 
	252.519,287.008 291.657,247.87 "/>
<polygon style="fill:#F40000;" points="269.834,269.693 362.699,362.557 332.93,392.089 249.909,309.068 252.519,287.008 "/>
<g>
	<path style="fill:#D3D3D8;" d="M353.735,167.862l33.564-33.564c9.251,19.213,5.219,42.222-9.843,57.284
		c-19.688,19.688-51.829,19.57-70.805,0.355l-0.355-0.355c-19.213-19.213-19.806-51.117,0-71.161
		c9.488-9.488,22.178-14.588,35.699-14.588c7.591,0,14.825,1.542,21.704,4.863l-33.564,33.564L353.735,167.862z"/>
	<polygon style="fill:#D3D3D8;" points="326.5,195.415 192.481,329.323 177.894,320.191 163.543,311.059 301.475,173.473 
		314.046,184.384 	"/>
</g>
<g>
	<path style="fill:#BABAC0;" d="M387.298,134.298c9.251,19.213,5.219,42.222-9.843,57.284c-19.688,19.688-51.829,19.57-70.805,0.355
		l35.58-35.58l11.505,11.505L387.298,134.298z"/>
	<polygon style="fill:#BABAC0;" points="326.5,195.415 192.481,329.323 177.894,320.191 314.046,184.384 	"/>
</g>
<polygon style="fill:#E7E7E7;" points="176.926,129.554 176.926,153.274 281.812,257.951 273.155,273.014 264.378,288.195 
	153.416,177.33 129.933,177.33 105.975,129.554 118.073,117.694 129.933,105.834 "/>
<path style="fill:#D3D3D8;" d="M192.007,306.077c20.044,20.044,19.451,51.947,0,71.161c-15.774,15.774-38.782,18.858-57.285,9.844
	l33.564-33.564l-23.602-23.602L111.12,363.48c-9.251-19.213-5.337-42.341,9.725-57.403
	C140.653,286.271,172.438,286.508,192.007,306.077z"/>
<path style="fill:#BABAC0;" d="M156.427,341.658l35.58-35.58c20.044,20.044,19.451,51.947,0,71.161
	c-15.774,15.774-38.782,18.858-57.285,9.844l33.564-33.564L156.427,341.658z"/>
<polygon style="fill:#D3D3D8;" points="118.073,117.694 273.155,273.014 264.378,288.195 153.416,177.33 129.933,177.33 
	105.975,129.554 "/>
<polygon style="fill:#5A5A5A;" points="285.37,226.166 309.091,249.886 249.909,309.068 226.307,285.466 255.839,255.697 "/>
<polygon style="fill:#444444;" points="255.839,255.697 279.559,279.418 249.909,309.068 226.307,285.466 "/>
<g>
</g>
<g>
</g>
<g>
</g>
<g>
</g>
<g>
</g>
<g>
</g>
<g>
</g>
<g>
</g>
<g>
</g>
<g>
</g>
<g>
</g>
<g>
</g>
<g>
</g>
<g>
</g>
<g>
</g>
</svg>
