<svg id="Capa_1" enable-background="new 0 0 512 512" height="512" viewBox="0 0 512 512" width="512" xmlns="http://www.w3.org/2000/svg"><g><g><path d="m256 303.17c-141.387 0-244.868-132.696-225.263-168.899 43.301-79.964 127.939-134.271 225.263-134.271 95.17 0 178.208 51.929 222.328 128.999 21.425 37.427-80.941 174.171-222.328 174.171z" fill="#e38031"/><path d="m512 256c0 26.051-3.891 51.191-11.129 74.871-5.031 16.469-11.672 32.231-19.75 47.109-8.25 15.2-147.391 53.763-225.121 53.763s-216.871-38.563-225.109-53.763c-3.289-6.031-6.332-12.21-9.121-18.531-14-31.629-21.77-66.629-21.77-103.449 0-46.219 12.25-89.57 33.68-127 44.121 77.07 127.16 129 222.32 129s178.211-51.93 222.32-129c21.43 37.43 33.68 80.781 33.68 127zm0 0" fill="#d85819"/><path d="m481.262 377.699c-7.16 13.223-15.434 25.742-24.723 37.43-8.437 10.633-17.719 20.57-27.719 29.723-45.539 41.699-300.101 41.699-345.64 0-10-9.153-19.282-19.09-27.719-29.723-9.289-11.688-17.563-24.207-24.723-37.43zm0 0" fill="#bd4911"/></g><g><path d="m429.575 216.379-51.53-51.53h-122.045l-115.265 173.576 115.265 173.575c66.986 0 127.951-25.738 173.575-67.85z" fill="#64b0fb"/><path d="m378.045 164.849h51.53v51.53h-51.53z" fill="#afe8fd"/><path d="m378.045 460.47v20.622c11.201-6.086 21.89-12.992 32.002-20.622z" fill="#afe8fd"/><path d="m133.955 164.849-51.53 51.53v227.771c45.624 42.112 106.589 67.85 173.575 67.85v-347.151z" fill="#afe8fd"/><path d="m82.424 164.849h51.53v51.53h-51.53z" fill="#7ed7ff"/><path d="m133.955 481.092v-20.622h-32.002c10.112 7.63 20.801 14.536 32.002 20.622z" fill="#7ed7ff"/><path d="m378.045 257.061-40.682-40.682h-40.682l-122.044 122.045 81.363 122.046h40.682l20.341-21.906 20.341 21.906h40.682v-40.682l-20.341-20.341 20.341-20.341v-40.682l-20.341-20.341 20.341-20.341v-40.681z" fill="#dff5ff"/><g fill="#7ed7ff"><path d="m337.363 216.379h40.682v40.682h-40.682z"/><path d="m337.363 379.106h40.682v40.682h-40.682z"/><path d="m337.363 297.743h40.682v40.682h-40.682z"/><path d="m296.682 419.788h40.682v40.682h-40.682z"/><path d="m296.682 338.424h40.682v40.682h-40.682z"/><path d="m296.682 257.061h40.682v40.682h-40.682z"/><path d="m215.318 379.106h81.364v40.682h-81.364z"/><path d="m215.318 297.743h81.364v40.682h-81.364z"/><path d="m296.682 216.379v40.682h-81.364l40.682-40.682z"/></g><path d="m256 216.379h-40.682l-20.341 21.906-20.341-21.906h-40.682v40.682l20.341 20.341-20.341 20.341v40.682l20.341 20.341-20.341 20.341v40.682l40.682 40.682h40.682l40.682-40.683v-40.682l-20.341-20.341 20.341-20.341v-40.682l-20.341-20.341 20.341-20.34z" fill="#fff"/><path d="m133.955 419.788h40.682v40.682h-40.682z" fill="#bfebff"/><path d="m133.955 338.424h40.682v40.682h-40.682z" fill="#bfebff"/><path d="m133.955 257.061h40.682v40.682h-40.682z" fill="#bfebff"/><path d="m174.637 216.379h40.682v40.682h-40.682z" fill="#bfebff"/><path d="m174.637 297.743h40.682v40.682h-40.682z" fill="#bfebff"/><path d="m174.637 379.106h40.682v40.682h-40.682z" fill="#bfebff"/><path d="m215.318 419.788h40.682v40.682h-40.682z" fill="#bfebff"/><path d="m215.318 338.424h40.682v40.682h-40.682z" fill="#bfebff"/><path d="m215.318 257.061h40.682v40.682h-40.682z" fill="#bfebff"/></g><g fill="#fff"><path d="m375.814 98.469h-1.524c-6.754 0-12.226-5.477-12.226-12.227v-1.523h-8.715v1.523c0 6.75-5.477 12.227-12.227 12.227h-1.527v8.715h1.527c6.75 0 12.227 5.472 12.227 12.226v1.528h8.715v-1.528c0-6.754 5.472-12.226 12.226-12.226h1.524zm0 0"/><path d="m274.109 59.797h-1.524c-6.754 0-12.226-5.477-12.226-12.227v-1.523h-8.715v1.523c0 6.75-5.477 12.227-12.227 12.227h-1.527v8.715h1.527c6.75 0 12.227 5.472 12.227 12.226v1.528h8.715v-1.528c0-6.754 5.472-12.226 12.226-12.226h1.524zm0 0"/><path d="m170.685 98.469h-1.524c-6.754 0-12.226-5.477-12.226-12.227v-1.523h-8.715v1.523c0 6.75-5.477 12.227-12.227 12.227h-1.527v8.715h1.527c6.75 0 12.227 5.472 12.227 12.226v1.528h8.715v-1.528c0-6.754 5.472-12.226 12.226-12.226h1.524zm0 0"/></g></g></svg>