<svg height="512" viewBox="0 0 512 512" width="512" xmlns="http://www.w3.org/2000/svg"><g id="BULINE"><circle cx="256" cy="256" fill="#f58d89" r="256"/></g><g id="Icons"><path d="m310.26 354.37-26.4-26.37a131.16 131.16 0 0 0 0-185.5l26.4-26.39a168.5 168.5 0 0 1 0 238.29z" fill="#fff"/><path d="m305.68 332.81a5.82 5.82 0 0 1 -4.11-9.93 124 124 0 0 0 0-175.32 5.81 5.81 0 1 1 8.22-8.22 135.58 135.58 0 0 1 0 191.76 5.77 5.77 0 0 1 -4.11 1.71z" fill="#ddd"/><rect fill="#fff" height="212" rx="16.81" transform="matrix(.754 .657 -.657 .754 146.3 -130.43)" width="84.35" x="204.99" y="23.98"/><path d="m337.57 90.47-117.24 134.45a16.81 16.81 0 0 1 -23.72 1.61l-23.69-20.65a16.81 16.81 0 0 0 23.72-1.61l117.24-134.45a16.81 16.81 0 0 0 -1.63-23.72l23.68 20.65a16.81 16.81 0 0 1 1.64 23.72z" fill="#ddd"/><path d="m320 18.21h16.26a16.54 16.54 0 0 1 16.54 16.54v19.25a0 0 0 0 1 0 0h-49.39a0 0 0 0 1 0 0v-19.25a16.54 16.54 0 0 1 16.59-16.54z" fill="#32314b" transform="matrix(.754 .657 -.657 .754 104.55 -206.73)"/><path d="m146.79 207.35h49.34a0 0 0 0 1 0 0v9.34a7.44 7.44 0 0 1 -7.44 7.44h-34.46a7.44 7.44 0 0 1 -7.44-7.44v-9.34a0 0 0 0 1 0 0z" fill="#32314b" transform="matrix(.754 .657 -.657 .754 184.02 -59.55)"/><path d="m220.81 327.83h115.19a17.06 17.06 0 0 1 17.06 17.06v49.41a0 0 0 0 1 0 0h-149.31a0 0 0 0 1 0 0v-49.41a17.06 17.06 0 0 1 17.06-17.06z" fill="#3e436d"/><path d="m270.32 327.83a17.06 17.06 0 0 0 -17.06 17.06v49.41h-48.53v-49.41a17.06 17.06 0 0 1 17.06-17.06z" fill="#32314b"/><path d="m105.45 299.73a14.93 14.93 0 0 0 -14.93 15.27c.15 8.22 7.2 14.65 15.42 14.65h115.23v32.27c0 8.22 6.43 15.27 14.65 15.42a14.92 14.92 0 0 0 15.18-14.97v-55.17a7.47 7.47 0 0 0 -7.46-7.47z" fill="#fff"/><path d="m249.38 369.19a14.93 14.93 0 0 1 -13.56 8.11c-8.22-.16-14.66-7.2-14.66-15.43v-32.27h-115.22c-8.22 0-15.28-6.44-15.42-14.66a14.89 14.89 0 0 1 6.81-12.8 15 15 0 0 0 -1.65 7.1c.16 8.22 7.21 14.65 15.42 14.65h115.24v32.27c0 8.23 6.43 15.27 14.64 15.43a14.88 14.88 0 0 0 8.4-2.4z" fill="#ddd"/><circle cx="341.7" cy="230.68" fill="#32314b" r="33.44"/><circle cx="341.7" cy="230.68" fill="#4f4f74" r="15.25"/><circle cx="234.82" cy="316" fill="#32314b" r="13.45"/><circle cx="234.82" cy="316" fill="#4f4f74" r="6.13"/><path d="m204.63 394.3h148.44a0 0 0 0 1 0 0v75.7a8 8 0 0 1 -8 8h-184.43a8 8 0 0 1 -8-8v-23.68a52 52 0 0 1 51.99-52.02z" fill="#fff"/><path d="m353.07 394.31v18.08h-132.92a52 52 0 0 0 -52 52v13.65h-7.49a8 8 0 0 1 -8-8v-23.72a52 52 0 0 1 52-52z" fill="#ddd"/><ellipse cx="320.97" cy="361.07" fill="#6f6f9b" rx="12.87" ry="7.92"/><ellipse cx="293.11" cy="361.07" fill="#6f6f9b" rx="10.42" ry="6.41"/><rect fill="#c0e9ff" height="16.17" rx="4.53" width="150.45" x="84.37" y="283.57"/><path d="m234.82 289.35v6.2a4.53 4.53 0 0 1 -4.53 4.53h-141.4a4.52 4.52 0 0 1 -4.52-4.53v-6.2a4.52 4.52 0 0 0 4.52 4.52h141.4a4.52 4.52 0 0 0 4.53-4.52z" fill="#a0def9"/><path d="m383.45 478.06a256.27 256.27 0 0 1 -254.9 0z" fill="#934cf5"/></g></svg>