<?xml version="1.0" encoding="iso-8859-1"?>
<!-- Generator: Adobe Illustrator 19.0.0, SVG Export Plug-In . SVG Version: 6.00 Build 0)  -->
<svg version="1.1" id="Capa_1" xmlns="http://www.w3.org/2000/svg" xmlns:xlink="http://www.w3.org/1999/xlink" x="0px" y="0px"
	 viewBox="0 0 512 512" style="enable-background:new 0 0 512 512;" xml:space="preserve">
<path style="fill:#EA4444;" d="M433.885,440.08C387.826,484.599,325.117,512,256,512c-68.98,0-131.579-27.292-177.613-71.654
	c-2.952-14.829-13.713-26.834-27.815-31.569C18.806,366.132,0,313.264,0,256C0,114.615,114.615,0,256,0s256,114.615,256,256
	c0,56.951-18.606,109.55-50.059,152.072C447.634,412.806,436.74,425.016,433.885,440.08z"/>
<path style="fill:#D93131;" d="M432.481,441.425c-11.089,10.555-23.124,20.127-35.964,28.575h-111.43
	c-11.414,3.137-21.475,9.537-29.088,18.167c-7.613-8.63-17.674-15.03-29.088-18.167h-111.43
	c-12.659-8.329-24.535-17.749-35.493-28.128C60.695,423.598,50,398.03,50,371.455V140h412v232.104
	C462,398.264,451.43,423.388,432.481,441.425z"/>
<path style="fill:#FFF2B4;" d="M462,407.992c-8.736,11.821-18.458,22.868-29.057,33.008H285.088
	c-11.414,3.137-21.475,9.537-29.088,18.167c-7.613-8.63-17.674-15.03-29.088-18.167H79.057C68.458,430.86,58.736,419.813,50,407.992
	V111h412V407.992z"/>
<path style="fill:#FFDF8E;" d="M99.057,441h-20C68.458,430.86,58.736,419.813,50,407.992V111h20v296.992
	C78.736,419.813,88.458,430.86,99.057,441z M256,111v348.167c7.613-8.63,17.674-15.03,29.088-18.167V111H256z"/>
<path style="fill:#FBC56D;" d="M443.333,174.09v11c0,1.104-0.895,2-2,2H300c-1.104,0-2-0.896-2-2v-11c0-1.104,0.896-2,2-2h141.333
	C442.438,172.09,443.333,172.986,443.333,174.09z M441.333,201.424H300c-1.104,0-2,0.896-2,2v11c0,1.104,0.896,2,2,2h141.333
	c1.105,0,2-0.896,2-2v-11C443.333,202.319,442.438,201.424,441.333,201.424z M441.333,230.757H300c-1.104,0-2,0.896-2,2v11
	c0,1.104,0.896,2,2,2h141.333c1.105,0,2-0.896,2-2v-11C443.333,231.652,442.438,230.757,441.333,230.757z M300,275.09h101.333
	c1.105,0,2-0.896,2-2v-11c0-1.104-0.895-2-2-2H300c-1.104,0-2,0.896-2,2v11C298,274.195,298.896,275.09,300,275.09z
	 M441.333,289.424H300c-1.104,0-2,0.896-2,2v11c0,1.104,0.896,2,2,2h141.333c1.105,0,2-0.896,2-2v-11
	C443.333,290.319,442.438,289.424,441.333,289.424z M441.333,318.757H300c-1.104,0-2,0.896-2,2v11c0,1.104,0.896,2,2,2h141.333
	c1.105,0,2-0.896,2-2v-11C443.333,319.652,442.438,318.757,441.333,318.757z M441.333,348.09H300c-1.104,0-2,0.896-2,2v11
	c0,1.104,0.896,2,2,2h141.333c1.105,0,2-0.896,2-2v-11C443.333,348.986,442.438,348.09,441.333,348.09z M401.333,377.424H300
	c-1.104,0-2,0.896-2,2v11c0,1.104,0.896,2,2,2h101.333c1.105,0,2-0.896,2-2v-11C403.333,378.319,402.438,377.424,401.333,377.424z
	 M223.333,172.09H82c-1.104,0-2,0.896-2,2v11c0,1.104,0.896,2,2,2h141.333c1.105,0,2-0.896,2-2v-11
	C225.333,172.986,224.438,172.09,223.333,172.09z M223.333,201.424H82c-1.104,0-2,0.896-2,2v11c0,1.104,0.896,2,2,2h141.333
	c1.105,0,2-0.896,2-2v-11C225.333,202.319,224.438,201.424,223.333,201.424z M223.333,230.757H82c-1.104,0-2,0.896-2,2v11
	c0,1.104,0.896,2,2,2h141.333c1.105,0,2-0.896,2-2v-11C225.333,231.652,224.438,230.757,223.333,230.757z M223.333,260.09H122
	c-1.104,0-2,0.896-2,2v11c0,1.104,0.896,2,2,2h101.333c1.105,0,2-0.896,2-2v-11C225.333,260.986,224.438,260.09,223.333,260.09z
	 M223.333,289.424H82c-1.104,0-2,0.896-2,2v11c0,1.104,0.896,2,2,2h141.333c1.105,0,2-0.896,2-2v-11
	C225.333,290.319,224.438,289.424,223.333,289.424z M223.333,318.757H82c-1.104,0-2,0.896-2,2v11c0,1.104,0.896,2,2,2h141.333
	c1.105,0,2-0.896,2-2v-11C225.333,319.652,224.438,318.757,223.333,318.757z M223.333,348.09H82c-1.104,0-2,0.896-2,2v11
	c0,1.104,0.896,2,2,2h141.333c1.105,0,2-0.896,2-2v-11C225.333,348.986,224.438,348.09,223.333,348.09z M223.333,377.424H122
	c-1.104,0-2,0.896-2,2v11c0,1.104,0.896,2,2,2h101.333c1.105,0,2-0.896,2-2v-11C225.333,378.319,224.438,377.424,223.333,377.424z"
	/>
<path style="fill:#56BED8;" d="M462,121H285.689c-11.663,3.075-21.943,9.553-29.689,18.335c-7.747-8.782-18.027-15.26-29.689-18.335
	H50V81c0-5.523,4.477-10,10-10h392c5.523,0,10,4.477,10,10V121z"/>
<path style="fill:#0DB2D0;" d="M70,81v40H50V81c0-5.523,4.477-10,10-10h20C74.477,71,70,75.477,70,81z"/>
<path style="fill:#009DC5;" d="M100,96c0,5.523-4.477,10-10,10s-10-4.477-10-10s4.477-10,10-10S100,90.477,100,96z M120,86
	c-5.523,0-10,4.477-10,10s4.477,10,10,10s10-4.477,10-10S125.523,86,120,86z M150,86c-5.523,0-10,4.477-10,10s4.477,10,10,10
	s10-4.477,10-10S155.523,86,150,86z"/>
<g>
</g>
<g>
</g>
<g>
</g>
<g>
</g>
<g>
</g>
<g>
</g>
<g>
</g>
<g>
</g>
<g>
</g>
<g>
</g>
<g>
</g>
<g>
</g>
<g>
</g>
<g>
</g>
<g>
</g>
</svg>
