<svg id="Layer_1" enable-background="new 0 0 507.905 507.905" height="512" viewBox="0 0 507.905 507.905" width="512" xmlns="http://www.w3.org/2000/svg"><g><g><path d="m507.751 253.798c0 49.306-14.06 95.328-38.389 134.275-44.835 71.774-124.546 102.521-215.409 102.521-140.169 0-241.046-96.627-241.046-236.796 0-26.282-8.757-51.63-1.341-75.472 32.132-103.313 128.499-178.326 242.386-178.326 140.169 0 253.799 113.629 253.799 253.798z" fill="#82cd64"/></g><path d="m438.992 427.482v-.002c11.348-12.088 21.526-25.287 30.353-39.417 6.508-10.418-4.612-22.947-15.638-17.532-.172.085-.345.169-.517.253-6.555 3.201-14.198-1.62-14.198-8.915 0-2.49 1.056-4.93 3.05-6.422 1.959-1.466 3.219-3.811 3.199-6.445-.008-1.032-.212-2.015-.577-2.916-1.024-2.532-1.041-5.418.466-7.697 1.012-1.53 1.595-3.366 1.58-5.339-.014-1.832-.544-3.538-1.449-4.983-1.528-2.438-1.553-5.614-.063-8.076.883-1.459 1.385-3.173 1.371-5.005s-.544-3.538-1.449-4.983c-1.528-2.438-1.553-5.613-.063-8.076.883-1.459 1.385-3.173 1.371-5.005-.036-4.522-3.208-8.277-7.433-9.24v-.248h-.214c-8.149.002-14.756-6.603-14.756-14.752v-4.795c0-8.15-6.112-14.599-13.65-15.599-4.194-.556-8.196-2.04-11.868-4.141-.408-.233-.825-.461-1.247-.679-7.88-4.069-14.27-10.514-18.28-18.424-6.153-12.134-12.638-30.422-12.241-53.154v-64.187c0-14.139-5.37-27.018-14.177-36.723-5.72-6.304-8.898-14.503-8.898-23.015v-1.531c0-17.771-14.407-32.178-32.178-32.178h-79.252c-17.771 0-32.178 14.407-32.178 32.178v5.953c-2.679 4.338-4.426 9.312-4.955 14.646-11.128 10.013-18.129 24.522-18.129 40.67v64.187c0 4.231-.844 9.549-2.374 15.484-11.339 43.989-74.813 40.496-81.412-4.449-.13-.882-.255-1.771-.377-2.666-5.974-43.851-67.298-49.724-80.728-7.555-7.743 24.312-11.922 50.215-11.922 77.094-.001 139.152 112.04 252.382 251.185 253.787 73.533.741 140.535-29.895 187.648-80.103z" fill="#20b7a1"/><g><path d="m348.004 184.051v-64.186c0-30.21-24.49-54.7-54.7-54.7h-80.366c-30.21 0-54.7 24.49-54.7 54.7v64.187c0 29.554-10.781 57.904-29.599 80.692-14.292 17.307-22.562 37.802-22.562 59.773 0 62 65.834 112.261 147.045 112.261s147.045-50.261 147.045-112.261c0-21.971-8.271-42.466-22.562-59.773-18.82-22.789-29.601-51.139-29.601-80.693z" fill="#783c28"/><path d="m325.733 297.95h-144.459c-.64 0-1.277.011-1.912.032-23.774.785-42.416 20.781-42.416 44.568v136.509c35.014 18.224 74.803 28.538 117.006 28.538 46.991 0 90.99-12.786 128.734-35.047v-117.647c0-31.454-25.498-56.953-56.953-56.953z" fill="#ff8500"/><path d="m253.504 268.58c-30.653 0-55.503 24.849-55.503 55.503 0 20.403 11.017 38.223 27.418 47.868l28.408-28.408 28.173 28.171c16.176-9.699 27.007-27.398 27.007-47.631 0-30.653-24.85-55.503-55.503-55.503z" fill="#fa690f"/><g><path d="m124.321 354.903v93.847c6.687 7.027 13.773 13.669 21.203 19.915v-113.762c0-31.455 25.499-56.953 56.953-56.953h-21.203c-31.454 0-56.953 25.499-56.953 56.953z" fill="#fa690f"/></g><g><path d="m246.065 502.384c5.17 2.12 10.402 3.95 15.685 5.521v-178.785h-15.685z" fill="#fff"/></g><path d="m259.88 507.521c5.271-.121 10.498-.413 15.685-.85v-177.551h-15.685z" fill="#fa690f"/><path d="m246.065 507.463c2.62.08 5.247.134 7.887.134 2.61 0 5.207-.052 7.798-.13v-178.347h-15.685z" fill="#ffc305"/><g><g><path d="m253.949 459.866c-2.828 0-5.121-2.293-5.121-5.121 0-2.828 2.293-5.121 5.121-5.121 2.828 0 5.121 2.293 5.121 5.121 0 2.828-2.293 5.121-5.121 5.121z" fill="#fff"/></g></g><g><g><path d="m253.949 419.84c-2.828 0-5.121-2.293-5.121-5.121 0-2.828 2.293-5.121 5.121-5.121 2.828 0 5.121 2.293 5.121 5.121 0 2.828-2.293 5.121-5.121 5.121z" fill="#fff"/></g></g><g><g><path d="m253.949 379.813c-2.828 0-5.121-2.293-5.121-5.121 0-2.828 2.293-5.121 5.121-5.121 2.828 0 5.121 2.293 5.121 5.121 0 2.829-2.293 5.121-5.121 5.121z" fill="#fff"/></g></g><path d="m253.504 255.829c-30.653 0-55.503 24.849-55.503 55.503 0 20.403 11.017 38.223 27.418 47.868l28.408-28.408 28.173 28.171c16.176-9.699 27.007-27.398 27.007-47.631 0-30.654-24.85-55.503-55.503-55.503z" fill="#ffc305"/><g><g><path d="m292.751 131.72h-79.252c-17.771 0-32.178-3.496-32.178-21.268v-51.856c0-17.771 14.407-32.178 32.178-32.178h79.252c17.771 0 32.178 14.407 32.178 32.178v51.857c0 17.771-14.407 21.267-32.178 21.267z" fill="#783c28"/></g></g><g><g><path d="m191.071 90.06v-7.423c0-19.04 15.435-34.475 34.475-34.475h-14.876c-19.04 0-34.475 15.435-34.475 34.475v7.423z" fill="#a55a3c"/></g></g><g><g><path d="m253.504 329.12c-14.892 0-26.964-12.072-26.964-26.964v-60.395h53.928v60.395c0 14.891-12.072 26.964-26.964 26.964z" fill="#ff965a"/></g></g><g><g><path d="m329.314 125.624c-.178-17.938-14.77-32.387-32.71-32.387h-38.864c-22.457 0-42.791 9.081-57.539 23.767v123.148c0 12.021 6.511 23.223 17.164 28.793 10.58 5.533 22.612 8.664 35.38 8.664 42.697 0 77.309-34.613 77.309-77.309z" fill="#ffbe82"/></g></g><g><g><path d="m330.056 190.809v-45.502c9.913 0 17.949 8.036 17.949 17.949v9.604c-.001 9.913-8.037 17.949-17.949 17.949z" fill="#ff965a"/></g></g><g><g><path d="m176.194 190.809v-45.502c-9.913 0-17.949 8.036-17.949 17.949v9.604c.001 9.913 8.037 17.949 17.949 17.949z" fill="#ff965a"/></g></g><g><g><path d="m226.804 184.433c-3.521 0-6.376-2.855-6.376-6.376v-17.438c0-3.521 2.855-6.376 6.376-6.376s6.376 2.855 6.376 6.376v17.438c0 3.521-2.855 6.376-6.376 6.376z" fill="#ff965a"/></g></g><g><g><path d="m278.874 184.433c-3.521 0-6.376-2.855-6.376-6.376v-17.438c0-3.521 2.855-6.376 6.376-6.376s6.376 2.855 6.376 6.376v17.438c-.001 3.521-2.855 6.376-6.376 6.376z" fill="#ff965a"/></g></g><g><g><path d="m226.804 179.119c-3.521 0-6.376-2.855-6.376-6.376v-17.438c0-3.521 2.855-6.376 6.376-6.376s6.376 2.855 6.376 6.376v17.438c0 3.522-2.855 6.376-6.376 6.376z" fill="#373c41"/></g></g><g><g><path d="m278.874 179.119c-3.521 0-6.376-2.855-6.376-6.376v-17.438c0-3.521 2.855-6.376 6.376-6.376s6.376 2.855 6.376 6.376v17.438c-.001 3.522-2.855 6.376-6.376 6.376z" fill="#373c41"/></g></g><g><g><path d="m243.173 190.045c-1.585 5.585 1.296 11.669 6.804 13.503 1.108.369 2.294.569 3.527.569 1.232 0 2.418-.2 3.527-.569 5.509-1.834 8.389-7.918 6.804-13.503l-7.731-27.241c-.744-2.62-4.457-2.62-5.201 0z" fill="#ff965a"/></g></g><circle cx="174.271" cy="192.474" fill="#fff" r="7.051"/><circle cx="331.118" cy="192.474" fill="#fff" r="7.051"/><path d="m259.873 93.374c-46.185-.088-83.679 37.332-83.679 83.517v24.168c0 31.262 18.64 57.82 45.026 69.777 7.408 3.357 13.604-6.508 7.446-11.821-16.263-14.032-26.558-34.788-26.558-57.956.019-33.9-.003-49.634-.006-57.301-.002-6.069 4.961-11.046 11.03-11.059h.008 37.105c21.593 0 39.098-17.505 39.098-39.098 0 0-5.641-.182-29.47-.227z" fill="#ff965a"/><path d="m176.194 88.287v39.098 49.506c5.663 0 10.253-4.591 10.253-10.254v-12.56c0-14.742 11.951-26.692 26.692-26.692h37.105c21.593 0 39.098-17.505 39.098-39.098z" fill="#783c28"/><path d="m287.958 93.238c17.49 0 31.844 14.972 31.844 32.462v40.938c0 5.663 4.591 10.254 10.253 10.254v-86.686z" fill="#783c28"/><g><g><path d="m230.003 214.936c-1.987 0-3.575 1.734-3.31 3.704 1.809 13.438 13.322 23.799 27.255 23.799s25.447-10.361 27.256-23.799c.265-1.969-1.323-3.704-3.31-3.704z" fill="#e20a62"/></g></g><path d="m230.346 229.055c4.806 8.016 13.576 13.384 23.603 13.384 4.343 0 8.449-1.01 12.102-2.803-1.57-9.849-10.1-17.377-20.391-17.377-6.074 0-11.535 2.622-15.314 6.796z" fill="#ff5551"/><g fill="#fff"><path d="m267.319 222.259h-27.512c-2.143 0-3.88-1.737-3.88-3.88v-3.443h35.271v3.443c0 2.143-1.737 3.88-3.879 3.88z"/><path d="m222.987 174.851c-1.413 0-2.559-1.146-2.559-2.559v-7.689c0-1.413 1.146-2.559 2.559-2.559 1.413 0 2.559 1.146 2.559 2.559v7.689c.001 1.413-1.145 2.559-2.559 2.559z"/><path d="m275.057 174.651c-1.413 0-2.559-1.146-2.559-2.559v-7.689c0-1.413 1.146-2.559 2.559-2.559 1.413 0 2.559 1.146 2.559 2.559v7.689c0 1.413-1.146 2.559-2.559 2.559z"/></g><path d="m339.887 487.844c-18.378 0-33.276-14.898-33.276-33.275v-43.969h66.551v43.969c0 18.377-14.898 33.275-33.275 33.275z" fill="#fa690f"/><g><g><path d="m242.453 164.453h-3.569c.237 1.056.388 2.143.437 3.252.073 1.619-.147 3.191-.588 4.689v10.58c0 12.699-10.331 23.03-23.029 23.03h-.001c-12.698 0-23.029-10.331-23.029-23.03v-6.448c-1.102.243-2.227.375-3.359.375-1.423 0-2.782-.195-4.079-.525v6.597c0 16.8 13.668 30.469 30.469 30.469 16.8 0 30.468-13.668 30.468-30.469v-14.802c-.001-2.053-1.666-3.718-3.72-3.718z" fill="#ff5551"/></g><g><path d="m291.564 213.443c-16.801 0-30.469-13.668-30.469-30.469v-14.802c0-2.054 1.666-3.719 3.719-3.719h53.499c2.054 0 3.719 1.665 3.719 3.719v14.802c0 16.801-13.668 30.469-30.468 30.469zm-23.03-41.551v11.083c0 12.699 10.332 23.03 23.031 23.03s23.03-10.331 23.03-23.03v-11.083z" fill="#ff5551"/></g><g><path d="m291.564 213.443c-2.054 0-3.719-1.665-3.719-3.719s1.666-3.719 3.719-3.719c12.699 0 23.03-10.331 23.03-23.03 0-2.054 1.666-3.719 3.719-3.719s3.719 1.665 3.719 3.719c0 16.8-13.668 30.468-30.468 30.468z" fill="#e20a62"/></g><g><path d="m268.809 187.606h-7.439c0-4.192-3.41-7.602-7.602-7.602s-7.602 3.41-7.602 7.602h-7.439c0-8.293 6.747-15.04 15.04-15.04 8.294-.001 15.042 6.746 15.042 15.04z" fill="#ff5551"/></g><g><path d="m330.672 171.892h-11.926c-2.054 0-3.719-1.665-3.719-3.719s1.666-3.719 3.719-3.719h8.278l.376-19.218c.039-2.029 1.697-3.647 3.717-3.647.024 0 .049 0 .074.001 2.054.04 3.686 1.738 3.646 3.791l-.446 22.865c-.04 2.024-1.693 3.646-3.719 3.646z" fill="#ff5551"/></g><g><path d="m188.875 171.892h-12.218c-2.025 0-3.678-1.62-3.719-3.644l-.462-22.865c-.042-2.054 1.59-3.752 3.643-3.794 2.06-.033 3.752 1.59 3.794 3.643l.389 19.221h8.573c2.054 0 3.719 1.665 3.719 3.719 0 2.055-1.665 3.72-3.719 3.72z" fill="#ff5551"/></g><g><path d="m188.955 180.924c-2.054 0-3.719-1.665-3.719-3.719v-9.032c0-2.054 1.665-3.719 3.719-3.719h53.498c2.054 0 3.719 1.665 3.719 3.719s-1.665 3.719-3.719 3.719h-49.779v5.313c0 2.054-1.665 3.719-3.719 3.719z" fill="#f88"/></g></g><path d="m420.262 396.776h-54.272v-29.904-46.022c0-13.876 11.217-25.141 25.093-25.197 7.822-.031 15.78-.057 21.086-.057h8.094v101.18z" fill="#ffbe82"/><path d="m420.262 355.086v-59.489h-8.094c-5.306 0-13.264.025-21.086.057-13.875.056-25.093 11.321-25.093 25.197v9.679c0 13.562 10.995 24.557 24.557 24.557h29.716z" fill="#ff965a"/><path d="m365.99 458.834h37.541c5.763-4.212 11.351-8.648 16.731-13.32v-48.738h-54.272z" fill="#ff8500"/><path d="m365.99 396.776h18.21v62.058h-18.21z" fill="#fa690f"/><path d="m426.984 439.446c-4.027-3.061-9.048-4.881-14.497-4.881h-38.722c-13.244 0-23.981 10.736-23.981 23.98v30.315c28.745-11.731 54.853-28.577 77.2-49.414z" fill="#ff8500"/><path d="m349.784 458.545v30.315c9.927-4.051 19.541-8.71 28.793-13.936v-16.379c0-13.244 10.736-23.981 23.981-23.981h-28.793c-13.244.001-23.981 10.737-23.981 23.981z" fill="#fa690f"/><path d="m86.514 396.776h54.272v-29.904-46.022c0-13.876-11.217-25.141-25.093-25.197-7.822-.031-15.78-.057-21.086-.057h-8.094v101.18z" fill="#ffbe82"/><path d="m86.514 355.086v-59.489h8.094c5.306 0 13.264.025 21.086.057 13.875.056 25.093 11.321 25.093 25.197v9.679c0 13.562-10.995 24.557-24.557 24.557h-29.716z" fill="#ff965a"/><path d="m86.514 444.513c5.73 5.035 11.69 9.812 17.86 14.321h36.413v-62.058h-54.273z" fill="#ff8500"/><path d="m122.577 379.774h18.21v62.058h-18.21z" fill="#fa690f" transform="matrix(-1 0 0 -1 263.364 821.605)"/><path d="m133.012 434.565h-38.723c-5.167 0-9.949 1.64-13.864 4.42 22.163 20.776 48.054 37.617 76.566 49.414v-29.854c.001-13.244-10.735-23.98-23.979-23.98z" fill="#ff8500"/><path d="m253.908 313.661h-129.587v-49.692c0-6.672 6.176-11.631 12.691-10.188l116.896 25.882z" fill="#fff"/><path d="m253.908 313.661h129.587v-49.692c0-6.672-6.176-11.631-12.691-10.188l-116.896 25.882z" fill="#fff"/><path d="m133.012 434.565h-28.793c13.244 0 23.98 10.736 23.98 23.981v15.748c9.248 5.285 18.863 9.997 28.793 14.106v-29.854c0-13.245-10.736-23.981-23.98-23.981z" fill="#fa690f"/><path d="m258.439 463.213 7.611-66.437-11.609-106.39-100.864-22.591v195.418z" fill="#2d56a1"/><path d="m169.299 438.688c-7.184-1.609-12.29-7.986-12.29-15.347v-154.777l-35.23-7.891c-9.829-2.201-19.165 5.275-19.165 15.347v175.491c0 7.362 5.106 13.738 12.29 15.347l139.538 31.252 4.507-39.344z" fill="#1a396b"/><path d="m405.291 450.843v-174.794c0-10.081-9.351-17.559-19.186-15.342l-86.943 19.599v170.539h106.129z" fill="#2896ff"/><path d="m300.746 427.695v-147.747l-46.305 10.438v207.725l138.581-31.239c7.173-1.617 12.269-7.989 12.269-15.342v-24.473l-82.178 18.525c-11.465 2.584-22.367-6.134-22.367-17.887z" fill="#2d56a1"/><g><g><path d="m426.511 357.166c.035 4.401-3.505 7.998-7.907 8.032l-22.315.175c-4.402.035-7.998-3.505-8.032-7.907-.035-4.401 3.505-7.998 7.907-8.032l22.315-.175c4.401-.035 7.997 3.505 8.032 7.907z" fill="#ffbe82"/></g><g><path d="m427.979 341.214c.042 5.282-4.206 9.597-9.488 9.639l-22.315.175c-5.282.042-9.597-4.206-9.639-9.488s4.206-9.597 9.488-9.639l22.315-.175c5.282-.042 9.598 4.206 9.639 9.488z" fill="#ffbe82"/></g><g><path d="m427.837 323.149c.042 5.282-4.206 9.597-9.488 9.639l-22.315.175c-5.282.042-9.597-4.206-9.639-9.488s4.206-9.597 9.488-9.639l22.315-.175c5.282-.041 9.598 4.207 9.639 9.488z" fill="#ffbe82"/></g><g><path d="m427.695 305.085c.042 5.282-4.206 9.597-9.488 9.639l-22.315.175c-5.282.042-9.597-4.206-9.639-9.488s4.206-9.597 9.488-9.639l22.315-.175c5.282-.042 9.598 4.206 9.639 9.488z" fill="#ffbe82"/></g></g><g><g><path d="m80.266 357.166c-.035 4.401 3.505 7.998 7.907 8.032l22.315.175c4.402.035 7.998-3.505 8.032-7.907.035-4.401-3.505-7.998-7.907-8.032l-22.315-.175c-4.402-.035-7.998 3.505-8.032 7.907z" fill="#ffbe82"/></g><g><path d="m78.797 341.214c-.042 5.282 4.206 9.597 9.488 9.639l22.315.175c5.282.042 9.597-4.206 9.639-9.488s-4.206-9.597-9.488-9.639l-22.315-.175c-5.282-.042-9.597 4.206-9.639 9.488z" fill="#ffbe82"/></g><g><path d="m78.939 323.149c-.042 5.282 4.206 9.597 9.488 9.639l22.315.175c5.282.042 9.597-4.206 9.639-9.488s-4.206-9.597-9.488-9.639l-22.315-.175c-5.282-.041-9.597 4.207-9.639 9.488z" fill="#ffbe82"/></g><g><path d="m79.081 305.085c-.042 5.282 4.206 9.597 9.488 9.639l22.315.175c5.282.042 9.597-4.206 9.639-9.488s-4.206-9.597-9.488-9.639l-22.315-.175c-5.282-.042-9.597 4.206-9.639 9.488z" fill="#ffbe82"/></g></g><path d="m256.018 501.341h-5.794c-5.531 0-10.015-4.484-10.015-10.015v-205.697c0-4.199 3.404-7.603 7.603-7.603h10.618c4.199 0 7.603 3.404 7.603 7.603v205.698c0 5.531-4.484 10.014-10.015 10.014z" fill="#2896ff"/></g></g></svg>