<?xml version="1.0" encoding="iso-8859-1"?>
<!-- Generator: Adobe Illustrator 19.0.0, SVG Export Plug-In . SVG Version: 6.00 Build 0)  -->
<svg version="1.1" id="Capa_1" xmlns="http://www.w3.org/2000/svg" xmlns:xlink="http://www.w3.org/1999/xlink" x="0px" y="0px"
	 viewBox="0 0 512 512" style="enable-background:new 0 0 512 512;" xml:space="preserve">
<path style="fill:#63A0B2;" d="M434.034,439.935C387.961,484.539,325.192,512,256,512c-68.885,0-131.409-27.216-177.425-71.471
	c-3.204-14.952-14.041-27.066-28.237-32.073C18.715,365.867,0,313.121,0,256C0,114.615,114.615,0,256,0s256,114.615,256,256
	c0,57.22-18.778,110.051-50.5,152.678C447.802,413.749,437.345,425.478,434.034,439.935z"/>
<path style="fill:#FFE7BF;" d="M462,407.992c-8.736,11.821-18.458,22.867-29.057,33.008H79.057
	C68.458,430.86,58.736,419.813,50,407.992V111h412V407.992z"/>
<path style="fill:#FFF5F5;" d="M462,407.992c-8.736,11.821-18.458,22.867-29.057,33.008H79.057
	c-3.096-2.962-6.113-6.004-9.057-9.116V111h392V407.992z"/>
<path style="fill:#F8BB5E;" d="M462,121H50V81c0-5.523,4.477-10,10-10h392c5.523,0,10,4.477,10,10V121z"/>
<path style="fill:#FBC56D;" d="M462,121H70V81c0-5.523,4.477-10,10-10h372c5.523,0,10,4.477,10,10V121z"/>
<path style="fill:#EBAE56;" d="M100,96c0,5.523-4.477,10-10,10s-10-4.477-10-10s4.477-10,10-10S100,90.477,100,96z M120,86
	c-5.523,0-10,4.477-10,10s4.477,10,10,10s10-4.477,10-10S125.523,86,120,86z M150,86c-5.523,0-10,4.477-10,10s4.477,10,10,10
	s10-4.477,10-10S155.523,86,150,86z"/>
<path style="fill:#FFE1A8;" d="M80,200v-11c0-1.105,0.896-2,2-2h126c1.104,0,2,0.895,2,2v11c0,1.104-0.896,2-2,2H82
	C80.896,202,80,201.104,80,200z M82,230h88.857c1.104,0,2-0.896,2-2v-11c0-1.105-0.896-2-2-2H82c-1.104,0-2,0.895-2,2v11
	C80,229.104,80.896,230,82,230z M248,277H82c-1.104,0-2,0.895-2,2v11c0,1.104,0.896,2,2,2h166c1.104,0,2-0.896,2-2v-11
	C250,277.895,249.104,277,248,277z M82,321.333h116c1.104,0,2-0.895,2-2v-11c0-1.104-0.896-2-2-2H82c-1.104,0-2,0.896-2,2v11
	C80,320.438,80.896,321.333,82,321.333z M238,335.667H82c-1.104,0-2,0.895-2,2v11c0,1.105,0.896,2,2,2h156c1.104,0,2-0.895,2-2v-11
	C240,336.562,239.104,335.667,238,335.667z M118,365H82c-1.104,0-2,0.895-2,2v11c0,1.104,0.896,2,2,2h36c1.104,0,2-0.896,2-2v-11
	C120,365.895,119.104,365,118,365z"/>
<path style="fill:#EA4444;" d="M388.66,476.631c0,1.518-1.625,2.483-2.958,1.756L333.66,450l-52.042,28.387
	c-1.333,0.727-2.958-0.238-2.958-1.756V330h110V476.631z"/>
<path style="fill:#D93131;" d="M388.66,330v31.119c-1.361,0.578-2.692,1.238-3.981,1.999c-0.578,0.341-1.159,0.676-1.744,1.005
	c-5.235,2.951-9.444,7.321-12.783,12.318c-3.924,5.873-12.093,7.979-18.365,4.672c-5.054-2.665-10.6-4.24-16.312-4.128
	c-0.602,0.012-1.208,0.018-1.814,0.018c-0.502,0-1.002-0.004-1.503-0.012c-5.865-0.094-11.551,1.532-16.775,4.201
	c-4.988,2.548-11.125,1.707-15.382-1.692v88.86l-18.382,10.026c-1.333,0.727-2.958-0.238-2.958-1.756V361.119V330H300H388.66z"/>
<path style="fill:#F8BB5E;" d="M433.831,292.445c-5.088,3.445-9.501,7.741-12.532,13.085c-0.283,0.498-0.569,0.994-0.86,1.487
	c-3.155,5.348-4.662,11.376-5.134,17.567c-0.52,6.82-6.239,12.54-13.06,13.059c-6.191,0.471-12.219,1.979-17.567,5.133
	c-0.493,0.291-0.989,0.578-1.488,0.861c-5.344,3.031-9.64,7.444-13.084,12.531c-3.85,5.687-11.697,7.8-17.882,4.824
	c-5.582-2.686-11.54-4.39-17.735-4.335c-0.276,0.002-0.552,0.004-0.829,0.004s-0.553-0.001-0.829-0.004
	c-6.195-0.055-12.152,1.649-17.735,4.335c-6.185,2.976-14.032,0.863-17.882-4.824c-3.445-5.087-7.74-9.501-13.085-12.531
	c-0.499-0.283-0.995-0.57-1.488-0.861c-5.348-3.155-11.376-4.662-17.567-5.133c-6.82-0.519-12.54-6.239-13.059-13.059
	c-0.471-6.191-1.979-12.219-5.133-17.567c-0.291-0.494-0.578-0.99-0.861-1.489c-3.03-5.344-7.443-9.639-12.53-13.083
	c-5.687-3.85-7.801-11.697-4.825-17.883c2.686-5.582,4.39-11.54,4.335-17.735c-0.002-0.276-0.004-0.552-0.004-0.829
	s0.001-0.553,0.004-0.829c0.055-6.195-1.649-12.152-4.335-17.735c-2.976-6.186-0.862-14.033,4.825-17.883
	c5.087-3.444,9.499-7.739,12.53-13.083c0.283-0.499,0.57-0.995,0.861-1.488c3.155-5.348,4.662-11.376,5.133-17.567
	c0.519-6.82,6.239-12.54,13.06-13.059c6.191-0.471,12.219-1.979,17.567-5.133c0.493-0.291,0.989-0.578,1.488-0.861
	c5.344-3.031,9.64-7.444,13.085-12.531c3.85-5.687,11.697-7.8,17.882-4.824c5.582,2.686,11.54,4.39,17.735,4.335
	c0.276-0.002,0.552-0.004,0.829-0.004s0.553,0.001,0.829,0.004c6.195,0.055,12.152-1.649,17.735-4.335
	c6.185-2.976,14.032-0.862,17.882,4.824c3.445,5.087,7.74,9.5,13.084,12.531c0.499,0.283,0.994,0.57,1.488,0.861
	c5.348,3.155,11.376,4.662,17.567,5.133c6.82,0.519,12.54,6.239,13.06,13.059c0.472,6.191,1.979,12.22,5.134,17.567
	c0.291,0.493,0.577,0.988,0.86,1.487c3.031,5.344,7.444,9.64,12.532,13.085c5.687,3.85,7.8,11.697,4.824,17.882
	c-2.686,5.582-4.39,11.54-4.335,17.735c0.002,0.276,0.004,0.552,0.004,0.829c0,0.277-0.001,0.553-0.004,0.829
	c-0.055,6.195,1.649,12.152,4.335,17.735C441.63,280.749,439.517,288.595,433.831,292.445z"/>
<path style="fill:#EBAE56;" d="M318.965,359.331c-1.307,0.5-2.598,1.052-3.868,1.663c-6.185,2.976-14.031,0.862-17.882-4.824
	c-3.445-5.087-7.74-9.5-13.085-12.531c-0.499-0.283-0.995-0.57-1.488-0.861c-5.347-3.155-11.376-4.662-17.567-5.133
	c-6.82-0.519-12.54-6.239-13.059-13.059c-0.471-6.191-1.979-12.219-5.133-17.567c-0.291-0.494-0.578-0.99-0.861-1.489
	c-3.031-5.344-7.443-9.639-12.53-13.083c-5.688-3.85-7.801-11.697-4.825-17.883c2.686-5.583,4.39-11.54,4.335-17.735
	c-0.002-0.276-0.004-0.552-0.004-0.829s0.001-0.553,0.004-0.829c0.055-6.195-1.649-12.152-4.335-17.735
	c-2.976-6.186-0.862-14.033,4.825-17.883c5.087-3.444,9.5-7.74,12.53-13.083c0.283-0.499,0.57-0.995,0.861-1.488
	c3.155-5.348,4.662-11.376,5.134-17.567c0.519-6.82,6.239-12.54,13.06-13.059c6.191-0.471,12.219-1.979,17.567-5.133
	c0.493-0.291,0.989-0.578,1.488-0.861c5.344-3.031,9.64-7.444,13.085-12.531c3.85-5.687,11.697-7.8,17.882-4.824
	c1.27,0.611,2.561,1.163,3.868,1.663C283.671,173.562,260,212.013,260,256C260,299.986,283.671,338.438,318.965,359.331z"/>
<path style="fill:#DCA050;" d="M333.66,176c-44.183,0-80,35.817-80,80s35.817,80,80,80s80-35.817,80-80S377.843,176,333.66,176z
	 M333.66,316c-33.137,0-60-26.863-60-60s26.863-60,60-60s60,26.863,60,60S366.798,316,333.66,316z"/>
<path style="fill:#FFF5F5;" d="M394.729,231.978l-56.622,56.559c-1.953,1.951-5.118,1.951-7.07-0.001l-36.878-36.878
	c-3.905-3.904-3.904-10.235,0-14.139l0.003-0.003c3.904-3.904,10.235-3.904,14.139,0l26.305,26.305l45.985-45.985
	c3.904-3.904,10.235-3.904,14.139,0l0,0C398.638,221.741,398.636,228.074,394.729,231.978z"/>
<g>
</g>
<g>
</g>
<g>
</g>
<g>
</g>
<g>
</g>
<g>
</g>
<g>
</g>
<g>
</g>
<g>
</g>
<g>
</g>
<g>
</g>
<g>
</g>
<g>
</g>
<g>
</g>
<g>
</g>
</svg>
