<svg id="Capa_1" enable-background="new 0 0 512 512" height="512" viewBox="0 0 512 512" width="512" xmlns="http://www.w3.org/2000/svg"><g><g><path d="m0 256c0 43.79 11 85.02 30.39 121.07l225.61 49.67 225.61-49.67c19.39-36.05 30.39-77.28 30.39-121.07 0-46.63-12.47-90.34-34.26-128-41.698 72.091-399.22 76.52-443.48 0-21.79 37.66-34.26 81.37-34.26 128z" fill="#bf2e70"/><path d="m34.26 128c44.26 76.52 126.99 128 221.74 128s177.48-51.48 221.74-128c-.01-.02-.03-.05-.04-.07-44.27-76.48-126.98-127.93-221.7-127.93s-177.43 51.45-221.7 127.93c-.01.02-.03.05-.04.07z" fill="#d75e91"/><path d="m30.39 377.07c43.19 80.32 128.02 134.93 225.61 134.93s182.42-54.61 225.61-134.93z" fill="#871155"/></g><g><path d="m324.315 106.189v142.456h-136.64v-142.456c0-37.723 30.587-68.31 68.32-68.31 18.866 0 35.942 7.647 48.307 20.012 12.366 12.356 20.013 29.431 20.013 48.298z" fill="#f5dc6e"/><path d="m324.315 242.231v142.456c0 28.314-17.229 52.612-41.787 62.965v17.335c0 14.648-11.875 26.532-26.532 26.532-7.329 0-13.955-2.966-18.76-7.772-4.806-4.796-7.772-11.431-7.772-18.76v-17.335c-8.196-3.457-15.582-8.475-21.775-14.667-12.366-12.356-20.012-29.431-20.012-48.298v-142.456z" fill="#c3f3ff"/><path d="m324.315 242.231v142.456c0 28.314-17.229 52.612-41.787 62.965v17.335c0 14.648-11.875 26.532-26.532 26.532v-249.288z" fill="#9feafd"/><path d="m352.273 242.231c0 13.666-11.085 24.741-24.741 24.741h-143.064c-6.828 0-13.021-2.774-17.499-7.242-4.469-4.478-7.242-10.671-7.242-17.499 0-13.666 11.075-24.741 24.741-24.741h143.063c6.828 0 13.011 2.774 17.489 7.242 4.479 4.479 7.253 10.671 7.253 17.499z" fill="#eebf36"/><path d="m324.315 106.189v142.456h-68.32v-210.766c18.866 0 35.942 7.647 48.307 20.012 12.366 12.356 20.013 29.431 20.013 48.298z" fill="#eebf36"/><path d="m352.273 242.231c0 13.666-11.085 24.741-24.741 24.741h-71.536v-49.482h71.536c6.828 0 13.011 2.774 17.489 7.242 4.478 4.479 7.252 10.671 7.252 17.499z" fill="#e7a340"/><path d="m295.423 309.126v75.562c0 21.736-17.691 39.418-39.428 39.418-10.526 0-20.427-4.103-27.881-11.547-7.444-7.444-11.547-17.345-11.547-27.871v-75.562z" fill="#8898e5"/><path d="m295.423 309.126v75.562c0 21.736-17.691 39.418-39.428 39.418v-114.98z" fill="#546bd9"/></g></g></svg>