<svg id="Capa_1" enable-background="new 0 0 512 512" height="512" viewBox="0 0 512 512" width="512" xmlns="http://www.w3.org/2000/svg"><path d="m512 256c0 90.24-46.7 169.58-117.25 215.17v-.01l-188.41 25.57-143.19-72.38c-39.32-45.01-63.15-103.9-63.15-168.35 0-40.03 9.19-77.91 25.58-111.66l.01-.01 24.77-40.82c46.65-62.81 121.39-103.51 205.64-103.51 57.81 0 111.15 19.17 154.01 51.5l58.87 62.27c27.23 40.68 43.12 89.6 43.12 142.23z" fill="#fd4fb9"/><path d="m512 256c0 87.11-43.52 164.07-110 210.31-2.39 1.66-4.8 3.28-7.25 4.85l-188.41 25.57-143.19-72.38c-39.33-45-63.15-103.9-63.15-168.35 0-40.04 9.19-77.92 25.58-111.66l.02-.04 8.67-14.28c8.32 14.39 18 27.88 28.88 40.32 36.55 41.86 86.51 71.7 143.19 82.84 16.06 3.16 32.67 4.82 49.66 4.82 95.16 0 178.21-51.93 222.32-129 21.43 37.43 33.68 80.78 33.68 127z" fill="#ea39ab"/><path d="m90.71 103.5v40.84h-65.13c5.72-11.79 12.32-23.07 19.71-33.76l5.07-7.07s0-.01.01-.01z" fill="#65b2fe"/><path d="m355.26 492.04c-30.52 12.85-64.06 19.96-99.26 19.96-76.93 0-145.93-33.94-192.85-87.65v-280c0-14.04-7.08-26.42-17.86-33.77.06-.08.12-.17.17-.25.77-1.11 1.55-2.22 2.34-3.31.84-1.18 1.7-2.35 2.56-3.51h258.33c22.56 0 40.84 18.28 40.84 40.84v326.81c0 7.63 2.09 14.77 5.73 20.88z" fill="#d1f6ff"/><path d="m206.34 153.99v353.2c-35.25-6.93-67.89-21.1-96.34-40.88-17.29-12.03-33.03-26.13-46.85-41.96v-280c0-14.04-7.08-26.42-17.86-33.77 1.65-2.39 3.34-4.75 5.07-7.07h105.5c27.88 0 50.48 22.6 50.48 50.48z" fill="#fff"/><path d="m394.75 471.16c-12.46 8.06-25.67 15.06-39.49 20.88-30.52 12.85-64.06 19.96-99.26 19.96-1.91 0-3.81-.02-5.71-.07-15-.32-29.69-1.94-43.95-4.75-22.56-4.43-44.05-11.83-64.06-21.77 1.66-4.43 2.56-9.24 2.56-14.25z" fill="#8fc8f5"/><path d="m394.75 471.16c-12.46 8.06-25.67 15.06-39.49 20.88-30.52 12.85-64.06 19.96-99.26 19.96h-8.07c.79 0 1.58-.02 2.36-.07 21.46-1.22 38.48-19 38.48-40.77z" fill="#65b2fe"/><g fill="#234177"><path d="m308.87 177.806c0 5.342-2.165 10.165-5.659 13.659s-8.33 5.659-13.66 5.659h-166.42c-10.672 0-19.318-8.646-19.318-19.318 0-5.342 2.165-10.165 5.659-13.659s8.33-5.659 13.659-5.659h166.42c10.673 0 19.319 8.646 19.319 19.318z"/><path d="m308.87 255.091c0 5.33-2.165 10.165-5.659 13.659s-8.33 5.659-13.66 5.659h-166.42c-10.672 0-19.318-8.646-19.318-19.318 0-5.33 2.165-10.165 5.659-13.659s8.33-5.659 13.659-5.659h166.42c10.673 0 19.319 8.646 19.319 19.318z"/><path d="m308.87 332.376c0 5.342-2.165 10.165-5.659 13.672-3.494 3.494-8.33 5.659-13.66 5.659h-166.42c-10.672 0-19.318-8.659-19.318-19.331 0-5.342 2.165-10.165 5.659-13.659s8.33-5.659 13.659-5.659h166.42c10.673 0 19.319 8.647 19.319 19.318z"/><path d="m308.87 409.662c0 5.33-2.165 10.165-5.659 13.672-3.494 3.494-8.33 5.659-13.66 5.659h-166.42c-10.672 0-19.318-8.659-19.318-19.331 0-5.33 2.165-10.165 5.659-13.659s8.33-5.659 13.659-5.659h166.42c10.673 0 19.319 8.646 19.319 19.318z"/></g><path d="m206.342 158.488v38.636h-83.21c-10.672 0-19.318-8.646-19.318-19.318 0-5.342 2.165-10.165 5.659-13.659s8.33-5.659 13.659-5.659z" fill="#4e689b"/><path d="m123.132 235.773h83.21v38.636h-83.21c-10.672 0-19.318-8.646-19.318-19.318 0-5.33 2.165-10.165 5.659-13.659s8.329-5.659 13.659-5.659z" fill="#4e689b"/><path d="m123.132 313.058h83.21v38.649h-83.21c-10.672 0-19.318-8.659-19.318-19.331 0-5.342 2.165-10.165 5.659-13.659s8.329-5.659 13.659-5.659z" fill="#4e689b"/><path d="m123.132 390.344h83.21v38.649h-83.21c-10.672 0-19.318-8.659-19.318-19.331 0-5.33 2.165-10.165 5.659-13.659 3.494-3.495 8.329-5.659 13.659-5.659z" fill="#4e689b"/><path d="m435.753 319.701-.446 95.546c-.008 4.876-3.954 8.807-8.83 8.813h-.013c-4.862-.008-8.821-3.967-8.812-8.843l.446-95.546z" fill="#fff"/><path d="m435.753 319.701-.446 95.546c-.008 4.876-3.954 8.807-8.83 8.813l.462-104.374z" fill="#d1f6ff"/><path d="m457.095 331.621c-.029 16.677-13.552 30.154-30.23 30.139h-.013c-16.678-.029-30.167-13.565-30.139-30.243.029-16.678 13.565-30.167 30.243-30.139h.013c16.679.042 30.155 13.565 30.126 30.243z" fill="#d1f6ff"/><path d="m457.095 331.621c-.029 16.677-13.552 30.154-30.23 30.139l.104-60.381c16.679.041 30.155 13.564 30.126 30.242z" fill="#b3f4ff"/><path d="m479.89 227.51c-.04 17.54-1.62 34.7-4.66 51.38-4.23 23.46-24.47 40.66-48.3 40.78-.12.02-.25 0-.38.01h-.02c-23.98-.04-44.35-17.35-48.54-40.96-2.97-16.69-4.49-33.87-4.46-51.4.07-36.29 7.42-107.69 19.69-139.67 1.44-3.77 2.96-7.52 4.56-11.22 3.68-8.53 7.77-16.85 12.23-24.93 6.16 4.65 12.1 9.56 17.81 14.73l.01.01c8.97 8.12 17.35 16.86 25.09 26.17 5.69 6.84 11.02 13.98 15.99 21.39 7.38 35.69 11.03 85.39 10.98 113.71z" fill="#fff"/><path d="m479.89 227.51c-.03 17.54-1.62 34.7-4.66 51.37-4.23 23.47-24.47 40.67-48.3 40.79l.9-253.43c8.97 8.12 17.35 16.86 25.09 26.17 5.69 6.84 11.02 13.98 15.99 21.39 7.38 35.69 11.03 85.39 10.98 113.71z" fill="#d1f6ff"/><path d="m452.92 92.41c-2.51 4.7-5.84 9.03-9.95 12.77l-15.14 13.72-.02.02-.17-.15-14.92-13.64c-8.41-7.7-13.55-17.94-14.94-28.7 3.68-8.53 7.77-16.85 12.23-24.93 6.16 4.65 12.1 9.56 17.81 14.73 8.97 8.12 17.36 16.87 25.1 26.18z" fill="#374c81"/><path d="m435.321 406.854-.014 8.393c-.008 4.835-3.9 8.753-8.721 8.813h-.122c-4.862-.008-8.821-3.967-8.812-8.843l.014-8.393z" fill="#374c81"/><path d="m435.321 406.854-.014 8.393c-.008 4.835-3.9 8.753-8.721 8.813l.03-17.221z" fill="#374c81"/><path d="m452.92 92.41c-2.51 4.7-5.84 9.03-9.95 12.77l-15.14 13.72-.02.02-.17-.15.18-52.54c8.97 8.12 17.36 16.87 25.1 26.18z" fill="#234177"/></svg>