<svg id="Capa_1" enable-background="new 0 0 512 512" height="512" viewBox="0 0 512 512" width="512" xmlns="http://www.w3.org/2000/svg"><g><g><path d="m256 323.934c-141.387 0-244.868-153.46-225.263-189.663 43.302-79.964 127.939-134.271 225.263-134.271 97.204 0 181.752 54.173 225.103 133.974 19.704 36.274-83.716 189.96-225.103 189.96z" fill="#aaed58"/><path d="m512 256c0 26.051-3.891 51.191-11.129 74.871-5.031 16.469-11.672 32.231-19.75 47.109-8.25 15.2-147.391 54.313-225.121 54.313s-216.871-39.113-225.109-54.313c-3.289-6.031-6.332-12.21-9.121-18.531-14-31.629-21.77-66.629-21.77-103.449 0-46.219 12.25-89.57 33.68-127 44.121 77.07 127.16 129 222.32 129s178.211-51.93 222.32-129c21.43 37.43 33.68 80.781 33.68 127zm0 0" fill="#6abb5e"/><path d="m481.262 377.699c-7.16 13.223-15.434 25.742-24.723 37.43-8.437 10.633-17.719 20.57-27.719 29.723-22.621 20.713-48.975 37.417-77.937 48.984-29.342 11.719-160.008 11.802-189.194.228-29.187-11.575-55.739-28.362-78.509-49.211-10-9.153-19.282-19.09-27.719-29.723-9.289-11.688-17.563-24.207-24.723-37.43h450.524zm0 0" fill="#303a59"/></g><g><path d="m437.666 318.982v-170.312h-181.666l-63.867 181.666 63.866 181.664h.001c33.876 0 66.207-6.595 95.801-18.546v-45.319h-21.289v-150.442h43.288v21.289z" fill="#1394fb"/><path d="m74.334 148.67v170.312h63.867v-21.289h43.288v150.442h-21.289v45.319c29.593 11.951 61.924 18.546 95.8 18.546v-363.33z" fill="#64b0fb"/><path d="m256 191.248-21.289 139.088 21.289 139.088h31.933v-214.309h107.155v-63.867z" fill="#dff5ff"/><path d="m116.912 191.248v63.867h107.154v214.309h31.934v-278.176z" fill="#fff"/></g></g></svg>