<svg id="Capa_1" enable-background="new 0 0 512 512" height="512" viewBox="0 0 512 512" width="512" xmlns="http://www.w3.org/2000/svg"><circle cx="256" cy="256" fill="#65b2fe" r="256"/><path d="m512 256c0 87.11-43.52 164.07-110 210.31-41.41 28.8-91.73 45.69-146 45.69s-104.59-16.89-146-45.69c-66.48-46.24-110-123.2-110-210.31 0-46.22 12.25-89.57 33.68-127 44.12 77.07 127.16 129 222.32 129s178.21-51.93 222.32-129c21.43 37.43 33.68 80.78 33.68 127z" fill="#0e9ce7"/><path d="m452 316c0 105.34-83.12 191.28-187.34 195.81-.31.02-.62.03-.93.04-.87.03-1.74.06-2.6.08-1.73.05-3.44.07-5.13.07-108.24 0-196-87.76-196-196s87.76-196 196-196h.28c108.11.15 195.72 87.85 195.72 196z" fill="#ffe853"/><path d="m452 316c0 105.34-83.12 191.28-187.34 195.81-.31.02-.62.03-.93.04-.87.03-1.74.06-2.6.08-1.73.05-3.44.07-5.13.07-58.54-45.3-103.35-116.25-103.35-196s44.81-150.7 103.35-196h.28c108.11.15 195.72 87.85 195.72 196z" fill="#fed110"/><path d="m452 316c0 108.244-87.756 196-196 196v-392c108.244 0 196 87.756 196 196z" fill="#ff9f01"/><path d="m169.919 157.871c-2.035 0-4.032-.023-5.99-.069-31.607-.748-48.996-7.486-51.683-20.029-2.687-12.542 10.416-25.812 38.943-39.441 25.024-11.956 59.241-22.918 96.348-30.867 37.107-7.948 72.809-11.963 100.538-11.309 31.608.748 48.997 7.486 51.683 20.029 2.686 12.542-10.416 25.812-38.944 39.441-25.024 11.956-59.241 22.918-96.349 30.867-34.485 7.387-67.761 11.378-94.546 11.378zm172.121-87.959c-25.807 0-58.048 3.884-91.606 11.072-36.08 7.729-69.208 18.32-93.284 29.822-27.058 12.928-31.842 21.935-31.384 24.071.457 2.136 8.511 8.393 38.49 9.102 26.677.638 61.235-3.277 97.314-11.006 36.08-7.729 69.208-18.32 93.284-29.822 27.059-12.928 31.842-21.935 31.385-24.071-.458-2.136-8.511-8.393-38.491-9.102-1.864-.044-3.769-.066-5.708-.066z" fill="#fff"/><path d="m335.73 155.672c-25.35 0-55.711-3.102-87.143-8.969-37.305-6.963-71.8-17.016-97.132-28.304-28.878-12.87-42.328-25.788-39.974-38.397 2.353-12.609 19.557-19.806 51.134-21.39 27.699-1.39 63.497 1.679 100.802 8.642 37.304 6.963 71.8 17.015 97.132 28.304 28.878 12.87 42.328 25.788 39.975 38.397-2.354 12.609-19.558 19.806-51.134 21.39-4.361.219-8.924.327-13.66.327zm-159.389-83.564c-4.524 0-8.874.104-13.032.312-29.95 1.503-37.836 7.971-38.236 10.119-.401 2.147 4.619 11.024 32.01 23.231 24.372 10.861 57.77 20.571 94.042 27.341 36.271 6.771 70.926 9.762 97.572 8.425 29.951-1.503 37.835-7.971 38.236-10.119s-4.62-11.024-32.011-23.231c-24.372-10.861-57.77-20.571-94.041-27.341-30.611-5.713-60.073-8.737-84.54-8.737z" fill="#fff"/><path d="m217.862 263.327-11.19-11.19c-2.85-2.85-7.472-2.85-10.322 0l-11.19 11.19c-2.85 2.85-7.472 2.85-10.322 0l-11.19-11.19c-2.85-2.85-7.472-2.85-10.322 0l-11.19 11.19c-2.85 2.85-2.85 7.472 0 10.322l11.19 11.19c2.85 2.85 2.85 7.472 0 10.322l-11.19 11.19c-2.85 2.85-2.85 7.472 0 10.322l11.19 11.19c2.85 2.85 7.472 2.85 10.322 0l11.19-11.19c2.85-2.85 7.472-2.85 10.322 0l11.19 11.19c2.85 2.85 7.472 2.85 10.322 0l11.19-11.19c2.85-2.85 2.85-7.472 0-10.322l-11.19-11.19c-2.85-2.85-2.85-7.472 0-10.322l11.19-11.19c2.851-2.85 2.851-7.471 0-10.322z" fill="#29334c"/><path d="m369.862 263.327-11.19-11.19c-2.85-2.85-7.472-2.85-10.322 0l-11.19 11.19c-2.85 2.85-7.472 2.85-10.322 0l-11.19-11.19c-2.85-2.85-7.472-2.85-10.322 0l-11.19 11.19c-2.85 2.85-2.85 7.472 0 10.322l11.19 11.19c2.85 2.85 2.85 7.472 0 10.322l-11.19 11.19c-2.85 2.85-2.85 7.472 0 10.322l11.19 11.19c2.85 2.85 7.472 2.85 10.322 0l11.19-11.19c2.85-2.85 7.472-2.85 10.322 0l11.19 11.19c2.85 2.85 7.472 2.85 10.322 0l11.19-11.19c2.85-2.85 2.85-7.472 0-10.322l-11.19-11.19c-2.85-2.85-2.85-7.472 0-10.322l11.19-11.19c2.851-2.85 2.851-7.471 0-10.322z" fill="#29334c"/><path d="m372 443.36c-15.07 8.7-34.33 3.54-43.03-11.53l-16.69-28.91c10.44-3.35 20.58-7.6 30.33-12.7 8.94-4.66 17.56-10.03 25.82-16.03l15.1 26.14c8.7 15.07 3.54 34.33-11.53 43.03z" fill="#ff1d56"/><path d="m372 443.36-29.39-53.14c8.94-4.66 17.56-10.03 25.82-16.03l15.1 26.14c8.7 15.07 3.54 34.33-11.53 43.03z" fill="#dd1265"/><path d="m392.81 373.97c-5.02 4.34-10.25 8.49-15.56 12.35-18.83 13.69-39.15 24.08-60.39 30.89-19.72 6.33-40.2 9.55-60.86 9.55-49.6 0-96.91-18.26-136.82-52.8-6.26-5.42-6.94-14.89-1.52-21.16 5.42-6.26 14.89-6.94 21.16-1.52 34.37 29.75 74.89 45.48 117.18 45.48 17.54 0 34.93-2.73 51.69-8.12 18.21-5.84 35.68-14.78 51.92-26.58 4.62-3.36 9.19-6.99 13.58-10.79 6.27-5.42 15.74-4.73 21.16 1.54s4.73 15.74-1.54 21.16z" fill="#ed771b"/><path d="m392.81 373.97c-5.02 4.34-10.25 8.49-15.56 12.35-18.83 13.69-39.15 24.08-60.39 30.89-19.72 6.33-40.2 9.55-60.86 9.55v-30c17.54 0 34.93-2.73 51.69-8.12 18.21-5.84 35.68-14.78 51.92-26.58 4.62-3.36 9.19-6.99 13.58-10.79 6.27-5.42 15.74-4.73 21.16 1.54s4.73 15.74-1.54 21.16z" fill="#c6601a"/><path d="m217.362 178.46c-16.242 20.451-46.793 29.91-73.514 21.32-.021-.007-.042-.013-.063-.02-2.001-.645-3.955 1.344-2.802 2.874 4.777 6.339 11.996 11.344 21.15 13.927 21.13 5.963 45.356-3.583 55.048-21.676 2.733-5.102 4.081-10.374 4.188-15.506.037-1.847-2.76-2.488-4.007-.919z" fill="#ed771b"/><path d="m294.638 178.46c16.242 20.451 46.793 29.91 73.514 21.32.021-.007.042-.013.063-.02 2-.645 3.955 1.344 2.802 2.874-4.777 6.339-11.996 11.344-21.15 13.927-21.129 5.963-45.356-3.583-55.048-21.676-2.733-5.102-4.081-10.374-4.188-15.506-.038-1.847 2.76-2.488 4.007-.919z" fill="#c55835"/><g fill="#ff1d56"><path d="m188.954 118.685 2.287 5.841c.412 1.053 1.316 1.836 2.417 2.093l6.108 1.427c2.773.648 3.599 4.194 1.398 6.001l-4.848 3.98c-.874.717-1.339 1.819-1.243 2.946l.53 6.25c.241 2.837-2.877 4.719-5.275 3.184l-5.283-3.381c-.952-.61-2.144-.711-3.186-.272l-5.781 2.436c-2.624 1.106-5.377-1.278-4.659-4.033l1.583-6.07c.285-1.094.014-2.259-.726-3.114l-4.103-4.745c-1.862-2.154-.446-5.509 2.396-5.677l6.262-.37c1.129-.067 2.152-.685 2.738-1.652l3.245-5.368c1.473-2.438 5.102-2.128 6.14.524z"/><path d="m348.902 50.953 4.401 4.469c.794.806 1.933 1.169 3.046.972l6.177-1.092c2.804-.496 4.96 2.439 3.648 4.966l-2.89 5.567c-.521 1.004-.515 2.199.016 3.198l2.948 5.537c1.338 2.514-.787 5.471-3.596 5.004l-6.188-1.028c-1.116-.185-2.251.19-3.036 1.004l-4.355 4.514c-1.977 2.049-5.446.942-5.87-1.874l-.934-6.203c-.168-1.118-.876-2.082-1.893-2.577l-5.639-2.747c-2.56-1.247-2.579-4.888-.032-6.162l5.611-2.805c1.012-.506 1.709-1.477 1.866-2.597l.87-6.212c.394-2.819 3.852-3.963 5.85-1.934z"/><path d="m140.182 55.586-4.401 4.469c-.794.806-1.933 1.169-3.046.972l-6.177-1.092c-2.804-.496-4.96 2.439-3.648 4.966l2.89 5.567c.521 1.004.515 2.199-.017 3.198l-2.948 5.537c-1.338 2.514.787 5.471 3.596 5.004l6.188-1.028c1.116-.186 2.251.19 3.036 1.004l4.355 4.514c1.977 2.049 5.446.942 5.87-1.874l.934-6.203c.168-1.118.876-2.082 1.893-2.577l5.639-2.747c2.56-1.247 2.579-4.888.032-6.162l-5.611-2.805c-1.011-.506-1.709-1.477-1.866-2.597l-.87-6.212c-.394-2.82-3.851-3.963-5.849-1.934z"/><path d="m332.363 147.051 3.198 5.396c.577.973 1.595 1.6 2.723 1.676l6.258.425c2.841.193 4.228 3.56 2.347 5.698l-4.144 4.709c-.747.849-1.029 2.011-.753 3.108l1.53 6.083c.695 2.762-2.079 5.121-4.694 3.992l-5.759-2.486c-1.038-.448-2.23-.357-3.188.244l-5.313 3.335c-2.412 1.514-5.513-.395-5.247-3.23l.585-6.245c.105-1.126-.35-2.232-1.218-2.957l-4.813-4.022c-2.185-1.826-1.328-5.365 1.451-5.989l6.12-1.374c1.103-.248 2.014-1.022 2.436-2.072l2.338-5.821c1.061-2.642 4.691-2.92 6.143-.47z"/></g></svg>