<svg id="Capa_1" enable-background="new 0 0 512 512" height="512" viewBox="0 0 512 512" width="512" xmlns="http://www.w3.org/2000/svg"><circle cx="256" cy="256" fill="#65b2fe" r="256"/><path d="m512 256c0 87.11-43.52 164.07-110 210.31-41.41 28.8-91.73 45.69-146 45.69s-104.59-16.89-146-45.69c-66.48-46.24-110-123.2-110-210.31 0-46.22 12.25-89.57 33.68-127 44.12 77.07 127.16 129 222.32 129s178.21-51.93 222.32-129c21.43 37.43 33.68 80.78 33.68 127z" fill="#0e9ce7"/><path d="m452 316c0 105.34-83.12 191.28-187.34 195.81-.31.02-.62.03-.93.04-.87.03-1.74.06-2.6.08-1.73.05-3.44.07-5.13.07-108.24 0-196-87.76-196-196s87.76-196 196-196h.28c108.11.15 195.72 87.85 195.72 196z" fill="#ffe853"/><path d="m452 316c0 105.34-83.12 191.28-187.34 195.81-.31.02-.62.03-.93.04-.87.03-1.74.06-2.6.08-1.73.05-3.44.07-5.13.07-58.54-45.3-103.35-116.25-103.35-196s44.81-150.7 103.35-196h.28c108.11.15 195.72 87.85 195.72 196z" fill="#fed110"/><path d="m452 316c0 108.244-87.756 196-196 196v-392c108.244 0 196 87.756 196 196z" fill="#ff9f01"/><circle cx="187.667" cy="266.264" fill="#fff" r="46.095"/><circle cx="187.667" cy="266.264" fill="#29334c" r="25.616"/><circle cx="324.333" cy="266.264" fill="#fff" r="46.095"/><circle cx="324.333" cy="266.264" fill="#29334c" r="25.616"/><path d="m368.85 359.73c-1.15 6.07-2.775 11.971-4.837 17.661-4.693 12.953-20.426 17.627-31.606 9.576-18.048-12.997-45.571-21.297-76.407-21.297s-58.36 8.3-76.406 21.297c-11.18 8.051-26.913 3.378-31.606-9.576-2.062-5.691-3.687-11.591-4.837-17.661-2.12-11.14 6.42-21.47 17.76-21.47h10.42l15.45 15.45h139.95l13.94-15.45h10.42c11.339 0 19.879 10.33 17.759 21.47z" fill="#313b5a"/><path d="m368.85 359.73c-1.15 6.07-2.775 11.971-4.837 17.661-4.693 12.953-20.426 17.627-31.606 9.576-18.048-12.997-45.571-21.297-76.407-21.297v-11.96h70.73l13.94-15.45h10.42c11.34 0 19.88 10.33 17.76 21.47z" fill="#29334c"/><path d="m340.67 338.26v2.4c0 18.76-15.22 33.98-33.98 33.98h-101.38c-18.76 0-33.98-15.22-33.98-33.98v-2.4z" fill="#fff"/><path d="m340.67 338.26v2.4c0 18.76-15.22 33.98-33.98 33.98h-50.69v-36.38z" fill="#d1f6ff"/><path d="m256 398.08v32.51c-25.08 0-45.41-7.28-45.41-16.25 0-8.98 20.33-16.26 45.41-16.26z" fill="#ed771b"/><path d="m301.41 414.34c0 8.97-20.33 16.25-45.41 16.25v-32.51c25.08 0 45.41 7.28 45.41 16.26z" fill="#c6601a"/></svg>