<svg id="Capa_1" enable-background="new 0 0 512 512" height="512" viewBox="0 0 512 512" width="512" xmlns="http://www.w3.org/2000/svg"><g><g><path d="m256 296.763c-141.387 0-244.868-126.291-225.262-162.495 43.302-79.962 127.939-134.268 225.262-134.268 96.014 0 179.681 52.855 223.493 131.057 20.704 36.955-82.106 165.706-223.493 165.706z" fill="#e27fad"/><path d="m512 256c0 26.051-3.891 51.191-11.129 74.871-5.031 16.469-11.672 32.231-19.75 47.109-8.25 15.2-147.391 31.294-225.121 31.294s-216.871-16.094-225.109-31.294c-3.289-6.031-6.332-12.21-9.121-18.531-14-31.629-21.77-66.629-21.77-103.449 0-46.219 12.25-89.57 33.68-127 44.121 77.07 127.16 129 222.32 129s178.211-51.93 222.32-129c21.43 37.43 33.68 80.781 33.68 127zm0 0" fill="#dc4180"/><path d="m481.262 377.699c-7.16 13.223-15.434 25.742-24.723 37.43-7.123 8.977-14.849 17.458-23.1 25.391-1.522 1.463-298.562 48.543-343.228 10.539-2.382-2.026-4.726-4.095-7.031-6.206-10-9.153-19.282-19.09-27.719-29.723-9.289-11.688-17.563-24.207-24.723-37.43h450.524zm0 0" fill="#9f165b"/></g><g><path d="m203.437 470.505h125.876c0 9.943 5.251 19.066 13.997 26.213 33.803-12.263 64.287-31.44 89.746-55.826v-283h-135.559z" fill="#f2d332"/><path d="m161.939 157.891h135.558v312.614h-135.558z" fill="#ffeb78"/><path d="m161.939 157.891h65.358v312.614h-65.358z" fill="#fff0bf"/><path d="m297.497 199.388-51.871 217.862 145.932-103.744v-114.118z" fill="#fff0be"/><path d="m203.437 199.388v176.364l94.06 41.498v-217.862z" fill="#fff"/><path d="m203.437 505.041h112.031c26.521-6.309 51.443-16.738 74.049-30.583 1.333-4.605 2.042-9.421 2.042-14.327v-146.625c-47.03 0-70.546 15.561-94.061 31.123z" fill="#cb2e81"/><path d="m203.437 375.752v129.289h94.061v-160.412c-23.516 15.562-47.031 31.123-94.061 31.123z" fill="#dc4180"/><path d="m246.725 370.268c-12.056 3.399-26.096 5.484-43.288 5.484v129.289h43.288z" fill="#ff69a8"/><path d="m297.497 449.756-55.33 31.123 50.627 28.478c22.076-3.178 43.246-9.158 63.125-17.594-3.717-6.219-5.859-13.488-5.859-21.259v-20.749h-52.563z" fill="#e79d25"/><path d="m256 512c14.131 0 27.989-1.163 41.497-3.366v-58.878h-208.816c44.871 38.783 103.354 62.244 167.319 62.244z" fill="#ffe17a"/><path d="m157.098 470.505c0 9.959 4.411 19.108 11.748 26.267 27.204 9.849 56.55 15.228 87.154 15.228 14.131 0 27.989-1.163 41.497-3.366v-58.878h-140.4v20.749z" fill="#f2d332"/><path d="m307.872 261.634h-10.375l-6.916 10.375 6.916 10.374h10.375z" fill="#16202d"/><path d="m287.123 261.634h10.374v20.749h-10.374z" fill="#2d3e53"/><path d="m328.621 261.634h20.749v20.749h-20.749z" fill="#16202d" transform="matrix(0 1 -1 0 611.004 -66.986)"/><path d="m245.626 261.634h20.749v20.749h-20.749z" fill="#2d3e53" transform="matrix(0 1 -1 0 528.009 16.009)"/></g></g></svg>