<svg height="512pt" viewBox="0 0 512 512" width="512pt" xmlns="http://www.w3.org/2000/svg"><path d="m512 256c0 141.386719-114.613281 256-256 256s-256-114.613281-256-256 114.613281-256 256-256 256 114.613281 256 256zm0 0" fill="#ffd400"/><path d="m511.246094 275.757812-186.75-186.75-109.757813 82.375-111.21875 215.34375 124.476563 123.742188c9.199218 1 18.539062 1.53125 28.003906 1.53125 134.738281 0 245.160156-104.089844 255.246094-236.242188zm0 0" fill="#fdba12"/><path d="m132.886719 360.882812-29.828125-18.3125 152.941406-249.105468 152.941406 249.105468-29.828125 18.3125-123.113281-200.523437zm0 0" fill="#ff5050"/><path d="m256 93.464844-.785156 1.277344v66.894531l.785156-1.277344 123.113281 200.523437 29.828125-18.3125zm0 0" fill="#ea3b3b"/><path d="m351.398438 155.398438c0 52.6875-42.710938 95.398437-95.398438 95.398437s-95.398438-42.710937-95.398438-95.398437 42.710938-95.398438 95.398438-95.398438 95.398438 42.710938 95.398438 95.398438zm0 0" fill="#277bd6"/><path d="m256 60c-.261719 0-.523438.007812-.785156.011719v190.773437c.261718.003906.523437.011719.785156.011719 52.6875 0 95.398438-42.710937 95.398438-95.398437s-42.710938-95.398438-95.398438-95.398438zm0 0" fill="#1471c6"/><path d="m291.886719 126.910156c0 19.820313-16.066407 35.886719-35.886719 35.886719s-35.886719-16.066406-35.886719-35.886719c0-19.820312 16.066407-35.886718 35.886719-35.886718s35.886719 16.066406 35.886719 35.886718zm0 0" fill="#a3d4ff"/><path d="m256 91.023438c-.261719 0-.523438.015624-.785156.019531v71.734375c.261718.007812.519531.023437.785156.023437 19.820312 0 35.886719-16.070312 35.886719-35.890625 0-19.820312-16.066407-35.886718-35.886719-35.886718zm0 0" fill="#87c7ff"/><path d="m256 232.796875c24.4375 0 46.179688-11.523437 60.101562-29.433594-10.890624-22.195312-33.707031-37.480469-60.101562-37.480469s-49.210938 15.285157-60.101562 37.480469c13.921874 17.910157 35.664062 29.433594 60.101562 29.433594zm0 0" fill="#a3d4ff"/><path d="m256 165.882812c-.261719 0-.523438.011719-.785156.015626v66.886718c.261718.003906.523437.011719.785156.011719 24.4375 0 46.179688-11.523437 60.101562-29.429687-10.890624-22.199219-33.707031-37.484376-60.101562-37.484376zm0 0" fill="#87c7ff"/><path d="m435 328.195312c0 42.996094-34.855469 77.851563-77.851562 77.851563-42.996094 0-77.851563-34.855469-77.851563-77.851563 0-42.996093 34.855469-77.851562 77.851563-77.851562 42.996093 0 77.851562 34.855469 77.851562 77.851562zm0 0" fill="#1471c6"/><path d="m386.433594 304.949219c0 16.175781-13.109375 29.285156-29.285156 29.285156-16.171876 0-29.285157-13.109375-29.285157-29.285156s13.113281-29.285157 29.285157-29.285157c16.175781 0 29.285156 13.109376 29.285156 29.285157zm0 0" fill="#87c7ff"/><path d="m357.148438 391.359375c19.941406 0 37.6875-9.40625 49.046874-24.019531-8.890624-18.113282-27.507812-30.585938-49.046874-30.585938-21.539063 0-40.15625 12.472656-49.042969 30.585938 11.359375 14.613281 29.101562 24.019531 49.042969 24.019531zm0 0" fill="#87c7ff"/><path d="m232.703125 328.195312c0 42.996094-34.855469 77.851563-77.851563 77.851563-42.996093 0-77.851562-34.855469-77.851562-77.851563 0-42.996093 34.855469-77.851562 77.851562-77.851562 42.996094 0 77.851563 34.855469 77.851563 77.851562zm0 0" fill="#277bd6"/><g fill="#a3d4ff"><path d="m184.136719 304.949219c0 16.175781-13.113281 29.285156-29.285157 29.285156-16.175781 0-29.285156-13.109375-29.285156-29.285156s13.109375-29.285157 29.285156-29.285157c16.171876 0 29.285157 13.109376 29.285157 29.285157zm0 0"/><path d="m154.851562 391.359375c19.941407 0 37.683594-9.40625 49.042969-24.019531-8.886719-18.113282-27.503906-30.585938-49.042969-30.585938-21.539062 0-40.160156 12.472656-49.046874 30.585938 11.359374 14.613281 29.101562 24.019531 49.046874 24.019531zm0 0"/></g></svg>