<svg id="Capa_1" enable-background="new 0 0 512 512" height="512" viewBox="0 0 512 512" width="512" xmlns="http://www.w3.org/2000/svg"><g><g><path d="m0 256c0 43.79 11 85.02 30.39 121.07l225.61 49.67 225.61-49.67c19.39-36.05 30.39-77.28 30.39-121.07 0-46.63-12.47-90.34-34.26-128-41.698 72.091-399.22 76.52-443.48 0-21.79 37.66-34.26 81.37-34.26 128z" fill="#9865d8"/><path d="m34.26 128c44.26 76.52 126.99 128 221.74 128s177.48-51.48 221.74-128c-.01-.02-.03-.05-.04-.07-44.27-76.48-126.98-127.93-221.7-127.93s-177.43 51.45-221.7 127.93c-.01.02-.03.05-.04.07z" fill="#b895e4"/><path d="m481.61 377.07c-4.14 7.69-8.66 15.15-13.54 22.35-4.688 6.928-38.161-.722-43.491 5.697-8.019 9.657 11.716 33.047 2.381 41.433-45.33 40.69-105.25 65.45-170.96 65.45s-125.63-24.76-170.96-65.45c-5.945-5.341 6.633-29.226 1.21-35.093-8.753-9.468-35.071-1.325-42.32-12.037-4.88-7.2-9.4-14.66-13.54-22.35z" fill="#5541b5"/></g><g><path d="m468.07 158.51v240.91c-11.74 17.35-25.57 33.17-41.11 47.13h-341.92c-15.54-13.96-29.37-29.78-41.11-47.13v-240.91z" fill="#a8ea58"/><path d="m468.07 158.51v240.91c-11.74 17.35-25.57 33.17-41.11 47.13h-170.96v-288.04z" fill="#78cd8a"/><path d="m64.366 420.846h383.268v-43.568l-191.634-42.838-191.634 42.838z" fill="#c8cde3"/><path d="m64.366 121.621h31.854l30.075 9.241 30.075-9.241h56.062c24.062 0 43.568 19.506 43.568 43.568l25.115 133.065-25.115 122.592c0-24.062-19.506-43.568-43.568-43.568h-148.066z" fill="#e7eaf5"/><path d="m447.636 121.62v255.658h-148.07c-12.036 0-22.921 4.881-30.804 12.763-7.883 7.883-12.764 18.768-12.764 30.804v-255.657c0-24.063 19.504-43.567 43.567-43.567h148.071z" fill="#d9dced"/><path d="m306.233 121.62v255.658l-50.235 43.567v-255.657c0-24.063 19.504-43.567 43.567-43.567h6.668z" fill="#c8cde3"/><g fill="#616679"><path d="m145.813 108.915h21.108v120.297h-21.108z" transform="matrix(0 1 -1 0 325.43 12.697)"/><path d="m145.813 192.717h21.108v120.297h-21.108z" transform="matrix(0 1 -1 0 409.233 96.499)"/><path d="m145.813 150.816h21.108v120.297h-21.108z" transform="matrix(0 1 -1 0 367.332 54.598)"/></g><g fill="#616679"><path d="m351.223 282.312h21.108v120.297h-21.108z" transform="matrix(0 1 -1 0 704.238 -19.316)"/><path d="m351.223 240.411h21.108v120.297h-21.108z" transform="matrix(0 1 -1 0 662.336 -61.218)"/></g><path d="m420.327 258.412h-121.767l63.571-108.12zm-89.573-18.418h58.743l-28.075-52.159z" fill="#78cd8a"/><g><circle cx="314.657" cy="249.203" fill="#e28787" r="22.03"/><path d="m336.687 249.203c0 12.168-9.862 22.03-22.03 22.03v-44.059c12.168-.001 22.03 9.861 22.03 22.029z" fill="#da504f"/></g><g><circle cx="404.912" cy="249.203" fill="#e28787" r="22.03"/><path d="m426.942 249.203c0 12.168-9.862 22.03-22.03 22.03v-44.059c12.168-.001 22.03 9.861 22.03 22.029z" fill="#da504f"/></g><g><circle cx="359.785" cy="169.064" fill="#e28787" r="22.03"/><path d="m381.814 169.064c0 12.168-9.862 22.03-22.03 22.03v-44.059c12.169-.001 22.03 9.861 22.03 22.029z" fill="#da504f"/></g><g><g><path d="m179.4 355.625h-13.813v-43.557h-9.31v-13.814h23.123z" fill="#c8cde3"/></g><g><path d="m147.183 355.625h-13.814v-43.557h-9.309v-13.814h23.123z" fill="#c8cde3"/></g></g></g><path d="m156.37 121.62v92.29l-30.08-21.14-30.07 21.14v-92.29z" fill="#e28787"/><path d="m156.37 121.62v92.29l-30.08-21.14v-71.15z" fill="#da504f"/></g></svg>