<svg id="Capa_1" enable-background="new 0 0 512 512" height="512" viewBox="0 0 512 512" width="512" xmlns="http://www.w3.org/2000/svg"><g><g><path d="m256 300.686c-141.387 0-244.256-132.461-223.648-169.351 43.768-78.355 127.52-131.335 223.648-131.335 96.099 0 179.828 52.948 223.608 131.263 20.633 36.907-82.221 169.423-223.608 169.423z" fill="#576ceb"/><path d="m512 256c0 26.051-3.891 51.191-11.129 74.871-5.031 16.469-11.672 32.231-19.75 47.109-8.25 15.2-147.391 39.9-225.121 39.9s-216.871-24.7-225.109-39.9c-3.289-6.031-6.332-12.21-9.121-18.531-14-31.629-21.77-66.629-21.77-103.449 0-46.219 12.25-89.57 33.68-127 44.121 77.07 127.16 129 222.32 129s178.211-51.93 222.32-129c21.43 37.43 33.68 80.781 33.68 127zm0 0" fill="#6c3beb"/><path d="m481.262 377.699c-7.16 13.223-15.434 25.742-24.723 37.43-8.437 10.633-17.719 20.57-27.719 29.723-1.488 1.363-2.993 2.708-4.513 4.036-44.998 39.299-290.747 39.649-335.615.867-1.861-1.608-3.698-3.243-5.511-4.903-10-9.153-19.282-19.09-27.719-29.723-9.289-11.688-17.563-24.207-24.723-37.43zm0 0" fill="#4d34b0"/></g><g><path d="m132.571 320.501 123.427 191.499h.002c64.44 0 123.311-23.816 168.311-63.115v-319.885h-168.311z" fill="#ff4f42"/><path d="m87.688 448.884c45 39.3 103.872 63.116 168.312 63.116v-383h-168.312z" fill="#ff7040"/><path d="m87.688 448.884c25.864 22.587 56.313 40.048 89.766 50.822v-370.706h-89.766z" fill="#ff8861"/><path d="m132.571 173.883v293.236l123.429-22.441v-248.353z" fill="#ffb03b"/><path d="m256 196.325v248.353l123.428 22.441v-293.236z" fill="#ff903d"/><path d="m256 467.119h123.428l-123.428-123.428-44.884 61.714z" fill="#ff7040"/><path d="m132.571 467.119h123.429v-123.428z" fill="#ff903d"/><path d="m256 173.883h123.428l-123.428 123.428-44.884-61.714z" fill="#ffb03b"/><path d="m132.571 173.883h123.429v123.428z" fill="#ffc46c"/><path d="m334.545 218.766h-78.545l-44.884 101.735 44.884 101.735h78.545z" fill="#ffc46c"/><path d="m177.454 218.766h78.545v203.47h-78.545z" fill="#ffebce"/></g></g></svg>