<svg id="Layer_1" enable-background="new 0 0 512 512" height="512" viewBox="0 0 512 512" width="512" xmlns="http://www.w3.org/2000/svg"><g><path d="m256 21.995c-135.311 0-245.002 109.691-245.002 245.002 0 52.369 16.441 100.893 44.428 140.713l286.819 88.661c92.755-34.893 158.757-124.419 158.757-229.373 0-135.311-109.691-245.003-245.002-245.003z" fill="#73c3f9"/><path d="m231.432 113.764c0-9.306 1.146-18.348 3.29-27.001h-136.783c-3.034 0-5.995.316-8.855.911-12.847 11.963-24.404 25.288-34.447 39.748-.057.906-.096 1.818-.096 2.738v276.275c10.451 15.071 22.551 28.912 36.035 41.265l216.579 58.936c12.562-2.672 24.769-6.302 36.54-10.816v-269.794c-61.902 0-112.263-50.36-112.263-112.262z" fill="#167cc1"/><path d="m90.587 447.703 71.495 19.456-2.03-322.87c-.003-.492-.184-.964-.49-1.35-5.346-6.752-2.011-11.404.082-13.366.685-.642.845-1.673.417-2.508-2.463-4.796.815-7.829 2.195-8.834.379-.276.648-.676.779-1.126l3.773-13.061c.203-.703.04-1.471-.45-2.014-6.459-7.16-1.993-12.277.494-14.304.318-.259.538-.596.664-.963h-69.577c-23.929 0-43.397 19.468-43.397 43.397v276.277c10.451 15.074 22.558 28.912 36.045 41.266z" fill="#024788"/><path d="m81.542 195.887v243.108c44.43 45.062 106.177 73.005 174.458 73.005 20.951 0 41.285-2.636 60.695-7.583v-281.681c-18.787-4.656-35.72-14.055-49.454-26.849z" fill="#e9efff"/><path d="m81.542 438.996c22.271 22.587 48.888 40.875 78.506 53.494v-296.603h-78.506z" fill="#d3dcfb"/><g><path d="m167.149 117.862h-4.333c-4.142 0-7.5-3.357-7.5-7.5s3.358-7.5 7.5-7.5h4.333c4.142 0 7.5 3.357 7.5 7.5s-3.358 7.5-7.5 7.5z" fill="#1e92d3"/></g><g><path d="m234.384 117.862h-41.638c-4.142 0-7.5-3.357-7.5-7.5s3.358-7.5 7.5-7.5h41.638c4.142 0 7.5 3.357 7.5 7.5s-3.358 7.5-7.5 7.5z" fill="#1e92d3"/></g><path d="m233.653 136.029h-83.035c-6.6 0-12-5.4-12-12 0-5.67-4.596-10.266-10.266-10.266h-30.413c-9.056 0-16.397 7.341-16.397 16.397v68.385h188.644c-18.379-15.956-31.535-37.775-36.533-62.516z" fill="#9bd8f9"/><path d="m150.618 136.029c-6.6 0-12-5.4-12-12 0-5.67-4.596-10.266-10.265-10.266h-30.414c-9.056 0-16.397 7.341-16.397 16.397v68.385h78.505v-62.517h-9.429z" fill="#73c3f9"/><g fill="#1e92d3"><path d="m316.695 210.236c-4.142 0-7.5 3.357-7.5 7.5v288.455c5.06-1.12 10.063-2.392 15-3.819v-284.636c0-4.142-3.358-7.5-7.5-7.5z"/><path d="m89.042 446.282v-316.122c0-4.906 3.991-8.897 8.897-8.897h30.414c1.525 0 2.766 1.24 2.766 2.765 0 10.752 8.747 19.5 19.5 19.5h88.035c4.142 0 7.5-3.357 7.5-7.5 0-4.142-3.358-7.5-7.5-7.5h-88.035c-2.439 0-4.5-2.06-4.5-4.5 0-9.796-7.97-17.765-17.766-17.765h-30.414c-13.177 0-23.897 10.721-23.897 23.897v300.892c4.776 5.293 9.784 10.371 15 15.23z"/></g><path d="m159.644 129.573c.306-.286.489-.655.58-1.044h-9.606c-2.439 0-4.5-2.06-4.5-4.5 0-9.796-7.97-17.765-17.766-17.765h-30.413c-13.177 0-23.897 10.721-23.897 23.897v300.892c4.776 5.293 9.784 10.371 15 15.23v-316.123c0-4.906 3.991-8.897 8.897-8.897h30.414c1.525 0 2.766 1.24 2.766 2.765 0 10.752 8.747 19.5 19.5 19.5h9.281c-.083-.21-.195-.41-.337-.59-5.347-6.751-2.011-11.404.081-13.365z" fill="#167cc1"/><path d="m241.934 157.106h-81.585v26.286h94.292c.568 0 1.124-.048 1.674-.118-5.892-7.984-10.75-16.772-14.381-26.168z" fill="#e9efff"/><path d="m161.349 157.106h-14.752c-7.259 0-13.143 5.884-13.143 13.143s5.884 13.143 13.143 13.143h14.752z" fill="#3c58a0"/><g><path d="m116.535 141.832h-10.334c-4.142 0-7.5-3.357-7.5-7.5s3.358-7.5 7.5-7.5h10.334c4.142 0 7.5 3.357 7.5 7.5s-3.358 7.5-7.5 7.5z" fill="#e9efff"/></g><path d="m417.111 26.868-15.735-4.608-11.234-12.373c-14.183-6.351-29.901-9.887-46.447-9.887-62.83 0-113.763 50.933-113.763 113.763s50.933 113.763 113.763 113.763 113.763-50.933 113.763-113.763c0-34.846-15.672-66.027-40.347-86.895z" fill="#ffe98d"/><path d="m371.858 145.757-56.907-50.124c-57.147 0-48.481-65.396-48.481-65.396-22.466 20.781-36.537 50.508-36.537 83.526 0 62.83 50.933 113.763 113.763 113.763 33.03 0 62.767-14.082 83.55-36.563-53.472 4.238-55.388-45.206-55.388-45.206z" fill="#ffdd40"/><path d="m279.821 344.5h-161.405c-5.445 0-9.899-4.455-9.899-9.899v-87.32c0-5.445 4.455-9.899 9.899-9.899h161.405c5.445 0 9.899 4.455 9.899 9.899v87.32c0 5.445-4.454 9.899-9.899 9.899z" fill="#ff4155"/><path d="m108.517 247.281v87.32c0 5.445 4.455 9.899 9.899 9.899h103.706c-.316-.525-.778-.97-1.374-1.255-8.068-3.848-7.854-10.046-6.848-13.692.443-1.607-.374-3.315-1.94-3.886-14.32-5.216-11.761-18.034-10.633-21.86.218-.739.172-1.527-.14-2.232l-10.99-24.823c-.479-1.081-1.51-1.839-2.69-1.908-9.687-.567-11.434-8.464-11.672-12.684-.084-1.484-1.191-2.714-2.656-2.964-16.049-2.743-14.719-15.34-13.63-20.039.139-.601.094-1.214-.103-1.775h-41.029c-5.446 0-9.9 4.454-9.9 9.899z" fill="#e80054"/><g><path d="m138.23 382.003h-5c-4.142 0-7.5-3.357-7.5-7.5 0-4.142 3.358-7.5 7.5-7.5h5c4.142 0 7.5 3.358 7.5 7.5 0 4.143-3.357 7.5-7.5 7.5z" fill="#ff4155"/></g><g><path d="m113.517 382.003h-5c-4.142 0-7.5-3.357-7.5-7.5 0-4.142 3.358-7.5 7.5-7.5h5c4.142 0 7.5 3.358 7.5 7.5 0 4.143-3.358 7.5-7.5 7.5z" fill="#ff4155"/></g><g><path d="m289.721 382.003h-94.074c-4.142 0-7.5-3.357-7.5-7.5 0-4.142 3.358-7.5 7.5-7.5h94.074c4.142 0 7.5 3.358 7.5 7.5 0 4.143-3.358 7.5-7.5 7.5z" fill="#bec8f7"/></g><g><path d="m195.647 382.003h-37.083c-4.142 0-7.5-3.357-7.5-7.5 0-4.142 3.358-7.5 7.5-7.5h37.083c4.142 0 7.5 3.358 7.5 7.5 0 4.143-3.358 7.5-7.5 7.5z" fill="#ff4155"/></g><g><path d="m195.648 389.882c-4.142 0-7.5-3.357-7.5-7.5v-15.5c0-4.143 3.358-7.5 7.5-7.5s7.5 3.357 7.5 7.5v15.5c0 4.143-3.358 7.5-7.5 7.5z" fill="#e80054"/></g><ellipse cx="199.118" cy="290.941" fill="#e9efff" rx="39.071" ry="39.071" transform="matrix(.16 -.987 .987 .16 -119.961 440.885)"/><path d="m211.959 325.668c-14.32-5.216-11.761-18.034-10.633-21.86.218-.739.172-1.527-.14-2.232l-10.99-24.823c-.479-1.081-1.51-1.839-2.69-1.908-9.687-.567-11.434-8.464-11.672-12.684-.042-.747-.345-1.43-.821-1.955-9.108 7.153-14.965 18.257-14.965 30.736 0 21.578 17.493 39.071 39.071 39.071 5.145 0 10.053-1.004 14.551-2.811-.347-.69-.936-1.252-1.711-1.534z" fill="#bec8f7"/><path d="m299.534 141.363c10.593 24.08-6.693 38.62-7.466 39.911-1.321 1.725-.299 4.298 1.861 4.539 61.584 6.854 77.613-32.485 81.785-53.455 1.075-5.402-.5-10.869-4.012-14.86-1.751-.249-3.479-.845-5.082-1.813l-31.87-19.242c-1.723-1.04-3.12-2.414-4.186-3.983-5.326-1.496-11.16-.412-15.613 3.173-10.729 8.636-24.647 24.749-15.417 45.73z" fill="#ffc839"/><path d="m334.75 96.444c-1.723-1.04-3.12-2.414-4.186-3.983-5.326-1.497-11.16-.412-15.613 3.173-10.728 8.635-24.647 24.748-15.417 45.729 10.592 24.08-6.694 38.62-7.466 39.911-1.321 1.725-.299 4.298 1.861 4.539 1.747.194 3.453.347 5.127.468-1.349-4.711 1.171-9.828 6.042-12.895 9-5.667 17.667-19.333 23.083-42.771 5.418-23.438 27.327-21.639 27.327-21.639z" fill="#ffb332"/><path d="m390.142 9.887-26.732 44.278c1.821-.701 3.91-.581 5.664.478l18.552 11.201c1.754 1.059 2.833 2.851 3.061 4.789l26.424-43.766c-8.099-6.849-17.164-12.589-26.969-16.98z" fill="#a05838"/><g><path d="m379.845 26.943-16.435 27.222c1.821-.701 3.91-.581 5.664.478l18.552 11.201c1.754 1.059 2.833 2.851 3.062 4.789l15.978-26.465c-12.537 7.615-28.517-2.475-26.821-17.225z" fill="#823c26"/></g><path d="m347.852 74.742 31.871 19.242c1.441.87 2.65 1.978 3.635 3.233l8.068-25.494c.902-2.85-.266-5.948-2.825-7.493l-18.552-11.201c-2.559-1.545-5.844-1.136-7.946.99l-18.804 19.013c1.568.286 3.112.839 4.553 1.71z" fill="#d3dcfb"/><path d="m347.852 74.742 31.871 19.242c1.441.87 2.65 1.978 3.635 3.233l8.068-25.494c.902-2.85-.266-5.948-2.825-7.493l-18.552-11.201c-2.559-1.545-5.844-1.136-7.946.99l-18.804 19.013c1.568.286 3.112.839 4.553 1.71z" fill="#d3dcfb"/><path d="m383.358 97.217 4.379-13.837c-3.666-2.196-8.763-5.279-14.306-8.723-7.714-4.792 1.047-11.851 6.734-15.52l-10.117-6.108c-2.56-1.545-5.844-1.136-7.946.99l-18.804 19.013c1.569.287 3.113.841 4.554 1.711l31.871 19.242c1.441.869 2.65 1.977 3.635 3.232z" fill="#bec8f7"/><path d="m334.75 96.444 31.871 19.242c6.412 3.871 14.826 1.792 18.697-4.62 3.871-6.412 1.793-14.826-4.619-18.697l-31.871-19.242c-6.412-3.871-14.826-1.792-18.697 4.62-3.872 6.412-1.793 14.826 4.619 18.697z" fill="#e9efff"/><path d="m354.99 92.905c3.213-5.323 9.305-7.887 15.11-6.935l-21.272-12.843c-6.412-3.871-14.826-1.792-18.697 4.62-3.872 6.412-1.793 14.826 4.619 18.697l20.759 12.533c-3.201-4.651-3.614-10.946-.519-16.072z" fill="#d3dcfb"/><path d="m213.804 286.915-19.081-12.199c-3.18-2.033-7.352.251-7.352 4.026v24.398c0 3.775 4.172 6.059 7.352 4.026l19.081-12.199c2.939-1.879 2.939-6.173 0-8.052z" fill="#ff4155"/><g><path d="m180.747 414.763h-72.23c-4.142 0-7.5-3.357-7.5-7.5s3.358-7.5 7.5-7.5h72.23c4.142 0 7.5 3.357 7.5 7.5 0 4.142-3.358 7.5-7.5 7.5z" fill="#bec8f7"/></g><g><path d="m289.721 444.145h-181.204c-4.142 0-7.5-3.358-7.5-7.5 0-4.143 3.358-7.5 7.5-7.5h181.204c4.142 0 7.5 3.357 7.5 7.5 0 4.142-3.358 7.5-7.5 7.5z" fill="#bec8f7"/></g><path d="m289.721 456.922h-181.204c-1.9 0-3.63.712-4.952 1.877 5.833 4.642 11.884 9.02 18.133 13.123h168.023c4.142 0 7.5-3.357 7.5-7.5s-3.358-7.5-7.5-7.5z" fill="#bec8f7"/><path d="m289.721 484.7h-146.2c11.395 5.899 23.313 10.925 35.665 15h110.534c4.142 0 7.5-3.357 7.5-7.5.001-4.142-3.357-7.5-7.499-7.5z" fill="#bec8f7"/><path d="m299.809 113.763s-1.432 21.496 19.568 16.496 7.305 22.667 24.319 22.667 19.181 5.667 17.781 11.05c-1.749 6.726-23.128 22.283-37.281 24.95s-44.577 4.046-45.819-9.333c-.868-9.344 14.667-13.323 14.667-27.495s-1.438-30.133 6.765-38.335z" fill="#ff4155"/><path d="m319.376 130.259c-21 5-19.568-16.496-19.568-16.496-8.202 8.202-6.766 24.163-6.766 38.335s-15.534 18.151-14.667 27.495c.731 7.87 11.56 10.63 23.233 11.029-5.291-5.544-2.951-13.181 3.488-17.235 8.999-5.666 17.664-19.329 23.081-42.761-1.94-1.063-4.704-1.342-8.801-.367z" fill="#e80054"/><path d="m501.002 266.998c0-12.24-.91-24.266-2.643-36.025-17.465-6.726-45.588-13.803-61.364 1.973-24.035 24.035-49.712 25.916-49.712 82.653s0 118.337 0 118.337-.832 19.042 9.249 33.748c63.168-44.31 104.47-117.667 104.47-200.686z" fill="#9bd8f9"/></g></svg>