<svg id="Layer_1" enable-background="new 0 0 511.5 511.5" height="512" viewBox="0 0 511.5 511.5" width="512" xmlns="http://www.w3.org/2000/svg"><g><g><path d="m511.5 255.75c0 23.781-3.246 46.804-9.319 68.65-29.996 107.908-129.309 151.188-246.775 151.188-141.247 0-237.243-79.341-237.243-220.588 0-95.812 34.524-178.569 112.506-222.378 36.979-20.774 79.646-32.622 125.081-32.622 141.247 0 255.75 114.503 255.75 255.75z" fill="#f8e000"/></g><path d="m483.706 299.945c-10.96 0-16.272-13.334-8.369-20.928 7.262-6.979 12.701-15.516 15.648-25.344 4.064-13.555 2.804-27.664-2.683-40.778-.025-.061-.051-.121-.076-.182-4.682-11.31-15.509-18.852-27.749-18.852h-6.552c-.136-.122-.267-.247-.404-.369-35.51 0-66.255 0-101.531 0-.102.121-.195.247-.296.369h-14.1-.001c-5.872 0-11.049 3.848-12.742 9.47l-.109.362c-.013.042-.025.083-.038.125-5.924 19.758-.833 39.632 11.26 56.148 12.068 16.482.419 39.664-20.009 39.571-.786-.004-1.574-.007-2.362-.011-20.99-.096-33.665-23.143-22.617-40.991 4.751-7.675 8.551-16.035 11.154-24.72 13.767-45.917-4.984-92.109-41.882-103.172-13.555-4.064-27.664-2.804-40.778 2.683-.111.046-.222.093-.334.138-8.842 3.629-18.552-2.872-18.66-12.429l-.002-.196c.06-17.399 7.508-37.098 15.314-50.315 1.842-3.119 1.159-7.241-1.755-9.392-3.574-2.638-8.596-1.363-10.505 2.564-.453.931-.912 1.903-1.373 2.907-2.093 4.562-8.366 4.969-11.144.788-1.155-1.738-2.473-3.376-3.976-4.879-10.709-10.709-28.252-12.064-40.059-11.543-4.991.22-8.542-4.808-6.682-9.445.04-.099.079-.198.119-.296 2.423-6.017-4.082-11.77-9.738-8.593-76.987 43.251-129.328 125.182-130.649 219.459-1.984 141.576 112.476 258.501 254.063 259.4 88.435.562 166.536-43.775 212.886-111.547h.011c6.548-9.577 12.834-20.274 18.109-30.936-.007.003-.014.006-.02.009 7.02-14.183 12.77-29.107 17.09-44.626 3.418-12.276-5.715-24.449-18.459-24.449zm-305.834-166.618c-12.25-5.126-24.59-6.244-35.968-3.894-10.335 2.134-19.862-6.178-18.876-16.685 1.697-18.087 5.278-35.523 10.49-52.196-3.251 37.906 12.96 56.642 48.243 55.885 4.567-.098 8.399 3.325 8.94 7.861.008.071.017.143.026.214.807 6.588-5.847 11.614-12.013 9.159-.281-.112-.562-.226-.842-.344z" fill="#ffc305"/><g><g><path d="m203.051 71.505c-.362.509-.858 1.277-1.284 1.946l-1.31 2.12c-.864 1.432-1.697 2.897-2.513 4.372-1.626 2.956-3.14 5.986-4.543 9.06-2.804 6.152-5.122 12.512-6.806 18.993-.821 3.243-1.481 6.513-1.954 9.8-.431 3.287-.664 6.582-.675 9.87.033 3.282.328 6.541.867 9.756.592 3.202 1.495 6.327 2.643 9.373l-7.836 3.461c-1.62-3.484-2.952-7.109-3.918-10.83-.912-3.727-1.528-7.517-1.838-11.32-.266-3.8-.269-7.602-.045-11.377.265-3.767.744-7.503 1.402-11.196 1.358-7.374 3.416-14.56 6.002-21.524 1.297-3.482 2.714-6.915 4.269-10.297.782-1.69 1.584-3.372 2.435-5.043l1.311-2.507c.468-.862.876-1.619 1.465-2.606z" fill="#783c28"/><path d="m243.741 137.471c-13.555-4.064-27.664-2.804-40.778 2.683-13.225 5.534-28.374 5.534-41.599 0-13.114-5.487-27.223-6.747-40.778-2.683-36.898 11.063-40.627 56.421-26.86 102.338s39.861 67.476 76.759 56.414c.042-.012-.042.013 0 0 7.611-2.304 18.722-.266 26.333 2.038.042.013-.042-.012 0 0 13 3.898 23.586 8.406 36.245 3.49 23.272-9.038 43.643-31.368 52.56-61.108 13.767-45.918-4.984-92.109-41.882-103.172z" fill="#ff5551"/><path d="m226.156 280.278-.125.038c-36.898 11.063-77.97-17.192-91.737-63.109-6.73-22.448-5.682-44.955 1.456-63.393 3.685-9.52-5.123-19.304-14.915-16.416-.083.025-.166.049-.249.074-36.898 11.063-55.649 57.254-41.882 103.172 13.767 45.917 54.839 74.172 91.737 63.109l.127-.038c7.563-2.278 15.63-2.278 23.193.001l.125.038c13 3.898 26.515 2.909 39.172-2.012 12.895-5.014 7.255-24.715-6.234-21.636-.235.05-.457.109-.668.172z" fill="#e20a62"/><path d="m238.169 156.055c-19.213-5.761-39.853 2.253-54.609 18.879v101.531c4.638 3.896 9.942 6.916 15.898 8.702 28.65 8.59 60.541-13.349 71.231-49.002 10.689-35.654-3.87-71.52-32.52-80.11z" fill="#fff"/><path d="m183.559 256.223c.215.006.397.037.62.037 0 0 31.081-7.75 37.819-30.612 4.779-16.216-7.431-30.611-22.625-30.611-5.892 0-11.339 2.079-15.815 5.588v55.598z" fill="#faf58c"/><path d="m203.692 225.864c-1.521 3.672-7.601 9.93-11.273 8.409s-3.545-10.246-2.024-13.917c1.521-3.672 5.731-5.415 9.403-3.894s5.415 5.73 3.894 9.402z" fill="#783c28"/><path d="m170.529 69.34c17.294 17.294 10.189 52.436 10.189 52.436s-28.263-1.856-45.556-19.15-17.069-43.476-17.069-43.476 35.142-7.103 52.436 10.19z" fill="#20b7a1"/><path d="m157.733 101.332c-5.976-5.976-9.038-14.08-10.486-22.129-2.445-13.587-15.434-22.662-28.996-20.082-.104.02-.158.031-.158.031s-7.104 35.143 10.189 52.436 52.436 10.189 52.436 10.189.011-.052.03-.154c.945-4.993-2.128-9.799-7-11.244-5.919-1.756-11.559-4.592-16.015-9.047z" fill="#269ab1"/></g><path d="m504.252 306.771h-372.512c-17.903 0-33.599 9.415-42.432 23.558 0 0 .001.014.003.042 2.2 34.091 30.499 60.613 64.661 60.613h350.281v-3.952l-29.983-30.26 29.983-30.037v-19.964z" fill="#2d56a1"/><path d="m159.626 387.033c-27.615 0-50.002-22.386-50.002-50.002 0-.106 0-.212.001-.317.07-11.197-14.543-15.728-20.437-6.207-4.724 7.632-7.451 16.629-7.451 26.266 0 27.615 22.386 50.002 50.002 50.002h372.512v-19.742z" fill="#1a396b"/><path d="m504.252 374.682v-47.946h-344.927c-3.092 0-6.075.468-8.882 1.336v46.61z" fill="#6ee1ff"/><path d="m182.557 370.199c-16.589 0-30.037-13.448-30.037-30.037 0-4.73 1.097-9.203 3.044-13.183-14.813 1.851-26.277 14.48-26.277 29.794 0 16.589 13.448 30.037 30.037 30.037h344.927v-16.611z" fill="#05cdff"/><g><path d="m471.793 219.721c-.025-.061-.051-.121-.076-.182-4.682-11.31-15.509-18.852-27.749-18.852h-78.871v99.605c2.035.746 4.096 1.456 6.208 2.089 45.917 13.767 92.109-4.984 103.172-41.882 4.063-13.555 2.803-27.664-2.684-40.778z" fill="#ff5551"/><path d="m342.461 210.644c.012-.042.025-.083.038-.125l.109-.362c1.694-5.622 6.872-9.47 12.744-9.47h-34.267c-5.872 0-11.049 3.848-12.742 9.47l-.109.362c-.013.042-.025.083-.038.125-11.379 37.951 18.01 76.098 58.854 90.39 8.61 3.013 14.663-8.678 7.269-14.019-25.946-18.742-40.341-48.076-31.858-76.371z" fill="#e20a62"/><path d="m455.892 254.927c5.761-19.213-2.253-39.853-18.879-54.609h-101.532c-3.896 4.638-6.916 9.942-8.702 15.898-8.59 28.65 13.349 60.541 49.002 71.231 35.654 10.689 71.521-3.87 80.111-32.52z" fill="#fff"/><path d="m355.724 200.318c-.006.215-.037.397-.037.62 0 0 7.75 31.081 30.612 37.819 16.216 4.779 30.611-7.431 30.611-22.625 0-5.892-2.079-11.339-5.588-15.815h-55.598z" fill="#faf58c"/><path d="m386.083 220.45c-3.672-1.521-9.93-7.601-8.409-11.273s10.246-3.545 13.917-2.024c3.672 1.521 5.415 5.731 3.894 9.403-1.52 3.672-5.73 5.415-9.402 3.894z" fill="#783c28"/></g><path d="m250.634 424.96-23.196-13.921-23.196 13.921v-68.187h46.392z" fill="#ff8500"/></g></g></svg>