<svg id="Capa_1" enable-background="new 0 0 512 512" height="512" viewBox="0 0 512 512" width="512" xmlns="http://www.w3.org/2000/svg"><path d="m511.99 253.758c.361 42.19-9.486 82.048-27.22 117.252l-.02.03-2.457 3.397c-29.99 41.457-66.399 77.866-107.856 107.856l-3.397 2.457-.03.02c-35.203 17.734-75.059 27.581-117.247 27.22-140.919-1.203-253.763-115.066-253.763-255.99 0-141.38 114.62-256 256-256 140.923 0 254.784 112.84 255.99 253.758z" fill="#fd4fb9"/><path d="m512 256c0 41.36-9.81 80.43-27.23 115.01l-.01.01-47.73 65.99-.01.01-.01.01-66 47.74c-34.58 17.42-73.65 27.23-115.01 27.23-54.27 0-104.59-16.89-146-45.69-66.48-46.24-110-123.2-110-210.31 0-46.22 12.25-89.57 33.68-127 8.12 14.19 17.56 27.52 28.17 39.84 46.93 54.59 116.51 89.16 194.15 89.16 18.65 0 36.83-1.99 54.35-5.79 71.87-15.53 132.5-61.24 167.97-123.21 21.43 37.43 33.68 80.78 33.68 127z" fill="#ea39ab"/><path d="m484.77 371.01c-24.7 49.04-64.72 89.06-113.76 113.76l-312.54-312.55 113.75-113.75z" fill="#fff"/><path d="m463.75 405.61c-16.99 23.56-37.89 44.11-61.75 60.7-9.85 6.85-20.2 13.02-30.99 18.46l-312.54-312.55 3.38-3.38 82.56-82.57z" fill="#d1f6ff"/><path d="m437.02 437.02c-19.22 19.22-41.49 35.4-66.01 47.75l-312.54-312.55 56.87-56.88z" fill="#b3f4ff"/><g fill="#00b3fe"><path d="m83.777 197.533 26.287 26.287 43.734-43.734c7.259-7.259 7.259-19.028 0-26.287-7.259-7.259-19.028-7.259-26.287 0z"/><path d="m136.351 250.106 26.287 26.287 29.831-29.831c7.259-7.259 7.259-19.028 0-26.287-7.259-7.259-19.028-7.259-26.287 0z"/><path d="m188.925 302.68 26.287 26.287 43.734-43.734c7.259-7.259 7.259-19.028 0-26.287-7.259-7.259-19.028-7.259-26.287 0z"/><path d="m241.499 355.254 26.287 26.287 29.831-29.831c7.259-7.259 7.259-19.028 0-26.287-7.259-7.259-19.028-7.259-26.287 0z"/><path d="m294.073 407.828 26.287 26.287 43.734-43.734c7.259-7.259 7.259-19.028 0-26.287-7.259-7.259-19.028-7.259-26.287 0z"/><path d="m402.76 456.86-23.64 23.64c-2.68 1.47-5.38 2.9-8.11 4.27l-24.36-24.37 29.83-29.83c3.63-3.63 8.39-5.45 13.14-5.45 4.76 0 9.52 1.82 13.14 5.45 7.26 7.26 7.26 19.03 0 26.29z"/></g></svg>