<svg id="Capa_1" enable-background="new 0 0 512 512" height="512" viewBox="0 0 512 512" width="512" xmlns="http://www.w3.org/2000/svg"><g><g><path d="m0 256c0 43.79 11 85.02 30.39 121.07l225.61 49.67 225.61-49.67c19.39-36.05 30.39-77.28 30.39-121.07 0-46.63-12.47-90.34-34.26-128-41.698 72.091-399.22 76.52-443.48 0-21.79 37.66-34.26 81.37-34.26 128z" fill="#9feafd"/><path d="m34.26 128c44.26 76.52 126.99 128 221.74 128s177.48-51.48 221.74-128c-.01-.02-.03-.05-.04-.07-44.27-76.48-126.98-127.93-221.7-127.93s-177.43 51.45-221.7 127.93c-.01.02-.03.05-.04.07z" fill="#c3f3ff"/><path d="m30.39 377.07c30.609 56.923 82.132 100.933 144.289 121.743 25.548 8.553 52.893 5.322 81.321 5.322s55.773 3.231 81.321-5.322c62.157-20.81 113.68-64.82 144.289-121.743z" fill="#70c5e8"/></g><g><g><g><g><g fill="#f3e9e0"><path d="m201.13 221.75h109.75v23.47h-109.75z"/><path d="m201.12 271.66h109.75v23.47h-109.75z"/></g></g><g><g><path d="m201.12 321.57h109.75v23.47h-109.75z" fill="#f3e9e0"/></g></g></g><g><g><g><path d="m201.12 90.01h109.75v23.48h-109.75z" fill="#f3e9e0"/></g></g></g><g><g><g fill="#f3e9e0"><path d="m201.13 446.35h109.75v23.48h-109.75z"/><path d="m310.87 496.27v9.83c-5.01 1.1-10.09 2.05-15.21 2.84-12.93 2.02-26.17 3.06-39.66 3.06-13.23 0-26.22-1-38.9-2.94-5.38-.82-10.71-1.81-15.98-2.96v-9.83z"/></g></g></g><g fill="#deba9f"><path d="m256 90.01h54.87v23.48h-54.87z"/><path d="m256 271.66h54.87v23.47h-54.87z"/><path d="m256 321.57h54.87v23.47h-54.87z"/><path d="m256 496.27h54.87v9.83c-5.01 1.1-10.09 2.05-15.21 2.84-12.93 2.02-26.17 3.06-39.66 3.06z"/><path d="m256 221.75h54.88v23.47h-54.88z"/><path d="m256 446.35h54.88v23.48h-54.88z"/></g><path d="m337.56 56.36c0 65.7-35.59 99.05-66.98 128.47-5.02 4.7-9.91 9.29-14.58 13.92-22.03 21.84-38.91 44.47-38.91 83.43h-42.65c0-65.69 35.59-99.04 66.98-128.47 5.02-4.7 9.91-9.29 14.58-13.91 22.03-21.84 38.91-44.47 38.91-83.44h42.65z" fill="#8898e5"/><path d="m270.58 184.83c-5.02 4.7-9.91 9.29-14.58 13.92v-58.95c22.03-21.84 38.91-44.47 38.91-83.44h42.65c0 65.7-35.59 99.05-66.98 128.47z" fill="#546bd9"/><path d="m337.56 282.14c0 42.71-15.04 71.75-34.2 94.93-10.3 12.47-21.79 23.25-32.78 33.54-5.02 4.7-9.91 9.29-14.58 13.92-22.03 21.85-38.91 44.48-38.91 83.45 0 .36 0 .72.01 1.08-14.58-2.22-28.76-5.67-42.42-10.25 3.14-59.7 36.84-91.28 66.74-119.31.87-.81 1.73-1.62 2.59-2.43 4.11-3.86 8.13-7.67 11.99-11.49 22.03-21.84 38.91-44.48 38.91-83.44 0-38.97-16.88-61.6-38.91-83.44-4.67-4.62-9.56-9.22-14.58-13.92-31.39-29.42-66.98-62.77-66.98-128.47h42.65c0 38.97 16.88 61.6 38.91 83.44 4.67 4.63 9.56 9.22 14.58 13.92 31.39 29.42 66.98 62.77 66.98 128.47z" fill="#d75e91"/><path d="m337.56 282.14c0 42.71-15.04 71.75-34.2 94.93-10.3 12.47-21.79 23.25-32.78 33.54-5.02 4.7-9.91 9.29-14.58 13.92v-58.95c22.03-21.84 38.91-44.48 38.91-83.44 0-38.97-16.88-61.6-38.91-83.44v-58.95c4.67 4.63 9.56 9.22 14.58 13.92 31.39 29.42 66.98 62.77 66.98 128.47z" fill="#bf2e70"/><path d="m337.32 498.81c-13.42 4.5-27.35 7.91-41.66 10.13l-.75-.94c0-38.96-16.88-61.59-38.91-83.43-4.67-4.63-9.56-9.22-14.58-13.92-11-10.3-22.51-21.09-32.81-33.58-19.15-23.17-34.17-52.2-34.17-94.89l26.7-20.2 15.95 20.2c0 38.97 16.88 61.6 38.91 83.44 3.84 3.81 7.84 7.6 11.94 11.45.88.82 1.76 1.64 2.64 2.47 29.89 28.02 63.59 59.6 66.74 119.27z" fill="#8898e5"/><path d="m337.32 498.81c-13.42 4.5-27.35 7.91-41.66 10.13l-.75-.94c0-38.96-16.88-61.59-38.91-83.43v-58.95c3.84 3.81 7.84 7.6 11.94 11.45.88.82 1.76 1.64 2.64 2.47 29.89 28.02 63.59 59.6 66.74 119.27z" fill="#546bd9"/></g></g><g><path d="m159.756 245.633c0 15.018-5.408 28.793-14.375 39.489 8.967 10.702 14.375 24.477 14.375 39.495v54.791h-44.171v-54.791c0-9.598-7.812-17.41-17.41-17.41s-17.403 7.812-17.403 17.41v54.791h-44.172v-54.791c0-15.018 5.402-28.793 14.368-39.495-8.967-10.696-14.368-24.471-14.368-39.489v-54.791h44.171v54.791c0 9.598 7.806 17.403 17.403 17.403s17.41-7.806 17.41-17.403v-54.791h44.171v54.791z" fill="#d75e91"/><path d="m480.486 190.842v54.791c0 26.175-16.413 48.582-39.489 57.479v76.296h-44.171v-76.296c-23.076-8.897-39.495-31.305-39.495-57.479v-54.791h44.171v54.791c0 9.598 7.812 17.403 17.41 17.403s17.403-7.806 17.403-17.403v-54.791z" fill="#8898e5"/><path d="m480.486 190.842v54.791c0 26.175-16.413 48.582-39.489 57.479v76.296h-22.086v-116.372c9.598 0 17.403-7.806 17.403-17.403v-54.791z" fill="#546bd9"/><path d="m159.756 245.633c0 15.018-5.408 28.793-14.375 39.489 8.967 10.702 14.375 24.477 14.375 39.495v54.791h-44.171v-54.791c0-9.598-7.812-17.41-17.41-17.41v-44.171c9.598 0 17.41-7.806 17.41-17.403v-54.791h44.171z" fill="#bf2e70"/></g></g></svg>