<svg id="Capa_1" enable-background="new 0 0 512 512" height="512" viewBox="0 0 512 512" width="512" xmlns="http://www.w3.org/2000/svg"><circle cx="256" cy="256" fill="#65b2fe" r="256"/><path d="m512 256c0 87.11-43.52 164.07-110 210.31-41.41 28.8-91.73 45.69-146 45.69s-104.59-16.89-146-45.69c-66.48-46.24-110-123.2-110-210.31 0-46.22 12.25-89.57 33.68-127 44.12 77.07 127.16 129 222.32 129s178.21-51.93 222.32-129c21.43 37.43 33.68 80.78 33.68 127z" fill="#0e9ce7"/><path d="m452 316c0 105.34-83.12 191.28-187.34 195.81-.31.02-.62.03-.93.04-.87.03-1.74.06-2.6.08-1.73.05-3.44.07-5.13.07-108.24 0-196-87.76-196-196s87.76-196 196-196h.28c108.11.15 195.72 87.85 195.72 196z" fill="#ffe853"/><path d="m452 316c0 105.34-83.12 191.28-187.34 195.81-.31.02-.62.03-.93.04-.87.03-1.74.06-2.6.08-1.73.05-3.44.07-5.13.07-58.54-45.3-103.35-116.25-103.35-196s44.81-150.7 103.35-196h.28c108.11.15 195.72 87.85 195.72 196z" fill="#fed110"/><path d="m452 316c0 108.244-87.756 196-196 196v-392c108.244 0 196 87.756 196 196z" fill="#ff9f01"/><circle cx="187.667" cy="266.264" fill="#fff" r="46.095"/><circle cx="187.667" cy="266.264" fill="#29334c" r="25.616"/><circle cx="324.333" cy="266.264" fill="#fff" r="46.095"/><circle cx="323.333" cy="266.264" fill="#29334c" r="25.616"/><path d="m358.01 139.49c-43.86 0-82.14 24.37-102.01 60.27-19.87-35.9-58.15-60.27-102.01-60.27-64.24 0-116.51 52.27-116.51 116.51s52.27 116.51 116.51 116.51c43.86 0 82.14-24.37 102.01-60.27 19.87 35.9 58.15 60.27 102.01 60.27 64.24 0 116.51-52.27 116.51-116.51s-52.27-116.51-116.51-116.51zm-204.02 204.02c-48.25 0-87.51-39.26-87.51-87.51s39.26-87.51 87.51-87.51 87.51 39.26 87.51 87.51-39.26 87.51-87.51 87.51zm204.02 0c-48.25 0-87.51-39.26-87.51-87.51s39.26-87.51 87.51-87.51 87.51 39.26 87.51 87.51-39.26 87.51-87.51 87.51z" fill="#313b5a"/><g fill="#29334c"><circle cx="256" cy="411.5" r="32.672"/><path d="m358.01 139.49c-43.86 0-82.14 24.37-102.01 60.27v112.48c19.87 35.9 58.15 60.27 102.01 60.27 64.24 0 116.51-52.27 116.51-116.51s-52.27-116.51-116.51-116.51zm0 204.02c-48.25 0-87.51-39.26-87.51-87.51s39.26-87.51 87.51-87.51 87.51 39.26 87.51 87.51-39.26 87.51-87.51 87.51z"/></g></svg>