<svg height="512" viewBox="0 0 512 512" width="512" xmlns="http://www.w3.org/2000/svg"><g id="BULINE"><circle cx="256" cy="256" fill="#3586cb" r="256"/></g><g id="Icons"><path d="m210 393.77h93.73a0 0 0 0 1 0 0v59.57a46.87 46.87 0 0 1 -46.87 46.87 46.87 46.87 0 0 1 -46.86-46.87v-59.57a0 0 0 0 1 0 0z" fill="#27273d"/><path d="m389.93 216.88a133 133 0 0 0 -160.82-130.09c-59.67 12.79-104.79 66-105.26 129.09a132.76 132.76 0 0 0 50 104.91 73.78 73.78 0 0 1 28.05 57.48v.24a15.26 15.26 0 0 0 15.27 15.26h79.51a15.26 15.26 0 0 0 15.28-15.26v-.24a72.53 72.53 0 0 1 27.38-56.95c1.89-1.49 3.73-3 5.54-4.64a132.63 132.63 0 0 0 45.05-99.8z" fill="#f6d372"/><rect fill="#4f4f74" height="29.93" rx="14.96" width="140.9" x="186.44" y="393.77"/><rect fill="#4f4f74" height="29.93" rx="14.96" width="140.9" x="186.44" y="437.31"/><path d="m248.37 423.7h-46.37a15 15 0 1 1 0-29.93h46.4a15 15 0 0 0 0 29.93z" fill="#424263"/><path d="m248.37 467.24h-46.37a15 15 0 1 1 0-29.93h46.4a15 15 0 0 0 0 29.93z" fill="#424263"/><path d="m311.52 381.93a15.24 15.24 0 0 1 -14.87 11.84h-79.53a15.26 15.26 0 0 1 -15.26-15.26v-.23a73.8 73.8 0 0 0 -28.05-57.49 132.79 132.79 0 0 1 -50-104.9c.39-52.22 31.31-97.61 75.75-119a132.85 132.85 0 0 0 -5.82 212 73.75 73.75 0 0 1 28.05 57.48v.23a15.27 15.27 0 0 0 15.26 15.27z" fill="#f6c752"/><ellipse cx="296.66" cy="408.18" fill="#636389" rx="16.35" ry="6.47"/><ellipse cx="296.66" cy="452.28" fill="#636389" rx="16.35" ry="6.47"/><path d="m389.93 216.88a133 133 0 0 0 -160.82-130.09c-33.45 38.54-36.92 102.37-4.76 156.63 28.1 47.39 75.67 74.42 120.49 73.26a132.63 132.63 0 0 0 45.09-99.8z" fill="#f9e3ac"/><ellipse cx="336.83" cy="150.09" fill="#fff" rx="15.82" ry="33.15" transform="matrix(.81 -.587 .587 .81 -24 226.15)"/><ellipse cx="360.12" cy="216.34" fill="#fff" rx="10.72" ry="22.47" transform="matrix(1 -.015 .015 1 -3.24 5.49)"/><path d="m343.89 177.66c-5-9-18.73-11.46-39.6-7.09-18.87 3.94-41.68 13.07-64.24 25.69s-42.26 27.29-55.49 41.3c-14.64 15.51-19.71 28.44-14.67 37.44 3.41 6.1 10.8 9.2 21.71 9.2a88.38 88.38 0 0 0 17.89-2.11c18.87-3.95 41.68-13.07 64.24-25.69s42.26-27.29 55.49-41.31c14.64-15.47 19.71-28.43 14.67-37.43zm-74.71 70.64c-21.76 12.17-43.63 20.94-61.59 24.7-18.59 3.89-27.46 1.25-29.57-2.52s.28-12.71 13.32-26.52c12.59-13.35 31.51-27.4 53.26-39.57 33.69-18.85 61.81-26.61 77.71-26.61 7.17 0 11.86 1.58 13.45 4.43 5.13 9.16-17.76 38.79-66.58 66.09z" fill="#db2c62"/><path d="m322.18 284.23a88.38 88.38 0 0 1 -17.89-2.11c-18.87-3.95-41.68-13.07-64.24-25.69s-42.26-27.29-55.49-41.31c-14.64-15.5-19.71-28.46-14.67-37.46s18.73-11.46 39.6-7.09c18.87 3.94 41.68 13.07 64.24 25.69s42.26 27.29 55.49 41.3c14.64 15.51 19.71 28.44 14.67 37.44-3.41 6.13-10.8 9.23-21.71 9.23zm-130.71-106.45c-7.17 0-11.86 1.58-13.45 4.43-5.13 9.16 17.72 38.74 66.58 66.09 21.76 12.17 43.63 20.94 61.59 24.7 18.59 3.89 27.46 1.25 29.57-2.52s-.28-12.71-13.32-26.52c-12.59-13.35-31.51-27.4-53.26-39.57-33.69-18.85-61.81-26.61-77.71-26.61z" fill="#ff78a9"/><path d="m256.89 326c-10.32 0-19.15-10.75-25.53-31.1-5.77-18.39-9-42.75-9-68.6s3.18-50.21 9-68.6c6.38-20.34 15.21-31.1 25.53-31.1s19.15 10.76 25.53 31.1c5.77 18.39 8.95 42.76 8.95 68.6s-3.18 50.21-8.95 68.6c-6.42 20.39-15.21 31.1-25.53 31.1zm0-190.08c-10.5 0-25.16 34.39-25.16 90.38s14.66 90.38 25.16 90.38 25.16-34.38 25.16-90.38-14.65-90.3-25.16-90.3z" fill="#fc4581"/><path d="m225.45 268.05h-.07q-4.55 1.53-8.9 2.74c.52 3.15 1.09 6.22 1.71 9.19q4.31-1.17 8.79-2.65l.15-.05q-.91-4.37-1.68-9.23zm-12.07-55q-.25 5.81-.28 11.74 4.53-3.42 9.43-6.77c0-1 .06-2.1.1-3.15s.08-2.09.13-3.13c0-.6.05-1.2.09-1.8s.05-.9.07-1.34c0-.71.09-1.42.14-2.12q-4.99 3.26-9.68 6.59z" fill="#bc285e"/><path d="m222.92 244.07c0-.45 0-.9-.07-1.35l-.09-1.8c0-1-.09-2.07-.13-3.12l-.06-1.56c0-.53 0-1.05 0-1.57q-5-3.39-9.43-6.76c0 3.95.11 7.86.28 11.71 3.12 2.22 6.35 4.42 9.68 6.57-.1-.71-.1-1.42-.18-2.12zm4.08-68.75c-3-1-5.92-1.87-8.79-2.65-.62 3-1.19 6-1.71 9.19 2.85.78 5.81 1.69 8.9 2.73h.08c.5-3.22 1.07-6.3 1.67-9.24z" fill="#ea71a2"/><path d="m225.45 268.05h-.07c.47 3.18 1 6.27 1.6 9.28l.15-.05q-.91-4.37-1.68-9.23z" fill="#3586cb"/><circle cx="256.87" cy="226.34" fill="#fc4581" r="15.91"/><path d="m259.78 242a16.38 16.38 0 0 1 -2.9.26 15.91 15.91 0 1 1 0-31.82 16.38 16.38 0 0 1 2.9.26 15.92 15.92 0 0 0 0 31.3z" fill="#fa3268"/><circle cx="263.02" cy="222.32" fill="#fc72a4" r="6.14"/><circle cx="317.08" cy="278.23" fill="#e88032" r="10.59"/><path d="m319 288.65a10.26 10.26 0 0 1 -1.93.17 10.59 10.59 0 0 1 0-21.18 11.17 11.17 0 0 1 1.93.17 10.6 10.6 0 0 0 0 20.84z" fill="#cc6c2b"/><circle cx="321.17" cy="275.55" fill="#f29e64" r="4.09"/><circle cx="195.95" cy="278.23" fill="#aa60fa" r="10.59"/><path d="m197.88 288.65a10.26 10.26 0 0 1 -1.93.17 10.59 10.59 0 1 1 0-21.18 11.17 11.17 0 0 1 1.93.17 10.6 10.6 0 0 0 0 20.84z" fill="#934cf5"/><circle cx="200.04" cy="275.55" fill="#cd88f8" r="4.09"/><circle cx="317.08" cy="173.95" fill="#38c487" r="10.59"/><path d="m319 184.37a11.17 11.17 0 0 1 -1.93.17 10.6 10.6 0 0 1 0-21.19 10.27 10.27 0 0 1 1.93.18 10.6 10.6 0 0 0 0 20.84z" fill="#00b564"/><circle cx="321.17" cy="171.27" fill="#4acc97" r="4.09"/><circle cx="195.95" cy="173.95" fill="#db1b1b" r="10.59"/><path d="m197.88 184.37a11.17 11.17 0 0 1 -1.93.17 10.6 10.6 0 1 1 0-21.19 10.27 10.27 0 0 1 1.93.18 10.6 10.6 0 0 0 0 20.84z" fill="#ba1919"/><circle cx="200.04" cy="171.27" fill="#e54a4a" r="4.09"/><g fill="#f9e3ac"><path d="m99.23 250h-42.38a7.78 7.78 0 1 1 0-15.55h42.38a7.78 7.78 0 1 1 0 15.55z"/><path d="m454.56 250h-42.38a7.78 7.78 0 0 1 0-15.55h42.38a7.78 7.78 0 1 1 0 15.55z"/><path d="m256.91 71.93a7.77 7.77 0 0 1 -7.78-7.77v-42.39a7.78 7.78 0 0 1 15.55 0v42.39a7.77 7.77 0 0 1 -7.77 7.77z"/><path d="m145.06 124.38a7.75 7.75 0 0 1 -5.49-2.28l-30-30a7.77 7.77 0 1 1 11-11l30 30a7.78 7.78 0 0 1 -5.5 13.27z"/><path d="m396.32 375.63a7.75 7.75 0 0 1 -5.5-2.28l-30-30a7.77 7.77 0 0 1 11-11l30 30a7.78 7.78 0 0 1 -5.5 13.27z"/><path d="m367.52 124.38a7.78 7.78 0 0 1 -5.5-13.27l30-30a7.77 7.77 0 1 1 11 11l-30 30a7.75 7.75 0 0 1 -5.5 2.27z"/><path d="m116.26 375.63a7.78 7.78 0 0 1 -5.5-13.27l30-30a7.77 7.77 0 1 1 11 11l-30 30a7.75 7.75 0 0 1 -5.5 2.27z"/></g></g></svg>