<svg id="Capa_1" enable-background="new 0 0 512 512" height="512" viewBox="0 0 512 512" width="512" xmlns="http://www.w3.org/2000/svg"><g><g><path d="m512 256c0 43.79-11 85.02-30.39 121.07l-225.61 49.67-225.61-49.67c-19.39-36.05-30.39-77.28-30.39-121.07 0-46.63 12.47-90.34 34.26-128 41.698 72.091 399.22 76.52 443.48 0 21.79 37.66 34.26 81.37 34.26 128z" fill="#79ce8b"/><path d="m477.74 128c-44.26 76.52-126.99 128-221.74 128s-177.48-51.48-221.74-128c.01-.02.03-.05.04-.07 44.27-76.48 126.98-127.93 221.7-127.93s177.43 51.45 221.7 127.93c.01.02.03.05.04.07z" fill="#a9eb58"/><path d="m481.61 377.07c-19.659 36.56-47.946 67.794-82.137 90.975-40.923 27.746-90.304-1.527-143.473-1.527-50.32 0-69.778 15.555-109.348-9.515-16.92-10.73-59.982-7.972-73.902-22.252-16.67-17.08-30.97-36.48-42.36-57.68h451.22z" fill="#599d8a"/></g><g><path d="m110.625 132.237v294.503h-22.24v-294.503c0-6.148 4.979-11.127 11.127-11.127 6.134 0 11.113 4.979 11.113 11.127z" fill="#e8a440"/><path d="m110.625 132.237v294.503h-11.113v-305.63c6.134 0 11.113 4.979 11.113 11.127z" fill="#de8051"/><path d="m399.47 468.04c-40.92 27.75-90.3 43.96-143.47 43.96s-102.55-16.21-143.47-43.96c9.76-28.05 27.52-52.36 50.54-70.2 10.67-8.27 22.48-15.15 35.15-20.37.37-.15.73-.28 1.1-.4 3-.97 6.05-.85 9.15 0 14.95 4.09 30.93 25.34 47.53 25.34s32.58-21.25 47.53-25.34c3.1-.85 6.15-.97 9.15 0 .37.12.73.25 1.1.4v.01c39.98 16.46 71.4 49.5 85.69 90.56z" fill="#464652"/><path d="m399.47 468.04c-40.92 27.75-90.3 43.96-143.47 43.96v-109.59c16.6 0 32.58-21.25 47.53-25.34 3.1-.85 6.15-.97 9.15 0 .37.12.73.25 1.1.4v.01c39.98 16.46 71.4 49.5 85.69 90.56z" fill="#2d2f40"/><path d="m313.775 377.472v.011l-15.993 43.578-41.783 31.975-41.814-32.647-15.961-42.917c17.809-7.33 37.32-11.372 57.775-11.372 20.456 0 39.966 4.043 57.776 11.372z" fill="#e9ecf8"/><path d="m313.77 377.47v.01l-15.99 43.58-41.78 31.98-.01-.01v-86.93h.01c20.45 0 39.97 4.04 57.77 11.37z" fill="#dbdeee"/><path d="m292.301 329.798v36.302c0 20.057-16.255 36.312-36.301 36.312-20.056 0-36.312-16.255-36.312-36.312v-36.301h72.613z" fill="#dfbca3"/><path d="m292.301 329.798v36.302c0 20.057-16.255 36.312-36.301 36.312v-72.613h36.301z" fill="#cb8f69"/><path d="m386.714 257.249v7.025c0 25.527-20.687 46.214-46.214 46.214h-66.344v-77.275h88.511c13.284-.001 24.047 10.762 24.047 24.036z" fill="#cb8f69"/><path d="m274.156 233.212v77.275h-103.695c-25.517 0-46.203-20.687-46.203-46.214v-7.025c0-13.273 10.763-24.036 24.036-24.036z" fill="#dfbca3"/><path d="m346.559 141.288v135.922c0 50.015-40.544 90.559-90.559 90.559-50.026 0-90.569-40.543-90.569-90.559v-135.922z" fill="#eed9c8"/><path d="m346.559 141.288v135.922c0 50.015-40.544 90.559-90.559 90.559v-226.481z" fill="#dfbca3"/><path d="m255.999 453.036-13.84 20.648 13.84 27.981 54.888-54.877-14.733-14.733 52.777-34.211c-10.669-8.275-22.482-15.153-35.157-20.372z" fill="#464652"/><path d="m255.999 453.036v48.629l-54.888-54.877 14.733-14.733-52.777-34.211c10.669-8.275 22.482-15.153 35.157-20.372z" fill="#616579"/><path d="m255.995 296.318c-5.518 0-9.992-4.474-9.992-9.992v-32.306c0-5.518 4.474-9.992 9.992-9.992 5.518 0 9.992 4.474 9.992 9.992v32.306c0 5.519-4.474 9.992-9.992 9.992z" fill="#cb8f69"/><g fill="#464652"><circle cx="219.525" cy="252.101" r="13.073"/><circle cx="292.465" cy="252.101" r="13.073"/></g><path d="m223.855 300.493c0 17.753 14.392 32.145 32.145 32.145s32.145-14.392 32.145-32.145z" fill="#fff"/><path d="m288.145 300.493c0 17.76-14.4 32.15-32.15 32.15v-32.15z" fill="#e9ecf8"/><path d="m255.999 402.412 20.106 24.328-20.106 26.296-6.52-25.312z" fill="#a8306e"/><path d="m256 402.412-20.106 24.328 20.105 26.296z" fill="#c02e71"/><path d="m381.637 83.047h-122.535c-27.376 0-49.568 22.192-49.568 49.568 0 27.376 22.192 49.568 49.568 49.568h36.231c47.665 0 86.305-38.64 86.305-86.305v-12.831z" fill="#464652"/><path d="m182.712 83.047h8.649c18.098 0 32.77 14.672 32.77 32.77v34.905c0 18.098-14.672 32.77-32.77 32.77h-8.649c-18.098 0-32.77-14.672-32.77-32.77v-34.905c0-18.099 14.672-32.77 32.77-32.77z" fill="#616578"/><g><path d="m171.623 239.028-21.681-12.087v-85.653h21.681z" fill="#616578"/><path d="m362.047 223.135-21.68 15.893v-97.74h21.68z" fill="#464652"/></g><path d="m129.48 434.76v15.78c0 8.8-4.01 16.67-10.3 21.87-6.78-4.3-13.34-8.91-19.67-13.81-9.47-7.32-18.42-15.29-26.76-23.85.01-15.12 11.84-27.47 26.76-28.3.53-.03 1.07-.05 1.61-.05 7.83 0 14.92 3.18 20.05 8.31s8.31 12.22 8.31 20.05z" fill="#eed9c8"/><path d="m352.205 219.492-13.435 16.668c-6.3-15.35-21.4-26.19-38.99-26.19-20.84 0-38.19 15.22-41.53 35.13h-5.19c-3.34-19.91-20.69-35.13-41.54-35.13-17.59 0-32.68 10.84-38.98 26.19l-13.435-16.668c-2.427-3.011-6.836-3.484-9.846-1.056-3.009 2.427-3.482 6.834-1.056 9.844l21.278 26.4c1.34 22.03 19.68 39.55 42.04 39.55 20.85 0 38.2-15.22 41.54-35.13h5.19c3.34 19.91 20.69 35.13 41.53 35.13 22.37 0 40.71-17.52 42.05-39.55l21.278-26.4c2.426-3.01 1.953-7.417-1.056-9.844-3.012-2.428-7.421-1.955-9.848 1.056zm-140.685 60.738c-15.51 0-28.12-12.62-28.12-28.13s12.61-28.13 28.12-28.13c15.52 0 28.13 12.62 28.13 28.13s-12.61 28.13-28.13 28.13zm88.26 0c-15.51 0-28.13-12.62-28.13-28.13s12.62-28.13 28.13-28.13 28.13 12.62 28.13 28.13-12.62 28.13-28.13 28.13z" fill="#8999e5"/><path d="m352.205 219.492-13.435 16.668c-6.3-15.35-21.4-26.19-38.99-26.19-20.84 0-38.19 15.22-41.53 35.13h-2.25v14h2.25c3.34 19.91 20.69 35.13 41.53 35.13 22.37 0 40.71-17.52 42.05-39.55l21.278-26.4c2.426-3.01 1.953-7.417-1.056-9.844-3.011-2.428-7.42-1.955-9.847 1.056zm-52.425 60.738c-15.51 0-28.13-12.62-28.13-28.13s12.62-28.13 28.13-28.13 28.13 12.62 28.13 28.13-12.62 28.13-28.13 28.13z" fill="#546ada"/><path d="m129.48 434.76v15.78c0 8.8-4.01 16.67-10.3 21.87-6.78-4.3-13.34-8.91-19.67-13.81v-52.15c.53-.03 1.07-.05 1.61-.05 7.83 0 14.92 3.18 20.05 8.31s8.31 12.22 8.31 20.05z" fill="#dfbca3"/></g></g></svg>