<svg id="Capa_1" enable-background="new 0 0 512 512" height="512" viewBox="0 0 512 512" width="512" xmlns="http://www.w3.org/2000/svg"><g><g><path d="m256 304.272c-141.387 0-243.753-137.846-222.327-175.273 44.119-77.07 127.157-128.999 222.327-128.999 97.204 0 181.752 54.173 225.103 133.974 19.704 36.274-83.716 170.298-225.103 170.298z" fill="#576ceb"/><path d="m512 256c0 26.051-3.891 51.191-11.129 74.871-5.031 16.469-11.672 32.231-19.75 47.109-8.25 15.2-147.391 40.07-225.121 40.07s-216.871-24.87-225.109-40.07c-3.289-6.031-6.332-12.21-9.121-18.531-14-31.629-21.77-66.629-21.77-103.449 0-46.219 12.25-89.57 33.68-127 44.121 77.07 127.16 129 222.32 129s178.211-51.93 222.32-129c21.43 37.43 33.68 80.781 33.68 127zm0 0" fill="#6c3beb"/><path d="m481.262 377.699c-7.16 13.223-15.434 25.742-24.723 37.43-8.437 10.633-17.719 20.57-27.719 29.723-22.576 20.672-48.871 37.351-77.765 48.915-29.389 11.762-199.619 1.351-241.025-27.443-9.432-6.559-18.401-13.736-26.85-21.472-10-9.153-19.282-19.09-27.719-29.723-9.289-11.688-17.563-24.207-24.723-37.43zm0 0" fill="#4d34b0"/></g><g><path d="m152.64 466.31 110.302 30.625c7.618 5.656 17.308 10.044 28.24 12.648 20.813-2.861 40.829-8.215 59.733-15.767 5.776-7.681 9.209-17.212 9.209-27.506v-300.125l45.937-45.938h-161.546z" fill="#ffc46c"/><path d="m406.062 120.247c-25.371 0-45.937 20.567-45.937 45.938h91.875c0-25.371-20.567-45.938-45.938-45.938z" fill="#ff903d"/><path d="m128.906 166.185v312.084c12.812 7.342 26.323 13.599 40.402 18.666h75.207v-376.688h-69.672c-25.265 0-45.937 20.672-45.937 45.938z" fill="#ffd89d"/><path d="m128.906 166.185v312.084c12.812 7.342 26.323 13.599 40.402 18.666h11.2v-376.688h-5.664c-25.266 0-45.938 20.672-45.938 45.938z" fill="#ffeac9"/><path d="m243.82 281.029-29.094 58.188 29.094 58.188c32.136 0 58.188-26.051 58.188-58.188s-26.052-58.188-58.188-58.188z" fill="#ff0f47"/><path d="m185.633 339.216c0 32.136 26.051 58.188 58.188 58.188v-116.375c-32.137 0-58.188 26.051-58.188 58.187z" fill="#ff415d"/><path d="m296.71 508.765c-16.661-6.913-28.46-23.37-28.46-42.455h-23.734l-22.969 22.969 22.432 22.432c3.985.184 7.99.289 12.021.289 13.856 0 27.45-1.116 40.71-3.235z" fill="#ffd89d"/><path d="m244.515 511.731v-45.421h-134.49c38.471 26.752 84.623 43.219 134.49 45.421z" fill="#ffebce"/><path d="m180.508 500.68v-34.37h-70.483c21.355 14.85 45.071 26.539 70.483 34.37z" fill="#fff9f0"/><path d="m303.397 235.091h-59.577l-22.968 11.484 22.968 11.485h59.577z" fill="#742466"/><path d="m187.022 235.091h56.798v22.969h-56.798z" fill="#ba1956"/><path d="m303.397 189.154h-59.577l-22.968 11.484 22.968 11.484h59.577z" fill="#742466"/><path d="m187.022 189.154h56.798v22.969h-56.798z" fill="#ba1956"/><path d="m255.305 327.732h-11.485l-7.656 11.484 7.656 11.484h11.485z" fill="#ba1956"/><path d="m232.336 327.732h11.484v22.969h-11.484z" fill="#ff0f47"/></g></g></svg>