<svg height="512pt" viewBox="0 0 512 512" width="512pt" xmlns="http://www.w3.org/2000/svg"><path d="m302.199219 105c0 8.398438-6.898438 15-15 15h-62.398438c-8.101562 0-15-6.601562-15-15 0-8.402344 6.898438-15 15-15h62.398438c8.101562 0 15 6.597656 15 15zm0 0" fill="#fdbf00"/><path d="m302.199219 105c0 8.398438-6.898438 15-15 15h-31.199219v-30h31.199219c8.101562 0 15 6.597656 15 15zm0 0" fill="#ff9f00"/><path d="m331.203125 333.800781c-2.753906 0-5.535156-.761719-8.039063-2.34375-6.988281-4.453125-9.054687-13.726562-4.601562-20.710937l58.8125-94.417969c4.453125-6.972656 13.726562-9.007813 20.714844-4.601563 6.984375 4.453126 9.050781 13.726563 4.597656 20.714844l-58.8125 94.417969c-2.855469 4.480469-7.71875 6.941406-12.671875 6.941406zm0 0" fill="#ff9f00"/><path d="m180.796875 333.800781c-4.96875 0-9.816406-2.460937-12.671875-6.941406l-58.8125-94.417969c-4.453125-6.988281-2.390625-16.257812 4.597656-20.710937 7.019532-4.441407 16.261719-2.359375 20.714844 4.597656l58.8125 94.417969c4.453125 6.988281 2.386719 16.261718-4.601562 20.714844-2.503907 1.578124-5.285157 2.339843-8.039063 2.339843zm0 0" fill="#fdbf00"/><path d="m256 272c-66.300781 0-120 53.699219-120 120s53.699219 120 120 120 120-53.699219 120-120-53.699219-120-120-120zm0 0" fill="#ffe470"/><path d="m376 392c0 66.300781-53.699219 120-120 120v-240c66.300781 0 120 53.699219 120 120zm0 0" fill="#fdbf00"/><path d="m286 362c0 16.5-13.5 30-30 30s-30-13.5-30-30 13.5-30 30-30 30 13.5 30 30zm0 0" fill="#ec5569"/><path d="m256 392v-60c16.5 0 30 13.5 30 30s-13.5 30-30 30zm0 0" fill="#cc2e43"/><path d="m327.699219 446c-16.5 21.597656-42.300781 36-71.699219 36s-55.199219-14.402344-71.699219-36c9.300781-31.199219 37.800781-54 71.699219-54s62.402344 22.800781 71.699219 54zm0 0" fill="#ec5569"/><path d="m327.699219 446c-16.5 21.597656-42.300781 36-71.699219 36v-90c33.898438 0 62.402344 22.800781 71.699219 54zm0 0" fill="#cc2e43"/><path d="m121 0c-66.300781 0-121 53.699219-121 120s54.699219 120 121 120 120-53.699219 120-120-53.699219-120-120-120zm0 0" fill="#ffe470"/><path d="m151 90c0 16.5-13.5 30-30 30s-30-13.5-30-30 13.5-30 30-30 30 13.5 30 30zm0 0" fill="#ec5569"/><path d="m192.699219 174c-16.5 21.597656-42.300781 36-71.699219 36s-55.199219-14.402344-71.699219-36c9.300781-31.199219 37.800781-54 71.699219-54s62.402344 22.800781 71.699219 54zm0 0" fill="#ec5569"/><path d="m391 0c-66.300781 0-120 53.699219-120 120s53.699219 120 120 120 121-53.699219 121-120-54.699219-120-121-120zm0 0" fill="#fdbf00"/><g fill="#cc2e43"><path d="m421 90c0 16.5-13.5 30-30 30s-30-13.5-30-30 13.5-30 30-30 30 13.5 30 30zm0 0"/><path d="m462.699219 174c-16.5 21.597656-42.300781 36-71.699219 36s-55.199219-14.402344-71.699219-36c9.300781-31.199219 37.800781-54 71.699219-54s62.402344 22.800781 71.699219 54zm0 0"/></g></svg>