<svg id="Capa_1" enable-background="new 0 0 512 512" height="512" viewBox="0 0 512 512" width="512" xmlns="http://www.w3.org/2000/svg"><g><g><path d="m512 256c0 141.387-114.613 256-256 256s-256-114.613-256-256 114.613-256 256-256 256 114.613 256 256zm0 0" fill="#ffeb78"/><path d="m512 256c0 26.051-3.891 51.191-11.129 74.871-5.031 16.469-11.672 32.231-19.75 47.109-8.25 15.2-18 29.461-29.051 42.61-.582.691-1.16 1.379-1.75 2.058-46.941 54.704-116.59 89.352-194.32 89.352s-147.379-34.648-194.309-89.352c-.589-.687-1.179-1.378-1.75-2.07-11.062-13.137-20.812-27.398-29.05-42.598-3.289-6.031-6.332-12.21-9.121-18.531-14-31.629-21.77-66.629-21.77-103.449 0-46.219 12.25-89.57 33.68-127 44.121 77.07 127.16 129 222.32 129s178.211-51.93 222.32-129c21.43 37.43 33.68 80.781 33.68 127zm0 0" fill="#f2d332"/><path d="m481.262 377.699c-7.16 13.223-15.434 25.742-24.723 37.43-8.437 10.633-17.719 20.57-27.719 29.723-45.539 41.699-106.211 67.148-172.82 67.148s-127.281-25.449-172.82-67.148c-10-9.153-19.282-19.09-27.719-29.723-9.289-11.688-17.563-24.207-24.723-37.43zm0 0" fill="#e79d25"/></g><g><path d="m154.673 114.446-71.681 71.684 64.513 64.515h71.681v-71.684z" fill="#64b0fb"/><path d="m168.986 199.756h101.374v102.752h-101.374z" fill="#dff5ff" transform="matrix(.707 -.707 .707 .707 -113.236 228.88)"/><path d="m342.632 417.107 34.46 34.461c11.858 11.858 31.151 11.858 43.009 0s11.858-31.152 0-43.01l-34.46-34.461z" fill="#64b0fb"/><path d="m377.092 336.874-64.512 7.169-7.169 64.515 51.558 22.886 43.008-43.011z" fill="#1394fb"/><path d="m348.42 308.201-64.513 7.168-7.168 64.516 28.672 28.673 71.681-71.684z" fill="#135dd9"/><path d="m233.603 275.743h101.374v80.017h-101.374z" fill="#bfebff" transform="matrix(.707 -.707 .707 .707 -140.004 293.514)"/><path d="m113.403 387.053-21.504 21.505c-11.858 11.858-11.858 31.152 0 43.01l86.017-57.347z" fill="#ff599e"/><path d="m134.908 408.558-11.87-11.871-22.245 21.505c-8.553 8.553-12.054 22.666-8.893 33.376" fill="#dc4180"/><path d="m91.899 451.569c11.857 11.858 31.151 11.858 43.008 0l21.504-21.505 7.168-50.179z" fill="#cb2e81"/><path d="m235.261 351.211-100.353-14.337-21.505 50.179 21.505 21.505z" fill="#9f165b"/><path d="m152.828 354.795-17.92-17.921-21.505 50.179 9.635 9.635z" fill="#cb2e81"/><path d="m134.908 408.558 21.504 21.505 50.177-21.505-7.169-64.515z" fill="#8a1155"/><path d="m271.101 329.706-107.521-21.505-28.672 28.673 35.84 35.842z" fill="#cb2e81"/><path d="m180.812 325.434-17.232-17.233-28.672 28.673 17.92 17.921z" fill="#d94e98"/><path d="m170.748 372.716 35.841 35.842 28.672-28.673 7.168-78.853z" fill="#9f165b"/><path d="m393.168 150.288-35.841-35.842-64.513 64.515 14.337 100.357z" fill="#cb2e81"/><path d="m375.793 132.913-18.466-18.467-64.513 64.515 17.921 17.921z" fill="#d94e98"/><path d="m393.168 150.288-107.522 107.525 78.849-7.168 64.513-64.515z" fill="#9f165b"/><path d="m199.42 344.043 35.841 35.842 129.234-129.24-35.84-35.842-93.29 35.946z" fill="#dff5ff"/><path d="m154.733 236.158h182.769v50.687h-182.769z" fill="#fff" transform="matrix(.707 -.707 .707 .707 -112.823 250.616)"/></g></g></svg>