<svg id="Capa_1" enable-background="new 0 0 512 512" height="512" viewBox="0 0 512 512" width="512" xmlns="http://www.w3.org/2000/svg"><circle cx="256" cy="256" fill="#fd4fb9" r="256"/><path d="m512 256c0 87.11-43.52 164.07-110 210.31-41.41 28.8-91.73 45.69-146 45.69s-104.59-16.89-146-45.69c-66.48-46.24-110-123.2-110-210.31 0-46.22 12.25-89.57 33.68-127 44.12 77.07 127.16 129 222.32 129s178.21-51.93 222.32-129c21.43 37.43 33.68 80.78 33.68 127z" fill="#ea39ab"/><path d="m276.36 40.88v57.97h-40.73v-57.97c0-5.36 4.34-9.7 9.69-9.7h21.35c5.35 0 9.69 4.34 9.69 9.7z" fill="#4e689b"/><path d="m276.36 40.88v57.97h-20.36v-67.67h10.67c5.35 0 9.69 4.34 9.69 9.7z" fill="#374c81"/><path d="m285.43 85.97v83.79h-58.87v-83.79c0-7.73 6.27-14.01 14.01-14.01h30.85c7.74 0 14.01 6.28 14.01 14.01z" fill="#234177"/><path d="m285.43 85.97v83.79h-29.43v-97.8h15.42c7.74 0 14.01 6.28 14.01 14.01z" fill="#16325b"/><path d="m130.58 364.28h250.84v33.18h-250.84z" fill="#374c81"/><path d="m256 364.28h125.42v33.18h-125.42z" fill="#234177"/><path d="m423.81 449.33c-7.3 6.34-14.96 12.28-22.95 17.76l-12.94-25.55-131.92-260.41-131.91 260.41-12.95 25.56c-7.99-5.49-15.65-11.43-22.95-17.77.56-8.42 1.35-16.81 2.37-25.16 7.35-59.96 26.69-118.14 57.19-170.97l62.54-108.32c10.15-17.6 27.93-26.39 45.71-26.39 17.77 0 35.54 8.79 45.7 26.39l62.54 108.33c30.5 52.82 49.84 111 57.19 170.96 1.03 8.35 1.82 16.74 2.38 25.16z" fill="#fff"/><path d="m423.81 449.33c-7.3 6.34-14.96 12.28-22.95 17.76l-12.94-25.55-131.92-260.41v-62.64c17.77 0 35.54 8.79 45.7 26.39l62.54 108.33c30.5 52.82 49.84 111 57.19 170.96 1.03 8.35 1.82 16.74 2.38 25.16z" fill="#d1f6ff"/><path d="m278.89 350.06v57.5c0 12.65-10.25 22.9-22.89 22.9-12.65 0-22.9-10.25-22.9-22.9v-57.5c0-12.65 10.25-22.9 22.9-22.9 6.32 0 12.04 2.56 16.18 6.71 4.15 4.14 6.71 9.87 6.71 16.19z" fill="#ffc300"/><path d="m278.89 350.06v57.5c0 12.65-10.25 22.9-22.89 22.9v-103.3c6.32 0 12.04 2.56 16.18 6.71 4.15 4.14 6.71 9.87 6.71 16.19z" fill="#ff9f00"/><circle cx="255.996" cy="169.76" fill="#374c81" r="70.913"/><path d="m255.996 98.847v141.827c39.164 0 70.913-31.749 70.913-70.913s-31.749-70.914-70.913-70.914z" fill="#234177"/><path d="m285.43 169.758c0 16.26-13.183 29.434-29.434 29.434-16.252 0-29.434-13.175-29.434-29.434 0-16.252 13.183-29.426 29.434-29.426 16.251-.001 29.434 13.174 29.434 29.426z" fill="#fff"/><path d="m285.43 169.758c0 16.26-13.183 29.434-29.434 29.434v-58.861c16.251 0 29.434 13.175 29.434 29.427z" fill="#d1f6ff"/><path d="m124.09 441.54-12.95 25.56c-7.99-5.49-15.65-11.43-22.95-17.77.56-8.42 1.35-16.81 2.37-25.16z" fill="#374c81"/><path d="m423.81 449.33c-7.3 6.34-14.96 12.28-22.95 17.76l-12.94-25.55 33.51-17.37c1.03 8.35 1.82 16.74 2.38 25.16z" fill="#234177"/></svg>