<svg id="Capa_1" enable-background="new 0 0 512 512" height="512" viewBox="0 0 512 512" width="512" xmlns="http://www.w3.org/2000/svg"><g><g><path d="m512 256c0 43.79-11 85.02-30.39 121.07l-225.61 49.67-225.61-49.67c-19.39-36.05-30.39-77.28-30.39-121.07 0-46.63 12.47-90.34 34.26-128 41.698 72.091 399.22 76.52 443.48 0 21.79 37.66 34.26 81.37 34.26 128z" fill="#9965d8"/><path d="m477.74 128c-44.26 76.52-126.99 128-221.74 128s-177.48-51.48-221.74-128c.01-.02.03-.05.04-.07 44.27-76.48 126.98-127.93 221.7-127.93s177.43 51.45 221.7 127.93c.01.02.03.05.04.07z" fill="#b895e5"/><path d="m481.61 377.07c-43.19 80.32-128.02 134.93-225.61 134.93s-182.42-54.61-225.61-134.93z" fill="#5541b6"/></g><path d="m310.864 120.811h-109.728c-16.926 0-30.647-13.721-30.647-30.647v-15.76h171.022v15.76c0 16.926-13.721 30.647-30.647 30.647z" fill="#464652"/><path d="m451.735 204.322v84.369h-32.91v-84.369c0-61.881-50.341-112.233-112.233-112.233h-101.185c-61.892 0-112.233 50.352-112.233 112.233v84.369h-32.91v-84.369c0-80.036 65.106-145.142 145.142-145.142h101.186c80.037-.001 145.143 65.106 145.143 145.142z" fill="#e8ebf7"/><path d="m451.735 204.322v84.369h-32.91v-84.369c0-61.881-50.341-112.233-112.233-112.233h-50.592v-32.91h50.593c80.036 0 145.142 65.107 145.142 145.143z" fill="#daddee"/><path d="m107.22 219.67v138.04h-24.92c-25.99 0-47.06-21.07-47.06-47.06v-43.92c0-25.99 21.07-47.06 47.06-47.06z" fill="#f5dd6e"/><path d="m35.24 288.69h71.98v69.02h-24.92c-25.99 0-47.06-21.07-47.06-47.06z" fill="#eec036"/><path d="m125.75 223.19v131c0 8.92-7.24 16.15-16.16 16.15s-16.16-7.23-16.16-16.15v-131c0-8.92 7.24-16.16 16.16-16.16 4.46 0 8.5 1.81 11.43 4.73 2.92 2.93 4.73 6.97 4.73 11.43z" fill="#616579"/><path d="m476.76 266.73v43.92c0 25.99-21.07 47.06-47.06 47.06h-24.92v-138.04h24.92c25.99 0 47.06 21.07 47.06 47.06z" fill="#f5dd6e"/><path d="m476.76 288.69v21.96c0 25.99-21.07 47.06-47.06 47.06h-24.92v-69.02z" fill="#eec036"/><path d="m418.57 223.19v131c0 8.92-7.24 16.15-16.16 16.15s-16.16-7.23-16.16-16.15v-131c0-4.46 1.81-8.5 4.73-11.43 2.93-2.92 6.97-4.73 11.43-4.73 8.92 0 16.16 7.24 16.16 16.16z" fill="#616579"/><path d="m93.43 288.69h32.32v65.5c0 8.92-7.24 16.15-16.16 16.15s-16.16-7.23-16.16-16.15z" fill="#464652"/><path d="m418.57 288.69v65.5c0 8.92-7.24 16.15-16.16 16.15s-16.16-7.23-16.16-16.15v-65.5z" fill="#464652"/><g><path d="m360.449 233.656v218.832h-182.272c-14.709 0-26.626-11.923-26.626-26.626v-192.206z" fill="#e38888"/><path d="m186.87 233.656h173.578v218.832h-173.578z" fill="#db6870"/><path d="m259.247 233.655h101.203v218.834h-101.203z" fill="#db504f"/><path d="m360.447 207.03v53.253h-182.271c-7.355 0-14.01-2.981-18.828-7.799s-7.799-11.479-7.799-18.828c0-14.709 11.917-26.626 26.626-26.626z" fill="#db504f"/><path d="m259.247 207.03h101.2v53.253h-101.2z" fill="#c12439"/><path d="m360.447 222.238v22.836h-182.271c-6.296 0-11.418-5.122-11.418-11.418s5.122-11.418 11.418-11.418z" fill="#e8ebf7"/><path d="m259.247 222.238h101.2v22.836h-101.2z" fill="#daddee"/><path d="m201.707 296.97h130.678v26.23h-130.678z" fill="#616579"/><path d="m259.247 296.97h73.138v26.23h-73.138z" fill="#464652"/></g></g></svg>