<svg id="Layer_1" enable-background="new 0 0 512 512" height="512" viewBox="0 0 512 512" width="512" xmlns="http://www.w3.org/2000/svg"><g><g><circle cx="265.378" cy="256" fill="#82cd64" r="246.622"/></g><path d="m471.942 390.758c.159-.243.316-.485.473-.726 8.339-12.847-4.857-28.689-19.069-22.979-24.251 9.745-49.566 15.407-74.953 17.142-19.653 1.343-22.225-27.984-2.658-30.254l63.12-7.322c21.908 0 38.79-19.839 34.852-41.675-2.958-16.571 8.528-28.66 15.165-30.669 14.282-4.322 23.549-18.214 22.673-33.11-.121-2.06-.267-4.113-.439-6.159-1.279-15.281-12.957-27.921-28.178-29.781-1.422-.174-2.869-.263-4.339-.263h-9.521c-7.332 0-13.032-6.08-12.925-13.411.001-.069.002-.137.002-.206v-91.646c-8.521-10.387-17.877-20.06-27.96-28.929h-.667c-2.227 0-4.033-1.806-4.033-4.033-4.145-3.466-8.406-6.795-12.776-9.988h-15.833c-1.109 0-2.008.899-2.008 2.008v5.286c0 1.109.899 2.008 2.008 2.008 1.109 0 2.008.899 2.008 2.008v.704c0 1.109-.899 2.008-2.008 2.008h-21.106c-5.434 0-10.088-3.892-11.049-9.24l-1.598-8.894c-.649-3.613-3.793-6.242-7.464-6.242h-67.607c-3.671 0-6.815 2.629-7.464 6.242l-3.258 18.135h-14.038c-2.748 0-4.976-2.228-4.976-4.976 0-2.427-1.967-4.394-4.394-4.394h-6.231.001-14.581c-2.427 0-4.394 1.967-4.394 4.394 0 2.748-2.228 4.976-4.976 4.976h-4.187c-7.621 0-13.799 6.178-13.799 13.799v106.773c0 6.893 5.059 12.589 11.664 13.618h-59.669c-19.736 0-36.59-14.182-40.018-33.618-.087-.494-.173-.994-.258-1.497-6.749-40.123-61.685-46.986-77.466-9.485-12.486 29.674-19.252 62.063-19.252 95.638 0 137.503 112.935 249.746 252.384 246.549 81.352-1.869 156.262-43.652 200.802-111.791z" fill="#20b7a1"/><g><g><path d="m292.907 406.428h41.969v33.038h-41.969z" fill="#ff5551"/><path d="m297.803 406.428h-34.997l-14.055 44.508h86.124v-14.014h-26.534c-9.99 0-17.102-9.705-14.094-19.231z" fill="#e20a62"/><path d="m408.344 439.466 10.433-33.038h-52.069v33.038z" fill="#2d56a1"/><path d="m368.583 406.428h-33.707v44.508h69.847l4.426-14.014h-25.785c-8.163 0-14.78-6.617-14.78-14.78v-15.714z" fill="#1a396b"/></g><g><path d="m422.104 288.988h-263.699v51.567h295.213c2.488-4.844 3.901-10.332 3.901-16.152 0-19.559-15.856-35.415-35.415-35.415z" fill="#2896ff"/><path d="m455.599 312.903c-4.776 13.912-17.963 23.915-33.495 23.915h-219.37c-6.741 0-12.03-5.543-12.006-12.284 0-.044 0-.087 0-.131 0-19.559-15.856-35.414-35.414-35.414h-64.88v70.829h26.108 38.773 266.79c19.559 0 35.414-15.856 35.414-35.414 0-4.028-.682-7.894-1.92-11.501z" fill="#2d56a1"/><path d="m68.857 359.818h64.881c19.559 0 35.414-15.856 35.414-35.414 0-19.559-15.856-35.414-35.414-35.414h-64.881z" fill="#6ee1ff"/><path d="m68.857 349.368h60.218c13.788 0 24.965-11.177 24.965-24.965 0-13.788-11.177-24.965-24.965-24.965h-60.218z" fill="#fff"/></g><path d="m493.955 268.501c2.112-4.537 3.299-9.592 3.299-14.927 0-19.559-15.856-35.414-35.415-35.414h-268.062v50.341z" fill="#ff8500"/><path d="m497.254 253.436c-.017-4.446-5.621-6.339-8.513-2.961-6.492 7.585-16.133 12.394-26.902 12.394h-221.248c-5.048 0-9.005-4.15-8.991-9.198 0-.032 0-.064 0-.096 0-19.559-15.856-35.414-35.414-35.414h-64.881v70.829h19.879 45.002 265.654c19.559 0 35.415-15.856 35.415-35.415-.001-.047-.001-.093-.001-.139z" fill="#fa690f"/><path d="m108.592 288.989h64.881c19.559 0 35.414-15.856 35.414-35.414 0-19.559-15.856-35.414-35.414-35.414h-64.881z" fill="#ffc305"/><path d="m108.592 278.539h60.218c13.788 0 24.965-11.177 24.965-24.965 0-13.788-11.177-24.965-24.965-24.965h-60.218z" fill="#fff"/><g><g><path d="m209.967 85.967h29.6v-6.973c0-2.427-1.967-4.394-4.394-4.394h-20.812c-2.427 0-4.394 1.967-4.394 4.394z" fill="#6ee1ff"/><path d="m228.942 74.6h6.231c2.427 0 4.394 1.967 4.394 4.394v6.973h-6.231v-6.973c0-2.427-1.968-4.394-4.394-4.394z" fill="#2896ff"/><path d="m380.134 77.75h26.601v10.579h-26.601z" fill="#2896ff" transform="matrix(-1 0 0 -1 786.87 166.078)"/><path d="m376.119 69.949h34.255v9.301h-34.255z" fill="#6ee1ff" transform="matrix(-1 0 0 -1 786.493 149.2)"/><path d="m319.545 88.329h28.871l-4.041-22.494c-.649-3.613-3.793-6.242-7.464-6.242h-17.366z" fill="#1a396b"/><path d="m257.798 88.329h75.039l-4.042-22.494c-.649-3.613-3.793-6.242-7.464-6.242h-52.029c-3.671 0-6.815 2.629-7.464 6.242z" fill="#2896ff"/><path d="m273.045 71.529h35.148v12.441h-35.148z" fill="#fff" transform="matrix(-1 0 0 -1 581.238 155.499)"/><path d="m306.9 71.529h10.245v12.441h-10.245z" fill="#1a396b" transform="matrix(-1 0 0 -1 624.046 155.499)"/><path d="m425.596 218.341h-62.138v-134.371h62.138c7.621 0 13.799 6.178 13.799 13.799v106.773c0 7.621-6.178 13.799-13.799 13.799z" fill="#1a396b"/><path d="m200.804 218.341h187.995c7.621 0 13.799-6.178 13.799-13.799v-106.773c0-7.621-6.178-13.799-13.799-13.799h-187.995c-7.621 0-13.799 6.178-13.799 13.799v106.773c0 7.621 6.178 13.799 13.799 13.799z" fill="#2896ff"/><path d="m276.99 91.989h26.817v124.434h-26.817z" fill="#1a396b" transform="matrix(-1 0 0 -1 580.796 308.413)"/><path d="m187.005 117.896h215.594v66.519h-215.594z" fill="#6ee1ff" transform="matrix(-1 0 0 -1 589.604 302.311)"/><circle cx="361.433" cy="101.961" fill="#ff5551" r="5.535"/><circle cx="301.915" cy="154.223" fill="#1a396b" r="62.234"/><circle cx="276.99" cy="154.223" fill="#2896ff" r="62.234"/><path d="m227.208 154.223c0 15.036 6.666 28.515 17.204 37.643 8.731 7.563 20.12 4.687 32.577 4.687 27.494 0 45.287-14.837 45.287-42.331 0-2.523 4.307-5.003 3.945-7.425-3.585-23.972-24.261-42.357-49.232-42.357-27.493.001-49.781 22.289-49.781 49.783z" fill="#f8e000"/><path d="m244.413 191.865c-4.113-3.563-.044-10.069 4.96-7.929.133.057.266.113.399.169 4.437 1.851 8.393-3.345 5.555-7.226-3.491-4.773-5.442-10.743-5.12-17.181.715-14.29 12.827-25.62 27.134-25.438 10.241.13 18.883 5.93 23.305 14.182 2.879 5.372 10.952 4.254 12.349-1.678.039-.166.077-.332.115-.498 1.605-7.145 12.026-6.709 13.111.533.411 2.746.598 5.566.541 8.44-.543 27.207-23.298 49.155-50.507 48.761-12.171-.177-23.283-4.721-31.842-12.135z" fill="#ffc305"/><circle cx="276.99" cy="154.223" fill="#1a396b" r="26.817"/><circle cx="268.246" cy="136.877" fill="#fff" r="12.219"/></g></g><path d="m0 362.047h222.276v19.151h-222.276z" fill="#ffc305"/><path d="m0 349.226h222.276v15.298h-222.276z" fill="#f8e000"/><path d="m0 379.74h222.276v14.281h-222.276z" fill="#ff8500"/><path d="m222.276 394.02 45.144-22.397-45.144-22.397z" fill="#fff"/><path d="m248.12 362.047v19.151l19.3-9.575z" fill="#ffc305"/><path d="m248.12 375.675v5.523l19.3-9.575z" fill="#ff8500"/></g></g></svg>