<svg id="Capa_1" enable-background="new 0 0 512 512" height="512" viewBox="0 0 512 512" width="512" xmlns="http://www.w3.org/2000/svg"><g><g><path d="m256 324.567c-141.387 0-244.807-154.319-225.103-190.592 43.351-79.802 127.899-133.975 225.103-133.975 95.17 0 178.208 51.929 222.328 128.999 21.425 37.427-80.941 195.568-222.328 195.568z" fill="#8bfff4"/><path d="m512 256c0 26.051-3.891 51.191-11.129 74.871-5.031 16.469-11.672 32.231-19.75 47.109-8.25 15.2-147.391 66.869-225.121 66.869s-216.871-51.669-225.109-66.869c-3.289-6.031-6.332-12.21-9.121-18.531-14-31.629-21.77-66.629-21.77-103.449 0-46.219 12.25-89.57 33.68-127 44.121 77.07 127.16 129 222.32 129s178.211-51.93 222.32-129c21.43 37.43 33.68 80.781 33.68 127zm0 0" fill="#2dceea"/><path d="m481.262 377.699c-7.16 13.223-15.434 25.742-24.723 37.43-4.68 5.898-9.62 11.582-14.798 17.036-4.157 4.379-119.132 28.875-185.741 28.875s-181.051-23.974-184.969-28.065c-5.46-5.701-10.658-11.656-15.57-17.846-9.289-11.688-17.563-24.207-24.723-37.43zm0 0" fill="#429dea"/></g><g><path d="m442.121 431.756v-53.994c0-49.715-19.36-96.454-54.513-131.607-35.154-35.154-81.893-54.514-131.608-54.514l-98.825 154.003 98.824 166.356h.001c73.33 0 139.449-30.838 186.121-80.244z" fill="#ff7040"/><path d="m69.878 377.762v53.993c46.671 49.406 112.791 80.245 186.121 80.245v-320.359c-49.715 0-96.454 19.36-131.608 54.514-35.153 35.153-54.513 81.892-54.513 131.607z" fill="#ff903d"/><path d="m69.878 377.762v53.993c25.223 26.701 56.128 47.972 90.783 61.888v-275.815c-13.054 7.813-25.233 17.29-36.27 28.326-35.153 35.154-54.513 81.893-54.513 131.608z" fill="#ffa35e"/><path d="m293.855 168.838 42.028-78.493h-79.883l-37.059 50.648 37.059 50.648c16.416 0 30.668-9.242 37.855-22.803z" fill="#ff4f42"/><path d="m176.116 90.345 42.028 78.493c7.187 13.561 21.439 22.803 37.856 22.803v-101.296z" fill="#ff7040"/><path d="m223.978 90.345h-47.862l42.028 78.493c1.605 3.028 3.579 5.825 5.835 8.368v-86.861z" fill="#ff906b"/><path d="m255.999 241.054-52.295 104.59 52.295 104.59c57.764 0 104.59-46.827 104.59-104.59s-46.826-104.59-104.59-104.59z" fill="#ffb03b"/><path d="m151.409 345.644c0 57.764 46.827 104.59 104.59 104.59v-209.18c-57.763 0-104.59 46.826-104.59 104.59z" fill="#ffc46c"/><path d="m255.999 278.113-33.765 67.531 33.765 67.531c37.296 0 67.531-30.234 67.531-67.531 0-37.296-30.234-67.531-67.531-67.531z" fill="#ffd89d"/><path d="m188.469 345.644c0 37.296 30.234 67.531 67.531 67.531v-135.062c-37.297 0-67.531 30.235-67.531 67.531z" fill="#ffebce"/></g><g fill="#fff"><path d="m45.172 245.409h1.524c6.754 0 12.226 5.472 12.226 12.226v1.528h8.715v-1.528c0-6.754 5.477-12.226 12.227-12.226h1.527v-8.715h-1.527c-6.75 0-12.227-5.477-12.227-12.227v-1.523h-8.715v1.523c0 6.75-5.472 12.227-12.226 12.227h-1.524zm0-8.715"/><path d="m108.124 157.409h1.524c6.754 0 12.226 5.472 12.226 12.226v1.528h8.715v-1.528c0-6.754 5.477-12.226 12.227-12.226h1.527v-8.715h-1.527c-6.75 0-12.227-5.477-12.227-12.227v-1.523h-8.715v1.523c0 6.75-5.472 12.227-12.226 12.227h-1.524zm0-8.715"/><path d="m472.287 236.694h-1.524c-6.754 0-12.226-5.477-12.226-12.227v-1.523h-8.715v1.523c0 6.75-5.477 12.227-12.227 12.227h-1.527v8.715h1.527c6.75 0 12.227 5.472 12.227 12.226v1.528h8.715v-1.528c0-6.754 5.472-12.226 12.226-12.226h1.524zm0 0"/><path d="m409.335 148.694h-1.524c-6.754 0-12.226-5.477-12.226-12.227v-1.523h-8.715v1.523c0 6.75-5.477 12.227-12.227 12.227h-1.527v8.715h1.527c6.75 0 12.227 5.472 12.227 12.226v1.528h8.715v-1.528c0-6.754 5.472-12.226 12.226-12.226h1.524zm0 0"/></g></g></svg>