<svg id="Icons" enable-background="new 0 0 512 512" height="512" viewBox="0 0 512 512" width="512" xmlns="http://www.w3.org/2000/svg"><g><path d="m512 256c0 115.77-76.85 213.59-182.32 245.24-3.3.99-6.63 1.91-9.99 2.77-20.36 5.22-41.7 7.99-63.69 7.99-13.45 0-26.66-1.04-39.55-3.04-6.75-1.04-13.42-2.36-19.99-3.93-112.67-26.83-196.46-128.15-196.46-249.03 0-67.75 26.32-129.35 69.29-175.14 6.3-6.71 12.95-13.08 19.94-19.08 17.29-14.87 36.6-27.47 57.45-37.32 33.15-15.69 70.21-24.46 109.32-24.46 141.38 0 256 114.62 256 256z" fill="#22bce0"/><g id="Person_6_"><g><path d="m367.879 463.278c-18.974 0-44.222-10.467-84.101-33.996l16.77-28.422c47.732 28.163 65.139 31.189 71.335 28.769 9.73-4.216 17.809-44.456 24.182-60.89l31.256 10.588c-12.656 35.63-17.315 84.159-59.442 83.951z" fill="#2d2667"/></g><g id="Hand_8_"><path d="m395.839 368.114c.003 7.387 5.988 13.394 13.39 13.39h36.36c7.461.02 13.418-6.142 13.39-13.39-.002-7.402-5.988-13.388-13.39-13.39h-36.36c-7.252-.029-13.407 5.921-13.39 13.39z" fill="#a26d5a"/><path d="m401.839 362.114c.003 7.387 5.988 13.394 13.39 13.39h36.36c2.15 0 4.17-.5 5.97-1.4 4.525-8.617-2.18-19.563-11.97-19.38h-36.36c-2.15 0-4.18.51-5.98 1.41-.9 1.8-1.41 3.83-1.41 5.98z" fill="#d48d77"/></g><g id="Arm_7_"><path d="m210.549 441.256c-66.155.465-86.142-32.693-95.214-90.097-1.893-10.111-4.417-21.991-6.989-32.307l34.626 2.934c14.231 64.504 7.59 93.057 90.813 85.218l3.225 32.842c-9.528.935-18.329 1.41-26.461 1.41z" fill="#2d2667"/></g><g id="Hand_7_"><path d="m139.213 332.827c-5.225 5.222-13.705 5.237-18.936 0 0 0-25.71-25.71-25.71-25.71-5.29-5.261-5.146-13.831 0-18.936 5.236-5.233 13.7-5.233 18.936 0 0 0 25.71 25.71 25.71 25.71 5.148 5.107 5.293 13.666 0 18.936z" fill="#a26d5a"/><path d="m139.213 324.341c-5.226 5.222-13.705 5.237-18.936 0 0 0-25.71-25.71-25.71-25.71-1.52-1.52-2.595-3.302-3.232-5.211 2.894-9.293 15.374-12.292 22.168-5.239 0 0 25.71 25.71 25.71 25.71 1.52 1.52 2.595 3.316 3.231 5.225-.636 1.909-1.711 3.705-3.231 5.225z" fill="#d48d77"/></g><g id="Body_9_"><path d="m329.68 455.13v46.11c-42.323 12.834-89.897 14.261-133.22 3.79v-49.9c0-4.91.54-9.69 1.55-14.29 2.75-12.59 9.05-23.85 17.82-32.67 42.063-41.877 113.501-12.49 113.85 46.96z" fill="#2d2667"/><path d="m329.68 455.13v46.11c-35.774 10.851-75.883 13.618-113.23 7.72v-53.83c.009-4.658.49-9.321 1.45-13.87 2.072-9.693 6.307-18.927 12.39-26.75 4.823-6.268 10.797-11.7 17.52-15.89h.01v-.01c2.913-1.796 5.931-3.411 9.08-4.73 3.597-1.57 7.341-2.749 11.16-3.65 1.65-.38 3.32-.72 5.02-.97 2.024.298 4.016.706 5.99 1.19 29.411 7.046 50.869 34.49 50.61 64.68z" fill="#6c53a2"/><path d="m319.69 455.13v48.88c-32.606 8.499-69.516 10.304-103.24 4.95v-53.83c.009-4.658.49-9.321 1.45-13.87 2.07-9.695 6.309-18.924 12.39-26.75 4.81-6.271 10.807-11.698 17.52-15.89h.01v-.01c2.913-1.796 5.931-3.411 9.08-4.73 3.512-1.527 7.16-2.703 10.89-3.58 3.883.505 7.655 2.111 11.28 3.5 24.337 10.248 40.777 34.667 40.62 61.33z" fill="#57409b"/></g><g id="HEAD_9_"><g id="Ears_8_"><path d="m227.716 336.273c.734 8.912-6.136 16.832-15.187 16.783h-12.83c-20.305-.496-20.305-31.474 0-31.97h12.83c8.387.001 15.187 6.8 15.187 15.187z" fill="#c17e62"/><path d="m341.653 336.273c.734 8.912-6.136 16.832-15.187 16.783h-12.83c-20.305-.496-20.305-31.474 0-31.97h12.83c8.388.001 15.187 6.8 15.187 15.187z" fill="#c17e62"/><g fill="#a26d5a"><path d="m233.099 337.072c0 3.517-2.851 6.369-6.369 6.369h-23.891c-3.517 0-6.369-2.851-6.369-6.369 0-3.517 2.851-6.369 6.369-6.369h23.891c3.517 0 6.369 2.851 6.369 6.369z"/><path d="m329.694 337.072c0 3.517-2.851 6.369-6.369 6.369h-23.891c-3.517 0-6.369-2.851-6.369-6.369 0-3.517 2.851-6.369 6.369-6.369h23.891c3.518 0 6.369 2.851 6.369 6.369z"/></g></g><g id="Neck_8_"><g><path d="m279.069 377.973v15.9c.047 8.884-7.383 16.056-15.99 15.98-8.83 0-15.98-7.15-15.98-15.98v-15.9c-.152-10.304 10.073-18.155 19.98-15.48 6.982 1.821 11.986 8.081 11.99 15.48z" fill="#a26d5a"/></g><g><path d="m279.069 377.973v15.9c0 7.45-5.1 13.7-11.99 15.48-6.89-1.78-11.99-8.03-11.99-15.48v-15.9c0-7.45 5.1-13.7 11.99-15.48 6.982 1.821 11.986 8.081 11.99 15.48z" fill="#c17e62"/></g><g><path d="m279.069 377.973v14.64c-3.74.85-7.64 1.3-11.64 1.3-6.31.005-14.247.273-20.33-1.3v-14.64c-.152-10.304 10.073-18.154 19.98-15.48 6.982 1.821 11.986 8.081 11.99 15.48z" fill="#a26d5a"/></g><g><path d="m279.069 377.973v15.9c.047 8.884-7.383 16.056-15.99 15.98-8.83 0-15.98-7.15-15.98-15.98v-15.9c-.152-10.304 10.073-18.155 19.98-15.48 6.982 1.821 11.986 8.081 11.99 15.48z" fill="none"/></g></g><g id="Face_8_"><g><path d="m320.049 297.283v36.02c.107 29.116-23.95 52.753-52.62 52.62h-8.69c-29.07 0-52.63-23.56-52.63-52.62v-36.02c0-29.06 23.56-52.62 52.63-52.62h8.69c28.671-.129 52.727 23.502 52.62 52.62z" fill="#c17e62"/></g><g><path d="m320.049 297.283v36.02c0 27.66-21.35 50.34-48.47 52.46-27.12-2.11-48.48-24.79-48.48-52.46v-36.02c0-27.67 21.36-50.35 48.48-52.46 27.12 2.12 48.47 24.8 48.47 52.46z" fill="#d48d77"/></g></g><path d="m263.082 360.643c-6.594 0-12.557-2.021-15.562-5.275-1.746-1.96 1.118-4.616 2.939-2.714 4.583 5.253 20.665 5.251 25.246 0 1.805-1.9 4.695.751 2.938 2.714-3.004 3.253-8.967 5.275-15.561 5.275z" fill="#a26d5a"/><path d="m271.847 342.585h-17.529c-2.624-.043-2.633-3.955 0-4h17.529c2.623.043 2.632 3.955 0 4z" fill="#c17e62"/><g id="Eyes_9_"><path d="m248.991 322.873c0-4.32-3.502-7.822-7.822-7.822-10.364.383-10.361 15.261 0 15.643 4.32 0 7.822-3.502 7.822-7.821z" fill="#eab39b"/><path d="m292.817 322.873c0-4.32-3.502-7.822-7.822-7.822-10.364.383-10.361 15.261 0 15.643 4.32 0 7.822-3.502 7.822-7.821z" fill="#eab39b"/><path d="m248.457 325.792c0-4.025-3.263-7.288-7.288-7.288-9.647.333-9.644 14.243 0 14.575 4.025.001 7.288-3.262 7.288-7.287z" fill="#122894"/><path d="m246.267 325.943c3.374-3.549-1.701-8.622-5.249-5.249-3.374 3.549 1.701 8.623 5.249 5.249z" fill="#e8f3fc"/><path d="m292.283 325.792c0-4.025-3.263-7.288-7.288-7.288-9.647.333-9.645 14.243 0 14.575 4.026.001 7.288-3.262 7.288-7.287z" fill="#122894"/><path d="m290.094 325.943c3.374-3.549-1.701-8.622-5.249-5.249-3.374 3.549 1.701 8.623 5.249 5.249z" fill="#e8f3fc"/></g></g><g id="Glasses_7_"><g id="Glasses_8_"><path d="m303.44 312.4c-8.009-3.457-20.699-3.454-28.694 0-1.835.724-3.034 2.485-3.034 4.458v10.746c.915 23.054 33.85 23.051 34.763 0v-10.745c-.001-1.974-1.2-3.735-3.035-4.459z" fill="#e8f3fc"/><path d="m289.092 346.992c-10.691 0-19.389-8.698-19.389-19.389h4.015c.847 20.401 29.908 20.385 30.748 0h4.015c0 10.691-8.698 19.389-19.389 19.389z" fill="#6c53a2"/><path d="m308.481 327.603h-4.015v-10.746c0-1.151-.692-2.168-1.763-2.591-7.527-3.273-19.71-3.267-27.221 0-1.071.423-1.764 1.439-1.764 2.591v10.746h-4.015v-10.746c0-2.811 1.69-5.293 4.305-6.325 3.217-1.27 8.445-2.784 15.084-2.784 6.638 0 11.867 1.514 15.084 2.784 2.615 1.032 4.304 3.515 4.304 6.325v10.746z" fill="#2d2667"/><path d="m250.791 312.347c-7.944-3.389-20.498-3.385-28.428 0-1.919.748-3.167 2.594-3.167 4.654v10.601c.914 23.053 33.849 23.052 34.763 0v-10.601c0-2.059-1.248-3.906-3.168-4.654z" fill="#e8f3fc"/><path d="m236.578 346.992c-10.691 0-19.389-8.698-19.389-19.389h4.015c.847 20.401 29.908 20.385 30.748 0h4.015c-.001 10.691-8.699 19.389-19.389 19.389z" fill="#6c53a2"/><g fill="#2d2667"><path d="m255.966 327.603h-4.015v-10.601c0-1.244-.742-2.337-1.889-2.785-7.45-3.206-19.535-3.201-26.97 0-1.148.447-1.889 1.54-1.889 2.784v10.601h-4.015v-10.601c0-2.912 1.745-5.473 4.446-6.525 3.192-1.245 8.377-2.729 14.942-2.729s11.75 1.484 14.943 2.729c2.701 1.052 4.446 3.614 4.446 6.525v10.602z"/><path d="m269.926 323.678c-1.402-1.45-12.703-1.455-14.106-.022.002-.002.238-.244.22-.815l-4.013.126c.328-3.672 5.083-4.332 10.808-4.412 9.47 0 10.884 2.725 10.884 4.349h-4.015c-.001.543.22.772.222.774z"/><path d="m320.051 315.823h-13.578c-1.108 0-2.007-.899-2.007-2.007s.899-2.007 2.007-2.007h13.578c2.635.043 2.642 3.969 0 4.014z"/><path d="m219.196 315.823h-13.577c-2.634-.044-2.641-3.969 0-4.015h13.577c2.635.044 2.642 3.97 0 4.015z"/></g></g><path d="m248.682 322.796c0-4.339-3.517-7.856-7.856-7.856-10.409.385-10.406 15.328 0 15.711 4.339 0 7.856-3.517 7.856-7.855z" fill="#98cbef"/><path d="m292.699 322.796c0-4.339-3.517-7.856-7.856-7.856-10.409.385-10.406 15.328 0 15.711 4.339 0 7.856-3.517 7.856-7.855z" fill="#98cbef"/><g><path d="m248.146 325.728c0-4.042-3.277-7.319-7.319-7.319-9.689.335-9.686 14.305 0 14.638 4.042 0 7.319-3.277 7.319-7.319z" fill="#122894"/></g><path d="m245.946 325.88c3.388-3.564-1.708-8.66-5.272-5.272-3.388 3.564 1.709 8.66 5.272 5.272z" fill="#e8f3fc"/><path d="m292.163 325.728c0-4.042-3.277-7.319-7.319-7.319-9.689.335-9.686 14.305 0 14.638 4.042 0 7.319-3.277 7.319-7.319z" fill="#122894"/><path d="m289.963 325.88c3.388-3.564-1.708-8.66-5.272-5.272-3.388 3.564 1.709 8.66 5.272 5.272z" fill="#e8f3fc"/></g></g><g id="Speech-bubble_4_"><path d="m176.089 271.54c-4.569 0-9.045-2.231-11.734-6.339l-45.178-69.045c-9.551-15.922 12.632-30.494 23.442-15.339 0 0 45.178 69.045 45.178 69.045 6.15 9.097-.812 21.849-11.708 21.678z" fill="#ebd9ea"/><path d="m311.38 77.86v87.48c0 12.34-4.18 23.69-11.2 32.74-9.77 12.58-25.04 20.67-42.2 20.67h-135.29c-17.16 0-32.43-8.09-42.19-20.67-7.03-9.05-11.21-20.4-11.21-32.74v-84.48c22.015-23.433 48.151-42.578 77.39-56.4h111.3c29.649-.001 53.438 24.109 53.4 53.4z" fill="#ebd9ea"/><path d="m311.38 77.858v87.48c0 12.34-4.18 23.69-11.2 32.74-7.03-9.05-11.21-20.4-11.21-32.74v-87.48c0-12.34 4.18-23.69 11.21-32.73 7.02 9.04 11.2 20.39 11.2 32.73z" fill="#fff"/><path d="m91.7 77.86v87.48c0 12.34-4.18 23.69-11.2 32.74-7.03-9.05-11.21-20.4-11.21-32.74v-84.48c6.3-6.71 12.95-13.08 19.94-19.08 1.61 5.07 2.47 10.47 2.47 16.08z" fill="#c1b7d3"/></g><g><g><path d="m201.5 135.053h56.187c7.755 0 12.614-8.381 8.76-15.111l-28.093-49.061c-3.877-6.771-13.643-6.771-17.52 0l-28.093 49.061c-3.854 6.73 1.004 15.111 8.759 15.111z" fill="#ea792e"/><path d="m242.498 116.983c-5.165 2.982-11.769 1.212-14.751-3.953l-6.234-10.797c-6.662-12.695 11.039-22.918 18.704-10.799 0 0 6.234 10.797 6.234 10.797 2.981 5.166 1.212 11.77-3.953 14.752z" fill="#f39e22"/></g><g><path d="m185.525 94.432c0-20.062-16.264-36.326-36.326-36.326-48.185 1.913-48.172 70.745 0 72.651 20.062 0 36.326-16.263 36.326-36.325z" fill="#53b976"/><path d="m170.136 87.384c0-7.922-6.422-14.343-14.343-14.343-19.026.755-19.021 27.934 0 28.687 7.921 0 14.343-6.422 14.343-14.344z" fill="#9acdae"/></g><g><path d="m201.471 119.538h-38.983c-7.34 0-13.29 5.95-13.29 13.29v38.983c0 7.34 5.95 13.29 13.29 13.29h38.983c7.34 0 13.29-5.95 13.29-13.29v-38.983c0-7.34-5.95-13.29-13.29-13.29z" fill="#e9465e"/><path d="m193.311 164.823c-5.964 0-10.799-4.835-10.799-10.799v-12.468c.578-14.325 21.019-14.327 21.598 0v12.468c0 5.964-4.835 10.799-10.799 10.799z" fill="#ee6781"/></g></g><g id="Lightbulb_4_"><g><path d="m465.016 200.163c.113 14.046-8.356 24.131-14.442 35.601-2.874 5.461-10.497 28.574-10.648 29.48h-44.484s-7.863-25.491-12.493-32.999c-6.119-9.867-12.593-19.687-12.608-32.082-.04-25.909 21.043-47.343 47.338-47.338 25.62-.195 47.533 21.215 47.337 47.338z" fill="#daab42"/><path d="m388.806 200.163c0 10.213-3.232 19.68-8.745 27.417-5.078-8.31-9.72-16.987-9.72-27.417 0-10.511 3.427-20.23 9.238-28.082 5.8 7.852 9.227 17.571 9.227 28.082z" fill="#c4983d"/><path d="m465.016 200.163c.113 14.045-8.356 24.132-14.442 35.601-1.49 3.175-3.117 7.359-4.653 11.577-57.798 3.071-70.955-76.839-16.058-92.922 20.477 5.468 35.136 23.954 35.153 45.744z" fill="#f9c744"/><path d="m465.016 200.163c.113 14.045-8.357 24.132-14.442 35.601-21.101-18.096-21.415-51.971-.837-70.434 9.399 8.654 15.279 21.056 15.279 34.833z" fill="#f8d07a"/><path d="m457.551 189.949c0-10.727-8.696-19.424-19.424-19.424-25.765 1.023-25.758 37.828 0 38.847 10.727.001 19.424-8.696 19.424-19.423z" fill="#fbd9a3"/><path d="m465.016 200.163c.113 14.046-8.356 24.131-14.442 35.601-2.874 5.461-10.497 28.574-10.648 29.48h-44.484s-7.863-25.491-12.493-32.999c-6.119-9.867-12.593-19.687-12.608-32.082-.04-25.909 21.043-47.343 47.338-47.338 25.62-.195 47.533 21.215 47.337 47.338z" fill="none"/></g><g><path d="m434.447 304.73v6.728c0 6.98-4.275 12.975-10.339 15.497-10.665 4.654-23.444-3.763-23.187-15.497v-6.728z" fill="#2e3140"/><path d="m434.447 304.73v6.728c0 6.98-4.275 12.975-10.339 15.497-6.075-2.522-10.35-8.505-10.35-15.497v-6.728z" fill="#3e4e60"/><path d="m434.447 304.73v6.728c0 6.98-4.275 12.975-10.339 15.497-10.665 4.654-23.444-3.763-23.187-15.497v-6.728z" fill="none"/></g><g><path d="m410.254 232.446h14.86v32.799h-14.86z" fill="#bf5e39"/><path d="m417.684 232.446h7.43v32.799h-7.43z" fill="#dd5e26"/></g><g><path d="m439.64 223.19c.041 4.991-4.12 9.287-9.261 9.261h-25.388c-2.556 0-4.871-1.043-6.545-2.716-5.792-5.662-1.662-15.867 6.545-15.806h25.388c5.109.005 9.264 4.151 9.261 9.261z" fill="#bf5e39"/><path d="m439.64 223.19c0 .917-.126 1.8-.378 2.625h-24.047c-6.082.106-10.681-6.105-8.883-11.886h24.047c5.109.005 9.264 4.151 9.261 9.261z" fill="#dd5e26"/><path d="m436.923 216.645c2.315 2.206 3.338 6.004 2.338 9.17h-8.608c-6.083.108-10.674-6.107-8.872-11.886h8.596c2.558 0 4.873 1.043 6.546 2.716z" fill="#ea792e"/><path d="m439.64 223.19c.041 4.991-4.12 9.287-9.261 9.261h-25.388c-2.556 0-4.871-1.043-6.545-2.716-5.792-5.662-1.662-15.867 6.545-15.806h25.388c5.109.005 9.264 4.151 9.261 9.261z" fill="none"/></g><g><path d="m452.901 277.634c.038 6.739-7.15 7.978-12.379 12.379-1.032.883-.883 5.33-.883 5.33 0 12.127-9.834 21.961-21.961 21.961-12.168.082-22.039-10.13-21.95-21.961 0 0 .149-4.447-.883-5.33-5.215-4.424-12.379-5.548-12.379-12.379 0-6.843 5.536-12.39 12.379-12.39h45.676c6.844 0 12.38 5.547 12.38 12.39z" fill="#c1b7d3"/><path d="m452.878 277.634c.107 6.735-7.152 7.981-12.356 12.379-1.032.883-.883 5.33-.883 5.33 0 12.127-9.834 21.961-21.961 21.961-12.168.082-22.039-10.13-21.95-21.961 0 0 .149-4.447-.883-5.33-5.215-4.424-12.379-5.548-12.379-12.379z" fill="#aea7b9"/><path d="m425.117 277.634s-3.679 26.477-27.291 27.085c-1.341-2.843-2.098-6.018-2.098-9.376 0 0 .149-4.447-.883-5.33-5.215-4.424-12.379-5.548-12.379-12.379z" fill="#9f90ae"/><path d="m414.423 271.433c0 3.427-2.774 6.201-6.189 6.201h-25.766c0-6.843 5.536-12.39 12.379-12.39h13.388c3.415 0 6.188 2.774 6.188 6.189z" fill="#aea7b9"/><path d="m431.123 303.699c0 2.51-2.04 4.55-4.562 4.55h-26.638c-1.961-2.693-3.283-5.785-3.863-9.112h30.5c2.523 0 4.563 2.04 4.563 4.562z" fill="#c1b7d3"/><g fill="#ebd9ea"><path d="m422.025 308.251h-2.907c-2.516 0-4.555-2.039-4.555-4.555s2.039-4.555 4.555-4.555h2.907c6.02.186 6.02 8.925 0 9.11z"/><path d="m438.221 274.354h-13.826c-2.516 0-4.555-2.039-4.555-4.555s2.039-4.555 4.555-4.555h13.826c6.017.185 6.023 8.924 0 9.11z"/></g></g></g></g></svg>