<svg id="Capa_1" enable-background="new 0 0 512 512" height="512" viewBox="0 0 512 512" width="512" xmlns="http://www.w3.org/2000/svg"><g><g><path d="m256 315.26c-141.387 0-244.016-147.9-223.017-185.05 43.94-77.736 127.349-130.21 223.017-130.21 95.595 0 178.95 52.394 222.916 130.033 21.061 37.191-81.529 185.227-222.916 185.227z" fill="#e36565"/><path d="m512 256c0 26.051-3.891 51.191-11.129 74.871-5.031 16.469-11.672 32.231-19.75 47.109-8.25 15.2-147.391 37.291-225.121 37.291s-216.871-22.091-225.109-37.291c-3.289-6.031-6.332-12.21-9.121-18.531-14-31.629-21.77-66.629-21.77-103.449 0-46.219 12.25-89.57 33.68-127 44.121 77.07 127.16 129 222.32 129s178.211-51.93 222.32-129c21.43 37.43 33.68 80.781 33.68 127zm0 0" fill="#da3f3e"/><path d="m481.262 377.699c-7.16 13.223-101.735 104.771-130.903 116.345-8.838 3.507-17.917 6.536-27.207 9.055-21.401 5.804-112.903 5.804-134.304 0-9.059-2.457-17.918-5.398-26.548-8.795-29.427-11.582-124.402-103.382-131.562-116.605zm0 0" fill="#a52020"/></g><g><path d="m403.737 323.972v67.153h-26.862v-40.292h-107.444v40.292h-26.862v-40.292h-107.444v40.292h-26.862v-67.153h134.306v-40.292h26.862v40.292z" fill="#8ab8ec"/><path d="m403.737 323.972v67.153h-26.862v-40.292h-107.444v40.292h-13.431v-107.445h13.431v40.292z" fill="#728ee4"/><path d="m350.014 494.184c56.245-22.218 102.731-63.783 131.263-116.49h-131.263z" fill="#3b3b3b"/><path d="m256 202.201h-94.014v54.618c0 27.832 47.217 40.292 94.014 40.292s94.014-12.46 94.014-40.292v-54.618z" fill="#dce0ef"/><path d="m350.014 256.819v-54.618h-94.014v94.91c46.797 0 94.014-12.46 94.014-40.292z" fill="#cad0e7"/><path d="m256 148.479h-94.014v53.722c0 27.832 47.217 40.292 94.014 40.292s94.014-12.46 94.014-40.292v-53.722z" fill="#fbf5eb"/><path d="m350.014 202.201v-53.722h-94.014v94.014c46.797 0 94.014-12.46 94.014-40.292z" fill="#dce0ef"/><path d="m256 93.861h-94.014v54.618c0 27.832 47.217 40.292 94.014 40.292s94.014-12.46 94.014-40.292v-54.618z" fill="#dce0ef"/><path d="m350.014 148.479v-54.618h-94.014v94.909c46.797 0 94.014-12.459 94.014-40.291z" fill="#cad0e7"/><ellipse cx="256" cy="93.861" fill="#fbf5eb" rx="94.014" ry="40.292"/><path d="m350.014 93.861c0-27.832-47.217-40.292-94.014-40.292v80.583c46.797.001 94.014-12.459 94.014-40.291z" fill="#dce0ef"/><path d="m323.153 377.694h-134.306v125.387c21.404 5.804 43.913 8.919 67.153 8.919s45.75-3.115 67.153-8.918z" fill="#535564"/><path d="m323.153 377.694h-67.153v134.306c23.24 0 45.75-3.115 67.153-8.918z" fill="#3b3b3b"/><path d="m242.569 431.417h26.861v26.861h-26.861z" fill="#8ab8ec"/><path d="m256 431.417h13.431v26.861h-13.431z" fill="#728ee4"/><path d="m403.737 458.277h9.17c6.126-4.759 12.027-9.793 17.691-15.079v-11.782h-26.861z" fill="#728ee4"/><path d="m161.986 494.184v-116.49h-131.264c28.532 52.707 75.019 94.272 131.264 116.49z" fill="#5f657a"/><path d="m94.385 454.53c20.204 16.468 42.963 29.922 67.6 39.654v-116.49h-67.6z" fill="#535564"/><path d="m81.402 443.199c5.664 5.286 11.565 10.32 17.691 15.079h9.17v-26.861h-26.861z" fill="#8ab8ec"/></g><g fill="#fff"><path d="m437.551 163.003h-1.524c-6.754 0-12.226-5.477-12.226-12.227v-1.523h-8.715v1.523c0 6.75-5.477 12.227-12.227 12.227h-1.527v8.715h1.527c6.75 0 12.227 5.472 12.227 12.226v1.528h8.715v-1.528c0-6.754 5.472-12.226 12.226-12.226h1.524zm0 0"/><path d="m476.626 269.75h-1.524c-6.754 0-12.226-5.477-12.226-12.227v-1.523h-8.715v1.523c0 6.75-5.477 12.227-12.227 12.227h-1.527v8.715h1.527c6.75 0 12.227 5.472 12.227 12.226v1.528h8.715v-1.528c0-6.754 5.472-12.226 12.226-12.226h1.524zm0 0"/><path d="m82.83 171.717h1.524c6.754 0 12.226 5.472 12.226 12.226v1.528h8.715v-1.528c0-6.754 5.477-12.226 12.227-12.226h1.527v-8.715h-1.527c-6.75 0-12.227-5.477-12.227-12.227v-1.523h-8.715v1.523c0 6.75-5.472 12.227-12.226 12.227h-1.524zm0-8.714"/><path d="m43.755 278.465h1.524c6.754 0 12.226 5.472 12.226 12.226v1.528h8.715v-1.528c0-6.754 5.477-12.226 12.227-12.226h1.527v-8.715h-1.527c-6.75 0-12.227-5.477-12.227-12.227v-1.523h-8.715v1.523c0 6.75-5.472 12.227-12.226 12.227h-1.524zm0-8.715"/></g></g></svg>