<svg id="Capa_1" enable-background="new 0 0 512.002 512.002" height="512" viewBox="0 0 512.002 512.002" width="512" xmlns="http://www.w3.org/2000/svg"><g><g><path d="m512.001 256c0 141.387-114.613 256-256 256s-256-114.613-256-256 114.613-256 256-256 256 114.613 256 256zm0 0" fill="#576ceb"/><path d="m512.001 256c0 26.051-3.891 51.191-11.129 74.871-5.031 16.469-11.672 32.231-19.75 47.109-8.25 15.2-147.391 12.745-225.121 12.745s-216.871 2.455-225.109-12.745c-3.289-6.031-6.332-12.21-9.121-18.531-14-31.629-21.77-66.629-21.77-103.449 0-46.219 12.25-89.57 33.68-127 44.121 77.07 127.16 129 222.32 129s178.211-51.93 222.32-129c21.43 37.43 33.68 80.781 33.68 127zm0 0" fill="#6c3beb"/><path d="m481.263 377.699c-7.16 13.223-15.434 25.742-24.723 37.43-8.437 10.633-17.719 20.57-27.719 29.723-45.539 41.699-106.211 67.148-172.82 67.148s-127.281-25.449-172.82-67.148c-10-9.153-19.282-19.09-27.719-29.723-9.289-11.688-17.563-24.207-24.723-37.43zm0 0" fill="#4d34b0"/></g><g><path d="m171.626 195.596 84.375 84.375h137.812c23.262 0 42.188-18.925 42.188-42.188v-42.188h-264.375z" fill="#ff7040"/><path d="m76.001 195.596v42.188c0 23.262 18.925 42.188 42.188 42.188h137.812v-84.375h-180z" fill="#ff903d"/><path d="m76.001 195.596v42.188c0 23.262 18.925 42.188 42.188 42.188h47.812v-84.375h-90z" fill="#ffab6b"/><path d="m256.001 279.971-58.008 116.016 58.008 116.016c64.074 0 116.016-51.942 116.016-116.016s-51.943-116.016-116.016-116.016z" fill="#ff903d"/><path d="m139.985 395.987c0 64.074 51.942 116.016 116.016 116.016v-232.032c-64.074 0-116.016 51.942-116.016 116.016z" fill="#ffb03b"/><path d="m256.001 323.916-36.914 73.828 36.914 73.828c40.774 0 73.828-33.054 73.828-73.828s-33.054-73.828-73.828-73.828z" fill="#ffb03b"/><path d="m182.173 397.744c0 40.774 33.054 73.828 73.828 73.828v-147.656c-40.775 0-73.828 33.054-73.828 73.828z" fill="#ffc46c"/><path d="m182.173 397.744c0 40.774 33.054 73.828 73.828 73.828-49.219 0-49.219-147.656 0-147.656-40.775 0-73.828 33.054-73.828 73.828z" fill="#ffd391"/><path d="m393.813 152.002h-42.187l-38.672 42.891 38.672 42.89h42.187z" fill="#ff0f47"/><path d="m287.641 152.002-28.125 42.891 28.125 42.89h63.985v-85.781z" fill="#8defe9"/><path d="m256.001 152.002-21.094 42.891 21.094 42.89h31.64v-85.781z" fill="#6c3beb"/><path d="m224.36 152.002-28.125 42.891 28.125 42.89h31.641v-85.781z" fill="#576ceb"/><path d="m160.376 152.002-17.578 42.891 17.578 42.89h63.984v-85.781z" fill="#cbeefe"/><path d="m118.188 152.002h42.188v85.781h-42.188z" fill="#ff415d"/></g><g fill="#fff"><path d="m274.111 53.683h-1.524c-6.754 0-12.226-5.477-12.226-12.227v-1.523h-8.715v1.523c0 6.75-5.477 12.227-12.227 12.227h-1.527v8.715h1.527c6.75 0 12.227 5.472 12.227 12.226v1.528h8.715v-1.528c0-6.754 5.472-12.226 12.226-12.226h1.524zm0 0"/><path d="m383.646 90.95h-1.524c-6.754 0-12.226-5.477-12.226-12.227v-1.523h-8.715v1.523c0 6.75-5.477 12.227-12.227 12.227h-1.527v8.715h1.527c6.75 0 12.227 5.472 12.227 12.226v1.528h8.715v-1.528c0-6.754 5.472-12.226 12.226-12.226h1.524zm0 0"/><path d="m164.575 90.95h-1.524c-6.754 0-12.226-5.477-12.226-12.227v-1.523h-8.715v1.523c0 6.75-5.477 12.227-12.227 12.227h-1.527v8.715h1.527c6.75 0 12.227 5.472 12.227 12.226v1.528h8.715v-1.528c0-6.754 5.472-12.226 12.226-12.226h1.524zm0 0"/></g></g></svg>