<svg height="512" viewBox="0 0 512 512" width="512" xmlns="http://www.w3.org/2000/svg"><g id="BULINE"><circle cx="256" cy="256" fill="#aa60fa" r="256"/></g><g id="Icons"><circle cx="256" cy="128" fill="#cd88f8" r="119"/><path d="m419.83 452.71q-5.85 4.89-12 9.42a40.68 40.68 0 0 0 -26-9.36h-16a24.12 24.12 0 0 1 -24.09-24.1 12.53 12.53 0 0 0 -12.52-12.51h-73.34a7.5 7.5 0 1 1 0-15h73.34a27.55 27.55 0 0 1 27.52 27.51 9.11 9.11 0 0 0 9.09 9.1h16a55.72 55.72 0 0 1 38 14.94z" fill="#a65c3b"/><path d="m236.13 192.75h39.51v200.96h-39.51z" fill="#fff"/><path d="m275.53 192.74v11.78h-2.69a22.06 22.06 0 0 0 -22.06 22v167.18h-14.78v-201z" fill="#d6d6d8"/><path d="m216.34 101a39.24 39.24 0 1 0 78.47 0c0-16.15-21.8-49.18-32.9-64.95a7.75 7.75 0 0 0 -12.67 0c-11.1 15.79-32.9 48.82-32.9 64.95z" fill="#e88032"/><path d="m229.13 113.82a26.45 26.45 0 0 0 52.89 0c0-10.89-14.7-33.15-22.18-43.78a5.22 5.22 0 0 0 -8.53 0c-7.48 10.63-22.18 32.89-22.18 43.78z" fill="#f7bb38"/><path d="m239.24 123.62a16.64 16.64 0 0 0 33.28 0c0-6.85-9.25-20.85-14-27.54a3.28 3.28 0 0 0 -5.37 0c-4.66 6.69-13.91 20.69-13.91 27.54z" fill="#7cc8fb"/><path d="m255.58 430.58-86.17 22.79a15.34 15.34 0 0 0 -11.41 14.82v6.37a9.88 9.88 0 0 0 9.88 9.88h175.4a9.88 9.88 0 0 0 9.88-9.88v-6.37a15.34 15.34 0 0 0 -11.41-14.82z" fill="#fff"/><path d="m280.46 392.68a130.21 130.21 0 0 0 -49.77 0 6 6 0 0 0 -4.86 5.94v40.44a6.09 6.09 0 0 0 4.41 5.83 90.2 90.2 0 0 0 50.61-.05 6.06 6.06 0 0 0 4.47-5.84v-40.38a6 6 0 0 0 -4.86-5.94z" fill="#fff"/><path d="m240.18 440.29a5.61 5.61 0 0 1 -.13-1.24v-40.44a6 6 0 0 1 4.86-5.94 133.07 133.07 0 0 1 17.77-2.19 130.73 130.73 0 0 0 -32 2.19 6 6 0 0 0 -4.86 5.94v39.84l-56.41 14.92a15.34 15.34 0 0 0 -11.41 14.82v6.37a9.88 9.88 0 0 0 9.88 9.88h21.32a9.88 9.88 0 0 1 -9.88-9.88v-6.37a15.34 15.34 0 0 1 11.42-14.82l37.11-9.81a6.23 6.23 0 0 0 2.39 1.33 88.55 88.55 0 0 0 32.07 3.31 89.66 89.66 0 0 1 -17.85-3.31 6.1 6.1 0 0 1 -4.28-4.6z" fill="#d6d6d8"/><rect fill="#d6d6d8" height="63.35" rx="7.78" width="59.5" x="225.83" y="135.85"/><path d="m285.63 188.13v3.29a7.78 7.78 0 0 1 -7.78 7.78h-43.94a7.78 7.78 0 0 1 -7.78-7.78v-47.79a7.77 7.77 0 0 1 7.78-7.77h4.21v44.49a7.78 7.78 0 0 0 7.78 7.78z" fill="#bfbfc1"/></g></svg>