<svg id="Capa_1" enable-background="new 0 0 512 512" height="512" viewBox="0 0 512 512" width="512" xmlns="http://www.w3.org/2000/svg"><g><g><path d="m256 323.503c-141.387 0-244.868-153.029-225.263-189.233 43.302-79.964 127.939-134.27 225.263-134.27 97.204 0 181.752 54.173 225.103 133.974 19.704 36.274-83.716 189.529-225.103 189.529z" fill="#afe8fd"/><path d="m512 256c0 26.051-3.891 51.191-11.129 74.871-5.031 16.469-11.672 32.231-19.75 47.109-8.25 15.2-147.391 42.498-225.121 42.498s-216.871-27.298-225.109-42.498c-3.289-6.031-6.332-12.21-9.121-18.531-14-31.629-21.77-66.629-21.77-103.449 0-46.219 12.25-89.57 33.68-127 44.121 77.07 127.16 129 222.32 129s178.211-51.93 222.32-129c21.43 37.43 33.68 80.781 33.68 127zm0 0" fill="#64b0fb"/><path d="m481.262 377.699c-7.16 13.223-15.434 25.742-24.723 37.43-8.437 10.633-17.719 20.57-27.719 29.723-45.539 41.699-300.101 41.699-345.64 0-10-9.153-19.282-19.09-27.719-29.723-9.289-11.688-17.563-24.207-24.723-37.43zm0 0" fill="#1394fb"/></g><g><path d="m401.801 466.43-186.465-35.405 40.486 80.972c.059 0 .118.002.178.002 54.184.001 104.425-16.847 145.801-45.569z" fill="#e79d25"/><path d="m108.87 465.509c41.626 29.286 92.366 46.491 147.13 46.491v-80.975z" fill="#f2d332"/><path d="m169.25 496.914v-65.889l-65.571 30.736c19.849 14.718 41.9 26.629 65.571 35.153z" fill="#ffdf73"/><path d="m256 471.689h137.951c12.658-8.112 24.544-17.32 35.549-27.469v-13.195l-214.164-40.664z" fill="#f2d332"/><path d="m118.049 471.689h137.951v-81.328l-173.5 40.664v13.195c11.005 10.15 22.891 19.357 35.549 27.469z" fill="#ffeb78"/><path d="m82.5 444.221c11.005 10.149 22.891 19.356 35.549 27.469h51.201v-81.328l-86.75 40.663z" fill="#ffecad"/><path d="m297.342 431.025h132.158v-132.158z" fill="#e79d25"/><path d="m317.674 318.522 1.233 102.893 101.66-101.66z" fill="#e38031"/><path d="m256 165.354-81.328 132.836 81.328 132.835h41.342c8.422 0 16.046-3.414 21.565-8.933s8.933-13.144 8.933-21.565v-71.162h71.162c8.422 0 16.046-3.414 21.565-8.933s8.933-13.143 8.933-21.565v-133.513z" fill="#ffeb78"/><path d="m82.5 165.354h173.5v265.672h-173.5z" fill="#fff0be"/><path d="m82.5 165.354h86.75v265.672h-86.75z" fill="#fff7de"/></g></g></svg>