<svg id="Capa_1" enable-background="new 0 0 512.247 512.247" height="512" viewBox="0 0 512.247 512.247" width="512" xmlns="http://www.w3.org/2000/svg"><g><g><path d="m512.124 256c0 141.387-114.613 256-256 256s-256-114.613-256-256 114.613-256 256-256 256 114.613 256 256zm0 0" fill="#ffc46c"/><path d="m512.124 256c0 26.051-3.891 51.191-11.129 74.871-5.031 16.469-11.672 32.231-19.75 47.109-8.25 15.2-147.391 39.087-225.121 39.087s-216.871-23.887-225.109-39.087c-3.289-6.031-6.332-12.21-9.121-18.531-14-31.629-21.77-66.629-21.77-103.449 0-46.219 12.25-89.57 33.68-127 44.121 77.07 127.16 129 222.32 129s178.211-51.93 222.32-129c21.43 37.43 33.68 80.781 33.68 127zm0 0" fill="#ffb03b"/><path d="m481.386 377.699c-7.16 13.223-15.434 25.742-24.723 37.43-8.437 10.633-17.719 20.57-27.719 29.723-45.539 41.699-106.211 67.148-172.82 67.148s-127.281-25.449-172.82-67.148c-10-9.153-19.282-19.09-27.719-29.723-9.289-11.688-17.563-24.207-24.723-37.43zm0 0" fill="#ff903d"/></g><g><path d="m418.902 263.402-51.035-123.276-38.849 16.101-72.895-72.92-50.267 214.47 50.267 214.471c47.441 0 92.044-18.482 125.589-52.041 25.764-25.774 42.778-58.294 49.203-94.045 6.268-34.878 2.114-70.407-12.013-102.76z" fill="#ff0f47"/><path d="m183.229 156.226-38.849-16.101-51.036 123.28c-14.125 32.351-18.279 67.88-12.012 102.756 6.424 35.751 23.438 68.272 49.202 94.046 33.545 33.559 78.148 52.041 125.589 52.041v-428.942z" fill="#ff4f42"/><path d="m395.826 273.361-.098-.23-41.464-100.16-31.143 12.907-66.997-67.023-50.267 178.923 50.267 189.337c40.726 0 79.016-15.866 107.814-44.676 44.728-44.747 57.245-111.114 31.888-169.078z" fill="#ff7040"/><path d="m189.127 185.876-31.143-12.907-41.561 100.39c-25.358 57.964-12.842 124.331 31.887 169.078 28.799 28.81 67.088 44.676 107.815 44.676v-368.26z" fill="#ff903d"/><path d="m372.797 283.43-32.14-77.615-23.436 9.712-61.099-61.123-50.267 143.372 50.267 164.204c34.011 0 65.988-13.251 90.039-37.312 18.479-18.485 30.678-41.791 35.279-67.398 4.508-25.077 1.519-50.609-8.643-73.84z" fill="#ff903d"/><path d="m195.025 215.527-23.437-9.712-31.99 77.275-.15.343c-10.161 23.224-13.149 48.757-8.643 73.838 4.603 25.609 16.802 48.915 35.28 67.399 24.05 24.061 56.026 37.311 90.038 37.311v-307.577z" fill="#ffbe5e"/><path d="m213.515 248.572-16.344-6.773-22.309 53.889-.105.239c-7.085 16.196-9.17 34.001-6.027 51.492 3.21 17.858 11.717 34.112 24.603 47.001 16.772 16.779 39.071 26.02 62.789 26.02v-214.493z" fill="#ffb03b"/><path d="m296.111 315.15-39.988-40.004-25.133 80.001 25.133 56.567c15.106 0 29.307-5.884 39.988-16.57 22.047-22.054 22.047-57.94 0-79.994z" fill="#ffebce"/><path d="m216.135 315.15c-22.046 22.054-22.046 57.94 0 79.995 10.681 10.685 24.882 16.57 39.988 16.57v-136.569z" fill="#fff"/></g><g fill="#fff"><path d="m149.198 102.826h1.524c6.754 0 12.226 5.472 12.226 12.226v1.528h8.715v-1.528c0-6.754 5.477-12.226 12.227-12.226h1.527v-8.716h-1.527c-6.75 0-12.227-5.477-12.227-12.227v-1.523h-8.715v1.523c0 6.75-5.472 12.227-12.226 12.227h-1.524zm0-8.716"/><path d="m317.897 73.275h1.524c6.754 0 12.226 5.472 12.226 12.226v1.528h8.715v-1.528c0-6.754 5.477-12.226 12.227-12.226h1.527v-8.715h-1.527c-6.75 0-12.227-5.477-12.227-12.227v-1.523h-8.715v1.523c0 6.75-5.472 12.227-12.226 12.227h-1.524zm0-8.715"/></g></g></svg>