<svg id="Capa_1" enable-background="new 0 0 512 512" height="512" viewBox="0 0 512 512" width="512" xmlns="http://www.w3.org/2000/svg"><g><g><path d="m0 256c0 43.79 11 85.02 30.39 121.07l225.61 49.67 225.61-49.67c19.39-36.05 30.39-77.28 30.39-121.07 0-46.63-12.47-90.34-34.26-128-41.698 72.091-399.22 76.52-443.48 0-21.79 37.66-34.26 81.37-34.26 128z" fill="#eebf36"/><path d="m34.26 128c44.26 76.52 126.99 128 221.74 128s177.48-51.48 221.74-128c-.01-.02-.03-.05-.04-.07-44.27-76.48-126.98-127.93-221.7-127.93s-177.43 51.45-221.7 127.93c-.01.02-.03.05-.04.07z" fill="#f5dc6e"/><path d="m30.39 377.07c43.19 80.32 128.02 134.93 225.61 134.93s182.42-54.61 225.61-134.93z" fill="#dd8051"/></g><g><path d="m415.194 252.461v143.651c0 9.293-3.759 17.693-9.854 23.777-6.085 6.095-14.484 9.854-23.777 9.854-18.565 0-33.621-15.056-33.621-33.631v55.747c0 12.699-10.29 22.988-22.988 22.988-12.688 0-22.988-10.29-22.988-22.988v9.033c0 6.344-2.575 12.086-6.728 16.25-4.164 4.164-9.905 6.739-16.25 6.739-12.699 0-22.988-10.3-22.988-22.988 0 6.344-2.575 12.086-6.728 16.25-4.164 4.164-9.906 6.739-16.26 6.739-12.688 0-22.978-10.3-22.978-22.988v-9.033c0 6.354-2.575 12.096-6.739 16.26-4.153 4.153-9.905 6.728-16.25 6.728-12.699 0-22.988-10.29-22.988-22.988v-55.747c0 9.293-3.769 17.693-9.854 23.777-6.085 6.095-14.484 9.854-23.767 9.854-18.575 0-33.631-15.056-33.631-33.631v-143.653c0-87.924 71.27-159.194 159.194-159.194s159.195 71.269 159.195 159.194z" fill="#e7eaf5"/><path d="m415.194 252.461v143.651c0 9.293-3.759 17.693-9.854 23.777-6.085 6.095-14.484 9.854-23.777 9.854-18.565 0-33.621-15.056-33.621-33.631v55.747c0 12.699-10.29 22.988-22.988 22.988-12.688 0-22.988-10.29-22.988-22.988v9.033c0 6.344-2.575 12.086-6.728 16.25-4.164 4.164-9.905 6.739-16.25 6.739-12.699 0-22.988-10.3-22.988-22.988v-367.627c87.924 0 159.194 71.27 159.194 159.195z" fill="#c8cde3"/><g fill="#464651"><g><path d="m197.195 366.199h-14.783c-23.113 0-41.85-18.737-41.85-41.85v-14.783c0-23.113 18.737-41.85 41.85-41.85h14.783c23.113 0 41.85 18.737 41.85 41.85v14.783c0 23.113-18.737 41.85-41.85 41.85z"/><path d="m329.587 366.199h-14.783c-23.113 0-41.85-18.737-41.85-41.85v-14.783c0-23.113 18.737-41.85 41.85-41.85h14.783c23.113 0 41.85 18.737 41.85 41.85v14.783c0 23.113-18.737 41.85-41.85 41.85z"/></g><path d="m256 356.176c-16.14 0-29.224 13.084-29.224 29.224v23.867c0 8.07 6.542 14.612 14.612 14.612s14.612-6.542 14.612-14.612c0 8.07 6.542 14.612 14.612 14.612s14.612-6.542 14.612-14.612v-23.867c0-16.14-13.084-29.224-29.224-29.224z"/></g></g><path d="m235.34 110.64h41.32v100.08h-41.32z" fill="#d75e91"/><path d="m235.34 226.05h41.32v41.32h-41.32z" fill="#d75e91"/><g fill="#bf2e70"><path d="m256 110.64h20.66v100.08h-20.66z"/><path d="m256 226.05h20.66v41.32h-20.66z"/></g></g></svg>