<svg id="Capa_1" enable-background="new 0 0 512 512" height="512" viewBox="0 0 512 512" width="512" xmlns="http://www.w3.org/2000/svg"><g><g><path d="m256 300.443c-141.387 0-243.753-134.016-222.328-171.443 44.119-77.071 127.158-129 222.328-129s178.209 51.929 222.328 128.999c21.425 37.427-80.941 171.444-222.328 171.444z" fill="#e36565"/><path d="m512 256c0 26.051-3.891 51.191-11.129 74.871-5.031 16.469-11.672 32.231-19.75 47.109-8.25 15.2-147.391 39.116-225.121 39.116s-216.871-23.916-225.109-39.116c-3.289-6.031-6.332-12.21-9.121-18.531-14-31.629-21.77-66.629-21.77-103.449 0-46.219 12.25-89.57 33.68-127 44.121 77.07 127.16 129 222.32 129s178.211-51.93 222.32-129c21.43 37.43 33.68 80.781 33.68 127zm0 0" fill="#da3f3e"/><path d="m481.262 377.699c-7.16 13.223-15.434 25.742-24.723 37.43-8.437 10.633-17.719 20.57-27.719 29.723-20.147 18.448-43.256 33.716-68.531 45.006-31.854 14.23-288.042-55.462-293.152-61.041-4.05-4.422-7.946-8.987-11.676-13.689-9.289-11.688-17.563-24.207-24.723-37.43h450.524zm0 0" fill="#a52020"/></g><g><path d="m345.332 134v22.148h63.028l-72.334 72.335 7.246 7.246 8.413 8.413 71.167-71.166v60.692h22.148v-99.668z" fill="#8ab8ec"/><path d="m78.074 440.042c28.757 27.807 64.006 48.933 103.26 60.884h149.331c8.273-2.519 16.37-5.439 24.264-8.75v-268.106h-276.855z" fill="#a4e2fd"/><path d="m108.87 465.509c21.882 15.395 46.283 27.445 72.464 35.417h149.331c8.273-2.519 16.37-5.439 24.264-8.75v-250.496h-246.059z" fill="#8ab8ec"/><path d="m181.335 500.926h149.331c8.273-2.519 16.37-5.439 24.264-8.75v-268.106l-243.331 243.331c21.176 14.492 44.637 25.883 69.736 33.525z" fill="#728ee4"/><g fill="#535564"><path d="m67 428.663c6.945 7.598 14.342 14.774 22.148 21.488v-316.151h-22.148z"/><path d="m151.71 489.852c31.855 14.227 67.146 22.148 104.29 22.148s72.435-7.921 104.29-22.148z"/></g><path d="m151.71 489.852c31.855 14.227 67.146 22.148 104.29 22.148s72.435-7.921 104.29-22.148z" fill="#3b3b3b"/><path d="m188.816 390.184h-55.371v44.297c0 3.188.9 6.072 2.297 8.777 8.66 16.77 41.995 24.445 75.223 24.445 38.587 0 77.52-10.274 77.52-33.223v-44.297h-99.669z" fill="#dce0ef"/><path d="m210.965 467.703c38.587 0 77.52-10.274 77.52-33.223v-44.297h-99.668l-53.074 53.074c8.659 16.77 41.994 24.446 75.222 24.446z" fill="#cad0e7"/><path d="m233.113 345.887h-99.668v44.297c0 12.575 11.877 21.218 28.794 26.577 13.956 4.421 31.283 6.646 48.725 6.646 38.587 0 77.52-10.274 77.52-33.223v-44.297z" fill="#fbf5eb"/><path d="m288.484 390.184v-44.297h-55.371l-70.874 70.874c13.956 4.421 31.283 6.646 48.725 6.646 38.588-.001 77.52-10.275 77.52-33.223z" fill="#dce0ef"/><path d="m277.41 301.59h-143.965v44.297c0 20.816 32.057 31.111 66.808 32.86 3.561.18 7.126.362 10.712.362 38.587 0 77.52-10.274 77.52-33.223v-44.296z" fill="#dce0ef"/><path d="m288.484 345.887v-44.297h-11.074l-77.157 77.157c3.561.18 7.126.362 10.712.362 38.587 0 77.519-10.274 77.519-33.222z" fill="#cad0e7"/><path d="m286.188 292.812c-8.66-16.77-41.995-24.445-75.223-24.445-38.587 0-77.52 10.274-77.52 33.223s38.933 33.223 77.52 33.223c12.74 0 25.386-1.238 36.788-3.565 23.133-4.719 40.732-14.286 40.732-29.658-.001-3.188-.901-6.073-2.297-8.778z" fill="#fbf5eb"/><path d="m288.484 301.59c0-3.188-.9-6.072-2.297-8.777l-38.435 38.435c23.133-4.719 40.732-14.287 40.732-29.658z" fill="#dce0ef"/><path d="m422.852 172.976v60.692h22.148v-99.668l-101.728 101.729 8.413 8.413z" fill="#728ee4"/></g><g fill="#fff"><path d="m324.703 71.641h-1.524c-6.754 0-12.226-5.477-12.226-12.227v-1.524h-8.715v1.523c0 6.75-5.477 12.227-12.227 12.227h-1.527v8.715h1.527c6.75 0 12.227 5.472 12.227 12.226v1.528h8.715v-1.528c0-6.754 5.472-12.226 12.226-12.226h1.524zm0 0"/><path d="m262.478 159.529h-1.524c-6.754 0-12.226-5.477-12.226-12.227v-1.523h-8.715v1.523c0 6.75-5.477 12.227-12.227 12.227h-1.527v8.715h1.527c6.75 0 12.227 5.472 12.227 12.226v1.528h8.715v-1.528c0-6.754 5.472-12.226 12.226-12.226h1.524zm0 0"/><path d="m171.961 96.023h-1.524c-6.754 0-12.226-5.477-12.226-12.227v-1.523h-8.715v1.523c0 6.75-5.477 12.227-12.227 12.227h-1.527v8.715h1.527c6.75 0 12.227 5.472 12.227 12.226v1.528h8.715v-1.528c0-6.754 5.472-12.226 12.226-12.226h1.524zm0 0"/></g></g></svg>