<?xml version="1.0" encoding="UTF-8" standalone="no"?>
<svg
   xmlns:dc="http://purl.org/dc/elements/1.1/"
   xmlns:cc="http://creativecommons.org/ns#"
   xmlns:rdf="http://www.w3.org/1999/02/22-rdf-syntax-ns#"
   xmlns:svg="http://www.w3.org/2000/svg"
   xmlns="http://www.w3.org/2000/svg"
   xmlns:sodipodi="http://sodipodi.sourceforge.net/DTD/sodipodi-0.dtd"
   xmlns:inkscape="http://www.inkscape.org/namespaces/inkscape"
   version="1.1"
   id="Capa_1"
   x="0px"
   y="0px"
   viewBox="0 0 512 512"
   style="enable-background:new 0 0 512 512;"
   xml:space="preserve"
   sodipodi:docname="020-globe-a.svg"
   inkscape:version="1.0.2 (e86c870879, 2021-01-15)"><metadata
   id="metadata53"><rdf:RDF><cc:Work
       rdf:about=""><dc:format>image/svg+xml</dc:format><dc:type
         rdf:resource="http://purl.org/dc/dcmitype/StillImage" /><dc:title></dc:title></cc:Work></rdf:RDF></metadata><defs
   id="defs51" /><sodipodi:namedview
   pagecolor="#ffffff"
   bordercolor="#666666"
   borderopacity="1"
   objecttolerance="10"
   gridtolerance="10"
   guidetolerance="10"
   inkscape:pageopacity="0"
   inkscape:pageshadow="2"
   inkscape:window-width="1920"
   inkscape:window-height="1015"
   id="namedview49"
   showgrid="false"
   inkscape:zoom="0.82519531"
   inkscape:cx="295.63481"
   inkscape:cy="38.867574"
   inkscape:window-x="0"
   inkscape:window-y="0"
   inkscape:window-maximized="1"
   inkscape:current-layer="Capa_1" />


<path
   style="fill:#4391a6;stroke-width:1.27808"
   d="m 506.34198,258.29737 c 0,138.35054 -112.15483,250.50536 -250.50537,250.50536 -138.35055,0 -250.5053969,-112.15482 -250.5053969,-250.50536 0,-138.35055 112.1548469,-250.5053947 250.5053969,-250.5053947 138.35054,0 250.50537,112.1548447 250.50537,250.5053947 z"
   id="path6" />
<path
   style="fill:#328093;stroke-width:1.27808"
   d="m 276.92507,507.91063 c -6.95407,0.58025 -13.98485,0.8921 -21.08846,0.8921 -138.35055,0 -250.5053969,-112.15482 -250.5053969,-250.50536 0,-138.35055 112.1548469,-250.5053947 250.5053969,-250.5053947 7.10361,0 14.13439,0.311854 21.08846,0.892105 C 148.44522,19.394463 47.508139,127.05172 47.508139,258.29737 c 0,131.24563 100.937081,238.90289 229.416931,249.61326 z"
   id="path8" />
<path
   style="fill:#9bd04c;stroke-width:1.27808"
   d="m 222.56669,227.9632 c 0,-18.91571 15.33323,-34.24894 34.24893,-34.24894 h 68.49917 c 8.10565,0 14.67629,-6.57192 14.67629,-14.67758 0,-8.1069 -6.57193,-14.67756 -14.67757,-14.67756 h -29.35642 c -18.91571,0 -34.24893,-15.33323 -34.24893,-34.24894 0,-18.91572 15.33322,-34.248943 34.24893,-34.248943 h 150.56779 c 17.30404,20.293503 31.4231,43.382163 41.59029,68.497883 H 384.02635 c -8.10691,0 -14.67757,6.57193 -14.67757,14.67756 0,8.10566 6.57192,14.67758 14.67757,14.67758 h -9.78249 c 18.91443,9.6e-4 34.24639,15.33451 34.24639,34.24894 0,18.91571 -15.33324,34.24894 -34.24895,34.24894 H 256.81691 c -18.91699,-9.6e-4 -34.25022,-15.3345 -34.25022,-34.24894 z m -83.17547,4.89253 h -14.67756 c -10.80878,0 -19.57008,-8.7613 -19.57008,-19.57009 v -14.67758 c 0,-18.91571 -15.333245,-34.24894 -34.248972,-34.24894 H 23.559314 c -11.744358,29.01006 -18.2281009,60.71432 -18.2281009,93.93825 0,14.68267 1.2755321,29.065 3.6987889,43.05624 h 47.184477 c 8.106916,0 14.677573,6.57194 14.677573,14.67757 0,8.10564 -6.571934,14.67757 -14.677573,14.67757 h -40.24062 c 7.430806,24.64922 18.550177,47.69699 32.728015,68.49789 h 71.117976 c 18.91573,0 34.24895,-15.33323 34.24895,-34.24894 0,-18.91572 -15.33322,-34.24895 -34.24895,-34.24895 h -4.89252 c -8.10691,0 -14.67757,-6.57193 -14.67757,-14.67757 0,-8.10563 6.57194,-14.67757 14.67757,-14.67757 h 24.46389 c 18.91571,0 34.24894,-15.33322 34.24894,-34.24894 0,-18.91571 -15.3345,-34.24894 -34.24894,-34.24894 z m 259.31143,166.35091 c -10.8088,0 -19.5701,-8.7613 -19.5701,-19.57011 v -14.67757 c 0,-18.9157 -15.33324,-34.24894 -34.24894,-34.24894 h -117.4244 c -18.91571,0 -34.24894,15.33324 -34.24894,34.24894 0,18.91572 15.33323,34.24896 34.24894,34.24896 h 14.67756 c 10.8088,0 19.5701,8.76128 19.5701,19.57008 v 14.67758 c 0,18.91571 15.33324,34.24894 34.24894,34.24894 h 97.38141 c 26.99196,-17.76032 50.34136,-40.59209 68.69727,-67.14823 -3.02139,-0.87292 -6.21023,-1.34965 -9.51282,-1.34965 z m 53.8203,-78.28294 h -48.9265 c -8.10692,0 -14.67758,6.57194 -14.67758,14.67757 0,8.10565 6.57193,14.67757 14.67758,14.67757 h 48.9265 c 8.10693,0 14.67758,-6.57192 14.67758,-14.67757 0,-8.10563 -6.57193,-14.67757 -14.67758,-14.67757 z M 149.17627,95.859957 h 48.92653 c 8.10691,0 14.67757,-6.571928 14.67757,-14.677569 0,-8.105643 -6.57195,-14.677576 -14.67757,-14.677576 h -48.92653 c -8.10691,0 -14.67756,6.571933 -14.67756,14.677576 0,8.105641 6.57065,14.677569 14.67756,14.677569 z"
   id="path10" />
<path
   style="fill:#80be1c;stroke-width:1.27808"
   d="M 51.206928,301.35361 H 9.030002 C 6.6067452,287.36237 5.3312131,272.98004 5.3312131,258.29737 c 0,-33.22393 6.4837429,-64.92819 18.2281009,-93.93953 h 42.176928 c -11.744358,29.01134 -18.228103,60.7156 -18.228103,93.93953 0,14.68267 1.275534,29.06629 3.698789,43.05624 z m 6.904236,29.21967 c -0.622431,0.0805 -1.25125,0.13547 -1.895406,0.13547 H 15.973859 c 7.430806,24.64922 18.550177,47.69699 32.728015,68.49789 H 90.8788 C 76.675409,378.3674 65.541971,355.27234 58.111164,330.57328 Z"
   id="path12" />


<g
   id="g18"
   transform="matrix(1.2780887,0,0,1.2780887,-52.182777,-29.272597)">
</g>
<g
   id="g20"
   transform="matrix(1.2780887,0,0,1.2780887,-52.182777,-29.272597)">
</g>
<g
   id="g22"
   transform="matrix(1.2780887,0,0,1.2780887,-52.182777,-29.272597)">
</g>
<g
   id="g24"
   transform="matrix(1.2780887,0,0,1.2780887,-52.182777,-29.272597)">
</g>
<g
   id="g26"
   transform="matrix(1.2780887,0,0,1.2780887,-52.182777,-29.272597)">
</g>
<g
   id="g28"
   transform="matrix(1.2780887,0,0,1.2780887,-52.182777,-29.272597)">
</g>
<g
   id="g30"
   transform="matrix(1.2780887,0,0,1.2780887,-52.182777,-29.272597)">
</g>
<g
   id="g32"
   transform="matrix(1.2780887,0,0,1.2780887,-52.182777,-29.272597)">
</g>
<g
   id="g34"
   transform="matrix(1.2780887,0,0,1.2780887,-52.182777,-29.272597)">
</g>
<g
   id="g36"
   transform="matrix(1.2780887,0,0,1.2780887,-52.182777,-29.272597)">
</g>
<g
   id="g38"
   transform="matrix(1.2780887,0,0,1.2780887,-52.182777,-29.272597)">
</g>
<g
   id="g40"
   transform="matrix(1.2780887,0,0,1.2780887,-52.182777,-29.272597)">
</g>
<g
   id="g42"
   transform="matrix(1.2780887,0,0,1.2780887,-52.182777,-29.272597)">
</g>
<g
   id="g44"
   transform="matrix(1.2780887,0,0,1.2780887,-52.182777,-29.272597)">
</g>
<g
   id="g46"
   transform="matrix(1.2780887,0,0,1.2780887,-52.182777,-29.272597)">
</g>
</svg>
