<svg id="Capa_1" enable-background="new 0 0 512 512" height="512" viewBox="0 0 512 512" width="512" xmlns="http://www.w3.org/2000/svg"><g><g><g><g><g><g><g><circle cx="256" cy="256" fill="#7584f2" r="256"/></g></g></g></g></g></g><path d="m512 256c0-7.401-.314-14.729-.93-21.971l-91.965-91.965-314.512 276.386 84.799 84.799c21.238 5.707 43.568 8.751 66.608 8.751 141.385 0 256-114.615 256-256z" fill="#4253ce"/><g><path d="m256 81.714c-111.391 0-201.691 65.619-201.691 146.565 0 34.259 16.178 65.77 43.281 90.725l7.003 99.446 75.722-54.286c23.372 6.881 48.916 10.68 75.685 10.68 111.391 0 201.691-65.619 201.691-146.565s-90.3-146.565-201.691-146.565z" fill="#ffce00"/></g><g><path d="m256 81.714c-.061 0-.121.001-.182.001v293.127c.061 0 .121.001.182.001 111.391 0 201.691-65.619 201.691-146.565 0-80.945-90.3-146.564-201.691-146.564z" fill="#fdba12"/></g><g><path d="m131.29 310.074-53.198-49.046 20.335-22.056 20.431 18.836 39.83-106.152h246.567v30h-225.781z" fill="#555a66"/></g><g><path d="m255.818 151.656h149.437v30h-149.437z" fill="#333940"/></g><g><path d="m214.514 294.367-10.476-16.446-10.588 16.446h-18.923l18.585-27.935-17.459-26.47h19.036l9.349 14.756 9.236-14.756h19.037l-17.347 26.47 18.585 27.935z" fill="#555a66"/><path d="m237.826 246.945v-9.237c20.5-14.305 23.542-17.234 23.542-21.064 0-3.379-2.704-5.294-6.646-5.294-5.069 0-9.912 3.042-12.052 5.52l-6.533-8.11c5.069-5.519 12.729-7.547 18.923-7.547 11.376 0 19.149 5.294 19.149 14.418 0 6.533-4.844 12.053-17.797 21.177h18.135v10.138h-36.721z" fill="#555a66"/><g fill="#333940"><path d="m274.209 215.631c0-8.92-7.429-14.179-18.391-14.41v10.182c3.339.328 5.55 2.186 5.55 5.242 0 2.17-.977 4.051-5.55 7.874v22.427h18.729v-10.138h-18.135c12.953-9.124 17.797-14.644 17.797-21.177z"/><path d="m284.456 294.367v-75.131h17.347v27.146c4.28-5.407 10.138-7.772 16.107-7.772 13.518 0 23.993 10.701 23.993 28.498 0 18.474-10.589 28.611-23.993 28.611-6.082 0-11.602-2.479-16.107-7.66v6.308zm27.71-13.968c6.871 0 12.053-5.069 12.053-13.292 0-8.11-5.182-13.179-12.053-13.179-3.718 0-8.224 2.027-10.363 4.956v16.671c2.139 2.929 6.645 4.844 10.363 4.844z"/><path d="m349.67 246.945v-9.237c20.501-14.305 23.542-17.234 23.542-21.064 0-3.379-2.703-5.294-6.646-5.294-5.069 0-9.913 3.042-12.053 5.52l-6.533-8.11c5.068-5.519 12.729-7.547 18.924-7.547 11.376 0 19.148 5.294 19.148 14.418 0 6.533-4.844 12.053-17.797 21.177h18.135v10.138h-36.72z"/></g></g></g></svg>