<svg id="Capa_1" enable-background="new 0 0 512 512" height="512" viewBox="0 0 512 512" width="512" xmlns="http://www.w3.org/2000/svg"><g><g><path d="m0 256c0 43.79 11 85.02 30.39 121.07l225.61 49.67 225.61-49.67c19.39-36.05 30.39-77.28 30.39-121.07 0-46.63-12.47-90.34-34.26-128-41.698 72.091-399.22 76.52-443.48 0-21.79 37.66-34.26 81.37-34.26 128z" fill="#c02e71"/><path d="m34.26 128c44.26 76.52 126.99 128 221.74 128s177.48-51.48 221.74-128c-.01-.02-.03-.05-.04-.07-44.27-76.48-126.98-127.93-221.7-127.93s-177.43 51.45-221.7 127.93c-.01.02-.03.05-.04.07z" fill="#d95f91"/><path d="m481.61 377.07c-11.77 21.89-26.63 41.87-44.01 59.35-16.43 16.55-35.11 30.86-55.54 42.44-37.21 21.1-80.22 33.14-126.06 33.14-97.59 0-182.42-54.61-225.61-134.93z" fill="#815"/></g><g><path d="m387.977 198.414v236.906h-297.562v-349.64h297.562z" fill="#c8cde4"/><path d="m412.788 220.184v236.906h-297.562v-349.64h297.562z" fill="#daddee"/><path d="m437.599 241.954v123.832c0 62.449-50.625 113.074-113.074 113.074h-184.488v-349.64h184.82z" fill="#e8ebf7"/><path d="m437.6 241.95v194.47c-16.43 16.55-35.11 30.86-55.54 42.44h-93.24v-349.64h36.04z" fill="#daddee"/><path d="m324.856 241.954v-112.734l112.743 112.734z" fill="#c8cde4"/><g><path d="m182.212 271.946h213.211v20.605h-213.211z" fill="#616579"/><path d="m182.212 319.434h213.211v20.605h-213.211z" fill="#616579"/><g fill="#464652"><path d="m288.818 271.946h106.605v20.605h-106.605z"/><path d="m288.818 319.434h106.605v20.605h-106.605z"/></g></g><g fill="#db6870"><path d="m333.564 458.242-13.515-5.147 35.299-92.683 13.441-.013 34.993 92.724-13.531 5.107-28.211-74.754z"/><path d="m384.965 435.901h-45.931c-3.994 0-7.231-3.238-7.231-7.231 0-3.994 3.238-7.231 7.231-7.231h45.931c3.994 0 7.231 3.238 7.231 7.231.001 3.994-3.237 7.231-7.231 7.231z"/></g></g></g></svg>