<svg id="Capa_1" enable-background="new 0 0 512 512" height="512" viewBox="0 0 512 512" width="512" xmlns="http://www.w3.org/2000/svg"><g><g><path d="m512 256c0 141.387-114.613 256-256 256s-256-114.613-256-256 114.613-256 256-256 256 114.613 256 256zm0 0" fill="#b196e7"/><path d="m512 256c0 26.051-3.891 51.191-11.129 74.871-5.031 16.469-11.672 32.231-19.75 47.109-8.25 15.2-147.391 66.869-225.121 66.869s-216.871-51.669-225.109-66.869c-3.289-6.031-6.332-12.21-9.121-18.531-14-31.629-21.77-66.629-21.77-103.449 0-46.219 12.25-89.57 33.68-127 44.121 77.07 127.16 129 222.32 129s178.211-51.93 222.32-129c21.43 37.43 33.68 80.781 33.68 127zm0 0" fill="#8d69db"/><path d="m481.262 377.699c-7.16 13.223-15.434 25.742-24.723 37.43-8.437 10.633-17.719 20.57-27.719 29.723-45.539 41.699-106.211 67.148-172.82 67.148s-127.281-25.449-172.82-67.148c-10-9.153-19.282-19.09-27.719-29.723-9.289-11.688-17.563-24.207-24.723-37.43zm0 0" fill="#5541b6"/></g><g><g><path d="m469.596 281.48h-201.081v-201.081h12.515c103.521 0 188.566 85.045 188.566 188.566z" fill="#728ee4"/></g><path d="m98.283 451.712c33.993 33.993 80.925 55.88 132.686 55.88 103.521 0 187.731-85.045 187.731-188.566v-12.516h-175.215l-109.51 59.448z" fill="#f3d37a"/><path d="m136.79 416.812c25.822 25.822 61.475 42.449 100.795 42.449 78.639 0 142.609-64.604 142.609-143.243v-9.507h-133.102l-83.189 45.16z" fill="#efc142"/><path d="m243.485 131.295h-12.515c-45.4 0-87.078 16.207-119.575 43.126l70.295 120.356 61.795 11.734z" fill="#e2835a"/><path d="m243.485 177.82h-9.192c-33.345 0-63.956 11.903-87.824 31.674l51.629 88.398 45.387 8.618z" fill="#e05352"/><path d="m111.394 174.42c-41.604 34.462-68.991 86.485-68.991 144.606 0 51.76 21.887 98.693 55.88 132.686l145.202-145.202z" fill="#cdfa89"/><path d="m145.541 210.262c-30.849 25.553-51.156 64.128-51.156 107.223 0 38.38 16.229 73.18 41.434 98.385l107.665-107.665z" fill="#a8eb58"/></g></g></svg>