<svg id="Icons" enable-background="new 0 0 512 512" height="512" viewBox="0 0 512 512" width="512" xmlns="http://www.w3.org/2000/svg"><g><circle cx="256" cy="256" fill="#22bce0" r="256"/><g><path d="m324.801 125.281v262.908c0 12.966-10.5 23.467-23.457 23.467h-182.018c-12.957 0-23.467-10.5-23.467-23.467v-262.908c0-12.957 10.51-23.457 23.467-23.457h182.018c12.956 0 23.457 10.5 23.457 23.457z" fill="#fff"/><g fill="#ebd9ea"><path d="m119.646 352.04h181.368c2.76 0 4.998-2.237 4.998-4.998 0-2.76-2.237-4.998-4.998-4.998h-181.368c-6.545.179-6.657 9.779 0 9.996z"/><path d="m119.646 306.308h181.368c2.76 0 4.998-2.237 4.998-4.998 0-2.76-2.237-4.998-4.998-4.998h-181.368c-6.545.179-6.657 9.779 0 9.996z"/><path d="m119.646 260.576h181.368c2.76 0 4.998-2.237 4.998-4.998 0-2.76-2.237-4.998-4.998-4.998h-181.368c-6.545.179-6.657 9.779 0 9.996z"/><path d="m119.646 214.843h181.368c2.76 0 4.998-2.238 4.998-4.998s-2.237-4.998-4.998-4.998h-181.368c-6.545.18-6.657 9.779 0 9.996z"/><path d="m119.646 169.111h181.368c2.76 0 4.998-2.238 4.998-4.998s-2.237-4.998-4.998-4.998h-181.368c-6.545.179-6.657 9.779 0 9.996z"/></g><g fill="#ebd9ea"><path d="m205.333 136.055v241.368c0 2.76 2.238 4.998 4.998 4.998s4.998-2.237 4.998-4.998v-241.368c-.169-6.518-9.774-6.68-9.996 0z"/><path d="m152.603 136.055v241.368c0 2.76 2.238 4.998 4.998 4.998s4.998-2.237 4.998-4.998v-241.368c-.169-6.518-9.774-6.68-9.996 0z"/><path d="m258.063 136.055v241.368c0 2.76 2.237 4.998 4.998 4.998 2.76 0 4.998-2.237 4.998-4.998v-241.368c-.169-6.518-9.774-6.68-9.996 0z"/></g><g fill="#3f5d77"><path d="m119.646 352.04h121.224c6.568-.188 6.638-9.783 0-9.995h-121.224c-6.568.188-6.637 9.783 0 9.995z"/><path d="m123.272 350.577 138.837-138.837c4.499-4.748-2.202-11.625-7.068-7.068 0 0-138.837 138.837-138.837 138.837-4.498 4.748 2.203 11.625 7.068 7.068z"/></g></g><g id="Pencil_11_"><g><path d="m268.837 207.523h164.11v43.05h-164.11z" fill="#f39e22" transform="matrix(.707 -.707 .707 .707 -59.187 315.204)"/><path d="m308.091 284.584 98.337-98.337c4.885-4.886 12.821-4.886 17.706 0l-116.043 116.043c-4.887-4.886-4.894-12.813 0-17.706z" fill="#c68132"/><path d="m277.65 271.849 116.043-116.043c4.893 4.893 4.893 12.827.007 17.713l-98.337 98.337c-4.893 4.893-12.82 4.886-17.713-.007z" fill="#f9c744"/></g><g><path d="m392.692 140.705c3.889-3.889 10.204-3.896 14.093-.007l32.456 32.456c3.908 3.856 3.842 10.311-.007 14.093-3.896 3.896-10.204 3.896-14.093.007l-32.456-32.456c-3.888-3.894-3.886-10.205.007-14.093z" fill="#ebd9ea"/><path d="m392.692 140.705 20.492 20.492c3.89 3.889 3.898 10.2 0 14.1l-20.499-20.499c-3.888-3.894-3.886-10.205.007-14.093z" fill="#fff"/><path d="m408.341 142.254 30.901 30.901c2.897 2.908 3.662 7.157 2.171 10.826l-30.901-30.901c-2.899-2.914-3.661-7.146-2.171-10.826z" fill="#c1b7d3"/></g><g><path d="m407.796 141.709 10.43-10.43c8.426-8.447 22.116-8.354 30.434 0 8.369 8.336 8.435 22.048.007 30.441 0 0-10.43 10.43-10.43 10.43z" fill="#ee6781"/><path d="m407.796 141.709 10.43-10.43c4.624-4.624 10.819-6.703 16.857-6.237.454 6.107-1.63 12.216-6.244 16.85 0 0-10.43 10.43-10.43 10.43z" fill="#f0a6b3"/><path d="m428.939 162.852 10.43-10.43c4.299-4.299 9.956-6.406 15.585-6.293.132 5.646-1.998 11.289-6.286 15.592 0 0-10.43 10.43-10.43 10.43z" fill="#d65171"/></g><path d="m277.653 271.852 30.441 30.441-44.484 19.028-4.992-4.992c2.68-6.261 16.692-38.997 19.035-44.477z" fill="#f5b890"/><path d="m274.047 280.281 15.408 15.408c2.616 2.616 1.754 7.043-1.641 8.499l-28.949 12.389-.247-.247z" fill="#fbd9a3"/><g><path d="m244.207 329.269 15.012-15.012c2.765-2.889 7.885-.709 7.799 3.232 0 1.174-.445 2.34-1.336 3.231l-15.012 15.012c-4.386 4.152-10.613-2.105-6.463-6.463z" fill="#2e3140"/><path d="m244.207 329.269 9.185-9.185c2.274 1.605 2.542 4.99.559 6.937 0 0-9.185 9.185-9.185 9.185-2.269-1.605-2.551-4.981-.559-6.937z" fill="#334353"/></g></g></g></svg>