<svg id="Capa_1" enable-background="new 0 0 512 512" height="512" viewBox="0 0 512 512" width="512" xmlns="http://www.w3.org/2000/svg"><circle cx="256" cy="256" fill="#374c81" r="256"/><path d="m512 256c0 87.11-43.52 164.07-110 210.31-41.41 28.8-91.73 45.69-146 45.69s-104.59-16.89-146-45.69c-66.48-46.24-110-123.2-110-210.31 0-46.22 12.25-89.57 33.68-127 44.12 77.07 127.16 129 222.32 129s178.21-51.93 222.32-129c21.43 37.43 33.68 80.78 33.68 127z" fill="#234177"/><path d="m449.97 189.68c-.2 1.54-.462 3.083-.786 4.629-2.287 10.851-7.365 20.395-14.321 28.042-11.215 12.325-27.324 19.723-44.515 19.704-4.082-.003-8.23-.426-12.388-1.301-.138-.029-.275-.059-.41-.092-10.976-2.388-20.605-7.64-28.261-14.809-8.194-7.67-14.124-17.538-17.04-28.425-2.366-8.833-2.746-18.341-.734-27.898.429-2.028.95-4.01 1.569-5.946.01-.029.02-.056.03-.088 8.024-25.021 31.41-41.737 57.234-41.711 2.67.003 5.37.183 8.079.554 1.432.197 2.87.446 4.312.747 14.619 3.08 26.872 11.228 35.302 22.223 6.592 8.597 10.848 18.93 12.076 29.945l-.003.003c.528 4.715.501 9.548-.144 14.423z" fill="#22d7ff"/><path d="m450.114 175.258.003-.003c-1.229-11.015-5.485-21.348-12.076-29.945-8.43-10.995-20.683-19.143-35.302-22.223-1.442-.301-2.88-.55-4.312-.747-2.71-.37-5.409-.55-8.079-.554v120.27c17.191.02 33.3-7.378 44.515-19.704 6.956-7.647 12.034-17.191 14.321-28.042.324-1.546.586-3.09.786-4.629.645-4.876.672-9.709.144-14.423z" fill="#00b3fe"/><path d="m438.041 145.309c-.111.059-.223.115-.334.167-4.511 2.175-10.366.485-14.498 3.309-4.774 3.263-5.288 11.287-10.766 13.148-4.99 1.7-10.75-3.171-15.471-.822-3.958 1.972-4.177 7.735-2.306 11.742 1.864 4.013 5.157 7.286 6.651 11.451 1.494 4.164.062 10.022-4.285 10.845-2.582.488-5.167-1.084-6.684-3.257-.115-.167-.226-.334-.328-.508-1.923-3.224-1.405-6.933-3.604-9.832-2.241-2.958-7.057-5.249-10.717-5.16-3.093.069-5.93 1.586-8.751 2.85-3.84 1.723-8.584 2.975-11.821-.426-2.857-3.001-3.427-7.758-7.106-10.396-3.155-2.3-9.862-3.958-13.787-4.757-.37-.075-.744-.131-1.121-.167 8.024-25.021 31.41-41.737 57.234-41.711.442 0 .885.007 1.33.02.226.003.452.01.678.016.334.01.672.026 1.006.043.338.016.675.036 1.009.062.337.02.675.046 1.012.075 1.012.085 2.028.2 3.044.337 1.432.197 2.87.446 4.312.747 14.62 3.081 26.873 11.229 35.303 22.224z" fill="#6cdc2d"/><path d="m434.863 222.351c-.351.383-.704.763-1.065 1.14-.36.374-.724.744-1.091 1.111-.183.18-.37.364-.557.544-.374.36-.75.714-1.134 1.065-.469.432-.947.855-1.432 1.268-.41.357-.822.701-1.242 1.042-.18.147-.36.292-.541.432-.315.252-.629.501-.95.744-.498.38-.999.754-1.51 1.114-.331.239-.665.475-1.003.704-2.559 1.753-5.255 3.309-8.056 4.652-.672.321-1.35.629-2.035.927-1.291.56-2.601 1.078-3.928 1.543-.416.147-.832.292-1.252.429-5.953 1.956-12.26 2.995-18.721 2.988-4.082-.003-8.23-.426-12.388-1.301-.138-.029-.275-.059-.41-.092.691-6.248 3.053-10.12 8.535-13.249 1.425-.813 2.909-1.628 4.262-2.578 1.628-1.134 3.07-2.464 3.997-4.207 1.189-2.228 1.36-4.836 1.674-7.342.315-2.503.868-5.137 2.601-6.975 1.736-1.835 5.006-2.421 6.739-.583 1.451 1.54 1.376 4.161 2.995 5.527 1.763 1.484 4.39.672 6.68.39 3.977-.488 8.086 1.163 10.822 4.049 1.176 1.238 1.795 2.775 3.204 3.712 1.77 1.174 4.011 1.613 5.806 2.946z" fill="#6cdc2d"/><path d="m436.463 184.879c1.84 2.947 3.679 5.895 5.519 8.842 1.126 1.804 2.299 3.848 1.863 5.93-.44 2.102-2.475 3.571-4.577 4.011s-4.278.057-6.391-.327c-3.793-.689-26.429-7.678-15.914-12.729 3.799-1.825 8.15 1.565 11.868-.53 2.998-1.69 3.667-11.549 7.632-5.197z" fill="#57b718"/><path d="m362.371 214.417c-.409.479-.876.914-1.339 1.343-2.715 2.517-4.591 5.853-7.524 8.127-1.266.983-2.701 1.623-4.217 1.968-8.195-7.672-14.127-17.538-17.043-28.426 1.148-1.011 2.391-1.885 3.804-2.472 2.857-1.184 6.607-.829 8.454 1.656 1.665 2.239 1.358 5.484 2.941 7.782 1.508 2.188 4.338 2.988 6.97 3.342 2.205.296 8.002.291 8.988 2.878.358.94.124 2.023-.382 2.893-.188.324-.41.624-.652.909z" fill="#6cdc2d"/><path d="m402.739 123.086c-1.442-.301-2.88-.55-4.312-.747-1.016-.138-2.031-.252-3.044-.337-.337-.029-.675-.056-1.012-.075-.334-.026-.672-.046-1.009-.062-.334-.016-.672-.033-1.006-.043-.226-.007-.452-.013-.678-.016-.446-.013-.888-.02-1.33-.02v70.106c1.517 2.172 4.102 3.745 6.684 3.257 4.348-.822 5.779-6.68 4.285-10.845-1.494-4.164-4.787-7.437-6.651-11.451-1.871-4.007-1.651-9.77 2.306-11.742 4.721-2.349 10.481 2.523 15.471.822 5.478-1.861 5.992-9.885 10.766-13.148 4.131-2.824 9.986-1.134 14.498-3.309.111-.052.223-.108.334-.167-8.43-10.995-20.683-19.143-35.302-22.223zm23.117 92.608c-2.736-2.886-6.844-4.538-10.822-4.049-2.29.282-4.918 1.094-6.68-.39-1.619-1.366-1.543-3.987-2.995-5.527-1.733-1.838-5.003-1.252-6.739.583-1.733 1.838-2.287 4.472-2.601 6.975-.315 2.506-.485 5.114-1.674 7.342-.927 1.743-2.369 3.073-3.997 4.207v17.22c6.461.007 12.768-1.032 18.721-2.988.419-.138.835-.282 1.252-.429 1.327-.465 2.637-.983 3.928-1.543.685-.295 1.363-.606 2.035-.927 2.801-1.343 5.498-2.9 8.056-4.652.337-.229.672-.465 1.003-.704.511-.36 1.012-.734 1.51-1.114.321-.242.636-.491.95-.744.18-.141.36-.285.541-.432.419-.341.832-.685 1.242-1.042.485-.413.963-.835 1.432-1.268.383-.351.76-.704 1.134-1.065.187-.18.374-.364.557-.544.367-.367.734-.737 1.091-1.111.36-.377.714-.757 1.065-1.14-1.795-1.333-4.036-1.772-5.802-2.945-1.411-.938-2.03-2.475-3.207-3.713z" fill="#57b718"/><g fill="#fff"><path d="m77.061 236.29h1.524c6.753 0 12.227 5.474 12.227 12.227v1.524h8.716v-1.524c0-6.753 5.474-12.227 12.227-12.227h1.525v-8.716h-1.525c-6.753 0-12.227-5.474-12.227-12.227v-1.525h-8.716v1.525c0 6.753-5.474 12.227-12.227 12.227h-1.524z"/><path d="m229.356 169.018h1.524c6.753 0 12.227 5.474 12.227 12.227v1.524h8.716v-1.524c0-6.753 5.474-12.227 12.227-12.227h1.525v-8.716h-1.525c-6.753 0-12.227-5.474-12.227-12.227v-1.525h-8.716v1.525c0 6.753-5.474 12.227-12.227 12.227h-1.524z"/><path d="m443.938 287.47h1.524c6.753 0 12.227 5.474 12.227 12.227v1.524h8.716v-1.524c0-6.753 5.474-12.227 12.227-12.227h1.525v-8.716h-1.525c-6.753 0-12.227-5.474-12.227-12.227v-1.525h-8.716v1.525c0 6.753-5.474 12.227-12.227 12.227h-1.524z"/><path d="m247.465 58.53h1.524c6.753 0 12.227 5.474 12.227 12.227v1.524h8.716v-1.524c0-6.753 5.474-12.227 12.227-12.227h1.525v-8.716h-1.525c-6.753 0-12.227-5.474-12.227-12.227v-1.525h-8.716v1.525c0 6.753-5.474 12.227-12.227 12.227h-1.524z"/></g><path d="m405.089 362.911c0 2.391-.056 4.771-.172 7.134-.699 14.906-3.589 29.234-8.354 42.675-20.498 57.847-75.688 99.28-140.563 99.28-.255 0-.505 0-.76-.006-64.543-.316-119.383-41.655-139.802-99.274-4.765-13.441-7.655-27.77-8.354-42.675-.116-2.363-.172-4.743-.172-7.134 0-10.573 1.098-20.891 3.195-30.843 1.365-6.485 3.151-12.82 5.331-18.966 20.419-57.62 75.26-98.958 139.802-99.274.255-.006.505-.006.76-.006 64.875 0 120.065 41.433 140.562 99.28 2.18 6.146 3.966 12.476 5.331 18.961 2.097 9.952 3.196 20.27 3.196 30.848z" fill="#22d7ff"/><path d="m405.089 362.911c0 2.391-.056 4.771-.172 7.134-.699 14.906-3.589 29.234-8.354 42.675-20.498 57.847-75.688 99.28-140.563 99.28-.255 0-.505 0-.76-.006-32.108-.643-59.35-41.876-69.519-99.274-2.385-13.441-3.828-27.77-4.177-42.675-.061-2.363-.089-4.743-.089-7.134 0-10.573.549-20.891 1.598-30.843.682-6.485 1.575-12.82 2.668-18.966 10.168-57.398 37.411-98.631 69.519-99.274.255-.006.505-.006.76-.006 64.875 0 120.065 41.433 140.562 99.28 2.18 6.146 3.966 12.476 5.331 18.961 2.097 9.952 3.196 20.27 3.196 30.848z" fill="#24c6ff"/><path d="m401.893 332.063c-1.365-6.485-3.151-12.814-5.331-18.961-20.497-57.847-75.687-99.28-140.562-99.28v298.178c64.875 0 120.065-41.433 140.562-99.28 4.765-13.441 7.655-27.77 8.354-42.675.116-2.363.172-4.743.172-7.134.001-10.578-1.098-20.896-3.195-30.848z" fill="#00b3fe"/><path d="m497.41 341.38c-6.89 19.49-16.07 37.88-27.22 54.88v.01c-19.49 6.54-44.54 12.14-73.62 16.45-40.49 6-88.75 9.49-140.57 9.49s-100.08-3.49-140.57-9.49c-29.08-4.31-54.13-9.91-73.62-16.45-11.15-17-20.33-35.4-27.22-54.89 19.9-11.68 55.49-21.56 100.84-28.28-2.17 6.15-3.96 12.48-5.33 18.97-24.34 5.33-38.85 12.05-38.85 19.33 0 6.97 13.31 13.42 35.84 18.65 33.63 7.79 87.81 12.85 148.91 12.85s115.28-5.06 148.91-12.85c22.53-5.23 35.84-11.68 35.84-18.65 0-7.28-14.5-14-38.85-19.34-1.37-6.48-3.16-12.81-5.33-18.96 45.35 6.72 80.94 16.6 100.84 28.28z" fill="#00b3fe"/><path d="m497.41 341.38c-6.89 19.49-16.07 37.88-27.22 54.88v.01c-19.49 6.54-44.55 12.14-73.63 16.45-40.48 6-88.74 9.48-140.56 9.48v-39.3c61.1 0 115.28-5.06 148.92-12.85 22.52-5.22 35.84-11.68 35.84-18.65 0-7.29-14.51-14-38.87-19.34-1.36-6.48-3.15-12.81-5.33-18.96 45.36 6.72 80.95 16.6 100.85 28.28z" fill="#ffce00"/><path d="m497.41 341.38c-6.89 19.49-16.07 37.89-27.22 54.89-19.49 6.54-44.54 12.14-73.62 16.45-40.49 6-88.75 9.49-140.57 9.49v-39.31c61.1 0 115.28-5.06 148.91-12.85 22.53-5.23 35.84-11.68 35.84-18.65 0-7.28-14.5-14-38.85-19.34-1.37-6.48-3.16-12.81-5.33-18.96 45.35 6.72 80.94 16.6 100.84 28.28z" fill="#00a1f2"/><path d="m214.623 94.578c0 .734-.017 1.465-.053 2.191-.215 4.578-1.102 8.978-2.566 13.106-6.295 17.766-23.245 30.491-43.169 30.491-.078 0-.155 0-.233-.002-19.822-.097-36.665-12.793-42.936-30.489-1.463-4.128-2.351-8.529-2.566-13.106-.036-.726-.053-1.457-.053-2.191 0-3.247.337-6.416.981-9.472.419-1.992.968-3.937 1.637-5.825 6.271-17.696 23.114-30.392 42.936-30.489.078-.002.155-.002.233-.002 19.924 0 36.874 12.725 43.169 30.491.67 1.888 1.218 3.832 1.637 5.823.645 3.056.983 6.225.983 9.474z" fill="#ffe400"/><path d="m214.623 94.578c0 .734-.017 1.465-.053 2.191-.215 4.578-1.102 8.978-2.566 13.106-6.295 17.766-23.245 30.491-43.169 30.491-.078 0-.155 0-.233-.002-9.861-.198-18.228-12.861-21.35-30.489-.733-4.128-1.176-8.529-1.283-13.106-.019-.726-.027-1.457-.027-2.191 0-3.247.169-6.416.491-9.472.21-1.992.484-3.937.819-5.825 3.123-17.628 11.49-30.291 21.35-30.489.078-.002.155-.002.233-.002 19.924 0 36.874 12.725 43.169 30.491.67 1.888 1.218 3.832 1.637 5.823.644 3.056.982 6.225.982 9.474z" fill="#ffce00"/><path d="m213.641 85.104c-.419-1.992-.968-3.935-1.637-5.823-6.295-17.766-23.245-30.491-43.169-30.491v91.576c19.924 0 36.874-12.725 43.169-30.491 1.463-4.128 2.351-8.529 2.566-13.106.036-.726.053-1.457.053-2.191 0-3.249-.338-6.418-.982-9.474z" fill="#ffb600"/></svg>