<svg id="Capa_1" enable-background="new 0 0 512 512" height="512" viewBox="0 0 512 512" width="512" xmlns="http://www.w3.org/2000/svg"><g><g><path d="m0 256c0 43.79 11 85.02 30.39 121.07l225.61 49.67 225.61-49.67c19.39-36.05 30.39-77.28 30.39-121.07 0-46.63-12.47-90.34-34.26-128-41.698 72.091-399.22 76.52-443.48 0-21.79 37.66-34.26 81.37-34.26 128z" fill="#bf2e70"/><path d="m34.26 128c44.26 76.52 126.99 128 221.74 128s177.48-51.48 221.74-128c-.01-.02-.03-.05-.04-.07-44.27-76.48-126.98-127.93-221.7-127.93s-177.43 51.45-221.7 127.93c-.01.02-.03.05-.04.07z" fill="#d75e91"/><path d="m30.39 377.07c43.19 80.32 128.02 134.93 225.61 134.93s182.42-54.61 225.61-134.93z" fill="#871155"/></g><path d="m160.972 152.14h190.055v119.222h-190.055z" fill="#e7eaf5"/><path d="m256 152.14h95.028v119.222h-95.028z" fill="#c8cde3"/><g><path d="m394.72 198.413v200.957c0 36.76-29.8 66.56-66.56 66.56h-144.32c-36.76 0-66.56-29.8-66.56-66.56v-200.957z" fill="#9feafd"/><path d="m394.72 198.413v200.957c0 36.76-29.8 66.56-66.56 66.56h-72.16v-267.517z" fill="#70c5e8"/><path d="m364.72 198.413v200.957c0 20.16-16.4 36.56-36.56 36.56h-144.32c-20.16 0-36.56-16.4-36.56-36.56v-200.957z" fill="#8898e5"/><path d="m364.72 198.413v200.957c0 20.16-16.4 36.56-36.56 36.56h-72.16v-237.517z" fill="#546bd9"/></g><path d="m211.083 271.363h19.974v91.441h-19.974z" fill="#546bd9"/><path d="m423.03 134.87c0 15.12-12.26 27.38-27.38 27.38h-279.3c-7.56 0-14.41-3.07-19.36-8.02s-8.02-11.8-8.02-19.36c0-15.12 12.26-27.38 27.38-27.38h13.29c-1.08-1.95-1.93-4.06-2.5-6.27-.58-2.21-.89-4.54-.89-6.93 0-15.12 12.26-27.38 27.38-27.38h19.93c-1.57-2.23-2.82-4.7-3.67-7.35-.86-2.65-1.32-5.48-1.32-8.41 0-15.12 12.25-27.38 27.38-27.38h120.1c7.57 0 14.41 3.07 19.36 8.02 4.96 4.95 8.02 11.8 8.02 19.36 0 5.87-1.85 11.3-4.99 15.76h19.93c7.56 0 14.41 3.07 19.36 8.02s8.02 11.8 8.02 19.36c0 4.79-1.23 9.29-3.39 13.2h13.29c7.56 0 14.41 3.07 19.36 8.02s8.02 11.8 8.02 19.36z" fill="#fff"/><path d="m423.03 134.87c0 15.12-12.26 27.38-27.38 27.38h-139.65v-138.48h60.05c7.57 0 14.41 3.07 19.36 8.02 4.96 4.95 8.02 11.8 8.02 19.36 0 5.87-1.85 11.3-4.99 15.76h19.93c7.56 0 14.41 3.07 19.36 8.02s8.02 11.8 8.02 19.36c0 4.79-1.23 9.29-3.39 13.2h13.29c7.56 0 14.41 3.07 19.36 8.02s8.02 11.8 8.02 19.36z" fill="#e7eaf5"/><path d="m407.96 201.34c0-9.32-7.56-16.88-16.89-16.88h-234.812-35.328-.004c-13.462 0-24.375 10.913-24.375 24.375l-.765 34.098c0 9.757 7.909 17.666 17.666 17.666 4.73 0 9.016-1.87 12.187-4.898v15.661c0 9.757 7.909 17.666 17.666 17.666 9.757 0 17.666-7.909 17.666-17.666l.627-48.566c.076-6.526 5.389-11.777 11.915-11.777 6.581 0 11.916 5.335 11.916 11.916v85.402c0 9.757 7.909 17.666 17.666 17.666 9.757 0 17.666-7.909 17.666-17.666l.765-99.504c0-.028 0-.057 0-.085.003-.962.189-1.878.51-2.729h185.924z" fill="#fff"/><path d="m391.07 184.46h-135.07v21.56h75.581c10.315 0 18.678 8.362 18.678 18.678v70.041c0 9.757 7.909 17.666 17.666 17.666 9.757 0 17.666-7.909 17.666-17.666v-59.926c3.171 3.027 7.457 4.898 12.187 4.898 9.757 0 17.666-7.909 17.666-17.666v-13.209c.001-13.463-10.912-24.376-24.374-24.376z" fill="#e7eaf5"/><path d="m273.552 225.642h19.974v91.441h-19.974z" fill="#8898e5"/><path d="m310.36 253.809h19.974v91.441h-19.974z" fill="#8898e5"/><path d="m157.162 294.738h19.974v91.441h-19.974z" fill="#546bd9"/></g></svg>