<svg id="Capa_1" enable-background="new 0 0 512 512" height="512" viewBox="0 0 512 512" width="512" xmlns="http://www.w3.org/2000/svg"><circle cx="256" cy="256" fill="#65b2fe" r="256"/><path d="m512 256c0 87.11-43.52 164.07-110 210.31-41.41 28.8-91.73 45.69-146 45.69s-104.59-16.89-146-45.69c-66.48-46.24-110-123.2-110-210.31 0-46.22 12.25-89.57 33.68-127 44.12 77.07 127.16 129 222.32 129s178.21-51.93 222.32-129c21.43 37.43 33.68 80.78 33.68 127z" fill="#0e9ce7"/><path d="m455.5 319.5c0 72.61-38.8 136.17-96.8 171.06-13.21 5.79-27 10.51-41.27 14.02-19.68 4.85-40.25 7.42-61.43 7.42s-41.75-2.57-61.43-7.42c-14.27-3.52-28.07-8.23-41.29-14.03-57.99-34.9-96.78-98.45-96.78-171.05 0-110.17 89.33-199.5 199.5-199.5h.29c110.04.15 199.21 89.42 199.21 199.5z" fill="#ffe853"/><path d="m455.5 319.5c0 72.61-38.8 136.17-96.8 171.06h-.01c-13.21 5.79-26.99 10.51-41.26 14.02-19.68 4.85-40.25 7.42-61.43 7.42-2.97 0-105.2-67.716-105.2-192.5 0-81.17 45.61-153.39 105.2-199.5h.29c110.04.15 199.21 89.42 199.21 199.5z" fill="#fed110"/><path d="m455.5 319.5c0 72.59-38.77 136.13-96.74 171.03-.02.01-.04.02-.06.03h-.01c-13.21 5.79-26.99 10.51-41.26 14.02-19.68 4.85-40.25 7.42-61.43 7.42v-392c110.18 0 199.5 89.32 199.5 199.5z" fill="#ff9f01"/><path d="m334.87 281.96c.01 1.64-.03 3.29-.11 4.96-2.09 38.87-32.95 70.85-71.73 74.26-2.36.21-4.71.31-7.03.31v-49.01h.1c27.02-.17 50.8-13.9 64.91-34.71 4.17-6.15 13.81-3.23 13.86 4.19z" fill="#c6601a"/><path d="m284.035 254.956c1.387-25.862 21.923-47.141 47.723-49.409 30.245-2.659 55.841 20.412 57.193 49.858.037.71.057 1.436.062 2.146 0 .057.001.114.001.171.014 4.895-6.39 6.828-9.182 2.808-9.54-13.737-25.477-22.693-43.461-22.582-17.981.111-33.804 9.248-43.19 23.094-2.772 4.09-9.187 2.151-9.223-2.79-.008-1.092.018-2.191.077-3.296z" fill="#29334c"/><path d="m334.87 281.96c.01 1.64-.03 3.29-.11 4.96-2.09 38.87-32.95 70.85-71.73 74.26-2.36.21-4.71.31-7.03.31-42.33.05-77-33.29-78.93-75.25-.05-1.07-.08-2.16-.09-3.22v-.26c-.02-7.36 9.6-10.26 13.8-4.22 14.32 20.62 38.23 34.08 65.22 33.94h.1c27.02-.17 50.8-13.9 64.91-34.71 4.17-6.15 13.81-3.23 13.86 4.19z" fill="#ed771b"/><path d="m334.87 281.96c.01 1.64-.03 3.29-.11 4.96-2.09 38.87-32.95 70.85-71.73 74.26-2.36.21-4.71.31-7.03.31v-49.01h.1c27.02-.17 50.8-13.9 64.91-34.71 4.17-6.15 13.81-3.23 13.86 4.19z" fill="#c6601a"/><path d="m123.648 254.956c1.387-25.862 21.923-47.141 47.722-49.409 30.245-2.659 55.841 20.412 57.193 49.858.037.71.057 1.436.061 2.146 0 .057.001.114.001.171.015 4.895-6.39 6.828-9.182 2.808-9.54-13.737-25.477-22.693-43.461-22.582-17.981.111-33.804 9.248-43.19 23.094-2.772 4.09-9.187 2.151-9.223-2.79-.005-1.092.02-2.191.079-3.296z" fill="#29334c"/><path d="m429.99 438.3c-.47 2.39-1.05 4.76-1.73 7.08-16.7 15.2-35.43 28.22-55.72 38.61-17.32 8.87-35.78 15.83-55.11 20.59-16.78-5.77-30.68-19.77-35.93-38.6-8.33-29.9 8.29-60.63 37.12-68.67l71-19.78c14.68-4.09 29.93 3.38 36.63 17.03.91 1.83 1.65 3.78 2.22 5.83 1.41 5.06 2.32 10.14 2.75 15.18.67 7.74.23 15.39-1.23 22.73z" fill="#ebe1cf"/><path d="m385.17 450.79 44.82-12.49c-.47 2.39-1.05 4.76-1.73 7.08-16.7 15.2-35.43 28.22-55.72 38.61l-26.29-94.37 20.3-5.66 7.04 25.27 52.66-14.67c.91 1.83 1.65 3.78 2.22 5.83 1.41 5.06 2.32 10.14 2.75 15.18l-51.84 14.44z" fill="#d3b09a"/><path d="m280.453 462.217-1.76-6.318c-8.96-32.159 8.923-65.236 39.942-73.878l59.261-16.511c9.304-2.592 17.767 6.737 14.659 16.136-3.352 10.134-11.329 18.379-22.122 21.386l-32.605 9.084c7.716 27.693-7.684 56.176-34.395 63.618-9.847 2.744-20.135-3.308-22.98-13.517z" fill="#fff"/><path d="m230.5 465.98c-5.25 18.83-19.15 32.83-35.93 38.6-19.33-4.76-37.79-11.72-55.11-20.59-20.29-10.39-39.02-23.41-55.72-38.61-.68-2.32-1.26-4.69-1.73-7.08-1.46-7.34-1.9-14.99-1.23-22.73.43-5.04 1.34-10.12 2.75-15.18.57-2.05 1.31-4 2.22-5.83 6.7-13.65 21.95-21.12 36.63-17.03l71 19.78c28.83 8.04 45.45 38.77 37.12 68.67z" fill="#ebe1cf"/><path d="m165.75 389.62-26.29 94.37c-20.29-10.39-39.02-23.41-55.72-38.61-.68-2.32-1.26-4.69-1.73-7.08l44.82 12.49 5.79-20.78-51.84-14.44c.43-5.04 1.34-10.12 2.75-15.18.57-2.05 1.31-4 2.22-5.83l52.66 14.67 7.04-25.27z" fill="#d3b09a"/><path d="m231.547 462.217 1.76-6.318c8.96-32.159-8.923-65.236-39.942-73.878l-59.261-16.511c-9.304-2.592-17.767 6.737-14.659 16.136 3.352 10.134 11.329 18.379 22.122 21.386l32.605 9.084c-7.716 27.693 7.684 56.176 34.395 63.618 9.847 2.744 20.135-3.308 22.98-13.517z" fill="#fff"/></svg>