<svg id="Capa_1" enable-background="new 0 0 512 512" height="512" viewBox="0 0 512 512" width="512" xmlns="http://www.w3.org/2000/svg"><path d="m512 256c0 82.23-38.77 155.4-99.03 202.24l-.06.05-19.5 13.74h-.01c-39.7 25.31-86.84 39.97-137.4 39.97-50.97 0-98.46-14.9-138.36-40.57l.02-.01-14.22-9.84.01.02c-62.78-46.66-103.45-121.38-103.45-205.6 0-141.38 114.62-256 256-256s256 114.62 256 256z" fill="#65b2fe"/><path d="m512 256c0 82.22-38.77 155.4-99.03 202.24l-.05.03-19.51 13.76h-.01c-39.7 25.31-86.83 39.97-137.4 39.97-50.97 0-98.46-14.9-138.35-40.58l-14.21-9.84.01.02c-62.77-46.66-103.45-121.38-103.45-205.6 0-46.22 12.25-89.57 33.68-127 44.12 77.07 127.16 129 222.32 129s178.21-51.93 222.32-129c21.43 37.43 33.68 80.78 33.68 127z" fill="#0e9ce7"/><path d="m452 316c0 105.34-83.12 191.28-187.34 195.81-.31.02-.62.03-.93.04-.87.03-1.74.06-2.6.08-1.73.05-3.44.07-5.13.07-108.24 0-196-87.76-196-196s87.76-196 196-196h.28c108.11.15 195.72 87.85 195.72 196z" fill="#ffe853"/><path d="m452 316c0 105.34-83.12 191.28-187.34 195.81-.31.02-.62.03-.93.04-.87.03-1.74.06-2.6.08-1.73.05-3.44.07-5.13.07-58.54-45.3-103.35-116.25-103.35-196s44.81-150.7 103.35-196h.28c108.11.15 195.72 87.85 195.72 196z" fill="#fed110"/><path d="m452 316c0 108.244-87.756 196-196 196v-392c108.244 0 196 87.756 196 196z" fill="#ff9f01"/><path d="m354.32 429h-1.58l-22.49-20.87h-150.12l-20.87 20.87h-1.58c-16.07 0-28.62-13.11-28.62-28.56 0-1.67.15-3.36.45-5.07 4.19-23.43 18.71-42.79 38.38-53.71h176.22c4.28 2.37 8.31 5.14 12.05 8.27 13.45 11.26 23.06 27.11 26.33 45.44 3.12 17.53-10.36 33.63-28.17 33.63z" fill="#313b5a"/><path d="m354.32 429h-1.58l-22.49-20.87h-74.25v-66.47h88.11c4.28 2.37 8.31 5.14 12.05 8.27 13.45 11.26 23.06 27.11 26.33 45.44 3.12 17.53-10.36 33.63-28.17 33.63z" fill="#29334c"/><path d="m344.11 341.66-6.15 13.56c-6.98 15.39-22.32 25.28-39.22 25.28h-85.48c-16.9 0-32.24-9.89-39.22-25.28l-6.15-13.56c11.1-6.18 23.85-9.66 37.3-9.66h101.62c13.45 0 26.2 3.48 37.3 9.66z" fill="#fff"/><path d="m352.74 429h-193.48l12.91-23.85c8.21-15.19 24.09-24.65 41.35-24.65h84.96c17.26 0 33.14 9.46 41.35 24.65z" fill="#d1f6ff"/><path d="m344.11 341.66-6.15 13.56c-6.98 15.39-22.32 25.28-39.22 25.28h-42.74v-48.5h50.81c13.45 0 26.2 3.48 37.3 9.66z" fill="#d1f6ff"/><path d="m352.74 429h-96.74v-48.5h42.48c17.26 0 33.14 9.46 41.35 24.65z" fill="#8fc9f7"/><path d="m233.762 266.264c0 25.458-20.638 46.095-46.095 46.095-25.458 0-46.095-20.638-46.095-46.095 0-9.433 2.833-18.203 7.695-25.508 8.259-12.41 84.495.05 84.495 25.508z" fill="#fff"/><circle cx="187.667" cy="266.264" fill="#29334c" r="25.616"/><path d="m370.43 266.26c0 25.46-20.64 46.1-46.1 46.1-25.45 0-46.09-20.64-46.09-46.1 0-25.45 76.24-37.91 84.49-25.5 4.87 7.3 7.7 16.08 7.7 25.5z" fill="#fff"/><circle cx="324.333" cy="266.264" fill="#29334c" r="25.616"/><path d="m362.73 240.76-84.49 25.5c0-25.45 20.64-46.09 46.09-46.09 16.03 0 30.15 8.18 38.4 20.59z" fill="#c55835"/><path d="m149.272 240.76 84.49 25.5c0-25.45-20.64-46.09-46.09-46.09-16.03 0-30.15 8.18-38.4 20.59z" fill="#ed771b"/></svg>