<svg id="Layer_1" enable-background="new 0 0 509.318 509.318" height="512" viewBox="0 0 509.318 509.318" width="512" xmlns="http://www.w3.org/2000/svg"><g><g><circle cx="249.429" cy="254.659" fill="#6ee1ff" r="249.429"/></g><path d="m457.106 392.832-.003-.004c1.984-2.976 3.906-5.998 5.763-9.063 9.098-15.009-6.429-32.753-22.559-25.832-.204.088-.409.175-.614.262-6.822 2.905-14.737 1.209-19.877-4.135l-.595-.607c-15.688-15.979-10.543-42.386 9.721-51.916 12.54-5.897 22.884-15.681 29.416-30.05.063-.138.133-.272.194-.411.052-.115.095-.232.144-.348 18.227-41.453-2.721-107.676-54.279-160.785-32.975-33.967-76.117-56.056-106.278-62.268-34.492-7.104-89.32-6.056-136.923 18.182-.01.005-.021.009-.031.014-.041.021-.081.044-.122.065-15.813 8.071-30.574 18.736-44.1 32.419-8.502 8.601-22.969 1.272-20.996-10.66.042-.257.085-.513.128-.769 1.986-11.782-12.23-19.205-20.785-10.864-46.783 45.618-75.711 109.462-75.306 180.061.79 137.603 111.821 247.966 249.426 247.966 78.124 0 147.846-35.924 193.576-92.149l.003.003c4.509-5.542 9.695-12.509 14.097-19.111zm-115.059-14.795c-26.269 0-51.588-4.065-75.364-11.596-21.026-6.66-23.821-35.252-4.616-46.098.908-.513 1.802-1.026 2.683-1.537 31.744-18.436 72.07-12.12 96.916 14.902 16.635 15.999 5.448 44.141-17.631 44.322-.662.005-1.325.007-1.988.007z" fill="#05cdff"/><g><g><path d="m440.782 277.018c-.749-.052 1.481.062 2.201.153 16.58-41.566-4.53-106.421-55.195-158.61-32.975-33.967-76.117-56.056-106.278-62.268-35.201-7.25-91.581-6.009-139.847 19.706v219.569h167.391c8-3.506 133.929-18.398 131.728-18.55z" fill="#fff"/><g fill="#faf58c"><path d="m427.384 247.738c-24.383-8.538-51.227-4.96-72.565 9.603-30.225 20.628-63.016 31.155-93.754 32.246-16.981.603-32.818-7.584-43.41-20.87-.577-.724-1.195-1.427-1.854-2.105-6.551-6.749-15.632-9.554-24.287-8.375-11.842 1.613-23.703-2.798-30.963-12.293-.262-.343-.523-.688-.782-1.036-16.609-22.265-14.697-53.121 3.987-73.675.295-.325.585-.658.869-1 8.451-10.172 8.677-25.129.54-35.553-.363-.465-.736-.914-1.119-1.35-10.41-11.824-12.381-28.807-4.807-42.619.115-.21.231-.42.347-.63 5.404-9.769-5.083-20.659-15.031-15.592-14.318 7.292-27.982 16.683-40.24 28.584-67.031 65.074-79.585 160.869-28.041 213.963 42.418 43.693 120.006 46.628 185.611 2.074 21.371-14.514 48.262-18.566 72.627-9.979 37.399 13.181 72.489 10.729 94.107-10.258 5.663-5.498 10.083-11.958 13.305-19.179 5.629-12.612-.89-27.233-13.942-31.748-.2-.069-.399-.138-.598-.208z"/><ellipse cx="375.155" cy="212.083" rx="28.472" ry="28.472" transform="matrix(.428 -.904 .904 .428 23.003 460.497)"/><ellipse cx="320.926" cy="138.384" rx="28.472" ry="28.472" transform="matrix(.191 -.982 .982 .191 123.946 427.075)"/><ellipse cx="231.782" cy="105.274" rx="28.472" ry="28.472" transform="matrix(.191 -.982 .982 .191 84.286 312.76)"/></g><path d="m388.225 199.158c7.737 7.964 9.881 19.29 6.504 29.118-.94 2.736-18.486 3.441-30.025 3.607-8.408.121-16.516-3.587-21.571-10.307-2.27-3.018-3.738-6.36-2.94-9.539 1.27-5.06 3.947-9.834 8.021-13.699 11.204-10.63 29.248-10.258 40.011.82z" fill="#2d56a1"/><path d="m340.193 212.038c-2.45 9.754.327 20.568 8.395 27.973 10.652 9.775 27.292 9.899 38.1.298 3.821-3.394 6.502-7.558 8.038-12.033 1.197-3.487-2.713-6.518-5.798-4.5-14.423 9.431-34.494 3.211-41.426-12.318-1.497-3.357-6.414-2.985-7.309.58z" fill="#1a396b"/><path d="m332.28 123.83c9.378 8.214 11.98 20.912 7.903 31.62-.666 1.75-9.287 2.471-18.323 2.741-12.949.387-25.081-6.31-31.638-17.483l-3.258-5.552c1.678-4.411 4.488-8.484 8.425-11.768 10.64-8.875 26.467-8.689 36.891.442z" fill="#6ee1ff"/><path d="m300.73 145.256c-2.897-2.984-5.007-6.439-6.336-10.111-1.249-3.45-6.126-3.418-7.43.012-4.056 10.663-1.49 23.297 7.792 31.511 10.5 9.292 26.552 9.437 37.23.351 3.818-3.249 6.55-7.247 8.194-11.571 1.302-3.426-2.327-6.664-5.556-4.93-10.89 5.848-24.798 4.108-33.894-5.262z" fill="#05cdff"/><path d="m243.554 91.093c12.263 11.157 12.424 30.153.71 41.525l-5.826-1.33c-16.895-3.856-30.696-15.989-36.684-32.251l-.989-2.686c1.304-1.944 2.873-3.762 4.705-5.402 10.761-9.629 27.402-9.574 38.084.144z" fill="#82cd64"/><path d="m217.147 112.048c-3.93-4.049-6.414-8.965-7.463-14.112-.852-4.183-6.232-5.455-8.666-1.948-.084.121-.167.243-.25.366-6.933 10.315-6.288 24.211 1.59 33.824 10.71 13.069 30.039 13.962 41.906 2.441 1.732-1.681 3.204-3.53 4.415-5.495 2.155-3.497-.976-7.981-4.989-7.102-9.306 2.038-19.42-.637-26.543-7.974z" fill="#20b7a1"/><path d="m154.771 138.259c9.52 8.944 11.466 22.703 5.95 33.619-.426.842-4.21 1.369-9.257 1.694-17.569 1.134-34.29-7.704-43.429-22.752 1.441-4.798 4.172-9.287 8.185-12.918 10.881-9.843 27.857-9.69 38.551.357z" fill="#ff5551"/><path d="m122.224 160.494c-2.821-2.905-4.896-6.258-6.23-9.821-1.414-3.775-6.793-3.711-7.953.15-3.082 10.254-.272 21.921 8.515 29.646 10.357 9.105 26.092 9.375 36.752.626 3.208-2.632 5.679-5.784 7.412-9.218 1.784-3.533-1.997-7.376-5.551-5.634-10.766 5.274-24.145 3.316-32.945-5.749z" fill="#e20a62"/><path d="m133.061 228.728c11.007 9.796 12.51 25.826 4.666 37.331-.402.59-5.509.026-11.711-.905-14.333-2.151-26.399-11.86-31.551-25.407l-2.742-7.212c1.076-1.377 2.296-2.676 3.659-3.878 10.69-9.423 27.033-9.403 37.679.071z" fill="#ff8500"/><path d="m107.002 252.446c-4.875-5.021-7.527-11.378-7.975-17.852-.251-3.63-4.856-5.124-7.128-2.281-.059.074-.118.148-.176.223-8.048 10.27-7.996 25.005.146 35.201 10.66 13.349 30.188 14.342 42.144 2.735 1.164-1.13 2.21-2.335 3.139-3.6 2.21-3.009-.458-7.075-4.118-6.343-9.163 1.832-19.039-.879-26.032-8.083z" fill="#fa690f"/><path d="m208.451 273.528c10.953 11.282 10.686 29.308-.596 40.261-4.563 4.43-11.386 4.377-17.894 2.742-13.494-3.39-23.926-14.465-25.783-28.254-.765-5.681-.062-11.39 4.012-15.345 11.282-10.954 29.308-10.687 40.261.596z" fill="#f8e000"/><path d="m183.493 298.347c-6.117-6.301-8.73-14.703-7.882-22.803.382-3.646-3.913-5.8-6.637-3.346-.904.815-1.769 1.698-2.588 2.651-9.079 10.56-9.067 26.477.012 37.037 10.794 12.555 29.753 13.266 41.456 1.904.026-.025.052-.051.079-.077 2.584-2.528.585-6.872-3.029-6.748-7.752.267-15.582-2.614-21.411-8.618z" fill="#ffc305"/></g><g><path d="m285.179 236.823c-12.109-10.216-27.488-13.751-36.23-14.971-1.922-.268-3.112 2.054-1.764 3.451 7.465 7.736 8.865 18.978 9.038 24.98-.293 2.199-.093 3.597-.07 4.147l.004-.002c1.524 14.355 19.161 20.811 29.537 10.435 7.288-7.288 9.917-19.213-.515-28.04z" fill="#ff8500"/><path d="m364.699 322.661-19.663 19.663-67.418-73.322 13.76-13.759z" fill="#6ee1ff"/><path d="m357.052 330.308-7.647 7.647-69.221-71.518 5.351-5.351z" fill="#fff"/><path d="m364.699 322.661-19.664 19.664 147.485 141.847c3.895 3.746 10.071 3.686 13.892-.135 3.821-3.821 3.881-9.997.135-13.892z" fill="#2d56a1"/></g></g></g></svg>