<svg id="Capa_1" enable-background="new 0 0 512 512" height="512" viewBox="0 0 512 512" width="512" xmlns="http://www.w3.org/2000/svg"><g><g><path d="m512 256c0 43.79-11 85.02-30.39 121.07l-225.61 49.67-225.61-49.67c-19.39-36.05-30.39-77.28-30.39-121.07 0-46.63 12.47-90.34 34.26-128 41.698 72.091 399.22 76.52 443.48 0 21.79 37.66 34.26 81.37 34.26 128z" fill="#9febff"/><path d="m477.74 128c-44.26 76.52-126.99 128-221.74 128s-177.48-51.48-221.74-128c.01-.02.03-.05.04-.07 44.27-76.48 126.98-127.93 221.7-127.93s177.43 51.45 221.7 127.93c.01.02.03.05.04.07z" fill="#c4f4ff"/><path d="m312.06 86.757h-48.598l-7.462-22.118 7.462-21.022h48.598l-13.068 21.57z" fill="#9965d8"/><path d="m481.61 377.07c-2.83 5.26-5.84 10.41-9.02 15.44-9.2 14.577-50.717 12.91-62.585 25.301-7.444 7.771 15.509 30.322 7.145 37.109-44 35.69-100.08 57.08-161.15 57.08s-117.15-21.39-161.15-57.08c-8.364-6.788 23.185-40.22 15.742-47.991-11.868-12.39-61.982.158-71.182-14.419-3.18-5.03-6.19-10.18-9.02-15.44z" fill="#599d8a"/></g><path d="m248.538 43.617h14.925v86.28h-14.925z" fill="#464652"/><path d="m472.59 277.37v115.14c-14.97 23.72-33.74 44.8-55.44 62.41h-128.847l-32.303-16.493-32.303 16.493h-17.187l-79.905-5.55-31.755 5.55c-21.7-17.61-40.47-38.69-55.44-62.41v-115.14z" fill="#daddee"/><path d="m472.59 277.37v115.14c-14.97 23.72-33.74 44.8-55.44 62.41l-104.81-44.404-17.3 44.404v-177.55z" fill="#c8cde4"/><path d="m486.27 290.8h-230.27v-79.47h209.34z" fill="#a8306e"/><path d="m256 211.33v79.47h-230.27l20.93-79.47z" fill="#c02e71"/><path d="m368.68 183.02v271.9h-80.377l-32.303-16.493-32.303 16.493-80.377-6.343v-265.557l112.68-56.34z" fill="#e8ebf7"/><path d="m368.68 183.02v265.134l-63.19 6.766h-17.187l-32.303-16.493v-311.747z" fill="#daddee"/><path d="m417.08 190.86-17.89 35.77-143.19-71.59-143.19 71.59-17.89-35.77 161.08-80.54z" fill="#d95f91"/><path d="m191.222 71.835h-.661c-2.349-15.963-16.098-28.217-32.714-28.217s-30.365 12.254-32.714 28.217h-.661c-12.4 0-22.452 10.052-22.452 22.452h111.655c0-12.4-10.053-22.452-22.453-22.452z" fill="#fff"/><path d="m174.535 83.061h-.331c-1.174-7.981-8.049-14.109-16.357-14.109s-15.183 6.127-16.357 14.109h-.331c-6.2 0-11.226 5.026-11.226 11.226h55.828c0-6.2-5.026-11.226-11.226-11.226z" fill="#e8ebf7"/><path d="m408.625 98.546h-.661c-2.349-15.963-16.098-28.217-32.714-28.217-16.615 0-30.365 12.254-32.714 28.217h-.661c-12.4 0-22.452 10.052-22.452 22.452h111.655c0-12.4-10.053-22.452-22.453-22.452z" fill="#fff"/><path d="m391.938 109.772h-.331c-1.174-7.981-8.049-14.109-16.357-14.109s-15.183 6.127-16.357 14.109h-.331c-6.2 0-11.226 5.026-11.226 11.226h55.828c0-6.2-5.026-11.226-11.226-11.226z" fill="#e8ebf7"/><g><path d="m308.3 239.68c0 28.88-23.41 52.3-52.3 52.3s-52.3-23.42-52.3-52.3c0-28.89 23.41-52.31 52.3-52.31s52.3 23.42 52.3 52.31z" fill="#d95f91"/><path d="m308.3 239.68c0 28.88-23.41 52.3-52.3 52.3v-104.61c28.89 0 52.3 23.42 52.3 52.31z" fill="#c02e71"/><path d="m289.19 239.68c0 18.32-14.86 33.18-33.19 33.18s-33.19-14.86-33.19-33.18c0-18.33 14.86-33.19 33.19-33.19s33.19 14.86 33.19 33.19z" fill="#c4f4ff"/><path d="m289.19 239.68c0 18.32-14.86 33.18-33.19 33.18v-66.37c18.33 0 33.19 14.86 33.19 33.19z" fill="#9febff"/><g fill="#464652"><circle cx="256" cy="239.675" r="8.49"/><path d="m251.822 211.559h8.356v29.785h-8.356z"/><path d="m257.625 223.996h8.356v19.752h-8.356z" transform="matrix(.707 .707 -.707 .707 242.053 -116.623)"/></g></g><path d="m308.3 325.51v129.41h-19.997l-32.303-16.493-32.303 16.493h-19.997v-129.41z" fill="#daddee"/><path d="m308.3 325.51v129.41h-19.997l-32.303-16.493v-112.917z" fill="#c8cde4"/><path d="m201.295 367.913h109.409v64.605h-109.409z" fill="#464652" transform="matrix(0 1 -1 0 656.216 144.216)"/><path d="m217.447 384.065h109.409v32.303h-109.409z" fill="#2d2f40" transform="matrix(0 1 -1 0 672.367 128.065)"/><g><g><path d="m456.683 345.015v61.914h-73.699v-61.914c0-20.319 16.531-36.85 36.85-36.85 9.828 0 19.084 3.83 26.048 10.777 6.97 6.972 10.801 16.228 10.801 26.073z" fill="#c02e71"/><path d="m445.881 318.942c6.972 6.972 10.802 16.228 10.802 26.073v61.914h-36.85v-98.764c9.828 0 19.084 3.83 26.048 10.777z" fill="#a8306e"/><path d="m440.882 345.014v46.11h-42.097v-46.11c0-11.622 9.426-21.048 21.048-21.048 5.807 0 11.069 2.354 14.886 6.163 3.808 3.807 6.163 9.07 6.163 14.885z" fill="#9febff"/><path d="m398.785 359.962h42.097v31.162h-42.097z" fill="#d7f4ff"/><path d="m440.882 345.014v46.11h-21.048v-67.159c5.807 0 11.069 2.354 14.886 6.163 3.807 3.808 6.162 9.071 6.162 14.886z" fill="#70c5e9"/><path d="m440.882 345.014v14.949h-21.048v-35.997c5.807 0 11.069 2.354 14.886 6.163 3.807 3.807 6.162 9.07 6.162 14.885z" fill="#c4f4ff"/></g><g><path d="m129.016 345.015v61.914h-73.699v-61.914c0-20.319 16.531-36.85 36.85-36.85 9.828 0 19.084 3.83 26.048 10.777 6.971 6.972 10.801 16.228 10.801 26.073z" fill="#d95f91"/><path d="m118.214 318.942c6.972 6.972 10.802 16.228 10.802 26.073v61.914h-36.85v-98.764c9.829 0 19.085 3.83 26.048 10.777z" fill="#c02e71"/><path d="m113.215 345.014v46.11h-42.096v-46.11c0-11.622 9.426-21.048 21.048-21.048 5.807 0 11.069 2.354 14.886 6.163 3.808 3.807 6.162 9.07 6.162 14.885z" fill="#9febff"/><path d="m71.119 359.962h42.097v31.162h-42.097z" fill="#d7f4ff"/><path d="m113.215 345.014v46.11h-21.048v-67.159c5.807 0 11.069 2.354 14.886 6.163 3.808 3.808 6.162 9.071 6.162 14.886z" fill="#70c5e9"/><path d="m113.215 345.014v14.949h-21.048v-35.997c5.807 0 11.069 2.354 14.886 6.163 3.808 3.807 6.162 9.07 6.162 14.885z" fill="#c4f4ff"/></g></g><path d="m417.08 190.86-17.89 35.77-143.19-71.59v-44.72z" fill="#c02e71"/><g><path d="m417.15 454.92h-111.66c0-12.4 10.05-22.45 22.45-22.45h.66c2.35-15.96 16.1-28.22 32.72-28.22 16.61 0 30.36 12.26 32.71 28.22h.66c12.4 0 22.46 10.05 22.46 22.45z" fill="#cdff8f"/><path d="m417.15 454.92h-55.83v-50.67c16.61 0 30.36 12.26 32.71 28.22h.66c12.4 0 22.46 10.05 22.46 22.45z" fill="#a9eb58"/></g><g><path d="m206.51 454.92h-111.66c0-12.4 10.05-22.45 22.45-22.45h.66c2.35-15.96 16.1-28.22 32.72-28.22 16.61 0 30.36 12.26 32.71 28.22h.66c12.4 0 22.46 10.05 22.46 22.45z" fill="#cdff8f"/><path d="m206.51 454.92h-55.83v-50.67c16.61 0 30.36 12.26 32.71 28.22h.66c12.4 0 22.46 10.05 22.46 22.45z" fill="#a9eb58"/></g></g></svg>