<svg id="Capa_1" enable-background="new 0 0 512 512" height="512" viewBox="0 0 512 512" width="512" xmlns="http://www.w3.org/2000/svg"><g><g><path d="m256 305.196c-141.387 0-244.873-134.53-225.275-170.728 43.298-79.976 127.942-134.292 225.275-134.292 97.204 0 181.752 54.172 225.103 133.974 19.704 36.273-83.716 171.046-225.103 171.046z" fill="#e38031"/><path d="m512 256.176c0 26.051-3.891 51.191-11.129 74.871-5.031 16.469-11.672 32.231-19.75 47.109-8.25 15.2-147.391 48.108-225.121 48.108s-216.871-32.908-225.109-48.108c-3.289-6.031-6.332-12.21-9.121-18.531-14-31.629-21.77-66.629-21.77-103.449 0-46.219 12.25-89.57 33.68-127 44.121 77.07 127.16 129 222.32 129s178.211-51.93 222.32-129c21.43 37.43 33.68 80.781 33.68 127zm0 0" fill="#d85819"/><path d="m481.262 377.875c-7.16 13.223-15.434 25.742-24.723 37.43-8.437 10.633-17.719 20.57-27.719 29.723-6.994 6.404-14.344 12.425-22.018 18.029-42.296 30.887-260.766 30.373-303.374-1.305-7.036-5.231-13.793-10.814-20.247-16.724-10-9.153-19.282-19.09-27.719-29.723-9.289-11.688-17.563-24.207-24.723-37.43zm0 0" fill="#bd4911"/></g><g><path d="m338.704 208.553v-100.011h-41.352l-41.352 135.456z" fill="#2d3e53"/><path d="m297.352 232.183v-123.641h-41.352l-35.445 123.641z" fill="#435d7a"/><path d="m214.648 108.542h-41.352v100.011l82.704 35.445z" fill="#7397b8"/><path d="m214.648 108.542h41.352v123.641h-41.352z" fill="#5a7ba0"/><path d="m256 208.553-47.26 70.889h129.964v-70.889z" fill="#f2d332"/><path d="m173.296 208.553h82.704v70.89h-82.704z" fill="#ffeb78"/><path d="m173.296 208.553h41.352v70.89h-41.352z" fill="#fff"/><path d="m383.288 285.535-44.584-29.722h-82.704l-82.704 140.883 82.704 115.128h13.461c52.439-2.717 100.7-21.213 140.133-50.831v-8.243l-59.074-56.054 59.074-56.054v-5.953c0-19.798-9.834-38.172-26.306-49.154z" fill="#ffeb78"/><path d="m102.406 460.993c39.433 29.618 87.694 48.115 140.133 50.831h13.461v-256.011h-82.704l-44.584 29.723c-16.472 10.981-26.306 29.356-26.306 49.153v5.953l59.075 56.054-59.075 56.054z" fill="#fff0be"/><path d="m370.18 305.196-38.63-25.754h-75.55l-47.26 78.788z" fill="#f2d332"/><path d="m141.82 305.196 38.63-25.754h75.55v78.788z" fill="#ffeb78"/><path d="m370.181 305.196h-114.181l-47.26 91.499 47.26 91.5h108.283c7.429-3.473 14.662-7.291 21.682-11.436v-142.071c-.001-11.878-5.901-22.903-15.784-29.492z" fill="#fff0be"/><path d="m147.717 488.195h108.283v-182.999h-114.18c-9.883 6.589-15.784 17.614-15.784 29.492v142.071c7.019 4.145 14.253 7.963 21.681 11.436z" fill="#fff"/><path d="m256 340.641-47.26 56.46 47.26 55.649h153.594v-112.109z" fill="#435d7a"/><path d="m102.406 340.641h153.594v112.109h-153.594z" fill="#5a7ba0"/><path d="m102.406 340.641h76.797v112.109h-76.797z" fill="#7397b8"/></g><g fill="#fff"><path d="m422.183 145.45h-1.524c-6.754 0-12.226-5.477-12.226-12.227v-1.523h-8.715v1.523c0 6.75-5.477 12.227-12.227 12.227h-1.527v8.715h1.527c6.75 0 12.227 5.472 12.227 12.226v1.528h8.715v-1.528c0-6.754 5.472-12.226 12.226-12.226h1.524zm0 0"/><path d="m112.703 204.861h-1.524c-6.754 0-12.226-5.477-12.226-12.227v-1.523h-8.715v1.523c0 6.75-5.477 12.227-12.227 12.227h-1.527v8.715h1.527c6.75 0 12.227 5.472 12.227 12.226v1.528h8.715v-1.528c0-6.754 5.472-12.226 12.226-12.226h1.524zm0 0"/><path d="m327.277 56.925h-1.524c-6.754 0-12.226-5.477-12.226-12.227v-1.523h-8.715v1.523c0 6.75-5.477 12.227-12.227 12.227h-1.527v8.715h1.527c6.75 0 12.227 5.472 12.227 12.226v1.528h8.715v-1.528c0-6.754 5.472-12.226 12.226-12.226h1.524zm0 0"/></g></g></svg>