<svg id="Capa_1" enable-background="new 0 0 512 512" height="512" viewBox="0 0 512 512" width="512" xmlns="http://www.w3.org/2000/svg"><g><g><path d="m256 333.224c-141.387 0-243.753-166.798-222.328-204.225 44.119-77.07 127.158-128.999 222.328-128.999s178.208 51.929 222.328 128.999c21.425 37.427-80.941 204.225-222.328 204.225z" fill="#e36565"/><path d="m512 256c0 26.051-3.891 51.191-11.129 74.871-5.031 16.469-11.672 32.231-19.75 47.109-8.25 15.2-147.391 54.416-225.121 54.416s-216.871-39.216-225.109-54.416c-3.289-6.031-6.332-12.21-9.121-18.531-14-31.629-21.77-66.629-21.77-103.449 0-46.219 12.25-89.57 33.68-127 44.121 77.07 127.16 129 222.32 129s178.211-51.93 222.32-129c21.43 37.43 33.68 80.781 33.68 127zm0 0" fill="#da3f3e"/><path d="m481.262 377.699c-7.16 13.223-15.434 25.742-24.723 37.43-8.437 10.633-17.719 20.57-27.719 29.723-7.61 6.968-15.642 13.483-24.054 19.5-6.388 4.57-36.609 22.032-45.42 25.925-15.213 6.722-31.204 12.006-47.801 15.678-3.576.791-7.64-1.992-11.27-1.352-4.235.747-8.046 4.889-12.35 5.425-10.46 1.302-21.114 1.972-31.925 1.972-5.359 0-10.68-.165-15.957-.489-3.962-.244-7.226-4.701-11.138-5.123s-8.471 3.191-12.328 2.595c-16.522-2.555-32.522-6.689-47.841-12.245-8.978-3.256-50.358-24.415-61.49-32.377-3.604-2.578-7.139-5.247-10.601-8.004-4.621-3.681-7.167-9.769-11.52-13.755-3.544-3.244-8.944-4.335-12.302-7.772-5.907-6.046-11.517-12.384-16.801-18.994-.188-.235-.745-6.601-.932-6.837-2.21-2.78-3.992.523-6.086-2.349-6.707-9.204-12.811-18.872-18.268-28.95h450.526zm0 0" fill="#a52020"/></g><g><path d="m240.355 153.903c-63.597 0-108.622 209.818-119.697 271.804l-2.559 14.833h72.255l85.732-264.565c-11.021-13.644-22.929-22.072-35.731-22.072z" fill="#8ab8ec"/><path d="m430.719 425.707c-11.275-62.659-55.331-271.804-118.903-271.804-12.801 0-24.71 8.428-35.73 22.071l85.732 264.565h71.461z" fill="#e38d22"/><path d="m359.259 425.707c-9.284-51.102-38.685-194.655-83.173-249.732-44.488 55.077-73.888 198.63-83.173 249.732l-2.559 14.833h85.732 85.732z" fill="#a8eb58"/><path d="m359.259 425.707c-9.284-51.102-38.685-194.655-83.173-249.732v264.565h85.732z" fill="#80cf8c"/><g fill="#535564"><path d="m404.759 464.36h-128.673-168.845c18.813 13.455 39.524 24.423 61.654 32.43v-8.609h47.64v20.791c7.827 1.211 15.775 2.054 23.82 2.539v-23.331h35.73 11.91v21.833c8.064-1.005 16.007-2.396 23.82-4.133v-17.7h47.64v2.037c16.033-7.092 31.203-15.772 45.304-25.857z"/><path d="m96.64 105.469h-47.64v23.82h23.82v48.434h-23.82v23.82h23.82v47.64h-23.82v23.82h23.82v47.64h-23.82v23.82h23.82v47.64h-23.82v14.518c2.3 3.156 4.67 6.258 7.109 9.302h16.711v18.883c7.48 7.662 15.434 14.859 23.82 21.538z"/></g><path d="m404.759 464.36h-128.673v23.82h11.91v21.833c8.064-1.005 16.007-2.396 23.82-4.133v-17.7h47.64v2.037c16.032-7.092 31.202-15.772 45.303-25.857z" fill="#3b3b3b"/></g><g fill="#fff"><path d="m184.382 111.208h-1.524c-6.754 0-12.226-5.477-12.226-12.227v-1.523h-8.715v1.523c0 6.75-5.477 12.227-12.227 12.227h-1.527v8.715h1.527c6.75 0 12.227 5.472 12.227 12.226v1.528h8.715v-1.528c0-6.754 5.472-12.226 12.226-12.226h1.524zm0 0"/><path d="m293.458 55.531h-1.524c-6.754 0-12.226-5.477-12.226-12.227v-1.523h-8.715v1.523c0 6.75-5.477 12.227-12.227 12.227h-1.527v8.715h1.527c6.75 0 12.227 5.472 12.227 12.226v1.528h8.715v-1.528c0-6.754 5.472-12.226 12.226-12.226h1.524zm0 0"/><path d="m430.203 147.427h-1.524c-6.754 0-12.226-5.477-12.226-12.227v-1.523h-8.715v1.523c0 6.75-5.477 12.227-12.227 12.227h-1.527v8.715h1.527c6.75 0 12.227 5.472 12.227 12.226v1.528h8.715v-1.528c0-6.754 5.472-12.226 12.226-12.226h1.524zm0 0"/></g></g></svg>