<svg id="Capa_1" enable-background="new 0 0 512 512" height="512" viewBox="0 0 512 512" width="512" xmlns="http://www.w3.org/2000/svg"><g><g><path d="m256 286.055c-141.387 0-243.754-119.452-222.329-156.878 44.119-77.071 127.158-129.001 222.329-129.001s178.21 51.93 222.329 129.001c21.425 37.427-80.942 156.878-222.329 156.878z" fill="#8bfff4"/><path d="m512 256.176c0 26.051-3.891 51.191-11.129 74.871-5.031 16.469-11.672 32.231-19.75 47.109-8.25 15.2-147.391 53.081-225.121 53.081s-216.871-37.881-225.109-53.081c-3.289-6.031-6.332-12.21-9.121-18.531-14-31.629-21.77-66.629-21.77-103.449 0-46.219 12.25-89.57 33.68-127 44.121 77.07 127.16 129 222.32 129s178.211-51.93 222.32-129c21.43 37.43 33.68 80.781 33.68 127zm0 0" fill="#2dceea"/><path d="m481.262 377.875c-7.16 13.223-15.434 25.742-24.723 37.43-6.631 8.357-13.784 16.284-21.397 23.739-2.073 2.03-112.533 39.801-179.142 39.801s-177.068-37.772-179.142-39.802c-7.613-7.454-14.766-15.381-21.397-23.738-9.289-11.688-17.563-24.207-24.723-37.43zm0 0" fill="#429dea"/></g><g><path d="m76.263 438.449c35.759 35.264 81.837 60.084 133.302 69.514l46.434-139.689h-179.736z" fill="#ffd699"/><path d="m142.273 485.57c25.78 12.805 54.02 21.39 83.827 24.858l29.899-142.154h-113.726z" fill="#ffc46c"/><path d="m302.434 507.963c51.465-9.43 97.543-34.25 133.302-69.513v-70.176h-179.737z" fill="#ffa688"/><path d="m255.999 511.824h13.461c11.643-.603 23.075-1.999 34.256-4.107v-139.443h-95.435z" fill="#ba1956"/><path d="m208.282 507.717c11.181 2.108 22.613 3.504 34.257 4.107h13.46v-143.55h-47.718v139.443z" fill="#ff0f47"/><path d="m208.282 507.717c7.712 1.454 15.544 2.563 23.483 3.309v-142.752h-23.483z" fill="#ff3d6b"/><path d="m314.278 107.886c-27.752-11.495-58.278 8.902-58.278 38.94l-47.718 101.756 47.718 47.718 71.952-119.67c21.24-21.24 14.078-57.249-13.674-68.744z" fill="#ff0f47"/><path d="m396.696 190.304c-11.495-27.752-47.503-34.915-68.744-13.674l-71.952 71.952v47.718l101.756-47.718c30.038 0 50.435-30.526 38.94-58.278z" fill="#ba1956"/><path d="m197.721 107.886c-27.752 11.495-34.915 47.504-13.674 68.744l71.952 119.67v-149.474c0-30.038-30.526-50.435-58.278-38.94z" fill="#ff4f42"/><path d="m220.64 105.2c-7.385-1.22-15.256-.488-22.919 2.686-27.752 11.495-34.915 47.503-13.674 68.744l36.593 60.861z" fill="#ff7166"/><path d="m184.047 176.63c-21.241-21.24-57.249-14.078-68.744 13.674s8.902 58.278 38.94 58.278l101.756 47.718v-47.718z" fill="#ff0f47"/><path d="m183.358 175.983c-21.321-20.421-56.681-13.137-68.054 14.321-11.495 27.752 8.902 58.278 38.94 58.278l29.114 13.653z" fill="#ff3d6b"/><path d="m52.404 248.582v143.551h132.019l47.718-71.775-47.718-71.776z" fill="#fff8ed"/><path d="m114.86 248.582v143.551h86.144l31.137-71.775-31.137-71.776z" fill="#ffebce"/><path d="m327.576 248.582-47.718 71.776 47.718 71.775h132.019v-143.551z" fill="#ffd89d"/><path d="m255.999 248.582-47.717 71.776 47.717 71.775h71.577v-143.551z" fill="#ff0f47"/><path d="m184.423 248.582h71.576v143.55h-71.576z" fill="#ff4f42"/><path d="m184.423 248.582h35.6v143.55h-35.6z" fill="#ff7166"/></g><g fill="#fff"><path d="m237.89 63.574h1.524c6.754 0 12.226 5.472 12.226 12.226v1.528h8.715v-1.528c0-6.754 5.477-12.226 12.227-12.226h1.527v-8.715h-1.527c-6.75 0-12.227-5.477-12.227-12.227v-1.523h-8.715v1.523c0 6.75-5.472 12.227-12.226 12.227h-1.524zm0-8.715"/><g><path d="m379.029 114.753h1.524c6.754 0 12.226 5.472 12.226 12.226v1.528h8.715v-1.528c0-6.754 5.477-12.226 12.227-12.226h1.527v-8.715h-1.527c-6.75 0-12.227-5.477-12.227-12.227v-1.523h-8.715v1.523c0 6.75-5.472 12.227-12.226 12.227h-1.524zm0-8.715"/><path d="m96.751 114.753h1.524c6.754 0 12.226 5.472 12.226 12.226v1.528h8.715v-1.528c0-6.754 5.477-12.226 12.227-12.226h1.527v-8.715h-1.527c-6.75 0-12.227-5.477-12.227-12.227v-1.523h-8.715v1.523c0 6.75-5.472 12.227-12.226 12.227h-1.524zm0-8.715"/></g></g></g></svg>