<svg id="Icons" enable-background="new 0 0 512 512" height="512" viewBox="0 0 512 512" width="512" xmlns="http://www.w3.org/2000/svg"><g><circle cx="256" cy="256" fill="#22bce0" r="256"/><g><g><path d="m364.855 203.329v216.844c0 5.708-1.459 11.066-4.027 15.738-3.086 5.623-7.779 10.242-13.466 13.233-4.545 2.399-9.734 3.752-15.231 3.752h-152.263c-5.517 0-10.707-1.363-15.262-3.773-5.665-2.991-10.348-7.599-13.434-13.212-2.568-4.672-4.027-10.03-4.027-15.738v-216.844c0-12.557 7.071-23.464 17.461-28.95 4.556-2.41 9.745-3.773 15.262-3.773h152.264c5.496 0 10.686 1.353 15.231 3.752 10.4 5.486 17.492 16.393 17.492 28.971z" fill="#e9465e"/><path d="m182.066 203.329v216.844c0 12.557-7.071 23.464-17.461 28.95-5.665-2.991-10.348-7.599-13.434-13.212-2.568-4.672-4.027-10.03-4.027-15.738v-216.844c0-12.557 7.071-23.464 17.461-28.95 10.39 5.486 17.461 16.393 17.461 28.95z" fill="#c0405c"/><path d="m364.855 203.329v216.844c0 5.708-1.459 11.066-4.027 15.738-3.086 5.623-7.779 10.242-13.466 13.233-10.4-5.486-17.492-16.393-17.492-28.971v-216.844c0-12.578 7.092-23.485 17.492-28.971 10.401 5.486 17.493 16.393 17.493 28.971z" fill="#ee6781"/><path d="m360.828 435.911c-3.086 5.623-7.779 10.242-13.466 13.233-4.545 2.399-9.734 3.752-15.231 3.752h-152.263c-5.517 0-10.707-1.363-15.262-3.773-5.665-2.991-10.348-7.599-13.434-13.212 5.56-10.126 16.33-16.985 28.696-16.985h152.264c12.366 0 23.137 6.859 28.696 16.985z" fill="#c0405c"/><path d="m347.363 354.567c-9.661 0-17.493-7.832-17.493-17.493v-67.889c0-9.661 7.832-17.493 17.492-17.493 9.661 0 17.492 7.832 17.492 17.493v67.889c.001 9.661-7.83 17.493-17.491 17.493z" fill="#f0a6b3"/><path d="m306.665 188.758h-60.604c-5.012 0-9.075-4.063-9.075-9.075 0-5.012 4.063-9.075 9.075-9.075h60.604c5.012 0 9.075 4.063 9.075 9.075 0 5.012-4.063 9.075-9.075 9.075z" fill="#f0a6b3"/><path d="m310.969 254.98h-97.209c-5.012 0-9.075-4.063-9.075-9.075 0-5.012 4.063-9.075 9.075-9.075h97.209c5.012 0 9.075 4.063 9.075 9.075 0 5.012-4.063 9.075-9.075 9.075z" fill="#c0405c"/></g><g><path d="m348.409 206.722v12.144c0 .471-.024.942-.059 1.402-.707 9.27-8.458 16.562-17.905 16.562h-148.89c-9.447 0-17.198-7.291-17.905-16.562-.035-.459-.059-.931-.059-1.402v-12.144c0-9.918 8.045-17.963 17.963-17.963h148.89c9.919-.001 17.965 8.045 17.965 17.963z" fill="#2d2c33"/><path d="m348.35 220.268c-.707 9.27-8.458 16.562-17.905 16.562h-148.89c-9.447 0-17.198-7.291-17.905-16.562.707-9.282 8.458-16.573 17.905-16.573h148.89c9.447-.001 17.198 7.291 17.905 16.573z" fill="#334353"/><g fill="#cde6f6"><path d="m201.065 224.344c0 1.48-.837 2.219-2.512 2.219h-15.909c-.726 0-1.298-.216-1.717-.649s-.628-.97-.628-1.612c0-.837.321-1.591.964-2.261l9.545-10.257c1.172-1.283 2.03-2.463 2.575-3.538.544-1.074.816-2.142.816-3.203 0-1.312-.377-2.316-1.13-3.014-.753-.697-1.829-1.047-3.224-1.047-1.145 0-2.255.216-3.329.649-1.075.434-2.156 1.026-3.243 1.78-.279.196-.559.356-.837.481-.279.126-.559.189-.837.189-.475 0-.887-.223-1.236-.67-.349-.446-.523-.976-.523-1.591 0-.419.076-.781.23-1.089.153-.307.397-.6.733-.879 1.228-.977 2.665-1.752 4.312-2.324 1.646-.572 3.293-.859 4.941-.859 2.874 0 5.17.726 6.887 2.178 1.717 1.451 2.575 3.405 2.575 5.861 0 1.703-.363 3.301-1.088 4.794-.726 1.493-1.954 3.161-3.684 5.003l-7.243 7.703h11.053c1.671 0 2.509.712 2.509 2.136z"/><path d="m236.463 213.271c.348.349.523.788.523 1.319s-.175.97-.523 1.319c-.35.349-.789.523-1.319.523h-6.531v6.488c0 .531-.175.977-.523 1.339-.35.363-.789.545-1.319.545-.531 0-.971-.182-1.319-.545-.35-.362-.523-.809-.523-1.339v-6.488h-6.531c-.531 0-.971-.174-1.32-.523s-.523-.788-.523-1.319.174-.97.523-1.319.789-.523 1.32-.523h6.531v-6.531c0-.531.174-.97.523-1.32.348-.348.788-.523 1.319-.523.53 0 .969.174 1.319.523.348.35.523.789.523 1.32v6.531h6.531c.53-.001.969.174 1.319.523z"/><path d="m274.037 224.344c0 1.48-.837 2.219-2.512 2.219h-15.91c-.726 0-1.298-.216-1.717-.649s-.628-.97-.628-1.612c0-.837.321-1.591.964-2.261l9.546-10.257c1.172-1.283 2.03-2.463 2.575-3.538.544-1.074.816-2.142.816-3.203 0-1.312-.377-2.316-1.13-3.014-.753-.697-1.829-1.047-3.224-1.047-1.145 0-2.255.216-3.329.649-1.075.434-2.156 1.026-3.244 1.78-.279.196-.559.356-.837.481-.279.126-.559.189-.837.189-.475 0-.887-.223-1.236-.67-.349-.446-.523-.976-.523-1.591 0-.419.076-.781.23-1.089.153-.307.397-.6.733-.879 1.228-.977 2.665-1.752 4.312-2.324 1.646-.572 3.293-.859 4.941-.859 2.874 0 5.171.726 6.887 2.178 1.717 1.451 2.574 3.405 2.574 5.861 0 1.703-.363 3.301-1.087 4.794-.726 1.493-1.954 3.161-3.684 5.003l-7.243 7.703h11.053c1.673 0 2.51.712 2.51 2.136z"/></g></g><g><g><path d="m200.542 271.743v11.616c0 .909-.19 1.765-.55 2.537-.962 2.156-3.129 3.657-5.644 3.657h-24.564c-2.515 0-4.682-1.501-5.644-3.657-.359-.772-.55-1.628-.55-2.537v-11.616c0-3.414 2.769-6.194 6.194-6.194h24.564c3.424 0 6.194 2.78 6.194 6.194z" fill="#334353"/><path d="m199.992 285.895c-.962 2.156-3.129 3.657-5.644 3.657h-24.564c-2.515 0-4.682-1.501-5.644-3.657.962-2.146 3.129-3.646 5.644-3.646h24.564c2.516 0 4.682 1.501 5.644 3.646z" fill="#2e3140"/><path d="m200.542 271.743v6.965h-21.784c-3.425 0-6.194-2.769-6.194-6.194v-6.965h21.784c3.424 0 6.194 2.78 6.194 6.194z" fill="#3e4e60"/></g><g><path d="m249.831 271.743v11.616c0 .909-.19 1.765-.55 2.537-.962 2.156-3.129 3.657-5.644 3.657h-24.564c-2.515 0-4.682-1.501-5.644-3.657-.359-.772-.55-1.628-.55-2.537v-11.616c0-3.414 2.769-6.194 6.194-6.194h24.564c3.424 0 6.194 2.78 6.194 6.194z" fill="#334353"/><path d="m249.281 285.895c-.962 2.156-3.129 3.657-5.644 3.657h-24.564c-2.515 0-4.682-1.501-5.644-3.657.962-2.146 3.129-3.646 5.644-3.646h24.564c2.516 0 4.682 1.501 5.644 3.646z" fill="#2e3140"/><path d="m249.831 271.743v6.965h-21.784c-3.425 0-6.194-2.769-6.194-6.194v-6.965h21.784c3.424 0 6.194 2.78 6.194 6.194z" fill="#3e4e60"/></g><g><path d="m299.12 271.743v11.616c0 .909-.19 1.765-.55 2.537-.962 2.156-3.129 3.657-5.644 3.657h-24.564c-2.515 0-4.682-1.501-5.644-3.657-.359-.772-.55-1.628-.55-2.537v-11.616c0-3.414 2.769-6.194 6.194-6.194h24.564c3.424 0 6.194 2.78 6.194 6.194z" fill="#334353"/><path d="m298.57 285.895c-.962 2.156-3.129 3.657-5.644 3.657h-24.564c-2.515 0-4.682-1.501-5.644-3.657.962-2.146 3.129-3.646 5.644-3.646h24.564c2.516 0 4.682 1.501 5.644 3.646z" fill="#2e3140"/><path d="m299.12 271.743v6.965h-21.784c-3.424 0-6.194-2.769-6.194-6.194v-6.965h21.784c3.424 0 6.194 2.78 6.194 6.194z" fill="#3e4e60"/></g><g><path d="m348.409 271.743v11.616c0 .909-.19 1.765-.55 2.537-.962 2.156-3.129 3.657-5.644 3.657h-24.564c-2.515 0-4.682-1.501-5.644-3.657-.359-.772-.55-1.628-.55-2.537v-11.616c0-3.414 2.769-6.194 6.194-6.194h24.564c3.424 0 6.194 2.78 6.194 6.194z" fill="#334353"/><path d="m347.859 285.895c-.962 2.156-3.129 3.657-5.644 3.657h-24.564c-2.515 0-4.682-1.501-5.644-3.657.962-2.146 3.129-3.646 5.644-3.646h24.564c2.515 0 4.682 1.501 5.644 3.646z" fill="#2e3140"/><path d="m348.409 271.743v6.965h-21.784c-3.425 0-6.194-2.769-6.194-6.194v-6.965h21.784c3.424 0 6.194 2.78 6.194 6.194z" fill="#3e4e60"/></g></g><g><g><path d="m200.542 306.316v11.616c0 .909-.19 1.765-.55 2.537-.962 2.156-3.129 3.657-5.644 3.657h-24.564c-2.515 0-4.682-1.501-5.644-3.657-.359-.772-.55-1.628-.55-2.537v-11.616c0-3.414 2.769-6.194 6.194-6.194h24.564c3.424 0 6.194 2.78 6.194 6.194z" fill="#334353"/><path d="m199.992 320.468c-.962 2.156-3.129 3.657-5.644 3.657h-24.564c-2.515 0-4.682-1.501-5.644-3.657.962-2.146 3.129-3.647 5.644-3.647h24.564c2.516.001 4.682 1.502 5.644 3.647z" fill="#2e3140"/><path d="m200.542 306.316v6.965h-21.784c-3.425 0-6.194-2.769-6.194-6.194v-6.965h21.784c3.424 0 6.194 2.78 6.194 6.194z" fill="#3e4e60"/></g><g><path d="m249.831 306.316v11.616c0 .909-.19 1.765-.55 2.537-.962 2.156-3.129 3.657-5.644 3.657h-24.564c-2.515 0-4.682-1.501-5.644-3.657-.359-.772-.55-1.628-.55-2.537v-11.616c0-3.414 2.769-6.194 6.194-6.194h24.564c3.424 0 6.194 2.78 6.194 6.194z" fill="#334353"/><path d="m249.281 320.468c-.962 2.156-3.129 3.657-5.644 3.657h-24.564c-2.515 0-4.682-1.501-5.644-3.657.962-2.146 3.129-3.647 5.644-3.647h24.564c2.516.001 4.682 1.502 5.644 3.647z" fill="#2e3140"/><path d="m249.831 306.316v6.965h-21.784c-3.425 0-6.194-2.769-6.194-6.194v-6.965h21.784c3.424 0 6.194 2.78 6.194 6.194z" fill="#3e4e60"/></g><g><path d="m299.12 306.316v11.616c0 .909-.19 1.765-.55 2.537-.962 2.156-3.129 3.657-5.644 3.657h-24.564c-2.515 0-4.682-1.501-5.644-3.657-.359-.772-.55-1.628-.55-2.537v-11.616c0-3.414 2.769-6.194 6.194-6.194h24.564c3.424 0 6.194 2.78 6.194 6.194z" fill="#334353"/><path d="m298.57 320.468c-.962 2.156-3.129 3.657-5.644 3.657h-24.564c-2.515 0-4.682-1.501-5.644-3.657.962-2.146 3.129-3.647 5.644-3.647h24.564c2.516.001 4.682 1.502 5.644 3.647z" fill="#2e3140"/><path d="m299.12 306.316v6.965h-21.784c-3.424 0-6.194-2.769-6.194-6.194v-6.965h21.784c3.424 0 6.194 2.78 6.194 6.194z" fill="#3e4e60"/></g><g><path d="m348.409 306.316v11.616c0 .909-.19 1.765-.55 2.537-.962 2.156-3.129 3.657-5.644 3.657h-24.564c-2.515 0-4.682-1.501-5.644-3.657-.359-.772-.55-1.628-.55-2.537v-11.616c0-3.414 2.769-6.194 6.194-6.194h24.564c3.424 0 6.194 2.78 6.194 6.194z" fill="#334353"/><path d="m347.859 320.468c-.962 2.156-3.129 3.657-5.644 3.657h-24.564c-2.515 0-4.682-1.501-5.644-3.657.962-2.146 3.129-3.647 5.644-3.647h24.564c2.515.001 4.682 1.502 5.644 3.647z" fill="#2e3140"/><path d="m348.409 306.316v6.965h-21.784c-3.425 0-6.194-2.769-6.194-6.194v-6.965h21.784c3.424 0 6.194 2.78 6.194 6.194z" fill="#3e4e60"/></g></g><g><g><path d="m200.542 340.889v11.616c0 .909-.19 1.765-.55 2.537-.962 2.156-3.129 3.657-5.644 3.657h-24.564c-2.515 0-4.682-1.501-5.644-3.657-.359-.772-.55-1.628-.55-2.537v-11.616c0-3.414 2.769-6.194 6.194-6.194h24.564c3.424 0 6.194 2.78 6.194 6.194z" fill="#334353"/><path d="m199.992 355.041c-.962 2.156-3.129 3.657-5.644 3.657h-24.564c-2.515 0-4.682-1.501-5.644-3.657.962-2.146 3.129-3.646 5.644-3.646h24.564c2.516 0 4.682 1.501 5.644 3.646z" fill="#2e3140"/><path d="m200.542 340.889v6.965h-21.784c-3.425 0-6.194-2.769-6.194-6.194v-6.965h21.784c3.424 0 6.194 2.78 6.194 6.194z" fill="#3e4e60"/></g><g><path d="m249.831 340.889v11.616c0 .909-.19 1.765-.55 2.537-.962 2.156-3.129 3.657-5.644 3.657h-24.564c-2.515 0-4.682-1.501-5.644-3.657-.359-.772-.55-1.628-.55-2.537v-11.616c0-3.414 2.769-6.194 6.194-6.194h24.564c3.424 0 6.194 2.78 6.194 6.194z" fill="#334353"/><path d="m249.281 355.041c-.962 2.156-3.129 3.657-5.644 3.657h-24.564c-2.515 0-4.682-1.501-5.644-3.657.962-2.146 3.129-3.646 5.644-3.646h24.564c2.516 0 4.682 1.501 5.644 3.646z" fill="#2e3140"/><path d="m249.831 340.889v6.965h-21.784c-3.425 0-6.194-2.769-6.194-6.194v-6.965h21.784c3.424 0 6.194 2.78 6.194 6.194z" fill="#3e4e60"/></g><g><path d="m299.12 340.889v11.616c0 .909-.19 1.765-.55 2.537-.962 2.156-3.129 3.657-5.644 3.657h-24.564c-2.515 0-4.682-1.501-5.644-3.657-.359-.772-.55-1.628-.55-2.537v-11.616c0-3.414 2.769-6.194 6.194-6.194h24.564c3.424 0 6.194 2.78 6.194 6.194z" fill="#334353"/><path d="m298.57 355.041c-.962 2.156-3.129 3.657-5.644 3.657h-24.564c-2.515 0-4.682-1.501-5.644-3.657.962-2.146 3.129-3.646 5.644-3.646h24.564c2.516 0 4.682 1.501 5.644 3.646z" fill="#2e3140"/><path d="m299.12 340.889v6.965h-21.784c-3.424 0-6.194-2.769-6.194-6.194v-6.965h21.784c3.424 0 6.194 2.78 6.194 6.194z" fill="#3e4e60"/></g><g><path d="m348.409 340.889v11.616c0 .909-.19 1.765-.55 2.537-.962 2.156-3.129 3.657-5.644 3.657h-24.564c-2.515 0-4.682-1.501-5.644-3.657-.359-.772-.55-1.628-.55-2.537v-11.616c0-3.414 2.769-6.194 6.194-6.194h24.564c3.424 0 6.194 2.78 6.194 6.194z" fill="#334353"/><path d="m347.859 355.041c-.962 2.156-3.129 3.657-5.644 3.657h-24.564c-2.515 0-4.682-1.501-5.644-3.657.962-2.146 3.129-3.646 5.644-3.646h24.564c2.515 0 4.682 1.501 5.644 3.646z" fill="#2e3140"/><path d="m348.409 340.889v6.965h-21.784c-3.425 0-6.194-2.769-6.194-6.194v-6.965h21.784c3.424 0 6.194 2.78 6.194 6.194z" fill="#3e4e60"/></g></g><g><g><path d="m200.542 375.461v11.616c0 .909-.19 1.765-.55 2.537-.962 2.156-3.129 3.657-5.644 3.657h-24.564c-2.515 0-4.682-1.501-5.644-3.657-.359-.772-.55-1.628-.55-2.537v-11.616c0-3.414 2.769-6.194 6.194-6.194h24.564c3.424.001 6.194 2.781 6.194 6.194z" fill="#334353"/><path d="m199.992 389.614c-.962 2.156-3.129 3.657-5.644 3.657h-24.564c-2.515 0-4.682-1.501-5.644-3.657.962-2.146 3.129-3.646 5.644-3.646h24.564c2.516 0 4.682 1.501 5.644 3.646z" fill="#2e3140"/><path d="m200.542 375.461v6.965h-21.784c-3.425 0-6.194-2.769-6.194-6.194v-6.965h21.784c3.424.001 6.194 2.781 6.194 6.194z" fill="#3e4e60"/></g><g><path d="m249.831 375.461v11.616c0 .909-.19 1.765-.55 2.537-.962 2.156-3.129 3.657-5.644 3.657h-24.564c-2.515 0-4.682-1.501-5.644-3.657-.359-.772-.55-1.628-.55-2.537v-11.616c0-3.414 2.769-6.194 6.194-6.194h24.564c3.424.001 6.194 2.781 6.194 6.194z" fill="#334353"/><path d="m249.281 389.614c-.962 2.156-3.129 3.657-5.644 3.657h-24.564c-2.515 0-4.682-1.501-5.644-3.657.962-2.146 3.129-3.646 5.644-3.646h24.564c2.516 0 4.682 1.501 5.644 3.646z" fill="#2e3140"/><path d="m249.831 375.461v6.965h-21.784c-3.425 0-6.194-2.769-6.194-6.194v-6.965h21.784c3.424.001 6.194 2.781 6.194 6.194z" fill="#3e4e60"/></g><g><path d="m299.12 375.461v11.616c0 .909-.19 1.765-.55 2.537-.962 2.156-3.129 3.657-5.644 3.657h-24.564c-2.515 0-4.682-1.501-5.644-3.657-.359-.772-.55-1.628-.55-2.537v-11.616c0-3.414 2.769-6.194 6.194-6.194h24.564c3.424.001 6.194 2.781 6.194 6.194z" fill="#334353"/><path d="m298.57 389.614c-.962 2.156-3.129 3.657-5.644 3.657h-24.564c-2.515 0-4.682-1.501-5.644-3.657.962-2.146 3.129-3.646 5.644-3.646h24.564c2.516 0 4.682 1.501 5.644 3.646z" fill="#2e3140"/><path d="m299.12 375.461v6.965h-21.784c-3.424 0-6.194-2.769-6.194-6.194v-6.965h21.784c3.424.001 6.194 2.781 6.194 6.194z" fill="#3e4e60"/></g><g><path d="m348.409 375.461v11.616c0 .909-.19 1.765-.55 2.537-.962 2.156-3.129 3.657-5.644 3.657h-24.564c-2.515 0-4.682-1.501-5.644-3.657-.359-.772-.55-1.628-.55-2.537v-11.616c0-3.414 2.769-6.194 6.194-6.194h24.564c3.424.001 6.194 2.781 6.194 6.194z" fill="#334353"/><path d="m347.859 389.614c-.962 2.156-3.129 3.657-5.644 3.657h-24.564c-2.515 0-4.682-1.501-5.644-3.657.962-2.146 3.129-3.646 5.644-3.646h24.564c2.515 0 4.682 1.501 5.644 3.646z" fill="#2e3140"/><path d="m348.409 375.461v6.965h-21.784c-3.425 0-6.194-2.769-6.194-6.194v-6.965h21.784c3.424.001 6.194 2.781 6.194 6.194z" fill="#3e4e60"/></g></g></g><g><path d="m100.789 199.266c1.166 1.172 1.761 2.647 1.761 4.426 0 1.784-.595 3.259-1.761 4.426-1.166 1.172-2.642 1.761-4.426 1.761h-21.923v21.78c0 1.778-.583 3.282-1.761 4.494-1.166 1.218-2.642 1.83-4.426 1.83-1.773 0-3.248-.612-4.426-1.83-1.166-1.212-1.75-2.716-1.75-4.494v-21.78h-21.923c-1.784 0-3.259-.589-4.426-1.761-1.178-1.166-1.761-2.642-1.761-4.426 0-1.778.583-3.254 1.761-4.426 1.166-1.172 2.642-1.755 4.426-1.755h21.923v-21.923c0-1.778.583-3.254 1.75-4.426 1.178-1.172 2.653-1.755 4.426-1.755 1.784 0 3.259.583 4.426 1.755 1.178 1.172 1.761 2.647 1.761 4.426v21.923h21.923c1.784-.001 3.259.583 4.426 1.755z" fill="#cde6f6"/></g><g><path d="m303.199 104.948c-1.307-1.169-1.96-2.789-1.96-4.859 0-2.064.653-3.711 1.96-4.925 1.301-1.213 3.256-1.823 5.869-1.823h58.119c2.608 0 4.568.609 5.869 1.823 1.307 1.213 1.96 2.86 1.96 4.925 0 2.07-.653 3.69-1.96 4.859-1.301 1.169-3.261 1.751-5.869 1.751h-58.119c-2.613.001-4.568-.581-5.869-1.751z" fill="#cde6f6"/></g><g><path d="m142.019 91.976c-3.648-4.268-5.472-10.517-5.472-18.746 0-8.148 1.824-14.359 5.472-18.628s8.731-6.405 15.25-6.405c6.523 0 11.626 2.137 15.311 6.405 3.686 4.268 5.529 10.479 5.529 18.628 0 8.229-1.843 14.478-5.529 18.746s-8.788 6.4-15.311 6.4c-6.519 0-11.602-2.132-15.25-6.4zm21.712-6.694c1.36-2.445 2.037-6.462 2.037-12.052 0-5.434-.696-9.39-2.094-11.877-1.398-2.482-3.534-3.724-6.405-3.724s-4.988 1.222-6.343 3.667c-1.36 2.445-2.037 6.424-2.037 11.934 0 5.59.677 9.607 2.037 12.052 1.355 2.445 3.473 3.667 6.343 3.667 2.951 0 5.102-1.223 6.462-3.667zm3.903 47.327c-1.014.621-2.023.929-3.027.929-1.398 0-2.62-.502-3.671-1.511-1.047-1.009-1.568-2.288-1.568-3.842 0-1.322.384-2.639 1.161-3.96l42.381-73.231c.701-1.241 1.554-2.174 2.563-2.795 1.004-.621 2.018-.929 3.027-.929 1.398 0 2.62.502 3.667 1.511s1.573 2.288 1.573 3.842c0 1.322-.393 2.639-1.165 3.96l-42.381 73.231c-.698 1.241-1.555 2.169-2.56 2.795zm32.949-6.756c-3.653-4.268-5.476-10.555-5.476-18.86 0-8.148 1.843-14.34 5.533-18.571 3.686-4.231 8.75-6.343 15.193-6.343 6.519 0 11.602 2.137 15.25 6.4 3.648 4.273 5.476 10.479 5.476 18.632 0 8.224-1.829 14.473-5.476 18.741-3.648 4.273-8.731 6.405-15.25 6.405-6.519.001-11.607-2.131-15.25-6.404zm21.655-6.694c1.398-2.445 2.094-6.462 2.094-12.047 0-5.434-.696-9.394-2.094-11.877s-3.534-3.728-6.405-3.728-5.007 1.246-6.405 3.728-2.094 6.443-2.094 11.877c0 5.585.696 9.603 2.094 12.047 1.398 2.445 3.534 3.667 6.405 3.667s5.007-1.222 6.405-3.667z" fill="#cde6f6"/></g><g><path d="m409.868 262.714c-1.257.559-2.569.715-3.923.463-1.709-.317-3.123-1.178-4.233-2.574-1.11-1.397-1.493-2.993-1.16-4.785.142-.766.41-1.514.813-2.231l46.976-87.576c.811-1.526 1.836-2.575 3.093-3.134 1.247-.561 2.558-.716 3.923-.463 1.709.317 3.113 1.17 4.233 2.574 1.099 1.395 1.494 2.988 1.161 4.78-.143.771-.41 1.514-.814 2.237l-46.976 87.576c-.812 1.524-1.846 2.566-3.093 3.133z" fill="#cde6f6"/></g><g><path d="m456.344 339.502c.975 1.11 1.462 2.464 1.462 4.062s-.487 2.973-1.462 4.127c-.986 1.154-2.351 1.684-4.127 1.598l-13.042-.666 7.182 10.778c.617.98.932 1.955.932 2.93 0 1.511-.639 2.816-1.928 3.927-1.289 1.11-2.73 1.663-4.322 1.663-2.047 0-3.553-.932-4.528-2.795l-5.86-11.579-5.86 11.579c-1.062 1.955-2.567 2.93-4.517 2.93-1.603 0-3.044-.552-4.333-1.663-1.289-1.11-1.928-2.421-1.928-3.927 0-1.067.314-2.042.932-2.93l7.192-10.913-13.053.666c-1.776.087-3.141-.422-4.116-1.533-.986-1.11-1.473-2.464-1.473-4.062 0-1.592.487-2.968 1.473-4.122.975-1.154 2.34-1.684 4.116-1.598l13.053.666-7.192-10.783c-.617-.888-.932-1.863-.932-2.93 0-1.506.639-2.795 1.928-3.856 1.289-1.067 2.73-1.598 4.333-1.598 2.036 0 3.542.932 4.517 2.795l5.86 11.579 5.86-11.579c.975-1.95 2.524-2.93 4.658-2.93 1.506 0 2.903.558 4.192 1.663 1.289 1.11 1.928 2.421 1.928 3.927 0 1.067-.314 2.042-.932 2.93l-7.182 10.783 13.042-.666c1.776-.087 3.141.422 4.127 1.527z" fill="#cde6f6"/></g><g fill="#cde6f6"><path d="m58.096 334.797c0-14.6 3.536-28.022 10.604-40.264.787-1.243 1.686-2.174 2.701-2.797s2.046-.935 3.093-.935c1.115 0 2.046.344 2.801 1.035.751.687 1.127 1.618 1.127 2.797 0 .919-.164 1.734-.487 2.453-4.847 11.915-7.268 24.485-7.268 37.711 0 6.613.587 12.978 1.766 19.099s3.013 12.255 5.502 18.412c.324.719.487 1.534.487 2.453 0 1.179-.376 2.11-1.127 2.797-.755.687-1.686 1.031-2.801 1.031-1.047 0-2.094-.292-3.141-.883-1.047-.587-1.934-1.506-2.653-2.749-7.068-12.37-10.604-25.76-10.604-40.16z"/><path d="m98.06 377.706c-1.047.591-2.098.883-3.145.883-1.111 0-2.046-.344-2.797-1.031-.755-.687-1.131-1.618-1.131-2.797 0-.919.164-1.734.491-2.453 2.489-6.157 4.323-12.291 5.498-18.412 1.179-6.121 1.77-12.486 1.77-19.099 0-13.226-2.421-25.796-7.268-37.711-.328-.719-.491-1.534-.491-2.453 0-1.179.376-2.11 1.131-2.797.751-.691 1.686-1.035 2.797-1.035 1.047 0 2.078.312 3.097.935 1.011.623 1.914 1.554 2.697 2.797 7.072 12.243 10.608 25.664 10.608 40.264 0 14.4-3.536 27.79-10.608 40.16-.719 1.243-1.602 2.162-2.649 2.749z"/></g></g></svg>