<svg id="Capa_1" enable-background="new 0 0 512 512" height="512" viewBox="0 0 512 512" width="512" xmlns="http://www.w3.org/2000/svg"><g><g><path d="m512 256c0 141.387-114.613 256-256 256s-256-114.613-256-256 114.613-256 256-256 256 114.613 256 256zm0 0" fill="#b196e7"/><path d="m512 256c0 26.051-3.891 51.191-11.129 74.871-5.031 16.469-11.672 32.231-19.75 47.109-8.25 15.2-18 29.461-29.051 42.61-.582.691-1.16 1.379-1.75 2.058-46.941 54.704-116.59 89.352-194.32 89.352s-147.379-34.648-194.309-89.352c-.589-.687-1.179-1.378-1.75-2.07-11.062-13.137-20.812-27.398-29.05-42.598-3.289-6.031-6.332-12.21-9.121-18.531-14-31.629-21.77-66.629-21.77-103.449 0-46.219 12.25-89.57 33.68-127 44.121 77.07 127.16 129 222.32 129s178.211-51.93 222.32-129c21.43 37.43 33.68 80.781 33.68 127zm0 0" fill="#8d69db"/><path d="m481.262 377.699c-7.16 13.223-15.434 25.742-24.723 37.43-8.437 10.633-17.719 20.57-27.719 29.723-45.539 41.699-106.211 67.148-172.82 67.148s-127.281-25.449-172.82-67.148c-10-9.153-19.282-19.09-27.719-29.723-9.289-11.688-17.563-24.207-24.723-37.43zm0 0" fill="#5541b6"/></g><g><g><path d="m429.502 169.124-173.502-86.64-.13-.065-173.412 86.731.052 230.133 173.49 86.549.156.078 173.385-86.719zm-320.392 33.163 122.82 81.887-122.777 81.851zm133.541 247.097c-25.411-12.657-120.341-60.043-120.341-60.043l120.341-80.223zm0-190.15-120.299-80.204 120.299-60.16zm26.698-140.285c35.855 17.87 82.298 41.083 120.296 60.082l-120.296 80.2zm0 330.512v-140.338l120.292 80.186zm10.718-165.288 122.779-81.856.033 163.73z" fill="#dce0ef"/><path d="m429.542 399.192-.039-230.068-173.503-86.64v403.348l.156.078zm-26.663-33.145-122.812-81.874 122.779-81.856zm-133.53-247.098c35.855 17.87 82.298 41.083 120.296 60.082l-120.296 80.2zm0 190.174 120.292 80.186-120.292 60.152z" fill="#cad0e7"/></g><g><path d="m95.808 217.424c-22.084 0-40.048-17.964-40.048-40.048s17.964-40.048 40.048-40.048 40.048 17.964 40.048 40.048-17.964 40.048-40.048 40.048z" fill="#8ab8ec"/></g><g><path d="m416.192 217.424c-22.084 0-40.048-17.964-40.048-40.048s17.964-40.048 40.048-40.048 40.048 17.964 40.048 40.048-17.964 40.048-40.048 40.048z" fill="#728ee4"/></g><path d="m256 431.014c-22.084 0-40.048 17.964-40.048 40.048s17.964 40.938 40.048 40.938 40.048-18.854 40.048-40.938-17.964-40.048-40.048-40.048z" fill="#8ab8ec"/><path d="m296.048 471.062c0-22.084-17.964-40.048-40.048-40.048v80.986c22.084 0 40.048-18.854 40.048-40.938z" fill="#728ee4"/><circle cx="256" cy="284.171" fill="#8ab8ec" r="40.048"/><path d="m296.048 284.171c0-22.084-17.964-40.048-40.048-40.048v80.096c22.084 0 40.048-17.964 40.048-40.048z" fill="#728ee4"/><g><path d="m256 68.512-.039-.072-182.641 335.771 182.68.052 182.732.052zm-137.704 309.105 137.678-252.503.026.046 137.73 252.508c-36.926-.028-86.419-.039-137.73-.046-47.109-.004-95.746-.005-137.704-.005z" fill="#fbf5eb"/><path d="m256 68.512v56.649l137.73 252.508c-36.926-.028-86.419-.039-137.73-.046v26.64l182.732.052z" fill="#dce0ef"/></g><path d="m256 56.342c-22.084 0-40.048 18.854-40.048 40.938s17.964 40.048 40.048 40.048 40.048-17.964 40.048-40.048-17.964-40.938-40.048-40.938z" fill="#8ab8ec"/><path d="m296.048 97.28c0-22.084-17.964-40.938-40.048-40.938v80.986c22.084 0 40.048-17.964 40.048-40.048z" fill="#728ee4"/><g><path d="m95.808 431.014c-22.084 0-40.048-17.964-40.048-40.048s17.964-40.048 40.048-40.048 40.048 17.964 40.048 40.048-17.964 40.048-40.048 40.048z" fill="#8ab8ec"/></g><g><path d="m416.192 431.014c-22.084 0-40.048-17.964-40.048-40.048s17.964-40.048 40.048-40.048 40.048 17.964 40.048 40.048-17.964 40.048-40.048 40.048z" fill="#728ee4"/></g></g></g></svg>