<svg id="Capa_1" enable-background="new 0 0 512 512" height="512" viewBox="0 0 512 512" width="512" xmlns="http://www.w3.org/2000/svg"><circle cx="256" cy="256" fill="#65b2fe" r="256"/><path d="m512 256c0 87.11-43.52 164.07-110 210.31-41.41 28.8-91.73 45.69-146 45.69s-104.59-16.89-146-45.69c-66.48-46.24-110-123.2-110-210.31 0-46.22 12.25-89.57 33.68-127 44.12 77.07 127.16 129 222.32 129s178.21-51.93 222.32-129c21.43 37.43 33.68 80.78 33.68 127z" fill="#0e9ce7"/><path d="m452 316c0 108.152-87.611 195.855-195.724 196h-.276c-108.244 0-196-87.756-196-196s87.756-196 196-196h.276c108.113.145 195.724 87.848 195.724 196z" fill="#ffe853"/><path d="m452 316c0 108.152-87.611 195.855-195.724 196-58.54-45.302-103.63-116.253-103.63-196s45.09-150.698 103.63-196c108.113.145 195.724 87.848 195.724 196z" fill="#fed110"/><path d="m452 316c0 108.244-87.756 196-196 196v-392c108.244 0 196 87.756 196 196z" fill="#ff9f01"/><path d="m380.386 291.11c-8.686 24.399-34.427 38.958-59.806 33.794-29.753-6.054-47.728-35.453-40.648-64.068.167-.691.354-1.393.551-2.075.016-.055.032-.109.048-.164 1.378-4.697 8.068-4.729 9.601-.08 5.238 15.884 17.969 29.002 35.242 34.012 17.269 5.009 35.038.749 47.974-9.854 3.821-3.132 9.42.552 8.048 5.298-.302 1.048-.639 2.094-1.01 3.137z" fill="#29334c"/><path d="m131.614 291.11c8.686 24.399 34.426 38.958 59.806 33.794 29.752-6.054 47.728-35.453 40.648-64.068-.167-.691-.354-1.393-.551-2.075-.016-.055-.032-.109-.048-.164-1.378-4.697-8.068-4.729-9.601-.08-5.238 15.884-17.969 29.002-35.242 34.012-17.269 5.009-35.038.749-47.974-9.854-3.821-3.132-9.42.552-8.048 5.298.302 1.048.639 2.094 1.01 3.137z" fill="#29334c"/><path d="m346.58 383.723c-23.96-21.67-55.73-34.86-90.58-34.86s-66.61 13.19-90.58 34.85c-9.54 8.63-.72 24.11 11.6 20.38 25-7.56 51.51-11.62 78.98-11.62s53.99 4.06 78.98 11.63c12.32 3.72 21.15-11.75 11.6-20.38z" fill="#ed771b"/><path d="m346.58 383.723c-23.96-21.67-55.73-34.86-90.58-34.86v43.61c27.47 0 53.99 4.06 78.98 11.63 12.32 3.72 21.15-11.75 11.6-20.38z" fill="#c6601a"/><path d="m217.362 187.794c-16.242 20.451-46.793 29.91-73.514 21.32-.021-.007-.042-.013-.063-.02-2.001-.645-3.955 1.344-2.802 2.874 4.777 6.339 11.996 11.344 21.15 13.927 21.13 5.962 45.356-3.583 55.048-21.676 2.733-5.102 4.081-10.374 4.188-15.506.037-1.848-2.76-2.489-4.007-.919z" fill="#ed771b"/><path d="m294.638 187.794c16.242 20.451 46.793 29.91 73.515 21.32.021-.007.042-.013.063-.02 2-.645 3.955 1.344 2.802 2.874-4.777 6.339-11.996 11.344-21.15 13.927-21.13 5.962-45.356-3.583-55.048-21.676-2.733-5.102-4.081-10.374-4.188-15.506-.038-1.848 2.759-2.489 4.006-.919z" fill="#c55835"/></svg>