<svg id="Capa_1" enable-background="new 0 0 512 512" height="512" viewBox="0 0 512 512" width="512" xmlns="http://www.w3.org/2000/svg"><g><g><path d="m512 256c0 141.387-114.613 256-256 256s-256-114.613-256-256 114.613-256 256-256 256 114.613 256 256zm0 0" fill="#afe8fd"/><path d="m512 256c0 26.051-3.891 51.191-11.129 74.871-5.031 16.469-11.672 32.231-19.75 47.109-8.25 15.2-18 29.461-29.051 42.61-.582.691-1.16 1.379-1.75 2.058-46.941 54.704-116.59 89.352-194.32 89.352s-147.379-34.648-194.309-89.352c-.589-.687-1.179-1.378-1.75-2.07-11.062-13.137-20.812-27.398-29.05-42.598-3.289-6.031-6.332-12.21-9.121-18.531-14-31.629-21.77-66.629-21.77-103.449 0-46.219 12.25-89.57 33.68-127 44.121 77.07 127.16 129 222.32 129s178.211-51.93 222.32-129c21.43 37.43 33.68 80.781 33.68 127zm0 0" fill="#64b0fb"/><path d="m481.262 377.699c-7.16 13.223-15.434 25.742-24.723 37.43-8.437 10.633-17.719 20.57-27.719 29.723-45.539 41.699-106.211 67.148-172.82 67.148s-127.281-25.449-172.82-67.148c-10-9.153-19.282-19.09-27.719-29.723-9.289-11.688-17.563-24.207-24.723-37.43zm0 0" fill="#1394fb"/></g><g><path d="m354.437 228.075-13.601-1.526v250.271l13.601-1.526c62.933-7.061 110.391-60.202 110.391-123.609 0-63.408-47.458-116.549-110.391-123.61z" fill="#16202d"/><path d="m140.981 351.684 63.655 155.159c8.528 1.737 17.212 3.044 26.026 3.91h50.675c29.786-2.927 58.069-10.963 83.971-23.213v-294.924h-159.068z" fill="#cb2e81"/><path d="m47.172 404.112c37.226 52.393 93.68 90.156 159.068 103.038v-314.534h-159.068z" fill="#dc4180"/><path d="m47.172 404.112c21.005 29.562 48.137 54.458 79.534 72.867v-284.363h-79.534z" fill="#ff69a8"/><path d="m316.364 400.629-159.068-48.945 48.944 110.125h110.124z" fill="#64b0fb"/><path d="m96.116 455.924c2.506 2.007 5.046 3.972 7.628 5.885h102.496v-110.125l-110.124 48.944z" fill="#afe8fd"/><path d="m96.116 455.924c2.506 2.007 5.046 3.972 7.628 5.885h48.482v-110.125l-56.11 48.944z" fill="#70d3ff"/><path d="m316.364 400.629v-159.069h-110.124l-48.944 79.534 48.944 79.535z" fill="#fff0be"/><path d="m96.116 241.56h110.124v159.068h-110.124z" fill="#fff"/></g><g fill="#fff"><path d="m159.091 124.641h-1.524c-6.754 0-12.226-5.477-12.226-12.227v-1.523h-8.715v1.523c0 6.75-5.477 12.227-12.227 12.227h-1.527v8.715h1.527c6.75 0 12.227 5.472 12.227 12.226v1.528h8.715v-1.528c0-6.754 5.472-12.226 12.226-12.226h1.524zm0 0"/><path d="m236.83 59.413h-1.524c-6.754 0-12.226-5.477-12.226-12.227v-1.523h-8.715v1.523c0 6.75-5.477 12.227-12.227 12.227h-1.527v8.715h1.527c6.75 0 12.227 5.472 12.227 12.226v1.528h8.715v-1.528c0-6.754 5.472-12.226 12.226-12.226h1.524zm0 0"/><path d="m315.188 142.75h-1.524c-6.754 0-12.226-5.477-12.226-12.227v-1.523h-8.715v1.523c0 6.75-5.477 12.227-12.227 12.227h-1.527v8.715h1.527c6.75 0 12.227 5.472 12.227 12.226v1.528h8.715v-1.528c0-6.754 5.472-12.226 12.226-12.226h1.524zm0 0"/><path d="m403.655 111.562h-1.524c-6.754 0-12.226-5.477-12.226-12.227v-1.523h-8.715v1.523c0 6.75-5.477 12.227-12.227 12.227h-1.527v8.715h1.527c6.75 0 12.227 5.472 12.227 12.226v1.528h8.715v-1.528c0-6.754 5.472-12.226 12.226-12.226h1.524zm0 0"/></g></g></svg>