<svg id="Capa_1" enable-background="new 0 0 512 512" height="512" viewBox="0 0 512 512" width="512" xmlns="http://www.w3.org/2000/svg"><circle cx="256" cy="256" fill="#65b2fe" r="256"/><path d="m512 256c0 87.11-43.52 164.07-110 210.31-41.41 28.8-91.73 45.69-146 45.69s-104.59-16.89-146-45.69c-66.48-46.24-110-123.2-110-210.31 0-46.22 12.25-89.57 33.68-127 44.12 77.07 127.16 129 222.32 129s178.21-51.93 222.32-129c21.43 37.43 33.68 80.78 33.68 127z" fill="#0e9ce7"/><path d="m452 316c0 105.34-83.12 191.28-187.34 195.81-.31.02-.62.03-.93.04-.87.03-1.74.06-2.6.08-1.73.05-3.44.07-5.13.07-108.24 0-196-87.76-196-196s87.76-196 196-196h.28c108.11.15 195.72 87.85 195.72 196z" fill="#ffe853"/><path d="m452 316c0 105.34-83.12 191.28-187.34 195.81-.31.02-.62.03-.93.04-.87.03-1.74.06-2.6.08-1.73.05-3.44.07-5.13.07-58.54-45.3-103.35-116.25-103.35-196s44.81-150.7 103.35-196h.28c108.11.15 195.72 87.85 195.72 196z" fill="#fed110"/><path d="m452 316c0 108.244-87.756 196-196 196v-392c108.244 0 196 87.756 196 196z" fill="#ff9f01"/><path d="m224.854 308.573-100.603 41.197c-8.061 3.301-14.102-7.733-6.977-12.745l55.917-39.337-55.917-39.337c-7.125-5.012-1.084-16.046 6.977-12.745l100.603 41.197c9.74 3.988 9.74 17.782 0 21.77z" fill="#29334c"/><path d="m287.146 308.573 100.603 41.197c8.061 3.301 14.102-7.733 6.977-12.745l-55.917-39.337 55.917-39.337c7.125-5.012 1.084-16.046-6.977-12.745l-100.603 41.197c-9.74 3.988-9.74 17.782 0 21.77z" fill="#29334c"/><path d="m368.85 376.673c-6.2 32.77-26.3 60.6-53.95 77.14-17.21 10.32-37.36 16.25-58.9 16.25s-41.69-5.93-58.9-16.25c-27.65-16.54-47.75-44.37-53.95-77.14-2.12-11.14 6.42-21.47 17.76-21.47h10.42l15.45 15.45h139.95l13.94-15.45h10.42c11.34 0 19.88 10.331 17.76 21.47z" fill="#313b5a"/><path d="m368.85 376.673c-6.2 32.77-26.3 60.6-53.95 77.14-17.21 10.32-37.36 16.25-58.9 16.25v-99.41h70.73l13.94-15.45h10.42c11.34 0 19.88 10.331 17.76 21.47z" fill="#29334c"/><path d="m314.905 453.817c-17.218 10.315-37.367 16.243-58.905 16.243s-41.687-5.929-58.905-16.244c9.101-23.671 32.039-40.462 58.905-40.462s49.804 16.791 58.905 40.463z" fill="#ff1d56"/><path d="m314.905 453.817c-17.218 10.315-37.367 16.243-58.905 16.243v-56.706c26.865.001 49.804 16.791 58.905 40.463z" fill="#dd1265"/><path d="m340.67 355.203v2.4c0 18.76-15.22 33.98-33.98 33.98h-101.38c-18.76 0-33.98-15.22-33.98-33.98v-2.4z" fill="#fff"/><path d="m340.67 355.203v2.4c0 18.76-15.22 33.98-33.98 33.98h-50.69v-36.38z" fill="#d1f6ff"/><g fill="#fff"><path d="m430.528 363.516c-5.888-.918-19.872-4.038-27.978-5.884-2.551-.581-4.692 1.956-3.69 4.373 3.184 7.679 8.612 20.939 10.507 26.589 2.881 8.588 11.61 14.294 21.12 12.843 9.387-1.432 16.422-9.769 16.254-19.263-.17-9.619-7.263-17.263-16.213-18.658z"/><path d="m76.399 363.516c5.888-.918 19.872-4.038 27.978-5.884 2.551-.581 4.692 1.956 3.689 4.373-3.184 7.679-8.612 20.939-10.507 26.589-2.881 8.588-11.61 14.294-21.12 12.843-9.387-1.432-16.422-9.769-16.254-19.263.171-9.619 7.264-17.263 16.214-18.658z"/></g></svg>