<svg id="Capa_1" enable-background="new 0 0 512 512" height="512" viewBox="0 0 512 512" width="512" xmlns="http://www.w3.org/2000/svg"><g><g><path d="m512 256c0 43.79-11 85.02-30.39 121.07l-225.61 49.67-225.61-49.67c-19.39-36.05-30.39-77.28-30.39-121.07 0-46.63 12.47-90.34 34.26-128 41.698 72.091 399.22 76.52 443.48 0 21.79 37.66 34.26 81.37 34.26 128z" fill="#9febff"/><path d="m477.74 128c-44.26 76.52-126.99 128-221.74 128s-177.48-51.48-221.74-128c.01-.02.03-.05.04-.07 44.27-76.48 126.98-127.93 221.7-127.93s177.43 51.45 221.7 127.93c.01.02.03.05.04.07z" fill="#c4f4ff"/><path d="m481.61 377.07c-13.95 25.94-32.24 49.2-53.91 68.8-6.383 5.779-27.945-3.645-34.89 1.473-13.976 10.3-14.153 34.098-30.1 41.427-32.48 14.91-68.62 23.23-106.71 23.23s-74.23-8.32-106.71-23.23c-2.33-1.07-1.1-23.861-3.39-25.001-9.853-4.887-10.799-4.928-19.877-10.996-10.446-6.982-32.431 1.507-41.713-6.893-21.67-19.6-39.97-42.86-53.92-68.81z" fill="#70c5e9"/></g><g><path d="m427.7 129.04v316.83c-19.23 17.41-41.12 31.93-64.99 42.9h-213.42c-2.33-1.07-4.64-2.18-6.93-3.32-21.19-10.51-40.7-23.87-58.05-39.57-.01-.29-.01-.59-.01-.88v-315.96z" fill="#d8c1fb"/><path d="m427.7 129.04v316.83c-19.23 17.41-41.12 31.93-64.99 42.9h-213.42c-2.33-1.07-4.64-2.18-6.93-3.32v-356.41z" fill="#b895e5"/><path d="m427.7 129.04v316.83c-19.23 17.41-41.12 31.93-64.99 42.9h-101.37v-359.73z" fill="#9965d8"/><path d="m427.698 85.27v25l-38.627 18.77 38.627 18.77v25h-299.63c-12.09 0-23.03-4.9-30.95-12.82s-12.82-18.87-12.82-30.95c0-24.18 19.59-43.77 43.77-43.77z" fill="#d8c1fb"/><path d="m427.698 85.27v25l-38.628 18.77 38.628 18.77v25h-166.36v-87.54z" fill="#b895e5"/><path d="m427.698 110.27v37.54h-299.63c-10.35 0-18.77-8.42-18.77-18.77s8.42-18.77 18.77-18.77z" fill="#e8ebf7"/><path d="m261.338 110.27h166.36v37.54h-166.36z" fill="#daddee"/><path d="m337.548 290.97c-3.72-1.34-7.66-2.56-11.79-3.67 1.1-4.14 2.01-8.17 2.71-12.06 5.55-30.66-3.07-42.75-11.28-47.49s-22.98-6.16-46.77 13.97c-3.02 2.56-6.05 5.37-9.08 8.38-3.03-3.01-6.06-5.82-9.08-8.38-23.79-20.13-38.56-18.71-46.77-13.97s-16.83 16.83-11.28 47.49c.7 3.89 1.61 7.92 2.71 12.06-4.13 1.11-8.07 2.33-11.8 3.67-29.32 10.53-35.48 24.04-35.48 33.52 0 9.47 6.16 22.98 35.48 33.51 3.73 1.34 7.67 2.56 11.8 3.68-1.1 4.13-2.01 8.16-2.71 12.05-5.55 30.67 3.07 42.75 11.28 47.49 2.95 1.7 6.75 2.98 11.51 2.98 8.48 0 20.02-4.05 35.26-16.95 3.02-2.56 6.05-5.36 9.08-8.38 3.03 3.02 6.06 5.82 9.08 8.38 15.24 12.9 26.78 16.95 35.26 16.95 4.76 0 8.56-1.28 11.51-2.98 8.21-4.74 16.83-16.82 11.28-47.49-.7-3.89-1.61-7.92-2.71-12.05 4.13-1.12 8.07-2.34 11.79-3.68 29.33-10.53 35.49-24.04 35.49-33.51 0-9.48-6.16-22.99-35.49-33.52zm-31.82-51.16c1.54 0 2.88.31 3.96.93 4.28 2.47 7.58 12.13 4.02 31.83-.66 3.67-1.53 7.48-2.58 11.4-7.76-1.46-15.97-2.57-24.48-3.31-4.89-6.98-9.94-13.51-15.06-19.48 14.16-14.14 26.67-21.37 34.14-21.37zm-2.57 67.4c-1.893-3.451-3.897-6.917-5.94-10.28 3.22.44 6.33.94 9.33 1.49-1.05 2.89-2.18 5.83-3.39 8.79zm3.36 43.39c-3.03.55-6.14 1.04-9.31 1.47 2.038-3.38 4.044-6.835 5.94-10.29 1.23 3.01 2.35 5.95 3.37 8.82zm-45.18-78.28.02-.02c1.99 2.35 3.97 4.8 5.93 7.33-1.98-.04-3.96-.06-5.95-.06s-3.96.02-5.93.06c1.99-2.56 3.97-5 5.93-7.31zm-48.35-31.58c1.01-.58 2.35-.92 4-.92 5.32 0 13.92 3.49 25.58 13.35 2.84 2.41 5.71 5.07 8.58 7.94-5.15 5.99-10.22 12.54-15.12 19.55-8.51.74-16.72 1.85-24.48 3.31-1.05-3.92-1.92-7.73-2.58-11.4-3.56-19.7-.26-29.36 4.02-31.83zm9.45 61.29c-.99 1.72-1.96 3.45-2.92 5.18-1.22-2.97-2.35-5.92-3.4-8.83 3.04-.55 6.16-1.04 9.35-1.47-1.02 1.69-2.03 3.39-3.03 5.12zm3.02 50.02c-3.22-.45-6.33-.95-9.33-1.49 1.05-2.9 2.18-5.83 3.39-8.8 1.898 3.455 3.892 6.911 5.94 10.29zm-24.07-4.78c-23.34-6.27-36.75-15.51-36.75-22.78 0-4.95 6.71-12.64 25.55-19.4 3.52-1.26 7.25-2.42 11.17-3.46 2.61 7.45 5.75 15.11 9.37 22.86-3.61 7.72-6.74 15.36-9.34 22.78zm11.6 60.96c-4.28-2.47-7.58-12.13-4.02-31.83.66-3.67 1.53-7.48 2.58-11.4 7.76 1.46 15.97 2.58 24.48 3.32 4.89 6.98 9.94 13.51 15.07 19.48-17.11 17.08-31.81 24.07-38.11 20.43zm48.35-31.6c-.01.01-.02.03-.03.04-1.98-2.35-3.96-4.8-5.92-7.33 1.98.04 3.96.06 5.95.06 1.98 0 3.96-.02 5.93-.06-1.99 2.56-3.96 4.98-5.93 7.29zm0-22.23c-5.88 0-11.54-.18-16.98-.51-6.114-9.234-12.034-19.49-16.97-29.4 4.893-9.853 10.961-20.337 16.97-29.41 5.56-.33 11.23-.51 16.98-.51 5.88 0 11.54.18 16.98.51 6.061 9.153 12.136 19.669 16.97 29.4-4.879 9.848-10.961 20.342-16.97 29.41-5.55.33-11.22.51-16.98.51zm48.35 53.83c-4.28 2.47-14.3.5-29.58-12.43-2.84-2.41-5.71-5.07-8.58-7.94 5.15-5.99 10.22-12.54 15.12-19.54 8.48-.74 16.66-1.85 24.4-3.31 6.24 23.35 4.94 39.58-1.36 43.22zm22.8-64.34c-3.52 1.26-7.25 2.41-11.17 3.46-2.61-7.45-5.75-15.12-9.37-22.86 3.61-7.72 6.74-15.36 9.34-22.79 23.34 6.27 36.75 15.51 36.75 22.79 0 4.94-6.71 12.63-25.55 19.4z" fill="#616578"/><path d="m337.548 290.97c-3.72-1.34-7.66-2.56-11.79-3.67 1.1-4.14 2.01-8.17 2.71-12.06 5.55-30.66-3.07-42.75-11.28-47.49s-22.98-6.16-46.77 13.97c-3.02 2.56-6.05 5.37-9.08 8.38v44.47c5.88 0 11.54.18 16.98.51 6.061 9.153 12.136 19.669 16.97 29.4-4.879 9.848-10.961 20.342-16.97 29.41-5.55.33-11.22.51-16.98.51v44.47c3.03 3.02 6.06 5.82 9.08 8.38 15.24 12.9 26.78 16.95 35.26 16.95 4.76 0 8.56-1.28 11.51-2.98 8.21-4.74 16.83-16.82 11.28-47.49-.7-3.89-1.61-7.92-2.71-12.05 4.13-1.12 8.07-2.34 11.79-3.68 29.33-10.53 35.49-24.04 35.49-33.51 0-9.48-6.16-22.99-35.49-33.52zm-50.9-10.31c-4.89-6.98-9.94-13.51-15.06-19.48 14.16-14.14 26.67-21.37 34.14-21.37 1.54 0 2.88.31 3.96.93 4.28 2.47 7.58 12.13 4.02 31.83-.66 3.67-1.53 7.48-2.58 11.4-7.76-1.46-15.97-2.57-24.48-3.31zm16.51 26.55c-1.893-3.451-3.897-6.917-5.94-10.28 3.22.44 6.33.94 9.33 1.49-1.05 2.89-2.18 5.83-3.39 8.79zm3.36 43.39c-3.03.55-6.14 1.04-9.31 1.47 2.038-3.38 4.044-6.835 5.94-10.29 1.23 3.01 2.35 5.95 3.37 8.82zm3.17 57.63c-4.28 2.47-14.3.5-29.58-12.43-2.84-2.41-5.71-5.07-8.58-7.94 5.15-5.99 10.22-12.54 15.12-19.54 8.48-.74 16.66-1.85 24.4-3.31 6.24 23.35 4.94 39.58-1.36 43.22zm22.8-64.34c-3.52 1.26-7.25 2.41-11.17 3.46-2.61-7.45-5.75-15.12-9.37-22.86 3.61-7.72 6.74-15.36 9.34-22.79 23.34 6.27 36.75 15.51 36.75 22.79 0 4.94-6.71 12.63-25.55 19.4z" fill="#464652"/></g><path d="m389.07 129.04v95.73l-30.48-23.48-30.48 23.48v-95.73z" fill="#db504f"/><path d="m389.07 172.81v51.96l-30.48-23.48-30.48 23.48v-51.96z" fill="#c12439"/></g></svg>