<svg id="Capa_1" enable-background="new 0 0 512 512" height="512" viewBox="0 0 512 512" width="512" xmlns="http://www.w3.org/2000/svg"><path d="m511.998 257.131c-.188 43.489-11.225 84.419-30.538 120.219-138.866 82.934-312.053 82.934-450.919 0-19.481-36.11-30.541-77.44-30.541-121.35 0-141.38 114.619-255.999 255.999-256 141.499-.001 256.611 115.633 255.999 257.131z" fill="#22d7ff"/><path d="m512 256c0 43.91-11.06 85.24-30.54 121.35-138.866 82.934-312.053 82.934-450.919 0-19.481-36.11-30.541-77.44-30.541-121.35 0-46.22 12.25-89.57 33.68-127 44.12 77.07 127.16 129 222.32 129s178.21-51.93 222.32-129c21.43 37.43 33.68 80.78 33.68 127z" fill="#00b3fe"/><path d="m428.78 444.9c-45.54 41.67-106.19 67.1-172.78 67.1s-127.24-25.43-172.78-67.1z" fill="#545d7a"/><path d="m428.78 444.9c-45.54 41.67-106.19 67.1-172.78 67.1v-67.1z" fill="#474f6f"/><path d="m481.46 174.64v202.71c-13.69 25.4-31.56 48.23-52.68 67.55h-345.56c-21.12-19.32-38.99-42.15-52.68-67.55v-202.71c0-16.76 13.59-30.35 30.35-30.35h390.22c16.76 0 30.35 13.59 30.35 30.35z" fill="#ffb600"/><path d="m481.46 174.64v202.71c-13.69 25.4-31.56 48.23-52.68 67.55h-172.78v-300.61h195.11c16.76 0 30.35 13.59 30.35 30.35z" fill="#ec781b"/><path d="m450.06 217.75v153.69c-22.43 0-40.62 18.19-40.62 40.62h-306.88c0-22.43-18.19-40.62-40.62-40.62v-153.69c22.43 0 40.62-18.18 40.62-40.62h306.88c0 22.44 18.19 40.62 40.62 40.62z" fill="#ffce00"/><path d="m450.06 217.75v153.69c-22.43 0-40.62 18.19-40.62 40.62h-153.44v-234.93h153.44c0 22.44 18.19 40.62 40.62 40.62z" fill="#ffb600"/><path d="m322.69 207.25c0 3.47-1.41 6.61-3.68 8.89-2.28 2.27-5.42 3.68-8.89 3.68h-108.24c-6.94 0-12.57-5.63-12.57-12.57 0-3.47 1.41-6.62 3.68-8.9 2.28-2.27 5.42-3.68 8.89-3.68h108.24c6.94 0 12.57 5.63 12.57 12.58z" fill="#fff"/><path d="m310.12 219.82h-54.12v-25.15h54.12c6.94 0 12.57 5.63 12.57 12.58 0 3.47-1.41 6.61-3.68 8.89-2.28 2.27-5.42 3.68-8.89 3.68z" fill="#d1f6ff"/><path d="m394.21 337.18c0 3.48-1.41 6.62-3.68 8.9-2.28 2.27-5.42 3.68-8.89 3.68h-251.28c-6.94 0-12.57-5.63-12.57-12.58 0-3.47 1.41-6.61 3.68-8.89 2.28-2.27 5.42-3.68 8.89-3.68h251.28c6.94 0 12.57 5.63 12.57 12.57z" fill="#fff"/><path d="m394.21 337.18c0 3.48-1.41 6.62-3.68 8.9-2.28 2.27-5.42 3.68-8.89 3.68h-125.64v-25.15h125.64c6.94 0 12.57 5.63 12.57 12.57z" fill="#d1f6ff"/><path d="m355.54 381.95c0 3.47-1.41 6.61-3.68 8.89-2.28 2.27-5.42 3.68-8.89 3.68h-173.94c-6.94 0-12.57-5.63-12.57-12.57 0-3.47 1.41-6.62 3.68-8.89 2.28-2.28 5.42-3.68 8.89-3.68h173.94c6.94 0 12.57 5.62 12.57 12.57z" fill="#fff"/><path d="m355.54 381.95c0 3.47-1.41 6.61-3.68 8.89-2.28 2.27-5.42 3.68-8.89 3.68h-86.97v-25.14h86.97c6.94 0 12.57 5.62 12.57 12.57z" fill="#d1f6ff"/><path d="m293.176 284.294c-1.368 4.182.78 10.18-1.752 13.658-2.558 3.517-8.939 3.325-12.456 5.883-3.478 2.532-5.256 8.671-9.438 10.026-4.028 1.317-9.067-2.57-13.53-2.57s-9.502 3.888-13.53 2.57c-4.182-1.356-5.959-7.494-9.438-10.026-3.517-2.558-9.898-2.366-12.456-5.883-2.532-3.478-.384-9.476-1.752-13.658-1.304-4.028-6.612-7.609-6.612-12.072 0-4.476 5.307-8.057 6.612-12.085 1.368-4.182-.78-10.18 1.752-13.658 2.558-3.517 8.939-3.325 12.456-5.883 3.478-2.519 5.256-8.671 9.438-10.026 4.028-1.317 9.067 2.57 13.53 2.57s9.502-3.888 13.53-2.57c4.182 1.356 5.959 7.507 9.438 10.026 3.517 2.558 9.898 2.366 12.456 5.883 2.532 3.479.384 9.476 1.752 13.658 1.304 4.028 6.612 7.609 6.612 12.085-.001 4.462-5.308 8.043-6.612 12.072z" fill="#ec781b"/><path d="m256 311.29v-78.15c4.463 0 9.502-3.888 13.53-2.57 4.182 1.356 5.959 7.507 9.438 10.026 3.517 2.558 9.898 2.366 12.456 5.883 2.532 3.479.384 9.476 1.752 13.658 1.304 4.028 6.612 7.609 6.612 12.085 0 4.463-5.307 8.044-6.612 12.072-1.368 4.182.78 10.18-1.752 13.658-2.558 3.517-8.939 3.325-12.456 5.883-3.478 2.532-5.256 8.671-9.438 10.026-4.028 1.317-9.067-2.571-13.53-2.571z" fill="#c55732"/></svg>