<svg height="512" viewBox="0 0 512 512" width="512" xmlns="http://www.w3.org/2000/svg"><g id="BULINE"><circle cx="256" cy="256" fill="#aa60fa" r="256"/></g><g id="Icons"><path d="m430.89 195.28a157.56 157.56 0 0 1 -25.06 85.53 115.62 115.62 0 0 0 -18 62.57v109a22.6 22.6 0 0 1 -22.57 22.62h-107.38a22.59 22.59 0 0 1 -22.59-22.59v-31.51a14.37 14.37 0 0 0 -14.37-14.37h-33.59a73.36 73.36 0 0 1 -73.33-73.33v-6.1a15.82 15.82 0 0 0 -15.82-15.82h-9.34a8.66 8.66 0 0 1 -7.27-13.37l25-38.68a46.52 46.52 0 0 0 7.43-25.23v-37c0-87.57 70.32-159.86 157.89-160.16a158.39 158.39 0 0 1 159 158.45z" fill="#f58d89"/><path d="m430.89 195.28a157.56 157.56 0 0 1 -25.06 85.53 115.62 115.62 0 0 0 -18 62.57v109a22.6 22.6 0 0 1 -22.57 22.62h-107.38a22.59 22.59 0 0 1 -22.59-22.59v-31.51a14.37 14.37 0 0 0 -14.37-14.37h-33.59a73.07 73.07 0 0 1 -52.77-22.43l20.93-32.38a46.34 46.34 0 0 0 7.44-25.21v-37c0-87.56 70.32-159.86 157.89-160.16a157.82 157.82 0 0 1 108.3 42.28 157.85 157.85 0 0 1 1.77 23.65z" fill="#fab3a7"/><ellipse cx="365.32" cy="363.58" fill="#fcc8bc" rx="12" ry="19.5"/><ellipse cx="365.32" cy="405.78" fill="#fcc8bc" rx="9.72" ry="15.79"/><path d="m394.08 132.84c-7.27-13-27-16.52-57.1-10.22-27.19 5.69-60.08 18.84-92.59 37s-60.92 39.34-80 59.55c-21.1 22.35-28.42 41-21.16 54 4.93 8.8 15.58 13.26 31.31 13.26a127.7 127.7 0 0 0 25.79-3c27.19-5.69 60.08-18.84 92.59-37s60.92-39.34 80-59.55c21.08-22.39 28.42-41.06 21.16-54.04zm-107.71 101.83c-31.36 17.54-62.89 30.19-88.78 35.61-26.79 5.6-39.59 1.79-42.62-3.64s.4-18.32 19.19-38.22c18.17-19.24 45.44-39.5 76.79-57 48.56-27.22 89.05-38.42 112.05-38.42 10.33 0 17.09 2.27 19.38 6.38 7.37 13.23-25.57 55.87-96.01 95.29z" fill="#366fca"/><path d="m362.77 286.46a127.78 127.78 0 0 1 -25.79-3c-27.19-5.69-60.08-18.84-92.59-37s-60.92-39.34-80-59.55c-21.1-22.35-28.42-41-21.16-54s27-16.52 57.1-10.22c27.19 5.69 60.08 18.84 92.59 37s60.92 39.34 80 59.55c21.1 22.35 28.42 41 21.16 54-4.93 8.76-15.58 13.22-31.31 13.22zm-188.42-153.46c-10.33 0-17.09 2.27-19.38 6.38-7.4 13.21 25.54 55.85 96 95.27 31.36 17.54 62.89 30.19 88.78 35.61 26.79 5.6 39.59 1.79 42.62-3.64s-.4-18.32-19.19-38.22c-18.16-19.24-45.44-39.5-76.79-57-48.57-27.2-89.11-38.4-112.04-38.4z" fill="#41c0e3"/><path d="m268.66 346.74c-14.87 0-27.6-15.51-36.8-44.84-8.32-26.5-12.86-61.62-12.86-98.9s4.58-72.38 12.9-98.88c9.2-29.33 21.93-44.84 36.8-44.84s27.6 15.51 36.8 44.84c8.32 26.5 12.9 61.62 12.9 98.88s-4.58 72.38-12.9 98.88c-9.24 29.35-21.97 44.86-36.84 44.86zm0-274c-15.14 0-36.26 49.57-36.26 130.29s21.12 130.29 36.26 130.29 36.26-49.58 36.26-130.32-21.12-130.27-36.26-130.27z" fill="#3586cb"/><path d="m223.35 263.15h-.11q-6.56 2.2-12.82 3.95 1.11 6.81 2.46 13.25c4.13-1.12 8.35-2.4 12.66-3.81l.22-.08q-1.32-6.31-2.41-13.31zm-17.41-79.26q-.36 8.36-.4 16.92 6.53-4.92 13.59-9.75c0-1.53.08-3 .14-4.55s.12-3 .19-4.51c0-.86.08-1.73.13-2.59 0-.65.07-1.3.11-1.94.05-1 .12-2 .19-3.05q-7.2 4.67-13.95 9.47z" fill="#2c61af"/><path d="m219.7 228.57c0-.64-.07-1.29-.11-1.94 0-.86-.09-1.73-.13-2.59-.07-1.49-.13-3-.19-4.51 0-.75-.05-1.5-.08-2.25l-.06-2.26c-4.79-3.26-9.32-6.52-13.59-9.74q0 8.53.4 16.88 6.74 4.8 13.95 9.47c-.07-1.02-.14-2.04-.19-3.06zm5.84-99.1c-4.31-1.41-8.53-2.69-12.66-3.81q-1.35 6.42-2.46 13.23 6.14 1.71 12.82 3.94h.11c.73-4.65 1.54-9.1 2.41-13.32z" fill="#39aec9"/><path d="m223.24 142.83h.11c.73-4.65 1.54-9.1 2.41-13.32l-.22-.08q-1.27 6.57-2.3 13.4zm.11 120.32h-.11q1 6.87 2.3 13.39l.22-.08q-1.32-6.31-2.41-13.31z" fill="#3586cb"/><circle cx="268.64" cy="203.02" fill="#fc4581" r="22.94"/><path d="m272.82 225.58a22.93 22.93 0 1 1 0-45.12 22.94 22.94 0 0 0 0 45.12z" fill="#fa3268"/><circle cx="277.49" cy="197.22" fill="#fc72a4" r="8.86"/><circle cx="355.42" cy="277.82" fill="#e88032" r="15.27"/><path d="m358.21 292.84a16.06 16.06 0 0 1 -2.78.25 15.27 15.27 0 1 1 2.78-30.29 15.27 15.27 0 0 0 0 30z" fill="#cc6c2b"/><circle cx="361.32" cy="273.96" fill="#f29e64" r="5.9"/><circle cx="180.81" cy="277.82" fill="#aa60fa" r="15.27"/><path d="m183.6 292.84a16.08 16.08 0 0 1 -2.79.25 15.27 15.27 0 1 1 2.79-30.29 15.27 15.27 0 0 0 0 30z" fill="#934cf5"/><circle cx="186.71" cy="273.96" fill="#cd88f8" r="5.9"/><circle cx="355.42" cy="127.49" fill="#38c487" r="15.27"/><path d="m358.21 142.51a15.27 15.27 0 1 1 -2.78-30.29 16.06 16.06 0 0 1 2.78.25 15.27 15.27 0 0 0 0 30z" fill="#00b564"/><circle cx="361.32" cy="123.63" fill="#4acc97" r="5.9"/><circle cx="180.81" cy="127.49" fill="#db1b1b" r="15.27"/><path d="m183.6 142.51a15.27 15.27 0 1 1 -2.79-30.29 16.08 16.08 0 0 1 2.79.25 15.27 15.27 0 0 0 0 30z" fill="#ba1919"/><circle cx="186.71" cy="123.63" fill="#e54a4a" r="5.9"/></g></svg>