<svg id="Layer_1" enable-background="new 0 0 512 512" height="512" viewBox="0 0 512 512" width="512" xmlns="http://www.w3.org/2000/svg"><g><path d="m256 21.995c-135.311 0-245.002 109.691-245.002 245.002 0 53.589 17.218 103.15 46.405 143.479l309.768 74.902c79.433-40.518 133.831-123.095 133.831-218.381 0-135.31-109.691-245.002-245.002-245.002z" fill="#e80054"/><path d="m275.184 175.466c-15.827-4.613-25.277-10.896-25.277-16.809v-52.286l-47.066-21.456c-9.933-4.529-9.948-18.651 0-23.187l89.694-40.89h-189.196c-25.817 0-46.821 21.004-46.821 46.822v341.602c11.199 15.675 24.2 29.972 38.699 42.594l234.164 48.953c13.581-4.26 26.655-9.667 39.105-16.113v-302.887c-31.673 3.117-68.094 1.004-93.302-6.343z" fill="#167cc1"/><path d="m95.239 451.861 77.536 16.209-2.421-385.167c-.003-.53-.199-1.04-.528-1.456-5.768-7.284-2.169-12.304.088-14.42.739-.692.912-1.805.449-2.706-2.657-5.175.88-8.447 2.368-9.531.409-.298.7-.729.84-1.215l4.071-14.092c.219-.758.044-1.587-.485-2.173-6.969-7.725-2.15-13.245.533-15.433.343-.28.581-.643.716-1.04h-75.067c-25.817 0-46.821 21.004-46.821 46.821v341.602c11.203 15.683 24.215 29.978 38.721 42.601z" fill="#024788"/><path d="m249.907 158.657v-20.084h-164.259v304.49c44.091 42.669 104.15 68.937 170.352 68.937 29.269 0 57.335-5.141 83.355-14.555v-314.239c-23.235 0-46.469-2.581-64.171-7.741-15.827-4.612-25.277-10.896-25.277-16.808z" fill="#e9efff"/><path d="m85.648 443.063c24.022 23.248 52.783 41.622 84.7 53.533v-358.023h-84.7z" fill="#d3dcfb"/><g><path d="m178.01 54.392h-4.675c-4.469 0-8.092-3.622-8.092-8.092 0-4.469 3.623-8.092 8.092-8.092h4.675c4.469 0 8.092 3.622 8.092 8.092-.001 4.47-3.624 8.092-8.092 8.092z" fill="#1e92d3"/></g><path d="m205.627 54.392h13.308l35.499-16.183h-48.807c-4.469 0-8.092 3.622-8.092 8.092 0 4.469 3.623 8.091 8.092 8.091z" fill="#1e92d3"/><path d="m249.907 106.372-47.066-21.456c-4.729-2.156-7.183-6.489-7.411-10.924h-35.256c-7.12 0-12.947-5.826-12.947-12.947 0-6.117-4.959-11.076-11.075-11.076h-32.814c-9.771 0-17.691 7.92-17.691 17.691v73.781h164.259v-35.069z" fill="#9bd8f9"/><path d="m160.175 73.992c-7.121 0-12.947-5.826-12.947-12.947 0-6.117-4.959-11.076-11.075-11.076h-32.814c-9.77 0-17.691 7.92-17.691 17.691v73.781h84.7v-67.449z" fill="#73c3f9"/><g fill="#1e92d3"><path d="m93.74 450.548v-382.888c0-5.293 4.306-9.599 9.599-9.599h32.814c1.645 0 2.984 1.338 2.984 2.984 0 11.6 9.438 21.039 21.039 21.039h38.707c-4.215-4.414-4.589-11.324-1.112-16.184h-37.595c-2.632 0-4.855-2.223-4.855-4.855 0-10.569-8.599-19.167-19.167-19.167h-32.814c-14.216 0-25.783 11.567-25.783 25.783v367.199c5.15 5.473 10.552 10.706 16.183 15.688z"/><path d="m347.447 183.098c-5.383.139-10.8.139-16.184 0v317.105c5.481-1.768 10.879-3.72 16.184-5.856z"/></g><g fill="#1e92d3"><path d="m93.74 450.548v-382.888c0-5.293 4.306-9.599 9.599-9.599h32.814c1.645 0 2.984 1.338 2.984 2.984 0 11.6 9.438 21.039 21.039 21.039h38.707c-4.215-4.414-4.589-11.324-1.112-16.184h-37.595c-2.632 0-4.855-2.223-4.855-4.855 0-10.569-8.599-19.167-19.167-19.167h-32.814c-14.216 0-25.783 11.567-25.783 25.783v367.199c5.15 5.473 10.552 10.706 16.183 15.688z"/><path d="m347.447 183.098c-5.383.139-10.8.139-16.184 0v317.105c5.481-1.768 10.879-3.72 16.184-5.856z"/></g><path d="m103.339 58.061h32.814c1.645 0 2.984 1.338 2.984 2.984 0 11.6 9.438 21.039 21.039 21.039h10.013c-.089-.227-.21-.442-.364-.636-5.768-7.284-2.169-12.304.088-14.42.33-.309.528-.707.626-1.127h-10.364c-2.632 0-4.855-2.223-4.855-4.855 0-10.569-8.599-19.167-19.167-19.167h-32.814c-14.216 0-25.782 11.567-25.782 25.783v367.199c5.151 5.474 10.552 10.707 16.184 15.689v-382.89c-.001-5.293 4.305-9.599 9.598-9.599z" fill="#167cc1"/><g><path d="m123.402 80.253h-11.149c-4.469 0-8.092-3.623-8.092-8.092s3.623-8.092 8.092-8.092h11.149c4.469 0 8.092 3.622 8.092 8.092s-3.623 8.092-8.092 8.092z" fill="#e9efff"/></g><g><path d="m253.105 121.927h-92.929c-4.469 0-8.092-3.622-8.092-8.092s3.623-8.092 8.092-8.092h92.929c4.469 0 8.092 3.622 8.092 8.092s-3.624 8.092-8.092 8.092z" fill="#e9efff"/></g><path d="m299.022 269.352h-173.017c-7.55 0-13.728-6.178-13.728-13.728v-26.836c0-7.55 6.178-13.728 13.728-13.728h173.017c7.55 0 13.728 6.178 13.728 13.728v26.836c0 7.551-6.178 13.728-13.728 13.728z" fill="#73c3f9"/><g><path d="m220.605 193.131h-100.237c-4.469 0-8.092-3.622-8.092-8.092 0-4.469 3.623-8.092 8.092-8.092h100.237c4.469 0 8.092 3.622 8.092 8.092s-3.623 8.092-8.092 8.092z" fill="#167cc1"/></g><path d="m299.022 382.957h-173.017c-7.55 0-13.728-6.178-13.728-13.728v-26.836c0-7.55 6.178-13.728 13.728-13.728h173.017c7.55 0 13.728 6.178 13.728 13.728v26.836c0 7.551-6.178 13.728-13.728 13.728z" fill="#73c3f9"/><path d="m155.764 242.206c0-14.931 12.216-27.146 27.146-27.146h-56.905c-7.55 0-13.728 6.178-13.728 13.728v26.836c0 7.55 6.178 13.728 13.728 13.728h56.905c-14.931 0-27.146-12.215-27.146-27.146z" fill="#4fabf7"/><path d="m155.764 355.811c0-14.931 12.216-27.147 27.146-27.147h-56.905c-7.55 0-13.728 6.178-13.728 13.728v26.836c0 7.551 6.178 13.728 13.728 13.728h56.905c-14.931.001-27.146-12.214-27.146-27.145z" fill="#4fabf7"/><g><path d="m220.605 306.736h-100.237c-4.469 0-8.092-3.622-8.092-8.092 0-4.469 3.623-8.092 8.092-8.092h100.237c4.469 0 8.092 3.622 8.092 8.092s-3.623 8.092-8.092 8.092z" fill="#167cc1"/></g><g><path d="m220.207 479.387h-15.387c-4.469 0-8.092-3.622-8.092-8.092 0-4.469 3.623-8.092 8.092-8.092h15.387c4.469 0 8.092 3.622 8.092 8.092s-3.623 8.092-8.092 8.092z" fill="#bec8f7"/></g><g fill="#e9efff"><ellipse cx="153.836" cy="241.641" rx="10.609" ry="10.609" transform="matrix(.082 -.997 .997 .082 -99.65 375.059)"/><ellipse cx="183.169" cy="241.641" rx="10.609" ry="10.609" transform="matrix(.164 -.986 .986 .164 -85.286 382.614)"/><ellipse cx="212.502" cy="241.641" rx="10.609" ry="10.609" transform="matrix(.082 -.997 .997 .082 -45.815 433.525)"/><ellipse cx="241.834" cy="241.641" rx="10.609" ry="10.609" transform="matrix(.122 -.993 .993 .122 -27.478 452.223)"/><ellipse cx="271.167" cy="241.641" rx="10.609" ry="10.609" transform="matrix(.16 -.987 .987 .16 -10.667 470.751)"/><ellipse cx="153.836" cy="355.811" rx="10.609" ry="10.609" transform="matrix(.229 -.974 .974 .229 -227.728 424.191)"/><ellipse cx="183.169" cy="355.811" rx="10.609" ry="10.609" transform="matrix(.931 -.365 .365 .931 -117.081 91.232)"/><ellipse cx="212.502" cy="355.811" rx="10.609" ry="10.609" transform="matrix(.229 -.974 .974 .229 -182.48 481.301)"/><ellipse cx="241.834" cy="355.811" rx="10.609" ry="10.609" transform="matrix(.707 -.707 .707 .707 -180.765 275.217)"/><ellipse cx="271.167" cy="355.811" rx="10.609" ry="10.609" transform="matrix(.923 -.385 .385 .923 -116.126 131.898)"/></g><ellipse cx="339.355" cy="158.658" fill="#1c2e7a" rx="91.606" ry="26.7"/><path d="m339.355 131.958c-1.541 0-3.072.012-4.595.034-1.486 1.757-2.345 2.78-2.345 2.78s54.78 22.865 4.007 50.563c.976.009 1.949.022 2.932.022 50.593 0 91.606-11.954 91.606-26.7.001-14.745-41.012-26.699-91.605-26.699z" fill="#142766"/><g><path d="m476.764 59.766-125.357-57.149c-7.655-3.49-16.448-3.49-24.104 0l-125.357 57.149c-11.624 5.299-11.624 21.813 0 27.112l48.023 21.893v-13.058c0-5.882 9.432-12.143 25.232-16.748 35.404-10.319 92.921-10.314 128.308 0 15.799 4.606 25.232 10.866 25.232 16.748v13.058l48.023-21.893c11.625-5.299 11.625-21.813 0-27.112z" fill="#3c58a0"/></g><path d="m201.946 59.766c-11.624 5.299-11.624 21.813 0 27.112l48.023 21.893v-13.058c0-5.882 9.432-12.143 25.232-16.748 15.863-4.624 36.168-7.168 56.93-7.647 3.781-1.61 7.224-2.304 7.224-2.304-50.565-26.845-12.052-66.396-12.052-66.396z" fill="#2a428c"/><path d="m339.355 69.014c-50.592 0-91.606 11.954-91.606 26.699v62.945h.477c4.705-13.459 43.709-23.961 91.129-23.961 47.421 0 86.425 10.502 91.129 23.961h.477v-62.945c0-14.746-41.013-26.699-91.606-26.699z" fill="#2a428c"/><path d="m339.355 69.014c-50.593 0-91.606 11.954-91.606 26.699v62.945h.476c4.473-12.796 39.955-22.912 84.19-23.878v-.007c-10.209-3.935-10.003-14.37-10.003-14.37s0-29.395 0-38.692c.001-9.297 16.943-12.697 16.943-12.697z" fill="#1c2e7a"/><g><path d="m394.113 197.334c-6.698 0-12.127-5.429-12.127-12.127v-34.339c0-6.698 5.429-12.127 12.127-12.127s12.127 5.429 12.127 12.127v34.339c0 6.697-5.429 12.127-12.127 12.127z" fill="#ffdd40"/></g><path d="m394.113 138.741c-6.698 0-12.127 5.429-12.127 12.127v30.569c0-6.698 5.429-12.127 12.127-12.127s12.127 5.429 12.127 12.127v-30.569c0-6.698-5.429-12.127-12.127-12.127z" fill="#ffb332"/><g><path d="m394.113 132.003c-5.023 0-9.095-4.072-9.095-9.095v-107.289c0-5.023 4.072-9.095 9.095-9.095s9.095 4.072 9.095 9.095v107.288c0 5.024-4.072 9.096-9.095 9.096z" fill="#ffdd40"/></g><path d="m411.317 137.607c0 9.502-7.703 17.204-17.204 17.204s-17.204-7.702-17.204-17.204 7.702-17.204 17.204-17.204 17.204 7.702 17.204 17.204z" fill="#ffb332"/><ellipse cx="396.811" cy="134.223" fill="#ffdd40" rx="7.886" ry="7.886" transform="matrix(.229 -.973 .973 .229 175.293 489.756)"/><path d="m492.064 201.242c-14.159-2.525-29.276-1.776-39.355 8.303-24.035 24.035-49.712 25.916-49.712 82.653v118.336s-1.121 25.564 14.92 40.327c50.943-44.895 83.085-110.623 83.085-183.863 0-22.78-3.121-44.829-8.938-65.756z" fill="#ff4155"/><path d="m238.747 411.112h-52.49c-9.263 0-16.841 7.579-16.841 16.842 0 9.263 7.579 16.842 16.842 16.842h52.49c9.263 0 16.841-7.579 16.841-16.842-.001-9.264-7.579-16.842-16.842-16.842z" fill="#38c674"/><path d="m210.468 427.954c0-9.263 7.579-16.842 16.841-16.842h-41.053c-9.263 0-16.841 7.579-16.841 16.842s7.579 16.842 16.842 16.842h41.053c-9.264-.001-16.842-7.579-16.842-16.842z" fill="#24b55e"/></g></svg>