<svg id="Icons" enable-background="new 0 0 512 512" height="512" viewBox="0 0 512 512" width="512" xmlns="http://www.w3.org/2000/svg"><g><path d="m512 256c0 112.73-72.87 208.44-174.07 242.61-3.74 1.26-7.52 2.44-11.34 3.53-9.27 2.65-18.75 4.8-28.41 6.4-13.72 2.28-27.81 3.46-42.18 3.46-14.18 0-28.1-1.15-41.66-3.38-9.66-1.58-19.15-3.7-28.42-6.33-3.82-1.09-7.61-2.26-11.35-3.52-101.46-34.01-174.57-129.86-174.57-242.77 0-141.38 114.62-256 256-256s256 114.62 256 256z" fill="#22bce0"/><g><g><g><path d="m252.78 45.79c-12.026 147.359-26.233 315.195-38.44 462.83-13.614-2.232-26.802-5.491-39.77-9.85 9.616-115.593 25.976-311.94 35.63-428.13 0 0 2.21-26.51 2.21-26.51.68-8.23 6.2-14.9 13.53-17.44 12.805-4.667 27.102 5.517 26.84 19.1z" fill="#a26d5a"/><path d="m252.78 45.79c-12.026 147.359-26.233 315.195-38.44 462.83-9.66-1.58-19.15-3.7-28.42-6.33 9.69-116.459 21.758-261.439 31.44-377.88 1.373-16.471 3.098-37.255 4.48-53.77 0 0 3.31-39.78 3.31-39.78.12-1.45.39-2.84.79-4.17 12.81-4.689 27.1 5.538 26.84 19.1z" fill="#c17e62"/></g><g><path d="m337.93 498.61c-12.966 4.365-26.142 7.669-39.75 9.93-11.257-135.374-23.858-286.612-35.09-421.62-.804-9.509-2.464-29.814-3.28-39.43-.963-10.973 7.319-20.958 18.48-21.84 10.882-.961 20.938 7.246 21.83 18.48 10.639 127.858 27.187 326.764 37.81 454.48z" fill="#a26d5a"/><path d="m326.59 502.14c-9.27 2.65-18.75 4.8-28.41 6.4-6.828-82.098-16.206-194.666-22.99-276.28-1.907-22.884-7.879-94.591-9.73-116.86-1.078-12.915-2.648-31.823-3.72-44.76 0 0-1.93-23.15-1.93-23.15-.05-.57-.07-1.15-.07-1.7-.263-13.534 14.038-23.802 26.84-19.1.41 1.33.67 2.72.8 4.17.986 11.844 3.736 44.889 4.66 56.06 1.332 15.822 2.933 35.35 4.26 51.09 9.518 114.5 20.753 249.419 30.29 364.13z" fill="#c17e62"/></g></g><g><path d="m336.425 82.646v20.749c.042 6.479-5.346 12.039-12.002 12.003h-136.317c-6.625 0-12.002-5.377-12.002-12.003v-20.749c0-5.774 4.073-10.585 9.495-11.742.805-.17 1.645-.261 2.507-.261h136.317c6.624 0 12.002 5.366 12.002 12.003z" fill="#a26d5a"/><path d="m336.425 82.646c-.058.717.169 23.202-.193 22.894-.805.17-1.645.261-2.507.261h-136.317c-6.625 0-12.003-5.366-12.003-12.003-.075-.709-.072-23.205.193-22.893.805-.17 1.645-.261 2.507-.261h136.317c6.625-.001 12.003 5.365 12.003 12.002z" fill="#d48d77"/><path d="m319.841 86.92h-112.017c-10.752-.384-10.81-15.869 0-16.277h112.017c10.752.384 10.81 15.869 0 16.277z" fill="#eea47d"/></g><g><g><g><path d="m423.51 115.4h-335.02c-6.24 0-11.3 5.06-11.3 11.3v256.85c0 6.24 5.06 11.31 11.3 11.31h335.02c6.25 0 11.3-5.07 11.3-11.31v-256.85c0-6.24-5.05-11.3-11.3-11.3zm-11.31 256.85h-312.4v-234.24h312.4z" fill="#a26d5a"/><path d="m413.82 124.41h-315.62c-5.85 0-10.58 4.73-10.58 10.57v240.3c0 5.83 4.73 10.56 10.58 10.56h315.62c5.84 0 10.58-4.73 10.58-10.56v-240.3c0-5.84-4.74-10.57-10.58-10.57zm-1.62 247.84h-312.4v-234.24h312.4z" fill="#d48d77"/><g fill="#eea47d"><path d="m99.796 179.976v103.959c0 3.363-2.726 6.089-6.089 6.089s-6.089-2.726-6.089-6.089v-103.959c.264-8.03 11.892-8.086 12.178 0z"/><path d="m424.382 235.345v103.959c0 3.363-2.726 6.089-6.089 6.089s-6.089-2.726-6.089-6.089v-103.959c.264-8.03 11.892-8.086 12.178 0z"/><path d="m259.453 138.006h-116.054c-3.754 0-6.798-3.043-6.798-6.798 0-3.754 3.043-6.798 6.798-6.798h116.054c8.964.296 9.027 13.277 0 13.596z"/><path d="m369.849 385.843h-150.088c-8.953-.29-9.037-13.273 0-13.595h150.088c8.953.29 9.037 13.272 0 13.595z"/></g></g><path d="m99.796 138.006h312.408v234.241h-312.408z" fill="#50755c"/></g></g><g fill="#fff"><path d="m169.23 266.38h-20.64c4.749-5.41 17.779-17.651 20.4-23.73 7.949-18.137-8.105-28.158-24.86-22.35-3.08 1.06-5.76 2.51-8.05 4.33-2.104 1.539-2.363 4.687-.82 6.65 1.462 2.012 3.763 1.235 5.43 0 3.845-2.609 7.709-4.541 12.27-4.53 8.083-.298 9.859 7.366 6.61 13.56-1.02 2.01-2.62 4.21-4.81 6.61l-17.82 19.15c-3.045 2.84-2.169 8.578 2.58 8.44h29.71c3.12 0 4.69-1.38 4.69-4.14 0-2.66-1.57-3.99-4.69-3.99z"/><path d="m240.01 249.69c-.65-.65-1.47-.98-2.46-.98h-12.19v-12.19c.034-1.94-1.49-3.484-3.44-3.44-1.955-.045-3.482 1.492-3.44 3.44v12.19h-12.2c-1.942-.033-3.474 1.498-3.44 3.44-.034 1.94 1.49 3.484 3.44 3.44h12.2v12.12c-.041 1.932 1.484 3.564 3.44 3.52 1.951.043 3.474-1.596 3.44-3.52v-12.12h12.19c3.062.188 4.571-3.886 2.46-5.9z"/><path d="m306.99 266.51c.56-.268-21.848-.075-22.14-.13 4.817-5.493 17.669-17.515 20.4-23.73 7.958-18.099-8.135-28.176-24.86-22.35-4.458 1.691-12.826 5.164-8.87 10.98 1.461 2.013 3.766 1.232 5.43 0 2.03-1.41 4.05-2.51 6.06-3.32 16.397-5.512 18.221 8.89 8.01 18.96-3.162 3.397-14.865 15.975-17.82 19.15-3.045 2.84-2.17 8.578 2.58 8.44h29.7c.82 0 1.54-.1 2.15-.29 3.63-.93 3.413-7.38-.64-7.71z"/><path d="m376.74 241.91c-.65-.68-1.47-1.02-2.46-1.02h-31.27c-4.539-.043-4.566 6.931 0 6.88h31.27c3.063.17 4.559-3.823 2.46-5.86zm0 15.64c-.65-.68-1.47-1.02-2.46-1.02h-31.27c-4.545-.041-4.557 6.924 0 6.88h31.27c3.053.17 4.563-3.833 2.46-5.86z"/></g></g></g></svg>