<svg id="Capa_1" enable-background="new 0 0 512 512" height="512" viewBox="0 0 512 512" width="512" xmlns="http://www.w3.org/2000/svg"><circle cx="256" cy="256" fill="#65b2fe" r="256"/><path d="m512 256c0 87.11-43.52 164.07-110 210.31-41.41 28.8-91.73 45.69-146 45.69s-104.59-16.89-146-45.69c-66.48-46.24-110-123.2-110-210.31 0-46.22 12.25-89.57 33.68-127 44.12 77.07 127.16 129 222.32 129s178.21-51.93 222.32-129c21.43 37.43 33.68 80.78 33.68 127z" fill="#0e9ce7"/><path d="m452 316c0 105.34-83.12 191.28-187.34 195.81-.31.02-.62.03-.93.04-.87.03-1.74.06-2.6.08-1.73.05-3.44.07-5.13.07-108.24 0-196-87.76-196-196s87.76-196 196-196h.28c108.11.15 195.72 87.85 195.72 196z" fill="#ffe853"/><path d="m452 316c0 105.34-83.12 191.28-187.34 195.81-.31.02-.62.03-.93.04-.87.03-1.74.06-2.6.08-1.73.05-3.44.07-5.13.07-58.54-45.3-103.35-116.25-103.35-196s44.81-150.7 103.35-196h.28c108.11.15 195.72 87.85 195.72 196z" fill="#fed110"/><path d="m452 316c0 108.244-87.756 196-196 196v-392c108.244 0 196 87.756 196 196z" fill="#ff9f01"/><path d="m373.74 389.35c0 3.93-1.6 7.5-4.17 10.08-2.58 2.57-6.15 4.17-10.08 4.17h-206.98c-7.87 0-14.25-6.38-14.25-14.25 0-3.93 1.6-7.5 4.17-10.08 2.58-2.57 6.15-4.17 10.08-4.17h206.98c7.87 0 14.25 6.38 14.25 14.25z" fill="#ed771b"/><path d="m373.74 389.35c0 3.93-1.6 7.5-4.17 10.08-2.58 2.57-6.15 4.17-10.08 4.17h-103.49v-28.5h103.49c7.87 0 14.25 6.38 14.25 14.25z" fill="#c6601a"/><path d="m380.386 291.11c-8.686 24.399-34.426 38.958-59.806 33.794-29.753-6.054-47.728-35.453-40.648-64.068.167-.691.354-1.393.551-2.075.016-.055.032-.109.048-.164 1.378-4.697 8.068-4.729 9.601-.08 5.238 15.884 17.969 29.002 35.242 34.012 17.269 5.009 35.039.749 47.974-9.854 3.821-3.132 9.42.552 8.048 5.298-.302 1.048-.639 2.094-1.01 3.137z" fill="#29334c"/><path d="m131.614 291.11c8.686 24.399 34.426 38.958 59.806 33.794 29.753-6.054 47.728-35.453 40.648-64.068-.167-.691-.354-1.393-.551-2.075-.016-.055-.032-.109-.048-.164-1.378-4.697-8.068-4.729-9.601-.08-5.238 15.884-17.969 29.002-35.242 34.012-17.269 5.009-35.038.749-47.974-9.854-3.821-3.132-9.42.552-8.048 5.298.302 1.048.639 2.094 1.01 3.137z" fill="#29334c"/><g fill="#fff"><path d="m369.923 203.9c-4.763-7.783-14.979-27.198-20.856-38.49-1.85-3.554-6.932-3.539-8.76.026-5.809 11.326-15.909 30.803-20.625 38.614-7.17 11.874-5.181 27.717 5.937 37.381 10.973 9.539 27.677 9.489 38.593-.116 11.058-9.73 12.952-25.585 5.711-37.415z"/><path d="m426.836 214.972c-3.223-5.266-10.135-18.403-14.112-26.043-1.251-2.405-4.69-2.394-5.927.018-3.931 7.664-10.764 20.842-13.956 26.127-4.851 8.034-3.505 18.754 4.017 25.293 7.425 6.454 18.727 6.421 26.112-.078 7.483-6.585 8.765-17.313 3.866-25.317z"/></g></svg>