<svg id="Capa_1" enable-background="new 0 0 512 512" height="512" viewBox="0 0 512 512" width="512" xmlns="http://www.w3.org/2000/svg"><g><g><path d="m256 303.349c-141.387 0-244.868-132.875-225.263-169.079 43.302-79.964 127.939-134.27 225.263-134.27 97.204 0 181.752 54.173 225.103 133.974 19.704 36.274-83.716 169.375-225.103 169.375z" fill="#576ceb"/><path d="m512 256c0 26.051-3.891 51.191-11.129 74.871-5.031 16.469-11.672 32.231-19.75 47.109-8.25 15.2-147.391 50.749-225.121 50.749s-216.871-35.549-225.109-50.749c-3.289-6.031-6.332-12.21-9.121-18.531-14-31.629-21.77-66.629-21.77-103.449 0-46.219 12.25-89.57 33.68-127 44.121 77.07 127.16 129 222.32 129s178.211-51.93 222.32-129c21.43 37.43 33.68 80.781 33.68 127zm0 0" fill="#6c3beb"/><path d="m481.262 377.699c-7.16 13.223-15.434 25.742-24.723 37.43-8.437 10.633-17.719 20.57-27.719 29.723-45.539 41.699-106.211 67.148-172.82 67.148-44.517 0-86.382-11.367-122.85-31.356-18.097-9.919-54.082-39.618-56.092-41.581-7.688-7.511-14.908-15.504-21.597-23.934-9.289-11.688-17.563-24.207-24.723-37.43zm0 0" fill="#4d34b0"/></g><g><path d="m98.985 458.195c10.739 8.351 22.158 15.867 34.164 22.447l50.348-35.74-27.167-89.277z" fill="#2dceea"/><path d="m77.052 439.043c8.049 7.87 16.604 15.225 25.632 21.987l79.526-79.526-63.398-1.288z" fill="#5ab4fc"/><path d="m165.392 333.635-14.237 78.924 32.343 32.342 54.484-38.676z" fill="#429dea"/><path d="m157.488 325.731-38.676 54.485 32.343 32.343 46.58-46.581z" fill="#2dceea"/><path d="m409.946 303.214 33.438-80.682-25.489-10.552.013-66.174-160.882 98.772-35.998 98.108c21.775 21.775 50.731 33.764 81.531 33.758 23.655-.004 46.391-7.122 65.75-20.583 18.874-13.125 33.269-31.327 41.637-52.647z" fill="#ff4f42"/><path d="m417.908 145.805-66.174.013-10.552-25.489-80.68 33.437c-21.321 8.367-39.524 22.762-52.648 41.638-13.462 19.359-20.579 42.095-20.584 65.75-.006 30.8 11.982 59.755 33.758 81.531 0 0 196.88-196.88 196.88-196.88z" fill="#ff7040"/><path d="m389.539 295.106.081-.203 25.068-60.485-18.755-7.765.012-58.885-149.974 56.809-9.416 102.58c17.627 17.626 41.066 27.332 65.999 27.327 38.728-.007 72.87-23.315 86.985-59.378z" fill="#ff903d"/><path d="m395.945 167.768-58.886.012-7.764-18.754-60.687 25.148c-36.064 14.113-59.372 48.256-59.38 86.984-.005 24.934 9.7 48.372 27.327 66 0 0 159.39-159.39 159.39-159.39z" fill="#ffb03b"/><path d="m221.028 342.685-50.464-11.646 11.645 50.464 38.819 38.819c21.439 21.439 56.198 21.439 77.637 0 0 0-38.818-38.818-77.637-77.637z" fill="#2dceea"/><path d="m143.391 265.048c-21.439 21.439-21.439 56.198 0 77.637l38.818 38.818 38.819-38.819c-38.818-38.817-77.637-77.636-77.637-77.636z" fill="#9cf0ff"/><path d="m166.956 288.953c-21.439 21.439-21.439 56.198 0 77.637l15.254 14.914 38.819-38.819c-38.819-38.818-54.073-53.732-54.073-53.732z" fill="#5ab4fc"/><path d="m362.225 261.145.012-59.669-90.732 28.622-11.142 73.251c11.268 11.268 26.251 17.472 42.189 17.468 32.898-.006 59.667-26.775 59.673-59.672z" fill="#ffebce"/><path d="m302.568 201.488c-32.897.006-59.666 26.776-59.673 59.672-.003 15.938 6.2 30.921 17.469 42.19l101.873-101.873z" fill="#fff"/></g><g fill="#fff"><path d="m255.999 87.662h1.524c6.754 0 12.226 5.472 12.226 12.226v1.528h8.715v-1.528c0-6.754 5.477-12.226 12.227-12.226h1.527v-8.715h-1.527c-6.75 0-12.227-5.477-12.227-12.227v-1.523h-8.715v1.523c0 6.75-5.472 12.227-12.226 12.227h-1.524zm0-8.715"/><path d="m165.388 73.275h1.524c6.754 0 12.226 5.472 12.226 12.226v1.528h8.715v-1.528c0-6.754 5.477-12.226 12.227-12.226h1.527v-8.715h-1.527c-6.75 0-12.227-5.477-12.227-12.227v-1.523h-8.715v1.523c0 6.75-5.472 12.227-12.226 12.227h-1.524zm0-8.715"/><path d="m147.279 158.76h1.524c6.754 0 12.226 5.472 12.226 12.226v1.528h8.715v-1.528c0-6.754 5.477-12.226 12.227-12.226h1.527v-8.715h-1.527c-6.75 0-12.227-5.477-12.227-12.227v-1.523h-8.715v1.523c0 6.75-5.472 12.227-12.226 12.227h-1.524zm0-8.715"/></g></g></svg>