<?xml version="1.0" encoding="iso-8859-1"?>
<!-- Generator: Adobe Illustrator 19.0.0, SVG Export Plug-In . SVG Version: 6.00 Build 0)  -->
<svg version="1.1" id="Capa_1" xmlns="http://www.w3.org/2000/svg" xmlns:xlink="http://www.w3.org/1999/xlink" x="0px" y="0px"
	 viewBox="0 0 512 512" style="enable-background:new 0 0 512 512;" xml:space="preserve">
<path style="fill:#9AE7FD;" d="M512,256c0,141.385-114.615,256-256,256S0,397.385,0,256S114.615,0,256,0S512,114.615,512,256z"/>
<path style="fill:#4391A6;" d="M463,305c0,58.199-19.434,111.852-52.148,154.852C367.852,492.566,314.199,512,256,512
	C114.615,512,0,397.385,0,256c0-58.199,19.434-111.852,52.148-154.852C95.148,68.434,148.801,49,207,49
	c49.478,0,95.667,14.051,134.824,38.36c1.882-1.307,4.164-2.078,6.629-2.078c6.429,0,11.641,5.212,11.641,11.641
	c0,0.914-0.116,1.799-0.315,2.652C422.423,146.24,463,220.879,463,305z"/>
<path style="fill:#328093;" d="M269.41,511.641C264.968,511.87,260.5,512,256,512C114.615,512,0,397.385,0,256
	c0-58.199,19.434-111.852,52.148-154.852C95.148,68.434,148.801,49,207,49c4.559,0,9.089,0.124,13.59,0.359
	c-0.53,0.027-1.06,0.056-1.589,0.087C117.019,55.344,34.71,136.088,27.624,237.993C27.21,243.942,27,249.946,27,256
	C27,392.826,134.344,504.575,269.41,511.641z"/>
<path style="fill:#9BD04C;" d="M423,384c0,8.284-6.716,15-15,15h-50c-8.284,0-15-6.716-15-15s6.716-15,15-15h50
	C416.284,369,423,375.716,423,384z M88,279H73c-11.046,0-20-8.954-20-20v-15c0-19.33-15.67-35-35-35H4.321
	C1.493,224.237,0,239.943,0,256c0,75.007,32.26,142.478,83.66,189.3C95.126,439.552,103,427.699,103,414c0-19.33-15.67-35-35-35h-5
	c-8.284,0-15-6.716-15-15s6.716-15,15-15h25c19.33,0,35-15.67,35-35S107.33,279,88,279z M353,449c-11.046,0-20-8.954-20-20v-15
	c0-19.33-15.67-35-35-35H178c-19.33,0-35,15.67-35,35s15.67,35,35,35h15c11.046,0,20,8.954,20,20v15
	c0,10.369,4.513,19.681,11.677,26.09C234.944,511.343,245.395,512,256,512c58.188,0,111.831-19.426,154.826-52.129
	c2.367-3.11,4.67-6.272,6.895-9.492C414.634,449.487,411.375,449,408,449H353z M208,309h120c19.33,0,35-15.67,35-35
	c0-19.329-15.669-34.999-34.998-35H338c-8.284,0-15-6.716-15-15s6.716-15,15-15h106.372c-10.39-25.666-24.818-49.261-42.502-70H248
	c-19.33,0-35,15.67-35,35s15.67,35,35,35h30c8.284,0,15,6.716,15,15s-6.715,15-14.999,15H208c-19.33,0-35,15.67-35,35
	S188.67,309,208,309z M98,139h50c8.284,0,15-6.716,15-15s-6.716-15-15-15H98c-8.284,0-15,6.716-15,15S89.716,139,98,139z"/>
<path style="fill:#80BE1C;" d="M57.944,378.108c10.822,19.903,24.206,38.211,39.711,54.48c-3.403,5.414-8.247,9.83-13.995,12.712
	C32.26,398.478,0,331.007,0,256c0-16.057,1.493-31.763,4.321-47H18c4.549,0,8.89,0.877,12.877,2.456
	C28.337,225.923,27,240.804,27,256c0,36.783,7.773,71.745,21.741,103.357C48.265,360.82,48,362.378,48,364
	C48,370.507,52.152,376.031,57.944,378.108z M219.298,504.008c1.557,2.228,3.358,4.274,5.379,6.082
	C234.944,511.343,245.395,512,256,512c4.5,0,8.968-0.13,13.411-0.359C252.202,510.74,235.443,508.143,219.298,504.008z"/>
<path style="fill:#FFF587;" d="M240,160c0,11.046-8.954,20-20,20s-20-8.954-20-20s8.954-20,20-20S240,148.954,240,160z M110,140
	c0-11.046-8.954-20-20-20s-20,8.954-20,20s8.954,20,20,20S110,151.046,110,140z M100,260c-11.046,0-20,8.954-20,20s8.954,20,20,20
	s20-8.954,20-20S111.046,260,100,260z M350,230c-11.046,0-20,8.954-20,20c0,11.046,8.954,20,20,20s20-8.954,20-20
	S361.046,230,350,230z M220,300c0-11.046-8.954-20-20-20s-20,8.954-20,20s8.954,20,20,20S220,311.046,220,300z M220,440
	c-11.046,0-20,8.954-20,20s8.954,20,20,20s20-8.954,20-20S231.046,440,220,440z"/>
<path style="fill:#235967;" d="M47.732,404.871c0.079,0.11,0.161,0.218,0.24,0.328c-0.002,0.002-0.003,0.005-0.005,0.007
	C47.888,405.095,47.812,404.981,47.732,404.871z M457.85,98.539c3.566-16.881,1.323-29.457-6.805-37.584
	c-7.754-7.753-19.557-10.15-35.286-7.257c-0.756,0.139-4.048,0.813-4.93,1.025c-18.263,4.393-41.335,15.281-69.064,32.597
	c6.226,3.863,12.28,7.977,18.135,12.344c35.092-21.013,56.374-27.191,67.702-27.191c2.801,0,4.98,0.385,6.624,1.008l0,0
	c0.222,0.084,1.234,0.555,1.265,0.572c0.562,0.315,1.032,0.666,1.411,1.045c0.513,0.513,0.977,1.193,1.366,2.046
	c0.109,0.253,0.215,0.516,0.317,0.798c0.001,0.001,0.002,0.002,0.003,0.003c3.253,9.039-0.723,33.991-32.272,83.944
	c-31.67,50.144-81.076,109.724-139.119,167.767c-55.229,55.229-111.844,102.626-160.403,134.377
	c5.883,4.227,11.953,8.206,18.195,11.931c48.015-32.367,102.9-78.714,156.351-132.166c59.06-59.06,109.449-119.87,141.886-171.229
	c18.5-29.292,29.919-53.457,34.266-72.383c0.002,0.003,0.005,0.007,0.008,0.01c0.039-0.169,0.29-1.263,0.369-1.635
	C457.862,98.554,457.856,98.546,457.85,98.539z"/>
<path style="fill:#FFF5F5;" d="M400.824,410.246l-29.168,29.168c-0.781,0.781-2.047,0.781-2.828,0l-46.877-46.877l-23.126,23.127
	c-1.064,1.063-2.876,0.617-3.324-0.819l-35.406-113.656c-0.479-1.539,0.965-2.984,2.504-2.504l113.656,35.406
	c1.436,0.447,1.883,2.26,0.819,3.324l-23.126,23.126l46.877,46.877C401.605,408.199,401.605,409.465,400.824,410.246z"/>
<g>
</g>
<g>
</g>
<g>
</g>
<g>
</g>
<g>
</g>
<g>
</g>
<g>
</g>
<g>
</g>
<g>
</g>
<g>
</g>
<g>
</g>
<g>
</g>
<g>
</g>
<g>
</g>
<g>
</g>
</svg>
