<svg id="Capa_1" enable-background="new 0 0 512 512" height="512" viewBox="0 0 512 512" width="512" xmlns="http://www.w3.org/2000/svg"><g><g><path d="m512 256c0 43.79-11 85.02-30.39 121.07l-225.61 49.67-225.61-49.67c-19.39-36.05-30.39-77.28-30.39-121.07 0-46.63 12.47-90.34 34.26-128 41.698 72.091 399.22 76.52 443.48 0 21.79 37.66 34.26 81.37 34.26 128z" fill="#c02e71"/><path d="m477.74 128c-44.26 76.52-126.99 128-221.74 128s-177.48-51.48-221.74-128c.01-.02.03-.05.04-.07 44.27-76.48 126.98-127.93 221.7-127.93s177.43 51.45 221.7 127.93c.01.02.03.05.04.07z" fill="#d95f91"/><path d="m481.61 377.07c-43.19 80.32-128.02 134.93-225.61 134.93s-182.42-54.61-225.61-134.93z" fill="#815"/></g><g><g><path d="m284.893 200.347h19.031v111.306h-19.031z" fill="#c8cde4" transform="matrix(.707 -.707 .707 .707 -94.789 283.159)"/><path d="m208.075 200.347h19.031v111.306h-19.031z" fill="#daddee" transform="matrix(-.707 -.707 .707 -.707 190.43 590.879)"/></g><path d="m242.756 89.273h26.486v124.93h-26.486z" fill="#daddee"/><path d="m256.699 89.273h12.543v124.93h-12.543z" fill="#c8cde4"/><path d="m139.66 334.771h234.079v21.885h-234.079z" fill="#daddee"/><path d="m256.699 334.771h117.039v21.885h-117.039z" fill="#c8cde4"/><path d="m288.446 59.786v54.313h-64.894v-54.313c0-17.925 14.523-32.447 32.447-32.447.282 0 .551 0 .821.023 17.55.422 31.626 14.781 31.626 32.424z" fill="#a9eb58"/><path d="m78.414 402.106 9.61 32.555 23.329-23.329 1.6-43.765z" fill="#616578"/><path d="m238.329 284.349-126.98 126.98c-28.98-28.98-28.98-75.98 0-104.96l74.51-74.51c6.45 25.75 26.72 46.03 52.47 52.49z" fill="#e8ebf7"/><path d="m433.586 402.106-9.61 32.555-23.329-23.329-1.6-43.765z" fill="#fff"/><path d="m400.649 411.329-126.98-126.98c25.75-6.46 46.02-26.73 52.47-52.49l74.51 74.51c28.98 28.98 28.98 75.98 0 104.96z" fill="#daddee"/><path d="m256.699 128.759c-.23-.01-.47-.01-.7-.01-47.19 0-85.45 38.26-85.45 85.45 0 47.2 38.26 85.46 85.45 85.46.23 0 .47 0 .7-.01 46.88-.37 84.75-38.48 84.75-85.45 0-46.96-37.87-85.07-84.75-85.44zm0 139.08c-.23.01-.47.01-.7.01-29.63 0-53.64-24.02-53.64-53.65 0-29.62 24.01-53.64 53.64-53.64.23 0 .47 0 .7.01 29.31.37 52.94 24.24 52.94 53.63 0 29.4-23.63 53.27-52.94 53.64z" fill="#616578"/><path d="m269.939 327.559v36.31c0 7.32-5.93 13.25-13.24 13.25s-13.24-5.93-13.24-13.25v-36.31c0-7.32 5.93-13.25 13.24-13.25 3.66 0 6.96 1.48 9.36 3.88s3.88 5.71 3.88 9.37z" fill="#616578"/><path d="m266.059 318.189c2.4 2.4 3.88 5.71 3.88 9.37v36.31c0 7.32-5.93 13.25-13.24 13.25v-62.81c3.66 0 6.96 1.48 9.36 3.88z" fill="#464652"/><path d="m341.449 214.199c0 46.97-37.87 85.08-84.75 85.45v-31.81c29.31-.37 52.94-24.24 52.94-53.64 0-29.39-23.63-53.26-52.94-53.63v-31.81c46.88.37 84.75 38.48 84.75 85.44z" fill="#464652"/><path d="m288.446 59.786v54.313h-31.626v-86.737c17.55.422 31.626 14.781 31.626 32.424z" fill="#79ce8b"/><g><circle cx="388.581" cy="352.85" fill="#c8cde4" r="13.956"/><circle cx="123.418" cy="352.85" fill="#daddee" r="13.956"/></g><path d="m288.45 214.2c0 17.92-14.53 32.45-32.45 32.45s-32.45-14.53-32.45-32.45 14.53-32.44 32.45-32.44 32.45 14.52 32.45 32.44z" fill="#e8ebf7"/><path d="m288.45 214.2c0 17.92-14.53 32.45-32.45 32.45v-64.89c17.92 0 32.45 14.52 32.45 32.44z" fill="#daddee"/><ellipse cx="256" cy="214.2" fill="#daddee" rx="14.61" ry="14.61" transform="matrix(.071 -.998 .998 .071 24.191 454.372)"/><path d="m270.61 214.2c0 8.07-6.54 14.61-14.61 14.61v-29.22c8.07 0 14.61 6.54 14.61 14.61z" fill="#c8cde4"/></g></g></svg>