<svg id="Icons" enable-background="new 0 0 512 512" height="512" viewBox="0 0 512 512" width="512" xmlns="http://www.w3.org/2000/svg"><g><circle cx="256" cy="256" fill="#78c795" r="256"/><circle cx="256" cy="256" fill="#9acdae" r="167.461"/><g id="Ruler"><g><path d="m220.418 26.22h65.76c5.744 0 10.4 4.656 10.4 10.4v440.433c0 5.744-4.656 10.4-10.4 10.4h-65.76c-5.744 0-10.4-4.656-10.4-10.4v-440.433c0-5.744 4.656-10.4 10.4-10.4z" fill="#e9465e"/><path d="m231.672 26.22h-11.255c-5.744 0-10.4 4.656-10.4 10.4v440.433c0 5.744 4.656 10.4 10.4 10.4h11.255z" fill="#ee6781"/></g><g fill="#f0a6b3"><path d="m210.018 52.481h33.366c2.168 0 3.926-1.758 3.926-3.926 0-2.168-1.758-3.926-3.926-3.926h-33.366z"/><path d="m210.018 156.622h33.366c2.168 0 3.926-1.758 3.926-3.926 0-2.168-1.758-3.926-3.926-3.926h-33.366z"/><path d="m210.018 73.309h20.389c2.168 0 3.926-1.758 3.926-3.926 0-2.168-1.758-3.926-3.926-3.926h-20.389z"/><path d="m210.018 94.137h20.389c2.168 0 3.926-1.758 3.926-3.926 0-2.168-1.758-3.926-3.926-3.926h-20.389z"/><path d="m210.018 114.965h20.389c2.168 0 3.926-1.758 3.926-3.926 0-2.168-1.758-3.926-3.926-3.926h-20.389z"/><path d="m210.018 135.793h20.389c2.168 0 3.926-1.758 3.926-3.926 0-2.168-1.758-3.926-3.926-3.926h-20.389z"/><path d="m210.018 260.762h33.366c2.168 0 3.926-1.758 3.926-3.926 0-2.168-1.758-3.926-3.926-3.926h-33.366z"/><path d="m210.018 177.45h20.389c2.168 0 3.926-1.758 3.926-3.926 0-2.168-1.758-3.926-3.926-3.926h-20.389z"/><path d="m210.018 198.278h20.389c2.168 0 3.926-1.758 3.926-3.926 0-2.168-1.758-3.926-3.926-3.926h-20.389z"/><path d="m210.018 219.106h20.389c2.168 0 3.926-1.758 3.926-3.926 0-2.168-1.758-3.926-3.926-3.926h-20.389z"/><path d="m210.018 239.934h20.389c2.168 0 3.926-1.758 3.926-3.926 0-2.168-1.758-3.926-3.926-3.926h-20.389z"/><path d="m210.018 364.902h33.366c2.168 0 3.926-1.758 3.926-3.926 0-2.168-1.758-3.926-3.926-3.926h-33.366z"/><path d="m210.018 281.59h20.389c2.168 0 3.926-1.758 3.926-3.926 0-2.168-1.758-3.926-3.926-3.926h-20.389z"/><path d="m210.018 302.418h20.389c2.168 0 3.926-1.758 3.926-3.926 0-2.168-1.758-3.926-3.926-3.926h-20.389z"/><path d="m210.018 323.246h20.389c2.168 0 3.926-1.758 3.926-3.926 0-2.168-1.758-3.926-3.926-3.926h-20.389z"/><path d="m210.018 344.074h20.389c2.168 0 3.926-1.758 3.926-3.926 0-2.168-1.758-3.926-3.926-3.926h-20.389z"/><path d="m210.018 469.043h33.366c2.168 0 3.926-1.758 3.926-3.926 0-2.168-1.758-3.926-3.926-3.926h-33.366z"/><path d="m210.018 385.73h20.389c2.168 0 3.926-1.758 3.926-3.926 0-2.168-1.758-3.926-3.926-3.926h-20.389z"/><path d="m210.018 406.558h20.389c2.168 0 3.926-1.758 3.926-3.926 0-2.168-1.758-3.926-3.926-3.926h-20.389z"/><path d="m210.018 427.386h20.389c2.168 0 3.926-1.758 3.926-3.926 0-2.168-1.758-3.926-3.926-3.926h-20.389z"/><path d="m210.018 448.215h20.389c2.168 0 3.926-1.758 3.926-3.926 0-2.168-1.758-3.926-3.926-3.926h-20.389z"/></g></g><g id="Pencil_12_"><g><path d="m216.476 158.149h59.414v226.492h-59.414z" fill="#f39e22" transform="matrix(.786 -.619 .619 .786 -115.142 210.522)"/><path d="m177.039 203.696 118.761 150.779c2.955 3.751 4.101 8.33 3.579 12.729-.523 4.4-2.71 8.582-6.461 11.537l-140.145-177.927c7.492-5.901 18.356-4.621 24.266 2.882z" fill="#c68132"/><path d="m199.447 164.05 140.145 177.927c-7.503 5.909-18.376 4.618-24.277-2.874l-118.761-150.779c-5.909-7.502-4.609-18.364 2.893-24.274z" fill="#f9c744"/></g><g><path d="m360.45 343.064c4.697 5.963 3.679 14.618-2.284 19.315l-49.764 39.197c-2.982 2.348-6.638 3.261-10.126 2.846-1.764-.21-3.497-.759-5.064-1.633-1.558-.863-2.961-2.042-4.123-3.517-4.705-5.974-3.679-14.618 2.285-19.315l49.764-39.197c2.982-2.348 6.638-3.26 10.126-2.846 3.5.406 6.838 2.169 9.186 5.15z" fill="#ebd9ea"/><path d="m360.45 343.064-31.42 24.748c-2.982 2.348-6.629 3.271-10.137 2.855-3.489-.414-6.829-2.158-9.186-5.15l31.431-24.757c2.982-2.348 6.638-3.26 10.126-2.846 3.5.406 6.838 2.169 9.186 5.15z" fill="#fff"/><path d="m355.781 364.258-47.379 37.319c-2.982 2.348-6.638 3.261-10.126 2.846-1.764-.21-3.497-.759-5.064-1.633l47.379-37.319c2.982-2.348 6.638-3.261 10.126-2.846 1.764.209 3.477.756 5.064 1.633z" fill="#c1b7d3"/></g><g><path d="m356.615 363.6 12.596 15.992c5.585 7.091 7.426 15.918 5.803 24.118-.126.732-.289 1.44-.49 2.143-1.635 5.909-5.085 11.366-10.267 15.448-5.443 4.287-11.92 6.367-18.348 6.371-1.002-.001-2.019-.043-3.027-.163-.157.001-.332-.02-.506-.04-7.55-.887-14.758-4.662-19.839-11.113l-12.596-15.992z" fill="#ee6781"/><path d="m356.615 363.6 12.596 15.992c5.585 7.091 7.426 15.918 5.803 24.118-.743-.029-1.493-.089-2.249-.179-7.539-.896-14.747-4.67-19.828-11.121l-12.596-15.992z" fill="#f0a6b3"/><path d="m324.198 389.134 12.596 15.992c5.192 6.592 7.159 14.688 6.088 22.383-.157.001-.332-.02-.506-.04-7.55-.887-14.758-4.662-19.839-11.113l-12.596-15.992z" fill="#d65171"/></g><path d="m199.442 164.054-46.675 36.764-18.836-64.063 7.654-6.029 46.893 27.014z" fill="#f5b890"/><path d="m188.478 157.74-23.625 18.608c-4.012 3.16-9.938 1.257-11.381-3.632l-12.266-41.691.38-.299z" fill="#fbd9a3"/><g><path d="m126.197 108.87 18.13 23.017c2.152 2.732 1.672 6.695-1.061 8.847-1.366 1.076-3.038 1.497-4.638 1.316-1.609-.191-3.135-.991-4.211-2.358l-18.13-23.017c-1.947-2.472-1.742-5.936.312-8.169.226-.248.469-.475.74-.688 2.733-2.153 6.698-1.691 8.858 1.052z" fill="#2e3140"/><path d="m126.197 108.87 11.093 14.084c-.226.248-.469.475-.74.688-1.366 1.076-3.048 1.505-4.646 1.305-1.609-.191-3.135-.991-4.211-2.358l-11.093-14.084c.226-.248.469-.475.74-.688 2.732-2.152 6.697-1.69 8.857 1.053z" fill="#334353"/></g></g><g id="Pen"><g><path d="m323.287 208.994-163.265 190.983c-1.544 1.806-3.38 3.219-5.404 4.22-6.02 3.028-13.542 2.348-18.992-2.311-7.256-6.203-8.101-17.131-1.899-24.387l163.265-190.983z" fill="#334353"/><path d="m323.287 208.994-163.265 190.983c-1.544 1.806-3.38 3.219-5.404 4.22-.912-.51-1.783-1.129-2.614-1.839-7.256-6.203-8.12-17.129-1.909-24.396l156.583-183.166z" fill="#3e4e60"/><path d="m224.408 307.846c-4.586-3.921-5.126-10.817-1.205-15.404l48.423-56.643c3.921-4.586 10.817-5.126 15.404-1.205 4.586 3.921 5.126 10.817 1.205 15.404l-48.423 56.643c-3.921 4.586-10.818 5.126-15.404 1.205z" fill="#3f5d77"/></g><g><path d="m393.575 143.439-62.118 72.664c-.213.249-.427.479-.651.719-6.658 7.011-17.718 7.653-25.161 1.291l-14.927-12.761c-7.682-6.567-8.585-18.12-2.019-25.801l62.118-72.664c6.531-7.64 17.985-8.575 25.666-2.134l15.062 12.876c7.693 6.576 8.597 18.129 2.03 25.81z" fill="#2e3140"/><path d="m393.575 143.439-62.118 72.664c-.213.249-.427.479-.651.719-3.778-1.002-7.391-2.851-10.557-5.557l-1.899-1.624c-11.284-9.646-12.611-26.609-2.965-37.893l50.981-59.637c2.849-3.332 6.328-5.784 10.118-7.359l15.062 12.876c7.692 6.577 8.596 18.13 2.029 25.811z" fill="#334353"/><path d="m333.02 192.633c-5.904-5.047-6.598-13.924-1.551-19.827l28.559-33.407c5.047-5.904 13.924-6.598 19.827-1.551 5.904 5.047 6.598 13.924 1.551 19.827l-28.559 33.407c-5.047 5.903-13.924 6.598-19.827 1.551z" fill="#3e4e60"/></g><g><path d="m392.685 182.038-18.55-15.858 14.314-16.744 18.55 15.858c4.624 3.953 5.168 10.905 1.215 15.529-3.953 4.624-10.906 5.168-15.529 1.215z" fill="#2e3140"/><g><g><path d="m355.095 286.85c-2.849 3.333-7.867 3.726-11.2.876-16.811-14.371-9.575-32.934-2.659-45.646 2.453-4.508 5.509-9.379 9.206-14.705 10.134-14.643 25.049-32.724 45.212-56.31 2.849-3.333 7.867-3.726 11.201-.876 3.333 2.849 3.726 7.867.876 11.2-9.808 11.473-18.336 21.595-25.61 30.593-12.62 15.57-21.517 27.738-26.926 37.684-9.181 16.9-5.517 22.102-.976 25.984 3.333 2.849 3.725 7.866.876 11.2z" fill="#2e3140"/></g><path d="m355.095 286.85c-2.849 3.333-7.867 3.726-11.2.876-9.311-7.96-11.252-17.207-9.937-26.032 1.044-7.113 4.183-13.94 7.278-19.614 2.453-4.508 5.509-9.379 9.206-14.705 9.446-7.602 20.312-12.757 31.678-15.393-12.62 15.57-21.517 27.738-26.926 37.684-.689 1.271-1.305 2.48-1.858 3.616-6.766 14.052-3.32 18.775.883 22.368 3.333 2.849 3.725 7.866.876 11.2z" fill="#334353"/><path d="m355.095 286.85c-2.849 3.333-7.867 3.726-11.2.876-9.311-7.96-11.252-17.207-9.937-26.032 6.127-3.646 12.656-6.467 19.378-8.413-6.766 14.052-3.32 18.775.883 22.368 3.333 2.85 3.725 7.867.876 11.201z" fill="#3e4e60"/></g></g></g></g></svg>