<svg id="Layer_1" enable-background="new 0 0 511.424 511.424" height="512" viewBox="0 0 511.424 511.424" width="512" xmlns="http://www.w3.org/2000/svg"><g><g><path d="m494.635 246.418c0 38.993-9.057 75.87-25.181 108.643-40.154 81.613-117.555 119.446-214.656 119.446-136.093 0-234.973-92.435-234.973-228.528 0-97.97 39.146-182.147 121.947-221.865 32.221-15.457 68.321-24.114 106.444-24.114 136.094 0 246.419 110.325 246.419 246.418z" fill="#f8e000"/></g><path d="m449.318 388.856c-.006.002-.011.004-.017.006 7.572-10.672 14.318-21.971 20.142-33.806 13.031-26.481 5.366-58.411-18.286-76.065-25.987-19.396-54.445-35.213-84.439-44.001-31.03-9.091-52.257-37.375-52.061-69.709.001-.248.002-.496.002-.744 0-29.539-10.651-56.587-28.313-77.528-.229-.239-4.521-5.578-11.327-11.734-.001-.001-.002-.001-.002-.002-21.343-19.304-49.64-31.063-80.685-31.063-11.163 0-21.969 1.522-32.225 4.369-7.195 1.997-13.188-5.764-9.55-12.285.079-.141.157-.282.236-.423 4.031-7.192-3.579-15.309-11.013-11.743-82.173 39.415-139.11 123.036-139.972 220.057-1.2 135.194 107.74 246.752 242.926 248.627 13.949.193 27.634-.778 40.969-2.813.004.001.008.001.011.002 65.958-10.126 124.953-46.656 163.604-101.145z" fill="#ffc305"/><g><g><path d="m299.43 183.125c0 24.92-7.576 48.072-20.55 67.276-21.624 32.007-59.963 39.31-101.497 39.31-66.455 0-108.1-43.683-108.1-110.138 0-41.534 10.538-74.601 42.545-96.225 19.204-12.974 42.355-20.55 67.276-20.55 31.045 0 59.343 11.757 80.687 31.061 1.345 1.216 4.241 10.499 4.241 10.499s6.313.309 7.093 1.234c17.661 20.941 28.305 47.994 28.305 77.533z" fill="#fff"/><path d="m273.559 257.651c.003.002.007.004.01.006.047-.059.094-.119.14-.178 5.095-6.476 4.05-15.773-2.192-21.152-17.982-15.496-29.392-38.412-29.392-63.958 0-22.238 8.647-42.484 22.746-57.579 4.264-4.566 4.294-11.69-.091-16.141-.029-.029-.057-.058-.086-.087-.006-.006-.012-.012-.018-.018-.952-.964-1.924-1.916-2.917-2.855-21.78 18.445-35.635 45.971-35.635 76.68 0 35.675 18.697 67.054 46.799 84.887-10.336 2.893-21.227 4.46-32.487 4.46-21.958 0-42.54-5.883-60.259-16.158-19.972-11.582-31.129-34.227-27.41-57.013 4.565-27.971-2.757-57.591-22.244-80.735-2.598-3.086-3.313-7.342-1.873-11.11.047-.122.094-.245.141-.367 3.887-10.099-7.539-19.292-16.532-13.273-4.708 3.151-9.181 6.626-13.388 10.392-2.103 1.883-2.313 9.004-2.313 9.004s-7.655.979-9.476 3.138c-17.662 20.94-28.307 47.993-28.307 77.532 0 25.897 8.181 49.884 22.1 69.516 1.577 2.225 7.753 5.408 7.753 5.408s.709 5.254 2.567 7.241c21.959 23.484 53.219 38.162 87.906 38.162 36.468-.001 71.311-16.504 94.458-45.802z" fill="#faf58c"/><g fill="#ff8500"><path d="m87.089 105.597c23.984 14.92 39.991 41.506 39.991 71.771 0 32.807-18.811 61.285-46.202 75.271 3.155 4.449 6.609 8.671 10.324 12.644 30.909-17.155 51.878-50.13 51.878-87.915 0-34.766-17.751-65.461-44.662-83.507-4.036 3.651-7.819 7.575-11.329 11.736z"/><path d="m277.328 252.64c-27.391-13.986-46.202-42.464-46.202-75.271 0-30.265 16.008-56.851 39.991-71.772-3.51-4.162-7.293-8.085-11.329-11.736-26.912 18.046-44.662 48.742-44.662 83.507 0 37.785 20.969 70.761 51.878 87.915 3.715-3.972 7.169-8.194 10.324-12.643z"/></g></g><path d="m429.239 292.732c-35.889-25.497-80.17-46.754-128.088-46.754-41.466 0-80.212 15.917-113.151 36.726v181.244h203.927c12.829 0 25.45-2.257 37.312-6.567z" fill="#ff8500"/><path d="m502.547 359.811c-9.803-11.245-23.96-26.306-41.505-41.782v121.231c1.288-1.059 2.554-2.15 3.796-3.272 8.887-8.028 16.832-15.875 23.7-23.06 5.342-5.589 10.033-10.776 14.009-15.336 9.438-10.827 9.438-26.955 0-37.781z" fill="#ff8500"/><g fill="#fa690f"><path d="m141.874 317.497c-17.829 15.663-32.203 30.94-42.119 42.314-9.438 10.826-9.438 26.954 0 37.78 9.918 11.376 24.289 26.659 42.119 42.326z"/><path d="m429.239 445.619c-21.519 8.481-44.533 13.788-68.458 13.788-33.781 0-65.755-10.567-94.256-25.734-5.627-2.994-9.107-8.886-9.076-15.259v-.098-71.023c0-5.326-4.019-9.977-9.335-10.321-5.824-.377-10.665 4.236-10.665 9.978v69.026c-9.195-6.302-17.872-12.917-25.957-19.577-13.408-11.045-21.11-27.552-21.11-44.922v-70.258c-5.079 3.145-10.006 6.419-14.802 9.766v175.45c35.434 24.704 78.765 44.989 125.57 44.989 45.478 0 89.394-19.263 128.088-46.731v-19.074z"/><path d="m488.514 412.904c-6.113 4.331-14.572-.098-14.572-7.59v-75.436c-4.061-3.882-8.37-7.85-12.899-11.845v121.36c9.7-8.561 18.931-17.5 27.615-26.591-.049.035-.097.068-.144.102z"/><path d="m314.151 428.316c5.523 0 10-4.478 10-10v-71.365c0-5.522-4.477-10-10-10s-10 4.478-10 10v71.365c0 5.522 4.477 10 10 10z"/><path d="m280.8 428.316c5.523 0 10-4.478 10-10v-71.365c0-5.522-4.477-10-10-10s-10 4.478-10 10v71.365c0 5.522 4.477 10 10 10z"/><path d="m380.852 428.316c5.523 0 10-4.478 10-10v-71.365c0-5.522-4.477-10-10-10s-10 4.478-10 10v71.365c0 5.522 4.477 10 10 10z"/><path d="m347.501 428.316c5.523 0 10-4.478 10-10v-71.365c0-5.522-4.477-10-10-10s-10 4.478-10 10v71.365c0 5.522 4.477 10 10 10z"/></g><g fill="#fff"><path d="m424.919 467.691c13.144-9.038 25.224-18.709 36.023-28.229v-121.522c-10.799-9.52-22.879-19.191-36.023-28.229z"/><path d="m141.36 439.463c10.799 9.52 22.879 19.191 36.023 28.229v-177.981c-13.144 9.038-25.224 18.709-36.023 28.229z"/></g><g><g><path d="m301.151 421.316c-5.523 0-10-4.478-10-10v-71.365c0-5.522 4.477-10 10-10s10 4.478 10 10v71.365c0 5.522-4.478 10-10 10z" fill="#fff"/></g><g><path d="m267.8 421.316c-5.523 0-10-4.478-10-10v-71.365c0-5.522 4.477-10 10-10s10 4.478 10 10v71.365c0 5.522-4.477 10-10 10z" fill="#fff"/></g><g><path d="m234.449 421.316c-5.523 0-10-4.478-10-10v-71.365c0-5.522 4.477-10 10-10s10 4.478 10 10v71.365c0 5.522-4.477 10-10 10z" fill="#fff"/></g><g><path d="m367.852 421.316c-5.523 0-10-4.478-10-10v-71.365c0-5.522 4.477-10 10-10s10 4.478 10 10v71.365c0 5.522-4.477 10-10 10z" fill="#fff"/></g><g><path d="m334.501 421.316c-5.523 0-10-4.478-10-10v-71.365c0-5.522 4.477-10 10-10s10 4.478 10 10v71.365c0 5.522-4.477 10-10 10z" fill="#fff"/></g></g></g></g></svg>