<svg id="Capa_1" enable-background="new 0 0 512 512" height="512" viewBox="0 0 512 512" width="512" xmlns="http://www.w3.org/2000/svg"><g><g><path d="m256 310.585c-141.387 0-244.873-140.042-225.275-176.241 43.298-79.975 127.942-134.292 225.275-134.292 97.204 0 181.752 54.173 225.103 133.974 19.704 36.274-83.716 176.559-225.103 176.559z" fill="#ffeb78"/><path d="m512 256.052c0 26.051-3.891 51.191-11.129 74.871-5.031 16.469-11.672 32.231-19.75 47.109-8.25 15.2-147.391 47.728-225.121 47.728s-216.871-32.528-225.109-47.728c-3.289-6.031-6.332-12.21-9.121-18.531-14-31.629-21.77-66.629-21.77-103.449 0-46.219 12.25-89.57 33.68-127 44.121 77.07 127.16 129 222.32 129s178.211-51.93 222.32-129c21.43 37.43 33.68 80.781 33.68 127zm0 0" fill="#f2d332"/><path d="m481.262 377.751c-7.16 13.223-15.434 25.742-24.723 37.43-8.437 10.633-17.719 20.57-27.719 29.723-11.385 10.425-23.715 19.834-36.848 28.084-39.398 24.749-230.415 25.396-269.234 1.679-14.149-8.645-27.394-18.624-39.558-29.763-10-9.153-19.282-19.09-27.719-29.723-9.289-11.688-17.563-24.207-24.723-37.43zm0 0" fill="#e79d25"/></g><g><path d="m284.561 106.375-48.962 97.925 106.086-48.963v-48.962z" fill="#8db3cf"/><path d="m284.561 204.3v-97.925h-28.561l-48.963 97.925z" fill="#a6cfe7"/><path d="m256 204.3v-97.925h-28.561l-48.963 97.925z" fill="#bfebff"/><path d="m227.439 106.375h-57.123v48.962l57.123 48.963z" fill="#dff5ff"/><path d="m256 155.337-85.684 73.444h171.369v-73.444z" fill="#9f165b"/><path d="m170.316 155.337h85.685v73.444h-85.685z" fill="#e04496"/><path d="m214.51 155.337h41.49v73.444h-41.49z" fill="#cb2e81"/><path d="m341.685 192.059h-85.685l-85.684 159.944 85.684 159.945h7.144c46.705-1.28 90.277-15.076 127.503-38.144v-232.782c0-26.998-21.965-48.963-48.962-48.963z" fill="#cb2e81"/><path d="m248.856 511.948h7.144l-19.148-319.889h-66.537c-26.998 0-48.963 21.965-48.963 48.963v232.782c37.227 23.068 80.799 36.864 127.504 38.144z" fill="#ff69a8"/><path d="m248.856 511.948h7.144v-319.889h-36.722c-26.998 0-48.963 21.965-48.963 48.963v256.32c24.662 8.758 51.057 13.853 78.541 14.606z" fill="#dc4180"/><path d="m341.685 265.503h-85.685l-48.963 86.501 48.963 86.5h85.685z" fill="#dff5ff"/><path d="m170.316 265.503h85.685v173.001h-85.685z" fill="#fff"/></g></g></svg>