<svg id="Layer_1" enable-background="new 0 0 512 512" height="512" viewBox="0 0 512 512" width="512" xmlns="http://www.w3.org/2000/svg"><g><path d="m245.002 21.995c-78.836 0-148.964 37.244-193.779 95.087l47.067 346.15c40.898 30.626 91.686 48.768 146.712 48.768 135.311 0 245.002-109.691 245.002-245.002s-109.691-245.003-245.002-245.003z" fill="#1c2e7a"/><path d="m385.238 230.783c-2.495 2.017-5.059 3.928-7.68 5.741v187.053c0 5.049-4.109 9.158-9.158 9.158h-303.819c10.575 11.506 22.235 21.997 34.82 31.312h40.747c5.607 0 10.786 3.068 13.404 8.026 4.434 8.397 13.251 14.12 23.408 14.12s18.974-5.724 23.408-14.12c2.618-4.958 7.798-8.026 13.404-8.026h160.49c18.401 0 33.457-15.056 33.457-33.458v-179.279l-21.402-21.401z" fill="#ffb332"/><path d="m99.401 464.047h40.747c5.607 0 10.786 3.069 13.405 8.026 4.434 8.397 13.251 14.12 23.408 14.12 10.156 0 18.974-5.724 23.408-14.12-33.63-5.114-23.408-38.425-23.408-38.425l-13.371-.913h-99.009c10.575 11.506 22.234 21.997 34.82 31.312z" fill="#ff9100"/><g><path d="m368.35 402.231c-61.434-25.436-130.974-23.837-191.389 4.797v26.62h191.439c5.943 0 10.762-4.818 10.762-10.761v-27.926c0 5.576-5.66 9.403-10.812 7.27z" fill="#d3dcfb"/></g><path d="m32.138 388.373c9.355 16.371 20.55 31.55 33.293 45.274h111.53v-26.62c-45.55-21.588-96.285-27.8-144.823-18.654z" fill="#bec8f7"/><path d="m88.823 387.124-1.915-2.574c-18.307-.856-36.691.417-54.771 3.824 9.355 16.371 20.55 31.55 33.293 45.274h45.735c-37-14.373-22.342-46.524-22.342-46.524z" fill="#a8b7ef"/><g><path d="m176.96 150.464v259.039c60.416-28.634 129.955-30.233 191.39-4.797 5.152 2.133 10.812-1.694 10.812-7.27v-162.043c-77.524 55.406-187.529 9.718-202.202-84.929z" fill="#e9efff"/></g><path d="m52.073 115.975c-32.621 41.615-52.073 94.046-52.073 151.023 0 45.087 12.192 87.32 33.439 123.608 48.143-8.792 98.379-2.497 143.521 18.898v-271.996c-39.346-18.648-82.561-25.818-124.887-21.533z" fill="#d3dcfb"/><g><path d="m70.427 346.736v-178.13c0-24.251 16.279-44.875 38.446-51.511-18.829-2.656-37.903-3.033-56.801-1.12-32.62 41.615-52.072 94.046-52.072 151.023 0 45.087 12.192 87.32 33.439 123.608 18.291-3.341 36.884-4.497 55.384-3.481-11.253-9.873-18.396-24.333-18.396-40.389z" fill="#bec8f7"/></g><g fill="#a8b7ef"><path d="m150.389 193.617c-45.145-14.5-92.669-15.568-138.156-3.226-1.895 5.763-3.582 11.62-5.053 17.563 45.328-14.304 93.188-14.189 138.488.36 4.052 1.302 8.403-.924 9.708-4.988 1.304-4.06-.929-8.406-4.987-9.709z"/><path d="m150.389 224.814c-47.957-15.4-98.599-15.648-146.632-.762-.905 5.117-1.637 10.292-2.219 15.513 1.428.416 2.99.425 4.513-.063 45.662-14.664 93.941-14.66 139.619.008 4.052 1.302 8.403-.924 9.708-4.988 1.302-4.059-.931-8.405-4.989-9.708z"/><path d="m150.389 256.012c-48.765-15.663-100.309-15.666-149.059-.009-.382.123-.742.28-1.089.454-.149 3.496-.241 7.008-.241 10.541 0 1.052.026 2.098.04 3.147 1.782.957 3.933 1.221 6.01.554 45.662-14.664 93.942-14.661 139.619.009 4.051 1.302 8.403-.923 9.708-4.988 1.303-4.058-.93-8.405-4.988-9.708z"/></g><g><path d="m198.544 265.721c-1.304-4.058.929-8.404 4.988-9.709 6.01-1.931 12.177-3.649 18.329-5.107 4.149-.982 8.307 1.583 9.29 5.73s-1.583 8.307-5.73 9.29c-5.762 1.366-11.539 2.975-17.168 4.783-4.041 1.299-8.4-.912-9.709-4.987z" fill="#bec8f7"/></g><path d="m150.389 287.209c-48.765-15.661-100.308-15.665-149.059-.008-.164.053-.321.118-.479.181.41 4.974.971 9.905 1.673 14.79 1.146.176 2.347.104 3.526-.275 45.662-14.664 93.941-14.66 139.619.008 4.052 1.302 8.403-.924 9.708-4.988 1.303-4.058-.93-8.404-4.988-9.708z" fill="#a8b7ef"/><g><path d="m198.544 296.917c-1.303-4.058.93-8.404 4.988-9.708 48.767-15.66 100.31-15.664 149.059-.008 4.058 1.303 6.291 5.65 4.988 9.708-1.303 4.059-5.651 6.294-9.708 4.988-45.661-14.664-93.941-14.662-139.619.008-4.044 1.301-8.401-.917-9.708-4.988z" fill="#bec8f7"/></g><path d="m150.389 318.407c-47.49-15.253-97.615-15.649-145.229-1.198 1.056 5.071 2.276 10.081 3.64 15.032 44.848-13.794 92.108-13.513 136.869.863 4.052 1.302 8.403-.924 9.708-4.988 1.303-4.059-.93-8.405-4.988-9.709z" fill="#a8b7ef"/><g><path d="m198.544 328.115c-1.303-4.058.93-8.404 4.988-9.708 48.766-15.662 100.309-15.665 149.059-.009 4.058 1.303 6.291 5.65 4.988 9.708-1.303 4.06-5.651 6.29-9.708 4.988-45.661-14.663-93.941-14.66-139.619.009-4.042 1.3-8.4-.914-9.708-4.988z" fill="#bec8f7"/></g><path d="m150.389 349.605c-44.866-14.408-92.082-15.552-137.313-3.452 1.675 4.91 3.51 9.746 5.483 14.509 41.906-10.908 85.583-9.697 127.11 3.638 4.052 1.302 8.403-.924 9.708-4.989 1.303-4.057-.93-8.403-4.988-9.706z" fill="#a8b7ef"/><g><path d="m198.544 359.312c-1.303-4.058.93-8.404 4.988-9.708 48.767-15.66 100.31-15.664 149.059-.008 4.058 1.303 6.291 5.65 4.988 9.708s-5.651 6.291-9.708 4.988c-45.661-14.664-93.941-14.661-139.619.008-4.044 1.301-8.401-.916-9.708-4.988z" fill="#bec8f7"/></g><g><circle cx="304.316" cy="130.443" fill="#9bd8f9" r="130.443"/></g><path d="m393.396 222.92c-7.748-1.927-10.195-8.053-10.969-11.768-.333-1.6-1.553-2.901-3.163-3.184-5.739-1.007-7.452-5.112-7.943-7.931-.291-1.674-1.628-2.969-3.299-3.275-50.5-9.256-46.733-52.512-45.73-59.788.098-.711.005-1.428-.265-2.092l-4.583-11.29c-.505-1.245-1.59-2.173-2.903-2.458-31.789-6.924-28.024-34.268-27.011-39.442.116-.591.096-1.195-.052-1.779l-3.183-12.598c-.367-1.451-1.487-2.616-2.942-2.966-11.603-2.794-11.99-13.198-11.352-18.615.216-1.831-.85-3.536-2.544-4.263-5.077-2.179-5.394-6.489-4.829-9.603.354-1.951-.792-3.874-2.662-4.533-7.722-2.721-8.109-9.719-7.61-13.788.112-.911-.103-1.798-.553-2.545-14.415 6.334-27.921 15.397-39.725 27.201-50.941 50.942-50.941 133.533 0 184.475 50.514 50.514 132.144 50.928 183.18 1.262-.502-.474-1.13-.837-1.862-1.02z" fill="#73c3f9"/><g><circle cx="304.316" cy="130.443" fill="#4fabf7" r="102.243"/></g><path d="m371.322 200.038c-.291-1.674-1.628-2.969-3.299-3.275-50.5-9.256-46.733-52.512-45.73-59.788.098-.711.005-1.428-.265-2.092l-4.583-11.29c-.505-1.245-1.59-2.173-2.903-2.458-31.789-6.924-28.024-34.268-27.011-39.442.116-.591.096-1.195-.052-1.779l-3.183-12.598c-.367-1.451-1.487-2.616-2.942-2.966-11.603-2.794-11.99-13.198-11.352-18.615.216-1.831-.85-3.536-2.544-4.263-2.578-1.106-3.925-2.763-4.557-4.532-11.203 4.959-21.699 12.024-30.881 21.206-39.929 39.928-39.929 104.665 0 144.594 39.042 39.042 101.798 39.902 141.893 2.594-1.62-1.637-2.31-3.678-2.591-5.296z" fill="#1e9ef4"/><g><g><path d="m226.562 208.198c-42.972-42.974-42.98-112.53 0-155.51 42.873-42.873 112.635-42.873 155.508 0 42.874 42.873 42.874 112.635 0 155.51-42.873 42.873-112.633 42.874-155.508 0zm-16.771-77.755c0 84.008 102.217 125.988 161.365 66.839 36.855-36.856 36.855-96.823 0-133.678-59.054-59.052-161.365-17.332-161.365 66.839z" fill="#73c3f9"/></g></g><path d="m379.264 207.969c-5.739-1.007-7.452-5.112-7.943-7.931-.132-.756-.485-1.428-.978-1.973-59.265 57.971-160.553 16.006-160.553-67.621 0-42.484 26.068-74.142 59.479-87.497-.447-.631-1.063-1.151-1.813-1.473-5.077-2.179-5.394-6.489-4.829-9.603.19-1.047-.062-2.078-.616-2.918-12.898 5.356-24.978 13.264-35.451 23.736-42.979 42.979-42.972 112.535 0 155.51 42.603 42.603 111.748 42.863 154.687.801-.536-.523-1.212-.896-1.983-1.031z" fill="#4fabf7"/><path d="m418.231 244.358c3.767-3.767 8.605-5.791 13.534-6.113l-26.359-26.359c-5.425-5.425-14.221-5.425-19.647 0-5.425 5.425-5.425 14.221 0 19.647l26.359 26.359c.322-4.929 2.346-9.767 6.113-13.534z" fill="#e9efff"/><g><g><path d="m312.12 192.405c0-4.31-3.494-7.804-7.804-7.804s-7.804 3.494-7.804 7.804 3.494 7.804 7.804 7.804 7.804-3.494 7.804-7.804z" fill="#e9efff"/></g></g><g><g><g><path d="m304.316 174.502c-4.262 0-7.718-3.455-7.718-7.718v-34.309c0-4.263 3.455-7.718 7.718-7.718 6.945 0 13.407-2.778 18.197-7.823 4.786-5.042 7.223-11.652 6.862-18.616-.677-13.05-11.455-23.478-24.536-23.743-12.75-.236-23.62 9.02-25.373 21.579-.161 1.153-.243 2.335-.243 3.509 0 4.263-3.456 7.718-7.718 7.718-4.263 0-7.718-3.455-7.718-7.718 0-1.886.131-3.785.39-5.643 2.833-20.298 20.443-35.333 40.972-34.877 21.133.425 38.545 17.281 39.64 38.375.583 11.233-3.353 21.902-11.083 30.045-5.925 6.24-13.437 10.332-21.672 11.905v27.317c0 4.262-3.455 7.717-7.718 7.717z" fill="#e9efff"/></g></g></g><path d="m416.775 242.902c-8.238 8.238-8.238 21.595 0 29.833l59.212 59.212c8.238 8.238 21.595 8.238 29.834 0 8.238-8.238 8.238-21.595 0-29.834l-59.212-59.212c-8.238-8.237-21.595-8.237-29.834.001z" fill="#ff4155"/><path d="m451.775 277.976c6.705-6.705 16.517-8.403 24.801-5.106l-29.968-29.967c-8.238-8.238-21.595-8.238-29.834 0-8.238 8.238-8.238 21.595 0 29.833l29.815 29.815c-3.177-8.237-1.459-17.93 5.186-24.575z" fill="#e80054"/></g></svg>