<svg id="Capa_1" enable-background="new 0 0 512 512" height="512" viewBox="0 0 512 512" width="512" xmlns="http://www.w3.org/2000/svg"><circle cx="256" cy="256" fill="#d1f6ff" r="256"/><path d="m512 256c0 87.11-43.52 164.07-110 210.31-41.41 28.8-91.73 45.69-146 45.69s-104.59-16.89-146-45.69c-66.48-46.24-110-123.2-110-210.31 0-46.22 12.25-89.57 33.68-127 44.12 77.07 127.16 129 222.32 129s178.21-51.93 222.32-129c21.43 37.43 33.68 80.78 33.68 127z" fill="#a1f2ff"/><path d="m452 316c0 105.34-83.12 191.28-187.34 195.81-.31.02-.62.03-.93.04-.87.03-1.74.06-2.6.08-1.73.05-3.44.07-5.13.07-108.24 0-196-87.76-196-196s87.76-196 196-196h.28c108.11.15 195.72 87.85 195.72 196z" fill="#8fc9f7"/><path d="m452 316c0 105.34-83.12 191.28-187.34 195.81-.31.02-.62.03-.93.04-.87.03-1.74.06-2.6.08-1.73.05-3.44.07-5.13.07-58.54-45.3-103.35-116.25-103.35-196s44.81-150.7 103.35-196h.28c108.11.15 195.72 87.85 195.72 196z" fill="#65b2fe"/><path d="m452 316c0 108.244-87.756 196-196 196v-392c108.244 0 196 87.756 196 196z" fill="#0e9ce7"/><path d="m217.362 187.794c-16.242 20.451-46.793 29.91-73.515 21.32-.021-.007-.042-.013-.063-.02-2.001-.645-3.955 1.344-2.802 2.874 4.777 6.339 11.996 11.344 21.15 13.927 21.129 5.962 45.356-3.583 55.048-21.676 2.733-5.102 4.081-10.374 4.188-15.506.038-1.848-2.759-2.489-4.006-.919z" fill="#1076e4"/><path d="m294.638 187.794c16.242 20.451 46.793 29.91 73.515 21.32.021-.007.042-.013.063-.02 2-.645 3.955 1.344 2.802 2.874-4.777 6.339-11.996 11.344-21.15 13.927-21.13 5.962-45.356-3.583-55.048-21.676-2.733-5.102-4.081-10.374-4.188-15.506-.039-1.848 2.759-2.489 4.006-.919z" fill="#1076e4"/><path d="m343 304.8c0 5.18-2.1 9.86-5.49 13.26-3.4 3.39-8.09 5.49-13.26 5.49h-136.5c-10.35 0-18.75-8.4-18.75-18.75 0-5.18 2.1-9.87 5.49-13.26 3.4-3.39 8.09-5.49 13.26-5.49h136.5c10.35 0 18.75 8.39 18.75 18.75z" fill="#0e9ce7"/><path d="m343 304.8c0 5.18-2.1 9.86-5.49 13.26-3.4 3.39-8.09 5.49-13.26 5.49h-68.25v-37.5h68.25c10.35 0 18.75 8.39 18.75 18.75z" fill="#1076e4"/><circle cx="187.667" cy="266.264" fill="#fff" r="46.095"/><circle cx="187.667" cy="266.264" fill="#29334c" r="25.616"/><circle cx="324.333" cy="266.264" fill="#fff" r="46.095"/><circle cx="324.333" cy="266.264" fill="#29334c" r="25.616"/><path d="m379.59 394.38c0 14.62-5.93 27.86-15.52 37.45-5.36 5.36-11.86 9.57-19.11 12.25l-31.29-16.41h-120l-26.63 16.41c-20.21-7.46-34.63-26.9-34.63-49.7 0-14.63 5.93-27.87 15.52-37.46 4.97-4.97 10.94-8.97 17.57-11.65l21.95 21.95h138.22l20.83-21.95c19.4 7.86 33.09 26.88 33.09 49.11z" fill="#29334c"/><path d="m346.5 345.27-7.07 30.59c-2.99 12.96-14.53 22.14-27.83 22.14h-111.2c-13.3 0-24.84-9.18-27.83-22.14l-7.07-30.59c6.14-2.49 12.85-3.86 19.88-3.86h141.24c7.03 0 13.74 1.37 19.88 3.86z" fill="#fff"/><path d="m344.96 444.08c-5.72 2.11-11.89 3.26-18.34 3.26h-141.24c-6.45 0-12.62-1.15-18.34-3.26l5.53-23.94c2.99-12.96 14.53-22.14 27.83-22.14h111.2c13.3 0 24.84 9.18 27.83 22.14z" fill="#d1f6ff"/><path d="m344.96 444.08c-5.72 2.11-11.89 3.26-18.34 3.26h-70.62v-49.34h55.6c13.3 0 24.84 9.18 27.83 22.14z" fill="#8fc9f7"/><path d="m346.5 345.27-7.07 30.59c-2.99 12.96-14.53 22.14-27.83 22.14h-55.6v-56.59h70.62c7.03 0 13.74 1.37 19.88 3.86z" fill="#d1f6ff"/><g fill="#fff"><path d="m118.27 82.624h1.524c6.753 0 12.227-5.474 12.227-12.227v-1.524h8.716v1.524c0 6.753 5.474 12.227 12.227 12.227h1.525v8.716h-1.525c-6.753 0-12.227 5.474-12.227 12.227v1.525h-8.716v-1.525c0-6.753-5.474-12.227-12.227-12.227h-1.524z"/><path d="m76.272 280.614h1.524c6.753 0 12.227-5.474 12.227-12.227v-1.524h8.716v1.524c0 6.753 5.474 12.227 12.227 12.227h1.525v8.716h-1.525c-6.753 0-12.227 5.474-12.227 12.227v1.525h-8.716v-1.525c0-6.753-5.474-12.227-12.227-12.227h-1.524z"/><path d="m349.259 73.624h1.524c6.753 0 12.227-5.474 12.227-12.227v-1.524h8.716v1.524c0 6.753 5.474 12.227 12.227 12.227h1.525v8.716h-1.525c-6.753 0-12.227 5.474-12.227 12.227v1.525h-8.716v-1.525c0-6.753-5.474-12.227-12.227-12.227h-1.524z"/><path d="m451.254 226.617h1.524c6.753 0 12.227-5.474 12.227-12.227v-1.524h8.716v1.524c0 6.753 5.474 12.227 12.227 12.227h1.525v8.716h-1.525c-6.753 0-12.227 5.474-12.227 12.227v1.525h-8.716v-1.525c0-6.753-5.474-12.227-12.227-12.227h-1.524z"/><path d="m421.255 343.611h1.524c6.753 0 12.227-5.474 12.227-12.227v-1.524h8.716v1.524c0 6.753 5.474 12.227 12.227 12.227h1.525v8.716h-1.525c-6.753 0-12.227 5.474-12.227 12.227v1.525h-8.716v-1.525c0-6.753-5.474-12.227-12.227-12.227h-1.524z"/><path d="m23.775 198.118h1.524c6.753 0 12.227-5.474 12.227-12.227v-1.524h8.716v1.524c0 6.753 5.474 12.227 12.227 12.227h1.525v8.716h-1.525c-6.753 0-12.227 5.474-12.227 12.227v1.525h-8.716v-1.525c0-6.753-5.474-12.227-12.227-12.227h-1.524z"/></g></svg>