<svg id="Capa_1" enable-background="new 0 0 512 512" height="512" viewBox="0 0 512 512" width="512" xmlns="http://www.w3.org/2000/svg"><g><g><g><g><g><g><g><g><g><g><g><g><g><g><g><g><g><g><g><g><g><circle cx="256" cy="256" fill="#7584f2" r="256"/></g></g></g></g></g></g></g></g></g></g></g></g></g></g></g></g></g></g></g></g><path d="m512 256c0-2.92-.049-5.83-.146-8.727l-44.458-44.458-36.766 68.807-174.63-174.629-211.395 211.52 203.364 203.363c2.667.083 5.345.124 8.032.124 141.384 0 255.999-114.615 255.999-256z" fill="#4253ce"/><g><path d="m150.302 96.993h105.698v317.218h-105.698z" fill="#a3d4ff"/></g><g><path d="m150.302 256.253h105.698v157.957h-105.698z" fill="#65b1fc"/></g><g fill="#fff"><path d="m322.65 421.51v-5.533c-3.458 4.15-10.145 6.917-17.292 6.917-8.531 0-19.137-5.764-19.137-18.33 0-13.488 10.605-17.868 19.137-17.868 7.378 0 13.949 2.306 17.292 6.456v-6.686c0-4.842-4.15-8.07-11.298-8.07-5.533 0-11.297 2.075-15.793 5.879l-6.341-11.182c7.147-6.11 16.716-8.646 25.247-8.646 13.372 0 25.938 4.957 25.938 22.249v34.814zm0-14.295v-4.957c-1.845-2.536-5.994-3.919-9.914-3.919-4.727 0-8.877 2.075-8.877 6.456s4.15 6.456 8.877 6.456c3.92-.001 8.07-1.384 9.914-4.036z"/><path d="m351.933 372.977v-9.453c20.982-14.641 24.094-17.638 24.094-21.558 0-3.458-2.767-5.418-6.802-5.418-5.188 0-10.145 3.112-12.335 5.649l-6.686-8.3c5.188-5.649 13.027-7.724 19.367-7.724 11.644 0 19.598 5.418 19.598 14.756 0 6.686-4.957 12.335-18.214 21.673h18.56v10.376h-37.582z"/></g><g><path d="m44.605 202.815h105.698v105.698h-105.698z" fill="#a3d4ff"/></g><g><path d="m44.605 256.253h105.698v52.26h-105.698z" fill="#65b1fc"/></g><g fill="#dbeeff"><path d="m150.302 202.815v16.348l16.348-16.348z"/><path d="m208.351 202.815-58.049 58.049v27.149l85.199-85.198z"/><path d="m256 223.148-85.365 85.365h28.236l57.129-57.13z"/></g><g fill="#a3d4ff"><path d="m154.913 256.253-4.611 4.611v27.149l31.76-31.76z"/><path d="m222.895 256.253-52.26 52.26h28.236l52.259-52.26z"/><path d="m256 291.781-16.731 16.732h16.731z"/></g><g><path d="m256 202.815h105.698v105.698h-105.698z" fill="#a3d4ff"/></g><g><path d="m256 256.253h105.698v52.26h-105.698z" fill="#65b1fc"/></g><g><path d="m361.698 202.815h105.698v105.698h-105.698z" fill="#dbeeff"/></g><g><path d="m361.698 256.253h105.698v52.26h-105.698z" fill="#a3d4ff"/></g><g><g><path d="m150.302 261.288 58.473-58.473h-42.426l-16.047 16.046z" fill="#65b1fc"/></g><g><path d="m155.337 256.253h-5.035v5.035z" fill="#4a7aff"/></g><g><path d="m239.953 308.513 16.047-16.047v-42.426l-58.472 58.473z" fill="#65b1fc"/></g><g><path d="m249.787 256.253-52.259 52.26h42.425l16.047-16.047v-36.213z" fill="#4a7aff"/></g></g><g><path d="m256 224.028v-21.213h-21.213l-84.485 84.485v21.213h21.213z" fill="#65b1fc"/></g><g><path d="m181.349 256.253-31.047 31.047v21.213h21.213l52.26-52.26z" fill="#4a7aff"/></g></g></svg>