<svg id="Capa_1" enable-background="new 0 0 512 512" height="512" viewBox="0 0 512 512" width="512" xmlns="http://www.w3.org/2000/svg"><g><g><path d="m256 305.535c-141.387 0-243.753-139.108-222.328-176.536 44.119-77.07 127.158-128.999 222.328-128.999s178.208 51.929 222.328 128.999c21.425 37.427-80.941 176.536-222.328 176.536z" fill="#e36565"/><path d="m512 256c0 26.051-3.891 51.191-11.129 74.871-5.031 16.469-11.672 32.231-19.75 47.109-8.25 15.2-147.391 53.26-225.121 53.26s-216.871-38.06-225.109-53.26c-3.289-6.031-6.332-12.21-9.121-18.531-14-31.629-21.77-66.629-21.77-103.449 0-46.219 12.25-89.57 33.68-127 44.121 77.07 127.16 129 222.32 129s178.211-51.93 222.32-129c21.43 37.43 33.68 80.781 33.68 127zm0 0" fill="#da3f3e"/><path d="m481.262 377.699c-7.16 13.223-15.434 25.742-24.723 37.43-1.663 2.096-3.36 4.166-5.088 6.207-7.037 8.314-92.569 73.263-135.306 83.557-19.29 4.646-39.43 7.107-60.145 7.107-66.609 0-127.281-25.449-172.82-67.148-10-9.153-19.282-19.09-27.719-29.723-9.289-11.688-17.563-24.207-24.723-37.43zm0 0" fill="#a52020"/></g><g><path d="m172.904 297.534h-119.5v71.225c0 32.622 62.325 47.483 119.5 47.483s119.5-14.862 119.5-47.483v-71.225z" fill="#dce0ef"/><path d="m292.404 368.759v-71.225h-119.5v118.708c57.175 0 119.5-14.862 119.5-47.483z" fill="#cad0e7"/><path d="m172.904 226.309h-119.5v71.225c0 32.622 62.325 47.483 119.5 47.483s119.5-14.862 119.5-47.483v-71.225z" fill="#fbf5eb"/><path d="m292.404 297.534v-71.225h-119.5v118.708c57.175 0 119.5-14.862 119.5-47.483z" fill="#dce0ef"/><path d="m172.904 154.292h-119.5v72.016c0 32.622 62.325 47.483 119.5 47.483s119.5-14.862 119.5-47.483v-72.016z" fill="#dce0ef"/><path d="m292.404 226.309v-72.016h-119.5v119.5c57.175-.001 119.5-14.863 119.5-47.484z" fill="#cad0e7"/><ellipse cx="172.904" cy="154.292" fill="#fbf5eb" rx="119.5" ry="47.483"/><path d="m292.404 154.292c0-32.622-62.325-47.483-119.5-47.483v94.967c57.175 0 119.5-14.862 119.5-47.484z" fill="#dce0ef"/><path d="m451.595 421.144-17.019-10.038c.185-2.226.278-4.463.278-6.735 0-2.261-.093-4.498-.267-6.712l24.008-14.19-35.497-61.673-24.205 14.189c-3.64-2.527-7.525-4.765-11.524-6.665l-.046-31.787h-35.565-35.613v31.764c-4.023 1.901-7.883 4.127-11.558 6.666l-24.17-14.155-35.496 61.661 24.008 14.178c-.174 2.214-.267 4.452-.267 6.724 0 2.261.093 4.51.267 6.724l-23.997 14.19 35.497 61.685 24.136-14.19c3.663 2.539 7.558 4.765 11.581 6.677l.027 25.413c53.743-12.949 100.871-42.845 135.422-83.726zm-99.837 6.969c-13.113 0-23.742-10.63-23.742-23.742 0-13.113 10.629-23.742 23.742-23.742s23.742 10.629 23.742 23.742c0 13.111-10.629 23.742-23.742 23.742z" fill="#8ab8ec"/><path d="m351.758 428.113v65.359c38.954-15.723 73.147-40.748 99.837-72.328l-17.019-10.038c.185-2.226.278-4.463.278-6.735 0-2.261-.093-4.498-.267-6.712l24.008-14.19-35.497-61.673-24.205 14.189c-3.64-2.527-7.525-4.765-11.524-6.665l-.046-31.787h-35.565v83.096c13.113 0 23.742 10.629 23.742 23.742 0 13.111-10.629 23.742-23.742 23.742z" fill="#728ee4"/><path d="m351.758 368.759c-19.668 0-35.612 15.944-35.612 35.612s15.944 35.613 35.612 35.613 35.613-15.944 35.613-35.613c0-19.668-15.945-35.612-35.613-35.612zm0 47.483c-6.556 0-11.871-5.315-11.871-11.871 0-6.557 5.315-11.871 11.871-11.871s11.871 5.314 11.871 11.871c0 6.556-5.315 11.871-11.871 11.871z" fill="#728ee4"/><path d="m387.371 404.371c0-19.668-15.944-35.612-35.613-35.612v23.741c6.556 0 11.871 5.314 11.871 11.871 0 6.556-5.315 11.871-11.871 11.871v23.742c19.668 0 35.613-15.945 35.613-35.613z" fill="#355dd7"/></g><g fill="#fff"><path d="m405.48 127.778h-1.524c-6.754 0-12.226-5.477-12.226-12.227v-1.523h-8.715v1.523c0 6.75-5.477 12.227-12.227 12.227h-1.527v8.715h1.527c6.75 0 12.227 5.472 12.227 12.226v1.528h8.715v-1.528c0-6.754 5.472-12.226 12.226-12.226h1.524zm0 0"/><path d="m446.92 247.98h-1.524c-6.754 0-12.226-5.477-12.226-12.227v-1.523h-8.715v1.523c0 6.75-5.477 12.227-12.227 12.227h-1.527v8.715h1.527c6.75 0 12.227 5.472 12.227 12.226v1.528h8.715v-1.528c0-6.754 5.472-12.226 12.226-12.226h1.524zm0 0"/><path d="m274.109 55.079h-1.524c-6.754 0-12.226-5.477-12.226-12.227v-1.523h-8.715v1.523c0 6.75-5.477 12.227-12.227 12.227h-1.527v8.715h1.527c6.75 0 12.227 5.472 12.227 12.226v1.528h8.715v-1.528c0-6.754 5.472-12.226 12.226-12.226h1.524zm0 0"/></g></g></svg>