<svg id="Capa_1" enable-background="new 0 0 512 512" height="512" viewBox="0 0 512 512" width="512" xmlns="http://www.w3.org/2000/svg"><path d="m511.996 257.476c-.386 68.387-27.592 130.423-71.626 176.134h-.01l-.029.012c-117.785 50.082-250.878 50.084-368.664.005l-.017-.007h-.01c-44.35-46.04-71.64-108.64-71.64-177.62 0-142.527 116.488-257.858 259.447-255.977 141.045 1.856 253.345 116.398 252.549 257.453z" fill="#ffe400"/><path d="m512 256c0 68.97-27.29 131.58-71.66 177.62l-.012.005c-117.783 50.08-250.873 50.082-368.658.005-44.38-46.04-71.67-108.65-71.67-177.63 0-46.22 12.25-89.57 33.68-127 44.12 77.07 127.16 129 222.32 129s178.21-51.93 222.32-129c21.43 37.43 33.68 80.78 33.68 127z" fill="#ffce00"/><path d="m440.37 142.52v291.09c-46.57 48.32-111.96 78.39-184.37 78.39-52.64 0-101.57-15.89-142.26-43.14l-42.1-35.24v-291.1c0-9.25 7.49-16.74 16.74-16.74h335.25c9.25 0 16.74 7.49 16.74 16.74z" fill="#b3f4ff"/><path d="m440.37 142.52v291.09c-46.57 48.32-111.96 78.39-184.37 78.39v-386.22h167.63c9.25 0 16.74 7.49 16.74 16.74z" fill="#8fc8f5"/><path d="m440.37 142.52v291.09c-12.72 13.19-26.83 25.02-42.11 35.25h-284.52l-42.1-35.24-.01-.01v-291.09c0-9.25 7.5-16.74 16.74-16.74h335.26c9.24 0 16.74 7.49 16.74 16.74z" fill="#24c6ff"/><path d="m440.37 142.52v264.86l-61.48 61.48h-265.15c-15.28-10.22-29.39-22.05-42.1-35.24v-291.1c0-9.25 7.49-16.74 16.74-16.74h335.25c9.25 0 16.74 7.49 16.74 16.74z" fill="#fff"/><path d="m440.37 142.519v264.86l-61.482 61.482h-122.884v-343.082h167.627c9.245 0 16.739 7.494 16.739 16.74z" fill="#d1f6ff"/><path d="m440.363 142.519v72.918h-368.733v-72.918c0-9.245 7.495-16.74 16.74-16.74h335.253c9.245 0 16.74 7.494 16.74 16.74z" fill="#22d7ff"/><path d="m440.363 142.519v72.918h-184.353v-89.658h167.613c9.245 0 16.74 7.494 16.74 16.74z" fill="#24c6ff"/><path d="m440.37 407.381c-24.008 24.008-37.474 37.475-61.482 61.482v-61.482z" fill="#22d7ff"/><path d="m171.96 188.846c-12.542 0-22.709-10.167-22.709-22.709v-52.648c0-12.542 10.167-22.709 22.709-22.709 12.542 0 22.709 10.167 22.709 22.709v52.648c0 12.541-10.167 22.709-22.709 22.709z" fill="#4e689b"/><path d="m171.96 90.779v98.066c12.542 0 22.709-10.167 22.709-22.709v-52.648c0-12.542-10.167-22.709-22.709-22.709z" fill="#374c81"/><path d="m340.04 188.846c-12.542 0-22.709-10.167-22.709-22.709v-52.648c0-12.542 10.167-22.709 22.709-22.709 12.542 0 22.709 10.167 22.709 22.709v52.648c.001 12.541-10.167 22.709-22.709 22.709z" fill="#4e689b"/><path d="m340.04 90.779v98.066c12.542 0 22.709-10.167 22.709-22.709v-52.648c.001-12.542-10.167-22.709-22.709-22.709z" fill="#374c81"/></svg>