<svg id="Capa_1" enable-background="new 0 0 512 512" height="512" viewBox="0 0 512 512" width="512" xmlns="http://www.w3.org/2000/svg"><g><g><g><g><g><g><g><g><g><g><g><g><g><g><g><g><g><g><g><g><g><g><circle cx="256" cy="256" fill="#ff6c52" r="256"/></g></g></g></g></g></g></g></g></g></g></g></g></g></g></g></g></g></g></g></g></g><path d="m512 256c0-1.318-.01-2.635-.03-3.949l-70.372-70.372-371.195 50 79.42 79.42-79.42 19.221 181.649 181.65c1.314.02 2.63.03 3.948.03 141.385 0 256-114.615 256-256z" fill="#f92814"/><path d="m441.598 231.679v-50h-224.563l-82.695-82.695-35.356 35.356 47.34 47.339h-75.922v50h125.922l48.641 48.642h-174.563v50h224.563l82.695 82.695 35.356-35.356-47.34-47.339h75.922v-50h-125.922l-48.641-48.642z" fill="#555a66"/><path d="m441.598 231.679v-50h-185.477v148.642h38.845l82.694 82.695 35.356-35.356-47.34-47.339h75.922v-50h-125.922l-48.641-48.642z" fill="#333940"/></g></svg>