<svg id="Capa_1" enable-background="new 0 0 512 512" height="512" viewBox="0 0 512 512" width="512" xmlns="http://www.w3.org/2000/svg"><circle cx="256" cy="256" fill="#65b2fe" r="256"/><path d="m512 256c0 87.11-43.52 164.07-110 210.31-41.41 28.8-91.73 45.69-146 45.69s-104.59-16.89-146-45.69c-66.48-46.24-110-123.2-110-210.31 0-46.22 12.25-89.57 33.68-127 44.12 77.07 127.16 129 222.32 129s178.21-51.93 222.32-129c21.43 37.43 33.68 80.78 33.68 127z" fill="#0e9ce7"/><path d="m452 316c0 105.34-83.12 191.28-187.34 195.81-.31.02-.62.03-.93.04-.87.03-1.74.06-2.6.08-1.73.05-3.44.07-5.13.07-108.24 0-196-87.76-196-196s87.76-196 196-196h.28c108.11.15 195.72 87.85 195.72 196z" fill="#ffe853"/><path d="m452 316c0 105.34-83.12 191.28-187.34 195.81-.31.02-.62.03-.93.04-.87.03-1.74.06-2.6.08-1.73.05-3.44.07-5.13.07-58.54-45.3-103.35-116.25-103.35-196s44.81-150.7 103.35-196h.28c108.11.15 195.72 87.85 195.72 196z" fill="#fed110"/><path d="m452 316c0 108.244-87.756 196-196 196v-392c108.244 0 196 87.756 196 196z" fill="#ff9f01"/><ellipse cx="122.47" cy="344.546" fill="#fd6561" rx="39.397" ry="23.556"/><ellipse cx="389.53" cy="344.546" fill="#fe3345" rx="39.397" ry="23.556"/><path d="m217.362 187.794c-16.242 20.451-46.793 29.91-73.514 21.32-.021-.007-.042-.013-.063-.02-2.001-.645-3.955 1.344-2.802 2.874 4.777 6.339 11.996 11.344 21.15 13.927 21.13 5.962 45.356-3.583 55.048-21.676 2.733-5.102 4.081-10.374 4.188-15.506.037-1.848-2.76-2.489-4.007-.919z" fill="#ed771b"/><path d="m294.638 187.794c16.242 20.451 46.793 29.91 73.515 21.32.021-.007.042-.013.063-.02 2-.645 3.955 1.344 2.802 2.874-4.777 6.339-11.996 11.344-21.15 13.927-21.13 5.962-45.356-3.583-55.048-21.676-2.733-5.102-4.081-10.374-4.188-15.506-.038-1.848 2.759-2.489 4.006-.919z" fill="#c55835"/><circle cx="187.667" cy="266.264" fill="#fff" r="46.095"/><circle cx="187.667" cy="266.264" fill="#29334c" r="25.616"/><circle cx="324.333" cy="266.264" fill="#fff" r="46.095"/><g fill="#29334c"><circle cx="324.333" cy="266.264" r="25.616"/><path d="m289.836 373.01c.067.873.102 1.74.104 2.6.02 7.026-7.948 11.12-13.563 6.896-5.673-4.268-12.73-6.795-20.377-6.795-7.648 0-14.707 2.529-20.382 6.799-5.511 4.147-13.521.283-13.558-6.614 0-.062 0-.123 0-.185 0-19.547 16.537-35.242 36.38-33.854 16.613 1.161 30.113 14.549 31.396 31.153z"/></g></svg>