<svg id="Icons" enable-background="new 0 0 512 512" height="512" viewBox="0 0 512 512" width="512" xmlns="http://www.w3.org/2000/svg"><g><path d="m512 256c0 36.22-7.53 70.69-21.1 101.92-5.24 12.06-11.38 23.64-18.34 34.65-3.59 5.69-7.41 11.23-11.43 16.61-7.73 10.34-16.23 20.07-25.4 29.12-4.45 4.38-9.05 8.61-13.81 12.65-8.42 7.18-17.3 13.81-26.61 19.86-4.51 2.93-9.12 5.72-13.82 8.37-7.97 4.49-16.21 8.57-24.69 12.2-4.53 1.95-9.14 3.77-13.81 5.45-7.43 2.69-15.02 5.04-22.75 7.04-4.56 1.18-9.16 2.23-13.81 3.16-5.85 1.17-11.78 2.14-17.78 2.9-4.56.59-9.17 1.05-13.81 1.38-6.22.46-12.5.69-18.84.69-3.3 0-6.58-.06-9.85-.19-4.63-.17-9.24-.47-13.81-.89-34.28-3.14-66.61-13.04-95.63-28.36-4.7-2.48-9.3-5.09-13.82-7.85-35.08-21.39-64.61-51-85.93-86.14-5.09-8.38-9.7-17.09-13.81-26.07-.71-1.52-1.39-3.04-2.05-4.58-13.57-31.23-21.1-65.7-21.1-101.92 0-141.38 114.62-256 256-256s256 114.62 256 256z" fill="#78c795"/><g><path d="m21.1 357.92c44.6 103.76 155.226 166.976 267.55 152.009 88.503-10.784 167.112-70.155 202.25-152.009z" fill="#d48d77"/><path d="m452.54 357.92c.551 15.657-15.644 30.764-30.621 39.05-34.222 19.258-76.125 27.2-115.49 31.351-44.506 4.327-93.093 2.99-137.23-5.05-42.248-7.744-108.247-27.648-109.74-65.35h393.081z" fill="#c17e62"/><g fill="#c17e62"><path d="m288.65 473.76v36.17c-4.56.59-9.17 1.05-13.81 1.38v-37.55c.32-9.149 13.492-9.144 13.81 0z"/><path d="m288.65 357.92v21.26c0 3.81-3.09 6.9-6.91 6.9-3.81 0-6.9-3.09-6.9-6.9v-21.26z"/><path d="m235.47 387.41v123.77c-4.615-.344-9.241-.859-13.81-1.47v-122.3c.276-9.114 13.534-9.126 13.81 0z"/><path d="m183.015 357.92v101c0 3.81-3.09 6.9-6.9 6.9-3.82 0-6.91-3.09-6.91-6.9v-101z"/><path d="m129.8 434.12v44.66c-4.691-2.667-9.308-5.485-13.82-8.44v-36.22c.318-9.132 13.504-9.13 13.82 0z"/><path d="m82.11 357.92v40.79c0 3.81-3.09 6.9-6.91 6.9-3.81 0-6.9-3.09-6.9-6.9v-40.79z"/><path d="m36.96 357.92v30.65c-5.09-8.38-9.7-17.09-13.81-26.07v-4.58z"/><path d="m320.24 387.41v116.46c-4.56 1.18-9.16 2.23-13.81 3.16v-119.62c.315-9.12 13.498-9.144 13.81 0z"/><path d="m356.8 357.92v73.53c0 3.81-3.09 6.9-6.9 6.9-3.82 0-6.91-3.09-6.91-6.9v-73.53z"/><path d="m356.8 490.54v.84c-4.53 1.95-9.14 3.77-13.81 5.45v-6.29c.277-9.132 13.539-9.136 13.81 0z"/><path d="m395.31 374.58v96.23c-4.51 2.93-9.12 5.72-13.82 8.37v-104.6c.314-9.144 13.508-9.146 13.82 0z"/><path d="m435.73 357.92v80.38c-4.45 4.38-9.05 8.61-13.81 12.65v-93.03z"/><path d="m472.56 392.57c-3.59 5.69-7.41 11.23-11.43 16.61v-11.39c-.09-5.856 7.126-9.089 11.43-5.22z"/></g><g fill="#a26d5a"><path d="m288.65 357.92v21.26c0 3.81-3.09 6.9-6.91 6.9-3.81 0-6.9-3.09-6.9-6.9v-21.26z"/><path d="m235.47 387.41v42.93c-4.65-.17-9.26-.41-13.81-.71v-42.22c0-3.81 3.09-6.9 6.9-6.9 3.818-.001 6.911 3.08 6.91 6.9z"/><path d="m183.01 357.92v67.63c-4.7-.69-9.3-1.45-13.81-2.28v-65.35z"/><path d="m82.11 357.92v33.97c-5.57-3.91-10.21-8.02-13.81-12.31v-21.66z"/><path d="m320.24 387.41v39.34c-4.53.59-9.14 1.11-13.81 1.57v-40.91c0-3.81 3.1-6.9 6.91-6.9 3.806-.001 6.904 3.086 6.9 6.9z"/><path d="m356.8 357.92v62.52c-4.49 1-9.1 1.93-13.81 2.79v-65.31z"/><path d="m395.31 374.58v34.71c-4.41 1.64-9.02 3.2-13.82 4.67v-39.38c.316-9.149 13.509-9.142 13.82 0z"/><path d="m435.73 357.92v29.51c-3.97 3.32-8.59 6.51-13.81 9.54v-39.05z"/></g></g><g><g><path d="m76.656 130.855v218.777c-.101 12.543 10.328 23.355 23.288 23.288h17.733c12.862 0 23.288-10.426 23.288-23.288v-218.777c0-12.723-10.206-23.068-22.882-23.276-.128-.012-.267-.012-.406-.012h-17.733c-12.862 0-23.288 10.426-23.288 23.288z" fill="#bf5e39"/><path d="m76.656 130.855v218.777c0 2.412.371 4.743 1.044 6.935.128.012.267.012.394.012h17.744c12.862 0 23.288-10.426 23.288-23.288v-218.789c0-2.412-.371-4.732-1.044-6.924-.128-.012-.267-.012-.406-.012h-17.732c-12.862.001-23.288 10.427-23.288 23.289z" fill="#dd5e26"/><path d="m92.73 290.089c8.881 0 16.08-7.199 16.08-16.08v-117.65c0-8.881-7.199-16.08-16.08-16.08s-16.08 7.199-16.08 16.08v117.65c0 8.88 7.2 16.08 16.08 16.08z" fill="#ea792e"/></g><g><path d="m435.344 130.855v218.777c.101 12.543-10.328 23.355-23.288 23.288h-17.733c-12.862 0-23.288-10.426-23.288-23.288v-218.777c0-12.723 10.206-23.068 22.882-23.276.128-.012.267-.012.406-.012h17.733c12.862 0 23.288 10.426 23.288 23.288z" fill="#bf5e39"/><path d="m435.344 130.855v218.777c0 2.412-.371 4.743-1.044 6.935-.128.012-.267.012-.394.012h-17.744c-12.862 0-23.288-10.426-23.288-23.288v-218.789c0-2.412.371-4.732 1.044-6.924.128-.012.267-.012.406-.012h17.733c12.861.001 23.287 10.427 23.287 23.289z" fill="#dd5e26"/><path d="m419.27 290.089c-8.881 0-16.08-7.199-16.08-16.08v-117.65c0-8.881 7.199-16.08 16.08-16.08s16.08 7.199 16.08 16.08v117.65c0 8.88-7.2 16.08-16.08 16.08z" fill="#ea792e"/></g><g><g><g><path d="m375.053 146.699h-238.106c-4.718 0-8.542-3.825-8.542-8.542 0-4.718 3.825-8.542 8.542-8.542h238.106c11.254.403 11.391 16.622 0 17.084z" fill="#334353"/><path d="m345.717 140.256h-183.109c-6.972-.192-7.085-10.411 0-10.642h183.109c6.972.192 7.084 10.412 0 10.642z" fill="#3e4e60"/><path d="m321.989 140.256h-87.317c-2.939 0-5.321-2.382-5.321-5.321s2.382-5.321 5.321-5.321h87.317c7.007.207 7.054 10.42 0 10.642z" fill="#3f5d77"/></g><g><path d="m375.053 229.949h-238.106c-4.718 0-8.542-3.825-8.542-8.542 0-4.718 3.825-8.542 8.542-8.542h238.106c11.254.402 11.391 16.622 0 17.084z" fill="#334353"/><path d="m345.717 223.506h-183.109c-6.972-.192-7.085-10.411 0-10.642h183.109c6.972.192 7.084 10.412 0 10.642z" fill="#3e4e60"/><path d="m321.989 223.506h-87.317c-2.939 0-5.321-2.382-5.321-5.321s2.382-5.321 5.321-5.321h87.317c7.007.206 7.054 10.419 0 10.642z" fill="#3f5d77"/></g><g><path d="m375.053 313.198h-238.106c-4.718 0-8.542-3.825-8.542-8.542 0-4.718 3.825-8.542 8.542-8.542h238.106c11.254.402 11.391 16.622 0 17.084z" fill="#334353"/><path d="m345.717 306.755h-183.109c-6.972-.192-7.085-10.411 0-10.642h183.109c6.972.192 7.084 10.412 0 10.642z" fill="#3e4e60"/><path d="m321.989 306.755h-87.317c-2.939 0-5.321-2.382-5.321-5.321s2.382-5.321 5.321-5.321h87.317c7.007.206 7.054 10.42 0 10.642z" fill="#3f5d77"/></g></g><g><g><path d="m210.421 122.957v30.397c0 2.053-.394 4.001-1.125 5.787-6.505 15.452-29.398 11.144-29.655-5.787v-30.397c0-6.518 4.048-12.096 9.777-14.334 9.769-4.028 21.229 3.692 21.003 14.334z" fill="#c0405c"/><path d="m210.421 122.957v30.397c0 2.053-.394 4.001-1.125 5.787-9.763 4.06-21.23-3.691-21.003-14.323v-30.409c0-2.053.394-4.001 1.125-5.787 9.769-4.033 21.229 3.698 21.003 14.335z" fill="#e9465e"/><path d="m200.559 146.498c-3.567 0-6.458-2.891-6.458-6.458v-15.5c.293-8.545 12.621-8.551 12.916 0v15.5c.001 3.567-2.891 6.458-6.458 6.458z" fill="#ee6781"/></g><g><path d="m254.962 122.957v30.397c0 2.053-.394 4.001-1.125 5.787-6.505 15.452-29.398 11.144-29.655-5.787v-30.397c0-6.518 4.048-12.096 9.777-14.334 9.769-4.028 21.229 3.692 21.003 14.334z" fill="#c0405c"/><path d="m254.962 122.957v30.397c0 2.053-.394 4.001-1.125 5.787-9.763 4.06-21.23-3.691-21.003-14.323v-30.409c0-2.053.394-4.001 1.125-5.787 9.769-4.033 21.229 3.698 21.003 14.335z" fill="#e9465e"/><path d="m245.1 146.498c-3.567 0-6.458-2.891-6.458-6.458v-15.5c.293-8.545 12.621-8.551 12.916 0v15.5c0 3.567-2.891 6.458-6.458 6.458z" fill="#ee6781"/></g></g><g><g><path d="m286.986 206.208v30.397c0 2.053-.394 4.001-1.125 5.787-6.505 15.452-29.398 11.144-29.655-5.787v-30.397c0-6.518 4.048-12.096 9.777-14.334 9.768-4.028 21.229 3.692 21.003 14.334z" fill="#50755c"/><path d="m286.986 206.208v30.397c0 2.053-.394 4.001-1.125 5.787-9.763 4.06-21.23-3.691-21.003-14.323v-30.409c0-2.053.394-4.001 1.125-5.787 9.769-4.033 21.229 3.698 21.003 14.335z" fill="#528f66"/><path d="m277.124 229.749c-3.567 0-6.458-2.891-6.458-6.458v-15.5c.293-8.545 12.621-8.551 12.916 0v15.5c0 3.567-2.891 6.458-6.458 6.458z" fill="#53b976"/></g><g><path d="m331.527 206.208v30.397c0 2.053-.394 4.001-1.125 5.787-6.505 15.452-29.398 11.144-29.655-5.787v-30.397c0-6.518 4.048-12.096 9.777-14.334 9.768-4.028 21.229 3.692 21.003 14.334z" fill="#50755c"/><path d="m331.527 206.208v30.397c0 2.053-.394 4.001-1.125 5.787-9.763 4.06-21.23-3.691-21.003-14.323v-30.409c0-2.053.394-4.001 1.125-5.787 9.768-4.033 21.228 3.698 21.003 14.335z" fill="#528f66"/><path d="m321.665 229.749c-3.567 0-6.458-2.891-6.458-6.458v-15.5c.293-8.545 12.621-8.551 12.916 0v15.5c0 3.567-2.892 6.458-6.458 6.458z" fill="#53b976"/></g></g><g><g><path d="m227.109 289.457v30.397c0 2.053-.394 4.001-1.125 5.787-6.505 15.452-29.398 11.144-29.655-5.787v-30.397c0-6.518 4.048-12.096 9.777-14.334 9.769-4.027 21.229 3.693 21.003 14.334z" fill="#22a8b9"/><path d="m227.109 289.457v30.397c0 2.053-.394 4.001-1.125 5.787-9.763 4.06-21.23-3.691-21.003-14.323v-30.409c0-2.053.394-4.001 1.125-5.787 9.769-4.033 21.229 3.698 21.003 14.335z" fill="#22bce0"/><path d="m217.247 312.998c-3.567 0-6.458-2.891-6.458-6.458v-15.5c.293-8.545 12.621-8.551 12.916 0v15.5c.001 3.567-2.891 6.458-6.458 6.458z" fill="#4fcae8"/></g><g><path d="m271.65 289.457v30.397c0 2.053-.394 4.001-1.125 5.787-6.505 15.452-29.398 11.144-29.655-5.787v-30.397c0-6.518 4.048-12.096 9.777-14.334 9.768-4.027 21.229 3.693 21.003 14.334z" fill="#22a8b9"/><path d="m271.65 289.457v30.397c0 2.053-.394 4.001-1.125 5.787-9.763 4.06-21.23-3.691-21.003-14.323v-30.409c0-2.053.394-4.001 1.125-5.787 9.769-4.033 21.229 3.698 21.003 14.335z" fill="#22bce0"/><path d="m261.788 312.998c-3.567 0-6.458-2.891-6.458-6.458v-15.5c.293-8.545 12.621-8.551 12.916 0v15.5c0 3.567-2.891 6.458-6.458 6.458z" fill="#4fcae8"/></g></g></g></g></g></svg>