<svg id="Capa_1" enable-background="new 0 0 512 512" height="512" viewBox="0 0 512 512" width="512" xmlns="http://www.w3.org/2000/svg"><g><g><path d="m512 256c0 141.387-114.613 256-256 256s-256-114.613-256-256 114.613-256 256-256 256 114.613 256 256zm0 0" fill="#ffeb78"/><path d="m512 256c0 26.051-3.891 51.191-11.129 74.871-5.031 16.469-11.672 32.231-19.75 47.109-8.25 15.2-18 29.461-29.051 42.61-.582.691-1.16 1.379-1.75 2.058-46.941 54.704-116.59 89.352-194.32 89.352s-147.379-34.648-194.309-89.352c-.589-.687-1.179-1.378-1.75-2.07-11.062-13.137-20.812-27.398-29.05-42.598-3.289-6.031-6.332-12.21-9.121-18.531-14-31.629-21.77-66.629-21.77-103.449 0-46.219 12.25-89.57 33.68-127 44.121 77.07 127.16 129 222.32 129s178.211-51.93 222.32-129c21.43 37.43 33.68 80.781 33.68 127zm0 0" fill="#f2d332"/><path d="m481.262 377.699c-7.16 13.223-15.434 25.742-24.723 37.43-8.437 10.633-17.719 20.57-27.719 29.723-45.539 41.699-106.211 67.148-172.82 67.148s-127.281-25.449-172.82-67.148c-10-9.153-19.282-19.09-27.719-29.723-9.289-11.688-17.563-24.207-24.723-37.43zm0 0" fill="#e79d25"/></g><g><path d="m418.366 453.925-27.614-117.821h-228.253l93.444 175.895c.019 0 .038.001.057.001 61.638 0 118.183-21.788 162.366-58.075z" fill="#d85819"/><path d="m432.002 160.102h-176.002l-93.501 176.002h228.253z" fill="#d85819"/><path d="m392.495 472.599c14.167-8.947 27.399-19.239 39.508-30.707v-281.79l-176.003 176.002z" fill="#bd4911"/><path d="m256 160.102h-176.002l41.25 176.002h134.752z" fill="#e38031"/><path d="m121.248 336.104-27.614 117.821c44.183 36.287 100.728 58.075 162.366 58.075v-175.896z" fill="#e38031"/><path d="m119.505 472.599 136.495-136.495-176.002-176.002v281.79c12.109 11.468 25.34 21.76 39.507 30.707z" fill="#d85819"/><path d="m390.752 201.352h-134.752l-93.501 134.752 166.377 134.752h61.876z" fill="#fff0be"/><path d="m121.248 201.352v269.504h61.876l72.876-134.752v-134.752z" fill="#fff"/><path d="m328.876 357.417h-145.752l72.876 113.439h72.876z" fill="#7397b8"/><path d="m183.124 357.417h72.876v113.439h-72.876z" fill="#a9cee8"/><path d="m209.249 357.417h46.751v113.439h-46.751z" fill="#8db3cf"/><path d="m214.749 285.228 41.251 92.814h93.501v-51.563z" fill="#d85819"/><path d="m162.499 326.479v51.563h93.501v-92.814z" fill="#ffa77a"/><path d="m209.249 326.479v51.563h46.751v-92.814z" fill="#e38031"/><path d="m349.501 326.479v-42.625c0-22.746-18.505-41.251-41.25-41.251h-52.251l-41.251 41.938 41.251 41.938z" fill="#e38031"/><path d="m256 242.603h-52.251c-22.745 0-41.251 18.505-41.251 41.251v42.625h93.502z" fill="#ffcfad"/><path d="m256 242.603h-5.5c-22.745 0-41.25 18.505-41.25 41.251v42.625h46.75z" fill="#ffb17b"/></g></g></svg>