<svg id="Capa_1" enable-background="new 0 0 512 512" height="512" viewBox="0 0 512 512" width="512" xmlns="http://www.w3.org/2000/svg"><g><g><path d="m512 256c0 141.387-114.613 256-256 256s-256-114.613-256-256 114.613-256 256-256 256 114.613 256 256zm0 0" fill="#ffeb78"/><path d="m512 256c0 26.051-3.891 51.191-11.129 74.871-5.031 16.469-11.672 32.231-19.75 47.109-8.25 15.2-18 29.461-29.051 42.61-.582.691-1.16 1.379-1.75 2.058-46.941 54.704-116.59 89.352-194.32 89.352s-147.379-34.648-194.309-89.352c-.589-.687-1.179-1.378-1.75-2.07-11.062-13.137-20.812-27.398-29.05-42.598-3.289-6.031-6.332-12.21-9.121-18.531-14-31.629-21.77-66.629-21.77-103.449 0-46.219 12.25-89.57 33.68-127 44.121 77.07 127.16 129 222.32 129s178.211-51.93 222.32-129c21.43 37.43 33.68 80.781 33.68 127zm0 0" fill="#f2d332"/><path d="m481.262 377.699c-7.16 13.223-15.434 25.742-24.723 37.43-8.437 10.633-17.719 20.57-27.719 29.723-45.539 41.699-106.211 67.148-172.82 67.148s-127.281-25.449-172.82-67.148c-10-9.153-19.282-19.09-27.719-29.723-9.289-11.688-17.563-24.207-24.723-37.43zm0 0" fill="#e79d25"/></g><g><path d="m384.815 157.933h-128.815l-82.417 119.658 82.417 119.657h128.815c15.148 0 27.472-12.324 27.472-27.472v-184.37c0-15.149-12.324-27.473-27.472-27.473z" fill="#16202d"/><path d="m256 157.933h-83.028l-36.63 119.658 36.63 119.657h83.028z" fill="#2d3e53"/><path d="m127.185 157.933c-15.148 0-27.472 12.324-27.472 27.472v184.37c0 15.148 12.324 27.472 27.472 27.472h45.787v-239.314z" fill="#435d7a"/><path d="m237.075 360.618h-36.63v-36.63h18.315v18.315h18.315z" fill="#435d7a"/><path d="m375.658 360.618h-36.63v-18.315h18.314v-18.315h18.316z" fill="#2d3e53"/><path d="m218.76 231.193h-18.315v-36.63h36.63v18.315h-18.315z" fill="#435d7a"/><path d="m375.658 231.193h-18.316v-18.315h-18.314v-18.315h36.63z" fill="#2d3e53"/><path d="m127.185 268.433h18.315v18.315h-18.315z" fill="#16202d"/><path d="m127.185 231.803h18.315v18.315h-18.315z" fill="#2d3e53"/><path d="m127.185 305.063h18.315v18.315h-18.315z" fill="#2d3e53"/><path d="m384.815 415.563h-18.315l-18.315 27.472 18.315 27.472h18.315c15.148 0 27.472-12.324 27.472-27.472s-12.324-27.472-27.472-27.472z" fill="#16202d"/><path d="m256 415.563-18.315 27.472 18.315 27.473h110.5v-54.945z" fill="#2d3e53"/><path d="m200.445 415.563-18.315 27.472 18.315 27.473h55.555v-54.945z" fill="#435d7a"/><path d="m127.185 415.563c-15.148 0-27.472 12.324-27.472 27.472 0 15.149 12.324 27.472 27.472 27.472h73.26v-54.945h-73.26z" fill="#16202d"/></g><g fill="#fff"><path d="m274.109 62.966h-1.524c-6.754 0-12.226-5.477-12.226-12.227v-1.523h-8.715v1.523c0 6.75-5.477 12.227-12.227 12.227h-1.527v8.715h1.527c6.75 0 12.227 5.472 12.227 12.226v1.528h8.715v-1.528c0-6.754 5.472-12.226 12.226-12.226h1.524zm0 0"/><path d="m158.098 106.531h-1.524c-6.754 0-12.226-5.477-12.226-12.227v-1.523h-8.715v1.523c0 6.75-5.477 12.227-12.227 12.227h-1.527v8.715h1.527c6.75 0 12.227 5.472 12.227 12.226v1.528h8.715v-1.528c0-6.754 5.472-12.226 12.226-12.226h1.524zm0 0"/><path d="m380.236 106.531h-1.524c-6.754 0-12.226-5.477-12.226-12.227v-1.523h-8.715v1.523c0 6.75-5.477 12.227-12.227 12.227h-1.527v8.715h1.527c6.75 0 12.227 5.472 12.227 12.226v1.528h8.715v-1.528c0-6.754 5.472-12.226 12.226-12.226h1.524zm0 0"/></g></g></svg>