<svg id="Capa_1" enable-background="new 0 0 512 512" height="512" viewBox="0 0 512 512" width="512" xmlns="http://www.w3.org/2000/svg"><g><g><g><g><g><g><circle cx="256" cy="256" fill="#1dd882" r="256"/></g></g></g></g></g><path d="m511.866 264.365-94.296-94.296-25.946 40.944-222.852-5.965s-77.503 55.762-73.39 55.893l50.989 50.989-42.637 57.681 142.194 142.194c3.341.13 6.699.195 10.072.195 138.586 0 251.451-110.122 255.866-247.635z" fill="#28bc75"/><g><path d="m103.733 369.611-30.711-39.456c2.922-2.275 5.934-4.763 9.121-7.398 20.11-16.62 47.652-39.383 97.566-42.5 45.303-2.832 69.986 8.613 91.768 18.708 19.548 9.06 34.993 16.22 67.674 14.115 36.557-2.349 57.142-16.943 78.417-34.342l31.654 38.704c-24.827 20.304-55.606 42.242-106.864 45.536-45.387 2.911-70.099-8.54-91.906-18.648-19.54-9.057-34.974-16.209-67.626-14.17-33.701 2.105-50.765 16.208-68.831 31.139-3.324 2.747-6.762 5.589-10.262 8.312z" fill="#555a66"/></g><g><path d="m417.569 278.739c-21.275 17.399-41.86 31.993-78.417 34.342-32.681 2.104-48.126-5.055-67.674-14.115-4.904-2.273-9.958-4.613-15.358-6.844v54.819c20.517 9.349 44.73 18.7 86.239 16.038 51.258-3.294 82.037-25.231 106.864-45.536z" fill="#333940"/></g><g><path d="m95.381 260.941-30.711-39.456 1.551-1.208c23.11-18.01 58.036-45.226 113.489-48.69 45.292-2.834 69.986 8.613 91.768 18.709 19.547 9.06 34.987 16.215 67.674 14.115 36.557-2.349 57.142-16.942 78.417-34.342l31.654 38.704c-24.826 20.304-55.605 42.242-106.865 45.536-45.377 2.912-70.098-8.54-91.906-18.648-19.54-9.057-34.982-16.205-67.625-14.171-40.027 2.501-65.448 22.31-85.873 38.227z" fill="#555a66"/></g><g><path d="m417.569 170.069c-21.275 17.4-41.86 31.994-78.417 34.342-32.687 2.101-48.127-5.055-67.674-14.115-4.903-2.273-9.958-4.613-15.358-6.844v54.819c20.519 9.349 44.739 18.7 86.238 16.037 51.26-3.293 82.039-25.231 106.865-45.536z" fill="#333940"/></g></g></svg>