<svg id="Layer_1" enable-background="new 0 0 508 508" height="512" viewBox="0 0 508 508" width="512" xmlns="http://www.w3.org/2000/svg"><g><g><path d="m508 254c0 59.582-20.515 114.373-54.867 157.694-46.526 58.673-118.435 81.143-199.133 81.143-140.28 0-238.837-96.557-238.837-236.837 0-78.908 20.818-151.411 77.269-197.999 43.907-36.234 100.195-58.001 161.568-58.001 140.28 0 254 113.72 254 254z" fill="#ff5551"/></g><path d="m492.268 252.614v-84.116c0-5.355-4.341-9.697-9.697-9.697h-25.513-8.156c-5.355 0-9.697 4.341-9.697 9.697v14.379h-8.638c-6.509 0-11.786-5.277-11.786-11.786v-50.872c0-18.142-14.707-32.849-32.849-32.849-5.723 0-10.362-4.639-10.362-10.362v-1.072c0-12.124-9.829-21.953-21.953-21.953h-177.165c-12.124 0-21.953 9.829-21.953 21.953v11.434h-10.362c-.349 0-.694.016-1.041.026.082-.279.165-.558.248-.836 8.295-27.804-23.937-49.93-46.702-31.941-58.864 46.513-96.642 118.532-96.642 199.381 0 93.663 50.705 175.474 126.155 219.512 1.957.992 16.947 10.531 42.876 19.909 26.57 9.429 55.166 14.579 84.969 14.579 56.584 0 109.795-18.55 153.162-51.373v-.005c7.567-5.73 14.805-11.871 21.676-18.395h.015c8.437-8.01 16.651-16.951 24.265-26.545 2.298-2.896-.411-7.062-3.997-6.161l-.174.044c-2.45.616-4.825-1.236-4.825-3.762v-13.028c0-2.14-1.735-3.875-3.875-3.875h-3.765c-2.14 0-3.875-1.735-3.875-3.875v-93.484c0-8.956-5.791-16.544-13.826-19.27v-69.608h20.424v60.82c0 5.355 4.341 9.697 9.697 9.697h33.669c5.356 0 9.697-4.341 9.697-9.697z" fill="#e20a62"/><g><path d="m59.192 193.47h380.616v15.786h-380.616z" fill="#2d56a1"/><g><path d="m136.266 422.156h30.522v59.424h-30.522z" fill="#2d56a1"/><path d="m140.032 452.432v-30.276h-26.755v65.744c0 9.678 7.846 17.524 17.524 17.524h18.462c9.678 0 17.524-7.846 17.524-17.524v-8.712c-14.776 0-26.755-11.979-26.755-26.756z" fill="#1a396b"/><path d="m362.692 93.986v-7.457c0-12.124-9.829-21.953-21.953-21.953h-154.359v29.41z" fill="#ffc305"/><path d="m193.172 91.08c-2.513 0-4.551-2.038-4.551-4.551 0-12.124 9.829-21.953 21.953-21.953h-47c-12.124 0-21.953 9.829-21.953 21.953v72.727h221.071v-68.176z" fill="#ff8500"/><path d="m367.173 422.156h27.111v60.693h-27.111z" fill="#2d56a1"/><path d="m370.816 455.72v-33.564h-30.043v65.743c0 9.678 7.846 17.524 17.524 17.524h18.462c9.678 0 17.524-7.846 17.524-17.524v-8.712c-12.96.001-23.467-10.506-23.467-23.467z" fill="#1a396b"/><path d="m405.903 405.457h-307.493v-274.645c0-18.142 14.707-32.849 32.849-32.849h241.795c18.142 0 32.849 14.707 32.849 32.849z" fill="#f8e000"/><path d="m405.903 405.457h-307.493v-274.645c0-18.142 14.707-32.849 32.849-32.849h241.795c18.142 0 32.849 14.707 32.849 32.849z" fill="#f8e000"/><g fill="#ffc305"><path d="m225.905 160.727h-39.495v-29.915c0-18.142 14.707-32.849 32.849-32.849h-88c-18.142 0-32.849 14.707-32.849 32.849v274.644h88v-133.034c0-8.084 6.554-14.638 14.638-14.638h24.858c7 0 12.675-5.675 12.675-12.675v-71.706c0-7.001-5.675-12.676-12.676-12.676z"/><path d="m262.178 230.182v14.927c0 7 5.675 12.675 12.675 12.675h95.84c7 0 12.675-5.675 12.675-12.675v-14.927z"/></g><path d="m399.368 277.773h-234.556v169.799h234.556c11.245 0 20.361-9.116 20.361-20.361v-129.077c0-11.245-9.116-20.361-20.361-20.361z" fill="#ffc305"/><path d="m238.581 229.105v-66.702c0-7-5.675-12.675-12.675-12.675h-78.856v79.378h91.531z" fill="#6ee1ff"/><path d="m162.927 226.827c-7 0-12.675-5.675-12.675-12.675v-64.424h-20.186c-7 0-12.675 5.675-12.675 12.675v71.706c0 7 5.675 12.675 12.675 12.675h95.84c7 0 12.675-5.675 12.675-12.675v-7.282z" fill="#2896ff"/><path d="m383.368 232.911v-70.509c0-7-5.675-12.675-12.675-12.675h-77.106v83.184z" fill="#6ee1ff"/><path d="m308.742 229.657c-7 0-12.675-5.675-12.675-12.675v-67.254h-21.213c-7 0-12.675 5.675-12.675 12.675v71.706c0 7 5.675 12.675 12.675 12.675h95.84c7 0 12.675-5.675 12.675-12.675v-4.452z" fill="#2896ff"/><path d="m192.815 395.493h238.429v53.327h-238.429z" fill="#ff8500"/><path d="m167.548 427.211v-33.281c0-3.659 1.275-7.167 3.446-10.112 3.629-4.922 5.777-11.003 5.777-17.588 0-8.46-3.545-16.088-9.223-21.496v-46.6c0-11.245 9.116-20.361 20.361-20.361h-82.964c-11.245 0-20.361 9.116-20.361 20.361v129.077c0 11.245 9.116 20.361 20.361 20.361h82.964c-11.245 0-20.361-9.116-20.361-20.361z" fill="#ff8500"/><path d="m67.756 395.493h132.376v53.327h-132.376z" fill="#fa690f"/><circle cx="357.08" cy="366.23" fill="#ff8500" r="29.69"/><path d="m176.771 359.23c0 3.745-.693 7.328-1.959 10.627-4.275 11.148-15.079 10.764-27.732 10.764-16.397 0-29.69-4.994-29.69-21.392s13.293-29.69 29.69-29.69 29.691 13.294 29.691 29.691z" fill="#faf58c"/><path d="m152.257 371.033c-10.589 0-19.88-5.544-25.133-13.888-2.841-4.512-9.846-2.563-9.726 2.767.003.136.007.272.012.408.543 15.136 12.706 27.629 27.824 28.544 13.396.811 25.091-7.287 29.577-19.007 1.279-3.34-2.504-6.333-5.423-4.265-4.839 3.427-10.749 5.441-17.131 5.441z" fill="#f8e000"/><path d="m386.771 359.23c0 3.764-.7 7.365-1.978 10.678-4.288 11.122-10.756 13.869-23.389 13.869-16.397 0-34.013-8.15-34.013-24.548s13.293-29.69 29.69-29.69c16.397.001 29.69 13.294 29.69 29.691z" fill="#faf58c"/><g fill="#ff8500"><path d="m299.948 370.456h-63.454v13.322h63.454c3.679 0 6.661-2.982 6.661-6.661s-2.982-6.661-6.661-6.661z"/><path d="m299.872 352.569h-63.378v13.322h63.378c3.679 0 6.661-2.982 6.661-6.661s-2.982-6.661-6.661-6.661z"/><path d="m299.872 334.682h-63.378v13.322h63.378c3.679 0 6.661-2.982 6.661-6.661s-2.982-6.661-6.661-6.661z"/></g><path d="m237.955 370.456h-33.59c-3.679 0-6.661 2.982-6.661 6.661s2.982 6.661 6.661 6.661h33.59z" fill="#fa690f"/><path d="m237.955 352.569h-33.666c-3.679 0-6.661 2.982-6.661 6.661s2.982 6.661 6.661 6.661h33.666z" fill="#fa690f"/><path d="m237.955 334.682h-33.666c-3.679 0-6.661 2.982-6.661 6.661s2.982 6.661 6.661 6.661h33.666z" fill="#fa690f"/><path d="m362.106 371.033c-10.589 0-19.88-5.544-25.133-13.888-2.841-4.512-9.846-2.563-9.726 2.767.003.136.007.272.012.408.543 15.136 12.706 27.629 27.824 28.544 13.396.811 25.091-7.287 29.577-19.007 1.279-3.34-2.504-6.333-5.423-4.265-4.839 3.427-10.749 5.441-17.131 5.441z" fill="#f8e000"/></g><g><g><path d="m79.673 275.679v-88.689c0-5.355-4.341-9.697-9.697-9.697h-25.104v98.386z" fill="#f8e000"/><path d="m57.126 271.106c-5.355 0-9.697-4.341-9.697-9.697v-84.116h-11.122c-5.355 0-9.697 4.341-9.697 9.697v90.985c0 5.355 4.341 9.697 9.697 9.697h33.67c5.355 0 9.697-4.341 9.697-9.697v-6.869z" fill="#ffc305"/></g><g><path d="m469.693 169.394h-25.513v97.721h35.21v-88.024c0-5.355-4.341-9.697-9.697-9.697z" fill="#f8e000"/><path d="m456.843 263.207c-5.355 0-9.697-4.341-9.697-9.697v-84.116h-11.123c-5.355 0-9.697 4.341-9.697 9.697v90.985c0 5.355 4.341 9.697 9.697 9.697h33.67c5.355 0 9.697-4.341 9.697-9.697v-6.869z" fill="#ffc305"/></g></g></g></g></svg>