<svg id="Capa_1" enable-background="new 0 0 512 512" height="512" viewBox="0 0 512 512" width="512" xmlns="http://www.w3.org/2000/svg"><path d="m512 256.183c-.068 96.683-53.73 180.824-132.89 224.317l-47.636 12.188c-49.525 12.671-101.442 12.669-150.966-.004l-47.608-12.184h-.02c-79.2-43.53-132.88-127.75-132.88-224.5 0-141.38 114.62-256 255.999-256 141.103 0 256.1 115.081 256.001 256.183z" fill="#6c82ff"/><path d="m512 256c0 87.11-43.52 164.07-110 210.31-7.36 5.12-15 9.86-22.89 14.19l-47.633 12.188c-49.52 12.671-101.434 12.671-150.954.001l-47.643-12.189c-7.89-4.33-15.53-9.07-22.88-14.19-66.48-46.24-110-123.2-110-210.31 0-46.22 12.25-89.57 33.68-127 44.12 77.07 127.16 129 222.32 129s178.21-51.93 222.32-129c21.43 37.43 33.68 80.78 33.68 127z" fill="#4d6df4"/><path d="m475.41 124.04-219.41 144.82-219.41-144.82c7.47-12.4 15.97-24.12 25.38-35.03 9.15-10.63 19.16-20.5 29.93-29.5l164.1 108.3 164.1-108.3c10.77 9 20.78 18.87 29.93 29.5 9.41 10.91 17.91 22.63 25.38 35.03z" fill="#374c81"/><path d="m450.03 89.01-194.03 128.07-194.03-128.07c9.15-10.63 19.16-20.5 29.93-29.5l164.1 108.3 164.1-108.3c10.77 9 20.78 18.87 29.93 29.5z" fill="#234177"/><path d="m475.41 124.04-219.41 144.82v-101.05l164.1-108.3c10.77 9 20.78 18.87 29.93 29.5 9.41 10.91 17.91 22.63 25.38 35.03z" fill="#234177"/><path d="m450.03 89.01-194.03 128.07v-49.27l164.1-108.3c10.77 9 20.78 18.87 29.93 29.5z" fill="#16325b"/><path d="m416.48 377.55c0 39.19-14.04 75.09-37.36 102.95h-.01c-36.53 20.08-78.48 31.5-123.11 31.5h-.01c-44.63 0-86.58-11.42-123.11-31.5-23.32-27.86-37.36-63.76-37.36-102.95 0-88.62 71.86-160.47 160.47-160.47 88.63 0 160.49 71.85 160.49 160.47z" fill="#ffc300"/><path d="m416.48 377.55c0 39.19-14.04 75.09-37.36 102.95-36.53 20.08-78.49 31.5-123.12 31.5h-.01v-294.92c88.63 0 160.49 71.85 160.49 160.47z" fill="#ff9f00"/><path d="m364.721 377.562c0 60.048-48.682 108.73-108.73 108.73-60.023 0-108.705-48.682-108.705-108.73s48.682-108.705 108.705-108.705c60.048-.001 108.73 48.657 108.73 108.705z" fill="#ffe400"/><path d="m364.721 377.562c0 60.048-48.682 108.73-108.73 108.73v-217.436c60.048 0 108.73 48.658 108.73 108.706z" fill="#ffc300"/><path d="m301.693 383.922c-3.01 2.946-4.397 7.169-3.682 11.328l4.137 24.085c1.798 10.44-9.183 18.41-18.561 13.494l-21.637-11.393c-1.863-.975-3.92-1.473-5.956-1.473-2.058 0-4.072.498-5.935 1.473l-21.659 11.393c-9.378 4.917-20.338-3.054-18.54-13.494l4.137-24.085c.693-4.159-.672-8.382-3.682-11.328l-17.501-17.067c-7.602-7.386-3.422-20.294 7.083-21.811l24.193-3.509c4.158-.606 7.754-3.227 9.616-6.996l10.83-21.919c2.339-4.765 6.887-7.126 11.458-7.126 4.57 0 9.118 2.361 11.479 7.126l10.808 21.919c1.862 3.769 5.479 6.389 9.638 6.996l24.193 3.509c10.483 1.516 14.685 14.425 7.083 21.811z" fill="#ff9f00"/><path d="m301.693 383.922c-3.01 2.946-4.397 7.169-3.682 11.328l4.137 24.085c1.798 10.44-9.183 18.41-18.561 13.494l-21.637-11.393c-1.863-.975-3.92-1.473-5.956-1.473v-114.468c4.57 0 9.118 2.361 11.479 7.126l10.808 21.919c1.862 3.769 5.479 6.389 9.638 6.996l24.193 3.509c10.483 1.516 14.685 14.425 7.083 21.811z" fill="#ec781b"/></svg>