<svg id="Capa_1" enable-background="new 0 0 512 512" height="512" viewBox="0 0 512 512" width="512" xmlns="http://www.w3.org/2000/svg"><g><g><path d="m0 256c0 43.79 11 85.02 30.39 121.07l225.61 49.67 225.61-49.67c19.39-36.05 30.39-77.28 30.39-121.07 0-46.63-12.47-90.34-34.26-128-41.698 72.091-399.22 76.52-443.48 0-21.79 37.66-34.26 81.37-34.26 128z" fill="#79ce8b"/><path d="m34.26 128c44.26 76.52 126.99 128 221.74 128s177.48-51.48 221.74-128c-.01-.02-.03-.05-.04-.07-44.27-76.48-126.98-127.93-221.7-127.93s-177.43 51.45-221.7 127.93c-.01.02-.03.05-.04.07z" fill="#a9eb58"/><path d="m30.39 377.07c43.19 80.32 128.02 134.93 225.61 134.93s182.42-54.61 225.61-134.93z" fill="#599d8a"/></g><g><path d="m362.047 177.415c0 18.843-15.277 34.12-34.12 34.12h-143.865c-9.426 0-17.949-3.819-24.125-9.995s-9.995-14.709-9.995-24.125c0-15.176 9.914-28.036 23.617-32.464-3.2-4.571-5.089-10.127-5.089-16.131 0-15.552 12.606-28.157 28.157-28.157h9.955c-.589-2.285-.914-4.673-.914-7.141 0-15.552 12.606-28.157 28.157-28.157h44.339c7.781 0 14.81 3.149 19.909 8.248s8.248 12.128 8.248 19.909c0 2.468-.325 4.855-.925 7.141h9.965c15.552 0 28.157 12.606 28.157 28.157 0 6.003-1.889 11.56-5.089 16.131 6.857 2.214 12.758 6.531 16.943 12.2 4.197 5.668 6.675 12.676 6.675 20.264z" fill="#d95f91"/><path d="m362.047 177.415c0 18.843-15.277 34.12-34.12 34.12h-71.927v-146.17h22.164c7.781 0 14.81 3.149 19.909 8.248s8.248 12.128 8.248 19.909c0 2.468-.325 4.855-.925 7.141h9.965c15.552 0 28.157 12.606 28.157 28.157 0 6.003-1.889 11.56-5.089 16.131 6.857 2.214 12.758 6.531 16.943 12.2 4.197 5.668 6.675 12.676 6.675 20.264z" fill="#c02e71"/><g><path d="m306.322 141.152v15.237h-15.887c-14.79 0-26.816 12.037-26.816 26.817v10.676h-15.237v-10.676c0-14.78-12.027-26.817-26.816-26.817h-15.887v-15.237h15.887c14.231 0 26.816 7.11 34.435 17.959 7.618-10.849 20.204-17.959 34.435-17.959z" fill="#a8306e"/><path d="m279.942 127.315c0-10.495 8.539-19.034 19.034-19.034h6.426v-15.236h-6.426c-18.897 0-34.271 15.374-34.271 34.27v1.506h15.237z" fill="#815"/><path d="m232.058 127.315v1.506h15.237v-1.506c0-18.897-15.374-34.27-34.271-34.27h-6.426v15.237h6.426c10.495 0 19.034 8.538 19.034 19.033z" fill="#a8306e"/></g><path d="m306.322 141.152v15.237h-15.887c-14.79 0-26.816 12.037-26.816 26.817v10.676h-7.619v-34.77c7.618-10.849 20.204-17.959 34.435-17.959h15.887z" fill="#815"/><path d="m399.47 468.04c-40.92 27.75-90.3 43.96-143.47 43.96s-102.55-16.21-143.47-43.96c9.76-28.05 27.52-52.36 50.54-70.2 10.67-8.27 22.48-15.15 35.15-20.37.37-.15.73-.28 1.1-.4 3-.97 6.05-.85 9.15 0 14.95 4.09 30.93 25.34 47.53 25.34s32.58-21.25 47.53-25.34c3.1-.85 6.15-.97 9.15 0 .37.12.73.25 1.1.4v.01c39.98 16.46 71.4 49.5 85.69 90.56z" fill="#8999e5"/><path d="m399.47 468.04c-40.92 27.75-90.3 43.96-143.47 43.96v-109.59c16.6 0 32.58-21.25 47.53-25.34 3.1-.85 6.15-.97 9.15 0 .37.12.73.25 1.1.4v.01c39.98 16.46 71.4 49.5 85.69 90.56z" fill="#546ada"/><path d="m313.775 377.472v.011l-15.993 43.578-41.783 31.975-41.814-32.647-15.961-42.917c17.809-7.33 37.32-11.372 57.775-11.372 20.456 0 39.966 4.043 57.776 11.372z" fill="#e9ecf8"/><path d="m313.77 377.47v.01l-15.99 43.58-41.78 31.98-.01-.01v-86.93h.01c20.45 0 39.97 4.04 57.77 11.37z" fill="#dbdeee"/><path d="m292.301 329.798v36.302c0 20.057-16.255 36.312-36.301 36.312-20.056 0-36.312-16.255-36.312-36.312v-36.301h72.613z" fill="#dfbca3"/><g fill="#cb8f69"><path d="m292.301 329.798v36.302c0 20.057-16.255 36.312-36.301 36.312v-72.613h36.301z"/><path d="m386.714 257.249v7.025c0 25.527-20.687 46.214-46.214 46.214h-66.344v-77.275h88.511c13.284-.001 24.047 10.762 24.047 24.036z"/><path d="m274.156 233.212v77.275h-103.695c-25.517 0-46.203-20.687-46.203-46.214v-7.025c0-13.273 10.763-24.036 24.036-24.036z"/></g><path d="m346.559 187.363v89.848c0 50.015-40.544 90.559-90.559 90.559-50.026 0-90.569-40.543-90.569-90.559v-89.848z" fill="#eed9c8"/><path d="m346.559 187.363v89.848c0 50.015-40.544 90.559-90.559 90.559v-180.407z" fill="#dfbca3"/><path d="m255.999 453.036-13.84 20.648 13.84 27.981 54.888-54.877-14.733-14.733 52.777-34.211c-10.669-8.275-22.482-15.153-35.157-20.372z" fill="#8999e5"/><path d="m255.999 453.036v48.629l-54.888-54.877 14.733-14.733-52.777-34.211c10.669-8.275 22.482-15.153 35.157-20.372z" fill="#a4b5ed"/><path d="m255.995 296.318c-5.518 0-9.992-4.474-9.992-9.992v-32.306c0-5.518 4.474-9.992 9.992-9.992 5.518 0 9.992 4.474 9.992 9.992v32.306c0 5.519-4.474 9.992-9.992 9.992z" fill="#cb8f69"/><g fill="#464652"><circle cx="219.525" cy="257.101" r="13.073"/><circle cx="292.465" cy="257.101" r="13.073"/></g><path d="m223.855 300.493c0 17.753 14.392 32.145 32.145 32.145s32.145-14.392 32.145-32.145z" fill="#fff"/><path d="m288.145 300.493c0 17.76-14.4 32.15-32.15 32.15v-32.15z" fill="#e9ecf8"/><path d="m255.999 402.412 20.106 24.328-20.106 26.296-6.52-25.312z" fill="#a8306e"/><path d="m256 402.412-20.106 24.328 20.105 26.296z" fill="#c02e71"/><g><path d="m149.942 187.363h21.681v46.074h-21.681z" fill="#616578"/><path d="m340.367 187.363h21.681v46.074h-21.681z" fill="#464652"/></g><g fill="#815"><path d="m390.759 152.887h51.659v20h-51.659z"/><g><path d="m396.174 186.357h20v43.6h-20z" transform="matrix(.707 -.707 .707 .707 -28.223 348.18)"/><path d="m384.374 107.617h43.6v20h-43.6z" transform="matrix(.707 -.707 .707 .707 35.801 321.664)"/></g><path d="m69.572 152.887h51.659v20h-51.659z"/><g><path d="m84.016 198.157h43.6v20h-43.6z" transform="matrix(.707 -.707 .707 .707 -116.196 135.789)"/><path d="m95.816 95.817h20v43.6h-20z" transform="matrix(.707 -.707 .707 .707 -52.175 109.27)"/></g></g></g></g></svg>