<svg id="Capa_1" enable-background="new 0 0 512 512" height="512" viewBox="0 0 512 512" width="512" xmlns="http://www.w3.org/2000/svg"><g><g><path d="m512 256c0 141.387-114.613 256-256 256s-256-114.613-256-256 114.613-256 256-256 256 114.613 256 256zm0 0" fill="#afe8fd"/><path d="m512 256c0 26.051-3.891 51.191-11.129 74.871-5.031 16.469-11.672 32.231-19.75 47.109-8.25 15.2-18 29.461-29.051 42.61-.582.691-1.16 1.379-1.75 2.058-46.941 54.704-116.59 89.352-194.32 89.352s-147.379-34.648-194.309-89.352c-.589-.687-1.179-1.378-1.75-2.07-11.062-13.137-20.812-27.398-29.05-42.598-3.289-6.031-6.332-12.21-9.121-18.531-14-31.629-21.77-66.629-21.77-103.449 0-46.219 12.25-89.57 33.68-127 44.121 77.07 127.16 129 222.32 129s178.211-51.93 222.32-129c21.43 37.43 33.68 80.781 33.68 127zm0 0" fill="#64b0fb"/><path d="m481.262 377.699c-7.16 13.223-15.434 25.742-24.723 37.43-8.437 10.633-17.719 20.57-27.719 29.723-45.539 41.699-106.211 67.148-172.82 67.148s-127.281-25.449-172.82-67.148c-10-9.153-19.282-19.09-27.719-29.723-9.289-11.688-17.563-24.207-24.723-37.43zm0 0" fill="#1394fb"/></g><g><path d="m382.328 477.547v-22.969l-172.266-45.938 45.938 103.36c45.931 0 89.03-12.106 126.298-33.286.013-.388.03-.776.03-1.167z" fill="#16202d"/><path d="m129.672 454.578v22.969c0 .391.017.779.03 1.167 37.268 21.18 80.367 33.286 126.298 33.286v-103.359z" fill="#486385"/><path d="m189.008 454.578v22.969c0 12.494 6.685 23.454 16.665 29.495 16.274 3.244 33.099 4.958 50.327 4.958v-103.359z" fill="#2d3e53"/><path d="m347.875 120h-11.484l-126.328 57.422 45.937 277.156h126.328v-300.125c0-18.998-15.456-34.453-34.453-34.453z" fill="#bfebff"/><path d="m175.609 120h-11.484c-18.997 0-34.453 15.455-34.453 34.453v300.125h126.328v-277.156z" fill="#dff5ff"/><path d="m189.373 129.831-13.764-9.831h-11.484c-18.997 0-34.453 15.455-34.453 34.453v300.125h59.701z" fill="#fff"/><path d="m336.391 120h-80.391l-38.281 28.711 38.281 28.711h45.938z" fill="#16202d"/><path d="m175.609 120 34.453 57.422h45.938v-57.422z" fill="#2d3e53"/><path d="m175.609 362.703v57.422h53.594l22.969-80.391z" fill="#7397b8"/><path d="m282.797 420.125h53.594v-57.422l-76.563-22.969z" fill="#2d3e53"/><path d="m233.031 339.734 22.969 80.391h26.797v-80.391z" fill="#435d7a"/><path d="m229.203 339.734h26.797v80.391h-26.797z" fill="#5a7ba0"/><path d="m256 211.875-45.938 75.414 45.938 75.414h80.391v-150.828z" fill="#7ed7ff"/><path d="m175.609 211.875h80.391v150.828h-80.391z" fill="#bfebff"/><path d="m175.609 211.875h40.195v150.828h-40.195z" fill="#def5ff"/></g></g></svg>