<?xml version="1.0" encoding="iso-8859-1"?>
<!-- Generator: Adobe Illustrator 19.0.0, SVG Export Plug-In . SVG Version: 6.00 Build 0)  -->
<svg version="1.1" id="Capa_1" xmlns="http://www.w3.org/2000/svg" xmlns:xlink="http://www.w3.org/1999/xlink" x="0px" y="0px"
	 viewBox="0 0 512 512" style="enable-background:new 0 0 512 512;" xml:space="preserve">
<path style="fill:#EA4444;" d="M256,0c141.385,0,256,114.615,256,256S397.385,512,256,512S0,397.385,0,256S114.615,0,256,0z"/>
<path style="fill:#FFE1A8;" d="M348.274,277.343c-28.652,34.642-47.065,76.594-53.733,121.052L294,402h-16H178h-16l-0.54-3.599
	c-6.741-44.941-26.001-86.885-54.643-122.167c-22.016-27.12-35.111-61.773-34.813-99.497
	c0.681-86.085,71.823-155.759,157.904-154.726C315.186,23.034,384,92.481,384,178C384,215.749,370.589,250.363,348.274,277.343z"/>
<path style="fill:#FFD98F;" d="M196.46,398.401L197,402h-19h-16l-0.54-3.599c-6.741-44.941-26.001-86.885-54.643-122.167
	c-22.016-27.12-35.111-61.773-34.813-99.497c0.681-86.085,71.823-155.759,157.904-154.726c5.293,0.063,10.522,0.392,15.675,0.97
	c-77.153,8.679-137.95,74.208-138.579,153.756c-0.298,37.724,12.797,72.377,34.813,99.497
	C170.459,311.516,189.719,353.46,196.46,398.401z"/>
<path style="fill:#FFE7BF;" d="M228,52c69.036,0,125,55.964,125,125s-55.964,125-125,125s-125-55.964-125-125S158.964,52,228,52z"/>
<path style="fill:#F8BB5E;" d="M228,172c-19.299,0-35,15.701-35,35v210c0,19.299,15.701,35,35,35s35-15.701,35-35V207
	C263,187.701,247.299,172,228,172z M243,417c0,8.271-6.729,15-15,15s-15-6.729-15-15V207c0-8.271,6.729-15,15-15s15,6.729,15,15V417
	z"/>
<path style="fill:#B6C4CF;" d="M167,392h122c8.284,0,15,6.716,15,15v10c0,6.897-4.661,12.691-11,14.444v1.112
	c6.339,1.753,11,7.547,11,14.444v10c0,8.284-6.716,15-15,15h-0.989c-8.643,20.723-27.704,36.008-50.641,39.321
	c-12.495-0.899-24.737-2.701-36.671-5.329c-14.711-6.823-26.447-18.977-32.709-33.992H167c-8.284,0-15-6.716-15-15v-10
	c0-6.897,4.661-12.691,11-14.444v-1.112c-6.339-1.753-11-7.547-11-14.444v-10C152,398.716,158.716,392,167,392z"/>
<path style="fill:#9FACBA;" d="M167,392h43c-8.284,0-15,6.716-15,15v10c0,5.79,3.291,10.792,8.095,13.289h64.55
	c4.338,0,7.855,3.517,7.855,7.855S271.983,446,267.645,446h-72.603c-0.022,0.331-0.042,0.663-0.042,1v10c0,8.284,6.716,15,15,15
	h0.989c6.099,14.623,20.982,29.699,35.84,37.212c-3.065,0.927-6.222,1.641-9.46,2.109c-12.495-0.899-24.737-2.701-36.671-5.329
	c-14.711-6.823-26.447-18.977-32.709-33.992H167c-8.284,0-15-6.716-15-15v-10c0-6.897,4.661-12.691,11-14.444v-1.112
	c-6.339-1.753-11-7.547-11-14.444v-10C152,398.716,158.716,392,167,392z"/>
<path style="fill:#00D3B4;" d="M358.908,261.816c69.087,0,125.092,56.006,125.092,125.092S427.994,512,358.908,512
	s-125.092-56.006-125.092-125.092S289.821,261.816,358.908,261.816z"/>
<path style="fill:#00B7A0;" d="M369.955,511.501c-3.641,0.32-7.323,0.499-11.047,0.499c-69.087,0-125.092-56.006-125.092-125.092
	s56.006-125.092,125.092-125.092c3.724,0,7.406,0.179,11.047,0.499C306.087,267.951,256,321.576,256,386.908
	S306.087,505.865,369.955,511.501z"/>
<path style="fill:#FFF5F5;" d="M435.408,386.908c0,20.776-8.188,40.214-23.053,54.733c-14.415,14.078-33.327,21.767-53.43,21.767
	c-0.622,0-1.244-0.007-1.868-0.022c-19.849-0.469-38.524-8.597-52.588-22.886c-14.062-14.287-21.896-33.091-22.059-52.948
	c-0.199-24.145,11.214-47.241,30.529-61.781c3.339-2.514,7.73-2.92,11.463-1.058c3.704,1.848,6.005,5.571,6.005,9.717
	c0,3.402-1.604,6.635-4.292,8.649c-13.955,10.455-21.958,26.43-21.958,43.829c0,29.647,24.106,54.204,53.738,54.741
	c14.707,0.267,28.627-5.315,39.244-15.714c10.611-10.392,16.478-24.197,16.518-38.873c0.048-17.45-7.947-33.476-21.937-43.966
	c-2.701-2.026-4.313-5.266-4.313-8.665v-0.004c0-4.143,2.297-7.862,5.995-9.706c3.742-1.864,8.149-1.454,11.504,1.075
	C424.291,340.401,435.408,362.676,435.408,386.908z M358.908,383.408c6.341,0,11.5-5.159,11.5-11.5v-60
	c0-6.341-5.159-11.5-11.5-11.5s-11.5,5.159-11.5,11.5v60C347.408,378.249,352.567,383.408,358.908,383.408z"/>
<g>
</g>
<g>
</g>
<g>
</g>
<g>
</g>
<g>
</g>
<g>
</g>
<g>
</g>
<g>
</g>
<g>
</g>
<g>
</g>
<g>
</g>
<g>
</g>
<g>
</g>
<g>
</g>
<g>
</g>
</svg>
