<svg id="Capa_1" enable-background="new 0 0 512 512" height="512" viewBox="0 0 512 512" width="512" xmlns="http://www.w3.org/2000/svg"><path d="m511.981 252.877c.904 75.867-31.202 144.261-82.861 191.703-111.341 43.361-234.899 43.36-346.24 0-50.95-46.79-82.88-113.96-82.88-188.58 0-141.192 114.316-255.695 255.437-255.999 140.849-.304 254.865 112.037 256.544 252.876z" fill="#22d7ff"/><path d="m512 256c0 74.62-31.93 141.79-82.88 188.58-111.341 43.361-234.899 43.36-346.24 0-50.95-46.79-82.88-113.96-82.88-188.58 0-46.22 12.25-89.57 33.68-127 44.12 77.07 127.16 129 222.32 129s178.21-51.93 222.32-129c21.43 37.43 33.68 80.78 33.68 127z" fill="#00b3fe"/><path d="m132.77 81.05v399.38c-5.51-3.02-10.89-6.25-16.13-9.66-11.98-7.79-23.27-16.56-33.76-26.19v-331.91c0-17.47 14.16-31.62 31.63-31.62z" fill="#234177"/><path d="m155.159 81.046h-40.653c-17.464 0-31.622 14.158-31.622 31.622v18.263h75.796l29.481 86.019h52.733l-33.883-98.862c-7.595-22.158-28.43-37.042-51.852-37.042z" fill="#374c81"/><path d="m429.12 112.67v331.91c-10.49 9.63-21.78 18.4-33.76 26.19-5.25 3.41-10.63 6.64-16.13 9.66v-399.38h18.27c17.46 0 31.62 14.15 31.62 31.62z" fill="#16325b"/><path d="m429.116 112.666v18.264h-75.796l-29.481 86.02h-52.73l33.883-98.862c7.594-22.158 28.429-37.041 51.851-37.041h40.653c17.464 0 31.62 14.156 31.62 31.619z" fill="#234177"/><path d="m299.51 164.27-4.27 22.15h-27.72l5.26-27.3c1.33-6.88-1.69-11.8-3.6-14.11-1.92-2.32-6.17-6.21-13.18-6.21s-11.26 3.89-13.18 6.21c-1.91 2.31-4.93 7.23-3.6 14.11l5.26 27.3h-27.72l-4.27-22.15c-.55-2.86-.82-5.69-.82-8.48 0-23.88 19.4-44.21 44.33-44.21 27.84 0 48.78 25.36 43.51 52.69z" fill="#234177"/><path d="m299.51 164.27-4.27 22.15h-27.72l5.26-27.3c1.33-6.88-1.69-11.8-3.6-14.11-1.92-2.32-6.17-6.21-13.18-6.21v-27.22c27.84 0 48.78 25.36 43.51 52.69z" fill="#16325b"/><path d="m395.36 249.39v221.38c-40.1 26.08-87.96 41.23-139.36 41.23-24.15 0-47.53-3.35-69.68-9.6-24.99-7.06-48.43-17.81-69.68-31.63v-221.38c0-43.07 34.91-77.98 77.99-77.98h122.74c43.08 0 77.99 34.91 77.99 77.98z" fill="#ffe400"/><path d="m395.36 249.39v221.38c-40.1 26.08-87.96 41.23-139.36 41.23-24.15 0-47.53-3.35-69.68-9.6v-253.01c0-43.07 48.14-77.98 69.68-77.98h61.37c43.08 0 77.99 34.91 77.99 77.98z" fill="#ffce00"/><path d="m395.36 249.39v221.38c-40.1 26.08-87.96 41.23-139.36 41.23v-340.59h61.37c43.08 0 77.99 34.91 77.99 77.98z" fill="#ffb600"/><path d="m368.901 384.185v71.368c0 10.773-8.733 19.507-19.518 19.507h-186.765c-10.785 0-19.518-8.734-19.518-19.507v-71.368c0-30.316 24.569-54.885 54.873-54.885h116.056c30.302 0 54.872 24.57 54.872 54.885z" fill="#374c81"/><path d="m368.901 384.185v71.368c0 10.773-8.733 19.507-19.518 19.507h-93.383v-145.76h58.028c30.303 0 54.873 24.57 54.873 54.885z" fill="#234177"/><path d="m337.05 392.043v83.017h-162.1v-83.017c0-17.875 14.48-32.355 32.343-32.355h97.413c17.864 0 32.344 14.48 32.344 32.355z" fill="#ffb600"/><path d="m375.66 245.66c-6.44-30.72-33.69-53.8-66.33-53.8h-106.66c-32.64 0-59.89 23.08-66.33 53.8-1.5 7.2 3.95 13.97 11.31 13.97 2.8 0 5.41-1 7.44-2.69 2.02-1.7 3.47-4.08 3.93-6.84 1.28-7.58 6.19-14.95 13.09-21.03 8.16-8.17 19.02-12.66 30.56-12.66h106.22c11.69 0 22.98 4.53 31.19 12.84 5.87 5.95 9.82 13.29 11.52 21.28 1.14 5.33 5.91 9.1 11.36 9.1h1.39c7.36 0 12.81-6.77 11.31-13.97z" fill="#234177"/><path d="m337.05 392.043v83.017h-81.05v-115.372h48.707c17.863 0 32.343 14.48 32.343 32.355z" fill="#ec781b"/><path d="m364.35 259.63h-1.39c-5.45 0-10.22-3.77-11.36-9.1-1.7-7.99-5.65-15.33-11.52-21.28-8.21-8.31-19.5-12.84-31.19-12.84h-52.89v-24.55h53.33c32.64 0 59.89 23.08 66.33 53.8 1.5 7.2-3.95 13.97-11.31 13.97z" fill="#16325b"/></svg>