<svg id="Icons" enable-background="new 0 0 512 512" height="512" viewBox="0 0 512 512" width="512" xmlns="http://www.w3.org/2000/svg"><g><circle cx="256" cy="256" fill="#57409b" r="256"/><path d="m414.59 256c0-87.587-71.003-158.59-158.59-158.59-210.367 8.353-210.307 308.859.001 317.181 87.586-.001 158.589-71.004 158.589-158.591z" fill="#6052a3"/><g><g><g><path d="m386.611 137.479c-.23 6.656-9.803 6.522-9.977 0 0-29.98-16.681-47.558-36.464-54.262-21.311-7.315-46.171-1.683-61.884 14.067-12.95 12.76-19.803 31.236-19.803 53.434v210.564c0 24.921-7.881 45.862-22.786 60.547-24.399 24.981-69.2 27.282-94.946 2.963-13.329-12.33-20.372-29.709-20.372-50.271.226-6.65 9.802-6.527 9.977 0 .416 37.469 24.991 56.647 55.718 57.425 38.18-.206 63.169-31.585 62.433-70.664.001 0 .001-210.564.001-210.564-.917-102.756 136.623-107.489 138.103-13.239z" fill="#c1b7d3"/></g><path d="m258.483 277.679v83.603c0 24.921-7.881 45.862-22.786 60.547-17.459 17.481-44.254 24.128-67.95 17.708-2.444-4.15-4.609-8.48-6.475-12.959 22.312 10.309 50.097 5.461 67.431-11.862 12.95-12.76 19.803-31.236 19.803-53.434v-82.955c3.283-.379 6.605-.598 9.977-.648z" fill="#ebd9ea"/><path d="m340.171 83.217c-21.336-7.278-45.998-1.782-61.884 14.067-12.95 12.76-19.803 31.236-19.803 53.434v77.029c-3.272.578-6.604.998-9.977 1.267v-78.296c0-24.921 7.881-45.862 22.786-60.547 16.324-16.302 40.763-23.295 63.49-18.745 2.036 3.8 3.831 7.731 5.388 11.791z" fill="#ebd9ea"/><g fill="#fff"><path d="m295.316 85.551c-24.78 11.709-36.689 35.265-36.833 65.166v18.337c-3.422-.06-6.764-.469-9.977-1.187v-17.15c.141-32.189 12.764-57.923 38.539-72.19 3.014 2.036 5.787 4.39 8.271 7.024z"/><path d="m258.483 353.969c1.944 38.705-14.546 72.905-50.401 84.551-4.21-1.936-8.101-4.44-11.583-7.433 33.286-5.874 52.314-34.473 52.007-69.806v-13.129c3.562 1.547 6.914 3.513 9.977 5.817z"/></g></g><g><g><path d="m451.524 176.573v102.349c0 10.506-2.315 20.462-6.465 29.401-11.104 23.924-35.327 40.504-63.431 40.504-38.603.006-69.906-31.292-69.905-69.905v-102.349c0-11.693 5.238-22.168 13.508-29.192 6.674-5.686 15.334-9.119 24.802-9.119h63.181c21.16 0 38.31 17.16 38.31 38.311z" fill="#c2aacf"/></g><g><path d="m451.524 176.573v102.349c0 10.506-2.315 20.462-6.465 29.401-.738.798-1.486 1.586-2.255 2.354-43.132 43.648-119.527 12.725-119.339-49.434v-102.338c0-4.011.619-7.882 1.766-11.523 6.674-5.686 15.334-9.119 24.802-9.119h63.181c21.16-.001 38.31 17.159 38.31 38.31z" fill="#ebd9ea"/></g><g><g><path d="m375.604 138.267h12.039v98.841h-12.039z" fill="#c2aacf"/></g><g><path d="m375.604 167.206h12.039v139.806h-12.039z" fill="#c2aacf" transform="matrix(0 -1 1 0 144.515 618.732)"/></g></g><g><g><path d="m400.604 171.434c-.123 2.507.353 26.387-.379 28.214-1.715 8.65-9.41 15.233-18.596 15.224-10.543.063-19.042-8.731-18.985-18.975v-24.463c-.01-2.879.668-5.773 1.896-8.26 8.991-17.968 35.728-11.957 36.064 8.26z" fill="#57409b"/></g><g><path d="m400.604 171.434c-.2 3.503.541 26.235-.579 29.112-8.32 8.473-23.116 4.911-26.697-6.395-.519-1.576-.798-3.263-.798-5.008v-20.771c-.004-3.755 1.302-7.366 3.651-10.206 2.165-2.654 5.168-4.609 8.61-5.447.778.13 1.536.309 2.275.529 7.882 2.251 13.646 9.988 13.538 18.186z" fill="#6052a3"/></g><g><path d="m362.643 182.153h37.961v5.011h-37.961z" fill="#57409b"/></g><g><path d="m400.604 171.434v3.731h-37.961c.012-.957-.034-4.107.04-5.008h37.871c.04.42.05.849.05 1.277z" fill="#57409b"/></g><g><path d="m398.718 163.174h-34.179c.888-1.855 2.085-3.552 3.512-5.008h27.136c1.447 1.452 2.629 3.152 3.531 5.008z" fill="#57409b"/></g><g><path d="m400.604 194.151c.007 1.618.028 3.422-.289 5.008h-37.382c-.309-1.55-.303-3.404-.289-5.008z" fill="#57409b"/></g><g><path d="m395.266 169.23v21.061c0 1.426-.449 2.764-1.207 3.861-3.697 5.473-12.456 2.785-12.441-3.861v-21.061c.297-9.016 13.368-8.998 13.648 0z" fill="#9175a7"/></g></g><g><g><path d="m381.618 182.149h13.648v5.018h-13.648z" fill="#6c53a2"/></g><g><path d="m381.618 170.158h13.648v5.008h-13.648z" fill="#6c53a2"/></g><g><path d="m391.565 163.174h-6.245c1.845-1.003 4.4-1.003 6.245 0z" fill="#6c53a2"/></g><g><path d="m394.059 194.151c-2.455 3.891-8.774 3.89-11.234 0z" fill="#6c53a2"/></g></g><g><path d="m424.877 213.77c-6.887 0-12.471-5.583-12.471-12.471v-26.698c.666-16.54 24.272-16.549 24.941 0v26.698c.001 6.887-5.582 12.471-12.47 12.471z" fill="#fff"/></g><g><path d="m343.172 213.77c-6.887 0-12.471-5.583-12.471-12.471v-26.698c.666-16.54 24.272-16.549 24.941 0v26.698c.001 6.887-5.582 12.471-12.47 12.471z" fill="#fff"/></g><g><path d="m385.32 318.8c-16.535-.656-16.545-24.283 0-24.941 17.567 0 27.087-5.413 27.087-33.966 0-6.887 5.583-12.471 12.471-12.471 6.887 0 12.471 5.584 12.471 12.471.386 35.939-14.98 58.725-52.029 58.907z" fill="#fff"/></g></g><g id="Lightbulb_5_"><g><path d="m188.724 202.6c.153 19.027-11.32 32.689-19.564 48.226-3.893 7.397-14.22 38.707-14.424 39.935h-60.259s-10.651-34.531-16.924-44.701c-8.289-13.365-17.059-26.669-17.079-43.459-.055-35.097 28.505-64.132 64.125-64.125 34.706-.266 64.389 28.737 64.125 64.124z" fill="#daab42"/><path d="m85.487 202.6c0 13.834-4.379 26.659-11.847 37.14-6.878-11.257-13.167-23.01-13.167-37.14 0-14.238 4.642-27.405 12.514-38.04 7.858 10.635 12.5 23.802 12.5 38.04z" fill="#c4983d"/><path d="m188.724 202.6c.153 19.026-11.32 32.69-19.564 48.226-2.018 4.301-4.223 9.968-6.303 15.682-78.294 4.16-96.117-104.088-21.752-125.875 27.737 7.407 47.595 32.449 47.619 61.967z" fill="#f9c744"/><path d="m188.724 202.6c.154 19.025-11.32 32.691-19.564 48.226-28.605-24.629-29.028-70.286-1.133-95.411 12.731 11.722 20.697 28.522 20.697 47.185z" fill="#f8d07a"/><path d="m178.61 188.763c0-14.532-11.78-26.312-26.312-26.312-34.902 1.386-34.892 51.243 0 52.624 14.532 0 26.312-11.78 26.312-26.312z" fill="#fbd9a3"/><path d="m188.724 202.6c.153 19.027-11.32 32.689-19.564 48.226-3.893 7.397-14.22 38.707-14.424 39.935h-60.259s-10.651-34.531-16.924-44.701c-8.289-13.365-17.059-26.669-17.079-43.459-.055-35.097 28.505-64.132 64.125-64.125 34.706-.266 64.389 28.737 64.125 64.124z" fill="none"/></g><g><path d="m147.314 344.249v9.114c0 9.456-5.792 17.576-14.005 20.992-14.554 6.287-31.667-5.039-31.41-20.992v-9.114z" fill="#2e3140"/><path d="m147.314 344.249v9.114c0 9.456-5.792 17.576-14.005 20.992-8.229-3.416-14.021-11.521-14.021-20.992v-9.114z" fill="#3e4e60"/><path d="m147.314 344.249v9.114c0 9.456-5.792 17.576-14.005 20.992-14.554 6.287-31.667-5.039-31.41-20.992v-9.114z" fill="none"/></g><g><path d="m114.541 246.331h20.129v44.43h-20.129z" fill="#bf5e39"/><path d="m124.605 246.331h10.065v44.43h-10.065z" fill="#dd5e26"/></g><g><path d="m154.348 233.793c.055 6.76-5.582 12.581-12.546 12.546h-34.391c-3.462 0-6.599-1.413-8.866-3.68-7.838-7.736-2.291-21.44 8.866-21.411h34.391c6.921.007 12.551 5.622 12.546 12.545z" fill="#bf5e39"/><path d="m154.348 233.793c0 1.242-.171 2.438-.512 3.556h-32.576c-8.239.143-14.469-8.27-12.033-16.101h32.575c6.921.007 12.551 5.622 12.546 12.545z" fill="#dd5e26"/><path d="m150.668 224.927c3.136 2.988 4.521 8.133 3.167 12.421h-11.66c-8.241.147-14.46-8.273-12.018-16.101h11.645c3.463 0 6.599 1.413 8.866 3.68z" fill="#ea792e"/><path d="m154.348 233.793c.055 6.76-5.582 12.581-12.546 12.546h-34.391c-3.462 0-6.599-1.413-8.866-3.68-7.838-7.736-2.291-21.44 8.866-21.411h34.391c6.921.007 12.551 5.622 12.546 12.545z" fill="none"/></g><g><path d="m172.312 307.544c.052 9.129-9.685 10.808-16.769 16.769-1.397 1.196-1.196 7.22-1.196 7.22 0 16.427-13.322 29.749-29.749 29.749-16.482.111-29.854-13.723-29.733-29.749 0 0 .202-6.024-1.196-7.22-7.065-5.993-16.769-7.515-16.769-16.769 0-9.269 7.499-16.784 16.769-16.784h61.874c9.27 0 16.769 7.515 16.769 16.784z" fill="#c1b7d3"/><path d="m172.281 307.544c.145 9.124-9.689 10.812-16.738 16.769-1.397 1.196-1.196 7.22-1.196 7.22 0 16.427-13.322 29.749-29.749 29.749-16.482.111-29.854-13.723-29.733-29.749 0 0 .202-6.024-1.196-7.22-7.065-5.993-16.769-7.515-16.769-16.769z" fill="#aea7b9"/><path d="m134.675 307.544s-4.984 35.867-36.969 36.689c-1.817-3.851-2.841-8.151-2.841-12.701 0 0 .202-6.024-1.196-7.22-7.065-5.993-16.769-7.515-16.769-16.769h57.775z" fill="#9f90ae"/><path d="m120.189 299.144c0 4.642-3.757 8.4-8.384 8.4h-34.904c0-9.269 7.499-16.784 16.769-16.784h18.135c4.627 0 8.384 3.757 8.384 8.384z" fill="#aea7b9"/><path d="m142.811 342.852c0 3.4-2.764 6.164-6.18 6.164h-36.084c-2.657-3.648-4.448-7.837-5.232-12.344h41.316c3.417 0 6.18 2.764 6.18 6.18z" fill="#c1b7d3"/><g fill="#ebd9ea"><path d="m130.486 349.019h-3.938c-3.408 0-6.17-2.762-6.17-6.17s2.762-6.17 6.17-6.17h3.938c8.167.282 8.167 12.059 0 12.34z"/><path d="m152.426 303.101h-18.73c-3.408 0-6.17-2.762-6.17-6.17s2.762-6.17 6.17-6.17h18.73c8.163.279 8.17 12.057 0 12.34z"/></g></g></g></g></g></svg>