<svg id="Capa_1" enable-background="new 0 0 512 512" height="512" viewBox="0 0 512 512" width="512" xmlns="http://www.w3.org/2000/svg"><g><g><path d="m256 320.552c-141.387 0-244.873-150.009-225.275-186.208 43.298-79.975 127.942-134.292 225.275-134.292 97.204 0 181.752 54.173 225.103 133.974 19.704 36.274-83.716 186.526-225.103 186.526z" fill="#e38031"/><path d="m512 256.052c0 26.051-3.891 51.191-11.129 74.871-5.031 16.469-11.672 32.231-19.75 47.109-8.25 15.2-147.391 56.85-225.121 56.85s-216.871-41.65-225.109-56.85c-3.289-6.031-6.332-12.21-9.121-18.531-14-31.629-21.77-66.629-21.77-103.449 0-46.219 12.25-89.57 33.68-127 44.121 77.07 127.16 129 222.32 129s178.211-51.93 222.32-129c21.43 37.43 33.68 80.781 33.68 127zm0 0" fill="#d85819"/><path d="m481.262 377.751c-7.16 13.223-15.434 25.742-24.723 37.43-8.437 10.633-17.719 20.57-27.719 29.723-45.539 41.699-300.101 41.699-345.64 0-10-9.153-19.282-19.09-27.719-29.723-9.289-11.688-17.563-24.207-24.723-37.43zm0 0" fill="#bd4911"/></g><g><path d="m406.125 298.293-42.515-28.032h-180.743l73.133 241.687h7.144c66.499-1.822 126.653-29.009 171.161-72.225v-89.096c0-21.136-10.534-40.7-28.18-52.334z" fill="#135dd9"/><path d="m381.371 155.337h-41.79l-41.791 94.029h83.581z" fill="#16202d"/><path d="m297.79 155.337-41.79 94.029h83.581v-94.029z" fill="#002bad"/><path d="m256 155.337-41.79 94.029h83.58v-94.029z" fill="#16202d"/><path d="m214.21 155.337-41.791 94.029h83.581v-94.029z" fill="#002bad"/><path d="m130.629 155.337v94.029h83.581l-41.791-94.029z" fill="#002bad"/><path d="m172.419 155.337h41.79v94.028h-41.79z" fill="#135dd9"/><path d="m248.856 511.948h7.144v-241.687h-107.61l-42.515 28.032c-17.645 11.634-28.18 31.198-28.18 52.334v89.096c44.508 43.216 104.662 70.403 171.161 72.225z" fill="#1394fb"/><path d="m105.875 298.293c-17.645 11.634-28.18 31.198-28.18 52.334v89.096c29.124 28.279 64.948 49.686 104.868 61.62v-231.082h-34.173z" fill="#289ded"/><path d="m394.624 315.738-21.437-14.134h-160.165l42.978 189.449h101.663c20.04-8.681 38.754-19.841 55.747-33.109v-107.317c0-14.091-7.023-27.133-18.786-34.889z" fill="#002bad"/><path d="m154.337 491.053h101.663v-189.449h-117.187l-21.437 14.134c-11.764 7.756-18.786 20.799-18.786 34.889v107.317c16.993 13.267 35.707 24.428 55.747 33.109z" fill="#135dd9"/><path d="m117.376 315.738c-11.764 7.756-18.787 20.799-18.787 34.889v107.317c16.993 13.268 35.707 24.428 55.747 33.109h28.21v-189.449h-43.734z" fill="#1b6fcf"/><path d="m381.371 238.918h-125.371l-31.343 21.867 31.343 19.923h125.371c11.54 0 20.895-9.355 20.895-20.895s-9.355-20.895-20.895-20.895z" fill="#1394fb"/><path d="m130.629 238.918c-11.54 0-20.895 9.355-20.895 20.895s9.355 20.895 20.895 20.895h125.371v-41.79z" fill="#33b6f2"/><path d="m186.742 238.918c-11.54 0-20.895 9.355-20.895 20.895s9.355 20.895 20.895 20.895h69.258v-41.79z" fill="#64b0fb"/><path d="m256 345.001-41.79 51.079 41.79 51.079c12.251 0 24.502 1.932 36.161 5.798l45.414 15.055c4.38 1.452 8.852 2.167 13.282 2.167 8.611 0 17.06-2.703 24.33-7.953 11.011-7.951 17.327-20.3 17.327-33.882v-83.343z" fill="#16202d"/><path d="m119.485 345.001v83.343c0 13.582 6.315 25.931 17.327 33.882 11.012 7.95 24.721 10.059 37.613 5.786l45.414-15.055c11.659-3.865 23.91-5.798 36.161-5.798v-102.158z" fill="#002bad"/><path d="m182.543 345.001h-63.058v83.343c0 13.582 6.315 25.931 17.327 33.882 11.012 7.95 24.72 10.059 37.613 5.786l8.109-2.648z" fill="#133fd9"/></g></g></svg>