<svg id="Capa_1" enable-background="new 0 0 512 512" height="512" viewBox="0 0 512 512" width="512" xmlns="http://www.w3.org/2000/svg"><g><g><path d="m0 256c0 43.79 11 85.02 30.39 121.07l225.61 49.67 225.61-49.67c19.39-36.05 30.39-77.28 30.39-121.07 0-46.63-12.47-90.34-34.26-128-41.698 72.091-399.22 76.52-443.48 0-21.79 37.66-34.26 81.37-34.26 128z" fill="#78cd8a"/><path d="m34.26 128c44.26 76.52 126.99 128 221.74 128s177.48-51.48 221.74-128c-.01-.02-.03-.05-.04-.07-44.27-76.48-126.98-127.93-221.7-127.93s-177.43 51.45-221.7 127.93c-.01.02-.03.05-.04.07z" fill="#a8ea58"/><path d="m481.61 377.07c-10.42 19.39-23.27 37.28-38.16 53.26-2.607 2.811-50.856-24.307-53.591-21.618-3.287 3.231 38.912 36.243 35.451 39.288-45.12 39.83-104.39 64-169.31 64s-124.19-24.17-169.31-64c-3.514-3.092 32.941-31.896 29.607-35.18-2.683-2.642-45.188 20.27-47.747 17.51-14.89-15.98-27.74-33.87-38.16-53.26z" fill="#599d89"/></g><g><g><path d="m131.275 129.514h66.573v67.016h-66.573z" fill="#9feafd"/><path d="m164.562 129.514h33.286v67.016h-33.286z" fill="#70c5e8"/><path d="m247.432 225.187c0 23.728-19.239 42.967-42.967 42.967h-79.802c-11.867 0-22.61-4.813-30.385-12.588-7.781-7.775-12.588-18.518-12.588-30.379 0-23.733 19.239-42.973 42.973-42.973h79.802c11.867 0 22.604 4.807 30.379 12.588 7.781 7.775 12.588 18.518 12.588 30.385z" fill="#c3f3ff"/><path d="m213.633 124.127c0 10.144-8.225 18.369-18.376 18.369h-61.394c-5.072 0-9.672-2.055-12.993-5.382-3.328-3.321-5.382-7.915-5.382-12.987 0-10.144 8.225-18.369 18.376-18.369h61.394c5.072 0 9.672 2.055 12.993 5.382 3.328 3.321 5.382 7.915 5.382 12.987z" fill="#c3f3ff"/><path d="m213.633 124.127c0 10.144-8.225 18.369-18.376 18.369h-30.697v-36.738h30.697c5.072 0 9.672 2.055 12.993 5.382 3.329 3.321 5.383 7.915 5.383 12.987z" fill="#9feafd"/><path d="m247.432 225.187c0 23.728-19.239 42.967-42.967 42.967h-39.904v-85.94h39.904c11.867 0 22.604 4.807 30.379 12.588 7.781 7.775 12.588 18.518 12.588 30.385z" fill="#9feafd"/><path d="m232.58 232.17c-3.13 12.61-14.55 21.98-28.12 21.98h-79.8c-7.73 0-15.01-3.01-20.48-8.48-5.48-5.47-8.49-12.75-8.49-20.48 0-2.41.3-4.75.85-6.98 12.93.56 13.21 13.98 26.7 13.98 13.77 0 13.77-14 27.54-14 6.89 0 10.34 3.5 13.78 7s6.88 7 13.77 7c13.78 0 13.78-14 27.55-14 13.49 0 13.77 13.42 26.7 13.98z" fill="#eebf36"/><path d="m232.58 232.17c-3.13 12.61-14.55 21.98-28.12 21.98h-39.9v-28.96c3.44 3.5 6.88 7 13.77 7 13.78 0 13.78-14 27.55-14 13.49 0 13.77 13.42 26.7 13.98z" fill="#e7a340"/></g><g><path d="m315.138 129.514h66.573v67.016h-66.573z" fill="#9feafd"/><path d="m348.424 129.514h33.286v67.016h-33.286z" fill="#70c5e8"/><path d="m431.294 225.187c0 23.728-19.239 42.967-42.967 42.967h-79.802c-11.867 0-22.61-4.813-30.385-12.588-7.781-7.775-12.588-18.518-12.588-30.379 0-23.733 19.239-42.973 42.973-42.973h79.802c11.867 0 22.604 4.807 30.379 12.588 7.781 7.775 12.588 18.518 12.588 30.385z" fill="#c3f3ff"/><path d="m397.496 124.127c0 10.144-8.225 18.369-18.376 18.369h-61.394c-5.072 0-9.672-2.055-12.993-5.382-3.328-3.321-5.382-7.915-5.382-12.987 0-10.144 8.225-18.369 18.376-18.369h61.394c5.072 0 9.672 2.055 12.993 5.382 3.327 3.321 5.382 7.915 5.382 12.987z" fill="#c3f3ff"/><path d="m397.496 124.127c0 10.144-8.225 18.369-18.376 18.369h-30.697v-36.738h30.697c5.072 0 9.672 2.055 12.993 5.382 3.328 3.321 5.383 7.915 5.383 12.987z" fill="#9feafd"/><path d="m431.294 225.187c0 23.728-19.239 42.967-42.967 42.967h-39.904v-85.94h39.904c11.867 0 22.604 4.807 30.379 12.588 7.781 7.775 12.588 18.518 12.588 30.385z" fill="#9feafd"/><path d="m416.442 232.17c-3.13 12.61-14.55 21.98-28.12 21.98h-79.8c-7.73 0-15.01-3.01-20.48-8.48-5.48-5.47-8.49-12.75-8.49-20.48 0-2.41.3-4.75.85-6.98 12.93.56 13.21 13.98 26.7 13.98 13.77 0 13.77-14 27.54-14 6.89 0 10.34 3.5 13.78 7s6.88 7 13.77 7c13.78 0 13.78-14 27.55-14 13.49 0 13.77 13.42 26.7 13.98z" fill="#d75e91"/><path d="m416.442 232.17c-3.13 12.61-14.55 21.98-28.12 21.98h-39.9v-28.96c3.44 3.5 6.88 7 13.77 7 13.78 0 13.78-14 27.55-14 13.49 0 13.77 13.42 26.7 13.98z" fill="#bf2e70"/></g></g><path d="m123.88 294.203h264.24v49.051h-264.24z" fill="#c8cde3"/><path d="m256 294.203h132.12v49.051h-132.12z" fill="#b1b7cb"/><path d="m443.45 400.62v29.71c-5.74 6.19-11.8 12.09-18.14 17.67h-338.62c-6.34-5.58-12.4-11.48-18.14-17.67v-29.71l187.45-22.98z" fill="#616679"/><path d="m443.45 400.62v29.71c-5.74 6.19-11.8 12.09-18.14 17.67h-169.31v-47.38z" fill="#464651"/><path d="m443.45 400.62h-374.9l19.18-73.48h336.54z" fill="#464651"/><path d="m103.18 347.14h116.35l-2.08 33.48h-123.01z" fill="#c3f3ff"/><path d="m443.45 400.62h-187.45v-73.48h168.27z" fill="#2d3041"/><path d="m417.56 380.62h-123.01l-2.08-33.48h116.35z" fill="#c3f3ff"/><path d="m87.734 266.519h337.516v40.754h-337.516z" fill="#e7eaf5"/><path d="m256.492 266.519h168.758v40.754h-168.758z" fill="#d9dced"/><g fill="#a8ea58"><path d="m479.04 290.868-16.122-11.835c11.493-15.656 17.568-34.276 17.568-53.848s-6.075-38.191-17.568-53.848l16.122-11.835c14.03 19.112 21.446 41.825 21.446 65.683s-7.416 46.571-21.446 65.683z"/><path d="m451.496 269.894-16.215-11.708c14.25-19.735 14.249-46.259-.001-66.003l16.217-11.705c19.305 26.746 19.304 62.68-.001 89.416z"/></g><g fill="#78cd8a"><path d="m322.175 51.16-11.835 16.122c-15.656-11.493-34.276-17.568-53.848-17.568s-38.191 6.075-53.848 17.568l-11.835-16.122c19.112-14.03 41.825-21.446 65.683-21.446s46.571 7.416 65.683 21.446z"/><path d="m301.201 78.704-11.708 16.215c-19.735-14.25-46.259-14.249-66.003.001l-11.705-16.217c26.746-19.305 62.68-19.304 89.416.001z"/></g><g fill="#a8ea58"><path d="m33.945 290.868c-14.03-19.112-21.447-41.825-21.447-65.683s7.417-46.571 21.447-65.683l16.122 11.836c-11.494 15.656-17.569 34.276-17.569 53.847s6.075 38.191 17.569 53.847z"/><path d="m61.488 269.894c-19.305-26.736-19.306-62.67-.001-89.417l16.217 11.705c-14.25 19.744-14.25 46.269-.001 66.003z"/></g></g></svg>