<svg id="Capa_1" enable-background="new 0 0 512 512" height="512" viewBox="0 0 512 512" width="512" xmlns="http://www.w3.org/2000/svg"><path d="m512 256c0 141.38-114.62 256-256 256s-256-114.62-256-256c0-43.4 10.8-84.28 29.87-120.09 4.54-8.54 9.55-16.79 15-24.72 46.14-67.15 123.5-111.19 211.13-111.19s164.99 44.04 211.13 111.19c5.45 7.93 10.46 16.18 15 24.72 19.07 35.81 29.87 76.69 29.87 120.09z" fill="#ffe400"/><path d="m512 256c0 57.11-18.7 109.85-50.32 152.44-16.61 22.37-36.78 41.94-59.68 57.87-.63.44-1.26.87-1.89 1.3-34.77 23.72-75.68 39.1-119.86 43.26-7.98.75-16.07 1.13-24.25 1.13s-16.27-.38-24.25-1.13c-44.18-4.16-85.09-19.54-119.86-43.26-.63-.43-1.26-.86-1.89-1.3-22.9-15.93-43.07-35.5-59.68-57.87-31.62-42.59-50.32-95.33-50.32-152.44 0-46.22 12.25-89.57 33.68-127 44.12 77.07 127.16 129 222.32 129s178.21-51.93 222.32-129c21.43 37.43 33.68 80.78 33.68 127z" fill="#ffce00"/><path d="m280.25 407.53v103.34c-7.98.75-16.07 1.13-24.25 1.13s-16.27-.38-24.25-1.13v-103.34z" fill="#4e689b"/><path d="m280.25 407.53v103.34c-7.98.75-16.07 1.13-24.25 1.13v-104.47z" fill="#374c81"/><path d="m68.336 137.428h375.327v299.761h-375.327z" fill="#fff"/><path d="m482.17 137.43c0 8.4-3.41 16.01-8.91 21.51s-13.11 8.91-21.51 8.91h-391.5c-16.8 0-30.42-13.62-30.42-30.42 0-.51.01-1.01.04-1.52 4.54-8.54 9.55-16.79 15-24.72 4.51-2.66 9.77-4.18 15.38-4.18h391.5c5.61 0 10.87 1.52 15.38 4.18 5.45 7.93 10.46 16.18 15 24.72.03.51.04 1.01.04 1.52z" fill="#4e689b"/><path d="m482.17 137.43c0 8.4-3.41 16.01-8.91 21.51s-13.11 8.91-21.51 8.91h-302.63v-60.84h302.63c5.61 0 10.87 1.52 15.38 4.18 5.45 7.93 10.46 16.18 15 24.72.03.51.04 1.01.04 1.52z" fill="#374c81"/><path d="m461.68 408.44c-16.61 22.37-36.78 41.94-59.68 57.87-.63.44-1.26.87-1.89 1.3h-288.22c-.63-.43-1.26-.86-1.89-1.3-22.9-15.93-43.07-35.5-59.68-57.87 3.11-1.09 6.45-1.67 9.93-1.67h391.5c3.48 0 6.82.58 9.93 1.67z" fill="#4e689b"/><path d="m461.68 408.44c-16.61 22.37-36.78 41.94-59.68 57.87-.63.44-1.26.87-1.89 1.3h-250.99v-60.84h302.63c3.48 0 6.82.58 9.93 1.67z" fill="#374c81"/><path d="m461.68 408.44c-16.61 22.37-36.78 41.94-59.68 57.87-.63.44-1.26.87-1.89 1.3h-144.11v-60.84h195.75c3.48 0 6.82.58 9.93 1.67z" fill="#234177"/><path d="m482.17 137.43c0 8.4-3.41 16.01-8.91 21.51s-13.11 8.91-21.51 8.91h-195.75v-60.84h195.75c5.61 0 10.87 1.52 15.38 4.18 5.45 7.93 10.46 16.18 15 24.72.03.51.04 1.01.04 1.52z" fill="#234177"/><path d="m112.559 213.679h286.882v147.259h-286.882z" fill="#d1f6ff"/><g fill="#4d6df4"><path d="m166.916 257.389 8.835 14.293 8.836-14.293h23.648l-19.664 28.933 21.483 31.791h-24.082l-10.222-15.679-10.048 15.679h-23.475l21.31-30.838-20.01-29.886z"/><path d="m278.045 295.677h-13.86v13.859h-12.127v-13.859h-13.86v-12.128h13.86v-13.859h12.127v13.859h13.86z"/><path d="m348.03 299.229v18.884h-20.097v-18.451l-22.176-42.272h20.01l12.214 23.389 11.781-23.389h20.01z"/></g></svg>