<svg id="Capa_1" enable-background="new 0 0 512 512" height="512" viewBox="0 0 512 512" width="512" xmlns="http://www.w3.org/2000/svg"><g><g><path d="m256 295.19c-141.387 0-243.753-128.763-222.328-166.19 44.119-77.07 127.158-129 222.328-129s178.209 51.929 222.328 128.999c21.425 37.427-80.941 166.191-222.328 166.191z" fill="#b196e7"/><path d="m512 256c0 26.051-3.891 51.191-11.129 74.871-5.031 16.469-11.672 32.231-19.75 47.109-8.25 15.2-147.391 47.5-225.121 47.5s-216.871-32.3-225.109-47.5c-3.289-6.031-6.332-12.21-9.121-18.531-14-31.629-21.77-66.629-21.77-103.449 0-46.219 12.25-89.57 33.68-127 44.121 77.07 127.16 129 222.32 129s178.211-51.93 222.32-129c21.43 37.43 33.68 80.781 33.68 127zm0 0" fill="#8d69db"/><path d="m481.262 377.699c-7.16 13.223-15.434 25.742-24.723 37.43-8.437 10.633-17.719 20.57-27.719 29.723-15.016 13.75-31.677 25.733-49.654 35.619-7.756 4.265-23.72 4.745-31.939 8.203-8.783 3.695-9.851 10.31-19.1 13.021-22.877 6.707-47.082 10.305-72.127 10.305-66.609 0-127.281-25.449-172.82-67.148-10-9.153-19.282-19.09-27.719-29.723-9.289-11.688-17.563-24.207-24.723-37.43zm0 0" fill="#5541b6"/></g><g><path d="m288.559 480.464v21.234h39.509c17.927-5.25 35.039-12.402 51.1-21.234z" fill="#535564"/><path d="m426.581 416.054-63.702 64.41-63.703-64.41h42.469v-84.937h42.468v84.937z" fill="#8ab8ec"/><path d="m181.68 309.883h-106.879v63.703c0 29.176 55.743 42.468 106.879 42.468s106.879-13.292 106.879-42.468v-63.703z" fill="#dce0ef"/><path d="m288.559 373.586v-63.703h-106.879v106.171c51.137 0 106.879-13.292 106.879-42.468z" fill="#cad0e7"/><path d="m181.68 246.18h-106.879v63.703c0 29.176 55.743 42.468 106.879 42.468s106.879-13.292 106.879-42.468v-63.703z" fill="#fbf5eb"/><path d="m288.559 309.883v-63.703h-106.879v106.171c51.137 0 106.879-13.292 106.879-42.468z" fill="#dce0ef"/><path d="m181.68 181.77h-106.879v64.41c0 29.176 55.743 42.468 106.879 42.468s106.879-13.292 106.879-42.468v-64.41z" fill="#dce0ef"/><path d="m288.559 246.18v-64.41h-106.879v106.879c51.137 0 106.879-13.292 106.879-42.469z" fill="#cad0e7"/><ellipse cx="181.68" cy="181.77" fill="#fbf5eb" rx="106.879" ry="42.468"/><path d="m288.559 181.77c0-29.176-55.743-42.468-106.879-42.468v84.937c51.137-.001 106.879-13.293 106.879-42.469z" fill="#dce0ef"/><path d="m426.581 416.054-63.702 64.41v-149.347h21.234v84.937z" fill="#728ee4"/><path d="m379.168 480.464h-16.289v8.21c5.539-2.548 10.972-5.286 16.289-8.21z" fill="#3b3b3b"/></g><g fill="#fff"><path d="m280.874 70.641h-1.524c-6.754 0-12.226-5.477-12.226-12.227v-1.524h-8.715v1.523c0 6.75-5.477 12.227-12.227 12.227h-1.527v8.715h1.527c6.75 0 12.227 5.472 12.227 12.226v1.528h8.715v-1.528c0-6.754 5.472-12.226 12.226-12.226h1.524zm0 0"/><path d="m444.691 250.732h-1.524c-6.754 0-12.226-5.477-12.226-12.227v-1.523h-8.715v1.523c0 6.75-5.477 12.227-12.227 12.227h-1.527v8.715h1.527c6.75 0 12.227 5.472 12.227 12.226v1.528h8.715v-1.528c0-6.754 5.472-12.226 12.226-12.226h1.524zm0 0"/><path d="m412.84 124.641h-1.524c-6.754 0-12.226-5.477-12.226-12.227v-1.523h-8.715v1.523c0 6.75-5.477 12.227-12.227 12.227h-1.527v8.715h1.527c6.75 0 12.227 5.472 12.227 12.226v1.528h8.715v-1.528c0-6.754 5.472-12.226 12.226-12.226h1.524zm0 0"/></g></g></svg>