<svg id="Capa_1" enable-background="new 0 0 512 512" height="512" viewBox="0 0 512 512" width="512" xmlns="http://www.w3.org/2000/svg"><g><g><path d="m512 256c0 43.79-11 85.02-30.39 121.07l-225.61 49.67-225.61-49.67c-19.39-36.05-30.39-77.28-30.39-121.07 0-46.63 12.47-90.34 34.26-128 41.698 72.091 399.22 76.52 443.48 0 21.79 37.66 34.26 81.37 34.26 128z" fill="#9965d8"/><path d="m477.74 128c-44.26 76.52-126.99 128-221.74 128s-177.48-51.48-221.74-128c.01-.02.03-.05.04-.07 44.27-76.48 126.98-127.93 221.7-127.93s177.43 51.45 221.7 127.93c.01.02.03.05.04.07z" fill="#b895e5"/><path d="m481.61 377.07c-13.59 25.27-31.3 48-52.24 67.28-18.93 17.43-62.026-10.94-85.566.19-4.75 2.25 11.956 47.35 7.046 49.3-29.33 11.72-61.34 18.16-94.85 18.16-97.59 0-182.42-54.61-225.61-134.93z" fill="#5541b6"/></g><path d="m353.5 371.02c0 40.6-32.92 73.52-73.52 73.52h-149.39c-20.3 0-38.68-8.23-51.99-21.54-13.3-13.3-21.53-31.68-21.53-51.98 0-40.6 32.92-73.51 73.52-73.51h13.49v-127.77h122.41v127.77h13.49c20.3 0 38.68 8.23 51.98 21.53 13.31 13.3 21.54 31.68 21.54 51.98z" fill="#c4f4ff"/><path d="m353.5 371.02c0 40.6-32.92 73.52-73.52 73.52h-74.7v-274.8h61.21v127.77h13.49c20.3 0 38.68 8.23 51.98 21.53 13.31 13.3 21.54 31.68 21.54 51.98z" fill="#9febff"/><path d="m328.5 371.02c0 26.75-21.77 48.52-48.52 48.52h-149.39c-26.75 0-48.52-21.77-48.52-48.52z" fill="#eec036"/><path d="m328.5 371.02c0 26.75-21.77 48.52-48.52 48.52h-74.7v-48.52z" fill="#e8a440"/><path d="m127.626 137.02h155.316v48.62h-155.316z" fill="#9febff"/><path d="m205.284 137.02h77.658v48.62h-77.658z" fill="#70c5e9"/><circle cx="174.43" cy="327.87" fill="#9febff" r="24.74"/><circle cx="237.486" cy="269.39" fill="#70c5e9" r="20.629"/><circle cx="180.678" cy="213.788" fill="#9febff" r="15.257"/><circle cx="262.41" cy="333.72" fill="#70c5e9" r="15.257"/><circle cx="142.883" cy="391.565" fill="#e8a440" r="15.257"/><g><g fill="#9965d8"><circle cx="333.5" cy="152.02" r="20.629"/><circle cx="174.43" cy="94.635" r="20.629"/><circle cx="237.486" cy="106.451" r="10.622"/><circle cx="391.586" cy="106.451" r="26.549"/><circle cx="244.113" cy="42.253" r="26.549"/></g><path d="m430.99 207.9v221.9c0 5-.56 9.87-1.62 14.55-18.93 17.43-40.49 32.05-64.03 43.18-4.75 2.25-9.58 4.36-14.49 6.31-29.28-6.59-51.15-32.76-51.15-64.04v-221.9z" fill="#c4f4ff"/><path d="m430.99 207.9v221.9c0 5-.56 9.87-1.62 14.55-18.93 17.43-40.49 32.05-64.03 43.18v-279.63z" fill="#9febff"/><g><path d="m287.686 191.634h155.316v48.62h-155.316z" fill="#9febff"/><path d="m365.344 191.634h77.658v48.62h-77.658z" fill="#70c5e9"/></g><path d="m405.99 274.39v155.409c0 10.86-4.23 21.06-11.91 28.74s-17.88 11.91-28.74 11.91c-22.41 0-40.64-18.24-40.64-40.65v-155.409z" fill="#db6870"/><path d="m405.99 274.39v155.409c0 10.86-4.23 21.06-11.91 28.74s-17.88 11.91-28.74 11.91v-196.059z" fill="#db504f"/></g><circle cx="346.772" cy="318.387" fill="#db504f" r="15.257"/><circle cx="388.876" cy="359.912" fill="#c12439" r="15.257"/><circle cx="346.772" cy="411.843" fill="#db504f" r="15.257"/></g></svg>