<?xml version="1.0" encoding="iso-8859-1"?>
<!-- Generator: Adobe Illustrator 19.0.0, SVG Export Plug-In . SVG Version: 6.00 Build 0)  -->
<svg version="1.1" id="Capa_1" xmlns="http://www.w3.org/2000/svg" xmlns:xlink="http://www.w3.org/1999/xlink" x="0px" y="0px"
	 viewBox="0 0 512 512" style="enable-background:new 0 0 512 512;" xml:space="preserve">
<path style="fill:#90D2E3;" d="M512,256c0,141.385-114.615,256-256,256S0,397.385,0,256S114.615,0,256,0S512,114.615,512,256z"/>
<path style="fill:#FFF2B4;" d="M512,256c0,141.385-114.615,256-256,256c-49.974,0-96.594-14.334-136-39.094V39.094
	C159.406,14.334,206.026,0,256,0C397.385,0,512,114.615,512,256z"/>
<path style="fill:#FBC56D;" d="M328,107.046v-11c0-1.104,0.895-2,2-2h96.429c1.104,0,2,0.896,2,2v11c0,1.105-0.896,2-2,2H330
	C328.895,109.046,328,108.151,328,107.046z M330,81.046h112.866c-4.877-5.207-9.961-10.216-15.253-15H330c-1.105,0-2,0.896-2,2v11
	C328,80.151,328.895,81.046,330,81.046z M446.429,161.015H330c-1.105,0-2,0.896-2,2v11c0,1.104,0.895,2,2,2h116.429
	c1.104,0,2-0.896,2-2v-11C448.429,161.911,447.533,161.015,446.429,161.015z M330,204.015h96.429c1.104,0,2-0.896,2-2v-11
	c0-1.104-0.896-2-2-2H330c-1.105,0-2,0.896-2,2v11C328,203.12,328.895,204.015,330,204.015z M446.429,255.985H330
	c-1.105,0-2,0.895-2,2v11c0,1.104,0.895,2,2,2h116.429c1.104,0,2-0.896,2-2v-11C448.429,256.88,447.533,255.985,446.429,255.985z
	 M330,298.985h96.429c1.104,0,2-0.896,2-2v-11c0-1.105-0.896-2-2-2H330c-1.105,0-2,0.895-2,2v11
	C328,298.089,328.895,298.985,330,298.985z M446.429,350.954H330c-1.105,0-2,0.896-2,2v11c0,1.105,0.895,2,2,2h116.429
	c1.104,0,2-0.895,2-2v-11C448.429,351.849,447.533,350.954,446.429,350.954z M426.429,378.954H330c-1.105,0-2,0.896-2,2v11
	c0,1.105,0.895,2,2,2h96.429c1.104,0,2-0.895,2-2v-11C428.429,379.849,427.533,378.954,426.429,378.954z"/>
<path style="fill:#FFD98F;" d="M260,212.445v32.563c11.824,5.618,20,17.666,20,31.627s-8.176,26.01-20,31.627v32.563
	c11.824,5.618,20,17.666,20,31.627c0,19.33-15.67,35-35,35s-35-15.67-35-35c0-13.961,8.176-26.009,20-31.627v-32.563
	c-11.824-5.618-20-17.666-20-31.627s8.176-26.01,20-31.627v-32.563c-11.824-5.618-20-17.666-20-31.627s8.176-26.01,20-31.627
	v-32.563C218.176,111.01,210,98.961,210,85c0-19.33,15.67-35,35-35s35,15.67,35,35c0,13.961-8.176,26.01-20,31.627v32.563
	c11.824,5.618,20,17.666,20,31.627S271.824,206.827,260,212.445z"/>
<path style="fill:#EA4444;" d="M250,315c0,2.761-2.239,5-5,5s-5-2.239-5-5s2.239-5,5-5S250,312.239,250,315z M245,350
	c-2.761,0-5,2.239-5,5s2.239,5,5,5s5-2.239,5-5S247.761,350,245,350z M245,330c-2.761,0-5,2.239-5,5s2.239,5,5,5s5-2.239,5-5
	S247.761,330,245,330z M265,180.818c0-9.316-6.379-17.121-15-19.344v-57.129c8.621-2.224,15-10.029,15-19.344
	c0-11.046-8.954-20-20-20s-20,8.954-20,20c0,9.316,6.379,17.121,15,19.344v57.129c-8.621,2.224-15,10.029-15,19.344
	s6.379,17.121,15,19.344v57.129c-8.621,2.223-15,10.028-15,19.344c0,11.046,8.954,20,20,20c11.046,0,20-8.954,20-20
	c0-9.316-6.379-17.121-15-19.344v-57.129C258.621,197.939,265,190.134,265,180.818z"/>
<path style="fill:#D93131;" d="M160,404.758v57.473c0,13.932-11.294,25.226-25.226,25.226h-28.59
	c-13.932,0-25.226-11.294-25.226-25.226v-57.473H160z"/>
<path style="fill:#EA4444;" d="M134.774,487.457h-2.09c-13.932,0-25.226-11.294-25.226-25.226v-57.473H160v57.473
	C160,476.163,148.706,487.457,134.774,487.457z"/>
<path style="fill:#EBAE56;" d="M160,375.194H80.958v-248.11c0-3.889,1.109-7.696,3.197-10.977l35.372-55.584
	c0.444-0.697,1.462-0.697,1.905,0l35.372,55.584c2.088,3.281,3.197,7.089,3.197,10.977v248.11H160z"/>
<path style="fill:#F8BB5E;" d="M160,127.084v248.109h-57.709V127.084c0-3.889,1.109-7.696,3.197-10.977l25.658-40.319l25.658,40.319
	C158.891,119.388,160,123.196,160,127.084z"/>
<path style="fill:#465A61;" d="M109.701,75.964l9.826-15.441c0.444-0.697,1.462-0.697,1.905,0l9.826,15.441H109.701z"/>
<path style="fill:#00D3B4;" d="M160,126.876v304.776H80.958V126.876c2.88,1.858,6.307,2.94,9.989,2.94
	c6.266,0,11.799-3.125,15.135-7.899c3.337,4.773,8.869,7.899,15.135,7.899c5.824,0,11.014-2.7,14.397-6.913
	c3.383,4.213,8.573,6.913,14.397,6.913C153.693,129.816,157.12,128.734,160,126.876z"/>
<path style="fill:#00B7A0;" d="M139.675,149.36v254.064c0,3.118-2.528,5.646-5.646,5.646s-5.646-2.528-5.646-5.646V149.36
	c0-3.118,2.528-5.646,5.646-5.646S139.675,146.241,139.675,149.36z M105.8,143.714c-3.118,0-5.646,2.528-5.646,5.646v-22.012
	c-2.71,1.566-5.851,2.469-9.207,2.469c-3.682,0-7.109-1.082-9.989-2.94v304.776h19.196v-28.229c0,3.118,2.528,5.646,5.646,5.646
	s5.646-2.528,5.646-5.646V149.36C111.446,146.241,108.918,143.714,105.8,143.714z"/>
<g>
</g>
<g>
</g>
<g>
</g>
<g>
</g>
<g>
</g>
<g>
</g>
<g>
</g>
<g>
</g>
<g>
</g>
<g>
</g>
<g>
</g>
<g>
</g>
<g>
</g>
<g>
</g>
<g>
</g>
</svg>
