<svg id="Capa_1" enable-background="new 0 0 512 512" height="512" viewBox="0 0 512 512" width="512" xmlns="http://www.w3.org/2000/svg"><g><g><path d="m512 256c0 141.387-114.613 256-256 256s-256-114.613-256-256 114.613-256 256-256 256 114.613 256 256zm0 0" fill="#aaed58"/><path d="m512 256c0 26.051-3.891 51.191-11.129 74.871-5.031 16.469-11.672 32.231-19.75 47.109-8.25 15.2-18 29.461-29.051 42.61-.582.691-1.16 1.379-1.75 2.058-46.941 54.704-116.59 89.352-194.32 89.352s-147.379-34.648-194.309-89.352c-.589-.687-1.179-1.378-1.75-2.07-11.062-13.137-20.812-27.398-29.05-42.598-3.289-6.031-6.332-12.21-9.121-18.531-14-31.629-21.77-66.629-21.77-103.449 0-46.219 12.25-89.57 33.68-127 44.121 77.07 127.16 129 222.32 129s178.211-51.93 222.32-129c21.43 37.43 33.68 80.781 33.68 127zm0 0" fill="#6abb5e"/><path d="m481.262 377.699c-7.16 13.223-15.434 25.742-24.723 37.43-8.437 10.633-17.719 20.57-27.719 29.723-45.539 41.699-106.211 67.148-172.82 67.148s-127.281-25.449-172.82-67.148c-10-9.153-19.282-19.09-27.719-29.723-9.289-11.688-17.563-24.207-24.723-37.43zm0 0" fill="#299f8c"/></g><g><path d="m159.396 331.952-13.03 13.085c-48.401 48.401-44.667 102.6-44.484 104.883l.663 8.283 140.131-98.491z" fill="#ffcb85"/><path d="m175.925 348.633-13.03 13.085c-48.401 48.401-59.497 86.587-59.314 88.871l-1.037 7.614 140.131-98.491z" fill="#e79d25"/><path d="m102.545 458.202.006.075 8.36.645c2.289.177 56.602 3.766 104.854-44.487l13.03-13.084-6.94-62.46z" fill="#e38031"/><path d="m263.497 338.891-55.521-55.52-48.58 48.581 34.7 34.699z" fill="#dff5ff"/><path d="m211.446 314.601-3.47-31.23-48.58 48.581 16.681 16.681z" fill="#fff"/><path d="m304.066 298.322-90.344-34.824-19.626 33.753 34.7 34.7z" fill="#bfebff"/><path d="m228.796 278.736-15.074-15.238-19.626 33.753 17.35 17.35z" fill="#e0f5ff"/><path d="m201.384 335.175h68.703v49.073h-68.703z" fill="#bfebff" transform="matrix(.707 -.707 .707 .707 -185.309 272.047)"/><path d="m228.796 331.951 34.7 34.7 33.753-19.626-14.003-69.524z" fill="#a6cfe7"/><path d="m255.486 305.262 41.764 41.764 133.604-175.882c8.858-11.655 7.726-28.256-2.634-38.616l-128.007 86.367z" fill="#002bad"/><path d="m428.219 132.528c-10.36-10.36-26.961-11.492-38.614-2.635l-175.883 133.605 41.764 41.764z" fill="#2475d1"/><path d="m428.219 132.528c-4.024-5.189-14.53-3.449-26.183 5.407l-173.24 140.801 26.689 26.525z" fill="#135dd9"/></g><g fill="#fff"><path d="m105.983 279.011h-1.524c-6.754 0-12.226-5.477-12.226-12.227v-1.523h-8.715v1.523c0 6.75-5.477 12.227-12.227 12.227h-1.527v8.715h1.527c6.75 0 12.227 5.472 12.227 12.226v1.528h8.715v-1.528c0-6.754 5.472-12.226 12.226-12.226h1.524zm0 0"/><path d="m150.09 178.795h-1.524c-6.754 0-12.226-5.477-12.226-12.227v-1.523h-8.715v1.523c0 6.75-5.477 12.227-12.227 12.227h-1.527v8.715h1.527c6.75 0 12.227 5.472 12.227 12.226v1.528h8.715v-1.528c0-6.754 5.472-12.226 12.226-12.226h1.524zm0 0"/><path d="m237.676 107.965h-1.524c-6.754 0-12.226-5.477-12.226-12.227v-1.523h-8.715v1.523c0 6.75-5.477 12.227-12.227 12.227h-1.527v8.715h1.527c6.75 0 12.227 5.472 12.227 12.226v1.528h8.715v-1.528c0-6.754 5.472-12.226 12.226-12.226h1.524zm0 0"/><path d="m346.149 84.062h-1.524c-6.754 0-12.226-5.477-12.226-12.227v-1.523h-8.715v1.523c0 6.75-5.477 12.227-12.227 12.227h-1.527v8.715h1.527c6.75 0 12.227 5.472 12.227 12.226v1.528h8.715v-1.528c0-6.754 5.472-12.226 12.226-12.226h1.524zm0 0"/></g></g></svg>