<svg id="Capa_1" enable-background="new 0 0 512 512" height="512" viewBox="0 0 512 512" width="512" xmlns="http://www.w3.org/2000/svg"><g><g><g><g><g><g><circle cx="256" cy="256" fill="#ff6c52" r="256"/></g></g></g></g></g><path d="m511.999 256.405-160.534-160.534-174.87 29.97-42.754-42.754-30 313.977 111.768 111.768c13.157 2.085 26.647 3.168 40.391 3.168 141.25 0 255.781-114.396 255.999-255.595z" fill="#f92814"/><g><path d="m338.293 345.186h-30v-211.95h-151.617v-30h181.617z" fill="#ffce00"/></g><g><path d="m256.12 103.236v30h52.173v211.95h30v-241.95z" fill="#fdba12"/></g><g><path d="m129.962 392.129-22.243-20.13c1.043-1.152 105.004-116.426 169.545-221.18 19.131-31.05 37.892-45.456 57.315-44.052 27.364 1.98 41.666 35.091 46.365 45.972 17.292 40.035 34.693 200.549 36.62 218.72l-29.832 3.164c-5.104-48.118-21.223-179.644-34.329-209.989-11.215-25.964-19.452-27.834-20.99-27.946-4.896-.366-15.67 7.246-29.607 29.867-66.01 107.137-171.783 224.402-172.844 225.574z" fill="#555a66"/></g><g><path d="m380.944 152.739c-4.699-10.881-19.001-43.992-46.365-45.972-19.423-1.404-38.184 13.002-57.314 44.052-6.677 10.837-13.781 21.787-21.144 32.712v52.317c16.443-22.729 32.485-46.244 46.685-69.292 13.938-22.621 24.711-30.233 29.607-29.867 1.538.111 9.775 1.981 20.99 27.946 13.106 30.344 29.225 161.871 34.329 209.989l29.832-3.164c-1.926-18.172-19.328-178.686-36.62-218.721z" fill="#333940"/></g><path d="m276.175 367.063v-26.418h-30v26.418h-32.117v-26.418h-30v26.418h-50.217v-47.475h26.419v-30h-26.419v-32.117h26.419v-30h-26.419v-32.118h26.419v-30h-26.419v-32.117h26.419v-30h-26.419v-20.15h-30v313.977l331.159.001v-30z" fill="#fff"/><path d="m400.41 367.064v-26.419h-30v26.419l-32.117-.001v-26.418h-30v26.418h-32.118v-26.418h-15v56.418l173.825.001v-30z" fill="#e9edf5"/><g><ellipse cx="317.14" cy="126.872" fill="#e9edf5" rx="31.276" ry="31.276" transform="matrix(.23 -.973 .973 .23 120.799 406.379)"/><path d="m317.141 173.148c-25.517 0-46.276-20.759-46.276-46.276s20.76-46.276 46.276-46.276 46.275 20.759 46.275 46.276-20.759 46.276-46.275 46.276zm0-62.552c-8.975 0-16.276 7.302-16.276 16.276s7.302 16.276 16.276 16.276 16.275-7.301 16.275-16.276-7.301-16.276-16.275-16.276z" fill="#333940"/></g></g></svg>