<svg id="Capa_1" enable-background="new 0 0 512 512" height="512" viewBox="0 0 512 512" width="512" xmlns="http://www.w3.org/2000/svg"><circle cx="256" cy="256" fill="#22d7ff" r="256"/><path d="m512 256c0 87.11-43.52 164.07-110 210.31-41.41 28.8-91.73 45.69-146 45.69s-104.59-16.89-146-45.69c-66.48-46.24-110-123.2-110-210.31 0-46.22 12.25-89.57 33.68-127 44.12 77.07 127.16 129 222.32 129s178.21-51.93 222.32-129c21.43 37.43 33.68 80.78 33.68 127z" fill="#00b3fe"/><path d="m227.35 188.24-18.94 18.95-18.95 18.94-35.89-35.89c-14.3-14.29-23.28-33.05-25.44-53.14-.32-2.94.75-5.65 2.64-7.55 1.91-1.93 4.65-3.03 7.62-2.7h.03c20.03 2.21 38.72 11.17 52.97 25.43z" fill="#234177"/><path d="m227.35 188.24-18.94 18.95-77.64-77.64c1.91-1.93 4.65-3.03 7.62-2.7h.03c20.03 2.21 38.72 11.17 52.97 25.43z" fill="#16325b"/><path d="m481.29 377.66c-11.71 21.66-26.46 41.43-43.66 58.75-8.18 8.23-16.92 15.91-26.15 22.98-10.18 7.79-20.95 14.83-32.24 21.04l-166.38-166.37c-11.76-11.77-19.58-26.88-22.37-43.28l-6.65-39.03-24.84-24.84c-2.8-2.81-2.8-7.34 0-10.15l10.14-10.14 9.35-9.35 19.49-19.49c2.81-2.8 7.34-2.8 10.15 0l24.84 24.84 39.03 6.65c16.4 2.79 31.51 10.61 43.28 22.37z" fill="#fff"/><path d="m481.29 377.66c-11.71 21.66-26.46 41.43-43.66 58.75-8.18 8.23-16.92 15.91-26.15 22.98l-171.97-171.98c-11.77-11.76-21.49-24.98-27.82-37.83l-15.07-30.61-24.83-24.84c-2.81-2.81-3.99-6.17-2.65-7.51l9.35-9.35 19.49-19.49c2.81-2.8 7.34-2.8 10.15 0l24.84 24.84 39.03 6.65c16.4 2.79 31.51 10.61 43.28 22.37z" fill="#d1f6ff"/><path d="m481.29 377.66c-11.71 21.66-26.46 41.43-43.66 58.75l-259.14-259.14 19.49-19.49c2.81-2.8 7.34-2.8 10.15 0l24.84 24.84 39.03 6.65c16.4 2.79 31.51 10.61 43.28 22.37z" fill="#b3f4ff"/><path d="m208.13 157.784 24.839 24.839-49.126 49.126-24.839-24.839c-2.805-2.805-2.805-7.342 0-10.147l38.979-38.979c2.805-2.805 7.342-2.805 10.147 0z" fill="#d1f6ff"/><path d="m208.13 157.784 24.839 24.839-36.344 36.344-24.839-24.839c-2.805-2.805-3.984-6.163-2.642-7.505l28.84-28.84c2.804-2.804 7.341-2.804 10.146.001z" fill="#b3f4ff"/><path d="m208.13 157.784 24.839 24.839-24.563 24.563-29.913-29.913 19.489-19.489c2.806-2.805 7.343-2.805 10.148 0z" fill="#8fc8f5"/><path d="m481.29 377.66c-11.71 21.66-26.46 41.43-43.66 58.75-8.18 8.23-16.92 15.91-26.15 22.98-10.18 7.79-20.95 14.83-32.24 21.04l-120.73-120.73 102.41-102.41z" fill="#374c81"/><path d="m481.29 377.66c-11.71 21.66-26.46 41.43-43.66 58.75-8.18 8.23-16.92 15.91-26.15 22.98l-126.33-126.33 75.77-75.77z" fill="#234177"/><path d="m481.29 377.66c-11.71 21.66-26.46 41.43-43.66 58.75l-127.92-127.92 51.21-51.2z" fill="#16325b"/></svg>