<svg id="Layer_1" enable-background="new 0 0 509.903 509.903" height="512" viewBox="0 0 509.903 509.903" width="512" xmlns="http://www.w3.org/2000/svg"><g><g><path d="m509.903 254.952c0 35.201-7.134 68.737-20.035 99.239-38.704 91.506-129.312 131.262-234.916 131.262-140.806 0-238.149-88.29-238.149-229.096 0-34.242-10.052-68.311 2.19-98.141 38.101-92.837 129.395-158.216 235.959-158.216 140.806 0 254.951 114.146 254.951 254.952z" fill="#6ee1ff"/></g><path d="m435.862 434.573c22.355-22.518 40.539-49.184 53.289-78.744-.162.133-.324.266-.487.398-21.116 17.239-52.802 2.032-52.802-25.228v-225.196c0-10.129-8.211-18.341-18.341-18.341h-289.408c-10.129 0-18.341 8.211-18.341 18.341v63.567c0 23.981-35.838 24.95-36.925.993-.036-.803-.069-1.606-.098-2.408-1.078-29.971-42.365-37.483-53.753-9.738-12.244 29.828-18.996 62.492-18.996 96.735 0 141.488 114.832 254.952 254.952 254.952 70.196 0 134.286-28.415 180.91-75.321z" fill="#05cdff"/><g><path d="m417.997 444.607v-324.77c0-10.129-8.211-18.341-18.341-18.341h-212.98v343.111z" fill="#2d56a1"/><path d="m208.426 440.756c-10.129 0-18.341-8.211-18.341-18.341v-145.753c0-10.944 8.872-19.816 19.816-19.816h165.898v-72.429h-185.714v-82.922h-79.837c-10.129 0-18.341 8.211-18.341 18.341v364.178c0 10.129 8.211 18.341 18.341 18.341h289.408c10.129 0 18.341-8.211 18.341-18.341v-43.259h-209.571z" fill="#1a396b"/><g><g fill="#1a396b"><path d="m236.417 336.487h-28.382c-4.682 0-8.478-3.796-8.478-8.478v-28.382c0-4.682 3.796-8.478 8.478-8.478h28.382c4.682 0 8.478 3.796 8.478 8.478v28.382c0 4.682-3.796 8.478-8.478 8.478z"/><path d="m301.869 336.487h-28.382c-4.682 0-8.478-3.796-8.478-8.478v-28.382c0-4.682 3.796-8.478 8.478-8.478h28.382c4.682 0 8.478 3.796 8.478 8.478v28.382c0 4.682-3.796 8.478-8.478 8.478z"/><path d="m367.321 336.487h-28.382c-4.682 0-8.478-3.796-8.478-8.478v-28.382c0-4.682 3.796-8.478 8.478-8.478h28.382c4.682 0 8.478 3.796 8.478 8.478v28.382c0 4.682-3.796 8.478-8.478 8.478z"/><path d="m236.417 402.569h-28.382c-4.682 0-8.478-3.796-8.478-8.478v-28.382c0-4.682 3.796-8.478 8.478-8.478h28.382c4.682 0 8.478 3.796 8.478 8.478v28.382c0 4.683-3.796 8.478-8.478 8.478z"/><path d="m301.869 402.569h-28.382c-4.682 0-8.478-3.796-8.478-8.478v-28.382c0-4.682 3.796-8.478 8.478-8.478h28.382c4.682 0 8.478 3.796 8.478 8.478v28.382c0 4.683-3.796 8.478-8.478 8.478z"/><path d="m367.321 402.569h-28.382c-4.682 0-8.478-3.796-8.478-8.478v-28.382c0-4.682 3.796-8.478 8.478-8.478h28.382c4.682 0 8.478 3.796 8.478 8.478v28.382c0 4.683-3.796 8.478-8.478 8.478z"/></g><path d="m179.443 381.072v-25.688c0-4.682-3.796-8.478-8.478-8.478h-23.261v34.166z" fill="#ffc305"/><path d="m244.895 381.072v-25.688c0-4.682-3.796-8.478-8.478-8.478h-22.558v34.166z" fill="#ffc305"/><path d="m223.1 378.623c-4.682 0-8.478-3.796-8.478-8.478v-23.239h-6.587c-4.682 0-8.478 3.796-8.478 8.478v28.382c0 4.682 3.796 8.478 8.478 8.478h28.382c4.682 0 8.478-3.796 8.478-8.478v-5.143z" fill="#ff8500"/><path d="m157.648 378.623c-4.682 0-8.478-3.796-8.478-8.478v-23.239h-6.587c-4.682 0-8.478 3.796-8.478 8.478v28.382c0 4.682 3.796 8.478 8.478 8.478h28.382c4.682 0 8.478-3.796 8.478-8.478v-5.143z" fill="#ff8500"/><path d="m310.347 381.072v-25.688c0-4.682-3.796-8.478-8.478-8.478h-23.82v34.166z" fill="#ffc305"/><path d="m375.799 381.072v-25.688c0-4.682-3.796-8.478-8.478-8.478h-23.117v34.166z" fill="#ffc305"/><path d="m288.552 378.623c-4.682 0-8.478-3.796-8.478-8.478v-23.239h-6.587c-4.682 0-8.478 3.796-8.478 8.478v28.382c0 4.682 3.796 8.478 8.478 8.478h28.382c4.682 0 8.478-3.796 8.478-8.478v-5.143z" fill="#ff8500"/><path d="m354.004 378.623c-4.682 0-8.478-3.796-8.478-8.478v-23.239h-6.587c-4.682 0-8.478 3.796-8.478 8.478v28.382c0 4.682 3.796 8.478 8.478 8.478h28.382c4.682 0 8.478-3.796 8.478-8.478v-5.143z" fill="#ff8500"/></g><path d="m179.443 174.092h196.356v56.627h-196.356z" fill="#6ee1ff"/><path d="m185.194 192.157v-18.065h-51.09v72.429h241.695v-21.615h-157.855c-18.087.001-32.75-14.662-32.75-32.749z" fill="#2896ff"/><path d="m279.289 156.422h96.51v9.446h-96.51z" fill="#1a396b"/><path d="m305.867 129.306h69.932v29.334h-69.932z" fill="#f8e000"/><path d="m279.289 129.306h29.334v29.334h-29.334z" fill="#ffc305"/><g><path d="m179.443 314.917v-25.615c0-4.682-3.796-8.478-8.478-8.478h-23.261v34.094h31.739z" fill="#ffc305"/><path d="m244.895 314.917v-25.615c0-4.682-3.796-8.478-8.478-8.478h-22.558v34.094h31.036z" fill="#ffc305"/><path d="m223.1 312.541c-4.682 0-8.478-3.796-8.478-8.478v-23.239h-6.587c-4.682 0-8.478 3.796-8.478 8.478v28.382c0 4.682 3.796 8.478 8.478 8.478h28.382c4.682 0 8.478-3.796 8.478-8.478v-5.143z" fill="#ff8500"/><path d="m157.648 312.541c-4.682 0-8.478-3.796-8.478-8.478v-23.239h-6.587c-4.682 0-8.478 3.796-8.478 8.478v28.382c0 4.682 3.796 8.478 8.478 8.478h28.382c4.682 0 8.478-3.796 8.478-8.478v-5.143z" fill="#ff8500"/><path d="m310.347 314.917v-25.615c0-4.682-3.796-8.478-8.478-8.478h-23.82v34.094h32.298z" fill="#ffc305"/><path d="m375.799 314.917v-25.615c0-4.682-3.796-8.478-8.478-8.478h-23.117v34.094h31.595z" fill="#ffc305"/><g fill="#ff8500"><path d="m288.552 312.541c-4.682 0-8.478-3.796-8.478-8.478v-23.239h-6.587c-4.682 0-8.478 3.796-8.478 8.478v28.382c0 4.682 3.796 8.478 8.478 8.478h28.382c4.682 0 8.478-3.796 8.478-8.478v-5.143z"/><path d="m354.004 312.541c-4.682 0-8.478-3.796-8.478-8.478v-23.239h-6.587c-4.682 0-8.478 3.796-8.478 8.478v28.382c0 4.682 3.796 8.478 8.478 8.478h28.382c4.682 0 8.478-3.796 8.478-8.478v-5.143z"/></g></g><g><path d="m179.443 446.572v-25.106c0-4.682-3.796-8.478-8.478-8.478h-23.261v33.584z" fill="#ffc305"/><path d="m244.895 446.572v-25.106c0-4.682-3.796-8.478-8.478-8.478h-22.558v33.584z" fill="#ffc305"/><path d="m223.1 444.705c-4.682 0-8.478-3.796-8.478-8.478v-23.239h-6.587c-4.682 0-8.478 3.796-8.478 8.478v28.382c0 4.682 3.796 8.478 8.478 8.478h28.382c4.682 0 8.478-3.796 8.478-8.478v-5.143z" fill="#ff8500"/><path d="m157.648 444.705c-4.682 0-8.478-3.796-8.478-8.478v-23.239h-6.587c-4.682 0-8.478 3.796-8.478 8.478v28.382c0 4.682 3.796 8.478 8.478 8.478h28.382c4.682 0 8.478-3.796 8.478-8.478v-5.143z" fill="#ff8500"/><path d="m310.347 446.572v-25.106c0-4.682-3.796-8.478-8.478-8.478h-23.82v33.584z" fill="#ffc305"/><path d="m375.799 446.572v-25.106c0-4.682-3.796-8.478-8.478-8.478h-23.117v33.584z" fill="#ffc305"/><g fill="#ff8500"><path d="m288.552 444.705c-4.682 0-8.478-3.796-8.478-8.478v-23.239h-6.587c-4.682 0-8.478 3.796-8.478 8.478v28.382c0 4.682 3.796 8.478 8.478 8.478h28.382c4.682 0 8.478-3.796 8.478-8.478v-5.143z"/><path d="m354.004 444.705c-4.682 0-8.478-3.796-8.478-8.478v-23.239h-6.587c-4.682 0-8.478 3.796-8.478 8.478v28.382c0 4.682 3.796 8.478 8.478 8.478h28.382c4.682 0 8.478-3.796 8.478-8.478v-5.143z"/></g></g></g></g></svg>