<svg id="Capa_1" enable-background="new 0 0 512 512" height="512" viewBox="0 0 512 512" width="512" xmlns="http://www.w3.org/2000/svg"><path d="m512 256c0 70.86-28.79 134.99-75.31 181.34-114.193 47.184-243.652 39.839-351.775-19.958l-45.805-25.332c-24.78-39.41-39.11-86.06-39.11-136.05 0-141.258 114.423-255.803 255.635-256 141.09-.196 256.365 114.91 256.365 256z" fill="#fd4fb9"/><path d="m512 256c0 70.85-28.79 134.99-75.31 181.34-114.193 47.184-243.652 39.839-351.775-19.958l-45.805-25.332c-24.78-39.41-39.11-86.06-39.11-136.05 0-46.22 12.25-89.57 33.68-127 44.12 77.07 127.16 129 222.32 129s178.21-51.93 222.32-129c21.43 37.43 33.68 80.78 33.68 127z" fill="#ea39ab"/><path d="m432.65 375.5c-1.43-2.47-2.93-4.74-4.5-6.84-11.45-15.3-26.62-21.71-45.32-29.21-18.73-7.53-37.67-15.15-54.02-26.98-16.8-12.16-30.08-28.21-43.16-44.11-9.12-11.1-18.75-19.7-29.65-28.09-2.78-2.14-5.64-4.27-8.59-6.42-29.86-21.72-68.4-31.54-104.96-25.88-25.96 4.02-50.52 15.79-70.39 32.89-20.62 17.74-30.33 36.07-37.23 61.51-8.13 29.97-5.81 61.06 4.28 89.68 45.29 72.06 125.5 119.95 216.89 119.95 70.52 0 134.39-28.52 180.69-74.66l.01-.01c7.54-19.93 7.82-41.42-4.05-61.83zm-152.15-30.24c0 6.76-2.75 12.89-7.18 17.32-4.44 4.43-10.55 7.18-17.32 7.18-13.53 0-24.5-10.98-24.5-24.5v-24.5c0-13.53 10.97-24.5 24.5-24.5s24.5 10.97 24.5 24.5z" fill="#fff"/><path d="m436.69 437.34c-46.3 46.14-110.17 74.66-180.69 74.66v-142.24c6.77 0 12.88-2.75 17.32-7.18 4.43-4.43 7.18-10.56 7.18-17.32v-24.5c0-13.53-10.97-24.5-24.5-24.5v-55.99c10.9 8.39 20.53 16.99 29.65 28.09 13.08 15.9 26.36 31.95 43.16 44.11 16.35 11.83 35.29 19.45 54.02 26.98 18.7 7.5 33.87 13.91 45.32 29.21 1.57 2.1 3.07 4.37 4.5 6.84 11.87 20.42 11.59 41.9 4.04 61.84z" fill="#d1f6ff"/><circle cx="94.942" cy="369.756" fill="#fe3345" r="29.71"/><path d="m94.942 340.046v59.42c16.408 0 29.71-13.302 29.71-29.71s-13.301-29.71-29.71-29.71z" fill="#de1263"/><circle cx="167.976" cy="423.089" fill="#ffe400" r="29.71"/><path d="m167.976 393.379v59.42c16.408 0 29.71-13.302 29.71-29.71s-13.301-29.71-29.71-29.71z" fill="#ffce00"/><circle cx="256" cy="454.435" fill="#6c82ff" r="29.71"/><path d="m256 424.725v59.42c16.408 0 29.71-13.302 29.71-29.71s-13.302-29.71-29.71-29.71z" fill="#4d6df4"/><circle cx="341.44" cy="454.435" fill="#6cdc2d" r="29.71"/><path d="m341.44 424.725v59.42c16.408 0 29.71-13.302 29.71-29.71s-13.301-29.71-29.71-29.71z" fill="#69cc29"/><path d="m423.96 62.81-33.62 122.41-22.29 81.16c-1.64 6-7.88 9.47-13.84 7.72l-28.71-8.44c-5.96-1.76-9.33-8.06-7.47-13.99l25.21-80.31 42.67-135.98c6.61 3.89 13.02 8.08 19.23 12.53 6.51 4.67 12.79 9.64 18.82 14.9z" fill="#a63917"/><path d="m423.96 62.81-33.62 122.41-22.29 81.16c-1.64 6-7.88 9.47-13.84 7.72l-14.36-4.22 65.29-221.97c6.51 4.67 12.79 9.64 18.82 14.9z" fill="#83250d"/><path d="m368.055 266.385 22.29-81.166-47.109-13.856-25.204 80.309c-1.863 5.929 1.503 12.231 7.465 13.985l28.71 8.444c5.962 1.753 12.204-1.722 13.848-7.716z" fill="#fff"/><path d="m368.055 266.385 22.29-81.166-35.33-10.392-24.48 80.522c-1.808 5.945.8 12.024 5.545 13.42l18.128 5.332c5.961 1.753 12.203-1.722 13.847-7.716z" fill="#d1f6ff"/><path d="m368.055 266.385 22.29-81.166-23.552-6.927-26.939 91.588 14.353 4.221c5.962 1.753 12.204-1.722 13.848-7.716z" fill="#b3f4ff"/><path d="m378.957 315.561c.155-1.412.29-2.847.403-4.299 1.441-18.406-5.502-38.108-21.78-48.923-3.949-2.625-10.707-5.133-18.272-5.732-5.662-.451-11.774.169-17.493 2.606-3.811 1.622-6.88 4.632-9.684 7.678-5.597 6.094-9.401 13.81-11.105 21.889-2.05 9.696-1.097 18.952 1.886 28.252.409 1.28.856 2.545 1.345 3.794 3.122 8.069 68.565 51.568 74.7-5.265z" fill="#374c81"/><path d="m379.36 311.262c1.441-18.406-5.502-38.108-21.78-48.923-.165-.109-.334-.219-.508-.327-9.896-6.185-22.933-.803-25.967 10.466-.6 2.228-.992 4.501-1.146 6.795-.719 10.725 1.636 19.429 4.69 27.338 2.104 5.45 38.176 65.781 44.312 8.95.152-1.413.285-2.846.399-4.299z" fill="#234177"/><path d="m378.957 315.561c-4.598-.344-9.491.331-14.319 1.561-5.127 1.305-10.251-1.785-14.547-4.869-4.301-3.086-9.087-6.478-14.338-5.838-.377.046-.743.112-1.104.196-3.86.887-7.028 3.825-9.72 6.806-2.951 3.251-5.836 6.831-9.884 8.541-3.539 1.49-7.171.276-10.79-1.13 3.123 8.068 7.678 15.527 12.409 22.751 5.264 8.031 10.829 15.907 15.188 24.49 4.009 7.895 5.243 17.613 3.931 26.404-.192 1.299-.354 2.053-.759 3.869 1.029-.729 37.798-25.948 43.933-82.781z" fill="#ffe400"/><path d="m378.957 315.561c-4.598-.344-9.491.331-14.319 1.561-5.127 1.305-10.251-1.785-14.547-4.869-4.301-3.086-9.087-6.478-14.338-5.838-.377.046-.743.112-1.104.196 2.105 5.449 4.537 10.522 6.527 15.622 13.954 35.743 3.791 63.129-6.151 76.108 1.028-.728 37.797-25.947 43.932-82.78z" fill="#ffce00"/></svg>