<svg id="Capa_1" enable-background="new 0 0 512 512" height="512" viewBox="0 0 512 512" width="512" xmlns="http://www.w3.org/2000/svg"><path d="m512 256c0 82.23-38.77 155.4-99.03 202.24l-.06.05-19.5 13.74h-.01c-39.7 25.31-86.84 39.97-137.4 39.97-50.97 0-98.46-14.9-138.36-40.57l.02-.01-14.22-9.84.01.02c-62.78-46.66-103.45-121.38-103.45-205.6 0-141.38 114.62-256 256-256s256 114.62 256 256z" fill="#65b2fe"/><path d="m512 256c0 82.22-38.77 155.4-99.03 202.24l-.05.03-19.51 13.76h-.01c-39.7 25.31-86.83 39.97-137.4 39.97-50.97 0-98.46-14.9-138.35-40.58l-14.21-9.84.01.02c-62.77-46.66-103.45-121.38-103.45-205.6 0-46.22 12.25-89.57 33.68-127 44.12 77.07 127.16 129 222.32 129s178.21-51.93 222.32-129c21.43 37.43 33.68 80.78 33.68 127z" fill="#0e9ce7"/><path d="m452 316c0 105.34-83.12 191.28-187.34 195.81-.31.02-.62.03-.93.04-.87.03-1.74.06-2.6.08-1.73.05-3.44.07-5.13.07-108.24 0-196-87.76-196-196s87.76-196 196-196h.28c108.11.15 195.72 87.85 195.72 196z" fill="#ffe853"/><path d="m452 316c0 105.34-83.12 191.28-187.34 195.81-.31.02-.62.03-.93.04-.87.03-1.74.06-2.6.08-1.73.05-3.44.07-5.13.07-58.54-45.3-103.35-116.25-103.35-196s44.81-150.7 103.35-196h.28c108.11.15 195.72 87.85 195.72 196z" fill="#fed110"/><path d="m452 316c0 108.244-87.756 196-196 196v-392c108.244 0 196 87.756 196 196z" fill="#ff9f01"/><path d="m224.871 250.52c5.746 20.988-4.991 43.396-24.961 52.039-23.411 10.133-49.932-1.481-58.812-24.602-.217-.556-.426-1.13-.618-1.695-.015-.045-.031-.091-.046-.136-1.309-3.899 3.285-7.137 6.577-4.671 11.246 8.426 26.326 11.344 40.636 6.491 14.307-4.852 24.503-16.33 28.318-29.856 1.127-3.995 6.756-4.149 8.093-.219.296.869.567 1.751.813 2.649z" fill="#29334c"/><path d="m287.129 250.52c-5.746 20.988 4.991 43.396 24.961 52.039 23.411 10.133 49.932-1.481 58.812-24.602.217-.556.426-1.13.618-1.695.015-.045.031-.091.046-.136 1.309-3.899-3.285-7.137-6.577-4.671-11.246 8.426-26.326 11.344-40.636 6.491-14.307-4.852-24.503-16.33-28.319-29.856-1.127-3.995-6.756-4.149-8.093-.219-.295.869-.566 1.751-.812 2.649z" fill="#29334c"/><g fill="#fff"><path d="m402.528 289.516c-5.888-.918-19.872-4.038-27.978-5.884-2.551-.581-4.692 1.956-3.69 4.373 3.184 7.679 8.612 20.939 10.507 26.589 2.881 8.588 11.61 14.294 21.12 12.843 9.387-1.432 16.422-9.769 16.254-19.263-.17-9.619-7.263-17.263-16.213-18.658z"/><path d="m419.551 361.379c-4.239-4.189-13.755-14.899-19.249-21.138-1.729-1.964-4.949-1.158-5.55 1.388-1.91 8.091-5.264 22.02-7.032 27.711-2.687 8.651 1.055 18.384 9.616 22.771 8.451 4.33 19.034 1.683 24.451-6.115 5.488-7.9 4.207-18.249-2.236-24.617z"/><path d="m112.399 289.516c5.888-.918 19.872-4.038 27.978-5.884 2.551-.581 4.692 1.956 3.69 4.373-3.184 7.679-8.612 20.939-10.507 26.589-2.881 8.588-11.61 14.294-21.12 12.843-9.387-1.432-16.422-9.769-16.254-19.263.17-9.619 7.263-17.263 16.213-18.658z"/><path d="m95.376 361.379c4.239-4.189 13.756-14.899 19.25-21.138 1.729-1.964 4.949-1.158 5.55 1.388 1.91 8.091 5.264 22.02 7.032 27.711 2.687 8.651-1.055 18.384-9.616 22.771-8.451 4.33-19.034 1.683-24.451-6.115-5.49-7.9-4.208-18.249 2.235-24.617z"/></g><path d="m318.89 429h-125.78c-16.07 0-28.62-13.11-28.62-28.56 0-1.67.15-3.36.45-5.07 3.28-18.36 12.91-34.23 26.39-45.49h129.34c.02.02.04.03.06.05 13.45 11.26 23.06 27.11 26.33 45.44 3.12 17.53-10.36 33.63-28.17 33.63z" fill="#313b5a"/><path d="m318.89 429h-62.89v-79.12h64.67c.02.02.04.03.06.05 13.45 11.26 23.06 27.11 26.33 45.44 3.12 17.53-10.36 33.63-28.17 33.63z" fill="#29334c"/><path d="m320.67 349.88c0 13.63-11.05 24.68-24.68 24.68h-79.98c-13.63 0-24.68-11.05-24.68-24.68 3.72-3.1 7.73-5.86 11.99-8.22 11.1-6.18 23.85-9.66 37.3-9.66h30.76c13.45 0 26.2 3.48 37.3 9.66 4.26 2.36 8.27 5.11 11.99 8.22z" fill="#fff"/><path d="m310.62 429h-109.24c8.54-21.82 29.77-37.27 54.62-37.27s46.08 15.45 54.62 37.27z" fill="#ff1d56"/><path d="m320.67 349.88c0 13.63-11.05 24.68-24.68 24.68h-39.99v-42.56h15.38c13.45 0 26.2 3.48 37.3 9.66 4.26 2.36 8.27 5.11 11.99 8.22z" fill="#d1f6ff"/><path d="m310.62 429h-54.62v-37.27c24.85 0 46.08 15.45 54.62 37.27z" fill="#dd1265"/><path d="m310.62 429h-54.62v-37.27c24.85 0 46.08 15.45 54.62 37.27z" fill="#dd1265"/></svg>