<svg id="Layer_1" enable-background="new 0 0 512 512" height="512" viewBox="0 0 512 512" width="512" xmlns="http://www.w3.org/2000/svg"><g><path d="m465.882 393.449c22.289-36.915 35.12-80.184 35.12-126.451 0-135.311-109.691-245.003-245.002-245.003s-245.002 109.692-245.002 245.003c0 46.267 12.831 89.536 35.12 126.451z" fill="#ffdd40"/><path d="m436.485 432.655c11.564-12.594 21.83-26.399 30.58-41.206v-347.949c0-24.024-19.476-43.5-43.5-43.5h-335.13c-24.024 0-43.5 19.475-43.5 43.5v347.949c8.75 14.808 19.016 28.612 30.579 41.206z" fill="#167cc1"/><path d="m171.173 347.208c1.628-.807 2.634-2.49 2.634-4.307v-16.916c0-.943-.288-1.861-.798-2.653-4.758-7.392.291-14.069 3.704-17.379 1.376-1.334 1.82-3.394 1.095-5.167-2.715-6.636-.719-11.859 1.45-15.085 1.394-2.074 1.011-4.805-.87-6.451-7.401-6.477-4.544-14.859-2.772-18.471.603-1.23.667-2.65.179-3.93l-8.159-21.389c-.222-.58-.568-1.099-.982-1.563-4.844-5.428-3.044-10.987-.903-14.498 1.26-2.066.804-4.712-1.045-6.272-6.811-5.745-4.284-12.353-2.141-15.815.959-1.55 1.022-3.49.147-5.088-8.361-15.273 1.909-25.296 6.418-28.733 1.208-.921 1.921-2.341 1.921-3.86v-10.744c0-1.848-1.068-3.509-2.717-4.345-8.764-4.445-10.394-12.812-10.655-14.702-.03-.222-.045-.439-.045-.662v-40.057c0-8.112 4.67-14.133 7.867-17.305 1.357-1.345 1.833-3.35 1.182-5.146-.809-2.231.09-4.19.869-5.338.552-.813.878-1.758.878-2.74v-18.17c0-.964-.254-1.929-.823-2.708-1.555-2.128-1.289-4.207-.665-5.722.633-1.539.355-3.297-.809-4.488-11.711-11.978-2.903-22.628.834-26.217.389-.374.686-.816.924-1.287h-79.456c-24.024 0-43.5 19.475-43.5 43.5v347.949c8.75 14.808 19.016 28.612 30.579 41.206h87.784c0-15.857 0-63.003 0-72.536.001-7.741 4.762-11.367 7.875-12.911z" fill="#0e62a8"/><path d="m74.577 431.655c44.82 49.355 109.502 80.345 181.423 80.345s136.603-30.991 181.423-80.345v-55.74l-362.846-194.085z" fill="#e9efff"/><path d="m74.577 431.655c25.812 28.423 58.219 50.736 94.794 64.567-5.529-15.784.362-27.427 5.095-33.583 1.854-2.411 1.088-5.854-1.554-7.361-10.221-5.832-9.612-17.407-9.612-17.407s0-66.25 0-77.751c0-7.742 4.761-11.368 7.874-12.911 1.628-.807 2.634-2.49 2.634-4.307v-16.916c0-.943-.288-1.861-.798-2.653-4.758-7.392.291-14.069 3.704-17.379 1.376-1.334 1.82-3.394 1.095-5.167-2.715-6.636-.719-11.859 1.45-15.085 1.394-2.074 1.011-4.805-.87-6.451-7.401-6.477-4.544-14.859-2.772-18.471.603-1.23.667-2.65.179-3.93l-8.159-21.389c-.222-.58-.568-1.099-.982-1.563-1.242-1.391-2.042-2.791-2.516-4.163l-89.56-47.905v249.825z" fill="#d3dcfb"/><path d="m74.577 184.026 362.846 194.084v-311.019h-362.846z" fill="#9bd8f9"/><path d="m74.577 184.026 91.194 48.779c-3.714-5.072-2.019-10.13-.021-13.405 1.26-2.066.804-4.712-1.045-6.272-6.811-5.745-4.284-12.353-2.141-15.815.959-1.55 1.022-3.49.147-5.088-8.361-15.273 1.909-25.296 6.418-28.733 1.208-.921 1.921-2.341 1.921-3.86v-10.744c0-1.848-1.068-3.509-2.717-4.345-8.764-4.445-10.394-12.812-10.655-14.702-.03-.222-.045-.439-.045-.662v-40.058c0-8.112 4.67-14.133 7.867-17.305 1.252-1.242 1.742-3.042 1.3-4.725h-92.223z" fill="#73c3f9"/><path d="m393.553 99.818h-55.822v26.655h55.822c7.36 0 13.327-5.967 13.327-13.328 0-7.36-5.966-13.327-13.327-13.327z" fill="#e9efff"/><path d="m338.83 99.818h-18.789c-7.361 0-13.328 5.967-13.328 13.328s5.967 13.328 13.328 13.328h18.789z" fill="#2a428c"/><path d="m106.156 301.565v139.361c0 9.211 7.536 16.747 16.747 16.747h101.181c9.211 0 16.747-7.536 16.747-16.747v-139.361z" fill="#ffdd40"/><path d="m106.156 440.925c0 9.211 7.537 16.747 16.748 16.747h52.165c-.421-.969-1.153-1.822-2.157-2.395-10.221-5.832-9.612-17.407-9.612-17.407s0-66.25 0-77.751c0-7.742 4.761-11.368 7.874-12.911 1.628-.807 2.634-2.49 2.634-4.307v-16.916c0-.943-.288-1.861-.798-2.653-4.758-7.392.291-14.069 3.704-17.379 1.178-1.142 1.666-2.817 1.329-4.388h-71.885v139.36z" fill="#ffb332"/><g><path d="m122.822 162.169h-10.795c-4.547 0-8.234-3.686-8.234-8.234s3.686-8.234 8.234-8.234h10.795c4.547 0 8.234 3.686 8.234 8.234-.001 4.548-3.687 8.234-8.234 8.234z" fill="#e9efff"/></g><g><path d="m222.781 162.169h-73.406c-4.547 0-8.234-3.686-8.234-8.234s3.686-8.234 8.234-8.234h73.406c4.547 0 8.234 3.686 8.234 8.234s-3.686 8.234-8.234 8.234z" fill="#e9efff"/></g><path d="m224.084 194.91h-101.181c-9.211 0-16.747 7.536-16.747 16.747v92.104h134.675v-92.104c0-9.211-7.536-16.747-16.747-16.747z" fill="#ff4155"/><path d="m177.807 300.786c-2.715-6.636-.719-11.859 1.45-15.085 1.394-2.074 1.011-4.805-.87-6.451-7.401-6.477-4.544-14.859-2.772-18.471.603-1.23.667-2.65.179-3.93l-8.159-21.389c-.222-.58-.568-1.099-.982-1.563-4.844-5.428-3.044-10.987-.903-14.498 1.26-2.066.804-4.712-1.045-6.272-6.811-5.745-4.284-12.353-2.141-15.815.457-.739.704-1.566.749-2.403h-40.409c-9.211 0-16.748 7.536-16.748 16.747v92.104h71.826c.257-.968.219-2.012-.175-2.974z" fill="#e80054"/><ellipse cx="173.493" cy="249.335" fill="#e9efff" rx="33.938" ry="33.938" transform="matrix(.707 -.707 .707 .707 -125.492 195.707)"/><path d="m178.387 279.25c-7.401-6.477-4.544-14.859-2.772-18.471.603-1.23.667-2.65.179-3.93l-8.159-21.389c-.222-.58-.568-1.099-.982-1.563-4.844-5.428-3.044-10.987-.903-14.498.617-1.011.817-2.161.649-3.255-15.336 3.263-26.843 16.88-26.843 33.19 0 18.744 15.195 33.939 33.938 33.939 2.249 0 4.445-.224 6.571-.642-.089-1.26-.652-2.483-1.678-3.381z" fill="#d3dcfb"/><g><path d="m171.336 346.415h-32.786c-6.063 0-10.978-4.915-10.978-10.978s4.915-10.978 10.978-10.978h32.786c6.063 0 10.978 4.916 10.978 10.978s-4.915 10.978-10.978 10.978z" fill="#fcf2c8"/></g><g><path d="m213.455 376.587h-79.296c-4.547 0-8.234-3.686-8.234-8.234s3.686-8.234 8.234-8.234h79.296c4.547 0 8.234 3.686 8.234 8.234-.001 4.548-3.687 8.234-8.234 8.234z" fill="#ff9100"/></g><g><path d="m213.455 404.744h-79.296c-4.547 0-8.234-3.686-8.234-8.234s3.686-8.234 8.234-8.234h79.296c4.547 0 8.234 3.686 8.234 8.234-.001 4.549-3.687 8.234-8.234 8.234z" fill="#ff9100"/></g><g><path d="m213.455 432.903h-79.296c-4.547 0-8.234-3.686-8.234-8.234s3.686-8.234 8.234-8.234h79.296c4.547 0 8.234 3.686 8.234 8.234-.001 4.548-3.687 8.234-8.234 8.234z" fill="#ff9100"/></g><path d="m423.565 29.641h-335.128c-7.623 0-13.86 6.237-13.86 13.86v25.785h362.846v-25.786c0-7.622-6.236-13.859-13.858-13.859z" fill="#2a428c"/><path d="m166.681 66.669c-.809-2.231.09-4.19.869-5.338.552-.813.878-1.758.878-2.74v-18.169c0-.964-.254-1.929-.823-2.708-1.555-2.128-1.289-4.207-.665-5.722.314-.762.402-1.577.271-2.351h-78.775c-7.623 0-13.859 6.237-13.859 13.86v25.785h92.286c.175-.857.128-1.76-.182-2.617z" fill="#1c2e7a"/><path d="m119.529 49.464c0 5.962-4.833 10.795-10.795 10.795s-10.795-4.833-10.795-10.795 4.833-10.795 10.795-10.795 10.795 4.833 10.795 10.795z" fill="#ff4155"/><path d="m149.376 49.464c0 5.962-4.833 10.795-10.795 10.795s-10.795-4.833-10.795-10.795 4.833-10.795 10.795-10.795c5.961-.001 10.795 4.833 10.795 10.795z" fill="#ffdd40"/><path d="m179.223 49.464c0 5.962-4.833 10.795-10.795 10.795s-10.795-4.833-10.795-10.795 4.833-10.795 10.795-10.795c5.962-.001 10.795 4.833 10.795 10.795z" fill="#38c674"/><g><path d="m322.992 57.697h-108.318c-4.547 0-8.234-3.686-8.234-8.234s3.686-8.234 8.234-8.234h108.319c4.547 0 8.234 3.686 8.234 8.234-.001 4.549-3.688 8.234-8.235 8.234z" fill="#3c58a0"/></g><g><path d="m410.983 57.697h-9.386c-4.547 0-8.234-3.686-8.234-8.234s3.686-8.234 8.234-8.234h9.386c4.547 0 8.234 3.686 8.234 8.234-.001 4.549-3.687 8.234-8.234 8.234z" fill="#3c58a0"/></g><g><path d="m378.35 57.697h-9.386c-4.547 0-8.234-3.686-8.234-8.234s3.686-8.234 8.234-8.234h9.386c4.547 0 8.234 3.686 8.234 8.234-.001 4.549-3.687 8.234-8.234 8.234z" fill="#3c58a0"/></g><path d="m186.25 245.838-16.574-10.596c-2.763-1.766-6.386.218-6.386 3.497v21.193c0 3.279 3.624 5.263 6.386 3.497l16.574-10.596c2.553-1.633 2.553-5.362 0-6.995z" fill="#ff4155"/><path d="m271.169 301.565v139.361c0 9.211 7.536 16.747 16.747 16.747h101.181c9.211 0 16.747-7.536 16.747-16.747v-139.361z" fill="#ffdd40"/><path d="m271.169 440.925c0 9.211 7.537 16.747 16.747 16.747h52.165c-.421-.969-1.153-1.822-2.157-2.395-10.221-5.832-9.612-17.407-9.612-17.407s0-66.25 0-77.751c0-7.742 4.761-11.368 7.874-12.911 1.628-.807 2.634-2.49 2.634-4.307v-16.916c0-.943-.288-1.861-.798-2.653-4.758-7.392.291-14.069 3.704-17.379 1.178-1.142 1.667-2.817 1.329-4.388h-71.885v139.36z" fill="#ffb332"/><path d="m389.097 194.91h-101.18c-9.211 0-16.747 7.536-16.747 16.747v92.104h134.675v-92.104c-.001-9.211-7.537-16.747-16.748-16.747z" fill="#ff4155"/><path d="m342.82 300.786c-2.715-6.636-.719-11.859 1.45-15.085 1.394-2.074 1.011-4.805-.87-6.451-7.401-6.477-4.544-14.859-2.772-18.471.603-1.23.667-2.65.179-3.93l-8.159-21.389c-.222-.58-.568-1.099-.982-1.563-4.844-5.428-3.044-10.987-.903-14.498 1.26-2.066.804-4.712-1.045-6.272-6.81-5.745-4.284-12.353-2.141-15.815.457-.739.704-1.566.75-2.403h-40.409c-9.211 0-16.747 7.536-16.747 16.747v92.104h71.826c.255-.968.217-2.012-.177-2.974z" fill="#e80054"/><ellipse cx="338.507" cy="249.335" fill="#e9efff" rx="33.938" ry="33.938" transform="matrix(.707 -.707 .707 .707 -77.16 312.389)"/><path d="m343.401 279.25c-7.401-6.477-4.544-14.859-2.772-18.471.603-1.23.667-2.65.179-3.93l-8.159-21.389c-.222-.58-.568-1.099-.982-1.563-4.844-5.428-3.044-10.987-.903-14.498.617-1.011.817-2.161.649-3.255-15.336 3.263-26.843 16.88-26.843 33.19 0 18.744 15.195 33.939 33.939 33.939 2.249 0 4.445-.224 6.571-.642-.09-1.26-.653-2.483-1.679-3.381z" fill="#d3dcfb"/><g><path d="m336.349 346.415h-32.786c-6.063 0-10.978-4.915-10.978-10.978s4.915-10.978 10.978-10.978h32.786c6.063 0 10.978 4.916 10.978 10.978.001 6.062-4.914 10.978-10.978 10.978z" fill="#fcf2c8"/></g><g><path d="m378.468 376.587h-79.296c-4.547 0-8.234-3.686-8.234-8.234s3.686-8.234 8.234-8.234h79.296c4.547 0 8.234 3.686 8.234 8.234s-3.686 8.234-8.234 8.234z" fill="#ff9100"/></g><g><path d="m378.468 404.744h-79.296c-4.547 0-8.234-3.686-8.234-8.234s3.686-8.234 8.234-8.234h79.296c4.547 0 8.234 3.686 8.234 8.234 0 4.549-3.686 8.234-8.234 8.234z" fill="#ff9100"/></g><g><path d="m378.468 432.903h-79.296c-4.547 0-8.234-3.686-8.234-8.234s3.686-8.234 8.234-8.234h79.296c4.547 0 8.234 3.686 8.234 8.234s-3.686 8.234-8.234 8.234z" fill="#ff9100"/></g><path d="m351.263 245.838-16.574-10.596c-2.763-1.766-6.386.218-6.386 3.497v21.193c0 3.279 3.624 5.263 6.386 3.497l16.574-10.596c2.553-1.633 2.553-5.362 0-6.995z" fill="#ff4155"/></g></svg>