<svg id="Layer_1" enable-background="new 0 0 511.725 511.725" height="512" viewBox="0 0 511.725 511.725" width="512" xmlns="http://www.w3.org/2000/svg"><g><g><path d="m511.362 255.5c0 17.639-1.787 34.86-5.191 51.492-23.824 116.427-125.339 195.654-248.809 195.654-141.108.001-242.904-105.537-242.904-246.646 0-117.775 65.593-217.439 173.993-247.013 21.475-5.859 44.078-8.987 67.411-8.987 141.109 0 255.5 114.391 255.5 255.5z" fill="#82cd64"/></g><path d="m470.31 394.428c-.002.001-.005.002-.007.004 19.142-29.48 31.899-62.362 37.613-96.917 5.651-34.171-6.254-68.887-31.617-92.473-.073-.068-.145-.135-.216-.201-32.863-28.787-73.973-42.241-113.429-41.344-.296.006-.593.012-.889.02-42.076 1.042-75.89-34.345-72.561-76.302l2.424-30.557c.259-3.266 2.985-5.784 6.261-5.784 3.469 0 6.281-2.812 6.281-6.281v-29.307c0-3.469-2.812-6.281-6.281-6.281h-109.433c-18.546 5.06-36.247 12.16-52.856 21.038.003-.005.006-.01.009-.015-79.698 42.582-133.923 126.032-135.223 221.944-1.906 140.659 111.29 257.094 251.949 259.004 90.167 1.224 171.247-44.555 217.975-116.548zm-315.154-64.281c-.662.662-1.182 1.383-1.575 2.137-6.123-7.358-11.833-15.069-17.111-23.091l3.934-3.934 19.82 19.82zm-58.942-132.105c-.028-.247-.057-.493-.085-.74l.413.413zm3.228 20.814 7.961-7.961 1.16-1.161 2.45 2.45 17.37 17.37-7.607 7.607s0 0-.001.001l-12.212 12.212-1.596-1.596c-3.051-9.413-5.573-19.064-7.525-28.922zm60.782-21.142-19.82 19.82-17.37-17.37s0 0-.001-.001l-2.45-2.45 19.82-19.82zm-7.799-31.841 19.82-19.82 19.82 19.82-19.82 19.82zm-31.841 95.523 12.212-12.212 7.608-7.608 19.82 19.82-19.82 19.82-17.37-17.37zm31.841-31.841 19.82-19.82 19.82 19.82-19.819 19.819zm31.841-31.841 19.82-19.82 19.82 19.82-19.82 19.82zm51.661 12.022 7.357 7.356c-6.413 6.928-12.229 14.383-17.375 22.264l-9.801-9.801zm0-24.043-19.82-19.82 19.82-19.82 19.82 19.82zm28.788-4.746-1.408 17.749c-2.612 2.036-5.159 4.149-7.644 6.333-.071.063-.145.122-.216.185l-7.499-7.499zm-16.767-46.915 19.82-19.82 2.076 2.076-2.913 36.727zm-12.021-12.021-19.82-19.82 19.82-19.82 19.82 19.82zm-12.021 12.021-19.82 19.82-19.82-19.82 19.82-19.82zm-51.661-12.021-19.82-19.82 19.82-19.82 19.819 19.819zm-12.021 12.021-19.82 19.82-19.82-19.82 19.82-19.82zm-31.841 31.841-19.82 19.82-1.16-1.16-12.811-12.811c-.01-.922-.035-1.84-.035-2.764 0-3.032.057-6.052.162-9.058l12.684-12.684 1.16-1.16zm-3.542 123.822 3.542 3.542-1.023 1.023c-.853-1.513-1.696-3.033-2.519-4.565zm27.584 3.542 19.82-19.82 19.82 19.82-19.82 19.82zm31.841-31.841 19.82-19.819 12.986 12.986c-3.848 7.518-7.135 15.37-9.825 23.493l-3.16 3.16zm83.16-210.523h.685l6.413 6.413-2.251 28.379-4.505 4.505-19.819-19.82zm-24.043 0-7.456 7.456-7.456-7.456zm-39.639 0h.685l19.477 19.477-19.82 19.82-19.82-19.82zm-24.042 0-7.457 7.457-7.457-7.457zm-38.956 0 19.478 19.478-19.82 19.82-14.997-14.997-4.823-4.823 19.477-19.477h.685zm-12.363 51.319-17.37 17.37-2.45 2.45-1.16-1.16-6.9-6.9c2.311-10.526 5.27-20.808 8.836-30.804zm35.697 241.94c1.152-.421 2.213-1.08 3.097-1.964l5.068-5.068 5.068 5.068c1.594 1.594 3.756 2.49 6.01 2.49 7.573 0 11.365-9.156 6.01-14.51l-5.068-5.068 15.901-15.901c-.9 7.025-1.366 14.185-1.366 21.455 0 3.602.127 7.175.352 10.72v.002.004c.851 13.437 3.295 26.438 7.134 38.827-15.353-10.472-29.503-22.573-42.206-36.055z" fill="#20b7a1"/><g><g fill="#6ee1ff"><path d="m263.297 35.353h-137.152c-8.76 5.173-17.183 10.852-25.231 17h153.182l-24.271 306.001c-.372 4.68 3.121 8.774 7.801 9.146.229.018.456.026.682.026 4.39 0 8.111-3.377 8.464-7.828l25-315.173c.188-2.363-.621-4.698-2.23-6.439-1.611-1.743-3.874-2.733-6.245-2.733z"/><path d="m23.038 359.698c.062.782.236 1.525.491 2.227.205.447.417.891.625 1.338 1.587 2.745 4.65 4.487 8.03 4.237 4.68-.371 8.172-4.466 7.801-9.146l-16.58-209.014c-5.656 12.364-10.346 25.259-13.993 38.588z"/></g><g fill="#2896ff"><path d="m207.636 52.353v-17h-81.491c-8.76 5.173-17.183 10.852-25.231 17z"/><path d="m23.038 359.698c.062.782.236 1.525.491 2.227.205.447.417.891.625 1.338 1.587 2.745 4.65 4.487 8.03 4.237 4.68-.371 8.172-4.466 7.801-9.146l-16.58-209.014c-5.656 12.364-10.346 25.259-13.993 38.588z"/></g><path d="m256.798 75.397v-31.126h-31.126l8.152 8.152-19.82 19.82-19.819-19.819 8.152-8.152h-40.347l8.152 8.152-19.82 19.82-19.82-19.82 8.152-8.152h-26.561c-2.725 1.858-5.411 3.768-8.058 5.728l2.425 2.425-19.82 19.82-1.16-1.16v26.363l1.16-1.16 19.82 19.82-19.82 19.82-1.16-1.161v26.363l1.16-1.16 19.82 19.82-19.82 19.82-1.16-1.16v26.363l1.16-1.161 19.82 19.82-19.82 19.82-1.16-1.16v26.363l1.16-1.16 19.82 19.82-19.82 19.82-1.16-1.16v26.362l1.16-1.16 5.069 5.069c1.594 1.594 3.756 2.49 6.01 2.49 7.573 0 11.365-9.156 6.011-14.511l-5.069-5.068 19.82-19.82 19.82 19.82-5.068 5.068c-5.355 5.355-1.562 14.511 6.011 14.511 2.254 0 4.416-.896 6.01-2.49l5.068-5.068 5.068 5.068c1.594 1.594 3.756 2.49 6.01 2.49 7.573 0 11.365-9.156 6.01-14.511l-5.068-5.068 19.82-19.82 19.82 19.82-5.068 5.068c-5.355 5.355-1.562 14.511 6.01 14.511 2.254 0 4.416-.896 6.01-2.49l5.068-5.068 7.558 7.558h24.042l-19.579-19.579 19.82-19.819.99.99c-.265-1.465-.435-2.96-.503-4.477-.181-4.042.621-7.931 2.157-11.5-.677-2.418-1.09-4.942-1.206-7.531-.045-1.012-.029-2.015.044-3.006l-1.482 1.482-19.82-19.82 19.82-19.819 1.456 1.456c-.004-.086-.013-.171-.017-.257-.292-6.529 1.966-12.662 5.782-17.68-1.136-3.122-1.822-6.461-1.976-9.914-.044-.987-.028-1.965.041-2.932l-5.285 5.285-19.82-19.82 19.82-19.82 6.177 6.177c.1-5.327 1.877-10.345 4.776-14.65v-26.523l-10.954 10.954-19.82-19.82 19.82-19.82 10.954 10.954v-45.957l-10.954 10.954-19.82-19.819 19.82-19.82zm-74.635-10.953 19.819 19.819-19.82 19.82-19.82-19.819zm-12.021 179.025-19.819 19.819-19.82-19.82 19.82-19.82zm-39.64-63.682 19.82-19.82 19.82 19.82-19.82 19.82zm31.841 31.841 19.82-19.82 19.82 19.82-19.82 19.82zm0-63.682 19.82-19.82 19.82 19.82-19.82 19.82zm-12.021-51.66 19.819 19.819-19.82 19.82-19.82-19.82zm-51.661-12.022 19.82-19.82 19.82 19.82-19.82 19.82zm0 63.682 19.82-19.82 19.82 19.82-19.82 19.82zm0 63.682 19.82-19.82 19.82 19.82-19.82 19.82zm19.82 83.502-19.82-19.82 19.82-19.82 19.82 19.82zm31.841 31.841-19.82-19.82 19.82-19.82 19.82 19.82zm12.021-51.661 19.82-19.819 19.82 19.82-19.819 19.819zm71.481 31.841-19.819 19.819-19.82-19.82 19.819-19.819zm0-63.682-19.82 19.819-19.82-19.82 19.82-19.819zm0-63.682-19.82 19.82-19.82-19.82 19.82-19.82zm0-63.682-19.82 19.82-19.82-19.819 19.82-19.82z" fill="#6ee1ff"/><path d="m70.268 79.914 4.35 4.35-19.82 19.82-2.713-2.713c-3.47 4.58-6.785 9.283-9.945 14.097l.637.637-2.963 2.963c-9.432 14.905-17.366 30.85-23.587 47.629l6.73-6.729 19.82 19.82-18.401 18.401c.068.784.112 1.571.112 2.361v24.632l18.288 18.289-13.214 13.213v37.256l13.213 13.213-13.213 13.213v24.042l25.234-25.234 19.82 19.82-4.885 4.885c-5.164 5.164-3.912 11.805 2.983 14.209 3.189 1.112 6.593.257 8.854-2.005l5.069-5.069 12.021-12.021 2.45-2.45c1.594-1.594 2.49-3.756 2.49-6.01 0-7.573-9.156-11.365-14.511-6.01l-2.45 2.45-19.82-19.82 19.82-19.82 2.45 2.45c5.355 5.355 14.511 1.562 14.511-6.01 0-2.254-.896-4.416-2.49-6.01l-2.45-2.45 12.212-12.212c3.882-3.882 3.121-10.371-1.554-13.249-3.352-2.064-7.683-1.556-10.467 1.228l-12.209 12.209-19.82-19.82 19.82-19.82 2.45 2.45c5.355 5.355 14.511 1.562 14.511-6.011 0-2.254-.896-4.416-2.49-6.011l-34.29-34.29 34.29-34.291c1.594-1.594 2.49-3.756 2.49-6.01 0-7.573-9.156-11.365-14.511-6.01l-2.45 2.45-19.82-19.82 19.82-19.82 4.823 4.823c4.974 4.974 13.493 2.098 14.434-4.873.355-2.629-.538-5.272-2.413-7.148l-4.823-4.823-12.021-12.022-4.278-4.278c-4.161 3.85-8.197 7.832-12.094 11.949zm4.351 195.396-19.82 19.82-19.82-19.82 19.82-19.82zm0-63.682-19.82 19.82-19.82-19.82 19.82-19.82zm0-63.682-19.82 19.82-19.82-19.82 19.82-19.82z" fill="#2896ff"/><path d="m85.859 64.787h196.388v-41.868h-132.279c-23.496 10.715-45.077 24.891-64.109 41.868z" fill="#2d56a1"/><g><circle cx="344.057" cy="344.546" fill="#ffc305" r="167.179"/><path d="m511.235 344.546c0 22.177-4.318 43.345-12.16 62.71-24.805 61.258-84.866 88.083-155.019 88.083-92.33 0-147.142-58.949-147.142-151.279 0-62.242 13.978-116.054 64.432-144.832 24.39-13.912 52.622-21.86 82.71-21.86 92.331 0 167.179 74.848 167.179 167.178z" fill="#ffc305"/><path d="m469.646 454.879c-.001-.001-.002-.002-.004-.004 12.306-13.999 22.314-30.068 29.422-47.623-29.519 17.081-67.073.214-74.414-32.981-2.478-11.204-3.785-22.843-3.785-34.782 0-42.741 16.735-81.639 43.982-110.515-.521-.525-4.174-4.359-8.592-8.36-29.353 31.04-47.39 72.885-47.39 118.876 0 17.379 2.578 34.164 7.368 49.998 6.26 20.694-11.607 40.518-32.803 36.256-.244-.049-.488-.099-.732-.149-13.185-2.713-22.642-14.332-22.642-27.793v-219.668c-.121-.008-5.623-.566-12-.715v192.844c0 20.823-24.437 32.132-40.249 18.583-.83-.712-1.654-1.431-2.47-2.159-6.206-5.531-9.13-13.808-7.924-22.033 1.205-8.217 1.833-16.618 1.833-25.164 0-37.79-12.177-72.782-32.804-101.28-8.158-11.272-10.22-25.937-5.016-38.842.031-.076.062-.153.093-.229-54.185 30.824-88.401 90.242-84.289 156.13 5.255 82.99 71.049 149.536 153.72 155.947.302.023.603.042.904.063 49.849 3.601 96.304-14.899 129.553-47.683.001.001.002.002.002.003 4.15-4.393 3.926-4.156 8.237-8.72zm-182.399-115.126c-.014 8.94-11.966 12.008-16.365 4.225-13.709-24.257-21.534-52.28-21.534-82.13 0-.081 0-.163 0-.244.012-8.407 11.147-11.318 15.438-4.088 14.262 24.03 22.461 52.06 22.461 81.974z" fill="#ff8500"/><g fill="#fff"><g><path d="m225.201 226.992c31.978 29.474 52.046 71.684 52.046 118.498 0 46.337-19.663 88.163-51.074 117.592 2.843 2.827 5.786 5.552 8.825 8.171 33.385-31.588 54.248-76.283 54.248-125.763 0-49.992-21.301-95.096-55.294-126.736-3.014 2.641-5.934 5.389-8.751 8.238z"/><path d="m410.866 345.49c0-46.814 20.068-89.024 52.046-118.498-2.818-2.849-5.737-5.597-8.753-8.238-33.993 31.64-55.294 76.744-55.294 126.736 0 49.48 20.863 94.174 54.248 125.763 3.039-2.618 5.983-5.344 8.825-8.171-31.409-29.43-51.072-71.255-51.072-117.592z"/></g><path d="m338.057 511.606c1.992.07 3.99.119 6 .119s4.008-.048 6-.119v-334.12c-1.992-.07-3.99-.119-6-.119s-4.008.048-6 .119z"/></g></g></g></g></svg>