<svg id="Capa_1" enable-background="new 0 0 512 512" height="512" viewBox="0 0 512 512" width="512" xmlns="http://www.w3.org/2000/svg"><g><g><g><g><g><g><g><g><circle cx="256" cy="256" fill="#1dd882" r="256"/></g></g></g></g></g></g></g><path d="m512 256c0-8.841-.448-17.577-1.323-26.187l-152.813-152.813-43.238 7.566-12.081 57.662 40.406 40.407-24.508 17.349-128.388-128.389-49.454 70.633 103.656 110.271-155.877 110.343 148.451 148.451c6.329.468 12.721.707 19.169.707 141.385 0 256-114.615 256-256z" fill="#28bc75"/><g><g><path d="m216.741 282.715c0-45.016 3.997-84.574 39.259-107.212-19.816-12.722-43.39-20.101-68.687-20.101-70.313 0-127.313 57-127.313 127.313s57 127.313 127.313 127.313c25.297 0 48.871-7.379 68.687-20.101-35.262-22.638-39.259-62.197-39.259-107.212z" fill="#ffce00"/></g><g><path d="m205.36 282.759h-145.36c.024 70.293 57.014 127.269 127.312 127.269 25.297 0 48.871-7.379 68.687-20.101-35.25-22.631-50.624-62.171-50.639-107.168z" fill="#fdba12"/></g><g><path d="m324.687 155.402c-25.297 0-48.871 7.379-68.687 20.101 35.262 22.638 46.545 62.196 46.545 107.212s-11.283 84.574-46.545 107.212c19.816 12.722 43.39 20.101 68.687 20.101 70.313 0 127.313-57 127.313-127.313s-57-127.313-127.313-127.313z" fill="#fff"/></g><g><path d="m302.545 282.759c-.015 44.997-11.294 84.537-46.545 107.168 19.816 12.722 43.39 20.101 68.687 20.101 70.298 0 127.289-56.976 127.312-127.269z" fill="#e9edf5"/></g><g><ellipse cx="256" cy="282.715" fill="#ff6c52" rx="58.626" ry="107.212"/></g><g><path d="m197.375 282.759c.015 44.997 23.375 84.537 58.625 107.168 35.251-22.631 58.61-62.171 58.625-107.168z" fill="#ff432e"/></g></g><g><path d="m196.091 142.228-3.495-10.166h-27.851l-3.495 10.166h-20.65l26.58-70.633h22.874l26.686 70.633zm-17.473-52.63-9.001 26.58h18.002z" fill="#414952"/></g><g><path d="m302.545 142.228v-70.633h40.029c13.979 0 20.649 9.107 20.649 18.003 0 8.789-5.4 14.719-12.072 16.202 7.518 1.165 13.449 8.366 13.449 17.261 0 10.272-6.884 19.167-20.756 19.167zm42.147-49.454c0-3.389-2.542-5.824-6.248-5.824h-17.684v11.754h17.685c3.705.001 6.247-2.435 6.247-5.93zm1.376 27.745c0-3.495-2.541-6.354-6.989-6.354h-18.319v12.708h18.319c4.342 0 6.989-2.541 6.989-6.354z" fill="#414952"/></g></g></svg>