<svg id="Capa_1" enable-background="new 0 0 512 512" height="512" viewBox="0 0 512 512" width="512" xmlns="http://www.w3.org/2000/svg"><g><g><path d="m512 256c0 43.79-11 85.02-30.39 121.07l-225.61 49.67-225.61-49.67c-19.39-36.05-30.39-77.28-30.39-121.07 0-46.63 12.47-90.34 34.26-128 41.698 72.091 399.22 76.52 443.48 0 21.79 37.66 34.26 81.37 34.26 128z" fill="#9965d8"/><path d="m477.74 128c-44.26 76.52-126.99 128-221.74 128s-177.48-51.48-221.74-128c.01-.02.03-.05.04-.07 44.27-76.48 126.98-127.93 221.7-127.93s177.43 51.45 221.7 127.93c.01.02.03.05.04.07z" fill="#b895e5"/><path d="m481.61 377.07c-1.61 2.99-3.27 5.94-5 8.85-14.577 24.71-55.812 24.132-77.553 42.611-17.737 15.077-14.933 50.404-36.347 60.239-32.48 14.91-68.62 23.23-106.71 23.23s-74.23-8.32-106.71-23.23c-3.501-1.607.745-9.814-2.666-11.574-1.918-.99-11.524 4.521-13.414 3.484-43.5-23.83-79.32-59.91-102.82-103.61z" fill="#5541b6"/></g><g><path d="m114.66 380.557v-35.409l-25.825-18.298-25.825 18.298v35.409l25.825 17.701z" fill="#f5dd6e"/><path d="m114.66 165.72-9.98-17.805-15.845-5.341-15.845 5.341-9.98 17.805 25.825 16.402z" fill="#eed8c6"/><path d="m63.01 165.72h51.65v179.428h-51.65z" fill="#a9eb58"/><path d="m104.68 147.915-15.845-28.286-15.845 28.286z" fill="#616579"/><path d="m114.66 380.557v-35.409l-25.825-18.298v71.408z" fill="#eec036"/><path d="m114.66 165.72-9.98-17.805-15.845-5.341v39.548z" fill="#dfbba0"/><path d="m114.66 390.134v-9.576h-51.65v9.576c0 14.264 11.561 25.825 25.825 25.825s25.825-11.561 25.825-25.825z" fill="#db6870"/><path d="m88.835 165.72h25.825v179.428h-25.825z" fill="#79ce8b"/><path d="m114.66 390.134v-9.576h-25.825v35.401c14.264 0 25.825-11.561 25.825-25.825z" fill="#db504f"/><path d="m104.68 147.915-15.845-28.286v28.286z" fill="#464652"/></g><g><path d="m476.61 215.37v170.55c-26.47 44.87-66.24 80.96-113.9 102.85h-213.42c-5.47-2.51-10.83-5.21-16.08-8.09v-395.41h213.29z" fill="#e8ebf7"/><path d="m476.61 215.37v170.55c-26.47 44.87-66.24 80.96-113.9 102.85h-57.8v-403.5h41.59z" fill="#daddee"/><path d="m346.5 215.37v-130.1l130.11 130.1z" fill="#c8cde4"/><g fill="#616579"><path d="m181.883 266.395h246.055v23.779h-246.055z"/><path d="m181.883 321.198h246.055v23.779h-246.055z"/><path d="m181.883 376.001h246.055v23.779h-246.055z"/></g><path d="m304.91 266.395h123.027v23.779h-123.027z" fill="#464652"/><path d="m304.91 321.198h123.027v23.779h-123.027z" fill="#464652"/><path d="m304.91 376.001h123.027v23.779h-123.027z" fill="#464652"/></g></g></svg>