<?xml version="1.0" encoding="iso-8859-1"?>
<!-- Generator: Adobe Illustrator 19.0.0, SVG Export Plug-In . SVG Version: 6.00 Build 0)  -->
<svg version="1.1" id="Capa_1" xmlns="http://www.w3.org/2000/svg" xmlns:xlink="http://www.w3.org/1999/xlink" x="0px" y="0px"
	 viewBox="0 0 512.001 512.001" style="enable-background:new 0 0 512.001 512.001;" xml:space="preserve">
<path style="fill:#EA4444;" d="M512.001,256.001c0,141.385-114.615,256-256,256s-256-114.615-256-256s114.615-256,256-256
	S512.001,114.616,512.001,256.001z"/>
<path style="fill:#FBC56D;" d="M342.635,506.994c0,3.795-4.062,6.207-7.394,4.389l-76.846-41.916c-1.492-0.814-3.296-0.814-4.789,0
	l-76.846,41.916c-3.332,1.817-7.394-0.594-7.394-4.389V282.226h173.268v224.768H342.635z"/>
<path style="fill:#F8BB5E;" d="M342.635,282.226v53.809c-2.145,0.91-4.24,1.954-6.272,3.153c-0.777,0.458-1.558,0.91-2.344,1.356
	c-8.418,4.774-15.184,11.725-20.61,19.739c-6.065,8.958-18.424,12.287-28.168,7.599c-8.793-4.231-18.177-6.915-27.935-6.828
	c-0.435,0.004-0.87,0.006-1.306,0.006s-0.871-0.002-1.306-0.006c-9.758-0.087-19.142,2.597-27.935,6.828
	c-9.044,4.351-20.333,1.786-26.759-5.767v136.592l-23.24,12.676c-3.332,1.817-7.394-0.594-7.394-4.389V336.035v-53.809h30.635
	H342.635z"/>
<path style="fill:#D9E7EC;" d="M413.785,224.911c-8.014,5.426-14.965,12.193-19.74,20.611c-0.445,0.785-0.897,1.566-1.355,2.342
	c-4.969,8.424-7.344,17.92-8.086,27.672c-0.818,10.743-9.828,19.753-20.571,20.571c-9.751,0.743-19.247,3.117-27.67,8.086
	c-0.777,0.458-1.558,0.91-2.344,1.356c-8.418,4.774-15.184,11.725-20.61,19.739c-6.065,8.957-18.424,12.287-28.168,7.599
	c-8.793-4.231-18.178-6.915-27.935-6.828c-0.435,0.004-0.87,0.006-1.306,0.006s-0.871-0.002-1.306-0.006
	c-9.758-0.087-19.142,2.597-27.935,6.828c-9.743,4.688-22.102,1.359-28.167-7.599c-5.426-8.014-12.193-14.965-20.611-19.739
	c-0.785-0.445-1.567-0.897-2.344-1.356c-8.423-4.969-17.919-7.343-27.671-8.086c-10.743-0.818-19.753-9.827-20.571-20.571
	c-0.743-9.751-3.117-19.247-8.086-27.671c-0.459-0.778-0.911-1.559-1.357-2.345c-4.773-8.417-11.723-15.183-19.736-20.608
	c-8.959-6.065-12.288-18.425-7.6-28.168c4.231-8.793,6.915-18.178,6.828-27.935c-0.004-0.435-0.006-0.87-0.006-1.305
	c0-0.436,0.002-0.871,0.006-1.306c0.087-9.758-2.597-19.142-6.828-27.935c-4.688-9.744-1.358-22.104,7.6-28.169
	c8.013-5.425,14.963-12.191,19.737-20.608c0.445-0.786,0.897-1.567,1.356-2.344c4.969-8.423,7.343-17.919,8.086-27.671
	c0.818-10.743,9.828-19.753,20.571-20.571c9.751-0.743,19.247-3.117,27.671-8.086c0.777-0.458,1.558-0.91,2.344-1.356
	c8.418-4.774,15.184-11.725,20.61-19.739c6.065-8.957,18.424-12.286,28.167-7.599c8.793,4.231,18.178,6.915,27.935,6.828
	c0.435-0.004,0.87-0.006,1.305-0.006c0.436,0,0.871,0.002,1.306,0.006c9.758,0.087,19.142-2.597,27.935-6.828
	c9.743-4.688,22.102-1.358,28.167,7.599c5.426,8.013,12.192,14.965,20.61,19.739c0.785,0.445,1.566,0.897,2.343,1.356
	c8.423,4.969,17.919,7.343,27.671,8.086c10.743,0.818,19.753,9.827,20.571,20.571c0.743,9.752,3.117,19.248,8.086,27.672
	c0.458,0.776,0.91,1.557,1.355,2.342c4.774,8.418,11.726,15.185,19.739,20.611c8.957,6.065,12.286,18.425,7.599,28.168
	c-4.231,8.793-6.915,18.177-6.828,27.935c0.004,0.435,0.006,0.87,0.006,1.306s-0.002,0.871-0.006,1.306
	c-0.087,9.758,2.597,19.142,6.828,27.935C426.071,206.487,422.742,218.846,413.785,224.911z"/>
<path style="fill:#C5D3DD;" d="M234.56,329.629c-2.646,0.937-5.248,2.029-7.8,3.257c-9.743,4.688-22.102,1.359-28.167-7.599
	c-5.426-8.014-12.193-14.965-20.611-19.739c-0.785-0.445-1.567-0.897-2.344-1.356c-8.423-4.969-17.919-7.343-27.671-8.086
	c-10.743-0.818-19.753-9.827-20.571-20.571c-0.743-9.752-3.117-19.247-8.086-27.671c-0.459-0.778-0.911-1.559-1.357-2.345
	c-4.773-8.417-11.723-15.183-19.736-20.608c-8.959-6.065-12.288-18.425-7.6-28.168c4.231-8.793,6.915-18.178,6.828-27.935
	c-0.004-0.435-0.006-0.87-0.006-1.305c0-0.436,0.002-0.871,0.006-1.306c0.087-9.758-2.597-19.142-6.828-27.935
	c-4.688-9.744-1.358-22.104,7.6-28.169c8.013-5.425,14.963-12.191,19.737-20.608c0.445-0.786,0.897-1.567,1.356-2.344
	c4.969-8.423,7.343-17.919,8.086-27.671c0.818-10.743,9.828-19.753,20.571-20.571c9.751-0.743,19.247-3.117,27.671-8.086
	c0.777-0.458,1.558-0.91,2.344-1.356c8.418-4.774,15.185-11.725,20.61-19.739c6.065-8.957,18.424-12.286,28.167-7.599
	c2.552,1.228,5.154,2.32,7.8,3.257c-57.507,31.248-96.631,92.203-96.631,162.126C137.929,237.426,177.053,298.381,234.56,329.629z"
	/>
<path style="fill:#B6C4CF;" d="M256.001,32.503c-74.439,0-135,60.561-135,135s60.561,135,135,135s135-60.561,135-135
	S330.44,32.503,256.001,32.503z M256.001,282.503c-63.411,0-115-51.589-115-115s51.589-115,115-115s115,51.589,115,115
	S319.412,282.503,256.001,282.503z M256.001,72.503c-52.383,0-95,42.617-95,95s42.617,95,95,95s95-42.617,95-95
	S308.384,72.503,256.001,72.503z M322.305,132.503h-27.921c-1.638-10.484-4.015-20.16-7.068-28.53
	c-0.725-1.989-1.472-3.844-2.233-5.6C301.067,105.123,314.229,117.267,322.305,132.503z M256.001,92.503
	c4.419,0,13.467,13.829,18.109,40h-36.219C242.534,106.333,251.582,92.503,256.001,92.503z M226.919,98.374
	c-0.761,1.756-1.508,3.611-2.233,5.6c-3.053,8.371-5.43,18.046-7.068,28.53h-27.921C197.773,117.267,210.935,105.123,226.919,98.374
	z M182.51,182.503c-0.988-4.848-1.509-9.864-1.509-15s0.521-10.152,1.509-15h32.961c-0.305,4.917-0.47,9.927-0.47,15
	s0.165,10.083,0.47,15H182.51z M189.697,202.503h27.921c1.638,10.484,4.015,20.159,7.068,28.53c0.725,1.989,1.472,3.844,2.233,5.6
	C210.935,229.884,197.773,217.74,189.697,202.503z M256.001,242.503c-4.419,0-13.467-13.829-18.109-40h36.219
	C269.468,228.674,260.42,242.503,256.001,242.503z M276.499,182.503h-40.996c-0.319-4.74-0.502-9.73-0.502-15s0.183-10.26,0.502-15
	h40.996c0.319,4.74,0.502,9.73,0.502,15S276.818,177.764,276.499,182.503z M285.083,236.633c0.761-1.756,1.508-3.61,2.233-5.6
	c3.053-8.371,5.43-18.047,7.068-28.53h27.921C314.229,217.74,301.067,229.884,285.083,236.633z M296.531,182.503
	c0.305-4.917,0.47-9.927,0.47-15s-0.165-10.083-0.47-15h32.961c0.988,4.848,1.509,9.864,1.509,15s-0.521,10.152-1.509,15H296.531z"
	/>
<g>
</g>
<g>
</g>
<g>
</g>
<g>
</g>
<g>
</g>
<g>
</g>
<g>
</g>
<g>
</g>
<g>
</g>
<g>
</g>
<g>
</g>
<g>
</g>
<g>
</g>
<g>
</g>
<g>
</g>
</svg>
