<?xml version="1.0" encoding="iso-8859-1"?>
<!-- Generator: Adobe Illustrator 19.0.0, SVG Export Plug-In . SVG Version: 6.00 Build 0)  -->
<svg version="1.1" id="Capa_1" xmlns="http://www.w3.org/2000/svg" xmlns:xlink="http://www.w3.org/1999/xlink" x="0px" y="0px"
	 viewBox="0 0 512 512" style="enable-background:new 0 0 512 512;" xml:space="preserve">
<path style="fill:#FFC143;" d="M512,256c0,141.385-114.615,256-256,256S0,397.385,0,256S114.615,0,256,0S512,114.615,512,256z"/>
<path style="fill:#63A0B2;" d="M279,510h-46v-80h46V510z"/>
<path style="fill:#7DB0BF;" d="M384.818,163.829V318.32c0,63.424-45.61,116.188-105.818,127.302V510h-26.667v-62.255
	c-70.105-1.605-126.442-58.934-126.442-129.425v-17.975h44.595v17.064c0,46.872,37.997,84.868,84.868,84.868l0,0
	c46.871,0,84.868-37.996,84.868-84.868v-153.58H384.818z"/>
<path style="fill:#63A0B2;" d="M363.868,163.829V317.41c0,46.872-37.997,84.868-84.868,84.868c-4.014,0-7.957-0.298-11.823-0.837
	c41.272-5.756,73.045-41.173,73.045-84.03V163.829H363.868z M149.537,318.32v-17.975h-23.646v17.975
	c0,71.5,57.963,129.463,129.463,129.463l0,0c3.986,0,7.928-0.19,11.823-0.543C201.219,441.268,149.537,385.834,149.537,318.32z"/>
<path style="fill:#FFF5F5;" d="M254.368,263.954c-14.217,14.217-43.029,8.454-64.355-12.871s-27.088-50.138-12.871-64.355
	s43.029-8.454,64.355,12.871C262.823,220.924,268.585,249.737,254.368,263.954z"/>
<path style="fill:#FFE7BF;" d="M199.06,258.886c-3.115-2.31-6.151-4.908-9.046-7.803c-21.325-21.325-27.088-50.138-12.871-64.355
	s43.029-8.454,64.355,12.871c2.895,2.895,5.492,5.931,7.803,9.046c-16.957-11.829-37.99-12.324-50.277-0.037
	C186.737,220.896,187.231,241.929,199.06,258.886z"/>
<path style="fill:#235967;" d="M257.594,228.567l-45.064-45.064c-3.905-3.905-3.905-10.237,0-14.142L378.58,3.31
	c3.905-3.905,10.237-3.905,14.142,0l45.064,45.064c3.905,3.905,3.905,10.237,0,14.142l-166.05,166.051
	C267.831,232.472,261.499,232.472,257.594,228.567z"/>
<path style="fill:#174550;" d="M392.723,3.31l15.079,15.079c-3.905-3.905-10.237-3.905-14.142,0L227.61,184.44
	c-3.905,3.905-3.905,10.236,0,14.142l-15.08-15.079c-3.905-3.905-3.905-10.237,0-14.143L378.581,3.31
	C382.486-0.595,388.817-0.595,392.723,3.31z"/>
<path style="fill:#328093;" d="M253.089,257.526l-69.519-69.519c-3.905-3.905-3.905-10.237,0-14.142L349.621,7.815
	c3.905-3.905,10.237-3.905,14.142,0l69.519,69.519c3.905,3.905,3.905,10.237,0,14.142l-166.051,166.05
	C263.326,261.431,256.994,261.431,253.089,257.526z"/>
<path style="fill:#4391A6;" d="M253.089,257.526l-50.856-50.856c-3.905-3.905-3.905-10.237,0-14.142l166.051-166.05
	c3.905-3.905,10.237-3.905,14.142,0l50.856,50.856c3.905,3.905,3.905,10.237,0,14.142l-166.051,166.05
	C263.326,261.431,256.994,261.431,253.089,257.526z"/>
<g>
	<path style="fill:#7DB0BF;" d="M254.694,277.15l-90.748-90.748c-1.953-1.953-1.953-5.118,0-7.071l18.671-18.671
		c1.953-1.953,5.118-1.953,7.071,0l90.748,90.748c1.953,1.953,1.953,5.118,0,7.071l-18.671,18.671
		C259.812,279.103,256.647,279.103,254.694,277.15z"/>
	<path style="fill:#7DB0BF;" d="M128.359,271.702l75.56,35.341c-0.155,6.083-1.529,12.233-4.272,18.097
		c-10.648,22.765-37.734,32.588-60.499,21.94c-22.765-10.647-32.588-37.734-21.94-60.499
		C119.95,280.717,123.79,275.72,128.359,271.702z M362.52,127.424c-25.132,0-45.505,20.374-45.505,45.505
		s20.373,45.505,45.505,45.505s45.506-20.374,45.506-45.505S387.652,127.424,362.52,127.424z"/>
</g>
<path style="fill:#4391A6;" d="M174.915,313.572c-4.259,9.106-15.094,13.035-24.2,8.776s-13.035-15.094-8.776-24.2
	s15.094-13.035,24.199-8.776C175.245,293.632,179.174,304.467,174.915,313.572z M362.52,154.728
	c-10.053,0-18.202,8.149-18.202,18.202s8.149,18.202,18.202,18.202s18.202-8.149,18.202-18.202S372.573,154.728,362.52,154.728z"/>
<path style="fill:#235967;" d="M223.971,336.518L92.883,275.204c-2.501-1.17-3.581-4.146-2.411-6.647l7.331-15.674
	c1.17-2.501,4.146-3.581,6.647-2.411l131.088,61.314c2.501,1.17,3.581,4.146,2.411,6.647l-7.331,15.674
	C229.449,336.608,226.472,337.688,223.971,336.518z M352,470H160c-9.185,0-16.904,6.199-19.251,14.637
	C175.39,502.133,214.541,512,256,512s80.61-9.867,115.251-27.363C368.904,476.199,361.185,470,352,470z"/>
<path style="fill:#174550;" d="M104.451,250.472l18.966,8.871l-11.568,24.732l-18.967-8.871c-2.501-1.17-3.581-4.146-2.411-6.647
	l7.331-15.674C98.973,250.381,101.949,249.302,104.451,250.472z M180.641,484.637c2.347-8.438,10.066-14.637,19.251-14.637H160
	c-9.185,0-16.904,6.199-19.251,14.637C175.39,502.133,214.541,512,256,512c6.713,0,13.364-0.263,19.946-0.771
	C241.875,508.601,209.673,499.3,180.641,484.637z"/>
<g>
</g>
<g>
</g>
<g>
</g>
<g>
</g>
<g>
</g>
<g>
</g>
<g>
</g>
<g>
</g>
<g>
</g>
<g>
</g>
<g>
</g>
<g>
</g>
<g>
</g>
<g>
</g>
<g>
</g>
</svg>
