<svg id="Layer_1" enable-background="new 0 0 513.085 513.085" height="512" viewBox="0 0 513.085 513.085" width="512" xmlns="http://www.w3.org/2000/svg"><g><path d="m482.492 332.884c5.648-20.643 8.68-42.366 8.68-64.801 0-135.311-109.691-245.003-245.002-245.003s-245.002 109.692-245.002 245.003c0 22.435 3.032 44.158 8.68 64.801z" fill="#1c2e7a"/><path d="m290.599 260.123c6.292-8.559 7.475-20.493 1.499-30.398-13.653-22.631-17.19-50.325-17.98-67.146h-11.701c-.383 5.162-.946 9.893-1.535 13.652-5.385 23.732-13.159 44.394-23.103 61.411-4.509 7.716-10.134 14.73-16.72 20.846l-.843.784v.85h70.383z" fill="#ffe98d"/><path d="m125.65 237.643c-9.949-17.029-17.72-37.683-23.097-61.388-.618-3.604-1.202-8.379-1.586-13.676h-12.975c-.791 16.821-4.327 44.515-17.981 67.146-8.993 14.905-1.788 34.417 14.671 40.084 13.672 4.708 31.02 8.841 51.424 10.075 3.646-4.692 5.787-9.787 5.787-15.296v-6.527l-.807-.779c-6.027-5.819-11.221-12.427-15.436-19.639z" fill="#ffdd40"/><path d="m182.813 462.931v-115.373h-21.27c.482 2.053.12 4.279-1.211 6.123-7.941 11.008-28.867 36.184-51.519 32.171-19.706-3.486-36.708-27.542-50.612-71.535-11.637 2.941-19.767 4.426-19.767 4.426-6.739 1.294-17.894 4.471-29.127 12.141 20.653 78.098 78.896 140.904 154.204 167.891-1.885-2.829-2.986-6.252-2.988-9.859 0-2.029 1.525-3.68 3.399-3.68h33.321l-4.018-2.734c-6.52-4.438-10.412-11.754-10.412-19.571z" fill="#f964b2"/><path d="m90.886 383.42c1.915-.571 3.602-1.679 4.901-3.147-14.256-9.898-26.847-31.973-37.587-65.956-11.637 2.941-19.768 4.426-19.768 4.426-6.739 1.294-17.894 4.471-29.127 12.141 9.356 35.379 26.447 67.602 49.323 94.797 6.336-30.876 23.843-39.751 32.258-42.261z" fill="#ea349c"/><g><path d="m229.526 11.087c-12.686-6.545-28.461-11.087-47.812-11.087-19.35 0-35.125 4.542-47.811 11.087-27.771 14.327-44.884 42.777-44.884 73.475v39.864l.001.013c4.38-.103 9.226 1.332 12.347 3.413 1.151-3.764 2.725-9.018 4.853-11.417 1.915-2.158 3.117-4.83 3.203-7.686.326-10.932 3.195-36.767 22.446-46.656 5.364-2.755 11.916-.653 14.929 4.57 11.596 20.105 38.646 46.599 98.799 35.308 4.266-.801 8.275 2.372 8.408 6.71.001.023.001.045.002.068.085 2.857 1.287 5.528 3.203 7.686 2.127 2.398 3.702 7.653 4.852 11.416 3.121-2.081 7.967-3.516 12.347-3.413l.001-.013v-39.862c0-30.699-17.113-59.148-44.884-73.476z" fill="#ffe98d"/></g><path d="m204.663 2.309c-7.02-1.469-14.653-2.309-22.949-2.309-19.35 0-35.125 4.542-47.812 11.087-27.77 14.327-44.884 42.777-44.884 73.475v39.864l.001.012c4.38-.103 9.226 1.332 12.347 3.413 1.15-3.764 2.725-9.018 4.853-11.417 1.916-2.158 3.118-4.83 3.203-7.686.326-10.932 3.195-36.767 22.446-46.656 5.364-2.755 11.917-.653 14.929 4.57 4.222 7.32 10.507 15.481 19.679 22.363l.295-2.155s44.69-26.214 24.856-46.048c-19.809-19.808 12.958-38.469 13.036-38.513z" fill="#ffdd40"/><g><path d="m161.682 350.199h21.13v-66.416c0-2.171.3-4.272.85-6.27-.879.099-1.749.162-2.608.183-14.305-.346-31.674-11.883-41.803-20.938v7.83c0 13.67-14.735 24.799-32.937 33.336l52.823 45.631c1.989 1.717 2.852 4.219 2.545 6.644z" fill="#fcad6d"/></g><path d="m181.054 277.695c-14.305-.346-31.674-11.883-41.803-20.938v7.83c0 13.67-14.736 24.799-32.938 33.336l35.108 30.329c.384-.004.741.006 1.066.026 2.042.126 4.083-.354 5.856-1.372 22.332-12.827 30.58-34.154 33.606-49.254-.298.017-.598.036-.895.043z" fill="#fd995b"/><path d="m507.022 483.739h-343.101c-2.704 0-4.896 2.32-4.895 5.177.001 3.251.81 6.344 2.237 9.049 26.452 9.774 55.05 15.119 84.898 15.12h229.165c2.515 0 5.023-.35 7.434-1.107.013-.004.026-.008.039-.012l16.519-5.201c7.474-2.354 12.598-9.611 12.601-17.849-.001-2.857-2.192-5.177-4.897-5.177z" fill="#d3dcfb"/><path d="m159.025 488.916c.001 3.251.81 6.344 2.237 9.049 26.452 9.774 55.05 15.119 84.897 15.12h47.801c-18.667-4.739-15.77-24.998-15.77-24.998l-3.19-4.348h-111.08c-2.704 0-4.895 2.32-4.895 5.177z" fill="#bec8f7"/><path d="m56.275 314.798c37.892 119.88 89.72 62.143 105.664 40.041 2.891-4.008 2.235-9.553-1.506-12.784l-52.166-45.064c-17.059 8.297-37.612 14.25-51.992 17.807z" fill="#fc90ce"/><path d="m108.266 296.991c-17.059 8.297-37.611 14.25-51.991 17.807 11.83 37.428 25.018 57.542 38.05 66.833 1.435-1.116 2.592-2.585 3.324-4.291 19.738-45.952 38.286-49.466 44.84-49.062.639.039 1.274-.001 1.904-.078z" fill="#f964b2"/><path d="m102.6 176.625s-5.028-31.819.763-50.769c-5.254-3.503-17.401-5.212-21.967-.749-9.347 9.138-2.499 22.938.779 31.655 1.006 2.676 1.655 5.383 1.949 8.096.638 5.893 5.828 14.518 19.077 14.315-.2-.849-.405-1.685-.601-2.548z" fill="#fcad6d"/><path d="m100.577 150.16c-2.533 1.367-5.43 2.145-8.51 2.145-5.639 0-10.665-2.607-13.954-6.676 1.188 4.073 2.863 7.944 4.062 11.133 1.006 2.676 1.655 5.383 1.949 8.096.638 5.893 5.828 14.518 19.076 14.315-.2-.849-.405-1.685-.601-2.548.001 0-1.97-12.481-2.022-26.465z" fill="#fd995b"/><path d="m282.033 125.108c-4.566-4.464-14.717-2.754-19.971.749 5.791 18.95.763 50.769.763 50.769-.196.863-.401 1.699-.601 2.548 13.248.203 16.443-8.422 17.081-14.315.293-2.712.943-5.419 1.949-8.096 3.278-8.717 10.127-22.517.779-31.655z" fill="#fcad6d"/><path d="m272.733 152.305c-2.834 0-5.504-.675-7.888-1.845-.078 13.861-2.021 26.165-2.021 26.165-.196.863-.401 1.699-.601 2.548 13.249.203 16.443-8.422 17.081-14.315.293-2.712.943-5.419 1.949-8.096.99-2.631 2.303-5.727 3.399-9.016-3.17 2.827-7.337 4.559-11.919 4.559z" fill="#fd995b"/><path d="m182.961 281.166c1.307-11.819 11.351-21.043 23.513-21.043h16.713c6.585-6.175 12.266-13.263 16.873-21.147 10.092-17.27 17.969-38.199 23.418-62.247 2.358-14.995 4.871-48.735-5.774-60.73-1.909-2.151-2.959-4.665-3.036-7.268-.042-1.39-.13-3.071-.291-4.95-.489-.705-1.071-1.351-1.756-1.901-2.075-1.67-4.775-2.343-7.389-1.853-57.359 10.764-84.251-12.739-96.719-34.351-2.276-3.949-6.221-6.326-10.401-6.714-3.54.982-6.791 2.452-9.744 4.418-16.807 11.192-19.309 35.444-19.605 45.352-.077 2.604-1.127 5.117-3.037 7.268-10.525 11.86-8.22 46.508-5.764 60.773 5.438 24.002 13.315 44.929 23.408 62.205 10.247 17.537 25.766 31.176 44.878 39.445 4.666 2.016 9.706 2.926 14.713 2.743z" fill="#f9ba8f"/><path d="m177.869 238.975c-10.093-17.275-17.97-38.203-23.408-62.205-2.456-14.265-4.761-48.913 5.764-60.773 1.91-2.151 2.96-4.664 3.037-7.268.146-4.89.833-13.275 3.509-21.858-8.153-6.348-14.037-13.879-18.259-21.198-2.276-3.949-6.221-6.326-10.401-6.714-3.54.982-6.791 2.452-9.743 4.418-16.808 11.191-19.309 35.444-19.605 45.352-.077 2.604-1.127 5.117-3.037 7.268-10.525 11.86-8.22 46.508-5.764 60.773 5.438 24.002 13.314 44.929 23.408 62.205 10.248 17.537 25.766 31.176 44.878 39.445 4.667 2.018 9.707 2.928 14.713 2.745.943-8.526 6.444-15.681 13.996-19.017-7.538-6.63-13.97-14.415-19.088-23.173z" fill="#fcad6d"/><path d="m464.47 258.626h-257.997c-13.836 0-25.157 11.32-25.157 25.157v179.147c0 13.836 11.321 25.156 25.157 25.156h257.997c13.836 0 25.156-11.32 25.156-25.156v-179.147c0-13.837-11.32-25.157-25.156-25.157z" fill="#e9efff"/><path d="m253.034 462.93v-179.147c0-13.836 11.321-25.157 25.157-25.157h-71.718c-13.836 0-25.157 11.32-25.157 25.157v179.147c0 13.836 11.321 25.156 25.157 25.156h71.718c-13.836.001-25.157-11.319-25.157-25.156z" fill="#d3dcfb"/><ellipse cx="335.471" cy="373.092" fill="#bec8f7" rx="26.882" ry="26.882" transform="matrix(.707 -.707 .707 .707 -165.559 346.49)"/><path d="m346.607 44.553c-16.611 7.935-39.18 23.886-36.215 51.233 4.63 42.697 4.63 131.692 52.985 131.692 43.265 0 101.895 1.777 113.763-41.262-22.38-63.137-69.897-114.376-130.533-141.663z" fill="#2a428c"/></g></svg>