<svg id="Capa_1" enable-background="new 0 0 512 512" height="512" viewBox="0 0 512 512" width="512" xmlns="http://www.w3.org/2000/svg"><g><g><path d="m256 295.35c-141.387 0-244.868-124.877-225.263-161.08 43.302-79.964 127.94-134.27 225.263-134.27 97.204 0 181.752 54.173 225.103 133.974 19.704 36.274-83.716 161.376-225.103 161.376z" fill="#afe8fd"/><path d="m512 256c0 26.051-3.891 51.191-11.129 74.871-5.031 16.469-11.672 32.231-19.75 47.109-8.25 15.2-147.391 50.781-225.121 50.781s-216.871-35.581-225.109-50.781c-3.289-6.031-6.332-12.21-9.121-18.531-14-31.629-21.77-66.629-21.77-103.449 0-46.219 12.25-89.57 33.68-127 44.121 77.07 127.16 129 222.32 129s178.211-51.93 222.32-129c21.43 37.43 33.68 80.781 33.68 127zm0 0" fill="#64b0fb"/><path d="m481.262 377.699c-7.16 13.223-15.434 25.742-24.723 37.43-6.712 8.46-13.96 16.479-21.678 24.013-1.983 1.936-112.252 31.632-178.861 31.632s-176.932-29.748-178.94-31.71c-7.688-7.512-14.909-15.505-21.599-23.935-9.289-11.688-17.563-24.207-24.723-37.43zm0 0" fill="#1394fb"/></g><g><path d="m187.862 248.779 68.837-20.966v-73.38h-20.966z" fill="#f2d332"/><path d="m187.862 227.813v94.346l68.837-20.966v-73.38z" fill="#ffeb78"/><path d="m187.862 301.193h68.837v94.345h-68.837z" fill="#fff0be"/><path d="m166.896 248.779 68.837-20.966v-73.38h-20.965z" fill="#d85819"/><path d="m166.896 227.813v94.346l68.837-20.966v-73.38z" fill="#e38031"/><path d="m166.896 301.193h68.837v94.345h-68.837z" fill="#e79d25"/><path d="m340.561 443.41 14.799 48.59c29.821-12.57 56.75-30.637 79.547-52.916v-64.511h-73.38z" fill="#cb2e81"/><path d="m267.182 443.41 20.303 66.661c26.098-3.201 50.983-10.32 74.043-20.766v-114.732h-73.38z" fill="#dc4180"/><path d="m214.21 508.586c13.601 2.233 27.557 3.414 41.79 3.414 10.888 0 21.617-.685 32.147-2.004v-135.423h-94.346z" fill="#e27fad"/><path d="m103.999 333.34 35.289 150.566c23.311 11.962 48.702 20.436 75.48 24.772v-354.245h-68.838z" fill="#2d3e53"/><path d="m77.093 439.083c20.034 19.579 43.26 35.902 68.837 48.101v-332.751h-68.837z" fill="#435d7a"/><path d="m77.093 439.083c10.618 10.377 22.13 19.84 34.419 28.257v-312.907h-34.419z" fill="#5f7fa3"/><path d="m156.413 432.927h-10.483l-6.988 10.483 6.988 10.483h10.483z" fill="#16202d"/><path d="m135.447 432.927h10.483v20.966h-10.483z" fill="#2d3e53"/></g><g fill="#fff"><path d="m449.015 301.067h-1.524c-6.754 0-12.226-5.477-12.226-12.227v-1.523h-8.715v1.523c0 6.75-5.477 12.227-12.227 12.227h-1.527v8.715h1.527c6.75 0 12.227 5.472 12.227 12.226v1.528h8.715v-1.528c0-6.754 5.472-12.226 12.226-12.226h1.524zm0 0"/><path d="m350.573 233.778h-1.524c-6.754 0-12.226-5.477-12.226-12.227v-1.523h-8.715v1.523c0 6.75-5.477 12.227-12.227 12.227h-1.527v8.715h1.527c6.75 0 12.227 5.472 12.227 12.226v1.528h8.715v-1.528c0-6.754 5.472-12.226 12.226-12.226h1.524zm0 0"/><path d="m405.844 124.641h-1.524c-6.754 0-12.226-5.477-12.226-12.227v-1.523h-8.715v1.523c0 6.75-5.477 12.227-12.227 12.227h-1.527v8.715h1.527c6.75 0 12.227 5.472 12.227 12.226v1.528h8.715v-1.528c0-6.754 5.472-12.226 12.226-12.226h1.524zm0 0"/><path d="m224.081 82.909h-1.524c-6.754 0-12.226-5.477-12.226-12.227v-1.523h-8.715v1.523c0 6.75-5.477 12.227-12.227 12.227h-1.527v8.715h1.527c6.75 0 12.227 5.472 12.227 12.226v1.528h8.715v-1.528c0-6.754 5.472-12.226 12.226-12.226h1.524zm0 0"/></g></g></svg>