<svg id="Layer_1" enable-background="new 0 0 510.635 510.635" height="512" viewBox="0 0 510.635 510.635" width="512" xmlns="http://www.w3.org/2000/svg"><g><g><path d="m510.635 255.318c0 141.008-109.45 237.154-250.458 237.154s-260.177-96.146-260.177-237.154c0-95.709 52.663-179.119 130.592-222.832 36.883-20.689 79.427-32.486 124.726-32.486 59.719 0 114.65 20.503 158.136 54.854 59.192 46.759 97.181 119.175 97.181 200.464z" fill="#ff5551"/></g><path d="m510.635 255.318c0-81.289-37.993-153.7-97.186-200.458h-266.736c-5.899 0-9.45-6.49-6.323-11.491.075-.12.151-.241.226-.361 4.144-6.603-3.218-14.323-10.018-10.51-15.946 8.944-30.835 19.55-44.431 31.584l-23.248 359.38c46.123 52.782 113.718 86.317 189.503 87.157 82.049.91 155.294-36.898 202.631-96.273-27.289 11.361-56.332 17.891-86.274 19.24-11.207.505-20.596-8.382-20.596-19.601h107.16c34.609-43.571 55.292-98.701 55.292-158.667z" fill="#e20a62"/><g><path d="m225.866 353.182h45.701v68.486h-45.701z" fill="#6ee1ff"/><path d="m74.561 85.646h152.283v337.678h-152.283z" fill="#2d56a1"/><path d="m64.554 85.646-54.414 98.216c-6.601 22.674-10.14 46.651-10.14 71.456s3.539 48.782 10.138 71.456l36.105 75.106c5.233 7.451 10.854 14.609 16.834 21.446h14.933v-337.68z" fill="#1a396b"/><path d="m343.53 85.646h166.874v337.678h-166.874z" fill="#2d56a1"/><path d="m271.567 85.646h75.378v337.678h-75.378z" fill="#1a396b"/><path d="m248.985 364.087v-299.888h-162.939c-.875.775-1.74 1.561-2.604 2.348v297.54z" fill="#fff"/><path d="m301.662 64.199h186.16v307.5h-186.16z" fill="#fff"/><ellipse cx="249.206" cy="424.047" fill="#6ee1ff" rx="22.361" ry="11.894"/><path d="m10.149 183.865v142.905c7.909 27.183 20.213 52.491 36.096 75.107h202.74v-41.521h-23.119v-4.528h-130.691c-4.917 0-8.903-3.986-8.903-8.903v-8.023c0-4.917 3.986-8.903 8.903-8.903h130.691v-12.021h-130.691c-4.917 0-8.903-3.986-8.903-8.903v-8.023c0-4.917 3.986-8.903 8.903-8.903h130.691v-12.021h-130.691c-4.917 0-8.903-3.986-8.903-8.903v-8.023c0-4.917 3.986-8.903 8.903-8.903h130.691v-12.021h-130.691c-4.917 0-8.903-3.986-8.903-8.903v-8.023c0-4.917 3.986-8.903 8.903-8.903h130.691v-12.021h-130.691c-4.917 0-8.903-3.986-8.903-8.903v-8.023c0-4.917 3.986-8.903 8.903-8.903h130.691v-12.021h-130.691c-4.917 0-8.903-3.986-8.903-8.903v-8.023c0-4.917 3.986-8.903 8.903-8.903h130.691v-12.021h-139.594v-64.52h-.226c-35.563 31.512-62.264 72.798-75.897 119.657z" fill="#faf58c"/><g fill="#ffc305"><path d="m46.977 118.719h178.89v12.021h-178.89z"/><path d="m46.977 156.571h178.89v12.021h-178.89z"/><path d="m46.977 194.422h178.89v12.021h-178.89z"/><path d="m46.977 232.274h178.89v12.021h-178.89z"/><path d="m46.977 270.125h178.89v12.021h-178.89z"/><path d="m46.977 307.977h178.89v12.021h-178.89z"/><path d="m46.977 345.829h178.89v12.021h-178.89z"/></g><path d="m464.703 360.357v-4.528h-130.691c-4.917 0-8.903-3.986-8.903-8.903v-8.023c0-4.917 3.986-8.903 8.903-8.903h130.691v-12.021h-130.691c-4.917 0-8.903-3.986-8.903-8.903v-8.023c0-4.917 3.986-8.903 8.903-8.903h130.691v-12.021h-130.691c-4.917 0-8.903-3.986-8.903-8.903v-8.023c0-4.917 3.986-8.903 8.903-8.903h130.691v-12.021h-130.691c-4.917 0-8.903-3.986-8.903-8.903v-8.023c0-4.917 3.986-8.903 8.903-8.903h130.691v-12.021h-130.691c-4.917 0-8.903-3.986-8.903-8.903v-8.023c0-4.917 3.986-8.903 8.903-8.903h130.691v-12.021h-130.691c-4.917 0-8.903-3.986-8.903-8.903v-8.023c0-4.917 3.986-8.903 8.903-8.903h130.691v-12.021h-139.595v-64.52h-76.123v337.678h238.837v-41.521h-23.119z" fill="#faf58c"/><path d="m285.813 118.719h178.89v12.021h-178.89z" fill="#ffc305"/><path d="m285.813 156.571h178.89v12.021h-178.89z" fill="#ffc305"/><path d="m285.813 194.422h178.89v12.021h-178.89z" fill="#ffc305"/><path d="m285.813 232.274h178.89v12.021h-178.89z" fill="#ffc305"/><path d="m285.813 270.125h178.89v12.021h-178.89z" fill="#ffc305"/><path d="m285.813 307.977h178.89v12.021h-178.89z" fill="#ffc305"/><path d="m285.813 345.829h178.89v12.021h-178.89z" fill="#ffc305"/><path d="m330.02 455.923-16.87-8-16.87 8v-391.724h33.74z" fill="#ff8500"/></g></g></svg>