<svg id="Icons" enable-background="new 0 0 512 512" height="512" viewBox="0 0 512 512" width="512" xmlns="http://www.w3.org/2000/svg"><g><path d="m512 256c0 61.9-21.97 118.66-58.54 162.93-46.95 56.84-117.98 93.07-197.46 93.07s-150.51-36.23-197.46-93.07c-36.57-44.27-58.54-101.03-58.54-162.93 0-141.38 114.62-256 256-256s256 114.62 256 256z" fill="#6c53a2"/><g id="Pitcher_2_"><g><path d="m384.006 395.969c-2.22 13.365-14.334 23.957-28.209 23.757h-115.172c-20.333.279-35.177-21.754-25.728-41.037 13.466-27.678 40.885-84.606 54.187-111.969 4.651-9.755 14.905-16.188 25.737-16.129h6.78c9.141-.058 18.101 4.59 23.338 12.079 1.678 1.813 13.721 27.717 15.193 30.501.185.182 24.309 50.343 24.462 50.53.082.193 16.833 34.779 16.932 34.989 2.765 5.708 3.443 11.694 2.48 17.279z" fill="#c1b7d3"/><path d="m271.094 201.162h54.231v81.943h-54.231z" fill="#c1b7d3"/><path d="m384.006 395.969h-108.936c-21.09 0-34.926-22.062-25.737-41.046l50.503-104.333c11.532-.578 22.483 5.671 27.495 16.13 0 0 54.196 111.969 54.196 111.969 2.764 5.709 3.442 11.695 2.479 17.28z" fill="#ebd9ea"/><path d="m328.632 286.068h-3.051c-4.931 0-9.428 2.819-11.576 7.258l-24.382 50.372c-4.134 8.541 2.088 18.464 11.576 18.464h51.814c9.489 0 15.71-9.924 11.576-18.464l-24.382-50.372c-2.147-4.439-6.644-7.258-11.575-7.258z" fill="#fff"/><path d="m292.108 218.321h33.216v51.999h-33.216z" fill="#ebd9ea"/><path d="m314.861 270.319c-5.779 0-10.464-4.685-10.464-10.464v-23.17c.558-13.878 20.366-13.886 20.927 0v23.17c0 5.78-4.684 10.464-10.463 10.464z" fill="#fff"/><path d="m368.224 416.915c-3.702 1.793-7.895 2.81-12.427 2.81h-115.171c-4.532 0-8.725-1.017-12.427-2.801 1.258-5.397 6.093-9.412 11.874-9.412h116.277c5.73.002 10.589 3.944 11.874 9.403z" fill="#9f90ae"/></g><g><path d="m351.381 205.003c.01 7.391-6 13.456-13.462 13.453h-79.425c-4.215-.013-7.936-1.898-10.438-4.978v-.009c-7.113-8.517-.828-22.024 10.438-21.928h79.425c7.43-.013 13.475 6.065 13.462 13.462z" fill="#ebd9ea"/><path d="m348.375 213.478c-2.471 3.042-6.236 4.978-10.456 4.978h-79.425c-4.215-.013-7.935-1.898-10.438-4.978v-.009c2.462-3.042 6.218-4.978 10.438-4.978h79.425c4.213.012 7.95 1.902 10.456 4.987z" fill="#c1b7d3"/><path d="m348.161 196.269c-2.471 2.89-6.138 4.728-10.241 4.728h-79.425c-4.104-.009-7.729-1.803-10.232-4.728 2.462-2.89 6.129-4.728 10.232-4.728h79.425c4.095.009 7.739 1.802 10.241 4.728z" fill="#fff"/></g><g><path d="m340.06 395.647c-1.128.21-2.28.323-3.479.321h-76.74c-13.536.191-23.449-14.545-17.146-27.343 5.362-11.105 31.346-64.73 36.113-74.607 3.176-6.566 9.84-10.75 17.138-10.75h4.523c7.198-.01 13.973 4.162 17.146 10.75 0 0 4.345 8.984 4.345 8.984l22.49 46.461 9.269 19.163c5.602 11.561-1.624 24.853-13.659 27.021z" fill="#d7156f"/><path d="m340.06 395.647s0 .009-.009 0c-5.897-1.079-11.018-4.907-13.694-10.429l-36.113-74.599c-5.594-11.571 1.633-24.854 13.658-27.031 0 0 0-.009.009 0 5.897 1.079 11.027 4.916 13.703 10.429l36.104 74.607c5.603 11.563-1.623 24.855-13.658 27.023z" fill="#df3d81"/><path d="m283.715 335.617-28.896 59.691c-11.089-2.98-17.476-15.621-12.124-26.683l28.896-59.691c11.089 2.98 17.476 15.612 12.124 26.683z" fill="#b82065"/><path d="m344.45 349.463c-3.775-.171-16.18.518-19.618-.66-11.089-2.98-17.477-15.621-12.124-26.683l9.251-19.118z" fill="#ed72ab"/></g></g><g><g><g><path d="m206.827 64.121-108.294 108.293c-8.679 8.679-10.639 21.52-5.893 32.084 4.297 10.116 15.56 17.22 26.203 16.947 7.351-.006 14.702-2.804 20.31-8.412l108.293-108.293z" fill="#9f90ae"/><path d="m206.827 64.121-108.294 108.293c-8.679 8.679-10.639 21.52-5.893 32.084 10.761 4.815 23.476 2.701 32.09-5.887 0 0 108.293-108.293 108.293-108.293z" fill="#ebd9ea"/><path d="m203.148 75.473c2.119 2.119 2.119 5.555 0 7.674l-56.452 56.452c-2.119 2.119-5.555 2.119-7.674 0s-2.119-5.555 0-7.674l56.452-56.452c2.119-2.119 5.555-2.119 7.674 0z" fill="#fff"/></g><g><path d="m258.414 78.431-121.962 121.954c-3.483 3.483-8.062 5.22-12.633 5.229-15.653.06-23.927-19.21-12.633-30.504 8.579-8.557 86.033-86.049 96.678-96.678h50.55z" fill="#bf5e39"/><path d="m244.061 78.431-122.295 122.287c-1.474 1.474-3.141 2.632-4.913 3.474-11.402-4.593-14.711-20.284-5.667-29.083 8.591-8.581 86.024-86.032 96.678-96.678z" fill="#ea792e"/></g><path d="m298.612 89.117c-2.276-2.196-23.217-23.292-26.073-26.082-1.386-1.386-3.263-2.158-5.229-2.158h-38.829c-1.956 0-3.834.772-5.22 2.158-11.263 11.272-83.867 83.86-96.801 96.801 6.969 4.917 16.723 4.192 22.889-1.992 0 0 77.246-77.246 77.246-77.246 1.386-1.386 3.264-2.167 5.229-2.167h23.529c1.965 0 3.843.781 5.229 2.167l23.275 23.275c2.886 2.886 7.562 2.886 10.449 0l4.308-4.308c2.884-2.886 2.884-7.562-.002-10.448z" fill="#f39e22"/><path d="m296.199 101.978-1.895 1.895c-2.796 2.829-7.549 2.926-10.449 0 0 0-23.275-23.275-23.275-23.275-1.386-1.386-3.264-2.167-5.229-2.167h-23.529c-1.965 0-3.843.781-5.229 2.167-1.953-2.325-5.922-7.04-7.887-9.37 1.386-1.386 3.264-2.158 5.22-2.158h38.838c1.956 0 3.834.772 5.22 2.158l26.073 26.082c1.309 1.308 2.019 2.975 2.142 4.668z" fill="#ea792e"/><path d="m292.339 105.277c-2.755 1.36-6.185.895-8.484-1.404l-23.275-23.275c-1.386-1.386-3.264-2.167-5.229-2.167h-23.529c-1.965 0-3.843.781-5.229 2.167l-3.755-4.465h37.443c1.956 0 3.834.772 5.22 2.158l26.073 26.082c.283.281.546.588.765.904z" fill="#bf5e39"/><path d="m294.436 84.932c-3.617 3.471-9.341 3.406-12.887-.14 0 0-23.915-23.915-23.915-23.915h9.677c1.965 0 3.843.772 5.229 2.158z" fill="#f9c744"/><g><path d="m199.638 38.299c-5.125 5.111-5.163 13.471.006 18.637 0 0 54.997 54.997 54.997 54.997 2.927 2.909 6.809 4.181 10.674 3.781l.006-.006c10.823-.972 15.823-14.677 7.956-22.411 0 0-54.996-54.997-54.996-54.997-5.136-5.155-13.53-5.131-18.643-.001z" fill="#ebd9ea"/><path d="m195.851 46.249c-.395 3.818.871 7.765 3.793 10.687l54.997 54.997c2.927 2.909 6.809 4.18 10.674 3.781l.006-.006c.402-3.811-.859-7.753-3.78-10.674l-54.997-54.997c-2.926-2.91-6.821-4.189-10.693-3.788z" fill="#c1b7d3"/><path d="m207.915 34.481c-.29 3.713.976 7.524 3.818 10.366l54.997 54.997c2.849 2.836 6.6 4.103 10.359 3.811.297-3.706-.97-7.518-3.811-10.359l-54.997-54.997c-2.842-2.829-6.607-4.111-10.366-3.818z" fill="#fff"/></g></g><g><path d="m314.386 153.5c.03 10.527-8.565 19.3-19.292 19.292-10.65 0-19.292-8.641-19.292-19.292.552-17.458 16.492-57.732 31.995-24.757 3.672 7.995 6.265 16.473 6.589 24.757z" fill="#bf5e39"/><path d="m314.386 153.5c0 3.913-1.167 7.554-3.167 10.598-12.385 5.76-27.357-3.912-27.117-17.634 0-7.141 3.877-21.529 9.65-30.24 12.102-2.006 20.63 27.393 20.634 37.276z" fill="#ea792e"/><path d="m314.333 151.886v.009c-8.506 9.915-25.153 3.879-25.143-9.37-.164-9.539 9.681-16.652 18.686-13.633 3.427 7.421 5.789 15.412 6.457 22.994z" fill="#f39e22"/><path d="m307.797 128.743c-6.217-1.114-12.108 3.865-12.045 10.185-.073 9.245 11.504 13.813 17.765 7.176-1.068-5.405-3.061-11.846-5.72-17.361z" fill="#f9c744"/></g></g><g><g><path d="m453.46 418.93c-102.503 124.102-292.623 123.892-394.92 0z" fill="#d48d77"/><g fill="#c17e62"><g><path d="m172.31 498v-53.56c-.089-6.089 7.607-9.213 11.79-4.89 1.26 1.25 2.03 2.98 2.03 4.89v57.9z"/><path d="m156.45 418.93v32.46c0 3.82-3.09 6.91-6.91 6.91-3.81 0-6.91-3.09-6.91-6.91v-32.46z"/><path d="m121.78 418.93v55.1c-4.71-2.9-9.32-5.96-13.82-9.16v-45.94z"/><path d="m87.68 434.76v14.12c-4.77-4.17-9.38-8.5-13.82-13.01-.778-9.896 13.24-10.961 13.82-1.11z"/><path d="m235.11 418.93v65.12c0 3.82-3.09 6.91-6.91 6.91s-6.91-3.09-6.91-6.91v-65.12z"/><path d="m270.12 483.74v27.87c-4.58.26-9.19.38-13.83.39v-28.26c.328-9.149 13.497-9.141 13.83 0z"/><path d="m311.31 450.09v55.91c-4.56 1.01-9.17 1.9-13.82 2.65v-58.56c.309-9.148 13.509-9.144 13.82 0z"/><path d="m351.36 418.93v74.72c-4.54 1.82-9.15 3.52-13.82 5.09v-79.81z"/><path d="m391.33 450.09v23.26c-4.52 2.81-9.12 5.49-13.82 8.02v-31.28c.275-9.133 13.551-9.136 13.82 0z"/><path d="m428.53 418.93v26.19c-4.46 4.08-9.07 8-13.82 11.75v-37.94z"/></g><path d="m384.42 419.73c.608 15.839-26.592 28.148-46.88 32.11-12.808 2.854-27.936 4.324-41.79 4.29-30.023-.586-52.927-4.177-74.46-16.629-9.273-5.941-14.541-12.743-14.18-20.571h177.28c.02.27.03.53.03.8z"/></g></g><g fill="#a26d5a"><path d="m235.11 418.93v27.36c-5.25-2.02-9.89-4.3-13.82-6.79v-20.57z"/><path d="m311.31 450.09v5.48c-4.5.33-9.11.52-13.82.55v-6.03c.311-9.151 13.51-9.141 13.82 0z"/><path d="m351.36 418.93v29.15c-4.3 1.43-8.92 2.69-13.82 3.76v-32.91z"/></g></g></g></svg>