<svg id="Capa_1" enable-background="new 0 0 512 512" height="512" viewBox="0 0 512 512" width="512" xmlns="http://www.w3.org/2000/svg"><path d="m511.996 254.494c.243 42.228-9.743 82.098-27.626 117.286v.01l-.006.007c-36.625 48.213-81.708 89.368-133.051 121.458l-1.783 1.115h-.01c-29.318 11.517-61.279 17.779-94.71 17.627-141.332-.643-254.896-114.823-254.81-256.155.086-141.307 114.673-255.842 255.999-255.842 141.177 0 255.184 113.32 255.997 254.494z" fill="#fd4fb9"/><path d="m512 256c0 41.67-9.96 81.01-27.63 115.78-36.628 48.225-81.718 89.389-133.071 121.484l-1.769 1.106h-.01c-28.97 11.38-60.51 17.63-93.52 17.63-54.27 0-104.59-16.89-146-45.69-66.48-46.24-110-123.2-110-210.31 0-46.22 12.25-89.57 33.68-127 44.12 77.07 127.16 129 222.32 129s178.21-51.93 222.32-129c21.43 37.43 33.68 80.78 33.68 127z" fill="#ea39ab"/><path d="m145.567 212.523-46.849-46.849 36.487-65.926 61.568 61.569z" fill="#b6e337"/><path d="m145.567 212.523-46.849-46.849 18.243-32.963 54.209 54.209z" fill="#6cdc2d"/><path d="m126.869 154.512h106.853v83.067h-106.853z" fill="#234177" transform="matrix(.707 -.707 .707 .707 -85.818 184.909)"/><path d="m134.693 173.401h53.427v83.067h-53.427z" fill="#16325b" transform="matrix(.707 -.707 .707 .707 -104.707 177.085)"/><path d="m484.37 371.78c-7.11 14.02-15.48 27.29-24.96 39.67-9.16 11.97-19.35 23.1-30.44 33.27-23.01 21.1-49.89 38.05-79.45 49.65l-186.16-164.14 50.514-100.606 100.606-50.514z" fill="#b6e337"/><path d="m459.41 411.45c-9.16 11.97-19.35 23.1-30.44 33.27-23.01 21.1-49.89 38.05-79.45 49.65l-186.16-164.14 47.11-143.38 66.23 30.04z" fill="#6cdc2d"/><path d="m428.97 444.72c-23.01 21.1-49.89 38.05-79.45 49.65l-186.16-164.14 21.92-129.2.01.01z" fill="#57b718"/><path d="m163.357 330.23 47.113-154.385 25.187-25.187 78.823 28.449z" fill="#6cdc2d"/><path d="m163.357 330.23-28.448-78.823 75.561-75.562 66.229 41.043z" fill="#57b718"/><path d="m163.357 330.23-28.448-78.823 50.374-50.375 53.636 53.636z" fill="#038c3b"/></svg>