<svg id="Capa_1" enable-background="new 0 0 512 512" height="512" viewBox="0 0 512 512" width="512" xmlns="http://www.w3.org/2000/svg"><g><g><path d="m256 332.577c-141.387 0-244.873-162.034-225.275-198.233 43.298-79.975 127.942-134.292 225.275-134.292 97.204 0 181.752 54.173 225.103 133.974 19.704 36.274-83.716 198.551-225.103 198.551z" fill="#ff0f47"/><path d="m512 256.052c0 26.051-3.891 51.191-11.129 74.871-5.031 16.469-11.672 32.231-19.75 47.109-8.25 15.2-147.391 47.264-225.121 47.264s-216.871-32.064-225.109-47.264c-3.289-6.031-6.332-12.21-9.121-18.531-14-31.629-21.77-66.629-21.77-103.449 0-46.219 12.25-89.57 33.68-127 44.121 77.07 127.16 129 222.32 129s178.211-51.93 222.32-129c21.43 37.43 33.68 80.781 33.68 127zm0 0" fill="#ba1956"/><path d="m481.262 377.751c-7.16 13.223-15.434 25.742-24.723 37.43-8.437 10.633-17.719 20.57-27.719 29.723-6.352 5.816-12.998 11.316-19.913 16.475-42.666 31.828-262.971 31.891-305.599.16-6.993-5.205-13.71-10.758-20.128-16.635-10-9.153-19.282-19.09-27.719-29.723-9.289-11.688-17.563-24.207-24.723-37.43zm0 0" fill="#742466"/></g><g><path d="m172.135 78.747h84.929v407.818h-96.249l-44.316-282.637z" fill="#cbeefe"/><path d="m340.928 78.747h-84.929v407.818h96.249l44.317-282.637z" fill="#5ab4fc"/><path d="m396.032 203.928-140.032-125.181-50.766 216.601 50.765 207.287z" fill="#cbeefe"/><path d="m115.967 203.928 140.032 298.707v-423.887z" fill="#fff"/><path d="m408.912 461.382-.083-.2h-152.83l-50.766 25.383 50.766 25.383h7.145c54.573-1.495 104.879-20.066 145.768-50.566z" fill="#4d34b0"/><path d="m103.087 461.382c40.889 30.5 91.196 49.071 145.769 50.566h7.144v-50.766h-152.83z" fill="#8057eb"/><path d="m154.393 491.078c29.089 12.593 60.969 19.953 94.462 20.87h7.144v-50.766h-89.223z" fill="#6c3beb"/></g><g fill="#fff"><path d="m85.673 196.803h-1.524c-6.754 0-12.226-5.477-12.226-12.227v-1.523h-8.715v1.523c0 6.75-5.477 12.227-12.227 12.227h-1.527v8.715h1.527c6.75 0 12.227 5.472 12.227 12.226v1.528h8.715v-1.528c0-6.754 5.472-12.226 12.226-12.226h1.524zm0 0"/><path d="m100.251 304.441h-1.524c-6.754 0-12.226-5.477-12.226-12.227v-1.523h-8.715v1.523c0 6.75-5.477 12.227-12.227 12.227h-1.527v8.715h1.527c6.75 0 12.227 5.472 12.227 12.226v1.528h8.715v-1.528c0-6.754 5.472-12.226 12.226-12.226h1.524zm0 0"/><path d="m430.178 205.518h1.524c6.754 0 12.226 5.472 12.226 12.226v1.528h8.715v-1.528c0-6.754 5.477-12.226 12.227-12.226h1.527v-8.715h-1.527c-6.75 0-12.227-5.477-12.227-12.227v-1.523h-8.715v1.523c0 6.75-5.472 12.227-12.226 12.227h-1.524zm0-8.715"/><path d="m418.668 313.156h1.524c6.754 0 12.226 5.472 12.226 12.226v1.528h8.715v-1.528c0-6.754 5.477-12.226 12.227-12.226h1.527v-8.715h-1.527c-6.75 0-12.227-5.477-12.227-12.227v-1.523h-8.715v1.523c0 6.75-5.472 12.227-12.226 12.227h-1.524zm0-8.715"/></g></g></svg>