<svg id="Layer_1" enable-background="new 0 0 511.271 511.271" height="512" viewBox="0 0 511.271 511.271" width="512" xmlns="http://www.w3.org/2000/svg"><g><g><path d="m507.516 259.39c0 50.497-14.86 97.523-40.445 136.944-44.897 69.177-123.877 98.188-212.49 98.188-139.11 0-233.952-96.022-233.952-235.132 0-100.481 41.962-187.219 127.063-227.644 32.716-15.54 69.314-24.236 107.943-24.236 139.11 0 251.881 112.77 251.881 251.88z" fill="#2d56a1"/></g><path d="m467.06 396.327h-.005c-10.673 0-17.772-11.075-13.266-20.75 6.768-14.533 10.408-30.46 10.567-46.944.293-30.193-11.485-59.458-32.641-81.001-21.617-22.012-50.561-34.149-81.369-34.149-16.366 0-31.786 3.416-45.682 9.502-21.853 9.571-46.368-6.114-46.368-29.972 0-13.916-11.281-25.196-25.196-25.196-6.368 0-11.53-5.162-11.53-11.53v-7.732c0-10.638-8.624-19.262-19.262-19.262-12.069 0-22.183-9.128-23.417-21.133l-5.944-57.821c-1.469-14.291-16.769-22.838-29.624-16.423-.087.044-.175.087-.262.131.006-.009.012-.019.018-.028-3.027 1.515-2.429 1.218-2.534 1.272l-.003.024c-81.222 41.801-136.787 126.44-136.787 224.075 0 138.851 112.582 251.88 251.881 251.88 67.399 0 128.607-26.479 173.808-69.595h.019c14.229-13.564 27.016-29.031 37.597-45.348zm-116.714-107.967c21.581 0 39.138 17.557 39.138 39.138s-17.557 39.139-39.138 39.139-39.139-17.558-39.139-39.139c0-21.58 17.557-39.138 39.139-39.138z" fill="#1a396b"/><g><path d="m162.6 137.708-13.088-127.314c-.607-5.905-13.118 127.314-13.118 127.314z" fill="#ff5551"/><path d="m140.172 107.461 9.971-90.931-.592-5.763c-.576-5.602-4.94-10.248-10.551-10.724-6.34-.538-11.835 4.072-12.514 10.274l-15.743 143.567h53.52l-2.27-22.077c-13.07-.001-23.245-11.353-21.821-24.346z" fill="#e20a62"/><path d="m91.39 141.205h112.077v31.3h-112.077z" fill="#6ee1ff"/><path d="m98.299 141.205h-26.76v74.686h131.928v-48.168h-78.65c-14.646 0-26.518-11.873-26.518-26.518z" fill="#2896ff"/><path d="m97.258 416.684h142.936v-211.758c0-13.916-11.281-25.196-25.196-25.196h-117.792c.033.565.051 1.131.051 1.698v235.256z" fill="#fff"/><path d="m125.973 411.579c-.416 0-.831-.01-1.242-.03-9.147-.444-8.641-14.227.517-14.227h61.469c4.602 0 8.332-3.73 8.332-8.332v-134.282c0-4.602-3.73-8.332-8.332-8.332h-85.94v-66.646h-40.768c-13.916 0-25.196 11.281-25.196 25.196v225.487c0 13.916 11.281 25.196 25.196 25.196h154.988c13.916 0 25.196-11.281 25.196-25.196v-18.833h-114.22z" fill="#faf58c"/><path d="m195.049 370.522v-128.469c0-4.602-3.731-8.332-8.332-8.332h-77.417v136.802h85.749z" fill="#82cd64"/><path d="m123.412 366.838c-4.602 0-8.332-3.73-8.332-8.332v-124.785h-26.791c-4.602 0-8.332 3.73-8.332 8.332v134.283c0 4.602 3.731 8.332 8.332 8.332h98.428c4.602 0 8.332-3.73 8.332-8.332v-9.497h-71.637z" fill="#269ab1"/><g><path d="m332.243 300.274c21.581 0 39.139 17.557 39.139 39.138s-17.557 39.139-39.139 39.139c-21.581 0-39.139-17.558-39.139-39.139.001-21.581 17.558-39.138 39.139-39.138m0-29.529c-37.924 0-59.176 30.744-59.176 68.668s21.252 68.668 59.176 68.668 68.668-30.744 68.668-68.668c0-37.925-30.744-68.668-68.668-68.668z" fill="#fff"/></g><g><path d="m287.832 339.412c0-26.615 15.146-49.681 37.287-61.072 3.689-1.898 1.9-7.54-2.211-6.983-33.11 4.492-59.333 32.942-59.333 68.055 0 37.924 30.744 68.668 68.668 68.668h.124c2.375-.004 2.905-3.323.673-4.134-26.37-9.584-45.208-34.851-45.208-64.534z" fill="#faf58c"/></g><path d="m335.904 408.241v45.348h80.145c16.06-13.281 30.433-28.524 42.779-45.348z" fill="#ff8500"/><g><path d="m332.243 270.745c37.924 0 68.668 30.744 68.668 68.668s-30.744 68.668-68.668 68.668-68.668-30.744-68.668-68.668c.001-37.925 30.744-68.668 68.668-68.668m0-45.349c-30.455 0-59.087 11.86-80.622 33.394-21.535 21.535-22.469 50.167-22.469 80.622s3.893 47.293 25.428 68.828 47.208 45.188 77.663 45.188 59.087-11.86 80.622-33.395 33.394-50.167 33.394-80.622-11.86-59.087-33.395-80.622c-21.534-21.533-50.166-33.393-80.621-33.393z" fill="#ffc305"/></g><path d="m361.561 417.187c8.368-3.959 3.096-16.518-5.591-13.318-7.394 2.724-15.386 4.211-23.726 4.211-25.294 0-47.382-13.679-59.292-34.041-.044-.076-.088-.152-.132-.228-4.613-7.957-7.678-16.924-8.776-26.489-.001.011-.002.022-.003.033-.301-2.607-.464-5.255-.464-7.943 0-12.913 3.57-24.989 9.769-35.306 2.727-8.407 6.43-16.42 10.983-23.892 11.684-19.175-13.57-39.432-29.959-24.082-.393.368-.784.74-1.174 1.115-21.612 20.814-34.25 49.478-34.937 79.475-.745 32.573 12.059 63.252 35.766 85.646 20.185 19.068 46.82 30.14 74.574 31.004.232.007.464.014.696.02 6.419.162 8.46-8.557 2.685-11.366-.225-.11-.45-.22-.674-.331-8.689-4.3-5.847-17.376 3.836-17.849 9.207-.451 18.193-2.768 26.419-6.659z" fill="#ff8500"/></g></g></svg>