<svg id="Capa_1" enable-background="new 0 0 512 512" height="512" viewBox="0 0 512 512" width="512" xmlns="http://www.w3.org/2000/svg"><g><g><path d="m512 256c0 141.387-114.613 256-256 256s-256-114.613-256-256 114.613-256 256-256 256 114.613 256 256zm0 0" fill="#576ceb"/><path d="m512 256c0 26.051-3.891 51.191-11.129 74.871-5.031 16.469-11.672 32.231-19.75 47.109-8.25 15.2-147.391 23.92-225.121 23.92s-216.871-8.72-225.109-23.92c-3.289-6.031-6.332-12.21-9.121-18.531-14-31.629-21.77-66.629-21.77-103.449 0-46.219 12.25-89.57 33.68-127 44.121 77.07 127.16 129 222.32 129s178.211-51.93 222.32-129c21.43 37.43 33.68 80.781 33.68 127zm0 0" fill="#6c3beb"/><path d="m481.262 377.699c-7.16 13.223-15.434 25.742-24.723 37.43-8.437 10.633-17.719 20.57-27.719 29.723-45.539 41.699-106.211 67.148-172.82 67.148s-127.281-25.449-172.82-67.148c-10-9.153-19.282-19.09-27.719-29.723-9.289-11.688-17.563-24.207-24.723-37.43zm0 0" fill="#4d34b0"/></g><g><path d="m256 90.345-105.414 210.827 105.414 210.828c116.437 0 210.827-94.39 210.827-210.828s-94.391-210.827-210.827-210.827z" fill="#ffb03b"/><path d="m45.172 301.172c0 116.438 94.391 210.828 210.828 210.828v-421.655c-116.437 0-210.828 94.39-210.828 210.827z" fill="#ffc46c"/><path d="m256 127.405-86.884 173.768 86.884 173.767c95.969 0 173.768-77.798 173.768-173.768s-77.799-173.767-173.768-173.767z" fill="#ffc46c"/><path d="m82.232 301.172c0 95.97 77.798 173.768 173.768 173.768v-347.535c-95.97 0-173.768 77.798-173.768 173.767z" fill="#ffd89d"/><path d="m256 164.464-68.354 136.708 68.354 136.709c75.502 0 136.708-61.206 136.708-136.709s-61.207-136.708-136.708-136.708z" fill="#ffebce"/><path d="m119.291 301.172c0 75.502 61.207 136.709 136.709 136.709v-273.417c-75.502 0-136.709 61.206-136.709 136.708z" fill="#fff"/><path d="m362.436 266.589-73.546-10.687-32.89-66.644-37.06 111.914 37.06 55.958 65.781 34.583-12.563-73.248z" fill="#ff903d"/><path d="m223.109 255.902-73.546 10.687 53.218 51.876-12.563 73.248 65.782-34.583v-167.872z" fill="#ffc36b"/><path d="m234.877 272.277-47.232 6.863 34.177 33.314-8.068 47.041 42.246-22.21v-107.808z" fill="#ffb03b"/></g></g></svg>