<svg id="Icons" enable-background="new 0 0 512 512" height="512" viewBox="0 0 512 512" width="512" xmlns="http://www.w3.org/2000/svg"><g><circle cx="256" cy="256" fill="#6052a3" r="256"/><g><path d="m384.787 151.027v246.863c0 14.592-11.813 26.405-26.394 26.405h-204.774c-14.581 0-26.405-11.813-26.405-26.405v-295.791c0-14.581 11.824-26.394 26.405-26.394h155.856z" fill="#fff"/><g fill="#9175a7"><path d="m340.393 230.5h-168.786c-4.606 0-8.34-3.734-8.34-8.34 0-4.606 3.734-8.34 8.34-8.34h168.785c4.606 0 8.34 3.734 8.34 8.34.001 4.606-3.733 8.34-8.339 8.34z"/><path d="m340.393 277.18h-138.083c-4.606 0-8.34-3.734-8.34-8.34 0-4.606 3.734-8.34 8.34-8.34h138.083c4.606 0 8.34 3.734 8.34 8.34 0 4.606-3.734 8.34-8.34 8.34z"/><path d="m340.393 323.86h-127.731c-4.606 0-8.34-3.734-8.34-8.34 0-4.606 3.734-8.34 8.34-8.34h127.731c4.606 0 8.34 3.734 8.34 8.34 0 4.606-3.734 8.34-8.34 8.34z"/><path d="m340.393 370.541h-107.713c-4.606 0-8.34-3.734-8.34-8.34 0-4.606 3.734-8.34 8.34-8.34h107.712c4.606 0 8.34 3.734 8.34 8.34.001 4.606-3.733 8.34-8.339 8.34z"/><path d="m340.393 183.82h-168.786c-4.606 0-8.34-3.734-8.34-8.34 0-4.606 3.734-8.34 8.34-8.34h168.785c4.606 0 8.34 3.734 8.34 8.34.001 4.606-3.733 8.34-8.339 8.34z"/><path d="m340.393 137.14h-168.786c-4.606 0-8.34-3.734-8.34-8.34 0-4.606 3.734-8.34 8.34-8.34h168.785c4.606 0 8.34 3.734 8.34 8.34.001 4.606-3.733 8.34-8.339 8.34z"/></g><path d="m384.787 151.027h-48.918c-14.581 0-26.394-11.813-26.394-26.394v-48.929z" fill="#c1b7d3"/></g><g><g><g><path d="m168.137 360.219 28.193 15.096 4.842 2.597c2.724 1.462 5.655-1.566 4.11-4.241l-27.832-48.207-44.068 25.443 27.832 48.207c1.544 2.675 5.632 1.651 5.728-1.439l.172-5.492z" fill="#f39e22"/><path d="m143.851 353.712 21.375 37.022c.463.802 1.15 1.27 1.888 1.449l1.023-31.964 28.193 15.096c.214-.728.153-1.557-.31-2.36l-21.375-37.022z" fill="#fad98f"/></g><g><path d="m86.29 360.419 1.023 31.964.172 5.492c.096 3.09 4.184 4.114 5.728 1.439l27.832-48.207-44.068-25.443-27.832 48.207c-1.544 2.675 1.386 5.703 4.11 4.241l4.842-2.597z" fill="#f39e22"/><path d="m79.783 336.133-21.375 37.022c-.463.802-.525 1.631-.31 2.36l28.193-15.096 1.023 31.964c.738-.178 1.425-.646 1.888-1.449l21.375-37.022z" fill="#fad98f"/></g></g><g><g><circle cx="127.213" cy="305.346" fill="#c0405c" r="56.182"/><circle cx="127.213" cy="305.346" fill="#e9465e" r="48.387"/><path d="m163.976 305.341c0 1.295-.069 2.566-.197 3.827-1.919 18.509-17.561 32.936-36.566 32.936-20.3 0-36.763-16.462-36.763-36.763 0-20.22 16.324-36.612 36.508-36.751h.254c6.659 0 12.913 1.769 18.3 4.867 5.746 3.306 10.509 8.116 13.757 13.884 2.996 5.318 4.707 11.456 4.707 18z" fill="#f39e22"/><path d="m163.976 305.341c0 1.295-.069 2.566-.197 3.827-4.902 9.144-14.543 15.364-25.641 15.364-16.058 0-29.087-13.029-29.087-29.087 0-12.092 7.399-22.474 17.907-26.855h.254c6.659 0 12.913 1.769 18.3 4.867 5.746 3.306 10.509 8.116 13.757 13.884 2.996 5.318 4.707 11.456 4.707 18z" fill="#f9c744"/><path d="m159.329 288.589c0 8.393-6.809 15.191-15.202 15.191s-15.191-6.798-15.191-15.191 6.798-15.202 15.191-15.202c.474 0 .936.023 1.387.069 5.746 3.306 10.509 8.116 13.757 13.884.046.405.058.833.058 1.249z" fill="#fad98f"/></g></g></g></g></svg>