<svg id="Capa_1" enable-background="new 0 0 512 512" height="512" viewBox="0 0 512 512" width="512" xmlns="http://www.w3.org/2000/svg"><circle cx="256" cy="256" fill="#65b2fe" r="256"/><path d="m512 256c0 87.11-43.52 164.07-110 210.31-41.41 28.8-91.73 45.69-146 45.69s-104.59-16.89-146-45.69c-66.48-46.24-110-123.2-110-210.31 0-46.22 12.25-89.57 33.68-127 44.12 77.07 127.16 129 222.32 129s178.21-51.93 222.32-129c21.43 37.43 33.68 80.78 33.68 127z" fill="#0e9ce7"/><path d="m452 316c0 105.34-83.12 191.28-187.34 195.81-.31.02-.62.03-.93.04-.87.03-1.74.06-2.6.08-1.73.05-3.44.07-5.13.07-108.24 0-196-87.76-196-196s87.76-196 196-196h.28c108.11.15 195.72 87.85 195.72 196z" fill="#ffe853"/><path d="m452 316c0 105.34-83.12 191.28-187.34 195.81-.31.02-.62.03-.93.04-.87.03-1.74.06-2.6.08-1.73.05-3.44.07-5.13.07-58.54-45.3-103.35-116.25-103.35-196s44.81-150.7 103.35-196h.28c108.11.15 195.72 87.85 195.72 196z" fill="#fed110"/><path d="m452 316c0 108.244-87.756 196-196 196v-392c108.244 0 196 87.756 196 196z" fill="#ff9f01"/><path d="m452 316c0 18.54-2.57 36.48-7.38 53.47h-377.24c-4.81-16.99-7.38-34.93-7.38-53.47 0-26.07 5.09-50.96 14.34-73.71h363.32c9.25 22.75 14.34 47.64 14.34 73.71z" fill="#313b5a"/><path d="m452 316c0 18.54-2.57 36.48-7.38 53.47h-188.62v-127.18h181.66c9.25 22.75 14.34 47.64 14.34 73.71z" fill="#29334c"/><path d="m233.762 306.07c0 25.458-20.638 46.095-46.095 46.095-25.458 0-46.095-20.638-46.095-46.095 0-9.432 2.833-18.203 7.695-25.508 8.259-12.41 84.495.05 84.495 25.508z" fill="#fff"/><circle cx="187.667" cy="306.07" fill="#29334c" r="25.616"/><path d="m370.43 306.066c0 25.46-20.64 46.1-46.1 46.1-25.45 0-46.09-20.64-46.09-46.1 0-25.45 76.24-37.91 84.49-25.5 4.87 7.3 7.7 16.08 7.7 25.5z" fill="#fff"/><circle cx="324.333" cy="306.07" fill="#29334c" r="25.616"/><path d="m362.73 280.566-84.49 25.5c0-25.45 20.64-46.09 46.09-46.09 16.03 0 30.15 8.18 38.4 20.59z" fill="#c55835"/><path d="m149.272 280.566 84.49 25.5c0-25.45-20.64-46.09-46.09-46.09-16.03 0-30.15 8.18-38.4 20.59z" fill="#ed771b"/><path d="m388.745 388.809c4.625-3.827 11.443.864 9.4 6.508-8.594 23.741-28.645 42.797-55.066 48.987-26.422 6.19-52.843-1.98-71.083-19.429-4.337-4.149-.314-11.38 5.53-10.007 18.085 4.25 37.647 2.03 58.015-2.741 20.376-4.775 38.889-11.475 53.204-23.318z" fill="#29334c"/><path d="m425.07 179h-335.14c32.33-58.61 94.52-98.44 166.07-98.99.5-.01 1-.01 1.5-.01 72.18 0 135.01 39.98 167.57 99z" fill="#29334c"/><path d="m425.07 179h-169.07v-98.99c.5-.01 1-.01 1.5-.01 72.18 0 135.01 39.98 167.57 99z" fill="#20273a"/><path d="m414.34 212h-317.68c-13.63 0-23.61-12.84-20.25-26.05l3.12-12.22c2.35-9.25 10.69-15.73 20.24-15.73h311.46c9.55 0 17.89 6.48 20.24 15.73l3.12 12.22c3.36 13.21-6.62 26.05-20.25 26.05z" fill="#313b5a"/><path d="m414.34 212h-158.34v-54h155.23c9.55 0 17.89 6.48 20.24 15.73l3.12 12.22c3.36 13.21-6.62 26.05-20.25 26.05z" fill="#29334c"/></svg>