<svg id="Capa_1" enable-background="new 0 0 512 512" height="512" viewBox="0 0 512 512" width="512" xmlns="http://www.w3.org/2000/svg"><g><g><path d="m0 256c0 43.79 11 85.02 30.39 121.07l225.61 49.67 225.61-49.67c19.39-36.05 30.39-77.28 30.39-121.07 0-46.63-12.47-90.34-34.26-128-41.698 72.091-399.22 76.52-443.48 0-21.79 37.66-34.26 81.37-34.26 128z" fill="#79ce8b"/><path d="m34.26 128c44.26 76.52 126.99 128 221.74 128s177.48-51.48 221.74-128c-.01-.02-.03-.05-.04-.07-44.27-76.48-126.98-127.93-221.7-127.93s-177.43 51.45-221.7 127.93c-.01.02-.03.05-.04.07z" fill="#a9eb58"/><path d="m481.61 377.07c-8.92 16.59-19.62 32.08-31.84 46.22-17.475 20.23-71.513-11.417-94.473 2.535-14.8 8.994 2.865 65.639-13.707 71.514-26.76 9.491-55.57 14.661-85.59 14.661s-58.83-5.17-85.59-14.66c-16.572-5.875.473-62.521-14.327-71.514-22.96-13.952-76.378 17.694-93.853-2.535-12.22-14.14-22.92-29.63-31.84-46.22h451.22z" fill="#599d8a"/></g><path d="m449.77 239.09v184.2c-8.34 9.65-17.39 18.67-27.06 26.98-6.44 5.54-13.16 10.76-20.13 15.63-18.66 13.06-39.14 23.69-60.99 31.44h-171.18c-21.85-7.75-42.33-18.38-60.99-31.44h-.01c-6.97-4.88-13.68-10.09-20.12-15.63-9.67-8.31-18.72-17.33-27.06-26.98v-184.2z" fill="#f5dd6e"/><g fill="#eec036"><path d="m330.45 318.6-52.66 35.09-21.79 14.52-146.58 97.69h-.01c-6.97-4.88-13.68-10.09-20.12-15.63l144.92-96.58 21.79-14.52 42.36-28.23z"/><path d="m62.232 239.087 193.77-199.801 193.77 199.801-214.394 29.203z"/><path d="m422.71 450.27c-6.44 5.54-13.16 10.76-20.13 15.63l-146.58-97.69-21.79-14.52-52.66-35.09 32.09-7.66 42.36 28.23 21.79 14.52z"/></g><path d="m449.77 239.09-22.07 14.71-171.7 114.41-171.7-114.41-22.07-14.71z" fill="#de8051"/><path d="m415.87 231.106v30.577l-159.87 106.527-159.87-106.527v-151.713h198.594z" fill="#e8ebf7"/><g><path d="m239.689 198.731-58.481 96.891-45.445-45.445 22.138-22.148 17.17 17.17 6.137-10.167 31.667-52.48z" fill="#a9eb58"/></g><path d="m247.306 215.5h110.234v29.181h-110.234z" fill="#464652"/><path d="m247.306 265.15h110.234v29.181h-110.234z" fill="#464652"/><path d="m294.724 231.103v-121.136l121.146 121.136z" fill="#daddee"/></g></svg>