<svg id="Capa_1" enable-background="new 0 0 512 512" height="512" viewBox="0 0 512 512" width="512" xmlns="http://www.w3.org/2000/svg"><g><g><path d="m0 256c0 43.79 11 85.02 30.39 121.07l225.61 49.67 225.61-49.67c19.39-36.05 30.39-77.28 30.39-121.07 0-46.63-12.47-90.34-34.26-128-41.698 72.091-399.22 76.52-443.48 0-21.79 37.66-34.26 81.37-34.26 128z" fill="#bf2e70"/><path d="m34.26 128c44.26 76.52 126.99 128 221.74 128s177.48-51.48 221.74-128c-.01-.02-.03-.05-.04-.07-44.27-76.48-126.98-127.93-221.7-127.93s-177.43 51.45-221.7 127.93c-.01.02-.03.05-.04.07z" fill="#d75e91"/><path d="m30.39 377.07c43.19 80.32 128.02 134.93 225.61 134.93s182.42-54.61 225.61-134.93z" fill="#871155"/></g><g><g><path d="m144.749 304.539c-6.531 0-11.825-5.294-11.825-11.825v-34.558h23.65v34.558c-.001 6.53-5.295 11.825-11.825 11.825z" fill="#deba9f"/><path d="m218.739 304.539c-6.531 0-11.825-5.294-11.825-11.825v-34.558h23.65v34.558c0 6.53-5.295 11.825-11.825 11.825z" fill="#deba9f"/><path d="m262.938 207.525h-3.183c8.085 4.655 13.529 13.373 13.529 23.366 0 14.886-12.065 26.951-26.951 26.951h-4.77c-1.242 5.157-4.178 9.647-8.192 12.847-4.014 3.199-9.096 5.115-14.631 5.115-11.07 0-20.339-7.657-22.823-17.962h-28.349c-1.234 5.157-4.178 9.647-8.192 12.847-4.014 3.199-9.096 5.115-14.631 5.115-11.062 0-20.339-7.657-22.815-17.962h-4.77c-14.886 0-26.951-12.065-26.951-26.951 0-9.993 5.445-18.71 13.521-23.366h-3.183c-14.886 0-26.951-12.065-26.951-26.951 0-14.878 12.065-26.951 26.951-26.951h3.183c-8.076-4.647-13.521-13.365-13.521-23.357 0-14.886 12.065-26.951 26.951-26.951h129.172c14.886 0 26.951 12.065 26.951 26.951 0 9.993-5.445 18.71-13.529 23.357h3.183c14.886 0 26.951 12.074 26.951 26.951.001 14.886-12.064 26.951-26.95 26.951z" fill="#fff"/><path d="m262.938 207.525h-3.183c8.085 4.655 13.529 13.373 13.529 23.366 0 14.886-12.065 26.951-26.951 26.951h-4.77c-1.242 5.157-4.178 9.647-8.192 12.847-4.014 3.199-9.096 5.115-14.631 5.115-11.07 0-20.339-7.657-22.823-17.962h-12.805v-154.529h63.221c14.886 0 26.951 12.065 26.951 26.951 0 9.993-5.445 18.71-13.529 23.357h3.183c14.886 0 26.951 12.074 26.951 26.951 0 14.888-12.065 26.953-26.951 26.953z" fill="#e7eaf5"/><path d="m239.737 170.202c0 17.148-11.712 31.549-27.568 35.653-1.053 7.09-4.63 13.34-9.787 17.831-5.157 4.49-11.901 7.204-19.27 7.204-14.746 0-26.951-10.864-29.057-25.035-7.928-2.056-14.82-6.678-19.73-12.937s-7.838-14.138-7.838-22.716c0-20.339 16.49-36.829 36.829-36.829h39.592c10.174 0 19.377 4.12 26.038 10.79 6.67 6.663 10.791 15.866 10.791 26.039z" fill="#deba9f"/><g><path d="m168.007 142.232-17.785 17.785-19.434-19.434c-4.548-4.548-4.548-11.922 0-16.47l1.315-1.315c4.548-4.548 11.922-4.548 16.47 0z" fill="#deba9f"/><path d="m198.218 142.232 17.785 17.785 19.434-19.434c4.548-4.548 4.548-11.922 0-16.47l-1.315-1.315c-4.548-4.548-11.922-4.548-16.47 0z" fill="#cb8d65"/></g><path d="m239.737 170.202c0 17.148-11.712 31.549-27.568 35.653-1.053 7.09-4.63 13.34-9.787 17.831-5.157 4.49-11.901 7.204-19.27 7.204v-97.516h19.796c10.174 0 19.377 4.12 26.038 10.79 6.67 6.662 10.791 15.865 10.791 26.038z" fill="#cb8d65"/><g fill="#616679"><circle cx="155.686" cy="166.419" r="9.918"/><circle cx="210.537" cy="166.419" r="9.918"/></g></g><g><path d="m293.264 438.687c-6.531 0-11.825-5.294-11.825-11.825v-34.558h23.65v34.558c0 6.53-5.294 11.825-11.825 11.825z" fill="#deba9f"/><path d="m367.254 438.687c-6.531 0-11.825-5.294-11.825-11.825v-34.558h23.65v34.558c0 6.53-5.294 11.825-11.825 11.825z" fill="#deba9f"/><path d="m411.453 341.673h-3.183c8.085 4.655 13.529 13.373 13.529 23.366 0 14.886-12.065 26.951-26.951 26.951h-4.77c-1.242 5.157-4.178 9.647-8.192 12.847-4.013 3.199-9.096 5.115-14.631 5.115-11.07 0-20.339-7.657-22.823-17.962h-28.349c-1.234 5.157-4.178 9.647-8.192 12.847-4.013 3.199-9.096 5.115-14.631 5.115-11.062 0-20.339-7.657-22.815-17.962h-4.77c-14.886 0-26.951-12.065-26.951-26.951 0-9.993 5.445-18.71 13.521-23.366h-3.183c-14.886 0-26.951-12.065-26.951-26.951 0-14.878 12.065-26.951 26.951-26.951h3.183c-8.076-4.647-13.521-13.365-13.521-23.357 0-14.886 12.065-26.951 26.951-26.951h129.172c14.886 0 26.951 12.065 26.951 26.951 0 9.993-5.445 18.71-13.529 23.357h3.183c14.886 0 26.951 12.074 26.951 26.951.001 14.886-12.064 26.951-26.95 26.951z" fill="#fff"/><path d="m411.453 341.673h-3.183c8.085 4.655 13.529 13.373 13.529 23.366 0 14.886-12.065 26.951-26.951 26.951h-4.77c-1.242 5.157-4.178 9.647-8.192 12.847-4.013 3.199-9.096 5.115-14.631 5.115-11.07 0-20.339-7.657-22.823-17.962h-12.805v-154.529h63.221c14.886 0 26.951 12.065 26.951 26.951 0 9.993-5.445 18.71-13.529 23.357h3.183c14.886 0 26.951 12.074 26.951 26.951 0 14.888-12.065 26.953-26.951 26.953z" fill="#e7eaf5"/><path d="m388.252 304.351c0 17.148-11.712 31.549-27.568 35.653-1.053 7.09-4.63 13.34-9.787 17.831s-11.901 7.204-19.27 7.204c-14.746 0-26.951-10.864-29.057-25.035-7.928-2.056-14.82-6.678-19.73-12.937s-7.838-14.138-7.838-22.716c0-20.339 16.49-36.829 36.829-36.829h39.592c10.174 0 19.377 4.12 26.038 10.79 6.671 6.662 10.791 15.865 10.791 26.039z" fill="#deba9f"/><g><path d="m316.522 276.38-17.785 17.785-19.434-19.434c-4.548-4.548-4.548-11.922 0-16.47l1.315-1.315c4.548-4.548 11.922-4.548 16.47 0z" fill="#deba9f"/><path d="m346.733 276.38 17.785 17.785 19.434-19.434c4.548-4.548 4.548-11.922 0-16.47l-1.315-1.315c-4.548-4.548-11.922-4.548-16.47 0z" fill="#cb8d65"/></g><path d="m388.252 304.351c0 17.148-11.712 31.549-27.568 35.653-1.053 7.09-4.63 13.34-9.787 17.831s-11.901 7.204-19.27 7.204v-97.516h19.796c10.174 0 19.377 4.12 26.038 10.79 6.671 6.661 10.791 15.864 10.791 26.038z" fill="#cb8d65"/><g fill="#616679"><circle cx="304.202" cy="300.567" r="9.918"/><circle cx="359.052" cy="300.567" r="9.918"/></g></g></g><g fill="#f5dc6e"><path d="m446.54 176.922c-31.759-76.511-106.961-127.175-190.54-127.175v30c69.389 0 132.019 40.86 160.419 103.135l-28.266 5.592 59.101 67.526 28.942-84.944z"/><path d="m95.582 329.118 28.266-5.592-59.102-67.526-28.942 84.944 29.656-5.867c31.759 76.512 106.961 127.176 190.54 127.176v-30c-69.389 0-132.018-40.86-160.418-103.135z"/></g></g></svg>