<svg id="Capa_1" enable-background="new 0 0 512 512" height="512" viewBox="0 0 512 512" width="512" xmlns="http://www.w3.org/2000/svg"><g><g><path d="m256 320.001c-141.387 0-243.753-153.575-222.327-191.002 44.119-77.07 127.157-128.999 222.327-128.999s178.209 51.93 222.328 129c21.425 37.427-80.941 191.001-222.328 191.001z" fill="#df7cb3"/><path d="m512 256c0 26.051-3.891 51.191-11.129 74.871-5.031 16.469-11.672 32.231-19.75 47.109-8.25 15.2-147.391 66.869-225.121 66.869s-216.871-51.669-225.109-66.869c-3.289-6.031-6.332-12.21-9.121-18.531-14-31.629-21.77-66.629-21.77-103.449 0-46.219 12.25-89.57 33.68-127 44.121 77.07 127.16 129 222.32 129s178.211-51.93 222.32-129c21.43 37.43 33.68 80.781 33.68 127zm0 0" fill="#d85e91"/><path d="m481.262 377.699c-7.16 13.223-15.434 25.742-24.723 37.43-8.437 10.633-17.719 20.57-27.719 29.723-45.539 41.699-106.211 67.148-172.82 67.148-66.062 0-126.283-25.032-171.694-66.123-.376-.341-5.774-10.206-8.771-13.234-3.331-3.366-8.135-3.474-11.276-7.021-3.025-3.417-5.959-6.915-8.798-10.493-9.289-11.688-17.563-24.207-24.723-37.43zm0 0" fill="#bb1961"/></g><g><g fill="#8ab8ec"><path d="m70.168 301.5c0-102.02 83.812-185.832 185.832-185.832 59.305 0 114.71 28.759 149.551 74.826h-26.211v24.668h58.972l14.659-58.683-23.921-5.974-5.652 22.581c-39.555-50.689-101.396-82.086-167.398-82.086-115.619 0-210.5 94.881-210.5 210.5 0 17.754 3.039 35.388 7.423 52.407l23.897-6.143c-3.866-15.019-6.652-30.582-6.652-46.264z"/><path d="m466.5 301.5c0-17.754-3.039-35.388-7.423-52.408l-23.897 6.143c3.866 15.02 6.652 30.582 6.652 46.264 0 102.02-83.811 185.832-185.832 185.832-59.305 0-114.71-28.759-149.551-74.826h26.211v-24.668h-58.972l-9.432 37.759c6.379 7.207 13.151 14.056 20.295 20.504l4.052-16.187c39.554 50.69 101.396 82.087 167.397 82.087 115.619 0 210.5-94.881 210.5-210.5z"/></g><path d="m466.5 301.5c0-17.754-3.039-35.388-7.423-52.407l-23.897 6.143c3.866 15.02 6.652 30.582 6.652 46.264 0 102.02-83.812 185.832-185.832 185.832v24.668c115.619 0 210.5-94.881 210.5-210.5z" fill="#728ee4"/><path d="m405.551 190.494h-26.211v24.668h58.972l14.659-58.683-23.921-5.974-5.652 22.581c-39.555-50.689-101.396-82.086-167.398-82.086v24.668c59.305 0 114.71 28.759 149.551 74.826z" fill="#728ee4"/><path d="m256 326.168h-86.338v49.336c0 25.559 43.362 37.002 86.338 37.002s86.338-11.443 86.338-37.002v-49.336z" fill="#dce0ef"/><path d="m342.338 375.504v-49.336h-86.338v86.338c42.976 0 86.338-11.443 86.338-37.002z" fill="#cad0e7"/><path d="m256 276.832h-86.338v49.336c0 25.559 43.362 37.002 86.338 37.002s86.338-11.443 86.338-37.002v-49.336z" fill="#fbf5eb"/><path d="m342.338 326.168v-49.336h-86.338v86.338c42.976 0 86.338-11.443 86.338-37.002z" fill="#dce0ef"/><path d="m256 227.496h-86.338v49.336c0 25.559 43.362 37.002 86.338 37.002s86.338-11.443 86.338-37.002v-49.336z" fill="#dce0ef"/><path d="m342.338 276.832v-49.336h-86.338v86.338c42.976 0 86.338-11.443 86.338-37.002z" fill="#cad0e7"/><ellipse cx="256" cy="227.496" fill="#fbf5eb" rx="86.338" ry="37.002"/><path d="m342.338 227.496c0-25.559-43.362-37.002-86.338-37.002v74.004c42.976 0 86.338-11.443 86.338-37.002z" fill="#dce0ef"/></g></g></svg>