<svg id="Capa_1" enable-background="new 0 0 512.507 512.507" height="512" viewBox="0 0 512.507 512.507" width="512" xmlns="http://www.w3.org/2000/svg"><g><g><path d="m512.254 256c0 141.387-114.613 256-256 256s-256-114.613-256-256 114.613-256 256-256 256 114.613 256 256zm0 0" fill="#aaed58"/><path d="m512.254 256c0 26.051-3.891 51.191-11.129 74.871-5.031 16.469-11.672 32.231-19.75 47.109-8.25 15.2-18 29.461-29.051 42.61-.582.691-1.16 1.379-1.75 2.058-46.941 54.704-116.59 89.352-194.32 89.352s-147.379-34.648-194.309-89.352c-.589-.687-1.179-1.378-1.75-2.07-11.062-13.137-20.812-27.398-29.05-42.598-3.289-6.031-6.332-12.21-9.121-18.531-14-31.629-21.77-66.629-21.77-103.449 0-46.219 12.25-89.57 33.68-127 44.121 77.07 127.16 129 222.32 129s178.211-51.93 222.32-129c21.43 37.43 33.68 80.781 33.68 127zm0 0" fill="#6abb5e"/><path d="m481.516 377.699c-7.16 13.223-15.434 25.742-24.723 37.43-8.437 10.633-17.719 20.57-27.719 29.723-45.539 41.699-106.211 67.148-172.82 67.148s-127.281-25.449-172.82-67.148c-10-9.153-19.282-19.09-27.719-29.723-9.289-11.688-17.563-24.207-24.723-37.43zm0 0" fill="#299f8c"/></g><g><path d="m453.737 256.396h-197.483l-146.57 128.055 145.98 127.541c.197 0 .392.008.589.008 79.497 0 150.529-36.235 197.483-93.089v-162.515z" fill="#2d3e53"/><path d="m58.77 256.396v162.515c46.955 56.854 117.987 93.089 197.484 93.089v-255.604z" fill="#435d7a"/><path d="m58.77 418.911c18.924 22.913 41.768 42.463 67.491 57.656v-220.17h-67.491z" fill="#506f91"/><path d="m327.489 186.969h-71.235l-71.236 158.496h193.212z" fill="#16202d"/><path d="m185.018 186.969-50.741 158.496h121.977v-158.496z" fill="#2d3e53"/><path d="m185.018 186.969-50.741 158.496h81.091v-158.496z" fill="#3c526e"/><path d="m256.254 256.396-64.028 128.055 64.028 128.056c70.723 0 128.056-57.332 128.056-128.056s-57.333-128.055-128.056-128.055z" fill="#5a7ba0"/><path d="m128.198 384.452c0 70.723 57.332 128.056 128.055 128.056v-256.112c-70.723 0-128.055 57.333-128.055 128.056z" fill="#7397b8"/><path d="m333.47 357.494c-11.141-31.914-41.502-54.813-77.216-54.813l-46.285 81.77 46.285 81.77c35.714 0 66.076-22.899 77.216-54.813z" fill="#a6cfe7"/><path d="m256.254 302.681c-35.714 0-66.076 22.899-77.217 54.813v53.915c11.141 31.914 41.502 54.813 77.217 54.813v-54.813l-23.143-26.957 23.143-26.957z" fill="#bfebff"/><path d="m333.47 357.494h-100.359v53.915h100.359c2.947-8.441 4.554-17.511 4.554-26.957 0-9.447-1.607-18.516-4.554-26.958z" fill="#bfebff"/><path d="m256.254 357.494h-77.217c-2.947 8.441-4.554 17.511-4.554 26.957s1.607 18.516 4.554 26.957h77.217z" fill="#fff"/></g><g fill="#fff"><path d="m107.705 170.341h-1.524c-6.754 0-12.226-5.477-12.226-12.227v-1.523h-8.715v1.523c0 6.75-5.477 12.227-12.227 12.227h-1.527v8.715h1.527c6.75 0 12.227 5.472 12.227 12.226v1.528h8.715v-1.528c0-6.754 5.472-12.226 12.226-12.226h1.524zm0 0"/><path d="m205.126 92.513h-1.524c-6.754 0-12.226-5.477-12.226-12.227v-1.523h-8.715v1.523c0 6.75-5.477 12.227-12.227 12.227h-1.527v8.715h1.527c6.75 0 12.227 5.472 12.227 12.226v1.528h8.715v-1.528c0-6.754 5.472-12.226 12.226-12.226h1.524zm0 0"/><path d="m345.6 92.513h-1.524c-6.754 0-12.226-5.477-12.226-12.227v-1.523h-8.715v1.523c0 6.75-5.477 12.227-12.227 12.227h-1.527v8.715h1.527c6.75 0 12.227 5.472 12.227 12.226v1.528h8.715v-1.528c0-6.754 5.472-12.226 12.226-12.226h1.524zm0 0"/><path d="m441.021 170.341h-1.524c-6.754 0-12.226-5.477-12.226-12.227v-1.523h-8.715v1.523c0 6.75-5.477 12.227-12.227 12.227h-1.527v8.715h1.527c6.75 0 12.227 5.472 12.227 12.226v1.528h8.715v-1.528c0-6.754 5.472-12.226 12.226-12.226h1.524zm0 0"/></g></g></svg>