<svg id="Capa_1" enable-background="new 0 0 512 512" height="512" viewBox="0 0 512 512" width="512" xmlns="http://www.w3.org/2000/svg"><circle cx="256" cy="256" fill="#65b2fe" r="256"/><path d="m512 256c0 87.11-43.52 164.07-110 210.31-41.41 28.8-91.73 45.69-146 45.69s-104.59-16.89-146-45.69c-66.48-46.24-110-123.2-110-210.31 0-46.22 12.25-89.57 33.68-127 44.12 77.07 127.16 129 222.32 129s178.21-51.93 222.32-129c21.43 37.43 33.68 80.78 33.68 127z" fill="#0e9ce7"/><path d="m452 316c0 105.34-83.12 191.28-187.34 195.81-.31.02-.62.03-.93.04-.87.03-1.74.06-2.6.08-1.73.05-3.44.07-5.13.07-108.24 0-196-87.76-196-196s87.76-196 196-196h.28c108.11.15 195.72 87.85 195.72 196z" fill="#ffe853"/><path d="m452 316c0 105.34-83.12 191.28-187.34 195.81-.31.02-.62.03-.93.04-.87.03-1.74.06-2.6.08-1.73.05-3.44.07-5.13.07-58.54-45.3-103.35-116.25-103.35-196s44.81-150.7 103.35-196h.28c108.11.15 195.72 87.85 195.72 196z" fill="#fed110"/><path d="m452 316c0 108.244-87.756 196-196 196v-392c108.244 0 196 87.756 196 196z" fill="#ff9f01"/><path d="m185.55 351.7c0 16.18-6.84 16.18-6.84 32.35 0 16.18 6.84 16.18 6.84 32.36s-6.84 16.18-6.84 32.36 6.84 16.18 6.84 32.35c0 8.26-1.78 12.3-3.53 16.43-30.89-12.6-57.84-32.85-78.5-58.39 1.92-7.58 5.77-10.62 5.77-22.75 0-16.18-6.84-16.18-6.84-32.36 0-16.17 6.84-16.17 6.84-32.35s-6.84-16.18-6.84-32.35c0-16.18 6.84-16.18 6.84-32.35h76.26c0 16.17-6.84 16.17-6.84 32.35 0 16.17 6.84 16.17 6.84 32.35z" fill="#fff"/><path d="m409.55 384.05c0 16.18-6.84 16.18-6.84 32.36 0 12.13 3.84 15.17 5.77 22.74v.01c-20.67 25.55-47.62 45.8-78.5 58.4-1.75-4.13-3.53-8.17-3.53-16.43 0-16.18 6.84-16.18 6.84-32.36s-6.84-16.18-6.84-32.36 6.84-16.18 6.84-32.36c0-16.17-6.84-16.17-6.84-32.35s6.84-16.18 6.84-32.35c0-16.18-6.84-16.18-6.84-32.35h76.26c0 16.17 6.84 16.17 6.84 32.35 0 16.17-6.84 16.17-6.84 32.35s6.84 16.18 6.84 32.35z" fill="#d1f6ff"/><path d="m222.229 292.996c4.263 0 6.457-4.326 3.436-6.844-16.06-13.382-38.208-21.655-62.665-21.655s-46.605 8.273-62.665 21.655c-3.021 2.517-.827 6.844 3.436 6.844z" fill="#29334c"/><path d="m408.229 292.996c4.263 0 6.457-4.326 3.436-6.844-16.06-13.382-38.208-21.655-62.665-21.655-24.458 0-46.605 8.273-62.665 21.655-3.021 2.517-.827 6.844 3.436 6.844z" fill="#29334c"/><path d="m306.41 384.31c0 14.23-4.23 27.3-11.29 37.53-9.25 13.41-23.34 21.97-39.12 21.97s-29.87-8.56-39.12-21.97c-7.06-10.23-11.29-23.3-11.29-37.53 0-11.16 2.6-21.6 7.14-30.52 3.28-6.47 7.57-12.14 12.61-16.71 8.49-7.7 19.12-12.27 30.66-12.27s22.17 4.57 30.66 12.27c5.04 4.57 9.33 10.24 12.61 16.71 4.54 8.92 7.14 19.36 7.14 30.52z" fill="#313b5a"/><path d="m306.41 384.31c0 14.23-4.23 27.3-11.29 37.53-9.25 13.41-23.34 21.97-39.12 21.97v-119c11.54 0 22.17 4.57 30.66 12.27 5.04 4.57 9.33 10.24 12.61 16.71 4.54 8.92 7.14 19.36 7.14 30.52z" fill="#29334c"/><path d="m299.27 353.79c-3.79 1.41-8.17 2.21-12.81 2.21h-60.92c-4.64 0-9.02-.8-12.81-2.21 3.28-6.47 7.57-12.14 12.61-16.71 8.49-7.7 19.12-12.27 30.66-12.27s22.17 4.57 30.66 12.27c5.04 4.57 9.33 10.24 12.61 16.71z" fill="#fff"/><path d="m295.12 421.84c-9.25 13.41-23.34 21.97-39.12 21.97s-29.87-8.56-39.12-21.97c7.7-11.25 22.33-18.84 39.12-18.84s31.42 7.59 39.12 18.84z" fill="#ff1d56"/><path d="m295.12 421.84c-9.25 13.41-23.34 21.97-39.12 21.97v-40.81c16.79 0 31.42 7.59 39.12 18.84z" fill="#dd1265"/><path d="m286.46 356h-30.46v-31.19c11.54 0 22.17 4.57 30.66 12.27 5.04 4.57 9.33 10.24 12.61 16.71-3.79 1.41-8.17 2.21-12.81 2.21z" fill="#d1f6ff"/></svg>