<svg id="Capa_1" enable-background="new 0 0 512 512" height="512" viewBox="0 0 512 512" width="512" xmlns="http://www.w3.org/2000/svg"><g><g><path d="m512 256c0 141.387-114.613 256-256 256s-256-114.613-256-256 114.613-256 256-256 256 114.613 256 256zm0 0" fill="#e36565"/><path d="m512 256c0 26.051-3.891 51.191-11.129 74.871-5.031 16.469-11.672 32.231-19.75 47.109-8.25 15.2-147.391 73.926-225.121 73.926s-216.871-58.726-225.109-73.926c-3.289-6.031-6.332-12.21-9.121-18.531-14-31.629-21.77-66.629-21.77-103.449 0-46.219 12.25-89.57 33.68-127 44.121 77.07 127.16 129 222.32 129s178.211-51.93 222.32-129c21.43 37.43 33.68 80.781 33.68 127zm0 0" fill="#da3f3e"/><path d="m481.262 377.699c-7.16 13.223-15.434 25.742-24.723 37.43-8.437 10.633-17.719 20.57-27.719 29.723-45.539 41.699-106.211 67.148-172.82 67.148s-127.281-25.449-172.82-67.148c-10-9.153-19.282-19.09-27.719-29.723-9.289-11.688-17.563-24.207-24.723-37.43zm0 0" fill="#a52020"/></g><g><path d="m179.77 277.949h-109.626v65.34c0 29.926 57.175 43.56 109.626 43.56s109.626-13.634 109.626-43.56v-65.34z" fill="#dce0ef"/><path d="m289.396 343.289v-65.34h-109.626v108.9c52.451 0 109.626-13.633 109.626-43.56z" fill="#cad0e7"/><path d="m179.77 212.609h-109.626v65.34c0 29.926 57.175 43.56 109.626 43.56s109.626-13.634 109.626-43.56v-65.34z" fill="#fbf5eb"/><path d="m289.396 277.949v-65.34h-109.626v108.9c52.451 0 109.626-13.633 109.626-43.56z" fill="#dce0ef"/><path d="m179.77 146.544h-109.626v66.066c0 29.926 57.175 43.56 109.626 43.56s109.626-13.634 109.626-43.56v-66.066z" fill="#dce0ef"/><path d="m289.396 212.609v-66.066h-109.626v109.626c52.451 0 109.626-13.633 109.626-43.56z" fill="#cad0e7"/><ellipse cx="179.77" cy="146.544" fill="#fbf5eb" rx="109.626" ry="43.56"/><path d="m289.396 146.544c0-29.926-57.175-43.56-109.626-43.56v87.12c52.451 0 109.626-13.634 109.626-43.56z" fill="#dce0ef"/><path d="m420.076 397.74c0 30.022-24.428 55.176-54.45 55.176s-54.45-25.154-54.45-55.176 24.428-54.45 54.45-54.45h17.271l-10.89 10.89 15.399 15.399 37.179-37.179-37.179-37.179-15.399 15.399 10.89 10.89h-17.271c-42.029 0-76.23 34.201-76.23 76.23s34.201 76.956 76.23 76.956 76.23-34.927 76.23-76.956z" fill="#8ab8ec"/><g fill="#728ee4"><path d="m441.856 397.74h-21.78c0 30.022-24.428 55.176-54.45 55.176v21.78c42.029 0 76.23-34.928 76.23-76.956z"/><path d="m382.897 343.289-10.89 10.891 15.399 15.399 37.179-37.179-37.179-37.18-15.399 15.4 10.89 10.889h-17.271v21.78z"/></g></g><g fill="#fff"><path d="m453.701 233.531h-1.524c-6.754 0-12.226-5.477-12.226-12.227v-1.523h-8.715v1.523c0 6.75-5.477 12.227-12.227 12.227h-1.527v8.715h1.527c6.75 0 12.227 5.472 12.227 12.226v1.528h8.715v-1.528c0-6.754 5.472-12.226 12.226-12.226h1.524zm0 0"/><path d="m413.215 114.955h-1.524c-6.754 0-12.226-5.477-12.226-12.227v-1.523h-8.715v1.523c0 6.75-5.477 12.227-12.227 12.227h-1.527v8.715h1.527c6.75 0 12.227 5.472 12.227 12.226v1.528h8.715v-1.528c0-6.754 5.472-12.226 12.226-12.226h1.524zm0 0"/><path d="m281.623 56.25h-1.524c-6.754 0-12.226-5.477-12.226-12.227v-1.523h-8.715v1.523c0 6.75-5.477 12.227-12.227 12.227h-1.527v8.715h1.527c6.75 0 12.227 5.472 12.227 12.226v1.528h8.715v-1.528c0-6.754 5.472-12.226 12.226-12.226h1.524zm0 0"/></g></g></svg>