<svg id="Layer_1" enable-background="new 0 0 505.89 505.89" height="512" viewBox="0 0 505.89 505.89" width="512" xmlns="http://www.w3.org/2000/svg"><g><g><circle cx="252.945" cy="246.418" fill="#f8e000" r="246.418"/></g><path d="m490.762 181.718c-.311.143-.618.295-.918.456-3.327 1.782-7.284 1.758-10.515-.193-30.134-18.194-70.038-14.465-96.254 11.751l47.753 47.753-9.686 9.686c-56.592-56.02-147.484-55.906-203.984-.233l-9.454-9.453 40.528-40.528c4.092-4.092 3.644-10.873-.974-14.361-27.16-20.511-65.452-21.607-93.909-.71-3.013-3.457-7.437-5.652-12.383-5.652-16.065 0-22.565 20.781-9.344 29.943-14.723 25.609-13.808 57.624 2.452 82.359 4.616 7.022 14.48 8.099 20.422 2.157l31.287-31.287 11.615 11.615c-4.477 6.834-8.3 13.932-11.48 21.216-11.079 25.37-47.253 25.137-58.161-.307-12.76-29.763-19.826-62.545-19.826-96.98 0-.477.001-.953.004-1.429.231-40.66 41.691-67.55 79.335-52.181 15.006 6.127 32.362 9.626 50.855 9.626 15.481 0 30.162-2.457 43.339-6.85 24.409 23.131 22.184 21.06 22.725 21.469 4.571 3.576 11.167.256 11.167-5.432v-24.654c0-5.798 2.4-11.296 6.504-15.392 12.193-12.17 19.378-27.103 19.378-43.244 0-40.926-46.165-74.103-103.113-74.103-11.788 0-23.11 1.426-33.657 4.046-3.212.798-5.231-3.365-2.633-5.415l.122-.096c-111.625 23.488-195.43 122.513-195.43 241.123 0 115.635 79.656 212.65 187.085 239.21.006.001.012.003.018.004 19.001 4.696 38.864 7.204 59.315 7.204 56.841 0 110-19.358 152.392-52.765-.016.003-.033.006-.049.01 6.15-4.845 12.063-9.975 17.721-15.372 40.042-38.195 48.691-99.437 19.619-146.522-.591-.957-1.193-1.908-1.808-2.854l11.928-11.928 1.901 1.901c16.424 16.424 44.659 4.928 44.714-18.299 0-.196.001-.392.001-.588-.001-22.393-3.005-44.081-8.602-64.701z" fill="#ffc305"/><g><circle cx="472.783" cy="198.949" fill="#ff8500" r="16.433"/><path d="m166.398 504.549c-2.508-1.914-3.294-5.345-1.867-8.159l27.372-53.998 26.911 20.531-43.975 41.199c-2.332 2.185-5.901 2.365-8.441.427z" fill="#2d56a1"/><path d="m416.65 504.549c2.508-1.914 3.294-5.345 1.867-8.159l-27.372-53.998-26.911 20.531 43.975 41.199c2.332 2.185 5.901 2.365 8.441.427z" fill="#2d56a1"/><path d="m319.852 373.8 118.03-118.03c6.053-6.053 6.053-15.867 0-21.92-6.053-6.053-15.867-6.053-21.92 0l-118.03 118.03c-6.053 6.053-6.053 15.867 0 21.92 6.053 6.054 15.867 6.054 21.92 0z" fill="#e20a62"/><path d="m482.12 290.825c17.298-30.064 13.114-69.113-12.584-94.811-.077-.077-.155-.155-.233-.232-9.63-9.552-26.04-2.552-26.04 11.012l-5.38 48.976z" fill="#ff5551"/><path d="m474.315 201.94c.18-.015.36-.03.54-.044-1.658-2.026-3.43-3.991-5.321-5.882-30.719-30.719-80.524-30.719-111.243 0l111.243 111.243c6.764-6.764 12.035-14.456 15.821-22.663l-30.03-30.03c-18.504-18.505-7.084-50.395 18.99-52.624z" fill="#e20a62"/><path d="m269.114 373.8-118.03-118.03c-6.053-6.053-6.053-15.867 0-21.92 6.053-6.053 15.867-6.053 21.92 0l118.03 118.03c6.053 6.053 6.053 15.867 0 21.92-6.053 6.054-15.867 6.054-21.92 0z" fill="#e20a62"/><path d="m439.405 356.614c0 80.169-64.989 145.158-145.158 145.158s-130.713-64.989-130.713-145.158c0-74.033 40.976-135.121 112.594-144.038 5.936-.739 11.983-1.12 18.119-1.12 80.169 0 145.158 64.989 145.158 145.158z" fill="#ff5551"/><path d="m405.922 371.614c0-65.678-54.933-113.379-114.819-111.733-12.673.348-17.922-16.199-7.443-23.334.314-.214.629-.427.945-.638 11.214-7.507 4.904-25.087-8.484-23.399-69.868 8.809-127.031 68.342-127.031 144.104 0 87.956 76.845 153.737 161.035 144.331 5.067-.566 6.033-7.598 1.299-9.49-.118-.047-.236-.095-.354-.142-4.618-1.86-3.837-8.66 1.078-9.452 53.166-8.567 93.774-54.664 93.774-110.247z" fill="#e20a62"/><path d="m405.922 356.614c0 44.036-25.489 82.12-62.518 100.301-14.833 7.283-26.801 1.128-44.441 1.128-61.676 0-106.43-34.754-106.43-96.43 0-26.98-.393-56.726 15.535-76.029 20.483-24.823 51.483-40.646 86.179-40.646 61.676.001 111.675 50 111.675 111.676z" fill="#fff"/><g fill="#faf58c"><path d="m353.741 438.027-3.395-5.88c-1.252-2.169-4.025-2.911-6.194-1.659l-4.733 2.733 1.046 1.811c-.808-.155-1.656-.242-2.552-.233-.882.009-1.767.008-2.654-.004-15.623-.204-30.493-3.664-43.967-9.722-6.293-2.83-8.864-10.406-5.593-16.482 2.108-3.916 4.437-8.244 6.312-11.728 2.033-3.779 5.901-6.104 10.181-6.418 13.197-.968 23.956-12.001 23.956-25.831 0-11.51-7.512-21.262-17.898-24.633v-72.04c0-4.261-3.216-7.982-7.468-8.257-4.659-.301-8.532 3.389-8.532 7.983v72.314c-10.387 3.371-17.898 13.122-17.898 24.633 0 6.953 2.745 13.261 7.204 17.913l-14.752 27.484c-25.265-20.41-41.542-51.551-41.726-86.275-.012-2.22.041-4.425.157-6.614.019-.351.121-.691.297-.995l2.727-4.723c.595-1.031.3-2.409-.748-2.973-.819-.441-1.279-1.351-1.14-2.267.522-3.439 1.193-6.828 2.024-10.155 3.033-12.152-12.351-20.082-20.323-10.422-16.164 19.588-25.778 44.78-25.49 72.225.642 61.256 51.306 110.955 112.564 110.473 17.309-.136 33.679-4.211 48.26-11.372 4.062-1.995 6.09-5.478 6.428-9.098.14-1.495.95-2.843 2.25-3.594 2.166-1.252 2.909-4.026 1.657-6.194z"/><path d="m386.534 351.614h15.859v10h-15.859z"/><path d="m374.007 304.864h15.859v10h-15.859z" transform="matrix(.866 -.5 .5 .866 -103.763 232.485)"/><path d="m339.784 270.64h15.859v10h-15.859z" transform="matrix(.5 -.866 .866 .5 -64.856 438.947)"/><path d="m295.963 255.184h10v15.859h-10z"/><path d="m249.213 267.711h10v15.859h-10z" transform="matrix(.866 -.5 .5 .866 -103.763 164.038)"/><path d="m376.937 395.434h10v15.859h-10z" transform="matrix(.5 -.866 .866 .5 -158.358 532.436)"/></g><g><circle cx="294.247" cy="356.614" fill="#ff5551" r="25.898"/></g><circle cx="116.183" cy="198.949" fill="#ff8500" r="16.433"/><path d="m214.767 183.722c-30.133-17.648-69.489-13.555-95.336 12.292-1.22 1.219-2.381 2.474-3.498 3.755l.25 85.239z" fill="#ff5551"/><path d="m116.913 199.27c.001-.204.002-.409.005-.613-28.173 30.869-27.341 78.745 2.513 108.599l111.243-111.243c-5.485-5.485-11.586-9.972-18.07-13.498l-39.818 39.818c-20.59 20.591-55.981 6.056-55.873-23.063z" fill="#e20a62"/><g fill="#ff8500"><path d="m192.534 351.614h15.859v10h-15.859z"/><path d="m379.534 351.614h15.859v10h-15.859z"/><path d="m205.06 398.364h15.859v10h-15.859z" transform="matrix(.866 -.5 .5 .866 -173.148 160.537)"/><path d="m367.007 304.864h15.859v10h-15.859z" transform="matrix(.866 -.5 .5 .866 -104.7 228.985)"/><path d="m239.284 432.587h15.858v10h-15.858z" transform="matrix(.5 -.866 .866 .5 -255.355 432.884)"/><path d="m332.784 270.64h15.859v10h-15.859z" transform="matrix(.5 -.866 .866 .5 -68.356 432.884)"/><path d="m288.963 442.184h10v15.859h-10z"/><path d="m288.963 255.184h10v15.859h-10z"/><path d="m335.713 429.658h10v15.858h-10z" transform="matrix(.866 -.5 .5 .866 -173.155 229.002)"/><path d="m242.213 267.711h10v15.859h-10z" transform="matrix(.866 -.5 .5 .866 -104.701 160.538)"/><path d="m369.937 395.434h10v15.859h-10z" transform="matrix(.5 -.866 .866 .5 -161.858 526.374)"/><path d="m207.99 301.934h10v15.859h-10z" transform="matrix(.5 -.866 .866 .5 -161.856 339.378)"/></g><g><path d="m267.283 414.84c-1.277 0-2.573-.307-3.776-.953-3.893-2.09-5.355-6.939-3.266-10.832l26.006-48.452v-94.937c0-4.418 3.582-8 8-8s8 3.582 8 8v96.947c0 1.32-.327 2.62-.951 3.783l-26.958 50.225c-1.443 2.69-4.203 4.219-7.055 4.219z" fill="#2d56a1"/></g></g><path d="m290.573 151.046v-18.809c16.102-13.073 25.882-30.26 25.882-49.092 0-40.926-46.165-74.102-103.113-74.102-22.096 0-42.566 4.997-59.348 13.501v21.086c0 55.936 43.949 102.03 99.825 104.629 19.916.927 35.27 1.884 36.754 2.787z" fill="#6ee1ff"/><g fill="#2896ff"><path d="m268.732 131.67h-.271c-30.052 0-57.098-9.24-75.944-23.981-8.263-6.463-10.747-17.897-5.903-27.202.743-1.484 1.547-3.402 1.547-4.702v-7.054c0-1.237-1.98-2.537-3.527-2.537h-18.586c-.457-2.831-.699-5.708-.699-8.626 0-7.923 1.731-15.555 4.936-22.712 3.928-8.772-5.278-17.607-13.951-13.464-27.789 13.274-46.104 35.976-46.104 61.754 0 40.926 46.165 74.102 103.113 74.102 15.481 0 30.162-2.457 43.339-6.849l22.074 20.919c1.618 1.534 3.86 2.325 6.056 1.94 3.414-.598 5.761-3.521 5.761-6.822v-12.904c0-12.067-9.775-21.851-21.841-21.862zm-88.615-58.423v4.084l-5.83 10.453c-1.766-2.838-3.289-5.77-4.553-8.783-1.146-2.731.808-5.754 3.77-5.754z"/><path d="m195.831 85.728c2.227 0 4.146-1.979 4.146-4.207 0-2.29-1.918-4.208-4.146-4.208-2.414 0-4.208 1.918-4.208 4.208 0 2.227 1.794 4.207 4.208 4.207z"/><path d="m195.831 103.795c2.227 0 4.146-1.979 4.146-4.207 0-2.29-1.918-4.208-4.146-4.208-2.414 0-4.208 1.918-4.208 4.208 0 2.228 1.794 4.207 4.208 4.207z"/><path d="m220.022 111.795c8.167 0 14.541-3.836 14.541-14.169v-17.262c0-10.333-6.373-14.17-14.541-14.17s-14.479 3.837-14.479 14.17v17.263c.001 10.332 6.312 14.168 14.479 14.168zm-6.434-31.431c0-4.889 2.351-7.116 6.435-7.116 4.022 0 6.497 2.228 6.497 7.116v17.263c0 4.888-2.475 7.115-6.497 7.115-4.083 0-6.435-2.228-6.435-7.115z"/><path d="m254.732 111.795c8.167 0 14.541-3.836 14.541-14.169v-17.262c0-10.333-6.373-14.17-14.541-14.17-8.167 0-14.479 3.837-14.479 14.17v17.263c0 10.332 6.311 14.168 14.479 14.168zm-6.435-31.431c0-4.889 2.352-7.116 6.435-7.116 4.022 0 6.497 2.228 6.497 7.116v17.263c0 4.888-2.475 7.115-6.497 7.115-4.083 0-6.435-2.228-6.435-7.115z"/></g><g fill="#fff"><path d="m188.16 68.785c0 1.3-.804 3.218-1.547 4.702l-15.654 30.071c-.434.805-1.238 1.176-2.29 1.176-2.537 0-5.074-1.732-5.074-4.022 0-.494.062-.928.371-1.423l16.149-28.957v-4.084h-12.932v5.012c0 1.485-1.98 2.599-4.084 2.599-2.166 0-3.96-1.113-3.96-2.599v-9.528c0-1.237 1.732-2.537 3.527-2.537h21.965c1.547 0 3.527 1.3 3.527 2.537v7.053z"/><path d="m199.976 74.521c0 2.228-1.918 4.207-4.146 4.207-2.414 0-4.208-1.979-4.208-4.207 0-2.29 1.794-4.208 4.208-4.208 2.228 0 4.146 1.918 4.146 4.208zm0 18.067c0 2.228-1.918 4.207-4.146 4.207-2.414 0-4.208-1.979-4.208-4.207 0-2.29 1.794-4.208 4.208-4.208 2.228 0 4.146 1.918 4.146 4.208z"/><path d="m205.544 90.626v-17.262c0-10.333 6.311-14.17 14.479-14.17s14.541 3.837 14.541 14.17v17.263c0 10.333-6.373 14.169-14.541 14.169s-14.479-3.837-14.479-14.17zm20.975-17.262c0-4.889-2.475-7.116-6.497-7.116-4.083 0-6.435 2.228-6.435 7.116v17.263c0 4.888 2.351 7.115 6.435 7.115 4.022 0 6.497-2.228 6.497-7.115z"/><path d="m240.253 90.626v-17.262c0-10.333 6.311-14.17 14.479-14.17 8.167 0 14.541 3.837 14.541 14.17v17.263c0 10.333-6.373 14.169-14.541 14.169-8.168-.001-14.479-3.837-14.479-14.17zm20.976-17.262c0-4.889-2.475-7.116-6.497-7.116-4.083 0-6.435 2.228-6.435 7.116v17.263c0 4.888 2.352 7.115 6.435 7.115 4.022 0 6.497-2.228 6.497-7.115z"/></g></g></svg>