<svg id="Capa_1" enable-background="new 0 0 512 512" height="512" viewBox="0 0 512 512" width="512" xmlns="http://www.w3.org/2000/svg"><g><g><path d="m0 256c0 43.79 11 85.02 30.39 121.07l225.61 49.67 225.61-49.67c19.39-36.05 30.39-77.28 30.39-121.07 0-46.63-12.47-90.34-34.26-128-41.698 72.091-399.22 76.52-443.48 0-21.79 37.66-34.26 81.37-34.26 128z" fill="#9febff"/><path d="m34.26 128c44.26 76.52 126.99 128 221.74 128s177.48-51.48 221.74-128c-.01-.02-.03-.05-.04-.07-44.27-76.48-126.98-127.93-221.7-127.93s-177.43 51.45-221.7 127.93c-.01.02-.03.05-.04.07z" fill="#c4f4ff"/><path d="m30.39 377.07c43.19 80.32 128.02 134.93 225.61 134.93s182.42-54.61 225.61-134.93z" fill="#70c5e9"/></g><path d="m178.449 359.321h155.101v85.214h-155.101z" fill="#464652"/><path d="m256 359.321h77.551v85.214h-77.551z" fill="#2d2f40"/><path d="m147.37 425.825h217.26v33.71h-217.26z" fill="#616579"/><path d="m256 425.825h108.63v33.71h-108.63z" fill="#464652"/><path d="m57.477 132.615h397.046v256.025h-397.046z" fill="#616578"/><path d="m256 132.615h198.523v256.025h-198.523z" fill="#464652"/><path d="m87.48 162.62h337.04v196.02h-337.04z" fill="#e8ebf7"/><path d="m256 162.62h168.52v196.02h-168.52z" fill="#daddee"/><path d="m327.73 260.63c0 39.57-32.07 71.65-71.64 71.65h-.09c-39.53-.05-71.55-32.11-71.55-71.65s32.02-71.59 71.55-71.64h.09c39.57 0 71.64 32.07 71.64 71.64z" fill="#db6870"/><path d="m327.73 260.63c0 39.57-32.07 71.65-71.64 71.65h-.09v-143.29h.09c39.57 0 71.64 32.07 71.64 71.64z" fill="#db504f"/><path d="m311.47 260.63-55.47 32.02-26.93 15.55v-95.15l26.93 15.55z" fill="#fff"/><path d="m311.47 260.63-55.47 32.02v-64.05z" fill="#e8ebf7"/></g></svg>