<svg id="Capa_1" enable-background="new 0 0 512 512" height="512" viewBox="0 0 512 512" width="512" xmlns="http://www.w3.org/2000/svg"><g><g><path d="m0 256c0 43.79 11 85.02 30.39 121.07l225.61 49.67 225.61-49.67c19.39-36.05 30.39-77.28 30.39-121.07 0-46.63-12.47-90.34-34.26-128-41.698 72.091-399.22 76.52-443.48 0-21.79 37.66-34.26 81.37-34.26 128z" fill="#9feafd"/><path d="m34.26 128c44.26 76.52 126.99 128 221.74 128s177.48-51.48 221.74-128c-.01-.02-.03-.05-.04-.07-44.27-76.48-126.98-127.93-221.7-127.93s-177.43 51.45-221.7 127.93c-.01.02-.03.05-.04.07z" fill="#c3f3ff"/><path d="m30.39 377.07c43.19 80.32 128.02 134.93 225.61 134.93s182.42-54.61 225.61-134.93z" fill="#78cd8a"/></g><path d="m218.89 254.835h74.22v217.392h-74.22z" fill="#b17151"/><path d="m256 254.835h37.11v217.392h-37.11z" fill="#af532f"/><path d="m433.94 193.3c0 34.78-26.15 63.44-59.85 67.45-9.78 25.52-34.5 43.65-63.46 43.65h-109.26c-28.96 0-53.68-18.13-63.46-43.65-16.85-2.01-31.81-10.17-42.56-22.19-10.75-12.01-17.29-27.87-17.29-45.26 0-37.53 30.42-67.96 67.95-67.96h3.73c0-37.52 30.42-67.95 67.95-67.95h76.62c18.77 0 35.75 7.61 48.05 19.91 12.3 12.29 19.9 29.28 19.9 48.04h3.73c18.77 0 35.75 7.61 48.05 19.91 12.3 12.29 19.9 29.29 19.9 48.05z" fill="#78cd8a"/><g><path d="m349.904 320.229h23.315v35.999h-23.315z" fill="#af532f"/><path d="m406.1 383.33c0 23.89-19.36 43.25-43.25 43.25-23.88 0-43.24-19.36-43.24-43.25 0-23.88 19.36-43.24 43.24-43.24 23.89 0 43.25 19.36 43.25 43.24z" fill="#d75e91"/><path d="m406.1 383.33c0 23.89-19.36 43.25-43.25 43.25v-86.49c23.89 0 43.25 19.36 43.25 43.24z" fill="#bf2e70"/><ellipse cx="390.601" cy="369.748" fill="#a8ea58" rx="23.662" ry="40.977" transform="matrix(.707 -.707 .707 .707 -147.047 384.493)"/></g><path d="m433.94 193.3c0 34.78-26.15 63.44-59.85 67.45-9.78 25.52-34.5 43.65-63.46 43.65h-54.63v-247.01h38.31c18.77 0 35.75 7.61 48.05 19.91 12.3 12.29 19.9 29.28 19.9 48.04h3.73c18.77 0 35.75 7.61 48.05 19.91 12.3 12.29 19.9 29.29 19.9 48.05z" fill="#599d89"/><g fill="#70c5e8"><path d="m334.399 243.857h21.334v64.11h-21.334z"/><path d="m368.38 243.857h21.334v64.11h-21.334z"/></g></g></svg>