<svg id="Layer_1" enable-background="new 0 0 512.624 512.624" height="512" viewBox="0 0 512.624 512.624" width="512" xmlns="http://www.w3.org/2000/svg"><g><g><path d="m477.673 256.312c0 90.279-50.09 168.859-123.994 209.465-34.076 18.723-70.712 13.732-112.338 13.732-131.906-.001-221.341-95.818-221.341-227.724 0-98.929 40.149-179.283 125.871-215.541 28.574-12.086 59.99-18.769 92.966-18.769 131.905 0 238.836 106.931 238.836 238.837z" fill="#6ee1ff"/></g><g fill="#05cdff"><path d="m272.357 336.369v-114.288c0-10.216-8.282-18.498-18.498-18.498h-124.169c-17.71 0-32.377-13.858-33.261-31.546-.011-.224-.022-.449-.033-.673-.909-19.282 13.954-35.05 33.258-35.05h35.849c14.715 0 26.643-11.928 26.643-26.643v-56.641c0-10.225-8.289-18.513-18.513-18.513h-23.535c-8.687 3.479-17.118 7.457-25.266 11.892.005-.008.009-.017.013-.025-74.368 40.468-124.844 119.301-124.845 209.925-.002 130.953 108.047 238.927 239 238.839 41.566-.028 80.647-10.674 114.678-29.373 32.462-17.837 19.566-67.112-17.473-66.923-.413.002-.826.003-1.239.003-.217 0-.433 0-.65-.001-34.304-.091-61.959-28.181-61.959-62.485z"/><path d="m473.032 209.281-131.557-131.557c-2.894-2.894-6.761-4.22-10.548-3.979-8.205.523-16.221-2.646-22.355-8.12l-25.294-22.575c-5.859-5.859-15.357-5.859-21.216 0l-29.957 29.957-18.645 18.645 47.37 47.37c-5.098 5.098-6.362 12.887-3.138 19.336l1.049 2.098 190.011 190.011c2.227 2.227 5.03 3.521 7.929 3.89 13.485-29.914 20.992-63.103 20.992-98.046 0-16.099-1.604-31.823-4.641-47.03z"/></g><g><g><path d="m219.527 442.481 29.961-30.46v-190.189h-138.657v220.649z" fill="#2d56a1"/><g fill="#1a396b"><path d="m211.577 418.885c-5.849 0-10.591-4.742-10.591-10.591v-12.56c0-4.813-3.901-8.714-8.714-8.714h-10.555v31.865c-7.77 0-14.069-6.299-14.069-14.069v-17.796h-19.268v31.865c-7.77 0-14.069-6.299-14.069-14.069v-17.796h-19.269v31.865h-1.421v-197.053h-63.637v180.687c21.683 27.967 49.436 50.985 81.288 67.081h61.58l28.034-28.5c8.121-8.257 2.272-22.215-9.309-22.215z"/><path d="m215.055 363.543h19.269v46.954h-19.269z"/></g><g fill="#ff8500"><path d="m103.726 387.02h19.269v46.954h-19.269z"/><path d="m70.616 425.842c2.803 2.781 5.676 5.491 8.613 8.132h10.655v-46.954h-19.268z"/><path d="m137.063 387.02h19.269v46.954h-19.269z"/><path d="m170.401 387.02h19.269v46.954h-19.269z"/><path d="m203.739 363.543h19.269v46.954h-19.269z"/></g></g><g><path d="m284.203 85.093-34.402-34.402-42.547 42.548v18.74h76.949z" fill="#2896ff"/><path d="m279.386 85.52c-3.068 3.068-8.043 3.068-11.111 0l-6.989-6.989c-2.713-2.713-7.111-2.713-9.824 0l-6.123 6.123 17.456 17.456-5.33 5.33c-3.068 3.068-8.043 3.068-11.111 0l-6.989-6.989c-2.713-2.713-7.111-2.713-9.824 0-3.068 3.068-8.043 3.068-11.111 0l-9.195-9.195-18.645 18.645 69.885 69.885 59.21-59.21-37.679-37.679z" fill="#2d56a1"/><g fill="#fff"><path d="m226.28 101.825h15.606v28.557h-15.606z" transform="matrix(.707 -.707 .707 .707 -13.536 199.527)"/><path d="m248.2 79.904h15.606v28.557h-15.606z" transform="matrix(.707 -.707 .707 .707 8.384 208.607)"/></g><path d="m318.606 95.973c-5.342-5.342-14.003-5.342-19.346 0l-44.747 44.747 176.448 179.964 40.833-11.492 21.43-38.6z" fill="#ffc305"/><path d="m490.239 267.605c-3.229 3.229-8.487 2.934-11.434-.554-.307-.363-.631-.716-.973-1.058l-139.383-139.382c-6.772-6.772-18.064-6.981-24.708-.084-6.443 6.689-6.367 17.334.229 23.93l139.699 139.699c2.616 2.616 5.872 4.191 9.264 4.756l-16.149 16.149c-5.342 5.342-14.003 5.342-19.346 0l-171.633-171.633-19.932 19.932c-5.342 5.342-5.342 14.003 0 19.346l190.011 190.011c5.342 5.342 14.003 5.342 19.345 0l63.388-63.388c5.342-5.342 5.342-14.003 0-19.346z" fill="#ff8500"/><path d="m471.467 296.52c-6.672 6.672-17.49 6.672-24.162 0l-139.699-139.699c-6.672-6.672-6.672-17.49 0-24.162 6.672-6.672 17.49-6.672 24.162 0l139.699 139.699c6.673 6.672 6.673 17.49 0 24.162z" fill="#f8e000"/></g><g><path d="m169.278 131.327v-60.048c0-10.225-8.289-18.513-18.513-18.513h-36.916c-6.962 4.284-13.68 8.924-20.145 13.878v64.683z" fill="#ffc305"/><path d="m52.275 107.2v47.363h117.003v-26.643h-46.526c-13.092 0-23.705-10.613-23.705-23.705v-41.559c-17.532 12.677-33.271 27.674-46.772 44.544z" fill="#ff8500"/></g></g></g></svg>