<svg id="Capa_1" enable-background="new 0 0 512 512" height="512" viewBox="0 0 512 512" width="512" xmlns="http://www.w3.org/2000/svg"><circle cx="256" cy="256" fill="#65b2fe" r="256"/><path d="m512 256c0 87.11-43.52 164.07-110 210.31-41.41 28.8-91.73 45.69-146 45.69s-104.59-16.89-146-45.69c-66.48-46.24-110-123.2-110-210.31 0-46.22 12.25-89.57 33.68-127 44.12 77.07 127.16 129 222.32 129s178.21-51.93 222.32-129c21.43 37.43 33.68 80.78 33.68 127z" fill="#0e9ce7"/><path d="m452 316c0 105.34-83.12 191.28-187.34 195.81-.31.02-.62.03-.93.04-.87.03-1.74.06-2.6.08-1.73.05-3.44.07-5.13.07-108.24 0-196-87.76-196-196s87.76-196 196-196h.28c108.11.15 195.72 87.85 195.72 196z" fill="#ffe853"/><path d="m452 316c0 105.34-83.12 191.28-187.34 195.81-.31.02-.62.03-.93.04-.87.03-1.74.06-2.6.08-1.73.05-3.44.07-5.13.07-58.54-45.3-103.35-116.25-103.35-196s44.81-150.7 103.35-196h.28c108.11.15 195.72 87.85 195.72 196z" fill="#fed110"/><path d="m452 316c0 108.244-87.756 196-196 196v-392c108.244 0 196 87.756 196 196z" fill="#ff9f01"/><g fill="#29334c"><path d="m280.884 303.111c1.366-23.366 20.018-42.507 43.344-44.445 27.345-2.271 50.376 18.69 51.469 45.308.03.642.045 1.298.046 1.939v.154c-.008 4.424-5.804 6.143-8.31 2.497-8.561-12.457-22.925-20.619-39.178-20.598-16.25.022-30.59 8.211-39.132 20.682-2.523 3.684-8.312 1.904-8.323-2.562-.002-.984.025-1.977.084-2.975z"/><path d="m135.938 302.411c1.366-23.366 20.018-42.507 43.344-44.444 27.345-2.271 50.376 18.69 51.469 45.308.03.642.045 1.298.046 1.94v.154c-.008 4.424-5.804 6.143-8.31 2.497-8.561-12.457-22.925-20.619-39.178-20.598-16.25.021-30.59 8.211-39.132 20.682-2.523 3.684-8.312 1.904-8.323-2.562-.002-.985.025-1.978.084-2.977z"/><path d="m379.59 394.38c0 14.62-5.93 27.86-15.52 37.45-5.36 5.36-11.86 9.57-19.11 12.25l-31.29-16.41h-120l-26.63 16.41c-20.21-7.46-34.63-26.9-34.63-49.7 0-14.63 5.93-27.87 15.52-37.46 4.97-4.97 10.94-8.97 17.57-11.65l21.95 21.95h138.22l20.83-21.95c19.4 7.86 33.09 26.88 33.09 49.11z"/></g><path d="m346.5 345.27-7.07 30.59c-2.99 12.96-14.53 22.14-27.83 22.14h-111.2c-13.3 0-24.84-9.18-27.83-22.14l-7.07-30.59c6.14-2.49 12.85-3.86 19.88-3.86h141.24c7.03 0 13.74 1.37 19.88 3.86z" fill="#fff"/><path d="m344.96 444.08c-5.72 2.11-11.89 3.26-18.34 3.26h-141.24c-6.45 0-12.62-1.15-18.34-3.26l5.53-23.94c2.99-12.96 14.53-22.14 27.83-22.14h111.2c13.3 0 24.84 9.18 27.83 22.14z" fill="#d1f6ff"/><path d="m344.96 444.08c-5.72 2.11-11.89 3.26-18.34 3.26h-70.62v-49.34h55.6c13.3 0 24.84 9.18 27.83 22.14z" fill="#8fc9f7"/><path d="m346.5 345.27-7.07 30.59c-2.99 12.96-14.53 22.14-27.83 22.14h-55.6v-56.59h70.62c7.03 0 13.74 1.37 19.88 3.86z" fill="#d1f6ff"/><path d="m143.971 247.619c16.242-20.451 46.793-29.91 73.514-21.32.021.007.042.013.063.02 2.001.645 3.955-1.344 2.802-2.874-4.777-6.339-11.996-11.344-21.15-13.927-21.129-5.962-45.356 3.583-55.048 21.676-2.733 5.102-4.081 10.374-4.188 15.506-.038 1.847 2.76 2.489 4.007.919z" fill="#ed771b"/><path d="m366.099 247.619c-16.242-20.451-46.793-29.91-73.514-21.32-.021.007-.042.013-.063.02-2.001.645-3.955-1.344-2.802-2.874 4.777-6.339 11.996-11.344 21.15-13.927 21.13-5.962 45.356 3.583 55.048 21.676 2.733 5.102 4.081 10.374 4.188 15.506.038 1.847-2.76 2.489-4.007.919z" fill="#c55835"/></svg>