<svg id="Capa_1" enable-background="new 0 0 512 512" height="512" viewBox="0 0 512 512" width="512" xmlns="http://www.w3.org/2000/svg"><g><g><path d="m512 256c0 141.387-114.613 256-256 256s-256-114.613-256-256 114.613-256 256-256 256 114.613 256 256zm0 0" fill="#ffc46c"/><path d="m512 256c0 26.051-3.891 51.191-11.129 74.871-5.031 16.469-11.672 32.231-19.75 47.109-8.25 15.2-147.391 29.167-225.121 29.167s-216.871-13.967-225.109-29.167c-3.289-6.031-6.332-12.21-9.121-18.531-14-31.629-21.77-66.629-21.77-103.449 0-46.219 12.25-89.57 33.68-127 44.121 77.07 127.16 129 222.32 129s178.211-51.93 222.32-129c21.43 37.43 33.68 80.781 33.68 127zm0 0" fill="#ffb03b"/><path d="m481.262 377.699c-7.16 13.223-15.434 25.742-24.723 37.43-8.437 10.633-17.719 20.57-27.719 29.723-45.539 41.699-106.211 67.148-172.82 67.148s-127.281-25.449-172.82-67.148c-10-9.153-19.282-19.09-27.719-29.723-9.289-11.688-17.563-24.207-24.723-37.43zm0 0" fill="#ff903d"/></g><g><path d="m256 88.717-105.821 211.641 105.821 211.642c116.887 0 211.642-94.755 211.642-211.642s-94.756-211.641-211.642-211.641z" fill="#ff3744"/><path d="m44.358 300.358c0 116.887 94.755 211.642 211.642 211.642v-423.283c-116.887 0-211.642 94.755-211.642 211.641z" fill="#ff7040"/><path d="m256 125.919-87.22 174.439 87.22 174.439c96.34 0 174.439-78.099 174.439-174.439s-78.099-174.439-174.439-174.439z" fill="#ff7472"/><path d="m81.561 300.358c0 96.34 78.099 174.439 174.439 174.439v-348.878c-96.341 0-174.439 78.099-174.439 174.439z" fill="#ffa688"/><path d="m256 163.122-68.618 137.236 68.618 137.237c75.794 0 137.236-61.443 137.236-137.236 0-75.794-61.443-137.237-137.236-137.237z" fill="#ffa688"/><path d="m118.763 300.358c0 75.794 61.443 137.236 137.236 137.236v-274.472c-75.793 0-137.236 61.443-137.236 137.236z" fill="#ffd89d"/><path d="m345.117 231.389c-23.925-23.925-62.716-23.925-86.641 0-.857.857-1.68 1.735-2.476 2.629l-37.203 66.34 37.203 106.789 89.117-89.117c23.925-23.925 23.925-62.716 0-86.641z" fill="#ff0f47"/><path d="m255.999 234.018c-.796-.894-1.618-1.772-2.475-2.629-23.925-23.925-62.716-23.925-86.641 0s-23.925 62.716 0 86.641l89.117 89.117s0-173.129-.001-173.129z" fill="#ff786e"/><path d="m256 235.934c-.565-.872-.964-1.901-1.757-2.563-21.273-17.75-49.875-14.398-66.861 8.926s-11.634 52.215 5.351 75.539l63.267 89.311z" fill="#ff4f42"/></g></g></svg>