<svg id="Icons" enable-background="new 0 0 512 512" height="512" viewBox="0 0 512 512" width="512" xmlns="http://www.w3.org/2000/svg"><g><circle cx="256" cy="256" fill="#6052a3" r="256"/><g><g><g><path d="m301.017 438.26h-176.428c-12.05 0-21.818-9.768-21.818-21.818v-254.191c0-12.05 9.768-21.818 21.818-21.818h176.428c12.05 0 21.818 9.768 21.818 21.818v254.191c0 12.049-9.769 21.818-21.818 21.818z" fill="#a583bb"/><g fill="#57409b"><path d="m284.906 271.404h-144.206c-9.389-.306-9.469-13.914 0-14.251h144.205c9.39.306 9.469 13.914.001 14.251z"/><path d="m284.906 311.286h-144.206c-9.389-.306-9.469-13.914 0-14.251h144.205c9.39.307 9.469 13.914.001 14.251z"/><path d="m284.906 351.169h-144.206c-9.389-.306-9.469-13.914 0-14.251h144.205c9.39.306 9.469 13.914.001 14.251z"/><path d="m284.906 391.051h-144.206c-9.389-.306-9.469-13.914 0-14.251h144.205c9.39.306 9.469 13.914.001 14.251z"/><path d="m284.906 231.522h-144.206c-9.389-.306-9.469-13.914 0-14.251h144.205c9.39.306 9.469 13.914.001 14.251z"/><path d="m284.906 191.64h-144.206c-9.389-.306-9.469-13.914 0-14.251h144.205c9.39.306 9.469 13.914.001 14.251z"/></g></g><g><path d="m323.138 416.139h-176.428c-12.05 0-21.818-9.768-21.818-21.818v-254.191c0-12.05 9.768-21.818 21.818-21.818h176.428c12.05 0 21.818 9.768 21.818 21.818v254.191c0 12.049-9.769 21.818-21.818 21.818z" fill="#decee5"/><g fill="#6c53a2"><path d="m307.026 249.283h-144.205c-9.389-.306-9.469-13.914 0-14.251h144.205c9.39.306 9.469 13.914 0 14.251z"/><path d="m307.026 289.166h-144.205c-9.389-.306-9.469-13.914 0-14.251h144.205c9.39.306 9.469 13.913 0 14.251z"/><path d="m307.026 329.048h-144.205c-9.389-.306-9.469-13.914 0-14.251h144.205c9.39.306 9.469 13.914 0 14.251z"/><path d="m307.026 368.93h-144.205c-9.389-.306-9.469-13.914 0-14.251h144.205c9.39.306 9.469 13.914 0 14.251z"/><path d="m307.026 209.401h-144.205c-9.389-.306-9.469-13.914 0-14.251h144.205c9.39.306 9.469 13.914 0 14.251z"/><path d="m307.026 169.519h-144.205c-9.389-.306-9.469-13.914 0-14.251h144.205c9.39.306 9.469 13.914 0 14.251z"/></g></g><g><path d="m345.258 394.018h-176.427c-12.05 0-21.818-9.768-21.818-21.818v-254.191c0-12.05 9.768-21.818 21.818-21.818h176.428c12.05 0 21.818 9.768 21.818 21.818v254.191c-.001 12.049-9.769 21.818-21.819 21.818z" fill="#fff"/><g fill="#6c53a2"><path d="m329.147 227.162h-144.205c-9.389-.306-9.469-13.914 0-14.251h144.205c9.39.306 9.469 13.914 0 14.251z"/><path d="m329.147 267.045h-144.205c-9.389-.306-9.469-13.914 0-14.251h144.205c9.39.306 9.469 13.914 0 14.251z"/><path d="m329.147 306.927h-144.205c-9.389-.306-9.469-13.914 0-14.251h144.205c9.39.306 9.469 13.914 0 14.251z"/><path d="m329.147 346.809h-144.205c-9.389-.306-9.469-13.914 0-14.251h144.205c9.39.306 9.469 13.914 0 14.251z"/><path d="m329.147 187.28h-144.205c-9.389-.306-9.469-13.914 0-14.251h144.205c9.39.306 9.469 13.914 0 14.251z"/><path d="m293.891 147.398h-73.693c-9.412-.316-9.449-13.92 0-14.251h73.693c9.412.316 9.449 13.92 0 14.251z"/></g></g></g><g><g><path d="m400.787 88.827c-9.427 23.426-31.053 77.182-40.664 101.078-1.034 2.548-3.933 3.784-6.491 2.76-2.547-1.023-3.784-3.933-2.761-6.481 9.609-23.888 31.269-77.722 40.674-101.078 1.108-2.771-.235-5.916-2.995-7.035l-27.745-11.16c-2.761-1.109-5.916.235-7.024 2.995l-6.598 16.415-20.518 50.982c-1.119 2.771.224 5.916 2.984 7.035l13.878 5.575c2.761 1.109 5.916-.235 7.024-2.995l13.217-32.861.874-2.164c2.467-6.73-7.154-10.548-10.019-4.04 0 0-3.326 8.271-3.326 8.271-2.624 6.037-11.531 2.464-9.241-3.72 0 0 3.326-8.271 3.326-8.271 1.247-3.081 3.379-5.554 6.001-7.206 12.405-7.964 28.053 4.805 22.511 18.685 0 0-2.11 5.244-2.11 5.244l-11.981 29.781c-3.166 7.866-12.14 11.693-19.996 8.527l-13.878-5.586c-7.856-3.165-11.682-12.13-8.516-19.996l27.074-67.279c3.103-7.937 12.149-11.818 20.039-8.644l27.745 11.17c7.865 3.168 11.681 12.132 8.516 19.998z" fill="#a583bb"/></g><path d="m400.787 88.827c-3.943 9.804-11.914 29.615-15.839 39.363-3.102-1.29-6.086-2.803-8.921-4.53 3.862-9.631 11.667-28.956 15.519-38.553 1.109-2.771-.234-5.916-2.995-7.035l-25.347-10.201-2.398-.959c-2.761-1.109-5.916.235-7.024 2.995l-6.598 16.415c-1.852-6.326-2.949-13.249-2.654-20.134 3.141-7.92 12.325-11.662 19.996-8.527 0 0 27.745 11.17 27.745 11.17 7.865 3.166 11.681 12.13 8.516 19.996z" fill="#c2aacf"/><path d="m373.894 115.613-2.11 5.245c-2.857-2.057-5.532-4.328-8.016-6.801l.874-2.164c2.055-4.956-3.886-9.53-8.133-6.417-1.919-2.697-3.635-5.553-5.127-8.548 12.411-7.967 28.052 4.81 22.512 18.685z" fill="#c2aacf"/><path d="m400.787 88.827-8.399 20.881c-2.952-1.748-5.745-3.741-8.346-5.958l7.504-18.642c1.108-2.771-.235-5.916-2.995-7.035l-25.347-10.201c-.65-3.549-1.002-7.205-1.013-10.936-.129-.494 29.314 11.678 30.079 11.895 7.866 3.166 11.682 12.13 8.517 19.996z" fill="#f0dae2"/></g></g></g></svg>