<?xml version="1.0" encoding="iso-8859-1"?>
<!-- Generator: Adobe Illustrator 19.0.0, SVG Export Plug-In . SVG Version: 6.00 Build 0)  -->
<svg version="1.1" id="Capa_1" xmlns="http://www.w3.org/2000/svg" xmlns:xlink="http://www.w3.org/1999/xlink" x="0px" y="0px"
	 viewBox="0 0 512 512" style="enable-background:new 0 0 512 512;" xml:space="preserve">
<path style="fill:#2B6C7E;" d="M512,256c0,141.385-114.615,256-256,256S0,397.385,0,256S114.615,0,256,0S512,114.615,512,256z"/>
<path style="fill:#328093;" d="M256,0c20.398,0,40.234,2.399,59.255,6.907c34.346,31.968,55.838,77.563,55.838,128.186
	c0,96.701-78.391,175.092-175.092,175.092c-90.803,0-165.456-69.122-174.226-157.617C61.513,62.709,151.427,0,256,0z"/>
<path style="fill:#00D3B4;" d="M196,10c69.087,0,125.092,56.006,125.092,125.092S265.087,260.184,196,260.184
	S70.908,204.179,70.908,135.092S126.913,10,196,10z"/>
<path style="fill:#00B7A0;" d="M207.466,259.65c-3.777,0.346-7.599,0.534-11.466,0.534c-69.087,0-125.092-56.006-125.092-125.092
	S126.913,10,196,10c3.867,0,7.69,0.188,11.467,0.534c-63.679,5.822-113.56,59.361-113.56,124.558
	C93.908,200.289,143.788,253.828,207.466,259.65z"/>
<path style="fill:#FFF5F5;" d="M272.5,135.092c0,20.776-8.188,40.214-23.053,54.733c-14.415,14.078-33.327,21.767-53.43,21.767
	c-0.622,0-1.244-0.007-1.868-0.022c-19.849-0.469-38.524-8.597-52.588-22.886c-14.062-14.287-21.896-33.091-22.059-52.948
	c-0.199-24.145,11.214-47.241,30.529-61.781c3.339-2.514,7.73-2.92,11.463-1.058c3.704,1.848,6.005,5.571,6.005,9.717
	c0,3.402-1.604,6.635-4.292,8.649c-13.955,10.455-21.958,26.43-21.958,43.829c0,29.647,24.106,54.204,53.738,54.741
	c14.707,0.267,28.627-5.315,39.244-15.714c10.611-10.392,16.478-24.197,16.518-38.873c0.048-17.45-7.947-33.476-21.937-43.966
	c-2.701-2.026-4.313-5.266-4.313-8.665v-0.004c0-4.143,2.297-7.862,5.995-9.706c3.742-1.864,8.149-1.454,11.504,1.075
	C261.383,88.586,272.5,110.86,272.5,135.092z M196,131.592c6.341,0,11.5-5.159,11.5-11.5v-60c0-6.341-5.159-11.5-11.5-11.5
	s-11.5,5.159-11.5,11.5v60C184.5,126.434,189.659,131.592,196,131.592z"/>
<path style="fill:#FFE5C2;" d="M439.923,284.093l-16.137,56.481c-1.787,6.254-2.693,12.727-2.693,19.231v91.833
	c-18.353,15.502-38.91,28.47-61.144,38.362h-68.857V373.27l-29.089-44.686c-6.026-9.257-3.407-21.646,5.85-27.673l0,0
	c8.258-5.375,13.238-14.561,13.238-24.414V150c0-11.288,9.351-20.392,20.729-19.987c10.838,0.385,19.271,9.622,19.271,20.466V230
	l94.607,15.768c14.653,2.442,25.393,15.12,25.393,29.976l0,0C441.092,278.567,440.699,281.377,439.923,284.093z"/>
<path style="fill:#FED2A4;" d="M321.092,230l19.946,3.324c-0.024,22.017-0.057,44.292-0.097,56.711c-0.018,5.51-4.49,9.965-10,9.965
	c-5.535,0-10.018-4.496-10-10.031C321.04,259.475,321.092,170,321.092,170V230z M393.358,242.044
	c-0.023,18.974-0.052,37.139-0.087,47.925c-0.018,5.535,4.465,10.031,10,10.031c5.51,0,9.982-4.455,10-9.965
	c0.033-10.146,0.061-26.871,0.083-44.658L393.358,242.044z M287.854,300.911c8.258-5.375,13.238-14.561,13.238-24.414V150
	c0-7.382,4.012-13.809,9.962-17.274c-2.724-1.615-5.862-2.593-9.233-2.713c-11.378-0.405-20.729,8.699-20.729,19.987v126.497
	c0,9.853-4.981,19.039-13.238,24.414c-9.257,6.026-11.876,18.416-5.85,27.673l29.089,44.686V490h20V373.27l-29.089-44.686
	C275.977,319.327,278.597,306.937,287.854,300.911z M357.106,289.969c-0.018,5.535,4.465,10.031,10,10.031
	c5.51,0,9.982-4.455,10-9.965c0.037-11.286,0.067-30.71,0.09-50.684l-19.996-3.333C357.176,257.103,357.145,278.045,357.106,289.969
	z"/>
<path style="fill:#90D2E3;" d="M431.092,442v0.737c-40.062,37.579-92.213,62.415-150,68.037V442c0-5.523,4.477-10,10-10h130
	C426.615,432,431.092,436.477,431.092,442z"/>
<path style="fill:#56BED8;" d="M291.092,432h30c-5.523,0-10,4.477-10,10v64.037c-9.803,2.15-19.812,3.746-30,4.737V442
	C281.092,436.477,285.569,432,291.092,432z"/>
<path style="fill:#009DC5;" d="M321.092,465c0,8.284-6.716,15-15,15s-15-6.716-15-15s6.716-15,15-15S321.092,456.716,321.092,465z"
	/>
<g>
</g>
<g>
</g>
<g>
</g>
<g>
</g>
<g>
</g>
<g>
</g>
<g>
</g>
<g>
</g>
<g>
</g>
<g>
</g>
<g>
</g>
<g>
</g>
<g>
</g>
<g>
</g>
<g>
</g>
</svg>
