<svg id="Capa_1" enable-background="new 0 0 512 512" height="512" viewBox="0 0 512 512" width="512" xmlns="http://www.w3.org/2000/svg"><g><g><path d="m512 256c0 141.387-114.613 256-256 256s-256-114.613-256-256 114.613-256 256-256 256 114.613 256 256zm0 0" fill="#afe8fd"/><path d="m512 256c0 26.051-3.891 51.191-11.129 74.871-5.031 16.469-11.672 32.231-19.75 47.109-8.25 15.2-18 29.461-29.051 42.61-.582.691-1.16 1.379-1.75 2.058-46.941 54.704-116.59 89.352-194.32 89.352s-147.379-34.648-194.309-89.352c-.589-.687-1.179-1.378-1.75-2.07-11.062-13.137-20.812-27.398-29.05-42.598-3.289-6.031-6.332-12.21-9.121-18.531-14-31.629-21.77-66.629-21.77-103.449 0-46.219 12.25-89.57 33.68-127 44.121 77.07 127.16 129 222.32 129s178.211-51.93 222.32-129c21.43 37.43 33.68 80.781 33.68 127zm0 0" fill="#64b0fb"/><path d="m481.262 377.699c-7.16 13.223-15.434 25.742-24.723 37.43-8.437 10.633-17.719 20.57-27.719 29.723-45.539 41.699-106.211 67.148-172.82 67.148s-127.281-25.449-172.82-67.148c-10-9.153-19.282-19.09-27.719-29.723-9.289-11.688-17.563-24.207-24.723-37.43zm0 0" fill="#1394fb"/></g><g><path d="m229.46 382.234-89.034-29.673-61.628 61.618 37.097 37.091z" fill="#e79d25"/><path d="m158.839 370.971-18.413-18.41-61.628 61.618 19.579 19.575z" fill="#ffcb85"/><path d="m115.895 451.27 37.098 37.091 61.627-61.618-7.418-66.764z" fill="#e38031"/><path d="m251.689 359.949-59.356-59.346-51.937 51.928 37.098 37.091z" fill="#dff5ff"/><path d="m196.043 333.985-3.71-33.382-51.937 51.928 18.443 18.44z" fill="#fff"/><path d="m295.061 316.584-96.586-37.223-20.981 36.079 37.097 37.091z" fill="#bfebff"/><path d="m215.399 296.281-16.924-16.92-20.981 36.079 18.549 18.545z" fill="#e0f5ff"/><path d="m185.289 355.974h73.443v52.459h-73.443z" fill="#bfebff" transform="matrix(.707 -.707 .707 .707 -205.243 268.966)"/><path d="m214.591 352.531 37.097 37.09 36.085-20.977-14.97-74.315z" fill="#a6cfe7"/><path d="m243.124 324.002 44.649 44.641 142.833-188c9.47-12.458 8.26-30.203-2.815-41.276l-136.85 92.318z" fill="#002bad"/><path d="m427.791 139.367c-11.076-11.074-28.824-12.284-41.282-2.817l-188.034 142.811 44.649 44.642z" fill="#2475d1"/><path d="m427.791 139.367c-7.757-5.664-22.35-.364-34.808 9.103l-177.584 147.811 27.726 27.721z" fill="#135dd9"/></g><g fill="#fff"><path d="m331.243 92.781h-1.524c-6.754 0-12.226-5.477-12.226-12.227v-1.523h-8.715v1.523c0 6.75-5.477 12.227-12.227 12.227h-1.527v8.715h1.527c6.75 0 12.227 5.472 12.227 12.226v1.528h8.715v-1.528c0-6.754 5.472-12.226 12.226-12.226h1.524zm0 0"/><path d="m209.127 92.781h-1.524c-6.754 0-12.226-5.477-12.226-12.227v-1.523h-8.715v1.523c0 6.75-5.477 12.227-12.227 12.227h-1.527v8.715h1.527c6.75 0 12.227 5.472 12.227 12.226v1.528h8.715v-1.528c0-6.754 5.472-12.226 12.226-12.226h1.524zm0 0"/><path d="m191.018 200.264h-1.524c-6.754 0-12.226-5.477-12.226-12.227v-1.523h-8.715v1.523c0 6.75-5.477 12.227-12.227 12.227h-1.527v8.715h1.527c6.75 0 12.227 5.472 12.227 12.226v1.528h8.715v-1.528c0-6.754 5.472-12.226 12.226-12.226h1.524zm0 0"/><path d="m100.921 258.41h-1.524c-6.754 0-12.226-5.477-12.226-12.227v-1.523h-8.715v1.523c0 6.75-5.477 12.227-12.227 12.227h-1.527v8.715h1.527c6.75 0 12.227 5.472 12.227 12.226v1.528h8.715v-1.528c0-6.754 5.472-12.226 12.226-12.226h1.524zm0 0"/></g></g></svg>