<svg id="Icons" enable-background="new 0 0 512 512" height="512" viewBox="0 0 512 512" width="512" xmlns="http://www.w3.org/2000/svg"><g><circle cx="256" cy="256" fill="#f39e22" r="256"/><g><path d="m506.73 307.92c-9.86 48.287-34.216 93.392-68.95 128.32h-.01c-100.494 101.617-265.6 100.848-365.15-1.64-33.874-34.6-57.636-79.177-67.35-126.68z" fill="#d48d77"/><g fill="#c17e62"><path d="m288.65 423.76v86.18c-4.57.58-9.17 1.04-13.81 1.37v-87.55c.318-9.145 13.491-9.147 13.81 0z"/><path d="m288.65 307.92v21.26c0 3.81-3.09 6.9-6.91 6.9-3.81 0-6.9-3.09-6.9-6.9v-21.26z"/><path d="m239.242 471.872c-3.814 0-6.906-3.092-6.906-6.906v-127.551c0-3.814 3.092-6.906 6.906-6.906s6.906 3.092 6.906 6.906v127.552c0 3.813-3.092 6.905-6.906 6.905z"/><path d="m189.92 307.92v101c0 3.81-3.09 6.9-6.9 6.9-3.82 0-6.91-3.09-6.91-6.9v-101z"/><path d="m189.92 465.94v37.45c-4.66-1.24-9.26-2.61-13.81-4.11v-33.34c.318-9.141 13.489-9.15 13.81 0z"/><path d="m136.71 369.85v112.71c-4.7-2.48-9.31-5.1-13.82-7.86v-104.85c.316-9.127 13.503-9.135 13.82 0z"/><path d="m82.11 307.92v40.79c0 3.81-3.09 6.9-6.91 6.9-3.81 0-6.9-3.09-6.9-6.9v-40.79z"/><path d="m82.11 403.73v40.14c-4.77-4.42-9.38-9.02-13.81-13.8v-26.34c.279-9.121 13.536-9.12 13.81 0z"/><path d="m36.96 307.92v80.65c-5.08-8.38-9.69-17.07-13.81-26.04v-54.61z"/><path d="m313.339 471.872c-3.814 0-6.906-3.092-6.906-6.906v-127.551c0-3.814 3.092-6.906 6.906-6.906s6.906 3.092 6.906 6.906v127.552c0 3.813-3.092 6.905-6.906 6.905z"/><path d="m356.8 307.92v73.53c0 3.81-3.09 6.9-6.9 6.9-3.82 0-6.91-3.09-6.91-6.9v-73.53z"/><path d="m356.8 440.54v50.85c-4.53 1.94-9.14 3.76-13.81 5.44v-56.29c.275-9.128 13.538-9.139 13.81 0z"/><path d="m388.4 459.034c-3.814 0-6.906-3.092-6.906-6.906v-127.551c0-3.814 3.092-6.906 6.906-6.906s6.906 3.092 6.906 6.906v127.552c-.001 3.813-3.092 6.905-6.906 6.905z"/><path d="m435.73 307.92v96.74c0 3.81-3.09 6.9-6.9 6.9-3.82 0-6.91-3.09-6.91-6.9v-96.74z"/><path d="m474.94 347.79v40.94c-4.28 7.04-8.89 13.86-13.81 20.43v-61.37c.275-9.128 13.538-9.139 13.81 0z"/></g></g><g id="Laptop_4_"><g><g><path d="m363.012 223.13v126.664c0 10.394-8.423 18.816-18.809 18.816h-202.284c-10.394 0-18.817-8.423-18.817-18.816v-126.664c0-1.102.097-2.188.29-3.242 1.52-8.849 9.235-15.575 18.527-15.575h202.284c10.386.001 18.809 8.424 18.809 18.817z" fill="#a583bb"/><path d="m272.654 368.611h-130.735c-10.394 0-18.817-8.423-18.817-18.816v-126.665c0-1.102.097-2.188.29-3.242 79.41 6.163 142.826 69.386 149.262 148.723z" fill="#9175a7"/><path d="m363.012 223.13v97.14c-70.191 17.034-137.59-44.456-126.889-115.956h108.081c10.385 0 18.808 8.423 18.808 18.816z" fill="#c2aacf"/></g><g><g><path d="m441.1 432.84c-1.087 1.146-2.19 2.277-3.31 3.4-.01 0-.01 0-.01 0-4.233 4.263-8.613 8.403-13.13 12.35h-197.71c-8.38 0-20.81-4.3-27.77-9.61l-62.46-47.68-1.01-.77c-3.22-2.45-4.7-4.69-4.54-6.38v-12.2c-.01-.01-.01-.02 0-.03 0-.014 0-.065 0-.08h14.41v9.08h202.28c1.37 0 2.84.11 4.38.33 8.066 1.143 17.542 4.852 23.38 9.28 12.04 9.162 34.963 26.696 47.2 36.02.01.015 1.837 1.398 1.85 1.41 0 0 0 .01.01.01l7.86 6v-1.13z" fill="#9175a7"/><path d="m240.451 414.755c0 11.818-1.882 23.185-5.374 33.836h-8.141c-8.375 0-20.804-4.304-27.762-9.613l-63.473-48.445c-3.218-2.454-4.698-4.69-4.537-6.387v-12.308h14.408v9.083h89.505c3.491 10.65 5.374 22.017 5.374 33.834z" fill="#6c53a2"/><path d="m441.1 432.84c-1.087 1.146-2.19 2.277-3.31 3.4-.01 0-.01 0-.01 0-4.233 4.263-8.613 8.403-13.13 12.35h-107.32c-5.083-3.686-9.864-7.801-14.22-12.31h-.01c-12.384-12.733-21.608-28.529-26.49-45.61-.911-3.216-1.701-6.461-2.32-9.75h73.56c1.37 0 2.84.11 4.38.33 8.066 1.143 17.542 4.852 23.38 9.28 12.023 9.162 34.975 26.696 47.2 36.02.01.015 1.837 1.398 1.85 1.41 0 0 0 .01.01.01l7.86 6v-1.13z" fill="#a583bb"/></g><g><path d="m443.03 430.8c-1.718 1.842-3.459 3.652-5.24 5.44-.9.129-209.764-.01-210.852.04-8.378 0-20.808-4.3-27.768-9.61-14.786-11.286-47.281-36.099-62.46-47.68-1.678-1.264-3.508-2.684-4.62-4.36-.539-.812-.98-1.717-.93-2.68-.01-.01-.01-.02 0-.03.039-.654.342-1.288.85-1.72 1.211-1.104 2.964-1.359 4.6-1.53 1.145-.24 209.863.047 211.239-.06.697.01 1.423.018 2.131.091 6.78.586 13.439 2.768 19.53 5.78 3.888 1.764 8.574 5.66 11.98 8.23 0 0 12.06 9.21 12.06 9.21l1.76 1.34 43.77 33.41c1.93 1.47 3.24 2.87 3.94 4.12 0-.001 0-.001.01.009z" fill="#c2aacf"/><path d="m443.62 432.94c.002-.032-.004-.067-.003-.1h.003z" fill="#c2aacf"/><path d="m443.02 430.79c.782-1.743-45.745-35.526-47.71-37.531-.579-.446-12.81-9.771-13.82-10.549 0 0-5.88-4.49-5.88-4.49-5.591-4.137-12.291-6.777-19.01-8.45-1.272-2.181-79.651-.806-83.93-1.16.55 7.489 1.858 14.893 3.95 22.08 4.09 14.316 11.224 27.718 20.72 39.17h.01c1.816 2.231 3.755 4.348 5.75 6.42h133.42c.448.001.862-.013 1.27-.04 1.781-1.788 3.522-3.599 5.24-5.44-.01-.01-.01-.01-.01-.01z" fill="#decee5"/><path d="m240.451 414.755c0 7.369-.732 14.569-2.132 21.528h-11.383c-8.375 0-20.804-4.304-27.762-9.613l-63.473-48.445c-6.959-5.309-5.808-9.613 2.566-9.613h91.927c6.58 14.005 10.257 29.644 10.257 46.143z" fill="#a583bb"/><path d="m393.55 391.916c-31.735 11.552-105.536 5.066-107.252-23.305h61.55c8.375 0 20.804 4.304 27.762 9.613z" fill="#fff"/></g></g><g><path d="m354.967 229.462v105.957c0 9.444-7.659 17.103-17.103 17.103h-189.613c-9.444 0-17.103-7.659-17.103-17.103v-105.957c0-3.089.821-5.985 2.261-8.487 2.936-5.149 8.487-8.616 14.842-8.616h189.614c9.444 0 17.102 7.658 17.102 17.103z" fill="#2d2667"/></g><path d="m250.562 354.933h-15.006c-7.439.228-7.445 11.033 0 11.263h15.006c7.439-.228 7.445-11.033 0-11.263z" fill="#6c53a2"/><g><g><g fill="#3e4e60"><path d="m218.674 381.957h-20.804l-.322-.249-5.269-4.022c-.925-.7-.426-2.172.732-2.172h20.796l.322.249 3.902 2.977h.008l1.368 1.046c.916.699.417 2.171-.733 2.171z"/><path d="m203.115 395.77h-19.943l-.314-.241c-.008 0-.008-.008-.016-.008l-7.546-5.76c-.925-.7-.426-2.172.732-2.172h19.943l.322.249 6.186 4.714 1.368 1.046c.918.708.419 2.172-.732 2.172z"/><path d="m252.325 381.957h-20.796l-.322-.249-5.269-4.022c-.925-.7-.426-2.172.732-2.172h20.796l.322.249 3.902 2.977c.027.023 1.533 1.156 1.488 1.142.756.732.257 2.075-.853 2.075z"/><path d="m319.643 381.957h-20.796l-.322-.249-5.277-4.022c-.917-.7-.418-2.172.732-2.172h20.804l.322.249 3.902 2.977 1.368 1.046c.924.699.425 2.171-.733 2.171z"/><path d="m285.984 381.957h-20.796l-.322-.249-5.277-4.022c-.898-.671-.439-2.176.74-2.172h20.796l.322.249 3.902 2.977 1.368 1.046c.924.699.425 2.171-.733 2.171z"/><path d="m257.015 411.224h-20.796l-.29-.225c-.019.027-9.713-7.43-9.734-7.425-.917-.7-.418-2.172.74-2.172h20.796l.322.249 8.326 6.355h.008c.027.023 1.522 1.156 1.48 1.142.757.74.258 2.076-.852 2.076z"/><path d="m357.992 411.224h-20.796l-.241-.185c-.008 0-.008-.008-.016-.008-.638-.467-9.471-7.238-9.766-7.457-.925-.7-.426-2.172.732-2.172h20.795l.314.241c.008 0 .008.008.016.008l8.326 6.355 1.368 1.046c.925.708.427 2.172-.732 2.172z"/><path d="m290.674 411.224h-20.796l-.29-.225c-.019.027-9.713-7.43-9.734-7.425-.917-.7-.426-2.172.732-2.172h20.796l.314.241c.008 0 .008.008.016.008l8.326 6.355 1.368 1.046c.925.708.426 2.172-.732 2.172z"/><path d="m324.333 411.224h-20.796l-.29-.225c-.019.027-9.713-7.43-9.734-7.425-.917-.7-.426-2.172.732-2.172h20.796l.314.241c.008 0 .008.008.016.008l8.326 6.355 1.368 1.046c.925.708.426 2.172-.732 2.172z"/><path d="m185.015 381.957h-19.782c-.121-.113-.233-.225-.338-.338-.304-.28-.56-.605-.821-.917v-.008c-3.013-3.826 1.152-5.313 4.626-5.181h11.448l.314.241c.008 0 .008.008.016.008l3.902 2.977 1.368 1.046c.916.7.425 2.172-.733 2.172z"/><path d="m223.364 411.224h-7.876c-7.67-.265-15.806-3.141-22.091-7.65-.925-.7-.426-2.172.732-2.172h19.943l.322.249 8.334 6.355 1.368 1.046c.917.708.418 2.172-.732 2.172z"/><path d="m351.13 381.957h-18.623l-.314-.241c-.008 0-.008-.008-.016-.008l-5.269-4.022c-.917-.7-.426-2.172.732-2.172 2.83.058 9.141-.204 11.85.338 4.192.666 8.291 2.006 12.139 3.797 1.182.546.804 2.308-.499 2.308z"/><path d="m387.959 408.649c-.043.631-.423 1.17-.925 1.529 0 0-.008 0-.008.008-1.376.909-3.109 1.008-4.722 1.038h-11.448l-.241-.185c-.008 0-.008-.008-.016-.008-.638-.467-9.471-7.238-9.766-7.457-.925-.7-.426-2.172.732-2.172h19.943c2.328 1.84 6.687 4.593 6.451 7.247z"/><path d="m236.766 395.77h-20.796l-.322-.249-7.554-5.76c-.04-.032-.08-.064-.113-.097-.756-.732-.257-2.075.853-2.075h20.796l.322.249 6.178 4.714h.008c.027.023 1.522 1.156 1.48 1.142.757.74.259 2.076-.852 2.076z"/><path d="m337.744 395.77h-20.796l-.314-.241c-.008 0-.008-.008-.016-.008l-7.546-5.76c-.925-.7-.426-2.172.732-2.172h20.796l.314.241c.008 0 .008.008.016.008l6.178 4.714 1.368 1.046c.925.708.426 2.172-.732 2.172z"/><path d="m270.425 395.77h-20.795l-.322-.249-7.554-5.76c-.917-.7-.418-2.172.74-2.172h20.796l.322.249 6.178 4.714 1.368 1.046c.925.708.426 2.172-.733 2.172z"/><path d="m304.085 395.77h-20.796l-.322-.249-7.554-5.76c-.917-.7-.426-2.172.732-2.172h20.796l.314.241c.008 0 .008.008.016.008l6.178 4.714 1.368 1.046c.925.708.426 2.172-.732 2.172z"/><path d="m370.542 395.77h-19.935l-.314-.241c-.008 0-.008-.008-.016-.008l-7.546-5.76c-.925-.7-.426-2.172.732-2.172h19.943l.322.249 6.186 4.714 1.368 1.046c.917.708.418 2.172-.74 2.172z"/></g><g fill="#3f5d77"><path d="m218.03 378.739h-16.532c-.265 0-.523-.089-.732-.249l-3.902-2.977h16.942l.322.249z"/><path d="m202.48 392.552h-15.679c-.265 0-.523-.088-.74-.249l-6.178-4.714h16.089l.322.249z"/><path d="m251.689 378.739h-16.532c-.266 0-.523-.089-.732-.249l-3.902-2.977h16.942l.322.249z"/><path d="m319.007 378.739h-16.532c-.265 0-.523-.089-.732-.249l-3.902-2.977h16.942l.322.249z"/><path d="m285.348 378.739h-16.532c-.265 0-.523-.089-.732-.249l-3.902-2.977h16.942l.322.249z"/><path d="m256.379 408.006h-16.532c-.265 0-.523-.08-.732-.241l-8.334-6.363h16.95l.322.249z"/><path d="m357.357 408.006h-16.532c-.265 0-.523-.08-.74-.241l-8.326-6.363h16.941l.314.241c.008 0 .008.008.016.008z"/><path d="m290.038 408.006h-16.532c-.266 0-.523-.08-.732-.241l-8.334-6.363h16.942l.314.241c.008 0 .008.008.016.008z"/><path d="m323.698 408.006h-16.532c-.266 0-.523-.08-.732-.241l-8.334-6.363h16.942l.314.241c.008 0 .008.008.016.008z"/><path d="m184.379 378.739h-15.43c-1.328-.13-2.392-2.332-2.598-3.049 1.414-.348 12.118-.112 13.797-.177l.314.241c.008 0 .008.008.016.008z"/><path d="m222.728 408.006h-4.022c-6.292-.002-15.134-2.995-20.602-6.605h15.969l.322.249z"/><path d="m349.569 378.739h-13.435c-.266 0-.523-.089-.74-.249l-3.902-2.977c.855.015 4.312-.034 5.092.032 4.466.26 8.847 1.524 12.985 3.194z"/><path d="m387.886 407.829c-1.42.34-11.724.117-13.402.177-.265 0-.523-.08-.74-.241l-8.326-6.363h16.089c2.046 1.525 6.13 4.469 6.379 6.427z"/><path d="m236.131 392.552h-16.532c-.265 0-.523-.088-.732-.249l-6.186-4.714h16.95l.322.249z"/><path d="m337.108 392.552h-16.532c-.266 0-.523-.088-.74-.249l-6.178-4.714h16.942l.314.241c.008 0 .008.008.016.008z"/><path d="m269.79 392.552h-16.532c-.265 0-.523-.088-.732-.249l-6.186-4.714h16.95l.322.249z"/><path d="m303.449 392.552h-16.532c-.265 0-.523-.088-.732-.249l-6.186-4.714h16.942l.314.241c.008 0 .008.008.016.008z"/><path d="m369.914 392.552h-15.679c-.266 0-.523-.088-.74-.249l-6.178-4.714h16.089l.322.249z"/></g></g><g><path d="m351.379 429.855h-70.528c-2.816 0-6.999-1.448-9.34-3.242-2.354-1.778-8.882-6.786-11.303-8.624-2.341-1.786-1.955-3.234.861-3.234h70.528c2.816 0 6.999 1.448 9.34 3.234l11.311 8.624c1.888 1.348 2.408 3.243-.869 3.242z" fill="#3f5d77"/><path d="m351.379 429.855h-70.528c-2.816 0-6.999-1.448-9.34-3.242l-3.483-2.655c-.426-.989.362-1.657 2.285-1.657h70.52c2.824 0 7.007 1.448 9.348 3.234l3.475 2.655c.434.99-.362 1.665-2.277 1.665z" fill="#3e4e60"/></g></g><g fill="#fff"><path d="m323.407 212.359h-51.928c-5.302-.158-5.329-7.878 0-8.045h51.928c5.301.158 5.329 7.879 0 8.045z"/><path d="m420.736 426.114h-50.838c-6.706.201-6.732 9.959 0 10.169h50.838c6.706-.202 6.732-9.959 0-10.169z"/></g></g><g><path d="m294.661 282.44c0-28.5-23.104-51.603-51.603-51.603-68.451 2.718-68.431 100.499 0 103.207 28.499-.001 51.603-23.104 51.603-51.604z" fill="#6c53a2"/><path d="m283.998 282.44c0-22.611-18.33-40.94-40.94-40.94-54.307 2.156-54.291 79.733 0 81.881 22.61 0 40.94-18.33 40.94-40.941z" fill="#57409b"/><path d="m268.94 285.45c-.45.79-1.11 1.5-1.96 2.05l-30.82 19.84c-4 2.57-9.27-.3-9.27-5.06v-39.68c0-2.31 1.24-4.17 2.97-5.18 1.84-1.08 4.24-1.2 6.3.12l30.82 19.84c2.83 1.82 3.48 5.42 1.96 8.07z" fill="#f0dae2"/><path d="m268.94 285.45c-1.84 1.09-4.24 1.21-6.3-.12l-30.82-19.84c-2.83-1.82-3.48-5.43-1.96-8.07 1.84-1.08 4.24-1.2 6.3.12l30.82 19.84c2.83 1.82 3.48 5.42 1.96 8.07z" fill="#fff"/></g></g><g><g><path d="m311.798 94.251c3.254-1.461 6.933.92 6.933 4.487v33.373c0 26.896-31.882 48.703-71.194 48.703s-71.194-21.808-71.194-48.703v-33.373c0-3.567 3.679-5.948 6.933-4.487l62.247 27.942c1.281.575 2.747.575 4.029 0z" fill="#2d2667"/><g><path d="m255.175 172.401c-7.563-.138-8.689-10.919-1.202-12.541 20.548-4 36.789-14.381 43.446-27.77 1.556-3.13 5.353-4.407 8.483-2.85 3.13 1.556 4.406 5.354 2.85 8.483-8.418 17.025-29.011 30.612-53.577 34.678z" fill="#57409b"/></g></g><g><path d="m359.158 83.332-109.236 49.028c-1.517.681-3.252.681-4.769 0l-109.236-49.028c-4.585-2.058-4.585-8.567 0-10.624l109.237-49.028c1.517-.681 3.252-.681 4.769 0l109.237 49.028c4.583 2.057 4.583 8.566-.002 10.624z" fill="#57409b"/><g><path d="m320.742 82.377c-.956 0-1.927-.198-2.856-.615l-67.804-30.432c-3.52-1.58-5.093-5.714-3.513-9.234 1.579-3.52 5.714-5.091 9.234-3.513l67.803 30.432c6.842 3.148 4.579 13.325-2.864 13.362z" fill="#6c53a2"/></g></g><g><g><path d="m147.093 101.505v33.247h-11.391v-34.846c0-2.839 2.927-4.734 5.517-3.571l3.562 1.599c1.407.631 2.312 2.029 2.312 3.571z" fill="#2d2667"/></g><path d="m159.27 139.541c.067 9.639-7.914 17.911-17.871 17.871-23.71-.938-23.695-34.815 0-35.755 9.617-.123 17.945 8.04 17.871 17.884z" fill="#2d2667"/><path d="m155.131 184.093c-1.334.805-2.782 1.195-4.392 1.202h-18.681c-6.316 0-10.492-6.543-7.847-12.264l7.581-16.416c1.418-3.063 4.481-5.025 7.847-5.025h3.519c3.336.002 6.447 1.967 7.847 5.025l7.581 16.416c1.962 4.24.165 8.936-3.455 11.062z" fill="#2d2667"/><g fill="#57409b"><path d="m155.131 184.093c-1.481-.873-2.696-2.19-3.443-3.81l-7.581-16.416c-1.962-4.253-.165-8.936 3.455-11.062 1.481.873 2.696 2.19 3.443 3.81l7.581 16.416c1.962 4.24.165 8.936-3.455 11.062z"/><path d="m159.27 139.541c0 2.304-.43 4.493-1.228 6.518-6.201 3.941-14.008-.503-16.378-8.315-1.936-6.43.443-12.922 5.354-15.188 7.136 2.337 12.261 9.181 12.252 16.985z"/></g></g></g></g></svg>