<svg id="Capa_1" enable-background="new 0 0 512 512" height="512" viewBox="0 0 512 512" width="512" xmlns="http://www.w3.org/2000/svg"><g><g><g><g><g><g><g><circle cx="256" cy="256" fill="#a3d4ff" r="256"/></g></g></g></g></g></g><path d="m512 256c0-35.556-7.249-69.419-20.349-100.192l-56.651-56.65-358 247.185 165.296 165.296c4.537.239 9.107.361 13.704.361 141.385 0 256-114.615 256-256z" fill="#65b1fc"/><g><path d="m217.882 299.905h76.235v86.986h-76.235z" fill="#414952"/></g><g><path d="m256.121 299.906h37.997v86.986h-37.997z" fill="#23272b"/></g><g><path d="m77 99.157h358v247.186h-358z" fill="#636978"/></g><g><path d="m256.121 99.158h178.879v247.186h-178.879z" fill="#414952"/></g><g><path d="m109.694 130.88h292.612v183.741h-292.612z" fill="#fff"/></g><g><path d="m256.121 130.88h146.185v183.74h-146.185z" fill="#e9edf5"/></g><g><path d="m191.982 377.118h128.036v42.027h-128.036z" fill="#636978"/></g><g><path d="m256.121 377.118h63.897v42.027h-63.897z" fill="#414952"/></g><path d="m254.979 244.964v9.788c0 1.444-1.175 2.619-2.618 2.619-1.444 0-2.619-1.175-2.619-2.619v-65.764h31.812v-30h-106.955c-15.619 0-30.304 6.083-41.349 17.127l-9.397 9.397 21.213 21.214 9.397-9.397c4.38-4.38 9.936-7.157 15.955-8.038v49.521c0 7.607-2.962 14.758-8.341 20.136l-9.396 9.397 21.213 21.213 9.396-9.396c11.046-11.044 17.129-25.73 17.129-41.35v-49.823h19.324v65.764c0 17.986 14.633 32.619 32.619 32.619 17.985 0 32.618-14.633 32.618-32.619v-9.788h-30.001z" fill="#7584f2"/><g><path d="m313.667 191.404h59.294v30h-59.294z" fill="#7584f2"/></g><g><path d="m313.667 235.314h59.294v30h-59.294z" fill="#7584f2"/></g></g></svg>