<svg id="Capa_1" enable-background="new 0 0 512 512" height="512" viewBox="0 0 512 512" width="512" xmlns="http://www.w3.org/2000/svg"><circle cx="256" cy="256" fill="#ffe400" r="256"/><path d="m512 256c0 87.11-43.52 164.07-110 210.31-41.41 28.8-91.73 45.69-146 45.69s-104.59-16.89-146-45.69c-66.48-46.24-110-123.2-110-210.31 0-46.22 12.25-89.57 33.68-127 44.12 77.07 127.16 129 222.32 129s178.21-51.93 222.32-129c21.43 37.43 33.68 80.78 33.68 127z" fill="#ffce00"/><path d="m389.977 195.128-93.674 136.186-82.55 120.006-20.197 29.364-6.553-47.76-9.96-72.632 51.835-75.355 140.057-203.612c37.237 25.618 46.654 76.566 21.042 113.803z" fill="#b3f4ff"/><path d="m184.723 416.3 2.28 16.623 6.553 47.76 20.197-29.364 82.55-120.006 93.674-136.186c17.823-25.915 18.684-58.467 5.009-84.502l-170.95 248.518z" fill="#8fc8f5"/><path d="m229.44 351.29-13.74-19.98-9.36-13.6-17.76 25.82c-.05.07-.09.13-.14.19-4.47 6.27-13.14 7.73-19.49 3.34-.04-.03-.08-.06-.12-.08-43.75-30.1-103.61-19.03-133.71 24.72-1.47 2.14-2.84 4.31-4.11 6.52 5.51 10.12 11.67 19.82 18.45 29.05 8.51 11.61 17.98 22.47 28.28 32.47-4.25-11.5-3.03-24.8 4.44-35.66 12.22-17.76 36.51-22.25 54.27-10.04s22.25 36.51 10.04 54.27c-8.93 12.98-24.3 18.87-38.86 16.33 11.66 8.31 24.04 15.66 37.04 21.94 10.29 4.98 20.96 9.29 31.97 12.88 6.3-5.36 12.01-11.64 16.92-18.78l62.44-90.78z" fill="#4e689b"/><path d="m334.96 360.289-7.68 56.01-2.28 16.62-6.55 47.76-20.2-29.36-42.25-61.42-40.3-58.59-93.68-136.18c-17.82-25.92-18.68-58.47-5-84.5 5.97-11.38 14.72-21.51 26.05-29.3l112.93 164.18 27.12 39.43z" fill="#fff"/><path d="m334.96 360.289-7.68 56.01-2.28 16.62-6.55 47.76-20.2-29.36-42.25-61.42v-144.39l27.12 39.43z" fill="#d1f6ff"/><path d="m327.28 416.299-2.28 16.62-6.55 47.76-20.2-29.36-42.25-61.42-40.3-58.59-93.68-136.18c-17.82-25.92-18.68-58.47-5-84.5l138.98 202.04 31.97 46.47z" fill="#d1f6ff"/><path d="m327.28 416.299-2.28 16.62-6.55 47.76-20.2-29.36-42.25-61.42v-77.23l31.97 46.47z" fill="#8fc8f5"/><path d="m476.88 371.7c-30.1-43.75-89.96-54.82-133.71-24.72-.04.02-.08.05-.12.08-6.35 4.39-15.02 2.93-19.49-3.34-.05-.06-.09-.12-.14-.19l-17.76-25.82-23.1 33.57-26.56 38.62 42.25 61.42 20.19 29.36c4.91 7.14 10.62 13.42 16.92 18.78 11.01-3.59 21.68-7.9 31.97-12.88 13-6.28 25.38-13.63 37.04-21.94-14.56 2.54-29.93-3.35-38.86-16.33-12.21-17.76-7.72-42.06 10.04-54.27s42.05-7.72 54.27 10.04c7.47 10.86 8.69 24.16 4.44 35.66 10.3-10 19.77-20.86 28.28-32.47 6.78-9.23 12.94-18.93 18.45-29.05-1.27-2.21-2.64-4.38-4.11-6.52z" fill="#374c81"/><circle cx="256" cy="312.675" fill="#4e689b" r="20.427"/><path d="m256 292.248v40.855c11.282 0 20.427-9.146 20.427-20.427 0-11.283-9.145-20.428-20.427-20.428z" fill="#374c81"/><circle cx="256" cy="312.675" fill="#234177" r="9.002"/><path d="m256 303.673v18.004c4.972 0 9.002-4.03 9.002-9.002s-4.03-9.002-9.002-9.002z" fill="#16325b"/><path d="m114.34 358.63c-30.75 0-56.7 20.54-64.88 48.64 8.51 11.61 17.98 22.47 28.28 32.47-4.25-11.5-3.03-24.8 4.44-35.66 12.22-17.76 36.51-22.25 54.27-10.04s22.25 36.51 10.04 54.27c-8.93 12.98-24.3 18.87-38.86 16.33 11.66 8.31 24.04 15.66 37.04 21.94 22.08-11.11 37.23-33.98 37.23-60.39 0-37.31-30.25-67.56-67.56-67.56z" fill="#374c81"/><path d="m397.66 358.63c-37.31 0-67.56 30.25-67.56 67.56 0 26.41 15.15 49.28 37.23 60.39 13-6.28 25.38-13.63 37.04-21.94-14.56 2.54-29.93-3.35-38.86-16.33-12.21-17.76-7.72-42.06 10.04-54.27s42.05-7.72 54.27 10.04c7.47 10.86 8.69 24.16 4.44 35.66 10.3-10 19.77-20.86 28.28-32.47-8.18-28.1-34.13-48.64-64.88-48.64z" fill="#234177"/></svg>