<svg id="Capa_1" enable-background="new 0 0 512 512" height="512" viewBox="0 0 512 512" width="512" xmlns="http://www.w3.org/2000/svg"><g><g><path d="m256 327.736c-141.387 0-244.868-157.085-225.264-193.289 43.302-79.963 127.94-134.27 225.264-134.27 97.204 0 181.752 54.172 225.103 133.974 19.704 36.274-83.716 193.585-225.103 193.585z" fill="#576ceb"/><path d="m512 256.177c0 26.051-3.891 51.191-11.129 74.871-5.031 16.469-11.672 32.231-19.75 47.109-8.25 15.2-147.391 59.961-225.121 59.961s-216.871-44.761-225.109-59.961c-3.289-6.031-6.332-12.21-9.121-18.531-14-31.629-21.77-66.629-21.77-103.449 0-46.219 12.25-89.57 33.68-127 44.121 77.07 127.16 129 222.32 129s178.211-51.93 222.32-129c21.43 37.43 33.68 80.781 33.68 127zm0 0" fill="#6c3beb"/><path d="m481.262 377.876c-7.16 13.223-15.434 25.742-24.723 37.43-8.437 10.633-17.719 20.57-27.719 29.723-1.316 1.205-2.644 2.396-3.985 3.574-45.065 39.575-292.659 39.552-337.732-.055-1.32-1.16-2.627-2.332-3.922-3.519-10-9.153-19.282-19.09-27.719-29.723-9.289-11.688-17.563-24.207-24.723-37.43zm0 0" fill="#4d34b0"/></g><g><path d="m357.64 129.177c-10.253 0-19.701 3.442-27.254 9.232l-104.74 80.451 30.353 89.683 101.641-89.683c24.765 0 44.841-20.076 44.841-44.841s-20.076-44.842-44.841-44.842z" fill="#ff0f47"/><path d="m154.359 129.177c10.253 0 19.701 3.442 27.254 9.232l104.739 80.451-30.353 89.683-101.64-89.683c-24.765 0-44.841-20.076-44.841-44.841s20.076-44.842 44.841-44.842z" fill="#ff4f42"/><path d="m193.516 147.551-11.903-9.143c-7.554-5.79-17.002-9.232-27.254-9.232-24.765 0-44.841 20.076-44.841 44.841s20.076 44.841 44.841 44.841l39.157 34.55z" fill="#ff7369"/><path d="m255.999 511.823h13.496c59.428-3.087 113.484-26.447 155.406-63.286v-162.415h-337.804z" fill="#5ab4fc"/><path d="m87.097 448.536c41.923 36.84 95.979 60.2 155.407 63.287h13.495v-225.701h-168.902z" fill="#8defe9"/><path d="m87.097 448.536c24.455 21.49 53.039 38.385 84.412 49.35v-211.764h-84.412z" fill="#8cfff4"/><path d="m295.236 185.228c0-21.635-17.601-39.236-39.236-39.236l-39.236 95.288h78.472z" fill="#ff4f42"/><path d="m216.763 185.228v56.052h39.236v-95.288c-21.634 0-39.236 17.601-39.236 39.236z" fill="#ff7040"/><path d="m447.323 218.86h-152.087v22.421s-8.883-22.421-39.236-22.421l-67.262 44.841 67.262 44.841h191.323z" fill="#8defe9"/><path d="m64.676 218.86v89.683h191.323v-89.683c-28.221 0-39.236 33.631-39.236 33.631v-33.631z" fill="#f6fafb"/><path d="m160.338 218.86v89.683h95.662v-89.683c-14.11 0-19.618 33.631-19.618 33.631v-33.631z" fill="#cbeefe"/><path d="m149.501 286.122v181.02l44.841-44.841 44.841 44.841v-231.467c0-9.272 7.543-16.816 16.815-16.816h-39.236c-37.147.001-67.261 30.115-67.261 67.263z" fill="#ff4f42"/><path d="m193.516 222.988c-25.691 9.463-44.015 34.157-44.015 63.133v181.02l44.015-44.015z" fill="#ff7369"/><path d="m362.498 286.122v181.02l-44.842-44.842-44.841 44.841v-231.466c0-9.272-7.543-16.816-16.816-16.816h39.236c37.149.001 67.263 30.115 67.263 67.263z" fill="#ff0f47"/></g><g fill="#fff"><path d="m188.656 67.932h1.524c6.754 0 12.226 5.472 12.226 12.226v1.528h8.715v-1.528c0-6.754 5.477-12.226 12.227-12.226h1.527v-8.715h-1.527c-6.75 0-12.227-5.477-12.227-12.227v-1.523h-8.715v1.523c0 6.75-5.472 12.227-12.226 12.227h-1.524zm0-8.715"/><path d="m290.992 96.642h1.524c6.754 0 12.226 5.472 12.226 12.226v1.528h8.715v-1.528c0-6.754 5.477-12.226 12.227-12.226h1.527v-8.715h-1.527c-6.75 0-12.227-5.477-12.227-12.227v-1.523h-8.715v1.523c0 6.75-5.472 12.227-12.226 12.227h-1.524zm0-8.715"/></g></g></svg>