<svg id="Capa_1" enable-background="new 0 0 512 512" height="512" viewBox="0 0 512 512" width="512" xmlns="http://www.w3.org/2000/svg"><g><g><path d="m0 256c0 43.79 11 85.02 30.39 121.07l225.61 49.67 225.61-49.67c19.39-36.05 30.39-77.28 30.39-121.07 0-46.63-12.47-90.34-34.26-128-41.698 72.091-399.22 76.52-443.48 0-21.79 37.66-34.26 81.37-34.26 128z" fill="#bf2e70"/><path d="m34.26 128c44.26 76.52 126.99 128 221.74 128s177.48-51.48 221.74-128c-.01-.02-.03-.05-.04-.07-44.27-76.48-126.98-127.93-221.7-127.93s-177.43 51.45-221.7 127.93c-.01.02-.03.05-.04.07z" fill="#d75e91"/><path d="m30.39 377.07c14.472 26.914 33.62 50.941 56.356 70.994 6.252 5.514 25.739 1.626 32.511 6.516 11.215 8.099 10.147 24.413 22.624 30.637 34.358 17.141 73.112 26.783 114.119 26.783 40.556 0 78.908-9.431 112.984-26.219 9.128-4.497-2.208-32.178 6.266-37.691 10.507-6.836 40.638 8.234 50.004-.026 22.736-20.053 41.884-44.08 56.356-70.994z" fill="#871155"/></g><path d="m425.25 123.74v324.32c-16.6 14.65-35.12 27.17-55.13 37.16h-228.24c-20.01-9.99-38.53-22.51-55.13-37.16v-324.32c0-20.51 16.62-37.13 37.13-37.13h264.24c20.51 0 37.13 16.62 37.13 37.13z" fill="#f5dc6e"/><path d="m375.25 123.74v324.35c0 20.51-16.62 37.13-37.13 37.13h-196.24c-6.14-3.07-12.15-6.38-18-9.91v-31.48l7.25-66.76 18.15-167.12-25.4-81.95v-41.39h214.24c20.51 0 37.13 16.62 37.13 37.13z" fill="#eebf36"/><path d="m425.25 123.74v324.32c-16.6 14.65-35.12 27.17-55.13 37.16h-114.12v-398.61h132.12c20.51 0 37.13 16.62 37.13 37.13z" fill="#e7a340"/><path d="m123.88 128h264.24v315.83h-264.24z" fill="#e7eaf5"/><path d="m256 128h132.12v315.83h-132.12z" fill="#d9dced"/><path d="m300.86 75.19c-4.44-20.7-22.83-36.22-44.86-36.22-11.02 0-21.12 3.88-29.03 10.35-7.9 6.47-13.61 15.52-15.83 25.87h-55.83v74.61h201.38v-74.61zm-44.86 31.2c-11.89 0-21.54-9.65-21.54-21.54s9.65-21.54 21.54-21.54 21.54 9.65 21.54 21.54-9.65 21.54-21.54 21.54z" fill="#616679"/><path d="m356.69 75.19v74.61h-100.69v-43.41c11.89 0 21.54-9.65 21.54-21.54s-9.65-21.54-21.54-21.54v-24.34c22.03 0 40.42 15.52 44.86 36.22z" fill="#464651"/><path d="m348.57 240.83-82.57 42.63v88.36h-20v-88.36l-82.57-42.63 9.18-17.77 83.39 43.06 83.39-43.06z" fill="#616679"/><path d="m348.57 240.83-82.57 42.63v88.36h-10v-105.7l83.39-43.06z" fill="#464651"/><g><circle cx="256" cy="276.534" fill="#e28787" r="37.226"/><path d="m293.226 276.534c0 20.561-16.664 37.226-37.226 37.226v-74.451c20.561 0 37.226 16.664 37.226 37.225z" fill="#da504f"/></g><g><circle cx="168.021" cy="231.948" fill="#e28787" r="23.922"/><path d="m191.943 231.948c0 13.213-10.709 23.922-23.922 23.922v-47.844c13.213 0 23.922 10.709 23.922 23.922z" fill="#da504f"/></g><g><circle cx="343.979" cy="231.948" fill="#e28787" r="23.922"/><path d="m367.901 231.948c0 13.213-10.709 23.922-23.922 23.922v-47.844c13.213 0 23.922 10.709 23.922 23.922z" fill="#da504f"/></g><g><circle cx="256" cy="371.818" fill="#e28787" r="23.922"/><path d="m279.922 371.818c0 13.213-10.709 23.922-23.922 23.922v-47.844c13.213 0 23.922 10.709 23.922 23.922z" fill="#da504f"/></g><path d="m303.433 344.594h64.469v20h-64.469z" fill="#464651"/><path d="m303.433 376.466h64.469v20h-64.469z" fill="#464651"/><path d="m144.099 288.887h64.469v20h-64.469z" fill="#616679"/><path d="m144.099 320.759h64.469v20h-64.469z" fill="#616679"/><path d="m303.433 408.338h34.89v20h-34.89z" fill="#464651"/></g></svg>