<svg id="Layer_1" enable-background="new 0 0 512 512" height="512" viewBox="0 0 512 512" width="512" xmlns="http://www.w3.org/2000/svg"><g><path d="m160.426 476.667c32.222 15.591 68.375 24.336 106.572 24.336 98.281 0 183.03-57.878 222.064-141.401l15.444-43.272c4.888-19.3 7.494-39.51 7.494-60.33 0-135.311-109.691-245.002-245.002-245.002s-245.002 109.691-245.002 245.002c0 22.613 3.079 44.504 8.813 65.294z" fill="#1c2e7a"/><path d="m253.528 272.856h-194.47c-9.942 0-18.076 8.134-18.076 18.076v47.784l19.468 33.558h313.812v-82.619c-37.961 11.855-87.532 7.617-120.734-16.799z" fill="#e9efff"/><g><path d="m126.595 322.565c0-27.339 22.368-49.707 49.707-49.709h-117.244c-9.942 0-18.076 8.134-18.076 18.076v47.784l19.468 33.558h115.854c-27.34 0-49.709-22.369-49.709-49.709z" fill="#bec8f7"/></g><g><path d="m203.776 193.685h-167.93v58.747h195.824c-14.654-17.301-23.952-37.616-27.894-58.747z" fill="#e9efff"/></g><path d="m115.385 223.059c0-16.223 13.151-29.374 29.374-29.374h-108.913v58.747h108.913c-16.223 0-29.374-13.151-29.374-29.373z" fill="#bec8f7"/><path d="m392.716 392.19h-329.4c20.228 30.192 46.992 55.63 78.265 74.304h250.832c5.815-3.472 11.478-7.171 16.967-11.098.907-2.15 1.411-4.508 1.411-6.978v-38.152c.002-9.942-8.132-18.076-18.075-18.076z" fill="#e9efff"/><path d="m178.832 459.88c-30.361-20.273-15.794-67.69 20.714-67.69h-136.23c20.228 30.192 46.992 55.63 78.266 74.304h58.381c-7.181 0-14.234-2.049-20.224-6.011-.303-.2-.605-.401-.907-.603z" fill="#bec8f7"/><path d="m375.401 362.102h-316.343c-4.358 0-7.903-3.546-7.903-7.903v-63.267c0-4.357 3.545-7.903 7.903-7.903h206.472c5.618 0 10.173-4.555 10.173-10.173s-4.555-10.173-10.173-10.173h-206.472c-15.576 0-28.249 12.672-28.249 28.249v30.362c5.99 21.716 14.887 42.225 26.259 61.076.658.046 1.32.078 1.99.078h316.343c5.618 0 10.173-4.555 10.173-10.173s-4.555-10.173-10.173-10.173z" fill="#fc90ce"/><g><path d="m133.563 372.275c0-5.618 4.555-10.173 10.173-10.173h-84.678c-4.358 0-7.903-3.545-7.903-7.903v-63.267c0-4.357 3.545-7.903 7.903-7.903h85.686c-5.619 0-10.173-4.555-10.173-10.173s4.554-10.173 10.173-10.173h-85.686c-15.576 0-28.249 12.672-28.249 28.249v30.362c5.99 21.716 14.887 42.225 26.259 61.076.658.046 1.32.078 1.99.078h84.679c-5.619 0-10.174-4.555-10.174-10.173z" fill="#ea349c"/></g><path d="m392.717 382.018h-335.857c4.217 7.017 8.768 13.809 13.645 20.346h322.212c4.358 0 7.903 3.545 7.903 7.902v38.153c0 4.357-3.545 7.902-7.903 7.902h-266.798c10.883 7.679 22.416 14.496 34.506 20.346h213.145c16.987-8.219 32.872-18.351 47.396-30.1v-36.301c0-15.577-12.673-28.248-28.249-28.248z" fill="#4fabf7"/><g><path d="m163.382 392.191c0-5.618 4.553-10.172 10.171-10.173h-116.694c4.217 7.017 8.768 13.809 13.645 20.346h103.049c-5.617-.001-10.171-4.555-10.171-10.173z" fill="#1e9ef4"/><g><path d="m173.551 476.667c-5.617-.002-10.169-4.556-10.169-10.173 0-5.618 4.553-10.171 10.169-10.173h-47.632c10.883 7.679 22.416 14.497 34.507 20.346z" fill="#1e9ef4"/></g></g><g><path d="m221.665 114.94h-192.7c-10.335 0-18.792 8.134-18.792 18.076v22.595c0 9.942 8.457 18.076 18.792 18.076h179.74c-.575-20.083 3.748-40.269 12.96-58.747z" fill="#e9efff"/></g><path d="m104.463 144.313c0-16.221 13.148-29.371 29.369-29.374h-104.867c-10.336 0-18.792 8.134-18.792 18.076v22.595c0 9.942 8.457 18.076 18.792 18.076h104.869c-16.221-.001-29.371-13.151-29.371-29.373z" fill="#bec8f7"/><g><path d="m214.114 203.858h-180.31c-5.619 0-10.173-4.555-10.173-10.173s4.554-10.173 10.173-10.173h180.31c5.618 0 10.173 4.555 10.173 10.173s-4.554 10.173-10.173 10.173z" fill="#ff4155"/></g><path d="m113.762 193.685c0-5.618 4.555-10.173 10.173-10.173h-90.131c-5.618 0-10.173 4.555-10.173 10.173s4.555 10.173 10.173 10.173h90.131c-5.619 0-10.173-4.555-10.173-10.173z" fill="#e80054"/><g><path d="m244.503 262.606h-210.699c-5.619 0-10.173-4.555-10.173-10.173s4.554-10.173 10.173-10.173h210.699c5.618 0 10.173 4.555 10.173 10.173s-4.555 10.173-10.173 10.173z" fill="#ff4155"/></g><path d="m113.762 252.433c0-5.618 4.555-10.173 10.173-10.173h-90.131c-5.618 0-10.173 4.555-10.173 10.173s4.555 10.173 10.173 10.173h90.131c-5.619-.001-10.173-4.555-10.173-10.173z" fill="#e80054"/><g><path d="m210.082 183.86h-181.833c-15.577 0-28.249-12.673-28.249-28.249v-22.595c0-15.576 12.672-28.249 28.249-28.249h192.349c5.619 0 10.173 4.555 10.173 10.173s-4.555 10.173-10.173 10.173h-192.349c-4.357 0-7.902 3.546-7.902 7.903v22.595c0 4.357 3.545 7.903 7.902 7.903h181.834c5.618 0 10.173 4.555 10.173 10.173s-4.555 10.173-10.174 10.173z" fill="#ffdd40"/></g><path d="m102.664 173.687c0-5.618 4.554-10.173 10.173-10.173h-84.588c-4.357 0-7.902-3.546-7.902-7.903v-22.595c0-4.357 3.545-7.903 7.902-7.903h84.073c-5.619 0-10.173-4.555-10.173-10.173s4.555-10.173 10.173-10.173h-84.073c-15.577-.001-28.249 12.672-28.249 28.249v22.595c0 15.577 12.672 28.249 28.249 28.249h84.588c-5.619 0-10.173-4.555-10.173-10.173z" fill="#ffb332"/><g><circle cx="329.899" cy="171.08" fill="#9bd8f9" r="128.365"/></g><path d="m417.56 262.084c-7.624-1.896-10.033-7.925-10.794-11.581-.328-1.575-1.528-2.855-3.113-3.133-5.647-.991-7.334-5.031-7.816-7.805-.287-1.647-1.602-2.921-3.247-3.223-49.696-9.109-45.989-51.676-45.002-58.835.096-.699.005-1.405-.261-2.059l-4.51-11.11c-.497-1.225-1.565-2.138-2.857-2.419-31.283-6.814-27.577-33.722-26.581-38.814.114-.581.094-1.176-.051-1.75l-3.132-12.397c-.361-1.428-1.464-2.574-2.895-2.919-11.418-2.749-11.798-12.988-11.171-18.318.212-1.802-.837-3.479-2.504-4.195-4.996-2.144-5.308-6.386-4.752-9.45.349-1.92-.779-3.812-2.62-4.461-7.599-2.678-7.98-9.564-7.488-13.568.11-.897-.101-1.769-.544-2.504-14.186 6.233-27.476 15.152-39.092 26.768-50.13 50.13-50.13 131.406 0 181.536 49.709 49.709 130.039 50.117 180.262 1.242-.494-.468-1.112-.826-1.832-1.005z" fill="#73c3f9"/><g><g><circle cx="329.899" cy="171.08" fill="#4fabf7" r="100.614"/></g></g><path d="m364.686 206.962c-24.611-4.796-14.785-27.357-14.785-27.357-15.02-3.278-8.549-18.141-8.549-18.141l-13.19-20.073c-17.009 1.758-15.339-14.018-15.339-14.018-28.529-5.353-17.413-42.396-17.413-42.396l-7.449-5.379c-10.581 4.849-20.496 11.625-29.209 20.338-39.292 39.292-39.292 102.998 0 142.29 37.298 37.298 96.59 39.186 136.121 5.675v-10.276c-33.921-.001-30.187-30.663-30.187-30.663z" fill="#1e9ef4"/><g><path d="m441.999 283.18c3.707-3.707 8.468-5.698 13.318-6.015l-25.939-25.939c-5.339-5.339-13.995-5.339-19.334 0s-5.339 13.995 0 19.334l25.939 25.939c.317-4.851 2.309-9.612 6.016-13.319z" fill="#e9efff"/></g><path d="m469.925 281.748c-8.107-8.107-21.251-8.107-29.358 0s-8.107 21.251 0 29.358l48.496 48.496c6.438-13.776 11.639-28.245 15.444-43.272z" fill="#ff4155"/><path d="m470.455 311.717c6.733-6.734 16.696-8.233 24.894-4.545l-25.424-25.424c-8.107-8.107-21.251-8.107-29.358 0s-8.107 21.251 0 29.358l25.203 25.203c-3.516-8.139-1.966-17.942 4.685-24.592z" fill="#e80054"/><path d="m399.233 160.453c-11.575-15.187-27.011-25.37-43.759-30.54 4.491 5.725 7.179 12.928 7.179 20.752 0 18.578-15.113 33.691-33.691 33.691s-33.691-15.114-33.691-33.691c0-7.837 2.697-15.05 7.201-20.78-16.744 5.155-32.186 15.335-43.783 30.567-4.35 5.714-4.35 13.668 0 19.382 35.121 46.124 105.511 45.967 140.546 0 4.351-5.711 4.351-13.669-.002-19.381z" fill="#e9efff"/><path d="m364.68 206.961c-24.602-4.799-14.778-27.356-14.778-27.356-.929-.203-1.774-.45-2.545-.736-5.294 3.464-11.611 5.487-18.396 5.487-18.578 0-33.691-15.113-33.691-33.691 0-7.836 2.696-15.051 7.2-20.78-16.744 5.154-32.186 15.335-43.783 30.567-4.351 5.714-4.351 13.668 0 19.382 25.678 33.725 70.21 42.702 105.993 27.127z" fill="#bec8f7"/><path d="m299.149 130.984c-3.734 5.645-5.914 12.407-5.914 19.682 0 19.731 15.995 35.726 35.725 35.726 19.731 0 35.726-15.995 35.726-35.726 0-7.263-2.173-14.015-5.895-19.654-19.213-6.77-40.417-6.79-59.642-.028z" fill="#3c58a0"/><path d="m328.961 186.391c7.824 0 15.054-2.521 20.938-6.787-15.016-3.28-8.546-18.14-8.546-18.14l-13.19-20.073c-16.872 1.743-15.366-13.755-15.34-14.007-4.63.839-9.207 2.028-13.673 3.599-3.734 5.645-5.913 12.408-5.913 19.682-.002 19.731 15.993 35.726 35.724 35.726z" fill="#1c2e7a"/><ellipse cx="341.353" cy="147.095" fill="#4b6bb2" rx="14.369" ry="14.369" transform="matrix(.16 -.987 .987 .16 141.479 460.478)"/><g><g><path d="m253.383 247.596c-42.288-42.29-42.295-110.738 0-153.032 42.191-42.19 110.84-42.19 153.031 0 42.19 42.19 42.19 110.841 0 153.032-42.19 42.19-110.839 42.191-153.031 0zm-16.504-76.516c0 82.669 100.589 123.981 158.794 65.775 36.268-36.269 36.268-95.281 0-131.549-58.112-58.112-158.794-17.056-158.794 65.774z" fill="#73c3f9"/></g></g><path d="m403.653 247.37c-5.647-.991-7.334-5.031-7.816-7.805-.129-.744-.477-1.405-.962-1.942-58.321 57.048-157.995 15.751-157.995-66.544 0-41.807 25.653-72.961 58.532-86.104-.44-.621-1.046-1.133-1.784-1.449-4.996-2.144-5.308-6.386-4.752-9.45.187-1.03-.061-2.045-.606-2.871-12.693 5.271-24.58 13.052-34.886 23.358-42.295 42.295-42.288 110.743 0 153.032 41.925 41.924 109.968 42.18 152.223.788-.53-.513-1.196-.879-1.954-1.013z" fill="#4fabf7"/></g></svg>