<svg id="Capa_1" enable-background="new 0 0 512 512" height="512" viewBox="0 0 512 512" width="512" xmlns="http://www.w3.org/2000/svg"><g><g><path d="m512 256c0 141.387-114.613 256-256 256s-256-114.613-256-256 114.613-256 256-256 256 114.613 256 256zm0 0" fill="#df7cb3"/><path d="m512 256c0 26.051-3.891 51.191-11.129 74.871-5.031 16.469-11.672 32.231-19.75 47.109-8.25 15.2-147.391 51.734-225.121 51.734s-216.871-36.534-225.109-51.734c-3.289-6.031-6.332-12.21-9.121-18.531-14-31.629-21.77-66.629-21.77-103.449 0-46.219 12.25-89.57 33.68-127 44.121 77.07 127.16 129 222.32 129s178.211-51.93 222.32-129c21.43 37.43 33.68 80.781 33.68 127zm0 0" fill="#d85e91"/><path d="m481.262 377.699c-7.16 13.223-15.434 25.742-24.723 37.43-8.437 10.633-17.719 20.57-27.719 29.723-45.539 41.699-106.211 67.148-172.82 67.148s-127.281-25.449-172.82-67.148c-10-9.153-19.282-19.09-27.719-29.723-9.289-11.688-17.563-24.207-24.723-37.43zm0 0" fill="#bb1961"/></g><g><path d="m418.236 190.066c-4.227-44.383-41.707-80.046-87.177-80.046-14.99 0-29.527 3.897-42.636 11.361-9.346-10.192-20.454-18.041-32.423-24.09-15.347-7.754-32.241-12.291-50.039-12.291-58.896 0-108.218 46.292-112.921 105.029-29.809 10.311-50.54 38.714-50.54 70.942 0 41.39 34.503 75.893 75.893 75.893h137.607 137.607c41.39 0 75.893-34.503 75.893-75.893 0-32.191-21.529-60.57-51.264-70.905z" fill="#a4e2fd"/><path d="m256.579 97.598c-.135-.1-.444-.208-.579-.307-8.395-4.289-21.173-9.324-35.586-11.291-40.864 0-74.04 45.291-77.303 104.029-20.682 10.311-35.066 38.714-35.066 70.942 0 41.39 23.939 75.893 52.656 75.893h95.878z" fill="#8ab8ec"/><path d="m469.5 260.971c0-32.191-21.529-60.57-51.264-70.905-4.227-44.383-41.707-80.046-87.177-80.046-14.99 0-29.527 3.897-42.636 11.361-9.346-10.192-20.454-18.041-32.423-24.09v239.572h137.607c41.39 0 75.893-34.503 75.893-75.892z" fill="#728ee4"/><path d="m256 424.432h-87.568v50.039c0 25.924 43.98 37.529 87.568 37.529s87.568-11.606 87.568-37.529v-50.039z" fill="#dce0ef"/><path d="m343.568 474.471v-50.039h-87.568v87.568c43.589 0 87.568-11.606 87.568-37.529z" fill="#cad0e7"/><path d="m256 374.393h-87.568v50.039c0 25.924 43.98 37.529 87.568 37.529s87.568-11.606 87.568-37.529v-50.039z" fill="#fbf5eb"/><path d="m343.568 424.432v-50.039h-87.568v87.568c43.589 0 87.568-11.606 87.568-37.529z" fill="#dce0ef"/><path d="m256 324.353h-87.568v50.039c0 25.923 43.98 37.529 87.568 37.529s87.568-11.606 87.568-37.529v-50.039z" fill="#dce0ef"/><path d="m343.568 374.393v-50.039h-87.568v87.568c43.589 0 87.568-11.606 87.568-37.529z" fill="#cad0e7"/><ellipse cx="256" cy="324.353" fill="#fbf5eb" rx="87.568" ry="37.529"/><path d="m343.568 324.353c0-25.923-43.98-37.529-87.568-37.529v75.059c43.589 0 87.568-11.606 87.568-37.53z" fill="#dce0ef"/></g></g></svg>