<?xml version="1.0" encoding="iso-8859-1"?>
<!-- Generator: Adobe Illustrator 19.0.0, SVG Export Plug-In . SVG Version: 6.00 Build 0)  -->
<svg version="1.1" id="Capa_1" xmlns="http://www.w3.org/2000/svg" xmlns:xlink="http://www.w3.org/1999/xlink" x="0px" y="0px"
	 viewBox="0 0 512 512" style="enable-background:new 0 0 512 512;" xml:space="preserve">
<path style="fill:#90D2E3;" d="M256,0c141.385,0,256,114.615,256,256S397.385,512,256,512S0,397.385,0,256S114.615,0,256,0z"/>
<path style="fill:#328093;" d="M393.649,200L393.649,200v271.876C353.899,497.275,306.67,512,256,512s-97.899-14.725-137.649-40.124
	V200.001V200V32.58c0-5.523,4.477-10,10-10h22.375h210.549h22.375c5.523,0,10,4.477,10,10V200H393.649z"/>
<path style="fill:#174550;" d="M150.726,22.58h15.367c-6.445,0-11.669,5.224-11.669,11.669V180v311.038
	c-12.578-5.443-24.638-11.854-36.073-19.162V180V40.124v-5.875c0-6.445,5.224-11.669,11.669-11.669
	C130.02,22.58,150.726,22.58,150.726,22.58z M286.589,38.894c-5.631,0-10.196,4.565-10.196,10.196s4.565,10.196,10.196,10.196
	s10.196-4.565,10.196-10.196S292.22,38.894,286.589,38.894z M257.458,38.894h-33.505c-4.826,0-8.738,3.912-8.738,8.738v2.917
	c0,4.826,3.912,8.738,8.738,8.738h33.505c4.826,0,8.738-3.912,8.738-8.738v-2.917C266.196,42.806,262.284,38.894,257.458,38.894z"/>
<path style="fill:#C5D3DD;" d="M374.277,63.168v378.046c0,16.569-13.432,30-30,30H147.723c-5.523,0-10-4.477-10-10V63.168
	c0-5.523,4.477-10,10-10h40.981v10.393c0,5.523,4.477,10,10,10h114.591c5.523,0,10-4.477,10-10V53.168h40.981
	C369.799,53.168,374.277,57.646,374.277,63.168z"/>
<path style="fill:#B6C4CF;" d="M374.277,63.168v378.046c0,16.569-13.432,30-30,30h-27.723c16.568,0,30-13.431,30-30V63.168
	c0-5.523-4.477-10-10-10h27.723C369.799,53.168,374.277,57.646,374.277,63.168z"/>
<path style="fill:#8D9CA8;" d="M280,127v11c0,1.104-0.896,2-2,2H163c-1.105,0-2-0.896-2-2v-11c0-1.104,0.895-2,2-2h115
	C279.105,125,280,125.896,280,127z M349,100H163c-1.105,0-2,0.896-2,2v11c0,1.104,0.895,2,2,2h186c1.105,0,2-0.896,2-2v-11
	C351,100.896,350.105,100,349,100z"/>
<path style="fill:#FFF5F5;" d="M314.277,351.215v90c0,14.465,10.238,26.536,23.862,29.369c-1.982,0.412-4.034,0.631-6.138,0.631H112
	c-16.569,0-30-13.431-30-30v-90H314.277z"/>
<path style="fill:#FFE7BF;" d="M143.862,471.215H112c-16.569,0-30-13.431-30-30v-90h31.862v90
	C113.862,457.784,127.293,471.215,143.862,471.215z"/>
<path style="fill:#9FACBA;" d="M191,226.829v86c0,1.104-0.895,2-2,2h-26c-1.105,0-2-0.896-2-2v-86c0-1.104,0.895-2,2-2h26
	C190.105,224.829,191,225.725,191,226.829z M295.667,180h-26c-1.104,0-2,0.896-2,2v130.829c0,1.104,0.896,2,2,2h26
	c1.105,0,2-0.896,2-2V182C297.667,180.896,296.771,180,295.667,180z M349,160h-26c-1.105,0-2,0.896-2,2v150.829c0,1.104,0.895,2,2,2
	h26c1.105,0,2-0.896,2-2V162C351,160.896,350.105,160,349,160z M242.333,200h-26c-1.105,0-2,0.896-2,2v110.829c0,1.104,0.895,2,2,2
	h26c1.104,0,2-0.896,2-2V202C244.333,200.896,243.438,200,242.333,200z"/>
<path style="fill:#EA4444;" d="M259.658,327.07L149.661,437.004c-1.953,1.951-5.118,1.951-7.07-0.001l-39.663-39.663
	c-3.904-3.904-3.904-10.235,0-14.139l0.003-0.003c3.904-3.904,10.235-3.904,14.139,0l29.091,29.091l99.36-99.36
	c3.904-3.904,10.235-3.904,14.139,0l0,0C263.566,316.834,263.565,323.166,259.658,327.07z"/>
<g>
</g>
<g>
</g>
<g>
</g>
<g>
</g>
<g>
</g>
<g>
</g>
<g>
</g>
<g>
</g>
<g>
</g>
<g>
</g>
<g>
</g>
<g>
</g>
<g>
</g>
<g>
</g>
<g>
</g>
</svg>
