<svg id="Capa_1" enable-background="new 0 0 512 512" height="512" viewBox="0 0 512 512" width="512" xmlns="http://www.w3.org/2000/svg"><circle cx="256" cy="256" fill="#65b2fe" r="256"/><path d="m512 256c0 87.11-43.52 164.07-110 210.31-41.41 28.8-91.73 45.69-146 45.69s-104.59-16.89-146-45.69c-66.48-46.24-110-123.2-110-210.31 0-46.22 12.25-89.57 33.68-127 44.12 77.07 127.16 129 222.32 129s178.21-51.93 222.32-129c21.43 37.43 33.68 80.78 33.68 127z" fill="#0e9ce7"/><path d="m467.12 400.82c-43.36 63.09-114.27 105.78-195.37 110.7h-31.5c-44.72-2.71-86.33-16.91-121.94-39.67l33.35-90.58h268.95c17.49 0 33.37 6.89 45.07 18.12.34.3.67.63.98.95.16.16.32.32.46.48z" fill="#ff9f01"/><path d="m467.12 400.82c-12.48 18.16-27.25 34.63-43.88 48.98-41.15 35.56-93.74 58.22-151.49 61.72h-15.75v-130.25h164.61c1.53 0 3.16.06 4.88.18 15.55 1.15 29.59 7.76 40.19 17.94.34.3.67.63.98.95.16.16.32.32.46.48z" fill="#ed771b"/><path d="m420.61 381.27h-268.95l-33.35 90.58c15.49 9.9 32.1 18.18 49.62 24.59 16.28 5.97 33.34 10.33 50.98 12.89l37.09-10.53 146.94-41.7c8.71-2.47 16.79-6.09 24.12-10.65 12.81-11.51 24.45-24.3 34.72-38.16 1.45-2.9 2.75-5.87 3.9-8.9-11.7-11.23-27.58-18.12-45.07-18.12z" fill="#ed771b"/><path d="m467.12 400.82c-12.48 18.16-27.25 34.63-43.88 48.98-6.88 2.99-13.77 5.45-20.3 7.3l-146.94 41.7v-117.53h164.61c1.53 0 3.16.06 4.88.18 15.55 1.15 29.59 7.76 40.19 17.94.34.3.67.63.98.95.16.16.32.32.46.48z" fill="#c6601a"/><path d="m300.09 165.59c0 22.91-18.33 43.93-43.93 43.93h-.16c-33.68-.12-54.68-36.61-37.83-65.8l23.14-40.08c3.27-5.67 8.96-8.52 14.69-8.57 5.82-.06 11.67 2.8 15 8.57l23.14 40.08c4.08 7.07 5.95 14.56 5.95 21.87z" fill="#ff9f01"/><path d="m300.09 165.59c0 22.91-18.33 43.93-43.93 43.93h-.16v-114.45c5.82-.06 11.67 2.8 15 8.57l23.14 40.08c4.08 7.07 5.95 14.56 5.95 21.87z" fill="#ed771b"/><path d="m445.52 366.02c0 29.81-19.65 57.21-49.76 65.76l-139.76 39.67-88.07 24.99c-17.52-6.41-34.13-14.69-49.62-24.59-27.71-17.71-51.78-40.61-70.84-67.34 5.66-8.16 13.11-15.12 21.99-20.23 4.77-2.75 9.96-4.96 15.51-6.54l171.03-48.54 102.39-29.06c21.67-6.14 43.87-1.14 60.43 11.63 11.25 8.63 19.9 20.83 24.07 35.51 1.77 6.25 2.63 12.55 2.63 18.74z" fill="#ff9f01"/><path d="m445.52 366.02c0 29.81-19.65 57.21-49.76 65.76l-139.76 39.67v-142.25l102.39-29.06c21.67-6.14 43.87-1.14 60.43 11.63 11.25 8.63 19.9 20.83 24.07 35.51 1.77 6.25 2.63 12.55 2.63 18.74z" fill="#ed771b"/><path d="m358.39 300.14-102.39 29.06-171.03 48.54c-5.55 1.58-10.74 3.79-15.51 6.54 15.21 18.41 38.09 29.39 62.28 29.39 7.29 0 14.67-1 22.01-3.07l102.25-29.03 115.04-32.66c20.3-5.75 37.23-18.93 47.78-37.14-16.56-12.77-38.76-17.77-60.43-11.63z" fill="#ed771b"/><path d="m418.82 311.77c-10.55 18.21-27.48 31.39-47.78 37.14l-115.04 32.66v-52.37l102.39-29.06c21.67-6.14 43.87-1.14 60.43 11.63z" fill="#c6601a"/><path d="m403.41 271.33c0 23.68-15.63 45.48-39.54 52.27l-107.87 30.62-109.43 31.06c-28.9 8.2-58.97-8.58-67.16-37.47-1.41-4.97-2.09-9.97-2.09-14.88 0-21.18 12.46-40.81 32.18-49.58 2.35-1.07 4.8-1.97 7.37-2.69l139.13-39.5 78.16-22.19c15.5-4.38 31.34-1.61 43.95 6.39 10.92 6.89 19.41 17.69 23.22 31.09 1.4 4.97 2.08 9.97 2.08 14.88z" fill="#ff9f01"/><path d="m403.41 271.33c0 23.68-15.63 45.48-39.54 52.27l-107.87 30.62v-113.06l78.16-22.19c15.5-4.38 31.34-1.61 43.95 6.39 10.92 6.89 19.41 17.69 23.22 31.09 1.4 4.97 2.08 9.97 2.08 14.88z" fill="#ed771b"/><path d="m334.16 218.97-78.16 22.19-139.13 39.5c-2.57.72-5.02 1.62-7.37 2.69 5.68 8.86 13.49 16.24 22.93 21.52 9.75 5.44 20.51 8.22 31.37 8.22 5.93 0 11.88-.83 17.74-2.48l74.46-21.13 78.46-22.27c21.34-6.08 37.13-22.23 43.65-41.85-12.61-8-28.45-10.77-43.95-6.39z" fill="#ed771b"/><path d="m378.11 225.36c-6.52 19.62-22.31 35.77-43.65 41.85l-78.46 22.27v-48.32l78.16-22.19c15.5-4.38 31.34-1.61 43.95 6.39z" fill="#c6601a"/><path d="m352.76 200.09c0 18.57-15.05 33.62-33.62 33.62h-127.49c-9.29 0-17.69-3.76-23.77-9.85-6.09-6.08-9.85-14.48-9.85-23.77 0-18.57 15.05-33.62 33.62-33.62h127.49c9.28 0 17.69 3.76 23.77 9.85 6.09 6.08 9.85 14.48 9.85 23.77z" fill="#ed771b"/><path d="m352.76 200.09c0 18.57-15.05 33.62-33.62 33.62h-63.14v-67.24h63.14c9.28 0 17.69 3.76 23.77 9.85 6.09 6.08 9.85 14.48 9.85 23.77z" fill="#c6601a"/><path d="m355.11 205.08c0 16.68-10.99 32.02-27.83 36.8l-71.28 20.23-81.65 23.18c-20.33 5.77-41.49-6.04-47.26-26.37-.99-3.5-1.47-7.01-1.47-10.48 0-16.67 11-32 27.83-36.79l102.55-29.1 50.38-14.3c20.33-5.77 41.5 6.03 47.27 26.37.99 3.49 1.46 7.01 1.46 10.46z" fill="#ff9f01"/><path d="m355.11 205.08c0 16.68-10.99 32.02-27.83 36.8l-71.28 20.23v-79.56l50.38-14.3c20.33-5.77 41.5 6.03 47.27 26.37.99 3.49 1.46 7.01 1.46 10.46z" fill="#ed771b"/><circle cx="187.667" cy="266.264" fill="#fff" r="46.095"/><circle cx="187.667" cy="266.264" fill="#29334c" r="25.616"/><circle cx="324.333" cy="266.264" fill="#fff" r="46.095"/><circle cx="324.333" cy="266.264" fill="#29334c" r="25.616"/><path d="m368.85 359.73c-6.2 32.77-26.3 60.6-53.95 77.14-17.21 10.32-37.36 16.25-58.9 16.25s-41.69-5.93-58.9-16.25c-27.65-16.54-47.75-44.37-53.95-77.14-2.12-11.14 6.42-21.47 17.76-21.47h10.42l15.45 15.45h139.95l13.94-15.45h10.42c11.34 0 19.88 10.33 17.76 21.47z" fill="#313b5a"/><path d="m368.85 359.73c-6.2 32.77-26.3 60.6-53.95 77.14-17.21 10.32-37.36 16.25-58.9 16.25v-99.41h70.73l13.94-15.45h10.42c11.34 0 19.88 10.33 17.76 21.47z" fill="#29334c"/><path d="m314.905 436.873c-17.217 10.315-37.366 16.244-58.905 16.244s-41.687-5.929-58.905-16.244c9.101-23.672 32.039-40.462 58.905-40.462s49.804 16.791 58.905 40.462z" fill="#ff1d56"/><path d="m314.905 436.873c-17.217 10.315-37.366 16.244-58.905 16.244v-56.706c26.865 0 49.804 16.791 58.905 40.462z" fill="#dd1265"/><path d="m340.67 338.26v2.4c0 18.76-15.22 33.98-33.98 33.98h-101.38c-18.76 0-33.98-15.22-33.98-33.98v-2.4z" fill="#fff"/><path d="m340.67 338.26v2.4c0 18.76-15.22 33.98-33.98 33.98h-50.69v-36.38z" fill="#d1f6ff"/></svg>