<svg id="Capa_1" enable-background="new 0 0 512 512" height="512" viewBox="0 0 512 512" width="512" xmlns="http://www.w3.org/2000/svg"><g><g><path d="m0 256c0 43.79 11 85.02 30.39 121.07l225.61 49.67 225.61-49.67c19.39-36.05 30.39-77.28 30.39-121.07 0-46.63-12.47-90.34-34.26-128-41.698 72.091-399.22 76.52-443.48 0-21.79 37.66-34.26 81.37-34.26 128z" fill="#c02e71"/><path d="m34.26 128c44.26 76.52 126.99 128 221.74 128s177.48-51.48 221.74-128c-.01-.02-.03-.05-.04-.07-44.27-76.48-126.98-127.93-221.7-127.93s-177.43 51.45-221.7 127.93c-.01.02-.03.05-.04.07z" fill="#d95f91"/><path d="m30.39 377.07c43.19 80.32 128.02 134.93 225.61 134.93s182.42-54.61 225.61-134.93z" fill="#815"/></g><path d="m462.67 256c0 110.78-87.15 201.2-196.63 206.43-3.33.16-6.68.24-10.04.24-114.14 0-206.67-92.53-206.67-206.67s92.53-206.67 206.67-206.67c3.36 0 6.71.08 10.04.24 109.48 5.23 196.63 95.65 196.63 206.43z" fill="#a9eb58"/><path d="m462.67 256c0 110.78-87.15 201.2-196.63 206.43-3.33.16-6.68.24-10.04.24v-413.34c3.36 0 6.71.08 10.04.24 109.48 5.23 196.63 95.65 196.63 206.43z" fill="#79ce8b"/><circle cx="256" cy="256" fill="#c4f4ff" r="170.74"/><path d="m426.74 256c0 94.3-76.44 170.74-170.74 170.74v-341.48c94.3 0 170.74 76.44 170.74 170.74z" fill="#9febff"/><path d="m240.01 152.6h31.98v105.6h-31.98z" fill="#616579"/><path d="m256 152.6h15.99v105.6h-15.99z" fill="#464652"/><path d="m280.25 215.836h31.98v80.327h-31.98z" fill="#616579" transform="matrix(0 1 -1 0 552.24 -40.24)"/><g><g fill="#9febff"><path d="m245.01 98.62h21.98v36.98h-21.98z"/><path d="m245.01 376.4h21.98v36.98h-21.98z"/></g><g><path d="m383.896 237.51h21.98v36.98h-21.98z" fill="#70c5e9" transform="matrix(0 1 -1 0 650.886 -138.886)"/><path d="m106.124 237.51h21.98v36.98h-21.98z" fill="#9febff" transform="matrix(0 1 -1 0 373.114 138.886)"/></g><g><path d="m171.817 118.236h21.98v21.98h-21.98z" fill="#9febff" transform="matrix(.866 -.5 .5 .866 -40.122 108.717)"/><path d="m318.203 371.784h21.98v21.98h-21.98z" fill="#70c5e9" transform="matrix(.866 -.5 .5 .866 -147.284 215.879)"/></g><g><path d="m118.236 171.817h21.98v21.98h-21.98z" fill="#9febff" transform="matrix(.5 -.866 .866 .5 -93.703 203.317)"/><path d="m371.784 318.203h21.98v21.98h-21.98z" fill="#70c5e9" transform="matrix(.5 -.866 .866 .5 -93.703 496.089)"/></g><g><path d="m118.236 318.203h21.98v21.98h-21.98z" fill="#9febff" transform="matrix(-.5 -.866 .866 -.5 -91.25 605.703)"/><path d="m371.784 171.817h21.98v21.98h-21.98z" fill="#70c5e9" transform="matrix(-.5 -.866 .866 -.5 415.845 605.703)"/></g><g><path d="m171.817 371.784h21.98v21.98h-21.98z" fill="#9febff" transform="matrix(-.866 -.5 .5 -.866 149.736 805.669)"/><path d="m318.203 118.236h21.98v21.98h-21.98z" fill="#70c5e9" transform="matrix(-.866 -.5 .5 -.866 549.669 405.736)"/></g><g fill="#70c5e9"><path d="m256.08 98.62h10.91v36.98h-10.91z"/><path d="m256.08 376.4h10.91v36.98h-10.91z"/></g></g><circle cx="256" cy="256" fill="#79ce8b" r="32.31"/><path d="m288.31 256c0 17.84-14.47 32.31-32.31 32.31v-64.62c17.84 0 32.31 14.47 32.31 32.31z" fill="#599d8a"/></g></svg>