<svg id="Capa_1" enable-background="new 0 0 512 512" height="512" viewBox="0 0 512 512" width="512" xmlns="http://www.w3.org/2000/svg"><g><g><g><g><g><g><g><circle cx="256" cy="256" fill="#ff6c52" r="256"/></g></g></g></g></g></g><path d="m512 256c0-28.772-4.747-56.436-13.5-82.251l-105.509-105.509-340.158 266.085 93.951 93.951-27.775 15.484 54.74 54.74c25.815 8.753 53.479 13.5 82.251 13.5 141.385 0 256-114.615 256-256z" fill="#f92814"/><g><path d="m392.991 68.24h-273.982v375.52h209.663l64.319-64.32z" fill="#fff"/></g><g><path d="m256.12 68.24v375.52h72.552l64.319-64.32v-311.2z" fill="#e9edf5"/></g><g><path d="m190.024 215.962v-6.492c-4.058 4.869-11.902 8.115-20.288 8.115-10.009 0-22.452-6.763-22.452-21.505 0-15.825 12.443-20.964 22.452-20.964 8.656 0 16.366 2.705 20.288 7.574v-7.845c0-5.681-4.869-9.468-13.255-9.468-6.492 0-13.255 2.434-18.53 6.898l-7.439-13.12c8.386-7.169 19.612-10.144 29.621-10.144 15.689 0 30.432 5.816 30.432 26.104v40.847zm0-16.772v-5.816c-2.164-2.976-7.033-4.599-11.632-4.599-5.545 0-10.415 2.435-10.415 7.574 0 5.14 4.869 7.574 10.415 7.574 4.599.001 9.468-1.622 11.632-4.733z" fill="#555a66"/><path d="m224.382 159.02v-11.091c24.616-17.177 28.268-20.694 28.268-25.292 0-4.058-3.246-6.357-7.98-6.357-6.086 0-11.902 3.652-14.472 6.627l-7.845-9.738c6.087-6.627 15.284-9.062 22.723-9.062 13.661 0 22.993 6.357 22.993 17.312 0 7.845-5.816 14.472-21.37 25.428h21.776v12.173z" fill="#555a66"/><g fill="#333940"><g><path d="m256.12 146.847h12.354v12.173h-12.354z"/><path d="m268.069 121.419c0-7.65-4.551-13.058-11.948-15.625v33.958c8.549-7.05 11.948-12.336 11.948-18.333z"/></g><path d="m276.727 180.43v-12.443h60.729v12.443zm0 25.157v-12.443h60.729v12.443z"/></g></g><g><path d="m328.672 443.76 64.319-64.32h-64.319z" fill="#cdd2e1"/></g><g><g><path d="m307.369 267.755 62.124 33.285-62.124 33.285-9.975-33.285z" fill="#ffe89c"/></g><g><path d="m297.41 300.986-.016.054 9.975 33.285 62.124-33.285-.101-.054z" fill="#fad17f"/></g><g><path d="m337.068 283.667v34.745l32.425-17.372z" fill="#555a66"/></g><path d="m337.068 300.986v17.426l32.425-17.372z" fill="#333940"/><g><path d="m52.833 267.755h254.536v66.57h-254.536z" fill="#ffce00"/></g><g><path d="m52.833 300.986h254.536v33.339h-254.536z" fill="#fdba12"/></g><g><path d="m52.833 286.182h254.536v29.716h-254.536z" fill="#fdba12"/></g><g><path d="m52.833 300.986h254.536v14.912h-254.536z" fill="#ffa300"/></g></g></g></svg>