<svg id="Capa_1" enable-background="new 0 0 512 512" height="512" viewBox="0 0 512 512" width="512" xmlns="http://www.w3.org/2000/svg"><g><g><path d="m512 256c0 43.79-11 85.02-30.39 121.07l-225.61 49.67-225.61-49.67c-19.39-36.05-30.39-77.28-30.39-121.07 0-46.63 12.47-90.34 34.26-128 41.698 72.091 399.22 76.52 443.48 0 21.79 37.66 34.26 81.37 34.26 128z" fill="#bf2e70"/><path d="m477.74 128c-44.26 76.52-126.99 128-221.74 128s-177.48-51.48-221.74-128c.01-.02.03-.05.04-.07 44.27-76.48 126.98-127.93 221.7-127.93s177.43 51.45 221.7 127.93c.01.02.03.05.04.07z" fill="#d75e91"/><path d="m481.61 377.07c-1.61 2.99-3.27 5.94-5 8.85-14.577 24.71-55.812 24.132-77.553 42.611-17.737 15.077-14.933 50.404-36.347 60.239-32.48 14.91-68.62 23.23-106.71 23.23s-74.23-8.32-106.71-23.23c-3.501-1.607.745-9.814-2.666-11.574-1.918-.99-11.524 4.521-13.414 3.484-43.5-23.83-79.32-59.91-102.82-103.61z" fill="#871155"/></g><g><path d="m114.66 380.557v-35.409l-25.825-18.298-25.825 18.298v35.409l25.825 17.701z" fill="#f5dc6e"/><path d="m114.66 165.72-9.98-17.805-15.845-5.341-15.845 5.341-9.98 17.805 25.825 16.402z" fill="#edd7c5"/><path d="m63.01 165.72h51.65v179.428h-51.65z" fill="#8898e5"/><path d="m104.68 147.915-15.845-28.286-15.845 28.286z" fill="#616679"/><path d="m114.66 380.557v-35.409l-25.825-18.298v71.408z" fill="#eebf36"/><path d="m114.66 165.72-9.98-17.805-15.845-5.341v39.548z" fill="#deba9f"/><path d="m114.66 390.134v-9.576h-51.65v9.576c0 14.264 11.561 25.825 25.825 25.825s25.825-11.561 25.825-25.825z" fill="#d9696f"/><path d="m88.835 165.72h25.825v179.428h-25.825z" fill="#546bd9"/><path d="m114.66 390.134v-9.576h-25.825v35.401c14.264 0 25.825-11.561 25.825-25.825z" fill="#da504f"/><path d="m104.68 147.915-15.845-28.286v28.286z" fill="#464651"/></g><g><path d="m476.61 215.37v170.55c-26.47 44.87-66.24 80.96-113.9 102.85h-213.42c-5.47-2.51-10.83-5.21-16.08-8.09v-395.41h213.29z" fill="#e7eaf5"/><path d="m476.61 215.37v170.55c-26.47 44.87-66.24 80.96-113.9 102.85h-57.8v-403.5h41.59z" fill="#d9dced"/><path d="m172.91 178.95h195.88v20.24h-195.88z" fill="#616679"/><path d="m211.429 130.08h157.362v20.24h-157.362z" fill="#616679"/><path d="m304.91 130.08h63.88v20.24h-63.88z" fill="#464651"/><path d="m304.91 178.95h63.88v20.24h-63.88z" fill="#464651"/><path d="m346.5 215.37v-130.1l130.11 130.1z" fill="#c8cde3"/></g><path d="m172.915 227.829h95.222v20.24h-95.222z" fill="#616679"/><path d="m370.736 256.195-42.135-59.619 24.269-17.153 26.62 37.666 36.796-88.317 27.433 11.429-47.132 113.132z" fill="#78cd8a"/><path d="m377.02 393.67-24.95-43.2 27.83-48.21-17.32-10-27.83 48.21h-49.89l-30.71-53.21h-67.21v20h55.66l24.94 43.21-24.94 43.2h-55.66v20h55.66l30.72 53.21h72.98l30.72-53.21h55.66v-20zm-42.27 53.21h-49.89l-24.94-43.21 24.94-43.2h49.89l24.95 43.2z" fill="#616679"/><path d="m432.68 393.67v20h-55.66l-30.72 53.21h-41.39v-20h29.84l24.95-43.21-24.95-43.2h-29.84v-20h29.84l27.83-48.21 17.32 10-27.83 48.21 24.95 43.2z" fill="#464651"/><path d="m186.94 320.934h41.885v20h-41.885z" fill="#616679"/><path d="m186.94 426.74h41.885v20h-41.885z" fill="#616679"/><path d="m390.613 316.85h41.885v20h-41.885z" fill="#464651"/></g></svg>