<svg id="Capa_1" enable-background="new 0 0 512 512" height="512" viewBox="0 0 512 512" width="512" xmlns="http://www.w3.org/2000/svg"><g><g><path d="m256 312.414c-141.387 0-244.873-141.748-225.275-177.946 43.298-79.976 127.942-134.292 225.275-134.292 97.204 0 181.752 54.172 225.103 133.974 19.704 36.273-83.716 178.264-225.103 178.264z" fill="#ffeb78"/><path d="m512 256.176c0 26.051-3.891 51.191-11.129 74.871-5.031 16.469-11.672 32.231-19.75 47.109-8.25 15.2-147.391 36.777-225.121 36.777s-216.871-21.577-225.109-36.777c-3.289-6.031-6.332-12.21-9.121-18.531-14-31.629-21.77-66.629-21.77-103.449 0-46.219 12.25-89.57 33.68-127 44.121 77.07 127.16 129 222.32 129s178.211-51.93 222.32-129c21.43 37.43 33.68 80.781 33.68 127zm0 0" fill="#f2d332"/><path d="m481.262 377.875c-7.16 13.223-15.434 25.742-24.723 37.43-8.437 10.633-17.719 20.57-27.719 29.723-45.539 41.699-300.101 41.699-345.64 0-10-9.153-19.282-19.09-27.719-29.723-9.289-11.688-17.563-24.207-24.723-37.43zm0 0" fill="#e79d25"/></g><g><path d="m150.988 334.31 104.012 177.514h14.461c63.1-3.269 120.156-29.383 163.053-70.234v-61.767l-27.737-45.514 27.737-45.514v-132h-177.514z" fill="#bfebff"/><path d="m77.486 288.797 27.737 45.514-27.737 45.514v59.819c43.117 41.96 100.961 68.861 165.053 72.181h12.461v-355.028h-177.514z" fill="#dff5ff"/><path d="m77.486 288.797 13.868 45.514-13.868 45.514v59.819c25.139 24.465 55.283 43.805 88.757 56.339v-339.186h-88.757z" fill="#f0faff"/><path d="m343.757 379.824h88.757v-91.027h-88.757l-31.204 45.513z" fill="#7ed7ff"/><path d="m255 177.599-22.599 45.198 22.599 45.197c24.962 0 45.198-20.236 45.198-45.198 0-24.961-20.236-45.197-45.198-45.197z" fill="#bd4911"/><path d="m209.802 222.797c0 24.962 20.236 45.198 45.198 45.198v-90.396c-24.962 0-45.198 20.236-45.198 45.198z" fill="#d85819"/><ellipse cx="143.802" cy="222.797" fill="#e79d25" rx="45.198" ry="45.198" transform="matrix(.256 -.967 .967 .256 -108.41 304.689)"/><ellipse cx="366.198" cy="222.797" fill="#cb2e81" rx="45.198" ry="45.198" transform="matrix(.707 -.707 .707 .707 -50.284 324.197)"/><path d="m255 400.626-22.599 45.198 22.599 45.198c24.962 0 45.198-20.236 45.198-45.198s-20.236-45.198-45.198-45.198z" fill="#64b0fb"/><path d="m209.802 445.824c0 24.962 20.236 45.198 45.198 45.198v-90.396c-24.962 0-45.198 20.236-45.198 45.198z" fill="#7ad5ff"/><path d="m143.802 400.626c-24.962 0-45.198 20.236-45.198 45.198 0 4.867.778 9.55 2.202 13.942 15.785 12.051 33.009 22.309 51.376 30.467 20.956-3.931 36.818-22.312 36.818-44.41 0-24.961-20.236-45.197-45.198-45.197z" fill="#6abb5e"/><path d="m366.198 400.626c-24.962 0-45.198 20.236-45.198 45.198 0 22.595 16.581 41.316 38.238 44.663 17.529-7.735 34.03-17.37 49.232-28.659 1.885-4.976 2.926-10.367 2.926-16.004 0-24.962-20.236-45.198-45.198-45.198z" fill="#133fd9"/><path d="m343.757 288.797h-88.757l-29.463 45.513 29.463 45.514h88.757z" fill="#dff5ff"/><path d="m166.243 288.797-27.736 45.513 27.736 45.514h88.757v-91.027z" fill="#fff"/><path d="m77.486 288.797h88.757v91.027h-88.757z" fill="#bfebff"/></g></g></svg>