<svg id="Capa_1" enable-background="new 0 0 512 512" height="512" viewBox="0 0 512 512" width="512" xmlns="http://www.w3.org/2000/svg"><g><g><path d="m256 323.601c-141.387 0-243.753-157-222.327-194.427 44.119-77.069 127.157-128.998 222.327-128.998s178.208 51.929 222.328 128.999c21.425 37.427-80.941 194.426-222.328 194.426z" fill="#ff0f47"/><path d="m512 256.176c0 26.051-3.891 51.191-11.129 74.871-5.031 16.469-11.672 32.231-19.75 47.109-8.25 15.2-147.391 39.915-225.121 39.915s-216.871-24.715-225.109-39.915c-3.289-6.031-6.332-12.21-9.121-18.531-14-31.629-21.77-66.629-21.77-103.449 0-46.219 12.25-89.57 33.68-127 44.121 77.07 127.16 129 222.32 129s178.211-51.93 222.32-129c21.43 37.43 33.68 80.781 33.68 127zm0 0" fill="#ba1956"/><path d="m481.262 377.875c-5.354 9.888-11.332 19.383-17.891 28.431-2.212 3.051-140.762 57.466-207.371 57.466s-176.436-22.102-178.208-23.819c-7.963-7.718-15.43-15.95-22.331-24.648-9.289-11.688-17.563-24.207-24.723-37.43zm0 0" fill="#742466"/></g><g><path d="m365.493 244.503h-24.301v-147.431h-85.192l-48.604 110.168 48.604 110.169h109.493z" fill="#6c3beb"/><path d="m146.641 97.072v72.905h24.302v74.526h-24.302v72.906h109.359v-220.337z" fill="#576ceb"/><path d="m207.923 97.072h-61.282v72.905h24.302v74.526h-24.302v72.906h61.282z" fill="#7082eb"/><path d="m292.452 145.675h-36.452l-24.302 60.755 24.302 62.375h36.452z" fill="#576ceb"/><path d="m219.547 145.675h36.453v123.13h-36.453z" fill="#429dea"/><path d="m320.639 503.938c58.235-15.15 108.395-50.292 142.737-97.655v-15.969h-207.376z" fill="#2dceea"/><path d="m193.776 504.545 62.224-65.626h-179.256c31.983 31.376 72.16 54.42 117.032 65.626z" fill="#fbfbfb"/><path d="m118.112 471.905c28.086 17.989 59.921 30.63 94.068 36.521l43.82-69.507h-137.888z" fill="#cbeefe"/><path d="m325.125 502.724v-161.013h-69.125l-48.604 85.057 48.604 85.056h13.461c19.191-.994 37.82-4.108 55.664-9.1z" fill="#8defe9"/><path d="m186.874 502.724c17.845 4.993 36.474 8.107 55.665 9.101h13.461v-170.114h-69.126z" fill="#8bfff4"/><path d="m186.874 502.723c6.732 1.883 13.578 3.489 20.522 4.824v-165.836h-20.522z" fill="#bffff9"/></g><g fill="#fff"><path d="m81.893 327.957h1.524c6.754 0 12.226 5.472 12.226 12.226v1.528h8.715v-1.528c0-6.754 5.477-12.226 12.227-12.226h1.527v-8.715h-1.527c-6.75 0-12.227-5.477-12.227-12.227v-1.523h-8.715v1.523c0 6.75-5.472 12.227-12.226 12.227h-1.524zm0-8.715"/><path d="m48.623 238.994h1.524c6.754 0 12.226 5.472 12.226 12.226v1.528h8.715v-1.528c0-6.754 5.477-12.226 12.227-12.226h1.527v-8.715h-1.527c-6.75 0-12.227-5.477-12.227-12.227v-1.523h-8.715v1.523c0 6.75-5.472 12.227-12.226 12.227h-1.524zm0-8.715"/><path d="m71.178 150.031h1.524c6.754 0 12.226 5.472 12.226 12.226v1.528h8.715v-1.528c0-6.754 5.477-12.226 12.227-12.226h1.527v-8.715h-1.527c-6.75 0-12.227-5.477-12.227-12.227v-1.523h-8.715v1.523c0 6.75-5.472 12.227-12.226 12.227h-1.524zm0-8.715"/><path d="m427.973 319.242h-1.524c-6.754 0-12.226-5.477-12.226-12.227v-1.523h-8.715v1.523c0 6.75-5.477 12.227-12.227 12.227h-1.527v8.715h1.527c6.75 0 12.227 5.472 12.227 12.226v1.528h8.715v-1.528c0-6.754 5.472-12.226 12.226-12.226h1.524zm0 0"/><path d="m461.242 230.279h-1.524c-6.754 0-12.226-5.477-12.226-12.227v-1.523h-8.715v1.523c0 6.75-5.477 12.227-12.227 12.227h-1.527v8.715h1.527c6.75 0 12.227 5.472 12.227 12.226v1.528h8.715v-1.528c0-6.754 5.472-12.226 12.226-12.226h1.524zm0 0"/><path d="m438.688 141.316h-1.524c-6.754 0-12.226-5.477-12.226-12.227v-1.523h-8.715v1.523c0 6.75-5.477 12.227-12.227 12.227h-1.527v8.715h1.527c6.75 0 12.227 5.472 12.227 12.226v1.528h8.715v-1.528c0-6.754 5.472-12.226 12.226-12.226h1.524zm0 0"/></g></g></svg>