<svg id="Capa_1" enable-background="new 0 0 512 512" height="512" viewBox="0 0 512 512" width="512" xmlns="http://www.w3.org/2000/svg"><path d="m512 256c0 120.04-82.63 220.79-194.12 248.47h-.03l-84.36 6.55c-130.84-11.4-233.49-121.23-233.49-255.02 0-141.38 114.62-256 256-256s256 114.62 256 256z" fill="#65b2fe"/><path d="m512 256c0 87.11-43.52 164.07-110 210.31-25.13 17.48-53.54 30.57-84.12 38.16l-84.39 6.55c-45.65-3.97-87.87-19.93-123.49-44.71-66.48-46.24-110-123.2-110-210.31 0-46.22 12.25-89.57 33.68-127 44.12 77.07 127.16 129 222.32 129s178.21-51.93 222.32-129c21.43 37.43 33.68 80.78 33.68 127z" fill="#0e9ce7"/><path d="m452 316c0 105.34-83.12 191.28-187.34 195.81-.31.02-.62.03-.93.04-.87.03-1.74.06-2.6.08-1.73.05-3.44.07-5.13.07-108.24 0-196-87.76-196-196s87.76-196 196-196h.28c108.11.15 195.72 87.85 195.72 196z" fill="#ffe853"/><path d="m452 316c0 105.34-83.12 191.28-187.34 195.81-.31.02-.62.03-.93.04-.87.03-1.74.06-2.6.08-1.73.05-3.44.07-5.13.07-58.54-45.3-103.35-116.25-103.35-196s44.81-150.7 103.35-196h.28c108.11.15 195.72 87.85 195.72 196z" fill="#fed110"/><path d="m452 316c0 108.244-87.756 196-196 196v-392c108.244 0 196 87.756 196 196z" fill="#ff9f01"/><circle cx="256" cy="369.855" fill="#ed771b" r="39.145"/><path d="m295.145 369.855c0 21.615-17.531 39.145-39.145 39.145v-78.289c21.614 0 39.145 17.53 39.145 39.144z" fill="#c55835"/><circle cx="256" cy="357" fill="#29334c" r="26.289"/><circle cx="187.667" cy="266.264" fill="#fff" r="46.095"/><circle cx="187.667" cy="266.264" fill="#29334c" r="25.616"/><circle cx="324.333" cy="266.264" fill="#fff" r="46.095"/><circle cx="324.333" cy="266.264" fill="#29334c" r="25.616"/><path d="m143.971 228.952c16.242-20.451 46.793-29.91 73.514-21.32.021.007.042.014.063.02 2.001.645 3.955-1.344 2.802-2.874-4.777-6.339-11.996-11.344-21.15-13.927-21.129-5.963-45.356 3.583-55.048 21.676-2.733 5.102-4.081 10.374-4.188 15.506-.038 1.848 2.76 2.489 4.007.919z" fill="#ed771b"/><path d="m366.099 228.952c-16.242-20.451-46.793-29.91-73.514-21.32-.021.007-.042.014-.063.02-2.001.645-3.955-1.344-2.802-2.874 4.777-6.339 11.996-11.344 21.15-13.927 21.129-5.963 45.356 3.583 55.048 21.676 2.733 5.102 4.081 10.374 4.188 15.506.038 1.848-2.76 2.489-4.007.919z" fill="#c55835"/><path d="m202.569 481.32v-42.581c0-25.364 20.562-45.927 45.926-45.927h13.369v49.231c0 24.622-15.008 45.739-36.374 54.703-10.899 4.572-22.921-3.607-22.921-15.426z" fill="#d3b09a"/><path d="m317.892 405.076h-35.62v-48.651c0-14.223 8.336-26.498 20.388-32.208 7.073-3.351 15.231 1.744 15.231 9.57z" fill="#fff"/><path d="m317.892 407.099v52.098h-85.293v-40.151c0-14.489 11.745-26.234 26.234-26.234h44.772c7.89 0 14.287 6.397 14.287 14.287z" fill="#fff"/><path d="m283.206 434.067v25.13h-50.608v-39.151h36.586c7.741 0 14.022 6.281 14.022 14.021z" fill="#ebe1cf"/><path d="m317.892 442.603v52.098h-85.293v-40.151c0-14.489 11.745-26.234 26.234-26.234h44.772c7.89 0 14.287 6.397 14.287 14.287z" fill="#fff"/><path d="m283.206 469.571v25.13h-50.608v-39.151h36.586c7.741-.001 14.022 6.281 14.022 14.021z" fill="#ebe1cf"/><path d="m317.89 478.11v25.86c0 .17 0 .34-.01.5-19.81 4.92-40.54 7.53-61.88 7.53-7.59 0-15.09-.33-22.51-.98-.58-2.14-.89-4.4-.89-6.72v-14.25c0-14.48 11.74-26.23 26.23-26.23h44.77c7.89 0 14.29 6.4 14.29 14.29z" fill="#fff"/><path d="m283.21 505.07v5.5c-4.84.51-9.72.89-14.63 1.13-1.62-3.13-4.38-5.57-7.73-6.77-2.79-1-4.72-3.55-4.72-6.52v-.5c0-3.79 3.07-6.86 6.85-6.86h6.2c7.75 0 14.03 6.28 14.03 14.02z" fill="#ebe1cf"/></svg>