<?xml version="1.0" encoding="UTF-8" standalone="no"?>
<svg
   xmlns:dc="http://purl.org/dc/elements/1.1/"
   xmlns:cc="http://creativecommons.org/ns#"
   xmlns:rdf="http://www.w3.org/1999/02/22-rdf-syntax-ns#"
   xmlns:svg="http://www.w3.org/2000/svg"
   xmlns="http://www.w3.org/2000/svg"
   xmlns:sodipodi="http://sodipodi.sourceforge.net/DTD/sodipodi-0.dtd"
   xmlns:inkscape="http://www.inkscape.org/namespaces/inkscape"
   id="Capa_1"
   enable-background="new 0 0 512 512"
   height="512"
   viewBox="0 0 512 512"
   width="512"
   version="1.1"
   sodipodi:docname="041-email-a.svg"
   inkscape:version="0.92.5 (2060ec1f9f, 2020-04-08)">
  <metadata
     id="metadata43">
    <rdf:RDF>
      <cc:Work
         rdf:about="">
        <dc:format>image/svg+xml</dc:format>
        <dc:type
           rdf:resource="http://purl.org/dc/dcmitype/StillImage" />
      </cc:Work>
    </rdf:RDF>
  </metadata>
  <defs
     id="defs41" />
  <sodipodi:namedview
     pagecolor="#ffffff"
     bordercolor="#666666"
     borderopacity="1"
     objecttolerance="10"
     gridtolerance="10"
     guidetolerance="10"
     inkscape:pageopacity="0"
     inkscape:pageshadow="2"
     inkscape:window-width="640"
     inkscape:window-height="480"
     id="namedview39"
     showgrid="false"
     inkscape:zoom="0.4609375"
     inkscape:cx="256"
     inkscape:cy="256"
     inkscape:window-x="0"
     inkscape:window-y="30"
     inkscape:window-maximized="0"
     inkscape:current-layer="Capa_1" />
  <path
     d="M 441.81,230.41 V 388.1 c -11.32,11.93 -23.77,22.78 -37.19,32.35 C 362.72,450.39 311.41,468 256,468 200.59,468 149.28,450.39 107.38,420.45 93.96,410.88 81.51,400.03 70.19,388.1 V 230.41 L 256,44.43 Z"
     id="path6"
     inkscape:connector-curvature="0"
     style="fill:#ec781b" />
  <path
     d="M 441.81,230.41 V 388.1 c -11.32,11.93 -23.77,22.78 -37.19,32.35 C 362.72,450.39 311.41,468 256,468 V 44.43 Z"
     id="path8"
     inkscape:connector-curvature="0"
     style="fill:#c55733" />
  <path
     d="M 395.217,413.628 V 154.206 L 334.685,93.656 H 116.78 v 319.972 z"
     id="path10"
     inkscape:connector-curvature="0"
     style="fill:#ffffff" />
  <path
     d="M 395.217,413.628 V 154.206 l -60.532,-60.55 h -78.682 v 319.972 z"
     id="path12"
     inkscape:connector-curvature="0"
     style="fill:#d1f6ff" />
  <path
     d="M 395.218,154.207 H 334.683 V 93.655 Z"
     id="path14"
     inkscape:connector-curvature="0"
     style="fill:#00b3fe" />
  <g
     id="g22"
     transform="translate(0,-44)"
     style="fill:#4e689b">
    <path
       d="m 343.705,226.889 c 0,4.54 -1.842,8.638 -4.816,11.613 -2.965,2.965 -7.073,4.807 -11.603,4.807 H 184.72 c -9.071,0 -16.42,-7.349 -16.42,-16.42 0,-4.54 1.842,-8.638 4.807,-11.613 2.975,-2.965 7.073,-4.807 11.613,-4.807 h 142.566 c 9.061,0.001 16.419,7.349 16.419,16.42 z"
       id="path16"
       inkscape:connector-curvature="0" />
    <path
       d="m 343.705,292.578 c 0,4.531 -1.842,8.638 -4.816,11.603 -2.965,2.975 -7.073,4.816 -11.603,4.816 H 184.72 c -9.071,0 -16.42,-7.358 -16.42,-16.42 0,-4.531 1.842,-8.638 4.807,-11.613 2.975,-2.975 7.073,-4.816 11.613,-4.816 h 142.566 c 9.061,10e-4 16.419,7.359 16.419,16.43 z"
       id="path18"
       inkscape:connector-curvature="0" />
    <path
       d="m 343.705,358.257 c 0,4.531 -1.842,8.638 -4.816,11.613 -2.965,2.975 -7.073,4.807 -11.603,4.807 H 184.72 c -9.071,0 -16.42,-7.349 -16.42,-16.42 0,-4.531 1.842,-8.638 4.807,-11.613 2.975,-2.975 7.073,-4.807 11.613,-4.807 h 142.566 c 9.061,0 16.419,7.349 16.419,16.42 z"
       id="path20"
       inkscape:connector-curvature="0" />
  </g>
  <path
     d="m 343.705,314.257 c 0,4.531 -1.842,8.638 -4.816,11.613 -2.965,2.975 -7.073,4.807 -11.603,4.807 h -71.278 v -32.84 h 71.278 c 9.061,0 16.419,7.349 16.419,16.42 z"
     id="path24"
     inkscape:connector-curvature="0"
     style="fill:#374c81" />
  <path
     d="m 343.705,248.578 c 0,4.531 -1.842,8.638 -4.816,11.603 -2.965,2.975 -7.073,4.816 -11.603,4.816 h -71.278 v -32.849 h 71.278 c 9.061,0.001 16.419,7.359 16.419,16.43 z"
     id="path26"
     inkscape:connector-curvature="0"
     style="fill:#374c81" />
  <path
     d="m 327.285,199.309 h -71.278 v -32.84 h 71.278 c 9.062,0 16.42,7.349 16.42,16.42 0,4.54 -1.842,8.638 -4.816,11.613 -2.965,2.965 -7.073,4.807 -11.604,4.807 z"
     id="path28"
     inkscape:connector-curvature="0"
     style="fill:#374c81" />
  <path
     d="M 441.81,230.41 V 388.1 C 395.16,437.31 329.16,468 256,468 182.84,468 116.84,437.31 70.19,388.1 V 230.41 l 119.09,85.31 66.72,47.8 66.72,-47.8 z"
     id="path30"
     inkscape:connector-curvature="0"
     style="fill:#ffc300" />
  <path
     d="M 441.81,230.41 V 388.1 C 395.16,437.31 329.16,468 256,468 V 363.52 l 66.72,-47.8 z"
     id="path32"
     inkscape:connector-curvature="0"
     style="fill:#ff9f00" />
  <path
     d="M 404.62,420.45 C 362.72,450.39 311.41,468 256,468 200.59,468 149.28,450.39 107.38,420.45 l 81.9,-104.73 66.72,47.8 66.72,-47.8 z"
     id="path34"
     inkscape:connector-curvature="0"
     style="fill:#ff9f00" />
  <path
     d="M 404.62,420.45 C 362.72,450.39 311.41,468 256,468 V 363.52 l 66.72,-47.8 z"
     id="path36"
     inkscape:connector-curvature="0"
     style="fill:#ec781b" />
</svg>
