<svg id="Capa_1" enable-background="new 0 0 512 512" height="512" viewBox="0 0 512 512" width="512" xmlns="http://www.w3.org/2000/svg"><g><g><path d="m0 256c0 43.79 11 85.02 30.39 121.07l225.61 49.67 225.61-49.67c19.39-36.05 30.39-77.28 30.39-121.07 0-46.63-12.47-90.34-34.26-128-41.698 72.091-399.22 76.52-443.48 0-21.79 37.66-34.26 81.37-34.26 128z" fill="#eec036"/><path d="m34.26 128c44.26 76.52 126.99 128 221.74 128s177.48-51.48 221.74-128c-.01-.02-.03-.05-.04-.07-44.27-76.48-126.98-127.93-221.7-127.93s-177.43 51.45-221.7 127.93c-.01.02-.03.05-.04.07z" fill="#f5dd6e"/><path d="m30.39 377.07c3.712 6.902 7.731 13.615 12.039 20.12 14.69 22.178 42.801 41.936 63.49 58.546 21.783 17.489 36.431 31.488 63.21 41.148 27.123 9.783 56.374 15.116 86.871 15.116 32.097 0 62.814-5.907 91.122-16.694 21.985-8.377 42.518-28.458 61.117-42.239 23.156-17.157 43.315-29.366 59.548-53.222 4.987-7.328 9.603-14.929 13.822-22.775z" fill="#de8051"/></g><g><g><path d="m343.221 184.083-105.942 255.767c-20.578-37.072-2.485-88.021-43.496-105.009l105.942-255.767c41.008 16.986 60.482 64 43.496 105.009z" fill="#c9cee4"/><path d="m241.87 377.07c-7.48-29.76-28.45-55.74-58.91-68.36-12.52-5.19-25.51-7.64-38.28-7.64h-.13c-39.36.05-76.77 23.39-92.74 61.96-1.92 4.63-3.46 9.32-4.65 14.04-1.89 7.55-2.86 15.17-2.97 22.73 25.16 37.01 59.77 67.07 100.36 86.73 8.9 4.31 18.08 8.12 27.52 11.39 28.43-8.14 53.04-28.68 65.21-58.07 8.56-20.67 9.68-42.59 4.59-62.78zm-41.55 47.48c-9.61 23.19-32.1 37.24-55.77 37.27-7.72.01-15.55-1.47-23.11-4.6-30.76-12.74-45.41-48.13-32.67-78.88.18-.43.36-.85.55-1.27 9.89-22.44 31.99-35.97 55.23-36 7.71-.01 15.54 1.46 23.1 4.59 14.91 6.18 26.05 17.69 32.1 31.41 6.43 14.57 7.13 31.64.57 47.48z" fill="#9965d8"/><path d="m237.28 439.85c-12.17 29.39-36.78 49.93-65.21 58.07-9.44-3.27-18.62-7.08-27.52-11.39v-24.71c23.67-.03 46.16-14.08 55.77-37.27 6.56-15.84 5.86-32.91-.57-47.48-6.05-13.72-17.19-25.23-32.1-31.41-7.56-3.13-15.39-4.6-23.1-4.59v-40h.13c12.77 0 25.76 2.45 38.28 7.64 30.46 12.62 51.43 38.6 58.91 68.36 5.09 20.19 3.97 42.11-4.59 62.78z" fill="#5541b6"/></g><g><path d="m318.22 330.45c-41.01 16.99-22.92 67.94-43.5 105.01l-18.5-44.66-87.44-211.11c-16.99-41.01 2.49-88.02 43.49-105.01h.01l43.94 106.08z" fill="#e9ecf8"/><path d="m318.22 330.45c-41.01 16.99-22.92 67.94-43.5 105.01l-18.5-44.66v-210.04z" fill="#dbdeee"/><path d="m465.83 377.07c-1.26-6.2-3.13-12.37-5.64-18.43-15.97-38.58-53.37-61.91-92.74-61.96-12.82-.02-25.85 2.44-38.41 7.64-31.95 13.23-53.46 41.18-59.92 72.75-3.88 18.95-2.34 39.21 5.6 58.39 13.18 31.83 40.97 53.29 72.4 59.84 6.93-2.64 13.71-5.57 20.33-8.78 40.58-19.65 75.18-49.7 100.33-86.68.23-7.55-.4-15.18-1.95-22.77zm-75.27 75.76c-7.56 3.13-15.4 4.61-23.11 4.6-23.68-.04-46.16-14.08-55.77-37.28-5.91-14.27-5.92-29.54-1.16-43.08 5.49-15.64 17.35-28.97 33.83-35.8 7.56-3.13 15.39-4.61 23.1-4.6 23.68.03 46.17 14.08 55.78 37.28.43 1.03.83 2.07 1.19 3.12 10.55 29.98-4.13 63.45-33.86 75.76z" fill="#9965d8"/><path d="m467.78 399.84c-25.15 36.98-59.75 67.03-100.33 86.68v-29.09c7.71.01 15.55-1.47 23.11-4.6 29.73-12.31 44.41-45.78 33.86-75.76-.36-1.05-.76-2.09-1.19-3.12-9.61-23.2-32.1-37.25-55.78-37.28v-39.99c39.37.05 76.77 23.38 92.74 61.96 2.51 6.06 4.38 12.23 5.64 18.43 1.55 7.59 2.18 15.22 1.95 22.77z" fill="#5541b6"/></g></g><path d="m278.28 262.35c0 12.31-9.97 22.29-22.28 22.29s-22.28-9.98-22.28-22.29c0-12.3 9.97-22.28 22.28-22.28s22.28 9.98 22.28 22.28z" fill="#dbdeee"/><path d="m278.28 262.35c0 12.31-9.97 22.29-22.28 22.29v-44.57c12.31 0 22.28 9.98 22.28 22.28z" fill="#c9cee4"/></g></svg>