<svg id="Capa_1" enable-background="new 0 0 512 512" height="512" viewBox="0 0 512 512" width="512" xmlns="http://www.w3.org/2000/svg"><g><g><path d="m256 303.065c-141.387 0-243.753-136.639-222.327-174.066 44.119-77.07 127.157-128.999 222.327-128.999s178.209 51.929 222.328 128.999c21.425 37.427-80.941 174.066-222.328 174.066z" fill="#f3d37a"/><path d="m512 256c0 26.051-3.891 51.191-11.129 74.871-5.031 16.469-11.672 32.231-19.75 47.109-8.25 15.2-147.391 53.533-225.121 53.533s-216.871-38.333-225.109-53.533c-3.289-6.031-6.332-12.21-9.121-18.531-14-31.629-21.77-66.629-21.77-103.449 0-46.219 12.25-89.57 33.68-127 44.121 77.07 127.16 129 222.32 129s178.211-51.93 222.32-129c21.43 37.43 33.68 80.781 33.68 127zm0 0" fill="#efc142"/><path d="m481.262 377.699c-7.16 13.223-15.434 25.742-24.723 37.43-2.286 2.881-4.634 5.711-7.042 8.488-6.478 7.472-38.385 36.38-47.984 43.024-6.708 4.643-13.648 8.974-20.8 12.972-11.453 6.402-71.636 27.608-90.607 30.134-11.157 1.486-22.542 2.253-34.106 2.253-66.609 0-127.281-25.449-172.82-67.148-10-9.153-19.282-19.09-27.719-29.723-9.289-11.688-17.563-24.207-24.723-37.43zm0 0" fill="#e38d22"/></g><g><path d="m312.689 500.662h18.862c17.239-5.317 33.693-12.416 49.165-21.064v-24.288h-68.027z" fill="#dce0ef"/><path d="m346.703 495.447c11.778-4.464 23.14-9.77 34.014-15.849v-24.288h-34.014z" fill="#cad0e7"/><path d="m449.5 329.838h-204.838v136.811h156.824c17.761-12.29 33.902-26.754 48.014-43.031z" fill="#535564"/><path d="m449.5 329.838h-102.797v136.811h54.783c17.761-12.29 33.902-26.754 48.014-43.031z" fill="#3b3b3b"/><path d="m380.717 216.459v90.703h-22.676v-68.027h-29.251l11.338 11.338-16.101 16.099-38.776-38.775 38.776-38.776 16.101 16.1-11.338 11.338z" fill="#8ab8ec"/><path d="m226.749 432.635-38.776 38.774-16.101-16.099 11.338-11.337h-51.927v-91.459h22.676v68.783h29.251l-11.338-11.338 16.101-16.1z" fill="#8ab8ec"/><path d="m142.621 250.473h-80.121v45.351c0 23.495 40.616 34.014 80.121 34.014s79.365-10.519 79.365-34.014v-45.351z" fill="#dce0ef"/><path d="m221.986 295.824v-45.351h-79.365v79.365c39.506 0 79.365-10.519 79.365-34.014z" fill="#cad0e7"/><path d="m142.621 205.121h-80.121v45.352c0 23.495 40.616 34.014 80.121 34.014s79.365-10.518 79.365-34.014v-45.352z" fill="#fbf5eb"/><path d="m221.986 250.473v-45.352h-79.365v79.365c39.506 0 79.365-10.518 79.365-34.013z" fill="#dce0ef"/><path d="m142.621 159.77h-80.121v45.352c0 23.495 40.616 34.014 80.121 34.014s79.365-10.519 79.365-34.014v-45.352z" fill="#dce0ef"/><path d="m221.986 205.121v-45.351h-79.365v79.365c39.506 0 79.365-10.519 79.365-34.014z" fill="#cad0e7"/><path d="m142.621 125c-39.506 0-80.121 11.274-80.121 34.77 0 23.495 40.616 34.014 80.121 34.014s79.365-10.519 79.365-34.014c0-23.496-39.859-34.77-79.365-34.77z" fill="#fbf5eb"/><path d="m221.986 159.77c0-23.495-39.86-34.77-79.365-34.77v68.783c39.506 0 79.365-10.518 79.365-34.013z" fill="#dce0ef"/><path d="m358.041 239.135h-11.338v-22.676h34.014v90.703h-22.676z" fill="#728ee4"/><path d="m267.338 352.514v91.459h159.486v-91.459z" fill="#a4e2fd"/><path d="m303.678 352.514v91.459h123.146v-91.459z" fill="#8ab8ec"/><path d="m346.703 352.514h80.121v91.459h-80.121z" fill="#728ee4"/><path d="m290.014 489.324v20.422c25.161-3.341 49.172-10.324 71.473-20.422z" fill="#fbf5eb"/><path d="m346.703 489.324v6.123c5.002-1.896 9.937-3.928 14.784-6.123z" fill="#dce0ef"/><path d="m226.749 432.635-38.776 38.774-16.101-16.099 11.338-11.337h-40.589v-91.459h11.338v68.783h29.251l-11.338-11.338 16.101-16.1z" fill="#728ee4"/></g><g fill="#fff"><path d="m263.757 59.031h-1.524c-6.754 0-12.226-5.477-12.226-12.227v-1.523h-8.715v1.523c0 6.75-5.477 12.227-12.227 12.227h-1.527v8.715h1.527c6.75 0 12.227 5.472 12.227 12.226v1.528h8.715v-1.528c0-6.754 5.472-12.226 12.226-12.226h1.524zm0 0"/><path d="m365.191 119.195h-1.524c-6.754 0-12.226-5.477-12.226-12.227v-1.523h-8.715v1.523c0 6.75-5.477 12.227-12.227 12.227h-1.527v8.715h1.527c6.75 0 12.227 5.472 12.227 12.226v1.528h8.715v-1.528c0-6.754 5.472-12.226 12.226-12.226h1.524zm0 0"/></g></g></svg>