<svg id="Capa_1" enable-background="new 0 0 512 512" height="512" viewBox="0 0 512 512" width="512" xmlns="http://www.w3.org/2000/svg"><g><g><path d="m512 256c0 43.79-11 85.02-30.39 121.07l-225.61 49.67-225.61-49.67c-19.39-36.05-30.39-77.28-30.39-121.07 0-46.63 12.47-90.34 34.26-128 41.698 72.091 399.22 76.52 443.48 0 21.79 37.66 34.26 81.37 34.26 128z" fill="#da504f"/><path d="m477.74 128c-44.26 76.52-126.99 128-221.74 128s-177.48-51.48-221.74-128c.01-.02.03-.05.04-.07 44.27-76.48 126.98-127.93 221.7-127.93s177.43 51.45 221.7 127.93c.01.02.03.05.04.07z" fill="#e28787"/><path d="m481.61 377.07c-43.19 80.32-128.02 134.93-225.61 134.93s-182.42-54.61-225.61-134.93z" fill="#c12339"/></g><g><path d="m438.17 336.05c-7.64-4.41-17.43-1.79-21.85 5.86-8.05 13.94-32.82 19.98-66.24 16.17-28.67-3.27-61.15-13.13-94.08-28.37-11.89-5.49-23.85-11.69-35.7-18.53-44.67-25.79-82.13-57.37-105.5-88.94-20.02-27.04-27.17-51.51-19.12-65.45 4.42-7.65 1.8-17.44-5.86-21.86-2.51-1.45-5.27-2.14-7.98-2.14-5.53 0-10.91 2.87-13.87 8-15.06 26.08-7.56 61.77 21.11 100.49 25.92 35.02 66.84 69.68 115.22 97.61 17.11 9.88 34.48 18.53 51.7 25.8 31.48 13.3 62.47 21.99 90.45 25.18 47.87 5.47 82.53-5.88 97.58-31.96 4.42-7.65 1.8-17.44-5.86-21.86z" fill="#616679"/><path d="m416.32 341.91c-8.05 13.94-32.82 19.98-66.24 16.17-28.67-3.27-61.15-13.13-94.08-28.37v34.98c31.48 13.3 62.47 21.99 90.45 25.18 47.87 5.47 82.53-5.88 97.58-31.96" fill="#2d3041"/><path d="m256 32.23c-30.111 0-57.27 24.338-76.474 68.53-17.362 39.954-26.924 92.724-26.924 148.59s9.562 108.636 26.924 148.59c19.204 44.192 46.363 68.53 76.474 68.53 8.837 0 16-7.164 16-16s-7.163-16-16-16c-16.098 0-33.715-18.424-47.125-49.284-15.652-36.019-24.272-84.26-24.272-135.836s8.62-99.817 24.272-135.836c13.41-30.86 31.027-49.284 47.125-49.284 8.837 0 16-7.164 16-16s-7.163-16-16-16z" fill="#8898e5"/><path d="m444.03 140.79c-2.96-5.13-8.34-8-13.87-8-2.71 0-5.47.69-7.99 2.14-7.65 4.42-10.27 14.21-5.85 21.86 8.05 13.94.9 38.41-19.12 65.45-23.37 31.57-60.83 63.15-105.5 88.94-11.85 6.84-23.81 13.04-35.7 18.53-32.93 15.24-65.41 25.1-94.08 28.37-33.42 3.81-58.19-2.23-66.24-16.17-4.42-7.65-14.2-10.27-21.86-5.86-7.65 4.42-10.27 14.21-5.85 21.86 15.05 26.08 49.71 37.43 97.58 31.96 27.98-3.19 58.97-11.88 90.45-25.18 17.22-7.27 34.59-15.92 51.7-25.8 48.38-27.93 89.3-62.59 115.22-97.61 28.67-38.72 36.17-74.41 21.11-100.49z" fill="#a8ea58"/><path d="m416.32 156.79c8.05 13.94.9 38.41-19.12 65.45-23.37 31.57-60.83 63.15-105.5 88.94-11.85 6.84-23.81 13.04-35.7 18.53v34.98c17.22-7.27 34.59-15.92 51.7-25.8 48.38-27.93 89.3-62.59 115.22-97.61 28.67-38.72 36.17-74.41 21.11-100.49" fill="#78cd8a"/><path d="m450.827 338.668c3.748-23.256-5.768-51.348-27.907-81.248-25.92-35.02-66.84-69.68-115.22-97.61-17.11-9.88-34.48-18.53-51.7-25.8-31.48-13.3-62.47-21.99-90.45-25.18-7.85-.9-15.36-1.34-22.48-1.34-36.24 0-62.52 11.5-75.1 33.3-4.42 7.65-1.8 17.44 5.85 21.86 7.66 4.41 17.44 1.79 21.86-5.86 8.05-13.94 32.82-19.99 66.24-16.17 28.67 3.27 61.15 13.13 94.08 28.37 11.89 5.49 23.85 11.69 35.7 18.53 44.67 25.79 82.13 57.37 105.5 88.94 15.015 20.28 22.791 39.115 22.344 53.145" fill="#616679"/><path d="m444.03 357.91c15.06-26.08 7.56-61.77-21.11-100.49-25.92-35.02-66.84-69.68-115.22-97.61-17.11-9.88-34.48-18.53-51.7-25.8v34.98c11.89 5.49 23.85 11.69 35.7 18.53 44.67 25.79 82.13 57.37 105.5 88.94 20.02 27.04 27.17 51.51 19.12 65.45l6.656 14.617z" fill="#2d3041"/><path d="m418.473 117.429c-13.193-6.562-29.906-9.939-49.543-9.939-7.12 0-14.62.44-22.48 1.34-27.98 3.19-58.97 11.88-90.45 25.18-17.22 7.27-34.59 15.92-51.7 25.8-48.38 27.93-89.3 62.59-115.22 97.61-28.67 38.72-36.17 74.41-21.11 100.49 4.42 7.65 14.2 10.28 21.85 5.86 7.66-4.42 10.28-14.21 5.86-21.86-8.05-13.94-.9-38.41 19.12-65.45 23.37-31.57 60.83-63.15 105.5-88.94 11.85-6.84 23.81-13.04 35.7-18.53 32.93-15.24 65.41-25.1 94.08-28.37 22.507-2.566 41.09-.664 53.286 5.109z" fill="#a8ea58"/><path d="m444.03 140.79c-12.58-21.8-38.86-33.3-75.1-33.3-7.12 0-14.62.44-22.48 1.34-27.98 3.19-58.97 11.88-90.45 25.18v34.98c32.93-15.24 65.41-25.1 94.08-28.37 33.42-3.81 58.19 2.23 66.24 16.17l15.042 7.368z" fill="#78cd8a"/><path d="m359.4 249.35c0-55.87-9.56-108.64-26.93-148.59-19.2-44.19-46.36-68.53-76.47-68.53v32c16.1 0 33.71 18.42 47.12 49.28 15.66 36.02 24.28 84.26 24.28 135.84s-8.62 99.82-24.28 135.84c-13.41 30.86-31.02 49.28-47.12 49.28v32c30.11 0 57.27-24.34 76.47-68.53 17.37-39.95 26.93-92.72 26.93-148.59z" fill="#546bd9"/></g><g><circle cx="256" cy="256" fill="#f5dc6e" r="44.07"/><path d="m300.07 256c0 24.342-19.728 44.07-44.07 44.07v-88.14c24.342 0 44.07 19.728 44.07 44.07z" fill="#eebf36"/></g></g></svg>