<svg id="Capa_1" enable-background="new 0 0 512 512" height="512" viewBox="0 0 512 512" width="512" xmlns="http://www.w3.org/2000/svg"><g><g><path d="m256 311.364c-141.387 0-244.868-140.714-225.263-176.918 43.301-79.964 127.939-134.27 225.263-134.27 97.204 0 181.752 54.172 225.103 133.974 19.704 36.273-83.716 177.214-225.103 177.214z" fill="#ffd89d"/><path d="m512 256.176c0 26.051-3.891 51.191-11.129 74.871-5.031 16.469-11.672 32.231-19.75 47.109-8.25 15.2-147.391 48.836-225.121 48.836s-216.871-33.636-225.109-48.836c-3.289-6.031-6.332-12.21-9.121-18.531-14-31.629-21.77-66.629-21.77-103.449 0-46.219 12.25-89.57 33.68-127 44.121 77.07 127.16 129 222.32 129s178.211-51.93 222.32-129c21.43 37.43 33.68 80.781 33.68 127zm0 0" fill="#ffa688"/><path d="m481.262 377.875c-7.16 13.223-15.434 25.742-24.723 37.43-8.437 10.633-17.719 20.57-27.719 29.723-3.481 3.187-7.05 6.279-10.703 9.273-44.145 36.168-280.749 35.913-325.007-.636-3.384-2.795-6.695-5.674-9.93-8.636-10-9.153-19.282-19.09-27.719-29.723-9.289-11.688-17.563-24.207-24.723-37.43h450.524zm0 0" fill="#ff7472"/></g><g><path d="m115.033 469.881c9.518 6.291 19.472 11.976 29.822 16.972h222.291c18.713-9.033 36.158-20.277 51.999-33.391v-91.464h-163.146z" fill="#742466"/><path d="m92.855 453.461c15.841 13.114 33.286 24.359 52 33.392h111.145v-124.855h-163.145z" fill="#ba1956"/><path d="m92.855 453.461c15.841 13.114 33.286 24.359 52 33.392h29.572v-124.855h-81.572z" fill="#d13f76"/><path d="m408.397 461.882h-152.398l-49.942 24.971 49.942 24.971h13.461c51.911-2.689 99.725-20.845 138.937-49.942z" fill="#576ceb"/><path d="m242.539 511.824h13.46v-49.942h-152.395c39.211 29.097 87.025 47.253 138.935 49.942z" fill="#73b9f5"/><path d="m132.372 480.382c32.961 18.213 70.357 29.38 110.167 31.442h13.46v-49.942h-84.863c-15.629 0-29.6 7.223-38.764 18.5z" fill="#429dea"/><path d="m255.999 86.484-68.67 137.341 68.67 137.341c75.851 0 137.341-61.489 137.341-137.341s-61.489-137.341-137.341-137.341z" fill="#ff7040"/><path d="m118.659 223.825c0 75.851 61.49 137.341 137.341 137.341v-274.682c-75.852 0-137.341 61.489-137.341 137.341z" fill="#ff903d"/><path d="m369.202 399.455h-113.203l-16.647 12.485 16.647 12.486h113.203z" fill="#ff903d"/><path d="m142.797 399.455h113.202v24.971h-113.202z" fill="#ffb03b"/><path d="m142.797 399.455h31.63v24.971h-31.63z" fill="#ffcc82"/><path d="m255.999 135.594-44.116 88.231 44.116 88.231c48.729 0 88.231-39.502 88.231-88.231.001-48.729-39.502-88.231-88.231-88.231z" fill="#ff903d"/><path d="m167.768 223.825c0 48.729 39.502 88.231 88.231 88.231v-176.462c-48.728 0-88.231 39.502-88.231 88.231z" fill="#ffb03b"/></g><g fill="#fff"><path d="m83.888 202.881h-1.524c-6.754 0-12.226-5.477-12.226-12.227v-1.523h-8.715v1.523c0 6.75-5.477 12.227-12.227 12.227h-1.527v8.715h1.527c6.75 0 12.227 5.472 12.227 12.226v1.528h8.715v-1.528c0-6.754 5.472-12.226 12.226-12.226h1.524zm0 0"/><path d="m136.768 100.234h-1.524c-6.754 0-12.226-5.477-12.226-12.227v-1.523h-8.715v1.523c0 6.75-5.477 12.227-12.227 12.227h-1.527v8.715h1.527c6.75 0 12.227 5.472 12.227 12.226v1.528h8.715v-1.528c0-6.754 5.472-12.226 12.226-12.226h1.524zm0 0"/><path d="m471.031 237.575h-1.524c-6.754 0-12.226-5.477-12.226-12.227v-1.523h-8.715v1.523c0 6.75-5.477 12.227-12.227 12.227h-1.527v8.715h1.527c6.75 0 12.227 5.472 12.227 12.226v1.528h8.715v-1.528c0-6.754 5.472-12.226 12.226-12.226h1.524zm0 0"/></g></g></svg>