<svg id="Capa_1" enable-background="new 0 0 512 512" height="512" viewBox="0 0 512 512" width="512" xmlns="http://www.w3.org/2000/svg"><path d="m512 256c0 68.58-26.98 130.87-70.88 176.83h-.01l-113.7 69.07-.01.01c-22.66 6.57-46.62 10.09-71.4 10.09-141.38 0-256-114.62-256-256s114.62-256 256-256 256 114.62 256 256z" fill="#65b2fe"/><path d="m512 256c0 68.6-26.99 130.9-70.92 176.86l-113.68 69.05c-22.66 6.57-46.61 10.09-71.4 10.09-54.27 0-104.59-16.89-146-45.69-66.48-46.24-110-123.2-110-210.31 0-46.22 12.25-89.57 33.68-127 44.12 77.07 127.16 129 222.32 129s178.21-51.93 222.32-129c21.43 37.43 33.68 80.78 33.68 127z" fill="#0e9ce7"/><path d="m454.75 318.75c0 76.57-43.31 143.02-106.76 176.22h-.01c-3.39 1.31-6.82 2.55-10.28 3.71-25.66 8.64-53.13 13.32-81.7 13.32-2.34 0-4.67-.03-6.99-.09-29.88-.8-58.48-6.72-84.96-16.92-63.47-33.18-106.8-99.65-106.8-176.24 0-109.76 88.99-198.75 198.75-198.75h.28c109.63.15 198.47 89.08 198.47 198.75z" fill="#ffe853"/><path d="m454.75 318.75c0 76.57-43.31 143.02-106.76 176.22h-.01c-3.39 1.31-6.82 2.55-10.28 3.71-25.66 8.64-53.13 13.32-81.7 13.32-2.34 0-47.997-39.066-63.786-62.892-25.182-37.999-41.014-82.62-41.014-130.358 0-80.87 45.44-152.81 104.8-198.75h.28c109.63.15 198.47 89.08 198.47 198.75z" fill="#fed110"/><path d="m454.75 318.75c0 76.57-43.31 143.04-106.77 176.22-3.39 1.31-6.82 2.55-10.28 3.71-25.66 8.64-53.13 13.32-81.7 13.32v-392c109.76 0 198.75 88.99 198.75 198.75z" fill="#ff9f01"/><path d="m227.832 217.848c-1.408 26.258-22.258 47.863-48.453 50.166-30.708 2.7-56.696-20.724-58.068-50.622-.037-.721-.058-1.458-.062-2.179 0-.058-.001-.116-.001-.173-.015-4.97 6.487-6.933 9.322-2.851 9.686 13.948 25.867 23.04 44.126 22.928 18.256-.112 34.322-9.39 43.851-23.447 2.815-4.152 9.328-2.184 9.364 2.833.007 1.107-.019 2.223-.079 3.345z" fill="#29334c"/><path d="m390.673 217.848c-1.408 26.258-22.258 47.863-48.453 50.166-30.708 2.7-56.696-20.724-58.068-50.622-.037-.721-.058-1.458-.063-2.179 0-.058-.001-.116-.001-.173-.015-4.97 6.487-6.933 9.322-2.851 9.686 13.948 25.867 23.04 44.126 22.928 18.256-.112 34.322-9.39 43.851-23.447 2.815-4.152 9.328-2.184 9.364 2.833.008 1.107-.017 2.223-.078 3.345z" fill="#29334c"/><path d="m346.24 353.734c-26.57-15.311-57.385-24.063-90.24-24.063s-63.67 8.752-90.24 24.063c-4.488 2.599-9.503-2.447-6.985-6.975 18.986-34.124 55.405-57.202 97.226-57.202s78.24 23.078 97.226 57.202c2.517 4.528-2.499 9.574-6.987 6.975z" fill="#ed771b"/><path d="m346.24 353.734c-26.57-15.311-57.385-24.063-90.24-24.063v-40.115c41.82 0 78.24 23.078 97.226 57.202 2.518 4.529-2.498 9.575-6.986 6.976z" fill="#c6601a"/><path d="m441.12 432.83c-28.33 29.64-63.69 52.49-103.42 65.85-5.49-8.35-8.67-18.25-8.68-28.87l-.03-28.68-.03-22.76-.06-47.28c-.02-15.24 11.25-27.94 26.19-30.76 2.01-.38 4.09-.58 6.21-.58 5.25-.01 10.39.47 15.36 1.4 7.64 1.42 14.89 3.89 21.59 7.25 7.25 3.64 13.85 8.32 19.6 13.84.67.65 1.34 1.31 1.99 1.99 8.33 8.6 14.65 19.05 18.21 30.64 1.05 3.41 1.86 13.4 2.41 23.35.29 5.19.51 10.38.66 14.61z" fill="#ebe1cf"/><path d="m441.12 432.83c-2.65 2.78-5.37 5.49-8.14 8.14l-103.99.16h-.02l-.03-22.76h.02l26.22-.04-.09-78c2.01-.38 4.09-.58 6.21-.58 5.25-.01 10.39.47 15.36 1.4l.09 77.15 21.57-.03-.07-69.87c7.25 3.64 13.85 8.32 19.6 13.84.67.65 1.34 1.31 1.99 1.99l.05 54 20.57-.01c.29 5.19.51 10.38.66 14.61z" fill="#d3b09a"/><path d="m389.46 474.5c-19.17 11.73-40 21.01-62.06 27.41-8.19-9.93-13.1-22.51-13.12-36.19l-.09-61.52c-.02-9.66 11.23-15.32 19.46-9.82 8.87 5.93 14.69 15.82 14.7 27.03l.06 33.84h.08c16.63 0 31.45 7.53 40.97 19.25z" fill="#fff"/></svg>