<?xml version="1.0" encoding="iso-8859-1"?>
<!-- Generator: Adobe Illustrator 19.0.0, SVG Export Plug-In . SVG Version: 6.00 Build 0)  -->
<svg version="1.1" id="Capa_1" xmlns="http://www.w3.org/2000/svg" xmlns:xlink="http://www.w3.org/1999/xlink" x="0px" y="0px"
	 viewBox="0 0 512 512" style="enable-background:new 0 0 512 512;" xml:space="preserve">
<path style="fill:#2B6C7E;" d="M435,438.991C388.84,484.15,325.677,512,256,512C114.615,512,0,397.385,0,256S114.615,0,256,0
	s256,114.615,256,256c0,57.12-18.715,109.866-50.337,152.455C448.812,414.137,438.938,425.304,435,438.991z"/>
<path style="fill:#FFE7BF;" d="M462,407.992c-8.452,11.436-17.834,22.141-28.033,32.008H78.033
	C67.834,430.133,58.452,419.428,50,407.992V110h412V407.992z"/>
<path style="fill:#FFF5F5;" d="M462,407.992c-8.452,11.436-17.834,22.141-28.033,32.008H78.033c-2.736-2.647-5.417-5.35-8.033-8.116
	V110h392V407.992z"/>
<path style="fill:#FFAA00;" d="M462,120H50V80c0-5.523,4.477-10,10-10h392c5.523,0,10,4.477,10,10V120z"/>
<path style="fill:#FFC143;" d="M462,120H70V80c0-5.523,4.477-10,10-10h372c5.523,0,10,4.477,10,10V120z"/>
<path style="fill:#FF9500;" d="M100,95c0,5.523-4.477,10-10,10s-10-4.477-10-10s4.477-10,10-10S100,89.477,100,95z M120,85
	c-5.523,0-10,4.477-10,10s4.477,10,10,10s10-4.477,10-10S125.523,85,120,85z M150,85c-5.523,0-10,4.477-10,10s4.477,10,10,10
	s10-4.477,10-10S155.523,85,150,85z"/>
<path style="fill:#FFE1A8;" d="M208.667,147v11c0,1.105-0.895,2-2,2h-126c-1.105,0-2-0.895-2-2v-11c0-1.105,0.895-2,2-2h126
	C207.771,145,208.667,145.895,208.667,147z M146.667,170h-66c-1.105,0-2,0.895-2,2v11c0,1.105,0.895,2,2,2h66c1.105,0,2-0.895,2-2
	v-11C148.667,170.895,147.771,170,146.667,170z M418,385h-76c-1.105,0-2,0.895-2,2v11c0,1.105,0.895,2,2,2h76c1.105,0,2-0.895,2-2
	v-11C420,385.895,419.105,385,418,385z M418,356H292c-1.105,0-2,0.895-2,2v11c0,1.105,0.895,2,2,2h126c1.105,0,2-0.895,2-2v-11
	C420,356.895,419.105,356,418,356z M418,327H292c-1.105,0-2,0.895-2,2v11c0,1.105,0.895,2,2,2h126c1.105,0,2-0.895,2-2v-11
	C420,327.895,419.105,327,418,327z"/>
<path style="fill:#90D2E3;" d="M385,240c-2.411,0-4.739,0.348-6.944,0.985l-47.201-47.201C333.472,189.832,335,185.095,335,180
	c0-13.807-11.193-25-25-25s-25,11.193-25,25c0,5.095,1.528,9.832,4.145,13.784l-47.201,47.201C239.739,240.348,237.411,240,235,240
	c-13.807,0-25,11.193-25,25s11.193,25,25,25c12.095,0,22.182-8.589,24.499-20h101.002c2.316,11.411,12.404,20,24.499,20
	c13.807,0,25-11.193,25-25S398.807,240,385,240z M296.216,200.855C300.168,203.472,304.905,205,310,205s9.832-1.528,13.784-4.145
	l45.067,45.067c-4.201,3.559-7.213,8.477-8.35,14.078H259.499c-1.137-5.601-4.15-10.519-8.35-14.078L296.216,200.855z"/>
<path style="fill:#6BC5DC;" d="M331.022,166.478c-3.899-2.513-8.538-3.978-13.522-3.978c-13.807,0-25,11.193-25,25
	c0,4.984,1.469,9.619,3.982,13.518c-0.087-0.056-0.179-0.106-0.266-0.163l-45.067,45.067c0.155,0.131,0.296,0.277,0.447,0.411
	l-2.151,2.151c-2.206-0.637-4.534-0.985-6.944-0.985c-13.807,0-25,11.193-25,25c0,4.984,1.464,9.623,3.978,13.522
	C214.575,281.573,210,273.823,210,265c0-13.807,11.193-25,25-25c2.411,0,4.739,0.348,6.944,0.985l47.201-47.201
	C286.528,189.832,285,185.095,285,180c0-13.807,11.193-25,25-25C318.823,155,326.573,159.575,331.022,166.478z"/>
<path style="fill:#D9E7EC;" d="M410,217v6c0,1.105-0.895,2-2,2h-26c-1.105,0-2-0.895-2-2v-6c0-1.105,0.895-2,2-2h26
	C409.105,215,410,215.895,410,217z M228,215h-26c-1.105,0-2,0.895-2,2v6c0,1.105,0.895,2,2,2h26c1.105,0,2-0.895,2-2v-6
	C230,215.895,229.105,215,228,215z M368,155h-26c-1.105,0-2,0.895-2,2v6c0,1.105,0.895,2,2,2h26c1.105,0,2-0.895,2-2v-6
	C370,155.895,369.105,155,368,155z"/>
<path style="fill:#C5D3DD;" d="M188.381,304.394c33.684,11.298,57.952,43.118,57.952,80.606l0,0c0,46.944-38.056,85-85,85h-25H130
	h-25c-46.944,0-85-38.056-85-85l0,0c0-37.488,24.269-69.308,57.952-80.606C94.163,298.957,105,283.655,105,266.556V230
	c-5.743,0-10.356-4.841-9.978-10.666c0.344-5.315,4.995-9.334,10.321-9.334H130h6.333h24.658c5.326,0,9.977,4.019,10.321,9.334
	c0.377,5.824-4.235,10.666-9.978,10.666v36.556C161.333,283.655,172.17,298.957,188.381,304.394z"/>
<path style="fill:#B6C4CF;" d="M150,235c0,2.761-2.239,5-5,5h-16.333v40c0,17.098-10.837,32.4-27.048,37.838
	c-33.684,11.298-57.952,43.118-57.952,80.606l0,0c0,26.808,12.423,50.703,31.813,66.282C43.089,452.728,20,421.563,20,385l0,0
	c0-37.488,24.269-69.308,57.952-80.606C94.163,298.957,105,283.655,105,266.556V230c-5.743,0-10.355-4.841-9.979-10.666
	c0.344-5.315,4.995-9.334,10.321-9.334h23.667c-5.326,0-9.977,4.019-10.321,9.334c-0.377,5.824,4.235,10.666,9.978,10.666H145
	C147.761,230,150,232.239,150,235z"/>
<path style="fill:#EA4444;" d="M215.896,360c3.511,7.675,5.437,16.164,5.437,25c0,33.084-26.916,60-60,60H105
	c-33.084,0-60-26.916-60-60c0-8.836,1.926-17.325,5.437-25H215.896z"/>
<path style="fill:#D93131;" d="M133.667,445H105c-33.084,0-60-26.916-60-60c0-8.836,1.926-17.325,5.437-25h28.667
	c-3.511,7.675-5.437,16.164-5.437,25C73.667,418.084,100.583,445,133.667,445z M110,390c5.523,0,10-4.477,10-10s-4.477-10-10-10
	s-10,4.477-10,10S104.477,390,110,390z M140,410c-5.523,0-10,4.477-10,10s4.477,10,10,10s10-4.477,10-10S145.523,410,140,410z
	 M190,390c-5.523,0-10,4.477-10,10s4.477,10,10,10s10-4.477,10-10S195.523,390,190,390z"/>
<g>
</g>
<g>
</g>
<g>
</g>
<g>
</g>
<g>
</g>
<g>
</g>
<g>
</g>
<g>
</g>
<g>
</g>
<g>
</g>
<g>
</g>
<g>
</g>
<g>
</g>
<g>
</g>
<g>
</g>
</svg>
