<svg id="Layer_1" enable-background="new 0 0 512 512" height="512" viewBox="0 0 512 512" width="512" xmlns="http://www.w3.org/2000/svg"><g><path d="m463.446 397.382c23.784-37.761 37.556-82.461 37.556-130.384 0-135.311-109.691-245.002-245.002-245.002s-245.002 109.691-245.002 245.002c0 47.923 13.772 92.623 37.556 130.384z" fill="#73c3f9"/><path d="m423.932 196.234h-335.864c-18.392 0-33.354 14.962-33.354 33.354v177.096c8.3 11.938 17.635 23.103 27.874 33.365h346.825c10.239-10.262 19.573-21.426 27.874-33.365v-177.096c-.001-18.392-14.964-33.354-33.355-33.354z" fill="#167cc1"/><path d="m267.186 416.417c1.429-1.348 1.236-3.66-.374-4.785-22.321-15.589-11.607-38.424-8.273-44.358.526-.937.521-2.075-.003-3.013l-24.39-43.703c-.239-.428-.583-.79-.99-1.063-16.118-10.851-11.867-26.668-9.728-32.176.468-1.204.133-2.574-.84-3.423-28.349-24.751-13.017-51.406-7.926-58.673.773-1.104.731-2.594-.103-3.654-5.282-6.711-2.195-12.892-.024-15.852.809-1.104.772-2.591-.04-3.692-1.533-2.081-2.084-4.042-2.088-5.79h-124.339c-18.392 0-33.354 14.962-33.354 33.354v177.096c8.3 11.938 17.635 23.103 27.874 33.365h171.143c2.586-11.894 9.431-19.836 13.455-23.633z" fill="#0e62a8"/><path d="m339.733 57.367c-4.619.295-8.714-3.07-9.402-7.647-4.322-28.764-29.112-49.72-57.832-49.72-20.925 0-39.273 10.992-49.61 27.513-2.233 3.568-6.671 5.05-10.65 3.674-28.68-9.917-60.336 8.443-65.47 38.765-.63 3.719-3.587 6.673-7.31 7.283-19.142 3.139-33.544 19.666-33.728 39.388-.208 22.379 18.632 40.69 41.012 40.69h195.265c27.664 0 50.689-22.122 50.811-49.786.13-29.389-24.794-51.968-53.086-50.16z" fill="#e9efff"/><path d="m287.261 157.313c-16.845-10.735-4.236-24.896-4.236-24.896l-5.161-33.414c-7.742 0-7.235-7.348-7.235-7.348l-21.354 5.333v-60.879c-17.581-7.773-9.548-26.058-9.548-26.058-6.753 4.581-12.502 10.532-16.837 17.461-2.233 3.568-6.671 5.05-10.65 3.674-28.68-9.917-60.336 8.443-65.47 38.765-.63 3.72-3.587 6.673-7.31 7.283-19.142 3.14-33.544 19.666-33.728 39.388-.208 22.379 18.632 40.69 41.012 40.69h140.517z" fill="#d3dcfb"/><path d="m243.867 107.602c2.984 2.984 7.83 2.986 10.815 0l30.338-30.339c2.987-2.987 2.987-7.829 0-10.816-2.986-2.985-7.829-2.985-10.815 0l-17.282 17.283v-39.973c0-4.224-3.424-7.648-7.648-7.648s-7.648 3.424-7.648 7.648v39.973l-17.282-17.283c-2.986-2.984-7.829-2.986-10.816 0-2.987 2.987-2.987 7.829 0 10.816z" fill="#3c58a0"/><path d="m283.025 96.988c-4.224 0-7.648 3.424-7.648 7.648v12.486h-52.204v-12.486c0-4.224-3.424-7.648-7.648-7.648s-7.648 3.424-7.648 7.648v20.133c0 4.224 3.424 7.648 7.648 7.648h67.5c4.224 0 7.648-3.424 7.648-7.648v-20.133c0-4.224-3.424-7.648-7.648-7.648z" fill="#3c58a0"/><path d="m423.932 223.302h-335.864c-3.408 0-6.286 2.878-6.286 6.286v209.653c11.332 11.461 23.792 21.803 37.191 30.861h274.055c13.398-9.059 25.858-19.4 37.19-30.861v-209.653c0-3.408-2.878-6.286-6.286-6.286z" fill="#ff4155"/><path d="m81.782 229.588v209.653c11.332 11.461 23.792 21.803 37.191 30.861h131.162c.967-.563 1.972-.979 2.871-1.278 1.6-.532 2.465-2.229 1.989-3.847-7.676-26.106 5.81-42.54 12.192-48.561 1.429-1.348 1.236-3.66-.374-4.785-22.321-15.589-11.607-38.424-8.273-44.358.526-.937.521-2.075-.003-3.013l-24.39-43.703c-.239-.428-.583-.79-.99-1.063-16.118-10.851-11.867-26.668-9.728-32.176.468-1.204.133-2.574-.84-3.423-28.349-24.751-13.017-51.406-7.926-58.673.402-.574.579-1.252.543-1.92h-127.138c-3.408 0-6.286 2.878-6.286 6.286z" fill="#e80054"/><path d="m256 512c52.035 0 100.271-16.235 139.947-43.897h-279.894c39.676 27.662 87.912 43.897 139.947 43.897z" fill="#e9efff"/><path d="m245.801 503.31s0-18.67 0-26.31c0-4.9 4.195-7.174 7.204-8.175.458-.152.846-.407 1.17-.721h-138.122c38.051 26.529 83.977 42.538 133.574 43.806-4.243-3.735-3.826-8.6-3.826-8.6z" fill="#d3dcfb"/><path d="m372.395 482.634c-.454-.084-.92-.133-1.398-.133h-130.494c-4.224 0-7.648 3.424-7.648 7.648s3.424 7.648 7.648 7.648h97.855c11.787-4.207 23.162-9.28 34.037-15.163z" fill="#bec8f7"/><path d="m240.503 482.501h-85.667c-3.065 0-5.702 1.808-6.922 4.412 8.321 4.097 16.907 7.736 25.728 10.884h66.861c4.224 0 7.648-3.424 7.648-7.648s-3.424-7.648-7.648-7.648z" fill="#ff4155"/><g><path d="m240.504 505.694c-4.224 0-7.648-3.424-7.648-7.648v-15.539c0-4.224 3.424-7.648 7.648-7.648s7.648 3.424 7.648 7.648v15.539c-.001 4.225-3.425 7.648-7.648 7.648z" fill="#e80054"/></g><ellipse cx="249.275" cy="348.869" fill="#e9efff" rx="68.246" ry="68.246" transform="matrix(.391 -.921 .921 .391 -169.265 441.995)"/><path d="m266.812 411.632c-22.321-15.589-11.607-38.424-8.273-44.358.526-.937.521-2.075-.003-3.013l-24.39-43.703c-.239-.428-.583-.79-.99-1.063-16.118-10.851-11.867-26.668-9.728-32.176.212-.545.251-1.124.149-1.674-24.951 10.152-42.549 34.627-42.549 63.225 0 37.691 30.555 68.246 68.246 68.246 6.542 0 12.86-.94 18.85-2.658.092-1.061-.351-2.155-1.312-2.826z" fill="#d3dcfb"/><g><path d="m396.06 259.368h-18.51c-4.224 0-7.648-3.424-7.648-7.648s3.424-7.648 7.648-7.648h18.51c4.224 0 7.648 3.424 7.648 7.648 0 4.225-3.424 7.648-7.648 7.648z" fill="#ff7186"/></g><path d="m274.926 341.837-33.329-21.308c-5.555-3.552-12.842.438-12.842 7.032v42.616c0 6.594 7.286 10.584 12.842 7.032l33.329-21.308c5.134-3.282 5.134-10.781 0-14.064z" fill="#ff4155"/><path d="m274.926 341.837-1.413-.903c-.229 1.192-.911 2.31-2.064 3.047l-8.816 5.636c-7.374 4.715-17.047-.582-17.047-9.334v-12.177c0-1.623.789-2.963 1.936-3.789l-5.925-3.788c-5.556-3.552-12.842.438-12.842 7.032v42.616c0 6.594 7.286 10.584 12.842 7.032l33.329-21.308c5.134-3.282 5.134-10.781 0-14.064z" fill="#e80054"/><path d="m464.934 394.999v-165.411c0-22.609-18.394-41.003-41.002-41.003h-335.864c-22.608 0-41.002 18.394-41.002 41.003v165.411c4.7 7.655 9.809 15.029 15.296 22.097v-187.508c0-14.174 11.532-25.707 25.706-25.707h335.864c14.174 0 25.706 11.532 25.706 25.707v187.508c5.487-7.068 10.596-14.442 15.296-22.097z" fill="#1e92d3"/><path d="m214.92 188.586h-126.852c-22.608 0-41.002 18.394-41.002 41.002v165.412c4.699 7.654 9.809 15.029 15.296 22.097v-187.509c0-14.174 11.531-25.707 25.706-25.707h127.054c-.007-.651-.218-1.303-.627-1.857-3.592-4.876-1.822-9.102-.151-11.455.425-.598.61-1.298.576-1.983z" fill="#167cc1"/></g></svg>