<svg id="Layer_1" enable-background="new 0 0 512 512" height="512" viewBox="0 0 512 512" width="512" xmlns="http://www.w3.org/2000/svg"><g><path d="m465.476 394.131c22.543-37.064 35.526-80.582 35.526-127.133 0-135.311-109.691-245.002-245.002-245.002s-245.002 109.691-245.002 245.002c0 46.551 12.984 90.069 35.526 127.133z" fill="#73c3f9"/><path d="m423.493 0h-334.986c-24.015 0-43.482 19.467-43.482 43.481v348.12c8.917 15.064 19.405 29.087 31.231 41.853h359.488c11.826-12.766 22.314-26.788 31.231-41.853v-348.12c0-24.014-19.468-43.481-43.482-43.481z" fill="#167cc1"/><path d="m187.798 405.351c-.145-.289-.34-.555-.563-.788-8.237-8.606-2.623-16.707-.426-19.259.503-.585.771-1.332.771-2.103v-42.001c0-.849-.342-1.661-.931-2.272-29.142-30.238-3.905-58.051-.172-61.85.284-.288.613-.516.981-.682l35.346-15.915c1.419-.639 2.188-2.192 1.835-3.708l-7.104-30.507c-.186-.798-.666-1.497-1.343-1.956l-23.946-16.246c-39.446-29.083-21.83-57.706-15.149-66.155 1.082-1.369.928-3.36-.408-4.481-23.993-20.137-11.957-58.03-8.874-66.475.357-.977.209-2.06-.369-2.924-1.975-2.957-.551-5.724.382-7.022.404-.562.637-1.229.637-1.921v-19.202c0-.745-.268-1.464-.732-2.047-1.956-2.457-1.545-4.689-.776-6.204.657-1.294.384-2.871-.686-3.851-12.381-11.35-4.107-21.902.128-25.991.514-.497.82-1.129.932-1.791h-78.824c-24.015 0-43.482 19.467-43.482 43.481v348.12c8.917 15.064 19.405 29.087 31.231 41.853h125.614z" fill="#0e62a8"/><path d="m256 512c71.879 0 136.529-30.954 181.346-80.258 0-134.673 0-345.634 0-364.679h-362.692v364.679c44.817 49.304 109.467 80.258 181.346 80.258z" fill="#e9efff"/><path d="m74.654 431.742c38.855 42.746 92.622 71.682 153.078 78.628-.109-3.706 1.185-6.615 2.03-8.102.434-.765.524-1.675.27-2.517l-7.385-24.51c-.312-1.035-1.124-1.845-2.156-2.167-16.19-5.039-12.673-18.178-11.109-22.301.321-.847.267-1.786-.139-2.596l-21.445-42.827c-.145-.289-.34-.555-.563-.788-8.237-8.606-2.623-16.707-.426-19.259.503-.585.771-1.332.771-2.103v-42c0-.849-.342-1.661-.931-2.272-29.142-30.238-3.905-58.051-.172-61.85.284-.288.613-.516.981-.682l35.346-15.915c1.419-.639 2.188-2.192 1.835-3.708l-7.104-30.507c-.186-.798-.666-1.497-1.343-1.956l-23.946-16.246c-39.446-29.083-21.83-57.706-15.149-66.155 1.082-1.369.928-3.36-.408-4.481-23.993-20.137-11.957-58.03-8.874-66.475.357-.977.209-2.06-.369-2.924-.217-.325-.387-.647-.527-.967h-92.265z" fill="#d3dcfb"/><path d="m423.493 29.629h-334.985c-7.619 0-13.854 6.234-13.854 13.854v25.774h362.692v-25.776c0-7.619-6.234-13.852-13.853-13.852z" fill="#2a428c"/><path d="m167.828 61.007c.404-.562.637-1.229.637-1.921v-19.202c0-.745-.268-1.464-.732-2.047-1.956-2.457-1.545-4.689-.776-6.204.322-.635.418-1.337.308-2.004h-78.757c-7.619 0-13.854 6.234-13.854 13.853v25.774h93.279c-.083-.432-.236-.853-.487-1.228-1.975-2.956-.551-5.723.382-7.021z" fill="#1c2e7a"/><g><circle cx="108.796" cy="49.443" fill="#ff4155" r="10.791"/></g><g><path d="m149.421 49.443c0 5.959-4.831 10.791-10.791 10.791s-10.791-4.831-10.791-10.791 4.831-10.791 10.791-10.791 10.791 4.831 10.791 10.791z" fill="#ffdd40"/></g><g><path d="m179.255 49.443c0 5.959-4.831 10.791-10.791 10.791s-10.791-4.831-10.791-10.791 4.831-10.791 10.791-10.791 10.791 4.831 10.791 10.791z" fill="#38c674"/></g><g><path d="m322.964 57.673h-108.273c-4.545 0-8.23-3.684-8.23-8.23s3.685-8.23 8.23-8.23h108.273c4.545 0 8.23 3.684 8.23 8.23s-3.685 8.23-8.23 8.23z" fill="#3c58a0"/></g><g><path d="m410.917 57.673h-9.382c-4.545 0-8.23-3.684-8.23-8.23s3.685-8.23 8.23-8.23h9.382c4.545 0 8.23 3.684 8.23 8.23s-3.685 8.23-8.23 8.23z" fill="#3c58a0"/></g><g><path d="m378.297 57.673h-9.382c-4.545 0-8.23-3.684-8.23-8.23s3.685-8.23 8.23-8.23h9.382c4.545 0 8.23 3.684 8.23 8.23s-3.684 8.23-8.23 8.23z" fill="#3c58a0"/></g><g><path d="m256 320.505c-57.634 0-57.844-224.96 0-224.96 57.633.001 57.846 224.96 0 224.96zm0-208.499c-4.313 0-11.266 7.71-17.079 24.936-13.176 39.041-13.175 103.129 0 142.168 5.813 17.224 12.766 24.935 17.079 24.935 4.312 0 11.266-7.71 17.079-24.935 13.176-39.042 13.176-103.129 0-142.168-5.813-17.225-12.766-24.936-17.079-24.936z" fill="#73c3f9"/></g><g><path d="m325.077 276.638c-63.664 0-189.898-84.301-166.487-124.852 28.813-49.908 223.742 62.381 194.82 112.48-4.989 8.64-15.154 12.372-28.333 12.372zm-152.232-116.622c-2.156 3.735 1.044 13.612 13.055 27.259 13.154 14.945 33.264 30.604 56.624 44.091 23.361 13.488 46.976 23.073 66.496 26.992 17.823 3.577 27.978 1.41 30.134-2.323 2.156-3.735-1.044-13.612-13.055-27.259-13.154-14.945-33.264-30.604-56.624-44.092-51.584-29.782-91.589-33.397-96.63-24.668z" fill="#2a428c"/></g><g><path d="m186.923 276.638c-13.182.001-23.342-3.729-28.333-12.372-14.249-24.683 27.298-65.889 75.704-93.836 48.407-27.947 104.864-43.327 119.116-18.644 23.389 40.514-102.686 124.846-166.487 124.852zm55.602-91.953c-23.361 13.488-43.47 29.147-56.624 44.092-12.011 13.647-15.212 23.525-13.055 27.259 2.156 3.734 12.311 5.901 30.135 2.323 40.459-8.123 95.933-40.193 123.121-71.084 12.011-13.647 15.211-23.525 13.055-27.259-2.156-3.735-12.31-5.899-30.134-2.323-19.523 3.918-43.138 13.504-66.498 26.992z" fill="#ff4155"/></g><ellipse cx="256" cy="208.026" fill="#ffdd40" rx="16.999" ry="16.999" transform="matrix(.924 -.383 .383 .924 -60.121 113.802)"/><path d="m281.538 471.013h-51.077c-8.295 0-15.082 6.787-15.082 15.082 0 8.295 6.787 15.082 15.082 15.082h51.077c8.295 0 15.082-6.787 15.082-15.082 0-8.295-6.787-15.082-15.082-15.082z" fill="#38c674"/><path d="m256 486.095c0-8.295 6.787-15.082 15.082-15.082h-40.62c-8.295 0-15.082 6.787-15.082 15.082s6.787 15.081 15.082 15.081h40.62c-8.295.001-15.082-6.786-15.082-15.081z" fill="#24b55e"/><path d="m328.198 449.516h-144.397c-12.265 0-22.3-10.035-22.3-22.3 0-12.265 10.035-22.3 22.3-22.3h144.397c12.265 0 22.3 10.035 22.3 22.3.001 12.265-10.034 22.3-22.3 22.3z" fill="#ffdd40"/><path d="m328.198 384.477h-144.397c-12.265 0-22.3-10.035-22.3-22.3 0-12.265 10.035-22.3 22.3-22.3h144.397c12.265 0 22.3 10.035 22.3 22.3.001 12.265-10.034 22.3-22.3 22.3z" fill="#ffdd40"/><g fill="#ffb332"><path d="m243.501 427.216c0-12.265 10.035-22.3 22.3-22.3h-82c-12.265 0-22.3 10.035-22.3 22.3 0 12.265 10.035 22.3 22.3 22.3h82c-12.265 0-22.3-10.035-22.3-22.3z"/><path d="m243.501 362.177c0-12.266 10.035-22.3 22.3-22.3h-82c-12.265 0-22.3 10.035-22.3 22.3 0 12.265 10.035 22.3 22.3 22.3h82c-12.265 0-22.3-10.035-22.3-22.3z"/></g></g></svg>