<svg id="Capa_1" enable-background="new 0 0 512 512" height="512" viewBox="0 0 512 512" width="512" xmlns="http://www.w3.org/2000/svg"><g><g><path d="m256 289.871c-141.387 0-245.471-117.117-226.86-152.605 42.795-81.6 128.326-137.266 226.86-137.266 97.204 0 181.752 54.173 225.103 133.974 19.704 36.274-83.716 155.897-225.103 155.897z" fill="#aaed58"/><path d="m512 256c0 26.051-3.891 51.191-11.129 74.871-5.031 16.469-11.672 32.231-19.75 47.109-8.25 15.2-147.391 47.728-225.121 47.728s-216.871-32.528-225.109-47.728c-3.289-6.031-6.332-12.21-9.121-18.531-14-31.629-21.77-66.629-21.77-103.449 0-46.219 12.25-89.57 33.68-127 44.121 77.07 127.16 129 222.32 129s178.211-51.93 222.32-129c21.43 37.43 33.68 80.781 33.68 127zm0 0" fill="#6abb5e"/><path d="m481.262 377.699c-7.16 13.223-15.434 25.742-24.723 37.43-4.999 6.299-10.293 12.355-15.859 18.147-3.828 3.985-109.434 74.984-170.422 78.333-4.72.26-9.474.391-14.258.391-5.016 0-9.998-.144-14.942-.429-60.718-3.496-165.818-74.221-169.605-78.156-5.614-5.835-10.954-11.936-15.992-18.286-9.289-11.688-17.563-24.207-24.723-37.43zm0 0" fill="#299f8c"/></g><g><path d="m211.733 137.273h-54.877l-54.876 109.753h109.753z" fill="#bfebff"/><path d="m101.98 137.273h54.876v109.753h-54.876z" fill="#dff5ff"/><path d="m201.123 225.075h-44.267l-65.851 143.411 54.39 118.449c30.37 14.572 64.063 23.315 99.63 24.816v-54.731l-44.084-88.534 44.084-88.534v-10.975c0-24.208-19.694-43.902-43.902-43.902z" fill="#8db3cf"/><path d="m68.688 268.976v10.975l44.084 88.534-35.325 70.944c22.776 22.174 49.657 40.15 79.409 52.659v-267.013h-44.267c-24.207 0-43.901 19.694-43.901 43.901z" fill="#a6cfe7"/><path d="m68.688 268.976v10.975l44.084 88.534-35.325 70.944c12.653 12.319 26.57 23.344 41.549 32.851v-247.205h-6.406c-24.208 0-43.902 19.694-43.902 43.901z" fill="#c9e1f0"/><path d="m156.856 279.951-58.534 88.535 58.534 88.534h88.169v-177.069z" fill="#9f165b"/><path d="m68.688 430.477c8.906 9.556 18.524 18.438 28.788 26.543h59.38v-177.069h-88.168z" fill="#dc4180"/><path d="m68.688 430.477c8.906 9.556 18.524 18.438 28.788 26.543h21.52v-177.069h-50.308z" fill="#ff809c"/><path d="m167.832 170.198h-10.976l-7.316 10.976 7.316 10.975h10.976z" fill="#16202d"/><path d="m145.881 170.198h10.975v21.951h-10.975z" fill="#2d3e53"/><path d="m443.312 430.477v-72.967c0-24.207-19.694-43.901-43.901-43.901h-88.534c-24.207 0-43.901 19.694-43.901 43.901v154.24c69.557-2.935 131.926-33.618 176.336-81.273z" fill="#dc4180"/></g><g fill="#fff"><path d="m443.357 234.507h-1.524c-6.754 0-12.226-5.477-12.226-12.227v-1.523h-8.715v1.523c0 6.75-5.477 12.227-12.227 12.227h-1.527v8.715h1.527c6.75 0 12.227 5.472 12.227 12.226v1.528h8.715v-1.528c0-6.754 5.472-12.226 12.226-12.226h1.524zm0 0"/><path d="m316.072 202.606h-1.524c-6.754 0-12.226-5.477-12.226-12.227v-1.523h-8.715v1.523c0 6.75-5.477 12.227-12.227 12.227h-1.527v8.715h1.527c6.75 0 12.227 5.472 12.227 12.226v1.528h8.715v-1.528c0-6.754 5.472-12.226 12.226-12.226h1.524zm0 0"/><path d="m258.195 81.463h-1.524c-6.754 0-12.226-5.477-12.226-12.227v-1.523h-8.715v1.523c0 6.75-5.477 12.227-12.227 12.227h-1.527v8.715h1.527c6.75 0 12.227 5.472 12.227 12.226v1.528h8.715v-1.528c0-6.754 5.472-12.226 12.226-12.226h1.524zm0 0"/><path d="m403.247 124.641h-1.524c-6.754 0-12.226-5.477-12.226-12.227v-1.523h-8.715v1.523c0 6.75-5.477 12.227-12.227 12.227h-1.527v8.715h1.527c6.75 0 12.227 5.472 12.227 12.226v1.528h8.715v-1.528c0-6.754 5.472-12.226 12.226-12.226h1.524zm0 0"/></g></g></svg>