<?xml version="1.0" encoding="iso-8859-1"?>
<!-- Generator: Adobe Illustrator 19.0.0, SVG Export Plug-In . SVG Version: 6.00 Build 0)  -->
<svg version="1.1" id="Capa_1" xmlns="http://www.w3.org/2000/svg" xmlns:xlink="http://www.w3.org/1999/xlink" x="0px" y="0px"
	 viewBox="0 0 512 512" style="enable-background:new 0 0 512 512;" xml:space="preserve">
<path style="fill:#D9E7EC;" d="M512,256c0,141.385-114.615,256-256,256S0,397.385,0,256S114.615,0,256,0S512,114.615,512,256z"/>
<path style="fill:#B6C4CF;" d="M233,230H1.306c1.042-10.335,2.7-20.488,4.936-30.423C11.446,176.452,31.952,160,55.657,160H233V230z
	"/>
<path style="fill:#009A8E;" d="M511.972,252.169c2.093,142.634-111.627,258.893-254.273,259.825
	c-19.834,0.13-39.143-2.014-57.699-6.155V190h200V56.326c0-5.068,5.796-7.996,9.845-4.947
	C470.933,97.38,510.768,170.094,511.972,252.169z"/>
<path style="fill:#008C80;" d="M236.933,5.238c64.972,0,124.906,21.546,173.067,57.871V228c0,1.105-0.895,2-2,2H200V7.596
	C212.093,6.046,224.418,5.238,236.933,5.238z"/>
<path style="fill:#FFF5F5;" d="M256,0c57.814,0,111.145,19.173,154,51.495V198c0,1.105-0.895,2-2,2H6.16
	C31.702,85.552,133.853,0,256,0z"/>
<path style="fill:#C5D3DD;" d="M320,420L320,420c-44.183,0-80-35.817-80-80v-80c0-44.183,35.817-80,80-80l0,0
	c44.183,0,80,35.817,80,80v80C400,384.183,364.183,420,320,420z"/>
<path style="fill:#D9E7EC;" d="M400,260v80c0,44.183-35.817,80-80,80l0,0c-2.476,0-4.92-0.129-7.339-0.349
	C288.391,405.913,272,379.879,272,350V250c0-29.878,16.391-55.913,40.661-69.651c2.418-0.22,4.863-0.349,7.339-0.349l0,0
	C364.183,180,400,215.817,400,260z"/>
<path style="fill:#9FACBA;" d="M320,270L320,270c-8.284,0-15-6.716-15-15v-20c0-8.284,6.716-15,15-15l0,0c8.284,0,15,6.716,15,15v20
	C335,263.284,328.284,270,320,270z"/>
<path style="fill:#FFE1A8;" d="M370,49v11c0,1.104-0.895,2-2,2H222c-1.105,0-2-0.896-2-2V49c0-1.105,0.895-2,2-2h146
	C369.105,47,370,47.896,370,49z M368,76.333H222c-1.105,0-2,0.896-2,2v11c0,1.105,0.895,2,2,2h146c1.105,0,2-0.895,2-2v-11
	C370,77.229,369.105,76.333,368,76.333z M368,105.667H222c-1.105,0-2,0.895-2,2v11c0,1.105,0.895,2,2,2h146c1.105,0,2-0.895,2-2v-11
	C370,106.562,369.105,105.667,368,105.667z M328,135H222c-1.105,0-2,0.895-2,2v11c0,1.104,0.895,2,2,2h106c1.105,0,2-0.896,2-2v-11
	C330,135.896,329.105,135,328,135z"/>
<path style="fill:#D93131;" d="M160,407.301v57.473C160,478.706,148.706,490,134.774,490h-28.59
	c-13.932,0-25.226-11.294-25.226-25.226v-57.473H160z"/>
<path style="fill:#EA4444;" d="M134.774,490h-2.09c-13.932,0-25.226-11.294-25.226-25.226v-57.473H160v57.473
	C160,478.706,148.706,490,134.774,490z"/>
<path style="fill:#EBAE56;" d="M160,377.737H80.958v-248.11c0-3.889,1.109-7.696,3.197-10.977l35.372-55.584
	c0.444-0.697,1.462-0.697,1.905,0l35.372,55.584c2.088,3.281,3.197,7.089,3.197,10.977v248.11H160z"/>
<path style="fill:#F8BB5E;" d="M160,129.628v248.11h-57.709v-248.11c0-3.889,1.109-7.696,3.197-10.977l25.658-40.319l25.658,40.319
	C158.891,121.931,160,125.739,160,129.628z"/>
<path style="fill:#465A61;" d="M109.701,78.507l9.826-15.441c0.444-0.697,1.462-0.697,1.905,0l9.826,15.441H109.701z"/>
<path style="fill:#00D3B4;" d="M160,129.419v304.776H80.958V129.419c2.88,1.858,6.307,2.94,9.989,2.94
	c6.266,0,11.799-3.125,15.135-7.899c3.337,4.773,8.869,7.899,15.135,7.899c5.824,0,11.014-2.7,14.397-6.913
	c3.383,4.213,8.573,6.913,14.397,6.913C153.693,132.36,157.12,131.277,160,129.419z"/>
<path style="fill:#00B7A0;" d="M111.446,151.903v254.064c0,3.118-2.528,5.646-5.646,5.646s-5.646-2.528-5.646-5.646v28.229H80.958
	V129.419c2.88,1.858,6.307,2.94,9.989,2.94c3.356,0,6.497-0.903,9.207-2.469v22.012c0-3.118,2.528-5.646,5.646-5.646
	S111.446,148.785,111.446,151.903z M134.029,146.257c-3.118,0-5.646,2.528-5.646,5.646v254.064c0,3.118,2.528,5.646,5.646,5.646
	s5.646-2.528,5.646-5.646V151.903C139.675,148.785,137.147,146.257,134.029,146.257z"/>
<g>
</g>
<g>
</g>
<g>
</g>
<g>
</g>
<g>
</g>
<g>
</g>
<g>
</g>
<g>
</g>
<g>
</g>
<g>
</g>
<g>
</g>
<g>
</g>
<g>
</g>
<g>
</g>
<g>
</g>
</svg>
