<svg id="Capa_1" enable-background="new 0 0 512 512" height="512" viewBox="0 0 512 512" width="512" xmlns="http://www.w3.org/2000/svg"><g><g><path d="m0 256c0 43.79 11 85.02 30.39 121.07l225.61 49.67 225.61-49.67c19.39-36.05 30.39-77.28 30.39-121.07 0-46.63-12.47-90.34-34.26-128-41.698 72.091-399.22 76.52-443.48 0-21.79 37.66-34.26 81.37-34.26 128z" fill="#bf2e70"/><path d="m34.26 128c44.26 76.52 126.99 128 221.74 128s177.48-51.48 221.74-128c-.01-.02-.03-.05-.04-.07-44.27-76.48-126.98-127.93-221.7-127.93s-177.43 51.45-221.7 127.93c-.01.02-.03.05-.04.07z" fill="#d75e91"/><path d="m30.39 377.07c43.19 80.32 128.02 134.93 225.61 134.93s182.42-54.61 225.61-134.93z" fill="#871155"/></g><g><path d="m382.905 178.361v62.86h-258.121v-62.86c0-71.283 57.786-129.061 129.061-129.061s129.06 57.777 129.06 129.061z" fill="#a8ea58"/><path d="m382.905 178.361v62.86h-129.061v-191.921c71.275 0 129.061 57.777 129.061 129.061z" fill="#78cd8a"/><path d="m420.117 215.478c0 38.507-28.677 70.308-65.829 75.227-1.579 26.364-13.299 50.002-31.327 67.046s-42.347 27.495-69.117 27.495c-53.531 0-97.294-41.803-100.444-94.541-18.58-2.46-35.029-11.642-46.843-25.018s-18.986-30.956-18.986-50.209c0-41.907 33.976-75.892 75.892-75.892h180.762c20.962 0 39.931 8.492 53.661 22.231 13.739 13.739 22.231 32.707 22.231 53.661z" fill="#cbff8d"/><circle cx="163.463" cy="215.479" fill="#78cd8a" r="54.914"/><circle cx="163.463" cy="215.479" fill="#c3f3ff" r="38.712"/><path d="m420.117 215.478c0 38.507-28.677 70.308-65.829 75.227-1.579 26.364-13.299 50.002-31.327 67.046s-42.347 27.495-69.117 27.495v-245.66h90.381c20.962 0 39.931 8.492 53.661 22.231 13.739 13.739 22.231 32.707 22.231 53.661z" fill="#a8ea58"/><circle cx="344.226" cy="215.479" fill="#599d89" r="54.914"/><circle cx="344.226" cy="215.479" fill="#c3f3ff" r="38.712"/><path d="m302.923 290.299c0 27.107-21.972 49.087-49.079 49.087s-49.078-21.98-49.078-49.087 21.972-49.079 49.078-49.079 49.079 21.973 49.079 49.079z" fill="#78cd8a"/><path d="m302.923 290.299c0 27.107-21.972 49.087-49.079 49.087v-98.165c27.107 0 49.079 21.972 49.079 49.078z" fill="#599d89"/><path d="m285.059 290.299c0 17.243-13.972 31.223-31.214 31.223-17.243 0-31.214-13.98-31.214-31.223 0-17.234 13.972-31.214 31.214-31.214s31.214 13.98 31.214 31.214z" fill="#616679"/><path d="m285.059 290.299c0 17.243-13.972 31.223-31.214 31.223v-62.437c17.242 0 31.214 13.98 31.214 31.214z" fill="#464651"/><g><path d="m430.749 338.886-98.985 98.985-18.011-18.019c-27.34-27.331-27.34-71.646 0-98.977 27.331-27.34 71.646-27.34 98.985 0z" fill="#616679"/><path d="m430.749 338.886-49.492 49.493-67.503-67.503c27.331-27.34 71.646-27.34 98.985 0z" fill="#464651"/><ellipse cx="381.257" cy="388.378" fill="#e7eaf5" rx="69.989" ry="69.989" transform="matrix(.707 -.707 .707 .707 -162.958 383.343)"/><path d="m430.746 338.889c27.332 27.332 27.332 71.647 0 98.979l-98.979-98.979c27.332-27.332 71.647-27.332 98.979 0z" fill="#d9dced"/><ellipse cx="381.257" cy="388.378" fill="#d9dced" rx="44.513" ry="44.513" transform="matrix(.707 -.707 .707 .707 -162.958 383.343)"/><path d="m412.732 356.903c17.385 17.385 17.385 45.566 0 62.951l-62.951-62.951c17.385-17.385 45.566-17.385 62.951 0z" fill="#b1b7cb"/></g><g><path d="m198.25 419.852-18.011 18.019-98.985-98.985 18.011-18.011c27.34-27.34 71.654-27.34 98.985 0 27.34 27.331 27.34 71.646 0 98.977z" fill="#616679"/><path d="m198.25 419.852-18.011 18.019-49.493-49.493 67.503-67.503c27.341 27.331 27.341 71.646.001 98.977z" fill="#464651"/><circle cx="130.747" cy="388.378" fill="#e7eaf5" r="69.992"/><circle cx="130.747" cy="388.378" fill="#d9dced" r="44.516"/><path d="m180.239 437.87c-27.332 27.332-71.647 27.332-98.979 0l98.979-98.979c27.332 27.332 27.332 71.647 0 98.979z" fill="#d9dced"/><path d="m162.225 419.856c-17.385 17.385-45.566 17.385-62.951 0l62.951-62.951c17.386 17.385 17.386 45.566 0 62.951z" fill="#b1b7cb"/></g></g></g></svg>