<svg id="Capa_1" enable-background="new 0 0 512 512" height="512" viewBox="0 0 512 512" width="512" xmlns="http://www.w3.org/2000/svg"><circle cx="256" cy="256" fill="#65b2fe" r="256"/><path d="m512 256c0 87.11-43.52 164.07-110 210.31-41.41 28.8-91.73 45.69-146 45.69s-104.59-16.89-146-45.69c-66.48-46.24-110-123.2-110-210.31 0-46.22 12.25-89.57 33.68-127 44.12 77.07 127.16 129 222.32 129s178.21-51.93 222.32-129c21.43 37.43 33.68 80.78 33.68 127z" fill="#0e9ce7"/><path d="m452 316c0 105.34-83.12 191.28-187.34 195.81-.31.02-.62.03-.93.04-.87.03-1.74.06-2.6.08-1.73.05-3.44.07-5.13.07-108.24 0-196-87.76-196-196s87.76-196 196-196h.28c108.11.15 195.72 87.85 195.72 196z" fill="#ffe853"/><path d="m452 316c0 105.34-83.12 191.28-187.34 195.81-.31.02-.62.03-.93.04-.87.03-1.74.06-2.6.08-1.73.05-3.44.07-5.13.07-58.54-45.3-103.35-116.25-103.35-196s44.81-150.7 103.35-196h.28c108.11.15 195.72 87.85 195.72 196z" fill="#fed110"/><path d="m452 316c0 108.244-87.756 196-196 196v-392c108.244 0 196 87.756 196 196z" fill="#ff9f01"/><path d="m302.439 484.371c-.054.044-.098.098-.152.142h-92.573c-.054-.044-.098-.098-.152-.142-14.86-14.065-23.268-34.734-20.69-56.892l6.244-53.651c1.414-12.194 8.333-22.539 18.101-28.675l7.637 7.636h71.045l7.256-7.256-.076-.185c9.616 6.146 16.393 16.404 17.807 28.479l6.244 53.651c2.577 22.16-5.832 42.828-20.691 56.893z" fill="#313b5a"/><path d="m302.439 484.371c-.054.044-.098.098-.152.142h-46.287v-131.723h35.898l6.886-7.626.294.185c9.616 6.146 16.393 16.404 17.807 28.479l6.244 53.651c2.578 22.159-5.831 42.827-20.69 56.892z" fill="#29334c"/><path d="m298.784 345.164v9.192c0 8.561-6.94 15.501-15.49 15.501h-54.586c-8.55 0-15.491-6.94-15.491-15.501v-9.203c6.059-3.818 13.228-6.005 20.854-6.005h43.86c7.625.001 14.793 2.198 20.853 6.016z" fill="#fff"/><path d="m302.286 484.513c-12.02 11.335-28.261 18.351-46.286 18.351s-34.266-7.016-46.286-18.351c1.936-23.867 21.919-42.631 46.286-42.631s44.35 18.764 46.286 42.631z" fill="#ff1d56"/><path d="m302.286 484.513c-12.02 11.335-28.261 18.351-46.286 18.351v-60.983c24.367.001 44.35 18.765 46.286 42.632z" fill="#dd1265"/><path d="m298.784 345.164v9.192c0 8.561-6.94 15.501-15.49 15.501h-27.294v-30.709h21.93c7.626.001 14.794 2.198 20.854 6.016z" fill="#d1f6ff"/><path d="m135.592 288.511c.1.498.199 1.009.311 1.507 6.862 30.962 37.526 50.478 68.475 43.603 6.464-1.432 12.442-3.898 17.773-7.211 20.189-12.48 31.273-36.778 25.843-61.264-6.875-30.962-37.538-50.478-68.488-43.616-30.463 6.764-49.843 36.542-43.914 66.981z" fill="#ff9f01"/><path d="m236.948 256.28c-5.52-24.86-30.14-40.53-54.99-35.02-24.46 5.43-40.02 29.34-35.26 53.78.08.4.16.81.25 1.21 5.51 24.86 30.13 40.53 54.98 35.01 5.19-1.15 9.99-3.13 14.27-5.79 16.21-10.02 25.111-29.53 20.75-49.19z" fill="#fff"/><ellipse cx="191.944" cy="266.265" fill="#29334c" rx="19.527" ry="19.527" transform="matrix(.976 -.217 .217 .976 -53.135 47.918)"/><path d="m263.697 288.511c.1.498.199 1.009.311 1.507 6.862 30.962 37.526 50.478 68.475 43.603 6.464-1.432 12.442-3.898 17.773-7.211 20.189-12.48 31.273-36.778 25.843-61.264-6.875-30.962-37.538-50.478-68.488-43.616-30.463 6.764-49.842 36.542-43.914 66.981z" fill="#c55835"/><path d="m366.526 275.04c-.08.4-.16.81-.25 1.21-5.51 24.86-30.13 40.53-54.98 35.01-5.19-1.15-9.99-3.13-14.27-5.79-16.21-10.02-25.11-29.53-20.75-49.19 5.52-24.86 30.14-40.53 54.99-35.02 24.46 5.43 40.02 29.34 35.26 53.78z" fill="#fff"/><ellipse cx="321.277" cy="266.265" fill="#29334c" rx="19.641" ry="19.641" transform="matrix(.976 -.217 .217 .976 -50.062 75.942)"/></svg>