<svg id="Capa_1" enable-background="new 0 0 512 512" height="512" viewBox="0 0 512 512" width="512" xmlns="http://www.w3.org/2000/svg"><g><g><path d="m512 256c0 43.79-11 85.02-30.39 121.07l-225.61 49.67-225.61-49.67c-19.39-36.05-30.39-77.28-30.39-121.07 0-46.63 12.47-90.34 34.26-128 41.698 72.091 399.22 76.52 443.48 0 21.79 37.66 34.26 81.37 34.26 128z" fill="#9febff"/><path d="m477.74 128c-44.26 76.52-126.99 128-221.74 128s-177.48-51.48-221.74-128c.01-.02.03-.05.04-.07 44.27-76.48 126.98-127.93 221.7-127.93s177.43 51.45 221.7 127.93c.01.02.03.05.04.07z" fill="#c4f4ff"/><path d="m481.61 377.07c-7.06 13.13-15.23 25.57-24.4 37.2-8.41 10.69-17.67-13.826-27.66-4.606-8.69 8.01-17.93 49.966-27.67 56.716-41.38 28.77-91.66 45.62-145.88 45.62s-104.5-16.85-145.88-45.62c-9.74-6.75-18.98-48.706-27.67-56.716-9.99-9.22-19.25 15.296-27.66 4.606-9.17-11.63-17.34-24.07-24.4-37.2z" fill="#70c5e9"/></g><g><path d="m84.3 183.237h343.4v29.532h-343.4z" fill="#858899"/><path d="m256 183.237h171.7v29.532h-171.7z" fill="#616579"/><path d="m138.015 154.575h47.577v86.855h-47.577z" fill="#db6870"/><path d="m161.803 154.575h23.788v86.855h-23.788z" fill="#db504f"/><path d="m199.936 154.575h47.577v86.855h-47.577z" fill="#db6870"/><path d="m330.898 154.575h47.577v86.855h-47.577z" fill="#db6870"/><g fill="#db504f"><path d="m223.724 154.575h23.788v86.855h-23.788z"/><path d="m354.687 154.575h23.788v86.855h-23.788z"/></g></g><g><path d="m84.3 289.068h343.4v29.532h-343.4z" fill="#858899"/><path d="m256 289.068h171.7v29.532h-171.7z" fill="#616579"/><path d="m138.015 260.406h47.577v86.855h-47.577z" fill="#a9eb58"/><path d="m161.803 260.406h23.788v86.855h-23.788z" fill="#79ce8b"/><path d="m264.02 260.406h47.577v86.855h-47.577z" fill="#a9eb58"/><path d="m330.898 260.406h47.577v86.855h-47.577z" fill="#a9eb58"/><g fill="#79ce8b"><path d="m287.808 260.406h23.788v86.855h-23.788z"/><path d="m354.687 260.406h23.788v86.855h-23.788z"/></g></g><g><path d="m84.3 394.898h343.4v29.532h-343.4z" fill="#858899"/><path d="m256 394.898h171.7v29.532h-171.7z" fill="#616579"/><path d="m138.015 366.237h47.577v86.855h-47.577z" fill="#8999e5"/><path d="m161.803 366.237h23.788v86.855h-23.788z" fill="#546ada"/><path d="m199.936 366.237h47.577v86.855h-47.577z" fill="#8999e5"/><path d="m264.02 366.237h47.577v86.855h-47.577z" fill="#8999e5"/><g fill="#546ada"><path d="m223.724 366.237h23.788v86.855h-23.788z"/><path d="m287.808 366.237h23.788v86.855h-23.788z"/></g></g><g><path d="m110.12 113.13v353.25c-9.74-6.75-18.98-14.18-27.67-22.19-9.99-9.22-19.25-19.23-27.66-29.92v-301.14z" fill="#eec036"/><path d="m110.12 113.13v353.25c-9.74-6.75-18.98-14.18-27.67-22.19v-331.06z" fill="#e8a440"/><path d="m457.21 113.13v301.14c-8.41 10.69-17.67 20.7-27.66 29.92-8.69 8.01-17.93 15.44-27.67 22.19v-353.25z" fill="#eec036"/><path d="m457.21 113.13v301.14c-8.41 10.69-17.67 20.7-27.66 29.92v-331.06z" fill="#e8a440"/></g></g></svg>