<?xml version="1.0" encoding="iso-8859-1"?>
<!-- Generator: Adobe Illustrator 19.0.0, SVG Export Plug-In . SVG Version: 6.00 Build 0)  -->
<svg version="1.1" id="Capa_1" xmlns="http://www.w3.org/2000/svg" xmlns:xlink="http://www.w3.org/1999/xlink" x="0px" y="0px"
	 viewBox="0 0 512 512" style="enable-background:new 0 0 512 512;" xml:space="preserve">
<path style="fill:#009A8E;" d="M399.918,467.734C358.906,495.665,309.362,512,256,512C114.615,512,0,397.385,0,256S114.615,0,256,0
	s256,114.615,256,256c0,53.362-16.335,102.906-44.266,143.918c-0.696-0.022-1.39-0.053-2.091-0.053
	c-36.328,0-65.778,29.45-65.778,65.778C399.865,466.344,399.896,467.038,399.918,467.734z"/>
<path style="fill:#FFC143;" d="M467.893,399.689c-16.55,24.358-37.196,45.703-60.939,63.068L49.243,105.046l0,0L33.644,89.447
	l58.468-58.468c1.953-1.953,5.118-1.953,7.071,0l129.919,129.919l0,0L467.893,399.689z"/>
<path style="fill:#FFAA00;" d="M399.689,467.893L145.898,214.102l0,0L30.979,99.183c-1.953-1.952-1.953-5.118,0-7.071l16.443-16.443
	l13.993,13.993l360.922,360.922C415.123,456.758,407.566,462.541,399.689,467.893z"/>
<path style="fill:#FF9500;" d="M103.226,88.758L61.89,130.094l-13.779-13.779L89.447,74.98c3.805-3.805,9.974-3.805,13.779,0
	C107.03,78.784,107.03,84.953,103.226,88.758z M123.204,123.893c-3.805-3.805-9.974-3.805-13.779,0l-26.868,26.868l13.779,13.779
	l26.868-26.868C127.009,133.867,127.009,127.698,123.204,123.893z M157.651,158.34L157.651,158.34
	c-3.805-3.805-9.974-3.805-13.779,0l-26.868,26.868l13.779,13.779l26.868-26.868C161.456,168.313,161.456,162.145,157.651,158.34z
	 M206.564,178.318c-3.805-3.805-9.974-3.805-13.779,0l-41.336,41.335l13.779,13.779l41.336-41.335
	C210.369,188.292,210.369,182.123,206.564,178.318z M226.543,227.232c-3.805-3.805-9.974-3.805-13.779,0L185.897,254.1
	l13.779,13.779l26.868-26.868C230.348,237.206,230.348,231.037,226.543,227.232z M260.989,261.678L260.989,261.678
	c-3.805-3.805-9.974-3.805-13.779,0l-26.868,26.868l13.779,13.779l26.868-26.868C264.794,271.652,264.794,265.483,260.989,261.678z
	 M309.903,281.657c-3.805-3.805-9.974-3.805-13.779,0l-41.336,41.335l13.779,13.778l41.336-41.335
	C313.708,291.631,313.708,285.462,309.903,281.657z M329.882,330.571c-3.805-3.805-9.974-3.805-13.779,0l-26.868,26.868
	l13.779,13.778l26.868-26.868C333.687,340.544,333.687,334.376,329.882,330.571z M364.328,365.017L364.328,365.017
	c-3.805-3.805-9.974-3.805-13.779,0l-26.868,26.868l13.779,13.778l26.868-26.868C368.133,374.991,368.133,368.822,364.328,365.017z
	 M413.242,384.996c-3.805-3.805-9.974-3.805-13.779,0l-41.336,41.335l13.779,13.779l41.336-41.335
	C417.047,394.969,417.047,388.801,413.242,384.996z"/>
<path style="fill:#C5D3DD;" d="M464.695,54.336l-3.055,9.166l0,0l-13.844,41.533c-0.341,1.023-0.711,2.035-1.11,3.033
	c-0.798,1.998-1.709,3.944-2.729,5.829c-2.549,4.714-5.775,9.05-9.589,12.863l-46.864,46.865l0,0L101.221,459.907
	c-18.515-14.076-35.052-30.613-49.128-49.128L385.24,77.632c6.102-6.101,13.54-10.698,21.726-13.427l50.698-16.899
	C462.009,45.857,466.143,49.991,464.695,54.336z"/>
<path style="fill:#D9E7EC;" d="M458.384,73.267l-10.589,31.768c-2.729,8.186-7.326,15.624-13.427,21.726L101.221,459.907
	c-11.105-8.442-21.503-17.764-31.081-27.873L404.891,97.283c6.102-6.102,13.54-10.699,21.726-13.427L458.384,73.267z"/>
<path style="fill:#9FACBA;" d="M91.393,371.479l49.128,49.128l-19.651,19.651L71.742,391.13L91.393,371.479z M350.303,161.697
	c-5.427-5.426-14.225-5.426-19.651,0l-29.477,29.477c-5.427,5.427-5.427,14.225,0,19.651s14.225,5.426,19.651,0l29.477-29.477
	C355.729,175.922,355.729,167.124,350.303,161.697z"/>
<g>
</g>
<g>
</g>
<g>
</g>
<g>
</g>
<g>
</g>
<g>
</g>
<g>
</g>
<g>
</g>
<g>
</g>
<g>
</g>
<g>
</g>
<g>
</g>
<g>
</g>
<g>
</g>
<g>
</g>
</svg>
