<svg id="Layer_1" enable-background="new 0 0 490.005 490.005" height="512" viewBox="0 0 490.005 490.005" width="512" xmlns="http://www.w3.org/2000/svg"><g><path d="m5.972 191.059c-3.901 17.358-5.972 35.408-5.972 53.943 0 87.954 46.356 165.069 115.96 208.284l346.046-94.482c17.871-34.006 27.999-72.719 27.999-113.803 0-135.31-109.691-245.001-245.003-245.001-95.88 0-178.882 55.085-219.124 135.326z" fill="#73c3f9"/><path d="m462.006 13.298c0-7.314-5.984-13.298-13.298-13.298h-319.45c-7.314 0-13.298 5.984-13.298 13.298v83.708l11.111-5.065c7.797-3.555 16.741-3.554 24.538 0l138.404 63.096c10.876 4.959 10.892 20.419 0 25.386l-52.033 23.721v57.804c0 6.472-10.401 13.366-27.822 18.444-25.523 7.439-61.454 10.015-94.198 7.737v165.159c37.476 23.268 81.685 36.718 129.042 36.718 94.227 0 176.016-53.203 217.004-131.199z" fill="#e9efff"/><g fill="#d3dcfb"><path d="m262.796 0h-133.538c-7.314 0-13.298 5.984-13.298 13.298v83.708l11.111-5.065c7.797-3.555 16.741-3.555 24.538 0l127.409 58.083c-5.527-15.584-2.975-31.694-.835-40.24.848-3.39-.234-6.995-2.846-9.316-6.093-5.414-5.731-12.652-4.433-17.635.928-3.563-.21-7.338-3.023-9.714-28.723-24.257-12.543-58.325-6.322-69.05.729-1.256 1.136-2.65 1.237-4.069z"/><path d="m303.807 178.335c-2.558-1.412-4.872-2.929-7.007-4.514-1.315 2.754-3.572 5.136-6.786 6.601l-52.033 23.721v57.804c0 6.472-10.401 13.366-27.822 18.444-25.523 7.438-61.455 10.015-94.198 7.737v165.159c37.476 23.268 81.685 36.718 129.042 36.718 5.021 0 10.005-.161 14.952-.458-24.986-19.292-25.51-46.54-25.51-46.54v-62.693c0-15.438 6.614-30.272 18.495-40.131 36.494-30.284 28.835-80.008 28.835-107.124 0-20.918 12.318-28.275 20.325-30.848 3.97-1.276 6.711-4.902 6.711-9.072v-6.427c-.001-3.5-1.941-6.686-5.004-8.377z"/></g><g><g><path d="m359.313 124.077c-42.675-27.74-97.974-27.746-140.658 0-6.249 4.066-14.612 2.291-18.676-3.961-4.064-6.251-2.29-14.612 3.961-18.676 51.622-33.558 118.453-33.566 170.088 0 6.251 4.063 8.024 12.425 3.961 18.676-4.036 6.207-12.384 8.052-18.676 3.961z" fill="#ff4155"/></g></g><path d="m218.654 124.077c18.061-11.74 38.38-18.491 59.046-20.295-.53-1.244-1.317-2.384-2.363-3.313-6.093-5.414-5.731-12.652-4.433-17.635.48-1.845.397-3.743-.176-5.478-23.391 2.744-46.29 10.759-66.788 24.084-6.251 4.063-8.025 12.425-3.961 18.676 4.063 6.252 12.426 8.027 18.675 3.961z" fill="#e80054"/><g><path d="m339.235 200.842h-30.426c-5.523 0-10-4.478-10-10s4.477-10 10-10h30.426c5.523 0 10 4.478 10 10 0 5.523-4.477 10-10 10z" fill="#ffdd40"/></g><g><path d="m410.523 233.059h-150.42c-4.142 0-7.5-3.357-7.5-7.5s3.358-7.5 7.5-7.5h150.42c4.142 0 7.5 3.357 7.5 7.5 0 4.142-3.358 7.5-7.5 7.5z" fill="#bec8f7"/></g><g><path d="m410.523 262.756h-150.42c-4.142 0-7.5-3.357-7.5-7.5s3.358-7.5 7.5-7.5h150.42c4.142 0 7.5 3.357 7.5 7.5s-3.358 7.5-7.5 7.5z" fill="#bec8f7"/></g><g><path d="m410.523 292.454h-161.42c-4.142 0-7.5-3.357-7.5-7.5 0-4.142 3.358-7.5 7.5-7.5h161.42c4.142 0 7.5 3.358 7.5 7.5 0 4.143-3.358 7.5-7.5 7.5z" fill="#bec8f7"/></g><g><path d="m410.523 322.152h-243.079c-4.142 0-7.5-3.357-7.5-7.5s3.358-7.5 7.5-7.5h243.079c4.142 0 7.5 3.357 7.5 7.5 0 4.142-3.358 7.5-7.5 7.5z" fill="#bec8f7"/></g><g><path d="m410.523 351.849h-243.079c-4.142 0-7.5-3.357-7.5-7.5s3.358-7.5 7.5-7.5h243.079c4.142 0 7.5 3.357 7.5 7.5s-3.358 7.5-7.5 7.5z" fill="#bec8f7"/></g><g><path d="m396.103 394.131h-21.232c-4.142 0-7.5-3.357-7.5-7.5s3.358-7.5 7.5-7.5h21.232c4.142 0 7.5 3.357 7.5 7.5s-3.358 7.5-7.5 7.5z" fill="#bec8f7"/></g><path d="m410.523 410.829c-.683 0-.683 0-1.756-.722-1.822-1.227-4.871-3.278-10.131-3.278s-8.309 2.052-10.131 3.278c-1.073.722-1.073.722-1.756.722-.68 0-.68 0-1.75-.721-1.821-1.227-4.869-3.279-10.129-3.279-4.142 0-7.5 3.358-7.5 7.5 0 4.143 3.358 7.5 7.5 7.5.68 0 .68 0 1.75.721 1.821 1.227 4.869 3.279 10.129 3.279s8.309-2.052 10.131-3.278c1.073-.722 1.073-.722 1.756-.722s.683 0 1.756.722c1.797 1.21 4.796 3.212 9.922 3.268 2.619-2.396 5.189-4.844 7.702-7.35.001-.047.007-.092.007-.139 0-4.143-3.358-7.501-7.5-7.501z" fill="#bec8f7"/><g><path d="m292.39 394.131h-21.233c-4.142 0-7.5-3.357-7.5-7.5s3.358-7.5 7.5-7.5h21.233c4.142 0 7.5 3.357 7.5 7.5s-3.358 7.5-7.5 7.5z" fill="#bec8f7"/></g><g><path d="m306.809 425.829c-5.26 0-8.309-2.052-10.131-3.278-1.073-.722-1.073-.722-1.756-.722s-.683 0-1.756.722c-1.822 1.227-4.871 3.278-10.131 3.278s-8.308-2.053-10.129-3.279c-1.07-.721-1.07-.721-1.75-.721-4.142 0-7.5-3.357-7.5-7.5 0-4.142 3.358-7.5 7.5-7.5 5.26 0 8.308 2.053 10.129 3.279 1.07.721 1.07.721 1.75.721.683 0 .683 0 1.756-.722 1.822-1.227 4.871-3.278 10.131-3.278s8.309 2.052 10.131 3.278c1.073.722 1.073.722 1.756.722 4.142 0 7.5 3.358 7.5 7.5 0 4.143-3.357 7.5-7.5 7.5z" fill="#bec8f7"/></g><g><path d="m188.676 394.131h-21.232c-4.142 0-7.5-3.357-7.5-7.5s3.358-7.5 7.5-7.5h21.232c4.142 0 7.5 3.357 7.5 7.5s-3.358 7.5-7.5 7.5z" fill="#bec8f7"/></g><g><path d="m203.096 425.829c-5.26 0-8.309-2.052-10.131-3.278-1.073-.722-1.073-.722-1.756-.722s-.683 0-1.756.722c-1.822 1.227-4.87 3.278-10.131 3.278-5.26 0-8.308-2.053-10.129-3.279-1.07-.721-1.07-.721-1.749-.721-4.142 0-7.5-3.357-7.5-7.5 0-4.142 3.358-7.5 7.5-7.5 5.26 0 8.308 2.053 10.128 3.279 1.07.721 1.07.721 1.75.721.683 0 .683 0 1.756-.722 1.822-1.227 4.871-3.278 10.131-3.278s8.309 2.052 10.131 3.278c1.073.722 1.073.722 1.756.722 4.142 0 7.5 3.358 7.5 7.5 0 4.143-3.358 7.5-7.5 7.5z" fill="#bec8f7"/></g><g><ellipse cx="139.34" cy="261.947" fill="#1c2e7a" rx="101.14" ry="29.478"/></g><g><path d="m139.34 232.469c-1.701 0-3.392.013-5.073.037-1.64 1.94-2.589 3.07-2.589 3.07s60.481 25.245 4.424 55.826c1.077.01 2.152.024 3.237.024 55.858 0 101.14-13.198 101.14-29.478.001-16.281-45.28-29.479-101.139-29.479z" fill="#142766"/></g><path d="m291.051 152.763-138.404-63.097c-8.452-3.853-18.16-3.853-26.612 0l-100.157 45.66c-8.77 17.487-15.509 36.165-19.906 55.732l34.68 15.81v-14.417c0-6.494 10.414-13.407 27.858-18.492 39.089-11.393 102.592-11.388 141.662 0 17.444 5.085 27.858 11.997 27.858 18.492v14.417l53.021-24.172c12.834-5.85 12.834-24.082 0-29.933z" fill="#3c58a0"/><path d="m126.034 89.667-100.156 45.659c-8.77 17.487-15.509 36.165-19.906 55.732l34.68 15.81v-14.417c0-6.494 10.414-13.407 27.858-18.492 17.514-5.105 39.932-7.914 62.855-8.443 4.174-1.778 7.976-2.544 7.976-2.544-55.828-29.638-13.307-73.305-13.307-73.305z" fill="#2a428c"/><g><path d="m139.341 162.973c-55.858 0-101.14 13.198-101.14 29.478v69.496h.526c5.194-14.86 48.258-26.455 100.614-26.455s95.419 11.595 100.614 26.455h.526v-69.496c-.001-16.28-45.282-29.478-101.14-29.478z" fill="#2a428c"/></g><g><path d="m139.341 162.973c-55.858 0-101.14 13.198-101.14 29.478v69.496h.526c4.938-14.128 44.113-25.296 92.952-26.363v-.008c-11.271-4.344-11.044-15.865-11.044-15.865s0-32.454 0-42.719 18.706-14.019 18.706-14.019z" fill="#1c2e7a"/></g><g><g><path d="m199.798 304.648c-7.395 0-13.389-5.994-13.389-13.389v-37.912c0-7.395 5.994-13.389 13.389-13.389s13.389 5.994 13.389 13.389v37.912c0 7.395-5.995 13.389-13.389 13.389z" fill="#ffdd40"/></g></g><g><path d="m199.798 239.958c-7.395 0-13.389 5.994-13.389 13.389v33.751c0-7.395 5.994-13.389 13.389-13.389s13.389 5.994 13.389 13.389v-33.751c0-7.395-5.995-13.389-13.389-13.389z" fill="#ffb332"/></g><g><g><path d="m199.798 232.518c-5.546 0-10.042-4.496-10.042-10.042v-118.454c0-5.546 4.496-10.042 10.042-10.042s10.042 4.496 10.042 10.042v118.455c-.001 5.545-4.496 10.041-10.042 10.041z" fill="#ffdd40"/></g></g><g><path d="m218.792 238.705c0 10.491-8.504 18.995-18.995 18.995-10.49 0-18.994-8.504-18.994-18.995 0-10.49 8.504-18.994 18.994-18.994 10.491 0 18.995 8.504 18.995 18.994z" fill="#ffb332"/></g><g><path d="m211.482 234.969c0 4.809-3.898 8.707-8.706 8.707-4.809 0-8.707-3.898-8.707-8.707s3.898-8.706 8.707-8.706c4.808-.001 8.706 3.897 8.706 8.706z" fill="#ffdd40"/></g></g></svg>