<svg id="Icons" enable-background="new 0 0 512 512" height="512" viewBox="0 0 512 512" width="512" xmlns="http://www.w3.org/2000/svg"><g><path d="m512 256c0 36.74-7.74 71.68-21.69 103.26-3.88 8.82-8.26 17.38-13.1 25.64-3.24 5.58-6.71 11.02-10.36 16.32-.49.71-.98 1.42-1.48 2.12-2.79 3.95-5.68 7.83-8.69 11.61-3.32 4.2-6.78 8.29-10.37 12.27-46.86 52.05-114.76 84.78-190.31 84.78s-143.45-32.73-190.31-84.78c-6.61-7.34-12.81-15.07-18.54-23.15-29.69-41.8-47.15-92.9-47.15-148.07 0-61.78 21.89-118.45 58.33-162.68 3.19-3.87 6.49-7.65 9.89-11.32 3.08-3.32 6.24-6.55 9.48-9.7 46.1-44.74 108.98-72.3 178.3-72.3 18.56 0 36.65 1.98 54.09 5.73 1.88.4 3.75.83 5.61 1.28 3.78.89 7.53 1.88 11.24 2.95 7.94 2.28 15.72 4.94 23.32 7.95 2.61 1.04 5.19 2.11 7.76 3.23 90.62 39.42 153.98 129.74 153.98 234.86z" fill="#22bce0"/><g><path d="m446.29 427.22c-101.48 113.057-279.312 112.836-380.59 0z" fill="#d48d77"/><g fill="#c17e62"><path d="m315.26 427.22c.02 22.786-92.794 32.493-129.13 31.969-26.779.328-53.225-1.002-78.17-4.449-5.83-.81-11.38-1.72-16.61-2.72-9.119-7.654-17.685-15.957-25.65-24.8z"/><path d="m446.29 427.22c-10.471 11.651-22.02 22.355-34.46 31.89-20.026-.629-43.362-4.107-60.47-12.11-9.134-4.5-18.113-10.207-18.53-19.78z"/><g><path d="m172.31 498v-53.56c-.089-6.089 7.607-9.213 11.79-4.89 1.26 1.25 2.03 2.98 2.03 4.89v57.9z"/><path d="m156.45 427.22v24.17c0 3.82-3.09 6.91-6.91 6.91-3.81 0-6.91-3.09-6.91-6.91v-24.17z"/><path d="m121.78 427.22v46.81c-4.71-2.9-9.32-5.96-13.82-9.16v-37.65z"/><path d="m87.68 434.76v14.12c-4.77-4.17-9.38-8.5-13.82-13.01-.778-9.896 13.24-10.961 13.82-1.11z"/><path d="m235.11 427.22v56.83c0 3.82-3.09 6.91-6.91 6.91s-6.91-3.09-6.91-6.91v-56.83z"/><path d="m270.12 483.74v27.87c-4.58.26-9.19.38-13.83.39v-28.26c.328-9.149 13.497-9.141 13.83 0z"/><path d="m311.31 450.09v55.91c-4.56 1.01-9.17 1.9-13.82 2.65v-58.56c.309-9.148 13.509-9.144 13.82 0z"/><path d="m351.36 427.22v66.43c-4.54 1.82-9.15 3.52-13.82 5.09v-71.52z"/><path d="m391.33 450.09v23.26c-4.52 2.81-9.12 5.49-13.82 8.02v-31.28c.275-9.133 13.551-9.136 13.82 0z"/><path d="m428.53 427.22v17.9c-4.46 4.08-9.07 8-13.82 11.75v-29.65z"/></g></g><g fill="#a26d5a"><path d="m186.13 444.44v14.75c-4.561.053-9.244.069-13.82.02v-14.77c.31-9.15 13.51-9.141 13.82 0z"/><path d="m156.45 427.22v24.17c0 3.82-3.09 6.91-6.91 6.91-3.81 0-6.91-3.09-6.91-6.91v-24.17z"/><path d="m121.78 427.22v29.2c-4.76-.5-9.37-1.06-13.82-1.68v-27.52z"/><path d="m87.68 434.76v14.12c-4.77-4.17-9.38-8.5-13.82-13.01-.778-9.896 13.24-10.961 13.82-1.11z"/><path d="m235.11 427.22v29.13c-4.48.48-9.09.91-13.82 1.27v-30.4z"/><path d="m351.36 427.22v19.78c-5.93-2.78-10.63-5.93-13.82-9.34v-10.44z"/><path d="m391.33 450.09v7.42c-4.81-.61-9.43-1.38-13.82-2.28v-5.14c.276-9.135 13.551-9.135 13.82 0z"/><path d="m428.53 427.22v17.9c-4.46 4.08-9.07 8-13.82 11.75v-29.65z"/></g></g><g id="Pitcher_3_"><g><path d="m490.31 359.26c-10.955 24.841-25.849 47.806-44 67.96h-84.71c-4.56 0-8.77-1.02-12.49-2.81-13.61-6.57-20.63-23.45-13.37-38.44 14.601-29.602 41.54-87.025 56.489-116.07 5.271-7.883 14.334-12.714 23.851-12.7.914.008 7.361-.038 8.15.04 3.587.137 7.124 1.02 10.4 2.46 4.855 2.198 9.119 5.732 12.09 10.18.01 0 .01.01.02.02v.01c1.16 1.119 13.753 27.973 14.9 30.12 2.84 5.828 26.532 54.811 28.67 59.23z" fill="#c1b7d3"/><path d="m392.228 207.515h54.515v82.373h-54.515z" fill="#c1b7d3"/><path d="m490.31 359.26c-6.837 15.52-15.203 30.246-24.94 44.08h-69.14c-20.649.163-35.205-21.79-25.94-41.14 15.453-31.879 35.533-73.426 50.83-105 10.002-.538 20.061 4.279 25.6 12.68.01 0 .01.01.02.02v.01c1.281 1.344 13.727 27.927 14.96 30.25h.01l24.5 50.64h.01z" fill="#ebd9ea"/><path d="m450.068 292.866h-3.067c-4.957 0-9.477 2.834-11.637 7.296l-24.51 50.636c-4.156 8.585 2.099 18.561 11.637 18.561h52.086c9.538 0 15.792-9.976 11.637-18.561l-24.51-50.636c-2.159-4.462-6.679-7.296-11.636-7.296z" fill="#fff"/><path d="m413.353 224.764h33.391v52.271h-33.391z" fill="#ebd9ea"/><path d="m436.225 277.035c-5.809 0-10.519-4.709-10.519-10.518v-23.291c.561-13.951 20.472-13.958 21.037 0v23.291c0 5.808-4.709 10.518-10.518 10.518z" fill="#fff"/><path d="m456.68 414.95c-3.32 4.2-6.78 8.29-10.37 12.27h-84.71c-4.56 0-8.77-1.02-12.49-2.81 1.26-5.43 6.12-9.46 11.93-9.46z" fill="#9f90ae"/></g><g><path d="m472.937 211.376c.01 7.43-6.031 13.526-13.533 13.524h-79.841c-4.237-.013-7.977-1.908-10.492-5.004v-.009c-7.151-8.561-.832-22.14 10.493-22.043h79.841c7.468-.014 13.544 6.097 13.532 13.532z" fill="#ebd9ea"/><path d="m469.915 219.895c-2.484 3.058-6.269 5.004-10.51 5.004h-79.841c-4.237-.013-7.977-1.908-10.492-5.004v-.009c2.475-3.058 6.251-5.004 10.492-5.004h79.841c4.234.013 7.99 1.912 10.51 5.013z" fill="#c1b7d3"/><path d="m469.699 202.596c-2.484 2.906-6.17 4.753-10.295 4.753h-79.841c-4.126-.01-7.769-1.813-10.286-4.753 2.475-2.906 6.161-4.753 10.286-4.753h79.841c4.117.01 7.78 1.812 10.295 4.753z" fill="#fff"/></g><g><path d="m477.21 384.9c-3.24 5.58-6.71 11.02-10.36 16.32-2.645 1.377-5.732 2.125-8.79 2.12h-77.14c-13.611.198-23.574-14.619-17.24-27.48 4.31-8.887 24.326-50.271 29.05-60.01 0 0 7.25-14.99 7.25-14.99.04-.07.07-.15.11-.22 3.24-6.47 9.86-10.59 17.12-10.59h4.55c5.925-.014 11.68 2.841 15.22 7.57 1.689 1.924 5.136 9.898 6.38 12.27 5.584 11.539 23.431 48.381 28.78 59.47h.01l3.14 6.5c1.44 2.97 2.04 6.06 1.92 9.04z" fill="#d7156f"/><path d="m477.21 384.9c-3.24 5.58-6.71 11.02-10.36 16.32-1.623.84-3.407 1.466-5.3 1.8-5.93-1.09-11.08-4.93-13.77-10.48l-11.22-23.18c-5.281-10.911-20.014-41.341-25.08-51.81-5.62-11.63 1.64-24.99 13.73-27.18 5.962 1.061 11.147 5.061 13.78 10.49 0 0 4.37 9.03 4.37 9.03l1.63 3.37 20.97 43.33h.01l6.17 12.77h.01l3.14 6.5c1.44 2.97 2.04 6.06 1.92 9.04z" fill="#df3d81"/><path d="m404.915 342.675-29.047 60.004c-11.147-2.995-17.568-15.703-12.187-26.823l29.047-60.004c11.147 2.995 17.568 15.694 12.187 26.823z" fill="#b82065"/><path d="m465.969 356.593c-3.794-.172-16.265.52-19.72-.663-11.147-2.995-17.568-15.703-12.187-26.823l9.3-19.218z" fill="#ed72ab"/></g></g><g><g><g><path d="m282.541 265.757v103.09c-.05 17.366-21.103 25.669-33.005 13.671-3.496-3.502-5.663-8.332-5.663-13.671v-103.09z" fill="#9f90ae"/><path d="m282.541 265.757v103.09c0 8.262-5.179 15.307-12.466 18.076-7.414-2.83-12.46-9.889-12.472-18.076v-103.09z" fill="#ebd9ea"/><g><path d="m298.253 256.888c.007 4.872-3.955 8.869-8.874 8.868h-52.354c-2.778-.009-5.231-1.251-6.88-3.281v-.006c-4.697-5.565-.515-14.557 6.88-14.454h52.354c4.898-.009 8.882 3.998 8.874 8.873z" fill="#ebd9ea"/><path d="m296.272 262.475c-1.629 2.005-4.11 3.281-6.892 3.281h-52.354c-2.778-.009-5.231-1.251-6.88-3.281v-.006c1.623-2.005 4.099-3.281 6.88-3.281h52.354c2.777.008 5.24 1.253 6.892 3.287z" fill="#c1b7d3"/><path d="m296.131 251.131c-1.629 1.905-4.046 3.117-6.751 3.117h-52.354c-2.705-.006-5.094-1.189-6.745-3.117 1.623-1.905 4.04-3.117 6.745-3.117h52.354c2.699.007 5.101 1.189 6.751 3.117z" fill="#fff"/></g><path d="m275.236 295.255v68.856c.029 6.693-5.547 12.071-12.029 12.023-6.518.05-12.074-5.397-12.029-12.023v-68.856z" fill="#57409b"/><path d="m275.236 295.254v68.857c.158 8.453-8.981 14.397-16.541 11.143-.443-1.246-.685-2.592-.685-3.992v-76.008z" fill="#6c53a2"/><path d="m275.236 295.254v54.312c-5.651-.968-9.962-5.967-9.945-11.84v-42.471h9.945z" fill="#9175a7"/><path d="m278.888 272.912c-2.017 0-3.652 1.635-3.652 3.652v53.739c0 2.017 1.635 3.653 3.652 3.653s3.652-1.635 3.652-3.653v-53.739c.001-2.017-1.634-3.652-3.652-3.652z" fill="#fff"/></g><g><path d="m197.446 265.757v103.09c-.05 17.366-21.103 25.669-33.005 13.671-3.496-3.502-5.663-8.332-5.663-13.671v-103.09z" fill="#9f90ae"/><path d="m197.446 265.757v103.09c0 8.262-5.179 15.307-12.466 18.076-7.414-2.83-12.46-9.889-12.472-18.076v-103.09z" fill="#ebd9ea"/><g><path d="m213.158 256.888c.007 4.872-3.955 8.869-8.874 8.868h-52.354c-2.778-.009-5.231-1.251-6.88-3.281v-.006c-4.697-5.565-.515-14.557 6.88-14.454h52.354c4.898-.009 8.882 3.998 8.874 8.873z" fill="#ebd9ea"/><path d="m211.176 262.475c-1.629 2.005-4.11 3.281-6.892 3.281h-52.354c-2.778-.009-5.231-1.251-6.88-3.281v-.006c1.623-2.005 4.099-3.281 6.88-3.281h52.354c2.777.008 5.24 1.253 6.892 3.287z" fill="#c1b7d3"/><path d="m211.035 251.131c-1.629 1.905-4.046 3.117-6.751 3.117h-52.354c-2.705-.006-5.094-1.189-6.745-3.117 1.623-1.905 4.04-3.117 6.745-3.117h52.354c2.7.007 5.102 1.189 6.751 3.117z" fill="#fff"/></g><path d="m190.141 295.255v68.856c.029 6.693-5.547 12.071-12.029 12.023-6.518.05-12.074-5.397-12.029-12.023v-68.856z" fill="#bf5e39"/><path d="m190.141 295.254v68.857c.158 8.453-8.981 14.397-16.541 11.143-.443-1.246-.685-2.592-.685-3.992v-76.008z" fill="#ea792e"/><path d="m190.141 295.254v54.312c-5.651-.968-9.962-5.967-9.945-11.84v-42.471h9.945z" fill="#f39e22"/><path d="m193.793 272.912c-2.017 0-3.653 1.635-3.653 3.652v53.739c0 2.017 1.635 3.653 3.653 3.653 2.017 0 3.652-1.635 3.652-3.653v-53.739c.001-2.017-1.635-3.652-3.652-3.652z" fill="#fff"/></g><g><path d="m112.35 265.757v103.09c-.05 17.366-21.103 25.669-33.005 13.671-3.496-3.502-5.663-8.332-5.663-13.671v-103.09z" fill="#9f90ae"/><path d="m112.35 265.757v103.09c0 8.262-5.179 15.307-12.466 18.076-7.414-2.83-12.46-9.889-12.472-18.076v-103.09z" fill="#ebd9ea"/><g><path d="m128.062 256.888c.007 4.872-3.955 8.869-8.874 8.868h-52.353c-2.778-.009-5.231-1.251-6.88-3.281v-.006c-4.697-5.565-.515-14.557 6.88-14.454h52.354c4.897-.009 8.882 3.998 8.873 8.873z" fill="#ebd9ea"/><path d="m126.081 262.475c-1.629 2.005-4.11 3.281-6.892 3.281h-52.354c-2.778-.009-5.231-1.251-6.88-3.281v-.006c1.623-2.005 4.099-3.281 6.88-3.281h52.354c2.777.008 5.24 1.253 6.892 3.287z" fill="#c1b7d3"/><path d="m125.94 251.131c-1.629 1.905-4.046 3.117-6.751 3.117h-52.354c-2.706-.006-5.094-1.189-6.745-3.117 1.623-1.905 4.04-3.117 6.745-3.117h52.354c2.699.007 5.101 1.189 6.751 3.117z" fill="#fff"/></g><path d="m105.045 295.255v68.856c.029 6.693-5.547 12.071-12.029 12.023-6.518.05-12.074-5.397-12.029-12.023v-68.856z" fill="#c0405c"/><path d="m105.045 295.254v68.857c.158 8.453-8.981 14.397-16.541 11.143-.443-1.246-.685-2.592-.685-3.992v-76.008z" fill="#e9465e"/><path d="m105.045 295.254v54.312c-5.651-.968-9.962-5.967-9.945-11.84v-42.471h9.945z" fill="#ee6781"/><path d="m108.698 272.912c-2.017 0-3.653 1.635-3.653 3.652v53.739c0 2.017 1.635 3.653 3.653 3.653s3.652-1.635 3.652-3.653v-53.739c0-2.017-1.635-3.652-3.652-3.652z" fill="#fff"/></g><path d="m315.261 324.25c.049 6.716-5.583 12.464-12.42 12.41h-249.47c-6.85 0-12.41-5.56-12.41-12.41-.001-6.856 5.56-12.418 12.41-12.42h249.47c6.86 0 12.42 5.56 12.42 12.42z" fill="#d48d77"/><path d="m315.261 324.25c0 1.4-.23 2.75-.67 4.01h-249.19c-8.353.159-14.576-8.611-11.74-16.43h249.18c6.86 0 12.42 5.56 12.42 12.42z" fill="#eea47d"/><path d="m282.361 322.41h-156.72c-6.942-.194-7.035-10.354 0-10.581h156.719c6.943.195 7.036 10.355.001 10.581z" fill="#f5b890"/><path d="m315.26 414.81c.054 6.716-5.587 12.463-12.42 12.41h-237.15c-6.61-7.34-12.81-15.07-18.54-23.15 1.83-1.07 3.96-1.68 6.22-1.68h249.48c6.86.01 12.41 5.56 12.41 12.42z" fill="#d48d77"/><path d="m315.261 414.814c0 1.4-.23 2.75-.67 4.01h-249.19c-8.353.159-14.576-8.611-11.74-16.43h249.18c6.86 0 12.42 5.56 12.42 12.42z" fill="#eea47d"/><path d="m282.361 412.974h-156.72c-6.942-.194-7.035-10.354 0-10.581h156.719c6.943.195 7.036 10.355.001 10.581z" fill="#f5b890"/><path d="m53.371 336.66h20.311v65.734h-20.311z" fill="#d48d77"/><path d="m63.526 346.486h10.155v55.908h-10.155z" fill="#eea47d"/><path d="m282.541 336.66h20.311v65.734h-20.311z" fill="#d48d77"/><path d="m292.696 346.486h10.155v55.908h-10.155z" fill="#eea47d"/></g><g><g><path d="m190.14 216.67c.037 6.494-5.329 12.052-12.03 12.03-12.031-.057-16.443-15.769-6.48-22.17 7.767-5.13 18.65.754 18.51 10.14z" fill="#bf5e39"/><path d="m190.14 216.67c0 1.66-.34 3.25-.95 4.69-9.892 6.345-22.15-3.97-17.56-14.83 7.767-5.131 18.65.756 18.51 10.14z" fill="#ea792e"/><path d="m187.063 213.272c-.232-7.517-11.143-7.515-11.374 0 .232 7.517 11.143 7.515 11.374 0z" fill="#f39e22"/></g><g><path d="m214.87 151.321c.051 8.938-7.335 16.589-16.558 16.558-16.601-.145-22.633-21.624-8.919-30.515 10.69-7.06 25.67 1.038 25.477 13.957z" fill="#bf5e39"/><path d="m214.87 151.321c0 2.285-.468 4.473-1.308 6.455-13.616 8.732-30.486-5.464-24.169-20.412 10.691-7.062 25.67 1.04 25.477 13.957z" fill="#ea792e"/><path d="m210.635 146.644c0-4.323-3.504-7.827-7.827-7.827-10.372.384-10.369 15.273 0 15.655 4.322-.001 7.827-3.506 7.827-7.828z" fill="#f39e22"/></g><g><path d="m192.24 90.297c.051 8.938-7.335 16.589-16.558 16.558-16.601-.145-22.633-21.624-8.919-30.515 10.69-7.06 25.67 1.038 25.477 13.957z" fill="#bf5e39"/><path d="m192.24 90.297c0 2.285-.468 4.473-1.308 6.455-13.616 8.732-30.486-5.464-24.169-20.412 10.691-7.062 25.67 1.041 25.477 13.957z" fill="#ea792e"/><path d="m188.005 85.62c0-4.323-3.504-7.827-7.827-7.827-10.372.384-10.369 15.273 0 15.655 4.322-.001 7.827-3.505 7.827-7.828z" fill="#f39e22"/></g><g><path d="m259.034 39.993c.081 14.132-11.598 26.229-26.181 26.18-26.249-.229-35.785-34.19-14.101-48.247 17.025-11.132 40.49 1.558 40.282 22.067z" fill="#bf5e39"/><path d="m259.034 39.993c0 3.612-.74 7.073-2.068 10.206-21.632 13.761-48.14-8.545-38.215-32.273 17.028-11.134 40.492 1.562 40.283 22.067z" fill="#ea792e"/><path d="m252.337 32.597c0-6.835-5.541-12.376-12.376-12.376-16.416.652-16.412 24.102 0 24.752 6.835 0 12.376-5.541 12.376-12.376z" fill="#f39e22"/></g></g><g><g><path d="m99.437 224.899c.037 6.494-5.329 12.052-12.03 12.03-12.031-.057-16.443-15.769-6.48-22.17 7.766-5.129 18.65.754 18.51 10.14z" fill="#c0405c"/><path d="m99.437 224.899c0 1.66-.34 3.25-.95 4.69-9.892 6.345-22.15-3.97-17.56-14.83 7.767-5.131 18.65.756 18.51 10.14z" fill="#e9465e"/><path d="m96.36 221.501c-.232-7.517-11.143-7.515-11.374 0 .232 7.517 11.143 7.515 11.374 0z" fill="#ee6781"/></g><g><path d="m128.901 176.963c.051 8.938-7.335 16.589-16.558 16.558-16.601-.145-22.633-21.624-8.919-30.515 10.69-7.06 25.67 1.038 25.477 13.957z" fill="#c0405c"/><path d="m128.901 176.963c0 2.285-.468 4.473-1.308 6.455-13.616 8.732-30.486-5.464-24.169-20.412 10.691-7.062 25.67 1.04 25.477 13.957z" fill="#e9465e"/><path d="m124.666 172.286c0-4.323-3.504-7.827-7.827-7.827-10.372.384-10.369 15.273 0 15.655 4.322-.001 7.827-3.506 7.827-7.828z" fill="#ee6781"/></g><g><path d="m110.31 97.68c.081 14.14-11.607 26.227-26.19 26.18-16.02.158-28.572-14.8-25.79-30.54 6.064-7.365 12.534-14.381 19.37-21.02 16.205-4.317 32.86 8.577 32.61 25.38z" fill="#c0405c"/><path d="m110.31 97.68c0 3.62-.74 7.08-2.07 10.21-18.633 12.139-43.427-3.745-40.02-25.89 3.08-3.32 6.24-6.55 9.48-9.7 16.205-4.32 32.859 8.579 32.61 25.38z" fill="#e9465e"/><path d="m103.608 90.288c0-6.835-5.541-12.376-12.376-12.376-16.416.652-16.412 24.102 0 24.752 6.835-.001 12.376-5.541 12.376-12.376z" fill="#ee6781"/></g></g><g><g><path d="m278.648 195.555c.037 6.494-5.329 12.052-12.03 12.03-12.031-.057-16.443-15.769-6.48-22.17 7.767-5.13 18.65.754 18.51 10.14z" fill="#57409b"/><path d="m278.648 195.555c0 1.66-.34 3.25-.95 4.69-9.892 6.345-22.15-3.97-17.56-14.83 7.767-5.131 18.65.755 18.51 10.14z" fill="#6c53a2"/><path d="m275.571 192.156c-.232-7.517-11.143-7.515-11.374 0 .232 7.517 11.143 7.516 11.374 0z" fill="#9175a7"/></g><g><path d="m291.787 134.763c.051 8.938-7.335 16.589-16.558 16.558-16.601-.145-22.633-21.624-8.919-30.515 10.69-7.06 25.67 1.038 25.477 13.957z" fill="#57409b"/><path d="m291.787 134.763c0 2.285-.468 4.473-1.308 6.455-13.616 8.732-30.486-5.464-24.169-20.412 10.691-7.062 25.67 1.041 25.477 13.957z" fill="#6c53a2"/><path d="m287.551 130.086c0-4.323-3.504-7.827-7.827-7.827-10.372.384-10.369 15.273 0 15.655 4.323-.001 7.827-3.505 7.827-7.828z" fill="#9175a7"/></g><g><path d="m343.938 86.56c.051 8.938-7.335 16.589-16.558 16.558-16.601-.145-22.633-21.624-8.919-30.515 10.69-7.06 25.67 1.038 25.477 13.957z" fill="#57409b"/><path d="m343.938 86.56c0 2.285-.468 4.473-1.308 6.455-13.616 8.732-30.486-5.464-24.169-20.412 10.691-7.062 25.67 1.041 25.477 13.957z" fill="#6c53a2"/><path d="m339.703 81.883c0-4.323-3.504-7.827-7.827-7.827-10.372.384-10.369 15.273 0 15.655 4.322-.001 7.827-3.505 7.827-7.828z" fill="#9175a7"/></g><g><path d="m350.26 17.91c-12.956-5.139-26.488-9.239-40.17-12.18-11.571 16.957 1.068 40.88 21.77 40.67 14.24.043 25.772-11.49 26.16-25.26-2.57-1.12-5.15-2.19-7.76-3.23z" fill="#57409b"/><path d="m350.26 17.91c-11.178-4.425-22.798-8.114-34.56-10.9-1.305 21.15 22.743 34.957 40.28 23.42 1.21-2.87 1.93-6.01 2.04-9.29-2.57-1.12-5.15-2.19-7.76-3.23z" fill="#6c53a2"/><path d="m350.26 17.91c-6.434 13.412-26.403 6.783-23.32-7.95 7.94 2.28 15.72 4.94 23.32 7.95z" fill="#9175a7"/></g></g></g></g></svg>