<svg id="Capa_1" enable-background="new 0 0 512 512" height="512" viewBox="0 0 512 512" width="512" xmlns="http://www.w3.org/2000/svg"><circle cx="256" cy="256" fill="#65b2fe" r="256"/><path d="m512 256c0 87.11-43.52 164.07-110 210.31-41.41 28.8-91.73 45.69-146 45.69s-104.59-16.89-146-45.69c-66.48-46.24-110-123.2-110-210.31 0-46.22 12.25-89.57 33.68-127 44.12 77.07 127.16 129 222.32 129s178.21-51.93 222.32-129c21.43 37.43 33.68 80.78 33.68 127z" fill="#0e9ce7"/><path d="m440.64 243.62-71.73 29.04c-3.29 1.33-4.77 5.18-3.21 8.37l15.26 31.17c2.49 5.09-2.68 10.55-7.91 8.33l-43.68-18.56c-3.64-1.55-7.78.72-8.44 4.62l-7.26 42.99c-.94 5.57-8.27 7.01-11.25 2.22l-31.64-50.94c-2.35-3.79-7.84-3.88-10.31-.17l-4.47 6.71-25.61 38.41c-3.1 4.66-10.3 3.06-11.16-2.47l-5.03-32.7c-.66-4.32-5.49-6.57-9.22-4.32l-50.42 30.41c-4.45 2.69-10.02-1.05-9.22-6.19l7.12-45.9c.46-2.95-1.27-5.8-4.1-6.75l-86.62-29.18c-5.06-1.71-5.67-8.62-.98-11.19l51.63-28.24c3.43-1.87 4.25-6.43 1.69-9.39l-29.43-33.96c-3.41-3.93-.67-10.06 4.53-10.14l47.85-.79c3.45-.05 6.17-2.94 6.02-6.39l-1.5-34.65c-.2-4.52 4.41-7.69 8.56-5.88l62.07 26.98c2.87 1.25 6.22.14 7.77-2.58l31.25-54.69c1.08-1.9 2.92-2.91 4.8-3.07 2.37-.2 4.82.95 6.03 3.4l26.73 54.33c1.35 2.75 4.53 4.08 7.44 3.11l64.57-21.52c4.41-1.47 8.78 2.3 7.98 6.88l-7.07 40.03c-.59 3.35 1.66 6.55 5.01 7.11l52.78 8.94c5.11.86 6.91 7.28 2.99 10.68l-23.06 19.94c-3.54 3.06-2.48 8.81 1.92 10.4l39.1 14.16c5.29 1.91 5.43 9.33.22 11.44z" fill="#ff1d56"/><path d="m440.64 243.62-71.73 29.04c-3.29 1.33-4.77 5.18-3.21 8.37l15.26 31.17c2.49 5.09-2.68 10.55-7.91 8.33l-43.68-18.56c-3.64-1.55-7.78.72-8.44 4.62l-7.26 42.99c-.94 5.57-8.27 7.01-11.25 2.22l-31.64-50.94c-2.35-3.79-7.84-3.88-10.31-.17l-4.47 6.71v-232.68c2.37-.2 4.82.95 6.03 3.4l26.73 54.33c1.35 2.75 4.53 4.08 7.44 3.11l64.57-21.52c4.41-1.47 8.78 2.3 7.98 6.88l-7.07 40.03c-.59 3.35 1.66 6.55 5.01 7.11l52.78 8.94c5.11.86 6.91 7.28 2.99 10.68l-23.06 19.94c-3.54 3.06-2.48 8.81 1.92 10.4l39.1 14.16c5.29 1.91 5.43 9.33.22 11.44z" fill="#dd1265"/><path d="m428.92 248.17c0 27.59-17.4 51.11-41.83 60.19-6.96 2.59-14.49 4-22.36 4h-211.49c-11.14 0-21.62-2.84-30.75-7.84-19.93-10.89-33.44-32.04-33.44-56.35 0-35.46 28.74-64.2 64.19-64.2 3.28 0 6.5.25 9.65.73 6.75-34.85 37.42-61.17 74.24-61.17 6.51 0 12.84.82 18.87 2.38.85.22 1.7.45 2.54.7 15.84 4.66 29.52 14.37 39.18 27.27 4.72-1.61 9.79-2.5 15.06-2.5 21.03 0 38.82 13.9 44.69 33.01 2.38-.26 4.8-.42 7.26-.42 35.45 0 64.19 28.74 64.19 64.2z" fill="#fff"/><path d="m425.65 268.43c-6.12 18.45-20.4 33.18-38.56 39.93-6.96 2.59-14.49 4-22.36 4h-108.73v-186.45c.85.22 1.7.45 2.54.7 15.84 4.66 29.52 14.37 39.18 27.27 4.72-1.61 9.79-2.5 15.06-2.5 21.03 0 38.82 13.9 44.69 33.01l13.318 6.79c22.512 11.476 39.601 31.352 47.573 55.329z" fill="#d1f6ff"/><path d="m417.14 285.25c1.16-4.83 1.78-9.88 1.78-15.08 0-35.46-28.74-64.2-64.19-64.2-7.01 0-13.75 1.12-20.06 3.21-3 .98-5.9 2.18-8.68 3.58-1.62-3.62-3.8-7.04-6.52-10.12 3.07-3.05 6.44-5.79 10.07-8.17 10.11-6.64 22.2-10.5 35.19-10.5 35.45 0 64.19 28.74 64.19 64.2 0 13.82-4.36 26.61-11.78 37.08z" fill="#8fc9f7"/><path d="m331.805 227.753c-.535 1.191-2.336.875-2.392-.429-.213-5.001-1.364-9.951-3.423-14.564-1.62-3.62-3.8-7.04-6.52-10.12-1.36-1.53-2.85-2.97-4.47-4.31-12.009-9.919-28.112-11.61-41.456-5.721-1.188.524-2.297-.918-1.468-1.918.011-.014.023-.027.034-.041 12.47-15.1 34.82-17.22 49.92-4.75 3.03 2.5 5.54 5.41 7.51 8.57 2.82 4.51 4.54 9.54 5.13 14.71.718 6.241-.214 12.67-2.865 18.573z" fill="#8fc9f7"/><path d="m452 316c0 108.06-87.46 195.7-195.44 196h-.56c-108.24 0-196-87.76-196-196 0-8.4.53-16.69 1.56-24.81 1.69-13.31 13.12-23.22 26.54-23.22h335.8c13.42 0 24.85 9.91 26.54 23.22 1.03 8.12 1.56 16.41 1.56 24.81z" fill="#ffe853"/><path d="m452 316c0 108.06-87.46 195.7-195.44 196h-.56c-58.54-45.3-103.35-116.25-103.35-196 0-16.43 1.91-32.49 5.47-48.03h265.78c13.42 0 24.85 9.91 26.54 23.22 1.03 8.12 1.56 16.41 1.56 24.81z" fill="#fed110"/><path d="m256 267.97v244.03c108.244 0 196-87.756 196-196 0-8.405-.531-16.685-1.56-24.811-1.685-13.306-13.124-23.219-26.536-23.219z" fill="#ff9f01"/><circle cx="187.667" cy="266.264" fill="#fff" r="46.095"/><circle cx="187.667" cy="266.264" fill="#29334c" r="25.616"/><circle cx="324.333" cy="266.264" fill="#fff" r="46.095"/><circle cx="324.333" cy="266.264" fill="#29334c" r="25.616"/><path d="m341.71 428.5c-7.88 5.05-16.87 7.56-25.86 7.55l-59.85-51.55-59.85 51.55c-8.99.01-17.98-2.5-25.86-7.55-14.76-9.45-22.14-24.97-22.14-40.48 0-15.58 7.45-31.16 22.35-40.56.72-.45 1.44-.9 2.17-1.34h166.66c.73.44 1.45.89 2.17 1.34 29.73 18.76 29.81 62.09.21 81.04z" fill="#29334c"/><path d="m341.71 428.5c-7.88 5.05-16.87 7.56-25.86 7.55l-59.85-51.55v-38.38h83.33c.73.44 1.45.89 2.17 1.34 29.73 18.76 29.81 62.09.21 81.04z" fill="#29334c"/><path d="m339.33 346.12c-2.5 16.05-16.33 27.88-32.57 27.88h-101.52c-16.24 0-30.07-11.83-32.57-27.88 1.67-1.02 3.36-2.01 5.07-2.97 3.05-1.7 6.15-3.31 9.3-4.8 21.45-10.2 45.08-15.55 68.96-15.55s47.51 5.35 68.96 15.55c3.15 1.49 6.25 3.1 9.3 4.8 1.71.96 3.4 1.95 5.07 2.97z" fill="#fff"/><path d="m315.85 436.05c-8.91 0-17.84-2.47-25.7-7.4-10.07-6.31-21.83-9.77-34.15-9.77s-24.08 3.46-34.15 9.77c-7.86 4.93-16.79 7.4-25.7 7.4 4.33-29.17 29.47-51.55 59.85-51.55s55.52 22.38 59.85 51.55z" fill="#ff1d56"/><path d="m315.85 436.05c-8.91 0-17.84-2.47-25.7-7.4-10.07-6.31-21.83-9.77-34.15-9.77v-34.38c30.38 0 55.52 22.38 59.85 51.55z" fill="#dd1265"/><g fill="#d1f6ff"><path d="m339.33 346.12c-2.5 16.05-16.33 27.88-32.57 27.88h-50.76v-51.2c23.88 0 47.51 5.35 68.96 15.55 3.15 1.49 6.25 3.1 9.3 4.8 1.71.96 3.4 1.95 5.07 2.97z"/><path d="m312.23 190.04c-12.89-18.55-32.98-31.71-56.23-35.44-4.4-.7-8.92-1.07-13.53-1.07-37.06 0-68.57 23.74-80.16 56.84-.54-3.65-.82-7.39-.82-11.19 0-41.78 33.87-75.65 75.64-75.65 6.52 0 12.84.82 18.87 2.38 29.79 7.64 52.48 32.97 56.23 64.13z"/><path d="m201.195 230.13c-6.882-10.551-18.648-17.665-32.19-18.059-17.365-.505-32.454 10.19-38.336 25.542-.203-1.718-.284-3.474-.232-5.255.569-19.577 16.902-34.986 36.474-34.417 18.13.528 32.682 14.57 34.284 32.189z"/></g><path d="m312.23 190.04c-12.89-18.55-32.98-31.71-56.23-35.44v-28.69c29.79 7.64 52.48 32.97 56.23 64.13z" fill="#8fc9f7"/><circle cx="120" cy="230.667" fill="#6cdc2d" r="8.333"/><circle cx="399.22" cy="232.93" fill="#6cdc2d" r="8.333"/><circle cx="111.433" cy="131.847" fill="#ff1d56" r="8.333"/><circle cx="319.543" cy="94.973" fill="#6cdc2d" r="8.333"/><circle cx="187.679" cy="83.227" fill="#ffe853" r="17.984"/><circle cx="270.64" cy="202.01" fill="#ff1d56" r="17.984"/><circle cx="408.733" cy="127.091" fill="#ffe853" r="17.984"/></svg>