<svg id="Capa_1" enable-background="new 0 0 512 512" height="512" viewBox="0 0 512 512" width="512" xmlns="http://www.w3.org/2000/svg"><g><g><path d="m256 333.066c-141.387 0-244.873-162.576-225.275-198.774 43.298-79.975 127.942-134.292 225.275-134.292 97.204 0 181.752 54.173 225.103 133.974 19.704 36.274-83.716 199.092-225.103 199.092z" fill="#ff0f47"/><path d="m512 256c0 26.051-3.891 51.191-11.129 74.871-5.031 16.469-11.672 32.231-19.75 47.109-8.25 15.2-147.391 71.199-225.121 71.199s-216.871-55.999-225.109-71.199c-3.289-6.031-6.332-12.21-9.121-18.531-14-31.629-21.77-66.629-21.77-103.449 0-46.219 12.25-89.57 33.68-127 44.121 77.07 127.16 129 222.32 129s178.211-51.93 222.32-129c21.43 37.43 33.68 80.781 33.68 127zm0 0" fill="#ba1956"/><path d="m481.262 377.699c-7.16 13.223-15.434 25.742-24.723 37.43-8.437 10.633-17.719 20.57-27.719 29.723-13.17 12.06-27.607 22.76-43.086 31.879-3.33 1.962-9.744-1.904-13.168-.091-3.206 1.697-3.417 9.083-6.702 10.646-33.291 15.846-70.543 24.714-109.864 24.714-39.261 0-76.46-8.842-109.712-24.641-.39-.185-.711-13.06-3.583-14.58-2.682-1.42-15.36 4.585-15.91 4.263-15.68-9.186-30.295-19.993-43.615-32.19-10-9.153-19.282-19.09-27.719-29.723-9.289-11.688-17.563-24.207-24.723-37.43zm0 0" fill="#742466"/></g><g><path d="m385.197 477.037-21.562-125.717 107.636-104.919-148.749-21.614-66.522-134.789-63.068 220.216 63.068 119.308 109.864 57.759c6.606-3.144 13.053-6.566 19.333-10.244z" fill="#ffb03b"/><path d="m40.728 246.402 107.636 104.918-21.562 125.716c6.28 3.679 12.727 7.1 19.334 10.244l109.864-57.758v-339.524l-66.522 134.79z" fill="#ffd391"/><path d="m205.817 241.968-112.212 16.305 81.197 79.148-19.168 111.758 100.366-52.765v-256.128z" fill="#ffc46c"/><path d="m362.846 281.631-73.829-10.728-33.017-66.901-25.228 101.617 25.228 66.901 66.034 34.716-12.611-73.53z" fill="#ff7040"/><path d="m222.982 270.903-73.829 10.728 53.423 52.075-12.611 73.53 66.035-34.716v-168.518z" fill="#ffa15c"/><path d="m233.776 286.252-49.695 7.221 35.959 35.052-8.489 49.493 44.449-23.368v-113.429z" fill="#ff903d"/></g><g fill="#fff"><path d="m102.654 180.537h-1.524c-6.754 0-12.226-5.477-12.226-12.227v-1.523h-8.715v1.523c0 6.75-5.477 12.227-12.227 12.227h-1.527v8.715h1.527c6.75 0 12.227 5.472 12.227 12.226v1.528h8.715v-1.528c0-6.754 5.472-12.226 12.226-12.226h1.524zm0 0"/><path d="m184.081 99.733h-1.524c-6.754 0-12.226-5.477-12.226-12.227v-1.523h-8.715v1.523c0 6.75-5.477 12.227-12.227 12.227h-1.527v8.715h1.527c6.75 0 12.227 5.472 12.227 12.226v1.528h8.715v-1.528c0-6.754 5.472-12.226 12.226-12.226h1.524zm0 0"/><path d="m405.324 189.252h1.524c6.754 0 12.226 5.472 12.226 12.226v1.528h8.715v-1.528c0-6.754 5.477-12.226 12.227-12.226h1.527v-8.715h-1.527c-6.75 0-12.227-5.477-12.227-12.227v-1.523h-8.715v1.523c0 6.75-5.472 12.227-12.226 12.227h-1.524zm0-8.715"/><path d="m323.897 108.448h1.524c6.754 0 12.226 5.472 12.226 12.226v1.528h8.715v-1.528c0-6.754 5.477-12.226 12.227-12.226h1.527v-8.715h-1.527c-6.75 0-12.227-5.477-12.227-12.227v-1.523h-8.715v1.523c0 6.75-5.472 12.227-12.226 12.227h-1.524zm0-8.715"/></g></g></svg>