<svg id="Capa_1" enable-background="new 0 0 512 512" height="512" viewBox="0 0 512 512" width="512" xmlns="http://www.w3.org/2000/svg"><g><g><path d="m512 256c0 43.79-11 85.02-30.39 121.07l-225.61 49.67-225.61-49.67c-19.39-36.05-30.39-77.28-30.39-121.07 0-46.63 12.47-90.34 34.26-128 41.698 72.091 399.22 76.52 443.48 0 21.79 37.66 34.26 81.37 34.26 128z" fill="#a4b5ed"/><path d="m477.74 128c-44.26 76.52-126.99 128-221.74 128s-177.48-51.48-221.74-128c.01-.02.03-.05.04-.07 44.27-76.48 126.98-127.93 221.7-127.93s177.43 51.45 221.7 127.93c.01.02.03.05.04.07z" fill="#c0d3f2"/><path d="m481.61 377.07c-43.19 80.32-128.02 134.93-225.61 134.93s-182.42-54.61-225.61-134.93z" fill="#546ada"/></g><path d="m433.7 256c0 6.76-.38 13.44-1.12 20-3.46 30.93-14.86 59.46-32.12 83.5-7.84 10.93-16.9 20.93-26.97 29.81-26.61 23.48-60.31 39.11-97.49 43.27-6.56.74-13.24 1.12-20 1.12s-13.44-.38-20-1.12c-37.18-4.16-70.88-19.79-97.49-43.27-10.07-8.88-19.13-18.88-26.97-29.81-17.26-24.04-28.66-52.57-32.12-83.5-.74-6.56-1.12-13.24-1.12-20s.38-13.44 1.12-20c3.46-30.93 14.86-59.46 32.12-83.5 7.84-10.93 16.9-20.93 26.97-29.81 26.61-23.48 60.31-39.11 97.49-43.27 6.56-.74 13.24-1.12 20-1.12s13.44.38 20 1.12c37.18 4.16 70.88 19.79 97.49 43.27 10.07 8.88 19.13 18.88 26.97 29.81 17.26 24.04 28.66 52.57 32.12 83.5.74 6.56 1.12 13.24 1.12 20z" fill="#eec036"/><path d="m433.7 256c0 6.76-.38 13.44-1.12 20-3.46 30.93-14.86 59.46-32.12 83.5-7.84 10.93-16.9 20.93-26.97 29.81-26.61 23.48-60.31 39.11-97.49 43.27-6.56.74-13.24 1.12-20 1.12v-355.4c6.76 0 13.44.38 20 1.12 37.18 4.16 70.88 19.79 97.49 43.27 10.07 8.88 19.13 18.88 26.97 29.81 17.26 24.04 28.66 52.57 32.12 83.5.74 6.56 1.12 13.24 1.12 20z" fill="#e8a440"/><path d="m433.7 256c0-6.76-.38-13.44-1.12-20h-69.67c4.03-31.72 17.52-60.53 37.55-83.5-7.84-10.93-16.9-20.93-26.97-29.81-27.95 30.54-46.45 69.87-50.83 113.31h-46.66v-156.58c-6.56-.74-13.24-1.12-20-1.12s-13.44.38-20 1.12v156.58h-46.66c-4.38-43.44-22.88-82.77-50.83-113.31-10.07 8.88-19.13 18.88-26.97 29.81 20.03 22.97 33.52 51.78 37.55 83.5h-69.67c-.74 6.56-1.12 13.24-1.12 20s.38 13.44 1.12 20h69.67c-4.03 31.72-17.52 60.53-37.55 83.5 7.84 10.93 16.9 20.93 26.97 29.81 27.95-30.54 46.45-69.87 50.83-113.31h46.66v156.58c6.56.74 13.24 1.12 20 1.12s13.44-.38 20-1.12v-156.58h46.66c4.38 43.44 22.88 82.77 50.83 113.31 10.07-8.88 19.13-18.88 26.97-29.81-20.03-22.97-33.52-51.78-37.55-83.5h69.67c.74-6.56 1.12-13.24 1.12-20z" fill="#e8a440"/><path d="m432.58 276h-69.67c4.03 31.72 17.52 60.53 37.55 83.5-7.84 10.93-16.9 20.93-26.97 29.81-27.95-30.54-46.45-69.87-50.83-113.31h-46.66v156.58c-6.56.74-13.24 1.12-20 1.12v-355.4c6.76 0 13.44.38 20 1.12v156.58h46.66c4.38-43.44 22.88-82.77 50.83-113.31 10.07 8.88 19.13 18.88 26.97 29.81-20.03 22.97-33.52 51.78-37.55 83.5h69.67c.74 6.56 1.12 13.24 1.12 20s-.38 13.44-1.12 20z" fill="#de8051"/></g></svg>