<?xml version="1.0" encoding="UTF-8" standalone="no"?>
<svg
   xmlns:dc="http://purl.org/dc/elements/1.1/"
   xmlns:cc="http://creativecommons.org/ns#"
   xmlns:rdf="http://www.w3.org/1999/02/22-rdf-syntax-ns#"
   xmlns:svg="http://www.w3.org/2000/svg"
   xmlns="http://www.w3.org/2000/svg"
   xmlns:sodipodi="http://sodipodi.sourceforge.net/DTD/sodipodi-0.dtd"
   xmlns:inkscape="http://www.inkscape.org/namespaces/inkscape"
   id="Capa_1"
   enable-background="new 0 0 512 512"
   height="512"
   viewBox="0 0 512 512"
   width="512"
   version="1.1"
   sodipodi:docname="045-star-a.svg"
   inkscape:version="0.92.5 (2060ec1f9f, 2020-04-08)">
  <metadata
     id="metadata41">
    <rdf:RDF>
      <cc:Work
         rdf:about="">
        <dc:format>image/svg+xml</dc:format>
        <dc:type
           rdf:resource="http://purl.org/dc/dcmitype/StillImage" />
        <dc:title />
      </cc:Work>
    </rdf:RDF>
  </metadata>
  <defs
     id="defs39" />
  <sodipodi:namedview
     pagecolor="#ffffff"
     bordercolor="#666666"
     borderopacity="1"
     objecttolerance="10"
     gridtolerance="10"
     guidetolerance="10"
     inkscape:pageopacity="0"
     inkscape:pageshadow="2"
     inkscape:window-width="640"
     inkscape:window-height="480"
     id="namedview37"
     showgrid="false"
     inkscape:zoom="0.4609375"
     inkscape:cx="256"
     inkscape:cy="256"
     inkscape:window-x="0"
     inkscape:window-y="30"
     inkscape:window-maximized="0"
     inkscape:current-layer="Capa_1" />
  <g
     id="g22"
     transform="translate(0,-30)">
    <path
       style="fill:#ffb03b"
       inkscape:connector-curvature="0"
       id="path10"
       d="M 385.197,477.037 363.635,351.32 471.271,246.401 322.522,224.787 256,89.998 192.932,310.214 256,429.522 365.864,487.281 c 6.606,-3.144 13.053,-6.566 19.333,-10.244 z" />
    <path
       style="fill:#ffd391"
       inkscape:connector-curvature="0"
       id="path12"
       d="M 40.728,246.402 148.364,351.32 126.802,477.036 c 6.28,3.679 12.727,7.1 19.334,10.244 L 256,429.522 V 89.998 l -66.522,134.79 z" />
    <path
       style="fill:#ffc46c"
       inkscape:connector-curvature="0"
       id="path14"
       d="M 205.817,241.968 93.605,258.273 174.802,337.421 155.634,449.179 256,396.414 V 140.286 Z" />
    <path
       style="fill:#ff7040"
       inkscape:connector-curvature="0"
       id="path16"
       d="M 362.846,281.631 289.017,270.903 256,204.002 230.772,305.619 256,372.52 l 66.034,34.716 -12.611,-73.53 z" />
    <path
       style="fill:#ffa15c"
       inkscape:connector-curvature="0"
       id="path18"
       d="m 222.982,270.903 -73.829,10.728 53.423,52.075 -12.611,73.53 L 256,372.52 V 204.002 Z" />
    <path
       style="fill:#ff903d"
       inkscape:connector-curvature="0"
       id="path20"
       d="m 233.776,286.252 -49.695,7.221 35.959,35.052 -8.489,49.493 L 256,354.65 V 241.221 Z" />
  </g>
  <g
     style="fill:#ffffff"
     id="g32"
     transform="translate(0,-30)">
    <path
       inkscape:connector-curvature="0"
       id="path24"
       d="m 102.654,180.537 h -1.524 c -6.754,0 -12.226,-5.477 -12.226,-12.227 v -1.523 h -8.715 v 1.523 c 0,6.75 -5.477,12.227 -12.227,12.227 h -1.527 v 8.715 h 1.527 c 6.75,0 12.227,5.472 12.227,12.226 v 1.528 h 8.715 v -1.528 c 0,-6.754 5.472,-12.226 12.226,-12.226 h 1.524 z m 0,0" />
    <path
       inkscape:connector-curvature="0"
       id="path26"
       d="m 184.081,99.733 h -1.524 c -6.754,0 -12.226,-5.477 -12.226,-12.227 v -1.523 h -8.715 v 1.523 c 0,6.75 -5.477,12.227 -12.227,12.227 h -1.527 v 8.715 h 1.527 c 6.75,0 12.227,5.472 12.227,12.226 v 1.528 h 8.715 v -1.528 c 0,-6.754 5.472,-12.226 12.226,-12.226 h 1.524 z m 0,0" />
    <path
       inkscape:connector-curvature="0"
       id="path28"
       d="m 405.324,189.252 h 1.524 c 6.754,0 12.226,5.472 12.226,12.226 v 1.528 h 8.715 v -1.528 c 0,-6.754 5.477,-12.226 12.227,-12.226 h 1.527 v -8.715 h -1.527 c -6.75,0 -12.227,-5.477 -12.227,-12.227 v -1.523 h -8.715 v 1.523 c 0,6.75 -5.472,12.227 -12.226,12.227 h -1.524 z m 0,-8.715" />
    <path
       inkscape:connector-curvature="0"
       id="path30"
       d="m 323.897,108.448 h 1.524 c 6.754,0 12.226,5.472 12.226,12.226 v 1.528 h 8.715 v -1.528 c 0,-6.754 5.477,-12.226 12.227,-12.226 h 1.527 v -8.715 h -1.527 c -6.75,0 -12.227,-5.477 -12.227,-12.227 v -1.523 h -8.715 v 1.523 c 0,6.75 -5.472,12.227 -12.226,12.227 h -1.524 z m 0,-8.715" />
  </g>
</svg>
