<?xml version="1.0" encoding="iso-8859-1"?>
<!-- Generator: Adobe Illustrator 19.0.0, SVG Export Plug-In . SVG Version: 6.00 Build 0)  -->
<svg version="1.1" id="Capa_1" xmlns="http://www.w3.org/2000/svg" xmlns:xlink="http://www.w3.org/1999/xlink" x="0px" y="0px"
	 viewBox="0 0 512.001 512.001" style="enable-background:new 0 0 512.001 512.001;" xml:space="preserve">
<path style="fill:#FFC143;" d="M256.001,512c-141.385,0-256-114.615-256-256s114.615-256,256-256s256,114.615,256,256
	S397.386,512,256.001,512z"/>
<path style="fill:#328093;" d="M450.001,60v28.971V160v222c0,5.523-4.477,10-10,10H39.095c-5.053-8.042-9.664-16.39-13.815-25
	h45.312c2.761,0,5-2.239,5-5V80c0-1.534-0.706-2.89-1.794-3.807C83.164,66.704,93.264,57.941,104.009,50h65.992h237.992h32.008
	C445.524,50,450.001,54.477,450.001,60z"/>
<path style="fill:#174550;" d="M450.001,357v25c0,5.523-4.477,10-10,10H39.095c-5.056-8.046-9.691-16.384-13.843-25h414.749
	C445.524,367,450.001,362.523,450.001,357z M423.001,241c5.523,0,10-4.477,10-10v-20c0-5.523-4.477-10-10-10s-10,4.477-10,10v20
	C413.001,236.523,417.478,241,423.001,241z"/>
<path style="fill:#FFF5F5;" d="M398.001,80v282c0,2.761-2.239,5-5,5H25.252C9.07,333.421,0.001,295.77,0.001,256
	c0-70.683,28.646-134.675,74.962-181h318.038C395.763,75,398.001,77.239,398.001,80z"/>
<path style="fill:#FFE7BF;" d="M398.001,80v18c0-2.762-2.239-5-5-5H58.623c5.164-6.255,10.61-12.269,16.34-18h318.038
	C395.763,75,398.001,77.238,398.001,80z"/>
<path style="fill:#FFDF8E;" d="M188.755,128.704V313c0,1.104-0.896,2-2,2H6.846c-4.469-18.942-6.845-38.693-6.845-59
	c0-47.169,12.771-91.349,35.023-129.296h151.731C187.86,126.704,188.755,127.599,188.755,128.704z"/>
<path style="fill:#FFE1A8;" d="M370.001,245.954v11c0,1.104-0.895,2-2,2h-146c-1.105,0-2-0.896-2-2v-11c0-1.104,0.895-2,2-2h146
	C369.106,243.954,370.001,244.85,370.001,245.954z M368.001,302.621h-146c-1.105,0-2,0.896-2,2v11c0,1.104,0.895,2,2,2h146
	c1.105,0,2-0.896,2-2v-11C370.001,303.516,369.106,302.621,368.001,302.621z M222.001,229.704h106c1.105,0,2-0.895,2-2v-11
	c0-1.104-0.895-2-2-2h-106c-1.105,0-2,0.896-2,2v11C220.001,228.809,220.896,229.704,222.001,229.704z M368.001,273.287h-146
	c-1.105,0-2,0.896-2,2v11c0,1.104,0.895,2,2,2h146c1.105,0,2-0.896,2-2v-11C370.001,274.183,369.106,273.287,368.001,273.287z
	 M368.001,126.704h-146c-1.105,0-2,0.896-2,2v11c0,1.105,0.895,2,2,2h146c1.105,0,2-0.895,2-2v-11
	C370.001,127.599,369.106,126.704,368.001,126.704z M368.001,156.037h-146c-1.105,0-2,0.896-2,2v11c0,1.104,0.895,2,2,2h146
	c1.105,0,2-0.896,2-2v-11C370.001,156.933,369.106,156.037,368.001,156.037z M368.001,185.371h-146c-1.105,0-2,0.895-2,2v11
	c0,1.104,0.895,2,2,2h146c1.105,0,2-0.896,2-2v-11C370.001,186.266,369.106,185.371,368.001,185.371z"/>
<path style="fill:#FBC56D;" d="M154.089,220.852c0,32.977-26.733,59.71-59.71,59.71s-59.71-26.733-59.71-59.71
	s26.733-59.71,59.71-59.71S154.089,187.875,154.089,220.852z"/>
<path style="fill:#80BE1C;" d="M252.852,232.019c-30.873,15.659-65.09,12.582-83.929-5.614
	c-3.552-25.949,0.897-45.604,31.771-61.263c30.873-15.659,74.222-4.069,97.661-13.021
	C301.907,178.07,283.725,216.36,252.852,232.019z"/>
<path style="fill:#517D10;" d="M248.041,192.861c-52.905,14.957-91.373,40.061-111.244,72.595c-1.227,2.009-3.369,3.118-5.563,3.118
	c-1.157,0-2.328-0.308-3.387-0.955c-3.069-1.875-4.037-5.881-2.163-8.95c21.611-35.384,62.696-62.473,118.814-78.339
	c3.461-0.978,7.058,1.034,8.037,4.494C253.513,188.285,251.501,191.883,248.041,192.861z"/>
<path style="fill:#A39C12;" d="M137.963,275.825h-10.715c-1.36,0-2.489-1.053-2.588-2.414l-5.329-72.92
	c-0.11-1.509,1.08-2.795,2.588-2.795h20.404c1.494,0,2.68,1.263,2.591,2.76l-4.36,72.92
	C140.471,274.752,139.336,275.825,137.963,275.825z"/>
<path style="fill:#EA4444;" d="M258.475,394.175c-0.066,0.245-0.132,0.49-0.199,0.734c-12.344,45.282-49.759,79.36-95.924,87.823
	c-0.031,0.006-0.061,0.011-0.092,0.017c-5.663,1.035-11.509-0.122-16.41-3.142l-13.729-8.461l-13.73,8.461
	c-4.901,3.02-10.747,4.177-16.41,3.142c-0.031-0.006-0.061-0.011-0.092-0.017c-46.165-8.464-83.58-42.542-95.924-87.823
	c-0.067-0.244-0.133-0.489-0.199-0.734c-17.217-64.255,5.429-126.152,50.581-138.251c16.74-4.485,34.222-1.494,50.473,7.319
	c15.741,8.537,34.858,8.537,50.6,0c16.251-8.814,33.733-11.805,50.473-7.32C253.046,268.023,275.692,329.92,258.475,394.175z"/>
<path style="fill:#D93131;" d="M101.981,482.75c-0.03-0.006-0.06-0.011-0.091-0.017c-46.166-8.463-83.582-42.542-95.926-87.825
	c-0.066-0.244-0.133-0.488-0.198-0.733c-17.217-64.255,5.429-126.152,50.581-138.251c0.627-0.168,1.256-0.323,1.885-0.469
	c0.058-0.014,0.116-0.026,0.174-0.039c0.607-0.139,1.216-0.27,1.824-0.391c0.002,0,0.003-0.001,0.005-0.001
	c-14.751,20.211-23.172,43.513-23.172,68.329c0,74.84,76.492,135.951,172.718,139.779c-14.002,9.635-30.1,16.423-47.431,19.601
	c-0.03,0.006-0.06,0.011-0.091,0.017c-5.663,1.035-11.509-0.122-16.41-3.142l0,0c-8.418-5.187-19.041-5.187-27.459,0l0,0
	C113.49,482.628,107.645,483.784,101.981,482.75z"/>
<path style="fill:#EF6161;" d="M221.296,286.915c11.442,11.442,14.533,26.901,6.906,34.528s-23.087,4.536-34.528-6.906
	c-11.442-11.442-14.533-26.901-6.906-34.528C194.396,272.381,209.854,275.473,221.296,286.915z"/>
<g>
</g>
<g>
</g>
<g>
</g>
<g>
</g>
<g>
</g>
<g>
</g>
<g>
</g>
<g>
</g>
<g>
</g>
<g>
</g>
<g>
</g>
<g>
</g>
<g>
</g>
<g>
</g>
<g>
</g>
</svg>
