<svg id="Capa_1" enable-background="new 0 0 512 512" height="512" viewBox="0 0 512 512" width="512" xmlns="http://www.w3.org/2000/svg"><path d="m428.77 444.91v-.01l.01.01z" fill="#fd4fb9"/><path d="m490.41 359.05-61.64 85.85c-111.136 43.163-234.404 43.164-345.541.003l-.009-.003c-51.798-47.413-84.043-115.847-83.204-191.793 1.557-140.933 115.611-253.412 256.552-253.106 141.119.306 255.432 114.808 255.432 255.999 0 36.66-7.71 71.52-21.59 103.05z" fill="#fd4fb9"/><path d="m512 256c0 36.66-7.71 71.52-21.59 103.05l-61.64 85.85c-111.136 43.163-234.404 43.164-345.541.003l-.009-.003c-51.14-46.81-83.22-114.11-83.22-188.9 0-46.22 12.25-89.57 33.68-127 44.12 77.07 127.16 129 222.32 129s178.21-51.93 222.32-129c21.43 37.43 33.68 80.78 33.68 127z" fill="#ea39ab"/><path d="m428.77 444.9c-45.53 41.68-106.19 67.1-172.77 67.1-66.59 0-127.24-25.43-172.78-67.1z" fill="#4e689b"/><path d="m428.77 444.9c-45.53 41.68-106.19 67.1-172.77 67.1v-67.1z" fill="#374c81"/><path d="m156.302 345.532h80.965v80.965h-80.965z" fill="#8fc8f5"/><path d="m196.785 345.532h40.483v80.965h-40.483z" fill="#65b2fe"/><path d="m358.949 182.882v172.613c0 14.974-12.141 27.115-27.115 27.115h-270.097c-14.974 0-27.115-12.141-27.115-27.115v-172.613c0-14.974 12.141-27.11 27.115-27.11h270.097c14.974-.001 27.115 12.136 27.115 27.11z" fill="#4e689b"/><path d="m358.949 182.882v172.613c0 14.974-12.141 27.115-27.115 27.115h-192.713c-14.974 0-27.115-12.141-27.115-27.115v-172.613c0-14.974 12.141-27.11 27.115-27.11h192.712c14.975-.001 27.116 12.136 27.116 27.11z" fill="#374c81"/><path d="m358.949 182.882v172.613c0 14.974-12.141 27.115-27.115 27.115h-135.049v-226.839h135.048c14.975 0 27.116 12.137 27.116 27.111z" fill="#234177"/><path d="m358.949 330.117v25.377c0 14.974-12.141 27.115-27.115 27.115h-270.097c-14.974 0-27.115-12.141-27.115-27.115v-25.377z" fill="#fff"/><path d="m358.949 330.117v25.377c0 14.974-12.141 27.115-27.115 27.115h-192.713c-14.974 0-27.115-12.141-27.115-27.115v-25.377z" fill="#d1f6ff"/><path d="m272.228 432.017c0 7.115-5.768 12.883-12.883 12.883h-125.12c-7.115 0-12.883-5.768-12.883-12.883 0-7.115 5.768-12.883 12.883-12.883h125.121c7.115 0 12.882 5.768 12.882 12.883z" fill="#d1f6ff"/><path d="m358.949 330.117v25.377c0 14.974-12.141 27.115-27.115 27.115h-135.049v-52.492z" fill="#8fc8f5"/><path d="m60.3 181.024h272.971v126.48h-272.971z" fill="#374c81"/><path d="m333.271 181.024v126.48h-221.265v-124.622c0-.624.023-1.243.065-1.858z" fill="#234177"/><path d="m196.785 181.024h136.486v126.48h-136.486z" fill="#16325b"/><path d="m272.228 432.017c0 7.115-5.768 12.883-12.883 12.883h-62.561v-25.766h62.561c7.116 0 12.883 5.768 12.883 12.883z" fill="#8fc8f5"/><path d="m208.54 356.359c0 6.494-5.261 11.765-11.755 11.765s-11.755-5.271-11.755-11.765 5.261-11.755 11.755-11.755 11.755 5.261 11.755 11.755z" fill="#374c81"/><path d="m208.54 356.359c0 6.494-5.261 11.765-11.755 11.765v-23.52c6.494 0 11.755 5.261 11.755 11.755z" fill="#234177"/><path d="m223.669 230.605v23.342c0 3.385-2.75 6.135-6.135 6.135h-56.046c-3.385 0-6.135-2.75-6.135-6.135v-33.582c0-3.385 2.75-6.135 6.135-6.135h15.491c2.423 0 4.616 1.427 5.605 3.634l1.323 2.973c.989 2.206 3.182 3.634 5.605 3.634h28.023c3.384-.001 6.134 2.743 6.134 6.134z" fill="#ffce00"/><path d="m223.669 230.605v23.342c0 3.385-2.75 6.135-6.135 6.135h-47.633v-45.852h7.077c2.423 0 4.616 1.427 5.605 3.634l1.323 2.973c.989 2.213 3.182 3.634 5.605 3.634h28.023c3.385-.001 6.135 2.749 6.135 6.134z" fill="#ffb600"/><path d="m223.669 230.605v23.342c0 3.385-2.75 6.135-6.135 6.135h-28.023v-35.612h28.023c3.385 0 6.135 2.744 6.135 6.135z" fill="#ff9f00"/><path d="m223.669 244.074v23.342c0 3.385-2.75 6.135-6.135 6.135h-56.046c-3.385 0-6.135-2.75-6.135-6.135v-33.582c0-3.385 2.75-6.135 6.135-6.135h15.491c2.423 0 4.616 1.427 5.605 3.634l1.323 2.973c.989 2.213 3.182 3.634 5.605 3.634h28.023c3.384-.001 6.134 2.749 6.134 6.134z" fill="#ffe400"/><path d="m223.669 244.074v23.342c0 3.385-2.75 6.135-6.135 6.135h-47.633v-45.852h7.077c2.423 0 4.616 1.427 5.605 3.634l1.323 2.973c.989 2.213 3.182 3.634 5.605 3.634h28.023c3.385-.001 6.135 2.749 6.135 6.134z" fill="#ffce00"/><path d="m223.669 244.074v23.342c0 3.385-2.75 6.135-6.135 6.135h-28.023v-35.612h28.023c3.385 0 6.135 2.75 6.135 6.135z" fill="#ffb600"/><path d="m233.041 256.436-4.338 3.543 14.763 14.763c.851.851.851 2.23 0 3.081l-8.061 8.061c-.85.85-2.228.85-3.078 0l-14.765-14.765-3.545 4.339c-1.277 1.563-3.799.906-4.151-1.082l-4.752-26.846 26.845 4.753c1.988.354 2.645 2.876 1.082 4.153z" fill="#fff"/><path d="m233.041 256.436-4.338 3.543 14.763 14.763c.851.851.851 2.23 0 3.081l-4.03 4.03-34.322-34.322 26.845 4.753c1.988.353 2.645 2.875 1.082 4.152z" fill="#d1f6ff"/><path d="m304.08 444.9h-214.59c0-3.56 1.44-6.78 3.77-9.11 2.34-2.33 5.56-3.77 9.11-3.77h188.83c7.11 0 12.88 5.77 12.88 12.88z" fill="#fff"/><path d="m304.08 444.9h-107.29v-12.88h94.41c7.11 0 12.88 5.77 12.88 12.88z" fill="#d1f6ff"/><path d="m368.484 444.9h-58.55c0-7.11 2.88-13.55 7.55-18.22 4.66-4.66 11.11-7.54 18.22-7.54h7.01c14.23 0 25.77 11.53 25.77 25.76z" fill="#fff"/><path d="m368.484 444.9h-29.28v-25.76h3.51c14.23 0 25.77 11.53 25.77 25.76z" fill="#d1f6ff"/><path d="m425.924 155.771v41.391c-3.979 3.981-6.211 6.211-10.193 10.193h-41.391v-51.584z" fill="#fff"/><path d="m425.924 155.771v41.391c-3.979 3.981-6.211 6.211-10.193 10.193h-15.598v-51.584z" fill="#d1f6ff"/><path d="m415.732 207.355v-10.192h10.192z" fill="#8fc8f5"/><path d="m490.181 155.771v41.391c-3.979 3.981-6.211 6.211-10.193 10.193h-41.391v-51.584z" fill="#fff"/><path d="m490.181 155.771v41.391c-3.979 3.981-6.211 6.211-10.193 10.193h-15.598v-51.584z" fill="#d1f6ff"/><path d="m479.989 207.355v-10.192h10.192z" fill="#8fc8f5"/><path d="m413.03 314.19v124.02c0 3.69-3 6.69-6.69 6.69h-25.31c-3.69 0-6.69-3-6.69-6.69v-124.02c0-3.69 3-6.69 6.69-6.69h25.31c3.69 0 6.69 3 6.69 6.69z" fill="#6cdc2d"/><path d="m413.03 314.19v124.02c0 3.69-3 6.69-6.69 6.69h-12.66v-137.4h12.66c3.69 0 6.69 3 6.69 6.69z" fill="#57b718"/><path d="m451.72 314.19v106.83c-6.07 7.19-12.53 14.05-19.35 20.52-1.19 1.13-2.39 2.25-3.6 3.36h-9.05c-3.7 0-6.69-3-6.69-6.69v-124.02c0-3.69 2.99-6.69 6.69-6.69h25.31c3.69 0 6.69 3 6.69 6.69z" fill="#ffce00"/><path d="m451.72 314.19v106.83c-6.07 7.19-12.53 14.05-19.35 20.52v-134.04h12.66c3.69 0 6.69 3 6.69 6.69z" fill="#ffb600"/><path d="m490.41 314.19v44.86c-5.51 12.51-11.99 24.5-19.35 35.87-5.9 9.12-12.36 17.83-19.34 26.1v-106.83c0-3.69 2.99-6.69 6.69-6.69h25.31c3.69 0 6.69 3 6.69 6.69z" fill="#22d7ff"/><path d="m490.41 314.19v44.86c-5.51 12.51-11.99 24.5-19.35 35.87v-87.42h12.66c3.69 0 6.69 3 6.69 6.69z" fill="#00b3fe"/></svg>