<svg id="Capa_1" enable-background="new 0 0 512 512" height="512" viewBox="0 0 512 512" width="512" xmlns="http://www.w3.org/2000/svg"><g><g><path d="m0 256c0 43.79 11 85.02 30.39 121.07l225.61 49.67 225.61-49.67c19.39-36.05 30.39-77.28 30.39-121.07 0-46.63-12.47-90.34-34.26-128-41.698 72.091-399.22 76.52-443.48 0-21.79 37.66-34.26 81.37-34.26 128z" fill="#9865d8"/><path d="m34.26 128c44.26 76.52 126.99 128 221.74 128s177.48-51.48 221.74-128c-.01-.02-.03-.05-.04-.07-44.27-76.48-126.98-127.93-221.7-127.93s-177.43 51.45-221.7 127.93c-.01.02-.03.05-.04.07z" fill="#b895e4"/><path d="m481.61 377.07c-43.19 80.32-128.02 134.93-225.61 134.93-48.58 0-93.99-13.53-132.67-37.02-15.61-9.48-24.808-25.872-37.988-38.362-13.12-12.41-30.232-20.908-40.502-35.848-5.23-7.61-10.05-15.52-14.45-23.7z" fill="#5541b5"/></g><g><path d="m450.111 215.579c0 62.715-34.083 117.472-84.729 146.774-50.645-29.302-84.721-84.059-84.721-146.774s34.075-117.472 84.721-146.774c50.645 29.302 84.729 84.059 84.729 146.774z" fill="#a8ea58"/><g fill="#78cd8a"><path d="m365.382 172.392-43.23-43.23 14.143-14.142 29.087 29.088 29.087-29.088 14.143 14.142z"/><path d="m365.382 312.977-43.23-43.229 14.143-14.142 29.087 29.087 29.087-29.087 14.142 14.142z"/><path d="m365.382 246.11-62.261-62.261 14.142-14.142 48.119 48.119 48.118-48.119 14.142 14.142z"/><path d="m450.111 215.579c0 62.715-34.083 117.472-84.729 146.774v-293.548c50.645 29.302 84.729 84.059 84.729 146.774z"/></g><path d="m408.612 269.747-43.23 43.23v-28.28l29.09-29.09z" fill="#599d89"/><path d="m408.612 129.167-43.23 43.22v-28.28l29.09-29.09z" fill="#599d89"/><path d="m427.642 183.847-62.26 62.26v-28.28l48.12-48.12z" fill="#599d89"/></g><g><path d="m262.738 177.415h24.671v138.944h-24.671z" fill="#e7eaf5" transform="matrix(.707 .707 -.707 .707 255.142 -122.195)"/><path d="m273.267 181.776h12.335v138.944h-12.335z" fill="#d9dced" transform="matrix(.707 .707 -.707 .707 259.504 -124.001)"/><path d="m193.998 271.526h49.342v63.531h-49.342z" fill="#c8cde3" transform="matrix(.707 .707 -.707 .707 278.506 -65.79)"/><path d="m215.055 280.249h24.671v63.531h-24.671z" fill="#b1b7cb" transform="matrix(.707 .707 -.707 .707 287.229 -69.403)"/><path d="m114.424 328.163h31.683v127.063h-31.683z" fill="#c8cde3" transform="matrix(.707 .707 -.707 .707 315.124 22.613)"/><path d="m127.946 333.764h15.842v127.063h-15.842z" fill="#b1b7cb" transform="matrix(.707 .707 -.707 .707 320.725 20.293)"/><path d="m131.684 277.403h98.683v127.063h-98.683z" fill="#d9dced" transform="matrix(.707 .707 -.707 .707 294.098 -28.147)"/><path d="m173.8 294.848h49.342v127.063h-49.342z" fill="#c8cde3" transform="matrix(.707 .707 -.707 .707 311.543 -35.373)"/><path d="m168.69 291.729h24.671v98.41h-24.671z" fill="#c8cde3" transform="matrix(.707 .707 -.707 .707 294.098 -28.147)"/><path d="m179.219 296.09h12.335v98.41h-12.335z" fill="#b1b7cb" transform="matrix(.707 .707 -.707 .707 298.46 -29.954)"/><path d="m169.576 293.098h98.683v19.89h-98.683z" fill="#e7eaf5" transform="matrix(.707 .707 -.707 .707 278.403 -66.039)"/><path d="m211.691 310.543h49.342v19.89h-49.342z" fill="#d9dced" transform="matrix(.707 .707 -.707 .707 295.848 -73.265)"/><path d="m52.845 377.26h154.842v28.869h-154.842z" fill="#e7eaf5" transform="matrix(.707 .707 -.707 .707 315.124 22.613)"/><path d="m118.928 404.632h77.421v28.869h-77.421z" fill="#d9dced" transform="matrix(.707 .707 -.707 .707 342.496 11.275)"/><path d="m131.02 467.29-7.69 7.69c-15.61-9.48-30.11-20.57-43.29-33.06-13.12-12.41-24.93-26.21-35.2-41.15l9.83-9.83z" fill="#e7eaf5"/><path d="m131.02 467.29-7.69 7.69c-15.61-9.48-30.11-20.57-43.29-33.06l12.81-12.81z" fill="#d9dced"/></g></g></svg>