<svg id="Capa_1" enable-background="new 0 0 512 512" height="512" viewBox="0 0 512 512" width="512" xmlns="http://www.w3.org/2000/svg"><g><g><path d="m256 298.893c-141.387 0-244.868-128.42-225.263-164.624 43.302-79.963 127.94-134.269 225.263-134.269 97.204 0 181.752 54.173 225.103 133.974 19.704 36.274-83.716 164.919-225.103 164.919z" fill="#e27fad"/><path d="m512 256c0 26.051-3.891 51.191-11.129 74.871-5.031 16.469-11.672 32.231-19.75 47.109-8.25 15.2-147.391 47.728-225.121 47.728s-216.871-32.528-225.109-47.728c-3.289-6.031-6.332-12.21-9.121-18.531-14-31.629-21.77-66.629-21.77-103.449 0-46.219 12.25-89.57 33.68-127 44.121 77.07 127.16 129 222.32 129s178.211-51.93 222.32-129c21.43 37.43 33.68 80.781 33.68 127zm0 0" fill="#dc4180"/><path d="m481.262 377.699c-7.16 13.223-15.434 25.742-24.723 37.43-8.437 10.633-17.719 20.57-27.719 29.723-19.343 17.712-41.416 32.492-65.514 43.635-6.138 2.838-14.388-14.008-20.777-11.653-7.52 2.771-13.225 24.648-21.058 26.715-20.898 5.514-42.842 8.451-65.471 8.451-22.48 0-44.285-2.899-65.059-8.343-8.812-2.309-11.976-20.583-20.39-23.782-5.529-2.101-16.429 11.119-21.766 8.653-24.134-11.148-46.237-25.943-65.604-43.677-10-9.153-19.282-19.09-27.719-29.723-9.289-11.688-17.563-24.207-24.723-37.43h450.523zm0 0" fill="#9f165b"/></g><g><path d="m278.037 138.057h-21.497l-21.498 64.492h42.995z" fill="#d85819"/><path d="m235.042 138.057h21.497v64.492h-21.497z" fill="#e38031"/><path d="m331.78 181.051-118.235 21.498v184.159h204.94v-205.657z" fill="#ffeb78"/><path d="m181.299 181.051h-86.705v205.657h161.946v-184.159z" fill="#fff0be"/><path d="m135.261 181.051h-40.667v205.657h75.957v-205.657z" fill="#fffae8"/><path d="m331.78 224.046v-42.995h-75.24l-28.663 21.498 28.663 21.497z" fill="#e38031"/><path d="m181.299 181.051h75.24v42.994h-75.24z" fill="#ffb17b"/><path d="m331.78 451.2h-75.24l-21.498 10.749 21.498 10.748h75.24z" fill="#bd4911"/><path d="m181.299 451.2h75.24v21.497h-75.24z" fill="#d85819"/><path d="m149.053 488.643c13.723 6.319 28.092 11.472 42.994 15.304v-95.742h-42.994z" fill="#e38031"/><path d="m149.053 488.643c7.001 3.224 14.173 6.137 21.497 8.73v-89.167h-21.497z" fill="#ffab80"/><path d="m321.031 503.656c14.907-3.904 29.279-9.123 42.994-15.517v-79.933h-42.994z" fill="#d85819"/><path d="m439.983 375.96h-183.443l-71.658 21.497 71.658 21.497h183.443z" fill="#e38031"/><path d="m73.097 375.96h183.443v42.994h-183.443z" fill="#ffb17b"/><path d="m73.097 375.96h97.454v42.994h-97.454z" fill="#ffc7a1"/></g><g fill="#fff"><path d="m388.29 120.281h-1.524c-6.754 0-12.226-5.477-12.226-12.227v-1.523h-8.715v1.523c0 6.75-5.477 12.227-12.227 12.227h-1.527v8.715h1.527c6.75 0 12.227 5.472 12.227 12.226v1.528h8.715v-1.528c0-6.754 5.472-12.226 12.226-12.226h1.524zm0 0"/><path d="m274.109 63.354h-1.524c-6.754 0-12.226-5.477-12.226-12.227v-1.523h-8.715v1.523c0 6.75-5.477 12.227-12.227 12.227h-1.527v8.715h1.527c6.75 0 12.227 5.472 12.227 12.226v1.528h8.715v-1.528c0-6.754 5.472-12.226 12.226-12.226h1.524zm0 0"/><path d="m159.929 120.281h-1.524c-6.754 0-12.226-5.477-12.226-12.227v-1.523h-8.715v1.523c0 6.75-5.477 12.227-12.227 12.227h-1.527v8.715h1.527c6.75 0 12.227 5.472 12.227 12.226v1.528h8.715v-1.528c0-6.754 5.472-12.226 12.226-12.226h1.524zm0 0"/></g></g></svg>