<svg id="Capa_1" enable-background="new 0 0 512 512" height="512" viewBox="0 0 512 512" width="512" xmlns="http://www.w3.org/2000/svg"><g><g><path d="m256 304.078c-141.387 0-243.753-137.651-222.328-175.079 44.119-77.07 127.158-128.999 222.328-128.999s178.208 51.929 222.327 128.999c21.426 37.427-80.94 175.079-222.327 175.079z" fill="#a8eb58"/><path d="m512 256c0 26.051-3.891 51.191-11.129 74.871-5.031 16.469-11.672 32.231-19.75 47.109-8.25 15.2-147.391 62.602-225.121 62.602s-216.871-47.402-225.109-62.602c-3.289-6.031-6.332-12.21-9.121-18.531-14-31.629-21.77-66.629-21.77-103.449 0-46.219 12.25-89.57 33.68-127 44.121 77.07 127.16 129 222.32 129s178.211-51.93 222.32-129c21.43 37.43 33.68 80.781 33.68 127zm0 0" fill="#80cf8c"/><path d="m481.262 377.699c-7.16 13.223-15.434 25.742-24.723 37.43-6.372 8.031-13.226 15.664-20.508 22.863-2.36 2.333-8.893-1.536-11.34.704-3.49 3.196-2.941 12.453-6.605 15.454-5.07 4.152-10.302 8.114-15.686 11.874-5.319 3.715-17.055 3.35-22.658 6.66-7.093 4.19-8.136 11.931-15.647 15.436-9.113 4.252-18.518 7.983-28.176 11.155-3.685 1.21-7.428-4.416-11.184-3.371-3.829 1.065-7.672 8.799-11.571 9.688-18.38 4.193-37.514 6.408-57.164 6.408-66.609 0-127.281-25.449-172.82-67.148-10-9.153-19.282-19.09-27.719-29.723-9.289-11.688-17.563-24.207-24.723-37.43zm0 0" fill="#599d8a"/></g><g><g fill="#eabd3e"><path d="m381.148 466.012h-54.886v22.617h36.714c13.856-6.382 27.042-13.966 39.429-22.617z"/><path d="m419.591 443.395v-22.618h-38.443-38.442v22.618h38.442z"/></g><path d="m381.148 466.012v13.345c7.315-4.108 14.408-8.562 21.257-13.345z" fill="#e38d22"/><path d="m381.148 420.777h38.443v22.617h-38.443z" fill="#e38d22"/><g fill="#eabd3e"><path d="m342.706 330.309v22.617h38.442 38.443v-22.617h-38.443z"/><path d="m381.148 285.074h-54.886v22.617h54.886 54.887v-22.617z"/></g><path d="m381.148 330.309h38.443v22.617h-38.443z" fill="#e38d22"/><path d="m381.148 285.074h54.886v22.617h-54.886z" fill="#e38d22"/><path d="m449 262.457h-22.617v11.309c0 46.753-21.037 72.364-45.234 97.015-2.643 2.693-5.299 5.38-7.995 8.076-29.431 29.431-59.856 60.61-59.856 121.835v4.866c7.685-1.757 15.233-3.871 22.637-6.303.43-45.851 21.267-71.938 45.214-96.332 2.644-2.693 5.3-5.38 7.996-8.075 29.43-29.432 59.855-59.857 59.855-121.082z" fill="#e05352"/><path d="m449 262.457h-22.617v11.309c0 46.753-21.037 72.364-45.234 97.015v32.142c2.644-2.693 5.3-5.38 7.996-8.075 29.43-29.432 59.855-59.857 59.855-121.082z" fill="#cb2d41"/><path d="m176.84 307.691h-113.84v67.852c0 31.077 59.373 45.234 113.84 45.234s113.84-14.158 113.84-45.234v-67.852z" fill="#dce0ef"/><path d="m290.68 375.543v-67.852h-113.84v113.086c54.467 0 113.84-14.157 113.84-45.234z" fill="#cad0e7"/><path d="m176.84 239.84h-113.84v67.852c0 31.077 59.373 45.234 113.84 45.234s113.84-14.158 113.84-45.234v-67.852z" fill="#fbf5eb"/><path d="m290.68 307.691v-67.851h-113.84v113.086c54.467 0 113.84-14.158 113.84-45.235z" fill="#dce0ef"/><path d="m176.84 171.234h-113.84v68.605c0 31.077 59.373 45.234 113.84 45.234s113.84-14.158 113.84-45.234v-68.605z" fill="#dce0ef"/><path d="m290.68 239.84v-68.605h-113.84v113.84c54.467-.001 113.84-14.159 113.84-45.235z" fill="#cad0e7"/><ellipse cx="176.84" cy="171.234" fill="#fbf5eb" rx="113.84" ry="45.234"/><path d="m290.68 171.234c0-31.077-59.373-45.234-113.84-45.234v90.469c54.467 0 113.84-14.158 113.84-45.235z" fill="#dce0ef"/><path d="m389.144 378.856c-2.696-2.696-5.352-5.382-7.996-8.076-24.198-24.65-45.234-50.262-45.234-97.015v-11.309h-22.617v11.309c0 61.226 30.425 91.65 59.856 121.082 2.696 2.696 5.352 5.382 7.995 8.075 14.789 15.066 28.387 30.782 36.734 51.392 6.182-5.053 12.121-10.391 17.803-15.991-11.605-24.255-29.241-42.167-46.541-59.467z" fill="#8ab8ec"/><path d="m389.144 378.856c-2.696-2.696-5.352-5.382-7.996-8.076v32.142c14.789 15.066 28.387 30.782 36.734 51.392 6.182-5.053 12.121-10.391 17.803-15.991-11.605-24.255-29.241-42.167-46.541-59.467z" fill="#728ee4"/></g><g fill="#fff"><path d="m262.701 57.469h-1.524c-6.754 0-12.226-5.477-12.226-12.227v-1.523h-8.715v1.523c0 6.75-5.477 12.227-12.227 12.227h-1.527v8.715h1.527c6.75 0 12.227 5.472 12.227 12.226v1.528h8.715v-1.528c0-6.754 5.472-12.226 12.226-12.226h1.524zm0 0"/><path d="m379 103.531h-1.524c-6.754 0-12.226-5.477-12.226-12.227v-1.523h-8.715v1.523c0 6.75-5.477 12.227-12.227 12.227h-1.527v8.715h1.527c6.75 0 12.227 5.472 12.227 12.226v1.528h8.715v-1.528c0-6.754 5.472-12.226 12.226-12.226h1.524zm0 0"/><path d="m404.567 212.109h-1.524c-6.754 0-12.226-5.477-12.226-12.227v-1.523h-8.715v1.523c0 6.75-5.477 12.227-12.227 12.227h-1.527v8.715h1.527c6.75 0 12.227 5.472 12.227 12.226v1.528h8.715v-1.528c0-6.754 5.472-12.226 12.226-12.226h1.524zm0 0"/></g></g></svg>