<svg id="Capa_1" enable-background="new 0 0 512 512" height="512" viewBox="0 0 512 512" width="512" xmlns="http://www.w3.org/2000/svg"><circle cx="256" cy="256" fill="#22d7ff" r="256"/><path d="m512 256c0 87.11-43.52 164.07-110 210.31-25.12 17.47-53.51 30.55-84.08 38.15-19.82 4.93-40.56 7.54-61.92 7.54s-42.1-2.61-61.92-7.54c-30.57-7.6-58.96-20.68-84.08-38.15-66.48-46.24-110-123.2-110-210.31 0-46.22 12.25-89.57 33.68-127 44.12 77.07 127.16 129 222.32 129s178.21-51.93 222.32-129c21.43 37.43 33.68 80.78 33.68 127z" fill="#24c6ff"/><path d="m443.27 125.788c0-.067.005-.132.005-.199 0-12.17-9.866-22.036-22.037-22.036-2.891 0-5.65.563-8.18 1.575-4.887-8.754-14.237-14.678-24.975-14.678-13.944 0-25.55 9.986-28.073 23.196-.752-.108-1.52-.167-2.302-.167-7.582 0-13.934 5.248-15.631 12.309z" fill="#fff"/><path d="m421.769 125.788c0-.038.003-.076.003-.114 0-6.998-5.673-12.671-12.671-12.671-1.663 0-3.249.323-4.703.906-2.81-5.034-8.186-8.44-14.361-8.44-8.018 0-14.692 5.742-16.143 13.338-.432-.062-.874-.096-1.323-.096-4.36 0-8.012 3.018-8.988 7.078h58.186z" fill="#d0f6ff"/><path d="m316.297 60.34c0-.067.005-.132.005-.199 0-12.17-9.866-22.036-22.037-22.036-2.891 0-5.65.563-8.18 1.575-4.887-8.754-14.237-14.678-24.975-14.678-13.944 0-25.55 9.986-28.073 23.196-.752-.108-1.52-.167-2.302-.167-7.582 0-13.934 5.248-15.631 12.309z" fill="#fff"/><path d="m294.796 60.34c0-.038.003-.076.003-.114 0-6.998-5.673-12.671-12.671-12.671-1.663 0-3.249.323-4.703.906-2.81-5.034-8.186-8.44-14.361-8.44-8.018 0-14.692 5.742-16.143 13.338-.432-.062-.874-.096-1.323-.096-4.36 0-8.012 3.018-8.988 7.078h58.186z" fill="#d0f6ff"/><path d="m73.566 125.788c0-.067-.005-.132-.005-.199 0-12.17 9.866-22.036 22.037-22.036 2.891 0 5.65.563 8.18 1.575 4.887-8.754 14.237-14.678 24.975-14.678 13.944 0 25.55 9.986 28.073 23.196.752-.108 1.52-.167 2.302-.167 7.582 0 13.934 5.248 15.631 12.309z" fill="#fff"/><path d="m95.067 125.788c0-.038-.003-.076-.003-.114 0-6.998 5.673-12.671 12.671-12.671 1.663 0 3.249.323 4.703.906 2.81-5.034 8.186-8.44 14.361-8.44 8.018 0 14.692 5.742 16.143 13.338.432-.062.874-.096 1.323-.096 4.36 0 8.012 3.018 8.988 7.078h-58.186z" fill="#d0f6ff"/><path d="m477.63 297.67v86.53c-3.86 6.67-8.03 13.15-12.46 19.42-7.48 10.58-15.74 20.57-24.7 29.88h-143l-41.47-24-41.47 24h-143c-8.97-9.32-17.23-19.31-24.7-29.89-4.44-6.28-8.6-12.75-12.46-19.43v-86.51l38.09-57.91h367.08z" fill="#d1f6ff"/><path d="m477.63 297.67v86.53c-3.86 6.67-8.03 13.15-12.46 19.42-7.48 10.58-15.74 20.57-24.7 29.88h-184.47v-193.74h183.54z" fill="#b3f4ff"/><path d="m56.84 320.5h398.99v29.2h-398.99z" fill="#4e689b"/><path d="m256 320.5h199.83v29.2h-199.83z" fill="#374c81"/><path d="m477.63 297.67h-443.26l38.09-57.91h367.08z" fill="#ffce00"/><path d="m477.63 297.67h-221.63v-57.91h183.54z" fill="#ffb600"/><path d="m371.63 161.83v271.67h-74.16l-41.47-24-41.47 24h-74.16v-271.67l115.63-71.38z" fill="#fff"/><path d="m371.63 161.83v271.67h-74.16l-41.47-24v-319.05z" fill="#d1f6ff"/><path d="m371.63 161.83v38.55l-115.63-71.38-115.63 71.38v-38.55l115.63-71.38z" fill="#ffe400"/><path d="m293.825 199.231c0 20.701-16.631 37.521-37.263 37.817-.185.008-.373.008-.562.008-20.89 0-37.825-16.935-37.825-37.825s16.935-37.825 37.825-37.825c.189 0 .377 0 .562.008 20.631.295 37.263 17.115 37.263 37.817z" fill="#4e689b"/><path d="m256.562 161.414c-.185-.008-.373-.008-.562-.008v75.65c.189 0 .377 0 .562-.008 20.631-.295 37.263-17.115 37.263-37.817s-16.632-37.522-37.263-37.817z" fill="#374c81"/><path d="m273.284 195.633v7.195h-20.442v-29.963h7.195v22.768z" fill="#d1f6ff"/><path d="m273.284 195.633v3.598h-16.844v-26.366h3.597v22.768z" fill="#b3f4ff"/><circle cx="256.44" cy="199.231" fill="#fff" r="5.921"/><path d="m262.36 199.231c0 3.27-2.651 5.921-5.921 5.921v-11.842c3.271 0 5.921 2.651 5.921 5.921z" fill="#d1f6ff"/><path d="m206.43 261.28h99.14v29.08h-99.14z" fill="#4e689b"/><path d="m371.63 161.83v38.55l-115.63-71.38v-38.55z" fill="#ffce00"/><path d="m256 261.28h49.57v29.08h-49.57z" fill="#374c81"/><path d="m440.46 433.5c-46.57 48.39-112 78.5-184.46 78.5s-137.89-30.11-184.46-78.5z" fill="#02a041"/><path d="m440.46 433.5c-46.57 48.39-112 78.5-184.46 78.5v-78.5z" fill="#69cc29"/><path d="m440.46 433.5c-46.57 48.39-112 78.5-184.46 78.5v-78.5z" fill="#038c3b"/><path d="m297.47 433.5v-71.53c0-11.45-4.64-21.82-12.15-29.32-7.5-7.51-17.87-12.15-29.32-12.15-22.9 0-41.47 18.57-41.47 41.47v71.53h-20.45v70.96c19.82 4.93 40.56 7.54 61.92 7.54s42.1-2.61 61.92-7.54v-70.96z" fill="#4e689b"/><path d="m297.47 433.5v-71.53c0-11.45-4.64-21.82-12.15-29.32-7.5-7.51-17.87-12.15-29.32-12.15v113 15.957 62.543c21.36 0 42.1-2.61 61.92-7.54v-70.96z" fill="#374c81"/><path d="m480.55 379.04c-4.67 8.5-9.81 16.7-15.38 24.58-7.48 10.58-15.74 20.57-24.7 29.88h-122.55c1.04-20.06 17.63-36 37.95-36 0-20.99 17.01-38 38-38 8.18 0 15.75 2.59 21.95 6.99 7.2-3.34 15.22-5.22 23.69-5.22 16.19 0 30.78 6.83 41.04 17.77z" fill="#69cc29"/><path d="m465.17 403.62c-7.48 10.58-15.74 20.57-24.7 29.88h-85.01c.67-13.01 11.43-23.35 24.61-23.35 0-13.61 11.04-24.65 24.65-24.65 5.31 0 10.22 1.68 14.24 4.54 4.67-2.17 9.87-3.39 15.36-3.39 12.99 0 24.38 6.77 30.85 16.97z" fill="#57b718"/><path d="m194.08 433.5h-122.55c-15.64-16.25-29.14-34.55-40.07-54.47 10.26-10.93 24.85-17.76 41.03-17.76 8.47 0 16.49 1.88 23.69 5.22 6.2-4.4 13.77-6.99 21.95-6.99 20.99 0 38 17.01 38 38 20.32 0 36.91 15.94 37.95 36z" fill="#6cdc2d"/><path d="m156.54 433.5h-85.01c-8.97-9.32-17.23-19.31-24.7-29.89 6.48-10.19 17.87-16.96 30.85-16.96 5.49 0 10.69 1.22 15.36 3.39 4.02-2.86 8.93-4.54 14.24-4.54 13.61 0 24.65 11.04 24.65 24.65 13.18 0 23.94 10.34 24.61 23.35z" fill="#69cc29"/><path d="m317.92 433.5v70.96c-19.82 4.93-40.56 7.54-61.92 7.54s-42.1-2.61-61.92-7.54v-70.96z" fill="#374c81"/><path d="m317.92 433.5v70.96c-19.82 4.93-40.56 7.54-61.92 7.54v-78.5z" fill="#234177"/></svg>