<?xml version="1.0" encoding="iso-8859-1"?>
<!-- Generator: Adobe Illustrator 19.0.0, SVG Export Plug-In . SVG Version: 6.00 Build 0)  -->
<svg version="1.1" id="Capa_1" xmlns="http://www.w3.org/2000/svg" xmlns:xlink="http://www.w3.org/1999/xlink" x="0px" y="0px"
	 viewBox="0 0 512 512" style="enable-background:new 0 0 512 512;" xml:space="preserve">
<path style="fill:#EA4444;" d="M512,256c0,141.385-114.615,256-256,256S0,397.385,0,256S114.615,0,256,0S512,114.615,512,256z"/>
<path style="fill:#97BECB;" d="M286,500h-60V370h60V500z"/>
<path style="fill:#63A0B2;" d="M312,460v20c0,5.523-4.477,10-10,10h-92c-5.523,0-10-4.477-10-10v-20c0-5.523,4.477-10,10-10h16
	V346.749h24V450h52C307.523,450,312,454.477,312,460z"/>
<path style="fill:#97BECB;" d="M370.621,484.95C336.135,502.248,297.209,512,256,512s-80.135-9.752-114.621-27.05
	c1.737-2.958,4.943-4.95,8.621-4.95h70v-20c0-5.523,4.477-10,10-10h72c5.523,0,10,4.477,10,10v20h50
	C365.678,480,368.884,481.992,370.621,484.95z"/>
<path style="fill:#63A0B2;" d="M275.69,511.25c-6.499,0.495-13.064,0.75-19.69,0.75c-41.209,0-80.135-9.752-114.621-27.05
	c1.737-2.958,4.943-4.95,8.621-4.95h39.379c-0.037,0-0.074,0-0.11,0.001c-4.531,0.049-5.791,6.338-1.683,8.248
	C214.713,500.862,244.415,508.867,275.69,511.25z"/>
<path style="fill:#8BEBDB;" d="M266,470c0,5.523-4.477,10-10,10c-5.523,0-10-4.477-10-10s4.477-10,10-10
	C261.523,460,266,464.477,266,470z"/>
<path style="fill:#D9E7EC;" d="M454.603,218.603c0,109.685-88.918,198.603-198.603,198.603S57.397,328.289,57.397,218.603
	S146.315,20,256,20S454.603,108.918,454.603,218.603z"/>
<path style="fill:#C5D3DD;" d="M209.625,411.749C122.311,390.86,57.397,312.318,57.397,218.603S122.311,46.346,209.625,25.457
	C144.619,60.95,100,134.104,100,218.603S144.619,376.256,209.625,411.749z M256,110c-59.98,0-108.603,48.623-108.603,108.603
	S196.02,327.206,256,327.206s108.603-48.623,108.603-108.603S315.98,110,256,110z"/>
<path style="fill:#328093;" d="M344.603,218.603c0,48.934-39.669,88.603-88.603,88.603s-88.603-39.669-88.603-88.603
	S207.066,130,256,130S344.603,169.669,344.603,218.603z"/>
<path style="fill:#2B6C7E;" d="M284.603,218.603c0,15.797-12.806,28.603-28.603,28.603s-28.603-12.806-28.603-28.603
	S240.203,190,256,190S284.603,202.806,284.603,218.603z M200,218.603c0-35.826,14.859-67.498,37.604-86.686
	c-40.105,8.469-70.207,44.06-70.207,86.686s30.102,78.216,70.207,86.686C214.859,286.101,200,254.429,200,218.603z"/>
<path style="fill:#C9F0FF;" d="M291,202.206c0,10.274-8.329,18.603-18.603,18.603s-18.603-8.329-18.603-18.603
	s8.329-18.603,18.603-18.603S291,191.932,291,202.206z"/>
<g>
</g>
<g>
</g>
<g>
</g>
<g>
</g>
<g>
</g>
<g>
</g>
<g>
</g>
<g>
</g>
<g>
</g>
<g>
</g>
<g>
</g>
<g>
</g>
<g>
</g>
<g>
</g>
<g>
</g>
</svg>
