<svg id="Capa_1" enable-background="new 0 0 512 512" height="512" viewBox="0 0 512 512" width="512" xmlns="http://www.w3.org/2000/svg"><g><g><path d="m512 256c0 43.79-11 85.02-30.39 121.07l-225.61 49.67-225.61-49.67c-19.39-36.05-30.39-77.28-30.39-121.07 0-46.63 12.47-90.34 34.26-128 41.698 72.091 399.22 76.52 443.48 0 21.79 37.66 34.26 81.37 34.26 128z" fill="#eec036"/><path d="m477.74 128c-44.26 76.52-126.99 128-221.74 128s-177.48-51.48-221.74-128c.01-.02.03-.05.04-.07 44.27-76.48 126.98-127.93 221.7-127.93s177.43 51.45 221.7 127.93c.01.02.03.05.04.07z" fill="#f5dd6e"/><path d="m481.61 377.07c-43.19 80.32-128.02 134.93-225.61 134.93s-182.42-54.61-225.61-134.93z" fill="#de8051"/></g><g><path d="m399.47 468.04c-40.92 27.75-90.3 43.96-143.47 43.96s-102.55-16.21-143.47-43.96c9.76-28.05 27.52-52.36 50.54-70.2 10.67-8.27 22.48-15.15 35.15-20.37.37-.15.73-.28 1.1-.4 3-.97 6.05-.85 9.15 0 14.95 4.09 30.93 25.34 47.53 25.34s32.58-21.25 47.53-25.34c3.1-.85 6.15-.97 9.15 0 .37.12.73.25 1.1.4v.01c39.98 16.46 71.4 49.5 85.69 90.56z" fill="#464652"/><path d="m399.47 468.04c-40.92 27.75-90.3 43.96-143.47 43.96v-109.59c16.6 0 32.58-21.25 47.53-25.34 3.1-.85 6.15-.97 9.15 0 .37.12.73.25 1.1.4v.01c39.98 16.46 71.4 49.5 85.69 90.56z" fill="#2d2f40"/><path d="m313.775 377.472v.011l-15.993 43.578-41.783 31.975-41.814-32.647-15.961-42.917c17.809-7.33 37.32-11.372 57.775-11.372 20.456 0 39.966 4.043 57.776 11.372z" fill="#e9ecf8"/><path d="m313.77 377.47v.01l-15.99 43.58-41.78 31.98-.01-.01v-86.93h.01c20.45 0 39.97 4.04 57.77 11.37z" fill="#dbdeee"/><path d="m292.301 329.798v36.302c0 20.057-16.255 36.312-36.301 36.312-20.056 0-36.312-16.255-36.312-36.312v-36.301h72.613z" fill="#dfbca3"/><path d="m292.301 329.798v36.302c0 20.057-16.255 36.312-36.301 36.312v-72.613h36.301z" fill="#cb8f69"/><path d="m386.714 257.249v7.025c0 25.527-20.687 46.214-46.214 46.214h-66.344v-77.275h88.511c13.284-.001 24.047 10.762 24.047 24.036z" fill="#cb8f69"/><path d="m274.156 233.212v77.275h-103.695c-25.517 0-46.203-20.687-46.203-46.214v-7.025c0-13.273 10.763-24.036 24.036-24.036z" fill="#dfbca3"/><path d="m346.559 141.288v135.922c0 50.015-40.544 90.559-90.559 90.559-50.026 0-90.569-40.543-90.569-90.559v-135.922z" fill="#eed9c8"/><path d="m346.559 141.288v135.922c0 50.015-40.544 90.559-90.559 90.559v-226.481z" fill="#dfbca3"/><path d="m255.999 453.036-13.84 20.648 13.84 27.981 54.888-54.877-14.733-14.733 52.777-34.211c-10.669-8.275-22.482-15.153-35.157-20.372z" fill="#464652"/><path d="m255.999 453.036v48.629l-54.888-54.877 14.733-14.733-52.777-34.211c10.669-8.275 22.482-15.153 35.157-20.372z" fill="#616579"/><path d="m255.995 296.318c-5.518 0-9.992-4.474-9.992-9.992v-32.306c0-5.518 4.474-9.992 9.992-9.992 5.518 0 9.992 4.474 9.992 9.992v32.306c0 5.519-4.474 9.992-9.992 9.992z" fill="#cb8f69"/><g fill="#464652"><circle cx="219.525" cy="257.101" r="13.073"/><circle cx="292.465" cy="257.101" r="13.073"/></g><path d="m223.855 300.493c0 17.753 14.392 32.145 32.145 32.145s32.145-14.392 32.145-32.145z" fill="#fff"/><path d="m288.145 300.493c0 17.76-14.4 32.15-32.15 32.15v-32.15z" fill="#e9ecf8"/><path d="m255.999 402.412 20.106 24.328-20.106 26.296-6.52-25.312z" fill="#a8306e"/><path d="m256 402.412-20.106 24.328 20.105 26.296z" fill="#c02e71"/><path d="m381.637 83.047h-122.535c-27.376 0-49.568 22.192-49.568 49.568 0 27.376 22.192 49.568 49.568 49.568h36.231c47.665 0 86.305-38.64 86.305-86.305v-12.831z" fill="#464652"/><path d="m182.712 83.047h8.649c18.098 0 32.77 14.672 32.77 32.77v34.905c0 18.098-14.672 32.77-32.77 32.77h-8.649c-18.098 0-32.77-14.672-32.77-32.77v-34.905c0-18.099 14.672-32.77 32.77-32.77z" fill="#616578"/><g><path d="m149.942 141.288h21.681v92.149h-21.681z" fill="#616578"/><path d="m340.367 141.288h21.681v92.149h-21.681z" fill="#464652"/></g><g fill="#9965d8"><g><path d="m133.247 126.445v-15h-45.03l-20.047 64.072-7.074-26.277h-25.706v15h14.21l9.171 34.065 17.874.359 22.595-72.219z"/><path d="m116.16 142.82c-11.168 0-20.836 7.946-22.989 18.893l14.719 2.895c.773-3.933 4.251-6.787 8.271-6.787 4.513 0 8.208 3.564 8.42 8.025l-.186 1.448c-.771 3.02-2.578 6.576-5.378 10.575-8.154 11.645-14.538 20.715-18.972 26.96l-1.385 1.95v14.259l36.047.113.047-15-17.232-.054c3.793-5.379 8.404-11.945 13.783-19.625 4.008-5.725 6.625-11.146 7.78-16.112.028-.267.594-3.983.505-4.109 0-12.92-10.511-23.431-23.43-23.431z"/></g><g><path d="m408.804 309.215-21.147 21.146-21.146-21.146-10.608 10.606 21.147 21.147-21.147 21.147 10.608 10.606 21.146-21.146 21.147 21.146 10.607-10.606-21.147-21.147 21.147-21.147z"/><path d="m484.555 309.215-21.146 21.146-21.154-21.145-10.604 10.609 21.151 21.142-21.148 21.148 10.608 10.606 52.9-52.9z"/></g></g></g><g><g><path d="m439.151 208.247h-15v-30.841h7.5c6.748 0 13.028-2.699 17.683-7.602 4.651-4.899 7.02-11.324 6.668-18.091-.658-12.681-11.132-22.816-23.844-23.072-12.351-.259-22.953 8.766-24.656 20.969-.156 1.119-.235 2.266-.235 3.411h-15c0-1.837.128-3.682.38-5.485 2.754-19.723 19.911-34.277 39.814-33.891 20.536.414 37.457 16.794 38.521 37.292.565 10.917-3.259 21.285-10.771 29.197-5.758 6.064-13.058 10.04-21.061 11.568v16.545z" fill="#9965d8"/></g><path d="m424.151 217.674h15v14.5h-15z" fill="#9965d8"/></g></g></svg>