<svg id="Capa_1" enable-background="new 0 0 512 512" height="512" viewBox="0 0 512 512" width="512" xmlns="http://www.w3.org/2000/svg"><g><g><g><g><g><g><g><circle cx="256" cy="256" fill="#ffce00" r="256"/></g></g></g></g></g></g><path d="m512 256c0-.82-.004-1.64-.012-2.458l-166.235-166.236-237.474 227.119 74.482 74.482-87.362 9.359 108.41 108.41c16.85 3.49 34.306 5.324 52.191 5.324 141.385 0 256-114.615 256-256z" fill="#ffa300"/><g><path d="m399.719 314.425h-291.44l-17.677-42.678 219.795-219.796 35.356 35.355-177.118 177.119h231.084z" fill="#7584f2"/></g><g fill="#606aea"><path d="m345.753 87.306-35.356-35.355-54.579 54.579v70.711z"/><path d="m255.818 264.425h143.901v50h-143.901z"/></g><g><path d="m95.399 348.266h304.32v50h-304.32z" fill="#7584f2"/></g><g><path d="m255.818 348.266h143.901v50h-143.901z" fill="#606aea"/></g></g></svg>