<svg id="Capa_1" enable-background="new 0 0 512 512" height="512" viewBox="0 0 512 512" width="512" xmlns="http://www.w3.org/2000/svg"><path d="m511.989 258.355c-.597 66.273-26.385 126.539-68.239 171.675l-38.153 29.643c-7.128 5.538-15.07 9.942-23.542 13.056l-104.355 38.351h.12c-7.19.61-14.47.92-21.82.92-7.31 0-14.54-.31-21.69-.91l-104.348-38.349c-8.477-3.115-16.422-7.522-23.553-13.065l-38.159-29.656c-42.35-45.67-68.25-106.82-68.25-174.02 0-141.38 114.619-255.999 255.999-256 141.293-.001 257.264 117.068 255.99 258.355z" fill="#6c82ff"/><path d="m512 256c0 67.2-25.9 128.36-68.25 174.03l-.03.03-38.125 29.616c-7.127 5.536-15.066 9.939-23.537 13.052l-104.358 38.352h.12c-7.19.61-14.47.92-21.82.92-7.31 0-14.54-.31-21.69-.91h-.01l-104.339-38.349c-8.476-3.115-16.42-7.522-23.551-13.064l-38.16-29.657c-42.35-45.67-68.25-106.83-68.25-174.02 0-46.22 12.25-89.57 33.68-127 44.12 77.07 127.16 129 222.32 129s178.21-51.93 222.32-129c21.43 37.43 33.68 80.78 33.68 127z" fill="#4d6df4"/><circle cx="256" cy="320.501" fill="#ffe400" r="59.569"/><path d="m256 260.932v119.138c32.899 0 59.569-26.67 59.569-59.569s-26.67-59.569-59.569-59.569z" fill="#ffce00"/><circle cx="256" cy="320.501" fill="#ffce00" r="28.979"/><path d="m256 291.522v57.958c16.005 0 28.979-12.974 28.979-28.979s-12.974-28.979-28.979-28.979z" fill="#ffb600"/><path d="m343.9 159.19c-22.2-47.91-53.41-74.31-87.9-74.31s-65.7 26.4-87.9 74.31c-20.11 43.4-31.18 100.69-31.18 161.32 0 60.61 11.07 117.91 31.18 161.3 2.94 6.35 6.04 12.31 9.28 17.89 18.17 5.86 37.23 9.74 56.93 11.39-11.71-8.63-23.01-23.97-32.67-44.82-17.89-38.62-27.75-90.39-27.75-145.76 0-55.39 9.86-107.14 27.75-145.78 15.57-33.61 35.39-52.87 54.36-52.87s38.79 19.26 54.36 52.87c17.89 38.64 27.75 90.39 27.75 145.78 0 55.37-9.86 107.14-27.75 145.76-9.66 20.85-20.95 36.18-32.66 44.81 16.47-1.37 32.49-4.31 47.93-8.66h.01c3.02-.85 6-1.76 8.97-2.71h.01c3.24-5.58 6.34-11.55 9.28-17.9 20.11-43.39 31.18-100.69 31.18-161.3 0-60.63-11.07-117.92-31.18-161.32z" fill="#fff"/><path d="m375.08 320.51c0 60.61-11.07 117.91-31.18 161.3-2.94 6.35-6.04 12.32-9.28 17.9-2.97.95-5.96 1.86-8.98 2.71h-.01c-15.44 4.35-31.47 7.29-47.94 8.66 11.71-8.62 23.01-23.96 32.67-44.81 17.89-38.62 27.75-90.39 27.75-145.76 0-55.39-9.86-107.14-27.75-145.78-15.57-33.61-35.39-52.87-54.36-52.87v-36.98c34.49 0 65.7 26.4 87.9 74.31 20.11 43.4 31.18 100.69 31.18 161.32z" fill="#d1f6ff"/><path d="m422.61 153.9c-24.38-24.39-65.12-27.8-114.71-9.61-16.97 6.22-34.43 14.76-51.9 25.29-28.75 17.33-57.53 40.04-84.2 66.72-42.87 42.87-75.55 91.21-92.02 136.11-7.69 20.98-11.52 40.37-11.53 57.61 29.47 31.78 66.9 56.07 109.13 69.68 2.98.96 5.98 1.87 9.01 2.71 5.76-1.57 11.67-3.47 17.71-5.69 16.97-6.23 34.43-14.77 51.9-25.29 5.64-3.4 11.28-7 16.91-10.81 23.05-15.59 45.85-34.47 67.29-55.92 42.87-42.86 75.55-91.21 92.02-136.1 18.19-49.58 14.77-90.32-9.61-114.7zm-25.1 101.97c-14.66 39.97-44.3 83.54-83.45 122.69-18.64 18.63-38.28 35.12-58.06 48.85-21.77 15.13-43.7 26.92-64.64 34.6-34.77 12.76-62.41 12.38-75.83-1.05-13.41-13.41-13.79-41.04-1.04-75.82 14.66-39.96 44.3-83.54 83.45-122.7 18.64-18.63 38.28-35.12 58.06-48.84 21.77-15.14 43.7-26.92 64.64-34.61 16.91-6.2 32.14-9.3 44.86-9.3 13.43 0 24.08 3.46 30.97 10.35 13.41 13.41 13.79 41.06 1.04 75.83z" fill="#d1f6ff"/><path d="m432.22 268.595c-16.47 44.9-49.15 93.24-92.02 136.11-21.44 21.44-44.24 40.32-67.29 55.91-5.63 3.81-11.27 7.41-16.91 10.81v-44.02c19.78-13.72 39.42-30.21 58.06-48.85 39.15-39.15 68.79-82.72 83.45-122.69 12.75-34.77 12.37-62.41-1.04-75.83-6.89-6.89-17.54-10.34-30.97-10.34-12.72 0-27.95 3.09-44.86 9.3-20.94 7.68-42.87 19.47-64.64 34.6v-44.02c17.47-10.53 34.93-19.07 51.9-25.29 49.59-18.19 90.33-14.78 114.71 9.61 24.38 24.38 27.8 65.12 9.61 114.7z" fill="#b3f4ff"/><path d="m417.31 232.595c-43.4-20.1-100.68-31.17-161.31-31.17s-117.91 11.07-161.31 31.17c-47.92 22.2-74.31 53.42-74.31 87.91 0 34.48 26.39 65.7 74.31 87.9 43.4 20.1 100.68 31.18 161.31 31.18s117.91-11.08 161.31-31.18c47.92-22.2 74.31-53.42 74.31-87.9 0-34.49-26.39-65.71-74.31-87.91zm-15.54 142.26c-38.63 17.9-90.4 27.75-145.77 27.75s-107.14-9.85-145.77-27.75c-33.6-15.57-52.88-35.38-52.88-54.35 0-18.98 19.28-38.79 52.88-54.36 38.63-17.9 90.4-27.75 145.77-27.75s107.14 9.85 145.77 27.75c33.6 15.57 52.88 35.38 52.88 54.36 0 18.97-19.28 38.78-52.88 54.35z" fill="#b3f4ff"/><path d="m491.62 320.505c0 34.48-26.39 65.7-74.31 87.9-43.4 20.1-100.68 31.18-161.31 31.18v-36.98c55.37 0 107.14-9.85 145.77-27.75 33.6-15.57 52.88-35.38 52.88-54.35 0-18.98-19.28-38.79-52.88-54.36-38.63-17.9-90.4-27.75-145.77-27.75v-36.97c60.63 0 117.91 11.07 161.31 31.17 47.92 22.2 74.31 53.42 74.31 87.91z" fill="#8fc8f5"/><path d="m432.22 372.41c-16.47-44.9-49.15-93.24-92.02-136.11-26.67-26.68-55.45-49.39-84.2-66.72-17.47-10.53-34.93-19.07-51.9-25.29-49.59-18.19-90.33-14.78-114.71 9.61-24.38 24.38-27.8 65.12-9.61 114.7 8.24 22.45 20.52 45.76 36.11 68.82 15.59 23.04 34.47 45.85 55.91 67.28 26.67 26.68 55.45 49.4 84.2 66.73 17.47 10.52 34.93 19.06 51.9 25.29 6.05 2.22 11.96 4.12 17.73 5.7h.01c45.9-12.95 86.57-38.38 118.11-72.39-.01-17.25-3.84-36.64-11.53-57.62zm-35.75 88.55c-13.42 13.43-41.06 13.81-75.83 1.05-20.94-7.68-42.87-19.47-64.64-34.6-19.78-13.73-39.42-30.22-58.06-48.85-39.15-39.15-68.79-82.72-83.45-122.69-12.75-34.77-12.37-62.42 1.04-75.83 13.42-13.42 41.06-13.81 75.83-1.05 20.94 7.69 42.87 19.47 64.64 34.61 19.78 13.72 39.42 30.21 58.06 48.84 39.15 39.16 68.79 82.74 83.45 122.7 12.75 34.78 12.37 62.41-1.04 75.82z" fill="#8fc8f5"/><path d="m443.75 430.03c-31.54 34.01-72.22 59.44-118.12 72.39-5.77-1.58-11.68-3.48-17.73-5.7-16.97-6.23-34.43-14.77-51.9-25.29v-44.02c21.77 15.13 43.7 26.92 64.64 34.6 34.77 12.76 62.41 12.38 75.83-1.05 13.41-13.41 13.79-41.04 1.04-75.82-14.66-39.96-44.3-83.54-83.45-122.7-18.64-18.63-38.28-35.12-58.06-48.84v-44.02c28.75 17.33 57.53 40.04 84.2 66.72 42.87 42.87 75.55 91.21 92.02 136.11 7.69 20.98 11.52 40.37 11.53 57.62z" fill="#65b2fe"/><circle cx="85.406" cy="229.414" fill="#ffe400" r="33.136"/><path d="m85.406 196.279v66.271c18.3 0 33.136-14.835 33.136-33.136s-14.836-33.135-33.136-33.135z" fill="#ffce00"/><circle cx="417.918" cy="394.119" fill="#ffce00" r="33.136"/><path d="m417.918 360.984v66.271c18.3 0 33.136-14.835 33.136-33.136 0-18.3-14.836-33.135-33.136-33.135z" fill="#ffb600"/></svg>