<svg id="Layer_1" enable-background="new 0 0 502.082 502.082" height="512" viewBox="0 0 502.082 502.082" width="512" xmlns="http://www.w3.org/2000/svg"><g><g><path d="m485.741 253.438c0 136.967-100.069 232.176-237.035 232.176s-233.026-99.015-233.026-235.982c0-91.803 34.201-170.546 108.339-213.424 36.473-21.094 78.817-33.167 123.981-33.167 77.044 0 145.882 35.132 191.369 90.249 35.378 42.869 46.372 100.225 46.372 160.148z" fill="#82cd64"/></g><path d="m496 251.041c0-57.894-19.845-111.147-53.096-153.345-12.349-15.672-31.142-24.896-51.096-24.896h-220.231-24.862c-18.624 0-30.99-19.477-22.864-36.235.057-.117.114-.234.171-.351-73.81 42.688-123.58 122.316-124.019 213.61-.66 137.259 110.738 249.218 247.998 249.217 63.874 0 122.099-24.157 166.06-63.823h.009c51.907-46.884 81.93-113.241 81.93-184.177z" fill="#20b7a1"/><g><g><path d="m74.918 198.974h402.165v225.259h-402.165z" fill="#ffc305"/></g><g><path d="m136.113 417.719h340.97v34.999h-340.97z" fill="#ff8500"/></g><path d="m74.918 428.63c8.952 8.726 18.554 16.785 28.739 24.088h40.478v-34.999h-69.217z" fill="#fa690f"/><g><path d="m497.195 177.728-20.113-87.428h-342.872v87.428z" fill="#ff8500"/></g><g><path d="m496.245 173.599h-123.084c-14.467 0-28.054-6.949-36.521-18.68l-34.991-48.476c-6.069-8.407-18.588-8.407-24.656 0l-35.144 48.688c-8.371 11.597-21.803 18.467-36.106 18.467h-33.622c-21.296 0-37.061-19.803-32.287-40.557l9.833-42.742h-74.75l-25 108.674h452.165z" fill="#fa690f"/></g><g><path d="m247.824 179.137 4.377 273.581h89.736v-253.744l-43.437-60.177z" fill="#ff5551"/></g><g><path d="m279.031 182.759c-.106-.011-.212-.022-.318-.032-4.942-.466-7.551-6.057-4.645-10.082l24.432-33.848-22.5-31.171-65.937 91.348v253.744h45v-193.576c0-11.348 9.34-20.291 20.687-20.193.083.001.166.001.249.001 16.577 0 29.81-14.316 28.011-31.259-1.385-13.056-11.921-23.556-24.979-24.932z" fill="#e20a62"/></g><g><circle cx="276" cy="201.775" fill="#fff" r="28.176"/></g><g><path d="m269.541 452.718h-41.671v-19.532l10.47-26.599-10.47-19.154v-43.825h41.671l-5.475 25.901 5.475 22.006v15.072l-5.475 17.646 5.475 13.799z" fill="#6ee1ff"/></g><g><path d="m325.011 452.718h-41.671v-28.485l5.115-17.646-5.115-13.799v-15.072l8.226-20.56 25.882-13.548h7.563v7.509l-4.838 21.264 4.838 10.181z" fill="#6ee1ff"/></g><g><path d="m241.195 319.819h100.742v23.788h-100.742z" fill="#ffc305"/></g><g><path d="m210.063 319.819h37.761v23.788h-37.761z" fill="#ff8500"/></g><g><g><g><g><path d="m130.505 398.337h-36.177v-39.569c0-9.99 8.099-18.089 18.089-18.089 9.99 0 18.089 8.099 18.089 18.089v39.569z" fill="#6ee1ff"/></g><g><path d="m119.817 342.275c-2.261-1.016-4.761-1.595-7.401-1.595-9.99 0-18.089 8.099-18.089 18.089v39.569h14.802v-39.569c.001-7.351 4.392-13.664 10.688-16.494z" fill="#2896ff"/></g><g><path d="m112.417 344.156c7.333 0 13.299 5.966 13.299 13.3v37.405h-26.599v-37.405c0-7.334 5.966-13.3 13.3-13.3m0-7c-11.211 0-20.3 9.089-20.3 20.3v44.405h40.599v-44.405c0-11.211-9.088-20.3-20.299-20.3z" fill="#ff8500"/></g></g><g><g><path d="m189.478 398.337h-36.177v-39.569c0-9.99 8.099-18.089 18.089-18.089 9.99 0 18.089 8.099 18.089 18.089v39.569z" fill="#6ee1ff"/></g><g><path d="m178.791 342.275c-2.261-1.016-4.761-1.595-7.401-1.595-9.99 0-18.089 8.099-18.089 18.089v39.569h14.802v-39.569c0-7.351 4.392-13.664 10.688-16.494z" fill="#2896ff"/></g><g><path d="m171.39 344.156c7.333 0 13.299 5.966 13.299 13.3v37.405h-26.599v-37.405c0-7.334 5.966-13.3 13.3-13.3m0-7c-11.211 0-20.3 9.089-20.3 20.3v44.405h40.599v-44.405c0-11.211-9.088-20.3-20.299-20.3z" fill="#ff8500"/></g></g></g><g><g><g><path d="m130.505 293.739h-36.177v-39.569c0-9.99 8.099-18.089 18.089-18.089 9.99 0 18.089 8.099 18.089 18.089v39.569z" fill="#6ee1ff"/></g><g><path d="m119.817 237.677c-2.261-1.016-4.761-1.595-7.401-1.595-9.99 0-18.089 8.099-18.089 18.089v39.569h14.802v-39.57c.001-7.35 4.392-13.663 10.688-16.493z" fill="#2896ff"/></g><g><path d="m112.417 239.558c7.333 0 13.299 5.966 13.299 13.3v37.405h-26.599v-37.405c0-7.334 5.966-13.3 13.3-13.3m0-7c-11.211 0-20.3 9.089-20.3 20.3v44.405h40.599v-44.405c0-11.211-9.088-20.3-20.299-20.3z" fill="#ff8500"/></g></g><g><g><path d="m189.478 293.739h-36.177v-39.569c0-9.99 8.099-18.089 18.089-18.089 9.99 0 18.089 8.099 18.089 18.089v39.569z" fill="#6ee1ff"/></g><g><path d="m178.791 237.677c-2.261-1.016-4.761-1.595-7.401-1.595-9.99 0-18.089 8.099-18.089 18.089v39.569h14.802v-39.57c0-7.35 4.392-13.663 10.688-16.493z" fill="#2896ff"/></g><g><path d="m171.39 239.558c7.333 0 13.299 5.966 13.299 13.3v37.405h-26.599v-37.405c0-7.334 5.966-13.3 13.3-13.3m0-7c-11.211 0-20.3 9.089-20.3 20.3v44.405h40.599v-44.405c0-11.211-9.088-20.3-20.299-20.3z" fill="#ff8500"/></g></g></g></g><g><g><g><g><path d="m398.025 395.73h-36.177v-39.569c0-9.99 8.099-18.089 18.089-18.089 9.99 0 18.089 8.099 18.089 18.089v39.569z" fill="#6ee1ff"/></g><g><path d="m387.337 339.667c-2.261-1.016-4.761-1.595-7.401-1.595-9.99 0-18.089 8.099-18.089 18.089v39.569h14.802v-39.569c.001-7.35 4.392-13.663 10.688-16.494z" fill="#2896ff"/></g><g><path d="m379.937 341.549c7.333 0 13.299 5.966 13.299 13.3v37.405h-26.599v-37.405c0-7.334 5.966-13.3 13.3-13.3m0-7c-11.211 0-20.3 9.088-20.3 20.3v44.405h40.599v-44.405c0-11.212-9.088-20.3-20.299-20.3z" fill="#ff8500"/></g></g><g><g><path d="m456.998 395.73h-36.177v-39.569c0-9.99 8.099-18.089 18.089-18.089 9.99 0 18.089 8.099 18.089 18.089v39.569z" fill="#6ee1ff"/></g><g><path d="m446.311 339.667c-2.261-1.016-4.761-1.595-7.401-1.595-9.99 0-18.089 8.099-18.089 18.089v39.569h14.802v-39.569c0-7.35 4.392-13.663 10.688-16.494z" fill="#2896ff"/></g><g><path d="m438.91 341.549c7.333 0 13.299 5.966 13.299 13.3v37.405h-26.599v-37.405c0-7.334 5.966-13.3 13.3-13.3m0-7c-11.211 0-20.3 9.088-20.3 20.3v44.405h40.599v-44.405c0-11.212-9.088-20.3-20.299-20.3z" fill="#ff8500"/></g></g></g><g><g><g><path d="m398.025 291.132h-36.177v-39.569c0-9.99 8.099-18.089 18.089-18.089 9.99 0 18.089 8.099 18.089 18.089v39.569z" fill="#6ee1ff"/></g><g><path d="m387.337 235.069c-2.261-1.016-4.761-1.595-7.401-1.595-9.99 0-18.089 8.099-18.089 18.089v39.569h14.802v-39.569c.001-7.351 4.392-13.664 10.688-16.494z" fill="#2896ff"/></g><g><path d="m379.937 236.951c7.333 0 13.299 5.966 13.299 13.299v37.405h-26.599v-37.405c0-7.333 5.966-13.299 13.3-13.299m0-7c-11.211 0-20.3 9.088-20.3 20.299v44.405h40.599v-44.405c0-11.211-9.088-20.299-20.299-20.299z" fill="#ff8500"/></g></g><g><g><path d="m456.998 291.132h-36.177v-39.569c0-9.99 8.099-18.089 18.089-18.089 9.99 0 18.089 8.099 18.089 18.089v39.569z" fill="#6ee1ff"/></g><g><path d="m446.311 235.069c-2.261-1.016-4.761-1.595-7.401-1.595-9.99 0-18.089 8.099-18.089 18.089v39.569h14.802v-39.569c0-7.351 4.392-13.664 10.688-16.494z" fill="#2896ff"/></g><g><path d="m438.91 236.951c7.333 0 13.299 5.966 13.299 13.299v37.405h-26.599v-37.405c0-7.333 5.966-13.299 13.3-13.299m0-7c-11.211 0-20.3 9.088-20.3 20.299v44.405h40.599v-44.405c0-11.211-9.088-20.299-20.299-20.299z" fill="#ff8500"/></g></g></g></g><g><path d="m283.34 377.716 34.108-34.108h-34.108z" fill="#fff"/></g><g><path d="m227.87 433.186 41.671-41.671v-45.753l-41.671 41.671z" fill="#fff"/></g><g><path d="m283.34 424.233 41.671-41.671v-31.445l-41.671 41.671z" fill="#fff"/></g><g><path d="m269.541 438.032v-31.445l-41.671 41.671v4.46h26.985z" fill="#fff"/></g><g><path d="m266.568 210.989c-.781 0-1.551-.365-2.039-1.051-.801-1.124-.538-2.686.587-3.486l8.384-5.967v-18.849c0-1.381 1.119-2.5 2.5-2.5s2.5 1.119 2.5 2.5v21.427l-10.484 7.463c-.44.313-.947.463-1.448.463z" fill="#2896ff"/></g></g></g></svg>