<svg id="Capa_1" enable-background="new 0 0 512 512" height="512" viewBox="0 0 512 512" width="512" xmlns="http://www.w3.org/2000/svg"><g><g><path d="m256 346.941c-141.387 0-243.753-180.515-222.327-217.942 44.119-77.07 127.157-128.999 222.327-128.999s178.208 51.929 222.328 128.999c21.425 37.427-80.941 217.942-222.328 217.942z" fill="#f3d37a"/><path d="m512 256c0 26.051-3.891 51.191-11.129 74.871-5.031 16.469-11.672 32.231-19.75 47.109-8.25 15.2-147.391 50.576-225.121 50.576s-216.871-35.376-225.109-50.576c-3.289-6.031-6.332-12.21-9.121-18.531-14-31.629-21.77-66.629-21.77-103.449 0-46.219 12.25-89.57 33.68-127 44.121 77.07 127.16 129 222.32 129s178.211-51.93 222.32-129c21.43 37.43 33.68 80.781 33.68 127zm0 0" fill="#efc142"/><path d="m481.262 377.699c-7.16 13.223-15.434 25.742-24.723 37.43-8.437 10.633-17.719 20.57-27.719 29.723-2.214 2.027-4.464 4.016-6.749 5.966-44.704 38.148-287.494 38.126-332.207-.055-2.263-1.932-4.491-3.903-6.685-5.911-10-9.153-19.282-19.09-27.719-29.723-9.289-11.688-17.563-24.207-24.723-37.43zm0 0" fill="#e38d22"/></g><g><path d="m422.055 255.68h51.945l-218-179.68-218 179.68h51.945v195.145c44.704 38.139 102.685 61.175 166.055 61.175s121.351-23.036 166.055-61.175z" fill="#a4e2fd"/><path d="m256.853 76.703-.651-.703-126.706 179.68v222.919c37.315 21.252 80.489 33.401 126.504 33.401.285 0 .568-.01.853-.011z" fill="#8ab8ec"/><path d="m422.055 255.68h51.945l-218-179.68v436c63.37 0 121.351-23.036 166.055-61.175z" fill="#728ee4"/><path d="m256 370.641h-89.414v51.094c0 26.47 44.907 38.32 89.414 38.32s89.414-11.85 89.414-38.32v-51.094z" fill="#dce0ef"/><path d="m345.414 421.734v-51.094h-89.414v89.414c44.507.001 89.414-11.85 89.414-38.32z" fill="#cad0e7"/><path d="m256 319.547h-89.414v51.094c0 26.47 44.907 38.32 89.414 38.32s89.414-11.85 89.414-38.32v-51.094z" fill="#fbf5eb"/><path d="m345.414 370.641v-51.094h-89.414v89.414c44.507 0 89.414-11.85 89.414-38.32z" fill="#dce0ef"/><path d="m256 268.453h-89.414v51.094c0 26.47 44.907 38.32 89.414 38.32s89.414-11.85 89.414-38.32v-51.094z" fill="#dce0ef"/><path d="m345.414 319.547v-51.094h-89.414v89.414c44.507 0 89.414-11.85 89.414-38.32z" fill="#cad0e7"/><ellipse cx="256" cy="268.453" fill="#fbf5eb" rx="89.414" ry="38.32"/><path d="m345.414 268.453c0-26.47-44.907-38.32-89.414-38.32v76.641c44.507-.001 89.414-11.851 89.414-38.321z" fill="#dce0ef"/></g></g></svg>