<svg id="Capa_1" enable-background="new 0 0 512 512" height="512" viewBox="0 0 512 512" width="512" xmlns="http://www.w3.org/2000/svg"><g><g><path d="m256 294.026c-141.387 0-244.868-123.551-225.263-159.755 43.301-79.964 127.939-134.271 225.263-134.271 97.204 0 181.752 54.173 225.103 133.974 19.704 36.274-83.716 160.052-225.103 160.052z" fill="#e27fad"/><path d="m512 256c0 26.051-3.891 51.191-11.129 74.871-5.031 16.469-11.672 32.231-19.75 47.109-8.25 15.2-147.391 37.376-225.121 37.376s-216.871-22.176-225.109-37.376c-3.289-6.031-6.332-12.21-9.121-18.531-14-31.629-21.77-66.629-21.77-103.449 0-46.219 12.25-89.57 33.68-127 44.121 77.07 127.16 129 222.32 129s178.211-51.93 222.32-129c21.43 37.43 33.68 80.781 33.68 127zm0 0" fill="#dc4180"/><path d="m481.262 377.699c-7.16 13.223-15.434 25.742-24.723 37.43-8.437 10.633-17.719 20.57-27.719 29.723-9.357 8.568-19.353 16.45-29.909 23.566-40.815 27.516-244.582 27.655-285.292.357-10.751-7.209-20.926-15.212-30.439-23.923-10-9.153-19.282-19.09-27.719-29.723-9.289-11.688-17.563-24.207-24.723-37.43zm0 0" fill="#9f165b"/></g><g><path d="m400.026 136.122h-55.112l-88.914 77.157h144.026z" fill="#1394fb"/><path d="m111.974 136.122v77.157h144.026l-88.914-77.157z" fill="#64b0fb"/><path d="m256 136.122-44.09 77.157h133.004v-77.157z" fill="#ffeb78"/><path d="m167.086 136.122h88.914v77.157h-88.914z" fill="#fff0be"/><path d="m400.026 191.234h-22.045l-166.071 22.045v121.246l232.205-44.09v-55.112c.001-24.31-19.778-44.089-44.089-44.089z" fill="#2d3e53"/><path d="m134.019 191.234h-22.045c-24.311 0-44.09 19.779-44.09 44.09v55.112l188.116 44.089v-121.246z" fill="#435d7a"/><path d="m134.019 191.234h-22.045c-24.311 0-44.09 19.779-44.09 44.09v55.112l116.103 44.09v-121.247z" fill="#57799e"/><path d="m444.116 429.613v-139.177h-188.116l-95.528 143.291h279.763c1.31-1.357 2.602-2.729 3.881-4.114z" fill="#16202d"/><path d="m67.884 429.613c1.279 1.385 2.571 2.758 3.88 4.114h184.236v-143.291h-188.116z" fill="#2d3e53"/><path d="m67.884 429.613c1.279 1.385 2.571 2.758 3.88 4.114h112.223v-143.291h-116.103z" fill="#415a78"/><path d="m256 191.234-58.786 33.067 58.786 33.067h121.981v-66.134z" fill="#16202d"/><path d="m134.019 191.234h121.981v66.134h-121.981z" fill="#2d3e53"/><path d="m134.019 191.234h49.968v66.134h-49.968z" fill="#415a78"/><path d="m400.026 378.615v-55.112h-144.026l-44.09 99.202z" fill="#435d7a"/><path d="m256 323.503h-144.026v55.112l144.026 36.741z" fill="#5a7ba0"/><path d="m183.987 323.503h-72.013v55.112l72.013 36.741z" fill="#7298c2"/><path d="m211.91 445.484 43.855 66.513c.078 0 .156.003.235.003 53.41 0 102.993-16.364 144.026-44.339v-89.046h-144.026z" fill="#ffeb78"/><path d="m111.974 378.615v89.046c41.033 27.975 90.616 44.339 144.026 44.339v-133.385z" fill="#fff0be"/><path d="m111.974 467.661c21.822 14.878 46.064 26.462 72.013 34.054v-123.1h-72.013z" fill="#fff9e3"/></g></g></svg>