<svg id="Capa_1" enable-background="new 0 0 512 512" height="512" viewBox="0 0 512 512" width="512" xmlns="http://www.w3.org/2000/svg"><circle cx="256" cy="256" fill="#4e679b" r="256"/><path d="m512 256c0 87.11-43.52 164.07-110 210.31-41.41 28.8-91.73 45.69-146 45.69s-104.59-16.89-146-45.69c-66.48-46.24-110-123.2-110-210.31 0-46.22 12.25-89.57 33.68-127 44.12 77.07 127.16 129 222.32 129s178.21-51.93 222.32-129c21.43 37.43 33.68 80.78 33.68 127z" fill="#364d7f"/><path d="m452 316c0 105.34-83.12 191.28-187.34 195.81-.31.02-.62.03-.93.04-.87.03-1.74.06-2.6.08-1.73.05-3.44.07-5.13.07-108.24 0-196-87.76-196-196s87.76-196 196-196h.28c108.11.15 195.72 87.85 195.72 196z" fill="#ffe853"/><path d="m452 316c0 105.34-83.12 191.28-187.34 195.81-.31.02-.62.03-.93.04-.87.03-1.74.06-2.6.08-1.73.05-3.44.07-5.13.07-58.54-45.3-103.35-116.25-103.35-196s44.81-150.7 103.35-196h.28c108.11.15 195.72 87.85 195.72 196z" fill="#fed110"/><path d="m452 316c0 108.244-87.756 196-196 196v-392c108.244 0 196 87.756 196 196z" fill="#ff9f01"/><g fill="#29334c"><path d="m228.256 302.87c-1.387 25.862-21.923 47.141-47.722 49.409-30.246 2.659-55.841-20.412-57.193-49.859-.036-.71-.057-1.436-.062-2.146 0-.057-.001-.114-.001-.171-.015-4.895 6.39-6.828 9.182-2.808 9.539 13.738 25.477 22.693 43.461 22.582 17.981-.111 33.804-9.248 43.189-23.094 2.772-4.09 9.187-2.151 9.223 2.79.008 1.093-.017 2.192-.077 3.297z"/><path d="m388.643 302.87c-1.387 25.862-21.923 47.141-47.723 49.409-30.246 2.659-55.841-20.412-57.193-49.859-.037-.71-.057-1.436-.062-2.146 0-.057-.001-.114-.001-.171-.014-4.895 6.39-6.828 9.182-2.808 9.54 13.738 25.477 22.693 43.461 22.582 17.981-.111 33.804-9.248 43.19-23.094 2.772-4.09 9.187-2.151 9.223 2.79.008 1.093-.017 2.192-.077 3.297z"/><ellipse cx="256" cy="429.517" rx="50.414" ry="59.5"/></g><path d="m364.799 185.806c0 3.076-1.155 6.04-3.237 8.305l-26.444 28.763h20.048c6.039 0 10.935 4.896 10.935 10.935 0 6.039-4.896 10.935-10.935 10.935h-44.749c-6.777 0-12.27-5.493-12.27-12.27 0-3.076 1.155-6.04 3.237-8.305l26.444-28.764h-17.445c-6.039 0-10.935-4.896-10.935-10.935 0-6.039 4.896-10.935 10.935-10.935h42.146c6.776.001 12.27 5.494 12.27 12.271z" fill="#fff"/><path d="m445.911 126.434c0 2.574-.967 5.053-2.708 6.948l-22.124 24.065h16.773c5.053 0 9.149 4.096 9.149 9.149 0 5.053-4.096 9.149-9.149 9.149h-37.439c-5.67 0-10.266-4.596-10.266-10.266 0-2.574.967-5.053 2.708-6.948l22.124-24.065h-14.595c-5.053 0-9.149-4.096-9.149-9.149 0-5.053 4.096-9.149 9.149-9.149h35.261c5.67 0 10.266 4.596 10.266 10.266z" fill="#fff"/><path d="m374.911 66.434c0 2.574-.967 5.053-2.708 6.948l-22.124 24.065h16.773c5.053 0 9.149 4.096 9.149 9.149 0 5.053-4.096 9.149-9.149 9.149h-37.439c-5.67 0-10.266-4.596-10.266-10.266 0-2.574.967-5.053 2.708-6.948l22.124-24.065h-14.595c-5.053 0-9.149-4.096-9.149-9.149 0-5.053 4.096-9.149 9.149-9.149h35.261c5.67 0 10.266 4.596 10.266 10.266z" fill="#fff"/></svg>