<svg id="Capa_1" enable-background="new 0 0 512 512" height="512" viewBox="0 0 512 512" width="512" xmlns="http://www.w3.org/2000/svg"><g><g><path d="m512 256c0 141.387-114.613 256-256 256s-256-114.613-256-256 114.613-256 256-256 256 114.613 256 256zm0 0" fill="#a8eb58"/><path d="m512 256c0 26.051-3.891 51.191-11.129 74.871-5.031 16.469-11.672 32.231-19.75 47.109-8.25 15.2-147.391 55.586-225.121 55.586s-216.871-40.386-225.109-55.586c-3.289-6.031-6.332-12.21-9.121-18.531-14-31.629-21.77-66.629-21.77-103.449 0-46.219 12.25-89.57 33.68-127 44.121 77.07 127.16 129 222.32 129s178.211-51.93 222.32-129c21.43 37.43 33.68 80.781 33.68 127zm0 0" fill="#80cf8c"/><path d="m481.262 377.699c-7.16 13.223-15.434 25.742-24.723 37.43-8.437 10.633-17.719 20.57-27.719 29.723-45.539 41.699-106.211 67.148-172.82 67.148s-127.281-25.449-172.82-67.148c-10-9.153-19.282-19.09-27.719-29.723-9.289-11.688-17.563-24.207-24.723-37.43zm0 0" fill="#599d8a"/></g><g><path d="m132.895 231.469h22.383v44.766h-22.383z" fill="#dce0ef"/><path d="m356.723 231.469h22.383v44.766h-22.383z" fill="#cad0e7"/><path d="m177.66 265.043 11.192 11.191-11.192 11.192h-67.148v-22.383z" fill="#fbf5eb"/><path d="m334.34 265.043v22.383h-67.149v33.574h-22.382v-33.574h-67.149v-22.383z" fill="#8ab8ec"/><path d="m401.488 265.043v22.383h-67.148l-11.192-11.192 11.192-11.191z" fill="#dce0ef"/><path d="m334.34 265.043v22.383h-67.149v33.574h-11.191v-55.957z" fill="#728ee4"/><path d="m222.426 242.66h-157.426v-112.66h157.426z" fill="#535564"/><path d="m447 242.66h-157.426v-112.66h157.426z" fill="#3b3b3b"/><path d="m87.383 152.383h112.66v67.895h-112.66z" fill="#a4e2fd"/><path d="m143.713 152.383h56.33v67.895h-56.33z" fill="#8ab8ec"/><path d="m311.957 152.383h112.66v67.895h-112.66z" fill="#728ee4"/><path d="m256 432.914h-78.34v45.512c0 23.191 39.345 33.574 78.34 33.574s78.34-10.383 78.34-33.574v-45.512z" fill="#dce0ef"/><path d="m334.34 478.426v-45.512h-78.34v79.086c38.995 0 78.34-10.383 78.34-33.574z" fill="#cad0e7"/><path d="m256 388.148h-78.34v44.766c0 23.191 39.345 33.574 78.34 33.574s78.34-10.383 78.34-33.574v-44.766z" fill="#fbf5eb"/><path d="m334.34 432.914v-44.766h-78.34v78.34c38.995 0 78.34-10.382 78.34-33.574z" fill="#dce0ef"/><path d="m256 343.383h-78.34v44.766c0 23.192 39.345 33.574 78.34 33.574s78.34-10.383 78.34-33.574v-44.766z" fill="#dce0ef"/><path d="m334.34 388.148v-44.766h-78.34v78.34c38.995.001 78.34-10.382 78.34-33.574z" fill="#cad0e7"/><ellipse cx="256" cy="343.383" fill="#fbf5eb" rx="78.34" ry="33.574"/><path d="m334.34 343.383c0-23.192-39.345-33.574-78.34-33.574v67.148c38.995 0 78.34-10.383 78.34-33.574z" fill="#dce0ef"/></g></g></svg>