<svg id="Capa_1" enable-background="new 0 0 512 512" height="512" viewBox="0 0 512 512" width="512" xmlns="http://www.w3.org/2000/svg"><g><g><g><g><g><g><g><circle cx="256" cy="256" fill="#7584f2" r="256"/></g></g></g></g></g></g><path d="m472.931 391.993-327.671-327.671v340.911l106.737 106.737c1.332.02 2.667.031 4.004.031 91.417-.001 171.643-47.919 216.93-120.008z" fill="#4253ce"/><g><path d="m232.951 389.581h-30v-42.691h-42.691v-30h72.691z" fill="#ff6c52"/></g><path d="m202.951 346.89v42.691h30v-72.691z" fill="#ff432e"/><g><path d="m167.335 233.189v-30c20.538 0 39.675-10.177 51.191-27.224l24.858 16.794c-17.102 25.316-45.532 40.43-76.049 40.43z" fill="#ffce00"/></g><g><path d="m283.442 393.537c-1.493-6.616-2.251-13.436-2.251-20.272 0-30.517 15.114-58.947 40.43-76.05l16.794 24.859c-17.046 11.516-27.224 30.653-27.224 51.191 0 4.616.51 9.214 1.515 13.664z" fill="#fdba12"/></g><g><path d="m432.397 405.233h-287.137v-340.911zm-257.137-30h192.646l-192.646-228.724z" fill="#fff"/></g><g><path d="m432.397 405.233-131.352-155.952-21.292 21.291 88.152 104.661h-192.645l-30 30z" fill="#e9edf5"/></g></g></svg>