<svg id="Layer_1" enable-background="new 0 0 512 512" height="512" viewBox="0 0 512 512" width="512" xmlns="http://www.w3.org/2000/svg"><g><g><path d="m512 256c0 46.023-12.145 89.209-33.404 126.529-44.051 77.329-127.234 115.092-222.596 115.092-141.385 0-256-100.236-256-241.621s114.615-256 256-256 256 114.615 256 256z" fill="#2d56a1"/></g><path d="m475.265 388.193c-.003.002-.006.004-.01.005 1.134-1.876 2.245-3.767 3.332-5.674-13.818 0-25.02-11.202-25.02-25.02v-250.708c0-9.184-3.501-18.01-9.745-24.744-.071-.077-.142-.153-.213-.229-6.842-7.362-16.463-11.513-26.514-11.513h-186.304-75.458c-14.593 0-26.423 11.83-26.423 26.423v133.468c0 3.487-1.136 6.899-3.316 9.62-.088.11-.177.221-.264.332-8.012 10.128-24.073 6.876-27.431-5.594-.21-.781-.417-1.562-.62-2.345-14.129-54.524-94.009-45.952-96.93 10.297-.191 3.673-.304 7.367-.338 11.079-1.312 142.261 112.41 257.69 254.675 258.406 93.092.469 175.295-48.862 220.579-123.803z" fill="#1a396b"/><g><path d="m260.893 400.564c-.449-10.03 8.858-18.573 18.573-18.573h151.231v-299.243h-225.909v336.354h73.98c-10.053-.375-17.435-8.704-17.875-18.538z" fill="#ffc305"/><path d="m430.697 376.741h-154.68c-10.852 0-20.143 7.693-22.25 18.339-.395 1.994-.891 4.087-1.513 6.244-7.202 24.965-44.164 20.122-44.33-5.86-.001-.167-.002-.333-.002-.5v-178.427c0-19.25 15.605-34.855 34.855-34.855h148.053v-43.833h-182.91v-55.101h-101.88v312.215c0 42.388 34.362 76.75 76.75 76.75h101.881c-18.927 0-36.241-6.865-49.623-18.222h195.649z" fill="#ff8500"/><path d="m479.975 457.163c19.265-13.944 31.81-36.601 31.81-62.2h-172.83v62.2z" fill="#ff5551"/><path d="m342.082 395.929c.094-.32.185-.642.275-.967h-87.254v.001c0 42.388-34.362 76.75-76.75 76.75h256.683c20.109 0 38.403-7.743 52.087-20.399h-103.479c-28.852.001-49.676-27.697-41.562-55.385z" fill="#e20a62"/><path d="m75.116 327.181h57.463v71.148h-57.463z" fill="#6ee1ff" transform="matrix(.707 .707 -.707 .707 286.922 32.818)"/><path d="m254.106 208.491-76.471 76.471c4.056 9.461 1.742 21-6.958 28.08-8.638 7.029-21.256 7.085-29.949.124-11.349-9.088-12.028-25.706-2.038-35.696 7.133-7.133 17.642-8.82 26.38-5.074l76.471-76.471c1.389-1.389 2.531-2.933 3.424-4.576 4.745-8.727-8.215-16.141-13.582-7.782l-7.634 11.888c-19.02 19.02-50.163 28.436-76.84 31.878-.171.022-.342.045-.512.068-10.28 1.407-17.876 10.304-17.852 20.679.079 33.327.121 108.365.121 108.365 24.732 10.74 54.568 6.011 74.79-14.21 11.158-11.158 17.599-25.243 19.327-39.782 3.077-25.877 15.337-49.797 33.764-68.224l25.738-25.738c-7.782-7.781-20.398-7.781-28.179 0z" fill="#2896ff"/><path d="m110.749 319.348-18.634-18.634-50.309 50.309 18.634 18.634 6.018-6.018c9.854-9.854 25.371-10.8 36.574-2.512 8.804 6.513 19.231 10.91 30.536 12.538l15.749-15.749z" fill="#2896ff"/><g><path d="m148.458 333.376c-23.514-25.747-23.554-65.212-.091-91.005 11.337-12.463 26.125-19.671 41.457-21.631 13.869-1.773 27.166-6.104 39.414-12.513l12.303-12.303c7.781-7.781 7.781-20.396 0-28.177l-24.515 24.515c-18.946 18.946-43.462 31.663-70.039 35.06-15.331 1.96-30.119 9.168-41.456 21.631-23.378 25.699-23.536 64.646-.35 90.518 7.986 8.911 17.722 15.183 28.171 18.817 14.519 5.049 26.244-13.025 15.73-24.238-.209-.223-.417-.448-.624-.674z" fill="#2d56a1"/></g><path d="m185.166 123.915h205.665v43.833h-205.665z" fill="#faf58c"/><path d="m145.906 123.915h43.833v43.833h-43.833z" fill="#ffc305"/></g></g></svg>