<svg id="Capa_1" enable-background="new 0 0 512 512" height="512" viewBox="0 0 512 512" width="512" xmlns="http://www.w3.org/2000/svg"><g><g><path d="m256 305.378c-141.387 0-244.51-136.102-224.319-172.712 43.58-79.018 127.698-132.543 224.319-132.543s180.738 53.525 224.319 132.542c20.191 36.609-82.932 172.713-224.319 172.713z" fill="#576ceb"/><path d="m512 256.123c0 26.051-3.891 51.191-11.129 74.871-5.031 16.469-11.672 32.231-19.75 47.109-8.25 15.2-147.391 51.186-225.121 51.186s-216.871-35.986-225.109-51.186c-3.289-6.031-6.332-12.21-9.121-18.531-14-31.629-21.77-66.629-21.77-103.449 0-46.219 12.25-89.57 33.68-127 44.121 77.07 127.16 129 222.32 129s178.211-51.93 222.32-129c21.43 37.43 33.68 80.781 33.68 127zm0 0" fill="#6c3beb"/><path d="m481.262 377.822c-7.16 13.223-15.434 25.742-24.723 37.43-8.437 10.633-17.719 20.57-27.719 29.723-3.007 2.753-6.08 5.436-9.216 8.045-44.361 36.904-282.632 36.987-326.957.208-3.223-2.674-6.38-5.427-9.467-8.253-10-9.153-19.282-19.09-27.719-29.723-9.289-11.688-17.563-24.207-24.723-37.43zm0 0" fill="#4d34b0"/></g><g><path d="m441.337 192.98-90.668 59.315 5.961 9.093c2.898 4.421 4.43 9.558 4.43 14.856 0 14.974-12.182 27.157-27.157 27.157-14.974 0-27.157-12.182-27.157-27.157 0-9.042 4.484-17.467 11.996-22.535l8.997-6.07-71.739-106.544-43.451 240.428h205.876z" fill="#ff903d"/><path d="m184.26 247.64 8.997 6.07c7.511 5.068 11.996 13.492 11.996 22.535 0 14.974-12.182 27.157-27.157 27.157-14.974 0-27.157-12.182-27.157-27.157 0-5.298 1.532-10.436 4.43-14.856l5.961-9.093-90.669-59.316 22.913 188.544h162.425v-240.428z" fill="#ffb03b"/><path d="m167.705 301.331c-9.833-4.088-16.766-13.791-16.766-25.086 0-5.298 1.532-10.436 4.43-14.856l5.961-9.093-90.669-59.316 22.913 188.544h74.13v-80.193z" fill="#ffc46c"/><path d="m343.384 490.152h16.501c21.681-9.638 41.775-22.197 59.78-37.183v-49.719h-76.281z" fill="#ff903d"/><path d="m310.555 490.152h49.33c1.753-.779 3.493-1.579 5.225-2.396v-84.506h-54.555z" fill="#ffb03b"/><path d="m248.758 403.25h61.797v86.902h-61.797z" fill="#ffc46c"/><path d="m186.961 403.25h69.039v86.902h-69.039z" fill="#ffb03b"/><path d="m132.406 480.348c6.407 3.539 12.981 6.812 19.71 9.803h49.329v-86.901h-69.039z" fill="#ffc46c"/><path d="m92.334 452.967c16.55 13.775 34.865 25.496 54.555 34.787v-84.504h-54.555z" fill="#ffd89d"/><path d="m399.097 468.426h-143.098l-28.967 21.725 28.967 21.726h10.869c48.861-2.041 94.186-17.759 132.229-43.451z" fill="#ff7040"/><path d="m245.131 511.877h10.868v-43.451h-143.096c38.043 25.692 83.368 41.41 132.228 43.451z" fill="#ffa35e"/><path d="m145.416 487.067c30.395 14.58 64.117 23.323 99.715 24.81h10.868v-43.451h-89.079c-10.951 0-20.005 8.104-21.504 18.641z" fill="#ff903d"/><path d="m419.665 370.661h-163.666l-28.967 21.725 28.967 21.725h163.665c11.999 0 21.726-9.727 21.726-21.725.001-11.998-9.726-21.725-21.725-21.725z" fill="#ff7040"/><path d="m92.334 370.661c-11.999 0-21.725 9.727-21.725 21.725 0 11.999 9.727 21.725 21.725 21.725h163.665v-43.451h-163.665z" fill="#ffa35e"/><path d="m166.92 370.661c-11.999 0-21.725 9.727-21.725 21.725 0 11.999 9.727 21.725 21.725 21.725h89.079v-43.451h-89.079z" fill="#ff903d"/></g><g fill="#fff"><path d="m429.132 153.465h-1.524c-6.754 0-12.226-5.477-12.226-12.227v-1.523h-8.715v1.523c0 6.75-5.477 12.227-12.227 12.227h-1.527v8.715h1.527c6.75 0 12.227 5.472 12.227 12.226v1.528h8.715v-1.528c0-6.754 5.472-12.226 12.226-12.226h1.524zm0 0"/><path d="m118.945 153.465h-1.524c-6.754 0-12.226-5.477-12.226-12.227v-1.523h-8.715v1.523c0 6.75-5.477 12.227-12.227 12.227h-1.527v8.715h1.527c6.75 0 12.227 5.472 12.227 12.226v1.528h8.715v-1.528c0-6.754 5.472-12.226 12.226-12.226h1.524zm0 0"/><path d="m200.045 110.199h-1.524c-6.754 0-12.226-5.477-12.226-12.227v-1.523h-8.715v1.523c0 6.75-5.477 12.227-12.227 12.227h-1.527v8.715h1.527c6.75 0 12.227 5.472 12.227 12.226v1.528h8.715v-1.528c0-6.754 5.472-12.226 12.226-12.226h1.524zm0 0"/><path d="m274.109 52.589h-1.524c-6.754 0-12.226-5.477-12.226-12.227v-1.523h-8.715v1.523c0 6.75-5.477 12.227-12.227 12.227h-1.527v8.715h1.527c6.75 0 12.227 5.472 12.227 12.226v1.528h8.715v-1.528c0-6.754 5.472-12.226 12.226-12.226h1.524zm0 0"/><path d="m347.052 110.199h-1.524c-6.754 0-12.226-5.477-12.226-12.227v-1.523h-8.715v1.523c0 6.75-5.477 12.227-12.227 12.227h-1.527v8.715h1.527c6.75 0 12.227 5.472 12.227 12.226v1.528h8.715v-1.528c0-6.754 5.472-12.226 12.226-12.226h1.524zm0 0"/></g></g></svg>