<?xml version="1.0" encoding="UTF-8" standalone="no"?>
<svg
   xmlns:dc="http://purl.org/dc/elements/1.1/"
   xmlns:cc="http://creativecommons.org/ns#"
   xmlns:rdf="http://www.w3.org/1999/02/22-rdf-syntax-ns#"
   xmlns:svg="http://www.w3.org/2000/svg"
   xmlns="http://www.w3.org/2000/svg"
   xmlns:sodipodi="http://sodipodi.sourceforge.net/DTD/sodipodi-0.dtd"
   xmlns:inkscape="http://www.inkscape.org/namespaces/inkscape"
   id="Icons"
   enable-background="new 0 0 512 512"
   height="512"
   viewBox="0 0 512 512"
   width="512"
   version="1.1"
   sodipodi:docname="050-globe-a.svg"
   inkscape:version="1.0.2 (e86c870879, 2021-01-15)">
  <metadata
     id="metadata118">
    <rdf:RDF>
      <cc:Work
         rdf:about="">
        <dc:format>image/svg+xml</dc:format>
        <dc:type
           rdf:resource="http://purl.org/dc/dcmitype/StillImage" />
      </cc:Work>
    </rdf:RDF>
  </metadata>
  <defs
     id="defs116" />
  <sodipodi:namedview
     pagecolor="#ffffff"
     bordercolor="#666666"
     borderopacity="1"
     objecttolerance="10"
     gridtolerance="10"
     guidetolerance="10"
     inkscape:pageopacity="0"
     inkscape:pageshadow="2"
     inkscape:window-width="1920"
     inkscape:window-height="1015"
     id="namedview114"
     showgrid="false"
     inkscape:zoom="1.1670024"
     inkscape:cx="172.65341"
     inkscape:cy="259.89018"
     inkscape:window-x="0"
     inkscape:window-y="0"
     inkscape:window-maximized="1"
     inkscape:current-layer="Icons" />
  <g
     id="g109"
     transform="matrix(1.2357424,0,0,1.2357424,-35.113743,-74.472508)">
    <g
       id="g14">
      <g
         id="g6">
        <path
           d="m 356.88,319.377 -10.626,-10.626 c -2.361,-2.361 -3.539,-5.447 -3.539,-8.538 -0.074,-10.624 13.072,-16.153 20.62,-8.543 0,0 10.625,10.625 10.625,10.625 10.875,11.778 -5.277,27.958 -17.08,17.082 z"
           fill="#a26d5a"
           id="path4" />
      </g>
      <g
         id="g10">
        <path
           d="M 366.079,316.231 355.448,305.6 c -4.85,-4.823 -4.684,-12.809 0.368,-17.424 2.743,0.229 5.417,1.392 7.519,3.494 l 10.626,10.626 c 4.896,4.866 4.641,12.898 -0.358,17.424 -2.748,-0.224 -5.427,-1.392 -7.524,-3.489 z"
           fill="#c17e62"
           id="path8" />
      </g>
      <path
         d="m 367.943,311.276 c -4.14,-4.14 -4.14,-10.859 0,-14.999 l 6.018,6.019 c 3.24,3.24 4.254,7.862 3.052,11.967 -3.211,0.477 -6.6,-0.517 -9.07,-2.987 z"
         fill="#eea47d"
         id="path12" />
    </g>
    <g
       id="Earth_1_">
      <path
         d="m 347.883,116.31 c 22.461,22.271 35.843,53.298 36.593,84.916 3.002,73.068 -61.612,134.509 -134.061,128.403 C 192.734,326.386 142.166,278.901 135.377,221.576 124.969,146.53 184.567,78.417 261.15,79.668 c 32.278,0.338 63.976,13.691 86.733,36.642 z"
         fill="#22a8b9"
         id="path16" />
      <path
         d="m 347.886,116.313 c 18.001,17.918 30.315,41.413 34.698,66.433 0.183,0.968 0.449,1.955 0.134,2.92 -0.372,2.078 -0.751,4.188 -1.237,6.23 -1.505,6.872 -3.674,13.584 -6.307,20.096 -18.856,46.523 -65.559,77.9 -115.789,77.576 -49.488,0.283 -95.542,-30.085 -114.94,-75.582 l 0.007,-0.007 c -0.953,-2.157 -1.8,-4.378 -2.616,-6.59 -1.119,-3.061 -2.112,-6.169 -2.991,-9.313 0.007,-0.007 0,-0.014 0.007,-0.021 -1.237,-4.419 -2.249,-8.895 -2.97,-13.421 4.059,-25.017 15.726,-49.031 35.016,-68.321 14.885,-14.927 33.594,-26.02 53.875,-31.784 43.006,-12.664 91.626,-0.229 123.113,31.784 z"
         fill="#cde6f6"
         id="path18" />
      <path
         d="m 170.903,143.654 c -15.792,15.792 -26.474,34.755 -32.059,54.839 35.306,121.47 205.839,121.403 241.103,0 C 355.615,107.437 237.307,75.872 170.903,143.654 Z"
         fill="#4fcae8"
         id="path20" />
      <path
         d="m 306.732,88.92 v 26.927 24.169 c 0,14.227 -8.598,26.446 -20.888,31.749 1.966,0.99 3.811,2.312 5.452,3.953 l 14.39,14.39 c 0.133,0.135 0.256,0.282 0.396,0.396 0,0 29.451,29.451 29.451,29.451 6.696,6.696 6.696,17.557 0,24.254 l -11.547,11.547 c -6.696,6.696 -17.557,6.696 -24.254,0 L 285.003,241.027 268.98,257.05 c -8.351,8.351 -21.885,8.351 -30.236,0 l -14.39,-14.39 c -8.351,-8.351 -8.351,-21.885 0,-30.236 l 36.706,-36.706 c 0.403,-0.403 0.82,-0.778 1.237,-1.139 H 239.26 c -19.078,0 -34.556,-15.479 -34.563,-34.563 -0.01,-11.62 0.007,-36.059 0,-47.8 31.525,-15.486 69.57,-16.666 102.035,-3.296 z"
         fill="#50755c"
         id="path22" />
      <path
         d="m 174.001,228.651 59.34,59.34 c 10.932,10.932 13.004,27.358 6.23,40.383 -52.494,-7.113 -98.405,-54.235 -104.192,-106.794 12.891,-5.788 28.204,-3.303 38.622,7.071 z"
         fill="#50755c"
         id="path24" />
      <path
         d="m 374.855,156.462 c 7.977,19.012 11.099,40.013 9.1,60.521 -3.571,1.421 -7.531,1.591 -11.193,0.502 l -0.007,0.007 c -2.652,-0.785 -5.155,-2.227 -7.255,-4.328 l -11.547,-11.547 c -6.696,-6.696 -6.696,-17.557 0,-24.254 z"
         fill="#50755c"
         id="path26" />
      <path
         d="m 146.573,218.66 c -1.492,-3.09 -2.843,-6.237 -4.052,-9.426 1.223,3.189 2.574,6.336 4.066,9.426 9.808,-0.842 19.905,2.482 27.414,9.991 l 57.863,57.863 c -35.616,-7.457 -69.443,-33.901 -85.291,-67.854 z"
         fill="#528f66"
         id="path28" />
      <g
         fill="#53b976"
         id="g46">
        <path
           d="m 140.825,204.499 c -0.376,-1.115 -0.739,-2.233 -1.082,-3.355 0.343,1.123 0.706,2.241 1.082,3.355 z"
           id="path30" />
        <path
           d="m 139.742,201.144 c -0.117,-0.383 -0.228,-0.768 -0.341,-1.152 0.113,0.384 0.224,0.769 0.341,1.152 z"
           id="path32" />
        <path
           d="m 141.179,205.533 c -0.119,-0.344 -0.237,-0.688 -0.354,-1.033 0.116,0.344 0.234,0.689 0.354,1.033 z"
           id="path34" />
        <path
           d="m 138.844,198.076 c 0.002,-0.008 0.005,-0.016 0.007,-0.024 0.18,0.647 0.359,1.295 0.55,1.94 -0.188,-0.638 -0.379,-1.276 -0.557,-1.916 z"
           id="path36" />
        <path
           d="m 142.521,209.234 c -0.47,-1.227 -0.913,-2.462 -1.342,-3.701 0.43,1.238 0.872,2.474 1.342,3.701 z"
           id="path38" />
        <path
           d="m 370.612,221.856 c 0.742,-1.435 1.457,-2.899 2.143,-4.363 -0.679,1.471 -1.393,2.92 -2.143,4.363 z"
           id="path40" />
        <path
           d="m 374.855,156.462 c 3.766,9.003 6.472,18.448 8.04,28.079 -0.718,4.559 -1.726,9.056 -2.963,13.513 0.007,0.007 0,0.014 0.007,0.021 -1.323,4.778 -2.964,9.477 -4.829,14.064 -0.026,0.041 -0.051,0.091 -0.064,0.134 -0.717,1.756 -1.481,3.505 -2.291,5.218 -2.652,-0.785 -5.155,-2.227 -7.255,-4.328 l -11.547,-11.547 c -6.696,-6.696 -6.696,-17.557 0,-24.254 z"
           id="path42" />
        <path
           d="m 306.732,88.92 v 26.927 24.169 c 0,14.227 -8.598,26.446 -20.888,31.749 1.966,0.99 3.811,2.312 5.452,3.953 l 14.39,14.39 c 0.133,0.135 0.256,0.282 0.396,0.396 0,0 29.451,29.451 29.451,29.451 6.696,6.696 6.696,17.557 0,24.254 l -11.547,11.547 c -6.696,6.696 -17.557,6.696 -24.254,0 L 285.003,241.027 268.98,257.05 c -8.351,8.351 -21.885,8.351 -30.236,0 l -14.39,-14.39 c -8.351,-8.351 -8.351,-21.885 0,-30.236 l 36.706,-36.706 c 0.403,-0.403 0.82,-0.778 1.237,-1.139 H 239.26 c -19.078,0 -34.556,-15.479 -34.563,-34.563 -0.01,-11.62 0.007,-36.059 0,-47.8 31.525,-15.486 69.57,-16.666 102.035,-3.296 z"
           id="path44" />
      </g>
      <path
         d="m 306.732,140.015 c 0,14.227 -8.598,26.446 -20.888,31.749 1.966,0.99 3.811,2.312 5.452,3.953 l 14.39,14.39 c 0.133,0.135 0.256,0.282 0.396,0.396 0,0 29.451,29.451 29.451,29.451 6.696,6.696 6.696,17.557 0,24.254 l -11.547,11.547 c -6.696,6.696 -17.557,6.696 -24.254,0 l -14.729,-14.729 -16.023,16.023 c -8.351,8.351 -21.885,8.351 -30.236,0 l -14.39,-14.39 c -8.351,-8.351 -8.351,-21.885 0,-30.236 l 36.706,-36.706 c 0.403,-0.403 0.82,-0.778 1.237,-1.139 H 239.26 c -19.078,0 -34.556,-15.479 -34.563,-34.563 v -20.874 c 32.011,-15.563 69.282,-16.659 102.036,-3.295 z"
         fill="#528f66"
         id="path48" />
      <path
         d="m 365.691,165.626 c 6.357,10.218 11.116,21.157 14.248,32.449 -1.844,6.625 -4.235,13.142 -7.184,19.417 -2.652,-0.785 -5.155,-2.227 -7.255,-4.328 l -11.547,-11.547 c -6.696,-6.696 -6.696,-17.557 0,-24.254 z"
         fill="#528f66"
         id="path50" />
    </g>
    <g
       id="g63">
      <g
         id="g55">
        <path
           d="m 144.822,107.319 10.626,10.626 c 2.361,2.361 5.447,3.539 8.538,3.539 10.624,0.074 16.153,-13.072 8.543,-20.62 0,0 -10.625,-10.625 -10.625,-10.625 -11.778,-10.875 -27.958,5.277 -17.082,17.08 z"
           fill="#a26d5a"
           id="path53" />
      </g>
      <g
         id="g59">
        <path
           d="m 147.968,98.12 10.631,10.631 c 4.823,4.85 12.809,4.684 17.424,-0.368 -0.229,-2.743 -1.392,-5.417 -3.494,-7.519 L 161.903,90.238 c -4.866,-4.896 -12.898,-4.641 -17.424,0.358 0.224,2.748 1.392,5.427 3.489,7.524 z"
           fill="#c17e62"
           id="path57" />
      </g>
      <path
         d="m 152.923,96.256 c 4.14,4.14 10.859,4.14 14.999,0 l -6.018,-6.019 c -3.24,-3.24 -7.862,-4.254 -11.967,-3.052 -0.478,3.212 0.516,6.601 2.986,9.071 z"
         fill="#eea47d"
         id="path61" />
    </g>
    <g
       id="g73">
      <g
         id="g67">
        <path
           d="m 129.287,334.911 c 74.246,74.246 195.055,74.239 269.302,-0.007 5.974,-5.911 2.184,-16.326 -6.138,-17.027 -2.864,-0.262 -5.812,0.693 -8.004,2.885 -66.774,67.225 -176.379,65.442 -241.017,0.007 -67.253,-66.589 -65.337,-176.667 0,-241.024 2.191,-2.192 3.146,-5.141 2.884,-8.004 -0.652,-8.22 -11.112,-12.18 -17.027,-6.138 -74.246,74.246 -74.253,195.055 0,269.308 z"
           fill="#a26d5a"
           id="path65" />
      </g>
      <g
         id="g71">
        <path
           d="m 138.31,325.889 c 66.763,67.919 181.943,70.186 251.256,-0.008 2.192,-2.191 3.147,-5.14 2.885,-8.004 -2.864,-0.262 -5.812,0.693 -8.004,2.885 -66.774,67.225 -176.379,65.441 -241.017,0.007 C 88.82,266.16 79.09,183.414 114.233,118.77 c 7.623,-14.015 17.352,-27.181 29.196,-39.025 2.192,-2.192 3.147,-5.141 2.885,-8.004 -2.864,-0.262 -5.812,0.693 -8.004,2.885 -14.849,14.849 -26.516,31.692 -34.995,49.688 -31.824,66.523 -17.977,149.342 34.995,201.575 z"
           fill="#c17e62"
           id="path69" />
      </g>
    </g>
    <g
       id="g81">
      <path
         d="m 347.63,450.144 c 0.063,9.742 -8.019,18.139 -18.09,18.09 H 189.25 c -4.99,0 -9.52,-2.02 -12.79,-5.3 -11.289,-11.147 -3.309,-30.927 12.79,-30.88 h 140.29 c 9.995,-0.005 18.083,8.103 18.09,18.09 z"
         fill="#a26d5a"
         id="path75" />
      <path
         d="m 347.63,450.144 c 0,1.97 -0.32,3.86 -0.9,5.64 H 219.12 c -12.136,0.163 -21.111,-12.285 -17.19,-23.73 h 127.61 c 9.995,-0.005 18.083,8.103 18.09,18.09 z"
         fill="#c17e62"
         id="path77" />
      <path
         d="m 321.815,447.054 h -24.949 c -4.142,0 -7.5,-3.358 -7.5,-7.5 0,-4.142 3.358,-7.5 7.5,-7.5 h 24.949 c 9.922,0.339 9.932,14.656 0,15 z"
         fill="#eea47d"
         id="path79" />
    </g>
    <g
       id="g89">
      <path
         d="m 276.82,381.193 v 47.41 c 0.057,9.397 -7.715,17.471 -17.42,17.43 -9.63,0 -17.43,-7.81 -17.43,-17.43 v -47.41 z"
         fill="#a26d5a"
         id="path83" />
      <path
         d="m 276.82,403.883 v 24.72 c 0.001,2.19 -0.423,4.376 -1.19,6.33 -10.674,2.416 -21.274,-6.051 -21.14,-17.04 v -14.01 z"
         fill="#c17e62"
         id="path85" />
      <path
         d="m 276.82,410.023 v 18.58 c 0,0.19 0,0.39 -0.01,0.58 -6.479,2.563 -13.964,-2.57 -13.82,-9.58 -0.144,-7.015 7.348,-12.143 13.83,-9.58 z"
         fill="#eea47d"
         id="path87" />
    </g>
    <g
       id="g107">
      <g
         id="g93">
        <path
           d="M 300.408,160.25 C 270.207,128.599 200.7,87.183 170.859,116.559 c -30.271,31.344 14.477,102.994 47.236,133.076 30.422,31.886 99.889,72.995 129.542,43.699 30.192,-31.279 -14.206,-102.707 -47.229,-133.084 z m 30.794,45.573 c 15.291,22.983 31.739,65.992 12.897,83.976 -10.04,10.041 -28.177,11.208 -51.074,3.288 -26.676,-9.487 -50.202,-26.389 -71.397,-46.987 -22.12,-21.913 -40.481,-46.733 -50.516,-74.925 -7.919,-22.896 -6.76,-41.041 3.281,-51.082 16.316,-17.353 55.433,-4.608 78.107,9.349 30.141,17.454 60.085,46.839 78.702,76.381 z"
           fill="#cde6f6"
           id="path91" />
      </g>
      <g
         id="g97">
        <path
           d="m 335.791,203.794 c -46.93,19.405 -91.39,73.895 -85.376,125.837 1.697,0.113 3.38,0.198 5.07,0.247 -8.142,-63.226 65.728,-137.074 128.99,-128.651 -0.043,-1.697 -0.12,-3.387 -0.24,-5.077 -14.828,-2.044 -31.643,0.629 -48.444,7.644 z"
           fill="#cde6f6"
           id="path95" />
      </g>
      <g
         id="g101">
        <path
           d="m 265.681,79.817 c -1.312,-0.077 -2.6,-0.121 -3.91,-0.134 7.012,62.607 -64.882,134.57 -127.498,127.824 0.043,1.683 0.106,3.359 0.219,5.042 65.739,6.131 138.713,-66.919 132.328,-132.669 -0.382,-0.028 -0.764,-0.042 -1.139,-0.063 z"
           fill="#cde6f6"
           id="path99" />
      </g>
      <g
         id="g105">
        <path
           d="m 347.883,116.31 c 0.594,0.594 1.174,1.188 1.747,1.789 l -176.94,176.94 c -1.2,-1.144 -2.388,-2.332 -3.536,-3.536 L 346.093,114.564 c 0.602,0.573 1.196,1.152 1.79,1.746 z"
           fill="#cde6f6"
           id="path103" />
      </g>
    </g>
  </g>
</svg>
