<svg id="Icons" enable-background="new 0 0 512 512" height="512" viewBox="0 0 512 512" width="512" xmlns="http://www.w3.org/2000/svg"><g><circle cx="256" cy="256" fill="#f39e22" r="256"/><g><g><g><path d="m356.88 319.377-10.626-10.626c-2.361-2.361-3.539-5.447-3.539-8.538-.074-10.624 13.072-16.153 20.62-8.543 0 0 10.625 10.625 10.625 10.625 10.875 11.778-5.277 27.958-17.08 17.082z" fill="#a26d5a"/></g><g><path d="m366.079 316.231-10.631-10.631c-4.85-4.823-4.684-12.809.368-17.424 2.743.229 5.417 1.392 7.519 3.494l10.626 10.626c4.896 4.866 4.641 12.898-.358 17.424-2.748-.224-5.427-1.392-7.524-3.489z" fill="#c17e62"/></g><path d="m367.943 311.276c-4.14-4.14-4.14-10.859 0-14.999l6.018 6.019c3.24 3.24 4.254 7.862 3.052 11.967-3.211.477-6.6-.517-9.07-2.987z" fill="#eea47d"/></g><g id="Earth_1_"><path d="m347.883 116.31c22.461 22.271 35.843 53.298 36.593 84.916 3.002 73.068-61.612 134.509-134.061 128.403-57.681-3.243-108.249-50.728-115.038-108.053-10.408-75.046 49.19-143.159 125.773-141.908 32.278.338 63.976 13.691 86.733 36.642z" fill="#22a8b9"/><path d="m347.886 116.313c18.001 17.918 30.315 41.413 34.698 66.433.183.968.449 1.955.134 2.92-.372 2.078-.751 4.188-1.237 6.23-1.505 6.872-3.674 13.584-6.307 20.096-18.856 46.523-65.559 77.9-115.789 77.576-49.488.283-95.542-30.085-114.94-75.582l.007-.007c-.953-2.157-1.8-4.378-2.616-6.59-1.119-3.061-2.112-6.169-2.991-9.313.007-.007 0-.014.007-.021-1.237-4.419-2.249-8.895-2.97-13.421 4.059-25.017 15.726-49.031 35.016-68.321 14.885-14.927 33.594-26.02 53.875-31.784 43.006-12.664 91.626-.229 123.113 31.784z" fill="#cde6f6"/><path d="m170.903 143.654c-15.792 15.792-26.474 34.755-32.059 54.839 35.306 121.47 205.839 121.403 241.103 0-24.332-91.056-142.64-122.621-209.044-54.839z" fill="#4fcae8"/><path d="m306.732 88.92v26.927 24.169c0 14.227-8.598 26.446-20.888 31.749 1.966.99 3.811 2.312 5.452 3.953l14.39 14.39c.133.135.256.282.396.396 0 0 29.451 29.451 29.451 29.451 6.696 6.696 6.696 17.557 0 24.254l-11.547 11.547c-6.696 6.696-17.557 6.696-24.254 0l-14.729-14.729-16.023 16.023c-8.351 8.351-21.885 8.351-30.236 0l-14.39-14.39c-8.351-8.351-8.351-21.885 0-30.236l36.706-36.706c.403-.403.82-.778 1.237-1.139h-23.037c-19.078 0-34.556-15.479-34.563-34.563-.01-11.62.007-36.059 0-47.8 31.525-15.486 69.57-16.666 102.035-3.296z" fill="#50755c"/><path d="m174.001 228.651 59.34 59.34c10.932 10.932 13.004 27.358 6.23 40.383-52.494-7.113-98.405-54.235-104.192-106.794 12.891-5.788 28.204-3.303 38.622 7.071z" fill="#50755c"/><path d="m374.855 156.462c7.977 19.012 11.099 40.013 9.1 60.521-3.571 1.421-7.531 1.591-11.193.502l-.007.007c-2.652-.785-5.155-2.227-7.255-4.328l-11.547-11.547c-6.696-6.696-6.696-17.557 0-24.254z" fill="#50755c"/><path d="m146.573 218.66c-1.492-3.09-2.843-6.237-4.052-9.426 1.223 3.189 2.574 6.336 4.066 9.426 9.808-.842 19.905 2.482 27.414 9.991l57.863 57.863c-35.616-7.457-69.443-33.901-85.291-67.854z" fill="#528f66"/><g fill="#53b976"><path d="m140.825 204.499c-.376-1.115-.739-2.233-1.082-3.355.343 1.123.706 2.241 1.082 3.355z"/><path d="m139.742 201.144c-.117-.383-.228-.768-.341-1.152.113.384.224.769.341 1.152z"/><path d="m141.179 205.533c-.119-.344-.237-.688-.354-1.033.116.344.234.689.354 1.033z"/><path d="m138.844 198.076c.002-.008.005-.016.007-.024.18.647.359 1.295.55 1.94-.188-.638-.379-1.276-.557-1.916z"/><path d="m142.521 209.234c-.47-1.227-.913-2.462-1.342-3.701.43 1.238.872 2.474 1.342 3.701z"/><path d="m370.612 221.856c.742-1.435 1.457-2.899 2.143-4.363-.679 1.471-1.393 2.92-2.143 4.363z"/><path d="m374.855 156.462c3.766 9.003 6.472 18.448 8.04 28.079-.718 4.559-1.726 9.056-2.963 13.513.007.007 0 .014.007.021-1.323 4.778-2.964 9.477-4.829 14.064-.026.041-.051.091-.064.134-.717 1.756-1.481 3.505-2.291 5.218-2.652-.785-5.155-2.227-7.255-4.328l-11.547-11.547c-6.696-6.696-6.696-17.557 0-24.254z"/><path d="m306.732 88.92v26.927 24.169c0 14.227-8.598 26.446-20.888 31.749 1.966.99 3.811 2.312 5.452 3.953l14.39 14.39c.133.135.256.282.396.396 0 0 29.451 29.451 29.451 29.451 6.696 6.696 6.696 17.557 0 24.254l-11.547 11.547c-6.696 6.696-17.557 6.696-24.254 0l-14.729-14.729-16.023 16.023c-8.351 8.351-21.885 8.351-30.236 0l-14.39-14.39c-8.351-8.351-8.351-21.885 0-30.236l36.706-36.706c.403-.403.82-.778 1.237-1.139h-23.037c-19.078 0-34.556-15.479-34.563-34.563-.01-11.62.007-36.059 0-47.8 31.525-15.486 69.57-16.666 102.035-3.296z"/></g><path d="m306.732 140.015c0 14.227-8.598 26.446-20.888 31.749 1.966.99 3.811 2.312 5.452 3.953l14.39 14.39c.133.135.256.282.396.396 0 0 29.451 29.451 29.451 29.451 6.696 6.696 6.696 17.557 0 24.254l-11.547 11.547c-6.696 6.696-17.557 6.696-24.254 0l-14.729-14.729-16.023 16.023c-8.351 8.351-21.885 8.351-30.236 0l-14.39-14.39c-8.351-8.351-8.351-21.885 0-30.236l36.706-36.706c.403-.403.82-.778 1.237-1.139h-23.037c-19.078 0-34.556-15.479-34.563-34.563v-20.874c32.011-15.563 69.282-16.659 102.036-3.295z" fill="#528f66"/><path d="m365.691 165.626c6.357 10.218 11.116 21.157 14.248 32.449-1.844 6.625-4.235 13.142-7.184 19.417-2.652-.785-5.155-2.227-7.255-4.328l-11.547-11.547c-6.696-6.696-6.696-17.557 0-24.254z" fill="#528f66"/></g><g><g><path d="m144.822 107.319 10.626 10.626c2.361 2.361 5.447 3.539 8.538 3.539 10.624.074 16.153-13.072 8.543-20.62 0 0-10.625-10.625-10.625-10.625-11.778-10.875-27.958 5.277-17.082 17.08z" fill="#a26d5a"/></g><g><path d="m147.968 98.12 10.631 10.631c4.823 4.85 12.809 4.684 17.424-.368-.229-2.743-1.392-5.417-3.494-7.519l-10.626-10.626c-4.866-4.896-12.898-4.641-17.424.358.224 2.748 1.392 5.427 3.489 7.524z" fill="#c17e62"/></g><path d="m152.923 96.256c4.14 4.14 10.859 4.14 14.999 0l-6.018-6.019c-3.24-3.24-7.862-4.254-11.967-3.052-.478 3.212.516 6.601 2.986 9.071z" fill="#eea47d"/></g><g><g><path d="m129.287 334.911c74.246 74.246 195.055 74.239 269.302-.007 5.974-5.911 2.184-16.326-6.138-17.027-2.864-.262-5.812.693-8.004 2.885-66.774 67.225-176.379 65.442-241.017.007-67.253-66.589-65.337-176.667 0-241.024 2.191-2.192 3.146-5.141 2.884-8.004-.652-8.22-11.112-12.18-17.027-6.138-74.246 74.246-74.253 195.055 0 269.308z" fill="#a26d5a"/></g><g><path d="m138.31 325.889c66.763 67.919 181.943 70.186 251.256-.008 2.192-2.191 3.147-5.14 2.885-8.004-2.864-.262-5.812.693-8.004 2.885-66.774 67.225-176.379 65.441-241.017.007-54.61-54.609-64.34-137.355-29.197-201.999 7.623-14.015 17.352-27.181 29.196-39.025 2.192-2.192 3.147-5.141 2.885-8.004-2.864-.262-5.812.693-8.004 2.885-14.849 14.849-26.516 31.692-34.995 49.688-31.824 66.523-17.977 149.342 34.995 201.575z" fill="#c17e62"/></g></g><g><path d="m347.63 450.144c.063 9.742-8.019 18.139-18.09 18.09h-140.29c-4.99 0-9.52-2.02-12.79-5.3-11.289-11.147-3.309-30.927 12.79-30.88h140.29c9.995-.005 18.083 8.103 18.09 18.09z" fill="#a26d5a"/><path d="m347.63 450.144c0 1.97-.32 3.86-.9 5.64h-127.61c-12.136.163-21.111-12.285-17.19-23.73h127.61c9.995-.005 18.083 8.103 18.09 18.09z" fill="#c17e62"/><path d="m321.815 447.054h-24.949c-4.142 0-7.5-3.358-7.5-7.5s3.358-7.5 7.5-7.5h24.949c9.922.339 9.932 14.656 0 15z" fill="#eea47d"/></g><g><path d="m276.82 381.193v47.41c.057 9.397-7.715 17.471-17.42 17.43-9.63 0-17.43-7.81-17.43-17.43v-47.41z" fill="#a26d5a"/><path d="m276.82 403.883v24.72c.001 2.19-.423 4.376-1.19 6.33-10.674 2.416-21.274-6.051-21.14-17.04v-14.01z" fill="#c17e62"/><path d="m276.82 410.023v18.58c0 .19 0 .39-.01.58-6.479 2.563-13.964-2.57-13.82-9.58-.144-7.015 7.348-12.143 13.83-9.58z" fill="#eea47d"/></g><g><g><path d="m300.408 160.25c-30.201-31.651-99.708-73.067-129.549-43.691-30.271 31.344 14.477 102.994 47.236 133.076 30.422 31.886 99.889 72.995 129.542 43.699 30.192-31.279-14.206-102.707-47.229-133.084zm30.794 45.573c15.291 22.983 31.739 65.992 12.897 83.976-10.04 10.041-28.177 11.208-51.074 3.288-26.676-9.487-50.202-26.389-71.397-46.987-22.12-21.913-40.481-46.733-50.516-74.925-7.919-22.896-6.76-41.041 3.281-51.082 16.316-17.353 55.433-4.608 78.107 9.349 30.141 17.454 60.085 46.839 78.702 76.381z" fill="#cde6f6"/></g><g><path d="m335.791 203.794c-46.93 19.405-91.39 73.895-85.376 125.837 1.697.113 3.38.198 5.07.247-8.142-63.226 65.728-137.074 128.99-128.651-.043-1.697-.12-3.387-.24-5.077-14.828-2.044-31.643.629-48.444 7.644z" fill="#cde6f6"/></g><g><path d="m265.681 79.817c-1.312-.077-2.6-.121-3.91-.134 7.012 62.607-64.882 134.57-127.498 127.824.043 1.683.106 3.359.219 5.042 65.739 6.131 138.713-66.919 132.328-132.669-.382-.028-.764-.042-1.139-.063z" fill="#cde6f6"/></g><g><path d="m347.883 116.31c.594.594 1.174 1.188 1.747 1.789l-176.94 176.94c-1.2-1.144-2.388-2.332-3.536-3.536l176.939-176.939c.602.573 1.196 1.152 1.79 1.746z" fill="#cde6f6"/></g></g></g></g></svg>