<?xml version="1.0" encoding="UTF-8" standalone="no"?>
<svg
   xmlns:dc="http://purl.org/dc/elements/1.1/"
   xmlns:cc="http://creativecommons.org/ns#"
   xmlns:rdf="http://www.w3.org/1999/02/22-rdf-syntax-ns#"
   xmlns:svg="http://www.w3.org/2000/svg"
   xmlns="http://www.w3.org/2000/svg"
   xmlns:sodipodi="http://sodipodi.sourceforge.net/DTD/sodipodi-0.dtd"
   xmlns:inkscape="http://www.inkscape.org/namespaces/inkscape"
   id="Capa_1"
   enable-background="new 0 0 510.002 510.002"
   height="512"
   viewBox="0 0 510.002 510.002"
   width="512"
   version="1.1"
   sodipodi:docname="coeur.svg"
   inkscape:version="1.0.2 (e86c870879, 2021-01-15)">
  <metadata
     id="metadata29">
    <rdf:RDF>
      <cc:Work
         rdf:about="">
        <dc:format>image/svg+xml</dc:format>
        <dc:type
           rdf:resource="http://purl.org/dc/dcmitype/StillImage" />
      </cc:Work>
    </rdf:RDF>
  </metadata>
  <defs
     id="defs27" />
  <sodipodi:namedview
     pagecolor="#ffffff"
     bordercolor="#666666"
     borderopacity="1"
     objecttolerance="10"
     gridtolerance="10"
     guidetolerance="10"
     inkscape:pageopacity="0"
     inkscape:pageshadow="2"
     inkscape:window-width="1920"
     inkscape:window-height="1015"
     id="namedview25"
     showgrid="false"
     inkscape:zoom="1.6503906"
     inkscape:cx="133.90769"
     inkscape:cy="256"
     inkscape:window-x="0"
     inkscape:window-y="0"
     inkscape:window-maximized="1"
     inkscape:current-layer="Capa_1" />
  <path
     d="m 75,345.001 -10,65 10,55 h 45 c 18.5,0 36.949,2.529 54.832,7.547 12.32,3.208 89.113,23.201 101.46,26.416 l 10,-98.396 -10,-67.43 -83.042,-29.388 z"
     fill="#ffccbd"
     id="path2" />
  <g
     fill="#ffbda9"
     id="g10">
    <path
       d="m 184.987,287.796 c -11.165,3.642 -35.748,11.68 -40.884,13.359 -27.929,9.385 -41.198,13.846 -69.102,13.846 l -10,15 10,15 c 31.6,0 47.985,-5.183 77.434,-15 0.899,-0.294 41.817,-13.673 41.953,-13.717 4.038,-1.345 8.482,-1.677 12.893,-0.781 8.37,2.139 60.615,15.489 69.013,17.635 l 10,-15.482 -10,-15.482 c -24.088,-6.157 -51.172,-13.07 -62.189,-15.884 -0.568,-0.002 -13.415,-3.729 -29.118,1.506 z"
       id="path4" />
    <path
       d="m 213.638,360.45 c -0.762,3.049 -6.545,26.179 -7.276,29.103 0.223,0.056 66.405,16.602 69.93,17.483 l 10,-15.462 -10,-15.461 c -6.388,-1.596 -56.161,-14.039 -62.654,-15.663 z"
       id="path6" />
    <path
       d="m 276.292,333.139 v 165.825 c 35.283,9.185 37.254,9.982 42.828,10.622 13.043,1.491 26.41,-1.932 37.494,-9.557 136.848,-94.226 126.818,-87.204 130.361,-89.402 0.439,-0.355 10.368,-5.542 17.087,-17.654 7.179,-12.939 7.746,-28.428 2.274,-41.497 -8.881,-21.208 -32.888,-34.314 -57.162,-27.165 -12.684,3.731 -91.623,26.951 -104.339,30.691 L 307.5,330.918 Z"
       id="path8" />
  </g>
  <path
     d="m 305.873,309.732 c -10.345,-2.644 -19.237,-4.915 -29.581,-7.559 v 30.965 c 6.66,1.703 19.535,4.99 22.462,5.738 0.173,0.073 6.792,1.094 11.755,7.342 5.078,6.394 5.813,15.072 2.399,22.068 -4.203,8.614 -13.965,13.487 -23.739,11.047 -0.125,-0.031 -12.718,-3.18 -12.877,-3.22 v 30.923 c 5.11,1.208 10.055,2.939 18.034,2.939 19.801,0 37.329,-11.648 45.563,-28.524 14.058,-28.81 -1.769,-64.112 -34.016,-71.719 z"
     fill="#ffa68c"
     id="path12" />
  <path
     d="m 75,510.001 c -20.194,0 -63.236,0 -75,0 0,-6.771 0,-233.232 0,-240 h 75 z"
     fill="#0a617d"
     id="path14"
     style="fill:#ffa300;fill-opacity:1" />
  <g
     id="g20">
    <path
       d="m 300,0.001 c -49.626,0 -90,40.374 -90,90 0,54.918 32.218,103.04 72.222,140.676 34.743,32.684 69.122,51.685 70.568,52.478 L 360,287.134 370,150.001 360,22.874 C 343.659,8.177 322.556,0.001 300,0.001 Z"
       fill="#fe4a4a"
       id="path16" />
    <path
       d="m 420,0.001 c -22.556,0 -43.659,8.176 -60,22.873 v 264.26 l 7.284,-4.021 c 1.445,-0.803 35.796,-20.041 70.516,-52.832 39.644,-37.442 72.2,-85.54 72.2,-140.28 0,-49.626 -40.374,-90 -90,-90 z"
       fill="#e80b6a"
       id="path18" />
  </g>
</svg>
