<?xml version="1.0" encoding="UTF-8" standalone="no"?>
<!-- Generator: Adobe Illustrator 19.0.0, SVG Export Plug-In . SVG Version: 6.00 Build 0)  -->

<svg
   xmlns:dc="http://purl.org/dc/elements/1.1/"
   xmlns:cc="http://creativecommons.org/ns#"
   xmlns:rdf="http://www.w3.org/1999/02/22-rdf-syntax-ns#"
   xmlns:svg="http://www.w3.org/2000/svg"
   xmlns="http://www.w3.org/2000/svg"
   xmlns:sodipodi="http://sodipodi.sourceforge.net/DTD/sodipodi-0.dtd"
   xmlns:inkscape="http://www.inkscape.org/namespaces/inkscape"
   version="1.1"
   id="Layer_1"
   x="0px"
   y="0px"
   viewBox="0 0 512 512"
   style="enable-background:new 0 0 512 512;"
   xml:space="preserve"
   sodipodi:docname="printer-a.svg"
   inkscape:version="0.92.5 (2060ec1f9f, 2020-04-08)"><metadata
   id="metadata65"><rdf:RDF><cc:Work
       rdf:about=""><dc:format>image/svg+xml</dc:format><dc:type
         rdf:resource="http://purl.org/dc/dcmitype/StillImage" /><dc:title></dc:title></cc:Work></rdf:RDF></metadata><defs
   id="defs63" /><sodipodi:namedview
   pagecolor="#ffffff"
   bordercolor="#666666"
   borderopacity="1"
   objecttolerance="10"
   gridtolerance="10"
   guidetolerance="10"
   inkscape:pageopacity="0"
   inkscape:pageshadow="2"
   inkscape:window-width="640"
   inkscape:window-height="480"
   id="namedview61"
   showgrid="false"
   inkscape:zoom="0.4609375"
   inkscape:cx="256"
   inkscape:cy="256"
   inkscape:window-x="0"
   inkscape:window-y="30"
   inkscape:window-maximized="0"
   inkscape:current-layer="Layer_1" />

<path
   style="fill:#15BDB1;"
   d="M31.581,282.865h448.841V412.94c0,8.69-7.108,15.801-15.798,15.801H47.382  c-8.69,0-15.801-7.108-15.801-15.801V282.865z"
   id="path4" />
<path
   style="fill:#20D0C2;"
   d="M31.581,282.865h448.841l-37.137-67.325H68.72l-37.137,67.325H31.581z"
   id="path6" />
<g
   id="g12">
	<path
   style="fill:#0E7886;"
   d="M102.316,332.421h307.369c6.248,0,11.358,5.112,11.358,11.358v16.247   c0,6.245-5.112,11.355-11.358,11.355H102.316c-6.248,0-11.36-5.112-11.36-11.355v-16.247   C90.955,337.533,96.068,332.421,102.316,332.421z"
   id="path8" />
	<path
   style="fill:#0E7886;"
   d="M100.805,232.424h310.388l9.849,28.024H90.953l9.849-28.024H100.805z"
   id="path10" />
</g>
<path
   style="fill:#FFFFFF;"
   d="M121.259,83.632h269.482v176.817H121.259V83.632z"
   id="path14" />
<path
   style="fill:#DFE1E3;"
   d="M107.228,448.972h297.546v-2.649H107.228V448.972z"
   id="path16" />
<path
   style="fill:#FFFFFF;"
   d="M107.228,446.323h297.546l-14.033-113.899h-269.48L107.228,446.323z"
   id="path18" />
<g
   id="g24">
	<path
   style="fill:#C8CACC;"
   d="M148.9,216.199h209.964v4.346H148.9V216.199z M148.9,228.458L148.9,228.458h209.964v4.344H148.9   V228.458z M148.9,240.716L148.9,240.716h139.788v4.346H148.9V240.716z"
   id="path20" />
	<path
   style="fill:#C8CACC;"
   d="M148.9,194.31h172.08v4.344H148.9V194.31z M148.9,120.758L148.9,120.758h209.964v4.346H148.9   V120.758z M148.9,133.018L148.9,133.018h209.964v4.344H148.9V133.018z M148.9,145.275L148.9,145.275h209.964v4.346H148.9V145.275z    M148.9,157.535L148.9,157.535h172.08v4.346H148.9V157.535z M148.9,169.795L148.9,169.795h210.504v4.344H148.9V169.795z    M148.9,182.052L148.9,182.052h210.504v4.346H148.9V182.052z"
   id="path22" />
</g>
<path
   style="fill:#FF5B61;"
   d="M430.784,300.449c5.005,0,9.06,4.058,9.06,9.06c0,5.005-4.058,9.062-9.06,9.062  c-5.005,0-9.062-4.058-9.062-9.062C421.721,304.505,425.779,300.449,430.784,300.449z"
   id="path26" />
<path
   style="fill:#FBB429;"
   d="M458.074,300.449c5.005,0,9.06,4.058,9.06,9.06c0,5.005-4.058,9.062-9.06,9.062  c-5.005,0-9.063-4.058-9.063-9.062C449.011,304.505,453.069,300.449,458.074,300.449z"
   id="path28" />
<g
   id="g30">
</g>
<g
   id="g32">
</g>
<g
   id="g34">
</g>
<g
   id="g36">
</g>
<g
   id="g38">
</g>
<g
   id="g40">
</g>
<g
   id="g42">
</g>
<g
   id="g44">
</g>
<g
   id="g46">
</g>
<g
   id="g48">
</g>
<g
   id="g50">
</g>
<g
   id="g52">
</g>
<g
   id="g54">
</g>
<g
   id="g56">
</g>
<g
   id="g58">
</g>
</svg>