<?xml version="1.0" encoding="iso-8859-1"?>
<!-- Generator: Adobe Illustrator 19.0.0, SVG Export Plug-In . SVG Version: 6.00 Build 0)  -->
<svg version="1.1" id="Capa_1" xmlns="http://www.w3.org/2000/svg" xmlns:xlink="http://www.w3.org/1999/xlink" x="0px" y="0px"
	 viewBox="0 0 512 512" style="enable-background:new 0 0 512 512;" xml:space="preserve">
<circle style="fill:#686BDF;" cx="256" cy="256" r="256"/>
<path style="fill:#F7CF9C;" d="M506.076,332.747c-7.994-9.302-19.76-9.022-31.546-2.458c-27.598,15.372-87.49,42.801-87.49,42.801
	h-0.002c1.904-3.06,3.022-6.831,3.022-11.472c0-15.023-22.413-23.126-48.1-27.483c-19.747-5.413-40.815-6.313-64.658-22.237
	c-27.634-18.456-57.244-14.488-78.16-8.267c-22.459,6.679-39.025,4.128-55.72,4.683v4.016l0,0v110.554
	c9.222,0.811,19.802-0.737,34.41,5.202c25.654,10.431,95.072,33.705,142.629,33.705c39.15,0,136.082-55.572,180.592-93.806
	C512.753,357.934,516.079,344.388,506.076,332.747z"/>
<g>
	<path style="fill:#EDB87E;" d="M387.04,373.09L387.04,373.09c-5.715,7.122-15.267,10.962-24.399,9.683l-85.088-11.837
		c-4.378-0.611-8.423,2.446-9.032,6.826c-0.609,4.379,2.446,8.423,6.826,9.033l85.088,11.837c14.95,2.078,30.609-3.889,40.765-18.16
		c0.724-1.068,1.666-3.098,7.833-14.675c0.57-1.079,0.859-2.229,0.911-3.372C396.651,368.688,387.04,373.09,387.04,373.09z"/>
	<path style="fill:#EDB87E;" d="M218.327,299.407c-19.9,2.731-26.501,8.906-52.244,8.906h-22.66c0,40.763,0,90.997,0,114.571
		c9.222,0.811,19.802-0.737,34.41,5.203c8.589,3.492,22.087,8.424,38.024,13.44C168.394,405.259,169.945,333.794,218.327,299.407z"
		/>
</g>
<path style="fill:#DAECF7;" d="M136.105,278.096H87.74v170.833c1.127,0.983,2.267,1.951,3.411,2.915h44.954
	c5.22,0,9.452-4.232,9.452-9.452V287.548C145.558,282.328,141.326,278.096,136.105,278.096z"/>
<path style="fill:#B2D9ED;" d="M136.105,396.028H91.151c-1.144-0.964-2.285-1.931-3.411-2.915v55.815
	c1.127,0.983,2.267,1.951,3.411,2.915h44.954c5.221,0,9.452-4.232,9.452-9.452v-55.815
	C145.558,391.796,141.326,396.028,136.105,396.028z"/>
<path style="fill:#67AAE6;" d="M80.429,267.978H0.288c3.369,73.134,37.423,138.25,89.587,182.786V277.423
	C89.875,272.207,85.646,267.978,80.429,267.978z"/>
<path style="fill:#4C98E0;" d="M80.429,405.431H48.156c12.053,16.735,26.063,31.967,41.719,45.333v-54.779
	C89.875,401.202,85.646,405.431,80.429,405.431z"/>
<path style="fill:#FEC50A;" d="M453.621,30.984l-6.1-10.566c-2.342-4.057-7.578-5.46-11.635-3.118L361.46,60.27
	c-4.057,2.342-5.46,7.578-3.118,11.635l6.133,10.622c1.318,2.284,4.085,3.293,6.563,2.389c11.521-4.2,24.741,0.343,31.084,11.329
	c6.371,11.035,3.644,24.825-5.853,32.686c-1.96,1.623-2.442,4.434-1.169,6.638l6.212,10.76c2.342,4.057,7.578,5.46,11.635,3.118
	l11.504-6.642c1.852-1.069,4.178-0.569,5.501,1.111c7.788,9.89,21.859,12.819,33.08,6.34c11.022-6.363,15.558-19.646,11.289-31.194
	c-0.891-2.41,0.103-5.11,2.328-6.394l10.723-6.191c4.057-2.342,5.46-7.578,3.118-11.635l-6.124-10.607
	c-1.324-2.293-0.811-5.203,1.217-6.905c9.387-7.88,12.057-21.591,5.717-32.573c-6.332-10.968-19.516-15.513-31.023-11.352
	C457.761,34.317,454.958,33.3,453.621,30.984z"/>
<path style="fill:#FCAD19;" d="M457.523,127.999c-1.326-1.678-3.667-2.17-5.538-1.09l-11.62,6.709
	c-4.098,2.366-9.367,0.982-11.709-3.075l-6.212-10.76c-1.272-2.204-0.775-5.025,1.207-6.66c9.603-7.923,12.41-21.76,6.04-32.794
	c-6.343-10.987-19.643-15.483-31.27-11.222c-2.5,0.916-5.284-0.083-6.602-2.367l-6.133-10.622
	c-2.342-4.057-0.906-9.312,3.192-11.678L361.46,60.27c-4.057,2.342-5.46,7.578-3.118,11.635l6.133,10.622
	c1.318,2.284,4.085,3.293,6.563,2.389c11.522-4.2,24.741,0.343,31.084,11.329c6.371,11.034,3.644,24.825-5.853,32.686
	c-1.96,1.623-2.442,4.434-1.169,6.638l6.212,10.76c2.342,4.057,7.578,5.46,11.635,3.118l11.504-6.642
	c1.852-1.069,4.178-0.569,5.501,1.111c7.788,9.89,21.859,12.819,33.08,6.34c5.23-3.019,8.978-7.604,11.039-12.815
	C467.675,136.53,461.69,133.275,457.523,127.999z"/>
<path style="fill:#BBEF89;" d="M417.215,185.195h-12.244c-2.649,0-4.914,1.901-5.375,4.509
	c-2.132,12.068-12.671,21.234-25.35,21.234c-12.494,0-22.91-8.901-25.251-20.707c-0.576-2.903-3.051-5.036-6.011-5.036h-20.225
	v25.744c-14.218,0-25.743,11.526-25.743,25.744s11.526,25.743,25.743,25.743v25.744h20.905c2.566,0,4.775,1.839,5.208,4.368
	c2.075,12.137,12.646,21.375,25.375,21.375c12.996,0,23.743-9.63,25.494-22.144c0.287-2.053,2.005-3.6,4.078-3.6h13.398
	c4.684,0,8.517-3.833,8.517-8.517v-85.939C425.733,189.027,421.9,185.195,417.215,185.195z"/>
<path style="fill:#67AAE6;" d="M322.758,210.938v-25.744h-25.743c0-14.218-11.526-25.743-25.744-25.743
	s-25.744,11.526-25.744,25.743h-17.226c-4.685,0-8.517,3.833-8.517,8.518v12.457c0,2.526-1.809,4.707-4.299,5.126
	c-12.171,2.046-21.444,12.633-21.444,25.386c0,12.709,9.209,23.267,21.318,25.365c2.562,0.444,4.426,2.676,4.426,5.275v12.33
	c0,4.685,3.833,8.517,8.517,8.517h94.457v-25.744c-14.218,0-25.743-11.526-25.743-25.743
	C297.015,222.464,308.541,210.938,322.758,210.938z"/>
<g>
	<path style="fill:#FA6E62;" d="M322.758,107.964V90.738c0-4.685-3.833-8.518-8.517-8.518h-17.226
		c0-14.218-11.526-25.744-25.744-25.744s-25.744,11.526-25.744,25.744h-17.226c-4.685,0-8.517,3.833-8.517,8.518v85.939
		c0,4.685,3.833,8.517,8.517,8.517h17.226c0-14.218,11.526-25.743,25.744-25.743s25.744,11.526,25.744,25.743h25.743v-25.743
		c14.218,0,25.744-11.526,25.744-25.743C348.502,119.49,336.976,107.964,322.758,107.964z"/>
	<path style="fill:#FA6E62;" d="M322.758,103.252V90.738c0-4.685-3.833-8.518-8.517-8.518H299.87c-1.517,0-2.835-1.123-2.988-2.632
		c-1.318-12.981-12.281-23.112-25.611-23.112c-13.165,0-24.022,9.883-25.558,22.634c-0.214,1.777-1.729,3.109-3.52,3.109h-13.892
		c-4.685,0-8.517,3.833-8.517,8.518v85.939c0,4.685,3.833,8.517,8.517,8.517h17.226c0-14.218,11.526-25.743,25.744-25.743
		s25.744,11.526,25.744,25.743h25.743v-21.252c0-2.365,1.688-4.437,4.025-4.804c12.306-1.932,21.719-12.582,21.719-25.431
		c0-12.772-9.301-23.372-21.5-25.396C324.542,107.904,322.758,105.745,322.758,103.252z"/>
</g>
<path style="fill:#7DD776;" d="M377.155,292.526c-0.43-2.525-2.644-4.357-5.206-4.357H359.56c-4.703,0-8.516-3.813-8.516-8.516
	v-10.094c0-3.781-2.628-6.988-6.295-7.909c-11.175-2.809-19.448-12.922-19.448-24.968c0-11.657,7.747-21.504,18.374-24.673
	c4.343-1.295,7.37-5.214,7.37-9.746v-5.917c-0.924-1.919-1.624-3.966-2.05-6.113c-0.576-2.904-3.051-5.039-6.011-5.039h-20.225
	v25.743c-14.218,0-25.744,11.526-25.744,25.744s11.526,25.744,25.744,25.744v25.744h20.905c2.566,0,4.775,1.839,5.208,4.368
	c2.075,12.137,12.646,21.375,25.374,21.375c5.229,0,10.081-1.579,14.142-4.258C382.561,305.81,378.375,299.681,377.155,292.526z"/>
<path style="fill:#4C98E0;" d="M248.07,279.651v-12.33c0-2.6-1.864-4.832-4.426-5.275c-12.109-2.098-21.318-12.656-21.318-25.365
	c0-12.753,9.273-23.34,21.444-25.386c2.491-0.419,4.299-2.6,4.299-5.126v-12.457c0-4.685,3.833-8.518,8.517-8.518h17.226
	c0-8.993,4.614-16.904,11.6-21.507c-4.06-2.675-8.918-4.236-14.143-4.236c-14.218,0-25.744,11.526-25.744,25.744h-17.226
	c-4.684,0-8.517,3.833-8.517,8.518v12.457c0,2.526-1.809,4.707-4.299,5.126c-12.171,2.046-21.444,12.633-21.444,25.386
	c0,12.709,9.209,23.267,21.318,25.365c2.562,0.444,4.426,2.676,4.426,5.275v12.33c0,4.685,3.833,8.517,8.517,8.517h28.286
	C251.903,288.169,248.07,284.336,248.07,279.651z"/>
<path style="fill:#FB5C4B;" d="M248.07,90.738c0-4.685,3.833-8.518,8.517-8.518h13.892c1.79,0,3.306-1.332,3.52-3.11
	c0.926-7.69,5.245-14.332,11.414-18.397c-4.059-2.675-8.917-4.237-14.142-4.237c-13.165,0-24.023,9.883-25.558,22.634
	c-0.214,1.777-1.729,3.11-3.52,3.11h-13.892c-4.684,0-8.517,3.833-8.517,8.518v85.939c0,4.685,3.833,8.517,8.517,8.517h17.226
	c0-4.002,0.913-7.791,2.543-11.169L248.07,90.738L248.07,90.738z"/>
<g>
</g>
<g>
</g>
<g>
</g>
<g>
</g>
<g>
</g>
<g>
</g>
<g>
</g>
<g>
</g>
<g>
</g>
<g>
</g>
<g>
</g>
<g>
</g>
<g>
</g>
<g>
</g>
<g>
</g>
</svg>
