<?xml version="1.0" encoding="UTF-8" standalone="no"?>
<svg
   xmlns:dc="http://purl.org/dc/elements/1.1/"
   xmlns:cc="http://creativecommons.org/ns#"
   xmlns:rdf="http://www.w3.org/1999/02/22-rdf-syntax-ns#"
   xmlns:svg="http://www.w3.org/2000/svg"
   xmlns="http://www.w3.org/2000/svg"
   xmlns:sodipodi="http://sodipodi.sourceforge.net/DTD/sodipodi-0.dtd"
   xmlns:inkscape="http://www.inkscape.org/namespaces/inkscape"
   height="512pt"
   viewBox="0 0 512 512"
   width="512pt"
   version="1.1"
   id="svg28"
   sodipodi:docname="skills-a.svg"
   inkscape:version="0.92.5 (2060ec1f9f, 2020-04-08)">
  <metadata
     id="metadata34">
    <rdf:RDF>
      <cc:Work
         rdf:about="">
        <dc:format>image/svg+xml</dc:format>
        <dc:type
           rdf:resource="http://purl.org/dc/dcmitype/StillImage" />
      </cc:Work>
    </rdf:RDF>
  </metadata>
  <defs
     id="defs32" />
  <sodipodi:namedview
     pagecolor="#ffffff"
     bordercolor="#666666"
     borderopacity="1"
     objecttolerance="10"
     gridtolerance="10"
     guidetolerance="10"
     inkscape:pageopacity="0"
     inkscape:pageshadow="2"
     inkscape:window-width="640"
     inkscape:window-height="480"
     id="namedview30"
     showgrid="false"
     inkscape:zoom="0.34570313"
     inkscape:cx="341.33333"
     inkscape:cy="341.33333"
     inkscape:window-x="0"
     inkscape:window-y="30"
     inkscape:window-maximized="0"
     inkscape:current-layer="svg28" />
  <g
     id="g12"
     transform="matrix(1.2807211,0,0,1.3299237,-72.648642,-84.460456)"
     style="fill:#ffffff">
    <path
       d="m 179.15625,203.25781 c 0,21.21094 -17.19141,38.40235 -38.40234,38.40235 -21.21094,0 -38.40235,-17.19141 -38.40235,-38.40235 0,-21.21094 17.19141,-38.40625 38.40235,-38.40625 21.21093,0 38.40234,17.19531 38.40234,38.40625 z m 0,0"
       id="path6"
       inkscape:connector-curvature="0" />
    <path
       d="m 65.585938,326.55078 c 0,-41.51172 33.652343,-75.16406 75.167972,-75.16406 41.51171,0 75.16406,33.65234 75.16406,75.16406 z m 0,0"
       id="path8"
       inkscape:connector-curvature="0" />
    <path
       d="M 234.01562,224.16016 H 452 v 63.67968 H 234.01562 Z m 0,0"
       id="path10"
       inkscape:connector-curvature="0" />
  </g>
  <path
     d="m 227.0601,255.87532 h 279.17719 v 42.46924 H 227.0601 Z m 0,0"
     id="path14"
     inkscape:connector-curvature="0"
     style="fill:#e9edf5;stroke-width:1.30509055" />
  <path
     d="m 227.0601,213.65544 h 187.11035 v 84.68912 H 227.0601 Z m 0,0"
     id="path16"
     inkscape:connector-curvature="0"
     style="fill:#ffce00;stroke-width:1.30509055" />
  <path
     d="m 227.0601,255.87532 h 187.11035 v 42.46924 H 227.0601 Z m 0,0"
     id="path18"
     inkscape:connector-curvature="0"
     style="fill:#ffa300;stroke-width:1.30509055" />
  <path
     d="M 227.0601,98.585873 H 506.23729 V 183.27499 H 227.0601 Z m 0,0"
     id="path20"
     inkscape:connector-curvature="0"
     style="fill:#ffffff;stroke-width:1.30509055" />
  <path
     d="M 227.0601,98.585873 H 347.42787 V 183.27499 H 227.0601 Z m 0,0"
     id="path22"
     inkscape:connector-curvature="0"
     style="fill:#ffce00;stroke-width:1.30509055" />
  <path
     d="m 227.0601,328.72501 h 279.17719 v 84.68912 H 227.0601 Z m 0,0"
     id="path24"
     inkscape:connector-curvature="0"
     style="fill:#e9edf5;stroke-width:1.30509055" />
  <path
     d="m 227.0601,328.72501 h 80.66542 v 84.68912 H 227.0601 Z m 0,0"
     id="path26"
     inkscape:connector-curvature="0"
     style="fill:#ffa300;stroke-width:1.30509055" />
</svg>
